<?xml version="1.0" encoding="UTF-8"?>
<svg width="378px" height="86px" viewBox="0 0 378 86" version="1.1" xmlns="http://www.w3.org/2000/svg" xmlns:xlink="http://www.w3.org/1999/xlink">
    <!-- Generator: Sketch 51 (57462) - http://www.bohemiancoding.com/sketch -->
    <title>logo</title>
    <desc>Created with Sketch.</desc>
    <defs></defs>
    <g id="logo" stroke="none" stroke-width="1" fill="none" fill-rule="evenodd">
        <path d="M332.962,79.595 L335.698,79.595 L338.624,71.983 C336.912,71.907 335.859,71.181 336.471,69.604 L344.622,48.634 L314.114,48.634 C306.596,48.634 300.737,52.899 297.552,61.053 C296.033,64.969 293.986,69.153 293.986,73.412 C293.986,77.486 296.468,79.595 302.074,79.588 L313.814,79.578 C318.109,79.578 323.728,75.652 325.644,71.594 L325.722,71.594 C324.887,76.59 328.149,79.595 332.962,79.595 Z M325.898,70.736 L309.273,70.736 C306.662,70.736 305.195,70.736 305.195,68.888 C305.195,67.868 305.641,66.406 306.533,64.111 C308.762,58.379 309.273,57.486 314.622,57.486 L331.054,57.486 L325.898,70.736 Z M260.872,58.86 L264.847,48.641 L254.718,48.641 L242.681,79.595 L252.808,79.595 L257.415,67.748 L279.05,67.748 L274.4,79.595 L284.527,79.595 L296.567,48.641 L286.44,48.641 L282.489,58.895 L260.872,58.86 Z M150.772,70.739 L132.682,70.739 L141.28,48.641 L131.152,48.641 L121.598,73.224 C121.152,74.432 120.77,75.584 120.77,76.533 C120.77,78.384 121.979,79.595 125.74,79.595 L166.921,79.578 C171.215,79.567 176.821,75.647 178.737,71.594 L178.815,71.594 C177.977,76.59 181.241,79.595 186.055,79.595 L188.792,79.595 L191.714,71.983 C190.002,71.907 188.951,71.181 189.563,69.604 C192.28,62.617 194.991,55.633 197.71,48.641 L187.584,48.641 C184.718,56.007 181.857,63.369 178.99,70.736 C172.959,70.736 166.933,70.739 160.898,70.739 L169.496,48.641 L159.369,48.641 L150.772,70.739 Z M236.174,79.595 L248.211,48.641 L242.414,48.641 C237.956,48.641 234.646,51.123 230.314,54.182 L209.868,68.451 L209.677,68.451 L217.768,48.641 L207.64,48.641 L195.602,79.595 L201.462,79.595 C205.92,79.595 209.231,77.109 213.625,74.052 L233.943,59.786 L234.135,59.786 L226.045,79.595 L236.174,79.595 Z M262.931,14.878 L254.326,36.979 L244.196,36.979 L252.797,14.878 L237.829,14.878 L241.268,6.025 L281.331,6.025 L277.893,14.878 L262.931,14.878 Z M315.448,36.987 L318.186,36.987 L321.111,29.373 C319.396,29.3 318.346,28.575 318.959,26.997 L327.108,6.025 L296.598,6.025 C289.082,6.025 283.223,10.294 280.038,18.445 C278.519,22.361 276.47,26.545 276.47,30.804 C276.47,34.878 278.954,36.987 284.56,36.979 L296.3,36.97 C300.596,36.97 306.211,33.044 308.131,28.985 L308.21,28.985 C307.373,33.983 310.635,36.987 315.448,36.987 Z M308.385,28.128 L291.757,28.128 C289.147,28.128 287.681,28.128 287.681,26.28 C287.681,25.26 288.127,23.798 289.018,21.503 C291.248,15.772 291.757,14.878 297.108,14.878 L313.542,14.878 L308.385,28.128 Z M224.644,36.979 L236.681,6.025 L197.382,6.025 L189.42,26.472 C188.846,28 187.892,29.403 185.343,29.403 L183.877,29.403 L180.949,36.979 C181.841,37.312 183.877,37.375 185.343,37.375 C191.969,37.375 196.236,35.07 198.91,28.128 L204.071,14.878 L223.114,14.878 L214.518,36.979 L224.644,36.979 Z M173.948,36.987 L176.684,36.987 L179.61,29.373 C177.895,29.3 176.844,28.575 177.457,26.997 L185.607,6.025 L155.098,6.025 C147.583,6.025 141.722,10.294 138.537,18.445 C137.019,22.361 134.97,26.545 134.97,30.804 C134.97,34.878 137.454,36.987 143.06,36.979 L154.8,36.97 C159.094,36.97 164.711,33.044 166.63,28.985 L166.708,28.985 C165.871,33.983 169.133,36.987 173.948,36.987 Z M166.884,28.128 L150.256,28.128 C147.647,28.128 146.18,28.128 146.18,26.28 C146.18,25.26 146.625,23.798 147.519,21.503 C149.747,15.772 150.256,14.878 155.608,14.878 L172.04,14.878 L166.884,28.128 Z M341.709,16.248 L345.684,6.025 L335.556,6.025 L323.519,36.979 L333.644,36.979 L338.253,25.132 L359.888,25.132 L355.237,36.979 L365.366,36.979 L377.403,6.025 L367.277,6.025 L363.328,16.28 L341.709,16.248 Z" id="Fill-1" fill="#000105"></path>
        <path d="M27.94,39.573 C26.485,43.284 25.579,47.334 25.841,51.345 C26.023,54.152 27.049,58.619 30.514,58.835 C32.426,58.955 34.456,57.729 35.905,56.497 C38.723,54.099 40.942,50.494 42.385,46.875 C43.073,45.152 43.625,43.358 44.028,41.556 C45.426,35.338 44.917,29.706 42.913,25.518 C40.976,21.468 37.654,18.702 33.264,17.887 C32.099,17.671 30.88,17.576 29.63,17.644 C34.074,13.578 39.007,10.994 44.33,10.994 C49.295,11.251 53.072,14.543 55.196,19.733 C57.534,25.451 57.852,33.357 55.631,42.175 C53.846,48.259 51.068,53.923 47.706,58.74 L60.752,58.74 C63.951,53.56 66.822,47.623 68.274,41.709 C70.824,31.338 70.369,21.919 67.527,14.974 C67.087,13.897 66.585,12.877 66.033,11.915 C69.082,13.268 71.454,16.011 72.975,19.733 C75.318,25.454 75.637,33.375 73.403,42.203 C71.619,48.277 68.844,53.931 65.488,58.74 L78.534,58.74 C81.935,53.231 84.808,47.136 86.264,40.813 C88.575,30.798 88.068,21.718 85.307,14.974 C84.867,13.897 84.368,12.877 83.813,11.915 C86.864,13.268 89.234,16.011 90.758,19.733 C93.095,25.447 93.414,33.347 91.198,42.156 C89.415,48.248 86.634,53.917 83.269,58.74 L96.313,58.74 C99.671,53.306 102.538,47.256 103.996,41.019 C106.362,30.922 105.868,21.764 103.09,14.974 C100.121,7.717 92.079,0.881 84.533,0.357 C83.896,0.316 83.235,0.291 82.539,0.291 L43.618,0.291 C42.526,0.291 41.51,0.287 40.412,0.361 C32.607,0.903 24.565,5.548 17.727,12.788 C10.066,20.895 4.889,33.315 2.303,42.98 C-0.61,53.407 -0.239,62.91 2.718,69.842 C6.306,78.254 12.918,85.33 22.53,85.33 L64.941,85.33 C72.057,85.195 80.65,77.804 84.867,73.426 L27.431,73.494 C25.473,73.483 23.112,73.215 21.996,72.777 C18.945,71.48 16.574,68.85 15.053,65.279 C12.643,59.629 12.377,51.748 14.822,42.98 C15.733,39.582 16.95,36.32 18.406,33.251 C22.153,30.821 28.291,28.834 31.384,33.17 C30.021,35.219 28.842,37.267 27.94,39.573" id="Fill-2" fill="#000105"></path>
    </g>
</svg>