<svg xmlns="http://www.w3.org/2000/svg" viewBox="0 0 45.63 35"><defs><style>.cls-1,.cls-4{fill:#e1ecf8;}.cls-1,.cls-2{stroke:#e1ecf8;stroke-miterlimit:10;}.cls-2,.cls-3{fill:#fff;}</style></defs><title>placeholder</title><g id="Слой_2" data-name="Слой 2"><g id="Capa_1" data-name="Capa 1"><path class="cls-1" d="M7.13.5h36a2,2,0,0,1,2,2v2a0,0,0,0,1,0,0h-40a0,0,0,0,1,0,0v-2A2,2,0,0,1,7.13.5Z"/><path class="cls-2" d="M5.13,4.5h40a0,0,0,0,1,0,0V28.37a2,2,0,0,1-2,2h-36a2,2,0,0,1-2-2V4.5A0,0,0,0,1,5.13,4.5Z"/><circle class="cls-3" cx="42.13" cy="2.5" r="1"/><circle class="cls-3" cx="39.13" cy="2.5" r="1"/><circle class="cls-3" cx="36.13" cy="2.5" r="1"/><rect class="cls-4" x="26.29" y="7.5" width="16" height="3"/><rect class="cls-4" x="26.29" y="12.5" width="16" height="3"/><rect class="cls-4" x="26.29" y="17.5" width="16" height="3"/><rect class="cls-4" x="7.93" y="22.52" width="34.36" height="5"/><path class="cls-4" d="M24,7.5H8.09v13H24Zm-13.29,10L13.36,13l2.05,2.37L18.09,12l3.3,5.47Z"/><circle class="cls-3" cx="11.06" cy="23.94" r="5.13"/><rect class="cls-3" x="4.45" y="21.12" width="4.44" height="14.42" transform="translate(21.99 3.58) rotate(45)"/><path class="cls-4" d="M8.36,28.37,3.14,33.58,1.41,31.86l5.22-5.22Z"/><path class="cls-4" d="M10.19,23.08l1.73,1.72L9,27.72,7.28,26Z"/><path class="cls-4" d="M13.33,25.56l1.08,1.08-.65.65-1.08-1.08Z"/><path class="cls-4" d="M8.36,20.59l1.08,1.08-.65.65L7.71,21.24Z"/><rect class="cls-4" x="13.81" y="23.48" width="1.53" height="0.92"/><rect class="cls-4" x="10.6" y="19.66" width="0.92" height="1.53"/><path class="cls-4" d="M13.76,20.59l.65.65-1.08,1.08-.65-.65Z"/></g></g></svg>