<svg xmlns="http://www.w3.org/2000/svg" width="51.509" height="42.845" viewBox="0 0 51.509 42.845"><g transform="translate(0.575)"><path d="M40.176,12.8V36.252a3.547,3.547,0,0,1-3.529,3.529H11.829A3.547,3.547,0,0,1,8.3,36.252V12.8" transform="translate(0.941 1.564)" fill="none" stroke="#fff" stroke-miterlimit="10" stroke-width="3"/><path d="M1.5,18.869,25.179,3.5,48.859,18.869" transform="translate(0 0.277)" fill="none" stroke="#fff" stroke-linecap="round" stroke-linejoin="round" stroke-miterlimit="10" stroke-width="3"/><path d="M30.355,30.217H16.921A1.8,1.8,0,0,1,15.1,28.4V17.922A1.8,1.8,0,0,1,16.921,16.1H30.355a1.8,1.8,0,0,1,1.822,1.822V28.4A1.8,1.8,0,0,1,30.355,30.217Z" transform="translate(1.883 2.021)" fill="none" stroke="#fff" stroke-miterlimit="10" stroke-width="3"/><line y1="13.547" transform="translate(25.521 18.121)" fill="none" stroke="#fff" stroke-miterlimit="10" stroke-width="3"/><line x2="17.077" transform="translate(16.983 25.179)" fill="none" stroke="#fff" stroke-miterlimit="10" stroke-width="3"/><path d="M34.706,12.429V2.752A1.263,1.263,0,0,0,33.454,1.5h-3.3A1.263,1.263,0,0,0,28.9,2.752v5.92" transform="translate(3.793 0)" fill="none" stroke="#fff" stroke-miterlimit="10" stroke-width="3"/></g></svg>