<svg xmlns="http://www.w3.org/2000/svg" width="2476.305" height="322.397" viewBox="0 0 2476.305 322.397">
  <defs>
    <style>
      .cls-1 {
        fill: #ddefff;
      }
    </style>
  </defs>
  <path id="Union_15" data-name="Union 15" class="cls-1" d="M1109.906,321.569c-87.369-3.234-168.015-15.6-233.9-34.019-37.2,22.178-86.737,34.778-140.72,32.78-59.745-2.211-112.893-21.858-149.189-51.358-58.919,13.507-128.645,21.32-203.369,21.32C171.353,290.291,0,227.784,0,150.676S171.353,11.061,382.728,11.061c106.1,0,202.115,15.749,271.438,41.188a281.239,281.239,0,0,1,90.315-10.981c39.588,1.465,76.274,10.583,107.086,25.153,72.216-18.4,165.723-27.681,267.534-23.913,74.579,2.76,144.273,12.178,204.056,26.332,45.8-14.769,98.13-26.045,154.134-32.283,124.988-13.923,237.094.731,301.433,34.174C1849.416,42.015,1942.459,19.07,2045.445,7.6c230.224-25.646,423.023,15.73,430.628,92.416S2303.209,259.654,2072.985,285.3c-147.375,16.416-279.429,5.367-357.37-24.825-56.867,25.306-130.028,44.788-210.783,53.783-72.385,8.063-140.457,6.541-197.423-2.663-46.395,6.98-98.118,10.8-152.984,10.8Q1132.478,322.4,1109.906,321.569Z"/>
</svg>
