<svg xmlns="http://www.w3.org/2000/svg" width="453.076" height="218.1" viewBox="0 0 453.076 218.1"><g transform="translate(-73.985 -75.381)"><g transform="translate(108.7 150.443)"><g transform="translate(0 13.938)"><g transform="translate(0 1.125)"><g transform="translate(11 14.2)"><path d="M120.6,210.7a1.08,1.08,0,0,0,.7-.3l6.7-6.8a1.674,1.674,0,0,1,1.5-.4c2.3.6,4.9-1.3,6.1-2.5l14.3-14.5a3.542,3.542,0,0,0,.2-5.1,3.631,3.631,0,0,0-2.6-1.1,4.151,4.151,0,0,0-2.6,1.2.919.919,0,1,0,1.3,1.3,2.111,2.111,0,0,1,1.3-.7,2.078,2.078,0,0,1,1.2.5,1.634,1.634,0,0,1-.2,2.4l-14.2,14.7c-1.2,1.2-3.1,2.3-4.3,2a3.324,3.324,0,0,0-3.3.9l-6.7,6.8a.853.853,0,0,0,0,1.3A.6.6,0,0,0,120.6,210.7Z" transform="translate(-119.7 -180)" fill="#0073ff"/></g><path d="M109.7,202.3a1.08,1.08,0,0,0,.7-.3l8.2-8.5a3.248,3.248,0,0,0,.9-3v-.2c-.1-.8-.1-2.9-.1-5.6a33.042,33.042,0,0,1,.4-5.6V179l2.5-7.2a1.779,1.779,0,0,1,.7-.8,1.376,1.376,0,0,1,1.1-.1,1.4,1.4,0,0,1,.8,1.8h0l-2,6a2.22,2.22,0,0,0,.1,1.6l.9,1.7a.752.752,0,0,0,.7.5,1.136,1.136,0,0,0,.8-.3l13.9-14a1.606,1.606,0,0,1,1.1-.5h0a2.1,2.1,0,0,1,1.1.4,1.569,1.569,0,0,1,0,2.2l-9.2,9.2a.919.919,0,0,0,1.3,1.3l9.2-9.2a3.441,3.441,0,0,0,0-4.8,3.492,3.492,0,0,0-2.4-1h0a3.492,3.492,0,0,0-2.4,1l-12.9,13.1-.3-.6v-.1h0l2-6a3.593,3.593,0,0,0-.1-2.5,3.2,3.2,0,0,0-1.9-1.7,3.593,3.593,0,0,0-2.5.1,3.2,3.2,0,0,0-1.7,1.9l-2.5,7.2c-.7,1.7-.7,10.6-.5,12.3v.5h0v.2a1.612,1.612,0,0,1-.4.7l-8.2,8.5a.853.853,0,0,0,0,1.3C109.2,202.2,109.4,202.3,109.7,202.3Z" transform="translate(-108.7 -165.8)" fill="#0073ff"/><g transform="translate(26.4 0.65)"><path d="M136.1,185.4a1.08,1.08,0,0,0,.7-.3l12.7-12.7a3.465,3.465,0,1,0-4.9-4.9l-2.8,2.8a.919.919,0,0,0,1.3,1.3l2.8-2.8a1.556,1.556,0,0,1,2.2,2.2l-12.7,12.7a.853.853,0,0,0,0,1.3A.755.755,0,0,0,136.1,185.4Z" transform="translate(-135.1 -166.45)" fill="#0073ff"/></g><g transform="translate(30 5.55)"><path d="M139.6,189a1.08,1.08,0,0,0,.7-.3l11.4-11.4a3.465,3.465,0,0,0-4.9-4.9l-2.8,2.8a.919.919,0,1,0,1.3,1.3l2.8-2.8a1.569,1.569,0,0,1,2.2,0,1.46,1.46,0,0,1,0,2.2L139,187.4a.853.853,0,0,0,0,1.3A.713.713,0,0,0,139.6,189Z" transform="translate(-138.7 -171.35)" fill="#0073ff"/></g></g><g transform="translate(23.245)"><g transform="translate(0 13.445)"><path d="M132.9,210.1a.908.908,0,0,0,.7-.3l5.1-5.6.1-.1a1.537,1.537,0,0,1,1.4-.6c2.3.3,4.7-1.9,5.7-3.3L158.2,184a3.531,3.531,0,0,0-.5-5.1,3.347,3.347,0,0,0-4.8.5.93.93,0,0,0,1.5,1.1,1.531,1.531,0,0,1,2.2-.1,1.637,1.637,0,0,1,.1,2.4l-12.2,16.3c-1,1.4-2.8,2.7-4,2.6a3.386,3.386,0,0,0-3.2,1.3l-5.1,5.6a.854.854,0,0,0,.1,1.3A1.072,1.072,0,0,0,132.9,210.1Z" transform="translate(-131.945 -178.12)" fill="#0073ff"/></g><g transform="translate(18.28)"><path d="M153.8,172.4a.91.91,0,0,0,.8-.4l1.3-1.7a3.456,3.456,0,0,0,.7-2.6,3.6,3.6,0,0,0-1.3-2.3,3.456,3.456,0,0,0-2.6-.7,3.6,3.6,0,0,0-2.3,1.3.93.93,0,0,0,1.5,1.1,1.524,1.524,0,0,1,1-.6,1.8,1.8,0,0,1,1.2.3,1.524,1.524,0,0,1,.6,1,1.8,1.8,0,0,1-.3,1.2l-1.3,1.7a.948.948,0,0,0,.2,1.3A.51.51,0,0,0,153.8,172.4Z" transform="translate(-150.226 -164.675)" fill="#0073ff"/></g><g transform="translate(19.98 4.491)"><path d="M152.8,182a.91.91,0,0,0,.8-.4l5.2-6.8a3.456,3.456,0,0,0,.7-2.6,3.6,3.6,0,0,0-1.3-2.3,3.429,3.429,0,0,0-4.9.7l-.2.2a.93.93,0,0,0,1.5,1.1l.2-.2a1.57,1.57,0,0,1,2.5,1.9l-5.2,6.8a.948.948,0,0,0,.2,1.3A.55.55,0,0,0,152.8,182Z" transform="translate(-151.926 -169.167)" fill="#0073ff"/></g></g></g><g transform="translate(47.826 1.188)"><path d="M157.4,162.5a.91.91,0,0,0,.8-.4l6.7-8.7a.93.93,0,1,0-1.5-1.1l-6.7,8.7a.948.948,0,0,0,.2,1.3A.764.764,0,0,0,157.4,162.5Z" transform="translate(-156.526 -151.926)" fill="#0073ff"/></g><g transform="translate(39.437)"><path d="M149.1,160.6a.961.961,0,0,0,.9-.7l2.6-7.9a.949.949,0,0,0-1.8-.6l-2.6,8a.931.931,0,0,0,.6,1.2Z" transform="translate(-148.137 -150.737)" fill="#0073ff"/></g><g transform="translate(52.923 13.886)"><path d="M162.5,169.4a.756.756,0,0,0,.4-.1l7-2.9a.919.919,0,0,0-.7-1.7l-7,2.9a.913.913,0,0,0-.5,1.2A.76.76,0,0,0,162.5,169.4Z" transform="translate(-161.623 -164.623)" fill="#0073ff"/></g><g transform="translate(30.5 1.563)"><path d="M140.2,161.5a.9.9,0,0,0,.9-.9l.5-7.3a.951.951,0,0,0-1.9-.1l-.5,7.3a1,1,0,0,0,1,1Z" transform="translate(-139.2 -152.3)" fill="#0073ff"/></g><g transform="translate(53.4 27.263)"><path d="M163.1,180h6.2a1,1,0,0,0,0-2h-6.2a1,1,0,0,0-1,1A.945.945,0,0,0,163.1,180Z" transform="translate(-162.1 -178)" fill="#0073ff"/></g></g><g transform="translate(361.698 98.326)"><g transform="translate(0.6)"><line x2="0.8" y2="1" transform="translate(0.874 0.974)" fill="none"/><path d="M364.8,101.3a.909.909,0,0,1-.8-.4l-.7-1a1,1,0,0,1,1.6-1.2l.7,1a1.075,1.075,0,0,1-.2,1.4A1.421,1.421,0,0,1,364.8,101.3Z" transform="translate(-363.126 -98.326)" fill="#0073ff"/><g transform="translate(2 2.7)"><line x2="0.7" y2="1" transform="translate(0.974 0.974)" fill="none"/><path d="M366.8,104a.909.909,0,0,1-.8-.4l-.7-1a1,1,0,0,1,1.6-1.2l.7,1a1.075,1.075,0,0,1-.2,1.4A.735.735,0,0,1,366.8,104Z" transform="translate(-365.126 -101.026)" fill="#0073ff"/></g></g><g transform="translate(0 0.5)"><g transform="translate(0 2)"><line y1="0.7" x2="1" transform="translate(0.974 0.974)" fill="none"/><path d="M363.5,103.5a.909.909,0,0,1-.8-.4,1.075,1.075,0,0,1,.2-1.4l1-.7a1,1,0,1,1,1.2,1.6l-1,.7A.735.735,0,0,1,363.5,103.5Z" transform="translate(-362.526 -100.826)" fill="#0073ff"/></g><g transform="translate(2.8)"><line y1="0.7" x2="1" transform="translate(0.974 0.974)" fill="none"/><path d="M366.3,101.5a.909.909,0,0,1-.8-.4,1.075,1.075,0,0,1,.2-1.4l1-.7a1,1,0,1,1,1.2,1.6l-1,.7A1.421,1.421,0,0,1,366.3,101.5Z" transform="translate(-365.326 -98.826)" fill="#0073ff"/></g></g></g><g transform="translate(346.537 136.545)"><g transform="translate(0.8)"><line x2="1.2" y2="1.7" transform="translate(0.974 0.974)" fill="none"/><path d="M350.3,140.4a.909.909,0,0,1-.8-.4l-1.2-1.7a1,1,0,0,1,1.6-1.2l1.2,1.7a1.075,1.075,0,0,1-.2,1.4A.845.845,0,0,1,350.3,140.4Z" transform="translate(-348.126 -136.726)" fill="#0073ff"/><g transform="translate(3.5 4.7)"><line x2="1.2" y2="1.7" transform="translate(0.974 0.974)" fill="none"/><path d="M353.8,145.1a.909.909,0,0,1-.8-.4l-1.2-1.7a1,1,0,0,1,1.6-1.2l1.2,1.7a1.075,1.075,0,0,1-.2,1.4A1.421,1.421,0,0,1,353.8,145.1Z" transform="translate(-351.626 -141.426)" fill="#0073ff"/></g></g><g transform="translate(0 0.9)"><g transform="translate(0 3.4)"><line y1="1.2" x2="1.6" transform="translate(0.974 0.974)" fill="none"/><path d="M348.3,144.2a.909.909,0,0,1-.8-.4,1.075,1.075,0,0,1,.2-1.4l1.7-1.2a1,1,0,1,1,1.2,1.6l-1.7,1.2A.735.735,0,0,1,348.3,144.2Z" transform="translate(-347.326 -141.026)" fill="#0073ff"/></g><g transform="translate(4.7)"><line y1="1.2" x2="1.6" transform="translate(0.974 0.974)" fill="none"/><path d="M353,140.8a.909.909,0,0,1-.8-.4,1.075,1.075,0,0,1,.2-1.4l1.7-1.2a1,1,0,1,1,1.2,1.6l-1.7,1.2A1.421,1.421,0,0,1,353,140.8Z" transform="translate(-352.026 -137.626)" fill="#0073ff"/></g></g></g><g transform="translate(280.39 87.685)"><g transform="translate(0 1.9)"><line x2="0.8" y2="0.2" transform="translate(1.015 0.915)" fill="none"/><path d="M282.8,91.7h-.2l-.8-.1a1.02,1.02,0,0,1,.4-2l.8.1a1.037,1.037,0,0,1,.8,1.2A1.187,1.187,0,0,1,282.8,91.7Z" transform="translate(-280.985 -89.585)" fill="#0073ff"/><g transform="translate(3.5 0.6)"><line x2="0.8" y2="0.1" transform="translate(1.015 1.015)" fill="none"/><path d="M286.3,92.3h-.2l-.8-.1a1.02,1.02,0,0,1,.4-2l.8.1a1.037,1.037,0,0,1,.8,1.2A.974.974,0,0,1,286.3,92.3Z" transform="translate(-284.485 -90.185)" fill="#0073ff"/></g></g><g transform="translate(1.8)"><g transform="translate(0 3.6)"><line y1="0.8" x2="0.1" transform="translate(1.015 1.015)" fill="none"/><path d="M283.8,94.1h-.2a1.037,1.037,0,0,1-.8-1.2l.1-.8a1.02,1.02,0,1,1,2,.4l-.1.8A1.187,1.187,0,0,1,283.8,94.1Z" transform="translate(-282.785 -91.285)" fill="#0073ff"/></g><g transform="translate(0.6)"><line y1="0.7" x2="0.1" transform="translate(1.015 1.115)" fill="none"/><path d="M284.4,90.5h-.2a1.037,1.037,0,0,1-.8-1.2l.1-.8a1.02,1.02,0,1,1,2,.4l-.1.8A.974.974,0,0,1,284.4,90.5Z" transform="translate(-283.385 -87.685)" fill="#0073ff"/></g></g></g><g transform="translate(73.985 147.175)"><g transform="translate(0 1.9)"><line x2="0.8" y2="0.2" transform="translate(1.015 0.915)" fill="none"/><path d="M75.8,151.4h-.2l-.8-.1a1.02,1.02,0,0,1,.4-2l.8.1a1.037,1.037,0,0,1,.8,1.2A1.187,1.187,0,0,1,75.8,151.4Z" transform="translate(-73.985 -149.285)" fill="#0073ff"/><g transform="translate(3.5 0.6)"><line x2="0.8" y2="0.1" transform="translate(1.015 1.015)" fill="none"/><path d="M79.3,152h-.2l-.8-.1a1.02,1.02,0,1,1,.4-2l.8.1a1.037,1.037,0,0,1,.8,1.2A.974.974,0,0,1,79.3,152Z" transform="translate(-77.485 -149.885)" fill="#0073ff"/></g></g><g transform="translate(1.8)"><g transform="translate(0 3.6)"><line y1="0.8" x2="0.1" transform="translate(1.015 1.015)" fill="none"/><path d="M76.8,153.8h-.2a1.037,1.037,0,0,1-.8-1.2l.1-.8a1.02,1.02,0,0,1,2,.4l-.1.8A1.188,1.188,0,0,1,76.8,153.8Z" transform="translate(-75.785 -150.985)" fill="#0073ff"/></g><g transform="translate(0.6)"><line y1="0.7" x2="0.1" transform="translate(1.015 1.115)" fill="none"/><path d="M77.4,150.2h-.2a1.037,1.037,0,0,1-.8-1.2l.1-.8a1.02,1.02,0,0,1,2,.4l-.1.8A.974.974,0,0,1,77.4,150.2Z" transform="translate(-76.385 -147.385)" fill="#0073ff"/></g></g></g><g transform="translate(521.367 265.334)"><path d="M527.4,274a1.421,1.421,0,0,1-.6-.2l-3.7-2.6a.9.9,0,0,1-.2-1.4l2.4-3.4a1,1,0,0,1,1.6,1.2l-1.8,2.6,2.8,2a.9.9,0,0,1,.2,1.4C528.1,273.8,527.8,274,527.4,274Z" transform="translate(-522.653 -265.953)" fill="#0073ff"/></g><g transform="translate(181.719 80.985)"><path d="M192,113.5a2.375,2.375,0,0,1-1.2-.3,2.35,2.35,0,0,1-1.3-2.4l.3-8.2a.367.367,0,0,0-.1-.3l-6.6-4.9a2.462,2.462,0,0,1,.8-4.4l7.9-2.3a.215.215,0,0,0,.2-.2l2.6-7.8a2.348,2.348,0,0,1,2.1-1.7,2.71,2.71,0,0,1,2.5,1.1l4.5,6.8c.1.1.2.2.3.2l8.2.1a2.542,2.542,0,0,1,2.3,1.4,2.435,2.435,0,0,1-.3,2.7h0l-5.1,6.5a.367.367,0,0,0-.1.3l2.4,7.8a2.689,2.689,0,0,1-.6,2.6,2.521,2.521,0,0,1-2.6.5l-7.7-2.8h-.3l-6.7,4.7A1.716,1.716,0,0,1,192,113.5Zm5.1-30.2h0c-.1,0-.3.1-.3.2l-2.6,7.8a2.3,2.3,0,0,1-1.7,1.6l-7.9,2.3c-.2.1-.2.2-.2.3a.367.367,0,0,0,.1.3l6.6,4.9a2.574,2.574,0,0,1,1,2.2l-.3,8.2c0,.2.1.3.2.3s.2.1.4,0l6.7-4.7a3.188,3.188,0,0,1,2.4-.3l7.7,2.8c.2.1.3,0,.4-.1s.1-.2.1-.4l-2.4-7.8a2.7,2.7,0,0,1,.4-2.3l5.1-6.5h0a.3.3,0,0,0,0-.4c0-.1-.1-.2-.3-.2l-8.2-.1a2.476,2.476,0,0,1-2.1-1.1l-4.5-6.8C197.3,83.3,197.2,83.3,197.1,83.3Zm16.3,9.5Z" transform="translate(-182.049 -80.985)" fill="#0073ff"/></g><g transform="translate(82.871 75.381)"><g transform="translate(0 15.589)"><path d="M86.5,99h-.6a3.494,3.494,0,0,1-2.6-1.7,3.385,3.385,0,0,1-.1-3.1,5.3,5.3,0,0,1,2.2-2.5c2.2-1.3,4.9-.8,5.9,1h0c1.1,1.8.1,4.3-2.1,5.6A6.367,6.367,0,0,1,86.5,99ZM88,92.9a4.058,4.058,0,0,0-1.7.5,4.009,4.009,0,0,0-1.4,1.5,1.691,1.691,0,0,0,0,1.4,1.546,1.546,0,0,0,1.2.7,3.606,3.606,0,0,0,2-.4c1.2-.7,1.9-2,1.4-2.9h0A1.541,1.541,0,0,0,88,92.9Z" transform="translate(-82.871 -90.97)" fill="#0073ff"/></g><g transform="translate(6.829 2.619)"><path d="M90.7,95.2a.945.945,0,0,1-1-1V79a1,1,0,0,1,2,0V94.1A1.028,1.028,0,0,1,90.7,95.2Z" transform="translate(-89.7 -78)" fill="#0073ff"/></g><g transform="translate(12.482 12.894)"><path d="M99,96.4h-.6a3.494,3.494,0,0,1-2.6-1.7,3.929,3.929,0,0,1-.2-3.2A5.3,5.3,0,0,1,97.8,89a5.508,5.508,0,0,1,3.3-.7,3.494,3.494,0,0,1,2.6,1.7,3.385,3.385,0,0,1,.1,3.1,5.3,5.3,0,0,1-2.2,2.5A4.957,4.957,0,0,1,99,96.4Zm1.5-6.1a4.058,4.058,0,0,0-1.7.5,4.009,4.009,0,0,0-1.4,1.5,1.691,1.691,0,0,0,0,1.4,1.546,1.546,0,0,0,1.2.7,3.606,3.606,0,0,0,2-.4,4.009,4.009,0,0,0,1.4-1.5,1.691,1.691,0,0,0,0-1.4h0a1.546,1.546,0,0,0-1.2-.7A.367.367,0,0,0,100.5,90.3Z" transform="translate(-95.353 -88.275)" fill="#0073ff"/></g><g transform="translate(19.329 0.019)"><path d="M103.2,92.6a.945.945,0,0,1-1-1V76.4a1,1,0,0,1,2,0V91.6A1.075,1.075,0,0,1,103.2,92.6Z" transform="translate(-102.2 -75.4)" fill="#0073ff"/></g><g transform="translate(6.81)"><path d="M90.7,80a.974.974,0,0,1-1-.8,1.012,1.012,0,0,1,.8-1.2L103,75.4a1.02,1.02,0,0,1,.4,2L90.9,80Z" transform="translate(-89.681 -75.381)" fill="#0073ff"/></g></g><g transform="translate(257.263 150.525)"><path d="M263.3,161.7a6.389,6.389,0,0,1-4-1.3,3.88,3.88,0,0,1-1.5-3.1c0-2.9,3-5.7,6.8-6.4a6.758,6.758,0,0,1,5.7,1.2,3.88,3.88,0,0,1,1.5,3.1c0,2.9-3,5.7-6.8,6.4C264.3,161.6,263.8,161.7,263.3,161.7Zm2.9-9a6.15,6.15,0,0,0-1.3.1c-2.8.5-5.2,2.6-5.2,4.5a2.254,2.254,0,0,0,.8,1.6,4.909,4.909,0,0,0,4.1.7c2.8-.5,5.2-2.6,5.2-4.5a2.254,2.254,0,0,0-.8-1.6A4.232,4.232,0,0,0,266.2,152.7Z" transform="translate(-257.8 -150.75)" fill="#0073ff"/></g><g transform="translate(275.21 146.537)"><path d="M281.3,157.7a6.389,6.389,0,0,1-4-1.3,3.88,3.88,0,0,1-1.5-3.1c0-2.9,3-5.7,6.8-6.4a6.758,6.758,0,0,1,5.7,1.2,3.88,3.88,0,0,1,1.5,3.1c0,2.9-3,5.7-6.8,6.4C282.3,157.6,281.8,157.7,281.3,157.7Zm2.9-9a6.15,6.15,0,0,0-1.3.1c-2.8.5-5.2,2.6-5.2,4.5a2.254,2.254,0,0,0,.8,1.6,4.909,4.909,0,0,0,4.1.7c2.8-.5,5.2-2.6,5.2-4.5a2.254,2.254,0,0,0-.8-1.6A4.232,4.232,0,0,0,284.2,148.7Z" transform="translate(-275.8 -146.75)" fill="#0073ff"/></g><g transform="translate(269.12 122.504)"><path d="M271.7,155.1h-2V127.7a.974.974,0,0,1,.8-1l18-4a.778.778,0,0,1,.8.2,1.234,1.234,0,0,1,.4.8v27.4h-2V124.9l-16,3.6v26.6Z" transform="translate(-269.7 -122.661)" fill="#0073ff"/></g><g transform="translate(269.912 128.569)"><rect width="18.4" height="2" transform="translate(0 3.987) rotate(-12.516)" fill="#0073ff"/></g><g transform="translate(292.061 170.964)"><path d="M298.2,182.2a6.389,6.389,0,0,1-4-1.3,3.88,3.88,0,0,1-1.5-3.1c0-2.9,3-5.7,6.8-6.4a6.758,6.758,0,0,1,5.7,1.2,3.88,3.88,0,0,1,1.5,3.1c0,2.9-3,5.7-6.8,6.4C299.3,182.1,298.7,182.2,298.2,182.2Zm2.9-9a6.15,6.15,0,0,0-1.3.1c-2.8.5-5.2,2.6-5.2,4.5a2.254,2.254,0,0,0,.8,1.6,4.909,4.909,0,0,0,4.1.7c2.8-.5,5.2-2.6,5.2-4.5a2.254,2.254,0,0,0-.8-1.6A3.91,3.91,0,0,0,301.1,173.2Z" transform="translate(-292.7 -171.25)" fill="#0073ff"/></g><g transform="translate(304.029 147.029)"><path d="M306.7,175.6h-2V148.2a.96.96,0,0,1,.7-.9,1.128,1.128,0,0,1,1.1.3,31.81,31.81,0,0,0,5.2,4.9c3.4,2.6,5.1,5.7,5.1,9.7a.974.974,0,0,1-.8,1,.948.948,0,0,1-1.1-.5,10.086,10.086,0,0,0-4.7-4.3,16.169,16.169,0,0,1-3.5-1.9v19.1Zm0-21.8a11.5,11.5,0,0,0,4.2,2.7,10.252,10.252,0,0,1,3.2,2,10.5,10.5,0,0,0-3.6-4.4,25.141,25.141,0,0,1-3.7-3.3l-.1,3Z" transform="translate(-304.7 -147.263)" fill="#0073ff"/></g><g transform="translate(417.815 182.493)"><path d="M421.9,184.8h-2.1a1,1,0,1,1,0-2h2.1a1,1,0,0,1,0,2Z" transform="translate(-418.8 -182.8)" fill="#0073ff"/></g><g transform="translate(411.633 182.493)"><path d="M415.7,184.8h-2.1a1,1,0,0,1,0-2h2.1a1,1,0,0,1,0,2Z" transform="translate(-412.6 -182.8)" fill="#0073ff"/></g><g transform="translate(415.825 178.302)"><path d="M417.8,182.7a.945.945,0,0,1-1-1v-2.1a1,1,0,0,1,2,0v2.1A1,1,0,0,1,417.8,182.7Z" transform="translate(-416.8 -178.6)" fill="#0073ff"/></g><g transform="translate(415.825 184.484)"><path d="M417.8,188.9a.945.945,0,0,1-1-1v-2.1a1,1,0,0,1,2,0v2.1A1,1,0,0,1,417.8,188.9Z" transform="translate(-416.8 -184.8)" fill="#0073ff"/></g><g transform="translate(267.147 179.402)"><path d="M270.7,181.7h-2a1,1,0,0,1,0-2h2a1,1,0,0,1,0,2Z" transform="translate(-267.7 -179.7)" fill="#0073ff"/></g><g transform="translate(261.164 179.402)"><path d="M264.7,181.7h-2a1,1,0,0,1,0-2h2a1,1,0,0,1,0,2Z" transform="translate(-261.7 -179.7)" fill="#0073ff"/></g><g transform="translate(265.155 175.411)"><path d="M266.7,179.7a.945.945,0,0,1-1-1v-2a1,1,0,0,1,2,0v2A.945.945,0,0,1,266.7,179.7Z" transform="translate(-265.7 -175.7)" fill="#0073ff"/></g><g transform="translate(265.155 181.393)"><path d="M266.7,185.7a.945.945,0,0,1-1-1v-2a1,1,0,0,1,2,0v2A.945.945,0,0,1,266.7,185.7Z" transform="translate(-265.7 -181.7)" fill="#0073ff"/></g><g transform="translate(455.714 272.181)"><line x1="4" y2="4" transform="translate(1 0.9)" fill="none"/><path d="M458,278.8a.908.908,0,0,1-.7-.3.967.967,0,0,1,0-1.4l4-4a.99.99,0,0,1,1.4,1.4l-4,4A1.493,1.493,0,0,1,458,278.8Z" transform="translate(-457 -272.8)" fill="#0073ff"/></g><g transform="translate(443.514 284.281)"><line x1="4.1" y2="4" transform="translate(1 1)" fill="none"/><path d="M445.8,290.9a.908.908,0,0,1-.7-.3.967.967,0,0,1,0-1.4l4-4a.99.99,0,1,1,1.4,1.4l-4,4A.779.779,0,0,1,445.8,290.9Z" transform="translate(-444.8 -284.9)" fill="#0073ff"/></g><g transform="translate(451.614 268.981)"><line y2="4.8" transform="translate(1 1)" fill="none"/><path d="M453.9,276.5a.945.945,0,0,1-1-1v-4.9a1,1,0,0,1,2,0v4.9C455,276.1,454.4,276.5,453.9,276.5Z" transform="translate(-452.9 -269.6)" fill="#0073ff"/></g><g transform="translate(451.614 286.481)"><line y2="4.9" transform="translate(1 1)" fill="none"/><path d="M453.9,294a.945.945,0,0,1-1-1v-4.9a1,1,0,0,1,2,0V293C455,293.6,454.4,294,453.9,294Z" transform="translate(-452.9 -287.1)" fill="#0073ff"/></g><g transform="translate(443.614 272.181)"><line x2="4.1" y2="4" transform="translate(0.9 0.9)" fill="none"/><path d="M449.9,278.8a.908.908,0,0,1-.7-.3l-4-4a.99.99,0,0,1,1.4-1.4l4,4a.967.967,0,0,1,0,1.4A2.117,2.117,0,0,1,449.9,278.8Z" transform="translate(-444.9 -272.8)" fill="#0073ff"/></g><g transform="translate(455.714 284.281)"><line x2="4" y2="4" transform="translate(1 1)" fill="none"/><path d="M462,290.9a.908.908,0,0,1-.7-.3l-4-4a.99.99,0,1,1,1.4-1.4l4,4a.967.967,0,0,1,0,1.4A.908.908,0,0,1,462,290.9Z" transform="translate(-457 -284.9)" fill="#0073ff"/></g><g transform="translate(440.314 280.281)"><line x2="4.9" transform="translate(1.1 0.9)" fill="none"/><path d="M447.6,282.9h-5a1,1,0,0,1,0-2h4.9a.945.945,0,0,1,1,1A.871.871,0,0,1,447.6,282.9Z" transform="translate(-441.6 -280.9)" fill="#0073ff"/></g><g transform="translate(457.914 280.281)"><line x2="4.9" transform="translate(1 0.9)" fill="none"/><path d="M465.1,282.9h-4.9a1,1,0,1,1,0-2h4.9a1,1,0,0,1,0,2Z" transform="translate(-459.2 -280.9)" fill="#0073ff"/></g><g transform="translate(450.139 278.681)"><circle cx="1.4" cy="1.4" r="1.4" transform="translate(1.075 1.1)" fill="#fff"/><path d="M453.9,284.2a2.743,2.743,0,0,1-1.8-.7h0a2.605,2.605,0,0,1,0-3.5,2.268,2.268,0,0,1,1.8-.7h0a2.743,2.743,0,0,1,1.8.7,2.605,2.605,0,0,1,0,3.5A2.567,2.567,0,0,1,453.9,284.2Zm-.3-2.1a.33.33,0,0,0,.5,0,.446.446,0,0,0,0-.5.367.367,0,0,0-.3-.1h0a.367.367,0,0,0-.3.1S453.5,282,453.6,282.1Z" transform="translate(-451.425 -279.3)" fill="#0073ff"/></g><g transform="translate(436.589 139.19)"><line x1="3.4" y2="3.4" transform="translate(0.825 0.725)" fill="none"/><path d="M438.7,144.3a1.421,1.421,0,0,1-.6-.2.91.91,0,0,1,0-1.2l3.3-3.3a.849.849,0,0,1,1.2,1.2l-3.3,3.3A1.072,1.072,0,0,1,438.7,144.3Z" transform="translate(-437.875 -139.375)" fill="#0073ff"/></g><g transform="translate(426.762 149.26)"><line x1="3.4" y2="3.4" transform="translate(0.825 0.725)" fill="none"/><path d="M428.6,154.4a1.421,1.421,0,0,1-.6-.2.91.91,0,0,1,0-1.2l3.3-3.3a.91.91,0,0,1,1.2,0c.4.3.3.8,0,1.2l-3.3,3.3A.845.845,0,0,1,428.6,154.4Z" transform="translate(-427.775 -149.475)" fill="#0073ff"/></g><g transform="translate(433.575 136.721)"><line y2="4" transform="translate(0.8 0.6)" fill="none"/><path d="M435.4,142.5a.736.736,0,0,1-.8-.8v-4a.8.8,0,1,1,1.6,0v4A.953.953,0,0,1,435.4,142.5Z" transform="translate(-434.6 -136.9)" fill="#0073ff"/></g><g transform="translate(433.575 151.179)"><line y2="4.1" transform="translate(0.8 0.7)" fill="none"/><path d="M435.4,157a.736.736,0,0,1-.8-.8v-4a.8.8,0,1,1,1.6,0v4A.789.789,0,0,1,435.4,157Z" transform="translate(-434.6 -151.4)" fill="#0073ff"/></g><g transform="translate(426.862 139.19)"><line x2="3.4" y2="3.4" transform="translate(0.725 0.725)" fill="none"/><path d="M432,144.3a1.421,1.421,0,0,1-.6-.2l-3.3-3.3a.849.849,0,0,1,1.2-1.2l3.3,3.3a.91.91,0,0,1,0,1.2A1.072,1.072,0,0,1,432,144.3Z" transform="translate(-427.875 -139.375)" fill="#0073ff"/></g><g transform="translate(436.689 149.222)"><line x2="3.4" y2="3.4" transform="translate(0.725 0.764)" fill="none"/><path d="M442.1,154.4a1.421,1.421,0,0,1-.6-.2l-3.3-3.3a.91.91,0,0,1,0-1.2c.3-.4.8-.3,1.2,0l3.3,3.3a.91.91,0,0,1,0,1.2A1.421,1.421,0,0,1,442.1,154.4Z" transform="translate(-437.975 -149.436)" fill="#0073ff"/></g><g transform="translate(424.193 145.898)"><line x2="4.1" transform="translate(0.8 0.8)" fill="none"/><path d="M430.1,147.7H426a.8.8,0,0,1,0-1.6h4a.736.736,0,0,1,.8.8A.713.713,0,0,1,430.1,147.7Z" transform="translate(-425.2 -146.1)" fill="#0073ff"/></g><g transform="translate(438.614 145.898)"><line x2="4.1" transform="translate(0.7 0.8)" fill="none"/><path d="M444.7,147.7h-4a.8.8,0,0,1,0-1.6h4a.8.8,0,0,1,0,1.6Z" transform="translate(-439.9 -146.1)" fill="#0073ff"/></g><g transform="translate(432.448 144.6)"><circle cx="1.2" cy="1.2" r="1.2" transform="translate(0.725 0.9)" fill="#fff"/><path d="M435.4,148.9a1.974,1.974,0,0,1-1.4-.6h0a2.264,2.264,0,0,1,0-2.9,1.816,1.816,0,0,1,1.4-.6h0a1.974,1.974,0,0,1,1.4.6,2.264,2.264,0,0,1,0,2.9A1.974,1.974,0,0,1,435.4,148.9Zm-.3-1.9c.2.2.3.1.4,0,.1-.2.1-.3,0-.4a.31.31,0,0,0-.2-.1h0c-.1,0-.2,0-.2.1S435.1,147,435.1,147Z" transform="translate(-433.475 -144.8)" fill="#0073ff"/></g><g transform="translate(484.814 213.324)"><circle cx="1.4" cy="1.4" r="1.4" transform="translate(1.1 1.075)" fill="#fff"/><path d="M488.6,218.7a2.743,2.743,0,0,1-1.8-.7,1.986,1.986,0,0,1-.7-1.8,2.743,2.743,0,0,1,.7-1.8,2.605,2.605,0,0,1,3.5,0,2.268,2.268,0,0,1,.7,1.8,2.743,2.743,0,0,1-.7,1.8A2.837,2.837,0,0,1,488.6,218.7Zm0-2.9a.426.426,0,0,0-.3.7h0a.33.33,0,0,0,.5,0,.5.5,0,0,0,0-.6C488.8,215.8,488.7,215.8,488.6,215.8Z" transform="translate(-486.1 -213.725)" fill="#0073ff"/></g><g transform="translate(490.314 208.714)"><line x1="2.1" y2="1.9" transform="translate(1 1.1)" fill="none"/><path d="M492.6,213.2a.908.908,0,0,1-.7-.3.967.967,0,0,1,0-1.4l2.1-2.1a.99.99,0,0,1,1.4,1.4l-2.1,2.1A.745.745,0,0,1,492.6,213.2Z" transform="translate(-491.6 -209.1)" fill="#0073ff"/></g><g transform="translate(480.214 218.785)"><line x1="2" y2="1.9" transform="translate(1 1.1)" fill="none"/><path d="M482.5,223.3a.908.908,0,0,1-.7-.3.967.967,0,0,1,0-1.4l2.1-2.1a.99.99,0,0,1,1.4,1.4l-2.1,2.1A.745.745,0,0,1,482.5,223.3Z" transform="translate(-481.5 -219.2)" fill="#0073ff"/></g><g transform="translate(490.214 218.785)"><line x1="2.1" y1="1.9" transform="translate(1.1 1.1)" fill="none"/><path d="M494.6,223.3a.908.908,0,0,1-.7-.3l-2.1-2.1a.99.99,0,1,1,1.4-1.4l2.1,2.1a.967.967,0,0,1,0,1.4C495.2,223.3,494.9,223.3,494.6,223.3Z" transform="translate(-491.5 -219.2)" fill="#0073ff"/></g><g transform="translate(500.837 207.143)"><line x1="4" y2="1.7" transform="translate(0.977 0.977)" fill="none"/><path d="M503.1,211.2a.875.875,0,0,1-.9-.6.992.992,0,0,1,.5-1.3l3.9-1.7a.985.985,0,0,1,.8,1.8l-3.9,1.7A.756.756,0,0,1,503.1,211.2Z" transform="translate(-502.123 -207.523)" fill="#0073ff"/></g><g transform="translate(467.737 220.803)"><line x1="4" y2="1.7" transform="translate(0.977 0.977)" fill="none"/><path d="M470,224.9a.875.875,0,0,1-.9-.6.992.992,0,0,1,.5-1.3l3.9-1.7a.985.985,0,0,1,.8,1.8l-3.9,1.7C470.3,224.9,470.2,224.9,470,224.9Z" transform="translate(-469.023 -221.223)" fill="#0073ff"/></g><g transform="translate(492.237 229.474)"><line x1="1.6" y1="3.9" transform="translate(1.077 0.877)" fill="none"/><path d="M496.2,235.8a.875.875,0,0,1-.9-.6l-1.7-3.9a.985.985,0,1,1,1.8-.8l1.7,3.9a.992.992,0,0,1-.5,1.3A.6.6,0,0,1,496.2,235.8Z" transform="translate(-493.523 -229.923)" fill="#0073ff"/></g><g transform="translate(478.537 196.47)"><line x1="1.7" y1="4" transform="translate(0.977 0.877)" fill="none"/><path d="M482.5,202.7a.875.875,0,0,1-.9-.6l-1.7-3.9a.985.985,0,1,1,1.8-.8l1.7,3.9a.992.992,0,0,1-.5,1.3C482.8,202.7,482.7,202.7,482.5,202.7Z" transform="translate(-479.823 -196.823)" fill="#0073ff"/></g><g transform="translate(500.894 220.76)"><line x1="4" y1="1.7" transform="translate(0.92 1.02)" fill="none"/><path d="M507.1,224.9a.6.6,0,0,1-.4-.1l-3.9-1.7a.985.985,0,0,1,.8-1.8l3.9,1.7a.917.917,0,0,1,.5,1.3A.875.875,0,0,1,507.1,224.9Z" transform="translate(-502.18 -221.18)" fill="#0073ff"/></g><g transform="translate(467.794 207.1)"><line x1="4" y1="1.7" transform="translate(0.92 1.02)" fill="none"/><path d="M474,211.2a.6.6,0,0,1-.4-.1l-3.9-1.7a.985.985,0,0,1,.8-1.8l3.9,1.7a.917.917,0,0,1,.5,1.3A.875.875,0,0,1,474,211.2Z" transform="translate(-469.08 -207.48)" fill="#0073ff"/></g><g transform="translate(478.494 229.431)"><line y1="3.9" x2="1.7" transform="translate(1.02 0.92)" fill="none"/><path d="M480.8,235.8a.6.6,0,0,1-.4-.1.917.917,0,0,1-.5-1.3l1.7-3.9a.985.985,0,1,1,1.8.8l-1.7,3.9C481.7,235.6,481.2,235.8,480.8,235.8Z" transform="translate(-479.78 -229.88)" fill="#0073ff"/></g><g transform="translate(492.294 196.427)"><line y1="4" x2="1.6" transform="translate(1.02 0.92)" fill="none"/><path d="M494.6,202.7a.6.6,0,0,1-.4-.1.917.917,0,0,1-.5-1.3l1.7-3.9a.985.985,0,1,1,1.8.8l-1.7,3.9A.875.875,0,0,1,494.6,202.7Z" transform="translate(-493.58 -196.78)" fill="#0073ff"/></g><g transform="translate(496.414 199.735)"><line x1="5.1" y2="5" transform="translate(1 1)" fill="none"/><path d="M498.7,207.2a.908.908,0,0,1-.7-.3.967.967,0,0,1,0-1.4l5.1-5.1a.99.99,0,0,1,1.4,1.4l-5.1,5.1A1.08,1.08,0,0,1,498.7,207.2Z" transform="translate(-497.7 -200.1)" fill="#0073ff"/></g><g transform="translate(471.114 224.961)"><line x1="5.1" y2="5" transform="translate(1 1)" fill="none"/><path d="M473.4,232.5a.908.908,0,0,1-.7-.3.967.967,0,0,1,0-1.4l5.1-5.1a.99.99,0,0,1,1.4,1.4l-5.1,5.1A1.08,1.08,0,0,1,473.4,232.5Z" transform="translate(-472.4 -225.4)" fill="#0073ff"/></g><g transform="translate(496.414 224.961)"><line x1="5.1" y1="5" transform="translate(1 1)" fill="none"/><path d="M503.8,232.5a.908.908,0,0,1-.7-.3l-5.1-5.1a.99.99,0,1,1,1.4-1.4l5.1,5.1a.967.967,0,0,1,0,1.4A1.08,1.08,0,0,1,503.8,232.5Z" transform="translate(-497.7 -225.4)" fill="#0073ff"/></g><g transform="translate(471.114 199.735)"><line x1="5.1" y1="5" transform="translate(1 1)" fill="none"/><path d="M478.5,207.2a.908.908,0,0,1-.7-.3l-5.1-5.1a.99.99,0,0,1,1.4-1.4l5.1,5.1a.967.967,0,0,1,0,1.4A1.08,1.08,0,0,1,478.5,207.2Z" transform="translate(-472.4 -200.1)" fill="#0073ff"/></g><g transform="translate(500.714 214.9)"><line x1="7.3" transform="translate(0.8 0.9)" fill="none"/><path d="M510.1,217.3H503a1,1,0,0,1,0-2h7.1a.945.945,0,0,1,1,1A1,1,0,0,1,510.1,217.3Z" transform="translate(-502 -215.3)" fill="#0073ff"/></g><g transform="translate(464.814 214.9)"><line x1="7.1" transform="translate(1 0.9)" fill="none"/><path d="M474.2,217.3h-7.1a1,1,0,0,1,0-2h7.1a.945.945,0,0,1,1,1C475.3,216.9,474.8,217.3,474.2,217.3Z" transform="translate(-466.1 -215.3)" fill="#0073ff"/></g><g transform="translate(486.314 229.144)"><line y1="7.2" transform="translate(1 0.9)" fill="none"/><path d="M488.6,238.8a.945.945,0,0,1-1-1v-7.2a1,1,0,0,1,2,0v7.1A1.175,1.175,0,0,1,488.6,238.8Z" transform="translate(-487.6 -229.6)" fill="#0073ff"/></g><g transform="translate(486.314 193.45)"><line y1="7.1" transform="translate(1 1)" fill="none"/><path d="M488.6,202.9a.945.945,0,0,1-1-1v-7.1a1,1,0,1,1,2,0v7.1A1,1,0,0,1,488.6,202.9Z" transform="translate(-487.6 -193.8)" fill="#0073ff"/></g><g transform="translate(480.114 208.714)"><line x1="2" y1="1.9" transform="translate(1.1 1.1)" fill="none"/><path d="M484.5,213.2a.908.908,0,0,1-.7-.3l-2.1-2.1a.99.99,0,0,1,1.4-1.4l2.1,2.1a.967.967,0,0,1,0,1.4C485.1,213.2,484.8,213.2,484.5,213.2Z" transform="translate(-481.4 -209.1)" fill="#0073ff"/></g><g transform="translate(491.914 214.9)"><line x1="2.8" transform="translate(1.1 0.9)" fill="none"/><path d="M497.1,217.3h-2.9a1,1,0,1,1,0-2h2.9a.945.945,0,0,1,1,1C498.2,216.9,497.7,217.3,497.1,217.3Z" transform="translate(-493.2 -215.3)" fill="#0073ff"/></g><g transform="translate(477.614 214.9)"><line x1="2.8" transform="translate(1.1 0.9)" fill="none"/><path d="M482.8,217.3h-2.9a1,1,0,0,1,0-2h2.9a1,1,0,0,1,0,2Z" transform="translate(-478.9 -215.3)" fill="#0073ff"/></g><g transform="translate(486.314 220.578)"><line y1="2.9" transform="translate(1 0.9)" fill="none"/><path d="M488.6,225.9a.945.945,0,0,1-1-1V222a1,1,0,0,1,2,0v2.9A1.166,1.166,0,0,1,488.6,225.9Z" transform="translate(-487.6 -221)" fill="#0073ff"/></g><g transform="translate(486.314 206.22)"><line y1="2.8" transform="translate(1 1.1)" fill="none"/><path d="M488.6,211.5a.945.945,0,0,1-1-1v-2.9a1,1,0,0,1,2,0v2.9A1,1,0,0,1,488.6,211.5Z" transform="translate(-487.6 -206.6)" fill="#0073ff"/></g><g transform="translate(196.213 225.752)"><g transform="translate(3.762 21.31)"><path d="M208.8,286.7h0a7.754,7.754,0,0,1-5.4-3q-4.05-4.95-2.7-15.6c.1-.7,2.8-16.2,11.3-19.7a7.973,7.973,0,0,1,5-.5c2.1.5,5.9,2.6,5.1,6.6a12.586,12.586,0,0,1-2,3.9,1.381,1.381,0,0,0-.3.4c-.9,1.1-3.2,3.9-2.4,12.4,0,.4,1,8.8-2.8,13A7.578,7.578,0,0,1,208.8,286.7Zm6.4-37.3a7.367,7.367,0,0,0-2.5.5c-7.6,3.2-10.2,18.2-10.2,18.4-.8,6.5-.1,11.4,2.3,14.2a6.414,6.414,0,0,0,4,2.4,5.08,5.08,0,0,0,4.3-1.8c3.3-3.7,2.4-11.6,2.4-11.6-.8-9.3,1.8-12.6,2.8-13.8.1-.1.2-.2.2-.3a12.359,12.359,0,0,0,1.7-3.4c.7-3.3-3.5-4.4-3.7-4.4h0A6.879,6.879,0,0,0,215.2,249.4Z" transform="translate(-200.363 -247.681)" fill="#0073ff"/><g transform="translate(0.193 22.975)"><path d="M209.8,277.6a11.018,11.018,0,0,1-1.8-.2c-4.6-.9-7.2-5.1-7.3-5.3a.943.943,0,0,1,1.6-1s2.4,3.7,6.2,4.4c2.4.5,4.8-.3,7.3-2.1a.93.93,0,0,1,1.1,1.5A11.318,11.318,0,0,1,209.8,277.6Z" transform="translate(-200.556 -270.656)" fill="#0073ff"/></g><g transform="translate(1.905 15.306)"><rect width="1.8" height="16.9" transform="matrix(0.651, -0.759, 0.759, 0.651, 0, 1.367)" fill="#0073ff"/></g><g transform="translate(1.347 17.09)"><rect width="15.6" height="1.8" transform="translate(0 6.891) rotate(-26.211)" fill="#0073ff"/></g></g><g transform="translate(9.282)"><path d="M235.7,237.8a28.84,28.84,0,0,1-3.9-.3c-.4-.1-7.7-1.5-10.8-2.9-.1,0-.2-.1-.3-.2a31.485,31.485,0,0,1-7.5,1.8c-3.4.3-5.7-.4-6.7-1.8a3.657,3.657,0,0,1-.2-3.7,4.737,4.737,0,0,1,3.2-3.1c4.8-1.4,12.4,3.9,12.8,4.1.1,0,.1.1.2.2a35.649,35.649,0,0,0,4.6-2.5c.4-.2,7.3-4.5,12.1-2.5a6.558,6.558,0,0,1,4,5,4.4,4.4,0,0,1-.6,3.8Q240.5,237.8,235.7,237.8Zm-12.6-4.2c3.4,1.1,8.9,2.2,9,2.3,6.2.8,8.2-.5,8.9-1.3a2.686,2.686,0,0,0,.4-2.1v-.1c-.5-2-1.4-3.3-2.9-3.8-4-1.6-10.4,2.4-10.5,2.4A48.074,48.074,0,0,1,223.1,233.6Zm-11.9-4.4a6.753,6.753,0,0,0-1.4.2,3.023,3.023,0,0,0-2,2.1,2.59,2.59,0,0,0,0,2c.6.9,2.4,1.3,5.1,1.1a29.852,29.852,0,0,0,7.2-1.8C218.2,231.4,214.2,229.2,211.2,229.2Z" transform="translate(-205.882 -226.371)" fill="#0073ff"/></g><g transform="translate(24.36 7.668)"><rect width="1.8" height="14.8" transform="matrix(0.963, -0.27, 0.27, 0.963, 0, 0.486)" fill="#0073ff"/></g><g transform="translate(19.802 7.486)"><rect width="15.1" height="1.8" transform="translate(0 14.504) rotate(-73.841)" fill="#0073ff"/></g><g transform="translate(24.745 6.874)"><path d="M242.2,248.1a.755.755,0,0,1-.7-.4c-2.7-3.4-4.5-3.6-7.3-4.1l-.7-.1c-5.2-.8-11.6-8.3-11.9-8.7a.922.922,0,0,1,1.4-1.2c.1.1,6.2,7.3,10.8,8.1l.6.1c2.8.5,5.3.8,8.4,4.7a.935.935,0,0,1-.1,1.3C242.5,248,242.4,248.1,242.2,248.1Z" transform="translate(-221.345 -233.245)" fill="#0073ff"/></g><g transform="translate(0 6.774)"><path d="M197.5,253.3h0a1.063,1.063,0,0,1-.9-1c.8-6.3,4.7-7.2,7.9-7.7.9-.2,1.6-.4,2.4-.6,7.2-2.6,13.8-10.4,13.9-10.5a.922.922,0,1,1,1.4,1.2c-.3.4-7,8.2-14.6,11a10.957,10.957,0,0,1-2.6.6c-3.1.6-5.8,1.2-6.4,6.2C198.3,253,198,253.3,197.5,253.3Z" transform="translate(-196.6 -233.145)" fill="#0073ff"/></g><g transform="translate(24.389 21.31)"><path d="M234.3,286.7a7.186,7.186,0,0,1-5.7-2.4c-3.8-4.3-2.8-12.7-2.8-13,.7-8.5-1.5-11.3-2.4-12.4a1.38,1.38,0,0,0-.3-.4,18.252,18.252,0,0,1-2-3.9c-.8-4.1,2.9-6.2,5.1-6.7a8.143,8.143,0,0,1,5,.5c8.4,3.5,11.1,19,11.2,19.7.9,7.2,0,12.4-2.7,15.7a9.5,9.5,0,0,1-5.4,2.9Zm-11.5-32.5a18.636,18.636,0,0,0,1.7,3.3c0,.1.1.1.2.3,1,1.2,3.7,4.4,2.8,13.8,0,.1-.9,8,2.4,11.7a5.277,5.277,0,0,0,4.4,1.8,6.192,6.192,0,0,0,4-2.4c2.4-2.8,3.1-7.7,2.3-14.2,0-.1-2.6-15.1-10.2-18.3a6.433,6.433,0,0,0-3.8-.4h0c-.3-.1-4.5,1-3.8,4.4Z" transform="translate(-220.989 -247.681)" fill="#0073ff"/><g transform="translate(4.837 23.194)"><path d="M233.2,277.6a11.994,11.994,0,0,1-7-2.5.93.93,0,0,1,1.1-1.5,9.674,9.674,0,0,0,7.3,2.1,10.843,10.843,0,0,0,6.2-4.4.943.943,0,0,1,1.6,1,12.47,12.47,0,0,1-7.3,5.3A12.033,12.033,0,0,0,233.2,277.6Z" transform="translate(-225.826 -270.875)" fill="#0073ff"/></g><g transform="translate(5.864 15.327)"><rect width="16.9" height="1.8" transform="matrix(0.76, -0.65, 0.65, 0.76, 0, 10.99)" fill="#0073ff"/></g><g transform="translate(5.507 17.015)"><rect width="1.8" height="15.6" transform="translate(0 1.615) rotate(-63.781)" fill="#0073ff"/></g></g><g transform="translate(24.389 21.31)"><path d="M234.3,286.7a7.186,7.186,0,0,1-5.7-2.4c-3.8-4.3-2.8-12.7-2.8-13,.7-8.5-1.5-11.3-2.4-12.4a1.38,1.38,0,0,0-.3-.4,18.252,18.252,0,0,1-2-3.9c-.8-4.1,2.9-6.2,5.1-6.7a8.143,8.143,0,0,1,5,.5c8.4,3.5,11.1,19,11.2,19.7.9,7.2,0,12.4-2.7,15.7a9.5,9.5,0,0,1-5.4,2.9Zm-11.5-32.5a18.636,18.636,0,0,0,1.7,3.3c0,.1.1.1.2.3,1,1.2,3.7,4.4,2.8,13.8,0,.1-.9,8,2.4,11.7a5.277,5.277,0,0,0,4.4,1.8,6.192,6.192,0,0,0,4-2.4c2.4-2.8,3.1-7.7,2.3-14.2,0-.1-2.6-15.1-10.2-18.3a6.433,6.433,0,0,0-3.8-.4h0c-.3-.1-4.5,1-3.8,4.4Z" transform="translate(-220.989 -247.681)" fill="#0073ff"/><g transform="translate(4.837 23.194)"><path d="M233.2,277.6a11.994,11.994,0,0,1-7-2.5.93.93,0,0,1,1.1-1.5,9.674,9.674,0,0,0,7.3,2.1,10.843,10.843,0,0,0,6.2-4.4.943.943,0,0,1,1.6,1,12.47,12.47,0,0,1-7.3,5.3A12.033,12.033,0,0,0,233.2,277.6Z" transform="translate(-225.826 -270.875)" fill="#0073ff"/></g><g transform="translate(5.864 15.327)"><rect width="16.9" height="1.8" transform="matrix(0.76, -0.65, 0.65, 0.76, 0, 10.99)" fill="#0073ff"/></g><g transform="translate(5.507 17.015)"><rect width="1.8" height="15.6" transform="translate(0 1.615) rotate(-63.781)" fill="#0073ff"/></g></g></g><g transform="translate(82.5 241.281)"><path d="M86.4,254.5,84.9,253a2.878,2.878,0,0,1-.9-2.1,3.009,3.009,0,0,1,3-3,2.878,2.878,0,0,1,2.1.9l1.5,1.5a2.878,2.878,0,0,1,.9,2.1,3.009,3.009,0,0,1-3,3A3.981,3.981,0,0,1,86.4,254.5Zm-.8-3.6A2.1,2.1,0,0,0,86,252l1.5,1.5a1.5,1.5,0,0,0,1.1.4,1.538,1.538,0,0,0,1.5-1.5,2.1,2.1,0,0,0-.4-1.1l-1.5-1.5a1.5,1.5,0,0,0-1.1-.4A1.417,1.417,0,0,0,85.6,250.9Z" transform="translate(-82.5 -241.9)" fill="#0073ff"/><path d="M84.8,285.9h3.5a2.087,2.087,0,0,0,2-1.3l6.7-14,4.2,3v10.1a2.22,2.22,0,0,0,2.2,2.2h3.7a1.538,1.538,0,0,0,1.5-1.5,2.927,2.927,0,0,0-1.9-2.7l-.3-.1v-9.2a2.98,2.98,0,0,0-1.2-2.4l-1.8-1.3-.9,1.2,1.8,1.3a1.425,1.425,0,0,1,.6,1.2v10.3l1.3.4a1.424,1.424,0,0,1,.9,1.3h-3.7a.684.684,0,0,1-.7-.7V272.9l-6.3-4.5L89,284a.67.67,0,0,1-.7.4H84.8a1.424,1.424,0,0,1,.9-1.3l1.4-.5,6.6-13.9v-1.6a9.377,9.377,0,0,0-2.5-6.3,1.613,1.613,0,0,0-2.3.2l-2.1,2.8-1.6,3.7a.675.675,0,0,1-.6.4.645.645,0,0,1-.6-.6v-.2l1.5-3.9c0-.1.1-.1.1-.2l2.9-3.9a5.48,5.48,0,0,1,1.8-1.6,13.385,13.385,0,0,1,3.4-1.5,6.277,6.277,0,0,1,3,5.2,1.538,1.538,0,0,0,1.5,1.5c6.4,0,10.4-4,10.4-10.4a1.538,1.538,0,0,0-1.5-1.5,1.213,1.213,0,0,0-1.2.7s-1.1,1.6-2.5,1.6c-2.7,0-4.1-3-4.1-3l-1.4.6s1.8,3.9,5.5,3.9c2.2,0,3.7-2.2,3.7-2.2,0,5.6-3.3,9-9,9a7.583,7.583,0,0,0-3.8-6.5,1.376,1.376,0,0,0-1.1-.1,14.161,14.161,0,0,0-3.7,1.7,8.331,8.331,0,0,0-2.2,2l-2.9,3.9c-.1.2-.2.3-.3.5l-1.5,3.9a1.949,1.949,0,0,0-.1.8,2.1,2.1,0,0,0,4,.9l1.6-3.6,2-2.6a7.987,7.987,0,0,1,2.1,5.2v1.2l-6.2,13-.8.3a2.79,2.79,0,0,0-1.9,2.7A1.443,1.443,0,0,0,84.8,285.9Z" transform="translate(-82.5 -241.9)" fill="#0073ff"/><path d="M108.9,270.3a3.553,3.553,0,0,0,1-.2,1.553,1.553,0,0,0,.9-2l-1.1-3a2.29,2.29,0,0,0-2.2-1.5h-4.4l-.8-2.2-1.4.5,1.2,3.2h5.5a.838.838,0,0,1,.8.6l1.1,3v.1a1.574,1.574,0,0,1-1.7-.5l-1.4-1.7H102a1.5,1.5,0,0,1-1.4-1l-1.4-3.8-1.4.5,1.4,3.8A2.917,2.917,0,0,0,102,268h3.6l.9,1.1A2.982,2.982,0,0,0,108.9,270.3Z" transform="translate(-82.5 -241.9)" fill="#0073ff"/><path d="M107.4,257.6l8.6-4.1,1.4.3a2.82,2.82,0,0,0,3-1.4,1.073,1.073,0,0,0,.1-1.1,1.6,1.6,0,0,0-.7-.9l-2.6-1.5a2.224,2.224,0,0,0-2.1-.1l-7.6,3.7.6,1.3,7.6-3.7a.854.854,0,0,1,.7,0l2.6,1.5a1.28,1.28,0,0,1-1.4.6l-1.9-.4-9.1,4.3Z" transform="translate(-82.5 -241.9)" fill="#0073ff"/><path d="M87.7,259.6l.3-1.5a1.165,1.165,0,0,1-1-1.1.864.864,0,0,1,.3-.6l1.8-1.4-.9-1.2-1.8,1.4a2.43,2.43,0,0,0-.9,1.8A2.783,2.783,0,0,0,87.7,259.6Z" transform="translate(-82.5 -241.9)" fill="#0073ff"/><path d="M91.1,253.8l6-4.4a6.632,6.632,0,0,1,1.9-.9l7.5-2a.641.641,0,0,1,.8.6.675.675,0,0,1-.4.6l-5.6,1.7.4,1.4,5.6-1.7a2.131,2.131,0,0,0,1.5-2,2.077,2.077,0,0,0-2.6-2l-7.5,2a6.59,6.59,0,0,0-2.4,1.1l-6,4.4Z" transform="translate(-82.5 -241.9)" fill="#0073ff"/><path d="M89.6,247.2l-.7-1.5a2.59,2.59,0,0,1,2.3-3.8,2.613,2.613,0,0,1,2.3,1.4l.7,1.5a2.59,2.59,0,0,1-2.3,3.8A2.438,2.438,0,0,1,89.6,247.2Zm.4-2.7a.9.9,0,0,0,.1.5l.7,1.5a1.113,1.113,0,0,0,2.1-.5.9.9,0,0,0-.1-.5l-.7-1.5a1.113,1.113,0,0,0-2.1.5Z" transform="translate(-82.5 -241.9)" fill="#0073ff"/></g><path d="M402.2,255.4a2.946,2.946,0,0,1-3-3,4.253,4.253,0,0,1,.2-1.1l1.7.7c0,.1-.1.3-.1.4a1.324,1.324,0,0,0,1.3,1.3c1.2,0,2.1-1.3,2.1-3,0-1.8-.9-3.1-2.3-3a.811.811,0,0,1-.9-.8.924.924,0,0,1,.7-1h.4c2.1,0,3.9,2.1,3.9,4.7C406.1,253.4,404.3,255.4,402.2,255.4Z" transform="translate(-0.935 -0.505)" fill="#0073ff"/><path d="M406,257.5s-.9.4-1.3-.1a1.007,1.007,0,0,1,.2-1.2,2.756,2.756,0,0,0,1.1-2.1c0-1.7-1.8-3-3.9-3a1.324,1.324,0,0,0-1.3,1.3H399a2.946,2.946,0,0,1,3-3c3.1,0,5.6,2.1,5.6,4.7A3.744,3.744,0,0,1,406,257.5Z" transform="translate(-0.938 -0.512)" fill="#0073ff"/><path d="M317.8,237.9a2.641,2.641,0,0,1,2.3-.1s.9.3,1.1-.4c.3-.8-.6-1.2-.6-1.2a4.466,4.466,0,0,0-3.9.2,4.718,4.718,0,0,0-2.1,3.2h0c-2.2,1.3-3.2,3.9-2.1,5.7.1.1.1.2.2.3a.9.9,0,0,0,1.2.1.755.755,0,0,0,.1-1.2c-.7-1-.3-2.1.7-3a4.223,4.223,0,0,0,.8,2,2.879,2.879,0,0,0,3.1,1.4h0a.367.367,0,0,0,.3-.1h.2a4.167,4.167,0,0,1,.6-.2,3.062,3.062,0,0,0,1.1-4.1,3.954,3.954,0,0,0-4-1.7A2.189,2.189,0,0,1,317.8,237.9Zm1.6,3.5a1.5,1.5,0,0,1-.4,1.8,1.529,1.529,0,0,1-1.8-.4,7.96,7.96,0,0,1-.7-2A2.444,2.444,0,0,1,319.4,241.4Z" transform="translate(-0.688 -0.476)" fill="#0073ff"/><path d="M348.6,285.3c-2.6.8,2,7.8,2,7.8s1.7-5.1,1.2-7.9c0,0,1.4-17.8,1.4-19-2.3-1.1-3.1-2.9-5.3-3.9C347.8,263.9,348.6,285.3,348.6,285.3Z" transform="translate(-0.785 -0.619)" fill="none" stroke="#0073ff" stroke-linejoin="round" stroke-miterlimit="10" stroke-width="2"/><path d="M335.7,255.8a9.168,9.168,0,0,0,8.9,5.8c3.1,0,4.6,1.4,6.1,2.6a7.7,7.7,0,0,0,5.8,2.5h6.6l-7.5-7.8a2.741,2.741,0,0,1-.8-1.8v-4.4a1.752,1.752,0,0,1,1.7-1.7h4.4a2.768,2.768,0,0,0,.9-.1l7.2-2.4a2.323,2.323,0,0,0,1-3.9,2.741,2.741,0,0,0-1.8-.8h-.4l-6.8,1.7-8.1-1.7h-.4a2.83,2.83,0,0,0-2.8,2.6v1.8a6.19,6.19,0,0,1-6.1,6.1h-8.3Z" transform="translate(-0.802 -0.619)" fill="none" stroke="#0073ff" stroke-linejoin="round" stroke-miterlimit="10" stroke-width="2"/><path d="M321.1,263.7c-2.3-2.6-5.1,4-5,5,.2,1.9,3.9-1.7,5.3-2.1,0,0,20.5-4.5,22.2-5a9.3,9.3,0,0,1-6.8-3.6C334.2,258.9,321.1,263.7,321.1,263.7Z" transform="translate(-0.73 -0.619)" fill="none" stroke="#0073ff" stroke-linejoin="round" stroke-miterlimit="10" stroke-width="2"/><path d="M349.8,239.9a4.41,4.41,0,0,1-3-1.2l-1.4-1.4a4.243,4.243,0,0,1,6-6l1.4,1.4a4.234,4.234,0,0,1,1.2,3A4.292,4.292,0,0,1,349.8,239.9Z" transform="translate(-0.782 -0.459)" fill="none" stroke="#0073ff" stroke-miterlimit="10" stroke-width="2"/></g></svg>