<svg xmlns="http://www.w3.org/2000/svg" width="156.117" height="122" viewBox="0 0 156.117 122"><g transform="translate(-8.045 -8.125)"><g transform="translate(18.157 32.126)"><path d="M86.4,50.9a9.7,9.7,0,1,0-9.7-9.7A9.774,9.774,0,0,0,86.4,50.9Zm0-17.4a7.7,7.7,0,1,1-7.7,7.7A7.64,7.64,0,0,1,86.4,33.5Z" transform="translate(-18.157 -31.5)" fill="#0073ff"/><path d="M65.8,62a9,9,0,1,0-9-9A8.963,8.963,0,0,0,65.8,62Zm0-16a7,7,0,1,1-7,7A6.957,6.957,0,0,1,65.8,46Z" transform="translate(-18.157 -31.5)" fill="#0073ff"/><path d="M121.9,121c-5.9-9.2-15.8-26-15.5-34.8,0-.7.6-12.5.2-20.9l1.4.4a4.4,4.4,0,0,0,1.6.2,6.1,6.1,0,0,0,2.1-11.8,61.114,61.114,0,0,0-13.3-3,12.219,12.219,0,0,0-6.3,0l-3.8,1-5.4,2.3a8.4,8.4,0,0,0-4.3,4l-.1.2c-.9,1.8-2.1,4.2-3.6,6.7A36.113,36.113,0,0,1,71.3,63l-.2-.2h-.3A7.9,7.9,0,0,0,65.2,65c-2.4,2.3-3.5,6.2-3.2,11.5v2a2.769,2.769,0,0,0-.9-.1,4.439,4.439,0,0,0-4.4,4.4A4.154,4.154,0,0,0,59,86.6L28.3,84.5l-.1.9c0,.3-.6,6.3,5.6,11.9l-8.1,2.8,1.4,1.1a36.934,36.934,0,0,0,9.7,5.2L19.5,119.6a3.642,3.642,0,0,0-1.3,3.4,3.148,3.148,0,0,0,2.2,2.5,2.2,2.2,0,0,0,.8.1,2.92,2.92,0,0,0,.9-.2L48,109.1a16.413,16.413,0,0,0,2.3.2l-5.9,6.5,1.6.4a55.514,55.514,0,0,0,13.3,1.6c1.2,0,2.3,0,3.6-.1l-1.5,2.6a6.1,6.1,0,0,0,8.8,8c.1.1.3.1.4.2.1,0,.2.1.3.1s.2.1.3.1a1.7,1.7,0,0,0,.7.1,3.356,3.356,0,0,0,2.9-1.6c1.7-2.9,6.1-8.3,10.4-13.2,2.7-3.1,5.3-6,7-7.8a5.243,5.243,0,0,0,1.1-1.9c0-.1.1-.3.1-.4v-.1a3.4,3.4,0,0,0,.1-1v-.7a5.25,5.25,0,0,0-2.1-3.8l-1.6-1.2.1-.1-.2-.1,4.1-6.8c2.2,6.7,9.6,27.3,19.7,37.7a5.606,5.606,0,0,0,4,1.7,5.365,5.365,0,0,0,4.8-2.9A5.88,5.88,0,0,0,121.9,121ZM104.7,78.5c-7.2,2.1-16.4,1.7-19.3,1.6l-.6-9.3a116.121,116.121,0,0,0,14.6-7.6l5.2,1.4C104.8,68.9,104.8,74.2,104.7,78.5ZM74.9,87.9,77.8,78l.2-.2a8.529,8.529,0,0,0,3.5-3.9,13.735,13.735,0,0,0,1.3-2l.6,8.9L78.3,90Zm5.6-28.5.1-.2a6.631,6.631,0,0,1,3.3-3.1l5.2-2.2,3.7-.9a11.626,11.626,0,0,1,4.9-.1h0a1.445,1.445,0,0,0,.7.2A64.989,64.989,0,0,1,111.2,56a4.211,4.211,0,0,1,2.4,5.2,4.074,4.074,0,0,1-4.9,2.6L96.1,60.3a1.5,1.5,0,0,1-1-.9,1.4,1.4,0,0,1,.2-1.4,1.513,1.513,0,0,1,1.4-.7c7.7.7,11.3,1.8,12,2.5l1.4-1.4c-1.3-1.4-5.8-2.4-13.2-3.1A3.6,3.6,0,0,0,93,58.9a132.189,132.189,0,0,1-15.9,7C78.4,63.5,79.6,61.1,80.5,59.4ZM58.7,82.7a2.4,2.4,0,1,1,2.4,2.4A2.433,2.433,0,0,1,58.7,82.7ZM30.2,86.6l29.1,1.9-.5.2L36,96.6C31.1,92.7,30.3,88.5,30.2,86.6Zm-9,37h-.3a1.106,1.106,0,0,1-.8-.9,1.4,1.4,0,0,1,.5-1.4l18.3-14a46.147,46.147,0,0,0,5.9,1.5ZM48,114.7,68.7,91.9l-1.5-1.3L51.9,107.5a45.012,45.012,0,0,1-22-6.7L64,89.1V86h0a4.554,4.554,0,0,0,1.6-3.3,4.459,4.459,0,0,0-1.5-3.3h0V76.3c-.2-4.7.6-8,2.6-10a5.621,5.621,0,0,1,3.9-1.7,34.787,34.787,0,0,0,3.6,2.2c-3,1-5,1.6-5,1.6l.5,1.9a133.257,133.257,0,0,0,23.8-9.6,3.807,3.807,0,0,0,1.9,1.4l1.3.4c-6.2,3.6-17.8,9.7-27.5,11l.3,2a58.087,58.087,0,0,0,10.3-2.7v.1a6.17,6.17,0,0,1-3.2,3.4l-.4.2L72.6,88.8l12.7,7.9-8.1,2.2-2.5-6.1-1.9.8,5.5,13.5a40.832,40.832,0,0,0-4.2,6.1C63.9,117.3,52.2,115.6,48,114.7Zm31.4-11.6,1.6,1.2a11.985,11.985,0,0,0-1.2,1.1l-.9-2.1A.764.764,0,0,0,79.4,103.1ZM68.7,126.8a4.1,4.1,0,0,1-2.2.7,4.05,4.05,0,0,1-3.5-6.1l2.2-3.8a35.953,35.953,0,0,0,7.6-1.7c-1.6,3-3,6-4,8.3A2.678,2.678,0,0,0,68.7,126.8Zm22.1-26a3.946,3.946,0,0,1,.6,1.5,3.021,3.021,0,0,1-.9,2.5c-5.4,5.9-15,16.5-17.7,21.4h0l-.3.3a.1.1,0,0,0-.1.1c-.1.1-.2.1-.3.2h0a1.388,1.388,0,0,1-.9,0h0c-.2-.1-.5-.2-.6-.5a1.287,1.287,0,0,1-.1-1.2c2.2-5,7.7-16.8,12.7-19.7l1.3-.7-5.3-4.1,8.4-2.3h0l2.4,1.8A1.779,1.779,0,0,1,90.8,100.8Zm29.5,24.9a3.532,3.532,0,0,1-3.1,1.8,3.25,3.25,0,0,1-2.5-1.1c-11.6-11.9-19.9-38.7-19.9-39l-.7-2.2L87.7,95.8,80,91.1l5.1-9c.9.1,2.6.1,4.8.1a61.833,61.833,0,0,0,14.8-1.6c-.1,3.2-.2,5.4-.2,5.5-.3,9.4,9.8,26.6,15.8,36A3.824,3.824,0,0,1,120.3,125.7Z" transform="translate(-18.157 -31.5)" fill="#0073ff"/></g><g transform="translate(139.601 51.027)"><path d="M140.7,53.6a.9.9,0,1,1,.9-.9A.9.9,0,0,1,140.7,53.6Z" transform="translate(-138.8 -50.8)" fill="#fff"/><path d="M140.7,50.8a1.9,1.9,0,1,0,1.9,1.9,1.9,1.9,0,0,0-1.9-1.9Z" transform="translate(-138.8 -50.8)" fill="#0073ff"/></g><g transform="translate(8.045 8.126)"><path d="M56.7,25a1.9,1.9,0,1,0,0,3.8,1.839,1.839,0,0,0,1.9-1.9A1.9,1.9,0,0,0,56.7,25Z" transform="translate(-7.798 -8.126)" fill="#0073ff"/><path d="M34.4,62.4a.8.8,0,1,0,.8.8A.86.86,0,0,0,34.4,62.4Z" transform="translate(-8.045 -8.126)" fill="#0073ff"/><path d="M120.3,12.8a1,1,0,1,0-1.6,1.2l1.4,1.9a.909.909,0,0,0,.8.4,1.421,1.421,0,0,0,.6-.2,1.075,1.075,0,0,0,.2-1.4Z" transform="translate(-7.463 -8.126)" fill="#0073ff"/><path d="M124.2,18.2a1,1,0,1,0-1.6,1.2l1.4,1.9a.909.909,0,0,0,.8.4,1.421,1.421,0,0,0,.6-.2,1.075,1.075,0,0,0,.2-1.4Z" transform="translate(-7.443 -8.126)" fill="#0073ff"/><path d="M119.8,17.5l-1.9,1.4a1.075,1.075,0,0,0-.2,1.4.909.909,0,0,0,.8.4,1.421,1.421,0,0,0,.6-.2l1.9-1.4a1.075,1.075,0,0,0,.2-1.4A1.058,1.058,0,0,0,119.8,17.5Z" transform="translate(-7.467 -8.126)" fill="#0073ff"/><path d="M125.2,13.5l-1.9,1.4a1.075,1.075,0,0,0-.2,1.4.909.909,0,0,0,.8.4,1.421,1.421,0,0,0,.6-.2l1.9-1.4a1.075,1.075,0,0,0,.2-1.4A1.058,1.058,0,0,0,125.2,13.5Z" transform="translate(-7.438 -8.126)" fill="#0073ff"/><path d="M150.6,83.7l-.4.1-.1-.4a1,1,0,0,0-1.3-.6.932.932,0,0,0-.6,1.3l.1.4-.4.1a1.036,1.036,0,0,0,.4,2h.3l.4-.1.1.4a.993.993,0,0,0,1,.7h.3a1,1,0,0,0,.6-1.3l-.1-.4.4-.1a1,1,0,0,0,.6-1.3A1.17,1.17,0,0,0,150.6,83.7Z" transform="translate(-7.245 -8.126)" fill="#0073ff"/><path d="M10.6,51.3a.992.992,0,0,0-1.5,1.3L11,54.9,8.4,57a.972.972,0,0,0-.1,1.4,1.234,1.234,0,0,0,.8.4,1.421,1.421,0,0,0,.6-.2l3.4-2.8a.972.972,0,0,0,.1-1.4Z" transform="translate(-8.045 -8.126)" fill="#0073ff"/><path d="M162.6,21.1l-3-.6.6-3.3a1.02,1.02,0,0,0-2-.4l-.8,4.3a1.012,1.012,0,0,0,.8,1.2l3.9.8h.2a.974.974,0,0,0,1-.8A.859.859,0,0,0,162.6,21.1Z" transform="translate(-7.245 -8.126)" fill="#0073ff"/><path d="M31.1,8.8l-1,.7-.1.1a.1.1,0,0,0-.1-.1l-.7-1a1,1,0,0,0-1.6,1.2l.7,1,.1.1a.1.1,0,0,0-.1.1l-1,.7a1.075,1.075,0,0,0-.2,1.4.909.909,0,0,0,.8.4,1.421,1.421,0,0,0,.6-.2l1-.7.1-.1a.1.1,0,0,0,.1.1l.7,1a.909.909,0,0,0,.8.4,1.421,1.421,0,0,0,.6-.2,1.075,1.075,0,0,0,.2-1.4l-.7-1-.1-.1a.1.1,0,0,0,.1-.1l1-.7A1.075,1.075,0,0,0,32.5,9,1.058,1.058,0,0,0,31.1,8.8Z" transform="translate(-8.045 -8.126)" fill="#0073ff"/></g></g></svg>