<svg xmlns="http://www.w3.org/2000/svg" width="156.117" height="122"><g fill="#0073ff"><path d="M78.355 43.401a9.7 9.7 0 10-9.7-9.7 9.774 9.774 0 009.7 9.7zm0-17.4a7.7 7.7 0 11-7.7 7.7 7.64 7.64 0 017.7-7.7zm-20.6 28.5a9 9 0 10-9-9 8.963 8.963 0 009 9zm0-16a7 7 0 11-7 7 6.957 6.957 0 017-7z"/><path d="M113.855 113.501c-5.9-9.2-15.8-26-15.5-34.8 0-.7.6-12.5.2-20.9l1.4.4a4.4 4.4 0 001.6.2 6.1 6.1 0 002.1-11.8 61.114 61.114 0 00-13.3-3 12.219 12.219 0 00-6.3 0l-3.8 1-5.4 2.3a8.4 8.4 0 00-4.3 4l-.1.2c-.9 1.8-2.1 4.2-3.6 6.7a36.113 36.113 0 01-3.6-2.3l-.2-.2h-.3a7.9 7.9 0 00-5.6 2.2c-2.4 2.3-3.5 6.2-3.2 11.5v2a2.769 2.769 0 00-.9-.1 4.439 4.439 0 00-4.4 4.4 4.154 4.154 0 002.3 3.8l-30.7-2.1-.1.9c0 .3-.6 6.3 5.6 11.9l-8.1 2.8 1.4 1.1a36.934 36.934 0 009.7 5.2l-17.3 13.2a3.642 3.642 0 00-1.3 3.4 3.148 3.148 0 002.2 2.5 2.2 2.2 0 00.8.1 2.92 2.92 0 00.9-.2l25.9-16.3a16.413 16.413 0 002.3.2l-5.9 6.5 1.6.4a55.514 55.514 0 0013.3 1.6c1.2 0 2.3 0 3.6-.1l-1.5 2.6a6.1 6.1 0 008.8 8c.1.1.3.1.4.2.1 0 .2.1.3.1s.2.1.3.1a1.7 1.7 0 00.7.1 3.356 3.356 0 002.9-1.6c1.7-2.9 6.1-8.3 10.4-13.2 2.7-3.1 5.3-6 7-7.8a5.243 5.243 0 001.1-1.9c0-.1.1-.3.1-.4v-.1a3.4 3.4 0 00.1-1v-.7a5.25 5.25 0 00-2.1-3.8l-1.6-1.2.1-.1-.2-.1 4.1-6.8c2.2 6.7 9.6 27.3 19.7 37.7a5.606 5.606 0 004 1.7 5.365 5.365 0 004.8-2.9 5.88 5.88 0 00-.4-5.6zm-17.2-42.5c-7.2 2.1-16.4 1.7-19.3 1.6l-.6-9.3a116.121 116.121 0 0014.6-7.6l5.2 1.4c.2 4.3.2 9.6.1 13.9zm-29.8 9.4l2.9-9.9.2-.2a8.529 8.529 0 003.5-3.9 13.735 13.735 0 001.3-2l.6 8.9-5.1 9.2zm5.6-28.5l.1-.2a6.631 6.631 0 013.3-3.1l5.2-2.2 3.7-.9a11.626 11.626 0 014.9-.1 1.445 1.445 0 00.7.2 64.989 64.989 0 0112.8 2.9 4.211 4.211 0 012.4 5.2 4.074 4.074 0 01-4.9 2.6l-12.6-3.5a1.5 1.5 0 01-1-.9 1.4 1.4 0 01.2-1.4 1.513 1.513 0 011.4-.7c7.7.7 11.3 1.8 12 2.5l1.4-1.4c-1.3-1.4-5.8-2.4-13.2-3.1a3.6 3.6 0 00-3.9 3.6 132.189 132.189 0 01-15.9 7c1.3-2.4 2.5-4.8 3.4-6.5zm-21.8 23.3a2.4 2.4 0 112.4 2.4 2.433 2.433 0 01-2.4-2.4zm-28.5 3.9l29.1 1.9-.5.2-22.8 7.9c-4.9-3.9-5.7-8.1-5.8-10zm-9 37h-.3a1.106 1.106 0 01-.8-.9 1.4 1.4 0 01.5-1.4l18.3-14a46.147 46.147 0 005.9 1.5zm26.8-8.9l20.7-22.8-1.5-1.3-15.3 16.9a45.012 45.012 0 01-22-6.7l34.1-11.7v-3.1a4.554 4.554 0 001.6-3.3 4.459 4.459 0 00-1.5-3.3v-3.1c-.2-4.7.6-8 2.6-10a5.621 5.621 0 013.9-1.7 34.787 34.787 0 003.6 2.2c-3 1-5 1.6-5 1.6l.5 1.9a133.257 133.257 0 0023.8-9.6 3.807 3.807 0 001.9 1.4l1.3.4c-6.2 3.6-17.8 9.7-27.5 11l.3 2a58.087 58.087 0 0010.3-2.7v.1a6.17 6.17 0 01-3.2 3.4l-.4.2-3.6 12.3 12.7 7.9-8.1 2.2-2.5-6.1-1.9.8 5.5 13.5a40.832 40.832 0 00-4.2 6.1c-10.2 4.1-21.9 2.4-26.1 1.5zm31.4-11.6l1.6 1.2a11.985 11.985 0 00-1.2 1.1l-.9-2.1a.764.764 0 00.5-.2zm-10.7 23.7a4.1 4.1 0 01-2.2.7 4.05 4.05 0 01-3.5-6.1l2.2-3.8a35.953 35.953 0 007.6-1.7c-1.6 3-3 6-4 8.3a2.678 2.678 0 00-.1 2.6zm22.1-26a3.946 3.946 0 01.6 1.5 3.021 3.021 0 01-.9 2.5c-5.4 5.9-15 16.5-17.7 21.4l-.3.3a.1.1 0 00-.1.1c-.1.1-.2.1-.3.2a1.388 1.388 0 01-.9 0c-.2-.1-.5-.2-.6-.5a1.287 1.287 0 01-.1-1.2c2.2-5 7.7-16.8 12.7-19.7l1.3-.7-5.3-4.1 8.4-2.3 2.4 1.8a1.779 1.779 0 01.8.7zm29.5 24.9a3.532 3.532 0 01-3.1 1.8 3.25 3.25 0 01-2.5-1.1c-11.6-11.9-19.9-38.7-19.9-39l-.7-2.2-6.4 10.6-7.7-4.7 5.1-9c.9.1 2.6.1 4.8.1a61.833 61.833 0 0014.8-1.6c-.1 3.2-.2 5.4-.2 5.5-.3 9.4 9.8 26.6 15.8 36a3.824 3.824 0 010 3.6z"/></g><path d="M133.456 45.702a.9.9 0 11.9-.9.9.9 0 01-.9.9z" fill="#fff"/><path d="M133.456 42.902a1.9 1.9 0 101.9 1.9 1.9 1.9 0 00-1.9-1.9zM48.902 16.875a1.9 1.9 0 100 3.8 1.839 1.839 0 001.9-1.9 1.9 1.9 0 00-1.9-1.9zm-22.547 37.4a.8.8 0 10.8.8.86.86 0 00-.8-.8zm86.482-49.6a1 1 0 10-1.6 1.2l1.4 1.9a.909.909 0 00.8.4 1.421 1.421 0 00.6-.2 1.075 1.075 0 00.2-1.4zm3.92 5.4a1 1 0 10-1.6 1.2l1.4 1.9a.909.909 0 00.8.4 1.421 1.421 0 00.6-.2 1.075 1.075 0 00.2-1.4zm-4.424-.7l-1.9 1.4a1.075 1.075 0 00-.2 1.4.909.909 0 00.8.4 1.421 1.421 0 00.6-.2l1.9-1.4a1.075 1.075 0 00.2-1.4 1.058 1.058 0 00-1.4-.2zm5.429-4l-1.9 1.4a1.075 1.075 0 00-.2 1.4.909.909 0 00.8.4 1.421 1.421 0 00.6-.2l1.9-1.4a1.075 1.075 0 00.2-1.4 1.058 1.058 0 00-1.4-.2zm25.593 70.2l-.4.1-.1-.4a1 1 0 00-1.3-.6.932.932 0 00-.6 1.3l.1.4-.4.1a1.036 1.036 0 00.4 2h.3l.4-.1.1.4a.993.993 0 001 .7h.3a1 1 0 00.6-1.3l-.1-.4.4-.1a1 1 0 00.6-1.3 1.17 1.17 0 00-1.3-.8zm-140.8-32.4a.992.992 0 00-1.5 1.3l1.9 2.3-2.6 2.1a.972.972 0 00-.1 1.4 1.234 1.234 0 00.8.4 1.421 1.421 0 00.6-.2l3.4-2.8a.972.972 0 00.1-1.4zm152.8-30.2l-3-.6.6-3.3a1.02 1.02 0 00-2-.4l-.8 4.3a1.012 1.012 0 00.8 1.2l3.9.8h.2a.974.974 0 001-.8.859.859 0 00-.7-1.2zM23.055.675l-1 .7-.1.1a.1.1 0 00-.1-.1l-.7-1a1 1 0 00-1.6 1.2l.7 1 .1.1a.1.1 0 00-.1.1l-1 .7a1.075 1.075 0 00-.2 1.4.909.909 0 00.8.4 1.421 1.421 0 00.6-.2l1-.7.1-.1a.1.1 0 00.1.1l.7 1a.909.909 0 00.8.4 1.421 1.421 0 00.6-.2 1.075 1.075 0 00.2-1.4l-.7-1-.1-.1a.1.1 0 00.1-.1l1-.7a1.075 1.075 0 00.2-1.4 1.058 1.058 0 00-1.4-.2z" fill="#0073ff"/></svg>