<svg xmlns="http://www.w3.org/2000/svg" width="108.27" height="94" viewBox="0 0 108.27 94"><g transform="translate(-4.575 -5.526)"><g transform="translate(13.226 29.775)"><path d="M103.144,72.4,88.12,63.3a.9.9,0,0,0-1.1.1.946.946,0,0,0-.3,1.1l3.606,10.8-2.5,1.9-3-2.4a.913.913,0,0,0-1.2,0l-3,2.4-3-2.4a.913.913,0,0,0-1.2,0l-3,2.4-2.5-1.9L74.5,64.5a1.127,1.127,0,0,0-.3-1.1.912.912,0,0,0-1.1-.1L58.973,72,47.054,63.4a.923.923,0,0,0-1-.1,1.149,1.149,0,0,0-.6.9V74.6H27.122V64.2a.961.961,0,0,0-.6-.9,1.1,1.1,0,0,0-1.1.1L13.6,72.5a1,1,0,1,0,1.2,1.6l10.116-7.8V86.7a.946.946,0,0,0,1,1h4.107l-.6,5.2h-.1c-2,.2-4.307.4-5.308,1.1-1.8,1.1-1.3,4.2-1.3,4.6a.975.975,0,0,0,1,.8h6.01a.6.6,0,0,0,.4-.1.1.1,0,0,0,.1-.1c.1,0,.1-.1.2-.1l.1-.1c0-.1.1-.1.1-.2v-.3l1.3-10.8h8.714l1.3,10.8v.3c0,.1.1.1.1.2l.1.1c.1.1.1.1.2.1a.1.1,0,0,1,.1.1c.1,0,.2.1.4.1h6.01a.975.975,0,0,0,1-.8c.1-.3.6-3.4-1.3-4.6-1.1-.7-3.305-.9-5.308-1.1h-.1l-.6-5.2h3.606a.946.946,0,0,0,1-1V66.2l10.517,7.9h0c.1,0,.1.1.2.1a.1.1,0,0,1,.1.1h.4c.1,0,.1,0,.2-.1.1,0,.1,0,.2-.1h0l12.42-7.6-2.9,8.8c0,.1,0,.1-.1.2L64.582,86.3a1.41,1.41,0,0,0,.1.9.911.911,0,0,0,.8.4H74.1l.4,5.8c-1.7.2-4.808.6-5.909,1.3a3.338,3.338,0,0,0-1.2,3.8,1,1,0,0,0,1,.7H76.2c.1,0,.1,0,.2-.1.1,0,.1-.1.2-.1s.1-.1.2-.1a.349.349,0,0,0,.1-.2c0-.1.1-.1.1-.2v-.4h0l-.9-10.5h8.814l-.4,6.7h0l-.2,3.9h0v.4c0,.1.1.1.1.2s.1.1.1.2a.35.35,0,0,0,.2.1c.1,0,.1.1.2.1s.1,0,.2.1h7.812a1,1,0,0,0,1-.7,3.377,3.377,0,0,0-1.2-3.8c-1.1-.7-4.207-1.1-5.909-1.2l.4-5.9h8.013a1.237,1.237,0,0,0,.8-.4.971.971,0,0,0,.1-.9L92.627,75.6c0-.1-.1-.2-.1-.3l-2.9-8.7,12.72,7.7a1.079,1.079,0,0,0,1.4-.3C104.045,73.6,103.644,72.7,103.144,72.4ZM25.019,95.5a15.737,15.737,0,0,1,4.107-.8l-.3,2.4H24.618A2.534,2.534,0,0,1,25.019,95.5Zm22.836,0c.3.2.4,1,.4,1.7H44.049l-.3-2.4A15.941,15.941,0,0,1,47.855,95.5ZM45.451,79a4.716,4.716,0,0,1-3.305-2.4h3.305ZM30.628,76.6a4.821,4.821,0,0,1-3.506,2.2V76.6Zm-3.506,4.3c2.8-.4,5.108-2.1,5.709-4.3h2.6v8.9H27.122V80.9Zm10.316,4.7V76.7h2.6c.5,2.2,2.8,4,5.409,4.4v4.5ZM69.59,96.4c.6-.4,2.8-.7,5.008-1l.1,1.8H69.189A.909.909,0,0,1,69.59,96.4Zm21.935,0a.909.909,0,0,1,.4.8H86.417l.1-1.8A28.226,28.226,0,0,1,91.525,96.4ZM67.186,85.6l2.7-8.3,2.5,2a.913.913,0,0,0,1.2,0l3-2.4,3,2.4a1,1,0,0,0,1.2,0l3-2.4,3,2.4a.913.913,0,0,0,1.2,0l2.5-2,2.7,8.3Z" transform="translate(-13.226 -29.649)" fill="#0073ff"/><path d="M20.5,51.9h.1a.961.961,0,0,0,.9-.6,6.376,6.376,0,0,1,.8-1.4,14.183,14.183,0,0,0,28.2.1,1,1,0,0,0,.5.4.913.913,0,0,0,1.1-.2c1.8-1.6,2.6-4.8,2.6-9.9a8.836,8.836,0,0,0-4-7.3,7.041,7.041,0,0,0-6.6-.6,17.54,17.54,0,0,0-18.7-.1c-3.2,2.1-8.3,7.4-5.8,18.6A1.179,1.179,0,0,0,20.5,51.9Zm15.9,8.7A12.249,12.249,0,0,1,24.2,48.4a2.769,2.769,0,0,1,.1-.9A16.157,16.157,0,0,1,31.2,44a10.393,10.393,0,0,0-.1,2.6.987.987,0,0,0,1,.9c4.9,0,8.3-.9,11-3a13.5,13.5,0,0,0,1.5,2.6.954.954,0,0,0,1.2.3c.2-.1,1-.5,1.9-.9h0a5.084,5.084,0,0,1,.9,1.3h0v.6A12.184,12.184,0,0,1,36.4,60.6ZM26.5,34.2a14.194,14.194,0,0,1,8.1-2.3,15.245,15.245,0,0,1,8.8,2.7,1.183,1.183,0,0,0,1,.1,5.091,5.091,0,0,1,5.2.2,6.633,6.633,0,0,1,3.1,5.6,22.658,22.658,0,0,1-.7,6.3A6.013,6.013,0,0,0,49.8,44a1.147,1.147,0,0,0-1-.1,18.761,18.761,0,0,1-1.9.9,9.744,9.744,0,0,1-1.1.5,15.95,15.95,0,0,1-1.2-2.7.988.988,0,0,0-.7-.7.959.959,0,0,0-1,.3c-2.2,2.3-5.3,3.3-9.8,3.5,0-.6.1-1.1.1-1.5a5.283,5.283,0,0,0,.1-1.3.909.909,0,0,0-.4-.8,1.02,1.02,0,0,0-.9-.2l-.7.2c-3,.9-7.3,2.1-10.2,6.2C20.4,41.9,22.3,37,26.5,34.2Z" transform="translate(-13.226 -29.649)" fill="#0073ff"/><path d="M107.3,57a1.208,1.208,0,0,0-.7-.7c-3-.8-3.7-3.1-3.7-3.9a5.838,5.838,0,0,0-5.2-5.7c-.2-4.7-2-8.6-5.1-10.8a8.47,8.47,0,0,0-7.7-1.2,14.487,14.487,0,0,0-12.4-.1c-2.8,1.4-6.3,4.6-7.4,11.7a7.064,7.064,0,0,0-3.4,1.4,6.444,6.444,0,0,0-2.8,4.7c0,.8-.7,3.1-3.7,3.9a1.208,1.208,0,0,0-.7.7,1.015,1.015,0,0,0,.3,1,7.907,7.907,0,0,0,5.4,2.1,7.8,7.8,0,0,0,2.2-.3,8.869,8.869,0,0,0,5.7-5.4,14.211,14.211,0,0,0,25.8-.1,8.929,8.929,0,0,0,5.7,5.4,8.329,8.329,0,0,0,2.2.3,7.47,7.47,0,0,0,5.4-2.1A1.254,1.254,0,0,0,107.3,57ZM73.4,36.4a12.4,12.4,0,0,1,11,.3,1.063,1.063,0,0,0,.8.1,6.736,6.736,0,0,1,6.3.8c2.5,1.8,4,5.1,4.3,9-4-.5-9.2-3.6-10.1-5.8a1.069,1.069,0,0,0-.9-.6,1.013,1.013,0,0,0-.9.6c-.4,1-3.7,3.4-8.3,5-3.6,1.2-6.7,1.4-8.6.6C67.9,41.5,70.1,38,73.4,36.4ZM61.8,57.8a6.213,6.213,0,0,1-4.3-.3,6.091,6.091,0,0,0,3.3-5.1,4.417,4.417,0,0,1,2-3.1,4.263,4.263,0,0,1,3.5-1h0c.1,0,.2.1.3.1h0a12.65,12.65,0,0,0,.3,2.8C65.8,55.7,63.5,57.3,61.8,57.8Zm19.1,2.8A12.229,12.229,0,0,1,69,51.1c0-.1,0-.2-.1-.2a14.919,14.919,0,0,1-.2-2.1c.4,0,.7.1,1.1.1a23.545,23.545,0,0,0,6.5-1.2c3.1-1.1,6.7-2.9,8.5-4.7,1.6,2,5,4,8.2,5v.4A12.037,12.037,0,0,1,80.9,60.6ZM100,57.8c-1.8-.5-4.1-2.1-5.2-6.7a12.413,12.413,0,0,0,.3-2.7,11.136,11.136,0,0,0,1.7.2,3.99,3.99,0,0,1,4.1,3.8,6.091,6.091,0,0,0,3.3,5.1A5.4,5.4,0,0,1,100,57.8Z" transform="translate(-13.081 -29.649)" fill="#0073ff"/><circle cx="1.6" cy="1.6" r="1.6" transform="translate(26.817 20.051)" fill="#0073ff"/><circle cx="1.6" cy="1.6" r="1.6" transform="translate(16.3 20.051)" fill="#0073ff"/><circle cx="1.6" cy="1.6" r="1.6" transform="translate(71.388 20.051)" fill="#0073ff"/><circle cx="1.6" cy="1.6" r="1.6" transform="translate(60.871 20.051)" fill="#0073ff"/></g><g transform="translate(35.442 17.5)"><path d="M36.4,18.6Z" transform="translate(-35.4 -17.5)" fill="#fff"/><path d="M36.4,17.5a1,1,0,0,0-1,1,1,1,0,0,0,2,0,1,1,0,0,0-1-1Z" transform="translate(-35.4 -17.5)" fill="#0073ff"/></g><g transform="translate(8.638 5.526)"><path d="M105.9,6.8a1,1,0,0,1,2-.2l.4,3,3.3-.5a.945.945,0,0,1,1.1.9,1.135,1.135,0,0,1-.3.8.864.864,0,0,1-.6.3l-4.3.6a.945.945,0,0,1-1.1-.9Z" transform="translate(-8.494 -5.526)" fill="#0073ff"/><path d="M9.4,13.4l3-.6-.6-3.3a1.02,1.02,0,0,1,2-.4l.8,4.3a1.012,1.012,0,0,1-.8,1.2l-3.9.8H9.7a.974.974,0,0,1-1-.8A.859.859,0,0,1,9.4,13.4Z" transform="translate(-8.638 -5.526)" fill="#0073ff"/><path d="M69.2,6.4a1.075,1.075,0,0,0,.2,1.4l1,.7a.1.1,0,0,1,.1.1.1.1,0,0,0-.1.1l-.7,1a1.075,1.075,0,0,0,.2,1.4,1.421,1.421,0,0,0,.6.2.909.909,0,0,0,.8-.4l.7-1a.1.1,0,0,1,.1-.1l.1.1,1,.7a1.421,1.421,0,0,0,.6.2.909.909,0,0,0,.8-.4A1.075,1.075,0,0,0,74.4,9l-1-.7a.1.1,0,0,1-.1-.1.1.1,0,0,0,.1-.1l.7-1a1.075,1.075,0,0,0-.2-1.4,1.075,1.075,0,0,0-1.4.2l-.7,1a.1.1,0,0,1-.1.1l-.1-.1-1-.7A.9.9,0,0,0,69.2,6.4Z" transform="translate(-8.549 -5.526)" fill="#0073ff"/></g><path d="M81.4,22a1.3,1.3,0,1,1-1.3,1.3A1.324,1.324,0,0,1,81.4,22Z" transform="translate(0.104 0.023)" fill="#0073ff"/><path d="M5.6,30.9l.3.1.1-.3a.728.728,0,0,1,1.4.4l-.1.3.3.1a.731.731,0,0,1-.3,1.4H7.1l-.3-.1-.1.2a.752.752,0,0,1-.7.5H5.8a.715.715,0,0,1-.5-.9l.1-.3-.3-.1a.715.715,0,0,1-.5-.9A1.1,1.1,0,0,1,5.6,30.9Z" transform="translate(0 0.034)" fill="#0073ff"/></g></svg>