<svg xmlns="http://www.w3.org/2000/svg" viewBox="0 0 164 132"><path d="M110.9 26l-3.5-.5.5-3.9c.1-.6-.4-1.2-1.1-1.3s-1.2.4-1.3 1.1l-.6 5.1c-.1.6.4 1.2 1.1 1.3l4.7.6h.1c.6 0 1.1-.5 1.2-1.1.1-.6-.4-1.2-1.1-1.3zM51 21.6c-.1 0-.4 0-.5.1-1.1.2-1.7 1.4-1.4 2.5.2.9 1.1 1.5 1.9 1.5.1 0 .4 0 .5-.1 1.1-.2 1.7-1.4 1.4-2.5-.2-.9-1.1-1.5-1.9-1.5zm76.8-17.9c-.1 0-.4 0-.5.1-1.1.2-1.7 1.4-1.4 2.5.2.9 1.1 1.5 1.9 1.5.1 0 .4 0 .5-.1 1.1-.2 1.7-1.4 1.4-2.5-.1-.9-.9-1.5-1.9-1.5zM5.1 51.8c-.4-.5-1.2-.6-1.7-.2s-.6 1.2-.2 1.7l.8 1.2c.2.4.6.5.9.5.2 0 .5-.1.7-.2.6-.5.7-1.3.4-1.8l-.9-1.2zm3.5 4.8c-.4-.5-1.2-.6-1.7-.2-.5.4-.6 1.2-.2 1.7l.8 1.2c.2.4.6.5.9.5.2 0 .5-.1.7-.2.5-.4.6-1.2.2-1.7l-.7-1.3zm-4.8-.7l-1.2.8c-.5.4-.6 1.2-.2 1.7.2.4.6.5.9.5.2 0 .5-.1.7-.2l1.2-.8c.5-.4.6-1.2.2-1.7-.4-.6-1.1-.7-1.6-.3zm4.8-3.6l-1.2.8c-.5.4-.6 1.2-.2 1.7.2.4.6.5.9.5.2 0 .5-.1.7-.2l1.2-.8c.5-.4.6-1.2.2-1.7-.3-.5-1.2-.6-1.6-.3zm152.1-28.5l.6-.5c.5-.4.6-1.2.2-1.7-.4-.5-1.2-.6-1.7-.2l-.6.5-.5-.6c-.4-.5-1.2-.6-1.7-.2-.5.4-.6 1.2-.2 1.7l.5.6-.6.5c-.5.4-.6 1.2-.2 1.7.2.4.6.5.9.5.2 0 .5-.1.7-.2l.6-.5.5.6c.2.4.6.5.9.5.2 0 .5-.1.7-.2.5-.4.6-1.2.2-1.7l-.3-.8zM8.7 10.7c-.6.1-1.1.7-.9 1.4l.7 3.5-3.2.6c-.6.1-1.1.7-.9 1.4.1.6.6.9 1.2.9h.2l4.3-.8c.4 0 .6-.2.7-.5s.2-.6.2-.8l-.8-4.6c-.2-.9-.9-1.2-1.5-1.1zm147.6 50l-3.7.7c-.6.1-1.1.7-.9 1.4l.7 3.4c.1.6.6.9 1.2.9h.2c.6-.1 1.1-.7.9-1.4l-.5-2.2 2.5-.5c.6-.1 1.1-.7.9-1.4 0-.5-.7-1-1.3-.9zm-49.6 21.9l-16.4 2.7c-1.7.2-3.4-.2-4.6-1.3L81 78.7c.4-2.5-.8-4-1.7-4.8l2.5-5.1 4.3 3.1.4.6c.7 1.2 2 2 3.3 2.2l3.2.5h.2c.6 0 1.2-.4 1.4-.9.4-.6.1-1.4-.4-1.9L81.6 60.7c-.5-.5-1.2-.7-1.9-.7s-1.3.4-1.8.8l-4 5.7-5.1 7.1h.1l-2.3-.3 4.4-7.7.6-.5c1.4-.9 2.2-2.5 2.4-4.3l.2-3.3c0-.7-.4-1.4-1.1-1.7-.7-.2-1.4 0-1.9.5L57.6 74c-1.1 1.3-.7 2.8.7 4 1.2.9 3.8 2 6.6 3.2 2.2.9 4.5 1.9 5.7 2.6 1.2.8 3.1 4.3 5.1 9.2.5 1.3.8 2.7.8 4v16.4c0 .5.1.8.2 1.2-5.6 1.2-9.8 6.1-9.8 12.1 0 .6.5 1.1 1.1 1.1.6 0 1.1-.5 1.1-1.1 0-5.7 4.6-10.3 10.3-10.3 5.7 0 10.3 4.6 10.3 10.3 0 .6.5 1.1 1.1 1.1.6 0 1.1-.5 1.1-1.1-.2-5.8-4.1-10.6-9.6-11.9.2-.4.4-.8.4-1.3L83 99s.1 0 .1.1c.8.4 1.7.6 2.5.6.6 0 1.2-.1 1.7-.2 1.4-.5 2.6-1.4 3.2-2.7.7-1.3.8-2.8.4-4.3-.5-1.4-1.4-2.6-2.7-3.2-1.3-.7-2.8-.8-4.3-.4-1.4.5-2.6 1.4-3.2 2.7-.9 1.8-.7 3.8.2 5.4l-.5 16.3c0 .5-.5.9-.9.9s-.9-.5-.9-.9V97c0-1.7-.4-3.3-.9-4.8-2.2-5.7-4.3-9.1-5.9-10.2-1.3-.8-3.5-1.8-6-2.8-2.4-.9-5.1-2.1-6-2.8-.7-.7-.6-.9-.4-1.1L72 59.1l-.1 1.9c-.1 1.1-.6 2-1.4 2.6l-.8.6-.4.4-5.3 9.2c-.1.4-.2.7 0 .9.1.4.5.5.8.6l8.3.9c.6.1 1.1-.4 1.2-.9.1-.6-.4-1.1-.9-1.2l-2.1-.3 8.5-11.6c.1-.1.2-.1.2-.1.1 0 .2 0 .2.1l11.3 10.3-1.4-.2c-.8-.1-1.4-.6-1.9-1.2l-.5-.7c-.1-.1-.1-.2-.2-.2L81 65.6c-.5-.4-1.2-.2-1.5.2s-.2 1.2.2 1.5l.4.2-3 6.1c-.2.5-.1 1.1.4 1.4 0 0 1.9 1.2 1.3 3.8-.1.4 0 .7.2.9l5 5.8.1.1c1.8 1.5 4.1 2.2 6.5 1.9l16.4-2.7c.4-.1.8.2.8.6.1.4-.2.8-.6.8L92.8 89c-.6.1-.9.7-.8 1.3.1.5.6.8 1.1.8h.2l14.4-2.8c1.5-.4 2.6-1.8 2.2-3.3-.2-1.6-1.7-2.7-3.2-2.4zm-24.1 9.9c.5-.8 1.2-1.4 2-1.7s1.8-.2 2.6.2c1.7.8 2.4 3 1.5 4.6-.5.8-1.2 1.4-2 1.7-.8.2-1.8.2-2.6-.2-1.7-.8-2.4-2.8-1.5-4.6z" fill="#0073ff"/></svg>