<?xml version="1.0" encoding="utf-8"?>
<!-- Generator: Adobe Illustrator 23.1.0, SVG Export Plug-In . SVG Version: 6.00 Build 0)  -->
<svg version="1.1" id="Layer_1" xmlns="http://www.w3.org/2000/svg" xmlns:xlink="http://www.w3.org/1999/xlink" x="0px" y="0px"
	 viewBox="0 0 164 132" style="enable-background:new 0 0 164 132;" xml:space="preserve">
<style type="text/css">
	.st0{fill:#0073FF;}
</style>
<g>
	<path class="st0" d="M110.9,26l-3.5-0.5l0.5-3.9c0.1-0.6-0.4-1.2-1.1-1.3s-1.2,0.4-1.3,1.1l-0.6,5.1c-0.1,0.6,0.4,1.2,1.1,1.3
		l4.7,0.6h0.1c0.6,0,1.1-0.5,1.2-1.1C112.1,26.7,111.6,26.1,110.9,26z"/>
	<path class="st0" d="M51,21.6c-0.1,0-0.4,0-0.5,0.1c-1.1,0.2-1.7,1.4-1.4,2.5c0.2,0.9,1.1,1.5,1.9,1.5c0.1,0,0.4,0,0.5-0.1
		c1.1-0.2,1.7-1.4,1.4-2.5C52.7,22.2,51.8,21.6,51,21.6z"/>
	<path class="st0" d="M127.8,3.7c-0.1,0-0.4,0-0.5,0.1c-1.1,0.2-1.7,1.4-1.4,2.5c0.2,0.9,1.1,1.5,1.9,1.5c0.1,0,0.4,0,0.5-0.1
		c1.1-0.2,1.7-1.4,1.4-2.5C129.6,4.3,128.8,3.7,127.8,3.7z"/>
	<path class="st0" d="M5.1,51.8c-0.4-0.5-1.2-0.6-1.7-0.2s-0.6,1.2-0.2,1.7l0.8,1.2c0.2,0.4,0.6,0.5,0.9,0.5c0.2,0,0.5-0.1,0.7-0.2
		C6.2,54.3,6.3,53.5,6,53L5.1,51.8z"/>
	<path class="st0" d="M8.6,56.6c-0.4-0.5-1.2-0.6-1.7-0.2c-0.5,0.4-0.6,1.2-0.2,1.7l0.8,1.2c0.2,0.4,0.6,0.5,0.9,0.5
		c0.2,0,0.5-0.1,0.7-0.2c0.5-0.4,0.6-1.2,0.2-1.7L8.6,56.6z"/>
	<path class="st0" d="M3.8,55.9l-1.2,0.8c-0.5,0.4-0.6,1.2-0.2,1.7c0.2,0.4,0.6,0.5,0.9,0.5c0.2,0,0.5-0.1,0.7-0.2l1.2-0.8
		c0.5-0.4,0.6-1.2,0.2-1.7C5,55.6,4.3,55.5,3.8,55.9z"/>
	<path class="st0" d="M8.6,52.3l-1.2,0.8c-0.5,0.4-0.6,1.2-0.2,1.7c0.2,0.4,0.6,0.5,0.9,0.5c0.2,0,0.5-0.1,0.7-0.2l1.2-0.8
		c0.5-0.4,0.6-1.2,0.2-1.7C9.9,52.1,9,52,8.6,52.3z"/>
	<path class="st0" d="M160.7,23.8l0.6-0.5c0.5-0.4,0.6-1.2,0.2-1.7c-0.4-0.5-1.2-0.6-1.7-0.2l-0.6,0.5l-0.5-0.6
		c-0.4-0.5-1.2-0.6-1.7-0.2c-0.5,0.4-0.6,1.2-0.2,1.7l0.5,0.6l-0.6,0.5c-0.5,0.4-0.6,1.2-0.2,1.7c0.2,0.4,0.6,0.5,0.9,0.5
		c0.2,0,0.5-0.1,0.7-0.2l0.6-0.5l0.5,0.6c0.2,0.4,0.6,0.5,0.9,0.5c0.2,0,0.5-0.1,0.7-0.2c0.5-0.4,0.6-1.2,0.2-1.7L160.7,23.8z"/>
	<path class="st0" d="M8.7,10.7c-0.6,0.1-1.1,0.7-0.9,1.4l0.7,3.5l-3.2,0.6c-0.6,0.1-1.1,0.7-0.9,1.4c0.1,0.6,0.6,0.9,1.2,0.9
		c0.1,0,0.1,0,0.2,0l4.3-0.8c0.4,0,0.6-0.2,0.7-0.5s0.2-0.6,0.2-0.8l-0.8-4.6C10,10.9,9.3,10.6,8.7,10.7z"/>
	<path class="st0" d="M156.3,60.7l-3.7,0.7c-0.6,0.1-1.1,0.7-0.9,1.4l0.7,3.4c0.1,0.6,0.6,0.9,1.2,0.9c0.1,0,0.1,0,0.2,0
		c0.6-0.1,1.1-0.7,0.9-1.4l-0.5-2.2l2.5-0.5c0.6-0.1,1.1-0.7,0.9-1.4C157.6,61.1,156.9,60.6,156.3,60.7z"/>
	<path class="st0" d="M106.7,82.6l-16.4,2.7c-1.7,0.2-3.4-0.2-4.6-1.3L81,78.7c0.4-2.5-0.8-4-1.7-4.8l2.5-5.1l4.3,3.1l0.4,0.6
		c0.7,1.2,2,2,3.3,2.2l3.2,0.5c0.1,0,0.1,0,0.2,0c0.6,0,1.2-0.4,1.4-0.9c0.4-0.6,0.1-1.4-0.4-1.9L81.6,60.7
		c-0.5-0.5-1.2-0.7-1.9-0.7c-0.7,0-1.3,0.4-1.8,0.8l-4,5.7l-5.1,7.1h0.1l-2.3-0.3l4.4-7.7l0.6-0.5c1.4-0.9,2.2-2.5,2.4-4.3l0.2-3.3
		c0-0.7-0.4-1.4-1.1-1.7c-0.7-0.2-1.4,0-1.9,0.5L57.6,74c-1.1,1.3-0.7,2.8,0.7,4c1.2,0.9,3.8,2,6.6,3.2c2.2,0.9,4.5,1.9,5.7,2.6
		c1.2,0.8,3.1,4.3,5.1,9.2c0.5,1.3,0.8,2.7,0.8,4v16.4c0,0.5,0.1,0.8,0.2,1.2c-5.6,1.2-9.8,6.1-9.8,12.1c0,0.6,0.5,1.1,1.1,1.1
		c0.6,0,1.1-0.5,1.1-1.1c0-5.7,4.6-10.3,10.3-10.3c5.7,0,10.3,4.6,10.3,10.3c0,0.6,0.5,1.1,1.1,1.1c0.6,0,1.1-0.5,1.1-1.1
		c-0.2-5.8-4.1-10.6-9.6-11.9c0.2-0.4,0.4-0.8,0.4-1.3L83,99c0,0,0.1,0,0.1,0.1c0.8,0.4,1.7,0.6,2.5,0.6c0.6,0,1.2-0.1,1.7-0.2
		c1.4-0.5,2.6-1.4,3.2-2.7c0.7-1.3,0.8-2.8,0.4-4.3c-0.5-1.4-1.4-2.6-2.7-3.2c-1.3-0.7-2.8-0.8-4.3-0.4c-1.4,0.5-2.6,1.4-3.2,2.7
		c-0.9,1.8-0.7,3.8,0.2,5.4l-0.5,16.3c0,0.5-0.5,0.9-0.9,0.9s-0.9-0.5-0.9-0.9V97c0-1.7-0.4-3.3-0.9-4.8c-2.2-5.7-4.3-9.1-5.9-10.2
		c-1.3-0.8-3.5-1.8-6-2.8c-2.4-0.9-5.1-2.1-6-2.8c-0.7-0.7-0.6-0.9-0.4-1.1l12.6-16.2l-0.1,1.9c-0.1,1.1-0.6,2-1.4,2.6l-0.8,0.6
		c-0.1,0.1-0.2,0.2-0.4,0.4L64,73.8c-0.1,0.4-0.2,0.7,0,0.9c0.1,0.4,0.5,0.5,0.8,0.6l8.3,0.9c0.6,0.1,1.1-0.4,1.2-0.9
		c0.1-0.6-0.4-1.1-0.9-1.2l-2.1-0.3l8.5-11.6c0.1-0.1,0.2-0.1,0.2-0.1c0.1,0,0.2,0,0.2,0.1l11.3,10.3l-1.4-0.2
		c-0.8-0.1-1.4-0.6-1.9-1.2l-0.5-0.7c-0.1-0.1-0.1-0.2-0.2-0.2L81,65.6c-0.5-0.4-1.2-0.2-1.5,0.2s-0.2,1.2,0.2,1.5l0.4,0.2l-3,6.1
		c-0.2,0.5-0.1,1.1,0.4,1.4c0,0,1.9,1.2,1.3,3.8c-0.1,0.4,0,0.7,0.2,0.9l5,5.8l0.1,0.1c1.8,1.5,4.1,2.2,6.5,1.9l16.4-2.7
		c0.4-0.1,0.8,0.2,0.8,0.6c0.1,0.4-0.2,0.8-0.6,0.8l-14.4,2.8c-0.6,0.1-0.9,0.7-0.8,1.3c0.1,0.5,0.6,0.8,1.1,0.8c0.1,0,0.1,0,0.2,0
		l14.4-2.8c1.5-0.4,2.6-1.8,2.2-3.3C109.7,83.4,108.2,82.3,106.7,82.6z M82.6,92.5c0.5-0.8,1.2-1.4,2-1.7s1.8-0.2,2.6,0.2
		c1.7,0.8,2.4,3,1.5,4.6c-0.5,0.8-1.2,1.4-2,1.7c-0.8,0.2-1.8,0.2-2.6-0.2C82.4,96.3,81.7,94.3,82.6,92.5z"/>
</g>
</svg>
