<svg xmlns="http://www.w3.org/2000/svg" width="419.315" height="219"><g transform="translate(-7.489 -35.326)"><path d="M164.151 252.625a1 1 0 01-1-1v-3.6a2.9 2.9 0 00-2.9-2.9h-5.4a2.9 2.9 0 00-2.9 2.9v3.6a1 1 0 01-1 1 .945.945 0 01-1-1v-3.6a5.015 5.015 0 015-5h5.4a5.015 5.015 0 015 5v3.6a1.362 1.362 0 01-1.2 1zm16.5 0a1 1 0 01-1-1v-3.6a2.9 2.9 0 00-2.9-2.9h-5.4a2.9 2.9 0 00-2.9 2.9v3.6a1 1 0 01-2 0v-3.6a5.015 5.015 0 015-5h5.4a5.015 5.015 0 015 5v3.6a1.268 1.268 0 01-1.2 1zm16.5 0a1 1 0 01-1-1v-3.6a2.9 2.9 0 00-2.9-2.9h-5.4a2.9 2.9 0 00-2.9 2.9v3.6a1 1 0 01-2 0v-3.6a5.015 5.015 0 015-5h5.4a5.015 5.015 0 015 5v3.6a1.362 1.362 0 01-1.2 1zm16.5 0a1 1 0 01-1-1v-3.6a2.9 2.9 0 00-2.9-2.9h-5.4a2.9 2.9 0 00-2.9 2.9v3.6a1 1 0 01-1 1 .945.945 0 01-1-1v-3.6a5.015 5.015 0 015-5h5.4a5.015 5.015 0 015 5v3.6a1.362 1.362 0 01-1.2 1zm-39.1-11a1 1 0 01-1-1v-1.7a1.9 1.9 0 00-1.9-1.9h-3.9a1.9 1.9 0 00-1.9 1.9v1.7a1 1 0 01-1 1 .945.945 0 01-1-1v-1.7a3.9 3.9 0 013.9-3.9h3.9a3.9 3.9 0 013.9 3.9v1.7c.1.6-.3 1-1 1zm-12.3 0a1 1 0 01-1-1v-1.7a1.9 1.9 0 00-1.9-1.9h-3.9a1.9 1.9 0 00-1.9 1.9v1.7a1 1 0 01-1 1 .945.945 0 01-1-1v-1.7a3.9 3.9 0 013.9-3.9h3.9a3.9 3.9 0 013.9 3.9v1.7a1 1 0 01-1 1zm24.8 0a1 1 0 01-1-1v-1.7a1.9 1.9 0 00-1.9-1.9h-3.9a1.9 1.9 0 00-1.9 1.9v1.7a1 1 0 01-1 1 .945.945 0 01-1-1v-1.7a3.9 3.9 0 013.9-3.9h3.9a3.9 3.9 0 013.9 3.9v1.7a1.071 1.071 0 01-1 1zm12.3 0a1 1 0 01-1-1v-1.7a1.9 1.9 0 00-1.9-1.9h-3.9a1.9 1.9 0 00-1.9 1.9v1.7a1 1 0 01-1 1 .945.945 0 01-1-1v-1.7a3.9 3.9 0 013.9-3.9h3.9a3.9 3.9 0 013.9 3.9v1.7a.945.945 0 01-1 1zm12.4 0a1 1 0 01-1-1v-1.7a1.9 1.9 0 00-1.9-1.9h-3.9a1.9 1.9 0 00-1.9 1.9v1.7a1 1 0 01-2 0v-1.7a3.9 3.9 0 013.9-3.9h3.9a3.9 3.9 0 013.9 3.9v1.7c.1.6-.5 1-1 1zm-57.3-24.7h-3.4a1 1 0 010-2h3.1a32.265 32.265 0 0012.3-15.2 39.358 39.358 0 002.6-9.2 1.005 1.005 0 012 .2 36.563 36.563 0 01-2.7 9.7 34.438 34.438 0 01-13.5 16.4.6.6 0 01-.4.1zm4.8 15.8a1.063 1.063 0 01-1-.9 37.734 37.734 0 00-3.9-12.2.962.962 0 111.7-.9 38.626 38.626 0 014.2 12.9.991.991 0 01-.8 1.1z" fill="#0073ff"/><path d="M153.451 216.925a.764.764 0 01-.5-.2 1.076 1.076 0 01-.3-1.4 50.015 50.015 0 007.2-23.2.951.951 0 011.9.1 51.542 51.542 0 01-7.6 24.2c-.2.4-.4.5-.7.5zm-1.3 11a1 1 0 01-1-1v-7.8a1 1 0 011-1 .945.945 0 011 1v7.8a1.075 1.075 0 01-1 1zm-.4-20.2h-.2a.911.911 0 01-.7-1.2c0-.2.1-.4.1-.6a1.02 1.02 0 012 .4c0 .2-.1.4-.1.6a1.4 1.4 0 01-1.1.8zm.7-3.5h-.3a1.086 1.086 0 01-.7-1.2 40.061 40.061 0 001.1-9.4 1 1 0 012 0 38.192 38.192 0 01-1.2 10 1.013 1.013 0 01-.9.6zm61.7 12.7h-3.4a4.331 4.331 0 01-.5-.1 35.433 35.433 0 01-13.5-16.4 39.877 39.877 0 01-2.7-9.7 1.005 1.005 0 112-.2 33.188 33.188 0 002.6 9.2c1.9 4.6 5.6 11 12.3 15.2h3.2a1 1 0 010 2zm-8.3 15.801h-.1a.991.991 0 01-.8-1.1 36.227 36.227 0 014.2-12.9.962.962 0 011.7.9 37.734 37.734 0 00-3.9 12.2 1.072 1.072 0 01-1.1.9z" fill="#0073ff"/><path d="M211.651 216.925a1.234 1.234 0 01-.8-.4 52.087 52.087 0 01-7.6-24.2.951.951 0 111.9-.1 50.015 50.015 0 007.2 23.2 1 1 0 01-.3 1.4c0 .1-.2.1-.4.1zm1.4 11a1 1 0 01-1-1v-7.8a1 1 0 011-1 .945.945 0 011 1v7.8a1 1 0 01-1 1zm.4-20.2a1.053 1.053 0 01-1-.8c0-.2-.1-.4-.1-.6a1.02 1.02 0 012-.4c0 .2.1.4.1.6a1.028 1.028 0 01-.7 1.2zm-.7-3.5a.961.961 0 01-.9-.7 43.06 43.06 0 01-1.2-10 1 1 0 011-1 1.075 1.075 0 011 1 40.061 40.061 0 001.1 9.4.888.888 0 01-.7 1.2c-.1 0-.2.1-.3.1z" fill="#0073ff"/><path fill="none" d="M370.289 247.125l.8 1.1"/><path d="M371.089 249.225a.909.909 0 01-.8-.4l-.7-1a1 1 0 011.6-1.2l.7 1a1.075 1.075 0 01-.2 1.4 1.421 1.421 0 01-.6.2z" fill="#0073ff"/><path fill="none" d="M372.489 250.025l.7 1.1"/><path d="M373.189 252.125a.909.909 0 01-.8-.4l-.7-1a1 1 0 011.6-1.2l.7 1a1.075 1.075 0 01-.2 1.4 1.421 1.421 0 01-.6.2z" fill="#0073ff"/><path fill="none" d="M369.789 250.525l1-.8"/><path d="M369.789 251.625a.909.909 0 01-.8-.4 1.075 1.075 0 01.2-1.4l1-.7a1 1 0 111.2 1.6l-1 .7a.845.845 0 01-.6.2z" fill="#0073ff"/><path fill="none" d="M372.689 248.425l1-.8"/><path d="M372.689 249.425a.909.909 0 01-.8-.4 1.075 1.075 0 01.2-1.4l1-.7a1 1 0 111.2 1.6l-1 .7a.735.735 0 01-.6.2z" fill="#0073ff"/><path d="M383.489 95.517a.9.9 0 11.9-.9.9.9 0 01-.9.9z" fill="#fff"/><path d="M383.489 92.617a2 2 0 000 4 1.944 1.944 0 002-2 2.006 2.006 0 00-2-2z" fill="#0073ff"/><path d="M208.457 73a.9.9 0 11.9-.9c.1.5-.3.9-.9.9z" fill="#fff"/><path d="M208.457 70.1a2 2 0 000 4 1.944 1.944 0 002-2 2 2 0 00-2-2z" fill="#0073ff"/><path fill="none" d="M417.489 56.8l1.5 1.9"/><path d="M418.989 59.8a.909.909 0 01-.8-.4l-1.4-2a1 1 0 011.6-1.2l1.4 2a1 1 0 01-.8 1.6z" fill="#0073ff"/><path fill="none" d="M421.689 62.4l1.4 1.9"/><path d="M423.089 65.4a.909.909 0 01-.8-.4l-1.4-2a1 1 0 011.6-1.2l1.4 2a1.075 1.075 0 01-.2 1.4 1.421 1.421 0 01-.6.2z" fill="#0073ff"/><path fill="none" d="M416.589 63.3l2-1.5"/><path d="M416.589 64.3a.909.909 0 01-.8-.4 1.075 1.075 0 01.2-1.4l2-1.4a1 1 0 111.2 1.6l-2 1.4a.735.735 0 01-.6.2z" fill="#0073ff"/><path fill="none" d="M422.089 59.2l2.1-1.5"/><path d="M422.089 60.3a.909.909 0 01-.8-.4 1.075 1.075 0 01.2-1.4l2-1.4a1 1 0 111.2 1.6l-2 1.4a.845.845 0 01-.6.2z" fill="#0073ff"/><path fill="none" d="M369.989 36.2l.7.8"/><path d="M370.689 38.1a.909.909 0 01-.8-.4l-.6-.8a1 1 0 011.6-1.2l.6.8a1.075 1.075 0 01-.2 1.4.735.735 0 01-.6.2z" fill="#0073ff"/><path fill="none" d="M372.889 40.1l.7 1"/><path d="M373.589 42.1a.909.909 0 01-.8-.4l-.6-.8a1 1 0 011.6-1.2l.6.8a1.075 1.075 0 01-.2 1.4 1.421 1.421 0 01-.6.2z" fill="#0073ff"/><path fill="none" d="M369.389 40.3l.9-.6"/><path d="M369.389 41.4a.909.909 0 01-.8-.4 1.075 1.075 0 01.2-1.4l.8-.6a1 1 0 111.2 1.6l-.8.6a.735.735 0 01-.6.2z" fill="#0073ff"/><path fill="none" d="M373.389 37.4l.8-.6"/><path d="M373.389 38.5a.909.909 0 01-.8-.4 1.075 1.075 0 01.2-1.4l.8-.7a1 1 0 111.2 1.6l-.8.6a.6.6 0 01-.6.3zM39.9 140.399a1 1 0 01-1-1 .945.945 0 011-1l3.4-.1v-3.1a1 1 0 012 0l.1 4.1a.945.945 0 01-1 1l-4.5.1zM305.431 67.1a1.421 1.421 0 01-.6-.2.822.822 0 01-.4-.6l-.8-4.5a1.02 1.02 0 112-.4l.6 3.4 3.1-.6a1.02 1.02 0 01.4 2l-4 .8a.368.368 0 01-.3.1zm-78.82 95.552h-.2l-4.1-.7a1.012 1.012 0 01-.7-.4.952.952 0 01-.2-.7l.7-4.5a.962.962 0 111.9.3l-.5 3.4 3.1.5a.991.991 0 01.8 1.1.766.766 0 01-.8 1zm179.378-2.374a3.814 3.814 0 01-3.4-1.8c-1.1-1.9-.1-4.6 2.2-5.8a5.823 5.823 0 013.4-.7 3.889 3.889 0 012.8 1.8 3.6 3.6 0 01.1 3.2 5.231 5.231 0 01-2.3 2.6 5.81 5.81 0 01-2.8.7zm1.6-6.3a4.925 4.925 0 00-1.8.5c-1.2.7-2 2.1-1.4 3 .5.9 2.1 1 3.3.3a3.638 3.638 0 001.4-1.6 1.691 1.691 0 000-1.4 1.546 1.546 0 00-1.2-.7.367.367 0 00-.3-.1z" fill="#0073ff"/><path d="M410.389 156.378a.945.945 0 01-1-1v-15.8a1 1 0 112 0v15.7a1.09 1.09 0 01-1 1.1zm8.5 1.2h-.6a3.889 3.889 0 01-2.8-1.8 3.6 3.6 0 01-.1-3.2 5.231 5.231 0 012.3-2.6 5.823 5.823 0 013.4-.7 3.889 3.889 0 012.8 1.8 3.6 3.6 0 01.1 3.2 5.231 5.231 0 01-2.3 2.6 6.438 6.438 0 01-2.8.7zm1.6-6.3a4.925 4.925 0 00-1.8.5 3.638 3.638 0 00-1.4 1.6 1.691 1.691 0 000 1.4 1.546 1.546 0 001.2.7 4.126 4.126 0 002.1-.4 3.168 3.168 0 001.4-1.6 1.691 1.691 0 000-1.4 1.546 1.546 0 00-1.2-.7c0-.1-.2-.1-.3-.1z" fill="#0073ff"/><path d="M423.289 153.678a.945.945 0 01-1-1v-15.9a1 1 0 112 0v15.7a1.12 1.12 0 01-1 1.2z" fill="#0073ff"/><path d="M410.389 140.478a.974.974 0 01-1-.8 1.012 1.012 0 01.8-1.2l12.9-2.7a1.02 1.02 0 01.4 2l-12.9 2.7zm-36 43.904h-.7a4.206 4.206 0 01-3.1-2c-1.2-2.2-.1-5.1 2.5-6.5s5.7-1 6.9 1.1a3.81 3.81 0 01.1 3.6 6.556 6.556 0 01-2.6 2.9 6.127 6.127 0 01-3.1.9zm1.7-7.4a4.5 4.5 0 00-2.1.6c-1.6.9-2.4 2.6-1.8 3.7a1.987 1.987 0 001.6.9 4.345 4.345 0 002.5-.5 4.689 4.689 0 001.8-1.9 2.118 2.118 0 000-1.9 2.049 2.049 0 00-2-.9z" fill="#0073ff"/><path d="M379.389 179.682a.945.945 0 01-1-1v-18.3a1 1 0 112 0v18.3c.1.6-.3 1-1 1z" fill="#0073ff"/><path d="M379.389 161.382a.961.961 0 01-.9-.6.992.992 0 01.5-1.3l6.6-3.1a.985.985 0 01.8 1.8l-6.6 3.1c0 .1-.3.1-.4.1zM219.4 130.918h-.7a4.206 4.206 0 01-3.1-2c-1.2-2.2-.1-5.1 2.5-6.5s5.7-1 6.9 1.1a3.81 3.81 0 01.1 3.6 6.476 6.476 0 01-5.7 3.8zm1.8-7.4a4.5 4.5 0 00-2.1.6c-1.6.9-2.4 2.6-1.8 3.7a1.987 1.987 0 001.6.9 4.345 4.345 0 002.5-.5 4.689 4.689 0 001.8-1.9 2.118 2.118 0 000-1.9 2.263 2.263 0 00-2-.9z" fill="#0073ff"/><path d="M224.5 126.218a.945.945 0 01-1-1v-18.3a1 1 0 012 0v18.3a.945.945 0 01-1 1z" fill="#0073ff"/><path d="M224.5 107.918a.961.961 0 01-.9-.6.992.992 0 01.5-1.3l6.6-3.1a.985.985 0 01.8 1.8l-6.6 3.1a.6.6 0 01-.4.1zm-119.854 32.924h-5.8a1 1 0 010-2h5.7a.945.945 0 011 1 .871.871 0 01-.9 1zm17.482 0h-5.7a1 1 0 010-2h5.7a.945.945 0 011 1c.1.6-.5 1-1 1z" fill="#0073ff"/><path fill="none" d="M102.498 131.839l3.5 3.4"/><path d="M105.998 136.239a.908.908 0 01-.7-.3l-3.4-3.4a.99.99 0 011.4-1.4l3.4 3.4a.967.967 0 010 1.4 1.08 1.08 0 01-.7.3z" fill="#0073ff"/><path fill="none" d="M115.099 144.344l3.5 3.5"/><path d="M118.599 148.944a.908.908 0 01-.7-.3l-3.4-3.4a.99.99 0 011.4-1.4l3.4 3.4a.967.967 0 010 1.4 1.08 1.08 0 01-.7.3zm-8.088-13.946a.945.945 0 01-1-1v-5.7a1 1 0 012 0v5.7c.1.5-.5 1-1 1zm0 17.485a.945.945 0 01-1-1v-5.7a1 1 0 012 0v5.7c.1.6-.5 1-1 1z" fill="#0073ff"/><path fill="none" d="M118.597 131.839l-3.5 3.4"/><path d="M115.097 136.239a.908.908 0 01-.7-.3.967.967 0 010-1.4l3.4-3.4a.99.99 0 011.4 1.4l-3.4 3.4a.908.908 0 01-.7.3z" fill="#0073ff"/><path fill="none" d="M105.996 144.344l-3.5 3.5"/><path d="M102.496 148.944a.908.908 0 01-.7-.3.967.967 0 010-1.4l3.4-3.4a.99.99 0 011.4 1.4l-3.4 3.4a.908.908 0 01-.7.3zM84.7 102.433h-2.9a1 1 0 010-2h2.9a1 1 0 010 2zm15.817 0h-2.9a1 1 0 010-2h2.9a.945.945 0 011 1 1 1 0 01-1 1z" fill="#0073ff"/><path fill="none" d="M85.4 96.26l2 2.1"/><path d="M87.4 99.36a.908.908 0 01-.7-.3l-2.1-2.1a.99.99 0 011.4-1.4l2.1 2.1a.967.967 0 010 1.4.908.908 0 01-.7.3z" fill="#0073ff"/><path fill="none" d="M94.869 104.592l2 1.9"/><path d="M96.869 107.592a.908.908 0 01-.7-.3l-2.1-2.1a.99.99 0 111.4-1.4l2.1 2.1a.967.967 0 010 1.4.779.779 0 01-.7.3zm-5.053-10.986a.945.945 0 01-1-1v-2.9a1 1 0 012 0v2.9a1.075 1.075 0 01-1 1zm0 14.534a.945.945 0 01-1-1v-2.9a1 1 0 012 0v2.9a1 1 0 01-1 1z" fill="#0073ff"/><path fill="none" d="M96.871 96.26l-2 2.1"/><path d="M94.871 99.36a.908.908 0 01-.7-.3.967.967 0 010-1.4l2.1-2.1a.99.99 0 011.4 1.4l-2.1 2.1a1.08 1.08 0 01-.7.3z" fill="#0073ff"/><path fill="none" d="M87.4 104.592l-2 1.9"/><path d="M85.4 107.592a.908.908 0 01-.7-.3.967.967 0 010-1.4l2.1-2.1a.99.99 0 111.4 1.4l-2.1 2.1a1.08 1.08 0 01-.7.3z" fill="#0073ff"/><g transform="translate(107.998 137.239)"><circle cx="1.4" cy="1.4" r="1.4" transform="translate(1.1 1.2)" fill="#fff"/><path d="M2.5 5A2.54 2.54 0 010 2.5 2.5 2.5 0 112.5 5zm0-2.9a.4.4 0 10.4.4.43.43 0 00-.4-.4z" fill="#0073ff"/></g><g transform="translate(89.301 98.821)"><circle cx="1.4" cy="1.4" r="1.4" transform="translate(1.1 1.2)" fill="#fff"/><path d="M2.5 5A2.54 2.54 0 010 2.5 2.476 2.476 0 012.5 0 2.562 2.562 0 015 2.6 2.454 2.454 0 012.5 5zm0-2.9a.4.4 0 10.4.4.43.43 0 00-.4-.4z" fill="#0073ff"/></g><g transform="translate(149.661 93.028)"><circle cx="1.4" cy="1.4" r="1.4" transform="translate(1.1 1.2)" fill="#fff"/><path d="M2.5 5a2.5 2.5 0 010-5A2.476 2.476 0 015 2.5 2.54 2.54 0 012.5 5zm0-2.9a.4.4 0 10.4.4c0-.1-.2-.4-.4-.4z" fill="#0073ff"/></g><path d="M146.244 96.641h-2.9a1 1 0 010-2h2.9a1 1 0 010 2zm14.633 0h-2.9a1 1 0 010-2h2.9a.945.945 0 011 1 1 1 0 01-1 1zm-8.708 8.706a.945.945 0 01-1-1v-2.9a1 1 0 012 0v2.9a1.075 1.075 0 01-1 1z" fill="#0073ff"/><path fill="none" d="M133.29 103.346l4-1.6"/><path d="M133.29 104.446a.875.875 0 01-.9-.6.992.992 0 01.5-1.3l3.9-1.7a.985.985 0 11.8 1.8l-3.9 1.7c-.1.1-.2.1-.4.1z" fill="#0073ff"/><path fill="none" d="M167.027 89.422l3.9-1.6"/><path d="M167.027 90.422a.875.875 0 01-.9-.6.992.992 0 01.5-1.3l3.9-1.7a.985.985 0 11.8 1.8l-3.9 1.7a.756.756 0 01-.4.1z" fill="#0073ff"/><path fill="none" d="M159.975 114.399l-1.7-3.9"/><path d="M159.975 115.399a.875.875 0 01-.9-.6l-1.7-3.9a.985.985 0 111.8-.8l1.7 3.9a.992.992 0 01-.5 1.3.6.6 0 01-.4.1z" fill="#0073ff"/><path fill="none" d="M145.953 80.755l-1.7-4"/><path d="M145.953 81.755a.875.875 0 01-.9-.6l-1.7-3.9a.985.985 0 111.8-.8l1.7 3.9a.992.992 0 01-.5 1.3c-.1.1-.2.1-.4.1z" fill="#0073ff"/><path fill="none" d="M144.253 114.398l1.7-3.9"/><path d="M144.253 115.398a.6.6 0 01-.4-.1.917.917 0 01-.5-1.3l1.7-3.9a.985.985 0 011.8.8l-1.7 3.9c0 .4-.5.6-.9.6z" fill="#0073ff"/><path fill="none" d="M158.275 80.755l1.7-4"/><path d="M158.275 81.755a.6.6 0 01-.4-.1.917.917 0 01-.5-1.3l1.7-3.9a.985.985 0 111.8.8l-1.7 3.9a.875.875 0 01-.9.6z" fill="#0073ff"/><path fill="none" d="M170.927 103.346l-3.9-1.6"/><path d="M170.927 104.446a.6.6 0 01-.4-.1l-3.9-1.7a.985.985 0 01.8-1.8l3.9 1.7a.917.917 0 01.5 1.3c0 .4-.4.6-.9.6z" fill="#0073ff"/><path fill="none" d="M137.291 89.422l-4-1.6"/><path d="M137.291 90.422a.6.6 0 01-.4-.1l-3.9-1.7a.985.985 0 11.8-1.8l3.9 1.7a.917.917 0 01.5 1.3.875.875 0 01-.9.6zm.166 6.219h-7.1a1 1 0 010-2h7.1a1 1 0 010 2zm36.487 0h-7.1a1 1 0 010-2h7.1a.945.945 0 011 1c.1.6-.4 1-1 1zm-21.775 21.771a.945.945 0 01-1-1v-7.2a1 1 0 112 0v7.1a1.1 1.1 0 01-1 1.1zm0-36.497a.945.945 0 01-1-1v-7.1a1 1 0 012 0v7.1a1 1 0 01-1 1z" fill="#0073ff"/><path fill="none" d="M136.75 111.031l5.1-5.1"/><path d="M136.75 112.031a.908.908 0 01-.7-.3.967.967 0 010-1.4l5.1-5.1a.99.99 0 111.4 1.4l-5.1 5.1a1.08 1.08 0 01-.7.3z" fill="#0073ff"/><path fill="none" d="M162.461 85.213l5.1-5.1"/><path d="M162.461 86.313a.908.908 0 01-.7-.3.967.967 0 010-1.4l5.1-5.1a.99.99 0 111.4 1.4l-5.1 5.1a1.143 1.143 0 01-.7.3z" fill="#0073ff"/><path fill="none" d="M167.561 111.031l-5.1-5.1"/><path d="M167.561 112.031a.908.908 0 01-.7-.3l-5.1-5.1a.99.99 0 011.4-1.4l5.1 5.1a.967.967 0 010 1.4 1.08 1.08 0 01-.7.3z" fill="#0073ff"/><path fill="none" d="M141.85 85.213l-5.1-5.1"/><path d="M141.85 86.313a.908.908 0 01-.7-.3l-5.1-5.1a.99.99 0 111.4-1.4l5.1 5.1a.967.967 0 010 1.4 2.117 2.117 0 01-.7.3zm10.319 4.399a.945.945 0 01-1-1v-2.9a1 1 0 012 0v2.9a1 1 0 01-1 1z" fill="#0073ff"/><path fill="none" d="M145.982 101.815l2-2.1"/><path d="M145.982 102.815a.908.908 0 01-.7-.3.967.967 0 010-1.4l2.1-2.1a.99.99 0 011.4 1.4l-2.1 2.1a1.08 1.08 0 01-.7.3z" fill="#0073ff"/><path fill="none" d="M156.245 91.451l2-2"/><path d="M156.245 92.551a.908.908 0 01-.7-.3.967.967 0 010-1.4l2.1-2.1a.99.99 0 011.4 1.4l-2.1 2.1c-.1.2-.5.3-.7.3z" fill="#0073ff"/><path fill="none" d="M158.243 101.815l-2-2.1"/><path d="M158.243 102.815a.908.908 0 01-.7-.3l-2.1-2.1a.99.99 0 011.4-1.4l2.1 2.1a.967.967 0 010 1.4.779.779 0 01-.7.3z" fill="#0073ff"/><path fill="none" d="M147.98 91.451l-2-2"/><path d="M147.98 92.551a.908.908 0 01-.7-.3l-2.1-2.1a.99.99 0 111.4-1.4l2.1 2.1a.967.967 0 010 1.4.779.779 0 01-.7.3z" fill="#0073ff"/><g fill="#0073ff"><path d="M310.53 146.789c-5.5 0-9.9-4-9.9-9.2s4.5-9.2 9.9-9.2a10.974 10.974 0 014 .8l.1-29.4a2.464 2.464 0 011.9-2.4l24.5-5.4a2.09 2.09 0 011.7.4 1.8 1.8 0 01.7 1.5v39.3c0 4.9-4.3 8.9-9.4 8.9s-9.4-4-9.4-8.9c0-4.8 4.3-8.9 9.4-8.9a8.627 8.627 0 012.8.4v-14.7l-16.5 3.5c0 4.3.2 23.3.2 23.7 0 5.6-4.5 9.6-10 9.6zm0-16.1c-4.4 0-7.8 3.1-7.8 7.2s3.6 7.2 7.8 7.2c4.4 0 7.8-3.1 7.8-7.2 0-.4-.2-24.3-.2-24.5a1.053 1.053 0 01.8-1l18.5-3.9a.778.778 0 01.8.2 1.039 1.039 0 01.4.8v17.3a1.039 1.039 0 01-.4.8 1.147 1.147 0 01-1 .1 9.828 9.828 0 00-3.4-.7c-4.1 0-7.5 3.1-7.5 6.8 0 3.8 3.4 6.8 7.5 6.8s7.5-3.1 7.5-6.8v-39.4l-24.5 5.4a.43.43 0 00-.4.4l-.1 30.9a1.268 1.268 0 01-.4.9.908.908 0 01-1 0 7.639 7.639 0 00-4.4-1.3z"/><path d="M319.83 110.789a1.421 1.421 0 01-.6-.2.984.984 0 01-.3-.8v-4.8a1.2 1.2 0 01.7-1l17.8-4.8a1.02 1.02 0 01.9.2 1.039 1.039 0 01.4.8v4.9a1.2 1.2 0 01-.7 1l-17.6 4.7h-.6zm1-5.1v2.8l15.8-4.1v-2.8z"/></g><g fill="#0073ff"><path d="M316.718 243.526h-.4a4.043 4.043 0 01-3.1-3.5l-.1-.5-3.8-.8.4-2.1 5.2 1.1.2 2a1.806 1.806 0 001.5 1.6l.9-4.1a1.062 1.062 0 00-.1-.8 1.794 1.794 0 00-.7-.5l-4-.9.4-2.1 4 .9a3.189 3.189 0 012.4 3.8l-.9 4.1a1.815 1.815 0 01-1.9 1.8zm-9.7 9.5a1.689 1.689 0 01-1-.3 3.887 3.887 0 01-2.1-3.4 8.56 8.56 0 01.5-2.4c0-.1 0-.2.1-.2l-1.9-3.6 1.9-1 2.3 4.3-.1.4a4.076 4.076 0 01-.2.7 16.246 16.246 0 00-.4 1.9 2.039 2.039 0 001 1.6l2-3.6a.908.908 0 000-1c-.2-.3-3.1-5.8-3.1-5.8l1.9-1s2.9 5.5 3.1 5.8a3.186 3.186 0 010 3l-2.1 3.6a2.576 2.576 0 01-1.9 1zm2.2-44.4a4.234 4.234 0 01-1.9-8l2.1-1.1a4.058 4.058 0 011.9-.4 4.234 4.234 0 011.9 8l-2.1 1.1a4.058 4.058 0 01-1.9.4zm2.1-7.4a2.388 2.388 0 00-.9.2l-2.1 1.1a2.241 2.241 0 00-1.2 1.9 2.051 2.051 0 002.1 2.1 2.388 2.388 0 00.9-.2l2.1-1.1a2.241 2.241 0 001.2-1.9 2.112 2.112 0 00-2.1-2.1zm-15.9 22.2h-2.1v-12.9a1.58 1.58 0 011.6-1.6 1.884 1.884 0 01.8.2l4.8 2.7-1.1 1.8-4-2.2v12zm-.8-12.5zm5.1 42.1h-5.3a3.222 3.222 0 01-3.2-3.2v-4.4h2.1v4.4a1.11 1.11 0 001.1 1.1h5.3a1.922 1.922 0 00-1.3-1.8l-1.9-.6v-3.3h2.1v1.8l.4.1a4 4 0 012.7 3.8 1.97 1.97 0 01-2 2.1z"/><path d="M282.418 253.026a2.663 2.663 0 01-1.2-.3l-4.4-2.9a3.115 3.115 0 01-.9-4.4l9-13.8v-20.8a1.848 1.848 0 00-1.1-1.7l-9.7-3.9a3.173 3.173 0 01-1.9-2.8 3.009 3.009 0 013-3 2.959 2.959 0 011 .2l10.1 3.7a5.663 5.663 0 001.8.3h5a5.949 5.949 0 013.2.9l8.9 5.3-1.1 1.8-8.9-5.3a3.936 3.936 0 00-2.1-.6h-5a6.963 6.963 0 01-2.5-.5l-10.1-3.7a.9.9 0 00-1.2.9.76.76 0 00.6.8l9.7 3.9a3.8 3.8 0 012.4 3.6v20.2l-9.3 15.5a1.12 1.12 0 00.3 1.5l4.4 2.9a2.46 2.46 0 00.4-1.1 1.823 1.823 0 00-.5-1.1l-1.2-1.6 3.5-5.4 1.8 1.2-2.7 4.1.3.4a4.041 4.041 0 01.9 2.5 3.81 3.81 0 01-.7 2.2 1.964 1.964 0 01-1.3.9 1.087 1.087 0 01-.5.1zm8.3-51.5a4.8 4.8 0 01-4.8-4.8v-2.1a4.8 4.8 0 119.6 0v2.1a4.866 4.866 0 01-4.8 4.8zm0-9.5a2.582 2.582 0 00-2.6 2.6v2.1a2.6 2.6 0 105.2 0v-2.1a2.647 2.647 0 00-2.6-2.6z"/><path d="M294.418 246.726a14.845 14.845 0 01-10-3.8 2.035 2.035 0 01-.6-1.5 1.9 1.9 0 01.5-1.3c4.8-5.8 7.1-11.9 9.2-17.4 2.8-7.3 5-13 11.7-13h1.2a5.867 5.867 0 012.3.4l4.3 1.6 5.3-.9h.5a3.009 3.009 0 013 3 2.9 2.9 0 01-2.3 2.9l-6.1 1.4a3.3 3.3 0 01-1.4 0l-5.1-1 .2-1-.2 1v1.7c0 4.8 2.6 9.9 7.4 9.9a2.051 2.051 0 012.1 2.1 2.836 2.836 0 01-.4 1.3c-.3.6-11.2 14.6-21.6 14.6zm10.9-34.9c-5 0-6.8 4-9.8 11.7-2 5.3-4.6 11.9-9.6 17.9a12.5 12.5 0 008.5 3.2c9.4 0 19.7-13.2 20.1-13.7-6.2 0-9.5-6.2-9.5-12.1v-1.7a2.051 2.051 0 012.1-2.1h.4l5.1 1h.5l6.1-1.4a.815.815 0 10-.3-1.6l-5.9 1-4.9-1.8a4.146 4.146 0 00-1.6-.3h-1.2z"/></g><path d="M12.5 218.926a2.689 2.689 0 002.7-2.7 3.553 3.553 0 00-.2-1l-1.5.6c0 .1.1.3.1.4a1.216 1.216 0 01-1.2 1.2c-1.1 0-1.9-1.2-1.9-2.7 0-1.6.8-2.8 2.1-2.7a.714.714 0 00.8-.7.829.829 0 00-.6-.9h-.4c-1.9 0-3.5 1.9-3.5 4.3.1 2.3 1.7 4.2 3.6 4.2z" fill="#0073ff"/><path d="M9 220.826s.8.4 1.2-.1-.2-1.1-.2-1.1a2.576 2.576 0 01-1-1.9c0-1.5 1.6-2.7 3.5-2.7a1.216 1.216 0 011.2 1.2h1.6a2.689 2.689 0 00-2.7-2.7c-2.8 0-5.1 1.9-5.1 4.3a3.556 3.556 0 001.5 3zm82.381-17.517a3.465 3.465 0 00-3.6 1.5 2.652 2.652 0 001 3.7c.2.1.3.2.5.2h.2c.1 0 .2.1.3.1a2.689 2.689 0 002.8-1.3 13.354 13.354 0 00.7-1.8 1.99 1.99 0 01.6 2.7.79.79 0 00.1 1.1c.5.4 1.1-.1 1.1-.1.1-.1.2-.2.2-.3 1-1.7.1-4-1.9-5.2a3.873 3.873 0 00-5.4-3.1s-.8.4-.5 1.1a.866.866 0 001 .4 2.526 2.526 0 012.1.1 2.361 2.361 0 01.8.9zm.3 1.6a3.226 3.226 0 01-.6 1.8 1.166 1.166 0 01-2-1.2 2.281 2.281 0 012.6-.6z" fill="#0073ff"/><path d="M61.9 225.326c-2 .9-2.8 2.5-4.8 3.5 0 1.1 1.3 17.3 1.3 17.3-.4 2.5 1.1 7.2 1.1 7.2s4.2-6.4 1.8-7.1c-.1-.1.6-19.4.6-20.9z" fill="none" stroke="#0073ff" stroke-linejoin="round" stroke-miterlimit="10" stroke-width="2"/><path d="M73.3 218.226h-7.5a5.549 5.549 0 01-5.5-5.5v-1.6a2.456 2.456 0 00-2.5-2.4h-.4l-7.4 1.5-6.2-1.5h-.4a2.13 2.13 0 00-1.6.7 2.035 2.035 0 00-.6 1.5 2.131 2.131 0 001.5 2l6.5 2.2a1.949 1.949 0 00.8.1h4a1.538 1.538 0 011.5 1.5v4a1.99 1.99 0 01-.7 1.6l-6.8 7.1h6a6.791 6.791 0 005.3-2.3 7.672 7.672 0 015.5-2.4 8.313 8.313 0 008.1-5.3z" fill="none" stroke="#0073ff" stroke-linejoin="round" stroke-miterlimit="10" stroke-width="2"/><path d="M71.9 221.326a8.326 8.326 0 01-6.2 3.3c1.7.4 20.2 4.5 20.2 4.5 1.3.3 4.7 3.5 4.8 1.9.1-.9-2.4-6.9-4.5-4.5 0 .1-11.9-4.4-14.3-5.2z" fill="none" stroke="#0073ff" stroke-linejoin="round" stroke-miterlimit="10" stroke-width="2"/><path d="M56.4 200.319a3.864 3.864 0 011.1-2.7l1.3-1.3a3.864 3.864 0 012.7-1.1 3.8 3.8 0 013.8 3.8 3.864 3.864 0 01-1.1 2.7l-1.3 1.3a3.818 3.818 0 01-6.5-2.7z" fill="none" stroke="#0073ff" stroke-miterlimit="10" stroke-width="2"/><path fill="none" stroke="#0073ff" stroke-linecap="round" stroke-miterlimit="10" stroke-width="2" d="M252.754 78.078v29.8"/><ellipse cx="6" cy="4.6" rx="6" ry="4.6" transform="rotate(-33.24 304.692 -346.66)" fill="none" stroke="#0073ff" stroke-linecap="round" stroke-miterlimit="10" stroke-width="2"/><path d="M252.848 82.6c8.9 1.8 12.8 7.5 7.3 15.6m7.994 114.426l4.7 2.2m-5.208 6.5h4.7m-2.26 9.6l4.8-3.5" fill="none" stroke="#0073ff" stroke-linecap="round" stroke-miterlimit="10" stroke-width="2"/><path d="M397.989 241.126a3.043 3.043 0 01-.8-.8 2.275 2.275 0 01.1-2.5l4.2-6.3a.187.187 0 000-.3l-2.8-7a2.316 2.316 0 01.4-2.4 2.375 2.375 0 012.4-.7l7.3 2a.367.367 0 00.3-.1l5.8-4.9a2.494 2.494 0 012.5-.4 2.285 2.285 0 011.4 2l.3 7.6c0 .1.1.2.2.3l6.4 4a2.234 2.234 0 011.1 2.2 2.584 2.584 0 01-1.5 2l-7.1 2.7a.215.215 0 00-.2.2l-1.8 7.4a2.25 2.25 0 01-1.8 1.7 2.2 2.2 0 01-2.3-.8l-4.7-5.9a.367.367 0 00-.3-.1l-7.6.5a2.235 2.235 0 01-1.5-.4zm18.5-21.5a.3.3 0 00-.4 0l-5.8 4.9a2.337 2.337 0 01-2.1.5l-7.3-2c-.2 0-.3 0-.4.1s-.1.2-.1.4l2.8 7a2.463 2.463 0 01-.2 2.2l-4.2 6.3c-.1.2-.1.3 0 .4 0 .1.1.2.3.2l7.6-.5a2.248 2.248 0 012 .9l4.7 5.9a.494.494 0 00.3.1q.15 0 .3-.3l1.8-7.4a2.2 2.2 0 011.5-1.6l7.1-2.7c.2-.1.2-.2.2-.3s0-.2-.2-.3l-6.4-4a2.144 2.144 0 01-1.1-1.9l-.3-7.6c.1-.2 0-.3-.1-.3zm8.3 15.3z" fill="#0073ff"/></g></svg>