<svg xmlns="http://www.w3.org/2000/svg" width="453.076" height="218.1"><path d="M46.615 135.025a1.08 1.08 0 00.7-.3l6.7-6.8a1.674 1.674 0 011.5-.4c2.3.6 4.9-1.3 6.1-2.5l14.3-14.5a3.542 3.542 0 00.2-5.1 3.631 3.631 0 00-2.6-1.1 4.151 4.151 0 00-2.6 1.2.92.92 0 101.3 1.3 2.111 2.111 0 011.3-.7 2.078 2.078 0 011.2.5 1.634 1.634 0 01-.2 2.4l-14.2 14.7c-1.2 1.2-3.1 2.3-4.3 2a3.324 3.324 0 00-3.3.9l-6.7 6.8a.853.853 0 000 1.3.6.6 0 00.6.3zm-10.9-8.4a1.08 1.08 0 00.7-.3l8.2-8.5a3.248 3.248 0 00.9-3v-.2c-.1-.8-.1-2.9-.1-5.6a33.042 33.042 0 01.4-5.6v-.1l2.5-7.2a1.779 1.779 0 01.7-.8 1.376 1.376 0 011.1-.1 1.4 1.4 0 01.8 1.8l-2 6a2.22 2.22 0 00.1 1.6l.9 1.7a.752.752 0 00.7.5 1.136 1.136 0 00.8-.3l13.9-14a1.606 1.606 0 011.1-.5 2.1 2.1 0 011.1.4 1.569 1.569 0 010 2.2l-9.2 9.2a.92.92 0 001.3 1.3l9.2-9.2a3.441 3.441 0 000-4.8 3.492 3.492 0 00-2.4-1 3.492 3.492 0 00-2.4 1l-12.9 13.1-.3-.6v-.1l2-6a3.593 3.593 0 00-.1-2.5 3.2 3.2 0 00-1.9-1.7 3.593 3.593 0 00-2.5.1 3.2 3.2 0 00-1.7 1.9l-2.5 7.2c-.7 1.7-.7 10.6-.5 12.3v.7a1.612 1.612 0 01-.4.7l-8.2 8.5a.853.853 0 000 1.3c.2.5.4.6.7.6z" fill="#0073ff"/><path d="M62.115 109.725a1.08 1.08 0 00.7-.3l12.7-12.7a3.465 3.465 0 10-4.9-4.9l-2.8 2.8a.92.92 0 001.3 1.3l2.8-2.8a1.556 1.556 0 012.2 2.2l-12.7 12.7a.853.853 0 000 1.3.755.755 0 00.7.4z" fill="#0073ff"/><path d="M65.615 113.325a1.08 1.08 0 00.7-.3l11.4-11.4a3.465 3.465 0 00-4.9-4.9l-2.8 2.8a.92.92 0 101.3 1.3l2.8-2.8a1.569 1.569 0 012.2 0 1.46 1.46 0 010 2.2l-11.3 11.5a.853.853 0 000 1.3.713.713 0 00.6.3zm-6.7 21.1a.908.908 0 00.7-.3l5.1-5.6.1-.1a1.537 1.537 0 011.4-.6c2.3.3 4.7-1.9 5.7-3.3l12.3-16.2a3.531 3.531 0 00-.5-5.1 3.347 3.347 0 00-4.8.5.93.93 0 001.5 1.1 1.531 1.531 0 012.2-.1 1.637 1.637 0 01.1 2.4l-12.2 16.3c-1 1.4-2.8 2.7-4 2.6a3.386 3.386 0 00-3.2 1.3l-5.1 5.6a.854.854 0 00.1 1.3 1.072 1.072 0 00.6.2zm20.899-37.7a.91.91 0 00.8-.4l1.3-1.7a3.456 3.456 0 00.7-2.6 3.6 3.6 0 00-1.3-2.3 3.456 3.456 0 00-2.6-.7 3.6 3.6 0 00-2.3 1.3.93.93 0 001.5 1.1 1.524 1.524 0 011-.6 1.8 1.8 0 011.2.3 1.524 1.524 0 01.6 1 1.8 1.8 0 01-.3 1.2l-1.3 1.7a.948.948 0 00.2 1.3.51.51 0 00.5.4z" fill="#0073ff"/><path d="M78.814 106.324a.91.91 0 00.8-.4l5.2-6.8a3.456 3.456 0 00.7-2.6 3.6 3.6 0 00-1.3-2.3 3.429 3.429 0 00-4.9.7l-.2.2a.93.93 0 001.5 1.1l.2-.2a1.57 1.57 0 012.5 1.9l-5.2 6.8a.948.948 0 00.2 1.3.55.55 0 00.5.3zm4.601-19.5a.91.91 0 00.8-.4l6.7-8.7a.93.93 0 10-1.5-1.1l-6.7 8.7a.948.948 0 00.2 1.3.764.764 0 00.5.2zm-8.3-1.899a.961.961 0 00.9-.7l2.6-7.9a.949.949 0 00-1.8-.6l-2.6 8a.931.931 0 00.6 1.2zm13.4 8.8a.756.756 0 00.4-.1l7-2.9a.92.92 0 00-.7-1.7l-7 2.9a.913.913 0 00-.5 1.2.76.76 0 00.8.6zm-22.3-7.9a.9.9 0 00.9-.9l.5-7.3a.951.951 0 00-1.9-.1l-.5 7.3a1 1 0 001 1zm22.9 18.5h6.2a1 1 0 000-2h-6.2a1 1 0 00-1 1 .945.945 0 001 1z" fill="#0073ff"/><path fill="none" d="M289.187 23.919l.8 1"/><path d="M289.987 25.919a.909.909 0 01-.8-.4l-.7-1a1 1 0 011.6-1.2l.7 1a1.075 1.075 0 01-.2 1.4 1.421 1.421 0 01-.6.2z" fill="#0073ff"/><path fill="none" d="M291.287 26.619l.7 1"/><path d="M291.987 28.619a.909.909 0 01-.8-.4l-.7-1a1 1 0 011.6-1.2l.7 1a1.075 1.075 0 01-.2 1.4.735.735 0 01-.6.2z" fill="#0073ff"/><path fill="none" d="M288.687 27.119l1-.7"/><path d="M288.687 28.119a.909.909 0 01-.8-.4 1.075 1.075 0 01.2-1.4l1-.7a1 1 0 111.2 1.6l-1 .7a.735.735 0 01-.6.2z" fill="#0073ff"/><path fill="none" d="M291.487 25.119l1-.7"/><path d="M291.487 26.119a.909.909 0 01-.8-.4 1.075 1.075 0 01.2-1.4l1-.7a1 1 0 111.2 1.6l-1 .7a1.421 1.421 0 01-.6.2z" fill="#0073ff"/><path fill="none" d="M274.326 62.138l1.2 1.7"/><path d="M275.526 64.838a.909.909 0 01-.8-.4l-1.2-1.7a1 1 0 011.6-1.2l1.2 1.7a1.075 1.075 0 01-.2 1.4.845.845 0 01-.6.2z" fill="#0073ff"/><path fill="none" d="M277.826 66.838l1.2 1.7"/><path d="M279.026 69.538a.909.909 0 01-.8-.4l-1.2-1.7a1 1 0 011.6-1.2l1.2 1.7a1.075 1.075 0 01-.2 1.4 1.421 1.421 0 01-.6.2z" fill="#0073ff"/><path fill="none" d="M273.526 67.638l1.6-1.2"/><path d="M273.526 68.638a.909.909 0 01-.8-.4 1.075 1.075 0 01.2-1.4l1.7-1.2a1 1 0 111.2 1.6l-1.7 1.2a.735.735 0 01-.6.2z" fill="#0073ff"/><path fill="none" d="M278.226 64.238l1.6-1.2"/><path d="M278.226 65.238a.909.909 0 01-.8-.4 1.075 1.075 0 01.2-1.4l1.7-1.2a1 1 0 111.2 1.6l-1.7 1.2a1.421 1.421 0 01-.6.2z" fill="#0073ff"/><path fill="none" d="M207.42 15.119l.8.2"/><path d="M208.22 16.319h-.2l-.8-.1a1.02 1.02 0 01.4-2l.8.1a1.037 1.037 0 01.8 1.2 1.187 1.187 0 01-1 .8z" fill="#0073ff"/><path fill="none" d="M210.92 15.819l.8.1"/><path d="M211.72 16.919h-.2l-.8-.1a1.02 1.02 0 01.4-2l.8.1a1.037 1.037 0 01.8 1.2.974.974 0 01-1 .8z" fill="#0073ff"/><path fill="none" d="M209.22 17.719l.1-.8"/><path d="M209.22 18.719h-.2a1.037 1.037 0 01-.8-1.2l.1-.8a1.02 1.02 0 112 .4l-.1.8a1.187 1.187 0 01-1 .8z" fill="#0073ff"/><path fill="none" d="M209.82 14.119l.1-.7"/><path d="M209.82 15.119h-.2a1.037 1.037 0 01-.8-1.2l.1-.8a1.02 1.02 0 112 .4l-.1.8a.974.974 0 01-1 .8z" fill="#0073ff"/><path fill="none" d="M1.015 74.609l.8.2"/><path d="M1.815 75.809h-.2l-.8-.1a1.02 1.02 0 01.4-2l.8.1a1.037 1.037 0 01.8 1.2 1.187 1.187 0 01-1 .8z" fill="#0073ff"/><path fill="none" d="M4.515 75.309l.8.1"/><path d="M5.315 76.409h-.2l-.8-.1a1.02 1.02 0 11.4-2l.8.1a1.037 1.037 0 01.8 1.2.974.974 0 01-1 .8z" fill="#0073ff"/><path fill="none" d="M2.815 77.209l.1-.8"/><path d="M2.815 78.209h-.2a1.037 1.037 0 01-.8-1.2l.1-.8a1.02 1.02 0 012 .4l-.1.8a1.188 1.188 0 01-1 .8z" fill="#0073ff"/><path fill="none" d="M3.415 73.609l.1-.7"/><path d="M3.415 74.609h-.2a1.037 1.037 0 01-.8-1.2l.1-.8a1.02 1.02 0 012 .4l-.1.8a.974.974 0 01-1 .8zM452.129 198a1.421 1.421 0 01-.6-.2l-3.7-2.6a.9.9 0 01-.2-1.4l2.4-3.4a1 1 0 011.6 1.2l-1.8 2.6 2.8 2a.9.9 0 01.2 1.4c0 .2-.3.4-.7.4zM117.685 38.119a2.375 2.375 0 01-1.2-.3 2.35 2.35 0 01-1.3-2.4l.3-8.2a.367.367 0 00-.1-.3l-6.6-4.9a2.462 2.462 0 01.8-4.4l7.9-2.3a.215.215 0 00.2-.2l2.6-7.8a2.348 2.348 0 012.1-1.7 2.71 2.71 0 012.5 1.1l4.5 6.8c.1.1.2.2.3.2l8.2.1a2.542 2.542 0 012.3 1.4 2.435 2.435 0 01-.3 2.7l-5.1 6.5a.367.367 0 00-.1.3l2.4 7.8a2.689 2.689 0 01-.6 2.6 2.521 2.521 0 01-2.6.5l-7.7-2.8h-.3l-6.7 4.7a1.716 1.716 0 01-1.5.6zm5.1-30.2c-.1 0-.3.1-.3.2l-2.6 7.8a2.3 2.3 0 01-1.7 1.6l-7.9 2.3c-.2.1-.2.2-.2.3a.367.367 0 00.1.3l6.6 4.9a2.574 2.574 0 011 2.2l-.3 8.2c0 .2.1.3.2.3s.2.1.4 0l6.7-4.7a3.188 3.188 0 012.4-.3l7.7 2.8c.2.1.3 0 .4-.1s.1-.2.1-.4l-2.4-7.8a2.7 2.7 0 01.4-2.3l5.1-6.5a.3.3 0 000-.4c0-.1-.1-.2-.3-.2l-8.2-.1a2.476 2.476 0 01-2.1-1.1l-4.5-6.8c-.4-.2-.5-.2-.6-.2zm16.3 9.5zm-126.57 6.2h-.6a3.494 3.494 0 01-2.6-1.7 3.385 3.385 0 01-.1-3.1 5.3 5.3 0 012.2-2.5c2.2-1.3 4.9-.8 5.9 1 1.1 1.8.1 4.3-2.1 5.6a6.367 6.367 0 01-2.7.7zm1.5-6.1a4.058 4.058 0 00-1.7.5 4.009 4.009 0 00-1.4 1.5 1.691 1.691 0 000 1.4 1.546 1.546 0 001.2.7 3.606 3.606 0 002-.4c1.2-.7 1.9-2 1.4-2.9a1.541 1.541 0 00-1.5-.8z" fill="#0073ff"/><path d="M16.715 19.819a.945.945 0 01-1-1v-15.2a1 1 0 012 0v15.1a1.028 1.028 0 01-1 1.1zm8.3 1.2h-.6a3.494 3.494 0 01-2.6-1.7 3.929 3.929 0 01-.2-3.2 5.3 5.3 0 012.2-2.5 5.508 5.508 0 013.3-.7 3.494 3.494 0 012.6 1.7 3.385 3.385 0 01.1 3.1 5.3 5.3 0 01-2.2 2.5 4.957 4.957 0 01-2.6.8zm1.5-6.1a4.058 4.058 0 00-1.7.5 4.009 4.009 0 00-1.4 1.5 1.691 1.691 0 000 1.4 1.546 1.546 0 001.2.7 3.606 3.606 0 002-.4 4.009 4.009 0 001.4-1.5 1.691 1.691 0 000-1.4 1.546 1.546 0 00-1.2-.7.367.367 0 00-.3-.1z" fill="#0073ff"/><path d="M29.215 17.219a.945.945 0 01-1-1v-15.2a1 1 0 012 0v15.2a1.075 1.075 0 01-1 1z" fill="#0073ff"/><path d="M16.715 4.619a.974.974 0 01-1-.8 1.012 1.012 0 01.8-1.2l12.5-2.6a1.02 1.02 0 01.4 2l-12.5 2.6zm172.063 81.475a6.389 6.389 0 01-4-1.3 3.88 3.88 0 01-1.5-3.1c0-2.9 3-5.7 6.8-6.4a6.758 6.758 0 015.7 1.2 3.88 3.88 0 011.5 3.1c0 2.9-3 5.7-6.8 6.4-.7 0-1.2.1-1.7.1zm2.9-9a6.15 6.15 0 00-1.3.1c-2.8.5-5.2 2.6-5.2 4.5a2.254 2.254 0 00.8 1.6 4.909 4.909 0 004.1.7c2.8-.5 5.2-2.6 5.2-4.5a2.254 2.254 0 00-.8-1.6 4.232 4.232 0 00-2.8-.8zm15.047 5.012a6.389 6.389 0 01-4-1.3 3.88 3.88 0 01-1.5-3.1c0-2.9 3-5.7 6.8-6.4a6.758 6.758 0 015.7 1.2 3.88 3.88 0 011.5 3.1c0 2.9-3 5.7-6.8 6.4-.7 0-1.2.1-1.7.1zm2.9-9a6.15 6.15 0 00-1.3.1c-2.8.5-5.2 2.6-5.2 4.5a2.254 2.254 0 00.8 1.6 4.909 4.909 0 004.1.7c2.8-.5 5.2-2.6 5.2-4.5a2.254 2.254 0 00-.8-1.6 4.232 4.232 0 00-2.8-.8z" fill="#0073ff"/><path d="M197.135 79.562h-2v-27.4a.974.974 0 01.8-1l18-4a.778.778 0 01.8.2 1.234 1.234 0 01.4.8v27.4h-2v-26.2l-16 3.6v26.6z" fill="#0073ff"/><path fill="#0073ff" d="M195.927 57.175l17.963-3.988.433 1.953-17.963 3.987zm27.649 49.358a6.389 6.389 0 01-4-1.3 3.88 3.88 0 01-1.5-3.1c0-2.9 3-5.7 6.8-6.4a6.758 6.758 0 015.7 1.2 3.88 3.88 0 011.5 3.1c0 2.9-3 5.7-6.8 6.4-.6 0-1.2.1-1.7.1zm2.9-9a6.15 6.15 0 00-1.3.1c-2.8.5-5.2 2.6-5.2 4.5a2.254 2.254 0 00.8 1.6 4.909 4.909 0 004.1.7c2.8-.5 5.2-2.6 5.2-4.5a2.254 2.254 0 00-.8-1.6 3.91 3.91 0 00-2.8-.8z"/><path d="M232.044 99.985h-2v-27.4a.96.96 0 01.7-.9 1.128 1.128 0 011.1.3 31.81 31.81 0 005.2 4.9c3.4 2.6 5.1 5.7 5.1 9.7a.974.974 0 01-.8 1 .948.948 0 01-1.1-.5 10.086 10.086 0 00-4.7-4.3 16.169 16.169 0 01-3.5-1.9v19.1zm0-21.8a11.5 11.5 0 004.2 2.7 10.252 10.252 0 013.2 2 10.5 10.5 0 00-3.6-4.4 25.141 25.141 0 01-3.7-3.3l-.1 3zm114.886 30.927h-2.1a1 1 0 110-2h2.1a1 1 0 010 2zm-6.182 0h-2.1a1 1 0 010-2h2.1a1 1 0 010 2zm2.092-2.091a.945.945 0 01-1-1v-2.1a1 1 0 012 0v2.1a1 1 0 01-1 1zm0 6.182a.945.945 0 01-1-1v-2.1a1 1 0 012 0v2.1a1 1 0 01-1 1zm-146.678-7.182h-2a1 1 0 010-2h2a1 1 0 010 2zm-5.983 0h-2a1 1 0 010-2h2a1 1 0 010 2zm1.991-1.991a.945.945 0 01-1-1v-2a1 1 0 012 0v2a.945.945 0 01-1 1zm0 5.982a.945.945 0 01-1-1v-2a1 1 0 012 0v2a.945.945 0 01-1 1z" fill="#0073ff"/><path fill="none" d="M386.729 197.7l-4 4"/><path d="M382.729 202.8a.908.908 0 01-.7-.3.967.967 0 010-1.4l4-4a.99.99 0 011.4 1.4l-4 4a1.493 1.493 0 01-.7.3z" fill="#0073ff"/><path fill="none" d="M374.629 209.9l-4.1 4"/><path d="M370.529 214.9a.908.908 0 01-.7-.3.967.967 0 010-1.4l4-4a.99.99 0 111.4 1.4l-4 4a.779.779 0 01-.7.3z" fill="#0073ff"/><path fill="none" d="M378.629 194.6v4.8"/><path d="M378.629 200.5a.945.945 0 01-1-1v-4.9a1 1 0 012 0v4.9c.1.6-.5 1-1 1z" fill="#0073ff"/><path fill="none" d="M378.629 212.1v4.9"/><path d="M378.629 218a.945.945 0 01-1-1v-4.9a1 1 0 012 0v4.9c.1.6-.5 1-1 1z" fill="#0073ff"/><path fill="none" d="M370.529 197.7l4.1 4"/><path d="M374.629 202.8a.908.908 0 01-.7-.3l-4-4a.99.99 0 011.4-1.4l4 4a.967.967 0 010 1.4 2.117 2.117 0 01-.7.3z" fill="#0073ff"/><path fill="none" d="M382.729 209.9l4 4"/><path d="M386.729 214.9a.908.908 0 01-.7-.3l-4-4a.99.99 0 111.4-1.4l4 4a.967.967 0 010 1.4.908.908 0 01-.7.3z" fill="#0073ff"/><path fill="none" d="M367.429 205.8h4.9"/><path d="M372.329 206.9h-5a1 1 0 010-2h4.9a.945.945 0 011 1 .871.871 0 01-.9 1z" fill="#0073ff"/><path fill="none" d="M384.929 205.8h4.9"/><path d="M389.829 206.9h-4.9a1 1 0 110-2h4.9a1 1 0 010 2z" fill="#0073ff"/><g transform="translate(376.154 203.3)"><circle cx="1.4" cy="1.4" r="1.4" transform="translate(1.075 1.1)" fill="#fff"/><path d="M2.475 4.9a2.743 2.743 0 01-1.8-.7 2.605 2.605 0 010-3.5 2.268 2.268 0 011.8-.7 2.743 2.743 0 011.8.7 2.605 2.605 0 010 3.5 2.567 2.567 0 01-1.8.7zm-.3-2.1a.33.33 0 00.5 0 .446.446 0 000-.5.367.367 0 00-.3-.1.367.367 0 00-.3.1s0 .4.1.5z" fill="#0073ff"/></g><path fill="none" d="M366.829 64.534l-3.4 3.4"/><path d="M363.429 68.734a1.421 1.421 0 01-.6-.2.91.91 0 010-1.2l3.3-3.3a.849.849 0 011.2 1.2l-3.3 3.3a1.072 1.072 0 01-.6.2z" fill="#0073ff"/><path fill="none" d="M357.002 74.604l-3.4 3.4"/><path d="M353.602 78.804a1.421 1.421 0 01-.6-.2.91.91 0 010-1.2l3.3-3.3a.91.91 0 011.2 0c.4.3.3.8 0 1.2l-3.3 3.3a.845.845 0 01-.6.2z" fill="#0073ff"/><path fill="none" d="M360.39 61.94v4"/><path d="M360.39 66.94a.736.736 0 01-.8-.8v-4a.8.8 0 111.6 0v4a.953.953 0 01-.8.8z" fill="#0073ff"/><path fill="none" d="M360.39 76.498v4.1"/><path d="M360.39 81.398a.736.736 0 01-.8-.8v-4a.8.8 0 111.6 0v4a.789.789 0 01-.8.8z" fill="#0073ff"/><path fill="none" d="M353.602 64.534l3.4 3.4"/><path d="M357.002 68.734a1.421 1.421 0 01-.6-.2l-3.3-3.3a.849.849 0 011.2-1.2l3.3 3.3a.91.91 0 010 1.2 1.072 1.072 0 01-.6.2z" fill="#0073ff"/><path fill="none" d="M363.429 74.605l3.4 3.4"/><path d="M366.829 78.805a1.421 1.421 0 01-.6-.2l-3.3-3.3a.91.91 0 010-1.2c.3-.4.8-.3 1.2 0l3.3 3.3a.91.91 0 010 1.2 1.421 1.421 0 01-.6.2z" fill="#0073ff"/><path fill="none" d="M351.008 71.317h4.1"/><path d="M355.108 72.117h-4.1a.8.8 0 010-1.6h4a.736.736 0 01.8.8.713.713 0 01-.7.8z" fill="#0073ff"/><path fill="none" d="M365.329 71.317h4.1"/><path d="M369.429 72.117h-4a.8.8 0 010-1.6h4a.8.8 0 010 1.6z" fill="#0073ff"/><g transform="translate(358.463 69.219)"><circle cx="1.2" cy="1.2" r="1.2" transform="translate(.725 .9)" fill="#fff"/><path d="M1.925 4.1a1.974 1.974 0 01-1.4-.6 2.264 2.264 0 010-2.9 1.816 1.816 0 011.4-.6 1.974 1.974 0 011.4.6 2.264 2.264 0 010 2.9 1.974 1.974 0 01-1.4.6zm-.3-1.9c.2.2.3.1.4 0 .1-.2.1-.3 0-.4a.31.31 0 00-.2-.1c-.1 0-.2 0-.2.1v.4z" fill="#0073ff"/></g><g transform="translate(410.829 137.943)"><circle cx="1.4" cy="1.4" r="1.4" transform="translate(1.1 1.075)" fill="#fff"/><path d="M2.5 4.975a2.743 2.743 0 01-1.8-.7 1.986 1.986 0 01-.7-1.8 2.743 2.743 0 01.7-1.8 2.605 2.605 0 013.5 0 2.268 2.268 0 01.7 1.8 2.743 2.743 0 01-.7 1.8 2.837 2.837 0 01-1.7.7zm0-2.9a.426.426 0 00-.3.7.33.33 0 00.5 0 .5.5 0 000-.6c0-.1-.1-.1-.2-.1z" fill="#0073ff"/></g><path fill="none" d="M419.429 134.433l-2.1 1.9"/><path d="M417.329 137.433a.908.908 0 01-.7-.3.967.967 0 010-1.4l2.1-2.1a.99.99 0 011.4 1.4l-2.1 2.1a.745.745 0 01-.7.3z" fill="#0073ff"/><path fill="none" d="M409.229 144.504l-2 1.9"/><path d="M407.229 147.504a.908.908 0 01-.7-.3.967.967 0 010-1.4l2.1-2.1a.99.99 0 011.4 1.4l-2.1 2.1a.745.745 0 01-.7.3z" fill="#0073ff"/><path fill="none" d="M419.429 146.404l-2.1-1.9"/><path d="M419.329 147.504a.908.908 0 01-.7-.3l-2.1-2.1a.99.99 0 111.4-1.4l2.1 2.1a.967.967 0 010 1.4c-.1.3-.4.3-.7.3z" fill="#0073ff"/><path fill="none" d="M431.829 132.739l-4 1.7"/><path d="M427.829 135.439a.875.875 0 01-.9-.6.992.992 0 01.5-1.3l3.9-1.7a.985.985 0 01.8 1.8l-3.9 1.7a.756.756 0 01-.4.1z" fill="#0073ff"/><path fill="none" d="M398.729 146.399l-4 1.7"/><path d="M394.729 149.099a.875.875 0 01-.9-.6.992.992 0 01.5-1.3l3.9-1.7a.985.985 0 01.8 1.8l-3.9 1.7c-.1.1-.2.1-.4.1z" fill="#0073ff"/><path fill="none" d="M420.929 158.87l-1.6-3.9"/><path d="M420.929 159.97a.875.875 0 01-.9-.6l-1.7-3.9a.985.985 0 111.8-.8l1.7 3.9a.992.992 0 01-.5 1.3.6.6 0 01-.4.1z" fill="#0073ff"/><path fill="none" d="M407.229 125.966l-1.7-4"/><path d="M407.229 126.966a.875.875 0 01-.9-.6l-1.7-3.9a.985.985 0 111.8-.8l1.7 3.9a.992.992 0 01-.5 1.3c-.1.1-.2.1-.4.1z" fill="#0073ff"/><path fill="none" d="M431.829 148.099l-4-1.7"/><path d="M431.829 149.099a.6.6 0 01-.4-.1l-3.9-1.7a.985.985 0 01.8-1.8l3.9 1.7a.917.917 0 01.5 1.3.875.875 0 01-.9.6z" fill="#0073ff"/><path fill="none" d="M398.729 134.439l-4-1.7"/><path d="M398.729 135.439a.6.6 0 01-.4-.1l-3.9-1.7a.985.985 0 01.8-1.8l3.9 1.7a.917.917 0 01.5 1.3.875.875 0 01-.9.6z" fill="#0073ff"/><path fill="none" d="M405.529 158.87l1.7-3.9"/><path d="M405.529 159.97a.6.6 0 01-.4-.1.917.917 0 01-.5-1.3l1.7-3.9a.985.985 0 111.8.8l-1.7 3.9c0 .4-.5.6-.9.6z" fill="#0073ff"/><path fill="none" d="M419.329 125.966l1.6-4"/><path d="M419.329 126.966a.6.6 0 01-.4-.1.917.917 0 01-.5-1.3l1.7-3.9a.985.985 0 111.8.8l-1.7 3.9a.875.875 0 01-.9.6z" fill="#0073ff"/><path fill="none" d="M428.529 125.354l-5.1 5"/><path d="M423.429 131.454a.908.908 0 01-.7-.3.967.967 0 010-1.4l5.1-5.1a.99.99 0 011.4 1.4l-5.1 5.1a1.08 1.08 0 01-.7.3z" fill="#0073ff"/><path fill="none" d="M403.229 150.58l-5.1 5"/><path d="M398.129 156.68a.908.908 0 01-.7-.3.967.967 0 010-1.4l5.1-5.1a.99.99 0 011.4 1.4l-5.1 5.1a1.08 1.08 0 01-.7.3z" fill="#0073ff"/><path fill="none" d="M428.529 155.58l-5.1-5"/><path d="M428.529 156.68a.908.908 0 01-.7-.3l-5.1-5.1a.99.99 0 111.4-1.4l5.1 5.1a.967.967 0 010 1.4 1.08 1.08 0 01-.7.3z" fill="#0073ff"/><path fill="none" d="M403.229 130.354l-5.1-5"/><path d="M403.229 131.454a.908.908 0 01-.7-.3l-5.1-5.1a.99.99 0 011.4-1.4l5.1 5.1a.967.967 0 010 1.4 1.08 1.08 0 01-.7.3z" fill="#0073ff"/><path fill="none" d="M434.829 140.419h-7.3"/><path d="M434.829 141.519h-7.1a1 1 0 010-2h7.1a.945.945 0 011 1 1 1 0 01-1 1z" fill="#0073ff"/><path fill="none" d="M398.929 140.419h-7.1"/><path d="M398.929 141.519h-7.1a1 1 0 010-2h7.1a.945.945 0 011 1c.1.6-.4 1-1 1z" fill="#0073ff"/><path fill="none" d="M413.329 161.863v-7.2"/><path d="M413.329 162.963a.945.945 0 01-1-1v-7.2a1 1 0 012 0v7.1a1.175 1.175 0 01-1 1.1z" fill="#0073ff"/><path fill="none" d="M413.329 126.169v-7.1"/><path d="M413.329 127.169a.945.945 0 01-1-1v-7.1a1 1 0 112 0v7.1a1 1 0 01-1 1z" fill="#0073ff"/><path fill="none" d="M409.229 136.333l-2-1.9"/><path d="M409.229 137.433a.908.908 0 01-.7-.3l-2.1-2.1a.99.99 0 011.4-1.4l2.1 2.1a.967.967 0 010 1.4c-.1.3-.4.3-.7.3z" fill="#0073ff"/><path fill="none" d="M421.829 140.419h-2.8"/><path d="M421.829 141.519h-2.9a1 1 0 110-2h2.9a.945.945 0 011 1c.1.6-.4 1-1 1z" fill="#0073ff"/><path fill="none" d="M407.529 140.419h-2.8"/><path d="M407.529 141.519h-2.9a1 1 0 010-2h2.9a1 1 0 010 2z" fill="#0073ff"/><path fill="none" d="M413.329 148.997v-2.9"/><path d="M413.329 150.097a.945.945 0 01-1-1v-2.9a1 1 0 012 0v2.9a1.166 1.166 0 01-1 1z" fill="#0073ff"/><path fill="none" d="M413.329 134.739v-2.8"/><path d="M413.329 135.739a.945.945 0 01-1-1v-2.9a1 1 0 012 0v2.9a1 1 0 01-1 1z" fill="#0073ff"/><g fill="#0073ff"><path d="M134.427 210.7a7.754 7.754 0 01-5.4-3q-4.05-4.95-2.7-15.6c.1-.7 2.8-16.2 11.3-19.7a7.973 7.973 0 015-.5c2.1.5 5.9 2.6 5.1 6.6a12.586 12.586 0 01-2 3.9 1.381 1.381 0 00-.3.4c-.9 1.1-3.2 3.9-2.4 12.4 0 .4 1 8.8-2.8 13a7.578 7.578 0 01-5.8 2.5zm6.4-37.3a7.367 7.367 0 00-2.5.5c-7.6 3.2-10.2 18.2-10.2 18.4-.8 6.5-.1 11.4 2.3 14.2a6.414 6.414 0 004 2.4 5.08 5.08 0 004.3-1.8c3.3-3.7 2.4-11.6 2.4-11.6-.8-9.3 1.8-12.6 2.8-13.8.1-.1.2-.2.2-.3a12.359 12.359 0 001.7-3.4c.7-3.3-3.5-4.4-3.7-4.4a6.879 6.879 0 00-1.3-.2z"/><path d="M135.427 201.6a11.018 11.018 0 01-1.8-.2c-4.6-.9-7.2-5.1-7.3-5.3a.943.943 0 011.6-1s2.4 3.7 6.2 4.4c2.4.5 4.8-.3 7.3-2.1a.93.93 0 011.1 1.5 11.318 11.318 0 01-7.1 2.7z"/><path d="M127.895 188.354l1.172-1.366 12.827 11.002-1.172 1.366z"/><path d="M127.337 195.662l13.996-6.89.795 1.615-13.996 6.89zm33.991-33.862a28.84 28.84 0 01-3.9-.3c-.4-.1-7.7-1.5-10.8-2.9-.1 0-.2-.1-.3-.2a31.485 31.485 0 01-7.5 1.8c-3.4.3-5.7-.4-6.7-1.8a3.657 3.657 0 01-.2-3.7 4.737 4.737 0 013.2-3.1c4.8-1.4 12.4 3.9 12.8 4.1.1 0 .1.1.2.2a35.649 35.649 0 004.6-2.5c.4-.2 7.3-4.5 12.1-2.5a6.558 6.558 0 014 5 4.4 4.4 0 01-.6 3.8q-2.1 2.1-6.9 2.1zm-12.6-4.2c3.4 1.1 8.9 2.2 9 2.3 6.2.8 8.2-.5 8.9-1.3a2.686 2.686 0 00.4-2.1v-.1c-.5-2-1.4-3.3-2.9-3.8-4-1.6-10.4 2.4-10.5 2.4a48.074 48.074 0 01-4.9 2.6zm-11.9-4.4a6.753 6.753 0 00-1.4.2 3.023 3.023 0 00-2 2.1 2.59 2.59 0 000 2c.6.9 2.4 1.3 5.1 1.1a29.852 29.852 0 007.2-1.8c-1.9-1.4-5.9-3.6-8.9-3.6z"/><path d="M146.588 158.525l1.733-.486 3.996 14.252-1.733.486z"/><path d="M142.03 172.361l4.202-14.503 1.73.5-4.203 14.504z"/><path d="M167.828 172.1a.755.755 0 01-.7-.4c-2.7-3.4-4.5-3.6-7.3-4.1l-.7-.1c-5.2-.8-11.6-8.3-11.9-8.7a.922.922 0 011.4-1.2c.1.1 6.2 7.3 10.8 8.1l.6.1c2.8.5 5.3.8 8.4 4.7a.935.935 0 01-.1 1.3c-.2.2-.3.3-.5.3z"/><path d="M123.128 177.3a1.063 1.063 0 01-.9-1c.8-6.3 4.7-7.2 7.9-7.7.9-.2 1.6-.4 2.4-.6 7.2-2.6 13.8-10.4 13.9-10.5a.922.922 0 111.4 1.2c-.3.4-7 8.2-14.6 11a10.957 10.957 0 01-2.6.6c-3.1.6-5.8 1.2-6.4 6.2-.3.5-.6.8-1.1.8zm36.8 33.4a7.186 7.186 0 01-5.7-2.4c-3.8-4.3-2.8-12.7-2.8-13 .7-8.5-1.5-11.3-2.4-12.4a1.38 1.38 0 00-.3-.4 18.252 18.252 0 01-2-3.9c-.8-4.1 2.9-6.2 5.1-6.7a8.143 8.143 0 015 .5c8.4 3.5 11.1 19 11.2 19.7.9 7.2 0 12.4-2.7 15.7a9.5 9.5 0 01-5.4 2.9zm-11.5-32.5a18.636 18.636 0 001.7 3.3c0 .1.1.1.2.3 1 1.2 3.7 4.4 2.8 13.8 0 .1-.9 8 2.4 11.7a5.277 5.277 0 004.4 1.8 6.192 6.192 0 004-2.4c2.4-2.8 3.1-7.7 2.3-14.2 0-.1-2.6-15.1-10.2-18.3a6.433 6.433 0 00-3.8-.4c-.3-.1-4.5 1-3.8 4.4z"/><path d="M158.828 201.6a11.994 11.994 0 01-7-2.5.93.93 0 011.1-1.5 9.674 9.674 0 007.3 2.1 10.843 10.843 0 006.2-4.4.943.943 0 011.6 1 12.47 12.47 0 01-7.3 5.3 12.033 12.033 0 00-1.9 0z"/><path d="M152.481 197.998l12.844-10.985 1.17 1.368-12.844 10.985z"/><path d="M152.124 190.311l.795-1.615 13.995 6.892-.795 1.615z"/><path d="M159.928 210.7a7.186 7.186 0 01-5.7-2.4c-3.8-4.3-2.8-12.7-2.8-13 .7-8.5-1.5-11.3-2.4-12.4a1.38 1.38 0 00-.3-.4 18.252 18.252 0 01-2-3.9c-.8-4.1 2.9-6.2 5.1-6.7a8.143 8.143 0 015 .5c8.4 3.5 11.1 19 11.2 19.7.9 7.2 0 12.4-2.7 15.7a9.5 9.5 0 01-5.4 2.9zm-11.5-32.5a18.636 18.636 0 001.7 3.3c0 .1.1.1.2.3 1 1.2 3.7 4.4 2.8 13.8 0 .1-.9 8 2.4 11.7a5.277 5.277 0 004.4 1.8 6.192 6.192 0 004-2.4c2.4-2.8 3.1-7.7 2.3-14.2 0-.1-2.6-15.1-10.2-18.3a6.433 6.433 0 00-3.8-.4c-.3-.1-4.5 1-3.8 4.4z"/><path d="M158.828 201.6a11.994 11.994 0 01-7-2.5.93.93 0 011.1-1.5 9.674 9.674 0 007.3 2.1 10.843 10.843 0 006.2-4.4.943.943 0 011.6 1 12.47 12.47 0 01-7.3 5.3 12.033 12.033 0 00-1.9 0z"/><path d="M152.481 197.998l12.844-10.985 1.17 1.368-12.844 10.985z"/><path d="M152.124 190.311l.795-1.615 13.995 6.892-.795 1.615z"/></g><g fill="#0073ff"><path d="M12.415 178.5l-1.5-1.5a2.878 2.878 0 01-.9-2.1 3.009 3.009 0 013-3 2.878 2.878 0 012.1.9l1.5 1.5a2.878 2.878 0 01.9 2.1 3.009 3.009 0 01-3 3 3.981 3.981 0 01-2.1-.9zm-.8-3.6a2.1 2.1 0 00.4 1.1l1.5 1.5a1.5 1.5 0 001.1.4 1.538 1.538 0 001.5-1.5 2.1 2.1 0 00-.4-1.1l-1.5-1.5a1.5 1.5 0 00-1.1-.4 1.417 1.417 0 00-1.5 1.5zm-.8 35h3.5a2.087 2.087 0 002-1.3l6.7-14 4.2 3v10.1a2.22 2.22 0 002.2 2.2h3.7a1.538 1.538 0 001.5-1.5 2.927 2.927 0 00-1.9-2.7l-.3-.1v-9.2a2.98 2.98 0 00-1.2-2.4l-1.8-1.3-.9 1.2 1.8 1.3a1.425 1.425 0 01.6 1.2v10.3l1.3.4a1.424 1.424 0 01.9 1.3h-3.7a.684.684 0 01-.7-.7v-10.8l-6.3-4.5-7.4 15.6a.67.67 0 01-.7.4h-3.5a1.424 1.424 0 01.9-1.3l1.4-.5 6.6-13.9v-1.6a9.377 9.377 0 00-2.5-6.3 1.613 1.613 0 00-2.3.2l-2.1 2.8-1.6 3.7a.675.675 0 01-.6.4.645.645 0 01-.6-.6v-.2l1.5-3.9c0-.1.1-.1.1-.2l2.9-3.9a5.48 5.48 0 011.8-1.6 13.385 13.385 0 013.4-1.5 6.277 6.277 0 013 5.2 1.538 1.538 0 001.5 1.5c6.4 0 10.4-4 10.4-10.4a1.538 1.538 0 00-1.5-1.5 1.213 1.213 0 00-1.2.7s-1.1 1.6-2.5 1.6c-2.7 0-4.1-3-4.1-3l-1.4.6s1.8 3.9 5.5 3.9c2.2 0 3.7-2.2 3.7-2.2 0 5.6-3.3 9-9 9a7.583 7.583 0 00-3.8-6.5 1.376 1.376 0 00-1.1-.1 14.161 14.161 0 00-3.7 1.7 8.331 8.331 0 00-2.2 2l-2.9 3.9c-.1.2-.2.3-.3.5l-1.5 3.9a1.949 1.949 0 00-.1.8 2.1 2.1 0 004 .9l1.6-3.6 2-2.6a7.987 7.987 0 012.1 5.2v1.2l-6.2 13-.8.3a2.79 2.79 0 00-1.9 2.7 1.443 1.443 0 001.5 1.2z"/><path d="M34.915 194.3a3.553 3.553 0 001-.2 1.553 1.553 0 00.9-2l-1.1-3a2.29 2.29 0 00-2.2-1.5h-4.4l-.8-2.2-1.4.5 1.2 3.2h5.5a.838.838 0 01.8.6l1.1 3v.1a1.574 1.574 0 01-1.7-.5l-1.4-1.7h-4.4a1.5 1.5 0 01-1.4-1l-1.4-3.8-1.4.5 1.4 3.8a2.917 2.917 0 002.8 1.9h3.6l.9 1.1a2.982 2.982 0 002.4 1.2zm-1.5-12.7l8.6-4.1 1.4.3a2.82 2.82 0 003-1.4 1.073 1.073 0 00.1-1.1 1.6 1.6 0 00-.7-.9l-2.6-1.5a2.224 2.224 0 00-2.1-.1l-7.6 3.7.6 1.3 7.6-3.7a.854.854 0 01.7 0l2.6 1.5a1.28 1.28 0 01-1.4.6l-1.9-.4-9.1 4.3zm-19.7 2l.3-1.5a1.165 1.165 0 01-1-1.1.864.864 0 01.3-.6l1.8-1.4-.9-1.2-1.8 1.4a2.43 2.43 0 00-.9 1.8 2.783 2.783 0 002.2 2.6zm3.4-5.8l6-4.4a6.632 6.632 0 011.9-.9l7.5-2a.641.641 0 01.8.6.675.675 0 01-.4.6l-5.6 1.7.4 1.4 5.6-1.7a2.131 2.131 0 001.5-2 2.077 2.077 0 00-2.6-2l-7.5 2a6.59 6.59 0 00-2.4 1.1l-6 4.4zm-1.5-6.6l-.7-1.5a2.59 2.59 0 012.3-3.8 2.613 2.613 0 012.3 1.4l.7 1.5a2.59 2.59 0 01-2.3 3.8 2.438 2.438 0 01-2.3-1.4zm.4-2.7a.9.9 0 00.1.5l.7 1.5a1.113 1.113 0 002.1-.5.9.9 0 00-.1-.5l-.7-1.5a1.113 1.113 0 00-2.1.5z"/></g><path d="M327.28 179.514a2.946 2.946 0 01-3-3 4.253 4.253 0 01.2-1.1l1.7.7c0 .1-.1.3-.1.4a1.324 1.324 0 001.3 1.3c1.2 0 2.1-1.3 2.1-3 0-1.8-.9-3.1-2.3-3a.811.811 0 01-.9-.8.924.924 0 01.7-1h.4c2.1 0 3.9 2.1 3.9 4.7-.1 2.8-1.9 4.8-4 4.8z" fill="#0073ff"/><path d="M331.077 181.607s-.9.4-1.3-.1a1.007 1.007 0 01.2-1.2 2.756 2.756 0 001.1-2.1c0-1.7-1.8-3-3.9-3a1.324 1.324 0 00-1.3 1.3h-1.8a2.946 2.946 0 013-3c3.1 0 5.6 2.1 5.6 4.7a3.744 3.744 0 01-1.6 3.4zm-87.95-19.564a2.641 2.641 0 012.3-.1s.9.3 1.1-.4c.3-.8-.6-1.2-.6-1.2a4.466 4.466 0 00-3.9.2 4.718 4.718 0 00-2.1 3.2c-2.2 1.3-3.2 3.9-2.1 5.7.1.1.1.2.2.3a.9.9 0 001.2.1.755.755 0 00.1-1.2c-.7-1-.3-2.1.7-3a4.223 4.223 0 00.8 2 2.879 2.879 0 003.1 1.4.367.367 0 00.3-.1h.2a4.167 4.167 0 01.6-.2 3.062 3.062 0 001.1-4.1 3.954 3.954 0 00-4-1.7 2.189 2.189 0 011-.9zm1.6 3.5a1.5 1.5 0 01-.4 1.8 1.529 1.529 0 01-1.8-.4 7.96 7.96 0 01-.7-2 2.444 2.444 0 012.9.6z" fill="#0073ff"/><path d="M273.83 209.3c-2.6.8 2 7.8 2 7.8s1.7-5.1 1.2-7.9c0 0 1.4-17.8 1.4-19-2.3-1.1-3.1-2.9-5.3-3.9-.1 1.6.7 23 .7 23z" fill="none" stroke="#0073ff" stroke-linejoin="round" stroke-miterlimit="10" stroke-width="2"/><path d="M260.913 179.8a9.168 9.168 0 008.9 5.8c3.1 0 4.6 1.4 6.1 2.6a7.7 7.7 0 005.8 2.5h6.6l-7.5-7.8a2.741 2.741 0 01-.8-1.8v-4.4a1.752 1.752 0 011.7-1.7h4.4a2.768 2.768 0 00.9-.1l7.2-2.4a2.323 2.323 0 001-3.9 2.741 2.741 0 00-1.8-.8h-.4l-6.8 1.7-8.1-1.7h-.4a2.83 2.83 0 00-2.8 2.6v1.8a6.19 6.19 0 01-6.1 6.1h-8.3z" fill="none" stroke="#0073ff" stroke-linejoin="round" stroke-miterlimit="10" stroke-width="2"/><path d="M246.385 187.7c-2.3-2.6-5.1 4-5 5 .2 1.9 3.9-1.7 5.3-2.1 0 0 20.5-4.5 22.2-5a9.3 9.3 0 01-6.8-3.6c-2.6.9-15.7 5.7-15.7 5.7z" fill="none" stroke="#0073ff" stroke-linejoin="round" stroke-miterlimit="10" stroke-width="2"/><path d="M275.033 164.06a4.41 4.41 0 01-3-1.2l-1.4-1.4a4.243 4.243 0 016-6l1.4 1.4a4.234 4.234 0 011.2 3 4.292 4.292 0 01-4.2 4.2z" fill="none" stroke="#0073ff" stroke-miterlimit="10" stroke-width="2"/></svg>