<svg xmlns="http://www.w3.org/2000/svg" width="1428.829" height="723.389"><path d="M1284.925 615.411l.943.118c3.889.589 6.363.943 10.134 5.656a1.279 1.279 0 0 0 1.061.471 1.567 1.567 0 0 0 .943-.354 1.471 1.471 0 0 0 .236-2c-4.478-5.539-7.9-6.01-11.9-6.717l-.943-.118c-3.771-.589-8.367-4.478-11.431-7.542 4.124 1.061 8.249 1.885 8.6 2a46.279 46.279 0 0 0 5.421.354q7.07 0 9.545-3.182a5.917 5.917 0 0 0 .943-5.421c-.943-3.535-2.828-6.01-5.656-7.07-6.835-2.828-16.733 3.3-17.2 3.535a42.921 42.921 0 0 1-6.363 3.535l-.118-.118c-.471-.354-11.195-7.9-18.03-5.774a7.15 7.15 0 0 0-4.478 4.36c0 .118-1.3 2.946.354 5.421 1.532 2.121 4.714 3.064 9.545 2.593a36.55 36.55 0 0 0 8.013-1.65c-3.422 3.536-10.021 9.546-16.853 12.02a22.474 22.474 0 0 1-3.3.825c-4.478.943-10.016 2-11.195 10.959a1.291 1.291 0 0 0 1.178 1.532h.236a1.4 1.4 0 0 0 1.414-1.178c.943-6.953 4.6-7.66 8.956-8.6a19.625 19.625 0 0 0 3.771-.943c6.6-2.357 12.609-7.542 16.5-11.313l-4.012 13.903a11.39 11.39 0 0 0-6.246.825c-12.138 5.3-15.909 27.1-16.144 28.046-1.3 10.016 0 17.44 3.771 22.036a11.243 11.243 0 0 0 7.542 4.242h.118a10.757 10.757 0 0 0 8.131-3.417c5.421-6.01 4.007-17.912 4.007-18.383-1.061-11.9 2.121-15.791 3.417-17.323.118-.236.354-.354.354-.471a23.154 23.154 0 0 0 2-3.535 30.569 30.569 0 0 0 2 3.535c.118.118.236.354.354.471 1.178 1.532 4.478 5.421 3.417 17.323-.118.471-1.414 12.373 4.007 18.383a10.4 10.4 0 0 0 8.131 3.417h.118a11.243 11.243 0 0 0 7.542-4.242c3.771-4.6 5.067-12.02 3.771-22.036-.118-.943-4.007-22.743-15.909-27.693a11.044 11.044 0 0 0-6.363-.825l-4.119-14.494c3.535 3.3 9.074 8.131 13.787 8.839zm-7.777-17.794c.118 0 9.074-5.539 14.612-3.3 2 .825 3.3 2.475 4.007 5.421a3.021 3.021 0 0 1-.471 2.828c-.943 1.061-3.771 2.828-12.255 1.65-.118 0-7.542-1.532-12.255-3.064a31.533 31.533 0 0 0 6.362-3.535zm-20.857 4.831c-4.949.354-6.481-.707-6.953-1.414a2.942 2.942 0 0 1 0-2.71 4.612 4.612 0 0 1 2.71-2.828 9.159 9.159 0 0 1 1.885-.236c4.007 0 9.309 2.828 12.373 4.714a34.454 34.454 0 0 1-10.015 2.474zm3.3 51.846s.118 1.061.118 2.475l-6.481-5.656 6.246-3.064a57.219 57.219 0 0 0 .117 6.245zm-1.885 4.36a12.011 12.011 0 0 1-7.9 1.414 13.01 13.01 0 0 1-6.715-4.002l7.424-3.653zm-16.38-4.714c.118-1.3.118-2.475.354-3.889 0-.118.354-1.768.943-4.242l5.539 4.714zm15.082 16.62a7.09 7.09 0 0 1-6.01 2.475 8.4 8.4 0 0 1-5.539-3.3c-2.121-2.592-3.3-6.481-3.535-11.431a16.044 16.044 0 0 0 8.013 4.6 17.651 17.651 0 0 0 2.593.236 16.3 16.3 0 0 0 7.777-2.246c-.235 3.3-1.06 7.191-3.299 9.666zm9.9-40.655a18.257 18.257 0 0 1-2.357 4.6c0 .118-.118.236-.236.354-1.061 1.178-3.182 3.889-3.889 9.9l-8.956 4.478-7.424-6.363c2-6.6 5.892-15.673 12.491-18.383a9.052 9.052 0 0 1 3.417-.707 9.1 9.1 0 0 1 1.768.236c.235-.007 6.127 1.407 5.185 5.885zm2-4.36a10.582 10.582 0 0 0-4.478-3.771l4.478-15.555 4.36 15.555a9.642 9.642 0 0 0-4.358 3.771zm26.516 24.393q.177 2.121.354 3.889l-6.835-3.417 5.538-4.716c.59 2.594.943 4.244.943 4.244zm-1.533 6.246a13.839 13.839 0 0 1-6.716 4.01 12.129 12.129 0 0 1-7.9-1.414l7.188-6.128zm-16.616.589a22.074 22.074 0 0 1 .116-2.479 58.612 58.612 0 0 0 .236-6.128l6.246 3.064zm14.967 12.962a8.4 8.4 0 0 1-5.539 3.3 7.9 7.9 0 0 1-6.128-2.475c-2.239-2.475-3.064-6.363-3.3-9.663a15.4 15.4 0 0 0 7.778 2.239 19.271 19.271 0 0 0 2.593-.236 16.044 16.044 0 0 0 8.013-4.6c-.117 4.954-1.178 8.843-3.417 11.435zm-11.077-45.369c6.481 2.71 10.37 11.784 12.491 18.383l-7.424 6.363-8.841-4.241c-.825-6.128-2.946-8.72-3.889-9.9-.118-.118-.236-.236-.236-.354a18.921 18.921 0 0 1-2.357-4.478c-.943-4.6 4.831-6.128 5.185-6.128a7.947 7.947 0 0 1 5.071.355zM148.621 664.748c0-.1.1-.313.1-.417l.1-.313a4.345 4.345 0 0 1 3.973-2.604 8.894 8.894 0 0 1 2.4.313 2.968 2.968 0 0 0-.939-1.461 2.633 2.633 0 0 0-1.774-.626 1.349 1.349 0 0 1-1.569-1.257 1.545 1.545 0 0 1 1.256-1.669h.626c3.026 0 5.53 3.026 5.635 6.678a6.347 6.347 0 0 1 2.4 4.8 6.034 6.034 0 0 1-2.5 4.9 2.471 2.471 0 0 1-1.043.313 1.329 1.329 0 0 1-1.148-.522c-.626-.835 0-1.669.313-2.087a3.592 3.592 0 0 0 1.356-2.609 3.751 3.751 0 0 0-.209-1.148 5.49 5.49 0 0 1-4.8 3.235 4.442 4.442 0 0 1-4.386-4.169v-.313a2.3 2.3 0 0 1 .1-.835c.109-.104.109-.104.109-.209zm4.278 2.609c1.148 0 2.087-1.043 2.5-2.4a6.3 6.3 0 0 0-2.5-.522 1.441 1.441 0 0 0-1.357 1.044.782.782 0 0 0-.1.522 1.478 1.478 0 0 0 1.457 1.356zM32.486 648.158a6.2 6.2 0 0 1 2.922-4.487 6.382 6.382 0 0 1 5.53-.313 1.594 1.594 0 0 1 .836 1.98 1.535 1.535 0 0 1-1.983.73 3.536 3.536 0 0 0-2.922.1 6.752 6.752 0 0 0-.939.835 5.407 5.407 0 0 1 5.217 2.5 4.43 4.43 0 0 1-1.565 6.052c-.209.1-.522.209-.73.313h-.417c-.1 0-.209.1-.313.1h-.313a4.3 4.3 0 0 1-4.278-2.191 9.906 9.906 0 0 1-.939-2.191 2.559 2.559 0 0 0-.418 3.352 1.3 1.3 0 0 1-.313 1.983 1.665 1.665 0 0 1-.835.313 1.7 1.7 0 0 1-1.148-.522 1.832 1.832 0 0 0-.417-.522c-1.461-2.502-.209-6.152 3.025-8.032zm3.653 4.28a1.422 1.422 0 0 0 1.983.522 1.665 1.665 0 0 0 .73-.939 2.169 2.169 0 0 0-.1-1.148 2.626 2.626 0 0 0-2.191-1.043 4.679 4.679 0 0 0-1.148.1 4.724 4.724 0 0 0 .726 2.508zm2.19 27.024a3.219 3.219 0 0 1 3.339.313c2.087-.73 13.773-5.113 18.991-6.991-.417-.835-.626-1.356-.73-1.565l-.629-1.671a1.466 1.466 0 0 1 .209-1.461 1.487 1.487 0 0 1 1.252-.626h11.48a6.769 6.769 0 0 0 6.782-6.782v-2.4a5.323 5.323 0 0 1 5.322-5.217 2.889 2.889 0 0 1 .939.1l10.851 2.2 9.078-2.191a5.2 5.2 0 0 1 4.487 1.356 4.567 4.567 0 0 1 1.357 3.335 4.734 4.734 0 0 1-3.235 4.487l-9.913 3.235a4.326 4.326 0 0 1-1.669.313h-6.052a.713.713 0 0 0-.73.73v6.052a1.682 1.682 0 0 0 .626 1.356l10.225 10.747a1.635 1.635 0 0 1 .313 1.669 1.477 1.477 0 0 1-1.461.939h-8.974a14.777 14.777 0 0 1-3.235-.313c-.417 6.261-1.774 23.164-1.774 23.895.626 4.174-1.67 11.165-1.774 11.373a1.8 1.8 0 0 1-1.252 1.043h-.209a1.784 1.784 0 0 1-1.356-.73c-1.252-1.878-5.008-8.139-3.861-11.269a3.752 3.752 0 0 1 .835-1.252c-.1-1.983-.835-24.1-.939-29.634a8.228 8.228 0 0 0-2.922-.417 3.217 3.217 0 0 1-1.043-.1c-3.338.831-30.157 6.776-30.467 6.883a14.45 14.45 0 0 0-2.5 1.461c-1.774 1.148-3.235 2.191-4.591 2.191a2.492 2.492 0 0 1-.939-.209 2.243 2.243 0 0 1-1.26-1.878c-.1-1.672 2.4-7.721 5.429-8.972zm41.32 33.18c-.209.73.417 2.817 1.774 5.322a20.392 20.392 0 0 0 .626-6.574v-.417c.417-5.739 1.669-21.077 1.878-25.147-.313-.209-.522-.313-.835-.522-.835-.626-1.565-1.252-2.3-1.878a4.086 4.086 0 0 0-1.043-.835c.209 7.2.835 24.834.939 28.486v.209a1.294 1.294 0 0 1-1.039 1.356zm-.939-34.538c.209.1.313.1.417.209a5.086 5.086 0 0 0 .73.313c.209.1.313.209.522.313s.417.313.626.417c.1.1.209.1.313.209.73.522 1.356 1.148 1.983 1.669a12.437 12.437 0 0 0 1.878 1.565 11 11 0 0 0 1.148.73 8.605 8.605 0 0 0 3.965.835h5.426L88 676.226a4.969 4.969 0 0 1-1.461-3.548v-6.051a3.852 3.852 0 0 1 3.861-3.865h6.052a1.323 1.323 0 0 0 .626-.1l9.913-3.235a1.567 1.567 0 0 0 1.144-1.565 1.676 1.676 0 0 0-.522-1.148 1.917 1.917 0 0 0-1.565-.522l-9.391 2.191c-.209 0-.417.1-.626 0l-11.165-2.191a2.181 2.181 0 0 0-1.774.417 2.146 2.146 0 0 0-.835 1.565v2.4a9.976 9.976 0 0 1-9.913 9.913h-9.181a13.39 13.39 0 0 0 1.252 2.087 11.147 11.147 0 0 0 3.548 3.13c.1 0 .1.1.209.1a6.153 6.153 0 0 1 .835.417c.1 0 .209.1.313.1l.939.313c.209 0 .313.1.522.1 0 .1.209.1.522.209a.782.782 0 0 1 .522.1c.209 0 .417.1.73.1.417 0 .835.1 1.252.1a11.491 11.491 0 0 1 4.903.861zm-16.173-2.713c-5.217 1.774-20.556 7.513-20.66 7.617a1.866 1.866 0 0 1-1.774-.417c-.313-.313-.417-.313-.522-.313-1.148.417-2.5 2.922-3.13 4.591.522-.313 1.148-.73 1.565-1.043a14.291 14.291 0 0 1 3.443-1.878l.417-.1c2.5-.522 16.278-3.652 24.416-5.426a12.279 12.279 0 0 1-3.755-3.031zm18.26-25.146a7.09 7.09 0 0 1-5.113-2.082l-1.878-1.878a7.3 7.3 0 0 1 5.213-12.422 7.09 7.09 0 0 1 5.113 2.087l1.887 1.878a7.3 7.3 0 0 1-5.217 12.417zm0-3.13a4.186 4.186 0 0 0 4.174-4.174 3.789 3.789 0 0 0-1.252-2.922l-1.878-1.878a4.387 4.387 0 0 0-2.922-1.252 4.186 4.186 0 0 0-4.174 4.174 3.789 3.789 0 0 0 1.252 2.922l1.878 1.878a4.12 4.12 0 0 0 2.922 1.252zM1428.742 64.322a1.594 1.594 0 0 0-1.982-.816l-9.677 4.547a1.418 1.418 0 0 0-1.049 1.516v22.619a8.791 8.791 0 0 0-7.928.583c-3.848 2.215-5.6 6.529-3.731 9.677a6.388 6.388 0 0 0 5.713 2.915 9.116 9.116 0 0 0 4.664-1.283c3.265-1.865 4.9-5.13 4.314-8.045V70.502l8.978-4.2a1.566 1.566 0 0 0 .698-1.98zm-15.624 37.193c-2.451 1.279-5.251 1.05-6.179-.583-.933-1.749.35-4.2 2.682-5.6a6.483 6.483 0 0 1 3.031-.933 3.547 3.547 0 0 1 3.031 1.516c.117.117.117.233.117.466v.7a1.479 1.479 0 0 0 .117.7 4.442 4.442 0 0 1-2.799 3.734zm-51.88 36.923v-24.324a2.183 2.183 0 0 0-.434-.869.379.379 0 0 0-.217-.109l-.109-.109a1.777 1.777 0 0 0-1.3-.217l-20.635 4.236a2.183 2.183 0 0 0-.869.434.379.379 0 0 0-.109.217l-.109.109a1.777 1.777 0 0 0-.217 1.3v20.202a7.948 7.948 0 0 0-7.275.543 8.76 8.76 0 0 0-3.583 4.126 5.324 5.324 0 0 0 .217 5.1 6.33 6.33 0 0 0 4.452 2.823h.977a8.789 8.789 0 0 0 4.236-1.192 7.8 7.8 0 0 0 4.235-6.3.979.979 0 0 0 .109-.543v-23.67l17.265-3.587v18.355a4.551 4.551 0 0 0-1.629-.434 8.773 8.773 0 0 0-9.013 5.321 5.324 5.324 0 0 0 .217 5.1 6.33 6.33 0 0 0 4.452 2.823h.977a11.365 11.365 0 0 0 4.452-1.194 8.76 8.76 0 0 0 3.583-4.126 6.416 6.416 0 0 0 .327-4.015zm-26.6 9.555a5.07 5.07 0 0 1-3.258.652 2.315 2.315 0 0 1-1.955-1.194 2.382 2.382 0 0 1 0-2.28 7.155 7.155 0 0 1 2.28-2.5 6.038 6.038 0 0 1 2.823-.869c1.194 0 2.172.326 2.5 1.3.755 1.525-.439 3.697-2.39 4.891zm22.912-6.841a7.155 7.155 0 0 1-2.28 2.5 5.07 5.07 0 0 1-3.258.652 2.315 2.315 0 0 1-1.959-1.196 2.382 2.382 0 0 1 0-2.28 7.155 7.155 0 0 1 2.28-2.5 6.038 6.038 0 0 1 2.823-.869c.326 0 .543 0 .543.217a2.315 2.315 0 0 1 1.955 1.194 2.672 2.672 0 0 1-.108 2.282z" fill="#0073ff"/><g transform="rotate(28 -358.259 2914.885)"><path d="M18.035 22.232a2.29 2.29 0 0 1-.865-.247l-6.423-4.444a1.26 1.26 0 0 1-.618-.988 1.185 1.185 0 0 1 .247-1.112l4.076-5.682a1.508 1.508 0 0 1 2.468 1.729l-3.208 4.444 5.188 3.582a1.456 1.456 0 0 1 .371 2.1 1.52 1.52 0 0 1-1.236.618z" fill="#0073ff"/><circle cx="16" cy="16" r="16" transform="translate(.118 .118)" fill="none"/></g><g transform="rotate(-124 464.525 -174.366)"><path d="M18.035 22.232a2.29 2.29 0 0 1-.865-.247l-6.423-4.444a1.26 1.26 0 0 1-.618-.988 1.185 1.185 0 0 1 .247-1.112l4.076-5.682a1.508 1.508 0 0 1 2.468 1.729l-3.208 4.444 5.188 3.582a1.456 1.456 0 0 1 .371 2.1 1.52 1.52 0 0 1-1.236.618z" fill="#0073ff"/><circle cx="16" cy="16" r="16" transform="translate(.118 .118)" fill="none"/></g><g transform="rotate(-167 34.103 160.315)"><path d="M18.035 22.232a2.29 2.29 0 0 1-.865-.247l-6.423-4.444a1.26 1.26 0 0 1-.618-.988 1.185 1.185 0 0 1 .247-1.112l4.076-5.682a1.508 1.508 0 0 1 2.468 1.729l-3.208 4.444 5.188 3.582a1.456 1.456 0 0 1 .371 2.1 1.52 1.52 0 0 1-1.236.618z" fill="#0073ff"/><circle cx="16" cy="16" r="16" transform="translate(.118 .118)" fill="none"/></g><g transform="rotate(-25 967.214 -2680.75)"><path d="M23.224 17.542h-3.583a1.482 1.482 0 1 1 0-2.965h3.582a1.5 1.5 0 0 1 1.482 1.482 1.363 1.363 0 0 1-1.481 1.483zm-10.624 0H9.018a1.532 1.532 0 0 1-1.606-1.483 1.5 1.5 0 0 1 1.482-1.482h3.582a1.5 1.5 0 0 1 1.482 1.482 1.332 1.332 0 0 1-1.358 1.483zm3.582-3.583a1.5 1.5 0 0 1-1.482-1.482V8.894a1.5 1.5 0 0 1 1.482-1.482 1.594 1.594 0 0 1 1.482 1.482v3.582a1.5 1.5 0 0 1-1.482 1.483zm0 10.747a1.5 1.5 0 0 1-1.482-1.482v-3.583a1.5 1.5 0 0 1 1.482-1.482 1.594 1.594 0 0 1 1.482 1.482v3.582a1.5 1.5 0 0 1-1.482 1.483z" fill="#0073ff"/><ellipse cx="16" cy="16.5" rx="16" ry="16.5" transform="translate(0 -.471)" fill="none"/></g><g transform="rotate(47 -235.26 231.67)"><path d="M23.224 17.542h-3.583a1.482 1.482 0 1 1 0-2.965h3.582a1.5 1.5 0 0 1 1.482 1.482 1.363 1.363 0 0 1-1.481 1.483zm-10.624 0H9.018a1.532 1.532 0 0 1-1.606-1.483 1.5 1.5 0 0 1 1.482-1.482h3.582a1.5 1.5 0 0 1 1.482 1.482 1.332 1.332 0 0 1-1.358 1.483zm3.582-3.583a1.5 1.5 0 0 1-1.482-1.482V8.894a1.5 1.5 0 0 1 1.482-1.482 1.594 1.594 0 0 1 1.482 1.482v3.582a1.5 1.5 0 0 1-1.482 1.483zm0 10.747a1.5 1.5 0 0 1-1.482-1.482v-3.583a1.5 1.5 0 0 1 1.482-1.482 1.594 1.594 0 0 1 1.482 1.482v3.582a1.5 1.5 0 0 1-1.482 1.483z" fill="#0073ff"/><ellipse cx="16" cy="16.5" rx="16" ry="16.5" transform="translate(0 -.471)" fill="none"/></g><g transform="rotate(41 -341.039 1341.379)"><path d="M23.224 17.542h-3.583a1.482 1.482 0 1 1 0-2.965h3.582a1.5 1.5 0 0 1 1.482 1.482 1.363 1.363 0 0 1-1.481 1.483zm-10.624 0H9.018a1.532 1.532 0 0 1-1.606-1.483 1.5 1.5 0 0 1 1.482-1.482h3.582a1.5 1.5 0 0 1 1.482 1.482 1.332 1.332 0 0 1-1.358 1.483zm3.582-3.583a1.5 1.5 0 0 1-1.482-1.482V8.894a1.5 1.5 0 0 1 1.482-1.482 1.594 1.594 0 0 1 1.482 1.482v3.582a1.5 1.5 0 0 1-1.482 1.483zm0 10.747a1.5 1.5 0 0 1-1.482-1.482v-3.583a1.5 1.5 0 0 1 1.482-1.482 1.594 1.594 0 0 1 1.482 1.482v3.582a1.5 1.5 0 0 1-1.482 1.483z" fill="#0073ff"/><ellipse cx="16" cy="16.5" rx="16" ry="16.5" transform="translate(0 -.471)" fill="none"/></g><path d="M143.212 115.033a3.325 3.325 0 0 1-2.227-.328 4.807 4.807 0 0 1-2.99-3.94l-1.53-14.534a2.584 2.584 0 0 1-.218-.617l-12.93-7.156a4.511 4.511 0 0 1-2.397-4.28 4.653 4.653 0 0 1 2.9-4l13.286-5.842a.273.273 0 0 0 .217-.287l2.979-14.399a4.741 4.741 0 0 1 3.22-3.533 5 5 0 0 1 4.684 1.394l9.89 11.053a.746.746 0 0 0 .664.163l14.592-2.051a4.014 4.014 0 0 1 4.27 2.093 3.987 3.987 0 0 1 .025 4.743l-7.429 12.843c-.108.143-.09.269-.037.646l6.364 13.344a4.118 4.118 0 0 1-.621 4.705 4.075 4.075 0 0 1-4.53 1.534l-14.434-3.233-.628.089-10.782 9.98a3.3 3.3 0 0 1-2.338 1.613zm1.167-55.569c-.377.053-.36.179-.467.322l-2.71 14.488a4.372 4.372 0 0 1-2.612 3.317l-13.506 6.13c-.234.16-.217.286-.54.717-.109.143.034.251.23.737l12.934 7.16A4.57 4.57 0 0 1 140 95.86l1.427 14.678c.035.252.214.611.34.594a1.341 1.341 0 0 0 .754-.106l10.781-9.98a5.151 5.151 0 0 1 4.188-1.23l14.433 3.23a.78.78 0 0 0 .737-.232c.108-.143.216-.287.02-.772l-6.365-13.344a6.293 6.293 0 0 1 .406-4.418l7.432-12.842a.8.8 0 0 0-.106-.754c-.018-.126-.162-.234-.665-.164l-14.609 1.924a4.262 4.262 0 0 1-3.93-1.5l-9.89-11.05c-.178-.36-.196-.485-.573-.432zm31.813 12.842zm1126.856 209.657a14.219 14.219 0 1 1 0-28.438 15.227 15.227 0 0 1 5.086.925v-45.087a1.53 1.53 0 0 1 1.5-1.5h6.595a1.53 1.53 0 0 1 1.5 1.5v4.627c2.543 2.312 13.641 13.178 14.1 26.7.231 7.514-2.774 14.566-9.132 20.808a1.507 1.507 0 0 1-2.543-1.387c.116-.231 5.433-20.461-3.006-29.941v37.57a14.184 14.184 0 0 1-14.1 14.223zm0-25.317a11.213 11.213 0 1 0 11.213 11.217v-40.926a1.465 1.465 0 0 1 2.312-1.156c9.595 6.7 8.9 21.5 7.63 29.594a22.693 22.693 0 0 0 4.626-14.45c-.462-13.641-13.41-24.854-13.525-24.97a1.34 1.34 0 0 1-.462-1.156v-3.815h-3.7v46.009a1.25 1.25 0 0 1-.813 1.27 1.715 1.715 0 0 1-1.5 0 11.484 11.484 0 0 0-5.781-1.617z" fill="#0073ff"/><g transform="translate(1144.529 -3.5)" fill="#0073ff"><path d="M22.987 105.381a1.453 1.453 0 0 0-1.427-1.427h-9.222a1.427 1.427 0 0 0 0 2.854h9.222a1.453 1.453 0 0 0 1.427-1.427zm28.667-1.317h-9.332a1.427 1.427 0 0 0 0 2.854h9.332a1.427 1.427 0 0 0 0-2.854zM19.035 89.68a1.4 1.4 0 0 0-1.976 1.976l5.709 5.709a1.635 1.635 0 0 0 .988.439 1.341 1.341 0 0 0 .988-.439 1.392 1.392 0 0 0 0-1.976zm21.989 21.96a1.4 1.4 0 0 0-1.976 1.976l5.709 5.709a1.635 1.635 0 0 0 .988.439 1.341 1.341 0 0 0 .988-.439 1.392 1.392 0 0 0 0-1.976zM30.952 84.734v9.332a1.427 1.427 0 1 0 2.854 0v-9.332a1.427 1.427 0 1 0-2.854 0zm1.427 28.442a1.453 1.453 0 0 0-1.427 1.427v9.332a1.427 1.427 0 1 0 2.854 0v-9.332a1.534 1.534 0 0 0-1.427-1.427zm6.785-15.929a1.635 1.635 0 0 0 .988.439 1.341 1.341 0 0 0 .988-.439l5.709-5.709a1.4 1.4 0 0 0-1.976-1.976l-5.709 5.709a1.39 1.39 0 0 0 0 1.976zM22.768 111.64l-5.709 5.709a1.392 1.392 0 0 0 0 1.976 1.635 1.635 0 0 0 .988.439 1.341 1.341 0 0 0 .988-.439l5.709-5.709a1.4 1.4 0 0 0-1.976-1.976zm-9.003-59.65a1.453 1.453 0 0 0-1.427-1.427H7.727a1.427 1.427 0 1 0 0 2.854h4.721a1.437 1.437 0 0 0 1.317-1.427zm23.396-1.427H32.44a1.427 1.427 0 1 0 0 2.854h4.721a1.453 1.453 0 0 0 1.427-1.427 1.629 1.629 0 0 0-1.427-1.427zm-21.419-2.904a1.635 1.635 0 0 0 .988.439 1.341 1.341 0 0 0 .988-.439 1.392 1.392 0 0 0 0-1.976l-3.4-3.4a1.4 1.4 0 1 0-1.976 1.976zM30.946 61.98a1.771 1.771 0 0 0 .988-.329 1.392 1.392 0 0 0 0-1.976l-3.184-3.4a1.4 1.4 0 0 0-1.976 1.976l3.184 3.4a1.533 1.533 0 0 0 .988.329zM21.56 43.102a1.453 1.453 0 0 0 1.427-1.427v-4.5a1.453 1.453 0 0 0-1.427-1.429 1.361 1.361 0 0 0-1.317 1.427v4.5a1.361 1.361 0 0 0 1.317 1.429zm-1.317 18.91v4.721a1.427 1.427 0 1 0 2.854 0v-4.721a1.427 1.427 0 1 0-2.854 0zm7.519-14.032a1.192 1.192 0 0 0 .988-.439l3.184-3.4a1.4 1.4 0 0 0-1.976-1.976l-3.184 3.4a1.392 1.392 0 0 0 0 1.976 1.341 1.341 0 0 0 .988.439zm-12.02 8.294l-3.4 3.4a1.392 1.392 0 0 0 0 1.976 1.635 1.635 0 0 0 .988.439 1.341 1.341 0 0 0 .988-.439l3.4-3.4a1.4 1.4 0 0 0-1.976-1.976zm16.554 45.375a3.733 3.733 0 1 0 3.733 3.733 3.7 3.7 0 0 0-3.733-3.733z"/><circle cx="3.733" cy="3.733" r="3.733" transform="translate(17.828 48.223)"/><path d="M89.063 38.219a3.733 3.733 0 1 0 3.733 3.733 3.772 3.772 0 0 0-3.733-3.733zm-8.743 3.795a1.453 1.453 0 0 0-1.427-1.427h-4.721a1.427 1.427 0 0 0 0 2.854h4.721a1.629 1.629 0 0 0 1.427-1.427zm23.286-1.427h-4.721a1.427 1.427 0 1 0 0 2.854h4.721a1.427 1.427 0 1 0 0-2.854zM89.008 50.698a1.453 1.453 0 0 0-1.427 1.427v4.721a1.427 1.427 0 0 0 2.854 0v-4.721a1.534 1.534 0 0 0-1.427-1.427zm-24.01 1.404a1.483 1.483 0 0 0-1.757-.769l-6.587 2.635a1.483 1.483 0 0 0-.769 1.757 1.427 1.427 0 0 0 1.317.878.99.99 0 0 0 .549-.11l6.587-2.635a1.289 1.289 0 0 0 .66-1.756zm48.233-20.118a1.427 1.427 0 0 0 1.317.878.99.99 0 0 0 .549-.11l6.587-2.635a1.356 1.356 0 0 0-.988-2.525l-6.587 2.635a1.218 1.218 0 0 0-.878 1.757zM100.688 66.95a1.356 1.356 0 1 0-2.525.988l2.635 6.587a1.427 1.427 0 0 0 1.317.878.99.99 0 0 0 .549-.11 1.483 1.483 0 0 0 .769-1.757zM77.164 16.675a1.427 1.427 0 0 0 1.317.878.99.99 0 0 0 .549-.11 1.483 1.483 0 0 0 .769-1.757L77.164 9.1a1.356 1.356 0 1 0-2.525.988zm1.75 49.503a1.258 1.258 0 0 0-1.757.769l-2.635 6.587a1.258 1.258 0 0 0 .769 1.757.99.99 0 0 0 .549.11 1.427 1.427 0 0 0 1.317-.878l2.635-6.587a1.437 1.437 0 0 0-.878-1.758zm19.904-48.845a.99.99 0 0 0 .549.11 1.427 1.427 0 0 0 1.317-.878l2.635-6.587a1.356 1.356 0 1 0-2.525-.988l-2.635 6.587a1.256 1.256 0 0 0 .659 1.756zm22.757 36.632l-6.587-2.635a1.356 1.356 0 1 0-.988 2.525l6.587 2.635a.99.99 0 0 0 .549.11 1.427 1.427 0 0 0 1.317-.878 1.7 1.7 0 0 0-.878-1.757zM56.659 29.994l6.587 2.635a.99.99 0 0 0 .549.11 1.427 1.427 0 0 0 1.317-.878 1.258 1.258 0 0 0-.769-1.757l-6.587-2.635a1.258 1.258 0 0 0-1.757.769 1.289 1.289 0 0 0 .66 1.756zm-4.343 13.33h11.528a1.427 1.427 0 1 0 0-2.854H52.316a1.453 1.453 0 0 0-1.427 1.427 1.534 1.534 0 0 0 1.427 1.427zm73.431-2.737h-11.638a1.427 1.427 0 0 0 0 2.854h11.528a1.453 1.453 0 0 0 1.427-1.427 1.437 1.437 0 0 0-1.317-1.427zM89.008 65.931a1.453 1.453 0 0 0-1.427 1.427v11.528a1.427 1.427 0 0 0 2.854 0V67.358a1.534 1.534 0 0 0-1.427-1.427zm0-48.159a1.453 1.453 0 0 0 1.427-1.427V4.927a1.427 1.427 0 0 0-2.854 0v11.528a1.361 1.361 0 0 0 1.427 1.317zM70.337 58.797l-8.234 8.234a1.392 1.392 0 0 0 0 1.976 1.635 1.635 0 0 0 .988.439 1.341 1.341 0 0 0 .988-.439l8.234-8.234a1.4 1.4 0 0 0-1.976-1.976zm37.076-34.108a1.341 1.341 0 0 0 .988-.439l8.234-8.234a1.4 1.4 0 0 0-1.976-1.976l-8.234 8.234a1.392 1.392 0 0 0 0 1.976 1.341 1.341 0 0 0 .988.439zm.988 34.108a1.4 1.4 0 0 0-1.976 1.976l8.234 8.234a1.635 1.635 0 0 0 .988.439 1.341 1.341 0 0 0 .988-.439 1.392 1.392 0 0 0 0-1.976zM70.337 24.25a1.635 1.635 0 0 0 .988.439 1.341 1.341 0 0 0 .988-.439 1.392 1.392 0 0 0 0-1.976l-8.234-8.234a1.4 1.4 0 0 0-1.976 1.976zm18.671 8.953a1.453 1.453 0 0 0 1.427-1.427v-4.721a1.427 1.427 0 0 0-2.854 0v4.831a1.361 1.361 0 0 0 1.427 1.317zm-8.154 15.068l-3.183 3.183a1.392 1.392 0 0 0 0 1.976 1.635 1.635 0 0 0 .988.439 1.341 1.341 0 0 0 .988-.439l3.187-3.183a1.4 1.4 0 1 0-1.976-1.976zm15.159-12.039a1.341 1.341 0 0 0 .988-.439l3.187-3.184a1.4 1.4 0 0 0-1.976-1.976l-3.187 3.183a1.392 1.392 0 0 0 0 1.976 1.973 1.973 0 0 0 .988.44zm3.184 17.521a1.341 1.341 0 0 0 .991-.436 1.392 1.392 0 0 0 0-1.976l-3.184-3.184a1.4 1.4 0 0 0-1.976 1.976l3.18 3.184a1.341 1.341 0 0 0 .989.436zm-19.666-23.12a1.4 1.4 0 0 0-1.976 1.976l3.184 3.187a1.635 1.635 0 0 0 .988.439 1.341 1.341 0 0 0 .991-.439 1.392 1.392 0 0 0 0-1.976z"/></g><path d="M535.48 33.781l-26.119 5.856a1.287 1.287 0 0 0-1.084 1.3v35.006a10.3 10.3 0 0 0-7.586-1.3c-5.419.975-9.862 5.2-9.862 9.32a5.7 5.7 0 0 0 2.168 4.443 9.432 9.432 0 0 0 5.852 1.842 16.169 16.169 0 0 0 2.276-.217c5.419-.975 9.862-5.2 9.862-9.32v-30.02l23.409-5.2v24.6a10.3 10.3 0 0 0-7.586-1.3c-5.419.975-9.862 5.2-9.862 9.32a5.7 5.7 0 0 0 2.168 4.443 9.5 9.5 0 0 0 5.852 1.951 19.464 19.464 0 0 0 2.384-.217c5.419-.975 9.862-5.2 9.862-9.32V35.081a1.5 1.5 0 0 0-.542-1.084 1.588 1.588 0 0 0-1.192-.216zm-34.897 53.65a7.506 7.506 0 0 1-5.961-1.084 3.029 3.029 0 0 1-1.193-2.384c0-2.818 3.576-5.961 7.586-6.611a12.068 12.068 0 0 1 1.842-.217 6.25 6.25 0 0 1 4.118 1.3 3.029 3.029 0 0 1 1.192 2.384c.111 2.71-3.466 5.853-7.584 6.612zm10.404-39.45v-5.96l23.409-5.2v5.96zm15.823 33.6a7.506 7.506 0 0 1-5.961-1.084 3.029 3.029 0 0 1-1.192-2.384c0-2.818 3.576-5.961 7.586-6.611a12.068 12.068 0 0 1 1.843-.221 6.25 6.25 0 0 1 4.118 1.3 3.029 3.029 0 0 1 1.192 2.384c.001 2.816-3.576 5.855-7.586 6.616zm42.05-4.554a47.17 47.17 0 0 1-7.478-7.153 1.34 1.34 0 0 0-1.517-.434 1.307 1.307 0 0 0-.867 1.3v35.007a10.3 10.3 0 0 0-7.586-1.3c-5.419.975-9.862 5.2-9.862 9.32a5.7 5.7 0 0 0 2.168 4.443 9.432 9.432 0 0 0 5.852 1.842 16.169 16.169 0 0 0 2.279-.218c5.419-.975 9.862-5.2 9.862-9.32V82.446a20.283 20.283 0 0 0 5.094 2.818c4.335 1.626 6.828 6.286 6.828 6.286a1.255 1.255 0 0 0 1.517.65 1.287 1.287 0 0 0 1.084-1.3c-.004-5.745-2.385-10.188-7.374-13.873zm-17.449 40.207a7.506 7.506 0 0 1-5.962-1.083 3.029 3.029 0 0 1-1.192-2.384c0-2.818 3.576-5.961 7.586-6.611a12.068 12.068 0 0 1 1.842-.217 6.25 6.25 0 0 1 4.118 1.3 3.029 3.029 0 0 1 1.192 2.384c.003 2.711-3.574 5.853-7.584 6.611zm16.365-34.463a17.941 17.941 0 0 1-6.069-3.9v-4.66a68.874 68.874 0 0 0 5.527 4.985c2.709 2.059 4.552 4.227 5.419 6.828a14.764 14.764 0 0 0-4.877-3.253zm18.75-55.164H583.6a1.409 1.409 0 0 0 0 2.818h2.926a1.409 1.409 0 1 0 0-2.818zm-8.779 0h-2.926a1.409 1.409 0 1 0 0 2.818h2.926a1.409 1.409 0 1 0 0-2.818zm2.927-5.744a1.344 1.344 0 0 0-1.409 1.3v2.926a1.409 1.409 0 0 0 2.818 0v-2.926a1.414 1.414 0 0 0-1.409-1.3zm0 8.67a1.435 1.435 0 0 0-1.409 1.409v2.926a1.409 1.409 0 0 0 2.818 0v-2.926a1.514 1.514 0 0 0-1.409-1.409zm-71.096 86.16h-2.926a1.409 1.409 0 1 0 0 2.818h2.926a1.409 1.409 0 1 0 0-2.818zm-8.67 0h-2.926a1.409 1.409 0 0 0 0 2.818h2.926a1.409 1.409 0 1 0 0-2.818zm2.926-5.744a1.435 1.435 0 0 0-1.409 1.409v2.926a1.409 1.409 0 1 0 2.818 0v-2.926a1.508 1.508 0 0 0-1.409-1.409zm0 8.67a1.435 1.435 0 0 0-1.409 1.409v2.926a1.409 1.409 0 1 0 2.818 0v-2.926a1.608 1.608 0 0 0-1.409-1.409z" fill="#0073ff"/><g fill="#0073ff"><path d="M29.049 452.553a1.637 1.637 0 0 0 1.206-.536l10.994-11.126a2.627 2.627 0 0 1 2.413-.67c3.753.938 8.043-2.011 10.054-4.021l23.456-23.593c2.547-2.547 2.681-6.032.4-8.445a5.293 5.293 0 0 0-4.153-1.747 5.394 5.394 0 0 0-4.155 2.011 1.517 1.517 0 0 0 2.145 2.145 4.38 4.38 0 0 1 2.14-1.203 3.368 3.368 0 0 1 1.877.8c1.34 1.34.67 2.949-.4 4.021l-23.457 23.866c-2.011 2.011-5.228 3.887-7.1 3.217a5.577 5.577 0 0 0-5.5 1.475l-10.992 11.125a1.389 1.389 0 0 0 0 2.145 1.384 1.384 0 0 0 1.072.536zm-17.693-13.539a1.637 1.637 0 0 0 1.206-.536l13.406-13.941a5.325 5.325 0 0 0 1.475-4.826v-.268c-.134-1.206-.134-4.826-.134-9.249.134-6.166.536-8.579.67-8.981v-.134L32 389.417a2.355 2.355 0 0 1 1.206-1.34 2 2 0 0 1 1.743-.134 2.13 2.13 0 0 1 1.339 2.818l-3.485 9.517a3.33 3.33 0 0 0 .134 2.547l1.475 2.815c.134.536.67.67 1.206.8a1.554 1.554 0 0 0 1.34-.536l22.655-22.922a2.509 2.509 0 0 1 1.877-.67 4.5 4.5 0 0 1 1.877.67 2.289 2.289 0 0 1 0 3.485l-15.148 15.148a1.519 1.519 0 0 0 2.149 2.146l15.143-15.149a5.665 5.665 0 0 0 0-7.909 5.572 5.572 0 0 0-4.022-1.742 6.07 6.07 0 0 0-4.021 1.743l-21.18 21.849-.536-.938v-.134l3.351-9.785a5.577 5.577 0 0 0-.135-4.156 5.993 5.993 0 0 0-2.949-2.815 5.577 5.577 0 0 0-4.151.136 5.287 5.287 0 0 0-2.815 3.083l-4.021 11.8c-1.206 2.815-1.206 17.292-.67 20.107v1.2a3.515 3.515 0 0 1-.67 1.206l-13.409 13.942a1.489 1.489 0 0 0 0 2.145 1.194 1.194 0 0 0 1.073.67z"/><path d="M54.384 411.266a1.637 1.637 0 0 0 1.206-.536l20.778-20.778a5.687 5.687 0 1 0-8.043-8.043l-4.558 4.558a1.517 1.517 0 1 0 2.145 2.145l4.558-4.558a2.591 2.591 0 0 1 3.753 0 2.854 2.854 0 0 1 0 3.753l-21.045 20.778a1.4 1.4 0 0 0 0 2.145 1.455 1.455 0 0 0 1.206.536z"/><path d="M60.282 417.164a1.637 1.637 0 0 0 1.206-.536l18.633-18.633a5.687 5.687 0 1 0-8.039-8.042l-4.558 4.558a1.517 1.517 0 0 0 2.145 2.145l4.558-4.558a2.591 2.591 0 0 1 3.753 0 2.647 2.647 0 0 1 .8 1.877 3.368 3.368 0 0 1-.8 1.877l-18.77 18.631a1.4 1.4 0 0 0 0 2.145 1.088 1.088 0 0 0 1.072.536zm-11.125 34.584a1.455 1.455 0 0 0 1.206-.536l8.445-9.115.134-.134a2.945 2.945 0 0 1 2.413-1.072c3.887.536 7.641-3.217 9.383-5.362l19.974-26.676c2.145-2.815 1.877-6.434-.67-8.445a5.439 5.439 0 0 0-7.909.8 1.546 1.546 0 1 0 2.551 1.747 2.352 2.352 0 0 1 3.485-.134c1.475 1.206 1.072 2.815.134 4.021l-20.38 26.81c-1.743 2.145-4.558 4.29-6.568 4.155a5.428 5.428 0 0 0-5.228 2.145l-8.443 9.118a1.486 1.486 0 0 0 .134 2.145 4.529 4.529 0 0 0 1.339.533zm34.182-61.661a1.172 1.172 0 0 0 1.206-.67l2.145-2.681a6.578 6.578 0 0 0 1.206-4.155 5.966 5.966 0 0 0-2.145-3.753 5.678 5.678 0 0 0-4.155-1.206 5.967 5.967 0 0 0-3.753 2.145 1.543 1.543 0 0 0 2.547 1.743 3.244 3.244 0 0 1 1.743-1.072 2.4 2.4 0 0 1 1.877.536 3.849 3.849 0 0 1 1.071 1.74 2.4 2.4 0 0 1-.536 1.877l-2.145 2.681a1.417 1.417 0 0 0 .4 2.145.54.54 0 0 0 .539.67z"/><path d="M81.73 405.77a1.172 1.172 0 0 0 1.206-.67l8.58-11.122a5.291 5.291 0 0 0 1.206-4.155 5.427 5.427 0 0 0-2.145-3.753 5.887 5.887 0 0 0-8.043 1.072l-.4.4a1.543 1.543 0 1 0 2.545 1.736l.4-.4a2.681 2.681 0 0 1 4.29 3.217l-8.577 10.994a1.417 1.417 0 0 0 .4 2.145c-.132.402.136.536.538.536zm7.507-32.038a1.283 1.283 0 0 0 1.206-.67l10.992-14.075a1.491 1.491 0 1 0-2.413-1.743L88.031 371.32a1.417 1.417 0 0 0 .4 2.145 1.437 1.437 0 0 0 .806.267zm-13.539-2.949a1.453 1.453 0 0 0 1.475-1.072l4.155-12.869a1.473 1.473 0 0 0-1.072-2.011 1.387 1.387 0 0 0-1.877 1.073l-4.155 12.869a1.491 1.491 0 0 0 .938 2.011zm21.985 14.21a1.458 1.458 0 0 0 .67-.134l11.528-4.692a1.531 1.531 0 0 0-1.206-2.815l-11.529 4.692a1.469 1.469 0 0 0-.8 2.011 1.2 1.2 0 0 0 1.337.938zm-36.595-12.735a1.488 1.488 0 0 0 1.475-1.475l.8-11.93a1.615 1.615 0 1 0-3.218-.267l-.8 11.925c.268.938.938 1.743 1.743 1.743zm37.399 30.161h10.187a1.475 1.475 0 1 0 0-2.949H98.487a1.475 1.475 0 0 0 0 2.949z"/></g></svg>