<svg xmlns="http://www.w3.org/2000/svg" width="139.4" height="131.9" viewBox="0 0 139.4 131.9"><g transform="translate(-890.3 -2732)"><text transform="translate(933 2732)" fill="#0073ff" font-size="42" font-family="Lato-Light, Lato" font-weight="300" letter-spacing="0.02em"><tspan x="17.928" y="41">?</tspan></text><g transform="translate(864.1 2720.4)"><circle cx="0.7" cy="0.7" r="0.7" transform="translate(145.4 66.2)" fill="#fff"/><path d="M146.1,65.2a1.7,1.7,0,1,0,1.7,1.7,1.628,1.628,0,0,0-1.7-1.7Z" fill="#0073ff"/><path d="M55.4,51.9a.909.909,0,0,1-.8-.4l-.7-1a1,1,0,0,1,1.6-1.2l.7,1a1.075,1.075,0,0,1-.2,1.4A.735.735,0,0,1,55.4,51.9Z" fill="#0073ff"/><path d="M58.3,55.9a.909.909,0,0,1-.8-.4l-.7-1a1,1,0,0,1,1.6-1.2l.7,1a1.075,1.075,0,0,1-.2,1.4A.735.735,0,0,1,58.3,55.9Z" fill="#0073ff"/><path d="M54,55.3a.909.909,0,0,1-.8-.4,1.075,1.075,0,0,1,.2-1.4l1-.7a1,1,0,0,1,1.2,1.6l-1,.7A1.421,1.421,0,0,1,54,55.3Z" fill="#0073ff"/><path d="M58,52.3a.909.909,0,0,1-.8-.4,1.075,1.075,0,0,1,.2-1.4l1-.7a1,1,0,0,1,1.2,1.6l-1,.7A.735.735,0,0,1,58,52.3Z" fill="#0073ff"/><path d="M160.9,54.3a1.854,1.854,0,0,1-.7-.2.908.908,0,0,1-.3-.7l-.3-4a1,1,0,1,1,2-.2l.2,3,2.7-.2a1,1,0,0,1,.2,2l-3.8.3Z" fill="#0073ff"/><path d="M125.1,41.6a2.1,2.1,0,1,1-2.1,2.1,2.051,2.051,0,0,1,2.1-2.1m0-2a4.1,4.1,0,1,0,4.1,4.1,4.118,4.118,0,0,0-4.1-4.1Z" fill="#0073ff"/><path d="M30.7,73.5A2.5,2.5,0,1,1,28.2,76a2.476,2.476,0,0,1,2.5-2.5m0-2A4.5,4.5,0,1,0,35.2,76a4.481,4.481,0,0,0-4.5-4.5Z" fill="#0073ff"/><path d="M153.5,121.2a.974.974,0,0,1-1-.8l-.6-2.9a1.128,1.128,0,0,1,.1-.8.622.622,0,0,1,.6-.4l3.1-.6a1.02,1.02,0,1,1,.4,2l-2.1.4.4,1.9a1.012,1.012,0,0,1-.8,1.2Z" fill="#0073ff"/><path d="M35.9,115a.367.367,0,0,1-.3-.1,1.04,1.04,0,0,1-.6-1.3l.7-2.1-1.8-.6a1.04,1.04,0,0,1-.6-1.3,1,1,0,0,1,1.3-.6l2.8,1a1.024,1.024,0,0,1,.6.5,1.1,1.1,0,0,1,0,.8l-1,3A1.269,1.269,0,0,1,35.9,115Z" fill="#0073ff"/><path d="M66.9,124.6H55.4a.945.945,0,0,1-1-1v-18a.945.945,0,0,1,1-1H66.9a.945.945,0,0,1,1,1v18A1.075,1.075,0,0,1,66.9,124.6Zm-10.5-2h9.5v-16H56.4Z" fill="#0073ff"/><path d="M130.3,124.6H118.8a.945.945,0,0,1-1-1v-18a.945.945,0,0,1,1-1h11.5a.945.945,0,0,1,1,1v18A1,1,0,0,1,130.3,124.6Zm-10.5-2h9.5v-16h-9.5Z" fill="#0073ff"/><path d="M146.1,97.9H110.6a.945.945,0,0,1-1-1V88a.945.945,0,0,1,1-1h3.6l-1.6-2.6a.908.908,0,0,1,0-1,1.05,1.05,0,0,1,.9-.5h20.4a.908.908,0,0,1,.7.3L147,96.3a.913.913,0,0,1,.2,1.1A2.22,2.22,0,0,1,146.1,97.9Zm-34.5-2h32.2L133.3,84.8H115.2l1.6,2.6a.908.908,0,0,1,0,1,1.05,1.05,0,0,1-.9.5h-4.4v7Z" fill="#0073ff"/><path d="M75.1,97.9H39.6a.875.875,0,0,1-.9-.6.913.913,0,0,1,.2-1.1L51.3,83.1a1.08,1.08,0,0,1,.7-.3H72.4a1.05,1.05,0,0,1,.9.5.908.908,0,0,1,0,1l-1.6,2.6h3.6a.945.945,0,0,1,1,1v8.9C76.1,97.4,75.7,97.9,75.1,97.9Zm-33.2-2H74.1V89H69.7a1.05,1.05,0,0,1-.9-.5.908.908,0,0,1,0-1l1.6-2.6h-18Z" fill="#0073ff"/><path d="M116,88.9H69.8a1.05,1.05,0,0,1-.9-.5.908.908,0,0,1,0-1l9.5-15.3a1.02,1.02,0,0,1,.8-.5h27.1a.891.891,0,0,1,.8.5l9.5,15.3a.908.908,0,0,1,0,1C116.7,88.7,116.3,88.9,116,88.9Zm-44.4-2h42.6l-8.3-13.3h-26Z" fill="#0073ff"/><path d="M102.9,109.8h-20a.945.945,0,0,1-1-1v-10a5.228,5.228,0,0,1,5.2-5.2H98.8a5.228,5.228,0,0,1,5.2,5.2v10A1.272,1.272,0,0,1,102.9,109.8Zm-19-2h18v-9a3.222,3.222,0,0,0-3.2-3.2H87a3.222,3.222,0,0,0-3.2,3.2v9Z" fill="#0073ff"/><path d="M110.6,134H75.1a.945.945,0,0,1-1-1V87.9a.945.945,0,0,1,1-1h35.5a.945.945,0,0,1,1,1V133A.945.945,0,0,1,110.6,134Zm-34.5-2h33.5V88.9H76.1Z" fill="#0073ff"/><path d="M138.5,143.5H118.1a.91.91,0,0,1-.8-.4l-7.6-9.5a1.421,1.421,0,0,1-.2-.6V96.9a.945.945,0,0,1,1-1h27.9a.945.945,0,0,1,1,1v45.7C139.5,143.1,139.1,143.5,138.5,143.5Zm-19.9-2h18.9V97.9H111.6v34.8Z" fill="#0073ff"/><path d="M67.6,143.5H47.2a.945.945,0,0,1-1-1V96.9a.945.945,0,0,1,1-1H75.1a.945.945,0,0,1,1,1V133a1.421,1.421,0,0,1-.2.6l-7.6,9.5A.755.755,0,0,1,67.6,143.5Zm-19.4-2H67.1l7-8.9V97.9H48.2Z" fill="#0073ff"/><path d="M118.2,143.5H67.6a.961.961,0,0,1-.9-.6,1.073,1.073,0,0,1,.1-1.1l7.6-9.5a1.234,1.234,0,0,1,.8-.4h35.5a.91.91,0,0,1,.8.4l7.6,9.5a1.073,1.073,0,0,1,.1,1.1A1.217,1.217,0,0,1,118.2,143.5Zm-48.6-2h46.5l-6-7.5H75.6Z" fill="#0073ff"/><path d="M102.9,134h-20a.945.945,0,0,1-1-1V116.1a.945.945,0,0,1,1-1h20a.945.945,0,0,1,1,1V133A1,1,0,0,1,102.9,134Zm-19-2h18V117.1h-18Z" fill="#0073ff"/><path d="M92.9,134a.945.945,0,0,1-1-1V116.1a1,1,0,0,1,2,0V133A1,1,0,0,1,92.9,134Z" fill="#0073ff"/></g></g></svg>