<?xml version="1.0" encoding="utf-8"?>
<!-- Generator: Adobe Illustrator 23.1.0, SVG Export Plug-In . SVG Version: 6.00 Build 0)  -->
<svg version="1.2" baseProfile="tiny" id="Layer_1" xmlns="http://www.w3.org/2000/svg" xmlns:xlink="http://www.w3.org/1999/xlink"
	 x="0px" y="0px" viewBox="0 0 20.38 17.75" xml:space="preserve">
<path fill="#F8001E" d="M19.51,5.65l-0.08-0.7c-0.13-1.22-1.08-2.16-2.23-2.23l-4.21-0.26c-1.7-0.11-3.4-0.11-5.11-0.01l-4.7,0.28
	C2.02,2.8,1.07,3.74,0.94,4.96L0.86,5.65c-0.24,2.15-0.24,4.31,0,6.46l0.08,0.69c0.13,1.22,1.08,2.16,2.24,2.23l4.46,0.27
	c1.7,0.1,3.4,0.1,5.1,0l4.46-0.27c1.16-0.07,2.1-1.01,2.24-2.23l0.08-0.69C19.75,9.96,19.75,7.79,19.51,5.65z M7.93,11.61V6.14
	l5.41,2.74L7.93,11.61z"/>
</svg>
