<svg xmlns="http://www.w3.org/2000/svg" width="342" height="297.773"><defs><style>.a,.b,.n{fill:none}.a,.b,.l{stroke:#007eff;stroke-linecap:round;stroke-linejoin:round;stroke-miterlimit:10}.a,.l,.n{stroke-width:.5px}.l{fill:#fff}.m{font-size:14px;font-family:SegoeUI-Italic,Segoe UI;font-style:italic;letter-spacing:.014em}.n{stroke:#000}</style></defs><path class="a" d="M174.512 166.57v1.898m8.138-5.432v10.132l2.713-1.567v-10.132zm3.35-3.84v15.907m-.637-3.502l.637.369m-.637-10.501l.159-.114.166-.115.153-.121.159-.127m-10.527 5.463v2.566l2.63-1.516m0-1.852v4.89m.956-5.399v5.954l2.636-1.522m0-5.954v8.992m-3.592-2.07l.955.554m2.968-7.667l.159-.1.153-.1.159-.1.153-.1m-.955 9.582l.955.554m3.35 1.936l.962.554v-18.715m-.962 2.254l.134-.261a13.391 13.391 0 00.72-1.694l.1-.3m-12.442 11.527l.961.554m17.869-15.767v18.715m-6.381 4.788l8.291-4.789-1.91-1.1m-6.381 5.89l-15.366-8.871m21.747 4.082l-6.381 3.687m8.291-3.687v2.21"/><path class="a" d="M169.679 168.996l17.283 9.978v-2.216m8.29-2.578l-8.291 4.795m0-22.033l6.381-3.687m-9.641.254l12.761-7.374m-18.308 17.958l.318-.185c3.375-2.155 4.806-6.09 5.184-9.915l.038-.49m.007.006l.956.643 12.761-7.374-.955-.643"/><path class="a" d="M173.824 166.602l.408-.013c6.642-.387 9.8-5.849 10.38-11.934l.038-.5m8.686 2.464l.268-.255a14.761 14.761 0 003.77-9.1l.038-.478m-18.577 18.485l3.19-1.84m107.365-63.184v1.898m8.137-5.431v10.132l2.714-1.567V95.147zm3.352-3.841v15.907m-.637-3.502l.637.369m-.637-10.501l.16-.114.165-.115.154-.121.159-.127m-10.534 5.46v2.566l2.635-1.522m0-1.842v4.89m.956-5.4v5.954l2.632-1.522m-.001-5.954v8.992m-3.587-2.07l.956.554m2.967-7.673l.159-.1.154-.1.159-.1.151-.1m-.959 9.589l.959.554m3.352 1.935l.953.554V90.619m-.953 2.25l.134-.261a13.381 13.381 0 00.72-1.694l.1-.3m-12.443 11.531l.956.554m17.868-15.767v18.716m-6.382 4.788l8.3-4.789-1.918-1.108m-6.382 5.898l-15.359-8.871m21.741 4.081l-6.382 3.687m8.3-3.687v2.21m-25.576-5.183l17.277 9.972v-2.206m8.299-2.583l-8.3 4.789m0-22.027l6.382-3.687m-9.634.255l12.761-7.374m-18.315 17.958l.318-.185c3.375-2.155 4.806-6.09 5.184-9.915l.038-.49m.014.006l.948.643 12.77-7.374-.956-.643"/><path class="a" d="M288.696 100.279l.408-.013c6.642-.387 9.8-5.849 10.38-11.934l.038-.5m8.692 2.461l.268-.255a14.761 14.761 0 003.77-9.1l.038-.478m-18.575 18.488l3.19-1.84M59.639 232.893v1.904m8.132-5.438v10.131l2.713-1.567v-10.12zm3.356-3.84v15.907m-.643-3.503l.643.369m-.643-10.5l.159-.114.166-.115.153-.121.159-.127m-10.525 5.47v2.56l2.63-1.516m-.001-1.853v4.89m.961-5.4v5.954l2.63-1.522m0-5.954v8.998m-3.591-2.076l.962.554m2.96-7.666l.159-.1.153-.1.159-.1.153-.1m-.955 9.588l.955.548m3.356 1.936l.955.554v-18.715m-.961 2.253l.134-.261a13.408 13.408 0 00.72-1.694l.1-.3m-12.436 11.534l.955.548m17.869-15.768v18.715m-6.381 4.791l8.3-4.789-1.917-1.1m-6.383 5.887l-15.366-8.864m21.747 4.076l-6.381 3.687m8.298-3.687v2.21m-25.574-5.184l17.276 9.979v-2.217m8.298-2.578l-8.298 4.795m0-22.034l6.381-3.687m-9.641.255l12.768-7.368m-18.315 17.951l.318-.185c3.375-2.155 4.806-6.09 5.184-9.915l.038-.49m.007.008l.955.643 12.768-7.368-.955-.643"/><path class="a" d="M58.943 232.925l.408-.013c6.642-.387 9.8-5.849 10.38-11.934l.038-.5m8.694 2.467l.267-.255a14.76 14.76 0 003.77-9.1l.038-.478m-18.581 18.482l3.197-1.84M291.427 26.207v-9.998m.009 10.004l.032.14a2.283 2.283 0 00.376.821l.1.127m-.008-9.997v9.998m-.5-11.087l.032.14a2.283 2.283 0 00.376.821l.1.127m10.551-.535l.057-.134.051-.14.066-.28.011-.146.006-.14m-.191 10.839v-9.998m0 9.999l.057-.134.051-.14.066-.28.011-.146.006-.14m-1.019-8.133v9.998m-1.38-9.196l.2-.089a5.261 5.261 0 001.038-.6l.146-.115m-1.384 10.795v-9.991m0 9.997l.2-.089a5.262 5.262 0 001.038-.6l.146-.115m-3.162-8.715v9.998m-1.949-9.903l.242.013a10.083 10.083 0 001.471-.076l.236-.032m-1.955 10.093V19.17m.006 9.998l.242.013a10.086 10.086 0 001.471-.076l.236-.032m-3.847-10.196v9.998m-1.596-10.647l.178.1a6.528 6.528 0 001.2.484l.223.064m-1.61 9.35v-9.998m.009 9.998l.178.1a6.587 6.587 0 001.2.484l.223.064m-3.251-12.945v.07l.011.14.009.076m-.02 9.713v.07l.011.14.009.076"/><path class="a" d="M301.667 27.793l.134-.115a3 3 0 00.624-.771l.07-.14m-.828-8.972l.134-.115a2.953 2.953 0 00.624-.771l.07-.14m-3.986 12.303l.236-.045a7.932 7.932 0 001.337-.357l.2-.076m-1.773-9.52l.236-.045a7.93 7.93 0 001.337-.357l.2-.076m-5.611 10.279l.223.057a9.5 9.5 0 001.42.223l.248.013m-1.891-10.291l.223.057a9.5 9.5 0 001.42.223l.248.013m-5.146-7.667l.007.172.025.166c.42 2.063 3.51 2.9 5.311 2.91l.293.006.293-.006c1.8-.006 4.888-.847 5.311-2.91l.026-.166.006-.172m-10.743 5.806l.108.127a3.906 3.906 0 00.847.694l.166.1"/><path class="a" d="M292.764 10.402l.006.146.026.146.038.146c.5 1.473 2.713 2.027 4.088 2.031h.255l.255-.013c1.323-.033 3.53-.672 3.872-2.165l.026-.146.006-.146-.006-.146-.026-.146c-.342-1.493-2.548-2.132-3.872-2.165l-.255-.013h-.255c-1.375 0-3.586.558-4.088 2.031l-.038.146-.026.146zm-.819 16.9l.108.127a3.906 3.906 0 00.847.694l.166.1m-1.191 10.279l-.108.153-.1.166-.077.159a2.129 2.129 0 00.592 2.452l.16.146.166.14a7.3 7.3 0 003.954 1.305l.293.013.293.006.293-.006.293-.013a7.516 7.516 0 003.776-1.172l.178-.134.166-.14a2.187 2.187 0 00.751-2.6l-.076-.159-.1-.166-.108-.153"/><path class="a" d="M292.312 39.051l.006.153.026.153c.379 1.716 2.929 2.405 4.439 2.42l.267.006.268-.006c1.51-.015 4.059-.7 4.438-2.42l.025-.153.006-.153"/><path class="a" d="M291.416 37.211l.007.172.025.166c.42 2.063 3.51 2.9 5.311 2.91l.293.006.293-.006c1.8-.006 4.888-.847 5.311-2.91l.026-.166.006-.172"/><path class="a" d="M293.139 34.129l-.2.121-.2.127-.178.127a2.235 2.235 0 00-.841 3.031l.1.153.121.153a6.5 6.5 0 004.528 1.866l.287.013.293.006.293-.006.286-.013a6.719 6.719 0 004.4-1.713l.127-.153.121-.153a2.215 2.215 0 00-.739-3.184l-.178-.127-.2-.127-.2-.121"/><path class="a" d="M293.695 36.714l.038.127c.78 2.1 5.856 2.1 6.635 0l.038-.127m-8.996 5.616v.045c.065 1.39 2.088 2.332 3.209 2.706l.089.025m1.343.345l.153.025.153.025a7.834 7.834 0 004.2-.382l.115-.057.114-.051a3.157 3.157 0 001.9-2.484l.006-.1v-.1m-.006-16.4v-9.998m-11.276 9.998V11.503m11.276 4.426v-4.54c-.161-2.556-3.186-3.683-5.387-3.706l-.127-.006h-.121c-2.241-.028-5.345 1.01-5.635 3.592l-.007.121v.115m.897 27.546v-.076m9.484.076v-.076m-10.38-1.764v-.739m11.276.739v-.739m-8.997.242l-2.242-10.386m8.96 10.386l2.242-10.386m.037 13.462v2.541M291.41 39.79v2.541m13.142-6.082v.07l.013.07c.189.937 1.75 1.378 2.566 1.414l.255.013c.925.029 2.378-.339 2.566-1.407l.013-.083v-.076m-5.413-3.834l.006.115.026.121c.555 1.8 5.01 1.757 5.375-.121l.006-.115-.006-.115c-.38-1.892-4.832-1.908-5.375-.121l-.026.121z"/><path class="a" d="M304.552 32.97l.006.115c.367 1.919 5.031 1.921 5.4 0l.006-.115"/><path class="a" d="M305.235 34.078l.006.1c.29 1.429 3.747 1.429 4.037 0l.006-.1"/><path class="a" d="M304.968 33.804l-.1.1-.083.1c-.931 1.374 1.229 2.211 2.28 2.178l.2.006.2-.006c1.052.033 3.211-.8 2.28-2.178l-.083-.1-.1-.1m.402-1.388v.554m-5.412-.554v.554m4.738 1.037v.07m-4.063-.07v.07m4.737.555v1.618m-5.412-1.618v1.618m-94.978 73.938l13.634 7.877m1.267 8.288l-.006-.49a30.179 30.179 0 00-1.114-7.266l-.153-.541m-.956.557l.962-.548m-31.446 2.407l.261.554c3.012 6.216 7.574 12.1 13.513 15.754l.433.261m17.551-10.131l-.006-.49a30.17 30.17 0 00-1.114-7.266l-.153-.541-13.635-7.871m-35.285 20.371l13.64 7.871m1.268 8.297l-.006-.49a30.167 30.167 0 00-1.114-7.266l-.153-.541m-.956.554l.962-.554m-31.446 2.414l.261.554c3.012 6.216 7.575 12.1 13.513 15.755l.433.261m17.551-10.135l-.006-.49a30.179 30.179 0 00-1.114-7.266l-.153-.541-13.634-7.871m-35.286 20.373l13.64 7.871m1.267 8.297l-.006-.49a30.166 30.166 0 00-1.114-7.266l-.153-.541m-.955.554l.961-.554m-31.445 2.414l.261.554c3.012 6.216 7.575 12.1 13.513 15.754l.433.261m17.551-10.132l-.006-.49a30.164 30.164 0 00-1.114-7.266l-.153-.541-13.634-7.871m-35.286 20.372l13.64 7.871m1.267 8.297l-.006-.49a30.172 30.172 0 00-1.114-7.266l-.153-.541m-.956.554l.962-.554m-31.452 2.41l.261.554c3.012 6.216 7.575 12.1 13.513 15.754l.433.261m17.55-10.134l-.006-.49a30.173 30.173 0 00-1.114-7.269l-.153-.541m.007.008l-13.634-7.877m145.922-84.242l13.634 7.871m1.267 8.297l-.006-.49a30.167 30.167 0 00-1.115-7.266l-.153-.541m-.948.554l.955-.554m-31.445 2.413l.261.554c3.012 6.216 7.575 12.1 13.513 15.754l.433.261m17.55-10.131l-.006-.49a30.17 30.17 0 00-1.114-7.266l-.153-.541m.006 0l-13.64-7.877m-19.607 20.46l1.949-4.2v4.426l-.414.9m-.688.096l-.045-.076-.051-.07-.064-.077-.076-.064-.083-.063-.1-.057m.011 1.293l6.062 3.5v4.426l-6.062-3.5-.019-.108a12.707 12.707 0 010-4.184zm-.007-.007l.1-.057a.674.674 0 00.344-.745l-.025-.076m-1.94 1.115l.134.019a2.537 2.537 0 001.286-.2l.1-.057m-1.52.243l.025.121a9.975 9.975 0 010 4.184l-.025.115.134.019a2.537 2.537 0 001.286-.2l.1-.057m-2.228-5.71l-6.062-3.5v4.426l1.14.656m4.922-1.582l-.1.057a.674.674 0 00-.344.745l.025.076m1.127.65l-2.191 4.725m2.191-.305l-.771 1.662m-.35-6.731l.045.076a1.478 1.478 0 00.942.541l.134.025"/><path class="a" d="M223.042 111.971l.006.166c.05.849.083 1.69.076 2.541l-.006.178m-.076-2.885l-8.189 1.267m7.501 3.26l-1.458.229m5.196-5.227l8.285-1.28v4.419l-3.77.586m-6.718-11.552l.006.057c.157.441 1.18.441 1.337 0l.006-.057"/><path class="a" d="M223.768 103.584l-.083.051-.076.064c-.545.552.314.987.828.987l.127.006.127-.006c.514 0 1.372-.435.828-.987l-.076-.064-.083-.051m-1.923 2.669l.006.07c.189.768 2.052.768 2.242 0l.006-.07m-1.802 4.75l.006.057c.157.441 1.18.441 1.337 0l.006-.057m-1.285 6.477l.044.044c.277.27 1.1.247 1.235-.159l.006-.051m.905-5.579v.917m-3.158-.917v.248m2.26-8.469l.121.07m-1.477-.07l-.121.07m1.93.459v2.21m-2.261-2.21v2.21m1.808.522v4.228m-1.356-4.228v4.228m1.356-.166l.44.255m-1.796-.255l-.439.255m1.795 5.89v.331m0-16.174v2.534m-1.356-1.751v1.751m96.551-57.624v.166c-.151 2.165-1.887 2.707-3.693 1.879l-.083-.038-.083-.038c-1.518-.736-3.234-2.486-3.356-4.247v-.076l-.006-.07m.006-5.682l.006.134.025.14.038.134c.424 1.172 2.187 1.648 3.3 1.668l.235.006.236-.006c1.124-.013 3.029-.539 3.337-1.8l.026-.14.006-.134-.006-.134-.026-.14c-.3-1.2-2.021-1.726-3.1-1.789l-.236-.013-.236-.006c-1.167-.02-3.084.436-3.534 1.675l-.038.134-.025.14z"/><path class="a" d="M313.225 38.497l.006.134c.473 2.59 6.723 2.59 7.2 0l.006-.134"/><path class="a" d="M313.902 40.337l.006.121c.4 2.081 5.445 2.081 5.846 0l.006-.121"/><path class="a" d="M313.882 39.694l-.127.115-.115.115-.1.121a1.3 1.3 0 00-.006 1.688l.1.121.115.115a4.34 4.34 0 002.624.987l.229.013.229.006.229-.006.229-.013a4.535 4.535 0 002.5-.872l.121-.115.115-.115a1.325 1.325 0 00.1-1.809l-.1-.121-.115-.115-.127-.115m.657-1.751v.554m-7.221-.554v.554m6.547 1.216v.624m-5.864-.624v.624m6.538.554v5.158m-7.221-5.158v2.732m-11.922-11.036l-.006.032-.006.038-.006.032-.014.038m-46.077 14.405v-9.998m0 9.998l.032.14a2.288 2.288 0 00.376.821l.1.127m.001-9.99v9.991m-.509-11.087l.032.14a2.287 2.287 0 00.376.821l.1.127m10.553-.533l.057-.134.051-.14.064-.28.013-.146.006-.14m-.185 10.844v-9.998m-.006 9.991l.057-.134.051-.14.064-.28.013-.146.006-.14m-1.012-8.126v9.998m-1.388-9.202l.2-.089a5.259 5.259 0 001.038-.6l.147-.115m-1.379 10.802v-9.998m-.006 9.997l.2-.089a5.259 5.259 0 001.038-.6l.147-.115m-3.156-8.716v9.998m-1.955-9.902l.242.013a10.1 10.1 0 001.471-.076l.236-.032m-1.949 10.1v-9.998m0 9.991l.242.013a10.078 10.078 0 001.471-.076l.236-.032m-3.84-10.19V49.8m-1.605-10.653l.178.1a6.536 6.536 0 001.2.484l.223.064m-1.601 9.356v-9.998m0 9.991l.178.1a6.59 6.59 0 001.2.484l.223.064m-3.25-12.944v.07l.013.14.006.076m-.019 9.711v.07l.013.14.006.076m10.233 1.58l.134-.115a3 3 0 00.624-.771l.07-.14m-.828-8.971l.134-.115a2.961 2.961 0 00.624-.771l.07-.14m-3.986 12.303l.236-.045a7.933 7.933 0 001.337-.357l.2-.076m-1.773-9.52l.236-.045a7.927 7.927 0 001.337-.357l.2-.076m-5.613 10.279l.223.057a9.5 9.5 0 001.42.223l.248.013m-1.891-10.291l.223.057a9.5 9.5 0 001.42.223l.248.013m-5.145-7.661l.006.172.026.166c.423 2.063 3.508 2.9 5.311 2.91l.293.006.293-.006c1.8-.006 4.891-.847 5.311-2.91l.026-.166.006-.172m-10.749 5.795l.108.127a3.912 3.912 0 00.847.694l.166.1"/><path class="a" d="M256.519 31.32l.006.146.026.146.038.146c.5 1.473 2.713 2.027 4.088 2.031h.255l.255-.013c1.323-.033 3.53-.672 3.872-2.165l.026-.146.006-.146-.006-.146-.026-.146c-.342-1.493-2.548-2.132-3.872-2.165l-.255-.013h-.255c-1.375 0-3.586.558-4.088 2.031l-.038.146-.026.146zm-.827 16.901l.108.127a3.938 3.938 0 00.847.694l.166.1m-1.186 10.28l-.108.153-.1.166-.076.159a2.129 2.129 0 00.592 2.452l.159.146.166.14a7.3 7.3 0 003.959 1.305l.293.013.293.006.293-.006.293-.013a7.515 7.515 0 003.776-1.172l.178-.134.166-.14a2.188 2.188 0 00.751-2.6l-.076-.159-.1-.166-.108-.153"/><path class="a" d="M256.064 59.976l.006.153.025.153c.379 1.716 2.929 2.405 4.439 2.42l.267.006.267-.006c1.51-.015 4.06-.7 4.438-2.42l.026-.153.006-.153"/><path class="a" d="M255.169 58.13l.006.172.026.166c.423 2.063 3.508 2.9 5.311 2.91l.293.006.293-.006c1.8-.007 4.891-.847 5.311-2.91l.026-.166.006-.172"/><path class="a" d="M256.894 55.054l-.2.121-.2.127-.178.127a2.234 2.234 0 00-.84 3.031l.1.153.121.153a6.5 6.5 0 004.527 1.866l.286.013.293.006.293-.006.286-.013a6.72 6.72 0 004.4-1.713l.127-.153.121-.153a2.215 2.215 0 00-.739-3.184l-.178-.127-.2-.127-.2-.121"/><path class="a" d="M257.449 57.639l.038.127c.78 2.1 5.856 2.1 6.635 0l.038-.127m-8.991 5.61v.07l.006.064c.238 1.924 3.914 3.009 5.5 3.114l.127.013.134.013c2.137.189 5.228-.539 5.5-3.095l.006-.089v-.089m.005-16.404v-9.998m-11.278 9.997V32.428m11.277 4.42v-4.544c-.182-2.572-3.169-3.66-5.387-3.706h-.255c-2.237-.029-5.347 1.013-5.629 3.592l-.006.115v.121m.898 27.551V59.9m9.482.077V59.9m-10.38-1.771v-.732m11.278.732v-.732m-8.998.236l-2.242-10.386m8.96 10.386l2.235-10.386m.045 13.461v2.541m-11.278-2.541v2.541m-36.221 4.808v-9.998m0 9.998l.032.14a2.287 2.287 0 00.376.821l.1.127m.001-9.997v9.998m-.509-11.087l.032.14a2.288 2.288 0 00.376.821l.1.127m10.553-.534l.057-.134.051-.14.064-.28.013-.147.007-.14m-.186 10.839v-9.998m-.006 9.994l.057-.134.051-.14.064-.28.013-.147.007-.14m-1.014-8.127v9.998m-1.388-9.196l.2-.089a5.264 5.264 0 001.038-.6l.146-.115m-1.384 10.802v-9.998m0 9.997l.2-.089a5.266 5.266 0 001.038-.6l.146-.115m-3.154-8.715v9.998m-1.955-9.902l.242.013a10.1 10.1 0 001.471-.076l.235-.032m-1.948 10.092v-9.991m0 9.991l.242.013a10.091 10.091 0 001.471-.076l.235-.032m-3.84-10.189v9.991m-1.604-10.652l.178.1a6.533 6.533 0 001.2.484l.223.064m-1.601 9.361v-9.998m0 9.991l.178.1a6.58 6.58 0 001.2.484l.223.064m-3.25-12.944v.07l.012.14.007.077m-.019 9.711v.07l.012.14.007.077"/><path class="a" d="M229.181 69.636l.134-.115a3 3 0 00.624-.771l.07-.14m-.828-8.976l.134-.115a3 3 0 00.624-.771l.07-.14m-3.987 12.308l.236-.045a7.93 7.93 0 001.337-.357l.2-.076m-1.773-9.519l.236-.045a7.935 7.935 0 001.337-.357l.2-.076m-5.612 10.278l.223.057a9.5 9.5 0 001.42.223l.248.013m-1.891-10.291l.223.057a9.495 9.495 0 001.42.223l.248.013m-5.145-7.661l.006.172.026.166c.421 2.063 3.51 2.9 5.311 2.91l.293.006.293-.006c1.8-.006 4.888-.847 5.311-2.91l.026-.166.006-.172m-10.744 5.795l.108.127a3.934 3.934 0 00.847.694l.166.1"/><path class="a" d="M220.278 52.245l.007.146.025.146.038.146c.5 1.473 2.713 2.027 4.088 2.031h.255l.255-.013c1.323-.033 3.53-.672 3.872-2.165l.026-.146.006-.146-.006-.146-.026-.146c-.343-1.494-2.548-2.132-3.872-2.165l-.255-.013h-.255c-1.375 0-3.586.558-4.088 2.031l-.038.146-.025.146zm-.821 16.903l.108.127a3.905 3.905 0 00.847.694l.166.1m-1.191 10.278l-.108.153-.1.166-.076.159a2.129 2.129 0 00.592 2.452l.159.146.166.14a7.3 7.3 0 003.955 1.305l.293.013.293.006.293-.006.293-.013a7.515 7.515 0 003.776-1.172l.178-.134.166-.14a2.187 2.187 0 00.751-2.6l-.076-.159-.1-.166-.108-.153"/><path class="a" d="M219.826 80.895l.006.153.025.153c.379 1.716 2.929 2.405 4.439 2.42l.267.006.267-.006c1.51-.015 4.06-.7 4.438-2.42l.025-.153.006-.153"/><path class="a" d="M218.929 79.055l.006.172.026.166c.423 2.063 3.508 2.9 5.311 2.91l.293.006.293-.006c1.8-.006 4.891-.847 5.311-2.91l.026-.166.006-.172"/><path class="a" d="M220.653 75.973l-.2.121-.2.127-.178.127a2.234 2.234 0 00-.84 3.031l.1.153.121.153a6.5 6.5 0 004.528 1.866l.286.013.293.006.293-.006.286-.013a6.72 6.72 0 004.4-1.713l.127-.153.121-.153a2.215 2.215 0 00-.739-3.184l-.178-.127-.2-.127-.2-.121"/><path class="a" d="M221.208 78.558l.038.127c.78 2.1 5.856 2.1 6.635 0l.038-.127m-8.99 5.617v.064l.006.07c.255 1.933 3.9 3 5.5 3.114l.127.013.134.006c2.139.207 5.232-.549 5.5-3.088l.006-.089v-.089m.004-16.405v-9.998m-11.277 9.997V53.353m11.277 4.42v-4.54c-.178-2.568-3.18-3.672-5.394-3.706h-.121l-.127-.006c-2.239-.021-5.348 1.016-5.629 3.6l-.006.115v.121m.897 27.538v-.07m9.476.07v-.07m-10.373-1.77v-.739m11.277.739v-.739m-8.997.242l-2.242-10.386m8.96 10.386l2.235-10.386m.044 13.462v2.541m-11.277-2.541v2.541m-36.222 4.801v-9.998m0 10.005l.032.14a2.284 2.284 0 00.376.821l.1.127m-.005-9.997v9.998m-.503-11.087l.032.14a2.283 2.283 0 00.376.821l.1.127m10.554-.534l.057-.134.051-.14.064-.28.013-.147.006-.14m-.185 10.839v-9.998m-.006 9.998l.057-.134.051-.14.064-.28.013-.147.006-.14m-1.013-8.132v9.998m-1.388-9.196l.2-.089a5.264 5.264 0 001.038-.6l.146-.115m-1.384 10.802v-9.998m0 9.998l.2-.089a5.261 5.261 0 001.038-.6l.146-.115m-3.154-8.716v9.998m-1.955-9.902l.242.013a10.094 10.094 0 001.471-.076l.236-.032m-1.949 10.092v-9.998m0 9.998l.242.013a10.09 10.09 0 001.471-.076l.236-.032m-3.841-10.195v9.998m-1.609-10.648l.178.1a6.533 6.533 0 001.2.484l.223.064m-1.597 9.35v-9.998m-.004 9.998l.178.1a6.591 6.591 0 001.2.484l.223.064m-3.246-12.945v.07l.013.14.006.077m-.019 9.711v.07l.013.14.006.077"/><path class="a" d="M192.941 90.562l.134-.115a3 3 0 00.625-.772l.07-.14m-.829-8.971l.134-.115a3 3 0 00.624-.771l.07-.14m-3.987 12.304l.236-.044a7.934 7.934 0 001.337-.357l.2-.076m-1.773-9.521l.236-.045a7.937 7.937 0 001.337-.357l.2-.076m-5.613 10.278l.223.057a9.489 9.489 0 001.42.223l.248.013m-1.891-10.29l.223.057a9.5 9.5 0 001.42.223l.248.013m-5.145-7.661l.006.172.025.166c.42 2.063 3.51 2.9 5.311 2.91l.293.006.293-.006c1.8-.006 4.888-.848 5.311-2.91l.026-.166.006-.172m-10.742 5.791l.108.127a3.939 3.939 0 00.847.694l.165.1"/><path class="a" d="M184.038 73.171l.006.146.025.147.038.146c.5 1.473 2.713 2.027 4.088 2.031h.255l.255-.013c1.324-.033 3.529-.671 3.872-2.165l.026-.147.006-.146-.006-.146-.026-.146c-.342-1.493-2.548-2.132-3.872-2.165l-.255-.013h-.255c-1.375 0-3.586.558-4.088 2.031l-.038.146-.025.146zm-.821 16.901l.108.127a3.907 3.907 0 00.847.694l.165.1m-1.191 10.28l-.108.153-.1.166-.076.159a2.129 2.129 0 00.592 2.452l.159.146.166.14a7.3 7.3 0 003.955 1.305l.293.013.293.006.293-.006.293-.013a7.514 7.514 0 003.776-1.172l.178-.134.166-.14a2.187 2.187 0 00.751-2.6l-.076-.159-.1-.166-.108-.153"/><path class="a" d="M183.586 101.82l.006.153.025.153c.379 1.716 2.929 2.405 4.439 2.42l.267.006.267-.006c1.51-.015 4.06-.7 4.439-2.42l.025-.153.006-.153"/><path class="a" d="M182.688 99.98l.006.172.025.166c.42 2.063 3.51 2.9 5.311 2.91l.293.006.293-.006c1.8-.006 4.888-.847 5.311-2.91l.026-.166.006-.172"/><path class="a" d="M184.413 96.898l-.2.121-.2.127-.178.127a2.234 2.234 0 00-.841 3.031l.1.153.121.153a6.5 6.5 0 004.528 1.866l.286.013.293.006.293-.006.287-.013a6.72 6.72 0 004.4-1.713l.127-.153.121-.153a2.215 2.215 0 00-.739-3.184l-.178-.127-.2-.127-.2-.121"/><path class="a" d="M184.968 99.483l.038.127c.78 2.1 5.856 2.1 6.635 0l.038-.127m-8.997 5.617l.006.064v.07c.28 1.935 3.89 3 5.5 3.108l.134.013.134.013c2.142.2 5.225-.55 5.5-3.088l.006-.089v-.089m.004-16.406v-9.998m-11.284 9.998V74.279m11.284 4.419v-4.54c-.174-2.564-3.184-3.679-5.394-3.706l-.121-.006h-.127c-2.229-.027-5.349 1.014-5.629 3.592l-.013.242m.904 27.54v-.076m9.476.076v-.076m-10.38-1.764v-.739m11.284.739v-.739m-8.998.242l-2.242-10.386m8.96 10.386l2.235-10.386m.045 13.462v2.541m-11.284-2.541v2.541m-36.215 4.802v-9.998m0 9.997l.032.14a2.288 2.288 0 00.376.821l.1.127m-.005-9.99v9.998m-.503-11.087l.032.14a2.287 2.287 0 00.376.821l.1.127m10.553-.535l.057-.134.051-.14.064-.28.013-.146.006-.14m-.184 10.839v-9.998m-.007 9.992l.057-.134.051-.14.064-.28.013-.147.006-.14m-1.012-8.126v9.998m-1.388-9.196l.2-.089a5.256 5.256 0 001.038-.6l.147-.115m-1.385 10.796v-9.991m0 9.99l.2-.089a5.259 5.259 0 001.038-.6l.147-.115m-3.162-8.709v9.991m-1.949-9.895l.242.013a10.085 10.085 0 001.471-.076l.236-.032m-1.949 10.093v-9.998m0 9.991l.242.013a10.094 10.094 0 001.471-.076l.236-.032m-3.84-10.189v9.998m-1.605-10.648l.178.1a6.534 6.534 0 001.2.484l.223.064m-1.601 9.35v-9.998m0 9.992l.178.1a6.582 6.582 0 001.2.484l.223.064m-3.25-12.939v.07l.013.14.006.076m-.019 9.706v.07l.013.14.006.077"/><path class="a" d="M156.7 111.481l.134-.115a3 3 0 00.624-.771l.07-.14m-.828-8.966l.134-.115a2.956 2.956 0 00.624-.771l.07-.14m-3.986 12.298l.236-.045a7.939 7.939 0 001.337-.357l.2-.076m-1.773-9.514l.236-.045a7.942 7.942 0 001.337-.357l.2-.076m-5.613 10.272l.223.057a9.5 9.5 0 001.42.223l.248.013m-1.891-10.284l.223.057a9.5 9.5 0 001.42.223l.248.013m-5.145-7.667l.006.172.026.166c.423 2.063 3.508 2.9 5.311 2.91l.293.006.293-.006c1.8-.006 4.89-.847 5.311-2.91l.025-.166.006-.172m-10.738 5.801l.108.127a3.937 3.937 0 00.847.694l.166.1"/><path class="a" d="M147.798 94.096l.006.146.025.146.038.146c.5 1.473 2.713 2.027 4.088 2.031h.26l.255-.013c1.324-.033 3.53-.672 3.872-2.165l.026-.146.006-.146-.006-.146-.026-.146c-.342-1.493-2.548-2.132-3.872-2.165l-.255-.015h-.255c-1.375 0-3.586.558-4.088 2.031l-.038.146-.025.146zm-.817 16.894l.108.127a3.938 3.938 0 00.847.694l.166.1m-1.194 10.287l-.108.153-.1.166-.076.159a2.129 2.129 0 00.592 2.452l.159.146.166.14a7.3 7.3 0 003.955 1.305l.293.013.293.006.293-.006.293-.013a7.515 7.515 0 003.776-1.172l.178-.134.166-.14a2.187 2.187 0 00.751-2.6l-.076-.159-.1-.166-.108-.153"/><path class="a" d="M147.346 122.746l.006.153.025.153c.379 1.716 2.929 2.405 4.439 2.42l.267.006.269-.01c1.51-.015 4.06-.7 4.439-2.42l.025-.153.006-.153"/><path class="a" d="M146.448 120.899l.006.172.026.166c.423 2.063 3.508 2.9 5.311 2.91l.293.006.293-.006c1.8-.006 4.89-.847 5.311-2.91l.025-.166.006-.172"/><path class="a" d="M148.173 117.823l-.2.121-.2.127-.178.127a2.234 2.234 0 00-.841 3.031l.1.153.121.153a6.5 6.5 0 004.528 1.866l.286.013.293.006.293-.006.286-.013a6.72 6.72 0 004.4-1.713l.127-.153.121-.153a2.214 2.214 0 00-.739-3.184l-.178-.127-.2-.127-.2-.121"/><path class="a" d="M148.728 120.408l.038.127c.78 2.1 5.856 2.1 6.635 0l.038-.127m-8.997 5.613l.006.064v.064c.264 1.935 3.9 3 5.5 3.114l.134.013.134.013c2.14.192 5.223-.539 5.5-3.095l.007-.089v-.084m.003-16.407v-9.991m-11.284 9.992V95.198m11.284 4.426v-4.54c-.183-2.58-3.176-3.667-5.394-3.713h-.248c-2.229-.032-5.356 1.018-5.629 3.592l-.006.121-.006.115m.903 27.546v-.076m9.476.076v-.076m-10.38-1.77v-.732m11.284.732v-.732m-8.998.241l-2.242-10.386m8.96 10.386l2.235-10.386m.045 13.462v2.541m-11.284-2.541v2.541m-36.215 4.802v-9.998m0 9.998l.032.14a2.286 2.286 0 00.376.822l.1.127m-.005-9.998v9.998m-.503-11.087l.032.14a2.286 2.286 0 00.376.821l.1.127m10.553-.534l.057-.134.051-.14.064-.28.013-.146.006-.14m-.185 10.837v-9.991m-.006 9.992l.057-.134.051-.14.064-.28.013-.147.006-.14m-1.013-8.126v9.991m-1.388-9.195l.2-.089a5.257 5.257 0 001.038-.6l.146-.115m-1.384 10.802v-9.998m0 9.998l.2-.089a5.261 5.261 0 001.038-.6l.146-.115m-3.16-8.716v9.998m-1.949-9.902l.242.013a10.1 10.1 0 001.471-.076l.236-.032m-1.949 10.099v-9.998m0 9.991l.242.013a10.085 10.085 0 001.471-.076l.236-.032m-3.84-10.189v9.998m-1.605-10.654l.178.1a6.539 6.539 0 001.2.484l.223.064m-1.601 9.356v-9.998m0 9.992l.178.1a6.584 6.584 0 001.2.484l.223.064m-3.25-12.945v.07l.013.14.007.077m-.02 9.711v.07l.013.14.007.077m10.23 1.579l.134-.115a3 3 0 00.624-.77l.07-.14m-.828-8.973l.134-.115a2.958 2.958 0 00.624-.771l.07-.14m-3.985 12.304l.236-.045a7.931 7.931 0 001.337-.357l.2-.076m-1.773-9.52l.236-.045a7.931 7.931 0 001.337-.357l.2-.076m-5.617 10.278l.223.057a9.5 9.5 0 001.42.223l.248.013m-1.891-10.287l.223.057a9.506 9.506 0 001.42.223l.248.013m-5.14-7.666l.006.172.025.166c.423 2.063 3.508 2.9 5.311 2.91l.293.006.293-.006c1.8-.006 4.89-.847 5.311-2.91l.026-.166.006-.172m-10.743 5.797l.108.127a3.909 3.909 0 00.847.694l.166.1"/><path class="a" d="M111.558 115.015l.006.146.025.146.038.146c.5 1.473 2.713 2.027 4.088 2.031h.255l.255-.013c1.324-.033 3.529-.671 3.872-2.165l.026-.146.006-.146-.006-.146-.026-.146c-.342-1.493-2.548-2.132-3.872-2.165l-.255-.013h-.255c-1.375 0-3.586.558-4.088 2.031l-.038.146-.025.146zm-.822 16.901l.108.127a3.909 3.909 0 00.847.694l.166.1m-1.191 10.28l-.108.153-.1.166-.076.159a2.129 2.129 0 00.592 2.452l.159.147.166.14a7.3 7.3 0 003.955 1.305l.293.013.293.007.293-.007.293-.013a7.515 7.515 0 003.776-1.172l.178-.134.166-.14a2.187 2.187 0 00.751-2.6l-.076-.159-.1-.166-.108-.153"/><path class="a" d="M111.106 143.671l.006.153.025.153c.379 1.716 2.929 2.405 4.438 2.42l.267.006.267-.006c1.51-.015 4.06-.7 4.439-2.42l.025-.153.006-.153"/><path class="a" d="M110.208 141.824l.006.172.025.166c.423 2.063 3.508 2.9 5.311 2.91l.293.006.293-.006c1.8-.006 4.891-.847 5.311-2.91l.026-.166.006-.172"/><path class="a" d="M111.934 138.743l-.2.121-.2.127-.178.127a2.234 2.234 0 00-.841 3.031l.1.153.121.153a6.5 6.5 0 004.528 1.866l.287.013.293.006.293-.006.287-.013a6.721 6.721 0 004.4-1.713l.127-.153.121-.153a2.215 2.215 0 00-.739-3.184l-.178-.127-.2-.127-.2-.121"/><path class="a" d="M112.488 141.328l.038.127c.78 2.1 5.856 2.1 6.635 0l.038-.127m-8.998 5.616l.006.07v.064c.265 1.934 3.9 3 5.5 3.114l.134.013.134.006c2.137.209 5.233-.551 5.5-3.089l.006-.089v-.089m.004-16.404v-9.998m-11.284 9.998v-14.417m11.284 4.424v-4.54c-.187-2.577-3.178-3.663-5.394-3.706h-.248c-2.229-.035-5.359 1.017-5.629 3.592l-.006.115-.006.121m.903 27.542v-.077m9.476.077v-.077m-10.38-1.77v-.739m11.284.739v-.739m-8.997.242l-2.242-10.386m8.96 10.386l2.235-10.386m.044 13.462v2.541m-11.284-2.541v2.541m-36.214 4.801v-9.991m0 9.998l.032.14a2.285 2.285 0 00.376.821l.1.127m-.005-9.997v9.998m-.503-11.087l.032.14a2.285 2.285 0 00.376.821l.1.127m10.553-.534l.057-.134.051-.14.064-.28.013-.146.006-.14m-.185 10.838v-9.998m-.006 9.997l.057-.134.051-.14.064-.28.013-.147.006-.14m-1.013-8.131v9.998m-1.388-9.196l.2-.089a5.256 5.256 0 001.038-.6l.146-.115m-1.384 10.803v-9.998m0 9.997l.2-.089a5.258 5.258 0 001.038-.6l.146-.115m-3.161-8.716v9.998m-1.948-9.902l.242.013a10.06 10.06 0 001.471-.076l.236-.032m-1.949 10.092v-9.991m0 9.992l.242.013a10.06 10.06 0 001.471-.076l.236-.032m-3.841-10.19v9.991m-1.604-10.646l.178.1a6.536 6.536 0 001.2.484l.223.064m-1.601 9.349v-9.991m0 9.995l.178.1a6.592 6.592 0 001.2.484l.223.064m-3.25-12.948v.07l.013.14.006.076m-.019 9.711v.07l.013.14.006.076m10.233 1.584l.134-.115a3 3 0 00.624-.771l.07-.14m-.828-8.975l.134-.115a2.959 2.959 0 00.624-.771l.07-.14m-3.987 12.303l.236-.044a7.936 7.936 0 001.337-.357l.2-.076m-1.773-9.521l.236-.044a7.955 7.955 0 001.337-.357l.2-.077m-5.613 10.279l.223.057a9.5 9.5 0 001.42.223l.248.013m-1.891-10.291l.223.057a9.483 9.483 0 001.42.223l.248.013m-5.144-7.661l.006.172.025.166c.423 2.063 3.508 2.9 5.311 2.91l.293.006.293-.006c1.8-.006 4.891-.847 5.311-2.91l.025-.166.006-.172m-10.742 5.795l.108.127a3.943 3.943 0 00.847.694l.166.1"/><path class="a" d="M75.318 135.94l.006.146.025.146.038.146c.5 1.473 2.713 2.028 4.088 2.031h.255l.255-.013c1.323-.033 3.53-.672 3.872-2.165l.026-.146.006-.146-.006-.146-.026-.146c-.342-1.493-2.548-2.132-3.872-2.165l-.255-.013h-.256c-1.375 0-3.586.558-4.088 2.031l-.038.146-.025.146zm-.822 16.901l.108.127a3.907 3.907 0 00.847.694l.166.1m-1.192 10.28l-.108.153-.1.166-.076.159a2.129 2.129 0 00.592 2.452l.159.146.166.14a7.3 7.3 0 003.955 1.305l.293.013.293.006.293-.006.293-.013a7.514 7.514 0 003.776-1.172l.178-.134.166-.14a2.187 2.187 0 00.751-2.6l-.076-.159-.1-.166-.108-.153"/><path class="a" d="M74.865 164.59l.006.153.025.153c.379 1.716 2.929 2.405 4.439 2.42l.267.006.267-.006c1.51-.015 4.06-.7 4.439-2.42l.025-.153.006-.153"/><path class="a" d="M73.968 162.749l.006.172.025.166c.423 2.063 3.508 2.9 5.311 2.91l.293.006.293-.006c1.8-.006 4.89-.847 5.311-2.91l.025-.166.006-.172"/><path class="a" d="M75.693 159.667l-.2.121-.2.127-.178.127a2.234 2.234 0 00-.841 3.031l.1.153.121.153a6.5 6.5 0 004.528 1.866l.287.013.293.006.293-.006.287-.013a6.719 6.719 0 004.4-1.713l.127-.153.121-.153a2.215 2.215 0 00-.739-3.184l-.178-.127-.2-.127-.2-.121"/><path class="a" d="M76.247 162.253l.038.127c.78 2.1 5.856 2.1 6.635 0l.038-.127m-8.997 5.616v.064l.006.07c.269 1.936 3.9 2.994 5.5 3.114l.134.013.134.006c2.133.2 5.225-.544 5.5-3.088l.006-.089v-.089m.004-16.404v-9.998m-11.284 9.997v-14.417m11.284 4.419v-4.419l-.006-.121c-.158-2.561-3.184-3.677-5.387-3.706h-.121l-.127-.006c-2.235-.021-5.353 1.011-5.629 3.6l-.006.115-.006.121m.902 27.539v-.077m9.476.077v-.077m-10.38-1.763v-.739m11.284.739v-.739m-8.997.241l-2.242-10.386m8.953 10.386l2.242-10.386m.044 13.462v2.541m-11.284-2.541v2.541m-36.221 4.802v-9.998m.01 10.004l.032.14a2.287 2.287 0 00.376.822l.1.127m-.009-9.998v9.998m-.499-11.087l.032.14a2.286 2.286 0 00.376.821l.1.127m10.549-.534l.057-.134.051-.14.064-.28.013-.146.006-.14m-.184 10.838v-9.998m-.007 9.998l.057-.134.051-.14.064-.28.013-.147.006-.14m-1.012-8.131v9.998m-1.388-9.196l.2-.089a5.251 5.251 0 001.038-.6l.146-.115m-1.384 10.802v-9.998m0 9.997l.2-.089a5.254 5.254 0 001.038-.6l.146-.115m-3.161-8.715v9.998m-1.949-9.903l.242.013a10.068 10.068 0 001.471-.077l.236-.032m-1.949 10.094v-9.998m0 9.998l.242.013a10.11 10.11 0 001.471-.076l.236-.032m-3.84-10.196v9.998m-1.605-10.648l.178.1a6.535 6.535 0 001.2.484l.223.064m-1.601 9.351v-9.998m0 9.997l.178.1a6.587 6.587 0 001.2.484l.223.064m-3.25-12.944v.07l.013.14.006.077m-.019 9.711v.07l.013.14.006.077"/><path class="a" d="M47.98 174.256l.134-.115a2.957 2.957 0 00.624-.771l.07-.14m-.828-8.972l.134-.115a2.959 2.959 0 00.624-.771l.07-.14m-3.987 12.304l.236-.045a7.977 7.977 0 001.337-.357l.2-.076m-1.773-9.519l.236-.045a7.929 7.929 0 001.337-.357l.2-.076m-5.613 10.278l.223.057a9.487 9.487 0 001.42.223l.248.013m-1.891-10.291l.223.057a9.5 9.5 0 001.42.223l.248.013m-5.145-7.667l.006.172.025.166c.423 2.063 3.508 2.9 5.311 2.91l.293.006.293-.006c1.8-.006 4.891-.847 5.311-2.91l.025-.166.006-.172m-10.741 5.801l.108.127a3.909 3.909 0 00.847.694l.166.1"/><path class="a" d="M39.077 156.865l.006.146.025.147.038.146c.5 1.473 2.713 2.027 4.088 2.031h.255l.255-.013c1.323-.033 3.53-.672 3.872-2.165l.025-.147.006-.146-.006-.146-.025-.147c-.342-1.493-2.548-2.132-3.872-2.165l-.255-.013h-.255c-1.375 0-3.586.558-4.088 2.031l-.038.146-.025.147zm-.821 16.901l.108.127a3.9 3.9 0 00.847.694l.166.1m-1.192 10.28l-.108.153-.1.166-.076.159a2.129 2.129 0 00.592 2.452l.159.146.166.14a7.3 7.3 0 003.955 1.305l.293.013.293.006.293-.006.293-.013a7.514 7.514 0 003.776-1.172l.178-.134.166-.14a2.187 2.187 0 00.751-2.6l-.076-.159-.1-.166-.108-.153"/><path class="a" d="M38.625 185.515l.006.153.025.153c.379 1.716 2.929 2.405 4.438 2.42l.267.006.267-.006c1.51-.015 4.06-.7 4.438-2.42l.025-.153.006-.153"/><path class="a" d="M37.727 183.675l.006.172.025.166c.423 2.063 3.508 2.9 5.311 2.91l.293.006.293-.006c1.8-.006 4.891-.847 5.311-2.91l.025-.166.006-.172"/><path class="a" d="M39.453 180.593l-.2.121-.2.127-.178.127a2.234 2.234 0 00-.841 3.031l.1.153.121.153a6.5 6.5 0 004.528 1.866l.287.013.293.006.293-.006.287-.013a6.719 6.719 0 004.4-1.713l.127-.153.121-.153a2.215 2.215 0 00-.739-3.184l-.178-.127-.2-.127-.2-.121"/><path class="a" d="M40.007 183.178l.038.127c.78 2.1 5.856 2.1 6.635 0l.038-.127m-8.997 5.617v.064l.006.064c.26 1.938 3.9 3 5.5 3.114l.267.025c2.14.195 5.213-.538 5.5-3.088v-.092l.006-.089m.005-16.402v-9.998m-11.284 9.998v-14.424m11.284 4.426v-4.426l-.006-.115c-.156-2.559-3.187-3.681-5.387-3.706l-.127-.006h-.121c-2.229-.03-5.357 1.018-5.629 3.592l-.013.121v.115m.903 27.548v-.077m9.476.077v-.077m-10.38-1.764v-.739m11.284.739v-.739m-9.005.242l-2.235-10.386m8.954 10.386l2.242-10.386m.044 13.462v2.541m-11.284-2.541v2.541m151.284-57.592l1.948-4.2v4.419l-.42.9m-.681.103l-.044-.076-.051-.07-.064-.076-.076-.064-.083-.064-.1-.057m.01 1.286l6.062 3.5v4.419l-6.062-3.5-.019-.108a12.71 12.71 0 010-4.184zm-.006 0l.1-.057a.674.674 0 00.344-.745l-.025-.076m-1.941 1.114l.134.019a2.538 2.538 0 001.286-.2l.1-.057"/><path class="a" d="M187.916 133.539l.025.127a9.971 9.971 0 010 4.184l-.025.115"/><path class="a" d="M187.916 137.959l.134.019a2.538 2.538 0 001.286-.2l.1-.057m-2.227-5.703l-6.062-3.5v4.426l1.14.656m4.922-1.582l-.1.057a.674.674 0 00-.344.745l.025.076m1.127.643l-2.191 4.731m2.191-.305l-.771 1.662m-.35-6.731l.044.076a1.479 1.479 0 00.942.541l.134.025"/><path class="a" d="M186.802 132.896l.006.166c.046.846.092 1.693.07 2.541v.178m-.076-2.885l-8.189 1.267m7.501 3.261l-1.458.229m5.196-5.228l8.279-1.28v4.419l-3.764.586m-6.718-11.551l.006.057c.157.441 1.18.441 1.337 0l.006-.057"/><path class="a" d="M187.528 124.51l-.083.051-.076.064c-.545.552.314.987.828.987l.127.006.127-.006c.514 0 1.372-.435.828-.987l-.076-.064-.083-.051m-1.923 2.668l.006.07c.189.768 2.052.768 2.242 0l.006-.07m-1.802 4.744l.006.057c.157.441 1.18.441 1.337 0l.006-.057m-1.286 6.476l.045.045c.277.27 1.1.246 1.235-.159l.006-.051m.905-5.572v.911m-3.158-.911v.248m2.26-8.476l.121.07m-1.477-.07l-.121.07m1.923.465v2.21m-2.254-2.21v2.21m1.808.522v4.222m-1.356-4.222v4.222m1.356-.159l.439.255m-1.795-.255l-.44.255m1.796 5.89v.325m0-16.169v2.535m-1.356-1.752v1.751m73.837-35.24l1.949-4.209v4.426l-.414.9m-.688.105l-.045-.076-.051-.07-.064-.07-.076-.07-.083-.064-.1-.057m.011 1.287l6.062 3.5v4.419l-6.062-3.5-.019-.108a12.8 12.8 0 010-4.184zm-.006-.001l.1-.057a.675.675 0 00.344-.745l-.026-.076m-1.94 1.115l.134.019a2.538 2.538 0 001.286-.2l.1-.057"/><path class="a" d="M260.397 91.695l.026.121a9.974 9.974 0 010 4.184l-.026.115.134.019a2.537 2.537 0 001.286-.2l.1-.057m-2.227-5.71l-6.062-3.5v4.42l1.14.656m4.922-1.57l-.1.057a.674.674 0 00-.344.745l.026.076m1.125.644l-2.191 4.725m2.191-.305l-.771 1.662m-.35-6.725l.044.076a1.479 1.479 0 00.943.541l.134.025"/><path class="a" d="M259.282 91.052l.006.159c.049.846.086 1.694.076 2.541l-.006.185m-.076-2.885l-8.189 1.267m7.502 3.261l-1.458.223m5.196-5.22l8.285-1.286v4.426l-3.77.58m-6.719-11.559l.006.057c.157.441 1.18.441 1.337 0l.006-.057"/><path class="a" d="M260.009 82.659l-.083.051-.077.064c-.544.552.314.987.828.987l.127.006.127-.006c.514 0 1.372-.435.828-.987l-.076-.064-.083-.051m-1.923 2.668l.006.07c.189.768 2.052.768 2.241 0l.006-.07m-1.801 4.751l.006.057c.157.441 1.18.441 1.337 0l.006-.057m-1.285 6.476l.045.045c.277.27 1.1.246 1.235-.159l.006-.051m.905-5.573v.911m-3.159-.911v.242m2.261-8.469l.121.07m-1.477-.07l-.121.07m1.929.459v2.21m-2.261-2.21v2.21m1.809.521v4.228m-1.357-4.228v4.228m1.357-.158l.439.248m-1.796-.248l-.439.248m1.796 5.89v.331m0-16.168v2.528m-1.357-1.745v1.745m-107.364 69.38l1.949-4.2v4.419l-.421.9m-.681.104l-.045-.077-.051-.07-.064-.076-.076-.064-.083-.064-.1-.057m.012 1.286l6.062 3.5v4.419l-6.062-3.5-.019-.1a12.754 12.754 0 010-4.19zm-.007 0l.1-.057a.674.674 0 00.344-.745l-.026-.076m-1.94 1.114l.134.019a2.537 2.537 0 001.286-.2l.1-.057m-1.52.238l.025.121a10 10 0 010 4.19l-.025.115"/><path class="a" d="M151.676 158.886l.134.019a2.538 2.538 0 001.286-.2l.1-.057m-2.227-5.707l-6.062-3.5v4.419l1.14.662m4.922-1.579l-.1.057a.674.674 0 00-.344.745l.026.076m1.126.644l-2.191 4.725m2.191-.3l-.771 1.662m-.351-6.728l.045.076a1.479 1.479 0 00.942.541l.134.025"/><path class="a" d="M150.566 153.824l.006.159c.042.846.094 1.693.07 2.541v.185m-.081-2.888l-8.189 1.267m7.501 3.261l-1.464.223m5.203-5.222l8.278-1.28v4.42l-3.763.579m-6.718-11.551l.006.057c.157.441 1.18.441 1.337 0l.006-.057"/><path class="a" d="M151.288 145.43l-.083.051-.076.064c-.544.552.314.987.828.987l.127.006.127-.006c.514 0 1.372-.435.828-.987l-.076-.064-.083-.051m-1.924 2.674l.006.07c.189.768 2.052.768 2.242 0l.006-.07m-1.801 4.743l.006.057c.157.441 1.18.441 1.337 0l.006-.057m-1.283 6.477l.045.044c.277.27 1.1.247 1.235-.159l.006-.051m.902-5.572v.91m-3.159-.91v.242m2.261-8.47l.115.07m-1.471-.07l-.121.07m1.923.459v2.216m-2.254-2.216v2.216m1.808.516v4.228m-1.356-4.228v4.228m1.356-.159l.439.255m-1.796-.255l-.439.255m1.796 5.89v.325m0-16.169v2.528m-1.356-1.744v1.745m146.318-77.085l1.949-4.2v4.42l-.415.9m-.687.103l-.046-.077-.051-.07-.063-.07-.077-.07-.083-.064-.1-.057m.011 1.286l6.062 3.5v4.423l-6.062-3.5-.019-.108a12.823 12.823 0 010-4.19zm-.006 0l.1-.057a.674.674 0 00.344-.745l-.025-.076m-1.941 1.113l.134.019a2.537 2.537 0 001.286-.2l.1-.057m-1.52.239l.025.121a9.98 9.98 0 010 4.19l-.025.115"/><path class="a" d="M296.637 75.19l.134.019a2.538 2.538 0 001.286-.2l.1-.057m-2.226-5.704l-6.063-3.5v4.419l1.141.662m4.922-1.581l-.1.057a.674.674 0 00-.344.745l.025.076m1.125.644l-2.191 4.731m2.191-.305l-.771 1.662m-.35-6.731l.045.076a1.478 1.478 0 00.943.541l.134.025"/><path class="a" d="M295.522 70.127l.006.166c.05.845.086 1.694.076 2.541l-.006.178m-.076-2.885l-8.189 1.267m7.503 3.261l-1.46.229m5.199-5.228l8.282-1.28v4.419l-3.77.586m-6.718-11.551l.006.057c.157.441 1.18.441 1.337 0l.006-.057"/><path class="a" d="M296.25 61.734l-.083.051-.076.064c-.544.552.314.987.828.987l.127.006.127-.006c.514 0 1.372-.435.828-.987l-.077-.064-.083-.051m-1.924 2.674l.006.07c.189.768 2.052.768 2.241 0l.006-.07m-1.801 4.745l.006.057c.157.441 1.18.441 1.337 0l.006-.057m-1.283 6.476l.045.045c.277.27 1.1.246 1.236-.159l.006-.051m.909-5.573v.91m-3.167-.91v.242m2.262-8.469l.12.07m-1.476-.07l-.12.07m1.929.458v2.216m-2.262-2.216v2.216m1.809.516v4.228m-1.357-4.228v4.228m1.357-.159l.438.255m-1.795-.255l-.438.255m1.795 5.891v.325m0-16.169v2.534m-1.357-1.751v1.751M116.518 173.05l1.955-4.209v4.426l-.42.9m-.681.108l-.044-.076-.051-.07-.063-.076-.077-.064-.083-.064-.1-.057m.01 1.286l6.062 3.5v4.419l-6.062-3.5-.019-.108a12.671 12.671 0 010-4.184zm-.006 0l.1-.057a.674.674 0 00.344-.745l-.026-.077m-1.94 1.115l.134.019a2.537 2.537 0 001.286-.2l.1-.057"/><path class="a" d="M115.436 175.389l.025.121a9.986 9.986 0 010 4.184l-.025.115.134.019a2.538 2.538 0 001.286-.2l.1-.057m-2.227-5.71l-6.062-3.5v4.419l1.14.656m4.922-1.568l-.1.057a.674.674 0 00-.344.745l.025.076m1.126.644l-2.197 4.725m2.197-.306l-.771 1.662m-.354-6.724l.045.076a1.479 1.479 0 00.943.541l.134.025"/><path class="a" d="M114.322 174.747l.006.159c.042.846.094 1.693.07 2.541v.178m-.077-2.878l-8.189 1.267m7.501 3.26l-1.464.223m5.203-5.228l8.278-1.28v4.426l-3.763.58m-6.722-11.552l.006.057c.157.441 1.18.441 1.337 0l.006-.057"/><path class="a" d="M115.047 166.353l-.083.051-.076.064c-.545.552.314.987.828.987l.127.006.127-.006c.514 0 1.372-.435.828-.987l-.076-.064-.083-.051m-1.923 2.669l.006.07c.189.768 2.052.768 2.242 0l.006-.07m-1.805 4.75l.006.057c.157.441 1.18.441 1.337 0l.006-.057m-1.282 6.477l.045.045c.277.269 1.1.246 1.235-.159l.006-.051m.905-5.573v.911m-3.159-.911v.242m2.254-8.469l.121.07m-1.471-.07l-.121.07m1.923.458v2.21m-2.254-2.21v2.21m1.802.522v4.228m-1.35-4.228v4.228m1.35-.165l.446.255m-1.796-.255l-.439.255m1.789 5.89v.331m0-16.168v2.528m-1.35-1.751v1.751m-34.89 27.529l1.955-4.2v4.419l-.42.9m-.681.103l-.044-.076-.051-.07-.064-.077-.077-.064-.083-.063-.1-.057m.005 1.292l6.069 3.5v4.426l-6.069-3.5-.013-.108a12.67 12.67 0 010-4.184zm0-.006l.1-.057a.674.674 0 00.344-.745l-.026-.076m-1.94 1.114l.134.019a2.536 2.536 0 001.286-.2l.1-.057m-1.52.244l.025.121a9.974 9.974 0 010 4.184l-.025.115.134.019a2.537 2.537 0 001.286-.2l.1-.057m-2.228-5.71l-6.062-3.5v4.426l1.14.656m4.922-1.582l-.1.057a.674.674 0 00-.344.745l.025.076m1.126.65l-2.222 4.776v4.426l2.222-4.782m-1.12-5.069l.045.076a1.478 1.478 0 00.942.541l.134.026"/><path class="a" d="M78.081 195.666l.006.166c.042.846.094 1.693.07 2.541v.178"/><path class="a" d="M78.082 195.666l-8.285 1.286v4.419l7.6-1.178m3.734-4.999l8.279-1.28v4.419l-3.764.586m-6.718-11.55l.006.057c.157.441 1.18.441 1.337 0l.006-.057"/><path class="a" d="M78.807 187.279l-.083.051-.076.064c-.545.552.314.987.828.987l.127.006.127-.006c.514 0 1.372-.435.828-.987l-.076-.064-.083-.051m-1.923 2.668l.006.07c.189.768 2.052.768 2.242 0l.006-.07m-1.802 4.751l.006.057c.157.441 1.18.441 1.337 0l.006-.057m-1.285 6.471l.045.045c.277.27 1.1.246 1.235-.159l.006-.051m.904-5.574v.91m-3.158-.91v.248m2.254-8.476l.121.07m-1.471-.07l-.121.07m1.923.465v2.21m-2.254-2.21v2.21m1.802.522v4.228m-1.35-4.228v4.228m1.35-.165l.44.255m-1.789-.255l-.44.255m1.789 5.89v.331m0-16.174v2.534m-1.35-1.751v1.751M7.613 201.69l-.229.185a9.12 9.12 0 00-1.261 1.267l-.191.242m25.02 43.328l.3-.044a9.228 9.228 0 001.732-.452l.267-.108m-17.169-1.651l.388.172.388.166.388.146c4.469 1.635 8.759.554 10.7-4.063l.14-.35.121-.35c1.85-5.624-.228-12.771-2.936-17.792l-.267-.49-.274-.478-.28-.484-.293-.471c-2.949-4.79-7.915-9.978-13.557-11.361l-.376-.083-.369-.07c-5.127-.823-8.381 2.3-9.24 7.183l-.064.414-.057.414-.045.427"/><path class="b" d="M59.391 196.487l22.333-12.895M305.093 54.627l-22.333 12.9q-86.155 49.748-172.317 99.487l-28.72 16.582"/><path class="a" d="M59.595 196.78l.452-.261Q181.304 126.505 302.566 56.5l1.592-.917.936-.955"/><path class="b" d="M67.294 218.953l-.006-.528c-.183-7.487-3.337-15.293-7.54-21.409l-.363-.522m253.61-119.401l-.006-.529c-.183-7.487-3.337-15.292-7.54-21.409l-.363-.522"/><path class="a" d="M311.403 76.17l-.006-.509c-.185-6.886-3.044-13.936-6.89-19.575l-.35-.5m8.846 21.508l-1.599-.924"/><path class="b" d="M67.294 218.954l22.339-12.9q100.524-58.017 201.031-116.063l22.339-12.9"/><path class="a" d="M311.404 76.17l-1.592.923q-121.262 70-242.519 140.013l-.057.038M297.727 60.697l.249.5a42.483 42.483 0 004.776 7.349l.344.414m3.704 3.841l.376.331a28.306 28.306 0 003.84 2.808l.388.229m-17.396-14.728l.21.452a43.897 43.897 0 001.891 3.534l.261.433m1.357 2.076l.063.1.071.1"/><path class="a" d="M304.228 75.177l.388.325a27.8 27.8 0 003.2 2.273l.4.236m-17.398-14.73l.21.446a43.677 43.677 0 001.853 3.477l.255.427m6.616 8.24l.363.338a28.577 28.577 0 004.528 3.413l.382.229m-17.399-14.723l.2.433a44.213 44.213 0 001.789 3.375l.248.414m.813 1.286l.077.108.071.108m2.979 3.962l.273.318.282.312m1.579 1.672l.357.344a28.964 28.964 0 005.164 4.018l.376.223m-17.398-14.733l.236.5c.48 1.01 1.008 2 1.56 2.967l.287.484m10.348 11.49l.293.2.3.2.293.191.3.185.293.185.3.172m-36.547-3.679l.248.529a42.318 42.318 0 005.642 8.82l.369.433m2.253 2.405l.395.376a28.813 28.813 0 004.884 3.757l.414.248m-17.397-14.727l.185.4.191.395.4.79m1.803 3.178l.191.306.191.3.395.6m1.174 1.653l.554.726.191.236m3.525 3.878l.376.35a29.266 29.266 0 004.636 3.528l.395.229m-17.398-14.722l.223.478a42.806 42.806 0 003.171 5.54l.3.439m8.578 8.871l.318.223.325.217.325.21.318.2.324.2.325.191m-17.397-14.729l.172.369.178.376.369.739.191.369.191.363m6.515 9.062l.395.408a30.066 30.066 0 005.776 4.636l.42.248m-17.397-14.73l.236.509a44.405 44.405 0 002.152 3.955l.3.478m8.418 9.52l.382.293a26.268 26.268 0 002.331 1.586l.389.229m-17.399-14.723l.121.261.127.261m-19.396 10.526l.236.5a42.42 42.42 0 006.037 9.3l.357.408m.744.822l.363.376a30.308 30.308 0 006.082 4.935l.388.229m-17.398-14.723l.045.089.038.089m1.809 3.445l.236.408.242.4.5.79m.518.791l.267.395a39.35 39.35 0 001.668 2.248l.293.357m3.628 3.864l.4.363a29.105 29.105 0 004.146 3.082l.42.248m-17.4-14.728l.236.5a42.778 42.778 0 002.732 4.878l.306.465m7.857 8.637l.382.293a25.733 25.733 0 002.305 1.567l.388.229m-17.392-14.729l.217.465.458.93.235.459.242.458.248.452m6.416 8.724l.382.388a29.854 29.854 0 005.6 4.451l.407.242m-17.4-14.72l.216.459a42.413 42.413 0 002.477 4.489l.274.427m6.668 7.855l.376.325a28.113 28.113 0 003.808 2.783l.388.229m-17.397-14.729l.382.8.2.395.2.4.2.395.21.395m12.215 13.707l.2.121.395.242.2.115m-36.242-3.048l.255.529a42.477 42.477 0 005.05 7.839l.363.439m3.46 3.608l.388.35a28.779 28.779 0 003.986 2.942l.4.236m-17.391-14.729l.242.516a41.087 41.087 0 001.6 3.031l.286.5m1.361 2.117l.267.382m6.235 6.992l.344.3a27.971 27.971 0 003.515 2.522l.357.21m-17.398-14.724l.229.484a43.578 43.578 0 002.057 3.814l.287.458m7.145 8.547l.369.318a27.791 27.791 0 003.744 2.726l.376.223m-17.397-14.729l.229.49c.469.977.967 1.939 1.509 2.878l.274.471m4.235 5.936l.223.255.223.248m1.375 1.464l.369.369a30.228 30.228 0 005.375 4.228l.395.229m-17.397-14.728l.21.446a40.485 40.485 0 001.859 3.483l.255.427m9.852 10.902l.337.236.337.229.337.223.338.216.344.21.337.2M67.014 214.98l.312.217.312.21.312.2.312.2.318.191.312.185m-3.159-6.879l.382.388a30.129 30.129 0 005.558 4.412l.408.242m-11.015-18.415l.261.554c3.012 6.216 7.575 12.1 13.513 15.754l.433.261m-11.017-18.414l.261.554c3.012 6.215 7.575 12.1 13.513 15.754l.433.261m-1.445-5.234l.382.331a27.933 27.933 0 003.865 2.834l.388.229m-8.876-7.909l.331.407a36.682 36.682 0 003.5 3.732l.363.338m-9.524-13.137l.223.478a42.675 42.675 0 002.019 3.744l.28.452m8.622 5.114l.376.376a29.828 29.828 0 005.477 4.33l.4.236m-7.884-6.713l.127.153.134.147m-6.584-10.157l.2.439c.419.883.863 1.735 1.344 2.585l.242.427m12.096 8.833l.344.274a26.392 26.392 0 002.815 1.955l.357.21m-14.208-16.57l.248.529a44.381 44.381 0 002.267 4.146l.318.5m10.12 6.321l.363.318a28.212 28.212 0 003.706 2.687l.376.223m-9.298-8.439l.077.1.083.1m-1.809-2.494l.2.287.2.293m-3.66-6.411l.459.968.242.478.248.478.248.471.261.471m10.94 8.131l.408.369a29.085 29.085 0 004.177 3.114l.42.248m-14.137-16.416l.242.5a42.074 42.074 0 005.381 8.45l.344.42m29.471-6.479l.255.165.261.159.255.153.261.153m-14.207-16.569l.216.465.459.93.236.458.242.458.248.459m11.112 8.329l.395.357a28.759 28.759 0 004.075 3.025l.414.242m-14.207-16.57l.223.471a41.185 41.185 0 002.522 4.553l.28.439m7.903 4.108l.388.395a30.428 30.428 0 005.668 4.521l.414.242m-14.207-16.569l.185.4c.379.793.79 1.594 1.216 2.363l.217.388m12.48 9.305l.325.261a27 27 0 002.649 1.815l.331.2m-14.212-16.573l.223.471a42.874 42.874 0 002.541 4.591l.287.439m9.474 5.605l.4.357a27.976 27.976 0 004.063 3.018l.414.242m-11.048-10.895l.3.446c.6.882 1.237 1.737 1.9 2.573l.331.408m-4.027-5.873l.267.471.274.459.28.458.287.459m7.572 3.866l.369.4a30.448 30.448 0 006.285 5.145l.4.242m-14.206-16.569l.242.51a41.865 41.865 0 006.1 9.367l.357.414m12.443-21.345l.1.223.217.446.1.223m13.599 11.506l.331.261a25.313 25.313 0 002.713 1.866l.338.2m-14.207-16.566l.242.516a42.37 42.37 0 002.2 4.025l.306.484m8.269 4.629l.382.388a30.156 30.156 0 005.6 4.445l.408.242m-14.211-16.569l.21.446.217.452.223.446.223.439m14.36 11.532l.356.255.363.248.363.242.356.229.726.433m-14.206-16.569l.236.5a42.992 42.992 0 003.3 5.744l.312.446m8.223 4.015l.369.344a29.056 29.056 0 004.566 3.451l.388.229m-9.905-9.259l.255.344.261.344.522.675m-2.987-4.273l.446.713.229.357.236.35m-3.261-5.82l.306.65.318.65m10.858 8.825l.357.35a29.185 29.185 0 005.184 4.031l.376.223m-14.208-16.569l.248.535a42.629 42.629 0 005.712 8.9l.369.433m140.46-94.62l.261.548a40.3 40.3 0 009.966 13.2l.427.35M84.016 218.444l.312-.185c3.882-2.455 5.221-7.356 5.292-11.7l.006-.5m-21.721-34.45l-.439-.178c-3.264-1.284-6.988-1.729-10.2-.051l-.312.178m24.763 12.039l-.344-.484a38.094 38.094 0 00-9.456-9.323l-.42-.274M55.303 235.02l.312-.185.306-.2c5.54-3.915 5.589-12.419 4.273-18.372l-.127-.573-.134-.573a44.858 44.858 0 00-13.634-22.39l-.439-.369-.439-.363m-7.7-4.353l-.414-.127a11.545 11.545 0 00-8.775.452l-.3.172m34.662 2.413l-.057.032-.064.038a5.226 5.226 0 01-4.986-.618l-.083-.051-.07-.051c-1.161-.759-2.452-2.281-2.012-3.77l.019-.057.019-.064m8.488 3.057l-.045.121a2.822 2.822 0 01-1.1 1.3l-.108.064M296.293 55.799l-.057.038-.07.032a5.228 5.228 0 01-4.986-.618l-.076-.045-.077-.051c-1.171-.809-2.434-2.241-2.006-3.776l.019-.057.019-.064m8.488 3.063l-.045.115a2.805 2.805 0 01-1.1 1.3l-.108.064"/><path class="a" d="M290.243 48.508l-.121.153-.115.159c-1.245 2.078.717 4.3 2.636 5.043l.242.089.248.083c1.924.663 4.882.187 5.241-2.2l.019-.191v-.2"/><path class="a" d="M290.733 50.074l.032.172c.592 2.343 4.179 3.624 6.113 2.2l.134-.108"/><path class="a" d="M290.392 47.578l-.057.185-.045.185c-.331 1.886 1.348 3.542 2.974 4.177l.249.1.248.083c1.66.546 4.006.349 4.954-1.318l.089-.172.07-.178"/><path class="a" d="M290.593 47.003l-.057.185-.045.185-.032.2c-.165 1.825 1.429 3.357 3.006 3.98l.248.1.248.083c1.66.546 4.007.349 4.954-1.318l.089-.172.07-.178.057-.185.044-.185c.32-1.795-1.209-3.4-2.738-4.076l-.236-.1-.248-.1c-1.649-.619-4.031-.525-5.1 1.07l-.1.166-.089.172z"/><path d="M295.687 50.912a4.484 4.484 0 01-1.384-.218l-.221-.073-.225-.087c-1.188-.47-2.4-1.62-2.314-2.832l.018-.114.026-.11.035-.114.035-.088.044-.086.068-.111a2.645 2.645 0 012.2-.926 4.66 4.66 0 011.6.285l.219.084.215.093c1.161.513 2.29 1.687 2.1 2.856l-.028.114-.035.113-.035.089-.052.1a2.621 2.621 0 01-2.266 1.025z" stroke-dasharray="0 3.921" stroke="#007eff" stroke-linecap="round" stroke-linejoin="round" fill="none"/><path class="a" d="M285.059 102.375l.306-.185c3.882-2.455 5.221-7.356 5.292-11.7l.007-.5m-16.792-31.631l-.414-.293a21.244 21.244 0 00-8.189-3.63l-.395-.07m16.717 9.164l-.032.1a2.776 2.776 0 01-.815 1.108l-.076.057m2.086 2.734l-.336-.471-.339-.465-.35-.458-.35-.452-.359-.446-.355-.439m33.115 20.997l.312-.191.312-.2c5.745-4.087 5.586-13.015 4.094-19.136l-.14-.579-.153-.579a44.408 44.408 0 00-14.621-22.581l-.446-.344-.452-.331m-11.225-4.21l-.376.013a9.8 9.8 0 00-4.076 1.083l-.3.172m-6.367 26.102l-.064.032-.064.038a5.24 5.24 0 01-4.986-.618l-.153-.1c-1.166-.775-2.438-2.267-2.012-3.77l.019-.064.019-.057"/><path class="a" d="M280.666 64.791l-.077.063-.083.051-.083.057-.083.051m-6.055-7.291l-.121.153-.115.159c-1.245 2.079.717 4.3 2.636 5.043l.242.089.248.083c1.924.663 4.882.187 5.241-2.2l.019-.191v-.2"/><path class="a" d="M274.782 59.282l.032.172c.592 2.343 4.179 3.624 6.113 2.2l.134-.108"/><path class="a" d="M274.432 56.792l-.057.185-.044.185c-.332 1.886 1.348 3.542 2.974 4.177l.248.1.248.083c1.66.546 4.007.349 4.954-1.318l.089-.172.07-.178"/><path class="a" d="M274.642 56.213l-.057.185-.045.185-.032.2c-.165 1.825 1.429 3.357 3.006 3.98l.248.1.248.083c1.66.546 4.007.349 4.954-1.318l.089-.172.07-.178.057-.185.044-.185c.32-1.795-1.209-3.4-2.738-4.076l-.235-.1-.248-.1c-1.649-.619-4.032-.525-5.1 1.07l-.1.166-.089.172z"/><path d="M279.736 60.12a4.482 4.482 0 01-1.384-.218l-.221-.074-.225-.087c-1.187-.469-2.4-1.62-2.314-2.831l.019-.114.026-.11.035-.113.035-.089.045-.086.068-.111a2.645 2.645 0 012.2-.926 4.659 4.659 0 011.6.285l.219.084.216.093c1.16.513 2.289 1.686 2.1 2.855l-.028.115-.035.114-.034.088-.052.1a2.621 2.621 0 01-2.27 1.025z" stroke-dasharray="0 3.921" stroke="#007eff" stroke-linecap="round" stroke-linejoin="round" fill="none"/><path class="a" d="M256.334 118.957l.312-.185c3.882-2.455 5.221-7.356 5.292-11.7l.006-.5m-20.81-34.038l-.439-.2c-3.446-1.552-7.535-2.259-11.036-.471l-.319.172m24.692 12.076l-.363-.509a38.271 38.271 0 00-9.157-9.106l-.446-.3m.035 11.736l-.064.038-.064.032a5.231 5.231 0 01-4.986-.611l-.076-.051-.076-.051c-1.171-.788-2.437-2.258-2.012-3.776l.038-.115m8.491 3.055l-.045.115a2.728 2.728 0 01-1.1 1.3l-.1.064"/><path class="a" d="M238.045 78.641l-.121.153-.115.159c-1.245 2.078.717 4.3 2.636 5.043l.242.089.248.083c1.924.663 4.882.187 5.241-2.2l.019-.191v-.2"/><path class="a" d="M238.542 80.207l.032.172c.591 2.343 4.179 3.624 6.113 2.2l.134-.108"/><path class="a" d="M238.192 77.718l-.057.185-.045.185c-.331 1.886 1.348 3.542 2.974 4.177l.248.1.248.083c1.66.546 4.007.349 4.954-1.318l.089-.172.07-.178"/><path class="a" d="M238.402 77.138l-.057.185-.044.185-.032.2c-.165 1.825 1.429 3.357 3.006 3.98l.248.1.248.083c1.66.546 4.007.349 4.954-1.318l.089-.172.07-.178.057-.185.045-.185c.32-1.795-1.209-3.4-2.738-4.076l-.236-.1-.248-.1c-1.649-.619-4.031-.525-5.1 1.07l-.1.166-.089.172z"/><path d="M243.495 81.046a4.48 4.48 0 01-1.384-.218l-.221-.074-.225-.087c-1.188-.469-2.4-1.62-2.314-2.831l.019-.114.026-.11.035-.113.035-.089.044-.086.069-.112a2.645 2.645 0 012.2-.925 4.662 4.662 0 011.6.285l.219.084.216.093c1.16.513 2.289 1.686 2.1 2.855l-.028.115-.035.114-.035.088-.052.1a2.623 2.623 0 01-2.273 1.023z" stroke-dasharray="0 3.921" stroke="#007eff" stroke-linecap="round" stroke-linejoin="round" fill="none"/><path class="a" d="M227.609 135.543l.312-.185c3.882-2.455 5.222-7.356 5.292-11.7l.006-.5m-21.255-34.246l-.427-.191c-3.366-1.425-7.329-2-10.686-.236l-.306.172m24.771 12.037l-.344-.484a39.024 39.024 0 00-8.648-8.769l-.42-.293m-8.043 15.71l-.064.038-.064.032a5.224 5.224 0 01-4.986-.618l-.153-.1c-1.167-.768-2.441-2.269-2.012-3.77l.019-.057.019-.064m8.489 3.061l-.045.115a2.763 2.763 0 01-1.1 1.3l-.1.064"/><path class="a" d="M201.804 99.566l-.121.153-.115.159c-1.245 2.078.717 4.3 2.636 5.044l.242.089.248.083c1.924.663 4.882.187 5.241-2.2l.019-.191v-.2"/><path class="a" d="M202.302 101.133l.032.172c.591 2.343 4.179 3.624 6.113 2.2l.134-.108"/><path class="a" d="M201.952 98.636l-.057.185-.045.185c-.331 1.886 1.348 3.542 2.974 4.177l.248.1.248.083c1.659.546 4.007.349 4.954-1.318l.089-.172.07-.178"/><path class="a" d="M202.162 98.064l-.057.185-.044.185-.032.2c-.165 1.825 1.43 3.357 3.006 3.98l.248.1.248.083c1.66.546 4.007.349 4.954-1.318l.089-.172.07-.178.057-.185.045-.185c.32-1.795-1.209-3.4-2.738-4.076l-.236-.1-.248-.1c-1.649-.619-4.031-.525-5.1 1.07l-.1.166-.089.172z"/><path d="M207.254 101.971a4.478 4.478 0 01-1.384-.218l-.221-.074-.225-.086c-1.187-.469-2.4-1.62-2.314-2.831l.019-.114.026-.111.035-.112.035-.088.045-.087.068-.111a2.645 2.645 0 012.2-.926 4.664 4.664 0 011.6.285l.219.084.215.093c1.161.513 2.29 1.687 2.1 2.856l-.028.115-.035.112-.035.088-.052.1a2.622 2.622 0 01-2.273 1.023z" stroke-dasharray="0 3.92" stroke="#007eff" stroke-linecap="round" stroke-linejoin="round" fill="none"/><path class="a" d="M198.895 152.115l.312-.185c3.882-2.455 5.221-7.356 5.292-11.7l.006-.5m-21.81-34.484l-.439-.172c-3.231-1.267-6.938-1.676-10.112-.019l-.312.178m24.764 12.036l-.344-.484a39.651 39.651 0 00-7.8-8.138l-.42-.318m-16.412 19.454l-.064.032-.064.038a5.234 5.234 0 01-4.986-.618l-.076-.051-.076-.051c-1.164-.766-2.444-2.275-2.012-3.77l.019-.064.019-.057m8.488 3.057l-.044.115a2.736 2.736 0 01-1.1 1.305l-.1.064"/><path class="a" d="M165.564 120.491l-.121.153-.115.159c-1.245 2.078.717 4.3 2.636 5.043l.242.089.248.083c1.924.663 4.882.187 5.241-2.2l.019-.191v-.2"/><path class="a" d="M166.061 122.052l.032.172c.592 2.343 4.179 3.624 6.113 2.2l.134-.108"/><path class="a" d="M165.712 119.562l-.057.185-.044.185c-.331 1.886 1.348 3.542 2.974 4.177l.248.1.248.083c1.66.546 4.007.349 4.954-1.318l.089-.172.07-.178"/><path class="a" d="M165.921 118.982l-.057.185-.044.185-.032.2c-.165 1.825 1.429 3.357 3.006 3.98l.248.1.248.083c1.66.546 4.007.349 4.954-1.318l.089-.172.07-.178.057-.185.045-.185c.32-1.795-1.209-3.4-2.738-4.076l-.236-.1-.248-.1c-1.649-.619-4.031-.525-5.1 1.07l-.1.166-.089.172z"/><path d="M171.015 122.89a4.484 4.484 0 01-1.384-.218l-.221-.073-.225-.087c-1.188-.469-2.4-1.62-2.314-2.832l.018-.113.027-.11.035-.114.035-.088.044-.086.069-.111a2.646 2.646 0 012.2-.926 4.664 4.664 0 011.6.285l.219.084.215.093c1.161.513 2.29 1.687 2.1 2.856l-.027.114-.035.113-.035.089-.052.1a2.622 2.622 0 01-2.269 1.024z" stroke-dasharray="0 3.92" stroke="#007eff" stroke-linecap="round" stroke-linejoin="round" fill="none"/><path class="a" d="M170.175 168.697l.312-.185c3.882-2.455 5.222-7.356 5.292-11.7l.006-.5m-29.337-35.649l-.363.064a9.3 9.3 0 00-2.668.917l-.306.172m24.765 12.035l-.344-.478a38.1 38.1 0 00-9.386-9.285l-.42-.274M135.38 148.7l-.064.038-.064.032a5.229 5.229 0 01-4.986-.611l-.153-.1c-1.158-.767-2.448-2.276-2.012-3.77l.019-.064.019-.057m8.49 3.056l-.045.115a2.8 2.8 0 01-1.1 1.305l-.1.057"/><path class="a" d="M129.324 141.418l-.121.153-.115.159c-1.245 2.078.717 4.3 2.636 5.043l.242.089.248.083c1.924.663 4.882.187 5.241-2.2l.019-.191v-.2"/><path class="a" d="M129.819 142.977l.032.172c.592 2.343 4.179 3.624 6.113 2.2l.134-.108"/><path class="a" d="M129.471 140.487l-.057.185-.045.185c-.331 1.885 1.348 3.542 2.974 4.177l.248.1.248.083c1.66.546 4.007.349 4.954-1.318l.089-.172.07-.178"/><path class="a" d="M129.681 139.908l-.057.185-.045.185-.032.2c-.165 1.825 1.429 3.357 3.006 3.98l.248.1.248.083c1.66.546 4.007.349 4.954-1.318l.089-.172.07-.178.057-.185.045-.185c.32-1.795-1.209-3.4-2.738-4.076l-.236-.1-.248-.1c-1.649-.619-4.031-.525-5.1 1.07l-.1.166-.089.172z"/><path d="M134.774 143.815a4.48 4.48 0 01-1.384-.218l-.221-.073-.225-.087c-1.187-.469-2.4-1.62-2.314-2.831l.018-.113.027-.11.035-.114.035-.088.044-.086.068-.111a2.645 2.645 0 012.2-.926 4.663 4.663 0 011.6.285l.219.084.216.093c1.16.512 2.289 1.686 2.1 2.855l-.028.115-.035.114-.035.088-.052.1a2.622 2.622 0 01-2.273 1.023z" stroke-dasharray="0 3.921" stroke="#007eff" stroke-linecap="round" stroke-linejoin="round" fill="none"/><path class="a" d="M141.456 185.28l.312-.185c3.882-2.455 5.222-7.356 5.292-11.7l.006-.5m-17.659-32.236l-.433-.28a19.392 19.392 0 00-8.469-3.2l-.4-.032m19.052 13.286l-.3-.42a47.685 47.685 0 00-1.891-2.433l-.325-.388m-23.905 54.67l.312-.185c3.883-2.455 5.222-7.356 5.292-11.7l.006-.5m-7.909-22.461l-.363-.516-.376-.5a35.32 35.32 0 00-11.561-10.262l-.446-.223-.452-.21c-3.363-1.558-7.444-2.32-10.921-.669l-.331.166-.318.178m13.471 14.647l-.064.038-.064.032a5.218 5.218 0 01-4.986-.618l-.076-.045-.076-.051c-1.169-.793-2.444-2.255-2.012-3.776l.038-.115m8.489 3.057l-.045.115a2.786 2.786 0 01-1.1 1.3l-.1.064"/><path class="a" d="M93.084 162.335l-.121.153-.115.159c-1.245 2.078.717 4.3 2.636 5.044l.242.089.248.083c1.924.663 4.882.187 5.241-2.2l.019-.191v-.2"/><path class="a" d="M93.581 163.902l.032.172c.592 2.343 4.179 3.624 6.113 2.2l.134-.108"/><path class="a" d="M93.231 161.406l-.057.185-.045.185c-.331 1.886 1.348 3.542 2.974 4.177l.248.1.248.083c1.66.546 4.007.349 4.954-1.318l.089-.172.07-.178"/><path class="a" d="M93.434 160.833l-.057.185-.045.185-.032.2c-.165 1.825 1.429 3.357 3.006 3.98l.248.1.248.083c1.66.546 4.007.349 4.954-1.318l.089-.172.07-.178.057-.185.045-.185c.32-1.795-1.209-3.4-2.738-4.075l-.236-.1-.248-.1c-1.649-.619-4.031-.525-5.1 1.07l-.1.166-.089.172z"/><path d="M98.528 164.74a4.48 4.48 0 01-1.384-.218l-.221-.074-.225-.086c-1.188-.469-2.4-1.62-2.314-2.831l.019-.114.026-.11.035-.113.035-.089.044-.086.068-.111a2.645 2.645 0 012.2-.926 4.661 4.661 0 011.6.285l.219.084.215.093c1.16.513 2.289 1.686 2.1 2.855l-.028.115-.035.113-.035.089-.052.1a2.621 2.621 0 01-2.267 1.024z" stroke-dasharray="0 3.921" stroke="#007eff" stroke-linecap="round" stroke-linejoin="round" fill="none"/><path class="a" d="M56.844 183.261l-.121.153-.115.159c-1.245 2.078.717 4.3 2.636 5.043l.242.089.248.083c1.924.663 4.882.187 5.241-2.2l.019-.191v-.2"/><path class="a" d="M57.334 184.821l.032.172c.591 2.343 4.179 3.624 6.113 2.2l.134-.108"/><path class="a" d="M56.99 182.335l-.057.185-.045.185c-.331 1.885 1.348 3.542 2.974 4.177l.248.1.248.083c1.66.546 4.007.349 4.954-1.318l.089-.172.07-.178"/><path class="a" d="M57.194 181.754l-.057.185-.045.185-.032.2c-.165 1.825 1.429 3.357 3.006 3.98l.248.1.248.083c1.66.546 4.007.349 4.954-1.318l.089-.172.07-.178.057-.185.045-.185c.32-1.795-1.209-3.4-2.738-4.076l-.236-.1-.248-.1c-1.649-.619-4.032-.525-5.1 1.07l-.1.166-.089.172z"/><path d="M62.287 185.665a4.481 4.481 0 01-1.384-.218l-.221-.074-.225-.087c-1.188-.47-2.4-1.62-2.314-2.832l.018-.114.027-.11.035-.113.035-.088.045-.086.068-.111a2.645 2.645 0 012.2-.926 4.662 4.662 0 011.6.285l.219.084.215.093c1.161.513 2.29 1.687 2.1 2.856l-.028.115-.035.112-.035.088-.053.1a2.621 2.621 0 01-2.273 1.023z" stroke-dasharray="0 3.92" stroke="#007eff" stroke-linecap="round" stroke-linejoin="round" fill="none"/><path class="b" d="M40.936 243.311l.318-.191.312-.2.306-.216c3.422-2.613 4.581-7.137 4.668-11.252l.006-.522-.006-.535a39.135 39.135 0 00-4.973-17.206l-.312-.567-.318-.56-.325-.554-.331-.554a39.576 39.576 0 00-11.965-12.628l-.459-.287-.452-.267c-3.7-2.136-8.387-3.568-12.532-1.84l-.344.153-.331.165-.325.185M328.134 77.501l.318-.191.312-.2.3-.217c3.414-2.59 4.589-7.125 4.674-11.22l.006-.522-.006-.529a38.673 38.673 0 00-4.636-16.608l-.3-.567-.312-.567-.312-.56-.325-.554a40.272 40.272 0 00-11.806-12.9l-.452-.3-.452-.28c-3.559-2.184-8.133-3.766-12.284-2.458l-.357.127-.35.134-.344.146"/><path class="a" d="M38.911 244.483l.318-.191.312-.2.306-.216c3.422-2.613 4.581-7.137 4.668-11.252l.006-.522-.006-.535a39.134 39.134 0 00-4.973-17.206l-.312-.567-.318-.56-.325-.554-.331-.554a39.575 39.575 0 00-11.965-12.628l-.459-.286-.452-.267c-3.7-2.136-8.387-3.568-12.532-1.84l-.344.153-.331.166-.325.185"/><path class="a" d="M16.573 244.674l.452.338.452.318.452.312c5.825 3.979 14.1 5.841 18.486-1.159l.2-.357.2-.363c3.881-7.737.694-18.845-3.222-25.975l-.312-.567-.318-.56-.325-.56-.338-.548c-4.188-6.945-12.273-15.286-20.887-15.78l-.408-.006h-.408c-8.245.275-10.792 8.4-10.246 15.423l.038.548.051.554.064.56"/><path class="a" d="M20.463 246.037l.446.223.439.2.446.2c5.732 2.474 11.708 1.612 14.468-4.509l.166-.382.153-.395c2.624-7.265-.126-16.725-3.674-23.23l-.611-1.1-.318-.541-.331-.541c-3.813-6.244-10.422-13.162-17.856-14.716l-.42-.076-.42-.064c-6.872-.907-10.792 3.8-11.552 10.227l-.051.478-.045.49-.025.49m334.828-139.89l.318-.191.312-.2.306-.217c3.422-2.613 4.581-7.137 4.667-11.252l.007-.522-.007-.535a39.132 39.132 0 00-4.973-17.206l-.312-.567-.318-.56-.325-.554-.331-.554a39.577 39.577 0 00-11.965-12.628l-.458-.287-.452-.267c-3.7-2.136-8.387-3.568-12.532-1.84l-.344.153-.331.166-.325.185"/><path class="a" d="M329.4 76.73l.338-.159.331-.178.318-.191c3.78-2.349 5.166-6.917 5.355-11.138l.019-.516.006-.522a38.675 38.675 0 00-4.98-17.818l-.312-.567-.318-.56-.325-.56-.338-.554a39.1 39.1 0 00-12.481-12.946l-.458-.267-.452-.255c-3.838-2.1-8.7-3.356-12.781-1.178l-.325.185-.318.2-.312.21M16.076 244.457l.579.261a27.085 27.085 0 0013.659 2.063l.63-.076M5.931 203.384l-.382.509a27.142 27.142 0 00-5.037 12.863l-.064.63m27.778-29.254l9.52-5.496m10.387-5.992l8.813-5.094m-1.643 63.482l7.979-4.61m17.098-9.871l3.642-2.101M289.06 51.258l.7-1.948m7.787 5.012l.7-1.955m-7.864-4.789l.211-.573m8.279 3.635l.211-.579m-33.51 1.038l21.13-12.195m-1.645 63.477l7.972-4.604m17.107-9.871l3.642-2.101m-40.679-25.333l.707-1.948m7.789 5.005l.7-1.948m-7.871-4.789l.21-.579m8.284 3.636l.211-.573m-53.797 12.748l25.854-14.926m1.152 61.865l28.719-16.582m-48.198-20.983l.701-1.955m7.794 5.012l.701-1.949m-7.872-4.795l.21-.573m8.285 3.637l.204-.58m-46.34 8.45l18.404-10.622m8.673 57.522l28.719-16.582m-55.72-16.646l.701-1.948m7.788 5.011l.707-1.955m-7.871-4.789l.21-.573m8.285 3.636l.204-.579m-38.82 4.107l10.883-6.285m10.386-5.992l7.451-4.305m-1.643 63.482l28.72-16.582m-63.241-12.302l.701-1.949m7.788 5.005l.707-1.949m-7.871-4.788l.21-.58m8.285 3.636l.204-.573m-31.299-.236l3.362-1.942m10.386-5.992l14.971-8.648m-1.642 63.476l7.979-4.604m17.098-9.87l3.643-2.101m-70.762-7.96l.701-1.955m7.788 5.011l.707-1.948m-7.872-4.79l.21-.579m8.286 3.636l.204-.579m-17.551-8.171l22.492-12.984m-1.643 63.476l28.72-16.582m-84.516-13.735l24.561-14.175m2.515 61.075l28.72-16.582M91.9 165.087l.701-1.949m7.787 5.011l.707-1.955m-7.871-4.788l.21-.573m8.285 3.636l.204-.58m-44.977 7.66l17.041-9.838m10.386-5.992l1.293-.751m-1.644 63.482l28.72-16.582m-57.083-15.857l.701-1.948m7.788 5.012l.707-1.955m-7.871-4.789l.21-.579m8.279 3.636l.21-.573m-51.817 11.608l14.36-8.291m12.717 55.185l14.36-8.285"/><path class="a" d="M328.134 77.501l.509-.293.5-.312.492-.318.484-.331.478-.344.464-.35M39.638 244.018l.331-.166.65-.357.318-.185m-27.068-46.88l-.325.185-.312.191-.318.2-.312.2m-6.708 3.822l5.948-3.439m21.128 50.339l5.948-3.439M.448 217.384l-.051.637a27.075 27.075 0 0015.1 26.16l.58.274m325.43-187.376l.064-.637a27.079 27.079 0 00-15.551-26.924l-.579-.261m-22.354.191l5.949-3.439m21.13 50.333l5.947-3.439m-49.409-33.998l4.723-2.732m22.353 49.632l14.36-8.291m-46.085-9.17l13.635 7.871m1.265 8.297l-.007-.49a30.156 30.156 0 00-1.114-7.266l-.153-.541m-.948.554l.956-.554m-31.446 2.413l.261.554c3.012 6.216 7.575 12.1 13.513 15.754l.433.261M296 85.066l-.007-.49a30.168 30.168 0 00-1.115-7.266l-.153-.541m.008 0l-13.64-7.871m3.354-21.046v.07l.013.07c.186.936 1.751 1.385 2.566 1.42l.127.006h.127c.918.041 2.387-.343 2.566-1.407l.013-.076v-.083m-5.412-3.827l.006.115.026.121c.555 1.8 5.01 1.757 5.374-.121l.006-.115-.006-.115c-.38-1.892-4.832-1.908-5.374-.121l-.026.121z"/><path class="a" d="M284.447 44.579l.006.115c.367 1.919 5.03 1.921 5.4 0l.006-.115"/><path class="a" d="M285.13 45.68l.006.1c.29 1.429 3.747 1.429 4.037 0l.006-.1"/><path class="a" d="M284.863 45.406l-.1.1-.083.1c-.932 1.374 1.228 2.211 2.28 2.178l.2.006.2-.006c1.051.033 3.211-.8 2.28-2.178l-.083-.1-.1-.1m.405-1.381v.554m-5.414-.554v.554m4.74 1.031v.07m-4.063-.07v.07m4.737.554v1.618m-5.414-1.618v1.618m-36.239 20.925v.07l.013.07c.185.936 1.753 1.388 2.566 1.414l.127.013h.127c.929.031 2.372-.334 2.566-1.407l.013-.076v-.084m-5.412-3.827l.006.115.025.121c.555 1.8 5.01 1.757 5.375-.121l.006-.115-.006-.115c-.38-1.892-4.832-1.908-5.375-.121l-.025.121z"/><path class="a" d="M248.209 65.508l.006.115c.37 1.921 5.03 1.919 5.4 0l.006-.115"/><path class="a" d="M248.89 66.605l.006.1c.29 1.429 3.747 1.429 4.037 0l.006-.1"/><path class="a" d="M248.62 66.332l-.1.1-.083.1c-.932 1.374 1.228 2.211 2.28 2.178l.2.006.2-.006c1.051.034 3.211-.8 2.28-2.178l-.083-.1-.1-.1m.407-1.382v.554m-5.412-.554v.554m4.737 1.031v.07m-4.063-.07v.07m4.738.554v1.618m-5.412-1.618v1.618m-36.241 20.925v.07l.013.07c.191.939 1.749 1.381 2.566 1.414l.127.006.127.006c.931.029 2.372-.335 2.566-1.407l.013-.083v-.076m-5.412-3.833l.006.115.025.121c.555 1.8 5.01 1.757 5.375-.121l.006-.115-.006-.115c-.38-1.892-4.832-1.908-5.375-.121l-.025.121z"/><path class="a" d="M211.968 86.422l.006.115c.37 1.919 5.03 1.921 5.4 0l.006-.115"/><path class="a" d="M212.65 87.531l.006.1c.29 1.429 3.747 1.429 4.037 0l.006-.1"/><path class="a" d="M212.382 87.257l-.1.1-.083.1c-.932 1.374 1.228 2.211 2.28 2.178l.2.006.2-.006c1.051.033 3.211-.8 2.28-2.178l-.083-.1-.1-.1m.405-1.389v.554m-5.413-.554v.554m4.738 1.039v.07m-4.063-.07v.07m4.738.554v1.618m-5.413-1.618v1.618m-36.24 20.924v.064l.013.07c.176.935 1.756 1.387 2.566 1.42l.127.006.127.006c.923.025 2.376-.34 2.566-1.407l.013-.083v-.076m-5.412-3.836l.006.115.026.121c.555 1.8 5.01 1.757 5.375-.121l.006-.115-.006-.115c-.38-1.892-4.832-1.908-5.375-.121l-.026.121z"/><path class="a" d="M175.728 107.348l.006.115c.371 1.921 5.03 1.919 5.4 0l.006-.115"/><path class="a" d="M176.409 108.456l.006.1c.29 1.429 3.747 1.429 4.037 0l.006-.1"/><path class="a" d="M176.142 108.176l-.1.1-.083.1c-.932 1.374 1.228 2.211 2.28 2.178l.2.006.2-.006c1.051.033 3.211-.8 2.28-2.178l-.083-.1-.1-.1m.405-1.382v.554m-5.413-.554v.554m4.738 1.031v.076m-4.063-.076v.076m4.738.548v1.624m-5.413-1.624v1.624m-36.24 20.919v.07l.013.07c.2.949 1.742 1.374 2.566 1.42l.127.006h.127c.928.036 2.374-.338 2.566-1.407l.013-.076v-.083m-5.412-3.827l.006.115.026.121c.555 1.8 5.01 1.757 5.375-.121l.006-.115-.006-.115c-.38-1.892-4.832-1.908-5.375-.121l-.026.121z"/><path class="a" d="M139.488 128.268l.006.115c.371 1.921 5.03 1.919 5.4 0l.006-.115"/><path class="a" d="M140.169 129.375l.006.1c.29 1.429 3.747 1.429 4.037 0l.006-.1"/><path class="a" d="M139.902 129.101l-.1.1-.083.1c-.932 1.374 1.228 2.211 2.28 2.178l.2.006.2-.006c1.051.033 3.211-.8 2.28-2.178l-.083-.1-.1-.1m.405-1.382v.554m-5.413-.554v.554m4.737 1.032v.07m-4.062-.07v.07m4.738.554v1.618m-5.413-1.618v1.618m-36.241 20.924v.07l.013.07c.192.939 1.747 1.384 2.566 1.414l.127.006.127.006c.936.03 2.364-.335 2.566-1.407l.006-.083.006-.076m-5.411-3.827l.006.115.025.121c.555 1.8 5.01 1.757 5.375-.121l.006-.115-.006-.115c-.38-1.892-4.832-1.908-5.375-.121l-.025.121z"/><path class="a" d="M103.247 149.192l.006.115c.37 1.921 5.033 1.919 5.4 0l.006-.115"/><path class="a" d="M103.928 150.3l.006.1c.29 1.429 3.747 1.429 4.037 0l.006-.1"/><path class="a" d="M103.661 150.026l-.1.1-.083.1c-.932 1.374 1.228 2.211 2.28 2.178l.2.006.2-.006c1.051.034 3.211-.8 2.28-2.178l-.083-.1-.1-.1m.405-1.382v.548m-5.413-.548v.548m4.738 1.038v.07m-4.062-.07v.07m4.737.554v1.618m-5.413-1.618v1.618m-31.734 20.893v.051l-.006.051c-.15.715-1.089.941-1.713.942h-.081l-.089-.006c-.555-.016-1.58-.3-1.707-.943l-.006-.051-.006-.045m.007-3.801l.006.1.026.1c.413 1.153 3.288 1.128 3.566-.1l.006-.1-.006-.1c-.278-1.223-3.153-1.249-3.566-.1l-.026.1z"/><path class="a" d="M67.912 170.117l.006.089c.273 1.262 3.319 1.26 3.592 0l.006-.089"/><path class="a" d="M68.096 170.579l-.064.089-.051.089c-.377.854.932 1.32 1.567 1.312l.166.006.166-.006c.635.008 1.943-.458 1.567-1.312l-.051-.089-.064-.089m.184-1.016v.554m-3.611-.554v.554m3.611.924v2.324m-3.611-2.324v2.324M35.276 194.29v.051l-.006.051c-.14.7-1.1.952-1.713.936h-.172c-.555-.023-1.585-.3-1.707-.949l-.013-.089m.006-3.802l.006.1.025.1c.413 1.153 3.288 1.128 3.566-.1l.006-.1-.006-.1c-.278-1.224-3.153-1.249-3.566-.1l-.025.1z"/><path class="a" d="M31.671 191.042l.006.089c.273 1.262 3.319 1.26 3.592 0l.006-.089"/><path class="a" d="M31.855 191.501l-.064.089-.051.089c-.377.854.932 1.32 1.567 1.312l.166.006.166-.006c.635.008 1.943-.458 1.567-1.312l-.051-.089-.064-.089m.185-1.013v.554m-3.611-.554v.554m3.611.917v2.331m-3.611-2.331v2.331m27.363-16.289v.07l.013.07c.191.939 1.748 1.384 2.566 1.414l.127.006.127.006c.927.031 2.373-.336 2.566-1.407l.013-.083v-.076m-5.412-3.827l.006.115.025.121c.555 1.8 5.01 1.757 5.375-.121l.006-.115-.005-.115c-.38-1.892-4.832-1.908-5.375-.121l-.025.121z"/><path class="a" d="M59.028 174.721l.006.115c.367 1.919 5.031 1.921 5.4 0l.006-.115"/><path class="a" d="M59.709 175.829l.006.1c.29 1.429 3.747 1.429 4.037 0l.006-.1"/><path class="a" d="M59.442 175.556l-.1.1-.083.1c-.932 1.374 1.228 2.211 2.28 2.178l.2.006.2-.006c1.051.034 3.211-.8 2.28-2.178l-.083-.1-.1-.1m.405-1.383v.548m-5.413-.548v.548m4.738 1.038v.07m-4.063-.07v.07m4.738.554v1.618m-5.413-1.618v1.618m-7.979 4.604l.013.14c.206.951 1.735 1.371 2.566 1.42l.127.006h.127c.925.036 2.378-.336 2.566-1.407l.013-.076v-.083m-5.412-3.824l.006.115.025.121c.555 1.8 5.01 1.757 5.375-.121l.006-.115-.006-.115c-.38-1.892-4.832-1.908-5.375-.121l-.025.121z"/><path class="a" d="M51.049 179.332l.006.115c.367 1.919 5.03 1.921 5.4 0l.006-.115"/><path class="a" d="M51.73 180.433l.006.1c.29 1.429 3.747 1.429 4.037 0l.006-.1"/><path class="a" d="M51.463 180.159l-.1.1-.083.1c-.932 1.374 1.228 2.211 2.28 2.178l.2.007.2-.007c1.051.034 3.211-.8 2.28-2.178l-.083-.1-.1-.1m.405-1.381v.554m-5.413-.554v.554m4.738 1.031v.07m-4.063-.07v.07m4.738.554v1.617m-5.413-1.617v1.617M280.984 52.43l-.006.051c-.187 1.39-3.395 1.244-3.6-.006v-.045m-.004-3.802l.006.1.026.1c.413 1.153 3.288 1.128 3.566-.1l.006-.1-.006-.1c-.278-1.223-3.153-1.249-3.566-.1l-.026.1z"/><path class="a" d="M277.374 49.183l.006.089c.272 1.26 3.318 1.262 3.592 0l.006-.089"/><path class="a" d="M277.559 49.647l-.064.089-.051.089c-.377.854.932 1.32 1.567 1.312l.166.006.166-.006c.635.008 1.943-.458 1.567-1.312l-.051-.089-.064-.089m.19-1.018v.554m-3.611-.554v.554m3.611.923v2.324m-3.611-2.324v2.324m-32.629 20.925l-.006.051c-.192 1.386-3.392 1.242-3.6-.006v-.045m-.005-3.802l.006.1.025.1c.413 1.153 3.288 1.128 3.566-.1l.006-.1-.006-.1c-.278-1.223-3.153-1.249-3.566-.1l-.025.1z"/><path class="a" d="M241.134 70.108l.006.089c.269 1.26 3.319 1.262 3.591 0l.006-.089"/><path class="a" d="M241.318 70.566l-.064.089-.051.089c-.377.854.932 1.32 1.567 1.312l.166.006.165-.006c.635.008 1.943-.458 1.567-1.312l-.051-.089-.064-.089m.191-1.012v.554m-3.61-.554v.554m3.61.917v2.331m-3.61-2.331v2.331m-32.63 20.918l-.006.051c-.177 1.387-3.388 1.25-3.6 0v-.051m-.005-3.795l.006.1.026.1c.413 1.153 3.288 1.128 3.566-.1l.006-.1-.006-.1c-.278-1.223-3.153-1.249-3.566-.1l-.026.1z"/><path class="a" d="M204.893 91.033l.006.089c.273 1.262 3.319 1.26 3.592 0l.006-.089"/><path class="a" d="M205.078 91.492l-.064.089-.051.089c-.377.854.932 1.32 1.567 1.312l.166.006.166-.006c.635.008 1.943-.458 1.566-1.312l-.051-.089-.064-.089m.191-1.013v.554m-3.611-.554v.554m3.611.917v2.324m-3.611-2.324v2.324M172.264 115.2l-.006.051c-.173 1.378-3.382 1.26-3.6-.006v-.045m-.005-3.803l.006.1.026.1c.413 1.153 3.288 1.128 3.566-.1l.006-.1-.006-.1c-.279-1.223-3.153-1.249-3.566-.1l-.026.1z"/><path class="a" d="M168.653 111.952l.006.089c.273 1.262 3.319 1.26 3.592 0l.006-.089"/><path class="a" d="M168.837 112.417l-.064.089-.051.089c-.377.854.932 1.32 1.566 1.312l.166.006.166-.006c.635.008 1.943-.458 1.566-1.312l-.051-.089-.064-.089m.193-1.019v.554m-3.611-.554v.554m3.611.923v2.324m-3.611-2.324v2.324m-8.883 4.636l.013.14c.2.939 1.744 1.384 2.566 1.414l.127.013h.134c.938.03 2.359-.337 2.566-1.407l.006-.076.006-.083m-5.418-3.828l.006.115.025.121c.555 1.8 5.01 1.757 5.375-.121l.006-.115-.006-.115c-.38-1.892-4.832-1.908-5.375-.121l-.025.121z"/><path class="a" d="M159.77 116.562l.006.115c.37 1.921 5.03 1.919 5.4 0l.006-.115"/><path class="a" d="M160.451 117.664l.006.1c.29 1.429 3.747 1.429 4.037 0l.006-.1"/><path class="a" d="M160.184 117.39l-.1.1-.083.1c-.932 1.374 1.228 2.211 2.28 2.178l.2.006.2-.006c1.051.033 3.211-.8 2.28-2.178l-.083-.1-.1-.1m.411-1.382v.554m-5.419-.554v.554m4.737 1.032v.07m-4.056-.07v.07m4.738.554v1.618m-5.419-1.618v1.618m36.24-20.926l.013.14c.205.944 1.739 1.378 2.566 1.42l.127.006h.134c.928.038 2.368-.341 2.566-1.407l.006-.076.006-.083m-5.418-3.827l.006.115.025.121c.555 1.8 5.01 1.757 5.375-.121l.006-.115-.006-.115c-.38-1.892-4.832-1.908-5.375-.121l-.025.121z"/><path class="a" d="M196.01 95.634l.006.115c.37 1.921 5.03 1.919 5.4 0l.006-.115"/><path class="a" d="M196.692 96.739l.006.1c.29 1.429 3.747 1.429 4.037 0l.006-.1"/><path class="a" d="M196.424 96.465l-.1.1-.083.1c-.932 1.374 1.228 2.211 2.28 2.178l.2.006.2-.006c1.052.033 3.211-.8 2.28-2.178l-.083-.1-.1-.1m.411-1.382v.554m-5.419-.554v.554m4.738 1.032v.07m-4.056-.07v.07m4.737.554v1.617m-5.419-1.617v1.617"/><path d="M296.966 7.676h.209l.128.005c2.2.025 5.224 1.15 5.387 3.706v14.54l-.008.139-.011.147-.027.112h.008l-.837 3.872.556-.286.008-.005.3-.207.319-.2.324-.185v-.005l5.717-3.305.005.005.324-.183.332-.166.343-.153a10.263 10.263 0 013.978-.769 17.666 17.666 0 018.554 2.609l.452.267.458.286q1 .634 1.954 1.352l.58.262a27.078 27.078 0 0115.547 26.923l-.063.638h-.014q.18 1.447.215 2.894l.008.537-.008.521c-.084 4.115-1.245 8.641-4.668 11.254l-.305.215-.311.2-.319.191v.005l-5.935 3.445-.093.055-.33.177-.338.161-.259.166-.5.313-.51.292.005.014-14.352 8.289h-.005l-3.643 2.1h-.005a11.035 11.035 0 01-1.651 2.136l-.267.253v14.244l1.916 1.109v2.21l-8.3 4.788-17.276-9.973-28.217 16.29-28.717 16.581-28.4 16.4-.319.185-3.643 2.1a11.114 11.114 0 01-1.651 2.136l-.262.251v14.257l1.91 1.1v2.21l-8.292 4.8-17.281-9.979-28.225 16.285-28.721 16.581-28.715 16.578-3.643 2.1a11.178 11.178 0 01-1.649 2.131l-.267.256v14.251l1.916 1.1v2.21l-8.3 4.8-17.276-9.979-13.864 8v-.005l-.319.185-.649.354-.319.161-.109.076-.311.2-.319.191v.005l-5.95 3.445v-.005a9.685 9.685 0 01-4.935 1.262 18.739 18.739 0 01-10.1-3.542l-.452-.311-.452-.319-.431-.322-.518-.234-.58-.273a27.077 27.077 0 01-15.1-26.159l.052-.638.044-.425.011-.128-.063-.542-.049-.553-.038-.548c-.425-5.453 1.016-11.573 5.542-14.161l5.946-3.436.008.011.324-.185.332-.163.1-.046v-.005l.311-.2.319-.2.313-.191.324-.185v-.005l14.355-8.292.3-.174 9.218-5.322h.005a2.715 2.715 0 011.123-1.668l.177-.128.2-.125.193-.117-1.679-7.778h.008l-.033-.142-.005-.076-.014-.139v-.071h-.005v-14.54l.011-.12c.269-2.539 3.314-3.592 5.536-3.592h.216l.125.005c2.2.025 5.232 1.147 5.39 3.706l.005.115v14.423h-.004l-.005.142-.014.144-.025.112h.005l-.831 3.853h.005l8.812-5.093 17.042-9.84h.005a2.7 2.7 0 011.12-1.668l.18-.128.2-.128.2-.117-1.679-7.777h.005l-.03-.142v-.005l-.008-.071-.011-.139v-.071h-.008v-14.414l.008-.12.005-.114c.273-2.565 3.339-3.6 5.569-3.6h.061l.128.008h.12c2.2.027 5.229 1.144 5.387 3.706l.005.12v14.418h-.005l-.005.139-.014.147-.025.112h.005l-.831 3.853 1.294-.752 24.56-14.175a2.713 2.713 0 011.125-1.673l.177-.128.2-.128.2-.117-1.679-7.777h.008l-.033-.139-.005-.076-.014-.139v-.075h-.005v-14.414l.005-.12.008-.115c.265-2.533 3.3-3.592 5.518-3.592h.36c2.215.041 5.2 1.128 5.393 3.706v14.535h-.005l-.008.139-.011.147-.027.112h.008l-.828 3.853 22.492-12.984 3.36-1.943h.005a2.7 2.7 0 011.12-1.668l.18-.128.2-.128.2-.117-1.679-7.782h.005l-.03-.139-.008-.076-.011-.142v-.068h-.008V95.198l.008-.114.006-.123c.269-2.537 3.315-3.592 5.537-3.592h.341c2.218.046 5.21 1.134 5.393 3.714v14.532h-.005l-.005.139-.014.147-.063.281h.008l-.793 3.69 14.971-8.646.313-.183 10.57-6.1h.005a2.715 2.715 0 011.123-1.668l.177-.128.2-.128.2-.117-1.679-7.777h.008l-.033-.139v-.005l-.006-.071-.014-.139V88.7h-.005V74.279l.014-.242c.274-2.545 3.322-3.592 5.542-3.592h.213l.123.005c2.21.03 5.218 1.144 5.393 3.709v14.538h-.005l-.008.139-.011.147-.027.112h.008l-.828 3.853 7.45-4.305 18.4-10.622a2.709 2.709 0 011.123-1.676l.18-.125.2-.128.2-.117-1.679-7.78h.005l-.03-.139-.008-.076-.011-.142V53.231l.005-.114c.278-2.554 3.326-3.6 5.56-3.6h.069l.128.005h.12c2.215.035 5.215 1.139 5.4 3.706v14.54h-.008l-.005.139-.014.147-.025.112h.005l-.828 3.853 25.858-14.921h.005a2.715 2.715 0 011.123-1.668l.177-.128.2-.128.2-.117-1.681-7.782h.008l-.033-.139-.005-.076-.014-.142V32.307l.008-.114c.277-2.545 3.314-3.592 5.544-3.592h.339c2.218.046 5.2 1.134 5.387 3.706v14.537h-.005l-.008.142-.011.147-.027.112h.008l-.831 3.853 21.129-12.2 4.725-2.73h.011a2.715 2.715 0 011.123-1.673l.177-.125.2-.128.194-.114-1.679-7.78h.014l-.033-.139-.005-.076-.014-.142v-.068h-.005V11.387l.005-.12c.286-2.547 3.317-3.592 5.55-3.592m0-.285c-2.17 0-5.513 1.024-5.832 3.844v.019l-.005.12v14.555a.283.283 0 00.005.056v.039l.014.142v.069a.291.291 0 00.007.045l.014.059a.245.245 0 000 .078l1.635 7.579-.017.01-.208.134-.187.132a3.068 3.068 0 00-1.212 1.714l-4.61 2.672-20.581 11.88.7-3.228a.281.281 0 00.006-.062l.011-.045a.284.284 0 00.007-.046l.011-.147.005-.092a.276.276 0 00.009-.07v-14.56c-.2-2.83-3.5-3.925-5.665-3.97h-.345c-2.174 0-5.519 1.024-5.827 3.846l-.009.125v14.654l.014.142v.069a.288.288 0 00.007.045l.017.074a.27.27 0 00.006.063l1.638 7.58-.023.013-.21.135-.013.009-.177.128a3.056 3.056 0 00-1.21 1.713l-25.191 14.544.693-3.225a.283.283 0 00.006-.056l.013-.057a.284.284 0 00.005-.035l.014-.147v-.089a.27.27 0 00.011-.076V53.211c-.2-2.85-3.5-3.936-5.675-3.97h-.124l-.116-.005h-.081c-2.18 0-5.536 1.026-5.843 3.851v.017l-.005.114v14.641l.011.142.009.084a.294.294 0 000 .03l.018.085a.269.269 0 00.006.054l1.635 7.577-.023.013-.012.008-.2.128-.187.13a3.052 3.052 0 00-1.215 1.726l-18.294 10.558-6.895 3.985.694-3.226a.281.281 0 00.006-.062l.011-.045a.284.284 0 00.007-.046l.011-.147.005-.09a.275.275 0 00.009-.07V74.14c-.195-2.862-3.5-3.944-5.673-3.974l-.114-.005h-.226c-2.175 0-5.52 1.024-5.824 3.846v.015l-.014.242v14.434a.289.289 0 00.005.056v.015a.266.266 0 000 .028l.014.139v.06a.311.311 0 00.007.054l.017.074a.266.266 0 00.006.063l1.635 7.576-.022.013-.209.134-.013.009-.177.128a3.054 3.054 0 00-1.21 1.713l-10.464 6.042-.314.183-14.398 8.323.658-3.063a.287.287 0 00.006-.067l.048-.214a.272.272 0 00.006-.036l.014-.147v-.1a.276.276 0 00.008-.065V95.064c-.2-2.836-3.5-3.933-5.671-3.978h-.347c-2.175 0-5.521 1.024-5.82 3.847v.017l-.006.123-.008.107v14.438a.285.285 0 00.008.068v.022l.011.142.009.085v.03l.018.086a.267.267 0 00.006.056l1.635 7.58-.023.013-.013.008-.2.128-.189.135a3.05 3.05 0 00-1.209 1.715l-3.232 1.869-.024.012-21.925 12.66.694-3.226a.286.286 0 00.006-.062l.011-.045a.291.291 0 00.007-.046l.011-.147.005-.09a.273.273 0 00.009-.07v-14.559c-.207-2.84-3.505-3.93-5.671-3.97h-.365c-2.17 0-5.5 1.025-5.8 3.847l-.009.124-.006.127v14.427a.286.286 0 00.005.056v.043l.014.139v.069a.282.282 0 00.007.045l.017.074a.267.267 0 00.006.063l1.635 7.576-.022.013-.209.134-.013.009-.177.128a3.047 3.047 0 00-1.213 1.721l-24.45 14.112-.741.431.7-3.225a.287.287 0 00.006-.057l.012-.057a.279.279 0 00.005-.035l.014-.147v-.1a.277.277 0 00.008-.065v-14.417l-.006-.133c-.157-2.542-3.037-3.945-5.668-3.977h-.114l-.119-.008h-.079c-2.187 0-5.551 1.026-5.852 3.854v.017l-.005.114-.008.114v14.437a.286.286 0 00.008.068v.022l.011.139.008.072a.305.305 0 00.005.041l.019.089a.271.271 0 00.006.054l1.635 7.575-.023.013-.013.008-.2.128-.189.135a3.05 3.05 0 00-1.209 1.715l-16.935 9.778-8.263 4.775.7-3.229a.284.284 0 00.006-.057l.012-.057a.28.28 0 00.005-.034l.014-.144v-.093a.27.27 0 00.011-.076v-14.42l-.006-.128c-.176-2.854-3.572-3.953-5.671-3.977l-.116-.005h-.22c-2.176 0-5.521 1.024-5.819 3.847l-.011.124v14.564a.285.285 0 00.005.055v.016a.274.274 0 000 .028l.014.139v.069a.283.283 0 00.007.044l.018.077a.267.267 0 00.006.064l1.63 7.579-.02.012-.2.128-.015.01-.177.128a3.055 3.055 0 00-1.21 1.713l-9.112 5.26-.3.174-14.356 8.289a.283.283 0 00-.047.034l-.274.156-.32.195-.321.2-.312.2-.015.01-.05.022-.342.168-.016.008-.254.145a.26.26 0 00-.08.03l-5.946 3.436a.287.287 0 00-.037.026C.939 203.57-.334 210.055.068 215.214l.038.545.049.559.06.521-.008.1-.043.42-.052.644a27.362 27.362 0 0015.254 26.434l.585.275.493.223.406.3.459.323.455.313a18.81 18.81 0 0010.262 3.592 9.968 9.968 0 005.028-1.271.268.268 0 00.052-.023l5.95-3.432a.284.284 0 00.051-.038l.269-.161.321-.211.1-.069.3-.152.657-.359.273-.159a.266.266 0 00.057-.024l13.722-7.916 17.134 9.9a.285.285 0 00.285 0l8.3-4.8a.285.285 0 00.142-.246v-2.21a.285.285 0 00-.143-.247l-1.773-1.019v-13.965l.179-.172a11.491 11.491 0 001.657-2.126l3.58-2.067.02-.013 28.7-16.569 28.716-16.577 28.071-16.21 17.143 9.9a.284.284 0 00.285 0l8.292-4.8a.285.285 0 00.142-.246v-2.21a.285.285 0 00-.142-.247l-1.768-1.019v-13.968l.174-.167a11.44 11.44 0 001.655-2.133l3.586-2.068.32-.186 28.4-16.4.02-.013 28.7-16.571 28.074-16.207 17.134 9.891a.284.284 0 00.284 0l8.3-4.788a.285.285 0 00.142-.246v-2.21a.285.285 0 00-.142-.246l-1.774-1.027v-13.96l.178-.169a11.337 11.337 0 001.656-2.124l3.585-2.067.011-.006 14.352-8.289a.282.282 0 00.07-.057l.433-.248.507-.32.223-.143h.009l.338-.161.342-.183.064-.037a.279.279 0 00.039-.019l5.946-3.439a.289.289 0 00.051-.037l.269-.161.321-.211.313-.22c4.025-3.073 4.727-8.512 4.788-11.481l.008-.522-.008-.546a30.002 30.002 0 00-.207-2.839v-.026l.063-.638a27.362 27.362 0 00-15.714-27.208l-.555-.25c-.645-.483-1.3-.936-1.947-1.346l-.459-.287-.459-.271a18.159 18.159 0 00-8.7-2.648 10.568 10.568 0 00-4.089.791l-.349.155-.344.172-.284.16a.268.268 0 00-.061.026l-5.717 3.305a.291.291 0 00-.047.034l-.274.156-.327.2-.306.209h-.006l.709-3.283a.285.285 0 00.006-.062l.011-.045a.3.3 0 00.007-.047l.011-.147.009-.143V11.369c-.182-2.85-3.573-3.949-5.668-3.972l-.119-.005h-.212z" fill="#007eff"/><path class="b" d="M45.126 240.945v4.726m-4.507 0v-2.124m4.507 2.124v3.749m-4.507 0v-3.749m4.508 0a1.12 1.12 0 01-.66.92 3.522 3.522 0 01-3.187 0 1.12 1.12 0 01-.66-.92m4.507 3.749a1.12 1.12 0 01-.66.92 3.523 3.523 0 01-3.187 0 1.12 1.12 0 01-.66-.92m4.506-1.204q.149.069.288.149a1.786 1.786 0 011.053 1.467v1.476m-7.189.001v-1.476a1.786 1.786 0 011.053-1.468q.139-.08.288-.15"/><path class="b" d="M46.468 249.824a1.786 1.786 0 01-1.053 1.468 5.619 5.619 0 01-5.084 0 1.791 1.791 0 01-1.053-1.459"/><path class="b" d="M46.468 251.309a1.786 1.786 0 01-1.053 1.467 5.618 5.618 0 01-5.084 0 1.791 1.791 0 01-1.053-1.459m78.517-52.333v4.726m-4.508 0v-2.124m4.508 2.124v3.749m-4.508 0v-3.749m4.509 0a1.12 1.12 0 01-.66.92 3.523 3.523 0 01-3.187 0 1.12 1.12 0 01-.66-.92m4.507 3.749a1.12 1.12 0 01-.66.92 3.523 3.523 0 01-3.187 0 1.12 1.12 0 01-.66-.92m4.506-1.205q.149.069.288.149a1.786 1.786 0 011.053 1.467v1.476m-7.19.002v-1.476a1.787 1.787 0 011.053-1.468q.139-.08.288-.149"/><path class="b" d="M119.136 207.863a1.786 1.786 0 01-1.053 1.471 5.618 5.618 0 01-5.084 0 1.791 1.791 0 01-1.053-1.459"/><path class="b" d="M119.136 209.348a1.786 1.786 0 01-1.053 1.467 5.618 5.618 0 01-5.084 0 1.791 1.791 0 01-1.053-1.459m42.707-31.361v4.726m-4.507 0v-2.124m4.508 2.124v3.749m-4.508 0v-3.749m4.507 0a1.12 1.12 0 01-.66.92 3.523 3.523 0 01-3.187 0 1.12 1.12 0 01-.66-.92m4.507 3.749a1.12 1.12 0 01-.66.92 3.522 3.522 0 01-3.187 0 1.12 1.12 0 01-.66-.92m4.508-1.204q.149.069.288.149a1.786 1.786 0 011.053 1.468v1.475m-7.19 0v-1.476a1.786 1.786 0 011.053-1.467q.139-.08.288-.149"/><path class="b" d="M155.995 186.874a1.786 1.786 0 01-1.053 1.468 5.618 5.618 0 01-5.084 0 1.791 1.791 0 01-1.053-1.459"/><path class="b" d="M155.995 188.359a1.786 1.786 0 01-1.053 1.468 5.618 5.618 0 01-5.084 0 1.791 1.791 0 01-1.053-1.459m78.044-52.289v4.726m-4.507 0v-2.124m4.507 2.124v3.749m-4.507 0v-3.749m4.507 0a1.12 1.12 0 01-.66.92 3.522 3.522 0 01-3.187 0 1.12 1.12 0 01-.66-.92m4.507 3.749a1.12 1.12 0 01-.66.92 3.522 3.522 0 01-3.187 0 1.12 1.12 0 01-.66-.92m4.508-1.204q.149.069.288.149a1.786 1.786 0 011.053 1.468v1.476m-7.19 0v-1.476a1.786 1.786 0 011.053-1.468q.139-.08.288-.149"/><path class="b" d="M228.191 144.958a1.786 1.786 0 01-1.052 1.468 5.618 5.618 0 01-5.084 0 1.791 1.791 0 01-1.053-1.459"/><path class="b" d="M228.191 146.443a1.786 1.786 0 01-1.052 1.468 5.619 5.619 0 01-5.084 0 1.791 1.791 0 01-1.053-1.459m42.087-31.263v4.726m-4.507 0v-2.124m4.507 2.124v3.749m-4.507 0v-3.749m4.507 0a1.12 1.12 0 01-.66.92 3.522 3.522 0 01-3.187 0 1.12 1.12 0 01-.66-.92m4.507 3.745a1.12 1.12 0 01-.66.92 3.522 3.522 0 01-3.187 0 1.12 1.12 0 01-.66-.92m4.508-1.201q.149.069.288.149a1.786 1.786 0 011.053 1.468v1.476m-7.19.001v-1.476a1.786 1.786 0 011.053-1.468q.139-.08.288-.149"/><path class="b" d="M264.431 124.068a1.786 1.786 0 01-1.053 1.468 5.618 5.618 0 01-5.084 0 1.792 1.792 0 01-1.053-1.459"/><path class="b" d="M264.431 125.552a1.786 1.786 0 01-1.053 1.467 5.618 5.618 0 01-5.084 0 1.792 1.792 0 01-1.053-1.459m-175.1 94.017v4.726m0 0v3.749m-3.653-2.733a3.548 3.548 0 002.993-.1 1.116 1.116 0 00.66-.919m-3.653 4.766a3.569 3.569 0 002.993-.1 1.123 1.123 0 00.66-.922m0-1.197q.149.07.288.15a1.786 1.786 0 011.053 1.468v1.476"/><path class="b" d="M78.488 230.367a5.652 5.652 0 003.941-.444 1.783 1.783 0 001.053-1.46v-.009m-4.994 3.398a5.653 5.653 0 003.941-.444 1.786 1.786 0 001.053-1.468"/><path class="l" d="M304.965 28.12v-1.051a7.769 7.769 0 013.507-6.079l.1-.059 9.4-5.426.084-.044c1.553-.537 3.51 2.852 2.265 3.926l-.078.051-9.4 5.426-.015.011a3.263 3.263 0 00-1.319 2.282v1.28l-.006.048v3.675c-.311 1.614-4.222 1.614-4.533 0v-4.04h-.005z"/><path class="a" d="M304.971 27.185l.005.094c.311 1.614 4.222 1.614 4.533 0l.005-.094m1.338-2.321l.079-.049c1.243-1.075-.714-4.463-2.266-3.925l-.084.044M20.018 176.307a.725.725 0 01-.269-.635 2.225 2.225 0 011.007-1.743.732.732 0 01.676-.089m.089.052l7.871 4.544m-7.931-4.579l.059.034m-.091-.053l.033.019m-1.455 2.448l7.963 4.598m3.776 2.18h-.005"/><path class="l" d="M34.887 184.512v5.78c-.2 1-2.635 1-2.836 0v-6.754l-.005-.015-.015-.041a.55.55 0 00-.048-.12l-.012-.024-.015-.024-.012-.024-.017-.024c-.022-.024-.052-.079-.076-.1l-.017-.017-.012-.016a.556.556 0 01-.048-.045l-.005-.005-4.024-2.324-.052-.036c-.768-.681.44-2.779 1.418-2.458l.055.027 4.025 2.325.052.027a3.664 3.664 0 011.667 2.889v.977"/><path class="a" d="M33.168 180.617l-.056-.028c-.977-.32-2.182 1.776-1.422 2.454l.056.036m.293.515v.064c.2 1 2.635 1 2.836 0v-.064"/><text class="m" transform="translate(24 15)"><tspan x="0" y="0"></tspan><tspan x="0" y="14"></tspan></text><text class="m" transform="translate(267 279.773)"><tspan x="0" y="0"></tspan><tspan x="0" y="14"></tspan></text><text class="m" transform="translate(87 279.773)"><tspan x="0" y="0"> </tspan><tspan x="0" y="14"></tspan></text><text class="m" transform="translate(178.5 15)"><tspan x="0" y="0"></tspan></text><text class="m" transform="translate(208 213.773)"><tspan x="0" y="15"> </tspan><tspan x="0" y="29"></tspan></text><path class="n" d="M19.5 171.773V6.373"/><circle cx="3.5" cy="3.5" r="3.5" transform="translate(16 171.774)"/><path class="n" d="M169.5 112.773V9.373"/><circle cx="3.5" cy="3.5" r="3.5" transform="translate(166 112.774)"/><path class="n" d="M81.5 200.342v92.184"/><circle cx="3.5" cy="3.5" r="3.5" transform="translate(78 194.342)"/><path class="n" d="M321.5 20.478v272.047"/><circle cx="3.5" cy="3.5" r="3.5" transform="translate(318 13.478)"/><path class="n" d="M203.5 140.127v103.192"/><circle cx="3.5" cy="3.5" r="3.5" transform="translate(200 134.127)"/></svg>