<svg xmlns="http://www.w3.org/2000/svg" xmlns:xlink="http://www.w3.org/1999/xlink" viewBox="0 0 195.48 169.55"><defs><linearGradient id="linear-gradient" x1="87.04" y1="20.93" x2="87.04" y2="9.75" gradientUnits="userSpaceOnUse"><stop offset="0" stop-color="#66abff"/><stop offset=".58" stop-color="#b2d5ff"/><stop offset="1" stop-color="#66abff"/></linearGradient><linearGradient id="linear-gradient-2" x1="46.42" y1="20.93" x2="46.42" y2="9.75" gradientUnits="userSpaceOnUse"><stop offset="0" stop-color="#99c7ff"/><stop offset=".47" stop-color="#cce3ff"/><stop offset="1" stop-color="#99c7ff"/></linearGradient><linearGradient id="linear-gradient-3" x1="78.67" y1="20.93" x2="78.67" y2="9.75" xlink:href="#linear-gradient-2"/><linearGradient id="linear-gradient-4" x1="37.86" y1="20.93" x2="37.86" y2="9.75" xlink:href="#linear-gradient"/><linearGradient id="linear-gradient-5" x1="97.74" y1="82.75" x2="97.74" y2="362.75" gradientUnits="userSpaceOnUse"><stop offset="0" stop-color="#cce3ff"/><stop offset=".8" stop-color="#0073ff"/></linearGradient><linearGradient id="linear-gradient-6" x1="8.68" y1="166.02" x2="21.32" y2="166.02" gradientUnits="userSpaceOnUse"><stop offset="0" stop-color="#cce3ff"/><stop offset=".5" stop-color="#66abff"/><stop offset="1" stop-color="#6fb0ff"/></linearGradient><linearGradient id="linear-gradient-7" x1="175.15" y1="166.02" x2="187.79" y2="166.02" xlink:href="#linear-gradient-6"/><linearGradient id="linear-gradient-8" x1="31.42" y1="114.16" x2="41.6" y2="114.16" xlink:href="#linear-gradient"/><linearGradient id="linear-gradient-9" x1="31.42" y1="87.25" x2="41.6" y2="87.25" xlink:href="#linear-gradient"/><linearGradient id="linear-gradient-10" x1="52.17" y1="110.75" x2="62.36" y2="110.75" xlink:href="#linear-gradient"/><linearGradient id="linear-gradient-11" x1="52.17" y1="80.41" x2="62.36" y2="80.41" xlink:href="#linear-gradient"/><linearGradient id="linear-gradient-12" x1="19.65" y1="99.48" x2="107.07" y2="99.48" gradientUnits="userSpaceOnUse"><stop offset="0" stop-color="#f0f7ff"/><stop offset="1" stop-color="#cce3ff"/></linearGradient><linearGradient id="linear-gradient-13" x1="19.65" y1="121.53" x2="107.07" y2="121.53" xlink:href="#linear-gradient-12"/><linearGradient id="linear-gradient-14" x1="111.07" y1="78.76" x2="177.51" y2="78.76" xlink:href="#linear-gradient-12"/><linearGradient id="linear-gradient-15" x1="144.29" y1="64.57" x2="144.29" y2="255.19" xlink:href="#linear-gradient-5"/><linearGradient id="linear-gradient-16" x1="93.34" y1="147.14" x2="97.48" y2="44.6" xlink:href="#linear-gradient-12"/><linearGradient id="linear-gradient-17" x1="93.74" y1="154.51" x2="93.74" y2="52.71" xlink:href="#linear-gradient-5"/><linearGradient id="linear-gradient-18" x1="93.74" y1="54.21" x2="93.74" y2="48.95" xlink:href="#linear-gradient-12"/><radialGradient id="radial-gradient" cx="19.52" cy="9.15" r="24.85" gradientUnits="userSpaceOnUse"><stop offset="0" stop-color="#cce3ff"/><stop offset="1" stop-color="#0073ff"/></radialGradient><radialGradient id="radial-gradient-2" cx="60.67" cy="9.15" r="24.85" gradientUnits="userSpaceOnUse"><stop offset="0" stop-color="#f2f8ff"/><stop offset="1" stop-color="#99c7ff"/></radialGradient><radialGradient id="radial-gradient-3" cx="97.41" cy="11.15" r="16.03" xlink:href="#radial-gradient"/><radialGradient id="radial-gradient-4" cx="86.08" cy="113.69" r="8.96" gradientUnits="userSpaceOnUse"><stop offset="0" stop-color="#e5f1ff"/><stop offset=".26" stop-color="#b2d5ff"/><stop offset="1" stop-color="#0073ff"/></radialGradient><radialGradient id="radial-gradient-5" cx="101.11" cy="119.36" r="5.87" xlink:href="#radial-gradient-4"/><radialGradient id="radial-gradient-6" cx="93.05" cy="130.56" r="5.36" xlink:href="#radial-gradient-4"/><style>.cls-13{stroke:#0073ff;stroke-width:2px}.cls-5{fill:#fff}.cls-13{stroke-linecap:round;stroke-linejoin:round;fill:none}</style></defs><g id="Layer_2" data-name="Layer 2"><g id="Layer_1-2" data-name="Layer 1"><path fill="url(#linear-gradient)" stroke-width="2" stroke-miterlimit="10" stroke="#0073ff" d="M82.76 8.74h8.56v12.31h-8.56z"/><path fill="url(#linear-gradient-2)" stroke="#66abff" stroke-width="2" stroke-miterlimit="10" d="M42.14 8.74h8.56v12.31h-8.56z"/><path fill="url(#linear-gradient-3)" stroke="#66abff" stroke-width="2" stroke-miterlimit="10" d="M74.39 8.74h8.56v12.31h-8.56z"/><circle cx="21.18" cy="14.79" r="13.79" fill="url(#radial-gradient)" stroke-width="2" stroke-miterlimit="10" stroke="#0073ff"/><path class="cls-5" d="M24.24 20.84l-5.73-7.26v7.26h-2.6V8.74h2.22L23.86 16V8.74h2.6v12.1z"/><circle cx="62.34" cy="14.79" r="13.79" fill="url(#radial-gradient-2)" stroke="#66abff" stroke-width="2" stroke-miterlimit="10"/><path d="M67.48 19.65a5.6 5.6 0 01-3.94 1.4 6 6 0 01-6.35-6.26 5.9 5.9 0 016.33-6.26 5.44 5.44 0 013.7 1.27L66 11.87a4.29 4.29 0 00-2.47-.74 3.33 3.33 0 00-3.39 3.66 3.5 3.5 0 003.67 3.66 4.39 4.39 0 002.62-.88z" fill="#0073ff"/><path fill="url(#linear-gradient-4)" stroke-width="2" stroke-miterlimit="10" stroke="#0073ff" d="M33.58 8.74h8.56v12.31h-8.56z"/><circle cx="98.48" cy="14.79" r="8.9" fill="url(#radial-gradient-3)" stroke-width="2" stroke-miterlimit="10" stroke="#0073ff"/><path class="cls-5" d="M99.9 15.55h-2.84v3.14h-1.79v-7.8h1.79v3h2.84v-3h1.79v7.8H99.9z"/><path fill="url(#linear-gradient-5)" stroke-linecap="round" stroke-linejoin="round" stroke-width="2" stroke="#0073ff" d="M1 143.22h193.48v20.27H1z"/><path fill="url(#linear-gradient-6)" stroke-linecap="round" stroke-linejoin="round" stroke-width="2" stroke="#0073ff" d="M8.48 163.49h12.04v5.06H8.48z"/><path fill="url(#linear-gradient-7)" stroke-linecap="round" stroke-linejoin="round" stroke-width="2" stroke="#0073ff" d="M174.95 163.49h12.04v5.06h-12.04z"/><path class="cls-13" d="M23.42 82.89v59.94M41.6 68.8v67.08c0 3.19-2.28 5.8-5.09 5.8s-5.09-2.61-5.09-5.8V68.8zm-12.59 0h15"/><path class="cls-13" d="M31.42 87.44a6.3 6.3 0 013.12-.79c1.87 0 2.07 1.19 3.93 1.19a6.81 6.81 0 003.13-.73"/><path d="M41.6 87.11v48.77c0 3.19-2.28 5.8-5.09 5.8s-5.09-2.61-5.09-5.8V87.44a6.3 6.3 0 013.12-.79c1.87 0 2.07 1.19 3.93 1.19a6.76 6.76 0 003.13-.73z" fill="url(#linear-gradient-8)" stroke-width="2" stroke-miterlimit="10" stroke="#0073ff"/><path d="M31.42 87.44a6.3 6.3 0 013.12-.79c1.87 0 2.07 1.19 3.93 1.19a6.76 6.76 0 003.13-.73" fill="url(#linear-gradient-9)" stroke-width="2" stroke-miterlimit="10" stroke="#0073ff"/><path d="M62.36 80.27v55.61c0 3.19-2.28 5.8-5.09 5.8s-5.1-2.61-5.1-5.8V80.6a6.36 6.36 0 013.12-.78c1.87 0 2.07 1.18 3.94 1.18a6.81 6.81 0 003.13-.73z" fill="url(#linear-gradient-10)" stroke-width="2" stroke-miterlimit="10" stroke="#0073ff"/><path d="M52.17 80.6a6.36 6.36 0 013.12-.78c1.87 0 2.07 1.18 3.94 1.18a6.81 6.81 0 003.13-.73" fill="url(#linear-gradient-11)" stroke-width="2" stroke-miterlimit="10" stroke="#0073ff"/><path class="cls-13" d="M62.36 68.8v67.08c0 3.19-2.28 5.8-5.1 5.8s-5.09-2.61-5.09-5.8V68.8zm-12.6 0h15"/><rect x="19.65" y="95.29" width="87.42" height="8.36" rx="4.18" fill="url(#linear-gradient-12)" stroke-width="2" stroke-miterlimit="10" stroke="#0073ff"/><rect x="19.65" y="117.34" width="87.42" height="8.36" rx="4.18" fill="url(#linear-gradient-13)" stroke-width="2" stroke-miterlimit="10" stroke="#0073ff"/><path d="M173.9 58.32L152.84 43V26.29h3.32a2.43 2.43 0 002.43-2.43v-6.64a2.43 2.43 0 00-2.43-2.43h-23.75a2.43 2.43 0 00-2.41 2.43v6.64a2.43 2.43 0 002.43 2.43h3.32V43l-21.08 15.32a8.74 8.74 0 00-3.6 7.08v71a6.28 6.28 0 006.28 6.28h53.88a6.28 6.28 0 006.28-6.28v-71a8.75 8.75 0 00-3.61-7.08z" fill="url(#linear-gradient-14)" stroke-width="2" stroke-miterlimit="10" stroke="#0073ff"/><rect x="122.01" y="71.24" width="44.55" height="52.35" rx="3.63" fill="url(#linear-gradient-15)" stroke-linecap="round" stroke-linejoin="round" stroke-width="2" stroke="#0073ff"/><path class="cls-13" d="M131.6 26.29h23.71"/><path d="M115.36 143H72.13a5.91 5.91 0 01-5.7-7.45L83 85.25v-24a8.89 8.89 0 00-.54-3.09l-1.72-4.06h26L105 58.15a9.13 9.13 0 00-.54 3.09v23l16.59 51.38a5.9 5.9 0 01-5.69 7.38z" fill="url(#linear-gradient-16)" stroke-width="2" stroke-miterlimit="10" stroke="#0073ff"/><path d="M76.89 103.79s1.42-1.79 7.56-1.79 10.13 4.25 16.59 4.25 10-1.57 10-1.57" fill="none" stroke-width="2" stroke-miterlimit="10" stroke="#0073ff"/><path d="M115.35 143H72.13a5.91 5.91 0 01-5.7-7.45l10.52-32a20.75 20.75 0 017.5-1.65c6.14 0 10.13 4.25 16.58 4.25a40.49 40.49 0 0010.08-1.43l10 30.82a5.91 5.91 0 01-5.76 7.46z" fill="url(#linear-gradient-17)" stroke-linecap="round" stroke-linejoin="round" stroke-width="2" stroke="#0073ff"/><circle cx="86.68" cy="115.72" r="4.97" fill="url(#radial-gradient-4)" stroke-width="2" stroke-miterlimit="10" stroke="#0073ff"/><circle cx="101.5" cy="120.69" r="3.26" fill="url(#radial-gradient-5)" stroke-width="2" stroke-miterlimit="10" stroke="#0073ff"/><circle cx="93.41" cy="131.78" r="2.97" fill="url(#radial-gradient-6)" stroke-width="2" stroke-miterlimit="10" stroke="#0073ff"/><rect x="78.17" y="49.52" width="31.13" height="4.57" rx="2.29" fill="url(#linear-gradient-18)" stroke-width="2" stroke-miterlimit="10" stroke="#0073ff"/></g></g></svg>