<svg xmlns="http://www.w3.org/2000/svg" xmlns:xlink="http://www.w3.org/1999/xlink" viewBox="0 0 195.48 169.55"><defs><style>.cls-1,.cls-10,.cls-11,.cls-12,.cls-13,.cls-14,.cls-15,.cls-16,.cls-17,.cls-18,.cls-19,.cls-20,.cls-21,.cls-22,.cls-23,.cls-24,.cls-25,.cls-26,.cls-27,.cls-28,.cls-4,.cls-8,.cls-9{stroke:#0073ff;}.cls-1,.cls-14,.cls-15,.cls-16,.cls-17,.cls-18,.cls-19,.cls-2,.cls-20,.cls-22,.cls-23,.cls-25,.cls-26,.cls-27,.cls-28,.cls-3,.cls-4,.cls-6,.cls-8,.cls-9{stroke-miterlimit:10;}.cls-1,.cls-10,.cls-11,.cls-12,.cls-13,.cls-14,.cls-15,.cls-16,.cls-17,.cls-18,.cls-19,.cls-2,.cls-20,.cls-21,.cls-22,.cls-23,.cls-24,.cls-25,.cls-26,.cls-27,.cls-28,.cls-3,.cls-4,.cls-6,.cls-8,.cls-9{stroke-width:2px;}.cls-1{fill:url(#linear-gradient);}.cls-2,.cls-3,.cls-6{stroke:#66abff;}.cls-2{fill:url(#linear-gradient-2);}.cls-3{fill:url(#linear-gradient-3);}.cls-4{fill:url(#radial-gradient);}.cls-5{fill:#fff;}.cls-6{fill:url(#radial-gradient-2);}.cls-7{fill:#0073ff;}.cls-8{fill:url(#linear-gradient-4);}.cls-9{fill:url(#radial-gradient-3);}.cls-10,.cls-11,.cls-12,.cls-13,.cls-21,.cls-24{stroke-linecap:round;stroke-linejoin:round;}.cls-10{fill:url(#linear-gradient-5);}.cls-11{fill:url(#linear-gradient-6);}.cls-12{fill:url(#linear-gradient-7);}.cls-13,.cls-23{fill:none;}.cls-14{fill:url(#linear-gradient-8);}.cls-15{fill:url(#linear-gradient-9);}.cls-16{fill:url(#linear-gradient-10);}.cls-17{fill:url(#linear-gradient-11);}.cls-18{fill:url(#linear-gradient-12);}.cls-19{fill:url(#linear-gradient-13);}.cls-20{fill:url(#linear-gradient-14);}.cls-21{fill:url(#linear-gradient-15);}.cls-22{fill:url(#linear-gradient-16);}.cls-24{fill:url(#linear-gradient-17);}.cls-25{fill:url(#radial-gradient-4);}.cls-26{fill:url(#radial-gradient-5);}.cls-27{fill:url(#radial-gradient-6);}.cls-28{fill:url(#linear-gradient-18);}</style><linearGradient id="linear-gradient" x1="87.04" y1="20.93" x2="87.04" y2="9.75" gradientUnits="userSpaceOnUse"><stop offset="0" stop-color="#66abff"/><stop offset="0.58" stop-color="#b2d5ff"/><stop offset="1" stop-color="#66abff"/></linearGradient><linearGradient id="linear-gradient-2" x1="46.42" y1="20.93" x2="46.42" y2="9.75" gradientUnits="userSpaceOnUse"><stop offset="0" stop-color="#99c7ff"/><stop offset="0.47" stop-color="#cce3ff"/><stop offset="1" stop-color="#99c7ff"/></linearGradient><linearGradient id="linear-gradient-3" x1="78.67" y1="20.93" x2="78.67" y2="9.75" xlink:href="#linear-gradient-2"/><radialGradient id="radial-gradient" cx="19.52" cy="9.15" r="24.85" gradientUnits="userSpaceOnUse"><stop offset="0" stop-color="#cce3ff"/><stop offset="1" stop-color="#0073ff"/></radialGradient><radialGradient id="radial-gradient-2" cx="60.67" cy="9.15" r="24.85" gradientUnits="userSpaceOnUse"><stop offset="0" stop-color="#f2f8ff"/><stop offset="1" stop-color="#99c7ff"/></radialGradient><linearGradient id="linear-gradient-4" x1="37.86" y1="20.93" x2="37.86" y2="9.75" xlink:href="#linear-gradient"/><radialGradient id="radial-gradient-3" cx="97.41" cy="11.15" r="16.03" xlink:href="#radial-gradient"/><linearGradient id="linear-gradient-5" x1="97.74" y1="82.75" x2="97.74" y2="362.75" gradientUnits="userSpaceOnUse"><stop offset="0" stop-color="#cce3ff"/><stop offset="0.8" stop-color="#0073ff"/></linearGradient><linearGradient id="linear-gradient-6" x1="8.68" y1="166.02" x2="21.32" y2="166.02" gradientUnits="userSpaceOnUse"><stop offset="0" stop-color="#cce3ff"/><stop offset="0.5" stop-color="#66abff"/><stop offset="1" stop-color="#6fb0ff"/></linearGradient><linearGradient id="linear-gradient-7" x1="175.15" y1="166.02" x2="187.79" y2="166.02" xlink:href="#linear-gradient-6"/><linearGradient id="linear-gradient-8" x1="31.42" y1="114.16" x2="41.6" y2="114.16" xlink:href="#linear-gradient"/><linearGradient id="linear-gradient-9" x1="31.42" y1="87.25" x2="41.6" y2="87.25" xlink:href="#linear-gradient"/><linearGradient id="linear-gradient-10" x1="52.17" y1="110.75" x2="62.36" y2="110.75" xlink:href="#linear-gradient"/><linearGradient id="linear-gradient-11" x1="52.17" y1="80.41" x2="62.36" y2="80.41" xlink:href="#linear-gradient"/><linearGradient id="linear-gradient-12" x1="19.65" y1="99.48" x2="107.07" y2="99.48" gradientUnits="userSpaceOnUse"><stop offset="0" stop-color="#f0f7ff"/><stop offset="1" stop-color="#cce3ff"/></linearGradient><linearGradient id="linear-gradient-13" x1="19.65" y1="121.53" x2="107.07" y2="121.53" xlink:href="#linear-gradient-12"/><linearGradient id="linear-gradient-14" x1="111.07" y1="78.76" x2="177.51" y2="78.76" xlink:href="#linear-gradient-12"/><linearGradient id="linear-gradient-15" x1="144.29" y1="64.57" x2="144.29" y2="255.19" xlink:href="#linear-gradient-5"/><linearGradient id="linear-gradient-16" x1="93.34" y1="147.14" x2="97.48" y2="44.6" xlink:href="#linear-gradient-12"/><linearGradient id="linear-gradient-17" x1="93.74" y1="154.51" x2="93.74" y2="52.71" xlink:href="#linear-gradient-5"/><radialGradient id="radial-gradient-4" cx="86.08" cy="113.69" r="8.96" gradientUnits="userSpaceOnUse"><stop offset="0" stop-color="#e5f1ff"/><stop offset="0.26" stop-color="#b2d5ff"/><stop offset="1" stop-color="#0073ff"/></radialGradient><radialGradient id="radial-gradient-5" cx="101.11" cy="119.36" r="5.87" xlink:href="#radial-gradient-4"/><radialGradient id="radial-gradient-6" cx="93.05" cy="130.56" r="5.36" xlink:href="#radial-gradient-4"/><linearGradient id="linear-gradient-18" x1="93.74" y1="54.21" x2="93.74" y2="48.95" xlink:href="#linear-gradient-12"/></defs><g id="Layer_2" data-name="Layer 2"><g id="Layer_1-2" data-name="Layer 1"><rect class="cls-1" x="82.76" y="8.74" width="8.56" height="12.31"/><rect class="cls-2" x="42.14" y="8.74" width="8.56" height="12.31"/><rect class="cls-3" x="74.39" y="8.74" width="8.56" height="12.31"/><circle class="cls-4" cx="21.18" cy="14.79" r="13.79"/><path class="cls-5" d="M24.24,20.84l-5.73-7.26v7.26h-2.6V8.74h2.22L23.86,16V8.74h2.6v12.1Z"/><circle class="cls-6" cx="62.34" cy="14.79" r="13.79"/><path class="cls-7" d="M67.48,19.65a5.6,5.6,0,0,1-3.94,1.4,6,6,0,0,1-6.35-6.26,5.9,5.9,0,0,1,6.33-6.26,5.44,5.44,0,0,1,3.7,1.27L66,11.87a4.29,4.29,0,0,0-2.47-.74,3.33,3.33,0,0,0-3.39,3.66,3.5,3.5,0,0,0,3.67,3.66,4.39,4.39,0,0,0,2.62-.88Z"/><rect class="cls-8" x="33.58" y="8.74" width="8.56" height="12.31"/><circle class="cls-9" cx="98.48" cy="14.79" r="8.9"/><path class="cls-5" d="M99.9,15.55H97.06v3.14H95.27v-7.8h1.79v3H99.9v-3h1.79v7.8H99.9Z"/><rect class="cls-10" x="1" y="143.22" width="193.48" height="20.27"/><rect class="cls-11" x="8.48" y="163.49" width="12.04" height="5.06"/><rect class="cls-12" x="174.95" y="163.49" width="12.04" height="5.06"/><line class="cls-13" x1="23.42" y1="82.89" x2="23.42" y2="142.83"/><path class="cls-13" d="M41.6,68.8v67.08c0,3.19-2.28,5.8-5.09,5.8s-5.09-2.61-5.09-5.8V68.8Z"/><line class="cls-13" x1="29.01" y1="68.8" x2="44.01" y2="68.8"/><path class="cls-13" d="M31.42,87.44a6.3,6.3,0,0,1,3.12-.79c1.87,0,2.07,1.19,3.93,1.19a6.81,6.81,0,0,0,3.13-.73"/><path class="cls-14" d="M41.6,87.11v48.77c0,3.19-2.28,5.8-5.09,5.8s-5.09-2.61-5.09-5.8V87.44a6.3,6.3,0,0,1,3.12-.79c1.87,0,2.07,1.19,3.93,1.19A6.76,6.76,0,0,0,41.6,87.11Z"/><path class="cls-15" d="M31.42,87.44a6.3,6.3,0,0,1,3.12-.79c1.87,0,2.07,1.19,3.93,1.19a6.76,6.76,0,0,0,3.13-.73"/><path class="cls-16" d="M62.36,80.27v55.61c0,3.19-2.28,5.8-5.09,5.8s-5.1-2.61-5.1-5.8V80.6a6.36,6.36,0,0,1,3.12-.78c1.87,0,2.07,1.18,3.94,1.18A6.81,6.81,0,0,0,62.36,80.27Z"/><path class="cls-17" d="M52.17,80.6a6.36,6.36,0,0,1,3.12-.78c1.87,0,2.07,1.18,3.94,1.18a6.81,6.81,0,0,0,3.13-.73"/><path class="cls-13" d="M62.36,68.8v67.08c0,3.19-2.28,5.8-5.1,5.8s-5.09-2.61-5.09-5.8V68.8Z"/><line class="cls-13" x1="49.76" y1="68.8" x2="64.76" y2="68.8"/><rect class="cls-18" x="19.65" y="95.29" width="87.42" height="8.36" rx="4.18"/><rect class="cls-19" x="19.65" y="117.34" width="87.42" height="8.36" rx="4.18"/><path class="cls-20" d="M173.9,58.32,152.84,43V26.29h3.32a2.43,2.43,0,0,0,2.43-2.43V17.22a2.43,2.43,0,0,0-2.43-2.43H132.41A2.43,2.43,0,0,0,130,17.22v6.64a2.43,2.43,0,0,0,2.43,2.43h3.32V43L114.67,58.32a8.74,8.74,0,0,0-3.6,7.08v71a6.28,6.28,0,0,0,6.28,6.28h53.88a6.28,6.28,0,0,0,6.28-6.28v-71A8.75,8.75,0,0,0,173.9,58.32Z"/><rect class="cls-21" x="122.01" y="71.24" width="44.55" height="52.35" rx="3.63"/><line class="cls-13" x1="131.6" y1="26.29" x2="155.31" y2="26.29"/><path class="cls-22" d="M115.36,143H72.13a5.91,5.91,0,0,1-5.7-7.45L83,85.25v-24a8.89,8.89,0,0,0-.54-3.09l-1.72-4.06h26L105,58.15a9.13,9.13,0,0,0-.54,3.09v23l16.59,51.38A5.9,5.9,0,0,1,115.36,143Z"/><path class="cls-23" d="M76.89,103.79S78.31,102,84.45,102s10.13,4.25,16.59,4.25,10-1.57,10-1.57"/><path class="cls-24" d="M115.35,143H72.13a5.91,5.91,0,0,1-5.7-7.45l10.52-32a20.75,20.75,0,0,1,7.5-1.65c6.14,0,10.13,4.25,16.58,4.25a40.49,40.49,0,0,0,10.08-1.43l10,30.82A5.91,5.91,0,0,1,115.35,143Z"/><circle class="cls-25" cx="86.68" cy="115.72" r="4.97"/><circle class="cls-26" cx="101.5" cy="120.69" r="3.26"/><circle class="cls-27" cx="93.41" cy="131.78" r="2.97"/><rect class="cls-28" x="78.17" y="49.52" width="31.13" height="4.57" rx="2.29"/></g></g></svg>