<svg version="1.1" id="Layer_1" xmlns="http://www.w3.org/2000/svg" x="0" y="0" viewBox="0 0 1624.9 980" xml:space="preserve"><style>.st1{fill:#e5f1ff}.st3{fill:none;stroke:#0073ff;stroke-width:2;stroke-miterlimit:10}.st4,.st6{fill:#0073ff}.st6{stroke:#0073ff;stroke-miterlimit:10}.st7{fill:#fff}</style><g id="Layer_1_2_"><path d="M706.9 846.1l-2-5.2-8.3 5.4-4-4.1-8.7-1.1-1.1-8.8-8.5-3.8-1.8-9.4-.2-.3-4.7-7.9-5.3-1.8-10.5 5.1-15.4-6.7-1.9-6.6-3.2-1-3.8 6.7-7.8 1.9-18-58.7-13.2-17.9 3.9-4.9-11.3.8-10.9 3-3.5 3.6-5 1.6-5.3-2.3-6.5 2.7-.5-5.8 5-4.9-3.5-3.3-3.7-.6-6.1.3-1.1-5.9-11-1.5-1.8-5.3 4.5-6.2-1.9-4.4 2.1-2.9-.7-5.4-3.7-.7h-.2l-5.2-.3-6.7-9.2-6.8.7-.3.2-8.5 4.9-24.6-2.4-7-2.9-4.5 4.3-9-4.5-14.6-2h-.6l-14.1.4-7.1-6.3-3.4 1.3-3.8 4.8 2.4 6.2 5.3 7.2-4.3 4.8-6.7-4.3-4.2.2-3.7 2.5-.1 7.2-9.9 1.7-2.3 3.7 9 15.7-3.9 6.8-4.3 3.9-10.5-2.4-2.7-4.3-2.3-.5-3.6 2.6-4.6-1.1-5.4-5-1.5-4.4.3-6.7-4.1-2c0 .2.1.4.1.5-.1-.2-.2-.4-.2-.6l-.1-.1-3.2-2.6-2.7 3.5-4.9-.3-2.5-3.5-.1-3.4-7.6-2.5-3.8.1-4.6 3.7-5-3-1.9-6.7-1.8-3.1-1.7-.3-6 4.4-3.5-5.6 1.8-5.9-2.7-8.4-2.5-6.4-5-1.2-2.6-2.5 1.4-3.9-.1-2.7-4.3-1.6-2 2.2-4.5 1.4-4.2-8-.2-5.4-.3-.1-2.9.9-5.7 2.1-8.3 1.3-2.4-1.6-2.3.4-4.1 4-7.9-.8-2.5 3.3-2.3 6-6.4 3.7-4-5.9 1-4.5V653l-4.9-3.9-2.7 1.1-7.6 2.7-6.5 4.4-.7 6.8-9.4 4.1-3.8 2.1-1.7 1.1 6.4 7.4-6.4 7.1-.3 3.1 4.9.7 4.5 5.1-2 24.2-4.9 1.4 2 6.6 2.7 1 24.4 1.6 5.6 8 10.6.2 3.4 6.7-2.8 1.5-3.4 2.7-.3 3.2-1.3 3.6-13.3 7.9 1.2 4.2 3.3 4.3-6.8-2.7-4-5.6-5-1.5-3.1-2.8-2.4-1.2-10.4 1.8-.4.2v.7l1.3 4.6-.7.1-.9.4-5.7 1.2-1.8-.9-2.8-3-.4-.3-.9-.4-.8-.1-6.6 1.2 3.4 10.1 1.9 14.3-.6.6-3.8 6.5-.4.4-.3.4v.4l5.1 3.4.2.8-.8 5.9.2.2 8.7 6.5.3.6-4.3 6.6h-.4l-2.3 1-2.4 1.9.1 2.2-.3 2.1-.2.5.1.3 30.8 9.4 2 12.7-.3 10.3.5.1 8.1 6.3.4-2.2 31-67.6 41.6 5.2-.1.1 1.5 4.8.3.5 1 .3 13.1-4 .9.5 1.5 4.3.3.1.5-.3 10.4-.7 1.8.4 4.1 4 .9.4.7.7-7.3 5.3 2.2 10.5.1.2v.5l.2.5.5 3-9.3 9.5 12.3 27.3 41.4 17.1 7.8 18.5-2 6-6.1 11.1 4.4 4.9 4.6 8.5.2 9.1 14.8 9.7 3.1 9.4 3.5-2.1.9-1.3 8.9-5.8 22-7 12.2-.6.9.4 2.3-4.8 5.2-6.4 11.4.2 9.6 5.3 9.9 8.5 5.2-5.4.9-2.2L504 938l9.8 9 10.6 4.8 38.3 8.5 17.5 8.2 12.5 9.9.3-6.5 2.3-4.2 2.8-.3 1.1.1.4-.2-.5-.8.6-4.2 3.4-.5 1.2-2.8-2-13.8.3-5.6-.7-5.2 3-6.8-3.6-1.1-2.8-.1-2.4-2.1.7-2.6 3.9-1.7 22.1-2.2 5.9 1 1.3 1.5 2 1.4 3.4.2 1.8 1.3 1.3-.2.4-4.2-1.4-2.1-.9-5.6 16.5-29.5 3.9.7 3.2 2.4 6.1 2.8 7 .1 4 3.4 4.3-1.2 3.1-1.6.9-.2 3.4-1.9.9-5.3-1.1-11.6 6.7-9 9.5-1.9 3.7-10.1.8-.4-2.6-1.7z" fill="#f2f8ff"/><path class="st1" d="M384.4 496.2l-.3.3c0 .1-.1.2-.1.2l-12.5 16.9 1.6 3c.1.1.1.2.1.4l1 10.3 2.4 1.6 5.1-6.8.2-.2v-.1l.2-.3.3.1h.3l18.1 5.1 5.8-3.3h.2v-.1l2.6-8.5c0-.1.1-.1.1-.2v-.1l.1-.3h.5c.1 0 .1-.1.2-.1h11.4c.1 0 .2 0 .3.1.1 0 .2.1.3.2l9.5 8.9 9.8 4h.1l13.7.3 4.8-3.2c.1 0 .1-.1.2-.1l.1-.1.3-.2.3.2.1.1c.1 0 .1 0 .2.1l15.3 10.4 8.7.4c.1 0 .2 0 .2.1l2-4.2c0-.1.1-.2.2-.2l.2-.5v-.2l11.2-24c0-.1.1-.2.2-.3l11-11.8 1.2-6.6c0-.1.1-.1.1-.2v-.1c0-.1.1-.1.1-.2l10.5-11.3c.1-.1.2-.1.3-.2l.2-.2.4-.4.3.4.2.2c.1.1.2.1.2.2l2.5 3.2 6.6-1 7.1-7.6c.2-.2.4-.3.6-.3l5.5-.6h.6c.1-.1.2-.1.3-.1l5.5-.6 8-8s.1 0 .2-.1l.1-.1h.1c.1 0 .1-.1.2-.1l17.1-2.3 4-5.6c.1-.1.1-.1.2-.1.1-.1.1-.1.2-.1l6.5-2.9 3.5-6.6-3.4-8.3c0-.1-.1-.2-.1-.3v-.2c0-.1 0-.2.1-.3l2.5-5.7-3.3-.3-1.7 3.2c0 .1-.1.1-.2.2l-.1.2h-.3c-.1 0-.2.1-.2.1l-3.8.4-4.7 5.2c-.1.1-.2.1-.3.2l-.1.1h-.5l-6.2-.9-4.2 5.9c-.1.1-.1.2-.2.2l-.1.1h-.1c-.1 0-.2.1-.3.1l-14 2.4h-.4l-.1-.1c-.1 0-.2 0-.2-.1l-66.5-38.8-5.7 2.4c-.1.1-.3.1-.4.1l-27.2-.4-8.1 12.8 3.5 4.5c0 .1.1.1.1.2l.2.2-.1.3v.2l-1.6 3.8 2 5.9v.2l.1.2.1.3-.3.2-.1.1s-.1.1-.1.2l-5.1 3.6c-.1 0-.1 0-.2.1h-.1l-.2.2-.3-.1c-.1 0-.2 0-.3-.1l-7.9-4.1-6.9.9h-.3l-.4.1-.1-.4-.1-.2c0-.1-.1-.1-.1-.2l-1.6-5-19.8-12.5-1.7 3.2 5.8 7.8c.1.1.1.2.1.3v.4l-.9 7c0 .1 0 .1-.1.2v.2c0 .1 0 .1-.1.2l-3.9 4.7 2.2 3.1c.1.1.1.3.2.4l.6 3.1v.5l.1.5-.5.1h-.2c-.1 0-.2.1-.3.1l-6.7.9-5 8 .1 4.5 7 2.2 2.5-3.6c0-.1.1-.1.2-.1s.1-.1.2-.1l5.9-2.6c.1 0 .2-.1.3-.1h.1l.4-.2.2.3.1.1.2.2 4.4 7.1c.1.1.1.2.1.3l.2.3-.3.3c-.1.1-.1.2-.2.3l-13.7 13.2.3 6.4c0 .1 0 .2-.1.3v.2l-.1.1c0 .1-.1.2-.2.2l-4.6 4.2c-.1.1-.2.1-.3.2l-.2.1-.2-.1h-.3l-6.6-2-3.8 3.7c.1.4 0 .4-.1.5z" transform="translate(-17.714 -16.338)"/><path d="M1411 699.7l-.5-30-4.2-9-17.4-28.5-5.3-5.4-6.2-20.6-3.6-6.7-1.1-1-11.4-3.5-4.2-4.2 2.7-6.9-8.4-2.5-17.2-1.5-12.5 8-2.7 20.4-6.2-6.6-5.6 8.7-6.7-14.9-10.5 7.8-9.5-.7-.3-8.9 9.3-31.4.2-30.6 2.2-15-4.1-11.8 3-11.2-2.8-11.5 23.2-27.4 8.2.8.5-3.1-2.6-3.3 3.3-2.6-5.1-7.2-8.7.8-6.5 5.8c-.1.1-.2.1-.3.2l-.2.1-.4.4-.3-.5-.1-.2c-.1-.1-.2-.1-.2-.2l-3.8-6.1c0-.1-.1-.2-.1-.3l-.1-.2.1-.2v-.2l3.5-8-2.8-9.3-17.9-4.2-7.2 5.8c-.1.1-.2.1-.3.1v.1l-1.2 6.9c0 .1-.1.1-.1.2v.1l-.1.3-.3.1h-.1c-.1 0-.1.1-.2.1l-10 2.4-2.5 5.4c0 .1-.1.2-.2.2l-.1.1h-.1c-.1.1-.2.1-.3.1l-8.6 2.7c-.2.1-.4.1-.5 0l-13.9-3.4-3.1 5 8.7 18v.2l.1.1v.3l-3.4 18.2 8 4.6c.1 0 .1.1.1.1l.1.1.1.1c0 .1.1.1.1.1l5.6 14.6c0 .1.1.2.1.4l.1.4-.3.2c-.1.1-.2.2-.3.2l-5 2.9 1 7.1v.4l-2 7.4c0 .1-.1.1-.1.2v.1l-.1.3-.3.1h-.1c-.1 0-.1.1-.2.1l-11.1 1.8v8.5c0 .1 0 .1-.1.2v.4l-.3.1h-.1c-.1 0-.1.1-.2.1l-18.6 9.1 2.1 22.5c0 .2 0 .5-.2.7l-3.8 5.4 10.1 5.7c.1.1.2.1.3.2h.1l.4.2-.2.4v.1c0 .1 0 .2-.1.3l-4.2 10.4 10.4 5.5c.1 0 .1.1.1.1h.1v.1c0 .1.1.1.1.1l2.7 5.3v.3l.1.3-.2.2v.1c0 .1 0 .1-.1.2l-4.6 6 4.8 10.4 14.7-9.5c.1 0 .1-.1.2-.1l.1-.1.3-.2.3.2c.1 0 .2.1.3.2l5.2 4.7c.1 0 .1.1.1.2l.1.1.2.2-.1.3v.3l-6.1 17.3 1.5 7.7v.3l.1.3-.2.2-.1.1c0 .1-.1.1-.1.2l-5.3 3.7 1 6.5 12.7-1.2h.5l.1.2c.1 0 .2.1.2.2l6.6 8.1 6.4-1 9.7-10.8 1-7c0-.1.1-.2.1-.3v-.4h.4c.1 0 .2-.1.3-.1l7.6-.7 1.9-4.8c0-.1.1-.1.1-.2l.1-.1.1-.3h.7l5.1.3c.1 0 .1 0 .2.1h.4l.1.3v.1c.1.1.1.1.1.2l6.5 15.1v.3l.1.3-.2.2v.1c0 .1-.1.1-.1.2l-2.9 3.5s-.1.1-.2.1l-.1.1h-.1c-.1 0-.1.1-.2.1l-12.5 3.2 3.6 6.2v.2l.1.1.2.3-.2.3-.1.1c0 .1 0 .1-.1.2l-4.4 5.8-.6 7.2c0 .1 0 .2-.1.2 0 .1 0 .2-.1.2l-6.7 9.4 3.3 3.5c0 .1.1.1.1.2l.1.1.2.3-.2.3-.1.1v.2l-4.3 7 .8 8.2 14.2 5.5c.2.1.3.2.4.3l12.3 14.1 6.1-7c.1-.1.2-.2.3-.2h.1c.1 0 .2-.1.3-.1l14.4-1.1h.4l.1.1c.1 0 .1 0 .2.1l6.9 4.6 18.3-8.1c.1 0 .2-.1.3-.1l.5-.2.8-.3-.1.9-.1.6v.3l-1.2 7.6v.1l7.7 10.3-1.8 8.3 5.2 11.3 6.9-2.2-3.2-5.1c0-.1-.1-.2-.1-.2v-.1l-.1-.3.2-.2c0-.1 0-.2.1-.2l3.4-5.4.2-.2.1-.1h.1c.1 0 .2-.1.3-.1l15.1-2.4 8.4-6.8-1.8-8.7v-.5l-.1-.5.5-.1h.2c.1 0 .2-.1.3-.1l6-.8.7-13.4-8.7.1c-.1 0-.2 0-.3-.1-.1 0-.2-.1-.3-.2l-6.3-5.7-.2-.2-.2-.2-.4-.4.4-.3.1-.1c0-.1.1-.2.2-.3l9-8.1c.1-.1.2-.1.3-.2l.3-.2.3.2.1.1c.1 0 .2 0 .2.1l9.2 5.4c.1.1.2.1.2.2h.1v.1c.1.1.1.2.1.3l1.8 5.9 5.6.8z" fill="#99c7ff" transform="translate(-17.714 -16.338)"/><path class="st1" d="M1270 422.2l7.2-5.8c.1-.1.2-.1.3-.2l.1-.1h.4l17.9 4.2c.1 0 .2.1.2.1l.3.1.1.3v.1c0 .1.1.1.1.2l2.8 9.3c.1.2.1.5 0 .7l-3.5 7.9 3.8 6 6.4-5.7c.1 0 .1 0 .2-.1l.1-.1h.1c.1 0 .1-.1.2-.1l8.7-.8h.6l.1.2.2.2 5.1 7.2 6.3-5 4.2-4.2 6.2-2.1-3.2-12.7 10.8-4.6 7.9-8.4 7.8-1-5 8.9 6 4.3 7.2-9.8.7-14.6 7.1-3.5 5.1-8.1-6.5-4-4.7 7.1-6-4.8-3.9-25.9-6.2-15 .5-11.5 8.1-14.3 5.3-.7 1.8-7.8 12.2 13.9 7.5-2v-5.6l-2.8-11.2-2.7-7.8c-.1 0-.2 0-.3-.1l-7.2-3.2c-.1 0-.2-.1-.2-.2l-.1-.1v-.2c-.1-.1-.1-.2-.1-.2l-2-6.9-5.1-3.9-7.1 1.3h-.4l-.4.1-.2-.3-.1-.1c0-.1-.1-.1-.1-.2l-5.4-11.1-6.4-.7c-.1 0-.2-.1-.3-.1-.1-.1-.2-.1-.3-.2l-11.6-13.9-6.5 8.2c-.1.1-.2.2-.3.2-.1.1-.2.1-.3.1l-9.8 1.6-5.8 6.3c-.1.1-.2.1-.3.2l-.2.2-.2-.1h-.3l-8.6-1.9-8.5 5.1c-.1 0-.1.1-.2.1l-.2.1-.4.2-.3-.4-.1-.1c-.1-.1-.2-.1-.2-.2l-4.9-7.1-5.9-.3 4.4 7.3c0 .1.1.2.1.2l.1.2-.1.2c0 .1 0 .2-.1.2l-3.8 6.8c0 .1-.1.1-.2.2v.1h-.1c-.1 0-.1.1-.2.2l-5.6 2.9-11.5 12.7 5.6 5.5c.1.1.1.2.2.3l.1.1.3.3-.3.3-.1.1c0 .1-.1.2-.2.3l-4.2 4.7 4.4 5.5c0 .1.1.1.1.2s.1.1.1.2l1 7 6.9 5.1.2.2.2.1v.2c0 .1.1.2.1.3v11.3c0 .1-.1.1-.1.2v.1l-.1.1c0 .1 0 .1-.1.2l-5.2 7c-.1.1-.2.2-.3.2-.1.1-.2.1-.3.1l-9.8 1.9-9.9 11.2 4.9 7.7c.1.1.1.2.1.3v.1l.2.3-.3.3h-.1c-.1.1-.1.2-.2.3l-10.7 9.2-.9 8.6 20.6 34.1z" transform="translate(-17.714 -16.338)"/><path class="st1" d="M934.3 338.6l-1 5.4-2.2-7.7-4.6-3.4-4.6 5.8-6.7 4.1v.3c0 .1.1.1.1.2l.1 4.3 3.6 4c.1.1.2.2.2.4l2.2 7.5 12.1 14.2c0 .1 0 .1.1.2l.1.1v.1c0 .1.1.1.1.2l.9 9.8 5.8 5.8c.1.1.1.2.2.3l.1.1.3.3-.3.3-.1.1c0 .1-.1.2-.2.3l-11.3 10.8-.2 5.7c0 .2 0 .3-.1.4l-2.5 4.6-1.2 10.6c0 .1 0 .2-.1.3v.1l-.1.4h-.5c-.1 0-.2.1-.3.1l-5.8-.1-9.2 9c-.1 0-.1.1-.2.1l-3.1 2 8.9 11.3c.1.1.2.3.2.5l5.8 33.3v.5c0 .1-.1.2-.1.3l-6.1 8.1 4.6 2.9c.1 0 .1.1.2.2h.1l.3.2v.6l-1 8.8 4.3 3.9c.2.2.3.4.3.7l.6 6.1 4.8 2.7c.1.1.2.1.3.2l.3.2-.1.4v.3l-1.6 5.9c0 .1-.1.2-.1.3l-6.4 9.3-.1 6.2 11.6-1.1h.3l.1.1c.1 0 .1 0 .2.1l5.3 3.4 4.8-3.9s.1 0 .2-.1l.2-.2.3-.3.3.3.1.1c.1 0 .2.1.3.2l2.9 3c.1.1.1.2.2.3l.3.3c.1 0 .1.1.2.2l4.1 5.2c.1.1.1.2.1.3l.1.1.3.4-.4.3-.1.1c-.1.1-.1.2-.2.3l-3.9 3 .5 5.3 5-.1 3.5-3c.1-.1.2-.1.3-.2l.1-.1.4-.3.3.4.1.2c.1.1.2.1.2.2l5.8 9c.1.1.1.3.2.5l.7 11.8 6.7 3c.1 0 .1.1.1.1l.1.1.3.1v.8l-1.8 12.4 4.5 8 8.2 1.7c.1 0 .2.1.3.1l.2.1.5.1-.6.5-.1.2v.3l-4.9 15.3.5 18.9 7.1 6.3 6.4-5.9c.1 0 .1-.1.2-.1l.1-.1h.1c.1 0 .1-.1.2-.1l10.4-1.4 2.9-6.5c0-.1.1-.1.2-.2l.2-.3.3-.6.5.4.2.2c.1 0 .2.1.3.2l5.7 4.8 6.6-9.3 9.3-26c0-.1.1-.2.1-.2l.1-.2.2-.1c.1-.1.2-.1.2-.1l7.3-1.9h.5l15.5 4.6c.1 0 .2.1.3.1h.1l.1.1c.1.1.1.2.2.2l4.1 9.4 8.4-4.8c.1 0 .2-.1.2-.1l.2-.1.2.1c.1 0 .2 0 .2.1l5.7 3.2c.1 0 .1.1.2.2l.2.2 12 21.6c0 .1.1.2.1.2l.2.4c.1 0 .1.1.2.2l15.4 23.2s0-.1.1-.1l7.7-6.1c.1 0 .1-.1.2-.1l8.1-4.1c.1 0 .2-.1.3-.1l.2-.1.2.1.1.1c.1 0 .1 0 .2.1l6.9 4.6 3-3.2.2-.2.1-.1.3-.3.3.3.2.2c.1 0 .1 0 .2.1l5.4 4.1 4.3-5.1.2-.2.1-.1h.1c.1 0 .2-.1.3-.1l11.9-.7h.1c.1 0 .1 0 .2.1h.2c.1 0 .1 0 .2.1l8 5.1 14.2-6.8c.1 0 .2-.1.3-.1l.2-.1.2.2c.1 0 .1 0 .2.1l5.1 3.5 19.6-11.3c.1 0 .2-.1.2-.1h.5l5.9.7 6.2-3-1.2-4.4v-.3l-.1-.3.3-.2.1-.1.1-.1 14.9-9.6v-.1l-4.9-10.5v-.3l-.1-.3.2-.2c0-.1.1-.2.1-.2l4.6-6-2.7-5.3-10.4-5.5c-.1-.1-.2-.1-.3-.2h-.1l-.4-.2.2-.4v-.1c0-.1 0-.2.1-.4l4.2-10.4-10.1-5.7c-.1-.1-.2-.1-.2-.2l-.2-.1-.5-.3.3-.4.1-.2c0-.1.1-.2.1-.3l3.8-5.4-2.1-22.5v-.6l.3-.1.1-.1c.1 0 .1-.1.1-.1l18.6-9.1v-8.5c0-.1 0-.2.1-.3v-.5l.4-.1h.1c.1-.1.2-.1.3-.1l11.1-1.8 2-7.4-1-7.1v-.6l.3-.2.1-.1c.1-.1.1-.1.1-.2l5-2.9-5.6-14.5-8-4.6c-.1 0-.1-.1-.1-.2l-.1-.1-.3-.2.1-.3v-.3l3.4-18.3-8.7-18c0-.1 0-.2-.1-.3l-.1-.2.1-.2c0-.1 0-.2.1-.3l3.2-5 .2-.2.1-.1.2-.3.3.1h.3l13.9 3.4 8.6-2.7 2.5-5.4c0-.1.1-.1.2-.2l.1-.2h.2c.1-.1.2-.1.3-.1l10-2.4 1.2-6.8v-.1l-.2-.2-20.4-34v-.2l-.1-.1v-.3l.9-8.6c0-.1 0-.2.1-.3.1-.1.1-.2.2-.3l10.7-9.1-4.9-7.7v-.2l-.1-.1-.2-.3.2-.3.1-.1c0-.1 0-.1.1-.2l9.9-11.2s.1-.1.2-.1l.1-.1h.1c.1 0 .1-.1.2-.1l9.7-1.9 5.1-6.9v-11.3l-6.9-5.1-.2-.2h-.1v-.1c-.1-.1-.1-.2-.1-.3l-1-7-4.5-5.5c-.1-.1-.1-.2-.2-.3l-.2-.3.3-.3c0-.1.1-.2.2-.3l4.2-4.7-5.6-5.5c-.1-.1-.2-.2-.2-.3l-.1-.1-.3-.3.3-.3.1-.1c0-.1.1-.2.2-.3l11.6-12.8c.1-.1.2-.2.3-.2l5.5-2.9 3.7-6.7-4.4-7.4c0-.1-.1-.2-.1-.2l-.3-.6-.2-.2-4.7-7.9-10.1.9h-.1c-.1 0-.2 0-.3-.1l-8.1-2.7c-.1 0-.2-.1-.3-.2h-.1v-.1c-.1-.1-.1-.2-.2-.3l-5-10.1v-.3l-.1-.3.2-.2c0-.1 0-.2.1-.2l14.5-20.5-.9-9.4-23-14.1-2.1 5.2-13.2 9.1-11-8.7-10.2-.1-13.5 10.7-8.7 13-2.4 12.7-6.4 2.6-8.5-3.3-7.8 1.5-3.6 5.7-3.8-2.7-3 3.8-4.4-3.4 5.3-6.3-13.7.2-7.2 7.5 5.6 14.3-7.1 8.3-1-11.4-5.3.5-4.9 5.3-1.8-5.7 7.2-7.8-8.3 1.3-23.6 14.9 5.3 5.4-6.4 7.5 3.2 4.8 4.8-3 1.2 7.3 6.7 6.5-9.1 3.1-2.4 4 3.1 5.8-7.5 2-10.4-2.1-2 11.6-17.5-1.4 2.3 25.3-12.3-.9-20.3-15.2 6.4-5.4-12.9-15.9-7.7-2.9-10.8 4.8-12.8-3.7v19.4l-21.6 11.7-9.1-5 .8-4.7-23 1.9-5.3 8.3zm504.8-149.7l-7.9 3.2c-.1 0-.2.1-.3.1h-.2c-.1 0-.2 0-.3-.1l-6.3-2.6-7.8 31.4c0 .1-.1.1-.1.2v.2l-.1.3h-.4c-.1 0-.1.1-.2.1l-13.3.9-11.8 4.8c-.1 0-.2.1-.3.1h-.1l-.4.2-.2-.4-.1-.2c0-.1-.1-.1-.1-.2l-4.9-10.5-16.8 2.6-2.4 5.5c0 .1-.1.2-.2.2v.1h-.1c-.1.1-.2.1-.3.1l-11.2 3.8-1.4 5.9c0 .1-.1.1-.1.2v.1l-.1.3-.3.1h-.1c-.1 0-.1.1-.2.1l-6 1.2-1.3 7c0 .1-.1.2-.1.2l-.1.2-.2.1-.2.2-6.9 2.9 1.9 6.9v.2l.1.1c.1 0 .2.1.2.2l11.7 14 6.4.7c.1 0 .2.1.2.1h.3l.1.2.2.2 5.4 11 7.1-1.3h.5l.2.1c.1 0 .1 0 .2.1l5.1 3.9c.1 0 .1.1.1.2l.1.1v.1c0 .1.1.1.1.2l2 6.9 7.2 3.2 4.3-4.8-14.3-14.2 2.1-10.4 12-5.4-5.7 10.5 2.2 7.4 10.5 5.9 4.6-.2.4 7.1 4.4.6-2.2 20.6 5.3 7.2 3.7 23.4 4.9 14.8 6.2 14.7-5 6.6 2.3 5.6-2.7 4.3 8.7 8.4 2.6 14.3 11.9 11.1 14.1 13.2 74.1 40.3-4.4-25.1-3.9-11.4-9.1-7.6-.4-12.4 4-3.9-15.9-15.3-.8-11.6 5.5-7.1-2.1-6.4-12.5-2.4-14.4-20.8 2.8-2.3 4.3 5 5.7-4.4-10.2-8-4.8 3.3-8.6-4.5-.1.2-5.1-9.4-8.3.8-.5 5.9h-5.3L1425 305v-11l6.7-2.1-6.9-19.7 11.7 7.6-2-24.3 7.8-9.6 12.9-1.4-9-17.3-7.1-38.3zm24 479.5l2.7-1.5 7.1 2.9-6.6-11.1-8.1.7-8.9-3-10.5-6.2-7.8-15.6-4.5-10 7.2-5 14.1-2.1L1414 599l-24.4-18.1-12.2-18.5-15.1-8.5-7.3-7.7-4.4 2.4-.6 4.9 8.9 5 5.2 6.4-2.2 3.5-4.1-.6-.7 5.9 8.6 5.3 9.8 17.7 15.7 6.7 6 12.2 8.2 8.7 10.1 13.3 7.3 9.8 7.8 4.9 2.9 6.4 2.6 5.6 9.5 3.5 2.1 9 10.4 11-.2-10.4-2-7.7 7.2-1.3zM417.8 383.8l-4.1-6.2 5-1.5-7.4-11.3-9.5 2.4-9.9-2.4-11.7 2.9-5.1 17-5.1-2.3-8.3-15.3-.1-12.5-11 2.3-2.1 10.9 5.3 5.4-4 6.5-7.7-3.4-2-8.3h-.1l-3.1 4.1-.2.2-.2.2h-.6l-3-.3-4.2-.7-.2 3.1c0 .1-.1.1-.1.2v.1l-.1.1c0 .1 0 .1-.1.2l-6 7.3-1 5.4 2.4 3.4 2 2.7c0 .1 0 .1.1.2l.1.1.2.3-.2.3-.1.1c0 .1 0 .1-.1.2l-6.2 7.8-.8 6.8c0 .1 0 .2-.1.3v.4h-.4c-.1.1-.2.1-.3.1l-3.4.3-2.5 3.3-.2.2-.2.3c0 .1-.1.2-.1.2l-5.4 7.4-.4 9.1 18.1 17 6.1 4.8 6.2 3.1c.1 0 .2.1.2.2l6.7 6.4 9.5-.6h.7l.1.3v.1c0 .1.1.1.1.2l4.6 9.2 2.6-1.5c.1 0 .2-.1.2-.1l.1-.1h.4l5.1 1.2c.1 0 .2.1.3.1h.2l.5.1-.1.5v.5L366 477l5.2 2c.1 0 .1.1.2.1h.1l.3.1v.4c0 .1.1.1.1.2l.5 5 5-1.3h.3l.2-.1.1.2c.1 0 .2.1.3.2l4.6 4.6c.1.1.1.1.1.2l.1.1v.1c0 .1.1.1.1.2l1.1 6 3.7-3.6c.1-.1.2-.1.3-.2l.2-.2.2.1h.3l6.6 2 4.5-4.2-.3-6.4v-.4l.1-.1c0-.1.1-.2.2-.2l13.7-13.2-4.3-7-5.8 2.5-2.5 3.6-.2.2v.1l-.2.3-.3-.1h-.3l-7.1-2.2c-.1 0-.1-.1-.2-.1h-.1l-.3-.1v-.4c0-.1-.1-.1-.1-.2l-.1-4.5c0-.1 0-.1.1-.2v-.2c0-.1 0-.1.1-.2l5-8.1c.1-.1.1-.2.2-.2l.1-.1h.2c.1 0 .2-.1.3-.1l6.7-.9-.5-3-2.3-3.2c0-.1 0-.1-.1-.2l-.1-.1-.2-.3.2-.3.1-.1c0-.1 0-.1.1-.2l3.9-4.7.8-7-5.8-7.8c0-.1-.1-.1-.1-.2v-.1l-.2-.2.1-.3v-.3l1.8-3.3c.1-.1.1-.2.2-.2l.1-.2.2-.4.4.3.2.2c.1 0 .1 0 .2.1l19.9 12.6c.2.1.3.3.4.5l1.6 4.9 6.9-.9h.2c.1 0 .2 0 .3.1l7.9 4.1 5-3.6-2-5.9v-.3c0-.1 0-.2.1-.3l1.6-3.8-3.5-4.5c0-.1 0-.1-.1-.2l-.1-.1-.2-.3.2-.3.1-.1c0-.1 0-.1.1-.2l8.1-12.8-4.2-5.1-7.1-.2c-.1 0-.2 0-.3-.1h-.1l-.1-.1c-.1 0-.2-.1-.2-.2l-9.1-11.2c-.1-.1-.1-.2-.2-.4l-4.1-14.3-7.3 7.3z" transform="translate(-17.714 -16.338)"/><path class="st1" d="M1155.8 706.8l16.4-10.4 13.6 3.3 15.7-4 25.4 20.8 31.6 27.1 11-5.6 7.4 2.6 4.8-3 9.9 2.1 5.1-1.2v-.2l7.7-14.5-.1-.1-12.3-14.1-14.2-5.5c-.1 0-.1-.1-.2-.1h-.1l-.3-.1v-.4c0-.1-.1-.1-.1-.2l-.8-8.3v-.3l.1-.1v-.2l4.3-7-3.3-3.5c-.1-.1-.2-.2-.2-.3l-.3-.3.2-.3c0-.1.1-.2.1-.3l6.7-9.4.6-7.2c0-.1 0-.1.1-.2v-.1c0-.1 0-.1.1-.2l4.4-5.7-3.7-6.2c0-.1-.1-.2-.1-.3l-.2-.3-.3-.5.6-.1.3-.1c.1-.1.2-.1.3-.1l12.5-3.2 2.8-3.4-6.5-15-5-.3-1.9 4.8c0 .1-.1.1-.1.2v.1l-.1.3h-.4c-.1 0-.1.1-.2.1l-7.6.7-1 7c0 .1-.1.1-.1.2v.1l-.1.1c0 .1 0 .1-.1.2l-9.7 10.8c-.2.2-.4.3-.6.3l-6.5 1h-.5l-.2-.2c-.1 0-.1-.1-.2-.2l-6.6-8.1-12.8 1.2h-.8l-.1-.4v-.1c-.1-.1-.1-.2-.1-.3l-1-6.6v-.6l.2-.2h.1c0-.1.1-.1.1-.2l5.2-3.7-1.5-7.7v-.4l6.1-17.3-5.2-4.7-14.7 9.5c-.1 0-.1.1-.2.1l-.3.2c-.1.1-.1.2-.2.2L1214 626l1.2 4.4v.4l.1.4-.4.2c-.1.1-.2.2-.3.2l-6.3 3c-.1 0-.2.1-.3.1h-.2l-5.9-.7-19.6 11.3c-.1 0-.2.1-.3.1l-.3.1-.2-.2h-.1c-.1 0-.1 0-.2-.1l-5.1-3.5-14.2 6.8c-.1 0-.2.1-.3.1l-.2.1-.2-.1c-.1 0-.1 0-.2-.1l-8-5.1-11.8.7-4.3 5.2-.2.2-.1.1-.3.3-.4-.3-.2-.2c-.1 0-.1 0-.2-.1l-5.4-4.1-3 3.2c-.1.1-.2.1-.3.2l-.1.1-.3.3-.3-.2-.1-.1c-.1 0-.1 0-.2-.1l-6.9-4.6-8.1 4.1-7.6 6.1 10.5 5.7c.1.1.2.1.2.2l.2.1.4.2-.2.4-.1.2c0 .1-.1.2-.1.3l-2.4 4.1 5.1 4.3 7.8-5.3c.1 0 .1-.1.2-.1l.2-.1.4-.3.3.4.1.2c.1.1.2.1.2.2l4.5 6.5 5.9-2c.1 0 .2-.1.3-.1l.2-.1.5-.2.1.5v.3c.1.1.1.2.1.3l2.1 12.3 6.6 3c.1 0 .2.1.2.2l.2.1.5.2-.3.4-.1.2c0 .1 0 .2-.1.3l-3 5.2 12.1 15c0-.1 0 0 0 0zm-885.6-83.4l10.9 4.7 3.7.9.1.1.1-.1 2.4-1.3.3-3.6-1.8-.7c-.1 0-.1-.1-.2-.1h-.1l-.3-.1v-.4c0-.1-.1-.1-.1-.2V621c0-.1 0-.2.1-.2 0-.1 0-.2.1-.2l2.2-3.9c.1-.1.1-.2.2-.2l.1-.1h.1c.1-.1.2-.1.3-.1l6.4-1.4 3.8-.8h.4l.1.1c.1 0 .2 0 .2.1l4.5 2.7 6.6 4.8 3.8.6 2.8-2 4.9-6.2.1-.1 1.2-1.1-4.2-4.3c-.1-.1-.2-.2-.2-.3l-.3-.3.2-.3c0-.1.1-.2.2-.3l1.3-1.8-.8-4.2-7.9.2c-.1 0-.2 0-.3-.1h-.2l-.1-.1c-.1 0-.2-.1-.2-.2l-5.1-6-5.5.3c-.1 0-.1 0-.2-.1h-.4l-.1-.3v-.1l-.2-.2-1-1.8c0-.1-.1-.2-.1-.3l-.2-.4c0-.1-.1-.1-.1-.2l-1.1-2.1-7-7-.7 1.1-.6 5.7c0 .1-.1.3-.1.4l-1 1.9c0 .1-.1.1-.2.2l-.1.1-.2.3-.4-.1h-.4l-9.7-2.4.9 9.9v.4c0 .1-.1.2-.1.3l-1.7 2.4 2.1 3.2c0 .1.1.2.1.3l.1.1v.4l-.6 2.2c0 .2-.1.3-.2.4l-7.2 8.2v.1l.6 5.2zm1125.3 197.8l12.2-11.8 6.4-16.4-.2-43.3 3.2-23-6-26h-.3l-4.7-.9c-.1 0-.1-.1-.2-.1h-.1l-.3-.1-.1-.3v-.1c0-.1-.1-.1-.1-.2l-1.8-5.9-9.1-5.3-8.9 8.1 6.2 5.6 8.7-.1c.1 0 .2 0 .3.1h.7v1l-.7 13.5c0 .1 0 .2-.1.3v.5h-.4c-.1.1-.2.1-.3.1l-6 .8 1.8 8.7v.3l.1.3-.2.2h-.1c0 .1-.1.1-.1.2l-8.4 6.8c-.1 0-.1.1-.2.1s-.1.1-.2.1l-15.1 2.4-3.3 5.3 3.2 5.1c0 .1.1.2.1.3l.2.3.3.5-.6.2-.3.1c-.1.1-.2.1-.2.1l-7 2.2h-.1l1.8 29.5 6.1 8.6-20.6 3.7-5.4 15.5 9 18-4.7 11.1 19-11.7 26.5-4.4z" transform="translate(-17.714 -16.338)"/><path class="st1" d="M1012.9 839.8h33.4l21-15.4 7.1-.9 1.6-7.5 9.9-11.1 15.1-2.2 4.9 3.9 5.8-6.4 27.2 1.8 2.8-10.7 8.5-7.2-4.7-9 1.7-25.6 6.2-7.5-5.7-11.7-9.7-.1 5.7-13.3 11.2-9.4-12.2-15.1c0-.1 0-.1-.1-.2l-.1-.1-.2-.3.2-.3.1-.1v-.2l3-5.2-6.6-3c-.1 0-.1-.1-.2-.1l-.2-.1v-.2c0-.1-.1-.2-.1-.2l-2.1-12.3-5.9 2c-.1 0-.2.1-.3.1l-.3.1-.2-.3-.1-.1c-.1 0-.1-.1-.2-.2l-4.5-6.5-7.8 5.3c-.1 0-.1.1-.2.1l-.1.1-.3.2-.3-.2c-.1 0-.2-.1-.3-.2l-5.2-4.3c-.1-.1-.2-.2-.2-.3l-.3-.3.2-.3v-.1c0-.1.1-.2.1-.3l2.4-4.1-10.5-5.7-.2-.2-.4-.2-.1-.1-.1-.1-.1-.2c-.1-.1-.2-.1-.2-.2l-15.5-23.3h-.1c-.1 0-.2.1-.3.1l-10.4 1.3-3.7 3.4 1.7 11.3 8 4.6.2.2.2.1v.2c0 .1.1.2.1.3l.6 9.5c0 .1 0 .2-.1.3v.2l-.2.1c0 .1-.1.2-.2.2l-6.8 5.7c-.1.1-.2.1-.3.2h-.4l-12.5-.8-3.1 5.3 3.8 2.9c.1.1.2.2.3.4l7.9 17.9 7.3.6c.1 0 .1 0 .2.1h.1c.1 0 .2 0 .2.1l7.3 5.5c.1.1.2.2.2.3.1.1.1.2.1.3l1.4 8.7v.3l.1.4-.3.1c-.1.1-.2.2-.3.2l-10.4 4.8-3.3 10c-.1.2-.1.3-.3.4l-11.4 10.5.6 6.4 5.8 3.2c.1 0 .1.1.2.1h.1l.2.1v.3c0 .1.1.1.1.2v7.3c0 .1 0 .1-.1.2v.2c0 .1 0 .1-.1.2l-4.8 7.3c-.1.1-.2.3-.4.3l-6.8 3.5-2.1 4.2c0 .1-.1.1-.2.2l-.1.2h-.2c-.1 0-.2.1-.2.1l-8.1 1.4-11.4 18.3-.2.2-.1.2h-.3c-.1 0-.1 0-.2.1l-6.9-.3-7 7.1c-.1.1-.2.2-.3.2-.1 0-.2.1-.3.1l-12 1.1 3 6.7v.2l.1.1.1.3-.2.2-.1.1c0 .1 0 .1-.1.2l-5.8 5.6 7.1 6.5c.1.1.1.1.1.2l.3.2.4.4-.5.3-.3.2-.2.2-5.9 3.8-1.4 7.9 4.2-.2 5.5 8zm45-42v-.4l1.8-6.2c0-.1.1-.1.1-.2v-.1l.1-.3.3-.1h.1c.1 0 .1-.1.2-.1l12.9-2.8 3-8.1c0-.1.1-.2.2-.2l.1-.3.2-.6.5.4.4.3c.1 0 .1 0 .2.1l3.2 2.4 2.4-7.6c0-.1.1-.1.1-.2l.1-.2.2-.1c.1-.1.1-.1.2-.1l6.5-1.9h.4c.1 0 .2 0 .3.1l8.4 4.2c.1 0 .1.1.2.1l.1.1.3.1v.6l-.5 5.4c0 .1 0 .1-.1.2v.4l-.3.1h-.1c-.1 0-.1.1-.2.1l-3.7 1.2 7.1 5.4c.1 0 .1.1.1.2l.4.3.6.4-.6.4-.3.2c-.1.1-.2.2-.3.2l-26.3 15.8c-.1 0-.2.1-.2.1l-.2.1-.2-.1c-.1 0-.2 0-.3-.1l-16.8-8.5c-.1-.1-.2-.1-.3-.2l-.3-.2v-.3zM827.7 207.3l-.1 3.7-3.1 1.2-3-8.2-11.6 7.1-3.4 11.3.2 3.5 4.8 1.6 8.7 6.2 9.5 5.3 4.2-2.8.4-6.2-3.8-3.8 3.5-7-.2-7.1-6.1-4.8zm-9.2-26.2l-6.1-4.5-4.6 5.5-4.7 3.8 1.8 6-4.6 7.4.4 4.1 7.2 5.4 12.4-7-.5-4.9 4.9-3.3-2.3-3.8-3.9-8.7zm-25.8 28.8l1.5 4.3 7 4 4.3-2.9 1-4.9-10.3-2.9-3.5 2.4zm241.4 9.9v7.3l1.5 7.4 4.5 4.7 2 5.6 8.5 1.6 7.6-1.3-1.4-8 5.6.1 3.6-7.4 5.2.6 3.1-4.1-3.7-3.1-7.6-1.4-6.6-6.5 4.8-1.7 5.1 6.4 8.4.9-.7-9.6-3.2-4.4-9.8.3-4.8 4.1-8-.5-.1 5.4 5.1 4.5-2.3 3.2-8-5.5-8.8 1.4zm-196.8 37.6l8.2-7.9 9.2-1.5 4.4-5.3-.4-11.4-5.8-6.1-4 4.8-2.6-2.3-.3-6.8-7.2 4.8.2 14.3-4.5 10.3 2.8 7.1zM717.2 369.9l2.9-1.6-1.6-7.7-3.1-1.3-2.9 5.4 4.7 5.2zm-30-8.2l-2.4 9.4-4.6 5-5.2 2-4.4 8 2.1 19.9-10.6 20.6 1.9 11.8 12.6-1.2 11.5 11.4 1.1 11.9-6.5 9.5 2.4 3.9 6.1 2.7-10.6 3.5-4.1-11.1 6.8-14.9-4.5-10.3-12.5-.6-6.2 7.2.6 15-10.3 12.7-10 4.7-6.4 8.2-25.1-12.5-.7-7.1 16.6 5.9 8-4.1 12.6-9.8 7.4-19-2.4-9.7 12-38.1 1.2-6.5-2.5-8.2 9.2-10.5.8-13.6-8.8-9.6-5.2-1.6-7 6.5-8 12.5-6.4 7.5-10.4 3.5-5.1 5.8 6.2 6.8-5.1 11.4-8.1 3.3.1 3.8 8 6.9-1.9 7.3 1.7 4.4 3.2 3.8-8.6 9.5-3.5-4.5-3.5-10.6-11.3-14.9-5.2 5.2 3.7 5.3c0 .1.1.2.1.2l.1.2-.1.2v.2l-2.7 6c0 .1-.1.1-.1.2l-.2.5v.3l-2.6 5.8 3.4 8.3c0 .1 0 .2.1.3l.1.1-.1.1c0 .1 0 .2-.1.3l-3.5 6.7c0 .1-.1.1-.1.1l-.1.1-.1.1c-.1 0-.1.1-.1.1l-6.5 2.9-4 5.6c-.1.1-.1.2-.2.2l-.1.1h-.1c-.1 0-.2.1-.3.1l-17.1 2.4-8 8c-.2.2-.4.3-.6.3l-5.5.6.8 14.6c0 .1 0 .1-.1.2v.2c0 .1 0 .1-.1.2l-5.8 10.1 5.2 8.8 16.7-.3c.1 0 .1 0 .2.1h.2c.1 0 .1 0 .2.1l8.3 5.3.2.2.1.1v.2c0 .1.1.2.1.3l1 7.8 3 2.3 19-.7c.1 0 .2 0 .3.1h.1l.1.1c.1 0 .2.1.3.2l6.4 6.7c0 .1.1.1.1.2l.1.1v.1c0 .1.1.1.1.2l1.6 12 3.5 3.8c.2.2.3.4.3.6l.5 7.8 12.4-1.1h.4l.1.1c.1 0 .1 0 .2.1l12.4 9.3 16.4 5.4c.1 0 .1.1.2.1h.1l.1.1c.1 0 .1.1.2.1l6.7 9 11 5.4h10.6l7.7-6.9c.1-.1.2-.1.3-.2l.3-.3.3.2.2.1c.1 0 .1 0 .2.1l8.2 6.4 7.8-1h.5l.1.2c.1 0 .2.1.2.2l6.7 8.1h2.9c.1 0 .2 0 .3.1.1 0 .2.1.3.2l6.2 5.1 10.6-16.3-.2-9.8c0-.1 0-.1.1-.2 0-.1 0-.2.1-.2l6.9-11.6-2.3-8.7-9.4-5.8c-.1 0-.1-.1-.2-.2h-.1l-.2-.1v-.6l.8-12.8-6.7-7.6c-.1-.1-.1-.2-.2-.3 0-.1-.1-.2-.1-.3l.2-17.9-8.3-8.9c-.1-.1-.1-.2-.1-.3l-.1-.2.1-.2v-.3l2.1-9.1-3.4-6.4c0-.1-.1-.2-.1-.3l-.1-.2-.3-.5.5-.2.2-.1c.1-.1.2-.1.2-.1l9-3.3 2.7-9.4v-.1l.4-1.4-3.3-12.1-10.3-1.6c-.2 0-.4-.1-.6-.3l-10.3-11.2c-.1-.1-.1-.2-.1-.2l-.1-.1v-.5l1.1-7.2c0-.1.1-.2.1-.2v-.2l.2-.1.2-.2 13.3-7.5.9-5.7-7-11.9v-.2l-.1-.1v-.1c0-.1-.1-.1 0-.2l.7-7.9c0-.1.1-.1.1-.2v-.4l.3-.1h.1c.1 0 .1-.1.2-.1l5.6-1.5-6.8-11.5c-.1-.1-.1-.2-.1-.3l-.2-.9-5 .8-1.7 9.3-9-6.8-1.6 8 9.7 8.8 1.3 8.3-17.5-12.9-1.3-9 6-9-.2-13.5-2.4 1.3z" transform="translate(-17.714 -16.338)"/><path class="st1" d="M668.1 337l-8 .1.1 7.1 2.1 4.1 7.9-1.8-2.1-9.5zm595.1-280l-5.1 9.5.6 7 12.1 11.9 2.2-2.6 1.6-15.2 2.9-7.3-4.5-5-9.8 1.7zM700.3 371l-1.2 2.9 4.3 1.2 4.2-1.2-2.4-6.2-4.9 3.3zm16.9 17.5c0 .1.1.2.1.3l.2.3.3.5-.6.2-.3.1c-.1.1-.2.1-.2.1l-5.7 1.5-.7 7.9 7 11.9c.1.2.2.4.1.7l-.9 5.8c0 .1-.1.2-.1.2v.2l-.2.1-.2.2-13.3 7.5-1.1 7.2 10.2 11.2 10.3 1.6c.1 0 .1.1.2.1h.4l.1.3v.1c0 .1.1.1.1.2l3.3 12.2v.6l-3.2 10.9c0 .1-.1.2-.1.2l-.1.2-.2.1c-.1.1-.1.1-.2.1l-9 3.3 3.4 6.3c.1.1.1.2.1.3v.4l-2.1 9.1 8.3 8.9c.1.1.1.2.2.3v.1c0 .1.1.2.1.3l-.2 17.9 6.7 7.6c.1.1.1.2.2.3l.1.1v.4l-1.1 12.8 9.4 5.8c.1.1.2.1.2.2.1.1.1.2.1.3l2.3 8.7v.4l-.1.1c0 .1-.1.2-.1.3l-6.9 11.6.2 9.8c0 .1 0 .1-.1.2v.2c0 .1 0 .1-.1.2l-10.6 16.4c-.1.1-.1.2-.2.2v.1l1.1 12.1 10.2 4.7c.1.1.2.1.3.2l.4.2-.1.4v.4l-1.2 4.2c0 .1-.1.2-.2.3v.1h-.1c-.1.1-.2.2-.3.2l-8.4 4.6c-.1 0-.2.1-.3.1l-7.5 1.7 4.3 11.2v.3l.1.2-.1.2c0 .1 0 .2-.1.3l-2.8 4.2.6 6.1 24.2 1.5c.1 0 .2 0 .3.1h.2l.1.2.2.2 8.3 13.7 6.1.2c.1 0 .2 0 .3.1h.6v.6c0 .1.1.2.1.3l.1 4.9c0 .1 0 .2-.1.3v.2c0 .1-.1.2-.2.3l-8.6 9 1.4 6.7 5.8 4.8 7.7 1.7c.1 0 .2.1.3.1h.1l.4.1-.1.4v.4l-.7 4.2c0 .1-.1.1-.1.2v.1l-.1.1s0 .1-.1.2l-8 7.3.4 8.4c0 .1 0 .2-.1.2v.4l-.1.4v.2l-.6 4.9 8.7 13.7c0 .1 0 .1.1.2l.1.1.2.3-.2.3-.1.1c0 .1 0 .1-.1.2l-3.2 3.8c-.1.1-.2.2-.3.2l-3 1.7 4.7 10.7 7.2-.7 7-1.5h.4c.1 0 .2 0 .3.1l4.4 2.3c.1.1.2.1.3.2l.4.2-.1.4v.1c0 .1 0 .2-.1.3l-1.8 5.1 6.1 7.7c.1.1.1.2.2.4l1.9 6.9 3.2 7.3c0 .1.1.2.1.2l.9 5.1v.3l.1.3-.3.2-.1.1c0 .1-.1.1-.1.2l-5.5 3.6.4 4.7c0 .1 0 .3-.1.4l-1.6 4.6c0 .1-.1.2-.2.3v.1h-.1c-.1.1-.2.2-.3.2l-6.2 3-2.8 7.8L789 815l17.6.7 6.9-6.9c.1-.1.2-.2.4-.2l3.8-1.3-.1-3.8c0-.1 0-.2.1-.3v-.2l.2-.1c0-.1.1-.2.2-.2l5.6-4.4-.8-3.9v-.4l-.1-.4.4-.1c.1-.1.2-.1.3-.2l4.1-1.5.9-5.9c0-.1.1-.1.1-.2v-.4l.3-.1h.2c.1 0 .1-.1.2-.1l22.6-4.1.6-5c0-.1 0-.2.1-.2v-.1l-13.8-10.3-.2-.2-.1-.1v-.1c0-.1-.1-.2-.1-.3l-.4-4.5v-.6l.3-.1h.1l.2-.2 5.2-3c.1 0 .2-.1.2-.1.1 0 .1 0 .2-.1l7.1.1-.6-22.6c0-.1 0-.3.1-.4l3.7-9c0-.1.1-.2.2-.2l.1-.2h.2c.1-.1.2-.1.2-.1l7.4-1.8.8-6.5-8.9-11.6c0-.1-.1-.2-.1-.2l-.2-.2.1-.3v-.2l5.9-13.6c0-.1.1-.1.2-.2l.1-.2h.3c.1 0 .1-.1.2-.1l17.5-2.4 3.8-6.1.2-.2.3-.5.4-.7.4.7.3.5c.1 0 .1.1.2.2l7.7 13.2 3.6-1.9-1.5-8.2v-.4l.1-.1c0-.1.1-.2.1-.3l15.3-20.1.4-7.4c0-.1 0-.1.1-.2l-.1-.2.2-.1.3-.3 7.5-4.3c.1 0 .2-.1.2-.1l.6-.4.2.4.1.2.2.2 4.8 8.3 8.1 3.8 1.1-6.3c0-.1.1-.2.1-.2 0-.1.1-.1.1-.2l3.9-4.7-2.2-5-3.7-.6c-.1 0-.2-.1-.3-.1l-.4-.1v-.5c0-.1-.1-.2-.1-.3l-.1-4.5c0-.2.1-.5.2-.6l5.3-6.7-1.5-4.7-8.2-1.8c-.1 0-.2-.1-.3-.1h-.2l-.1-.2c-.1-.1-.1-.1-.1-.2l-2.8-7v-.3l-.1-.2.1-.2c0-.1 0-.2.1-.3l3.4-5.7-4-5.5c-.1-.1-.1-.2-.1-.3l-.1-.1-.3-.4.4-.3.1-.1c.1-.1.1-.2.2-.2l8.9-6.7 4.6-11.4-1.5-8.5-4.2-5.5c0-.1-.1-.1-.1-.2l-.1-.2.1-.2v-.2l2.9-8.4-2.3-4.5c0-.1-.1-.2-.1-.3l-1-7.3v-.6l.3-.2.1-.1.2-.2 6.3-3.5c.1 0 .1-.1.2-.1l7-2.1 2.6-3.5.1-.1-2.8-2.9-4.8 3.9s-.1 0-.2.1l-.1.1-.3.2-.3-.2-.1-.1c-.1 0-.1 0-.2-.1l-5.3-3.4-11.6 1.1h-.3l-.8.1v-.7c0-.1-.1-.2-.1-.3l.1-6.3c0-.1 0-.1.1-.2v-.2c0-.1 0-.1.1-.2l6.4-9.3 1.6-5.9-4.7-2.7-.2-.2-.2-.1v-.2c0-.1-.1-.2-.1-.3l-.6-6.1-4.3-3.9-.2-.2-.2-.1v-.5l1-8.8-4.6-2.9c-.1-.1-.2-.1-.2-.2l-.2-.1-.4-.3.3-.4.1-.2c0-.1.1-.2.1-.3l6.1-8.2-5.8-33.2-9-11.3c-.1-.1-.2-.3-.2-.4l-.4-.5.6-.4c.1-.1.1-.2.2-.2l3.1-2 9.2-9c.1-.1.2-.1.3-.2l.1-.1h.1c.1 0 .2-.1.3-.1l5.8.1 1.2-10.5c0-.1.1-.3.1-.4l2.5-4.6.2-5.8c0-.1 0-.2.1-.3v-.1c0-.1.1-.2.2-.3l11.3-10.8-5.8-5.7c-.2-.2-.3-.4-.3-.6l-.9-9.8-12.1-14.2c-.1-.1-.2-.2-.2-.4l-2.2-7.5-3.6-4c-.1-.1-.1-.2-.2-.3 0-.1-.1-.2-.1-.3l-.1-4.2-6.3 3.9-7 6.5-10.1 4-3.4 7.4-.7-10.1 19-23.7 9.7-22 3.6-19.2-17.9-17-15.2.9-4.6 8.1-6 1.6 3.4-13.3-12.5-.4 3.5-6.2-8.2-5.6-6.6 3.2-9.4 17.2 3.4 9.4-11.6 1.8.5 3 4.9 5.9-8.5-1-3.9 4.4-9.8-.9-1.7-4.2-13.6 1.5 1 7.8-16.2 3.8-10.3 9.9-8.6 1-5.8 6.1-1.7 11.6 6.2 9.1-7.9 2.8-21.8-1.6-12.4.9-3.2 7.2 1.1 17.7 8.5 6.9 4.6 8.5-10.9 1-10.6-17-6.8 1 .2.9 6.9 11.6z" transform="translate(-17.714 -16.338)"/><path class="st1" d="M721.3 720.7l3.9-5.6c.1-.1.1-.2.2-.2.1-.1.2-.1.3-.1l11.8-2.8h.5l10.7 3.6 7.5-4.1c.1 0 .2-.1.2-.1l.3-.1-.4-8.4c0-.1 0-.2.1-.3v-.1l.1-.1c0-.1.1-.2.2-.2l8-7.3.7-4.1-7.7-1.7c-.2 0-.3-.1-.4-.2l-5.8-4.8s-.1-.1-.1-.2l-.1-.1v-.1c0-.1-.1-.1-.1-.2l-1.4-6.7v-.5l.2-.2c0-.1.1-.2.1-.2l8.6-9-.1-4.8-6.1-.2c-.1 0-.2 0-.3-.1h-.3l-.1-.2-.2-.2-8.3-13.7-24.2-1.5c-.1 0-.2 0-.4-.1h-.4v-.5c-.1-.1-.1-.2-.1-.3l-.6-6.2c0-.2 0-.5.2-.6l2.8-4.2-4.3-11.2v-.4h-.1l-7.2-4.2-12.7 8.9c-.1 0-.1 0-.2.1l-.1.1-.2.2-.3-.2h-.1c-.1 0-.2 0-.2-.1l-12-7.2-16.2 1.2h-.3c-.1 0-.2 0-.2-.1l-11.3-6.1-7.9-1.5-6.6 6.1-3.7 17.2c0 .1-.1.2-.1.3l-.1.4h-.5c-.1 0-.2.1-.3.1l-5.9-.2-4.5 3.6-.5 5.1c0 .1 0 .2-.1.3v.1l-.1.1-.2.2-8 5.6v.2c0 .1.1.1.1.2l.7 3.5v.4l-.1.1c0 .1-.1.2-.1.3l-3.8 5.7 4.4 3.9c.1.1.2.2.2.3.1.1.1.2.1.3l1.3 14.5c.1 0 .2 0 .3.1l33.2 12.2c.1.1.3.1.4.3l6.6 7.2c.1.1.2.2.2.3l2.3 6.2 9-1.1h.6l.2.2c.1 0 .1.1.2.2l3.7 5.5 17.9-1.1h1.1v.7c0 .1.1.2.1.3l.4 12.5 2.4 2.6 5.3-5.3c.1-.1.2-.2.3-.2.1 0 .2-.1.3-.1l4.4-.4h.7c.1 0 .2-.1.3-.1l11.9-1.4zm-293.2-73.4l2.5-5.8.2-4.6-2.4-.1c-.1 0-.2 0-.3-.1l-8.9-3c-.1 0-.2-.1-.2-.1l-3.8-2.5c-.1 0-.1-.1-.1-.2h-.1v-.1c0-.1-.1-.1-.1-.2l-1.6-3.8-3.1 1.1c-.1 0-.2.1-.3.1l-.3.1-.2-.2c-.1 0-.2-.1-.2-.2l-1.5-1.7c-.1-.1-.2-.3-.2-.4l-.9-3.6-.7-2.3-3.7-.5c-.1 0-.1-.1-.2-.1h-.1l-.3-.1-.1-.3v-.2c0-.1-.1-.1-.1-.2l-.8-4.8-8.8.4c-.1 0-.2 0-.3-.1h-.6v-.6c0-.1-.1-.2-.1-.3l-.6-6.4-3.7.5h-.3v.1l-4.1 4.4c-.1.1-.2.2-.3.2-.1 0-.2.1-.3.1l-3.9.4-.4 5.8c0 .1 0 .1-.1.2v.4l-.3.1h-.1c-.1.1-.1.1-.2.1l-6.8 2.9c-.1.1-.3.1-.4.1l-8.2-.2-.2 4.4 3.4 2.8c.1 0 .1.1.1.2l.1.1v.1c0 .1.1.1.1.2l1.3 5v.5c0 .1-.1.2-.1.3l-1 1.7c0 .1-.1.1-.2.2l-.1.2-.2.4-.4-.2-.1-.1c-.1 0-.2 0-.3-.1l-4.8-2.4-3.1.2-1.5 4.4-1.3 3.9c0 .1-.1.1-.1.2v.1l-.1.3h-.4c-.1 0-.1.1-.2.1l-.9.1 1.2 13.2 3.1 3.6c0 .1 0 .1.1.2l.1.1v.1c0 .1.1.1.1.2l.6 10.1 2.5 2.3c.1.1.1.2.2.3v.1c0 .1.1.2.1.3l.1 4.4c0 .1 0 .1-.1.2v.4l-.3.1h-.1c-.1 0-.1.1-.2.1l-1.9 1 1.3 6 1.7-1.4c.1 0 .1-.1.2-.1s.1-.1.2-.1l5.2-.7h.5l.5-.1v.7c0 .1.1.2.1.3l.2 6.3c0 .1 0 .1-.1.2v.4l-.3.1h-.1c-.1 0-.1.1-.2.1l-3.2 1.3.1 2.1 2.6 2.3c.1.1.2.2.2.3l.1.1.3.3-.3.4-.1.1c0 .1-.1.2-.2.3L362 704l2.3 3.5 10.2 1.4c.1 0 .1.1.2.1h.1c.1 0 .1 0 .2.1l5.9 4.9h5.5l1.8-5.5c0-.1.1-.2.1-.2l.1-.2.2-.1c.1-.1.2-.1.2-.2l4.4-1.6v-.1l.3-4.2.2-4.1c0-.1.1-.1.1-.2v-.4l.3-.1h.1c.1 0 .1-.1.2-.1l5.5-1.8.2-4.8c0-.1 0-.3.1-.4l4.1-8.8c0-.1.1-.1.2-.2 0-.1.1-.1.2-.2l7.7-5.3c.1 0 .1-.1.2-.1l.2-.1.2.1c.1 0 .2 0 .3.1l4.1 1.7 2-.2 1-5.2c0-.1.1-.2.1-.2v-.3l.2-.1c.1-.1.1-.1.2-.1l3.8-1.6 2.1-2-3.5-3-1.8 1-2.7 1.8c-.1 0-.1 0-.2.1l-.2.1h-.4l-13.6-3.1c-.1 0-.2-.1-.3-.1l-3.2-2.1-.3-.3-4.1-7.4c-.1-.1-.1-.2-.1-.3v-.3l1.1-4.5c.1-.2.2-.4.4-.6l5.7-4.2c.1 0 .1 0 .2-.1l.1-.1h.1c.1 0 .1-.1.2-.1h3.2c.1 0 .2 0 .3.1h.1l.1.1c.1 0 .2.1.2.2l2.9 3.2c0 .1.1.1.1.2l.1.1v.1c0 .1.1.1.1.2l.7 5.9 2.7 1.8 3-1.7c.1 0 .2-.1.2-.1.1 0 .2-.1.2-.1h2.9c.1 0 .2 0 .2.1.1 0 .2 0 .2.1l2.1 1.2.1.1 5.1 4.1 2-1.4 1.3-3.2-3.2-3.5c-.1-.1-.2-.3-.2-.4l-.7-2.8v-.4c.2-.8.2-.9.2-.9z" transform="translate(-17.714 -16.338)"/><path class="st1" d="M624.4 640.9c0-.1 0-.2.1-.3v-.1l.1-.1c.1-.1.1-.2.2-.2l4.6-3.6c.1 0 .1 0 .2-.1l.1-.1h.1c.1 0 .1-.1.2-.1l5.9.2 3.7-17.2c0-.1.1-.1.1-.2v-.1l.1-.1c0-.1.1-.1.1-.2l6.7-6.1c.1-.1.2-.1.3-.2l.1-.1h.5l7.9 1.5c.1 0 .2.1.3.1L667 620l16.2-1.2h.5c.1 0 .1 0 .2.1l12 7.2 12.7-8.9c.1 0 .1 0 .2-.1l.1-.1.2-.2.3.1h.1c.1 0 .2 0 .2.1l7.3 4.3c.1-.1.2-.1.3-.1l7.6-1.7 8.4-4.6 1.2-4.2-10.2-4.7c-.1 0-.1-.1-.2-.2l-.2-.1v-.3c0-.1-.1-.1-.1-.2l-1.1-12.2c-.1 0-.2-.1-.2-.1l-6.2-5.2h-3c-.1 0-.2 0-.3-.1h-.2l-.1-.1c-.1 0-.2-.1-.2-.2l-6.7-8.1-7.8 1h-.3l-.2-.1c-.1 0-.1 0-.2-.1l-8.2-6.4-7.7 6.8c-.1.1-.2.1-.3.2-.1 0-.2.1-.3.1h-10.6c-.2 0-.3 0-.4-.1l-11-5.4c-.1-.1-.3-.2-.4-.3l-6.7-9-16.4-5.4c-.1 0-.2-.1-.3-.1l-12.4-9.3-12.5 1.2h-1v-.7c0-.1-.1-.2-.1-.3l-.5-7.9-3.5-3.8c0-.1-.1-.1-.1-.2l-.1-.1v-.1c0-.1-.1-.1-.1-.2l-1.6-12-6.3-6.6-19 .7c-.1 0-.1 0-.2-.1h-.1l-.1-.1c-.1 0-.1 0-.2-.1l-3.1-2.3c-.1-.1-.2-.2-.2-.3h-.1v-.1c-.1-.1-.1-.2-.1-.3l-1-7.8-8.2-5.2-16.7.3c-.1 0-.1 0-.2-.1h-.3l-.1-.2-.2-.2-5.3-8.9c0-.1-.1-.2-.1-.2l-.1-.2.1-.2c0-.1 0-.2.1-.2l5.8-10.1-.8-14.6-5.4.6-7.1 7.6s-.1.1-.2.1l-.1.1h-.1c-.1 0-.1.1-.2.1l-6.7 1h-.5l-.2-.2c-.1 0-.2-.1-.2-.2l-2.5-3.2-10.5 11.2-1.2 6.6c0 .1-.1.1-.1.2v.1c0 .1-.1.1-.1.2l-11 11.8-11.2 24c.1 0 .1.1.2.1l2.8 2.4c0 .1.1.1.1.2.1.1.1.1.1.2l1.9 6 9.5 4.5c.1 0 .1.1.1.1l.1.1.1.1.1.1 6.6 12.4c.1.1.1.2.1.4l.9 7.6v.3l-.1.1v.2l-4 6.8 2.8 9.9 1.7 5.6v.5l-.1.1c0 .1-.1.2-.1.3l-4.8 7 1.8 3.7 10.2 5.3c.1 0 .1.1.2.2h.1l.3.1v.6l-.5 9.6v5.1l4 5 7.5-2.2 1.9-4.6c0-.1.1-.1.1-.2l.1-.2.2-.4.4.1h.1c.1 0 .2 0 .3.1l5.8 1.9 4.2-.4 1.9-1.8c.1-.1.2-.1.3-.2l.1-.1h.4l3.3.4 4-2.6 1.5-2 .2-.2.1-.1h.2c.1 0 .2-.1.3-.1l6.8-.4.9-3.3c0-.1.1-.2.1-.2l.1-.4.2-.7.6.4.4.3c.1 0 .1 0 .2.1l4.8 3.8 9.1 2.8 4.3.6c.1 0 .2.1.3.1h.2l.1.2.2.2 6.5 11.6 8.6 13.7 16.2 10 .2.2 8-5.6.2-4.7zm-82.2-328.3l-5.5 5 .3 6.5 6.1 5.1 1.1 8.5-4.8 5.8 5 8.8 4.8.2.7 4.1 5.4.7 3.7 1.5.3-22.7 1-8.7 6.6-8.7 8.6-3.8 3.1-5.3-2.6-6 6.9 3.5 5.9-1.1 1.1-4.6 3.9-.1-.1-4.5 4.9 1.3.5-4.5 3.9 3.5 2.3-3.8.4-5.4 5.4 3.1 3-3.3 6.9.8 5-7 43-4.9 9.8-6.6.5-7.8-4.9-4.9-10.1 3.6-1.4 4-17.9.2-8.3-5.8-6.4 4.5-7.1-2.3-8 6.4-7.1.7-3.3 3.3-5.2-4.6L598 278l-5.3.8-.2 4.2-12.9 5.4-4.9-1.6-2.6 3.8 4.2 3.5-4.9 5.5-8.9-2.8-.6 6.6-6.2.3.2 5-8.2 5.2-5.5-1.3zm703.1-111.7l23 14.1.2.2.2.1v.2c0 .1.1.2.1.2l.9 9.4v.3c0 .1-.1.2-.1.3l-14.5 20.5 5 10 8.1 2.7 10.2-.9h.6l.2.3.2.2 4.8 8h.6l6 .3c.1 0 .2 0 .3.1h.2l.1.1c.1.1.2.1.2.2l4.9 7.1 8.5-5.1c.1 0 .2-.1.2-.1l.1-.1h.4l8.6 1.9 5.8-6.3s.1-.1.2-.1l.1-.1h.1c.1 0 .1-.1.2-.1l9.8-1.6 6.5-8.2.2-.2-2-7v-.5l-.1-.4.4-.2h.1c.1-.1.2-.1.3-.2l6.9-2.9 1.3-7c0-.1.1-.1.1-.2v-.1l.1-.3.3-.1h.1c.1 0 .1-.1.2-.1l6-1.2 1.4-5.9c0-.1.1-.2.1-.2l.1-.3.2-.1c.1-.1.1-.1.2-.1l11.2-3.8 2.5-5.5c0-.1.1-.1.1-.2l.1-.2h.3c.1 0 .1-.1.2-.1l16.9-2.6h.3l.3-.1.1.3.1.1c0 .1.1.1.1.2l4.9 10.4 11.8-4.8c.1 0 .2-.1.3-.1l13.3-.9 7.8-31.4c0-.1.1-.2.1-.3l.1-.2.1-.5.5.2.2.1c.1 0 .2 0 .3.1l6.3 2.6 7.9-3.2h.2l-5-27.1-8-3.6 16.8-14-3.3-8.1-33.6.3-3.5 5.7-9 1.6-.4 7.2-7.4.2-.9-9.9 8.1-3.6 2.7-7.1-3.4-17.8-3.4-1-3.8 2.9-.9-6.5-7.6 3.8-5.9-5.6 1.1-10 7.1 5.2 3.5-3.4 6.1 5.5 2.6-7.9-1.6-9 5.6-5.6h10.7l16.4-15-4.8-4.7 9 .4-1-8.6-9.4 2.7-3.3-5.8-13.1-1.3 4.5-6.8-7-4.2 5.7-4.9-8.5-9.2-20.3 14.6-.3 10.5-5.1 8.1 14.9 4.5-7.5 4.3-23.8-4.2-25.5 20.8-38.4 25.7-9.2 18.7 1.5 5.2-7.1 2.7-9.5 10.3 8.2 8.4 6.4-2.6 10.4 4.6-.1 9.9-9 1.8-5.7 4.1-13.9-6.8 1.5 16.4-12.2 11.1-4.2 10.3c.1 0 .2 0 .2.1zm-999 406.4c0 .1.1.2.1.2l.3 3.3 11.4 5.3 10.5.8h.1l7.2-8.2.5-2.2-2.1-3.3c0-.1 0-.1-.1-.2l-.1-.1-.2-.3.2-.3.1-.1c0-.1 0-.1.1-.2l1.8-2.4-.9-10v-.2l-3.4.1c-.1 0-.2 0-.2-.1h-.3l-.1-.2c-.1 0-.1-.1-.2-.2l-3-5.2-6.1-.5-1.4 1.5c-.1.1-.2.1-.3.2l-.2.2-.4.4-.3-.5-.2-.2c-.1-.1-.2-.1-.2-.2l-3.9-5.3c-.1-.1-.2-.3-.2-.4l-1.2-6.7-6 .6h-.6l-.1-.3v-.1c0-.1-.1-.1-.1-.2l-3.5-7.5-2.7.4h-.3l-3.1-.8-4.8 6.8-.5 6.9.8 10.3v.6l-1.4 2.3c-.1.1-.2.3-.3.3l-1 .6 8.8 11.4 5.2.1c.1 0 .2 0 .3.1h.2l.1.2c.1 0 .1.1.2.2l1.8 2.6c-.3.3-.3.4-.3.5zm105.2 35.6l1.3-3.8v-.1l1.5-4.4c0-.1.1-.1.1-.2v-.1l.1-.3h.4c.1 0 .1-.1.2-.1l3.1-.2c.2 0 .3 0 .5.1l4.7 2.4.9-1.6-1.3-5-3.4-2.8-.2-.2-.1-.1v-.5l.2-4.5c0-.1 0-.2.1-.3v-.6h.7c.1 0 .2 0 .3-.1l8.2.2 6.7-2.9.4-5.7-2.3-.1c-.2 0-.5-.1-.6-.3l-1.3-1.3c-.1-.1-.1-.2-.2-.3l-.1-.1-.4-.4.4-.3.1-.1c0-.1.1-.2.2-.3l3-2.7.1-1.2-2.8-.1c-.1 0-.1-.1-.2-.1h-.4l-.1-.3v-.1c0-.1-.1-.1-.1-.2l-.5-1.5v-.3c0-.1 0-.2.1-.3l1.5-3.3-1.2-.7-5.7 3.8c-.1 0-.1.1-.2.1l-.1.1h-.3l-7.1-.8c-.1 0-.2 0-.3-.1h-.1l-.1-.1c-.1-.1-.2-.1-.2-.2l-3.4-4.5c0-.1-.1-.1-.1-.2l-1.2-2.7c0-.1-.1-.2-.1-.3l-.4-.9c0-.1-.1-.1-.1-.2l-.7-1.6c0-.1-.1-.2-.1-.3l-1.4-13.6-2.8 3.2c-.1.1-.2.1-.3.2l-.2.2-.4.4-.3-.5-.2-.2c-.1-.1-.2-.1-.2-.2l-2.6-3.5-7.4-1.6-10.3 2.4-3.2 1.6c-.1 0-.2.1-.2.1l-.2.1-.3.1h-.1c-.1 0-.1.1-.2.1l-6.4 2.2-2.9 2-.2 4.8c0 .1-.1.1-.1.2v.6l-.4.1h-.2c-.1 0-.1.1-.2.1l-6.3 1.4-4.6 1.8.9 1.7 5.5-.2c.1 0 .2 0 .2.1h.2l.1.1c.1 0 .2.1.2.2l5.1 6 7.9-.2c.1 0 .2 0 .3.1h.5l.1.4v.1c.1.1.1.2.1.3l.8 4.3v.4l-.1.1c0 .1-.1.2-.1.3l-1.3 1.8 4.2 4.3c0 .1.1.1.1.2l.2.3.1.2c.1 0 .2.1.2.2l4.7 5.6 1.7-.5 2.2-1.8c.1-.1.2-.1.3-.2l.3-.2.3.2.1.1c.1 0 .1 0 .2.1l2.5 1.8c.1 0 .1.1.2.2l6.1 7.2c.1.1.1.2.1.3l.1.1v.4l-.2 1.1.2.2c.1 0 .2.1.3.2l4 3.8c.1.1.1.1.1.2l.2.2v.5l-.7 5.5 3.1 5.5h.1l1.1-.5zm709.3 17.6l.2.9c0 .1.1.1.1.2l1 5.1 12.5.8 6.8-5.7-.6-9.4-8-4.6-.2-.2-.2-.1v-.2c0-.1-.1-.2-.1-.3l-1.7-11.4v-.4l.2-.2c0-.1.1-.2.1-.2l3.7-3.4c.1 0 .1-.1.2-.1l.1-.1h.1c.1 0 .1-.1.2-.1l10.3-1.3-11.9-21.5-5.6-3.2-8.5 4.8c-.1 0-.2.1-.2.1l-.2.1-.5.3-.2-.5-.1-.2c-.1-.1-.1-.2-.2-.3l-4.1-9.4-15.4-4.6-7.3 1.9-9.3 26c0 .1-.1.2-.1.2l-6.7 9.4-.2.2-.1.2-.3.4-.4-.3-.1-.1c-.1 0-.2-.1-.3-.2l-5.7-4.8-2.9 6.5c0 .1-.1.1-.2.2l-.1.2h-.3c-.1 0-.2.1-.3.1l-10.4 1.4-6.4 5.9c-.1.1-.2.1-.3.2l-.1.1-.3.3-.3-.3c-.1 0-.2-.1-.3-.2l-7.2-6.3c-.1-.1-.1-.2-.2-.2l-.1-.1v-.1c0-.1-.1-.2-.1-.3l-.5-19v-.3l4.9-15.2-8.1-1.6c-.1 0-.2-.1-.3-.1h-.2l-.1-.1-.2-.2-4.5-8v-.2l-.1-.1v-.3l1.8-12.3-6.7-3c-.1 0-.1-.1-.2-.1h-.1l-.3-.1v-.4c0-.1-.1-.1-.1-.2l-.7-11.8-5.7-8.9-3.5 3c-.2.2-.4.2-.6.2l-5.1.1c-.1 0-.2 0-.3-.1h-.5v-.5c0-.1-.1-.2-.1-.3l-.5-5.4v-.5l.2-.1c0-.1.1-.2.2-.2l3.9-3-4-5-2.6 3.5c0 .1-.1.1-.2.1l-.1.1h-.1c-.1 0-.1.1-.2.1l-7 2.2-6.3 3.5 1 7.2 2.3 4.6c0 .1.1.2.1.3v.5l-2.9 8.4 4.2 5.5c.1.1.2.3.2.4l1.5 8.5v.6l-4.6 11.4c0 .1-.1.1-.1.2s-.1.1-.1.2l-8.9 6.7 4 5.5c0 .1.1.1.1.2l.1.1.2.3-.2.3v.1c0 .1 0 .2-.1.2l-3.4 5.7 2.8 7 8.2 1.8c.1 0 .2.1.2.1l.3.1.1.3c.1.1.1.1.1.2l1.5 4.8v.3l.1.2-.1.2c0 .1-.1.2-.1.3l-5.3 6.8.1 4.4 3.7.6c.1 0 .2.1.2.1h.2l.1.2.2.2 2.2 5.1v.3l.1.3-.2.2v.1c0 .1-.1.1-.1.2l-3.9 4.7-1.2 6.4c0 .1-.1.2-.1.3l-.1.3-.1.6-.6-.3-.3-.1c-.1 0-.2 0-.3-.1l-8.2-3.9c-.1 0-.1-.1-.1-.1h-.1l-.1-.1c0-.1-.1-.1-.2-.1l-4.7-8.2-7.4 4.3-.4 7.3c0 .1 0 .1-.1.2v.1l-.1.1c0 .1 0 .1-.1.2L894.7 683l1.5 8.2v.4l.1.3-.3.2-.1.1c-.1 0-.1.1-.1.1l-3.7 2c-.1 0-.2.1-.3.1l-.2.1-.4.2-.2-.4-.1-.2-.2-.2-7.6-13.2-3.8 6.1-.2.2-.1.1h-.1c-.1 0-.2.1-.3.1l-17.5 2.4-5.8 13.6 8.9 11.5c.1.1.1.2.1.3v.5l-.8 6.5c0 .1-.1.1-.1.2v.4l-.3.1h-.1c-.1 0-.1.1-.2.1l-7.4 1.8-3.7 8.9.6 22.6c0 .1 0 .2-.1.3v.7h-.7c-.1 0-.2.1-.3.1l-7.1-.1-5.1 3 .4 4.4 13.8 10.2c.1.1.1.1.1.2l.4.2c.1 0 .2 0 .3.1l20.1 11.4 7.4-1.2h.3l.4-.1.1.4.1.2c0 .1.1.1.1.2l.3.9c.1 0 .1 0 .2-.1l4.8-.3 8-6.9c.1-.1.2-.1.3-.2l.1-.1.4-.3.3.4.1.1c.1 0 .2.1.2.2l6 6.8 18.3 11.9 8.1-.7h.5l.1.1c.1 0 .2.1.3.2l7 7.4c0 .1.1.1.1.2s.1.1.1.2l1.3 6.1 8.8.9c.1 0 .1 0 .2.1h.4l.1.3v.1c0 .1.1.1.1.2l1.5 4.2 7.5-3.3 1.1-5.4-8.1.7h-.3l-.1-.3-2.2-3.7-.2-.4.3-.3 3.7-2.7.1-.1h.1l5.2-1.2 10-8.4 3.3-6.2v-.1l7.2-7.9 1.3-5.5 3.9-8.4 4.8-9.2 3.6-13.8 2.7-11.1-.4-.7-.2-.2-4.1-7.6c-.1-.2-.1-.3-.1-.5l.1-9.4c0-.1 0-.1.1-.2v-.2c0-.1 0-.1.1-.2l4.3-6.2-6.2-4.3c-.2-.1-.3-.3-.4-.6l-1.3-4.9v-.3l-.1-.2-.1-.5.5-.1h.2c.1-.1.2-.1.3-.1l9.6-2.1.6-5.5c0-.1.1-.2.1-.3v-.2l.1-.5.5.1.2.1h.4l5.1 1.3 9.2-4.1 1.8-5.8c0-.1.1-.2.1-.3l.1-.2.2-.5.5.2.2.1c.1 0 .2 0 .3.1l4.6 1.9 4.6-.4h.5l.1.1c.1 0 .2.1.2.2l3.7 4.2 19.7-7.3 1.4-8.4c0-.1.1-.2.1-.3v-.1l.1-.4h.8l3.7.2 3.9-5.3.2-.2.5-.7.6-.9.4 1.2zm-320.7 145c.2.1.3.2.3.2l3.6 3.4 5.3-2.5 4-2.5 6.3-7.5-1.9-4.1v-.6l.8-4.9-2.2-6.3v-.3l-.1-.2.1-.2c0-.1 0-.2.1-.2l3.9-6.1 1.7-7.3-6.7-1.7c-.1 0-.2-.1-.3-.1h-.2l-.1-.2-.2-.2-1.5-3.7v-.3l-.1-.2.1-.2c0-.1 0-.2.1-.3l4.6-7.2-3.4-6.5v-.2l-.1-.1v-.3l.7-5.2c0-.1.1-.2.1-.3v-.2l.2-.1.2-.2 2.8-1.6c.1 0 .2-.1.2-.1l.3-.2.2-.2 3-1.8 3.2-3.8-8.7-13.7c-.1-.2-.2-.4-.1-.7l.6-4.9-7.5 4c-.1 0-.2.1-.3.1l-.1.1h-.1c-.1 0-.2 0-.3-.1l-10.7-3.6-11.8 2.7-3.9 5.6-.2.2-.1.1h-.2c-.1 0-.2.1-.3.1l-12 1.1 2.8 33 3.9-.9h.5l.5-.1.1.5v.2c.1.1.1.2.1.3l1.3 6.1 6.8 6c.1.1.2.2.2.3l2.6 5.5 5.7 3.3c.1.1.2.1.2.2l.2.1.4.3-.3.4-.1.2c0 .1-.1.2-.1.3l-3.6 5.1 3.7 3.4c.1.1.1.1.1.2l.2.2v.6l-1 6.5c0 .1-.1.2-.1.3-.1.1-.1.2-.2.3l-4 3.1.4 7.9 10-.6h.1c0 .2.1.3.3.3zm361.8-15.1l-7.1-5.4c-.1-.1-.1-.1-.1-.2l-.5-.4-.7-.5.8-.3.6-.2c.1-.1.1-.1.2-.1l3.8-1.3.5-5.3-8.3-4.2h-.2l-6.4 1.9-2.4 7.6c0 .1-.1.2-.1.2l-.1.4-.2.6-.5-.4-.4-.3c-.1 0-.1 0-.2-.1l-3.2-2.4-3 8.1c0 .1-.1.1-.1.2l-.1.2-.3.1c-.1 0-.1.1-.2.1l-12.9 2.8-1.7 6.1 16.7 8.4 26.1-15.6z" transform="translate(-17.714 -16.338)"/><path class="st1" d="M779.8 800.2l.3-.3 6.2-3 1.6-4.5-.4-4.7v-.5l.2-.1c0-.1.1-.1.2-.2l5.5-3.6-.9-5.1-3.2-7.3v-.1l-1.9-6.9-6.1-7.7c0-.1-.1-.1-.1-.2l-.2-.2.1-.2v-.2l1.8-5.1-4.3-2.2-6.9 1.5h-.1l-7.3.7h-.6l-.1-.3-.1-.1c0-.1-.1-.1-.1-.2l-4.7-10.6-2.7 1.6-.7 5.2 3.4 6.5c0 .1 0 .1.1.2l.1.2-.1.2c0 .1 0 .2-.1.2l-4.6 7.2 1.5 3.6 6.7 1.7c.1 0 .2.1.3.1h.1l.4.1-.1.4v.4l-1.7 7.3c0 .1-.1.2-.1.3l-3.9 6.1 2.2 6.3c.1.2.1.3 0 .5l-.8 4.9 1.9 4.1v.3l.1.3-.2.2-.1.1c0 .1 0 .1-.1.2l-6.3 7.6-.2.2-3.9 2.4s-.1 0-.1.1l-5.4 2.5-1.2 9 6.1 6.5 5.7-5.2c.1-.1.2-.1.3-.2l.4-.4.6-.6.1.3 12.2-1.9 2.4-8.5c0-.1.1-.1.1-.2v-.2l.1-.3h.6c.1 0 .1-.1.2-.1l4.8-.1 2.9-7.8c0-.1 0-.2.1-.2zm317.4-606.6l-7.9.1-1.8 3.8-4.3.4-.2 4.3-5.1.3 3.6 6.1 19.2-1.6 4.6-10.7-4.3-7.5-3.8 4.8zm-648 143.5l-2.2 12.2-14.3 11.2-.6 7.7-6.6 7.2.1.3c.1.1.1.1.1.2l4.1 14.3 9 11.2 7.1.2c.1 0 .2 0 .3.1h.2l.1.1c.1 0 .2.1.2.2l4.3 5.1v.1l27.2.4 5.7-2.4c.1 0 .2-.1.3-.1l.1-.1.2.1c.1 0 .2 0 .2.1l66.6 38.8 13.9-2.4 4.2-5.9.2-.2.2-.2h.5l6.2.9 4.7-5.2c.1-.1.2-.2.3-.2.1 0 .2-.1.3-.1l3.8-.4 1.7-3.2c0-.1.1-.1.2-.2v-.1l.1-.3h.7l3.4.3c.1 0 .2 0 .3.1l2.7-6-3.7-5.3c-.1-.1-.1-.2-.1-.3l-.2-.3.3-.3c0-.1.1-.2.2-.3l5.2-5.2.1-.1-5.6-8.4-13.9-12.5-9.6.9-.7 5.7.5 8.4-6.5 4.7-3.9-.4-2.2 4-5.2-3.4 5.1-5.6-.5-5.6-18 1.4-9.5-5.8L513 395l-5.4-6.1 8-1.5 3.5-8.7-11.1-1.5-4.5 6.5-2.9-4.3-28.4-4.3-3.2 3.9-4.4-3.4-13.9 9.9-8.3-6.6 1.7-6.8-2.9-6.4 8.8-3.9 8.9 5 3.4-6.9-1.4-11.9-11.7-10.9zm554.9 486.8v-.1l.1-.1c.1-.1.1-.2.2-.2l5.9-3.8-7.1-6.5c-.1-.1-.1-.2-.2-.3l-.1-.1-.4-.3.4-.3.1-.1c0-.1.1-.2.2-.3l5.8-5.7-3-6.8v-.3l-.2-.4-.3-.6.7-.1h.4c.1 0 .1-.1.2-.1l12.1-1.1 7.1-7.1c.1-.1.2-.1.3-.2l.1-.1h.3l6.9.3 11.3-18.3c.1-.1.1-.2.2-.2l.1-.1h.1c.1 0 .2-.1.3-.1l8.1-1.4 2.1-4.2c0-.1.1-.1.1-.1l.1-.1h.1c.1 0 .1-.1.2-.2l6.8-3.5 4.8-7.2V747l-5.8-3.1c-.1 0-.1-.1-.2-.2l-.2-.1v-.2c0-.1-.1-.2-.1-.2l-.6-6.5v-.5l.1-.1c0-.1.1-.2.2-.2l11.4-10.5 3.3-10c0-.1.1-.2.2-.3v-.1h.1c.1-.1.2-.1.3-.2l10.3-4.8-1.4-8.6-7.2-5.4-7.3-.6c-.1 0-.1 0-.2-.1h-.4l-.1-.3v-.1c-.1-.1-.1-.1-.1-.2l-7.9-17.9-3.9-2.9c-.1-.1-.2-.2-.2-.3l-.3-.3.2-.4v-.1c0-.1.1-.2.1-.3l3.1-5.4s.1 0 .1-.1 0-.1-.1-.2l-1-5-3.9 5.3-.2.2-.2.2h-.6l-3.6-.2-1.4 8.4c0 .1-.1.2-.1.2v.3l-.3.1c-.1.1-.1.1-.2.1l-19.8 7.4c-.1 0-.2.1-.3.1l-.3.1-.2-.2c-.1 0-.2-.1-.2-.2l-3.7-4.2-4.6.4h-.1c-.1 0-.3 0-.4-.1l-4.6-1.9-1.8 5.8c0 .1-.1.2-.1.3v.1l-.1.1c-.1.1-.2.1-.2.2l-9.3 4.1c-.1 0-.2.1-.3.1h-.4l-5.1-1.3-.6 5.5c0 .1-.1.1-.1.2v.4l-.3.1h-.1c-.1 0-.1.1-.2.1l-9.6 2.1 1.3 4.8 6.2 4.3c.1.1.2.1.2.2l.1.1.4.3-.3.4-.1.1c0 .1-.1.2-.1.3l-4.4 6.3-.1 9.4 4 7.5.4-1.5.9-13v-.2l2.8-6.2.1-.3h.3l4.4.1h.4l.1.3 1.2 4.8v.2l-1 11.7 1.8 11.2 2.4 6 .1.1v.1l-1.8 6.1v.1l-.1.1-3.3 3.6-1 2.2 1.6 3.8.1.1-.1.2-1.2 4-.1.2-.2.1-3.7 1.3.2 4.3v.1l-.1.1-4.2 8.5-.1.2-.2.1-7.1 2.9-4.2 7-.1.2h-5.8l-.7 8.5v.1l-.1.1-3.7 5-.1.1h-.1l-12.7 7.1v.4l-1.1 5.5c0 .1-.1.2-.1.3v.2l-.2.1-.2.2-7.6 3.3c-.1 0-.2.1-.3.1l-.2.1-.5.2-.2-.5-.1-.2c-.1-.1-.1-.2-.1-.3l-1.5-4.2-8.8-.9c-.1 0-.1-.1-.2-.1h-.5l-.1-.3v-.1c0-.1-.1-.1-.1-.2l-1.3-6.2-6.9-7.4-8.1.7h-.3l-.1-.1c-.1 0-.2 0-.2-.1l-18.4-11.9c-.1 0-.1-.1-.2-.2l-6-6.8-7.9 6.8c-.1 0-.1 0-.2.1l-.1.1h-.1c-.1 0-.1.1-.2.1l-4.7.3.2.7v.3l.1.2-.2.2c0 .1-.1.2-.1.2L881 792l1.2 3.5v.3l.1.2-.1.2c0 .1-.1.2-.1.2l-3.1 4.2 3.8 6v.1l22.1 6.6L925 816l5.5 15.3 15.1 6.2 10.1-1.2 13.6-9.9 11.4 2.5 11.5-1.8 3.5 5 6.7-.3v-.2l1.4-7.9c.2.4.3.3.3.2zM625 762.1l.3-.2.3.1c.1 0 .2 0 .2.1l3.9 2 2-1.7c.1-.1.2-.1.3-.2l.1-.1.2.1h.3l5.3 1.7 23.9-10.8c.1 0 .2-.1.3-.1l.3-.1.2.3c.1 0 .2.1.3.2l6.8 7.5c.1.1.2.2.2.4l1.7 5.2 7.5 6 8.2-9.6.2-.2.1-.1.3-.3.3.2.2.1c.1 0 .1 0 .2.1l3.2 2.1 2.7-2.5c.1-.1.2-.1.3-.2.1 0 .2-.1.3-.1h10.7l5-5.5c0-.1-.1-.2-.1-.2l-2.8-33.1-4.3.4-5.3 5.4c-.1.1-.2.1-.3.2l-.1.1-.3.3-.3-.4-.1-.1c-.1 0-.2-.1-.3-.2l-2.5-2.7c-.1-.1-.1-.2-.2-.3 0-.1-.1-.2-.1-.3l-.4-12.5-17.9 1.1h-.1c-.1 0-.1 0-.2-.1h-.3l-.1-.2c-.1 0-.1-.1-.2-.2l-3.7-5.5-9 1.1h-.7l-.1-.4-.1-.2c0-.1-.1-.1-.1-.2l-2.3-6.2-6.6-7.2-33.1-12.2.9 9.9v.5l-.2.2c0 .1-.1.1-.2.2l-5.4 3.9 2.1 5.9v.3l.1.4.2.6h-1.1c-.1 0-.2.1-.2.1l-7.2.2-5.8 3.1-2.9 6.6 2.5 18.1v.4l-3.2 10.1 13-.9-4.8 6.1 12.6 17 4.7-3.4c.5-.1.6-.1.7-.1z" transform="translate(-17.714 -16.338)"/><path class="st1" d="M882 807.7l-3.9-6c0-.1 0-.1-.1-.2l-.1-.1-.2-.3.2-.3.1-.1c0-.1 0-.1.1-.2l3.1-4.3-1.2-3.5v-.3l-.1-.3.2-.2c0-.1.1-.2.1-.2l2.2-2.7-.3-.8v-.3l-.1-.5c0-.1-.1-.1-.1-.2l-.3-.9-7.3 1.2h-.5c-.1 0-.2 0-.3-.1l-20-11.4-.6 4.9c0 .1-.1.1-.1.2v.4l-.3.1h-.2c-.1 0-.1.1-.2.1l-22.6 4.1-.9 5.9c0 .1-.1.2-.1.2v.3l-.3.1c-.1.1-.1.1-.2.1l-4.1 1.5.8 3.9v.3l.1.3-.2.2h-.1c0 .1-.1.1-.1.2l-5.6 4.4.1 3.8c0 .1 0 .1-.1.2v.6l-.3.1-.2.1c-.1 0-.1.1-.1.1l-3.8 1.3-6.9 6.9c-.1.1-.2.1-.3.2l-.1.1h-.1c-.1 0-.2 0-.3.1L789 816c-.2 0-.3-.1-.5-.1l-11.3-6.5c-.1-.1-.2-.1-.2-.2-.1 0-.1.1-.2.1l-4.8.1-2.4 8.5c0 .1-.1.1-.1.2v.1l-.1.3-.3.1h-.1c-.1 0-.1.1-.2.1l-12.3 1.9v.1c0 .1.1.1.1.2l1.5 8.3 8.6 12.4c.1.1.1.2.1.3l.1.1.2.4-.3.3-.1.1c-.1.1-.1.2-.2.3l-4.6 3.8 2 8.1 31.3-15.2 11.6-1.8 2.3 2.8 17.8 2.2 2 7.7 6.9 2.7 18.6.3 7.4.3 4.1 3.2 5.6-2.6 4.9-5 2.9-9.7-7-7-.3-11.7 3.9-1.6-.2-5.3 5.3-.7 1-5.9zm-183.2 25.4l-1.5-4.6-4.6-1.8c-.1 0-.2-.1-.3-.2l-.2-.1-.5-.2.3-.5.1-.2c0-.1 0-.2.1-.3l2.6-4.4c0-.1.1-.1.2-.1l.1-.1h.1c.1 0 .1-.1.2-.1l7.2-3.1c.1-.1.3-.1.4-.1h9l4.2-7.7v-4.1c0-.1 0-.2.1-.2v-1.5l.7.5.6.4c.1 0 .1 0 .2.1l5.4 3.5 5.7-1.7c0-.1-.1-.2-.1-.3l-.4-8c0-.1 0-.2.1-.3v-.2l.2-.1c0-.1.1-.2.2-.2l4-3.1 1-6.4-3.7-3.4c-.1-.1-.2-.2-.2-.3l-.3-.3.2-.3c0-.1.1-.2.1-.3l3.6-5.1-5.7-3.3c-.1 0-.1-.1-.1-.2h-.1v-.1c0-.1-.1-.1-.1-.1l-2.6-5.5-6.8-6s-.1-.1-.1-.2l-.1-.1v-.1c0-.1-.1-.1-.1-.2l-1.3-6-3.9.9h-.3s0 .1-.1.1l-5 5.5c-.1.1-.2.1-.2.2l-.1.1h-.1c-.1 0-.2.1-.3.1h-10.7l-2.8 2.6c-.1.1-.2.1-.3.2l-.3.2-.3-.2-.1-.1c-.1 0-.1 0-.2-.1l-3.2-2.1-8.3 9.7c-.1.1-.2.1-.2.2l-.1.1-.3.3-.4-.3-.1-.1c-.1 0-.2-.1-.3-.2l-7.5-6c-.1 0-.1-.1-.1-.2v-.1c0-.1-.1-.1-.1-.2l-1.7-5.2-6.8-7.5-23.9 10.8c-.1 0-.2.1-.3.1h-.4l-5.3-1.7-2 1.7c-.1.1-.2.1-.3.2l-.2.2-.3-.1c-.1 0-.2 0-.3-.1l-3.9-2-4.7 3.4s-.1 0-.2.1l17.6 57.4 6.5-1.6 3.9-7 4.5 1.4 1.9 6.7 14.6 6.3 10.5-5 6 2 4.9 8.2c.1 0 .1-.1.2-.1l7.2-2.2zm-99.9-118.2v-.4l3-6.6c0-.1.1-.1.1-.1l.1-.1.1-.1.1-.1 5.8-3.1c.1-.1.3-.1.4-.1l7.1-.2-2.1-5.9v-.2l-.1-.1-.1-.3.3-.2.1-.1c0-.1.1-.1.1-.2l5.4-3.9-.9-10v-.3l-.1-.6c0-.1-.1-.1-.1-.2l-1.3-14.5-4.4-3.9c-.1-.1-.2-.2-.2-.3l-.1-.1-.3-.3.2-.3c0-.1.1-.2.1-.3l3.8-5.7-.7-3.3-7.8 6.5c-.1 0-.1 0-.2.1l-.1.1h-.1c-.1 0-.1.1-.2.1l-6.3.3c-.1 0-.3 0-.4-.1l-6.6-3-6.6 1.6h-.4l-.1-.1c-.1 0-.2 0-.2-.1l-9.5-5.6-3.4-.3c-.1 0-.2 0-.2-.1h-.5l-.7-.1.4-.6.2-.4c0-.1 0-.2.1-.2l2.1-3.7-4.7-3.9-7.7 9-.1 7.6c0 .1 0 .1-.1.2v.2c0 .1 0 .1-.1.2l-2.1 3 .9 2.3 5.2 1.5c.1 0 .2.1.3.1h.1l.1.1.2.2 2.1 4.5v.6l-.6 4.6c0 .1-.1.2-.1.3l-1.4 2.7c0 .1-.1.1-.2.2v.1l-.1.3h-.6l-6.1-.6-4.2 5.6-.7 5.9c0 .1-.1.1-.1.2v.1l-.1.1c0 .1 0 .1-.1.2l-7.5 8.5-1.1 4.1 3.7.7.9 6.5-2 2.7 1.9 4.4-4.5 6.3 1.4 4.2 11.1 1.5 1 5.8 5.3-.2 4.1.6 4.5 4.2-5.4 5.3.4 4 5.6-2.3 5.3 2.3 4.5-1.4 3.5-3.6 10.7-3 .1-.2v-.3l3.2-10.1-2.3-18.2zm-155.5-20.6l13.7-.4c0-.1 0-.2.1-.4l3.1-6.9-10.3-4.9c-.1 0-.1-.1-.2-.2h-.1l-.3-.1v-.4c0-.1-.1-.1-.1-.2l-.1-4.9c0-.1 0-.2.1-.3v-.1l.1-.1c0-.1.1-.2.2-.2L462 664l-.6-8.7-.8-2.7v-.3l-.1-.3c-.1-.1-.1-.2-.1-.3l-.7-2.5-3.9-3.1-1.6 1.2c-.1 0-.1 0-.2.1l-.2.1h-.4l-3.2-.5c-.2 0-.3-.1-.4-.2l-15.4-10.9-2.4.8v.1l-.2 4.7c0 .1 0 .2-.1.3l-2.5 5.8.7 2.7 3.2 3.5c0 .1.1.1.1.2v.1l.2.2-.1.3v.3l-1.3 3.3c0 .1-.1.1-.1.2v.1h-.1c0 .1-.1.1-.1.2l-2.1 1.4c-.1 0-.1.1-.2.1l-.1.1-.3.2-.3-.2-.1-.1c-.1 0-.1 0-.2-.1L423 656l-2-1.2h-2.8l-3 1.7c-.1 0-.2.1-.2.1l-.3.1-.2-.2h-.1c-.1 0-.1 0-.2-.1l-2.7-1.8c-.1-.1-.2-.1-.2-.2l-.1-.1v-.1c0-.1-.1-.2-.1-.3l-.7-5.9-2.9-3.1h-3.2l-5.7 4.2-1.1 4.5 4.1 7.3 3.1 2.1 13.5 3.1 2.8-1.8 1.8-1.1c.1 0 .2-.1.2-.1h.1l.3-.2.3.2c.1 0 .2.1.3.2l3.6 3.1.2.2.2.2.4.3-.4.4-.2.1c0 .1-.1.2-.2.3l-2.2 2c-.1.1-.2.2-.3.2l-3.8 1.6-1 5.3c0 .1-.1.1-.1.2v.2l-.1.4h-.6c-.1 0-.1.1-.2.1l-2 .2h-.1c-.1 0-.3 0-.4-.1l-4.1-1.7-7.6 5.2-4.1 8.8-.2 4.8c0 .1-.1.1-.1.2v.4l-.3.1h-.1c-.1 0-.1.1-.2.1l-5.5 1.8-.2 4.1-.3 4.2 10 2.1c.1 0 .2.1.3.1h.1l.1.1c.1.1.2.1.2.2l2.3 4c.1.1.1.2.1.3v.3l-.7 2.9c0 .1-.1.1-.1.2v.1c0 .1-.1.1-.1.2l-3.3 3.1 1.7 3.9 2.5-4 9.5-1.6.1-6.9 4.3-2.9 4.8-.2 6.2 4 3.2-3.6-4.9-6.7-2.7-6.9 4.3-5.5 4.2-1.7 7.2 6.8zm1102.7-56.5l-1.6-4.7-3.7.2.7 3.8-2.3 2.4-4.1 5.1 1.4 11.2 2.2 8.9 1.8.7.2-5.3.4-7-.2-5.6 3.1-5.4 2.1-4.3zm-24.4-144.9l1.4-4.8-2.4-3.2-3.9 3.1.9 2.9 4 2zM33.6 619.5l14.7 15.3 9.3 4.4 4.8-6.8-13.7-14.9 5.3-21.3-5.6-3.8-4.2 3.6-19-10.6-1.9 3.8 2 14.4-6.1 7.9 2.7 9.8 11.7-1.8zm1502.8 54.6l-2.5-1.3-3.5 2.1-1.9 1.8 2.4 5.6v7.5l2.2 4.8 1.7-1-.5-13.2 2-2.8.1-3.5z" transform="translate(-17.714 -16.338)"/><path class="st1" d="M378.1 739.6l5 4.6 3.9.9 3.6-2.6 3.1.7 2.7 4.3 9.6 2.2 3.8-3.4 3.5-6.2-8.6-15-.7-.4-.1-.1-.1-.1v-.1l-.2-.2-1.7-3.9v-.2l-.1-.1-.1-.3.2-.2.1-.1c0-.1 0-.1.1-.2l3.3-3.2.7-2.9-2.3-3.9-10-2.1c-.1 0-.2-.1-.3-.1-.1 0-.1.1-.1.1l-4.4 1.6-1.8 5.5c0 .1-.1.1-.1.2l-.1.2v.4h-.4c-.1 0-.1.1-.2.1h-5.6c-.2 0-.5-.1-.6-.2l-5.9-4.9-10.2-1.4c-.1 0-.2-.1-.3-.1h-.2l-.1-.1-.2-.2-2.3-3.6c0-.1 0-.1-.1-.2l-.1-.1-.2-.3.2-.3.1-.1c0-.1 0-.1.1-.2l3.3-4.3-2.5-2.2c-.1-.1-.1-.2-.2-.3l-.1-.1v-.1c0-.1-.1-.2-.1-.3l-.1-2.1c0-.1 0-.1.1-.2v-.4l.3-.1h.1c.1 0 .1-.1.2-.1l3.2-1.3-.2-6.1-5.1.7-1.8 1.4s-.1 0-.2.1l-.5.4-.6.5-.2-.8-.1-.5c0-.1-.1-.1-.1-.2l-1.3-6.2v-.3l-.1-.4.3-.2c.1-.1.2-.2.3-.2l1.9-1-.1-4.3-2.5-2.3c-.1-.1-.2-.2-.2-.3 0-.1-.1-.2-.1-.3l-.6-10.1-3.1-3.6c0-.1 0-.1-.1-.2l-.1-.1v-.1c0-.1-.1-.1-.1-.2l-1.2-13.2v-.3c0-.1-.1-.1-.2-.2l-3.2-5.5v-.2l-.1-.1v-.3l.7-5.4-3.9-3.7-.1.6-1.3 6.3c0 .1 0 .1-.1.2l-1.1 2.7c0 .1-.1.1-.1.2v.1h-.1c0 .1-.1.1-.1.2l-10.1 6.9-2.1 5c0 .1-.1.2-.2.3v.1h-.1c-.1.1-.2.1-.3.2l-7 2.9h-.1l-3.7.9-6.8 7.1c0 .1-.1.1-.2.1l-.1.1h-.1c-.1 0-.1.1-.2.1l-10.4 1.8h-.3l-.2.3c0 .1-.1.1-.1.1l.3 5.7 3.7 7 3.5-1.1 2.3-2.5 5.5 2 .1 3.6-1.2 3.4 2 1.9 5.2 1.3 2.7 6.9 2.8 8.7-1.8 5.8 2.7 4.3 5.5-4.1 2.6.5 2.1 3.6 1.9 6.5 4 2.4 4.3-3.5 4.3-.1 8.4 2.8.1 3.8 2 2.9 4.1.4 3-3.8 3.9 3.2 4.8 2.4-.4 7.2 1.9 3.5zM491 347.8l-7.5 3.4-1.3 6.9 4.9 5.3 10.3-.7.8-3.9-1.2-5.7-6-5.3zm-259.7 241l-.8-10.3v-.2l.5-7c0-.1 0-.2.1-.2 0-.1 0-.2.1-.2l4.7-6.8-4.7-4.4-2.3 1.8c-.1.1-.2.1-.2.1l-1.9.8c-.1 0-.2.1-.3.1h-.2c-.1 0-.2 0-.3-.1l-3.3-1.5c-.1 0-.1-.1-.2-.2-.1 0-.1-.1-.2-.2l-3.5-5.2-4.8.2v.9l-.1.1c0 .1-.1.2-.2.3l-3.8 4.2-.2.2-6.6 3.8-1.3 2.8 1.3 2.1c0 .1.1.2.1.3l1 4v.4l-.8 2.6c0 .1-.1.2-.2.3-.1.1-.2.2-.3.2l-3.8 2.2.2 7.1 4.3 2.6s.1 0 .1.1l3 2.4c.1.1.2.2.2.3.1.1.1.2.1.3l.7 4.6 4.5 2.8s.1 0 .1-.1l5.9-1.6 10-6.4c.1 0 .1-.1.2-.1l.4-.2c.1-.1.1-.2.2-.2l1-.6 1.3-2.1zM227.9 369l-4.1.1-6.9-5.5-7.4 5.8-5.2 1.1v.1l1 7.1 4.1 5.5c.1.1.1.2.1.3l.1.1v.4l-2 9 .1.2.2.2 1.5 3.7 4.4-2.7c.1 0 .1-.1.2-.1l.2-.1h.1c.1 0 .2 0 .3.1l3.1 1.2c.1 0 .1.1.2.1h.1l.1.1c.1 0 .1.1.2.1l2.8 4.1 4.1-.9h.4l.2.1c.1 0 .1 0 .2.1l2.9 2.2h2.4l.9-1.5.2-.2.1-.1.2-.3.3.1h.3l4.3 1c.1 0 .1.1.2.1h.1l.3.1.1.3v.1c0 .1.1.1.1.2l.6 3.4v.6l-1 2.4 1.5 2.2 5.1-.3h.1c.1 0 .1 0 .2.1h.5l.1.3.1.1c0 .1.1.1.1.2l.8 2.4 2.7.1c.1 0 .2 0 .3.1h.7l-.1.5v.5l-.4 4.2 3.6 5.7c.1.1.1.2.1.3l1 5.1 3.7-2.5c.1 0 .1-.1.2-.1h.1c.1 0 .1-.1.2-.1l7.8-.1 3.8-10.3c.1-.2.1-.3.3-.4l6.9-6.3c.1-.1.2-.1.3-.2l4.5-2c.1 0 .2-.1.3-.1l3.1-.2h.3l3.1-.2 3.2-3.1-.1-.1c-.1 0-.2-.1-.3-.2l-6.9-7.5-3.9-.4c-.1 0-.2 0-.2-.1h-.4l-.1-.3v-.1c0-.1-.1-.1-.1-.2l-2.4-6-2.5.5-.1 3.4c0 .1 0 .2-.1.3v.7l-.5-.1h-.5l-1.4-.2c-.1 0-.2-.1-.3-.1h-.1l-.1-.1c-.1-.1-.2-.1-.2-.2l-1.7-2.4-1.9.8.1 4c0 .1 0 .2-.1.3v.9l-.5-.1h-.5l-2.1-.3c-.1 0-.2-.1-.3-.1h-.2l-.1-.2-.2-.2-1.8-3.1-7.9.9h-.3l-.2-.2-3.6-4.4-7.5.7h-.2l-.2-.2-2.3-2.4-.3-.3.2-.3 11.5-16.8-1.2-8.4c-.1-.1-.1-.2-.1-.3l-1-7.2-8.3 1.1-10 4.7.3 8.4 1.4 3.7-2.8 2.8-2.3-5.2z" transform="translate(-17.714 -16.338)"/><path class="st1" d="M160.6 418.7l4.2 4.5-3.8 5.7 1.4 4.2 6.2 1 1.8 6.2-1.6 3.5h.4l3.7-1.3c.1 0 .2-.1.3-.1.1 0 .2 0 .3.1l2 .9h.1c.1-.1.2-.1.2-.1l7.2-2.1 2.6-5 1-7.2c0-.1.1-.2.1-.2 0-.1.1-.1.1-.2l2.7-3.2c.1-.1.2-.1.2-.2l.2-.3c0-.1.1-.2.1-.3l1.1-1.3.5-2.8c0-.1.1-.1.1-.2v-.1l.1-.3.3-.1h.1c.1 0 .1-.1.2-.1l2.4-.5.2-3.7c0-.1 0-.2.1-.2v-.4l.3-.1h.1c.1 0 .1-.1.2-.1l8.1-3.5-1.3-11.4v-.4l1-3.7c0-.1.1-.1.1-.2s.1-.1.1-.2l2.1-2c.1-.1.2-.1.3-.2l.1-.1v-.1l2-8.9-4.1-5.5c0-.1-.1-.1-.1-.2s-.1-.1-.1-.2l-1-7.1-4.8 1-7.3 6.8-4 6.7-8.9.3-4.5 9.3-6.2 1.3.4 6.8-8.8 6.9 1.8 8.6zm132.6-81.8l-.5 13.6-5.3 2.8-25.1-1-11.1 1.4 1 7.2 5.9-1.7h.2l8 .4h.2l.1.1 3.6 4.2.1.1v.2l.4 5.6v.2l-.1.1-2.4 3.5.9 6.2-.3 5.5v.2l-.1.1-3.7 3.5-.9 3.1.1.1 1.8 3 2 .3-.1-4c0-.1 0-.1.1-.2v-.4l.3-.1h.1c.1 0 .1-.1.2-.1l2-.8c.1 0 .2-.1.3-.1l.3-.1.2.3.1.1c.1 0 .1.1.2.2l1.7 2.4 1.3.2.1-3.4c0-.1 0-.2.1-.3v-.4l.4-.1c.1-.1.2-.1.3-.1l2.5-.5h.4l.4-.1.1.4.1.2c0 .1.1.1.1.2l2.4 6 3.9.4c.1 0 .2 0 .3.1.1.1.2.1.3.2l6.9 7.5.7-2.6-1.4-7.8v-.1l.1-.1 2.3-5.8v-.2l9.3-12.1.2-.2h.3l6.2.9h.2l.1.2 2.2 3.3.1.1v.2l-.4 6.1v.2l-.1.1-4 4.7-6.7 9.2-1.3 7.4 4.5-.5h.5l.5-.1v.7c0 .1.1.2.1.3l.6 6 3.8.9c.1 0 .2.1.2.1h.1l2.5-3.3.2-.2.1-.1h.1c.1 0 .2-.1.3-.1l3.4-.3.8-6.8c0-.1.1-.1.1-.2s.1-.1.1-.2l6.2-7.7-1.9-2.6-2.4-3.4c-.1-.1-.1-.2-.1-.3v-.5l1-5.4c0-.1.1-.2.1-.2 0-.1.1-.1.1-.2l6-7.3.2-3.1c0-.1 0-.2.1-.3v-.7l.5.1h.6l4.3.7 2.9.3 3.1-4.1.3-.3.2-.1c.1 0 .2-.1.2-.1l-1-4.1.4-3.6-3.7-4.2 2.5-5.8 8.3-12.5 7.6-3.3 3.8-8.3.7-11.5-.5-.7c-.1-.1-.2-.1-.2-.2l-1.4-2-8-3.1c-.1 0-.2-.1-.3-.2l-.3-.1v-.7l.8-7.4-10.2-11.3-9.5 14.5-5.6.3-6.6 5.5-5.1.2-1.6 5.2-2.2 3.7-3.8 3.4 2.7 4.1-2.5 3-9.5-.7-1.7 9.1zm-160 143.2l-2.2 7.1-9.3 9.5 1.3 5.5 5.3-.7 4.3 2.9 2.2 6.9 4.5-.9 5.4.5.3 3.5-5.8 9.2 12.5-.7h.1c0-.1.1-.1.2-.2l14.2-12.6-1.3-1.8c0-.1-.1-.1-.1-.2s-.1-.1-.1-.2l-.2-2.2v-.4l.1-.1c0-.1.1-.2.1-.3l1.5-1.8.2-.2 2.4-1.7-.5-2-3.1.1-1.3 1.3c-.1.1-.2.1-.3.2l-.2.2-.3-.1c-.1 0-.2 0-.3-.1l-2.5-1.1c-.1 0-.1-.1-.2-.1h-.1v-.1c-.1-.1-.1-.1-.2-.1l-1.9-2.9c-.1-.1-.1-.3-.1-.4l-.4-2.8v-.4l1.3-2.7-7.3.2c-.1 0-.1 0-.2-.1-.1 0-.2 0-.2-.1l-.1-.1-.2-.2-.2-.1-7 .1-5.5-4.3.1-4.6-4.9-.9zm124.4 200.1l2.3-5.8 3-3.8 8 .8 4-3.9 3-.5 2.4 1.6 7.8-1.2 5.7-2.1 3.7-1.2.2-.3.1-.1c0-.1-.1-.2-.1-.3l-.2-3.1-.7-2.8-4.2-5.1c-.1-.2-.2-.4-.2-.6l-.1-6.6-4.8-5c-.1-.1-.2-.2-.2-.4l-2.1-5.9v-.2l-.6-3.5-3.6-.8c-.1 0-.1 0-.2-.1l-11-4.7c-.1 0-.1-.1-.2-.2l-.3-.1v-.3c0-.1-.1-.2-.1-.2l-.6-5.5-10.5-.8c-.1 0-.2 0-.3-.1l-11.4-5.3c-.1 0-.1-.1-.2-.2l-.2-.1v-.3c0-.1-.1-.1-.1-.2l-.3-3.4-1.8-2.5-5.2-.1c-.1 0-.2 0-.3-.1h-.2l-.1-.1c-.1 0-.2-.1-.2-.2l-8.9-11.5-9.9 6.3c-.1.1-.2.1-.3.1l-5.9 1.6.2 7.5c0 .1 0 .2-.1.3v.1c0 .1-.1.2-.2.3l-1.4 1.5 1 6 3.5 3.8 4.7.5c.1 0 .1.1.2.1h.1c.1 0 .1 0 .2.1l9 7.3.2.2.1.1v.1c0 .1.1.2.1.3l.5 5.8v.3c0 .1-.1.2-.2.3l-3.3 4.5.1 4 3-.1 2.7-1.5c.1 0 .2-.1.2-.1l.4-.2.6-.3.1.7.1.4c0 .1.1.2.1.3l.8 6.1 2.4 2.9 4.7.5c.1 0 .2 0 .3.1h.4v.4c.1.1.1.2.1.3l1.2 10.7v.3l5.2 4.1v5.1l-.9 4.2 3.2 4.8 5.5-3z" transform="translate(-17.714 -16.338)"/><path class="st1" d="M338.8 286.9c.1 0 .1.1.2.1l10.3 11.4c.1.1.1.2.1.3l.1.1v.4l-.8 7.3 8 3.1c.1 0 .1.1.2.1h.1v.1c.1.1.1.1.2.1l1.4 2 .9-13 3.4 4-.4 9.2 4.5 7.7 2.2 13.3 6.1 7.6 2 8.2 20.8 10.1 11.9-3.4 8-13.2 1.3-13.4-5.5-15.3-1.6-22.8-3.3-8.1-7.3-9.5-1.7-7.7 2.6-2 4.3 5 3.6-2.9-4.2-6.5-14.2-7.9h-19.4l-3.5 3.1-9.1 6.4 1 7.6-5.6 11.2-12.9 1.4-3.7 5.9zM216.1 707.2l-5.4-.8.4-4.4 6-6.7-6.6-7.6 2.7-1.7 3.5-1.9-4.3-6.3-14.8-1.7-3.6 2.8 3.2 6.6v.6l-1.5 13.3 3.9 5.7c.1.1.1.2.1.3l.1.1v.4l-2.5 10.1 1.7 5.4v.3l.1.4.2.6h-1.1c-.1 0-.2 0-.2.1l-5.6-.1-2.8 1.5c-.1 0-.2.1-.2.1l-.1.1-.3.2-.2-.3-.1-.1c-.1 0-.1-.1-.2-.2l-2.5-3-1.7 2.5 3.8 7.1v.2l.1.1.2.3-.2.2-.1.1c0 .1 0 .1-.1.2l-3.8 3.7s-.1.1-.2.1l-3.6 2.4 5.2 6.1c.1.1.1.2.1.3l.3.4 8.2 2.2 21.2-2.5-2.5-8.2 5.2-1.5 1.9-23.1-3.9-4.4zM91 705.8l.3-.2.2.3c.1 0 .2.1.2.2l4 4.5 6.1.1 1.4-3.6c0-.1.1-.1.1-.2l.2-.6v-.3l1.7-4.4c0-.1.1-.2.2-.3.1-.1.2-.2.3-.2l4.3-2.2-1.8-2.2c0-.1-.1-.1-.1-.2l-.2-.2.1-.3v-.2l2-4.9-2.7-2-.2-.2-.2-.1-.4-.3.3-.4.1-.1c0-.1.1-.2.1-.3l2.7-3.3.1-2.7c0-.1 0-.2.1-.2v-.3l.2-.1.2-.2 3.1-1.8c.1 0 .2-.1.2-.1l.2-.1.4-.2.2.4.1.1c.1 0 .1.1.2.2l2.7 3.8 2.8-2.7c.1 0 .1-.1.2-.1l-.2-5.7c0-.1 0-.3.1-.4l1-2.5-6.2-6.3c0-.1-.1-.1-.1-.2l-.1-.1-.2-.2.1-.3v-.3l3.5-8.6-6.2-6.4-4.7.4h-.6l-.1-.3c-.1 0-.1-.1-.2-.2l-2.9-4.6c-.1-.1-.1-.2-.1-.3l-.4-.7-10-7.6-.1 12.2-5.3-2.1-9.6 1.4-3.1 4.9-8.2-11.2-5.1 5.6 1.3 8.8-2.5 3.5 1.6 3.7 4.3 2.7.3 6.3 3.2 9.9.1 9.4-.3 15.6 2.3 2.6 3.9-2.1 3.1 4.2c.1 0 .1-.1.2-.1l11.1-5c.5-.4.6-.4.7-.4zm-5.8-1.4l-.3.3-.3-.1c-.1 0-.2 0-.3-.1l-7-2.5c-.1 0-.1-.1-.2-.1H77l-.3-.1v-.4c0-.1-.1-.1-.1-.2l-.9-5.9v-.4l-.1-.4.4-.1h.1c.1-.1.2-.1.3-.1l6.1-1.2-.3-3.7v-.5l.1-.1s0-.1.1-.1l.1-.1 6.4-5.7-4.6-2.3c-.1-.1-.2-.1-.3-.2l-6.2-6.1c-.1-.1-.1-.2-.2-.3l-.1-.1v-.1c0-.1-.1-.2-.1-.3l.2-5.3c0-.1 0-.2.1-.3v-.9l.6.1.3.1h.3l5.1 1.3c.1 0 .1.1.2.1h.1l.1.1c.1 0 .1.1.2.1l4.5 5.8 5.4-.5h.8l.1.4v.1c.1.1.1.2.1.3l.8 5.5 4.2 2.9.2.2.2.1v.2c0 .1.1.2.1.3l.4 7.8c0 .1 0 .1-.1.2v.1l-.1.1c0 .1 0 .1-.1.2l-4.9 7.9-.2.2-.5.8-.6 1-.3-1.1-.2-.9c0-.1-.1-.1-.1-.2l-1.4-6.2-7.8 10.4c.3-.1.2 0 .1 0zm79.9 55.7l-1.8-5.2 5.4-4.9-2.1-4.4-8.4-7-2.5 2.3c-.2.2-.4.3-.6.3l-8.1.4-4.1 3.9 1.6 2.6c.1.1.1.2.1.3v.1l.2.4-.3.3h-.1c-.1.1-.1.2-.2.3l-3.4 2.5 5.7 6.7 5.2.5c.1 0 .1 0 .2.1h.4l.1.3v.1c0 .1.1.1.1.2l2.1 5.8c0 .1.1.2.1.3v.1l.1.4-.4.2h-.1c-.1.1-.2.2-.3.2l-3.6 1.9c-.1.1-.3.1-.5.1l-4.1.1-4.3 10.5c0 .1-.1.2-.2.2l-.1.3-.2.5-.5-.3-.3-.2c-.1 0-.1 0-.2-.1l-4-2.8-2.1 2.8-.2.2-.1.2h-.2c-.1 0-.2.1-.3.1h-10c-.1 0-.1 0-.2-.1h-.1l-2.4 2.9 1.2 7.5 8 9.5.5 10.7-.8 5.2 7 7.3 2.9-1.5 1.5-3.2 4 1.7 4.2.9 4.5-3.5-1.2-13.4 1.5-19.3 11.1-12.7.3-12.3zM112.4 747c.1-.1.3-.1.4-.1h.1l11.3 1.7 1.2-2.6c0-.1.1-.2.2-.2l.1-.3c0-.1 0-.2.1-.3l1.4-2.9-2-4.9-5 .5h-.3l-.1-.1c-.1 0-.1 0-.2-.1l-11.1-8.3-.1-.1c-.1 0-.2.1-.3.1l-7 .3-5.7 5.3 5.8 5.3 1 8.1 1.8 2.3c.1 0 .1-.1.2-.1l8.2-3.6z" transform="translate(-17.714 -16.338)"/><path class="st1" d="M93.8 691.5l.2 1 .2.8c0 .1.1.1.1.2l1.4 6.2 4.8-7.7-.4-7.7-4.2-2.9c-.1-.1-.2-.1-.2-.2l-.1-.1v-.1c-.1-.1-.1-.2-.1-.3l-.8-5.5-5.4.5h-.6l-.1-.2c-.1 0-.2-.1-.2-.2l-4.5-5.8-5-1.3-.2 5.2 6.2 6.1 4.7 2.4c.1 0 .1.1.2.2l.4.2.6.3-.5.5-.3.3c0 .1-.1.2-.1.2l-6.5 5.8.3 3.7v.9l-.4.1h-.1c-.1.1-.2.1-.3.1l-6.1 1.2.9 5.8 6.9 2.5 7.9-10.5.2-.2.5-.6.6-.9zm424.6-70.6c-.1-.2-.2-.4-.2-.6v-5.2l.5-9.6-10.2-5.3c-.1 0-.1-.1-.1-.1h-.1l-.1-.1c0-.1-.1-.1-.1-.1l-1.9-3.8v-.2l-.1-.2.2-.2c0-.1 0-.2.1-.2l4.8-7-1.7-5.6-2.8-9.9v-.5c0-.1.1-.2.1-.3l4-6.8-.9-7.6-6.6-12.4-9.5-4.5c-.1 0-.2-.1-.3-.2h-.1v-.1c-.1-.1-.1-.2-.2-.3l-1.9-6-2.7-2.3-1.9 4.1c0 .1-.1.1-.1.2v.1l-.1.3v.3l-1.2 3.6c0 .1-.1.1-.1.2l-7.1 11.4-.1.1-11 13c-.1.1-.2.2-.3.2l-9.7 5.5.2 4.6 3.7 5.7c0 .1 0 .1.1.2l.1.1.2.3-.2.3-.1.1c0 .1 0 .1-.1.2l-3.8 5.3-.1 6.7c0 .1 0 .1-.1.2v.2c0 .1 0 .1-.1.2l-2.3 3.5c-.1.1-.1.2-.2.2l-.1.1h-.1c-.1 0-.2.1-.3.1l-9.4 1.3-.8 6c0 .1-.1.2-.1.3v.1h-.1c-.1.1-.1.2-.2.2l-3.3 2.6c-.1 0-.1 0-.2.1l-.2.1-.3.2-.3-.3-.1-.1c-.1 0-.2-.1-.3-.2l-3.9-3.6-4.5 8.8c-.1.1-.1.2-.2.2l-.1.2h-.2c-.1.1-.2.1-.3.1l-8.6 1.7-6.8 9.7.1.1 1.7 3.9 3.8 2.5 8.9 3 2.5.1c.1 0 .2 0 .3.1h.1c.1 0 .1-.1.2-.1l2.4-.9c.1 0 .2-.1.3-.1l.1-.1.2.1c.1 0 .1 0 .2.1l15.4 10.9 3.2.5 1.7-1.2c.1 0 .1 0 .2-.1l.1-.1.3-.2.3.2.1.1c.1 0 .1 0 .2.1l3.9 3.1c.1 0 .1.1.1.2l.1.1v.1c0 .1.1.1.1.2l.7 2.4 9.5-3.9c.2-.1.4-.1.6 0l9 2.2c.1 0 .1.1.2.1h.1v.1c.1 0 .1.1.2.1l4.3 4.6 4.4-2.7c.1 0 .1-.1.2-.1l.2-.1h.1c.1 0 .2 0 .3.1l7.1 2.6c.1 0 .1.1.2.1 0 0 .1 0 .1-.1l3.3-1.3-.9-7.6c0-.2 0-.3.1-.5l3.1-8.6c0-.1.1-.1.1-.2v-.1l.1-.3h.4c.1 0 .1-.1.2-.1l14-.8 4.1-9-3.7-4.8zM119.6 770.3c.1-.1.1-.1.2-.1l12.9-7.6-3.9-10.6-2.3 1.3-1.6 7.6c0 .1-.1.1-.1.2v.1l-.1.1c0 .1-.1.1-.1.2l-3.1 3c-.1.1-.2.1-.3.2l-4.5 2c-.1 0-.2 0-.3.1l.3 2.1 2.9 1.4zm50.2-20.8l7.9-.6 7.2-4.1-5.3-6.1c-.1-.1-.1-.2-.1-.3l-.2-.2-.4-.4.5-.3.2-.1c.1-.1.1-.2.2-.2l3.7-2.4 3.7-3.7-3.8-7.1c0-.1 0-.2-.1-.2v-.1l-.1-.3.2-.2c0-.1 0-.2.1-.2l1.8-2.6.2-.2.2-.3.4-.5.4.5.2.3c.1 0 .2.1.2.2l2.3 2.8 2.7-1.5c.1 0 .2-.1.2-.1.1 0 .1 0 .2-.1l5.5.1-1.7-5.3v-.4l2.5-10.1-3.9-5.7c-.1-.2-.2-.4-.2-.7l1.5-13.3-3.2-6.6v-.1l-4.7-.2c-.1 0-.1-.1-.2-.1h-.4l-.1-.3v-.1c0-.1-.1-.1-.1-.2l-1.8-5.8h-3.4l-.9 3.2c0 .1-.1.2-.1.3l-.1.4h-.4c-.1 0-.2.1-.3.1l-12.1-.2.6 3.8 5.2.1c.1 0 .2 0 .3.1h.4l.1.4c.1.1.1.2.1.3l.6 3.3v.4l-.1.1c0 .1-.1.2-.1.3l-5.4 7.3-.2.2-.1.1h-.1c-.1 0-.2.1-.3.1l-9.7.9-1.5 3.5c0 .1-.1.2-.2.2l-.1.2h-.2c-.1 0-.2.1-.2.1l-6.1 1.2h-.3l-.3.1-.2-.2c-.1 0-.1-.1-.2-.2l-3-4c0-.1-.1-.1-.1-.2s-.1-.1-.1-.2l-.5-5.8-4.9-1.8c-.1 0-.1-.1-.2-.1h-.1l-.3-.1v-.4c0-.1-.1-.1-.1-.2l-.6-6-3.6-1.1-1.4 2.9c0 .1-.1.1-.1.2l-.1.1-.2.4-.4-.1h-.5l-5.1-1.4-2.6 3.6s-.1 0-.1.1l3.8 3.9 3.2-.9h.4l.3-.1.2.2c.1 0 .2.1.2.2l2.5 2.9 4.6.9c.1 0 .2.1.2.1h.2l.1.2.2.2 2.5 5.2 5.6 7.8c.1.1.1.2.1.3v.3l-.6 8.2 6 8.8c.1.1.1.2.1.2l2.4 7.1c0 .1 0 .2.1.3l.4 7.5c.1 0 .1 0 .1.1l8.4 7 .3.3 2.3 4.1s-.1 0 0 0z" transform="translate(-17.714 -16.338)"/><path class="st1" d="M116.1 764.1l.2 1.4 4.5-2 3.1-3 1.6-7.6c0-.1.1-.2.1-.3v-.1h.1c.1-.1.2-.2.3-.2l2.4-1.3c.1 0 .2-.1.3-.1l.3-.2c.1-.1.2-.2.3-.2l1.9-1.1-4.6-3.1-1.2 2.6c0 .1-.1.1-.1.2l-.1.1-.1.3-.3-.1h-.3l-11.3-1.7-8.3 3.5h-.1l-.1.1 1.2 8.6 10.2 4.2zm117.3-95.5l7.6-2.7 2.7-1.1-1.2-10.7-4.7-.5c-.1 0-.2 0-.3-.1h-.1c-.1-.1-.2-.1-.3-.2l-2.4-2.9c0-.1-.1-.1-.1-.2v-.1c0-.1-.1-.1-.1-.2l-.8-6-2.7 1.5c-.1.1-.3.1-.5.1l-3.1.1c-.1 0-.2 0-.3-.1h-.7v-.6c0-.1-.1-.2-.1-.3l-.2-4c0-.1 0-.1.1-.2v-.1l.1-.1c0-.1 0-.1.1-.2l3.3-4.5-.5-5.8-9-7.3-4.7-.5c-.2 0-.5-.1-.6-.3l-3.6-3.9c0-.1-.1-.1-.1-.2v-.1c0-.1-.1-.1-.1-.2l-1-5.9-7-1.8c-.1 0-.2-.1-.3-.1-.1-.1-.2-.2-.2-.3l-3.3-5.4-3.5 1.5c-.1.1-.3.1-.4.1l-7.2-.3-.2 4.7c0 .1 0 .2-.1.3v.2l-.1.1c-.1.1-.1.2-.2.2l-6.3 4.7v.1l2.5 12.2v.3l.1.3-.2.2c0 .1-.1.1-.1.2l-7.1 5.6 1.9 9.6v.5l-2.4 6.2c0 .1-.1.1-.1.2l-.1.3h-.3c-.1 0-.1.1-.2.1l-5.1.8h-.4l-.1-.1c-.1 0-.2-.1-.3-.2l-2.6-2.2-6.2 4.3 3.5 4.3c.1.1.1.2.1.3l.1.1v.4l-1.8 10 5.7 6.6c.1 0 .2 0 .2-.1l12.1.2.8-3.2c0-.1.1-.1.1-.2v-.2l.1-.3h.6c.1 0 .1-.1.2-.1h3.5c.1 0 .1 0 .2.1h.5l.1.3v.1c0 .1.1.1.1.2l1.8 5.8 4.7.2h.1c0-.1.1-.1.1-.1l3.7-2.8c.1 0 .1 0 .2-.1l.1-.1h.3l14.9 1.7c.1 0 .2.1.3.1h.1l.1.1c.1.1.2.1.2.2l4.4 6.3s0 .1.1.1l8.2-3.6.7-6.7 6.7-4.6zM87.8 728l6.8 6.2v-.1l5.7-5.4c.2-.2.4-.3.6-.3l7-.3-1-7.2v-.5l.2-.2c0-.1.1-.1.1-.2l3.4-2.7-6.4-9.7-1.4 3.5c0 .1-.1.1-.1.2v.1l-.1.3h-.4c-.1 0-.1 0-.2.1l-6.2-.1c-.1 0-.2 0-.3-.1h-.1l-.1-.1c-.1 0-.2-.1-.3-.2l-3.9-4.5-11.1 5 7.1 9.8.7 6.4zm210.8-68l.2 3 10.3-1.8 6.8-7.1c.1 0 .1-.1.2-.1h.1c.1 0 .1-.1.2-.1l3.6-.9 7-2.9 2.1-5c0-.1.1-.1.1-.2v-.1h.1c0-.1.1-.1.1-.2l10.1-6.9 1.1-2.6 1.3-6.4.1-.7c0-.1.1-.1.1-.2l.1-.7v-.3l.2-1.1-6-7.2-2.4-1.8-2.2 1.8c-.1.1-.2.2-.4.2l-1.7.5h-.3l-.3.1-.2-.2c-.1 0-.2-.1-.2-.2l-4.7-5.6-1.1 1-4.9 6.2-.2.2-2.8 2c-.1 0-.1 0-.2.1l-.1.1h-.4l-3.8-.6c-.2 0-.3-.1-.4-.2l-6.6-4.8-4.4-2.7-3.7.8h-.1l-6.3 1.4-2.2 3.8v1.5l1.8.7c.1 0 .1.1.2.1l.1.1.3.1v.5c0 .1.1.1 0 .2l-.3 3.7c0 .1 0 .2-.1.2v.3l-.2.1-.2.2-2.4 1.3.6 3.4 2.1 5.9 4.8 5c.1.1.1.2.2.3 0 .1.1.2.1.3l.1 6.6 4.2 5.1c.1.1.2.3.2.4l.7 2.9c-.4.4-.4.5-.4.5z" transform="translate(-17.714 -16.338)"/><path class="st1" d="M146.2 759.6l-.3-.3-5.7-6.8c-.1-.1-.1-.2-.1-.3l-.2-.3c-.1 0-.2-.1-.2-.2l-1.7-2-5.6.2h-.1l-.3.2-.2.2-2 1.1v.1l3.9 10.7c0 .1.1.2.1.4l.1.4-.3.2c-.1.1-.2.2-.3.2l-13 7.6 2.2 4.6 1.1 3.6h10l2.1-2.8.2-.2.1-.2.3-.4.4.3.2.2c.1 0 .1 0 .2.1l4 2.8 4.2-10.5c0-.1.1-.1.1-.2v-.1l.1-.3h.4c.1 0 .1-.1.2-.1l4.1-.1 3.5-1.9-2.1-5.8-5.2-.5c0 .2-.1.2-.2.1zm-34.9-132.9l-5.7 7.2 14.4 6.8-3.8 3.1-7.5-3.6-3.7 3.5 2.9 4.5 4.7-.4h.5l.1.1c.1 0 .2.1.3.2l6.3 6.4c0 .1.1.1.1.2l.1.1.2.2-.1.3v.3l-3.5 8.6 6.2 6.4c0 .1.1.1.1.2l.1.1.2.2-.1.3v.3l-1 2.6.2 5.7v.1c.1 0 .1.1.2.1l3.5 3.6 2.6-3.6.2-.2v-.1l.2-.3.3.1h.4l5.1 1.4 1.4-2.9c0-.1.1-.1.1-.2l.1-.2.2-.4.4.1h.4l3.7 1.2c.1 0 .1.1.2.1h.1l.3.1v.4c0 .1.1.1.1.2l.6 6 4.9 1.7c.1 0 .1.1.2.1h.1l.3.1v.4c0 .1.1.1.1.2l.5 5.9 2.9 3.9 6-1.2 1.5-3.5c0-.1.1-.1.1-.2l.1-.3h.3c.1 0 .1-.1.2-.1l9.7-.9 5.4-7.2-.6-3.2-5.2-.1c-.1 0-.2 0-.4-.1h-.4l-.1-.4c-.1-.1-.1-.2-.1-.3l-.7-3.9v-.4l-.1-.1-5.7-6.6c-.1-.1-.1-.2-.1-.2l-.1-.1v-.5l1.8-10-3.5-4.4c-.1-.1-.1-.2-.1-.3l-.1-.2-.3-.4.4-.3.2-.1.2-.2 6.3-4.4c.1 0 .1 0 .2-.1l.1-.1.3-.2.3.2c.1 0 .2.1.3.2l2.6 2.2 5-.8 2.4-6.2-1.9-9.6v-.3l-.1-.3.2-.2c0-.1.1-.1.1-.2l7.1-5.6-2.4-12.1-6.1.2-3.9 3.3c-.1.1-.2.1-.3.2l-.2.2-.3-.1h-.1c-.1 0-.2 0-.3-.1l-4.9-2.5-6.3-2.7.1 2.5-7.9.5-2.6 4.8-4 .9-4 9-7.8 3.8-6.6-8.1-13.8-.3zm41.2-149.6l1.7 4.4-2.9 4.3.1 3.1.2.1 7.3-.2c.1 0 .2 0 .2.1h.3s0-.1.1-.1l3-1.6c.1-.1.3-.1.4-.1l6.2-.4 3-3.3c.1-.1.2-.1.3-.2l.1-.1h.1c.1 0 .2-.1.3-.1l4.1-.1c.1 0 .1 0 .2.1h.4l.1.3v.1c0 .1.1.1.1.2l2.4 6.1 1.4-1c.1 0 .1 0 .2-.1l.1-.1h.1c.1 0 .1-.1.2-.1h.1l3.1.2c.1 0 .2 0 .3.1h.1l.1.1c.1.1.2.1.3.2l1.8 2.1 8.9-1.7 4.6-3.6c.1 0 .1 0 .2-.1l.3-.2c0-.1 0-.1.1-.2l5.1-9v-.7c0-.1 0-.2.1-.3v-.4c0-.1-.1-.2-.1-.3v-.4l-4.5-4.5c0-.1-.1-.1-.1-.2s-.1-.1-.1-.2l-1-4.3-10.1-.8c-.2 0-.3-.1-.4-.1l-5-3-.3-.3-7.6-11.6-2.3-4.3c0-.1-.1-.2-.1-.3h-.1l-2-.8-3.7 1.3c-.1 0-.2.1-.3.1h-.5c-.1 0-.2 0-.2-.1h-.1l-.9 2.1-7.9 5.6-3.7 7.2-3.7 9.8-.1 7.3zm328.7 223.2l4.5-4.2 7.4 3.1 24.2 2.4 8.3-4.7c0-.1 0-.1-.1-.2l-.9-4.4-8.7-6.3c-.1-.1-.2-.1-.2-.2l-.1-.1v-.1c-.1-.1-.1-.2-.1-.3l-.6-4.9-5.7-4.3-6-1.3c-.1 0-.2-.1-.2-.1l-.3-.1-.1-.2c-.1-.1-.1-.1-.1-.2l-1.8-4.8-3.9-7.1v-.6l.7-6.3-7-2.6-4.4 2.7c-.1 0-.1.1-.2.1l-.1.1-.3.2-.3-.3-.1-.1c-.1 0-.2-.1-.2-.2l-4.3-4.6-9-2.2-9.6 3.9.8 2.7v.2l.6 8.8v.5l-.1.1c0 .1-.1.2-.2.2L450.4 676l.1 4.8 10.3 4.9c.1.1.2.1.3.2l.1.1.4.2-.2.4-.1.1c0 .1 0 .2-.1.3l-3.1 6.9 14.5 2 8.6 4.4zM96.6 348.7l-1.5 9.5-5.4-2.8-5.3-11.6-4.8 3.7-7 .2L93.2 383l10.1-6.5-1-20.4-5.7-7.4z" transform="translate(-17.714 -16.338)"/><path class="st1" d="M129.7 689.2c-.1 0-.2-.1-.3-.2l-3.8-3.9c-.1-.1-.2-.2-.2-.3l-.2-.2c-.1 0-.2-.1-.3-.2l-3.5-3.6-2.8 2.7c-.1.1-.2.1-.3.2l-.2.2-.4.4-.3-.5-.2-.2c-.1-.1-.2-.1-.2-.2l-2.7-3.8-3 1.7v2.7c0 .2-.1.4-.2.6l-2.7 3.3 2.7 2c.1.1.2.2.2.3l.3.2-.1.3c0 .1 0 .2-.1.3l-2.1 4.9 1.8 2.3c.1.1.1.2.1.3l.2.2.4.5-.5.3-.3.1-.2.2-4.4 2.2-1.7 4.4.2.3c.1 0 .1.1.2.2l6.5 9.9c.1.1.1.2.1.3v.1l.2.4-.3.3-.1.1c-.1.1-.1.2-.2.3l-3.4 2.7 1 7.2v.3l11.1 8.3 5.1-.5h.6l.1.3.1.1c0 .1.1.1.1.2l2.1 4.9c0 .1.1.2.1.3v.2c0 .1 0 .2-.1.3l-1.4 2.9h.1l4.7 3.2c.1.1.1.1.1.2l.3.2 5.7-.2c.1 0 .2 0 .2.1h.2l.1.1c.1 0 .2.1.2.2l1.7 2 3.4-2.5-1.6-2.6c-.1-.1-.1-.2-.1-.3l-.2-.3.3-.3c.1-.1.1-.2.2-.3l4.1-3.9c.1-.1.2-.1.3-.2.1 0 .2-.1.3-.1l8.1-.4 2.5-2.3.1-.1-.4-7.5-2.4-7.1-6-8.8c-.1-.2-.2-.4-.2-.6l.6-8.2-5.6-7.8-.1-.1-2.5-5.1-4.6-.9c-.2 0-.4-.2-.6-.3l-2.5-2.9-3.2.9h-.3l-.2.1.3-.5zm1401.7-184.4l4-2.4-1.9-11.5-3.6-2.8-3.7-.7.1 11.8 5.1 5.6zM537.7 338l3-2.7-.5-5.3-3.9-.5 1.4 8.5zm1009.4 344.8l3.6-1.7-1.2-3.9-2.3-2.7-1.9 2.2.2 3.3 1.6 2.8zM526.5 696.4s0 .1 0 0l7-.7 6.7 9.3 4.8.3v-.2l1.2-4.2c0-.1.1-.3.2-.4l7.5-8.5.7-5.9c0-.1.1-.2.1-.2 0-.1.1-.2.1-.2l4.2-5.7.2-.2.1-.2h.6l6.1.6 1.4-2.6.6-4.6-2.1-4.5-5.2-1.5c-.1 0-.2-.1-.2-.1l-.2-.1-.1-.2c-.1-.1-.1-.1-.1-.2l-.9-2.4v-.3l-.1-.2.1-.2c0-.1.1-.2.1-.3l2.1-3.1.1-7.6c0-.2.1-.5.2-.6l7.7-9c.1-.1.2-.1.2-.2l.1-.1.3-.4.4.3.1.1c.1 0 .2.1.3.2l4.8 4c.1.1.2.2.2.3l.3.3-.2.3c0 .1-.1.2-.1.3l-2.1 3.7 3.3.3c.1 0 .3.1.4.1l9.5 5.6 6.6-1.6h.3c.1 0 .2 0 .3.1l6.6 3 6.3-.3 7.9-6.5-16.1-9.9-.3-.3-8.7-13.7-6.5-11.6-4.3-.6h-.2l-9.1-2.8c-.1 0-.2-.1-.3-.2l-4.7-3.7-.9 3.2c0 .1-.1.1-.1.2v.1l-.1.3h-.4c-.1 0-.1.1-.2.1l-6.8.4-1.4 2-.3.3-4 2.6c-.1 0-.1 0-.2.1l-.1.1h-.3l-3.3-.4-1.9 1.8s-.1 0-.2.1l-.1.1h-.1c-.1 0-.1.1-.2.1l-4.2.4h-.1c-.1 0-.2 0-.3-.1l-5.7-1.9-1.9 4.6c0 .1-.1.2-.2.2l-.1.2h-.2c-.1.1-.2.1-.2.1l-7.5 2.2h-.1v.1l-4.2 9c0 .1-.1.1-.1.2v.1l-.1.3h-.4c-.1 0-.1.1-.2.1l-14 .8-3.1 8.5.9 7.6v.8l-.3.1c-.1.1-.2.1-.3.2l-3.3 1.3-.7 6.4 3.9 7.2s0 .1.1.1l1.8 4.8 6 1.3c.1 0 .3.1.4.2l5.8 4.3.2.2h.1v.1c0 .1.1.2.1.3l.6 4.9 8.7 6.3c.1.1.2.1.2.2.1.1.1.2.1.3l.7 4.5zm1024.4-119.9l-2.7 3.5 2.9 6.2 6.9-2.5-3-6.3-4.1-.9zm1.3 31.5l-3.5-4.6-3.2 3.8.8 7.4.9 7.7.5 3.5 3.7-.3 2.2-9-1.4-8.5zm-22.4-128.6l-1.6 1.8-.4 2.9 4.3 1.2 2-2.7-4.3-3.2zM701.5 848.1l1 8.6 8.3 1 3.7 3.7 8.7-5.6 2.4 6.2 6.6 8.1 9.2.2 2.2-6.3 12.1-1.6 7.5-6.7v-.1c-.1-.1-.1-.2-.1-.3l-2-8.2v-.3l-.1-.3.2-.2h.1c0-.1.1-.1.1-.2l4.6-3.8-8.5-12.4c-.1-.1-.1-.3-.2-.4l-1.5-8.2-5.6 5.2c-.1.1-.2.1-.3.2l-.1.1-.3.3-.3-.3-.1-.1c-.1 0-.2-.1-.2-.2l-6.2-6.6c-.1-.1-.1-.2-.1-.2l-.1-.1v-.5l1.2-9-3.6-3.4-10.1.6v.1l-.4.1c-.1.1-.2.1-.3.1l-5.7 1.7h-.4l-.2-.1c-.1 0-.1 0-.2-.1l-5.3-3.5v4c0 .2 0 .3-.1.5l-4.2 7.7c0 .1-.1.1-.2.2l-.1.2h-.3c-.1 0-.2.1-.2.1h-9l-7.1 3.1-2.5 4.3 4.5 1.8c.1 0 .2.1.2.2l.1.1.1.2c.1.1.1.2.1.2l1.5 4.7v.3l.1.2.2.5-.5.1h-.2c-.1.1-.2.1-.3.1l-7.8 1.6 1.7 8.5 8 3.9zm613.4-91.5l16.4-9.9 1.6-7.3 11.6-15.6 6.7-3.8 1.1-7.5-18.2 8.1c-.1 0-.2.1-.3.1l-.2.1-.2-.1h-.1c-.1 0-.1 0-.2-.1l-6.9-4.6-14.4 1.1-6.1 7-.2.2-.1.1v.3l-7.8 14.6 8.6 11.2 8.7 6.1zm230.4-210.2l-1.7 4 3.4 4.1 3.4-3.9-2.8-4.2h-2.3zm-10.4-29.2l2.4 4.1 5.2-3 .5-2.9-7.8-2.6-.3 4.4zm12.7 50.8l2.3 3.2 2.8-1.3.2-5.4-3.8-.5-1.5 4zM139.3 524.8c-.1 0-.2 0-.2-.1l-1.1.1-4 2.2-1.6 4.2-3 1 .2 5.1 4.5 2.1-.2 9.5.1.1c.1 0 .1 0 .2.1l5.2 3.7 2-1.4c.1 0 .1 0 .2-.1l.1-.1h.4l2.5.2c.1 0 .1 0 .2.1h.4l.1.3v.1c0 .1.1.1.1.2l1.5 3.9 5 2.7 6.9.8c.1 0 .1 0 .2.1h.2c.1 0 .1.1.2.1l7.4 6.3 2.7-2.9c.1-.1.2-.2.3-.2.1 0 .2-.1.3-.1l2.1-.2h.5l.1.1c.1 0 .2.1.3.2l1.3 1.3 1.4-.4.6-1.8-3.4-3.8c0-.1-.1-.1-.1-.2v-.1c0-.1-.1-.1-.1-.2l-.6-3.7v-.2l-3.2-.7c-.1 0-.2-.1-.3-.1h-.1l-.1-.1-.2-.2-1-1.8c-.1-.1-.1-.3-.1-.4l-.3-3.3-1.6-1.7s0-.1-.1-.2l-.1-.1v-.1c0-.1-.1-.1-.1-.2l-.7-7.2-12.2-13.2c0-.1-.1-.1-.1-.2l-12.7.5zm215.5 58.7l.1-.3.3-.1c.1 0 .1-.1.2-.1l7-1.7 2.2-12.4c0-.1.1-.2.1-.3l.1-.4h.4c.1 0 .2-.1.3-.1l3.4-.1c.1 0 .2 0 .3.1l4.2 1.5 4.6-4.7.1-3.5-.1-2.6v-1h.6c.1 0 .2-.1.3-.1l7.6-.4h.1c.1 0 .1 0 .2.1h.1l.1.1c.1 0 .1 0 .2.1l5.1 4 3.4-1h.4l.2-.1.1.1c.1 0 .2.1.3.2l3 2.9 2.4 1.5 3-4 .1-.1 3-4.9-3.5-2.5-.2-.2-.1-.1v-.1c0-.1-.1-.2-.1-.3l-.4-4.4v-.6l.3-.1h.1c.1 0 .1-.1.2-.1l12.3-6.6-1.1-6.9-8.7-9.6-5.7 3.3c-.1 0-.2.1-.2.1l-.1.1h-.4l-18.1-5.1-5.1 6.9-.2.2-.1.1-.3.4-.4-.2-.2-.1c-.1 0-.2 0-.2-.1l-2.5-1.6-.2-.2-.1-.1v-.2c0-.1-.1-.2-.1-.3l-1-10.3-1.6-3.1v-.3l-.1-.3.2-.2v-.1c0-.1 0-.1.1-.2l12.6-17-.1-.4c0-.1-.1-.1-.1-.2l-1.1-6.1-4.5-4.6-5 1.3h-.4c0 .1-.1.1-.1.1l-7.3 5.8c-.1 0-.1 0-.2.1l-.1.1h-.1c-.1 0-.1.1-.2.1l-7 .4-.8 2.5 5.1 4c.1.1.2.1.2.2l.1.1.4.3-.3.4-.1.1c0 .1-.1.2-.1.3l-5.1 6.3c-.1.1-.2.2-.3.2l-.1.1-.1.1c0 .1-.1.2-.1.3l-2.5 3.3.6 9.3v.9h-.6c-.1 0-.2.1-.3.1l-14.8 1.1-5.4 6.6 4.1 3.5.1.1 4.5 4.8c.1.1.1.2.2.3l.3.3-.2.3c0 .1-.1.2-.1.3l-1.8 2.6-.3.3-4.5 2.5c-.1 0-.2.1-.2.1l-.2.1-.2-.1c-.1 0-.1 0-.2-.1l-6.7-4-4.6 7.9c0 .1-.1.1-.1.1l1.8 5.4 3.1 2 13.3 1.1c.1 0 .1.1.2.1h.1l.1.1c.1 0 .1 0 .2.1l5.7 5.2c.1.1.2.2.2.3l2.1 4c.1.1.1.2.1.3l1.1 8.4v.4l.1.6c0 .1.1.1.1.2l1.4 13.7.6 1.5 2.3-7.8c-.8-.1-.7-.2-.7-.3z" transform="translate(-17.714 -16.338)"/><path class="st1" d="M348.9 575.6l.3-.4-1.1-8.4-2.1-4-5.6-5.2-13.3-1.1c-.1 0-.2 0-.2-.1-.1 0-.2 0-.2-.1l-3.1-2.1c-.1 0-.1-.1-.1-.2l-.1-.1v-.1c0-.1-.1-.1-.1-.2l-1.8-5.4h-.2l-7.2-3.6-3 2.9c-.1 0-.1.1-.2.1l-.1.1h-.1c-.1 0-.1.1-.2.1l-6.1.8.6 10.4 12.7 2.8c.1 0 .1.1.2.1l.3.1.1.3c0 .1.1.1.1.2l2.7 9.6v.3l-.1 5 3.2-1.6c.1 0 .1-.1.2-.1l10.3-2.4h.4l7.5 1.6c.1 0 .2.1.3.1.1.1.2.2.3.2l2.6 3.5 2.9-3.2c0 .2.1.2.2.1zm39.8 20l3.8-5 2-7c0-.1.1-.2.2-.3l3.6-4.6 3.6-12.5-2.4-1.6c-.1 0-.1-.1-.1-.1l-3-2.9-3.4 1h-.5l-.2-.1c-.1 0-.1 0-.2-.1l-5.1-4-7.6.4.1 2.6-.1 3.5c0 .1 0 .2-.1.3v.1c0 .1-.1.2-.2.3l-4.7 4.7c-.1.1-.2.1-.3.2l-.2.2-.2-.1c-.1 0-.2 0-.3-.1l-4.2-1.5-3.3.1-2.2 12.4c0 .1-.1.1-.1.2v.1l-.1.3-.3.1h-.1c-.1 0-.1.1-.2.1l-7 1.7-2.3 8c0 .1-.1.1-.1.2l-.2.8 1.2 2.8 3.4 4.5 7.1.7 5.7-3.9c.1 0 .1-.1.2-.1h.1l.2-.2.3.2h.1c.1 0 .2 0 .2.1l1.3.8c.1.1.2.1.3.2l.4.2-.2.4v.1c0 .1 0 .2-.1.3l-1.5 3.3.5 1.5 2.9.1c.1 0 .2 0 .3.1h.7v1l-.1 1.3c0 .1 0 .2-.1.3v.1h-.1c-.1.1-.1.2-.2.3l-3 2.6 1.2 1.2 2.3.1c.1 0 .2 0 .3.1h.1c.1-.1.2-.1.3-.1l4-.4 4.1-4.4c0-.1-.1-.1-.1-.2l-.7-9.3v-1h.7c.1 0 .2-.1.3-.1h3.3z" transform="translate(-17.714 -16.338)"/><path class="st1" d="M477 551.3l7.1-11.5 1.2-3.5-8.7-.4c-.1 0-.2 0-.2-.1-.1 0-.2 0-.2-.1l-15.3-10.4-4.7 3.2c-.1 0-.1 0-.2.1l-.1.1h-.1c-.1 0-.1 0-.2.1l-13.6-.2c-.1 0-.2 0-.4-.1l-.1-.1h-.1l-9.8-4c-.1 0-.2-.1-.3-.2l-9.5-8.9h-11.3l-2.6 8.5h.1l8.8 9.6c0 .1.1.1.1.2l.1.1v.1c0 .1.1.1.1.2l1.1 7v.3l.1.3-.3.2-.1.1c-.1 0-.1.1-.1.2l-12.3 6.5.4 4.3 3.5 2.5.2.2.1.1.4.2-.3.4c0 .1-.1.2-.1.3L407 561l-3.5 4.7-.2.2-.1.1v.3l-3.6 12.6c0 .1-.1.2-.2.3l-3.6 4.7-2 7c0 .1-.1.2-.2.3l-3.8 5-.2.2-.1.1h-.2c-.1 0-.2.1-.3.1l-3.5.1.7 9.2 3.7-.5h.5l.5-.1.1.7c0 .1.1.2.1.3l.6 6.4 8.8-.4c.1 0 .2 0 .3.1h.5l.1.4v.1c.1.1.1.2.1.3l.8 4.8 3.7.5c.1 0 .1.1.2.1h.4l.1.3v.1c.1.1.1.1.1.2l.7 2.3v.1l.9 3.6 1.5 1.7 3.1-1.1h.3v-.1l6.8-9.7c.1-.1.1-.2.2-.2v-.1h.1c.1-.1.2-.1.3-.1l8.5-1.7 4.5-8.8c0-.1.1-.1.2-.2l.2-.3.3-.6.5.4.2.2c.1 0 .2.1.3.2l3.9 3.7 3.3-2.6.8-6c0-.1.1-.1.1-.2v-.6h.6c.1 0 .1-.1.2-.1l9.4-1.3 2.3-3.5.1-6.7c0-.1 0-.1.1-.2v-.1l.1-.1c0-.1 0-.1.1-.2l3.8-5.3-3.7-5.7c0-.1-.1-.2-.1-.2 0-.1-.1-.2-.1-.2l-.2-4.6c0-.1 0-.2.1-.2v-.4l.2-.1h.1l.2-.2 9.7-5.6 10.6-13.1zm-200.8 37.6s0-.1 0 0h.3l9.7 2.4 1-1.9.6-5.7c0-.2.1-.3.2-.5l.8-1.1c.1-.1.1-.2.2-.2l.1-.2v-.3l1.6-3.4-.1-2.4-2.7-1.2c-.1 0-.2-.1-.2-.2l-.2-.1v-.2c-.1-.1-.1-.2-.1-.3l-.6-2.7-1.7-.8-.6 1.3c0 .1-.1.1-.2.2l-.1.2h-.2c-.1 0-.2.1-.2.1l-6.5.9-.5 1.6c0 .1-.1.1-.1.2l-.1.2-.1.4h-.5c-.1 0-.1.1-.1.1h-.1l-2.9-.2c-.1 0-.2 0-.3-.1h-.2l-.1-.2-.2-.2-4.1-6.2c-.1-.1-.1-.2-.1-.4l-1.9-9.8-8.5-7.1-4.7 4-8.8 9.4 3.5 7.5 6-.6h.8l.1.4v.1c.1.1.1.2.1.3l1.2 6.8 3.9 5.3 1.4-1.5c.1-.1.2-.1.3-.2l.1-.1h.5l6.2.5c.1 0 .2 0 .2.1h.2l.1.2.2.2 3 5.2 3.4-.1v-.1l.6.2.4.2zm41.2-25.9l-12.8-2.8c-.1 0-.1-.1-.2-.1s-.1.1-.2.1l-6.8 2.6v7.3c0 .1 0 .2-.1.3v.1l-.1.1c0 .1-.1.2-.2.2l-5.3 4.6.1 2.5c0 .2 0 .3-.1.5l-1.6 3.4c.1 0 .1.1.1.1l7.1 7c.1.1.1.2.2.3l1.1 2.1 4.6-1.8h.1l6.3-1.4.2-4.8c0-.1 0-.2.1-.3v-.2l.2-.1c.1-.1.1-.2.2-.2l2.9-2c.1-.1.2-.1.2-.1l6.4-2.3v-.2c0-.1 0-.2-.1-.2l.1-5.1-2.4-9.6zm-65.3-8.6l4.7-4.1-1.5-3.1-2.3-4.9c-.1-.1-.1-.2-.1-.3l-.1-.1c-.1-.1-.2-.1-.2-.2l-11.2-15.4-6 .3-1.7 1.8c-.1.1-.2.1-.3.2l-.3.3-.3-.2-.1-.1c-.1 0-.2 0-.2-.1l-2.2-1.2-2.5-1.4-1 1c-.1.1-.2.2-.4.2l-3.9 1.4c-.2.1-.4.1-.7 0l-2.3-.8-1.4 1.5c-.2.2-.4.3-.6.3l-4.2.6h-.2l-4.5 5.8-2.1 3.6-.1 2c0 .1 0 .2-.1.3 0 .1.1.1.1.1l1.5 3.1 3.9 2.5c.1 0 .1.1.1.2h.1v.1c0 .1.1.1.1.2l1.3 3c0 .1.1.2.1.3l.2 3.1 4.9-.2c.1 0 .1 0 .2.1h.3l.1.2.2.2 3.5 5.2 3.3 1.5 1.9-.8 2.4-1.8c.1 0 .1 0 .2-.1l.2-.1.3-.2.3.3h.1c.1 0 .2.1.3.2l4.8 4.4c.1.1.1.1.1.2h.2l3.1.8 2.7-.4h.2s0-.1.1-.1l9-9.4c-.1 0-.1 0 0 0zm-86.5-48.7l.2 2.1 1.3 1.8c0 .1.1.3.2.3h.1l13.4 5.6 7.6-5.4c.1 0 .1 0 .2-.1l.2-.1h.4l1.9.4c.1 0 .2 0 .2.1l6.7 3.2 1.4-2c.1-.1.1-.2.2-.2l.1-.1h.1c.1 0 .2-.1.3-.1l7.7-1.1h.1l1.2-1.9 2-3.5-.7-7.7-3.6-1.6c-.2-.1-.3-.2-.4-.3l-3-3.9c-.1-.1-.1-.2-.2-.4l-1-4.2-4.5 3.5c-.1.1-.3.2-.4.2l-8.9 1.7h-.6l-.2-.2c-.1 0-.2-.1-.2-.2l-1.8-2.1-3.1-.2-1.5 1.1c-.1 0-.1 0-.2.1l-.3.2-.5.4-.2-.6-.1-.3-.2-.2-2.4-6.2-4.1.1-3 3.3c-.1.1-.2.2-.3.2-.1 0-.2.1-.3.1l-6.2.4-3 1.6-.1.2v.3l-1.3 2.8.4 2.8 1.9 2.9 2.5 1.1 1.3-1.3c.1-.1.2-.1.3-.2.1 0 .2-.1.3-.1l3.2-.1c.1 0 .2 0 .3.1h.4l.1.4c.1.1.1.2.1.3l.5 2.1v.3l.1.3-.3.2-.1.1c0 .1-.1.1-.1.2l-2.5 1.8-1.6 2zm45.9 95.5l-4.5-2.8c-.1-.1-.2-.1-.2-.2l-.1-.1v-.1c0-.1-.1-.2-.1-.3l-.7-4.6-3-2.3-4.3-2.6-.2-.2-.2-.1v-.3c0-.1-.1-.2-.1-.2l-.2-7.2-8.9-5.7c-.1-.1-.2-.1-.2-.2-.1-.1-.1-.2-.1-.3l-1.2-4.7-3-1.1c-.1 0-.1-.1-.2-.1h-.1l-.3-.1v-.4c0-.1-.1-.1-.1-.2l-.3-2.8-1.5-2.1-4.8.1-.6 1.8c0 .1-.1.1-.1.2l-.1.2-.3.1c-.1.1-.1.1-.2.1l-1.4.4h-.4l-.2.1-.2-.2c-.1 0-.2-.1-.3-.2l-1.3-1.3-2 .2-2.7 2.9s-.1.1-.2.1l.5 5.2v.3l-.1.1v.2l-1.5 2.6 1.5.9c.1.1.2.1.2.2l.1.1v.1c.1.1.1.2.1.3l.3 1.9v.5l.1.5h-.7c-.1 0-.2.1-.3.1l-2.9.1-1.2 2.5 1.3 4.4v.3l.1.2-.2.2c0 .1-.1.2-.1.2l-9.5 11.6-.2.2 2.5 3.8.5 9.3.1.1c.1 0 .2 0 .3.1l6.4 2.7 4.9 2.5 3.9-3.2c.1 0 .1 0 .2-.1l.1-.1h.1c.1 0 .1-.1.2-.1l6.1-.2h.2s0-.1.1-.1l6.3-4.7.2-4.8c0-.1 0-.2.1-.3v-.7h.9l7.3.3 3.5-1.5c.1 0 .2-.1.3-.1h.1l.4-.1.2.3.1.1c.1 0 .1.1.2.2l3.4 5.4 7 1.8 1.3-1.4-.1-7.7zm-9.3-137.3l.1.3v.1c0 .1.1.1.1.2l1 4.4 4.5 4.5c.1.1.1.2.2.3l.1.1v.1c0 .1.1.2.1.3v.3l8.6-2 .9-1 .2-.2v-.1l.2-.3.3.1c.1 0 .2 0 .3.1l1.3.5c.1 0 .1.1.2.1h.1l.3.1v.4c0 .1.1.1.1.2l.1 3.8 10.9 5.7 9.5-1h.4l.1.1c.1 0 .2.1.3.2l4.4 4.3 6.8-3.8-1.2-3.1c-.1-.1-.1-.3-.1-.5l1-11.8c0-.1 0-.2.1-.3v-.5h.5c.1 0 .2-.1.3-.1l5.8-.1 7-8.2s.1 0 .1-.1l-1.8-8.9-7.5.7h-.1v.4l-.7-.5-.6-.4c-.1 0-.1 0-.2-.1l-8.4-6.2-4.8.7h-.3l-.1-.1c-.1 0-.1 0-.2-.1l-6.2-4.2c-.1 0-.1-.1-.1-.1l-.1-.1v-.1c0-.1-.1-.1-.1-.2l-1.4-4.2-4.7-2.7-1.5 1.4-.3 3.7c0 .1 0 .2-.1.3v.5h-.5c-.1 0-.2.1-.3.1l-10.6.1c-.1 0-.1 0-.2-.1h-.1l-.1-.1c-.1 0-.1 0-.2-.1l-3.9-2.8-11-1.8c-.1 0-.2-.1-.3-.1l-6-3.5-.1-.1-3.2-2.7-2.6 3.1-1 7.2c0 .1-.1.2-.1.3l-2.6 5c-.1.1-.1.2-.2.3v.1h-.1c-.1.1-.2.1-.3.1l-7.1 2.1 2.2 4.2 7.5 11.5 5 3 10.2.8c.1 0 .1.1.2.1h.1l-.1.4z" transform="translate(-17.714 -16.338)"/><path class="st1" d="M192.5 423.6c0 .1-.1.2-.1.3l-1 1.2 3.2 2.7 6 3.5 11 1.8c.2 0 .3.1.4.2l3.9 2.8 10.5-.1.3-3.7c0-.1 0-.2.1-.3.1-.1.1-.2.2-.3l1.5-1.4c.1-.1.2-.1.3-.2l.3-.2.3.2.1.1c.1 0 .2 0 .2.1l4.8 2.8c.1.1.2.1.3.2.1.1.1.2.2.3l1.4 4.2 6.2 4.2 4.8-.7h.3l.2.1c.1 0 .1 0 .2.1l8.3 6.1v-3.5l-1.8-4.3-3.7-3.3s-.1-.1-.1-.2l-.1-.1-.3-.2.2-.3.1-.2v-.2l2.8-5.3v-.2c0-.1-.1-.2-.1-.2l-1-5.2-3.6-5.7c-.1-.2-.2-.4-.1-.6l.4-4.1-2.6-.1c-.1 0-.1 0-.2-.1h-.4l-.1-.3v-.1c0-.1-.1-.1-.1-.2l-.8-2.4-5.1.3h-.6l-.1-.2c-.1 0-.1-.1-.2-.2l-1.6-2.3c0-.1-.1-.2-.1-.3l-.1-.2.1-.2v-.3l1-2.5-.6-3.3-4.2-1-.9 1.5-.2.2-.1.2h-.3c-.1 0-.1 0-.2.1h-2.5c-.1 0-.1-.1-.2-.1h-.1l-.1-.1c-.1 0-.1 0-.2-.1l-2.9-2.2-4.2 1h-.3l-.3.1-.2-.3c-.1 0-.1-.1-.2-.2l-2.9-4.1-3.1-1.1-4.5 2.8c-.1 0-.1 0-.2.1l-.3.2-.5.3-.2-.5-.1-.2c-.1-.1-.1-.2-.2-.2l-1.5-3.7-2 1.9-1 3.7 1.3 11.5v.6l-.3.1-.1.1c-.1 0-.1.1-.1.1l-8.1 3.5-.2 3.7c0 .1 0 .2-.1.3v.4l-.4.1c-.1.1-.2.1-.3.1l-2.4.5-.5 2.8c-.2-.2-.3-.1-.3-.1z" transform="translate(-17.714 -16.338)"/><path class="st1" d="M255.4 438.9c.1.1.2.2.3.4l1.8 4.3c.1.1.1.3.1.4v3.6c0 .1 0 .2-.1.2v.1l7.5-.7h.8l.1.4v.1c.1.1.1.2.1.3l1.9 8.9h.1l10.7 5.6 3.7-.5h.5l.1.1c.1 0 .2.1.3.2l5.1 5.1c.1.1.1.2.1.2l.1.2v.5l-1.5 8.5 6.4 5.1.2.2 16.7-.7c.2 0 .3 0 .4.1l11.5 5.6c.1 0 .1.1.2.2.1 0 .1.1.2.2l8.4 12.5 12.3 5.7 7.5-2.6c.1 0 .2-.1.3-.1l.2-.1.1.1c.1 0 .2.1.3.2l3.5 2.9 5-6.2-5.1-4c-.1 0-.1-.1-.1-.2l-.1-.1-.3-.2.1-.3v-.3l.8-2.6c0-.1.1-.1.1-.2v-.1l.1-.3h.4c.1 0 .1-.1.2-.1l7-.4 7.3-5.8c0-.1-.1-.1-.1-.2l-.5-5.1-5.2-2c-.1 0-.2-.1-.3-.2h-.1l-.4-.2.1-.4v-.5l1.2-4.2-5.1-1.2-2.7 1.5c-.1 0-.1 0-.2.1l-.2.1-.4.2-.2-.4-.1-.2c-.1-.1-.1-.2-.2-.2l-4.6-9.2-9.5.6h-.4l-.1-.1c-.1 0-.2-.1-.3-.2l-6.7-6.4-6.2-3.1c-.1 0-.1-.1-.2-.1l-6.1-4.8-18.1-17.1c-.1-.1-.1-.2-.2-.3l-.1-.1v-.4l.4-9.1c0-.1 0-.1.1-.2v-.2c0-.1 0-.1.1-.2l5.3-7.3-3.7-.9c-.1 0-.1-.1-.2-.1h-.1l-.3-.1v-.5c0-.1-.1-.1-.1-.2l-.6-6-4.5.5h-.5l-3.1 3.5-.1.2h-.2l-7 .3h-.2l-.1-.1-3.5-3.1-3.2.2-4.4 2-6.9 6.3-3.8 10.4c0 .1-.1.1-.1.2v.1l-.1.3h-.5c-.1 0-.1.1-.2.1l-7.8.1-3.5 2.6c-.1 0-.1.1-.2.1l-.2.1v.1l-2.7 5.2 3.5 3.4z" transform="translate(-17.714 -16.338)"/><path class="st1" d="M288.5 487.6h-.1c-.1 0-.1.1-.2.1l-6.3.9-1.6 3.1c-.1.1-.2.3-.3.3l-7.1 5.3 8.4 3.5 3.8-1.7c.1 0 .2-.1.3-.1l.2-.1.2.2.1.1c.1 0 .1 0 .2.1l2.8 2.1c.1.1.2.1.2.2h.1v.1c.1.1.1.2.1.3l.7 4.7 5.6 2.4c.1 0 .1.1.2.1h.1l.3.1v.4c0 .1 0 .1.1.2l.1 12 16.7-1.4 1.8-1.4c.1 0 .1 0 .2-.1l.1-.1h.1c.1 0 .1-.1.2-.1l5-.3h.1c.1 0 .1 0 .2.1h.4l.1.3v.1c0 .1.1.1.1.2l1.8 3.8 4.5 1.5c.1 0 .2.1.3.2l4 3.4 5.4-6.7.2-.2.1-.1h.1c.1 0 .2-.1.3-.1l14.8-1.1-.6-9.2c0-.2.1-.5.2-.7l2.5-3.2-3.5-2.9-7.5 2.6c-.1 0-.2.1-.3.1h-.1c-.1 0-.2 0-.3-.1l-12.3-5.8c-.1 0-.1-.1-.2-.2-.1 0-.1-.1-.2-.2L322 488l-11.5-5.6-16.7.7c0 .1-.1.2-.2.2l-4.9 4.2c-.1.1-.2.1-.2.1zm-85.6-1.6c0 .1.1.1.1.2l1.1 4.3 3 3.9 3.7 1.6c.1 0 .1.1.2.1l.3.1v.4c0 .1.1.1.1.2l.7 7.8v.3l-.1.1v.2l-2 3.6-1.2 1.8 1.8 3 3.7 1.9c.1 0 .2.1.2.2l.2.1v.2c.1.1.1.2.1.3l1.2 6.1v.5l-.1.1c0 .1-.1.2-.1.2l-2.6 3.1.3 2.8 4.1-.6 1.4-1.5c.1-.1.2-.1.3-.2l.2-.2.3.1c.1 0 .2 0 .3.1l2.3.8 3.9-1.4 1-1c.1-.1.2-.1.3-.2l.3-.3.3.2.1.1c.1 0 .2 0 .2.1l2.5 1.4 2.1 1.1 1.7-1.8c.1-.1.2-.1.3-.2h.1c.1 0 .2-.1.3-.1l6-.3 2-3.7 1.2-4.7-1.6-1.2-.1-.1-3-3.2c-.1-.1-.1-.2-.2-.3l-2.8-6.5v-.6l1.1-4.8c0-.1.1-.3.2-.4l4.5-6.3s0-.1.1-.1l2.4-2.6c.1-.1.2-.1.2-.2l.3-.3.4-3.7h-.1l-4.4-4.3-9.5 1h-.3c-.1 0-.2 0-.3-.1l-11-5.7c-.1 0-.1-.1-.2-.2l-.2-.1v-.3c0-.1-.1-.2-.1-.2l-.1-3.8-1.3-.5-.9 1s-.1.1-.2.1l-.1.1h-.1c-.1 0-.1.1-.2.1l-8.7 2h-.2v.7c0 .2 0 .3-.1.5l-5.2 9.1-.1.1z" transform="translate(-17.714 -16.338)"/><path class="st1" d="M258.9 503.6l-2 3.3 3.4 3.1 4.6 1.5c.2.1.3.1.4.3l10.3 11c.1.1.1.2.2.3l2.4 5.3 2.9-.9 1.8-3.2.2-.2.1-.2h.2c.1 0 .2-.1.3-.1l5.2-.9h.5l.2.1c.1 0 .1 0 .2.1l2.2 1.7 3.3-2.3v-.2l-.1-12.1-5.6-2.4c-.1 0-.1-.1-.2-.2l-.2-.1v-.3c0-.1-.1-.2-.1-.2l-.7-4.7-2.7-2-3.8 1.7c-.1 0-.2.1-.3.1h-.2c-.1 0-.2 0-.3-.1l-8.5-3.6c-.1 0-.1-.1-.2-.1l-.5-.2c-.1 0-.2 0-.3-.1l-4.5-1.9-7.8 1.6.4.3c.1.1.1.1.1.2l.2.2v.5l-.7 4.4c-.2 0-.3.2-.4.3z" transform="translate(-17.714 -16.338)"/><path class="st1" d="M340.6 538l-4.4-4.8-4.1-3.5c-.1-.1-.2-.2-.2-.3l-.2-.2c-.1 0-.2-.1-.3-.2l-4.1-3.4-4.5-1.5c-.1 0-.2-.1-.3-.2h-.1v-.1c-.1-.1-.1-.2-.2-.2l-1.8-3.8-5 .3-1.8 1.5c-.1 0-.1 0-.2.1l-.1.1h-.1c-.1 0-.1.1-.2.1l-16.7 1.4h-.3l-.1.1-3.3 2.3c-.1 0-.1 0-.2.1l-.1.1-.3.2-.3-.2-.1-.1c-.1 0-.1 0-.2-.1l-2.2-1.7-5.1.9-1.8 3.2c-.1.1-.1.2-.2.3h-.1c-.1.1-.2.1-.3.1l-3 .9h-.3c-.1.1-.1.2-.2.2l-8.9 6.5c-.1 0-.1.1-.2.1s-.2.1-.2.1l-8.4 1.1-6.3 4.6 2.3 4.9 1.5 3.1v.3c.1 0 .2.1.3.2l8.5 7.2c.2.1.3.4.3.6l1.9 9.8 4 6.2 2.8.2.5-1.5c0-.1.1-.1.1-.2v-.1l.1-.3h.4c.1 0 .1-.1.2-.1l6.5-.9.7-1.3c0-.1.1-.1.1-.2l.1-.2.2-.4.4.2.2.1c.1 0 .2 0 .3.1l1.8.8c.1 0 .2.1.2.2l.2.1v.2c.1.1.1.2.1.3l.6 2.7 2.6 1.2 5.2-4.5v-7.3c0-.1 0-.1.1-.2v-.4l.3-.1h.1c.1 0 .1-.1.2-.1l6.8-2.6-.6-10.5v-.8l.4-.1h.1c.1-.1.2-.1.3-.1l6.1-.8 3.1-2.9c.1-.1.2-.1.3-.2l.2-.2.3.1h.1c.1 0 .2 0 .3.1l7.2 3.6 4.6-7.9c.1-.1.1-.2.2-.2l.1-.1.2-.4.4.2.2.1c.1 0 .2 0 .2.1l6.7 4 4.4-2.5 2-3.5zm-175.7-1.2c0 .1 0 .1.1.2l.1.1v.1c0 .1.1.1.1.2l.7 7.2 1.6 1.7c0 .1 0 .1.1.2l.1.1v.1c0 .1.1.1.1.2l.3 3.3 1 1.7 3.2.7c.1 0 .1.1.2.1h.2c.1 0 .2-.1.3-.1l4.6-.2 1.3-2.8c.1-.1.1-.2.2-.3l8.7-8.5c.1 0 .1-.1.2-.1l.3-8-4.4-3.3-.3-.3-2.4-4.3c-.1-.1-.1-.3-.1-.4l-.5-7.9-13.3-5.5-.1.1-14.2 12.6 11.9 13.1zm1.4 30.1c-.1-.1-.1-.1-.2-.1l-7.4-6.3-6.9-.8c-.1 0-.3-.1-.4-.1l-5-2.7c-.1 0-.1-.1-.1-.1l-.1-.1-.1-.2c0-.1-.1-.1-.1-.1l-1.5-3.8-2.5-.2-2 1.4c-.1 0-.1.1-.2.1l-.1.1-.3.2-.3-.2-.1-.1c-.1 0-.1 0-.2-.1l-5.2-3.7-3.2 4.8-1.5 2.9 1.1 3.7 4 1.4v5.9l10.2 5.2 1.3 11.1 8.8 13.6 9.4-11.5-1.3-4.4v-.3c0-.1 0-.2.1-.4l1.2-2.5c0-.1.1-.1.2-.2v-.1l.1-.3h.4c.1 0 .1-.1.2-.1l2.9-.1-.3-1.8-1.5-.9c-.1-.1-.2-.1-.2-.2l-.1-.1-.4-.2.2-.4.1-.1c0-.1.1-.2.1-.3l1.5-2.6-.6-5.3z" transform="translate(-17.714 -16.338)"/><path class="st1" d="M212.8 554.9c0-.1-.1-.2-.1-.3l-.2-3.2-1.3-3-3.9-2.5-.2-.2-.2-.2-1.5-3.1h-3.5l-5.2 3c-.1 0-.2.1-.2.1-.1 0-.2.1-.2.1h-3.7c-.1 0-.2 0-.3-.1h-.1c-.1 0-.2-.1-.3-.2l-3.6-3.7-8.6 8.4-1.3 2.8c0 .1-.1.1-.2.2l-.1.3h-.4c-.1 0-.2.1-.2.1l-4.6.2.6 3.6 3.4 3.8h.1l4.8-.2c.1 0 .2 0 .2.1h.3l.1.2c.1 0 .1.1.2.2l1.5 2.2c0 .1.1.1.1.2s.1.1.1.2l.3 2.8 3 1.1c.1 0 .1.1.2.1l.2.1.1.2c.1.1.1.2.1.2l1.2 4.7 8.8 5.6 3.8-2.2.8-2.5-1-4-1.3-2.1c0-.1-.1-.2-.1-.2l-.1-.2.1-.2c0-.1 0-.2.1-.3l1.3-2.8c0-.1.1-.1.1-.1v-.1h.1c.1 0 .1-.1.1-.2l6.6-3.9 3.8-4.1v-.8l.3-.1z" transform="translate(-17.714 -16.338)"/><path class="st1" d="M197.8 514.7c-.1 0-.2 0-.3-.1l-6.7-3.3-1.8-.3-7.6 5.4.5 7.9 2.4 4.2 4.5 3.4.2.2.2.1v.2c0 .1.1.2.1.3l-.3 8c.1 0 .1.1.2.1l3.6 3.7h3.7l5.2-3c.1 0 .2-.1.2-.1.1 0 .2-.1.2-.1h3.4l.1-1.9c0-.2.1-.3.1-.5l2.1-3.6s0-.1.1-.1l4.5-5.9c0-.1-.1-.2-.1-.2l-.3-2.9v-.4l.1-.1c0-.1.1-.2.1-.3l2.6-3.1-1.2-6.1-3.7-1.9c-.1 0-.1-.1-.2-.1h-.1v-.1c0-.1-.1-.1-.2-.1l-1.8-3-7.6 1.1-1.4 2-.2.2-.1.1-.2.3-.4-.2.1.2zm46.5 7.2l-2 3.7 11.1 15.3 6.2-4.5c.1-.1.3-.2.5-.2l8.4-1.1 8.8-6.5-2.5-5.3-10.3-10.9-4.5-1.4c-.1 0-.3-.1-.4-.2l-3.5-3.1c-.1-.1-.2-.2-.2-.3l-.3-.3.2-.3c0-.1.1-.2.1-.3l2-3.3.7-4.4-.4-.4c-.1 0-.1-.1-.1-.2l-.5-.4c-.1 0-.2-.1-.3-.2l-.9-.7-3.9 3.9c-.1.1-.2.1-.3.2l-.1.1-.3.3-.3-.3-.1-.1c-.1 0-.2-.1-.3-.2l-4.3-3.9c-.2-.2-.3-.4-.3-.6l-.8-4.8-2.2 2.5-4.6 6.4-1.1 4.8 2.8 6.4 3 3.2 1.6 1.2c.1 0 .1.1.1.2l.1.1.2.2-.1.3v.3l-1.2 4.7c.1 0 0 .1 0 .1z" transform="translate(-17.714 -16.338)"/><path class="st1" d="M247 486.6l-.4 3.6c0 .1 0 .1-.1.1l.1.6c0 .1.1.1.1.2l.8 4.9 4.3 3.8 3.9-3.9c.1-.1.2-.1.3-.2l.1-.1.3-.3.3.3.1.1c.1 0 .2.1.3.2l1 .8.4-.1c.1 0 .1-.1.2-.1l8-1.6c.2 0 .4 0 .6.1l4.6 1.9.2-.1c0-.1.1-.1.1-.2l7.2-5.3 1.6-3.1.2-.2.1-.2h.2c.1 0 .2-.1.2-.1l6.3-.9 4.8-4.1-6.4-5c-.1-.1-.1-.1-.1-.2l-.2-.2.1-.3v-.2l1.5-8.5-5-5.1-3.7.5h-.2c-.1 0-.2 0-.3-.1l-10.7-5.6-7 8.2-.2.2-.1.1h-.1c-.1 0-.2.1-.3.1l-5.7.1-1 11.7 1.2 3.1c0 .1.1.2.1.4v.1l.1.4-.4.2c-.1.1-.2.2-.3.2l-7.1 3.8zm315-114.4l-.6 6.9 5.1 7 5.6-1.1-.4-7.7-2.8-7.5-6.9 2.4z" transform="translate(-17.714 -16.338)"/></g><g id="Layer_2_3_"><path class="st3" d="M1318.8 597.9c20.6-3.5 31.4 11.6 30.7 27.7"/><path class="st4" d="M1341.8 621.7l5.3 15.1 10.4-12.1z"/></g><path class="st3" d="M624.8 828.2c148-104.3 320.8-189.6 670.9-161.8"/><path class="st4" d="M1292.8 674.3l14.4-6.9-13.2-9z"/><path class="st3" d="M1194.8 445.4c9 76.4 26.9 141.9 106 198.9"/><path class="st4" d="M1294.3 649.4l15.9 1.4-6.7-14.5z"/><path class="st3" d="M1298.8 115.4c294.9-89.5 397 510.1 84.6 544"/><path class="st4" d="M1384.9 651.2l-13 9.2 14.5 6.6z"/><circle transform="rotate(-45.001 1340.305 670.366)" class="st6" cx="1340.3" cy="670.3" r="28.8" opacity=".3"/><circle transform="rotate(-45.001 1340.305 670.366)" class="st6" cx="1340.3" cy="670.3" r="17.2"/><circle transform="rotate(-45.001 1311.487 605.418)" class="st6" cx="1311.5" cy="605.4" r="10.5"/><circle transform="rotate(-31.714 1192.987 436.895)" class="st6" cx="1192.9" cy="436.9" r="10.5"/><path class="st4" d="M1279.4 577.8h209c3.4 0 6.2-2.8 6.2-6.2v-40.5c0-3.4-2.8-6.2-6.2-6.2h-209c-3.4 0-6.2 2.8-6.2 6.2v40.5c0 3.4 2.8 6.2 6.2 6.2z"/><path class="st7" d="M1305.1 561.7l-1.3-3.5h-8.7l-1.3 3.5h-5l7.9-20.4h5.4l7.9 20.4h-4.9zm-5.6-16.1l-3.2 8.8h6.4l-3.2-8.8zm13.7 12.6c2 0 3.2-1.1 3.9-6.5l1.2-10.4h14.5v20.4h-4.4v-16.6h-6.2l-.8 6.9c-1 8.5-4 10-8.2 10v-3.8zm40.9-16.9v3.8h-10.5v3.6h5.3c4.3 0 6.8 3 6.8 6.5s-2.4 6.5-6.8 6.5h-9.6v-20.4h14.8zm-10.6 11.3v5.3h4.7c1.7 0 2.9-1 2.9-2.7 0-1.7-1.2-2.7-2.9-2.7l-4.7.1zm31.3 9.1l-1.3-3.5h-8.7l-1.3 3.5h-5l7.9-20.4h5.4l7.9 20.4h-4.9zm-5.7-16.1l-3.2 8.8h6.4l-3.2-8.8zm13.5 13.2l2.3-2.9c1.4 1.5 4 2.3 6 2.3 2.7 0 4.2-1.1 4.2-2.6 0-1.6-1.4-2.4-4.5-2.4h-4.1v-3.8h4.1c2.4 0 4.2-.7 4.2-2.2 0-1.6-1.8-2.4-4.2-2.4-2 0-4.1.7-5.5 2.1l-2.2-2.7c1.7-1.9 4.6-3.2 8.1-3.2 4.8 0 8.1 2.1 8.1 5.5 0 2.6-2.2 4.2-4.4 4.6 2 .2 4.7 1.8 4.7 4.9 0 3.5-3.5 6-8.4 6-3.7.1-6.9-1.4-8.4-3.2zm22.5 2.9v-20.4h4.3v13.2l9.4-13.2h4.5v20.4h-4.3V548l-9.7 13.7h-4.2zm38.7 0v-8.6h-9.6v8.6h-4.3v-20.4h4.3v8h9.6v-8h4.4v20.4h-4.4zm9.9-10.2c0-6.1 4.5-10.5 10.6-10.5 6.2 0 10.7 4.4 10.7 10.5s-4.5 10.5-10.7 10.5c-6.1.1-10.6-4.3-10.6-10.5zm16.8 0c0-3.8-2.4-6.7-6.2-6.7s-6.2 2.9-6.2 6.7c0 3.8 2.4 6.7 6.2 6.7s6.2-2.9 6.2-6.7z"/><path class="st4" d="M1171.4 407.3h320.8c2.8 0 5-2.3 5-5v-42.8c0-2.8-2.3-5-5-5h-320.8c-2.8 0-5 2.3-5 5v42.8c0 2.7 2.2 5 5 5z"/><path class="st7" d="M1200.9 391.2v-8.6h-9.6v8.6h-4.3v-20.4h4.3v8h9.6v-8h4.4v20.4h-4.4zm10.8 0v-20.4h14.4v3.8H1216v4.3h9.9v3.8h-9.9v4.6h10.1v3.8l-14.4.1zm18.3 0l8.6-10.8-8.1-9.6h5.3l6.5 8.2v-8.2h4.4v8.2l6.4-8.2h5.4l-8.1 9.6 8.6 10.8h-5.3l-6.2-8.2-.9 1v7.1h-4.4V384l-.9-1-6.2 8.2h-5.1zm32.3-3.5c2.1-.3 3.2-1.1 3.9-6.5l1.2-10.4h14.5v16.6h1.8v7.6h-4.3v-3.8h-12.7v3.8h-4.3l-.1-7.3zm5.7-.3h9.5v-12.7h-6.2l-.8 6.9c-.3 2.7-1.2 4.6-2.5 5.8zm34.7 3.8l-1.3-3.5h-8.7l-1.3 3.5h-5l7.9-20.4h5.4l7.9 20.4h-4.9zm-5.6-16l-3.2 8.8h6.4l-3.2-8.8zm28.9 16v-8.6h-9.6v8.6h-4.3v-20.4h4.3v8h9.6v-8h4.4v20.4h-4.4zm10.8 0v-20.4h4.3V384l9.4-13.2h4.5v20.4h-4.3v-13.7l-9.7 13.7h-4.2zm38.7 0v-8.6h-9.6v8.6h-4.3v-20.4h4.3v8h9.6v-8h4.4v20.4h-4.4zm9.8-10.2c0-6.3 4.7-10.5 10.9-10.5 4.5 0 7.1 2.4 8.5 5l-3.7 1.8c-.9-1.7-2.7-3-4.8-3-3.7 0-6.4 2.8-6.4 6.7 0 3.9 2.7 6.7 6.4 6.7 2.1 0 3.9-1.3 4.8-3l3.7 1.8c-1.5 2.5-4 5-8.5 5-6.1.1-10.9-4.2-10.9-10.5zm36.5 10.2l-6.2-8.2-1.6 1.9v6.3h-4.3v-20.4h4.3v9.1l7.2-9.1h5.3l-8.1 9.6 8.6 10.8h-5.2zm8.8-10.2c0-6.1 4.5-10.5 10.6-10.5 6.2 0 10.7 4.4 10.7 10.5s-4.5 10.5-10.7 10.5c-6.1.1-10.6-4.3-10.6-10.5zm16.9 0c0-3.8-2.4-6.7-6.2-6.7s-6.2 2.9-6.2 6.7c0 3.8 2.4 6.7 6.2 6.7s6.2-2.9 6.2-6.7zm9.9 10.2v-20.4h14.4v3.8h-10.1v4.3h9.9v3.8h-9.9v4.6h10.1v3.8l-14.4.1z"/><path class="st4" d="M1202.4 766.8h287.9c3.4 0 6.2-2.8 6.2-6.2v-40.5c0-3.4-2.8-6.2-6.2-6.2h-287.9c-3.4 0-6.2 2.8-6.2 6.2v40.5c0 3.4 2.8 6.2 6.2 6.2z"/><path class="st7" d="M1228.9 750.7l-1.3-3.5h-8.7l-1.3 3.5h-5l7.9-20.4h5.4l7.9 20.4h-4.9zm-5.6-16.1l-3.2 8.8h6.4l-3.2-8.8zm32.6 16.1v-14.3l-5.7 14.3h-1.9l-5.7-14.3v14.3h-4.3v-20.4h6.1l5 12.3 5-12.3h6.1v20.4h-4.6zm9-1.1l1.7-3.5c.7.6 1.7 1.1 2.6 1.1 1.5 0 2.2-.6 3-2.1l-7.5-14.8h4.9l5 10.8 5.1-10.8h4.9l-8.4 16.5c-1.3 2.5-3 4.3-6.7 4.3-1.9 0-3.7-.7-4.6-1.5zm24 1.1v-20.4h9.5c4.4 0 6.8 3 6.8 6.6 0 3.5-2.4 6.6-6.8 6.6h-5.2v7.2h-4.3zm12-13.8c0-1.7-1.3-2.8-3-2.8h-4.6v5.5h4.6c1.7 0 3-1 3-2.7zm8.5 3.6c0-6.3 4.7-10.5 10.8-10.5 4.5 0 7.1 2.4 8.5 5l-3.7 1.8c-.9-1.7-2.7-3-4.8-3-3.7 0-6.4 2.8-6.4 6.7 0 3.9 2.7 6.7 6.4 6.7 2.1 0 3.9-1.3 4.8-3l3.7 1.8c-1.5 2.5-4 5-8.5 5-6 .1-10.8-4.2-10.8-10.5zm36.6 10.2l-6.2-8.2-1.6 1.9v6.3h-4.3v-20.4h4.3v9.1l7.2-9.1h5.3l-8.1 9.6 8.6 10.8h-5.2zm9.7 0v-20.4h4.3v13.2l9.4-13.2h4.5v20.4h-4.3V737l-9.7 13.7h-4.2zm24.8 0v-20.4h4.3v13.2l9.4-13.2h4.5v20.4h-4.3V737l-9.7 13.7h-4.2zm9.1-21.3c-2.2 0-4.1-1-5.4-2.7l1.7-1.4c.8 1.2 2.1 1.9 3.7 1.9 1.5 0 2.8-.7 3.6-1.9l1.7 1.4c-1.2 1.6-3.1 2.7-5.3 2.7zm25.9 21.3v-20.4h14.4v3.8h-10.1v16.6h-4.3zm37.6 0v-14.3l-5.7 14.3h-1.9l-5.7-14.3v14.3h-4.3v-20.4h6.1l5 12.3 5-12.3h6.1v20.4h-4.6zm22.9 0l-6.2-8.2-1.6 1.9v6.3h-4.3v-20.4h4.3v9.1l7.2-9.1h5.3l-8.1 9.6 8.6 10.8h-5.2z"/><path class="st4" d="M1295.1 95.2H1488c3.4 0 6.2-2.8 6.2-6.2V48.5c0-3.4-2.8-6.2-6.2-6.2h-192.9c-3.4 0-6.2 2.8-6.2 6.2V89c0 3.4 2.8 6.2 6.2 6.2z"/><path class="st7" d="M1324.3 79.1V64.8l-5.7 14.3h-1.9l-5.7-14.3v14.3h-4.3V58.7h6.1l5 12.3 5-12.3h6.1v20.4h-4.6zm25 0l-1.3-3.5h-8.7l-1.3 3.5h-5l7.9-20.4h5.4l7.9 20.4h-4.9zm-5.7-16l-3.2 8.8h6.4l-3.2-8.8zm14.9 16V58.7h4.3v13.2l9.4-13.2h4.5v20.4h-4.3V65.4l-9.7 13.7h-4.2zm9.2-21.3c-2.2 0-4.1-1-5.4-2.7l1.7-1.4c.8 1.2 2.1 1.9 3.7 1.9 1.5 0 2.8-.7 3.6-1.9l1.7 1.4c-1.2 1.6-3.1 2.7-5.3 2.7zm14.6 11.1c0-6.3 4.7-10.5 10.9-10.5 4.5 0 7.1 2.4 8.5 5l-3.7 1.8c-.9-1.7-2.7-3-4.8-3-3.7 0-6.4 2.8-6.4 6.7 0 3.9 2.7 6.7 6.4 6.7 2.1 0 3.9-1.3 4.8-3l3.7 1.8c-1.5 2.5-4 5-8.5 5-6.2.1-10.9-4.2-10.9-10.5zm36.5 10.2l-6.2-8.2-1.6 1.9v6.3h-4.3V58.7h4.3v9.1l7.2-9.1h5.3l-8.1 9.6 8.7 10.8h-5.3zm8.8-10.2c0-6.1 4.5-10.5 10.6-10.5 6.2 0 10.7 4.4 10.7 10.5s-4.5 10.5-10.7 10.5c-6.1.1-10.6-4.3-10.6-10.5zm16.8 0c0-3.8-2.4-6.7-6.2-6.7-3.8 0-6.2 2.9-6.2 6.7 0 3.8 2.4 6.7 6.2 6.7 3.8 0 6.2-2.9 6.2-6.7zm10 10.2V58.7h14.4v3.8h-10.1v4.3h9.9v3.8h-9.9v4.6h10.1V79l-14.4.1z"/><path class="st4" d="M601.5 912h151.4c3.4 0 6.2-2.8 6.2-6.2v-40.5c0-3.4-2.8-6.2-6.2-6.2H601.5c-3.4 0-6.2 2.8-6.2 6.2v40.5c.1 3.4 2.8 6.2 6.2 6.2z"/><path class="st7" d="M624.7 895.9l-6.2-8.2-1.6 1.9v6.3h-4.3v-20.4h4.3v9.1l7.2-9.1h5.3l-8.1 9.6 8.6 10.8h-5.2zm14.2-20.4v7.2h5.2c4.4 0 6.8 3 6.8 6.6 0 3.6-2.4 6.6-6.8 6.6h-9.5v-20.4h4.3zm0 11.1v5.5h4.6c1.7 0 3-1 3-2.8 0-1.7-1.3-2.8-3-2.8l-4.6.1zm13.7 9.3v-20.4h4.4v20.4h-4.4zm9.5-2.9l2.3-2.9c1.4 1.5 4 2.3 6 2.3 2.7 0 4.2-1.1 4.2-2.6 0-1.6-1.4-2.4-4.5-2.4H666v-3.8h4.1c2.4 0 4.2-.7 4.2-2.2 0-1.6-1.8-2.4-4.2-2.4-2 0-4.1.7-5.5 2.1l-2.2-2.7c1.7-1.9 4.6-3.2 8.1-3.2 4.8 0 8.1 2.1 8.1 5.5 0 2.6-2.2 4.2-4.4 4.6 2 .2 4.7 1.8 4.7 4.9 0 3.5-3.5 6-8.4 6-3.8.1-6.9-1.4-8.4-3.2zm26.8-17.5v7.2h5.2c4.4 0 6.8 3 6.8 6.6 0 3.6-2.4 6.6-6.8 6.6h-9.5v-20.4h4.3zm0 11.1v5.5h4.6c1.7 0 3-1 3-2.8 0-1.7-1.3-2.8-3-2.8l-4.6.1zm13.7 9.3v-20.4h4.4v20.4h-4.4zm9.7-3.5c2 0 3.2-1.1 3.9-6.5l1.2-10.4h14.5v20.4h-4.4v-16.6h-6.2l-.8 6.9c-1 8.5-4 10-8.2 10v-3.8z"/><circle transform="rotate(-52.019 1289.841 119.078)" class="st6" cx="1289.8" cy="119.1" r="10.5"/><circle transform="rotate(-3.17 616.86 832.982)" class="st6" cx="616.9" cy="833" r="10.5"/><path d="M1330.6 451.2c-2.6-3.6-4.1-8.2-4.1-12.9 0-4.7 1.5-9.3 4.1-12.9l1.3 1c-1.9 3.7-3 7-3 11.9 0 4.8 1.2 8.2 3 11.8l-1.3 1.1zm5.7-15.5c0-6 4.4-10 10-10 3.4 0 5.8 1.7 7.4 3.8l-2 1.1c-1.1-1.6-3.1-2.8-5.3-2.8-4.2 0-7.5 3.3-7.5 7.9 0 4.6 3.2 7.9 7.5 7.9 2.2 0 4.2-1.2 5.3-2.8l2.1 1.1c-1.6 2.2-4 3.8-7.4 3.8-5.7 0-10.1-4.1-10.1-10zm31.9 9.7v-1.9c7-5.5 10.8-8.7 10.8-12.1 0-2.5-2-3.6-4-3.6-2.3 0-4.1 1-5.3 2.4l-1.5-1.5c1.5-1.9 4-3.1 6.8-3.1 3.2 0 6.5 1.8 6.5 5.7 0 4-4 7.6-9.4 11.8h9.5v2.2l-13.4.1zm19.3-9.7c0-4.7 2.1-10 7.4-10 5.3 0 7.4 5.3 7.4 10s-2.1 10-7.4 10c-5.3 0-7.4-5.3-7.4-10zm12.4 0c0-3.9-1.3-7.9-4.9-7.9-3.7 0-4.9 4-4.9 7.9s1.3 7.9 4.9 7.9c3.7 0 4.9-4 4.9-7.9zm7.9 9.7v-1.9c7-5.5 10.8-8.7 10.8-12.1 0-2.5-2-3.6-4-3.6-2.3 0-4.1 1-5.3 2.4l-1.5-1.5c1.5-1.9 4-3.1 6.8-3.1 3.2 0 6.5 1.8 6.5 5.7 0 4-4 7.6-9.4 11.8h9.5v2.2l-13.4.1zm18.7-2.9l1.4-1.5c1.1 1.5 3.1 2.6 5.4 2.6 2.8 0 4.5-1.4 4.5-3.6 0-2.4-2-3.4-4.8-3.4h-2v-2.2h2c2.4 0 4.5-1 4.5-3.2s-2-3.3-4.3-3.3c-2.1 0-3.7.8-5.1 2.4l-1.3-1.5c1.4-1.7 3.6-3 6.6-3 3.7 0 6.6 1.9 6.6 5.2 0 2.8-2.4 4.2-4.2 4.5 1.8.1 4.5 1.7 4.5 4.8 0 3.2-2.6 5.6-6.9 5.6-3.3-.2-5.7-1.6-6.9-3.4zm29.8 2.9V426h12.7v2.2h-10.3v17.3l-2.4-.1zm17.8-1.3c0-.9.7-1.6 1.6-1.6.9 0 1.6.7 1.6 1.6s-.7 1.6-1.6 1.6c-.9 0-1.6-.8-1.6-1.6zm7.8 6c1.9-3.7 3.1-7 3.1-11.8 0-4.9-1.2-8.2-3.1-11.9l1.3-1c2.6 3.6 4.1 8.2 4.1 12.9 0 4.7-1.5 9.3-4.1 12.9l-1.3-1.1zM620.6 565.8v-18.1h8.5c3.9 0 6.1 2.7 6.1 5.8 0 3.2-2.2 5.8-6.1 5.8h-4.6v6.4l-3.9.1zm10.6-12.3c0-1.5-1.1-2.4-2.7-2.4h-4.1v4.9h4.1c1.6-.1 2.7-1 2.7-2.5zm7.7 3.2c0-5.5 4-9.4 9.5-9.4s9.5 3.9 9.5 9.4-4 9.4-9.5 9.4-9.5-3.9-9.5-9.4zm14.9 0c0-3.4-2.2-6-5.5-6s-5.5 2.6-5.5 6 2.1 6 5.5 6 5.5-2.6 5.5-6zm8 0c0-5.6 4.2-9.4 9.6-9.4 4 0 6.3 2.2 7.6 4.4l-3.3 1.6c-.8-1.5-2.4-2.6-4.3-2.6-3.3 0-5.7 2.5-5.7 6 0 3.4 2.4 6 5.7 6 1.9 0 3.5-1.1 4.3-2.6l3.3 1.6c-1.3 2.3-3.6 4.5-7.6 4.5-5.4-.1-9.6-3.9-9.6-9.5zm20.9 0c0-5.6 4.2-9.4 9.6-9.4 4 0 6.3 2.2 7.6 4.4l-3.3 1.6c-.8-1.5-2.4-2.6-4.3-2.6-3.3 0-5.7 2.5-5.7 6 0 3.4 2.4 6 5.7 6 1.9 0 3.5-1.1 4.3-2.6l3.3 1.6c-1.3 2.3-3.6 4.5-7.6 4.5-5.4-.1-9.6-3.9-9.6-9.5zm21.7 9.1v-18.1h3.9v11.7l8.4-11.7h4v18.1h-3.9v-12.1l-8.6 12.1h-3.8zm22 0v-18.1h3.9v11.7l8.4-11.7h4v18.1h-3.9v-12.1l-8.6 12.1h-3.8zm8.1-19c-1.9 0-3.7-.9-4.8-2.4l1.5-1.3c.7 1 1.8 1.7 3.3 1.7 1.4 0 2.5-.6 3.2-1.7l1.5 1.3c-1 1.5-2.7 2.4-4.7 2.4zm13 9.9c0-5.6 4.2-9.4 9.6-9.4 4 0 6.3 2.2 7.6 4.4l-3.3 1.6c-.8-1.5-2.4-2.6-4.3-2.6-3.3 0-5.7 2.5-5.7 6 0 3.4 2.4 6 5.7 6 1.9 0 3.5-1.1 4.3-2.6l3.3 1.6c-1.3 2.3-3.6 4.5-7.6 4.5-5.4-.1-9.6-3.9-9.6-9.5zm32.5 9.1l-5.5-7.3-1.4 1.7v5.6h-3.9v-18.1h3.9v8.1l6.4-8.1h4.8l-7.2 8.5 7.7 9.6H780zm21.2 0l-1.1-3.1h-7.8l-1.1 3.1h-4.4l7-18.1h4.8l7 18.1h-4.4zm-5-14.3l-2.8 7.8h5.7l-2.9-7.8zm12.4 14.3l4.1-6.9c-2-.5-4-2.2-4-5.4 0-3.4 2.3-5.8 6.1-5.8h8.5v18.1h-3.9v-6.4h-2.8l-3.6 6.4h-4.4zm10.9-9.9V551h-4c-1.5 0-2.7.9-2.7 2.4s1.2 2.4 2.7 2.4l4 .1zm26.6 9.9V564c-5.5-.5-8.8-3-8.8-7.2s3.3-6.7 8.8-7.2v-1.8h3.9v1.8c5.5.5 8.8 3 8.8 7.2s-3.3 6.8-8.8 7.2v1.8h-3.9zm0-5.3v-7.6c-3.1.4-4.8 1.7-4.8 3.8 0 2.1 1.7 3.4 4.8 3.8zm3.9-7.6v7.6c3.1-.4 4.8-1.7 4.8-3.8s-1.7-3.4-4.8-3.8zm13.6 12.9v-18.1h12.8v3.4h-9v3.8h8.8v3.4h-8.8v4.1h9v3.4h-12.8zm17-3.1c1.8-.2 2.9-1 3.5-5.8l1.1-9.3H898v14.7h1.6v6.7h-3.9v-3.3h-11.3v3.3h-3.9l.1-6.3zm5-.3h8.4V551h-5.5l-.7 6.1c-.2 2.5-1 4.2-2.2 5.3zm18.4 3.4v-18.1h12.8v3.4h-9v3.8h8.8v3.4h-8.8v4.1h9v3.4H904zm18 0v-18.1h8.5c3.9 0 6.1 2.7 6.1 5.8 0 3.2-2.2 5.8-6.1 5.8h-4.6v6.4l-3.9.1zm10.7-12.3c0-1.5-1.1-2.4-2.7-2.4h-4.1v4.9h4.1c1.5-.1 2.7-1 2.7-2.5zm21 12.3l-1.1-3.1h-7.8l-1.1 3.1h-4.4l7-18.1h4.8l7 18.1h-4.4zm-5-14.3l-2.8 7.8h5.7l-2.9-7.8zm27.3 14.3h-14.1v-18.1h3.9v14.7h8.6v-14.7h3.9v14.7h1.6v6.7H976v-3.3zm8.3 0v-18.1h3.9v11.7l8.4-11.7h4v18.1h-3.9v-12.1l-8.6 12.1h-3.8zm21.2 0l4.1-6.9c-2-.5-4-2.2-4-5.4 0-3.4 2.3-5.8 6.1-5.8h8.5v18.1h-3.9v-6.4h-2.8l-3.6 6.4h-4.4zm10.8-9.9V551h-4c-1.5 0-2.7.9-2.7 2.4s1.2 2.4 2.7 2.4l4 .1z" fill="#191917"/></svg>