<svg xmlns="http://www.w3.org/2000/svg" width="363.765" height="343.414" viewBox="0 0 363.765 343.414"><defs><style>.a{fill:#f2f8ff;}.b{fill:#eef7ff;}.c{fill:#b2d5ff;}.d{fill:none;stroke-width:1.2px;}.d,.g{stroke:#0073ff;stroke-miterlimit:10;}.e,.g{fill:#0073ff;}.f{opacity:0.3;}.h{fill:#fff;}.i{fill:#191917;}</style></defs><g transform="translate(0 -6.42)"><g transform="translate(0 6.419)"><path class="a" d="M.621,724.486,0,725.1v-1.2Z" transform="translate(0 -470.821)"/><path class="a" d="M55.139,770.239l-.272.145-1.228,3.291-.109.293-3.372.67L47.767,777.8l.388,4.113-.317,1.863-1.192.667-.317.071-1.09.561-1.51.423-1.407-1.2-2.494-.035-2.145-1.019-1.125-.843-1.369-.243-5.75,10.159-.155.275.317,2,.49.737-.137,1.478-.459.071-.631-.458-1.2-.071-.7-.49-.459-.529-2.071-.349-7.838.737-1.372.6-.243.914.843.741.984.035,1.263.385-1.086,2.391.243,1.827-.106,1.965.705,4.885-.423.984-1.2.176L16,812.094l.173.282-.138.071-.388-.035-.984.106-.808,1.474-.106,2.321L9.326,812.8l-6.187-2.952L0,809.131V729.988l1.34-.54,1.866.825L5,729.706l1.238-1.277,3.869-1.062,4-.258-1.383,1.725,4.663,6.374,6.279,20.839,2.769-.677,1.344-2.356,1.125.349.652,2.36,5.4,2.36.063.028,3.746-1.778,1.88.628,1.672,2.794.06.1.638,3.348,2.995,1.354.367,3.115,3.072.4,1.4,1.45,2.956-1.9.688,1.831Z" transform="translate(0 -472.899)"/><path class="b" d="M26.158,431.189l-1.245,2.346-2.31,1a.315.315,0,0,0-.067.053l-.011,0-.007.007-.067.053-1.414,1.979-3.323.438v-7.362l.578-.8,2.2.317a.182.182,0,0,0,.106-.007l.074.01.049-.053a.4.4,0,0,0,.088-.064l1.672-1.848,1.354-.116a.371.371,0,0,0,.088-.032l.088-.007.042-.078v0a.272.272,0,0,0,.064-.063l.617-1.129,1.157.106-.914,2.014a.377.377,0,0,0-.025.109l-.014.028.014.032a.4.4,0,0,0,.018.113Z" transform="translate(-17.714 -283.658)"/><path class="c" d="M731.945,519.057l-.109-10.62-1.457-3.213L724.258,495.1l-1.883-1.913-2.173-7.305-1.255-2.384-.4-.369-4.027-1.266-1.486-1.494.963-2.434-2.969-.911-6.1-.551-4.449,2.827-.995,7.222-2.19-2.339-1.99,3.066-2.36-5.3-3.731,2.763-3.364-.247-.1-3.153,3.361-11.13.136-10.848.8-5.307-1.451-4.208,1.1-3.978-.989-4.068,8.273-9.664,2.914.286.175-1.1-.916-1.184,1.177-.933c0-.006-.012-.01-.016-.016l-1.781-2.563-3.07.268-2.31,2.035a.359.359,0,0,1-.1.063l-.06.052-.148.131-.1-.169-.052-.081a.348.348,0,0,1-.075-.078l-1.339-2.181a.339.339,0,0,1-.03-.093l-.045-.069.037-.081h0a.343.343,0,0,1,.015-.087l1.24-2.813-.961-3.288L685.2,418.7l-2.565,2.053a.353.353,0,0,1-.092.052v.018l-.452,2.43a.356.356,0,0,1-.035.069l-.006.034-.022.107-.1.026-.036.008c-.023.011-.04.031-.065.037l-3.562.851-.885,1.92a.357.357,0,0,1-.058.079l-.022.048-.046.013a.359.359,0,0,1-.092.052l-3.063.952a.355.355,0,0,1-.192.006L669,426.242l-1.118,1.751,3.059,6.4c.01.022,0,.047.009.071l.018.039-.008.042c0,.024.013.045.009.068l-1.228,6.458,2.822,1.631c.019.012.026.035.042.052l.052.03.021.052h0c.011.018.033.028.041.049l1.961,5.173a.358.358,0,0,1,.023.126l.006.016.052.132-.122.071-.016.01a.363.363,0,0,1-.1.082l-1.795,1.037.352,2.5a.355.355,0,0,1-.009.144l-.714,2.628a.356.356,0,0,1-.041.067l-.009.031-.028.1-.107.017-.035.005a.343.343,0,0,1-.071.034l-3.938.605v3a.354.354,0,0,1-.021.073v.137l-.1.046-.024.012c-.021.017-.035.042-.06.052l-6.6,3.192.7,7.983a.359.359,0,0,1-.065.239l-1.361,1.9,3.575,2.037a.355.355,0,0,1,.093.079l.024.014.128.074-.055.134-.013.032a.354.354,0,0,1-.024.113l-1.518,3.685,3.676,1.97c.022.012.032.037.052.052l.031.016.016.032c.015.019.04.029.052.052l.96,1.9a.348.348,0,0,1,.015.08l.013.026.047.1-.065.083-.018.023a.344.344,0,0,1-.029.074l-1.652,2.113,1.687,3.7,5.236-3.33a.321.321,0,0,1,.074-.022l.045-.029.107-.069.1.086.011.01a.35.35,0,0,1,.1.06l1.851,1.684c.019.018.024.044.039.064l.03.027.083.075-.04.107-.011.031a.361.361,0,0,1,0,.081l-2.2,6.113.536,2.746a.333.333,0,0,1-.008.081l.006.032.021.107-.088.062-.031.022c-.017.018-.025.043-.047.058l-1.868,1.3.341,2.319,4.52-.4h.031a.331.331,0,0,1,.066.015l.082-.007.052.065a.332.332,0,0,1,.077.061l2.321,2.9,2.285-.346,3.463-3.8.364-2.49a.365.365,0,0,1,.038-.117v-.013l.018-.132.133-.012h.014a.356.356,0,0,1,.118-.031l2.683-.235.676-1.712c.01-.025.033-.039.049-.06l.018-.046.045-.112.121.007.044,0c.02,0,.036-.017.056-.017h.024l1.81.12a.326.326,0,0,1,.069.025h.031l.1.006.04.1.008.019a.335.335,0,0,1,.052.067l2.271,5.359a.336.336,0,0,1,.011.083l.009.021.042.094-.067.077-.016.019a.332.332,0,0,1-.033.074l-1.027,1.224c-.014.018-.039.021-.057.035l-.027.031-.039.011c-.023.012-.038.033-.064.04l-4.42,1.116,1.28,2.2a.339.339,0,0,1,.016.072l.022.038.056.1-.068.09-.026.034a.353.353,0,0,1-.026.068l-1.575,2.039-.224,2.564a.343.343,0,0,1-.03.082v.006l0,.005a.34.34,0,0,1-.031.084l-2.377,3.319,1.173,1.23c.018.019.018.045.031.066l.042.045.088.093-.068.109-.032.052c-.008.023,0,.049-.016.071l-1.535,2.469.255,2.909,5.011,1.977a.357.357,0,0,1,.139.1l4.332,5.014,2.174-2.458a.359.359,0,0,1,.1-.073l.014-.014h.02a.345.345,0,0,1,.114-.031l5.122-.356h.025c.019,0,.036.013.055.016h.035l.038.024a.338.338,0,0,1,.072.022l2.422,1.629,6.494-2.843a.347.347,0,0,1,.1-.021l.189-.083.279-.122-.047.3-.033.213a.348.348,0,0,1,.01.093l-.424,2.694a.325.325,0,0,1-.016.04l2.718,3.678-.644,2.948,1.814,4.025,2.445-.768-1.114-1.812a.321.321,0,0,1-.023-.083l-.011-.018-.052-.091.057-.086.009-.014a.325.325,0,0,1,.026-.086L717.472,532a.35.35,0,0,1,.071-.072l.028-.046.052-.007a.347.347,0,0,1,.1-.037l5.355-.829,2.987-2.393-.608-3.078a.364.364,0,0,1,0-.11l-.014-.071-.035-.176.178-.024.078-.01a.346.346,0,0,1,.1-.034l2.138-.269.274-4.758-3.067.012h0a.356.356,0,0,1-.115-.021h-.013l-.008-.008a.358.358,0,0,1-.1-.065l-2.229-2.029a.35.35,0,0,1-.058-.081l-.064-.058-.137-.126.14-.123.052-.048a.354.354,0,0,1,.068-.094l3.2-2.872a.354.354,0,0,1,.1-.064h0l.093-.082.1.063.034.02a.337.337,0,0,1,.082.022l3.254,1.92a.364.364,0,0,1,.086.075l.019.012.007.025a.371.371,0,0,1,.052.1l.61,2.081Z" transform="translate(-433.835 -279.039)"/><path class="b" d="M709.311,315.371l2.554-2.044a.358.358,0,0,1,.109-.059l.032-.026.048.012c.011,0,.023-.006.034-.006a.37.37,0,0,1,.083.01l6.352,1.518a.339.339,0,0,1,.078.043l.013,0,.1.023.027.093.006.02a.34.34,0,0,1,.04.066l.971,3.312a.358.358,0,0,1-.016.245l-1.239,2.805,1.321,2.151,2.295-2.022c.018-.016.044-.016.066-.028l.033-.028.041,0c.023-.007.041-.026.065-.028l3.09-.271h.031a.352.352,0,0,1,.063.015h0l.1-.009.052.08v0a.354.354,0,0,1,.073.065l1.785,2.574,2.244-1.778,1.5-1.487,2.194-.734-1.118-4.507,3.834-1.6,2.81-2.955,2.77-.333-1.8,3.139,2.122,1.53,2.584-3.478.271-5.17,2.511-1.213,1.826-2.869L746.971,301l-1.679,2.5-2.133-1.71-1.345-9.184-2.18-5.318.182-4.08,2.9-5.04,1.873-.253.661-2.767,4.315,4.951,2.65-.685.007-1.988-.982-3.978-.928-2.779a.341.341,0,0,1-.1-.023l-2.549-1.16a.355.355,0,0,1-.081-.061l-.052-.024-.015-.055a.356.356,0,0,1-.047-.088l-.7-2.463-1.79-1.391-2.536.458a.357.357,0,0,1-.064.006c-.014,0-.026-.01-.04-.012l-.026,0-.127.024-.056-.114-.021-.044c-.017-.021-.041-.034-.052-.059l-1.909-3.928-2.266-.273a.356.356,0,0,1-.117-.038h-.013l-.008-.009a.354.354,0,0,1-.1-.079l-4.1-4.965-2.308,2.879a.351.351,0,0,1-.1.086v0h-.01a.358.358,0,0,1-.111.039l-3.471.546-2.077,2.213a.344.344,0,0,1-.093.065l-.056.059-.079-.018c-.011,0-.022.007-.033.007a.374.374,0,0,1-.079-.009l-3.042-.688-3.031,1.8a.336.336,0,0,1-.08.022l-.065.038-.135.08-.09-.13-.034-.049a.335.335,0,0,1-.075-.066l-1.733-2.524-2.081-.129,1.54,2.6a.346.346,0,0,1,.025.087l0,.008.049.084-.047.084-.005.009a.339.339,0,0,1-.022.085l-1.343,2.387c-.014.025-.04.037-.059.057l-.011.019-.019.01c-.021.017-.034.043-.058.056l-1.974,1.023-4.1,4.488,1.965,1.958a.347.347,0,0,1,.068.1l.027.027.113.112-.1.118-.029.033a.348.348,0,0,1-.06.1l-1.509,1.675,1.566,1.954a.354.354,0,0,1,.031.072l.01.012v.015a.331.331,0,0,1,.033.077l.337,2.485,2.427,1.816a.344.344,0,0,1,.065.078l.056.041v.078a.351.351,0,0,1,.021.09l-.014,4.014c0,.026-.018.046-.024.07v.041l-.026.035c-.011.021-.008.047-.023.067l-1.842,2.462a.353.353,0,0,1-.092.085l0,.006h-.01a.355.355,0,0,1-.113.044l-3.462.667-3.529,3.941,1.74,2.734a.348.348,0,0,1,.047.116l.012.019.08.123-.112.095-.019.016a.358.358,0,0,1-.078.1l-3.814,3.226-.336,3.036Z" transform="translate(-460.725 -173.971)"/><path class="b" d="M366.6,249.943l-.374,1.93-.78-2.732L363.8,247.93l-1.627,2.039-2.376,1.459v.123a.329.329,0,0,1,.022.079l.012,1.509,1.264,1.409a.353.353,0,0,1,.078.142l.755,2.671,4.28,5.054c.017.02.017.048.029.07l.023.027,0,.035c.007.024.026.043.028.068l.3,3.475,2.04,2.053a.355.355,0,0,1,.065.1l.039.039.121.121-.124.119-.046.044a.357.357,0,0,1-.063.09l-4.034,3.821-.074,2.037a.356.356,0,0,1-.044.156l-.889,1.623-.437,3.746a.355.355,0,0,1-.038.122l0,.027-.019.154-.152-.006H362.9a.349.349,0,0,1-.1.019h-.011l-2.055-.062-3.271,3.177a.347.347,0,0,1-.058.046l-1.088.688,3.131,4.007a.357.357,0,0,1,.071.161l1.987,11.808a.354.354,0,0,1,0,.113l.005.03-.018.025a.361.361,0,0,1-.052.107l-2.174,2.87,1.631,1.04c.024.015.035.042.054.062l.021.014.089.056-.013.1,0,.026a.342.342,0,0,1,.013.082l-.372,3.132,1.525,1.4a.357.357,0,0,1,.115.233l.189,2.157,1.68.957a.352.352,0,0,1,.094.079l.008,0,.112.066-.033.126,0,.011a.357.357,0,0,1-.012.12l-.583,2.1a.363.363,0,0,1-.052.107l-2.271,3.293L361.4,320.7l4.1-.358h.031c.018,0,.033.013.052.015l.033,0,.036.024a.34.34,0,0,1,.076.023l1.877,1.226,1.7-1.361c.017-.014.04-.011.058-.02l.073-.059.12-.1.108.111.032.034a.343.343,0,0,1,.09.062l1.006,1.054a.363.363,0,0,1,.068.1l.014.014.1.1,0,.007a.34.34,0,0,1,.07.056l1.457,1.839a.362.362,0,0,1,.052.1l.033.041.1.133-.134.1-.04.03a.352.352,0,0,1-.08.091l-1.389,1.065.165,1.881,1.775-.019,1.254-1.051a.355.355,0,0,1,.108-.062l.052-.044.147-.121.1.16.045.071a.355.355,0,0,1,.078.078l2.038,3.191a.355.355,0,0,1,.056.174l.214,4.179,2.373,1.072c.023.011.033.034.052.049l.052.024.115.052-.018.126-.009.057c0,.025.016.046.013.072l-.661,4.382,1.587,2.836,2.9.6a.359.359,0,0,1,.093.041l.089.018.181.039-.058.178-.026.08a.345.345,0,0,1-.012.1l-1.775,5.4.13,6.717,2.512,2.237,2.283-2.086c.019-.017.046-.019.068-.031l.025-.023.034,0c.025-.009.044-.029.07-.032l3.69-.472,1.038-2.293a.37.37,0,0,1,.055-.072l.055-.122.091-.2.17.14.085.072a.357.357,0,0,1,.1.056l2.025,1.7,2.364-3.3,3.345-9.21a.339.339,0,0,1,.052-.077l.028-.08.083-.022a.345.345,0,0,1,.084-.045l2.607-.671a.356.356,0,0,1,.192,0l5.476,1.653a.344.344,0,0,1,.09.052l.052.015.02.047a.345.345,0,0,1,.064.087l1.445,3.33,3-1.691a.357.357,0,0,1,.083-.022l.011-.006.082-.046.083.047.01.005a.336.336,0,0,1,.085.022l2,1.145c.025.014.038.04.058.059l.013.007.008.013c.019.021.044.034.058.059L420,353.251a.34.34,0,0,1,.023.087l.075.136,0,.005a.341.341,0,0,1,.066.061L425.6,361.8c.012-.012.016-.028.029-.039l2.734-2.154a.34.34,0,0,1,.06-.038l2.876-1.452a.349.349,0,0,1,.089-.021l.009,0,.087-.044.083.052.027.019a.353.353,0,0,1,.066.02l2.432,1.644,1.078-1.13a.342.342,0,0,1,.08-.056l.038-.041.1-.11.12.092.073.056c.02.01.043.007.061.021l1.906,1.471,1.527-1.818a.352.352,0,0,1,.084-.066l.026-.032.045,0a.355.355,0,0,1,.1-.027l4.208-.219h.019a.358.358,0,0,1,.066.02h.026l.027.017a.365.365,0,0,1,.074.022l2.836,1.831,5.047-2.393a.338.338,0,0,1,.107-.024l.079-.036.079.055.015.01a.348.348,0,0,1,.077.024l1.811,1.259,6.961-3.957a.361.361,0,0,1,.085-.023l.025-.015.022,0a.145.145,0,0,1,.09-.009l2.092.26,2.2-1.051-.4-1.556a.366.366,0,0,1,0-.078l-.012-.046-.032-.118.1-.066.046-.03c.017-.016.024-.04.044-.052l5.291-3.367c0-.008-.013-.014-.016-.022l-1.7-3.733a.34.34,0,0,1-.013-.084l-.008-.018-.042-.091.063-.08.012-.015a.344.344,0,0,1,.033-.08l1.646-2.112-.949-1.879-3.689-1.977a.36.36,0,0,1-.1-.078l-.026-.014-.133-.072.058-.139.01-.024a.353.353,0,0,1,.026-.125l1.522-3.685-3.582-2.042a.358.358,0,0,1-.077-.069l-.073-.041-.162-.093.109-.15.042-.058a.358.358,0,0,1,.047-.1l1.371-1.915-.7-7.989a.357.357,0,0,1,.016-.073l0-.045-.01-.113.1-.052.04-.019c.02-.016.031-.04.052-.052l6.6-3.193v-3a.354.354,0,0,1,.02-.111v-.175l.141-.023.026,0a.345.345,0,0,1,.114-.039l3.939-.61.71-2.607-.354-2.518a.333.333,0,0,1,.012-.074l-.006-.04-.016-.111.1-.057.032-.018c.02-.018.03-.044.052-.058l1.79-1.033-1.95-5.147-2.83-1.633c-.024-.014-.034-.04-.052-.059l-.037-.021-.1-.059.022-.117.009-.046c0-.026-.014-.048-.009-.074l1.231-6.466-3.062-6.406a.328.328,0,0,1-.018-.092h0l-.04-.084.05-.077v0a.344.344,0,0,1,.029-.089l1.135-1.774a.342.342,0,0,1,.064-.059l.02-.031.065-.1.115.029.015,0c.008,0,.014-.006.022-.006a.354.354,0,0,1,.086.011l4.914,1.218,3.05-.948.884-1.921a.351.351,0,0,1,.057-.075l.03-.064.064-.015a.351.351,0,0,1,.09-.044l3.558-.849.447-2.417c0-.007.006-.013.007-.02a.353.353,0,0,1-.071-.076l-7.174-12.072c-.013-.021-.007-.046-.015-.069l-.024-.04,0-.046c0-.023-.017-.043-.014-.066l.337-3.055a.358.358,0,0,1,.037-.118v-.012l.007-.006a.355.355,0,0,1,.08-.1l3.806-3.217-1.738-2.734c-.013-.02-.008-.044-.016-.066l-.034-.052-.068-.1.085-.095.04-.044c.013-.021.011-.048.029-.067l3.546-3.958c.016-.018.042-.02.061-.034l.031-.035.046-.009c.022-.009.037-.03.06-.034l3.46-.667,1.833-2.445.015-4-2.426-1.816a.357.357,0,0,1-.079-.088l-.02-.016,0-.028a.359.359,0,0,1-.037-.1l-.339-2.493-1.574-1.962a.349.349,0,0,1-.058-.107l-.014-.018-.087-.111.1-.1.011-.012a.346.346,0,0,1,.067-.109l1.505-1.671-1.965-1.957a.353.353,0,0,1-.07-.1l-.027-.027-.115-.112.108-.118.033-.036a.361.361,0,0,1,.059-.1l4.121-4.51a.364.364,0,0,1,.1-.076l1.969-1.02,1.334-2.37-1.555-2.624a.35.35,0,0,1-.023-.084l-.117-.2a.343.343,0,0,1-.067-.068l-1.665-2.81-3.59.312h-.031a.356.356,0,0,1-.113-.018l-2.88-.964a.345.345,0,0,1-.1-.057l-.026-.009-.011-.023a.352.352,0,0,1-.071-.093l-1.763-3.587a.351.351,0,0,1-.017-.089l-.006-.012-.045-.09.059-.08.008-.012a.346.346,0,0,1,.03-.082l5.169-7.244-.291-3.33-8.113-5.044-.749,1.829-4.688,3.209-3.88-3.092-3.616-.045-4.82,3.763-3.117,4.607-.873,4.5-2.266.92-2.994-1.183-2.754.512-1.27,2.008-1.349-.966-1.055,1.357-1.55-1.22,1.879-2.241-4.87.065-2.567,2.663,1.977,5.065-2.543,2.931-.353-4.032-1.882.164-1.733,1.867-.628-2.023,2.56-2.753-2.943.439-8.384,5.248,1.883,1.912-2.3,2.64,1.142,1.706,1.717-1.053.407,2.585,2.369,2.321-3.246,1.1-.867,1.431,1.085,2.071-2.648.684-3.679-.762-.723,4.126-6.192-.542.784,8.961-4.363-.34-7.158-5.424,2.271-1.914-4.557-5.657-2.71-1.027-3.825,1.688-4.539-1.318-.032,6.866-7.677,4.1-3.226-1.795.306-1.651-8.162.624Z" transform="translate(-236.877 -138.747)"/><path class="b" d="M826.334,189.943l-2.81,1.128a.35.35,0,0,1-.118.023l-.019.008-.024-.011a.35.35,0,0,1-.11-.023l-2.216-.929-2.815,11.119c-.006.024-.027.037-.037.058l-.014.054-.031.119-.121.006-.052,0c-.025.007-.043.026-.069.027l-4.726.291-4.2,1.7a.353.353,0,0,1-.115.022l-.042.017-.146.06-.068-.145-.034-.074c-.017-.021-.042-.035-.052-.06l-1.732-3.717-5.967.884-.876,1.935a.355.355,0,0,1-.065.088l-.017.037-.04.014a.356.356,0,0,1-.092.052l-3.987,1.314-.5,2.105a.335.335,0,0,1-.041.071l-.007.029-.025.1-.107.02-.03.006a.353.353,0,0,1-.071.037l-2.119.413-.479,2.474a.342.342,0,0,1-.037.079v0l-.018.088-.082.034a.335.335,0,0,1-.076.056l-2.437,1.014.673,2.461a.369.369,0,0,1,0,.066l.034.041a.35.35,0,0,1,.08.063l4.111,4.979,2.268.273a.333.333,0,0,1,.086.033h0l.09.011.04.082h0a.354.354,0,0,1,.059.069l1.906,3.923,2.531-.455a.344.344,0,0,1,.063-.006c.012,0,.021.01.033.011l.055-.01.058.046.006,0c.022.011.048.008.068.024l1.8,1.4c.019.014.024.04.04.058l.035.027.012.043c.011.02.032.034.038.057l.7,2.46,2.55,1.157,1.529-1.7-5.047-5.066.76-3.679,4.259-1.907-2.025,3.7.773,2.642L811,223.4l1.62-.052.13,2.516,1.555.227-.807,7.294,1.849,2.547,1.267,8.288,1.726,5.267,2.172,5.228-1.784,2.324.807,2.006-.948,1.528,3.059,2.982.9,5.069,4.189,3.973h0l4.969,4.709,26.185,14.413-1.5-8.9-1.346-4.037-3.218-2.7-.113-4.411,1.413-1.388-5.625-5.468-.27-4.13,1.946-2.518-.742-2.282-4.412-.879-5.073-7.412,1.014-.812,1.509,1.764,2.029-1.533-3.59-2.846-1.707,1.145-3.024-1.607-.043.058-1.785-3.355-2.958.26-.178,2.092-1.894-.019-7.159-11.655.022-3.885,2.372-.749-2.419-7.012,4.12,2.71-.663-8.61,2.773-3.4,4.562-.489-3.154-6.137Z" transform="translate(-517.402 -130.971)"/><path class="b" d="M842.15,592.144l.947-.534,2.529,1.043-2.331-3.95-2.87.251-3.164-1.077-3.714-2.2-2.743-5.538-1.577-3.566,2.555-1.758,5-.706-11.957-6.631-8.6-6.471-4.279-6.58-5.325-3.054-2.588-2.755-1.55.858-.208,1.735,3.136,1.8,1.825,2.278-.794,1.243-1.467-.233-.266,2.1,3.055,1.9,3.442,6.292,5.538,2.407,2.095,4.33,2.889,3.089,3.574,4.745,2.562,3.477,2.772,1.745,1.01,2.259.9,2,3.359,1.241.731,3.186,3.684,3.924-.052-3.7-.692-2.74Z" transform="translate(-525.53 -363.127)"/><path class="b" d="M572.215,644.046l5.817-3.664,4.8,1.2L588.4,640.2l8.958,7.433,11.141,9.678,3.892-1.965,2.612.945,1.714-1.054,3.5.778,1.821-.4a.315.315,0,0,1,.015-.071l2.768-5.141a.352.352,0,0,1-.047-.035l-4.346-5.03-5.016-1.982c-.026-.01-.04-.033-.063-.048l-.025-.01-.1-.041-.009-.1v-.025a.318.318,0,0,1-.029-.076l-.256-2.931a.635.635,0,0,1,.016-.068l0-.044.023-.037c.009-.023,0-.052.017-.071l1.528-2.459-1.172-1.229a.352.352,0,0,1-.07-.108l-.009-.01-.095-.1.08-.112.01-.015a.354.354,0,0,1,.052-.109l2.385-3.33.225-2.567a.368.368,0,0,1,.029-.076v-.02l.011-.015a.359.359,0,0,1,.03-.077l1.57-2.029-1.289-2.214a.338.338,0,0,1-.028-.094l-.064-.109-.113-.192.216-.052.121-.031a.355.355,0,0,1,.09-.046l4.446-1.122,1.011-1.206-2.262-5.338-1.777-.116-.676,1.709c-.01.026-.033.04-.048.063l-.009.024-.038.1-.1.01h-.029a.341.341,0,0,1-.071.027l-2.68.235-.364,2.485c0,.025-.023.042-.031.066l0,.032-.022.024c-.013.022-.014.049-.032.068l-3.474,3.807a.357.357,0,0,1-.208.112l-2.3.347a.318.318,0,0,1-.052,0,.356.356,0,0,1-.048-.011l-.093.015-.061-.077h0a.347.347,0,0,1-.075-.059l-2.322-2.9-4.527.4h-.031a.336.336,0,0,1-.078-.014l-.052,0-.156.014-.023-.156-.005-.036a.348.348,0,0,1-.04-.116l-.346-2.352a.328.328,0,0,1,.01-.078l0-.028-.015-.1.084-.056.026-.018c.018-.019.027-.044.049-.06l1.866-1.294-.533-2.74a.337.337,0,0,1,.006-.084v-.013l0-.012a.353.353,0,0,1,.006-.081l2.193-6.106-1.827-1.661-5.243,3.338a.339.339,0,0,1-.077.022l-.123.079a.36.36,0,0,1-.086.08L592.96,615.5l.4,1.561a.349.349,0,0,1,.009.126l0,.013.035.133-.126.059-.011.006a.354.354,0,0,1-.1.074l-2.222,1.062a.359.359,0,0,1-.1.022h0a.384.384,0,0,1-.052.013.348.348,0,0,1-.044,0l-2.088-.26-6.972,3.965a.35.35,0,0,1-.092.025l-.011.006-.093.052-.085-.061-.024-.016a.348.348,0,0,1-.077-.024l-1.812-1.26-5.047,2.393a.343.343,0,0,1-.1.023l-.08.038-.076-.052-.014-.009a.345.345,0,0,1-.077-.023l-2.838-1.834-4.193.215-1.536,1.829a.342.342,0,0,1-.083.063l-.038.046-.1.123-.127-.1-.073-.056c-.023-.011-.049-.008-.069-.024l-1.912-1.48-1.065,1.13a.355.355,0,0,1-.09.063l-.025.026-.1.1-.118-.081-.052-.037a.339.339,0,0,1-.077-.023l-2.434-1.65-2.862,1.445-2.709,2.133,3.7,2.026a.352.352,0,0,1,.084.071l.057.031.15.083-.086.149-.033.057a.35.35,0,0,1-.036.1l-.862,1.457,1.812,1.52,2.762-1.867a.317.317,0,0,1,.074-.023l.073-.052.138-.094.1.137.039.056a.34.34,0,0,1,.075.066l1.587,2.315,2.094-.7a.361.361,0,0,1,.112-.018h.007l.074-.025.185-.063.032.2.015.093a.361.361,0,0,1,.039.1l.715,4.374,2.332,1.075a.353.353,0,0,1,.085.064l.073.034.167.077-.091.159-.044.075a.355.355,0,0,1-.032.1l-1.076,1.847,4.288,5.354A.04.04,0,0,0,572.215,644.046Z" transform="translate(-364.579 -401.962)"/><path class="b" d="M814.127,738.577l4.331-4.172,2.293-5.8.011-15.354,1.184-8.139-2.068-9.223h0l-.042.007a.355.355,0,0,1-.067-.006l-1.682-.322a.34.34,0,0,1-.073-.036l-.023,0-.1-.018-.027-.1-.008-.027a.349.349,0,0,1-.041-.066l-.61-2.086-3.234-1.907-3.174,2.847,2.2,2,3.081-.012h0a.354.354,0,0,1,.1.021h.25l-.009.177,0,.077a.36.36,0,0,1,.015.1l-.276,4.8a.363.363,0,0,1-.027.117v.021l-.009.141-.138.016h-.017a.357.357,0,0,1-.12.037l-2.134.267.606,3.07a.337.337,0,0,1-.006.079l.005.025.018.1-.078.063-.021.017a.334.334,0,0,1-.046.063l-3,2.4a.342.342,0,0,1-.08.035H811.1a.345.345,0,0,1-.082.036l-5.351.829-1.192,1.888,1.12,1.821a.342.342,0,0,1,.034.1l.059.1.114.182-.2.065-.116.036a.358.358,0,0,1-.084.049l-2.474.776a.151.151,0,0,0-.027,0l.573,10.474,2.165,3.061-7.294,1.272-1.955,5.5,3.171,6.4-1.672,3.921,6.768-4.129Z" transform="translate(-521.725 -455.5)"/><path class="b" d="M506.09,671.806l-1.989-4.162-3.436-.06,2.032-4.7,3.99-3.319-4.3-5.365a.561.561,0,0,1-.025-.071l-.028-.035-.074-.088.056-.1.025-.042c.007-.021,0-.049.018-.071l1.072-1.838-2.325-1.072a.317.317,0,0,1-.067-.053h0l-.078-.039-.018-.088a.306.306,0,0,1-.035-.085l-.339-2.06-.377-2.3-2.085.692a.308.308,0,0,1-.113.021h-.014l-.12.042-.071-.106-.021-.028a.282.282,0,0,1-.067-.063l-1.587-2.307-2.755,1.862a.673.673,0,0,1-.078.025l-.042.028-.1.067-.1-.081a.406.406,0,0,1-.109-.06l-1.838-1.545a.417.417,0,0,1-.081-.1l-.014-.011-.106-.092.071-.123.011-.021a.339.339,0,0,1,.042-.113l.861-1.457-3.711-2.028a.4.4,0,0,1-.067-.067l-.145-.078-.035-.018-.021-.035-.042-.06a.437.437,0,0,1-.081-.081l-5.443-8.275h-.021a.532.532,0,0,1-.1.035l-3.675.427-1.309,1.2.579,4.014,2.839,1.661a.312.312,0,0,1,.067.067l.074.042.007.088a.4.4,0,0,1,.028.092l.18,3.358a.366.366,0,0,1-.018.106l0,.067-.056.049a.292.292,0,0,1-.056.074l-2.423,2.021a.342.342,0,0,1-.109.064l-.007,0h-.018a.3.3,0,0,1-.1.018H478.2l-4.448-.289a.013.013,0,0,1-.011,0l-1.094,1.873,1.354,1.041a.309.309,0,0,1,.109.141l.861,1.982,1.894,4.374,2.582.222a.169.169,0,0,1,.074.028h.021l.014.01a.676.676,0,0,1,.078.028L482.21,657a.338.338,0,0,1,.081.092l.011.007v.014a.326.326,0,0,1,.042.116l.49,3.076a.345.345,0,0,1,0,.12v.007l.018.127-.116.053h0a.294.294,0,0,1-.106.071l-3.676,1.672-1.178,3.538a.4.4,0,0,1-.1.152l-4.067,3.7.2,2.275,2.06,1.129c.025.011.035.035.056.049l.021.014.085.046v.12a.716.716,0,0,1,.025.081v2.571a.621.621,0,0,1-.025.074v.028l-.018.025a.287.287,0,0,1-.021.074l-1.728,2.561a.341.341,0,0,1-.134.12l-2.4,1.235-.737,1.474a.43.43,0,0,1-.063.078l-.035.067-.074.014a.46.46,0,0,1-.088.035l-2.864.473-4.056,6.483a.343.343,0,0,1-.064.06l-.007.011-.053.085-.1-.007h-.007a.28.28,0,0,1-.074.018h-.014l-2.434-.116-2.508,2.5a.42.42,0,0,1-.106.07h0a.412.412,0,0,1-.109.028l-4.261.374,1.033,2.392a.262.262,0,0,1,.011.071l.018.046.046.106-.085.081-.032.032c-.014.021-.018.046-.035.064l-2.063,1.989,2.522,2.314a.223.223,0,0,1,.049.078l.092.084.159.145-.18.12-.106.064a.256.256,0,0,1-.067.07l-2.1,1.347-.5,2.779,1.485-.067,1.778,2.741,11.834.046,7.471-5.439,2.5-.31.578-2.667,3.538-3.922,5.354-.741,1.746,1.383,2.06-2.257,9.633.695,1.023-3.8,3.03-2.522-1.633-3.2.649-9.09Zm-17.947,17.252-.106.06a.3.3,0,0,1-.092.085l-9.34,5.555c-.028.011-.057.018-.081.025l-.011,0-.078.049-.081-.042a.271.271,0,0,1-.092-.025l-5.947-3.03a.355.355,0,0,1-.1-.078l-.011,0-.123-.064.039-.134,0-.014a.291.291,0,0,1,.014-.123l.635-2.187a.478.478,0,0,1,.046-.071l0-.021.028-.1.1-.021.018,0a.714.714,0,0,1,.071-.039l4.575-.966,1.083-2.878a.348.348,0,0,1,.056-.085l.046-.12.078-.212.18.138.127.1c.021.011.046.007.064.021l1.122.861.871-2.688a.471.471,0,0,1,.046-.071v-.007l.028-.081.085-.028a.333.333,0,0,1,.078-.042l2.307-.677a.325.325,0,0,1,.1-.014l.014,0,.018-.007.032.018a.336.336,0,0,1,.1.025l2.97,1.513c.025.014.035.039.056.053l.035.018.106.053-.011.113-.007.046a.229.229,0,0,1,.018.07l-.19,1.912a.3.3,0,0,1-.028.071l0,.035-.01.109-.106.035-.035.011c-.021.014-.035.035-.06.042l-1.312.434,2.508,1.926.011,0c.018.018.025.042.042.063l.127.1.2.152Z" transform="translate(-299.353 -417.267)"/><path class="b" d="M265.2,203.325l-.055,1.3-1.089.433-1.041-2.894-4.118,2.5-1.227,3.994.052,1.233,1.685.585,3.066,2.21,3.376,1.9,1.491-.975.145-2.209-1.357-1.346,1.249-2.475-.052-2.529Z" transform="translate(-173.027 -138.882)"/><path class="b" d="M257.958,176.145l-2.168-1.613-1.632,1.945-1.686,1.332.638,2.141-1.629,2.621.127,1.452,2.533,1.919,4.4-2.469-.151-1.733,1.757-1.167-.793-1.339Z" transform="translate(-169.024 -120.996)"/><path class="b" d="M243.78,206.347l.529,1.53,2.489,1.417,1.543-1.037.356-1.72-3.639-1.034Z" transform="translate(-164.039 -141.043)"/><path class="b" d="M486.332,210.655v2.583l.533,2.613,1.589,1.684.706,1.99,3.013.572,2.7-.464-.476-2.846,1.982.052,1.29-2.62,1.841.219,1.089-1.463-1.314-1.1-2.706-.52-2.329-2.3,1.693-.6,1.8,2.275,2.993.345-.222-3.4-1.126-1.573-3.486.078-1.7,1.44-2.829-.208-.062,1.905,1.81,1.589-.811,1.135-2.832-1.956Z" transform="translate(-321.035 -141.425)"/><path class="b" d="M286.623,232.13l2.91-2.788,3.278-.512,1.581-1.884-.129-4.044-2.05-2.185-1.428,1.7-.918-.82-.1-2.414-2.556,1.689.05,5.064-1.6,3.631Z" transform="translate(-191.15 -149.899)"/><path class="b" d="M164.072,361.447l1.023-.555-.567-2.746-1.112-.46-1.044,1.907Z" transform="translate(-111.346 -239.546)"/><path class="b" d="M75.746,422.8a.316.316,0,0,0-.021.078l.035,3.467-3.774,5.771-2.176-1.827a.338.338,0,0,0-.109-.063h0a.337.337,0,0,0-.116-.021h0l-1.048.01-2.36-2.871a.481.481,0,0,0-.081-.06l-.049-.067-.085.011a.3.3,0,0,0-.06-.011.087.087,0,0,0-.042,0l-2.751.325-2.9-2.272c-.021-.014-.046-.01-.067-.025l-.056-.042-.113-.085-.1.092-.007.007a.368.368,0,0,0-.113.067l-2.751,2.42-3.76-.028-3.873-1.922-2.349-3.21c-.014-.021-.042-.028-.06-.046l-.021-.025-.028-.011c-.025-.014-.039-.039-.064-.046l-5.81-1.947-4.374-3.33c-.018-.014-.042-.014-.064-.025l-.053-.039-.056,0c-.014,0-.028-.014-.042-.014h-.032L32,417.451l-.155-2.772a.36.36,0,0,0-.092-.222L30.5,413.095l-.55-4.265c0-.025-.025-.042-.032-.067l0-.039-.028-.028c-.014-.021-.014-.046-.032-.067l-2.247-2.374a.53.53,0,0,0-.092-.063l-.028-.032h-.049a.389.389,0,0,0-.092-.018H27.34l-6.751.229-1.069-.822-.332-2.762a.323.323,0,0,0-.032-.1l-.007-.056L19.1,402.6a.664.664,0,0,0-.071-.071l-1.316-.847V385.1l3.379-.448a.347.347,0,0,0,.1-.035l.039-.007.025-.028a.39.39,0,0,0,.078-.074l1.418-1.979,2.317-1.005c.021-.007.032-.032.049-.046l.049-.021.025-.042c.014-.021.039-.028.049-.049L26.5,379a.346.346,0,0,0,.028-.1l.025-.049-.018-.046a.555.555,0,0,0-.018-.106l-1.189-2.949.921-2.035a.393.393,0,0,0,.018-.088l.078-.176c.018-.018.042-.032.053-.056l.963-2.127a.237.237,0,0,0,.014-.085l.007-.011.035-.088-.049-.078L27.358,371a.55.55,0,0,0-.028-.081l-1.3-1.9,1.845-1.827,3.975,5.291,1.235,3.774,1.224,1.608,3.051-3.337-1.111-1.348-.593-1.577.677-2.586L33.5,366.562l-.028-1.351,2.878-1.157,1.813-4.042-2.2-2.427,1.81-2.053,3.686-1.224,2.3-2.638,2.868-4.406,2.508-2.3,1.852.557,0,0h0l3.093,3.429-.3,4.815L50.5,357.49l.885,2.9-.43,2.293L46.62,376.16l.843,3.446-2.66,6.737-4.483,3.467-2.857,1.421-5.873-2.1.219,2.508,8.878,4.462,2.275-2.91,3.556-1.665,3.672-4.473L50,381.741l2.219-2.54,4.444.243,1.584,3.654-2.427,5.27,1.429,3.936,3.774-1.231-2.166-.988-.843-1.369,2.328-3.365-.37-4.215-4.056-4.071-4.483.392-.638-4.187,3.788-7.284-.709-7.072,1.559-2.843,1.834-.705,1.651-1.767.885-3.33.938-.54.056,4.78-2.159,3.171.462,3.21L65.28,365.5l-.441-2.942-3.432-3.132.564-2.847,3.192,2.43.614-3.305,1.778-.261v.01l.056.314a.389.389,0,0,0,.042.116l2.388,4.1-2.007.518a.384.384,0,0,0-.064.039l-.046.014-.113.028-.014.116,0,.053c-.007.021-.025.039-.025.064l-.261,2.8c0,.028.014.049.014.074l0,.039.021.032a.5.5,0,0,0,.014.071l2.466,4.236L69.7,370.09l-4.713,2.621a.489.489,0,0,0-.078.071l-.056.032-.011.067a.383.383,0,0,0-.035.088l-.409,2.564a.434.434,0,0,0,.007.1l-.011.067.042.046a.487.487,0,0,0,.049.085l3.623,4a.358.358,0,0,0,.208.113l3.63.575,1.15,4.31-.145.483-.011.032-.984,3.316-3.192,1.168a.265.265,0,0,0-.085.053l-.088.028-.18.067.088.169.042.078a.391.391,0,0,0,.028.106l1.2,2.261L69,395.8a.461.461,0,0,0,0,.1l-.021.078.053.06a.269.269,0,0,0,.049.088l2.928,3.189-.12,6.328a.364.364,0,0,0,.021.124v.007l.007.007a.329.329,0,0,0,.06.1l2.353,2.7-.4,4.529a.6.6,0,0,0,.014.077v.025l-.007.106.088.053.018.011a.487.487,0,0,0,.056.063l3.337,2.074.794,3.076-2.451,4.1a.344.344,0,0,0-.021.081l-.011.014v.014Z" transform="translate(-17.714 -231.314)"/><path class="b" d="M112.766,335.1l-2.848.037.011,2.533.738,1.472,2.821-.624Z" transform="translate(-77.394 -224.926)"/><path class="b" d="M714.018,55.474l-1.832,3.355.215,2.465,4.267,4.242.771-.919.593-5.376,1.05-2.577-1.573-1.779Z" transform="translate(-467.223 -43.553)"/><path class="b" d="M149.342,367.283l-.422,1.016,1.526.426,1.5-.412L151.1,366.1Z" transform="translate(-102.639 -244.995)"/><path class="b" d="M156.758,302.924a.335.335,0,0,1,.029.094l.063.108.11.192-.213.054-.121.031a.35.35,0,0,1-.088.046l-2.021.52-.257,2.783,2.467,4.238a.358.358,0,0,1,.044.236l-.326,2.038a.348.348,0,0,1-.035.086l-.012.071-.06.034a.35.35,0,0,1-.072.065l-4.712,2.624-.4,2.54,3.609,3.987,3.637.578a.338.338,0,0,1,.071.034l.033.005.107.017.028.1.008.032c.013.024.034.04.04.067l1.153,4.324a.354.354,0,0,1,0,.082l.006.021-.006.02a.341.341,0,0,1,0,.071l-1.141,3.85a.344.344,0,0,1-.048.083l-.021.072-.071.026a.351.351,0,0,1-.08.052l-3.18,1.161,1.187,2.249a.353.353,0,0,1,.038.12h0a.357.357,0,0,1-.007.128l-.766,3.208,2.925,3.185a.358.358,0,0,1,.063.1l.012.013v.019a.347.347,0,0,1,.02.115l-.119,6.331,2.351,2.7a.356.356,0,0,1,.056.1l.02.023v.033a.349.349,0,0,1,.012.11l-.4,4.522,3.334,2.073a.36.36,0,0,1,.086.08l.015.009,0,.016a.352.352,0,0,1,.052.109l.792,3.1a.347.347,0,0,1,.006.108l.009.033-.02.033a.346.346,0,0,1-.035.1l-2.455,4.1.038,3.466a.337.337,0,0,1-.022.076v.025l-.014.023a.337.337,0,0,1-.022.076l-3.793,5.8a.354.354,0,0,1-.074.074h0c0,.011.008.02.009.03l.377,4.3,3.616,1.679a.354.354,0,0,1,.1.075l.015.007.131.06-.041.138,0,.016a.358.358,0,0,1-.013.128l-.437,1.5a.352.352,0,0,1-.056.1l-.006.021-.022.012a.359.359,0,0,1-.09.074l-3,1.609a.361.361,0,0,1-.093.034l-2.659.572,1.509,3.969a.344.344,0,0,1,.012.093l.029.076-.044.065a.342.342,0,0,1-.033.092l-.986,1.48.19,2.175,8.585.572a.335.335,0,0,1,.1.031l.075,0,.039.067a.349.349,0,0,1,.07.07l2.914,4.872,2.169.082a.342.342,0,0,1,.1.025h.052l.161.005v.208a.348.348,0,0,1,.023.112l.019,1.737a.36.36,0,0,1-.021.114v.025l-.018.018a.344.344,0,0,1-.061.1l-3.075,3.187.489,2.365,2.038,1.711,2.731.606a.355.355,0,0,1,.107.047l.046.011.156.035-.028.156-.008.047a.348.348,0,0,1,0,.115l-.267,1.477c0,.024-.026.04-.034.062l-.008.049-.037.032c-.013.018-.015.043-.032.058l-2.838,2.584.118,2.975a.34.34,0,0,1-.019.079v.028l.005.1-.017.007-.019.156a.361.361,0,0,1,.013.082l-.218,1.753,3.063,4.863c.014.021.009.047.018.07l.028.045.065.1-.079.094-.035.042c-.012.021-.011.046-.027.066l-1.138,1.353a.356.356,0,0,1-.094.079l-1.055.615c0,.006.008.009.011.015l1.665,3.787,2.549-.223,2.469-.511a.357.357,0,0,1,.072-.007c.012,0,.022.007.033.008l.014,0,.023.013a.348.348,0,0,1,.094.023l1.561.811a.351.351,0,0,1,.1.079l.018.009.131.068-.052.137-.007.021a.352.352,0,0,1-.02.124l-.646,1.8,2.133,2.723a.361.361,0,0,1,.064.128l.657,2.456,1.129,2.606a.362.362,0,0,1,.025.084l.3,1.813a.332.332,0,0,1-.009.077l.006.036.018.108-.092.06-.031.02c-.018.018-.027.043-.049.057l-1.961,1.278.145,1.653a.355.355,0,0,1-.019.15l-.572,1.62a.351.351,0,0,1-.059.1l-.007.021-.018.009a.356.356,0,0,1-.1.073l-2.193,1.049-1.021,2.749,3.979,2.312,6.254.265,2.459-2.442a.356.356,0,0,1,.14-.086l1.353-.445-.039-1.338a.349.349,0,0,1,.02-.1v-.076l.06-.046a.346.346,0,0,1,.061-.076l2-1.54-.275-1.374a.347.347,0,0,1,0-.124l0-.022-.028-.141.136-.05.017-.006a.359.359,0,0,1,.111-.065l1.457-.52.312-2.1c0-.026.025-.044.033-.068l.007-.048.018-.12.118-.023.056-.01c.021-.008.035-.027.058-.031l8.008-1.417.224-1.758a.347.347,0,0,1,.032-.082l.005-.041-4.891-3.665a.362.362,0,0,1-.076-.086l-.03-.024,0-.039a.346.346,0,0,1-.032-.1l-.14-1.595a.345.345,0,0,1,.016-.08l-.012-.132.092-.052.022-.013c.021-.02.033-.047.059-.062l1.831-1.056a.359.359,0,0,1,.083-.023l.008,0h.009a.352.352,0,0,1,.078-.021h0l2.511.03-.166-8a.359.359,0,0,1,.027-.145l1.316-3.168a.348.348,0,0,1,.058-.08l.029-.072.076-.016a.338.338,0,0,1,.085-.043l2.617-.61.3-2.3-3.152-4.111a.345.345,0,0,1-.034-.082l-.007-.01-.06-.079.039-.091.006-.014a.338.338,0,0,1,.012-.084l2.1-4.823a.328.328,0,0,1,.055-.07l0-.009.038-.087.094-.013h.012a.349.349,0,0,1,.078-.032l6.206-.812,1.374-2.163a.361.361,0,0,1,.066-.062l.1-.16.149-.235.137.24.1.171a.335.335,0,0,1,.059.06l2.693,4.7,1.294-.676-.511-2.9a.356.356,0,0,1,0-.1l-.007-.046.026-.034a.354.354,0,0,1,.046-.1l5.472-7.117.163-2.617a.326.326,0,0,1,.022-.07l-.022-.073.071-.04a.356.356,0,0,1,.11-.1l2.658-1.5a.336.336,0,0,1,.085-.023l.216-.123.083.146.041.072c.02.021.046.035.062.062l1.675,2.946,2.878,1.378.416-2.228a.339.339,0,0,1,.039-.081v-.006a.346.346,0,0,1,.036-.077l1.391-1.658-.774-1.786-1.3-.235a.355.355,0,0,1-.118-.044l-.016,0-.135-.025v-.166a.362.362,0,0,1-.021-.114l-.017-1.59a.358.358,0,0,1,.077-.225l1.881-2.383-.514-1.674-2.89-.648a.354.354,0,0,1-.093-.047l-.076-.017-.032-.08a.342.342,0,0,1-.052-.073l-.994-2.5a.351.351,0,0,1-.013-.092l-.028-.072.039-.063a.358.358,0,0,1,.029-.091l1.212-2-1.4-1.963A.343.343,0,0,1,229,380.3l-.028-.039-.1-.134.131-.1.052-.037a.347.347,0,0,1,.069-.077l3.18-2.364,1.66-4.035-.529-3.018-1.473-1.955a.338.338,0,0,1-.034-.08l0-.006-.052-.071.03-.084v0a.342.342,0,0,1,.008-.089l1.044-2.961-.8-1.612a.355.355,0,0,1-.033-.108l-.355-2.579a.34.34,0,0,1,.012-.073l-.006-.042-.014-.115.1-.055.032-.018c.02-.019.031-.045.056-.059l2.243-1.242a.383.383,0,0,1,.069-.029l2.471-.75.941-1.249a.345.345,0,0,1,.042-.035l-.988-1.036-1.7,1.358c-.018.014-.041.011-.061.021l-.047.038-.094.076-.1-.067-.04-.026a.351.351,0,0,1-.073-.022l-1.886-1.231-4.111.359h-.031a.342.342,0,0,1-.07-.014l-.273.024,0-.188v-.08a.359.359,0,0,1-.02-.107l.052-2.241a.355.355,0,0,1,.024-.073v-.028l.016-.025a.335.335,0,0,1,.022-.068l2.268-3.292.584-2.087-1.679-.956a.348.348,0,0,1-.068-.066l-.07-.04-.007-.074a.341.341,0,0,1-.034-.1l-.189-2.159-1.526-1.4a.35.35,0,0,1-.055-.082l-.055-.052.008-.076a.337.337,0,0,1-.011-.1l.372-3.129-1.639-1.048a.353.353,0,0,1-.076-.075l-.066-.042-.152-.1.11-.145.044-.058a.349.349,0,0,1,.047-.1l2.181-2.881-1.982-11.792-3.156-4.012a.355.355,0,0,1-.066-.144l-.133-.17.212-.134a.346.346,0,0,1,.077-.075l1.118-.707,3.278-3.183a.36.36,0,0,1,.1-.065l.019-.018h.032a.349.349,0,0,1,.1-.019h.011l2.043.061.435-3.725a.353.353,0,0,1,.042-.13l.89-1.627.076-2.04a.361.361,0,0,1,.026-.11v-.025l.017-.017a.357.357,0,0,1,.067-.094l4.023-3.811-2.029-2.042a.357.357,0,0,1-.1-.221l-.3-3.476-4.277-5.051a.36.36,0,0,1-.071-.134l-.756-2.671-1.268-1.415a.36.36,0,0,1-.065-.1l0,0v-.007a.364.364,0,0,1-.023-.119l-.011-1.5-2.237,1.375-2.508,2.3-3.581,1.4-1.213,2.634-.225-3.59,6.764-8.357,3.472-7.8,1.3-6.8-6.308-6.041-5.391.292-1.647,2.852-2.12.547,1.213-4.712-4.438-.154,1.253-2.185-2.884-2-2.341,1.108-3.352,6.072,1.2,3.327-4.1.63.183,1.067,1.717,2.108-3.011-.369-1.4,1.567-3.46-.329-.58-1.484-4.832.512.333,2.771-5.755,1.315-3.668,3.481-3.038.357-2.068,2.168-.633,4.118,2.18,3.242-2.8.968-7.727-.589-4.4.3-1.133,2.537.369,6.289,3.013,2.445L164.4,303.7l-3.853.337-3.851-5.892-2.4.352.056.307Z" transform="translate(-104.084 -174.421)"/><path class="b" d="M99.552,651.04l1.394-1.973a.358.358,0,0,1,.085-.083l.007-.01.013,0a.348.348,0,0,1,.1-.046l4.2-.957a.358.358,0,0,1,.194.01l3.777,1.282,2.68-1.438a.343.343,0,0,1,.088-.023l.093-.052-.119-3a.361.361,0,0,1,.019-.1V644.6l.04-.038a.348.348,0,0,1,.059-.084l2.839-2.585.263-1.45-2.715-.6a.358.358,0,0,1-.152-.075l-2.049-1.717c-.018-.015-.02-.04-.034-.057l-.041-.034-.012-.052c-.008-.02-.028-.034-.033-.056l-.494-2.384a.357.357,0,0,1,0-.093l-.017-.086.061-.064a.343.343,0,0,1,.045-.079l3.077-3.189-.018-1.707-2.159-.08a.341.341,0,0,1-.089-.026l-.091,0-.047-.078h0a.352.352,0,0,1-.065-.065l-2.914-4.871-8.591-.572a.358.358,0,0,1-.124-.032H98.81l-.144-.009-.013-.143v-.02a.351.351,0,0,1-.033-.121l-.193-2.2a.357.357,0,0,1,.059-.229l.984-1.477-1.514-3.982a.351.351,0,0,1-.014-.094l-.007-.019c-.008,0-.018,0-.026-.007l-2.56-1.509-4.5,3.138a.307.307,0,0,1-.07.022l-.032.022-.089.062-.093-.055-.027-.017a.33.33,0,0,1-.079-.022l-4.234-2.57-5.757.411h-.026a.383.383,0,0,1-.065-.016h-.011l-.013-.007a.363.363,0,0,1-.083-.021l-3.989-2.185-2.8-.554-2.363,2.142-1.344,6.1a.356.356,0,0,1-.052.117l0,.014-.03.137-.138-.005h-.019a.35.35,0,0,1-.109.019H69.41l-2.105-.068L65.7,622.622l-.182,1.8a.353.353,0,0,1-.032.1l-.005.052-.047.033a.361.361,0,0,1-.067.072L62.5,626.661H62.5l.013.06a.35.35,0,0,1,.038.077l.253,1.227a.353.353,0,0,1,0,.109l.007.036-.021.031a.348.348,0,0,1-.04.1l-1.364,2,1.557,1.383a.357.357,0,0,1,.073.1l.011.01v.013a.359.359,0,0,1,.033.117l.45,5.151.014.005a.36.36,0,0,1,.12.022L75.4,641.483a.358.358,0,0,1,.138.093l2.338,2.554a.357.357,0,0,1,.072.118l.8,2.194,3.19-.364h.04a.323.323,0,0,1,.056.014h.009l.1-.011.056.085.008.012a.336.336,0,0,1,.067.061l1.291,1.955,6.353-.376h.021a.361.361,0,0,1,.089.016l.065,0,.173-.011,0,.172v.068a.363.363,0,0,1,.025.1l.121,4.44.857.934,1.89-1.877a.359.359,0,0,1,.1-.071h0a.36.36,0,0,1,.116-.031l1.543-.135h.031a.355.355,0,0,1,.073.013l.066-.006.063-.006a.344.344,0,0,1,.1-.029Z" transform="translate(-45.979 -404.747)"/><path class="b" d="M76.045,543.676l-.43,1.471-2.984,1.6-2.681.575a.288.288,0,0,0-.1.042h0s0-.007-.007-.007l-2.578-1.524a.389.389,0,0,0-.085-.025l-.021-.011-.092-.053-.088.06-.028.021c-.025.011-.049.007-.071.021l-4.508,3.139-4.229-2.568a.329.329,0,0,0-.078-.021l-.025-.014h-.021a.431.431,0,0,0-.064-.018h-.025l-5.757.413-4-2.187a.344.344,0,0,0-.106-.039l-2.8-.554a.205.205,0,0,0-.113,0l-.056-.011-.032.028a.38.38,0,0,0-.109.067l-2.374,2.152c-.021.018-.025.049-.039.07l-.028.021-.007.035c-.011.021-.032.039-.035.063l-1.34,6.1-2.1-.07h-.011c-.021,0-.039.018-.06.021h-.049l-.042.032c-.025.014-.049.01-.067.025L37.2,553.8a.428.428,0,0,0-.074.085l-.025.021,0,.035a.266.266,0,0,0-.032.1l-.19,1.8-2.85,1.975s0,.011-.007.011l0,0a.271.271,0,0,0-.071-.071l-5.721-3.563-3.037-4.857-2.3-4.131a.306.306,0,0,0-.064-.071l-.035-.064-.071-.01a.29.29,0,0,0-.092-.035L21.09,544.8l-3.22-1.012-.155-.123V507.038l1.1.709.328,2.762a.427.427,0,0,0,.039.113l0,.025.018.014a.4.4,0,0,0,.078.092l1.083.833c.021.014.046.01.071.021l.042.032h.046c.021,0,.039.021.06.021h.011l6.751-.229,2.236,2.363.554,4.261a.254.254,0,0,0,.032.07l0,.032.021.025c.014.021.014.049.032.071l1.245,1.362.159,2.787a.313.313,0,0,0,.028.113l0,.06.011.173.169-.014.074-.007a.488.488,0,0,0,.071.014h.032l4.42-.388,4.374,3.33a.259.259,0,0,0,.1.053l5.806,1.947,2.36,3.21a.321.321,0,0,0,.13.106l3.88,1.926a.327.327,0,0,0,.155.039l3.771.028h0a.381.381,0,0,0,.123-.021h0a.353.353,0,0,0,.109-.067L60,530.488l2.889,2.265c.018.014.046.014.067.025h0l.053.042.053,0c.014,0,.028.014.042.014h.042l2.748-.328,2.36,2.868a.459.459,0,0,0,.081.063l.039.049h.067a.4.4,0,0,0,.088.021h0l1.048-.014,2.191,1.841a.492.492,0,0,0,.085.046l.377,4.332a.3.3,0,0,0,.032.078v.014l.007.1.088.039.007,0a.278.278,0,0,0,.071.06Z" transform="translate(-17.714 -336.216)"/><path class="b" d="M57.107,256.968l-.18,2.762-3.492,2.31-15.27,1.654-1.788,2.476-2.459-.31-1.058,1.146-1.894-1.1-.148,1.912-.832,1.34-1.376-1.252-.176,1.6-1.732-.483.032,1.58-1.369.014-.388,1.619-2.078.392-2.434-1.263.928,2.134-1.1,1.891-2.578,1.118v-6.952l1.15.363,1.732-1.944-1.482-1.245.935-1.347,1.742.586,4.586-1.88.078-1.485,1.88-.268.519-3.743,1.834,1.637,1.164-1.16,2.515-.219,2.861-2.258,2.5.84,2.289-1.573,2.924,2.067,6.332-.028.511-1.418,3.584-1.263Z" transform="translate(-17.714 -173.222)"/><path class="b" d="M698.66,85.64l8.124,5.051a.346.346,0,0,1,.071.072l.06.037.006.075a.339.339,0,0,1,.029.089l.293,3.351a.355.355,0,0,1-.011.122h0a.356.356,0,0,1-.052.114l-5.164,7.238,1.753,3.568,2.866.959,3.6-.315h.031a.365.365,0,0,1,.058.015h.017l.1-.009.055.092.009.015a.34.34,0,0,1,.064.063l1.68,2.836.115.007a.326.326,0,0,1,.064-.017h.022l2.133.132a.352.352,0,0,1,.092.027l.068,0,.036.052a.354.354,0,0,1,.077.07l1.727,2.515,3.018-1.794a.349.349,0,0,1,.084-.024l.041-.025.027.006c.011,0,.02-.008.03-.008a.35.35,0,0,1,.079.009l3.038.687,2.074-2.207c.016-.017.042-.019.061-.032l.034-.037.052-.008c.021-.008.036-.027.059-.031l3.47-.546,2.322-2.894a.352.352,0,0,1,.075-.06l-.683-2.494a.354.354,0,0,1-.011-.125l-.006-.023-.039-.141.136-.058.022-.009a.357.357,0,0,1,.1-.068l2.442-1.019.478-2.476c.005-.027.026-.045.036-.069l.007-.039.021-.111.111-.021.039-.008c.024-.011.041-.031.067-.035l2.12-.413.5-2.1a.349.349,0,0,1,.043-.08v-.006l.021-.091.088-.028.009,0a.345.345,0,0,1,.073-.047l3.991-1.315.878-1.938a.348.348,0,0,1,.052-.068l0-.006.038-.083.09-.014h.007a.364.364,0,0,1,.082-.034l6-.889a.324.324,0,0,1,.052,0c.015,0,.027.011.042.012l.032,0,.123-.017.052.112.02.042c.017.022.042.036.052.062l1.729,3.713,4.183-1.689a.362.362,0,0,1,.112-.026l4.715-.291L761.7,81.808a.349.349,0,0,1,.048-.1l.021-.085.047-.188.18.075.076.032a.347.347,0,0,1,.111.022l2.231.936,2.81-1.126a.327.327,0,0,1,.071-.013l-1.726-9.617-2.822-1.288,5.978-4.948-1.155-2.879-11.915.048-1.268,2.008-3.2.551-.137,2.541-2.615.049-.306-3.5L751,63.086l.953-2.522-1.185-6.308-1.2-.346L748.2,54.932l-.292-2.322-2.685,1.318-2.07-1.985.411-3.558,2.509,1.857,1.249-1.193,2.161,1.977.93-2.79-.55-3.2,1.993-1.98,3.8.029,5.857-5.3-1.68-1.66,3.174.173-.355-3.039-3.348.926-1.175-2.064-4.649-.5,1.6-2.4-2.481-1.5,2.019-1.712-2.995-3.259-7.226,5.148-.128,3.714-1.826,2.869,5.29,1.613-2.667,1.5-8.442-1.519-9.033,7.2-13.656,9.053-3.306,6.608.523,1.85-2.537.945-3.382,3.638,2.881,3,2.266-.92,3.668,1.665L714,72.646l-3.194.64-2.042,1.443-4.821-2.468.51,5.825-4.355,3.9L698.6,85.625A.217.217,0,0,1,698.66,85.64Z" transform="translate(-458.429 -22.757)"/><path class="b" d="M366.449,584.37l.057.3a.346.346,0,0,1,.035.068l.342,1.81,4.423.288,2.4-2.005-.18-3.337-2.836-1.659a.359.359,0,0,1-.073-.069l-.057-.032-.008-.066a.353.353,0,0,1-.035-.091l-.58-4.041a.344.344,0,0,1,.009-.087v0l-.012-.087L370,575.3a.362.362,0,0,1,.052-.079l1.317-1.211c.019-.018.047-.019.069-.032l.027-.024.037,0c.024-.008.042-.027.067-.031l3.651-.429-4.2-7.638-1.99-1.135-3.007,1.7a.355.355,0,0,1-.088.023l-.086.048-.161.092-.073-.173-.027-.063a.363.363,0,0,1-.069-.1l-1.45-3.347-5.459-1.648-2.591.667-3.344,9.206a.359.359,0,0,1-.045.086l-2.377,3.319a.358.358,0,0,1-.074.068l-.048.067-.1.147-.141-.115-.052-.045a.352.352,0,0,1-.1-.056l-2.021-1.7-1.032,2.282a.353.353,0,0,1-.055.068v.006l-.039.085-.094.013a.346.346,0,0,1-.09.036l-3.694.472-2.294,2.094a.351.351,0,0,1-.1.06l-.029.026-.111.1-.113-.1-.017-.015a.354.354,0,0,1-.111-.068l-2.533-2.26a.35.35,0,0,1-.065-.088l-.031-.027v-.04a.345.345,0,0,1-.024-.1l-.128-6.732a.364.364,0,0,1,.018-.118l1.769-5.38-2.886-.6a.354.354,0,0,1-.091-.04l-.056-.012-.027-.049a.349.349,0,0,1-.066-.074l-1.6-2.85c-.012-.021-.006-.047-.013-.07l-.022-.039.006-.048c0-.025-.017-.046-.013-.07l.66-4.371-2.37-1.074c-.024-.01-.036-.033-.057-.048l-.027-.013-.093-.043,0-.1v-.024a.345.345,0,0,1-.027-.078l-.215-4.182-2.021-3.166-1.237,1.041a.357.357,0,0,1-.226.084l-1.805.018h0a.356.356,0,0,1-.1-.02h-.2l-.014-.156,0-.046a.353.353,0,0,1-.03-.1l-.168-1.917a.344.344,0,0,1,.013-.082v-.01l-.008-.091.072-.052a.351.351,0,0,1,.062-.079l1.377-1.055-1.426-1.8-.928,1.232c-.015.02-.042.026-.06.042l-.024.031-.035.011c-.023.013-.038.036-.063.044l-2.471.751-2.231,1.234.354,2.554.794,1.625a.358.358,0,0,1,.03.116l.011.021-.008.022a.354.354,0,0,1-.017.117l-1.045,2.959,1.47,1.947a.353.353,0,0,1,.066.154l.532,3.03a.352.352,0,0,1-.008.077l0,.02-.008.02a.352.352,0,0,1-.009.081l-1.665,4.044a.348.348,0,0,1-.052.066l-.006.013-.012.008a.361.361,0,0,1-.05.064l-3.169,2.353,1.394,1.96a.326.326,0,0,1,.025.074l.02.028.065.09-.058.094-.017.027a.326.326,0,0,1-.021.079l-1.215,2,.985,2.472,2.893.65a.325.325,0,0,1,.083.043h.006l.1.021.03.093,0,.012a.333.333,0,0,1,.046.073l.524,1.7a.345.345,0,0,1,.006.1l.024.077-.052.064a.351.351,0,0,1-.04.089l-1.886,2.388.016,1.561,1.3.234a.341.341,0,0,1,.083.038h0l.088.015.037.083h0a.346.346,0,0,1,.057.074l.784,1.809a.327.327,0,0,1,.011.081l.011.025.042.093-.068.08-.016.019a.345.345,0,0,1-.033.074l-1.393,1.658-.42,2.256a.343.343,0,0,1-.04.093l-.022.117-.039.216-.2-.093-.114-.052a.332.332,0,0,1-.093-.021l-2.914-1.4c-.022-.01-.033-.034-.052-.048l-.031-.016-.018-.03c-.017-.019-.042-.029-.055-.052l-1.665-2.93-2.629,1.5-.16,2.593a.335.335,0,0,1-.027.071v.03l-.02.024a.368.368,0,0,1-.026.071l-5.477,7.115.512,2.909c0,.024-.009.044-.009.067l.01.057.021.121-.109.057-.047.025c-.019.016-.028.041-.052.052l-1.326.693a.348.348,0,0,1-.09.023l-.063.033-.142.075-.08-.139-.04-.07a.372.372,0,0,1-.06-.06L303.39,591.2l-1.361,2.142a.355.355,0,0,1-.072.072l-.031.048-.052.006a.352.352,0,0,1-.1.036l-6.2.809-2.088,4.8,3.148,4.107a.359.359,0,0,1,.052.1l.016.022,0,.028a.348.348,0,0,1,.007.111l-.305,2.32c0,.027-.024.047-.033.072l-.005.04-.015.116-.112.026-.044.01c-.022.011-.038.031-.063.037l-2.622.612-1.311,3.156.167,8.019a.352.352,0,0,1-.02.11v.064l0,.173-.173,0h-.059a.359.359,0,0,1-.11.022h0l-2.527-.032-1.813,1.048.137,1.569,4.873,3.652a.341.341,0,0,1,.052.068l0,0,.132.076a.331.331,0,0,1,.089.024l7.106,4.084,2.614-.4a.318.318,0,0,1,.052,0c.013,0,.023.01.035.012l.052-.008.142-.019.043.136.022.067c.013.022.036.036.044.06l.1.322a.348.348,0,0,1,.063-.019l1.693-.109,2.83-2.417a.354.354,0,0,1,.1-.061l.035-.03.125-.109.109.125.044.052a.337.337,0,0,1,.082.06l2.128,2.425,6.48,4.264,2.872-.251h.031a.344.344,0,0,1,.068.014l.065-.006.039.042a.359.359,0,0,1,.089.063l2.455,2.633a.333.333,0,0,1,.037.071l.013.014,0,.017a.339.339,0,0,1,.036.07l.447,2.174,3.106.328a.322.322,0,0,1,.068.028l.036,0,.1.012.034.1.01.029c.014.023.038.039.046.066l.516,1.5,2.654-1.149.384-1.93-2.867.251-.1.009-.052-.093-.761-1.317-.076-.129.123-.089,1.3-.946.027-.02.032-.007,1.86-.434L333,631.2l1.172-2.2.01-.019.015-.017,2.582-2.777.461-1.934,0-.018.008-.015,1.4-2.982,0-.007,1.733-3.27,1.315-4.891.961-3.917-.137-.256a.359.359,0,0,1-.06-.064l-1.434-2.7a.355.355,0,0,1-.041-.173l.052-3.342a.355.355,0,0,1,.025-.075v-.027l.017-.025a.368.368,0,0,1,.024-.074l1.545-2.2-2.19-1.538a.356.356,0,0,1-.14-.2l-.468-1.737a.345.345,0,0,1-.007-.111l-.018-.067-.046-.171.174-.037.071-.015a.353.353,0,0,1,.1-.042l3.413-.735.235-1.949a.347.347,0,0,1,.037-.107l.01-.08.022-.19.186.047.082.021c.007,0,.012-.006.018-.006a.344.344,0,0,1,.089.012l1.81.468,3.283-1.423.663-2.059a.343.343,0,0,1,.052-.094l.024-.073.057-.174.168.072.058.025a.369.369,0,0,1,.121.025l1.636.7,1.627-.143h.031a.344.344,0,0,1,.06.013l.079-.007.044.052a.357.357,0,0,1,.085.063l1.3,1.485,7-2.561.5-2.986a.347.347,0,0,1,.042-.115l.005-.03.026-.15.15.01.043,0a.354.354,0,0,1,.087-.015h.024l1.294.085,1.4-1.89a.357.357,0,0,1,.072-.06l.174-.234.228-.305Z" transform="translate(-192.441 -358.839)"/><path class="b" d="M168.337,745.819l.018.017a.356.356,0,0,1,.1.067l1.272,1.218,1.9-.87,1.412-.868,2.232-2.658-.673-1.445a.342.342,0,0,1-.011-.078l-.012-.025,0-.027a.352.352,0,0,1-.011-.076l.278-1.746-.769-2.228a.363.363,0,0,1-.011-.1l-.023-.065.041-.064a.344.344,0,0,1,.031-.085l1.4-2.148.616-2.574-2.37-.61a.349.349,0,0,1-.09-.047l-.069-.017-.029-.072a.357.357,0,0,1-.055-.078l-.52-1.305a.364.364,0,0,1-.014-.1l-.028-.072.042-.067a.35.35,0,0,1,.03-.089l1.626-2.562-1.2-2.317c-.012-.023-.006-.049-.012-.073l-.018-.034.005-.038c0-.024-.015-.045-.012-.069l.26-1.859a.344.344,0,0,1,.037-.1l.008-.063.056-.033a.335.335,0,0,1,.073-.068l.993-.578a.357.357,0,0,1,.082-.023l.122-.071a.346.346,0,0,1,.088-.076l1.064-.62,1.125-1.339-3.06-4.854a.358.358,0,0,1-.052-.235l.214-1.721-2.649,1.422a.355.355,0,0,1-.092.023l-.047.026-.024-.008h-.006a.365.365,0,0,1-.115-.019l-3.782-1.284L163.54,714l-1.4,1.977a.345.345,0,0,1-.077.07l-.031.045-.057.005a.355.355,0,0,1-.1.03l-4.27.353.936,11.721,1.377-.3a.377.377,0,0,1,.076-.008c.009,0,.017.007.026.008l.068-.015.164-.035.035.166.013.057a.357.357,0,0,1,.044.1l.462,2.152,2.393,2.142a.353.353,0,0,1,.086.117l.9,1.953,2.029,1.2a.344.344,0,0,1,.085.078l.059.035.156.093-.1.148-.044.063a.349.349,0,0,1-.042.1l-1.281,1.816,1.3,1.209a.341.341,0,0,1,.052.08l.064.059-.014.088h0a.338.338,0,0,1,.008.09l-.364,2.3a.354.354,0,0,1-.04.113v.015l-.01.008a.361.361,0,0,1-.082.093l-1.43,1.1.111,2.795,3.562-.206h.021a.339.339,0,0,1,.091.018Z" transform="translate(-108.266 -469.455)"/><path class="b" d="M523.81,781.125l-2.518-1.933a.348.348,0,0,1-.052-.068l-.185-.142-.252-.192.3-.1.223-.073a.348.348,0,0,1,.07-.047l1.341-.44.185-1.882-2.929-1.493-.025-.011-.027.006-2.26.662-.875,2.706a.357.357,0,0,1-.052.084l-.043.134-.073.226-.188-.145-.136-.1c-.021-.011-.045-.007-.064-.022l-1.123-.86-1.077,2.858a.349.349,0,0,1-.052.076v0l-.034.087-.089.02h-.01a.359.359,0,0,1-.074.036l-4.574.969-.628,2.156,5.917,3.018Z" transform="translate(-335.443 -509.493)"/><path class="b" d="M204.106,761.019l.008-.021.019-.009a.351.351,0,0,1,.095-.07l2.192-1.049.566-1.607-.146-1.665a.347.347,0,0,1,.015-.082V756.5l-.009-.1.084-.052.011-.007a.339.339,0,0,1,.062-.07l1.96-1.274-.3-1.795-1.122-2.592a.393.393,0,0,1-.017-.052l-.662-2.467-2.137-2.732a.368.368,0,0,1-.035-.081l0,0-.058-.072.031-.087v-.007a.336.336,0,0,1,.008-.088l.643-1.789-1.537-.8-2.449.507-.041.006-2.579.226h-.031c-.019,0-.034-.013-.052-.015l-.036,0-.12.01-.049-.11-.018-.04c-.016-.022-.041-.036-.052-.061l-1.66-3.778-.962.561-.26,1.84,1.2,2.325a.334.334,0,0,1,.018.081l.007.015.044.086-.052.081-.007.011a.358.358,0,0,1-.026.083l-1.626,2.561.511,1.283,2.382.615a.351.351,0,0,1,.1.048l.052.014.159.041-.038.156-.011.045a.357.357,0,0,1,0,.122l-.62,2.594a.354.354,0,0,1-.048.112l-1.4,2.144.767,2.225a.359.359,0,0,1,.015.172l-.277,1.744.676,1.451a.333.333,0,0,1,.013.083l.012.025.046.1-.069.082-.021.025a.351.351,0,0,1-.031.07l-2.246,2.677a.361.361,0,0,1-.087.075l-1.4.859a.361.361,0,0,1-.038.02l-1.925.884a.023.023,0,0,0-.013,0l-.436,3.181,2.152,2.316,2.019-1.846a.36.36,0,0,1,.1-.065l.136-.124.224-.206.021.12a.01.01,0,0,0,.008,0l4.342-.663.858-3.024c.007-.024.028-.037.039-.058l.016-.057.034-.119h.182c.024-.005.043-.024.069-.024l1.714-.019v-.009l1.03-2.777A.369.369,0,0,1,204.106,761.019Z" transform="translate(-129.937 -486.474)"/><path class="b" d="M537.362,189.855l-2.81.017-.642,1.348-1.509.132-.093,1.529-1.818.083,1.255,2.17,6.792-.52,1.645-3.792-1.527-2.678Z" transform="translate(-349.617 -129.806)"/><path class="b" d="M25.665,395.463l-.1.1.078.113.011.014a.33.33,0,0,0,.053.113l1.3,1.9-.963,2.123a.448.448,0,0,0-.088-.032l-1.2-.109h-.035a.327.327,0,0,0-.056.014h-.021l-.109-.007-.053.1-.014.025c-.018.021-.046.035-.06.06L23.788,401l-1.354.12a.318.318,0,0,0-.113.032h-.014l-.011.011a.371.371,0,0,0-.1.07l-1.668,1.845-2.2-.318a.266.266,0,0,0-.053,0,.174.174,0,0,0-.046.011h-.007l-.1-.014-.06.081-.007.007a.4.4,0,0,0-.071.064l-.279.384V386.306l3.062-.268,4.906,4.448,1.975,2.984-.053.032-1.855,1.845a.361.361,0,0,0-.074.106Z" transform="translate(-17.714 -257.897)"/><path class="b" d="M372,720.863l.007-.039.033-.021a.352.352,0,0,1,.078-.077l2.085-1.335-2.52-2.308a.351.351,0,0,1-.067-.093l-.048-.044-.131-.121.127-.122.046-.045a.357.357,0,0,1,.066-.1l2.071-2-1.041-2.4a.358.358,0,0,1-.017-.1l-.054-.127-.093-.213.232-.02.149-.013a.349.349,0,0,1,.081-.027l4.278-.374,2.514-2.5a.354.354,0,0,1,.1-.064l.026-.025h.044a.328.328,0,0,1,.085-.016h.017l2.433.116,4.054-6.478a.358.358,0,0,1,.074-.076l.025-.042.052-.009a.346.346,0,0,1,.093-.037l2.862-.474.739-1.475c.011-.021.035-.031.052-.052l.019-.035.032-.017c.02-.017.031-.043.054-.055l2.4-1.236,1.721-2.55v-2.555l-2.06-1.126a.338.338,0,0,1-.067-.063h0l-.078-.044-.008-.089h0a.359.359,0,0,1-.03-.086l-.2-2.3a.346.346,0,0,1,.014-.1l-.006-.069.052-.045a.345.345,0,0,1,.058-.084l4.066-3.7,1.18-3.544a.349.349,0,0,1,.059-.1l.01-.03.031-.014a.354.354,0,0,1,.092-.067l3.675-1.669-.488-3.051-2.56-1.936-2.587-.221a.346.346,0,0,1-.076-.028h-.02l-.1-.009-.042-.093-.008-.018a.349.349,0,0,1-.052-.064L392.77,668.8l-1.365-1.046a.352.352,0,0,1-.087-.1l-.015-.012-.117-.09.075-.126.011-.019a.359.359,0,0,1,.042-.119l1.1-1.9c.007-.012.02-.017.028-.027a.336.336,0,0,1-.022-.059l-.336-1.777-1.381,1.858a.362.362,0,0,1-.072.061h0l-.055.073-.091-.005h0a.32.32,0,0,1-.065.016h-.023l-1.287-.083-.5,2.978a.346.346,0,0,1-.04.087v.007l-.014.1-.093.033-.013,0a.355.355,0,0,1-.07.049l-7.028,2.572a.358.358,0,0,1-.123.022h0l-.1.037-.076-.087-.005-.006a.346.346,0,0,1-.088-.065l-1.309-1.492-1.623.142H378a.36.36,0,0,1-.139-.028l-1.613-.686-.657,2.044a.352.352,0,0,1-.052.093l-.014.044-.042.017a.348.348,0,0,1-.088.063l-3.3,1.429a.36.36,0,0,1-.108.023l-.007,0h0c-.008,0-.015,0-.024,0a.344.344,0,0,1-.089-.012l-1.794-.462-.234,1.94c0,.027-.023.045-.032.069l-.006.047-.015.12-.116.024-.048.011c-.022.01-.038.03-.063.036l-3.407.732.458,1.708,2.2,1.548a.359.359,0,0,1,.078.082l.046.032.136.1-.1.136-.028.04a.354.354,0,0,1-.048.109l-1.554,2.21-.052,3.334,1.419,2.665.134-.542.33-4.624V682.1l.013-.028,1.005-2.208.048-.1h.109l1.572.048.127,0,.03.124.429,1.717.006.029v.025l-.37,4.163.621,3.967.824,2.121.022.052-.016.052-.639,2.177-.011.036-.027.03-1.159,1.281-.346.775.56,1.357.022.052-.019.059-.43,1.421-.024.082-.08.028-1.315.453.049,1.533v.041l-.018.038-1.491,2.989-.029.057-.058.025-2.531,1.033-1.5,2.485-.049.081h-2.062l-.26,3.008-.005.047-.028.038-1.32,1.776-.023.029-.032.016-4.506,2.484-.011.052a.346.346,0,0,1,0,.1l-.387,1.946a.355.355,0,0,1-.041.089l-.017.08-.077.035a.352.352,0,0,1-.073.055l-2.686,1.164a.343.343,0,0,1-.1.022l-.07.03-.167.071-.058-.17-.026-.074a.349.349,0,0,1-.052-.091l-.52-1.507-3.107-.327c-.025,0-.04-.021-.064-.028l-.055-.006-.123-.013-.024-.121-.011-.052c-.01-.022-.031-.038-.036-.063l-.449-2.185-2.445-2.62-2.872.251h-.031c-.018,0-.034-.013-.052-.015l-.032,0-.033-.023a.346.346,0,0,1-.079-.023l-6.485-4.267a.356.356,0,0,1-.072-.063l-2.116-2.412-2.827,2.414c-.019.016-.046.016-.068.028l-.03.027h-.041c-.025.007-.044.027-.07.028l-1.67.1.085.26a.346.346,0,0,1,.006.1h0l.029.087-.059.071-.005.006a.348.348,0,0,1-.037.078l-.791.944.431,1.249a.35.35,0,0,1,.009.1l.027.078-.052.069a.339.339,0,0,1-.036.086l-1.108,1.5,1.347,2.13c.005.008.006.017.011.026l7.84,2.389,7.132,1,1.919,5.432,5.343,2.241,3.577-.4,4.844-3.494,4.052.91,4.1-.631,1.24,1.787,2.375-.1a.341.341,0,0,1,0-.08l.5-2.8A.471.471,0,0,1,372,720.863Z" transform="translate(-218.351 -437.505)"/><path class="b" d="M55.873,710.583l.028-.02.083-.058.09.045.014.007a.339.339,0,0,1,.085.021l1.37.7.708-.594a.355.355,0,0,1,.111-.063l.047-.04.063.021h.008a.368.368,0,0,1,.112.017l1.873.617,8.5-3.782a.342.342,0,0,1,.107-.023l.013-.006.111-.052.081.092.01.011a.353.353,0,0,1,.089.064l2.393,2.671a.355.355,0,0,1,.073.125l.61,1.83L75.1,714.3l2.94-3.406a.347.347,0,0,1,.084-.062l.03-.034.095-.112.122.081.061.04a.336.336,0,0,1,.074.022l1.148.75.974-.9a.36.36,0,0,1,.1-.067l.006-.005h.01a.358.358,0,0,1,.12-.023h0l3.8.03,1.79-1.94a.366.366,0,0,1-.027-.088l-.936-11.747-1.509.132-1.9,1.89a.35.35,0,0,1-.1.063l-.044.043-.123.123-.117-.128-.043-.047a.359.359,0,0,1-.092-.066l-.878-.955a.354.354,0,0,1-.068-.108h0v0a.349.349,0,0,1-.025-.118l-.121-4.428-6.342.377h-.021a.36.36,0,0,1-.074-.019h0l-.1,0-.052-.079,0-.007a.336.336,0,0,1-.067-.061l-1.291-1.955-3.194.364h-.041c-.017,0-.03-.012-.046-.014l-.047.005-.131.016-.045-.125L69,691.7c-.014-.021-.037-.034-.046-.059l-.806-2.206-2.335-2.549L54.1,682.513l.308,3.521a.339.339,0,0,1-.015.088v.01l.008.094-.078.056-.008.005a.342.342,0,0,1-.058.069l-1.925,1.363.747,2.1a.364.364,0,0,1,.011.1l.046.129.079.219-.232,0-.146,0a.341.341,0,0,1-.086.023l-2.539.052-2.054,1.084L47.1,693.771l.838,6.413a.356.356,0,0,1-.014.156L46.782,703.9l4.623-.3-1.71,2.137,4.432,6.061,1.681-1.2C55.825,710.59,55.85,710.593,55.873,710.583Z" transform="translate(-36.529 -449.796)"/><path class="b" d="M248.987,788.564l-1.36-2.149a.322.322,0,0,1-.02-.074l-.022-.034-.062-.1.068-.091.025-.033a.315.315,0,0,1,.026-.073l1.11-1.5-.431-1.249a.343.343,0,0,1-.007-.091l0-.009-.031-.09.061-.071.006-.007a.353.353,0,0,1,.038-.08l.79-.942-.091-.28a.355.355,0,0,1-.009-.1l-.052-.168c-.013-.021-.035-.034-.043-.058l-.1-.307-2.6.4a.151.151,0,0,1-.1-.008l-.019,0-.025-.015a.345.345,0,0,1-.09-.024l-7.082-4.071-.221,1.74c0,.025-.023.041-.031.065l-.007.052-.015.124-.121.021-.055.01c-.022.009-.038.029-.063.033l-8.012,1.42-.312,2.1a.346.346,0,0,1-.037.083V783l-.014.1-.095.034-.016.006a.346.346,0,0,1-.069.049l-1.452.52.274,1.368a.347.347,0,0,1-.007.081l0,.025.021.1-.082.064-.019.014a.334.334,0,0,1-.052.068l-2,1.541.039,1.341c0,.025-.016.044-.02.068v.058l0,.124-.12.039-.056.018c-.02.011-.032.033-.052.041l-1.361.448-2.464,2.448a.353.353,0,0,1-.1.067l-.019.019H222.4a.365.365,0,0,1-.1.019h-.015l-6.272-.267a.36.36,0,0,1-.164-.048l-4-2.322a.352.352,0,0,1-.076-.065c-.023,0-.041.021-.065.021l-1.709.019-.857,3.021c-.007.026-.029.043-.041.066l-.009.031-.031.1-.1.018-.032,0a.325.325,0,0,1-.071.033l-4.355.665.005.028a.333.333,0,0,1,.036.075l.531,2.942,3.015,4.411a.353.353,0,0,1,.046.1l.022.032.086.127-.118.1-.026.021a.357.357,0,0,1-.078.094l-1.628,1.353.684,2.885,11.135-5.336,4.1-.629.811,1.011,6.3.8.692,2.74,2.432.96,6.6.145,2.631.131,1.453,1.138,2-.9,1.74-1.779,1.054-3.434-2.474-2.492-.093-4.146,1.4-.573-.075-1.89,1.873-.253.345-2.037C248.994,788.572,248.99,788.569,248.987,788.564Z" transform="translate(-138.617 -511.176)"/><path class="b" d="M95.709,782.312l-.527-1.626-1.617-.64a.346.346,0,0,1-.092-.062l-.083-.033-.184-.072.1-.17.052-.086a.349.349,0,0,1,.031-.093l.929-1.545c.013-.021.038-.03.054-.048l.019-.031.033-.015c.021-.015.033-.04.057-.052l2.543-1.1a.354.354,0,0,1,.142-.029h0l3.185.009L101.841,774l-.006-1.457a.333.333,0,0,1,.023-.083v-.539l.26.171.2.128a.352.352,0,0,1,.077.023l1.915,1.252,2.008-.588a.357.357,0,0,1-.024-.1l-.112-2.828a.341.341,0,0,1,.019-.094l0-.081.064-.048a.336.336,0,0,1,.06-.075l1.433-1.1.364-2.28-1.3-1.216a.353.353,0,0,1-.075-.1l-.017-.016-.1-.1.084-.118.012-.017a.352.352,0,0,1,.052-.116l1.279-1.811-2.012-1.186c-.022-.013-.032-.039-.052-.057l-.029-.016-.014-.03c-.015-.02-.039-.032-.05-.052l-.9-1.957L102.6,757.37c-.018-.016-.021-.042-.035-.061l-.032-.028-.009-.042c-.009-.021-.029-.036-.034-.059l-.46-2.139-1.38.3a.349.349,0,0,1-.077.008c-.01,0-.018-.008-.028-.01l-.013,0c-.006.012-.013.024-.021.035l-1.788,1.936a.348.348,0,0,1-.086.061l-.031.032h-.04a.354.354,0,0,1-.1.022h0l-3.8-.029-.981.9a.357.357,0,0,1-.1.064l-.009.008-.1.088-.108-.07-.048-.032a.347.347,0,0,1-.073-.022l-1.145-.748L89.149,761a.351.351,0,0,1-.085.064l-.038.044-.1.123-.125-.1-.028-.023a.356.356,0,0,1-.112-.061l-2.666-2.157c-.021-.017-.029-.045-.045-.066l-.018-.014-.007-.021c-.013-.022-.037-.039-.045-.065l-.608-1.83-2.381-2.657-8.495,3.776a.35.35,0,0,1-.1.021l-.027.012-.012,0h-.007a.361.361,0,0,1-.112-.018l-1.868-.615-.71.6a.357.357,0,0,1-.112.063l-.073.061-.1-.052-.015-.008a.344.344,0,0,1-.094-.023l-1.377-.7-1.672,1.188c-.017.012-.038.009-.055.018l6.146,20.4,2.3-.562,1.409-2.471,1.578.493.66,2.381,5.163,2.259,3.728-1.772,2.14.716L92.92,782.9a.333.333,0,0,1,.057-.024Z" transform="translate(-50.302 -496.216)"/><path class="b" d="M33.15,662.147l.744,2.1-2.511.053a.326.326,0,0,0-.155.039l-2.07,1.083c-.018.01-.028.032-.046.046l-.046.028-.021.046c-.014.021-.039.028-.046.049l-1.058,2.349a.3.3,0,0,0-.014.081l0,.014v.011a.255.255,0,0,0-.014.088l.836,6.416-1.15,3.566a.432.432,0,0,0-.007.1l-.025.078-3.8,1.041-1.242,1.28-1.58.5-1.88-.829-1.347.543v-1.944l1.129-1.111L17.714,676.7V642.93l.088-.1,1.658,1.393-.769,1.319a.635.635,0,0,0-.025.088l-.085.148-.131.226.257.025.173.014a.206.206,0,0,0,.088.032l1.213.12,3.372,1.989a.547.547,0,0,0,.081.025l.046.025.028-.007c.011,0,.018.011.025.011a.347.347,0,0,0,.085-.011l2.353-.564,2.353,1.058a.344.344,0,0,0,.145.032h.018l2.243-.1c.025,0,.042-.021.067-.028h.042l.035-.025c.021-.014.046-.011.067-.028l2.78-2.289.247,1.182L32.8,649.47a.4.4,0,0,0-.053.12l-.011.018-.085.12.109.1.025.021a.3.3,0,0,0,.071.092l1.566,1.39.448,5.136a.276.276,0,0,0,.032.074l.018.2a.389.389,0,0,0-.018.088l.314,3.545-1.929,1.365c-.021.014-.028.039-.046.06l-.046.032-.1.071.042.12.018.053A.237.237,0,0,0,33.15,662.147Z" transform="translate(-17.714 -424.109)"/><path class="b" d="M991.739,638.568l-.567-1.686-1.313.052.239,1.357-.825.851-1.461,1.806.469,3.978.757,3.171.624.244.076-1.866.144-2.47-.052-1.972,1.093-1.894Z" transform="translate(-645.627 -420.26)"/><path class="b" d="M971.908,490.66l.509-1.714-.848-1.156-1.4,1.089.312,1.028Z" transform="translate(-634.208 -323.758)"/><path class="b" d="M983.825,677.172l-.9-.469-1.261.734-.671.631.823,1.984v2.654l.771,1.7.621-.341-.15-4.672.719-1Z" transform="translate(-641.215 -446.036)"/><path class="b" d="M981.536,496.659l1.419-.828-.662-4.068-1.271-.989-1.3-.238.015,4.169Z" transform="translate(-640.393 -325.535)"/><path class="b" d="M998.625,681.519l1.273-.579-.406-1.37-.81-.945-.66.761.075,1.166Z" transform="translate(-652.236 -447.279)"/><path class="b" d="M33.725,626.15a.013.013,0,0,1-.011,0l-2.8,2.31-2.233.1-2.349-1.058a.47.47,0,0,0-.1-.021l-.011,0h-.007a.083.083,0,0,0-.028-.007.3.3,0,0,0-.081.01l-2.356.561-3.369-1.99a.368.368,0,0,0-.148-.046L19.04,625.9l.762-1.305a.347.347,0,0,0,.042-.12l.011-.014.071-.123-.109-.088-.014-.01a.371.371,0,0,0-.081-.1l-1.69-1.418a.386.386,0,0,0-.106-.06l-.035-.032-.127-.1-.049.057V612.228c.014.007.028.01.046.018L21,613.258a.308.308,0,0,0,.056.011l1.517.219,2.289,4.12,3.048,4.882a.393.393,0,0,0,.113.116Z" transform="translate(-17.714 -404.303)"/><path class="b" d="M1002.307,580.034l-.972,1.223,1.031,2.19,2.441-.874-1.036-2.247Z" transform="translate(-654.38 -383.464)"/><path class="b" d="M1000.826,608.728,999.6,607.1l-1.137,1.359.286,2.612.3,2.732.169,1.245,1.31-.115.8-3.189Z" transform="translate(-652.522 -400.981)"/><path class="b" d="M982.1,482.378l-.559.621-.13,1.021,1.53.435.709-.941Z" transform="translate(-641.485 -320.255)"/><path class="b" d="M142.5,821.318l.356,3.039,2.923.375,1.29,1.333,3.078-1.985.823,2.185,2.327,2.866,3.259.076.8-2.237,4.287-.555,2.667-2.371-.007-.028a.357.357,0,0,1-.044-.091l-.687-2.9a.347.347,0,0,1,0-.079l-.007-.028-.023-.1.08-.067.02-.017a.348.348,0,0,1,.045-.066l1.622-1.348-3.009-4.4a.354.354,0,0,1-.057-.139l-.52-2.9-2.006,1.832a.345.345,0,0,1-.1.059l-.041.037-.124.112-.112-.122-.042-.046a.358.358,0,0,1-.086-.061l-2.173-2.341a.344.344,0,0,1-.052-.086l-.041-.047.008-.06a.364.364,0,0,1-.008-.1l.439-3.2h0a.084.084,0,0,1-.011-.007l-1.275-1.221-3.577.2h-.006v.027l-.125.036-.01,0a.353.353,0,0,1-.109.052l-2.016.59a.359.359,0,0,1-.1.014s-.007,0-.012,0l-.041.013-.066-.043h0a.347.347,0,0,1-.073-.022l-1.888-1.233.005,1.42a.357.357,0,0,1-.044.173l-1.5,2.738c-.013.025-.039.039-.057.059l-.009.016-.048.088h-.111a.329.329,0,0,1-.088.024h0l-3.191-.01-2.535,1.1-.91,1.514,1.6.634a.358.358,0,0,1,.086.059l.052.021.02.059a.354.354,0,0,1,.05.083l.54,1.66a.352.352,0,0,1,.012.108l.025.077.057.177-.183.04-.084.017a.353.353,0,0,1-.094.041l-2.758.566.579,3.033Z" transform="translate(-96.16 -529.896)"/><path class="b" d="M754.715,731.272l5.834-3.489.585-2.581,4.126-5.508,2.368-1.348.416-2.672-6.465,2.832a.349.349,0,0,1-.1.022l-.073.034-.075-.052-.019-.013a.34.34,0,0,1-.071-.022l-2.427-1.633-5.1.358-2.185,2.47a.348.348,0,0,1-.082.061l-.048.052-.011.022a.326.326,0,0,1-.014.072l-2.774,5.151,3.036,3.982Z" transform="translate(-490.788 -471.259)"/><path class="b" d="M997.463,549.759l-.593,1.429,1.206,1.453,1.2-1.361-.97-1.476Z" transform="translate(-651.489 -363.868)"/><path class="b" d="M988.315,517.573l.832,1.464,1.84-1.04.174-1.024-2.762-.945Z" transform="translate(-645.952 -342.035)"/><path class="b" d="M1000.79,568.865l.817,1.128.979-.445.073-1.925-1.336-.182Z" transform="translate(-654.027 -375.313)"/><path class="b" d="M18.977,372.871l-1.263.247v-5.587l.155-.053.974,2.66Z" transform="translate(-17.714 -245.884)"/><g transform="translate(272.978 208.447)"><path class="d" d="M773.9,597.55c7.271-1.245,11.093,4.083,10.827,9.764" transform="translate(-773.895 -597.367)"/><g transform="translate(8.095 8.597)"><path class="e" d="M796.845,621.74l1.87,5.307,3.662-4.272Z" transform="translate(-796.845 -621.74)"/></g></g><g transform="translate(28.181 229.964)"><path class="d" d="M79.894,720.068C132.1,683.29,193.041,653.189,316.553,663" transform="translate(-79.894 -660.15)"/><g transform="translate(235.622)"><path class="e" d="M747.884,663.979l5.074-2.433-4.644-3.178Z" transform="translate(-747.884 -658.368)"/></g></g><g transform="translate(229.228 154.832)"><path class="d" d="M649.862,445.37c3.167,26.936,9.478,50.042,37.393,70.153" transform="translate(-649.862 -445.37)"/><g transform="translate(35.113 67.361)"><path class="e" d="M749.408,640.943l5.6.5-2.37-5.1Z" transform="translate(-749.408 -636.338)"/></g></g><g transform="translate(265.894 35.24)"><path class="d" d="M753.812,109.532c104.013-31.561,140.024,179.944,29.83,191.878" transform="translate(-753.812 -106.325)"/><g transform="translate(25.795 192.179)"><path class="e" d="M831.534,651.153,826.94,654.4l5.111,2.354Z" transform="translate(-826.94 -651.153)"/></g></g><g class="f" transform="translate(270.386 224.024)"><circle class="g" cx="10.165" cy="10.165" r="10.165"/></g><g transform="translate(274.479 228.117)"><circle class="g" cx="6.072" cy="6.072" r="6.072"/></g><g transform="translate(266.677 207.571)"><circle class="g" cx="3.709" cy="3.709" r="3.709"/></g><g transform="translate(224.846 148.134)"><circle class="g" cx="3.709" cy="3.709" r="3.709"/></g><g transform="translate(256.883 182.89)"><path class="e" d="M730.442,543.555h73.736a2.178,2.178,0,0,0,2.178-2.178V527.091a2.178,2.178,0,0,0-2.178-2.178H730.442a2.178,2.178,0,0,0-2.178,2.178v14.285A2.178,2.178,0,0,0,730.442,543.555Z" transform="translate(-728.264 -524.913)"/><g transform="translate(5.532 5.663)"><path class="h" d="M749.671,548.5l-.442-1.218h-3.083l-.453,1.218h-1.746l2.781-7.191h1.919l2.771,7.191Zm-1.984-5.66-1.122,3.094h2.243Z" transform="translate(-743.947 -541.187)"/><path class="h" d="M768.241,547.267c.722,0,1.143-.388,1.369-2.286l.421-3.676h5.11V548.5H773.6v-5.843h-2.188l-.28,2.436c-.345,2.986-1.423,3.536-2.889,3.536Z" transform="translate(-759.672 -541.187)"/><path class="h" d="M799.5,541.3v1.348h-3.719v1.272h1.865a2.288,2.288,0,1,1,0,4.571h-3.4V541.3Zm-3.719,3.967v1.876h1.66a.942.942,0,1,0,0-1.876Z" transform="translate(-776.505 -541.186)"/><path class="h" d="M819.317,548.5l-.442-1.218h-3.083l-.453,1.218h-1.746l2.781-7.191h1.919l2.771,7.191Zm-1.983-5.66-1.121,3.094h2.243Z" transform="translate(-789.026 -541.187)"/><path class="h" d="M837.705,547.274l.8-1.024a3.154,3.154,0,0,0,2.1.819c.949,0,1.5-.377,1.5-.916,0-.571-.507-.83-1.585-.83h-1.456v-1.348h1.456c.852,0,1.466-.237,1.466-.765,0-.571-.647-.852-1.466-.852a2.882,2.882,0,0,0-1.952.744l-.766-.96A3.816,3.816,0,0,1,840.67,541c1.682,0,2.846.755,2.846,1.951a1.763,1.763,0,0,1-1.563,1.639,1.8,1.8,0,0,1,1.671,1.725c0,1.24-1.24,2.113-2.954,2.113A3.9,3.9,0,0,1,837.705,547.274Z" transform="translate(-804.633 -540.989)"/><path class="h" d="M860.2,548.5v-7.191h1.531v4.646l3.331-4.646h1.574V548.5H865.1v-4.819l-3.428,4.819Z" transform="translate(-819.192 -541.187)"/><path class="h" d="M889.848,548.5v-3.018h-3.4V548.5h-1.531v-7.191h1.531v2.825h3.4v-2.825h1.542V548.5Z" transform="translate(-835.195 -541.187)"/><path class="h" d="M908.727,544.688a3.757,3.757,0,1,1,3.751,3.719A3.61,3.61,0,0,1,908.727,544.688Zm5.94,0a2.19,2.19,0,1,0-2.188,2.361A2.183,2.183,0,0,0,914.667,544.688Z" transform="translate(-850.604 -540.969)"/></g></g><g transform="translate(219.202 122.753)"><path class="e" d="M623.214,373.067H736.358a1.774,1.774,0,0,0,1.774-1.774V356.2a1.774,1.774,0,0,0-1.774-1.774H623.214a1.774,1.774,0,0,0-1.774,1.774v15.094A1.774,1.774,0,0,0,623.214,373.067Z" transform="translate(-621.439 -354.425)"/><g transform="translate(7.255 5.664)"><path class="h" d="M646.936,378.01v-3.019h-3.4v3.019h-1.531v-7.191h1.531v2.825h3.4v-2.825h1.541v7.191Z" transform="translate(-642.008 -370.701)"/><path class="h" d="M666.794,378.01v-7.191h5.088v1.348h-3.558v1.52h3.482v1.347h-3.482v1.628h3.558v1.348h-5.088Z" transform="translate(-658.051 -370.701)"/><path class="h" d="M685.038,378.01l3.04-3.816-2.857-3.374h1.887l2.286,2.889v-2.889h1.542v2.889l2.275-2.889h1.9l-2.857,3.374,3.04,3.816h-1.876l-2.178-2.878-.3.366v2.512h-1.542V375.5l-.3-.366-2.178,2.878Z" transform="translate(-669.86 -370.701)"/><path class="h" d="M717.341,376.78c.733-.1,1.143-.388,1.369-2.286l.421-3.676h5.11v5.843h.647v2.674h-1.531v-1.326h-4.485v1.326h-1.531Zm2.016-.118H722.7v-4.5h-2.188l-.28,2.436A3.192,3.192,0,0,1,719.357,376.662Z" transform="translate(-690.769 -370.7)"/><path class="h" d="M747.268,378.01l-.442-1.218h-3.083l-.453,1.218h-1.746l2.781-7.191h1.919l2.771,7.191Zm-1.984-5.66-1.121,3.094h2.242Z" transform="translate(-706.434 -370.701)"/><path class="h" d="M771.989,378.01v-3.019h-3.4v3.019h-1.531v-7.191h1.531v2.825h3.4v-2.825h1.542v7.191Z" transform="translate(-722.952 -370.701)"/><path class="h" d="M791.847,378.01v-7.191h1.531v4.646l3.331-4.646h1.574v7.191h-1.531v-4.819l-3.428,4.819Z" transform="translate(-738.994 -370.701)"/><path class="h" d="M821.5,378.01v-3.019h-3.4v3.019H816.57v-7.191H818.1v2.825h3.4v-2.825h1.541v7.191Z" transform="translate(-754.997 -370.701)"/><path class="h" d="M840.376,374.2a3.654,3.654,0,0,1,3.827-3.719,3.291,3.291,0,0,1,3.008,1.757l-1.316.647a1.948,1.948,0,0,0-1.692-1.046,2.364,2.364,0,0,0,0,4.722,1.927,1.927,0,0,0,1.692-1.046l1.316.636a3.312,3.312,0,0,1-3.008,1.768A3.654,3.654,0,0,1,840.376,374.2Z" transform="translate(-770.405 -370.483)"/><path class="h" d="M869.063,378.01l-2.178-2.878-.56.668v2.21h-1.531v-7.191h1.531v3.212l2.544-3.212h1.887l-2.857,3.374,3.051,3.816Z" transform="translate(-786.21 -370.701)"/><path class="h" d="M885.7,374.2a3.757,3.757,0,1,1,3.752,3.719A3.61,3.61,0,0,1,885.7,374.2Zm5.94,0a2.19,2.19,0,1,0-2.188,2.361A2.183,2.183,0,0,0,891.638,374.2Z" transform="translate(-799.741 -370.483)"/><path class="h" d="M912.5,378.01v-7.191h5.088v1.348H914.03v1.52h3.482v1.347H914.03v1.628h3.557v1.348H912.5Z" transform="translate(-817.088 -370.701)"/></g></g><g transform="translate(229.719 249.554)"><path class="e" d="M653.433,732.548H755a2.178,2.178,0,0,0,2.178-2.178V716.085A2.178,2.178,0,0,0,755,713.907H653.433a2.178,2.178,0,0,0-2.178,2.178V730.37A2.178,2.178,0,0,0,653.433,732.548Z" transform="translate(-651.255 -713.907)"/><g transform="translate(5.804 3.993)"><path class="h" d="M673.434,737.49l-.442-1.218h-3.084l-.453,1.218h-1.746l2.781-7.191h1.919l2.771,7.191Zm-1.984-5.66-1.121,3.094h2.242Z" transform="translate(-667.709 -728.51)"/><path class="h" d="M699.481,737.49v-5.035l-2.027,5.035h-.669l-2.026-5.035v5.035h-1.531V730.3h2.145l1.747,4.345,1.746-4.345h2.156v7.191Z" transform="translate(-684.226 -728.51)"/><path class="h" d="M719.76,737.1l.582-1.229a1.528,1.528,0,0,0,.927.388c.528,0,.765-.216,1.046-.744l-2.652-5.218H721.4l1.779,3.816,1.79-3.816H726.7l-2.964,5.811a2.4,2.4,0,0,1-2.35,1.509A2.615,2.615,0,0,1,719.76,737.1Z" transform="translate(-701.337 -728.51)"/><path class="h" d="M743.958,737.49V730.3h3.364a2.32,2.32,0,1,1,0,4.636h-1.833v2.555Zm4.215-4.873a.964.964,0,0,0-1.057-.97h-1.628v1.941h1.628A.97.97,0,0,0,748.173,732.617Z" transform="translate(-717.063 -728.51)"/><path class="h" d="M764.495,733.683a3.654,3.654,0,0,1,3.827-3.719,3.291,3.291,0,0,1,3.008,1.757l-1.315.647a1.949,1.949,0,0,0-1.693-1.046,2.364,2.364,0,0,0,0,4.722A1.927,1.927,0,0,0,770.015,735l1.315.636a3.311,3.311,0,0,1-3.008,1.768A3.654,3.654,0,0,1,764.495,733.683Z" transform="translate(-730.356 -728.293)"/><path class="h" d="M793.182,737.49,791,734.612l-.561.668v2.21h-1.531V730.3h1.531v3.212l2.544-3.212h1.887l-2.857,3.374,3.051,3.816Z" transform="translate(-746.16 -728.51)"/><path class="h" d="M810.794,737.49V730.3h1.531v4.647l3.331-4.647h1.574v7.191H815.7v-4.819l-3.428,4.819Z" transform="translate(-760.323 -728.51)"/><path class="h" d="M835.516,734.206v-7.191h1.531v4.646l3.331-4.646h1.574v7.191h-1.531v-4.819l-3.428,4.819Zm3.224-7.525a2.38,2.38,0,0,1-1.9-.948l.6-.507a1.576,1.576,0,0,0,2.577,0l.6.507A2.329,2.329,0,0,1,838.74,726.681Z" transform="translate(-776.325 -725.226)"/><path class="h" d="M870.509,737.49V730.3H875.6v1.348H872.04v5.843Z" transform="translate(-798.975 -728.51)"/><path class="h" d="M896.657,737.49v-5.035l-2.027,5.035h-.669l-2.026-5.035v5.035H890.4V730.3h2.145l1.747,4.345,1.746-4.345H898.2v7.191Z" transform="translate(-811.852 -728.51)"/><path class="h" d="M923.247,737.49l-2.178-2.878-.56.668v2.21h-1.531V730.3h1.531v3.212l2.544-3.212h1.887l-2.857,3.374,3.051,3.816Z" transform="translate(-830.347 -728.51)"/></g></g><g transform="translate(262.427 12.663)"><path class="e" d="M746.16,60.961h68.057a2.178,2.178,0,0,0,2.178-2.178V44.5a2.178,2.178,0,0,0-2.178-2.178H746.16a2.178,2.178,0,0,0-2.178,2.178V58.783A2.178,2.178,0,0,0,746.16,60.961Z" transform="translate(-743.982 -42.319)"/><g transform="translate(6.241 3.993)"><path class="h" d="M767.929,65.9V60.869L765.9,65.9h-.668l-2.027-5.035V65.9h-1.531V58.713h2.145l1.747,4.345,1.746-4.345h2.156V65.9Z" transform="translate(-761.676 -56.923)"/><path class="h" d="M793.8,65.9l-.442-1.218H790.28l-.453,1.218h-1.746l2.781-7.191h1.919l2.771,7.191Zm-1.984-5.66L790.7,63.337h2.243Z" transform="translate(-778.767 -56.923)"/><path class="h" d="M813.6,62.62V55.429h1.531v4.646l3.331-4.646h1.574V62.62H818.5V57.8l-3.428,4.819Zm3.223-7.525a2.379,2.379,0,0,1-1.9-.949l.6-.507a1.576,1.576,0,0,0,2.577,0l.6.507A2.329,2.329,0,0,1,816.822,55.095Z" transform="translate(-795.284 -53.639)"/><path class="h" d="M837.344,62.1a3.654,3.654,0,0,1,3.827-3.719,3.292,3.292,0,0,1,3.008,1.757l-1.316.647a1.949,1.949,0,0,0-1.692-1.046,2.364,2.364,0,0,0,0,4.722,1.927,1.927,0,0,0,1.692-1.046l1.316.636a3.312,3.312,0,0,1-3.008,1.768A3.654,3.654,0,0,1,837.344,62.1Z" transform="translate(-810.654 -56.706)"/><path class="h" d="M866.03,65.9l-2.178-2.878-.56.668V65.9h-1.531V58.713h1.531v3.212l2.544-3.212h1.886l-2.857,3.374,3.052,3.816Z" transform="translate(-826.458 -56.923)"/><path class="h" d="M882.665,62.1a3.757,3.757,0,1,1,3.752,3.72A3.61,3.61,0,0,1,882.665,62.1Zm5.94,0a2.19,2.19,0,1,0-2.188,2.361A2.183,2.183,0,0,0,888.605,62.1Z" transform="translate(-839.988 -56.706)"/><path class="h" d="M909.467,65.9V58.713h5.089V60.06H911v1.52h3.482v1.348H911v1.628h3.558V65.9h-5.089Z" transform="translate(-857.337 -56.923)"/></g></g><g transform="translate(17.783 300.775)"><path class="e" d="M52.592,877.76h53.4a2.178,2.178,0,0,0,2.178-2.178V861.3a2.178,2.178,0,0,0-2.178-2.178h-53.4a2.178,2.178,0,0,0-2.178,2.178v14.285A2.178,2.178,0,0,0,52.592,877.76Z" transform="translate(-50.414 -859.118)"/><g transform="translate(6.098 5.674)"><path class="h" d="M71.971,882.7l-2.178-2.878-.56.668v2.21H67.7v-7.191h1.531v3.212l2.544-3.212h1.887l-2.857,3.374,3.051,3.816Z" transform="translate(-67.702 -875.401)"/><path class="h" d="M91.114,875.509v2.555h1.833a2.32,2.32,0,1,1,0,4.636H89.583v-7.191Zm0,3.9v1.941h1.628a.974.974,0,1,0,0-1.941Zm4.852,3.288v-7.191h1.541V882.7Z" transform="translate(-81.865 -875.401)"/><path class="h" d="M117.118,881.477l.8-1.024a3.153,3.153,0,0,0,2.1.819c.949,0,1.5-.377,1.5-.916,0-.571-.506-.83-1.585-.83h-1.455v-1.348h1.455c.852,0,1.466-.237,1.466-.766,0-.571-.647-.852-1.466-.852a2.882,2.882,0,0,0-1.951.744l-.765-.96a3.815,3.815,0,0,1,2.868-1.143c1.682,0,2.846.755,2.846,1.951a1.763,1.763,0,0,1-1.563,1.639,1.8,1.8,0,0,1,1.671,1.725c0,1.24-1.24,2.113-2.954,2.113A3.9,3.9,0,0,1,117.118,881.477Z" transform="translate(-99.687 -875.203)"/><path class="h" d="M141.141,875.509v2.555h1.833a2.32,2.32,0,1,1,0,4.636H139.61v-7.191Zm0,3.9v1.941h1.628a.974.974,0,1,0,0-1.941Zm4.852,3.288v-7.191h1.541V882.7Z" transform="translate(-114.246 -875.401)"/><path class="h" d="M167.328,881.47c.722,0,1.143-.388,1.369-2.286l.42-3.676h5.11V882.7h-1.542v-5.843H170.5l-.28,2.436c-.345,2.986-1.423,3.536-2.889,3.536Z" transform="translate(-132.187 -875.401)"/></g></g><g transform="translate(259.042 36.023)"><circle class="g" cx="3.709" cy="3.709" r="3.709"/></g><g transform="translate(21.658 287.84)"><circle class="g" cx="3.709" cy="3.709" r="3.709"/></g><g transform="translate(275.684 147.801)"><path class="i" d="M783.013,434.511a7.835,7.835,0,0,1,0-9.074l.462.349a8.727,8.727,0,0,0,0,8.365Z" transform="translate(-781.565 -425.437)"/><path class="i" d="M791.315,429.182a3.424,3.424,0,0,1,3.52-3.541,3.061,3.061,0,0,1,2.6,1.355l-.718.4a2.31,2.31,0,0,0-1.878-1,2.785,2.785,0,0,0,0,5.563,2.284,2.284,0,0,0,1.878-1l.729.4a3.1,3.1,0,0,1-2.607,1.355A3.425,3.425,0,0,1,791.315,429.182Z" transform="translate(-787.876 -425.569)"/><path class="i" d="M823.224,432.619v-.678c2.464-1.94,3.8-3.079,3.8-4.259a1.28,1.28,0,0,0-1.427-1.252,2.29,2.29,0,0,0-1.858.862l-.524-.544a2.966,2.966,0,0,1,2.381-1.077,2.083,2.083,0,0,1,2.3,2.012c0,1.4-1.416,2.669-3.325,4.177h3.356v.76h-4.7Z" transform="translate(-808.523 -425.588)"/><path class="i" d="M842.6,429.2c0-1.673.739-3.531,2.617-3.531s2.617,1.858,2.617,3.531-.749,3.541-2.617,3.541S842.6,430.864,842.6,429.2Zm4.362,0c0-1.365-.442-2.772-1.745-2.772s-1.745,1.406-1.745,2.772.442,2.782,1.745,2.782S846.961,430.566,846.961,429.2Z" transform="translate(-821.07 -425.588)"/><path class="i" d="M862.808,432.619v-.678c2.463-1.94,3.8-3.079,3.8-4.259a1.28,1.28,0,0,0-1.427-1.252,2.289,2.289,0,0,0-1.857.862l-.524-.544a2.966,2.966,0,0,1,2.381-1.077,2.083,2.083,0,0,1,2.3,2.012c0,1.4-1.417,2.669-3.326,4.177h3.356v.76h-4.7Z" transform="translate(-834.144 -425.588)"/><path class="i" d="M881.542,431.613l.5-.534a2.377,2.377,0,0,0,1.909.9c1,0,1.6-.493,1.6-1.283,0-.852-.7-1.211-1.7-1.211-.287,0-.606,0-.708.01v-.78c.113.01.431.01.708.01.862,0,1.591-.339,1.591-1.129,0-.759-.7-1.17-1.53-1.17a2.32,2.32,0,0,0-1.806.832l-.472-.534a2.965,2.965,0,0,1,2.34-1.057c1.314,0,2.32.667,2.32,1.827a1.668,1.668,0,0,1-1.478,1.591,1.722,1.722,0,0,1,1.581,1.683c0,1.139-.914,1.971-2.422,1.971A2.887,2.887,0,0,1,881.542,431.613Z" transform="translate(-846.277 -425.588)"/><path class="i" d="M911.345,432.807v-6.846h4.486v.76H912.2v6.087Z" transform="translate(-865.568 -425.776)"/><path class="i" d="M929.157,443.024a.565.565,0,1,1,.564.565A.569.569,0,0,1,929.157,443.024Z" transform="translate(-877.097 -436.455)"/><path class="i" d="M936.929,434.151a8.658,8.658,0,0,0,0-8.365l.462-.349a7.788,7.788,0,0,1,0,9.074Z" transform="translate(-882.127 -425.437)"/></g><g transform="translate(26.687 189.316)"><path class="i" d="M75.657,554.039v-6.394h2.991a2.063,2.063,0,1,1,0,4.122H77.018v2.272Zm3.748-4.333a.857.857,0,0,0-.939-.863H77.018v1.725h1.447A.862.862,0,0,0,79.405,549.706Z" transform="translate(-75.657 -546.054)"/><path class="i" d="M93.921,550.653a3.341,3.341,0,1,1,3.336,3.307A3.21,3.21,0,0,1,93.921,550.653Zm5.282,0a1.947,1.947,0,1,0-1.946,2.1A1.941,1.941,0,0,0,99.2,550.653Z" transform="translate(-87.479 -545.86)"/><path class="i" d="M116.888,550.653a3.249,3.249,0,0,1,3.4-3.307,2.926,2.926,0,0,1,2.674,1.563l-1.169.575a1.732,1.732,0,0,0-1.5-.93,2.1,2.1,0,0,0,0,4.2,1.714,1.714,0,0,0,1.5-.93l1.169.566a2.944,2.944,0,0,1-2.674,1.572A3.249,3.249,0,0,1,116.888,550.653Z" transform="translate(-102.344 -545.86)"/><path class="i" d="M137.733,550.653a3.249,3.249,0,0,1,3.4-3.307,2.927,2.927,0,0,1,2.674,1.563l-1.17.575a1.731,1.731,0,0,0-1.5-.93,2.1,2.1,0,0,0,0,4.2,1.713,1.713,0,0,0,1.5-.93l1.17.566a2.945,2.945,0,0,1-2.674,1.572A3.249,3.249,0,0,1,137.733,550.653Z" transform="translate(-115.837 -545.86)"/><path class="i" d="M159.45,554.039v-6.394h1.361v4.131l2.962-4.131h1.4v6.394h-1.361v-4.285l-3.049,4.285Z" transform="translate(-129.893 -546.054)"/><path class="i" d="M181.437,551.118v-6.394H182.8v4.131l2.962-4.131h1.4v6.394H185.8v-4.285l-3.048,4.285Zm2.866-6.691a2.115,2.115,0,0,1-1.687-.844l.537-.451a1.4,1.4,0,0,0,2.291,0l.537.451A2.069,2.069,0,0,1,184.3,544.427Z" transform="translate(-144.125 -543.133)"/><path class="i" d="M202.556,550.653a3.249,3.249,0,0,1,3.4-3.307,2.926,2.926,0,0,1,2.674,1.563l-1.169.575a1.732,1.732,0,0,0-1.5-.93,2.1,2.1,0,0,0,0,4.2,1.714,1.714,0,0,0,1.5-.93l1.169.566a2.944,2.944,0,0,1-2.674,1.572A3.249,3.249,0,0,1,202.556,550.653Z" transform="translate(-157.795 -545.86)"/><path class="i" d="M228.067,554.039l-1.936-2.559-.5.594v1.965h-1.361v-6.394h1.361V550.5l2.262-2.856h1.678l-2.54,3,2.713,3.393Z" transform="translate(-171.85 -546.054)"/><path class="i" d="M246.892,554.039l-.393-1.083h-2.741l-.4,1.083H241.8l2.473-6.394h1.706l2.463,6.394Zm-1.764-5.032-1,2.751h1.994Z" transform="translate(-183.197 -546.054)"/><path class="i" d="M263.708,554.039l1.438-2.435a1.834,1.834,0,0,1-1.4-1.9,1.991,1.991,0,0,1,2.147-2.061h2.991v6.394h-1.361v-2.272h-.987l-1.266,2.272Zm3.815-3.47v-1.726H266.1a.868.868,0,1,0,0,1.726Z" transform="translate(-197.376 -546.054)"/><path class="i" d="M295.5,554.039V553.4c-1.936-.163-3.086-1.074-3.086-2.55s1.15-2.377,3.086-2.55v-.652h1.361v.652c1.936.173,3.086,1.074,3.086,2.55s-1.15,2.387-3.086,2.55v.642Zm0-1.859v-2.665c-1.1.134-1.687.613-1.687,1.333S294.393,552.045,295.5,552.179Zm1.361-2.665v2.665c1.1-.124,1.7-.6,1.7-1.332S297.959,549.649,296.857,549.514Z" transform="translate(-215.954 -546.054)"/><path class="i" d="M318.69,554.039v-6.394h4.525v1.2h-3.163v1.352h3.1v1.2h-3.1v1.447h3.163v1.2Z" transform="translate(-232.964 -546.054)"/><path class="i" d="M335.623,552.947c.652-.086,1.016-.345,1.217-2.032l.374-3.269h4.544v5.2h.575v2.377h-1.361v-1.179h-3.988v1.179h-1.361v-2.272Zm1.793-.106h2.972v-4h-1.946l-.249,2.166A2.833,2.833,0,0,1,337.416,552.841Z" transform="translate(-243.925 -546.054)"/><path class="i" d="M359.079,554.039v-6.394H363.6v1.2H360.44v1.352h3.1v1.2h-3.1v1.447H363.6v1.2Z" transform="translate(-259.107 -546.054)"/><path class="i" d="M377.1,554.039v-6.394h2.991a2.063,2.063,0,1,1,0,4.122h-1.63v2.272Zm3.748-4.333a.857.857,0,0,0-.939-.863H378.46v1.725h1.448A.862.862,0,0,0,380.847,549.706Z" transform="translate(-270.771 -546.054)"/><path class="i" d="M399.393,554.039,399,552.955h-2.741l-.4,1.083H394.3l2.473-6.394h1.706l2.464,6.394Zm-1.764-5.032-1,2.751h1.994Z" transform="translate(-281.906 -546.054)"/><path class="i" d="M421.962,554.039H417v-6.394h1.361v5.2h3.02v-5.2h1.371v5.2h.575v2.378h-1.361Z" transform="translate(-296.595 -546.054)"/><path class="i" d="M439.364,554.039v-6.394h1.361v4.131l2.962-4.131h1.4v6.394h-1.361v-4.285l-3.048,4.285Z" transform="translate(-311.073 -546.054)"/><path class="i" d="M460.564,554.039,462,551.6a1.835,1.835,0,0,1-1.4-1.9,1.991,1.991,0,0,1,2.147-2.061h2.991v6.394h-1.361v-2.272h-.987l-1.265,2.272Zm3.815-3.47v-1.726h-1.428a.868.868,0,1,0,0,1.726Z" transform="translate(-324.795 -546.054)"/></g></g></g></svg>