<svg width="313" height="556" fill="none" xmlns="http://www.w3.org/2000/svg"><g clip-path="url(#clip0)" stroke-width="2" stroke-miterlimit="10"><path d="M156.913 114.486c31.312 0 56.696-25.384 56.696-56.696 0-31.313-25.384-56.696-56.696-56.696-31.313 0-56.696 25.383-56.696 56.696 0 31.312 25.383 56.696 56.696 56.696z" fill="#0073FF" stroke="#0073FF"/><path d="M190.638 49.253v8.511h-25.53v21.73h-38.902V32.99c0-1.344 1.576-2.07 2.598-1.198l15.053 12.851c1.022.873 2.597.146 2.597-1.198v-10.46c0-1.343 1.574-2.07 2.597-1.198l15.094 12.861c1.023.871 2.597.145 2.597-1.199V32.913c0-1.331 1.548-2.062 2.576-1.216l21.32 17.557z" stroke="#fff"/><path d="M197.286 57.79h-32.168v21.703h32.168V57.79zm-59.31-2.376v24.08m11.309-24.08v24.08" stroke="#fff"/></g><path d="M102.902 141.416h2.717v-12.673h-11.4v12.673h2.698v-10.298h5.985v10.298zm7.57 3.496v-4.674c.741.95 1.748 1.406 2.831 1.406 2.356 0 4.066-1.767 4.066-4.826 0-3.059-1.71-4.807-4.066-4.807-1.121 0-2.128.494-2.831 1.387v-1.159h-2.413v12.673h2.413zm4.389-8.094c0 1.596-.931 2.679-2.318 2.679-.779 0-1.672-.475-2.071-1.045v-3.249c.399-.589 1.292-1.045 2.071-1.045 1.387 0 2.318 1.083 2.318 2.66zm8.569 4.826c3.04 0 4.864-2.204 4.864-4.826 0-2.603-1.824-4.807-4.864-4.807-3.021 0-4.845 2.204-4.845 4.807 0 2.622 1.824 4.826 4.845 4.826zm0-2.147c-1.501 0-2.337-1.235-2.337-2.679 0-1.425.836-2.66 2.337-2.66 1.501 0 2.356 1.235 2.356 2.66 0 1.444-.855 2.679-2.356 2.679zm6.654 1.919h2.318l3.895-5.871v5.871h2.413v-9.177h-2.432l-3.781 5.662v-5.662h-2.413v9.177zm10.147-1.235c.874.874 2.318 1.463 4.142 1.463 2.66 0 4.237-1.14 4.237-2.755 0-1.387-1.463-2.109-2.527-2.185 1.159-.19 2.356-.988 2.356-2.166-.019-1.558-1.539-2.527-4.18-2.508-1.748 0-3.04.627-3.895 1.52l1.178 1.425c.684-.703 1.596-1.045 2.698-1.045 1.007 0 1.691.399 1.691.969 0 .646-.57 1.007-1.729 1.007h-1.615v1.767h1.615c1.216 0 1.9.285 1.9 1.007 0 .608-.57 1.064-1.748 1.064-1.026 0-2.09-.418-2.907-1.121l-1.216 1.558zm10.17 1.235h5.681c2.147 0 3.135-1.102 3.135-2.489 0-1.102-.741-2.014-1.748-2.242.855-.247 1.558-.988 1.558-2.09 0-1.235-.95-2.356-3.04-2.356h-5.586v9.177zm6.175-6.441c0 .437-.323.798-.893.798h-2.869v-1.615h2.869c.57 0 .893.342.893.817zm.171 3.629c0 .532-.361.893-.969.893h-2.964v-1.805h2.964c.627 0 .969.437.969.912zm8.523 3.04c3.04 0 4.864-2.204 4.864-4.826 0-2.603-1.824-4.807-4.864-4.807-3.021 0-4.845 2.204-4.845 4.807 0 2.622 1.824 4.826 4.845 4.826zm0-2.147c-1.501 0-2.337-1.235-2.337-2.679 0-1.425.836-2.66 2.337-2.66 1.501 0 2.356 1.235 2.356 2.66 0 1.444-.855 2.679-2.356 2.679zm5.558-.19v4.446h2.109v-2.337h6.27v2.337h2.109v-4.446h-1.007v-7.068h-7.296l-.19 2.014c-.247 2.945-.665 4.275-1.14 5.054h-.855zm4.047-4.142l.057-.817h2.964v4.959h-3.952c.323-.532.741-1.539.931-4.142zm7.389 1.653c0 2.831 2.033 4.826 4.864 4.826 1.881 0 3.021-.817 3.629-1.672l-1.577-1.463a2.316 2.316 0 01-1.938.988c-1.463 0-2.489-1.083-2.489-2.679 0-1.596 1.026-2.66 2.489-2.66.836 0 1.501.342 1.938.988l1.577-1.482c-.608-.836-1.748-1.653-3.629-1.653-2.831 0-4.864 1.995-4.864 4.807zm11.762 4.598h2.432v-7.068h2.565v-2.109h-7.562v2.109h2.565v7.068zm6.51 0h5.681c2.147 0 3.135-1.102 3.135-2.489 0-1.102-.741-2.014-1.748-2.242.855-.247 1.558-.988 1.558-2.09 0-1.235-.95-2.356-3.04-2.356h-5.586v9.177zm6.175-6.441c0 .437-.323.798-.893.798h-2.869v-1.615h2.869c.57 0 .893.342.893.817zm.171 3.629c0 .532-.361.893-.969.893h-2.964v-1.805h2.964c.627 0 .969.437.969.912zm8.523 3.04c3.04 0 4.864-2.204 4.864-4.826 0-2.603-1.824-4.807-4.864-4.807-3.021 0-4.845 2.204-4.845 4.807 0 2.622 1.824 4.826 4.845 4.826zm0-2.147c-1.501 0-2.337-1.235-2.337-2.679 0-1.425.836-2.66 2.337-2.66 1.501 0 2.356 1.235 2.356 2.66 0 1.444-.855 2.679-2.356 2.679z" fill="#000"/><g clip-path="url(#clip1)" stroke-width="2" stroke-miterlimit="10"><path d="M156.913 526.031c31.312 0 56.696-25.384 56.696-56.696 0-31.313-25.384-56.696-56.696-56.696-31.313 0-56.696 25.383-56.696 56.696 0 31.312 25.383 56.696 56.696 56.696z" fill="#0073FF" stroke="#0073FF"/><path d="M187.572 491.361c-2.589 9.731-11.46 16.901-22.006 16.901-12.574 0-22.768-10.194-22.768-22.769 0-18.215 22.768-47.055 22.768-47.055s6.643 8.414 12.753 19.023" stroke="#fff"/><path d="M168.604 473.862l5.718-9.906c1.168-2.025 4.09-2.025 5.258 0l2.681 4.643m-4.551 18.412h-11.44c-2.337 0-3.797-2.53-2.629-4.554l2.686-4.652m18.21-5.262l5.723 9.915c1.169 2.024-.292 4.554-2.629 4.554h-5.368" stroke="#fff"/><path d="M173.156 482.457l4.554 4.554-4.554 4.554" stroke="#fff"/><path d="M173.156 482.457l4.554 4.554-4.554 4.554m9.718-12.798l1.666-6.22 6.221 1.667m-15.938-2.02l-6.221 1.667-1.667-6.22m-31.727-27.686l4.293 7.85 7.85 4.293-7.85 4.294-4.293 7.85-4.293-7.85-7.85-4.294 7.85-4.293 4.293-7.85z" stroke="#fff"/></g><path d="M100.548 551.886c3.838 0 6.631-2.736 6.631-6.555 0-3.819-2.793-6.555-6.631-6.555-3.82 0-6.612 2.736-6.612 6.555 0 3.819 2.793 6.555 6.612 6.555zm0-2.394c-2.337 0-3.838-1.805-3.838-4.161 0-2.375 1.5-4.161 3.838-4.161 2.337 0 3.857 1.786 3.857 4.161 0 2.356-1.52 4.161-3.857 4.161zm8.182-7.011v3.325c0 1.9.95 3.021 3.515 3.021 1.14 0 2.09-.247 2.679-.57v3.401h2.432v-9.177h-2.432v3.838c-.418.209-1.007.361-1.843.361-1.273 0-1.938-.418-1.938-1.71v-2.489h-2.413zm13.328 9.177l3.895-5.757v5.757h2.413v-9.177h-2.432l-3.781 5.548v-5.548h-2.413v9.177h2.318zm12.978.228c1.881 0 3.021-.817 3.629-1.672l-1.577-1.463a2.316 2.316 0 01-1.938.988c-1.463 0-2.489-1.083-2.489-2.679 0-1.596 1.026-2.66 2.489-2.66.836 0 1.501.342 1.938.988l1.577-1.482c-.608-.836-1.748-1.653-3.629-1.653-2.831 0-4.864 1.995-4.864 4.807 0 2.831 2.033 4.826 4.864 4.826zm9.329-.228v-7.068h2.565v-2.109h-7.562v2.109h2.565v7.068h2.432zm13.047 0l-3.743-5.016 3.629-4.161h-2.964l-3.477 4.085v-4.085h-2.413v9.177h2.413v-2.356l1.102-1.178 2.432 3.534h3.021zm9.123 0v-5.928c0-2.641-1.919-3.477-4.009-3.477-1.444 0-2.888.456-4.009 1.444l.912 1.615c.779-.722 1.691-1.083 2.679-1.083 1.216 0 2.014.608 2.014 1.539v1.235c-.608-.722-1.691-1.121-2.907-1.121-1.463 0-3.192.817-3.192 2.964 0 2.052 1.729 3.04 3.192 3.04 1.197 0 2.28-.437 2.907-1.178v.95h2.413zm-4.351-1.406c-.95 0-1.729-.494-1.729-1.349 0-.893.779-1.387 1.729-1.387.779 0 1.539.266 1.938.798v1.14c-.399.532-1.159.798-1.938.798zm17.59 1.406c1.843 0 2.831-1.102 2.831-2.489 0-1.102-.741-2.014-1.748-2.242.855-.247 1.558-.988 1.558-2.09 0-1.235-.95-2.356-2.812-2.356h-5.814v9.177h5.985zm-.589-1.976h-2.983v-1.71h2.983c.608 0 .95.399.95.855 0 .532-.361.855-.95.855zm-.076-3.686h-2.907v-1.539h2.907c.532 0 .855.323.855.779 0 .418-.323.76-.855.76zm10.069 5.89c3.04 0 4.864-2.204 4.864-4.826 0-2.603-1.824-4.807-4.864-4.807-3.021 0-4.845 2.204-4.845 4.807 0 2.622 1.824 4.826 4.845 4.826zm0-2.147c-1.501 0-2.337-1.235-2.337-2.679 0-1.425.836-2.66 2.337-2.66 1.501 0 2.356 1.235 2.356 2.66 0 1.444-.855 2.679-2.356 2.679zm5.799 4.256h2.432v-2.337h5.643v2.337h2.413v-4.446h-1.007v-7.068h-7.429l-.589 4.446c-.285 2.223-.722 2.584-1.463 2.717v4.351zm4.161-9.405h2.907v4.959h-4.256c.57-.532.931-1.349 1.064-2.47l.285-2.489zm7.846-2.109v9.177h5.548c2.052 0 3.192-1.387 3.192-3.021 0-1.615-1.064-3.002-3.192-3.002h-3.135v-3.154h-2.413zm5.187 5.168c.684 0 1.083.418 1.083.988 0 .57-.399.988-1.083.988h-2.774v-1.976h2.774zm7.182 4.009v-9.177h-2.432v9.177h2.432zM103.429 274.693c0 .571-.115 1.103-.343 1.595-.22.492-.563.923-1.028 1.292-.466.36-1.055.646-1.767.857-.712.211-1.556.316-2.531.316-.413 0-.822-.022-1.226-.065a11.589 11.589 0 01-1.16-.159 11.15 11.15 0 01-1.029-.25 4.985 4.985 0 01-.83-.33v-1.687c.606.334 1.27.589 1.99.764.73.167 1.464.251 2.202.251s1.362-.062 1.872-.185c.519-.132.936-.307 1.253-.527.316-.229.544-.497.685-.804a2.5 2.5 0 00.211-1.029c0-.914-.365-1.564-1.094-1.951-.72-.386-1.75-.58-3.085-.58h-1.582v-1.463h1.463c1.24 0 2.162-.194 2.769-.58.606-.396.909-1.007.909-1.833 0-.668-.272-1.208-.817-1.621-.545-.422-1.358-.633-2.439-.633a8.06 8.06 0 00-2.083.277c-.694.175-1.358.417-1.99.725v-1.609a14.8 14.8 0 012.03-.619 9.78 9.78 0 012.214-.251c.835 0 1.552.088 2.149.264.607.176 1.103.422 1.49.738.396.308.686.681.87 1.121.194.43.29.905.29 1.424 0 .826-.246 1.525-.738 2.096-.483.562-1.169.931-2.057 1.107v.066a4.44 4.44 0 011.424.317 3.25 3.25 0 011.068.698c.299.29.523.629.672 1.015.159.387.238.805.238 1.253zm11.127 3.731v-2.4h-.053c-.44.862-1.042 1.53-1.806 2.004-.756.475-1.613.712-2.571.712-.65 0-1.239-.092-1.767-.277a3.905 3.905 0 01-1.331-.777 3.63 3.63 0 01-.844-1.227 4.122 4.122 0 01-.29-1.568c0-1.222.378-2.193 1.134-2.914.756-.729 1.898-1.204 3.428-1.424l4.1-.593c0-2.593-1.007-3.889-3.019-3.889-1.574 0-3.033.575-4.377 1.727v-1.846c.281-.202.597-.382.949-.54.36-.167.738-.308 1.134-.422a7.991 7.991 0 011.213-.277c.421-.07.83-.106 1.226-.106 1.503 0 2.636.422 3.401 1.266.773.844 1.16 2.101 1.16 3.771v8.78h-1.687zm-3.481-6.552a10.42 10.42 0 00-1.555.329c-.431.132-.787.312-1.068.541a1.928 1.928 0 00-.62.83c-.132.325-.198.73-.198 1.213 0 .361.062.694.185 1.002.132.308.316.576.554.804.246.22.54.391.883.514.351.124.747.185 1.186.185.598 0 1.147-.114 1.648-.343a3.844 3.844 0 001.292-.949c.369-.404.655-.888.857-1.45a5.178 5.178 0 00.317-1.833v-1.331l-3.481.488zm21.265 6.552v-11.391a33.46 33.46 0 01-.356 1.002c-.088.229-.18.475-.277.738-.096.255-.193.501-.29.739l-3.506 8.912h-1.464l-3.718-8.912-.224-.554c-.079-.22-.162-.448-.25-.686a68.165 68.165 0 01-.448-1.239v11.391h-1.503v-13.5h2.096l3.836 9.083c.079.185.163.396.251.633.096.237.189.479.277.725.096.238.18.466.25.686.079.22.145.4.198.54.044-.105.101-.259.171-.461.071-.202.15-.422.238-.659a53.716 53.716 0 00.553-1.411l3.652-9.136h2.175v13.5h-1.661zm13.909 0l-6.144-6.552h-.052v6.552h-1.688v-13.5h1.688v6.315h.052l5.959-6.315h2.202l-6.394 6.552 6.75 6.948h-2.373zm13.803 0v-6.289h-7.422v6.289h-1.688v-13.5h1.688v5.748h7.422v-5.748h1.688v13.5h-1.688zm9.967 2.452c-.527 1.318-1.134 2.294-1.819 2.927-.686.641-1.516.962-2.492.962-.483 0-.892-.057-1.226-.171v-1.582c.193.07.387.123.58.158.202.035.404.053.606.053.554 0 1.033-.176 1.437-.528.414-.342.769-.865 1.068-1.569l1.174-2.768-5.195-13.434h1.872l3.863 10.692c.053.14.101.303.145.488.053.175.101.351.145.527h.066c.044-.15.084-.299.119-.448.044-.159.101-.33.171-.515l4.1-10.744h1.78l-6.394 15.952zm13.236-14.476v12.024h-1.687V266.4h-4.061v-1.476h9.796v1.476h-4.048zm18.998 12.024v-13.5h1.674v13.5h-1.674zm-2.637-4.127c0 .668-.114 1.262-.343 1.78a3.84 3.84 0 01-.922 1.292 4.107 4.107 0 01-1.345.791 4.779 4.779 0 01-1.595.264h-5.577v-13.5h1.687v5.366h3.745c.668 0 1.27.092 1.806.276a3.75 3.75 0 011.371.778c.378.343.668.765.87 1.266.202.492.303 1.055.303 1.687zm-1.74 0c0-.773-.246-1.388-.738-1.845-.484-.457-1.218-.686-2.202-.686h-3.415v5.181h3.441c.51 0 .945-.061 1.306-.184.369-.132.672-.312.909-.541.238-.228.413-.505.528-.83a3.37 3.37 0 00.171-1.095zm19.762 4.127v-11.022a9.03 9.03 0 00-.184.304 4.311 4.311 0 01-.185.29l-7.436 10.428h-1.542v-13.5h1.595v10.916c.044-.123.106-.259.185-.409a5.84 5.84 0 01.316-.501l7.225-10.006h1.608v13.5h-1.582zm-3.849-17.139c.404 0 .782-.066 1.133-.198.352-.131.66-.316.923-.553.273-.238.492-.514.659-.831.176-.316.282-.659.317-1.028h1.714a4.6 4.6 0 01-.501 1.529 4.166 4.166 0 01-.976 1.239 4.666 4.666 0 01-1.437.818c-.545.193-1.16.29-1.846.29-.685 0-1.3-.097-1.845-.29a4.408 4.408 0 01-1.385-.818 4.088 4.088 0 01-.909-1.239 4.91 4.91 0 01-.422-1.529h1.714c.035.387.118.742.25 1.068.141.316.33.589.567.817.237.229.523.409.857.541.343.123.738.184 1.187.184zm-72.352 54.056v-4.917h-11.351v-13.5h1.687v12.036h7.423v-12.036h1.687v12.036h2.031v6.381h-1.477zm13.711-4.917v-11.022a9.021 9.021 0 00-.185.304 4.315 4.315 0 01-.184.29l-7.436 10.428h-1.542v-13.5h1.595v10.916a3.09 3.09 0 01.185-.409c.087-.158.193-.325.316-.501l7.225-10.006h1.608v13.5h-1.582zm13.83 0l-6.144-6.552h-.053v6.552h-1.687v-13.5h1.687v6.315h.053l5.959-6.315h2.202l-6.394 6.552 6.75 6.948h-2.373zm13.091 0V298.4h-3.547c-.158 2.092-.373 3.907-.646 5.445-.272 1.53-.619 2.795-1.041 3.797-.413 1.002-.91 1.749-1.49 2.241-.571.484-1.248.725-2.03.725-.176 0-.347-.013-.514-.039a2.842 2.842 0 01-.448-.106V309c.114.053.25.097.408.132.167.026.321.039.462.039.536 0 1.01-.259 1.423-.777.422-.528.787-1.306 1.095-2.334.316-1.028.584-2.307.804-3.836.22-1.53.4-3.296.54-5.3h6.658v13.5h-1.674z" fill="#000"/><g clip-path="url(#clip2)"><path d="M58.335 181.359C24.966 207.46 3.518 248.098 3.518 293.746c0 40.08 16.535 76.299 43.156 102.205" stroke="#85CE5F" stroke-width="4" stroke-miterlimit="10"/><path d="M37.266 401.759l21.068 4.373-6.745-20.433-14.323 16.06z" fill="#85CE5F"/></g><g clip-path="url(#clip3)"><path d="M254.494 404.008c33.368-26.101 54.817-66.739 54.817-112.387 0-40.08-16.535-76.298-43.157-102.205" stroke="#85CE5F" stroke-width="4" stroke-miterlimit="10"/><path d="M275.563 183.608l-21.069-4.373 6.746 20.433 14.323-16.06z" fill="#85CE5F"/></g><defs><clipPath id="clip0"><path fill="#fff" transform="translate(99.217 .094)" d="M0 0h115.392v115.392H0z"/></clipPath><clipPath id="clip1"><path fill="#fff" transform="translate(99.217 411.639)" d="M0 0h115.392v115.392H0z"/></clipPath><clipPath id="clip2"><path fill="#fff" transform="translate(.82 179.234)" d="M0 0h59.176v226.899H0z"/></clipPath><clipPath id="clip3"><path fill="#fff" transform="rotate(-180 156.004 203.066)" d="M0 0h59.176v226.899H0z"/></clipPath></defs></svg>