<svg xmlns="http://www.w3.org/2000/svg" width="78.979" height="78.979" viewBox="0 0 78.979 78.979"><g transform="translate(-764 -24466)"><g transform="translate(-3537.766 19223.238)"><ellipse cx="2.629" cy="2.043" rx="2.629" ry="2.043" transform="translate(4314.253 5268.233) rotate(-30)" stroke-width="2" stroke="#0073ff" stroke-linecap="round" stroke-linejoin="round" fill="none"/><line y1="10.979" transform="translate(4320.042 5257.137)" stroke-width="2" stroke="#0073ff" stroke-linecap="round" stroke-linejoin="round" fill="none"/><ellipse cx="2.629" cy="2.043" rx="2.629" ry="2.043" transform="translate(4323.288 5266.351) rotate(-30)" stroke-width="2" stroke="#0073ff" stroke-linecap="round" stroke-linejoin="round" fill="none"/><line y1="10.979" transform="translate(4329.076 5255.254)" stroke-width="2" stroke="#0073ff" stroke-linecap="round" stroke-linejoin="round" fill="none"/><line x1="9.035" y2="1.882" transform="translate(4320.042 5255.254)" stroke-width="2" stroke="#0073ff" stroke-linecap="round" stroke-linejoin="round" fill="none"/></g><g transform="translate(-3537.766 19223.238)"><ellipse cx="2.629" cy="2.043" rx="2.629" ry="2.043" transform="translate(4331.863 5274.489) rotate(-30)" stroke-width="2" stroke="#0073ff" stroke-linecap="round" stroke-linejoin="round" fill="none"/><line y1="10.979" transform="translate(4337.652 5263.393)" stroke-width="2" stroke="#0073ff" stroke-linecap="round" stroke-linejoin="round" fill="none"/><line x1="3.946" y2="1.882" transform="translate(4337.652 5261.511)" stroke-width="2" stroke="#0073ff" stroke-linecap="round" stroke-linejoin="round" fill="none"/></g><g transform="translate(-3537.766 19223.238)"><path d="M4348.351,5302.316l-16.7-4.841c-3.06,10.559.425,17.177,3.79,18.152S4345.291,5312.874,4348.351,5302.316Z" fill="none" stroke="#0073ff" stroke-linecap="round" stroke-linejoin="round" stroke-width="2"/><path d="M4339.273,5310.419a2.52,2.52,0,0,1-4.283-1.241" fill="none" stroke="#0073ff" stroke-linecap="round" stroke-linejoin="round" stroke-width="2"/><path d="M4336.17,5304.47a.706.706,0,0,0-1.2-.347" fill="none" stroke="#0073ff" stroke-linecap="round" stroke-linejoin="round" stroke-width="2"/><path d="M4341.993,5306.158a.707.707,0,0,0-1.2-.348" fill="none" stroke="#0073ff" stroke-linecap="round" stroke-linejoin="round" stroke-width="2"/><path d="M4327.625,5303.542a.658.658,0,0,0-1.151.179" fill="none" stroke="#0073ff" stroke-linecap="round" stroke-linejoin="round" stroke-width="2"/><path d="M4330.4,5298.909l-8.334,1.307c1.411,9.16,6.225,13.241,9.337,13.23" fill="none" stroke="#0073ff" stroke-linecap="round" stroke-linejoin="round" stroke-width="2"/></g><g transform="translate(-3537.766 19223.238)"><path d="M4320.063,5294.246a7.957,7.957,0,0,1-.91-2.872,9.025,9.025,0,0,1,.119-2.766,9.962,9.962,0,0,1,.858-2.551l.082-.162" fill="none" stroke="#0073ff" stroke-linecap="round" stroke-linejoin="round" stroke-width="2"/><path d="M4327.52,5281.848a7.96,7.96,0,0,1-2.033,2.224,8.982,8.982,0,0,1-2.455,1.28,9.951,9.951,0,0,1-2.638.533l-.182.01" fill="none" stroke="#0073ff" stroke-linecap="round" stroke-linejoin="round" stroke-width="2"/><path d="M4313.054,5281.589a7.963,7.963,0,0,1,2.943.649,9.065,9.065,0,0,1,2.336,1.485,9.967,9.967,0,0,1,1.78,2.019l.1.153" fill="none" stroke="#0073ff" stroke-linecap="round" stroke-linejoin="round" stroke-width="2"/><circle cx="8.328" cy="8.328" r="8.328" transform="translate(4311.894 5277.567)" fill="none" stroke="#0073ff" stroke-linecap="round" stroke-linejoin="round" stroke-width="2"/></g><g transform="translate(-3537.766 19223.238)"><path d="M4341.255,5282.252l11.894-36.606a37.884,37.884,0,0,1,26.6,36.606Z" fill="none" stroke="#0073ff" stroke-linecap="round" stroke-linejoin="round" stroke-width="2"/><path d="M4341.255,5282.252h38.49a38.49,38.49,0,1,1-38.49-38.49,36.581,36.581,0,0,1,11.894,1.884Z" fill="none" stroke="#0073ff" stroke-linecap="round" stroke-linejoin="round" stroke-width="2"/></g><g transform="translate(-3537.766 19223.238)"><path d="M4364.591,5290.046c-1.8.41-2.856-.207-3.085-1.212s.458-2.019,2.256-2.429,5.39.687,5.39.687S4366.389,5289.637,4364.591,5290.046Z" fill="none" stroke="#0073ff" stroke-linecap="round" stroke-linejoin="round" stroke-width="2"/><path d="M4361.481,5288.591c-6.707,1.236-19.165,2.227-18.648,4.5s12.175-2.234,18.755-4.025" fill="none" stroke="#0073ff" stroke-linecap="round" stroke-linejoin="round" stroke-width="2"/></g><g transform="translate(-3537.766 19223.238)"><path d="M4365.389,5305.87c3.13-2.244,5.338-7.012,2.513-10.952-2.487-3.469-2.939,2.861-8.695.72-4.289-1.594-8.462,4.265-5.277,8.708C4357.944,5309.944,4362.845,5307.694,4365.389,5305.87Z" fill="none" stroke="#0073ff" stroke-linecap="round" stroke-linejoin="round" stroke-width="2"/><g transform="translate(4356.583 5301.775)" fill="none" stroke="#0073ff" stroke-linecap="round" stroke-linejoin="round" stroke-width="2"><circle cx="1.073" cy="1.073" r="1.073" stroke="none"/><circle cx="1.073" cy="1.073" r="0.073" fill="none"/></g><g transform="translate(4360.055 5302.54)" fill="none" stroke="#0073ff" stroke-linecap="round" stroke-linejoin="round" stroke-width="2"><circle cx="1.073" cy="1.073" r="1.073" stroke="none"/><circle cx="1.073" cy="1.073" r="0.073" fill="none"/></g><g transform="translate(4363.173 5300.65)" fill="none" stroke="#0073ff" stroke-linecap="round" stroke-linejoin="round" stroke-width="2"><circle cx="1.073" cy="1.073" r="1.073" stroke="none"/><circle cx="1.073" cy="1.073" r="0.073" fill="none"/></g></g></g></svg>