<svg xmlns="http://www.w3.org/2000/svg" width="18.126" height="17.311" viewBox="0 0 18.126 17.311"><defs><style>.a{fill:none;stroke:#fff;stroke-linecap:round;stroke-linejoin:round;}</style></defs><g transform="translate(-4475.737 -6122)"><line class="a" y2="12.64" transform="translate(4484.8 6126.17)"/><line class="a" y2="8.155" transform="translate(4479.091 6130.655)"/><line class="a" y2="8.155" transform="translate(4490.1 6130.655)"/><path class="a" d="M4479.385,6132.545a1.1,1.1,0,0,1,.544,1.45,1.479,1.479,0,0,1-1.959.734,2,2,0,0,1-.992-2.646,2.7,2.7,0,0,1,3.575-1.34c1.436.653,1.811,2.058,1.811,3.606v10.423" transform="translate(-0.418 -5.961)"/><path class="a" d="M4524.016,6132.545a1.1,1.1,0,0,0-.544,1.45,1.48,1.48,0,0,0,1.959.734,2,2,0,0,0,.992-2.646,2.7,2.7,0,0,0-3.575-1.34c-1.436.653-1.811,2.058-1.811,3.606v10.423" transform="translate(-33.383 -5.961)"/><line class="a" x2="17.126" transform="translate(4476.237 6122.5)"/></g></svg>