<svg xmlns="http://www.w3.org/2000/svg" width="239.213" height="299.073" viewBox="0 0 239.213 299.073"><defs><style>.a{fill:#fff;}.a,.b{stroke:#0073ff;stroke-linecap:round;stroke-linejoin:round;stroke-width:2px;}.b,.d{fill:none;}.c{stroke:none;}</style></defs><g transform="translate(-1109.996 -6486.896)"><g transform="translate(1111 6487.991)"><path class="a" d="M4434.881,4.566c-11.877,0-6.526,14.277,1.6,8.984C4435.231,10.367,4435.567,7.97,4434.881,4.566Z" transform="translate(-4341.137 48.055)"/><path class="a" d="M4434.237-21.667c11.42-37.074,74.7-24.712,59.048,26.886Z" transform="translate(-4340.483 43.091)"/><path class="a" d="M4478.251-6.376c-7.542-33.431-62.735-34.3-44.971-4.612Z" transform="translate(-4340.948 44.205)"/><path class="a" d="M4468.676-3.362a5.678,5.678,0,0,1,4.267-6.8,5.62,5.62,0,0,1,6.2,3.077A6.278,6.278,0,0,1,4488-1.63c12.814-3.378,16.014,17.678,2.724,18.191a6.362,6.362,0,0,1-9.218,6.466,4.642,4.642,0,1,1-3.473-7.272c.439-2.156-.156-3.176,1.927-3.966C4478.621,8.692,4469.346-.259,4468.676-3.362Z" transform="translate(-4336.911 46.508)"/><path class="a" d="M4461.057-17.234c12.1,4.031,23.407,15.218,20.366,26.914,4.88.425,7.548,4.478,6.048,7.976-.911,2.123-3.18,3.6-7.219,2.734,0,0-4.39,7.262-15.2,9.512v5.92l-11.109.2v-5.6a33.772,33.772,0,0,1-6.066-1.151C4424.419,23.138,4428.457-28.091,4461.057-17.234Z" transform="translate(-4340.618 45.627)"/><path class="a" d="M4432.53,1.71c-6.069-1.37-4.237-8.119-2.313-11.255-7.865-12.784,16.649-23.225,21.889-11.138,1.379-1.238,4.983-1.641,6.7-1.157a7.366,7.366,0,0,1,5.333,5.592,3.861,3.861,0,0,1,5.211,4.1A3.869,3.869,0,0,1,4465-8.827a3.87,3.87,0,0,1-2.622-1.555c-3.874,7.256-15.283,6.323-20.71,5.27C4440.553-2.033,4439.6,3.306,4432.53,1.71Z" transform="translate(-4341.094 44.868)"/><path class="a" d="M4463.081-1.991v0Z" transform="translate(-4337.479 47.372)"/><path class="a" d="M4446.943-1.991v0Z" transform="translate(-4339.16 47.372)"/><path class="a" d="M4463.3,14.519s-2.339,4.6-13.381,2.158" transform="translate(-4338.85 49.091)"/><g class="a" transform="translate(189.013 159.104)"><circle class="c" cx="1.622" cy="1.622" r="1.622"/><circle class="d" cx="1.622" cy="1.622" r="0.622"/></g><g class="a" transform="translate(29.704 219.712)"><circle class="c" cx="1.622" cy="1.622" r="1.622"/><circle class="d" cx="1.622" cy="1.622" r="0.622"/></g><g transform="translate(62.393 151.882)"><g transform="translate(0.824)"><line class="a" x2="1.217" y2="1.651"/><line class="a" x2="1.217" y2="1.651" transform="translate(3.41 4.624)"/></g><g transform="translate(0 0.823)"><line class="a" y1="1.217" x2="1.651" transform="translate(0 3.41)"/><line class="a" y1="1.217" x2="1.651" transform="translate(4.624)"/></g></g><path class="b" d="M4362.285,175.472l2.856,2.392-2.208,2.636" transform="translate(-4347.977 65.854)"/><path class="b" d="M4539.656,123.814l-1.86,3.227,2.979,1.717" transform="translate(-4329.698 60.474)"/><path class="b" d="M4374.95,122.655l1.573,3.377-3.117,1.452" transform="translate(-4346.819 60.353)"/><path class="b" d="M4543.7,198.453l-3.21,1.89,1.744,2.963" transform="translate(-4329.417 68.247)"/><path class="a" d="M4534.847,175.955c0,36.326-23.849,54.918-64.068,54.918s-69.957-18.592-69.957-54.918,27.9-63.139,67.013-63.139S4534.847,139.63,4534.847,175.955Z" transform="translate(-4343.964 59.328)"/><g transform="translate(28.145 162.347)"><path class="a" d="M4440.791,137.6l-9.737-18.791s-21.238,14.767-31.246,21.542a13.247,13.247,0,0,0-5.744,9.544l-7.741,49.758,11.968-1.071,10.516-36.9a11.327,11.327,0,0,1,4.926-6.873Z" transform="translate(-4373.619 -102.395)"/><path class="a" d="M4431.49,135.837c-10.285,6.97-11.687,7.5-15.778,12.244s-6.112,17.3-6.424,23.893-4.492,46.38-4.492,46.38,7.612-2.075,12.642-4.01c1.863-16.466,7.364-37.248,9.413-44.9.846-3.158,1.3-5.7,4.615-6.59s7.4-2.86,15.694-8.463l.641-.477C4441.642,147.39,4437.225,143.219,4431.49,135.837Z" transform="translate(-4371.695 -100.621)"/><path class="a" d="M4491.158,103.943H4436.22c-1.008,4.105-4.978,10.765-10.614,13.422,1.435,3.3,5.022,10.728,6.331,13.426-1.671,1.032-4.243,3.278-6.331,4.336,10.648,13.28,11.841,13.84,22.515,26.18C4492.3,142.068,4497.854,141.689,4491.158,103.943Z" transform="translate(-4369.528 -103.943)"/><path class="a" d="M4387.52,192.126s-9.343,3.883-12.28,10.269c-1.352,2.938.7,6.339,3.889,5.806l17.612-2.678c2.566-.251,3.932-2.8,4.195-5.1s-1.447-9.368-1.447-9.368Z" transform="translate(-4374.818 -94.871)"/><path class="b" d="M4431.356,129.9c9.131-5.252,12.744-7.251,18.277-17.088" transform="translate(-4368.929 -103.019)"/><path class="a" d="M4452.4,103.943" transform="translate(-4366.737 -103.943)"/><path class="a" d="M4405.705,210.948s-7.381,4.507-9.461,11.483a4.175,4.175,0,0,0,5.255,5.178l17.089-5.42a4.837,4.837,0,0,0,3.967-5.472c-.2-2.4-4.209-9.779-4.209-9.779Z" transform="translate(-4372.604 -93.216)"/><path class="b" d="M4402.716,212.992a5.89,5.89,0,0,0,6.127,1.749" transform="translate(-4371.912 -92.586)"/><path class="b" d="M4462.616,108.308A11.558,11.558,0,0,0,4474.9,119" transform="translate(-4365.673 -103.488)"/><path class="b" d="M4477.219,111.016l-.191,6.332" transform="translate(-4364.172 -103.206)"/><path class="b" d="M4476.417,121.091l-2.495,3.454" transform="translate(-4364.496 -102.157)"/><path class="b" d="M4468.831,128.7l-5.16,2.535" transform="translate(-4365.563 -101.365)"/><path class="b" d="M4457.861,133.711l-6.135,2.346" transform="translate(-4366.808 -100.843)"/><path class="b" d="M4446.091,138.129l-5.926,2.317" transform="translate(-4368.012 -100.383)"/></g><path class="a" d="M4558.2,32.769c4.966.443,12.151-2.5,13.512-1.048s-.267,7.146-1.934,9.867a25.6,25.6,0,0,1-13.951,2.926,17.486,17.486,0,0,1-7.045-2.214c-6.481,1.634-30.686,5.829-35.867,5.053-5.211,2.663-18.517,6.526-22.213,4.472-9.306-5.167.552-15.025.552-15.025,5.407-1.157,18.568-2.065,21.509-3.624,4.107-2.177,27.312-.866,31.049-.7,1.625.072,3.249.2,4.874.261,2.3.083,3.99-1.525,5.834-2.7,3.173-2.023,9.659-4.072,10.912-2.955,1.655,1.476-.366,4.154-4.72,5.675" transform="translate(-4335.019 50.366)"/><path class="a" d="M4363.331,36.192c-4.957.539-12.2-2.26-13.532-.785s.408,7.139,2.128,9.827a25.6,25.6,0,0,0,14.005,2.653,17.5,17.5,0,0,0,7-2.35c6.513,1.507,30.795,5.229,35.958,4.353,5.263,2.561,14.767,3.914,22.624,5.258,4.627-8.862.708-17.535.708-17.535-5.429-1.051-20.484-.4-23.455-1.9-4.149-2.1-27.323-.335-31.056-.1-1.624.1-3.244.265-4.869.356-2.293.127-4.018-1.448-5.886-2.587-3.212-1.961-9.724-4.308-11.132-2.448-1.219,1.61,2.05,4.016,5.387,5.321" transform="translate(-4349.327 50.73)"/><path class="a" d="M4442.884,33.119c-17.94-.569-32.669,0-32.669,0L4409.106,53.3s16.688,4.056,25.145,7.63" transform="translate(-4343.101 51.002)"/><path class="a" d="M4496.623,114.292c-23.7-1-64.29-2.638-65.405-2.681,8-35.186-7.372-50.14,6.043-76.957,2.263-4.523,31.836-3.258,42.507-3.511C4500.369,30.657,4483.658,85.566,4496.623,114.292Z" transform="translate(-4340.798 50.822)"/><path class="a" d="M4474.953,34.233c6.5-6.9,31.241-2.183,31.241-2.183V52.228a267.025,267.025,0,0,1-26.025,8.948" transform="translate(-4336.243 50.753)"/><path class="b" d="M4498.351,139.178c8.724,7.754,13.391,16.272,14.768,33.478" transform="translate(-4333.806 62.074)"/><path class="b" d="M4432.476,188.512c2.779,7.742,15.939,15.888,29.638,18.344" transform="translate(-4340.667 67.212)"/><path class="b" d="M4384.817,193.729a5.173,5.173,0,0,0,6.273,2.054" transform="translate(-4345.63 67.755)"/></g></g></svg>