<svg xmlns="http://www.w3.org/2000/svg" width="107.921" height="72.987" viewBox="0 0 107.921 72.987">
  <g id="Geo" transform="translate(-927 -2805.622)">
    <g id="Group_2634" data-name="Group 2634" transform="translate(-3560.894 591.722)">
      <g id="Group_2633" data-name="Group 2633">
        <circle id="Ellipse_354" data-name="Ellipse 354" cx="24.606" cy="24.606" r="24.606" transform="translate(4517.354 2219.132)" stroke-width="2" stroke="#0073ff" stroke-linecap="round" stroke-linejoin="round" fill="none"/>
        <path id="Path_1630" data-name="Path 1630" d="M4558.145,2218.449a30.012,30.012,0,0,1-31.776,50.919" fill="none" stroke="#0073ff" stroke-linecap="round" stroke-linejoin="round" stroke-width="2"/>
        <line id="Line_1656" data-name="Line 1656" x1="4.971" y2="7.964" transform="translate(4524.249 2264.794)" fill="none" stroke="#0073ff" stroke-linecap="round" stroke-linejoin="round" stroke-width="2"/>
        <path id="Path_1631" data-name="Path 1631" d="M4555.28,2223.048" fill="none" stroke="#0073ff" stroke-linecap="round" stroke-linejoin="round" stroke-width="2"/>
        <line id="Line_1657" data-name="Line 1657" x1="4.85" y2="7.769" transform="translate(4555.28 2215.278)" fill="none" stroke="#0073ff" stroke-linecap="round" stroke-linejoin="round" stroke-width="2"/>
        <g id="Group_2632" data-name="Group 2632">
          <line id="Line_1658" data-name="Line 1658" x1="0.087" y2="6.433" transform="translate(4539.493 2273.627)" fill="none" stroke="#0073ff" stroke-linecap="round" stroke-linejoin="round" stroke-width="2"/>
          <line id="Line_1659" data-name="Line 1659" x1="0.087" y2="6.433" transform="translate(4544.341 2273.627)" fill="none" stroke="#0073ff" stroke-linecap="round" stroke-linejoin="round" stroke-width="2"/>
        </g>
        <path id="Rectangle_1012" data-name="Rectangle 1012" d="M5.04,0H12.9a5.04,5.04,0,0,1,5.04,5.04v0a0,0,0,0,1,0,0H0a0,0,0,0,1,0,0v0A5.04,5.04,0,0,1,5.04,0Z" transform="translate(4532.992 2280.847)" fill="none" stroke="#0073ff" stroke-linecap="round" stroke-linejoin="round" stroke-width="2"/>
        <path id="Path_1632" data-name="Path 1632" d="M4529.543,2223.446c.443-.608,1.462-.1,1.754.595s.262,1.521.708,2.126a3.235,3.235,0,0,0,1.732.979l5.637,1.769,1.433.449,1.989.624a11.417,11.417,0,0,0,3.79.732,13.255,13.255,0,0,0,4.058-1.109c1.283-.475,3.255-1.6,4.141-.223a14.765,14.765,0,0,1,1.8,6.367,7.306,7.306,0,0,1-2.475,6.309,5.1,5.1,0,0,0-1.319-2.369,8.166,8.166,0,0,1-1.567-2.238,2.321,2.321,0,0,1,.417-2.545l-2.916,1.373c-1.348.636-2.885,1.529-3,3.015a2.334,2.334,0,0,1,2.115,1.631,2.476,2.476,0,0,1-.407,2.049c-.383.642-.624,1.3-.995,1.979-.412.756-.5.595-1.2.866a2.78,2.78,0,0,0-1.943,2.411c-.029.695.22,1.377.21,2.072s-.43,1.489-1.125,1.519c-.627.027-1.094-.57-1.355-1.141a3.334,3.334,0,0,0-1-1.563c-.91-.584-2.176.215-2.533,1.237a7.8,7.8,0,0,0-.036,3.217,3.428,3.428,0,0,1-.87,2.992,3.974,3.974,0,0,1-2.888.506c-.716-.059-2.063-.5-2.513.24-.46.751.416,1.619.642,2.278a1.809,1.809,0,0,1-3.013,1.842,9.4,9.4,0,0,0-1.331-2.677,3.181,3.181,0,0,0-2.575-1.308,1.952,1.952,0,0,0-1.858,1.949" fill="none" stroke="#0073ff" stroke-linecap="round" stroke-linejoin="round" stroke-width="2"/>
        <path id="Path_1633" data-name="Path 1633" d="M4550.4,2242.4a4.822,4.822,0,0,1-1.459,3.482" fill="none" stroke="#0073ff" stroke-linecap="round" stroke-linejoin="round" stroke-width="2"/>
        <path id="Path_1634" data-name="Path 1634" d="M4544.654,2253.933a3.4,3.4,0,0,1,2.149-1.2,5.22,5.22,0,0,0,1.807-1.014,2.663,2.663,0,0,0,.613-2.754" fill="none" stroke="#0073ff" stroke-linecap="round" stroke-linejoin="round" stroke-width="2"/>
        <path id="Path_1635" data-name="Path 1635" d="M4538.541,2260.523a1.726,1.726,0,0,0,1.72,2.2" fill="none" stroke="#0073ff" stroke-linecap="round" stroke-linejoin="round" stroke-width="2"/>
        <path id="Path_1636" data-name="Path 1636" d="M4544.324,2263.054a3.5,3.5,0,0,1,2.893,1.119" fill="none" stroke="#0073ff" stroke-linecap="round" stroke-linejoin="round" stroke-width="2"/>
        <path id="Path_1637" data-name="Path 1637" d="M4555.507,2224.326a2.818,2.818,0,0,0,.854,3.046c.795.8,1.819,1.336,2.609,2.137a5.544,5.544,0,0,1,1.034,6.109,26.548,26.548,0,0,1,1.3-4.6" fill="none" stroke="#0073ff" stroke-linecap="round" stroke-linejoin="round" stroke-width="2"/>
      </g>
      <line id="Line_1660" data-name="Line 1660" x2="33.511" transform="translate(4561.304 2285.888)" fill="none" stroke="#0073ff" stroke-linecap="round" stroke-linejoin="round" stroke-width="2"/>
      <line id="Line_1661" data-name="Line 1661" x2="33.511" transform="translate(4488.894 2285.888)" fill="none" stroke="#0073ff" stroke-linecap="round" stroke-linejoin="round" stroke-width="2"/>
    </g>
  </g>
</svg>
