<svg xmlns="http://www.w3.org/2000/svg" xmlns:xlink="http://www.w3.org/1999/xlink" width="79.473" height="86.496" viewBox="0 0 79.473 86.496">
  <defs>
    <linearGradient id="linear-gradient" x1="0.5" y1="0.935" x2="0.5" y2="0.014" gradientUnits="objectBoundingBox">
      <stop offset="0" stop-color="#ef4058"/>
      <stop offset="0.461" stop-color="#b14b71"/>
      <stop offset="0.589" stop-color="#3760a1"/>
      <stop offset="1" stop-color="#0f67b1"/>
    </linearGradient>
  </defs>
  <g id="GosUslugi" transform="translate(-5029.572 -2601.737)">
    <g id="Group_2641" data-name="Group 2641" transform="translate(5029.572 2648.07)">
      <g id="Group_2640" data-name="Group 2640" transform="translate(0 0)">
        <path id="Path_1674" data-name="Path 1674" d="M5061.8,2662.5h-7.959a.1.1,0,0,0-.1.1,46.919,46.919,0,0,1-1.867,10.711v.1l.1.1h2.751c.1,0,.1,0,.1-.1a38.135,38.135,0,0,0,1.572-8.353h2.653v8.254a.1.1,0,0,0,.1.1h2.653a.1.1,0,0,0,.1-.1l-.1-10.809h0m33.8,0h-2.653a.1.1,0,0,0-.1.1v8.255a5.447,5.447,0,0,1-1.768.2c-1.769,0-2.162-.491-2.162-2.849v-5.7a.1.1,0,0,0-.1-.1h-2.653a.1.1,0,0,0-.1.1v6.092c0,3.734,1.276,5.208,4.52,5.208a14.736,14.736,0,0,0,5.11-.983.1.1,0,0,0,.1-.1V2662.6c0-.1-.1-.1-.2-.1m-55.222,0h-2.653c-.1,0-.1,0-.1.1a66.02,66.02,0,0,1-2.358,7.271l-2.751-7.271a.1.1,0,0,0-.1-.1h-2.751a.1.1,0,0,0-.1.1v.1l4.028,10.907a14.358,14.358,0,0,1-1.178,2.162c-.295.491-.492.982-.787,1.473v.1l.1.1h2.948c.1,0,.1,0,.1-.1.491-.982,1.081-2.26,1.67-3.635a85.766,85.766,0,0,0,3.931-11.2h0m9.532,8.353h0a.3.3,0,0,0-.2-.1,10.75,10.75,0,0,1-2.654.393c-1.768,0-2.653-.491-2.653-3.243,0-2.259.3-3.242,2.653-3.242a9.422,9.422,0,0,1,2.162.295c.1,0,.1,0,.2-.1.295-.589.688-1.277,1.081-2.063v-.1l-.1-.1a13.844,13.844,0,0,0-3.439-.491c-3.832,0-5.5,1.769-5.5,5.8,0,4.127,1.671,5.9,5.5,5.9a11.883,11.883,0,0,0,3.734-.589c.1,0,.1-.1.1-.2l-.884-2.161m24.761-8.353h-2.653c-.1,0-.1,0-.1.1a65.579,65.579,0,0,1-2.358,7.271l-2.653-7.271a.1.1,0,0,0-.1-.1h-2.85a.1.1,0,0,0-.1.1v.1l4.029,10.907a14.353,14.353,0,0,1-1.18,2.162c-.295.491-.491.982-.786,1.473v.1l.1.1h2.947c.1,0,.1,0,.1-.1.491-.982,1.082-2.26,1.671-3.635a81.12,81.12,0,0,0,3.93-11.2h0m9.728,0h-7.665a.1.1,0,0,0-.1.1v10.711a.1.1,0,0,0,.1.1h2.653a.1.1,0,0,0,.1-.1v-8.254h4.029c.1,0,.1,0,.1-.1.294-.687.589-1.473.982-2.26v-.1c-.1-.1-.1-.1-.2-.1" transform="translate(-5029.571 -2662.111)" fill="#ef4058"/>
      </g>
    </g>
    <g id="Group_2643" data-name="Group 2643" transform="translate(5029.572 2632.253)">
      <g id="Group_2642" data-name="Group 2642" transform="translate(0 0)">
        <path id="Path_1675" data-name="Path 1675" d="M5043.426,2641.5c-3.733,0-5.208,1.573-5.208,5.8s1.474,5.8,5.208,5.8c3.833,0,5.306-1.671,5.306-5.8,0-4.225-1.473-5.8-5.306-5.8m0,9.138c-1.67,0-2.26-.491-2.26-3.341,0-3.145.589-3.341,2.26-3.341s2.26.3,2.26,3.341c.1,2.948-.491,3.341-2.26,3.341m15.721-.393h0a.3.3,0,0,0-.2-.1,10.792,10.792,0,0,1-2.653.393c-1.769,0-2.653-.491-2.653-3.243,0-2.26.295-3.243,2.653-3.243a9.4,9.4,0,0,1,2.162.295c.1,0,.1,0,.2-.1.295-.59.688-1.277,1.08-2.063v-.1l-.1-.1a13.832,13.832,0,0,0-3.439-.491c-3.832,0-5.5,1.769-5.5,5.8,0,4.127,1.671,5.9,5.5,5.9a11.883,11.883,0,0,0,3.734-.59c.1,0,.1-.1.1-.2l-.886-2.162m-21.715-8.451h-7.762a.1.1,0,0,0-.1.1V2652.6a.1.1,0,0,0,.1.1h2.653a.1.1,0,0,0,.1-.1v-8.254h4.028c.1,0,.1,0,.1-.1.3-.688.59-1.474.983-2.26v-.1a.1.1,0,0,0-.1-.1" transform="translate(-5029.571 -2641.501)" fill="#0f67b1"/>
      </g>
    </g>
    <path id="Path_1676" data-name="Path 1676" d="M5099.772,2616.039l-20.129-11.621a20.011,20.011,0,0,0-20.009,0l-20.128,11.622a19.953,19.953,0,0,0-6.653,6.266.791.791,0,0,0,.658,1.228h5.911a.782.782,0,0,0,.538-.218,13.736,13.736,0,0,1,2.616-1.96l20.129-11.622a13.9,13.9,0,0,1,13.87,0l20.13,11.622a13.908,13.908,0,0,1,6.934,12.012v23.243a13.91,13.91,0,0,1-6.934,12.012l-20.13,11.622a13.907,13.907,0,0,1-13.87,0l-20.129-11.622a13.812,13.812,0,0,1-2.616-1.959.777.777,0,0,0-.537-.219h-5.912a.792.792,0,0,0-.658,1.229,19.954,19.954,0,0,0,6.653,6.265l20.128,11.622a20.064,20.064,0,0,0,20.009,0l20.129-11.622a20.009,20.009,0,0,0,10-17.329v-23.243A20.011,20.011,0,0,0,5099.772,2616.039Z" transform="translate(-0.732)" fill="url(#linear-gradient)"/>
  </g>
</svg>
