<svg xmlns="http://www.w3.org/2000/svg" width="25.098" height="19.13" viewBox="0 0 25.098 19.13"><defs><style>.a{fill:none;stroke:#fff;stroke-linecap:round;stroke-linejoin:round;}</style></defs><g transform="translate(-4330.183 -3327.17)"><path class="a" d="M4343.8,3345.9h-11.195a1.925,1.925,0,0,0-1.926,1.926v6a1.925,1.925,0,0,0,1.926,1.926h.6v3.146l2.907-3.146h7.688a1.926,1.926,0,0,0,1.926-1.926v-6A1.926,1.926,0,0,0,4343.8,3345.9Z" transform="translate(0 -13.094)"/><line class="a" x2="8.951" transform="translate(4333.548 3335.936)"/><line class="a" x2="8.951" transform="translate(4333.548 3337.785)"/><line class="a" x2="8.951" transform="translate(4333.548 3339.908)"/><path class="a" d="M4362.808,3331.407V3329.6a1.926,1.926,0,0,1,1.926-1.926h11.194a1.926,1.926,0,0,1,1.926,1.926v5.995a1.926,1.926,0,0,1-1.926,1.926h-.6v3.147l-2.906-3.147H4370.5" transform="translate(-23.073)"/><line class="a" x1="8.951" transform="translate(4342.965 3330.8)"/><line class="a" x1="4.658" transform="translate(4347.258 3332.649)"/><line class="a" x1="4.658" transform="translate(4347.258 3334.772)"/></g></svg>