<svg xmlns="http://www.w3.org/2000/svg" width="69.201" height="75.631" viewBox="0 0 69.201 75.631"><g transform="translate(-1143.65 -11575.668)"><g transform="translate(1150.52 11594.838)"><path d="M6467.8,4784.94c0,2.357-3.053,4.283-3.634,6.458-.6,2.25,1.062,5.44-.078,7.41-1.156,2-4.762,2.146-6.383,3.767s-1.77,5.228-3.767,6.383c-1.969,1.14-5.161-.524-7.409.078-2.175.581-4.1,3.634-6.459,3.634s-4.284-3.053-6.458-3.634c-2.25-.6-5.44,1.062-7.411-.079-2-1.155-2.144-4.761-3.767-6.382s-5.227-1.769-6.382-3.767c-1.14-1.971.523-5.161-.078-7.411-.581-2.175-3.634-4.1-3.634-6.458s3.053-4.284,3.634-6.458c.6-2.25-1.062-5.439.078-7.411,1.157-2,4.762-2.145,6.383-3.766s1.769-5.227,3.767-6.383c1.969-1.141,5.159.522,7.409-.078,2.175-.581,4.1-3.635,6.458-3.635s4.284,3.054,6.459,3.635c2.25.6,5.44-1.062,7.409.078,2,1.156,2.146,4.761,3.768,6.383s5.227,1.768,6.382,3.767c1.14,1.97-.523,5.16.078,7.41C6464.749,4780.656,6467.8,4782.582,6467.8,4784.94Z" transform="translate(-6412.34 -4757.209)" fill="none" stroke="#0073ff" stroke-linecap="round" stroke-linejoin="round" stroke-width="2"/><ellipse cx="18.459" cy="18.459" rx="18.459" ry="18.459" transform="translate(9.272 9.271)" stroke-width="2" stroke="#0073ff" stroke-linecap="round" stroke-linejoin="round" fill="none"/><g transform="translate(16.598 19.913)"><path d="M6438.853,4791.082c-3.356-3.356-6.663,1.292-11.116,0v-13.816c4.584,1.192,8.468-4.1,11.116,0Z" transform="translate(-6427.736 -4775.68)" fill="none" stroke="#0073ff" stroke-linecap="round" stroke-linejoin="round" stroke-width="2"/><path d="M6438.077,4791.082c3.355-3.356,6.662,1.292,11.116,0v-13.816c-4.586,1.192-8.469-4.1-11.116,0Z" transform="translate(-6426.93 -4775.68)" fill="none" stroke="#0073ff" stroke-linecap="round" stroke-linejoin="round" stroke-width="2"/></g></g><g transform="translate(1144.65 11576.667)"><path d="M6444.236,4762.161c2.25.6,5.441-1.062,7.411.077,2,1.157,2.145,4.762,3.766,6.384a7.815,7.815,0,0,0,2.7,1.485l13.262-29.751h-20.3l-9.38,20.273A7.49,7.49,0,0,0,6444.236,4762.161Z" transform="translate(-6404.177 -4740.355)" fill="none" stroke="#0073ff" stroke-linecap="round" stroke-linejoin="round" stroke-width="2"/><path d="M6422.861,4768.621c1.622-1.622,1.769-5.227,3.767-6.383,1.969-1.139,5.159.525,7.41-.077a7.488,7.488,0,0,0,2.535-1.533l-9.38-20.273h-20.3l13.262,29.751A7.812,7.812,0,0,0,6422.861,4768.621Z" transform="translate(-6406.895 -4740.355)" fill="none" stroke="#0073ff" stroke-linecap="round" stroke-linejoin="round" stroke-width="2"/></g></g></svg>