<svg xmlns="http://www.w3.org/2000/svg" xmlns:xlink="http://www.w3.org/1999/xlink" width="197.692" height="152.239" viewBox="0 0 197.692 152.239"><defs><clipPath id="a"><path d="M5769.073,4235.365s-10.762-3.632-35.823-14.8c-11.115,34.221,18.068,48.771,24.815,50.22C5762.979,4252.664,5769.073,4235.365,5769.073,4235.365Z" fill="none"/></clipPath></defs><g transform="translate(-638.602 -12398)"><g transform="translate(696.384 12402.162)" fill="#fff" stroke="#0073ff" stroke-linecap="round" stroke-linejoin="round" stroke-width="2"><circle cx="1.469" cy="1.469" r="1.469" stroke="none"/><circle cx="1.469" cy="1.469" r="0.469" fill="none"/></g><g transform="translate(812.831 12448.266)" fill="#fff" stroke="#0073ff" stroke-linecap="round" stroke-linejoin="round" stroke-width="2"><circle cx="1.469" cy="1.469" r="1.469" stroke="none"/><circle cx="1.469" cy="1.469" r="0.469" fill="none"/></g><g transform="translate(-5068.041 8256.125)"><line x2="1.103" y2="1.495" transform="translate(5864.548 4145.658)" stroke-width="2" stroke="#0073ff" stroke-linecap="round" stroke-linejoin="round" fill="#fff"/><line x2="1.103" y2="1.495" transform="translate(5867.637 4149.845)" stroke-width="2" stroke="#0073ff" stroke-linecap="round" stroke-linejoin="round" fill="#fff"/><line y1="1.103" x2="1.495" transform="translate(5863.803 4149.492)" stroke-width="2" stroke="#0073ff" stroke-linecap="round" stroke-linejoin="round" fill="#fff"/><line y1="1.103" x2="1.495" transform="translate(5867.99 4146.403)" stroke-width="2" stroke="#0073ff" stroke-linecap="round" stroke-linejoin="round" fill="#fff"/></g><g transform="translate(-5068.041 8256.125)"><line x2="0.385" y2="0.522" transform="translate(5708.301 4227.7)" stroke-width="2" stroke="#0073ff" stroke-linecap="round" stroke-linejoin="round" fill="#fff"/><line x2="0.385" y2="0.522" transform="translate(5709.38 4229.163)" stroke-width="2" stroke="#0073ff" stroke-linecap="round" stroke-linejoin="round" fill="#fff"/><line y1="0.385" x2="0.522" transform="translate(5708.041 4229.04)" stroke-width="2" stroke="#0073ff" stroke-linecap="round" stroke-linejoin="round" fill="#fff"/><line y1="0.385" x2="0.522" transform="translate(5709.504 4227.96)" stroke-width="2" stroke="#0073ff" stroke-linecap="round" stroke-linejoin="round" fill="#fff"/></g><path d="M5731.637,4160.911l3.089-1.356-1.252-2.852" transform="translate(-5068.041 8256.125)" fill="none" stroke="#0073ff" stroke-linecap="round" stroke-linejoin="round" stroke-width="2"/><path d="M5886.147,4151.34l-.237,3.366,3.106.219" transform="translate(-5068.041 8256.125)" fill="none" stroke="#0073ff" stroke-linecap="round" stroke-linejoin="round" stroke-width="2"/><g transform="translate(-5068.041 8256.125)"><path d="M5815.431,4201.813l35.084-17.542V4210.9c0,6.166-15.707,11.164-35.084,11.164s-35.084-5-35.084-11.164v-26.628Z" fill="none" stroke="#0073ff" stroke-linecap="round" stroke-linejoin="round" stroke-width="2"/><path d="M5869.485,4169.9l-54.054,27.027-54.054-27.027,54.054-27.027Z" fill="none" stroke="#0073ff" stroke-linecap="round" stroke-linejoin="round" stroke-width="2"/><path d="M5869.485,4174.755l-54.054,27.027-54.054-27.027" fill="none" stroke="#0073ff" stroke-linecap="round" stroke-linejoin="round" stroke-width="2"/><path d="M5815.537,4170.951l28.1,13.061-.161,42.41" fill="none" stroke="#0073ff" stroke-linecap="round" stroke-linejoin="round" stroke-width="2"/><path d="M5839.216,4237.731l4.257-11.309,4.257,11.309-1.276,1.016a4.783,4.783,0,0,1-5.962,0Z" fill="none" stroke="#0073ff" stroke-linecap="round" stroke-linejoin="round" stroke-width="2"/></g><g transform="translate(-5068.041 8256.125)"><path d="M0,0H12.2a0,0,0,0,1,0,0V29.627a6.1,6.1,0,0,1-6.1,6.1h0a6.1,6.1,0,0,1-6.1-6.1V0A0,0,0,0,1,0,0Z" transform="translate(5803.107 4239.737)" fill="none" stroke="#0073ff" stroke-linecap="round" stroke-linejoin="round" stroke-width="2"/><line x2="20.207" transform="translate(5799.102 4239.737)" stroke-width="2" stroke="#0073ff" stroke-linecap="round" stroke-linejoin="round" fill="none"/><line x2="3.497" transform="translate(5803.175 4249.094)" stroke-width="2" stroke="#0073ff" stroke-linecap="round" stroke-linejoin="round" fill="none"/><line x2="3.497" transform="translate(5803.175 4253.465)" stroke-width="2" stroke="#0073ff" stroke-linecap="round" stroke-linejoin="round" fill="none"/><line x2="3.497" transform="translate(5803.175 4257.837)" stroke-width="2" stroke="#0073ff" stroke-linecap="round" stroke-linejoin="round" fill="none"/><line x2="3.497" transform="translate(5803.175 4262.208)" stroke-width="2" stroke="#0073ff" stroke-linecap="round" stroke-linejoin="round" fill="none"/><line x2="3.497" transform="translate(5803.175 4266.58)" stroke-width="2" stroke="#0073ff" stroke-linecap="round" stroke-linejoin="round" fill="none"/><line x2="21.443" transform="translate(5803.376 4244.745)" stroke-width="2" stroke="#0073ff" stroke-linecap="round" stroke-linejoin="round" fill="none"/><path d="M1.134,0H27.9a0,0,0,0,1,0,0V5.113a0,0,0,0,1,0,0H1.134A1.134,1.134,0,0,1,0,3.979V1.134A1.134,1.134,0,0,1,1.134,0Z" transform="translate(5796.919 4279.209)" fill="none" stroke="#0073ff" stroke-linecap="round" stroke-linejoin="round" stroke-width="2"/><line y2="51.073" transform="translate(5824.819 4233.25)" stroke-width="2" stroke="#0073ff" stroke-linecap="round" stroke-linejoin="round" fill="none"/><circle cx="2.905" cy="2.905" r="2.905" transform="translate(5821.915 4241.84)" fill="none" stroke="#0073ff" stroke-linecap="round" stroke-linejoin="round" stroke-width="2"/></g><g transform="translate(-5068.041 8256.125)"><path d="M5887.336,4284.323h-27.011a3.69,3.69,0,0,1-3.562-4.653l8.488-31.386v-15.1a4.6,4.6,0,0,0-.431-1.944l-1.368-2.552h20.735l-1.368,2.552a4.6,4.6,0,0,0-.431,1.944v14.449l8.514,32.049A3.69,3.69,0,0,1,5887.336,4284.323Z" fill="none" stroke="#0073ff" stroke-linecap="round" stroke-linejoin="round" stroke-width="2"/><line x2="27.265" transform="translate(5860.198 4228.692)" stroke-width="2" stroke="#0073ff" stroke-linecap="round" stroke-linejoin="round" fill="none"/><path d="M5862.135,4259.806a12.982,12.982,0,0,1,5.888-1.143c3.836,0,6.331,2.656,10.364,2.656a21.364,21.364,0,0,0,7.283-1.328" fill="none" stroke="#0073ff" stroke-linecap="round" stroke-linejoin="round" stroke-width="2"/><circle cx="3.007" cy="3.007" r="3.007" transform="translate(5866.479 4264.23)" fill="none" stroke="#0073ff" stroke-linecap="round" stroke-linejoin="round" stroke-width="2"/><circle cx="2.15" cy="2.15" r="2.15" transform="translate(5878.039 4267.901)" fill="none" stroke="#0073ff" stroke-linecap="round" stroke-linejoin="round" stroke-width="2"/><circle cx="1.552" cy="1.552" r="1.552" transform="translate(5874.849 4276.358)" fill="none" stroke="#0073ff" stroke-linecap="round" stroke-linejoin="round" stroke-width="2"/></g><path d="M5901.471,4284.323H5713.738a1.826,1.826,0,0,0-1.863,1.787v5.217a1.826,1.826,0,0,0,1.863,1.787h187.733a1.826,1.826,0,0,0,1.863-1.787v-5.217A1.826,1.826,0,0,0,5901.471,4284.323Z" transform="translate(-5068.041 8256.125)" fill="none" stroke="#0073ff" stroke-linecap="round" stroke-linejoin="round" stroke-width="2"/><g transform="translate(-5068.041 8256.125)"><g clip-path="url(#a)"><circle cx="33.68" cy="33.68" r="33.68" transform="translate(5735.393 4201.686)" fill="none" stroke="#0073ff" stroke-linecap="round" stroke-linejoin="round" stroke-width="2"/><circle cx="28.8" cy="28.8" r="28.8" transform="translate(5740.272 4206.564)" fill="none" stroke="#0073ff" stroke-linecap="round" stroke-linejoin="round" stroke-width="2"/></g><rect width="63.412" height="8.296" rx="1.133" transform="translate(5787.084 4284.323) rotate(-180)" stroke-width="2" stroke="#0073ff" stroke-linecap="round" stroke-linejoin="round" fill="none"/><path d="M5751.287,4267.855a33.884,33.884,0,0,1-10.087,3.611v3.459a1.238,1.238,0,0,0,1.313,1.1h34.059a1.228,1.228,0,0,0,1.314-1.1v-22.283a1.217,1.217,0,0,0-1.314-1.1h-4.5" fill="none" stroke="#0073ff" stroke-linecap="round" stroke-linejoin="round" stroke-width="2"/><line y2="8.007" transform="translate(5771.967 4248.406)" stroke-width="2" stroke="#0073ff" stroke-linecap="round" stroke-linejoin="round" fill="none"/><rect width="37.761" height="18.008" transform="matrix(-0.485, -0.874, 0.874, -0.485, 5754.09, 4234.629)" stroke-width="2" stroke="#0073ff" stroke-linecap="round" stroke-linejoin="round" fill="none"/><rect width="9.496" height="10.729" transform="matrix(-0.485, -0.874, 0.874, -0.485, 5738.947, 4199.846)" stroke-width="2" stroke="#0073ff" stroke-linecap="round" stroke-linejoin="round" fill="none"/><rect width="5.231" height="11.737" transform="matrix(-0.485, -0.874, 0.874, -0.485, 5759.37, 4237.681)" stroke-width="2" stroke="#0073ff" stroke-linecap="round" stroke-linejoin="round" fill="none"/><line x1="16.823" y2="9.337" transform="translate(5730.618 4184.271)" stroke-width="2" stroke="#0073ff" stroke-linecap="round" stroke-linejoin="round" fill="none"/><circle cx="9.111" cy="9.111" r="9.111" transform="translate(5732.99 4210.401)" fill="none" stroke="#0073ff" stroke-linecap="round" stroke-linejoin="round" stroke-width="2"/><circle cx="5.34" cy="5.34" r="5.34" transform="translate(5736.761 4214.173)" fill="none" stroke="#0073ff" stroke-linecap="round" stroke-linejoin="round" stroke-width="2"/><line y2="7.484" transform="translate(5766.991 4250.896)" stroke-width="2" stroke="#0073ff" stroke-linecap="round" stroke-linejoin="round" fill="none"/><line x1="13.194" y2="6.603" transform="translate(5762.142 4246.72)" stroke-width="2" stroke="#0073ff" stroke-linecap="round" stroke-linejoin="round" fill="none"/><line x1="18.885" y2="9.451" transform="translate(5756.451 4243.075)" stroke-width="2" stroke="#0073ff" stroke-linecap="round" stroke-linejoin="round" fill="none"/><circle cx="6.35" cy="6.35" r="6.35" transform="translate(5756.147 4259.979)" fill="none" stroke="#0073ff" stroke-linecap="round" stroke-linejoin="round" stroke-width="2"/></g></g></svg>