<svg xmlns="http://www.w3.org/2000/svg" width="325.507" height="277.483" viewBox="0 0 325.507 277.483"><g transform="translate(-1054 -12013.389)"><path d="M6710.844,4806.929c-4.931,3.741-15.637,16.779-19.107,18.134-4.848,1.892-13.08,14.523-16.562,16.928-1.7,1.171-5.7,5.251-7.636,3.753-1.819-1.4-9.246-.37-11.146,4.407h13.634v12.184c3.37-2.09,7.411-3.241,8.7-8.438,6.123-4.3,21.8-13.384,24.925-18.345,6.067-2.475,14.3-9.386,21.287-14.933C6721,4810.141,6710.844,4806.929,6710.844,4806.929Z" transform="translate(-5518.167 7302.008)" fill="#fff" stroke="#0073ff" stroke-linecap="round" stroke-linejoin="round" stroke-width="2"/><path d="M6841.941,4866.911c3.394,2.2,6.562,5.489,6.324,7.7s-9.3,6.559-12.824,7.129a21.625,21.625,0,0,1-12.21-10.407c-1.064-2.136-1.586-6.011-2.318-9.162-6.117-4.311-28.742-20.438-31.863-25.4-6.063-2.482-17.5-11.386-18.455-16.024-2.4-11.671,15.21-11.342,15.21-11.342,8.021,3.731,12.81,12.868,16.572,15.533,4.247,3.005,21.17,22.554,23.756,25.847,1.125,1.432,2.2,2.906,3.336,4.327,1.6,2.01,3.7,2.276,6.045,2.984,4.032,1.216,11.79,5.572,11.755,7.453-.044,2.483-7.567,2.1-11.834-1.24" transform="translate(-5491.262 7302.592)" fill="#fff" stroke="#0073ff" stroke-linecap="round" stroke-linejoin="round" stroke-width="2"/><path d="M6716.486,4770.694c-13.3,0-7.307,15.982,1.789,10.059C6716.876,4777.188,6717.252,4774.5,6716.486,4770.694Z" transform="translate(-5505.811 7293.455)" fill="#fff" stroke="#0073ff" stroke-linecap="round" stroke-linejoin="round" stroke-width="2"/><path d="M6760.129,4770.476c13.228-1.344,8.885,15.162-.764,10.188C6760.4,4776.977,6759.75,4774.344,6760.129,4770.476Z" transform="translate(-5493.859 7293.385)" fill="#fff" stroke="#0073ff" stroke-linecap="round" stroke-linejoin="round" stroke-width="2"/><path d="M6772.129,4771.481a17.5,17.5,0,0,0,.111-1.978,20.5,20.5,0,0,0-6.155-14.388,19.274,19.274,0,0,0-11.927-7.169,33.86,33.86,0,0,0-10.137-1.544c-.341,0-.682.01-1.023.02-.342-.01-.683-.02-1.024-.02a33.853,33.853,0,0,0-10.136,1.544,19.274,19.274,0,0,0-11.928,7.169,20.5,20.5,0,0,0-6.156,14.388,17.5,17.5,0,0,0,.111,1.978c-1.088,12.854,4.475,26.723,16.563,29.888,1.619.42,2.942.742,4.277.964V4810h16.583v-7.664c1.334-.222,2.658-.543,4.277-.964C6767.654,4798.2,6773.216,4784.335,6772.129,4771.481Z" transform="translate(-5504.632 7287.72)" fill="#fff" stroke="#0073ff" stroke-linecap="round" stroke-linejoin="round" stroke-width="2"/><path d="M6744.357,4767.637v0Z" transform="translate(-5497.402 7292.733)" fill="#fff" stroke="#0073ff" stroke-linecap="round" stroke-linejoin="round" stroke-width="2"/><path d="M6727.22,4767.637v0Z" transform="translate(-5501.447 7292.733)" fill="#fff" stroke="#0073ff" stroke-linecap="round" stroke-linejoin="round" stroke-width="2"/><path d="M6746.177,4782.146s-5.824,2.905-14.979.563" transform="translate(-5500.509 7296.158)" fill="#fff" stroke="#0073ff" stroke-linecap="round" stroke-linejoin="round" stroke-width="2"/><g transform="translate(1246.349 12273.498)"><path d="M6766.361,4940.062s9.4,2.313,13.983,9.053a4.673,4.673,0,0,1-3.855,7.3h-26.25a5.417,5.417,0,0,1-6.086-4.5c-.6-2.625-.071-11.859-.071-11.859Z" transform="translate(-6743.866 -4940.062)" fill="#fff" stroke="#0073ff" stroke-linecap="round" stroke-linejoin="round" stroke-width="2"/><path d="M6766.719,4941.744c-.976,2.322-2,6.729-10.155,6.729" transform="translate(-6740.87 -4939.666)" fill="none" stroke="#0073ff" stroke-linecap="round" stroke-linejoin="round" stroke-width="2"/></g><g transform="translate(1200.673 12273.498)"><path d="M6718.1,4940.062s-7.541,1.625-10.478,8.807c-1.42,3.471-.813,7.55,2.937,7.55h21.19a5.418,5.418,0,0,0,6.086-4.5c.6-2.625.07-11.859.07-11.859Z" transform="translate(-6706.914 -4940.062)" fill="#fff" stroke="#0073ff" stroke-linecap="round" stroke-linejoin="round" stroke-width="2"/><path d="M6710.883,4943.492c4.142,4.755,10.285,5.144,18.952-3.429" transform="translate(-6705.977 -4940.062)" fill="none" stroke="#0073ff" stroke-linecap="round" stroke-linejoin="round" stroke-width="2"/></g><path d="M6711.109,4764.915s-.758,7.962,1.13,10.514a17.265,17.265,0,0,0,5.127,4.247s-1.4-7.293.384-10.7,6.041.491,6.119-1.137c.163-3.359,3.8-4.6,6.44-6.092,4.144-2.338,8.441.724,6.861,4.158,4.167,3.776,6.005-.816,11.366-3.739,6.779-3.694,8.071,1.811,6.118,4.533,3.678,2.6,5.562.438,9.647-.231,7.023-1.149.477,7.15,4.385,10.373,6.844-.4,9.594-8.145,5.1-14.416-3.558-4.974-13.483-11.466-29.9-11.466S6713.065,4757.619,6711.109,4764.915Z" transform="translate(-5505.287 7288.795)" fill="#fff" stroke="#0073ff" stroke-linecap="round" stroke-linejoin="round" stroke-width="2"/><g transform="translate(1201.177 12014.389)"><path d="M21,0H47.773a21,21,0,0,1,21,21V34.571a0,0,0,0,1,0,0H0a0,0,0,0,1,0,0V21A21,21,0,0,1,21,0Z" transform="translate(3.045)" fill="#fff" stroke="#0073ff" stroke-linecap="round" stroke-linejoin="round" stroke-width="2"/><path d="M6744.753,4759.8c14.7,0,27.456,4.218,33.832,10.4a2.1,2.1,0,0,0,3.6-1.384v-.046c0-10.492-16.757-19-37.429-19s-37.431,8.5-37.431,19v.047a2.1,2.1,0,0,0,3.6,1.383C6717.3,4764.02,6730.051,4759.8,6744.753,4759.8Z" transform="translate(-6707.322 -4725.874)" fill="#fff" stroke="#0073ff" stroke-linecap="round" stroke-linejoin="round" stroke-width="2"/></g><g transform="translate(1319.885 12143.76)"><path d="M6861.241,4844.99l-5.182,3.668-2.506,1.774-1.27.9-4.2-1.934-.427-4.605,1.271-.9,2.506-1.774,5.182-3.669-7.28-3.348-10.316,7.3.651,7.024-36.308,25.7,5.59,7.9,36.307-25.7,6.41,2.948,10.315-7.3Z" transform="translate(-6803.359 -4835.102)" fill="#fff" stroke="#0073ff" stroke-linecap="round" stroke-linejoin="round" stroke-width="2"/><line x1="6.743" y1="3.102" transform="translate(40.549 21.599)" stroke-width="2" stroke="#0073ff" stroke-linecap="round" stroke-linejoin="round" fill="none"/><line x2="0.685" y2="7.39" transform="translate(35.775 8.433)" stroke-width="2" stroke="#0073ff" stroke-linecap="round" stroke-linejoin="round" fill="none"/></g><path d="M6815.482,4842.882c1.125,1.432,2.475,3.392,3.611,4.814,1.606,2.008,5.531,2.19,7.756,3.22,3.877,1.8,13.445,7.47,11,9.107-2.884,1.933-8.938.314-14.815-4.656" transform="translate(-5480.613 7310.496)" fill="#fff" stroke="#0073ff" stroke-linecap="round" stroke-linejoin="round" stroke-width="2"/><path d="M6796.489,4836.288l20.79-17.141s-21.506-20.7-41.511-21.131a12.969,12.969,0,0,0-3.023-.658c-9.822-.6-33.174-.95-44.431,1.266l-.006-.048c-25.561-3.556-36,18.406-36,18.406l13.45,19.752a83.859,83.859,0,0,0,10.379-3.79c1.183,15.3,6.223,31.082,2.9,55.469,1.247.048,34.456-.062,60.988,1.054.364.009,2.233-61.4,1.868-61.412C6790.25,4834.628,6796.489,4836.288,6796.489,4836.288Z" transform="translate(-5509.688 7299.642)" fill="#fff" stroke="#0073ff" stroke-linecap="round" stroke-linejoin="round" stroke-width="2"/><path d="M6774.094,4832.755a4.51,4.51,0,0,1-4.51-4.51v-27.1a4.592,4.592,0,0,0-4.592-4.592h-8.518v31.7a4.51,4.51,0,0,1-4.51,4.51h-15.11a4.51,4.51,0,0,1-4.51-4.51v-31.7h-8.518a4.592,4.592,0,0,0-4.592,4.592v25.827c0,2.49-3.336,4.656-4.51,4.97s-3.288.852-3.288,2.854v139.15h29.251v-67.3h7.443v67.3h29.251V4832.755Z" transform="translate(-5505.173 7299.558)" fill="#fff" stroke="#0073ff" stroke-linecap="round" stroke-linejoin="round" stroke-width="2"/><path d="M6723.707,4849.042l3.052-11.2a6.426,6.426,0,0,1,6.2-4.734h18.424a6.426,6.426,0,0,1,6.227,4.842l2.82,11.088" transform="translate(-5502.277 7308.189)" fill="#fff" stroke="#0073ff" stroke-linecap="round" stroke-linejoin="round" stroke-width="2"/><path d="M6752.591,4869.929s-1.969,15.669,15.093,17.309" transform="translate(-5495.475 7316.88)" fill="#fff" stroke="#0073ff" stroke-linecap="round" stroke-linejoin="round" stroke-width="2"/><path d="M6726.53,4869.929s1.967,15.669-15.094,17.309" transform="translate(-5505.173 7316.88)" fill="#fff" stroke="#0073ff" stroke-linecap="round" stroke-linejoin="round" stroke-width="2"/><g transform="translate(1055 12182.72)"><g transform="translate(24.856 14.081)"><rect width="14.121" height="92.915" transform="translate(95.01)" stroke-width="2" stroke="#0073ff" stroke-linecap="round" stroke-linejoin="round" fill="#fff"/><rect width="14.121" height="92.915" stroke-width="2" stroke="#0073ff" stroke-linecap="round" stroke-linejoin="round" fill="#fff"/></g><rect width="14.121" height="158.844" transform="translate(0 14.121) rotate(-90)" stroke-width="2" stroke="#0073ff" stroke-linecap="round" stroke-linejoin="round" fill="#fff"/></g><g transform="translate(1079.215 12098.811)"><g transform="translate(61.471)" fill="#fff" stroke="#0073ff" stroke-linecap="round" stroke-linejoin="round" stroke-width="2"><circle cx="1.815" cy="1.815" r="1.815" stroke="none"/><circle cx="1.815" cy="1.815" r="0.815" fill="none"/></g><g transform="translate(21.371 8.226)" fill="#fff" stroke="#0073ff" stroke-linecap="round" stroke-linejoin="round" stroke-width="2"><circle cx="1.815" cy="1.815" r="1.815" stroke="none"/><circle cx="1.815" cy="1.815" r="0.815" fill="none"/></g><g transform="translate(63.286 33.109)"><g transform="translate(0.922)"><line x2="1.363" y2="1.848" fill="#fff" stroke="#0073ff" stroke-linecap="round" stroke-linejoin="round" stroke-width="2"/><line x2="1.363" y2="1.848" transform="translate(3.817 5.177)" stroke-width="2" stroke="#0073ff" stroke-linecap="round" stroke-linejoin="round" fill="#fff"/></g><g transform="translate(0 0.922)"><line y1="1.363" x2="1.848" transform="translate(0 3.817)" stroke-width="2" stroke="#0073ff" stroke-linecap="round" stroke-linejoin="round" fill="#fff"/><line y1="1.363" x2="1.848" transform="translate(5.177)" stroke-width="2" stroke="#0073ff" stroke-linecap="round" stroke-linejoin="round" fill="#fff"/></g></g><path d="M6663.974,4817.58l-4.123-.627.58-3.806" transform="translate(-6596.565 -4795.334)" fill="none" stroke="#0073ff" stroke-linecap="round" stroke-linejoin="round" stroke-width="2"/><path d="M6647.778,4806.563l1.24,3.981,3.675-1.145" transform="translate(-6599.415 -4796.889)" fill="none" stroke="#0073ff" stroke-linecap="round" stroke-linejoin="round" stroke-width="2"/><path d="M6614.554,4811.032l.8,4.093-3.778.737" transform="translate(-6607.962 -4795.834)" fill="none" stroke="#0073ff" stroke-linecap="round" stroke-linejoin="round" stroke-width="2"/><path d="M6610.724,4849.23l1.515-3.886-3.587-1.4" transform="translate(-6608.651 -4788.064)" fill="none" stroke="#0073ff" stroke-linecap="round" stroke-linejoin="round" stroke-width="2"/><path d="M6661.363,4843.079v-6.192h-10.4v6.192h-31.734v30.56H6678.8v-30.56Z" transform="translate(-6606.156 -4789.731)" fill="none" stroke="#0073ff" stroke-linecap="round" stroke-linejoin="round" stroke-width="2"/><line y2="6.193" transform="translate(37.207 47.155)" stroke-width="2" stroke="#0073ff" stroke-linecap="round" stroke-linejoin="round" fill="none"/><path d="M6634.592,4846.4a7.812,7.812,0,1,0-8.3-11.212c-1.094,2.175-.82,5.324,1.343,6.438,1.851.952,4.1.01,5.822-1.161,2.9-1.977,5.479-5,5.44-8.512-.038-3.315-2.537-6.28-5.617-7.509a14.34,14.34,0,0,0-9.74.108,21.918,21.918,0,0,0-13.437,13" transform="translate(-6608.309 -4792.858)" fill="none" stroke="#0073ff" stroke-linecap="round" stroke-linejoin="round" stroke-width="2"/><path d="M6646.218,4848.222h4.771a4,4,0,0,1,4,4v5.468a4,4,0,0,1-4,4h-4.771" transform="translate(-6599.783 -4787.055)" fill="none" stroke="#0073ff" stroke-linecap="round" stroke-linejoin="round" stroke-width="2"/></g><g transform="translate(1074.765 12203.924)"><circle cx="42.896" cy="42.896" r="42.896" fill="#fff" stroke="#0073ff" stroke-linecap="round" stroke-linejoin="round" stroke-width="2"/><path d="M6630.279,4953.064A36.778,36.778,0,0,1,6611.222,4911" transform="translate(-6603.872 -4877.35)" fill="#fff" stroke="#0073ff" stroke-linecap="round" stroke-linejoin="round" stroke-width="2"/><path d="M6656.716,4901.221a29.94,29.94,0,0,1,7,31.966" transform="translate(-6592.855 -4879.658)" fill="#fff" stroke="#0073ff" stroke-linecap="round" stroke-linejoin="round" stroke-width="2"/><circle cx="23.707" cy="23.707" r="23.707" transform="translate(19.188 19.189)" fill="#fff" stroke="#0073ff" stroke-linecap="round" stroke-linejoin="round" stroke-width="2"/><circle cx="3.913" cy="3.913" r="3.913" transform="translate(38.982 38.982)" fill="#fff" stroke="#0073ff" stroke-linecap="round" stroke-linejoin="round" stroke-width="2"/><g transform="translate(25.545 24.762)"><circle cx="2.767" cy="2.767" r="2.767" transform="translate(14.583)" fill="#fff" stroke="#0073ff" stroke-linecap="round" stroke-linejoin="round" stroke-width="2"/><circle cx="2.767" cy="2.767" r="2.767" transform="translate(29.166 10.51)" fill="#fff" stroke="#0073ff" stroke-linecap="round" stroke-linejoin="round" stroke-width="2"/><circle cx="2.767" cy="2.767" r="2.767" transform="translate(23.658 27.768)" fill="#fff" stroke="#0073ff" stroke-linecap="round" stroke-linejoin="round" stroke-width="2"/><circle cx="2.767" cy="2.767" r="2.767" transform="translate(5.508 27.768)" fill="#fff" stroke="#0073ff" stroke-linecap="round" stroke-linejoin="round" stroke-width="2"/><circle cx="2.767" cy="2.767" r="2.767" transform="translate(0 10.51)" fill="#fff" stroke="#0073ff" stroke-linecap="round" stroke-linejoin="round" stroke-width="2"/><circle cx="2.767" cy="2.767" r="2.767" transform="translate(14.583)" fill="#fff" stroke="#0073ff" stroke-linecap="round" stroke-linejoin="round" stroke-width="2"/></g></g><g transform="translate(1101.174 12160.562)"><path d="M6641.665,4854.893l-1.088-1.286a2.259,2.259,0,0,0-1.726-.8h-9.62a2.261,2.261,0,0,0-1.727.8l-1.088,1.286" transform="translate(-6626.417 -4847.724)" fill="none" stroke="#0073ff" stroke-linecap="round" stroke-linejoin="round" stroke-width="2"/><path d="M6641.665,4859l-1.088-1.287a2.261,2.261,0,0,0-1.726-.8h-9.62a2.264,2.264,0,0,0-1.727.8l-1.088,1.287" transform="translate(-6626.417 -4846.752)" fill="none" stroke="#0073ff" stroke-linecap="round" stroke-linejoin="round" stroke-width="2"/><path d="M6641.665,4850.781l-1.088-1.286a2.26,2.26,0,0,0-1.726-.8h-9.62a2.263,2.263,0,0,0-1.727.8l-1.088,1.286" transform="translate(-6626.417 -4848.694)" fill="none" stroke="#0073ff" stroke-linecap="round" stroke-linejoin="round" stroke-width="2"/></g><path d="M6672.507,4850.785s-4.771,3.586-6.619,3.09-2.437-1.895-1.2-3.358,4.948-2.724,6.284-5.124" transform="translate(-5516.363 7311.089)" fill="#fff" stroke="#0073ff" stroke-linecap="round" stroke-linejoin="round" stroke-width="2"/></g></svg>