<svg xmlns="http://www.w3.org/2000/svg" width="107.921" height="60.499" viewBox="0 0 107.921 60.499"><g transform="translate(-906 -22199)"><line x2="14.341" transform="translate(998.58 22258.498)" stroke-width="2" stroke="#0073ff" stroke-linecap="round" stroke-linejoin="round" fill="none"/><g transform="translate(975.666 22199)" fill="none" stroke="#0073ff" stroke-linecap="round" stroke-linejoin="round" stroke-width="2"><circle cx="1.469" cy="1.469" r="1.469" stroke="none"/><circle cx="1.469" cy="1.469" r="0.469" fill="none"/></g><g transform="translate(921.341 22229.893)" fill="none" stroke="#0073ff" stroke-linecap="round" stroke-linejoin="round" stroke-width="2"><circle cx="1.469" cy="1.469" r="1.469" stroke="none"/><circle cx="1.469" cy="1.469" r="0.469" fill="none"/></g><path d="M4486.907,5181.7l1.754.5.458-1.619" transform="translate(-3551.07 17019.773)" fill="none" stroke="#0073ff" stroke-linecap="round" stroke-linejoin="round" stroke-width="2"/><path d="M4553.448,5218.332l-2,.414.383,1.845" transform="translate(-3551.07 17019.773)" fill="none" stroke="#0073ff" stroke-linecap="round" stroke-linejoin="round" stroke-width="2"/><g transform="translate(-3551.07 17019.773)"><line y2="7.072" transform="translate(4538.675 5199.271)" stroke-width="2" stroke="#0073ff" stroke-linecap="round" stroke-linejoin="round" fill="none"/><line x2="6.124" y2="3.536" transform="translate(4535.613 5201.04)" stroke-width="2" stroke="#0073ff" stroke-linecap="round" stroke-linejoin="round" fill="none"/><line x1="6.124" y2="3.536" transform="translate(4535.613 5201.04)" stroke-width="2" stroke="#0073ff" stroke-linecap="round" stroke-linejoin="round" fill="none"/></g><path d="M4490.789,5203.3a3.382,3.382,0,1,1-6.763,0c0-2.6,3.381-4.76,3.381-6.166C4487.407,5198.54,4490.789,5200.7,4490.789,5203.3Z" transform="translate(-3551.07 17019.773)" fill="none" stroke="#0073ff" stroke-linecap="round" stroke-linejoin="round" stroke-width="2"/><g transform="translate(-3551.07 17019.773)"><path d="M4514.872,5224.094c0,6.1-4.05,10.644-10.149,10.644s-10.149-4.545-10.149-10.644,10.149-17.193,10.149-17.193S4514.872,5218,4514.872,5224.094Z" fill="none" stroke="#0073ff" stroke-linecap="round" stroke-linejoin="round" stroke-width="2"/><line y2="31.554" transform="translate(4504.724 5206.901)" stroke-width="2" stroke="#0073ff" stroke-linecap="round" stroke-linejoin="round" fill="none"/><line y1="5.003" x2="6.319" transform="translate(4504.724 5223.217)" stroke-width="2" stroke="#0073ff" stroke-linecap="round" stroke-linejoin="round" fill="none"/><line y1="3.103" x2="3.919" transform="translate(4504.724 5218.26)" stroke-width="2" stroke="#0073ff" stroke-linecap="round" stroke-linejoin="round" fill="none"/><line x1="6.319" y1="5.003" transform="translate(4498.404 5223.217)" stroke-width="2" stroke="#0073ff" stroke-linecap="round" stroke-linejoin="round" fill="none"/><line x1="3.919" y1="3.103" transform="translate(4500.804 5218.26)" stroke-width="2" stroke="#0073ff" stroke-linecap="round" stroke-linejoin="round" fill="none"/></g><g transform="translate(-3551.07 17019.773)"><line y1="2.665" transform="translate(4481.041 5235.79)" stroke-width="2" stroke="#0073ff" stroke-linecap="round" stroke-linejoin="round" fill="none"/><line y1="2.665" transform="translate(4492.555 5235.79)" stroke-width="2" stroke="#0073ff" stroke-linecap="round" stroke-linejoin="round" fill="none"/><line y1="6.844" transform="translate(4486.798 5231.61)" stroke-width="2" stroke="#0073ff" stroke-linecap="round" stroke-linejoin="round" fill="none"/></g><g transform="translate(-3551.07 17019.773)"><path d="M4530.122,5224.641a3.7,3.7,0,1,1-3.7-3.7A3.685,3.685,0,0,1,4530.122,5224.641Z" fill="none" stroke="#0073ff" stroke-linecap="round" stroke-linejoin="round" stroke-width="2"/><path d="M4529.886,5222.269l1.325-3.454-3.062,2.565" fill="none" stroke="#0073ff" stroke-linecap="round" stroke-linejoin="round" stroke-width="2"/><path d="M4522.961,5222.269l-1.325-3.454,3.063,2.565" fill="none" stroke="#0073ff" stroke-linecap="round" stroke-linejoin="round" stroke-width="2"/><path d="M4536.674,5236.172s3.654,1.84,5.563-.769c2.214-3.026-2.348-5.357.033-8.294" fill="none" stroke="#0073ff" stroke-linecap="round" stroke-linejoin="round" stroke-width="2"/><path d="M4524.619,5228.75v6.938a1.579,1.579,0,0,0-1.743,1.51c0,1.249.45,1.527,1.833,1.527h5.413" fill="none" stroke="#0073ff" stroke-linecap="round" stroke-linejoin="round" stroke-width="2"/><path d="M4529.192,5227.094c2.371,0,7.708,5.13,7.489,8.987" fill="none" stroke="#0073ff" stroke-linecap="round" stroke-linejoin="round" stroke-width="2"/><path d="M4530.917,5233.211a2.448,2.448,0,0,0-2.225,2.373v.779a2.257,2.257,0,0,0,2.5,2.362h3.042c1.963,0,2.435-.374,2.435-2.234" fill="none" stroke="#0073ff" stroke-linecap="round" stroke-linejoin="round" stroke-width="2"/></g><line x2="14.341" transform="translate(907 22258.498)" stroke-width="2" stroke="#0073ff" stroke-linecap="round" stroke-linejoin="round" fill="none"/><g transform="translate(-3551.07 17019.773)"><circle cx="4.279" cy="4.279" r="4.279" transform="translate(4508.139 5185.694)" fill="none" stroke="#0073ff" stroke-linecap="round" stroke-linejoin="round" stroke-width="2"/><line y1="4.432" transform="translate(4512.417 5181.262)" stroke-width="2" stroke="#0073ff" stroke-linecap="round" stroke-linejoin="round" fill="none"/><line y1="4.432" transform="translate(4512.417 5194.251)" stroke-width="2" stroke="#0073ff" stroke-linecap="round" stroke-linejoin="round" fill="none"/><line x1="4.432" transform="translate(4503.707 5189.973)" stroke-width="2" stroke="#0073ff" stroke-linecap="round" stroke-linejoin="round" fill="none"/><line x1="4.432" transform="translate(4516.696 5189.973)" stroke-width="2" stroke="#0073ff" stroke-linecap="round" stroke-linejoin="round" fill="none"/><line x1="3.134" y1="3.134" transform="translate(4506.258 5183.813)" stroke-width="2" stroke="#0073ff" stroke-linecap="round" stroke-linejoin="round" fill="none"/><line x1="3.134" y1="3.134" transform="translate(4515.443 5192.999)" stroke-width="2" stroke="#0073ff" stroke-linecap="round" stroke-linejoin="round" fill="none"/><line x1="3.134" y2="3.134" transform="translate(4506.258 5192.999)" stroke-width="2" stroke="#0073ff" stroke-linecap="round" stroke-linejoin="round" fill="none"/><line x1="3.134" y2="3.134" transform="translate(4515.443 5183.813)" stroke-width="2" stroke="#0073ff" stroke-linecap="round" stroke-linejoin="round" fill="none"/></g><path d="M4498.723,5238.725H4513.6" transform="translate(-3551.07 17019.773)" fill="none" stroke="#0073ff" stroke-linecap="round" stroke-linejoin="round" stroke-width="2"/></g></svg>