<svg xmlns="http://www.w3.org/2000/svg" width="1428.829" height="723.389" viewBox="0 0 1428.829 723.389"><g transform="translate(-239.171 -187.137)"><path d="M65.734,35.717l.943.118c3.889.589,6.363.943,10.134,5.656a1.279,1.279,0,0,0,1.061.471,1.567,1.567,0,0,0,.943-.354,1.471,1.471,0,0,0,.236-2c-4.478-5.539-7.9-6.01-11.9-6.717l-.943-.118c-3.771-.589-8.367-4.478-11.431-7.542,4.124,1.061,8.249,1.885,8.6,2a46.279,46.279,0,0,0,5.421.354q7.07,0,9.545-3.182a5.917,5.917,0,0,0,.943-5.421c-.943-3.535-2.828-6.01-5.656-7.07-6.835-2.828-16.733,3.3-17.2,3.535a42.921,42.921,0,0,1-6.363,3.535l-.118-.118c-.471-.354-11.195-7.9-18.03-5.774a7.15,7.15,0,0,0-4.478,4.36c0,.118-1.3,2.946.354,5.421,1.532,2.121,4.714,3.064,9.545,2.593a36.55,36.55,0,0,0,8.013-1.65C41.931,27.35,35.332,33.36,28.5,35.834a22.474,22.474,0,0,1-3.3.825c-4.478.943-10.016,2-11.195,10.959a1.291,1.291,0,0,0,1.178,1.532h.236a1.4,1.4,0,0,0,1.414-1.178c.943-6.953,4.6-7.66,8.956-8.6a19.625,19.625,0,0,0,3.771-.943c6.6-2.357,12.609-7.542,16.5-11.313L42.048,41.019a11.39,11.39,0,0,0-6.246.825c-12.138,5.3-15.909,27.1-16.144,28.046-1.3,10.016,0,17.44,3.771,22.036a11.243,11.243,0,0,0,7.542,4.242h.118a10.757,10.757,0,0,0,8.131-3.417c5.421-6.01,4.007-17.912,4.007-18.383-1.061-11.9,2.121-15.791,3.417-17.323.118-.236.354-.354.354-.471a23.154,23.154,0,0,0,2-3.535,30.569,30.569,0,0,0,2,3.535c.118.118.236.354.354.471,1.178,1.532,4.478,5.421,3.417,17.323-.118.471-1.414,12.373,4.007,18.383a10.4,10.4,0,0,0,8.131,3.417h.118a11.243,11.243,0,0,0,7.542-4.242c3.771-4.6,5.067-12.02,3.771-22.036-.118-.943-4.007-22.743-15.909-27.693a11.044,11.044,0,0,0-6.363-.825L51.947,26.878C55.482,30.178,61.021,35.009,65.734,35.717ZM57.957,17.923c.118,0,9.074-5.539,14.612-3.3,2,.825,3.3,2.475,4.007,5.421a3.021,3.021,0,0,1-.471,2.828c-.943,1.061-3.771,2.828-12.255,1.65-.118,0-7.542-1.532-12.255-3.064A31.533,31.533,0,0,0,57.957,17.923ZM37.1,22.754c-4.949.354-6.481-.707-6.953-1.414a2.942,2.942,0,0,1,0-2.71,4.612,4.612,0,0,1,2.71-2.828,9.159,9.159,0,0,1,1.885-.236c4.007,0,9.309,2.828,12.373,4.714A34.454,34.454,0,0,1,37.1,22.754ZM40.4,74.6s.118,1.061.118,2.475l-6.481-5.656,6.246-3.064A57.219,57.219,0,0,0,40.4,74.6Zm-1.885,4.36a12.011,12.011,0,0,1-7.9,1.414A13.01,13.01,0,0,1,23.9,76.372l7.424-3.653Zm-16.38-4.714h0c.118-1.3.118-2.475.354-3.889,0-.118.354-1.768.943-4.242l5.539,4.714ZM37.217,90.866a7.09,7.09,0,0,1-6.01,2.475,8.4,8.4,0,0,1-5.539-3.3c-2.121-2.592-3.3-6.481-3.535-11.431a16.044,16.044,0,0,0,8.013,4.6,17.651,17.651,0,0,0,2.593.236A16.3,16.3,0,0,0,40.516,81.2C40.281,84.5,39.456,88.391,37.217,90.866Zm9.9-40.655a18.257,18.257,0,0,1-2.357,4.6c0,.118-.118.236-.236.354-1.061,1.178-3.182,3.889-3.889,9.9l-8.956,4.478-7.424-6.363c2-6.6,5.892-15.673,12.491-18.383a9.052,9.052,0,0,1,3.417-.707,9.1,9.1,0,0,1,1.768.236h0C42.166,44.319,48.058,45.733,47.116,50.211Zm2-4.36a10.582,10.582,0,0,0-4.478-3.771l4.478-15.555,4.36,15.555A9.642,9.642,0,0,0,49.119,45.851ZM75.633,70.244q.177,2.121.354,3.889h0l-6.835-3.417L74.69,66C75.28,68.594,75.633,70.244,75.633,70.244ZM74.1,76.49A13.839,13.839,0,0,1,67.384,80.5a12.129,12.129,0,0,1-7.9-1.414l7.188-6.128Zm-16.616.589A22.074,22.074,0,0,1,57.6,74.6a58.612,58.612,0,0,0,.236-6.128l6.246,3.064ZM72.451,90.041a8.4,8.4,0,0,1-5.539,3.3,7.9,7.9,0,0,1-6.128-2.475c-2.239-2.475-3.064-6.363-3.3-9.663a15.4,15.4,0,0,0,7.778,2.239,19.271,19.271,0,0,0,2.593-.236,16.044,16.044,0,0,0,8.013-4.6C75.751,83.56,74.69,87.449,72.451,90.041ZM61.374,44.672c6.481,2.71,10.37,11.784,12.491,18.383l-7.424,6.363L57.6,65.177c-.825-6.128-2.946-8.72-3.889-9.9-.118-.118-.236-.236-.236-.354a18.921,18.921,0,0,1-2.357-4.478c-.943-4.6,4.831-6.128,5.185-6.128h0A7.947,7.947,0,0,1,61.374,44.672Z" transform="translate(1458.362 766.831)" fill="#0073ff"/><g transform="translate(268.026 821)"><path d="M5.109,39.734c0-.1.1-.313.1-.417l.1-.313h0A4.345,4.345,0,0,1,9.282,36.4a8.894,8.894,0,0,1,2.4.313,2.968,2.968,0,0,0-.939-1.461,2.633,2.633,0,0,0-1.774-.626A1.349,1.349,0,0,1,7.4,33.369,1.545,1.545,0,0,1,8.656,31.7h.626c3.026,0,5.53,3.026,5.635,6.678a6.347,6.347,0,0,1,2.4,4.8,6.034,6.034,0,0,1-2.5,4.9h0a2.471,2.471,0,0,1-1.043.313,1.329,1.329,0,0,1-1.148-.522c-.626-.835,0-1.669.313-2.087a3.592,3.592,0,0,0,1.356-2.609,3.751,3.751,0,0,0-.209-1.148,5.49,5.49,0,0,1-4.8,3.235A4.442,4.442,0,0,1,4.9,41.091h0v-.313a2.3,2.3,0,0,1,.1-.835C5.109,39.839,5.109,39.839,5.109,39.734Zm4.278,2.609c1.148,0,2.087-1.043,2.5-2.4a6.3,6.3,0,0,0-2.5-.522A1.441,1.441,0,0,0,8.03,40.465a.782.782,0,0,0-.1.522A1.478,1.478,0,0,0,9.387,42.343Z" transform="translate(114.657 -8.849)" fill="#0073ff"/><path d="M122.512,23.72a6.2,6.2,0,0,1,2.922-4.487,6.382,6.382,0,0,1,5.53-.313A1.594,1.594,0,0,1,131.8,20.9a1.535,1.535,0,0,1-1.983.73,3.536,3.536,0,0,0-2.922.1,6.752,6.752,0,0,0-.939.835,5.407,5.407,0,0,1,5.217,2.5,4.43,4.43,0,0,1-1.565,6.052c-.209.1-.522.209-.73.313h-.417c-.1,0-.209.1-.313.1h-.313a4.3,4.3,0,0,1-4.278-2.191,9.906,9.906,0,0,1-.939-2.191A2.559,2.559,0,0,0,122.2,30.5a1.3,1.3,0,0,1-.313,1.983,1.665,1.665,0,0,1-.835.313,1.7,1.7,0,0,1-1.148-.522,1.832,1.832,0,0,0-.417-.522C118.026,29.25,119.278,25.6,122.512,23.72ZM126.165,28a1.422,1.422,0,0,0,1.983.522,1.665,1.665,0,0,0,.73-.939,2.169,2.169,0,0,0-.1-1.148,2.626,2.626,0,0,0-2.191-1.043,4.679,4.679,0,0,0-1.148.1A4.724,4.724,0,0,0,126.165,28Z" transform="translate(-118.881 -9.425)" fill="#0073ff"/><path d="M58.029,54.6a3.219,3.219,0,0,1,3.339.313c2.087-.73,13.773-5.113,18.991-6.991-.417-.835-.626-1.356-.73-1.565L79,44.686a1.466,1.466,0,0,1,.209-1.461,1.487,1.487,0,0,1,1.252-.626H91.941a6.769,6.769,0,0,0,6.782-6.782v-2.4a5.323,5.323,0,0,1,5.322-5.217,2.889,2.889,0,0,1,.939.1L115.835,30.5l9.078-2.191a5.2,5.2,0,0,1,4.487,1.356A4.567,4.567,0,0,1,130.757,33a4.734,4.734,0,0,1-3.235,4.487l-9.913,3.235a4.326,4.326,0,0,1-1.669.313h-6.052a.713.713,0,0,0-.73.73v6.052a1.682,1.682,0,0,0,.626,1.356L120.009,59.92a1.635,1.635,0,0,1,.313,1.669,1.477,1.477,0,0,1-1.461.939h-8.974a14.777,14.777,0,0,1-3.235-.313c-.417,6.261-1.774,23.164-1.774,23.895.626,4.174-1.67,11.165-1.774,11.373a1.8,1.8,0,0,1-1.252,1.043h-.209a1.784,1.784,0,0,1-1.356-.73c-1.252-1.878-5.008-8.139-3.861-11.269a3.752,3.752,0,0,1,.835-1.252c-.1-1.983-.835-24.1-.939-29.634a8.228,8.228,0,0,0-2.922-.417,3.217,3.217,0,0,1-1.043-.1C89.019,55.955,62.2,61.9,61.89,62.007a14.45,14.45,0,0,0-2.5,1.461c-1.774,1.148-3.235,2.191-4.591,2.191a2.492,2.492,0,0,1-.939-.209A2.243,2.243,0,0,1,52.6,63.572C52.5,61.9,55,55.851,58.029,54.6ZM99.349,87.78c-.209.73.417,2.817,1.774,5.322a20.392,20.392,0,0,0,.626-6.574v-.417c.417-5.739,1.669-21.077,1.878-25.147-.313-.209-.522-.313-.835-.522-.835-.626-1.565-1.252-2.3-1.878a4.086,4.086,0,0,0-1.043-.835c.209,7.2.835,24.834.939,28.486v.209A1.294,1.294,0,0,1,99.349,87.78ZM98.41,53.242h0c.209.1.313.1.417.209a5.086,5.086,0,0,0,.73.313c.209.1.313.209.522.313s.417.313.626.417c.1.1.209.1.313.209.73.522,1.356,1.148,1.983,1.669a12.437,12.437,0,0,0,1.878,1.565,11,11,0,0,0,1.148.73h0a8.605,8.605,0,0,0,3.965.835h5.426L107.7,51.364a4.969,4.969,0,0,1-1.461-3.548V41.765A3.852,3.852,0,0,1,110.1,37.9h6.052a1.323,1.323,0,0,0,.626-.1l9.913-3.235A1.567,1.567,0,0,0,127.835,33a1.676,1.676,0,0,0-.522-1.148,1.917,1.917,0,0,0-1.565-.522l-9.391,2.191c-.209,0-.417.1-.626,0L104.566,31.33a2.181,2.181,0,0,0-1.774.417,2.146,2.146,0,0,0-.835,1.565v2.4a9.976,9.976,0,0,1-9.913,9.913H82.863a13.39,13.39,0,0,0,1.252,2.087h0a11.147,11.147,0,0,0,3.548,3.13c.1,0,.1.1.209.1a6.153,6.153,0,0,1,.835.417c.1,0,.209.1.313.1l.939.313c.209,0,.313.1.522.1,0,.1.209.1.522.209a.782.782,0,0,1,.522.1c.209,0,.417.1.73.1.417,0,.835.1,1.252.1A11.491,11.491,0,0,1,98.41,53.242ZM82.237,50.529c-5.217,1.774-20.556,7.513-20.66,7.617a1.866,1.866,0,0,1-1.774-.417c-.313-.313-.417-.313-.522-.313-1.148.417-2.5,2.922-3.13,4.591.522-.313,1.148-.73,1.565-1.043a14.291,14.291,0,0,1,3.443-1.878l.417-.1c2.5-.522,16.278-3.652,24.416-5.426A12.279,12.279,0,0,1,82.237,50.529Z" transform="translate(-48.555 -9.001)" fill="#0073ff"/><path d="M83.678,26.182A7.09,7.09,0,0,1,78.565,24.1l-1.878-1.878A7.3,7.3,0,0,1,81.9,9.8a7.09,7.09,0,0,1,5.113,2.087L88.9,13.765a7.3,7.3,0,0,1-5.217,12.417Zm0-3.13a4.186,4.186,0,0,0,4.174-4.174A3.789,3.789,0,0,0,86.6,15.956l-1.878-1.878A4.387,4.387,0,0,0,81.8,12.826,4.186,4.186,0,0,0,77.626,17a3.789,3.789,0,0,0,1.252,2.922L80.756,21.8A4.12,4.12,0,0,0,83.678,23.052Z" transform="translate(-31.736 -9.8)" fill="#0073ff"/></g><path d="M45.975,16.228a1.594,1.594,0,0,0-1.982-.816l-9.677,4.547a1.418,1.418,0,0,0-1.049,1.516V44.094a8.791,8.791,0,0,0-7.928.583c-3.848,2.215-5.6,6.529-3.731,9.677a6.388,6.388,0,0,0,5.713,2.915,9.116,9.116,0,0,0,4.664-1.283c3.265-1.865,4.9-5.13,4.314-8.045V22.408l8.978-4.2A1.566,1.566,0,0,0,45.975,16.228ZM30.351,53.421C27.9,54.7,25.1,54.471,24.172,52.838c-.933-1.749.35-4.2,2.682-5.6a6.483,6.483,0,0,1,3.031-.933,3.547,3.547,0,0,1,3.031,1.516c.117.117.117.233.117.466v.7a1.479,1.479,0,0,0,.117.7A4.442,4.442,0,0,1,30.351,53.421Z" transform="translate(1621.938 235.231)" fill="#0073ff"/><path d="M49.3,41.73V17.406a2.183,2.183,0,0,0-.434-.869h0a.379.379,0,0,0-.217-.109l-.109-.109a1.777,1.777,0,0,0-1.3-.217L26.605,20.338a2.183,2.183,0,0,0-.869.434h0a.379.379,0,0,0-.109.217l-.109.109a1.777,1.777,0,0,0-.217,1.3V42.6a7.948,7.948,0,0,0-7.275.543,8.76,8.76,0,0,0-3.583,4.126,5.324,5.324,0,0,0,.217,5.1,6.33,6.33,0,0,0,4.452,2.823h.977A8.789,8.789,0,0,0,24.325,54a7.8,7.8,0,0,0,4.235-6.3.979.979,0,0,0,.109-.543V23.487L45.934,19.9V38.255a4.551,4.551,0,0,0-1.629-.434,8.773,8.773,0,0,0-9.013,5.321,5.324,5.324,0,0,0,.217,5.1,6.33,6.33,0,0,0,4.452,2.823h.977a11.365,11.365,0,0,0,4.452-1.194,8.76,8.76,0,0,0,3.583-4.126A6.416,6.416,0,0,0,49.3,41.73ZM22.7,51.285a5.07,5.07,0,0,1-3.258.652,2.315,2.315,0,0,1-1.955-1.194,2.382,2.382,0,0,1,0-2.28,7.155,7.155,0,0,1,2.28-2.5,6.038,6.038,0,0,1,2.823-.869c1.194,0,2.172.326,2.5,1.3C25.845,47.919,24.651,50.091,22.7,51.285Zm22.912-6.841a7.155,7.155,0,0,1-2.28,2.5,5.07,5.07,0,0,1-3.258.652A2.315,2.315,0,0,1,38.115,46.4a2.382,2.382,0,0,1,0-2.28,7.155,7.155,0,0,1,2.28-2.5,6.038,6.038,0,0,1,2.823-.869c.326,0,.543,0,.543.217a2.315,2.315,0,0,1,1.955,1.194A2.672,2.672,0,0,1,45.608,44.444Z" transform="translate(1551.109 283.845)" fill="#0073ff"/><g transform="matrix(0.883, 0.469, -0.469, 0.883, 1564.336, 696.202)"><g transform="translate(10.081 9.092)"><path d="M16.215,20.5a2.29,2.29,0,0,1-.865-.247L8.927,15.809a1.26,1.26,0,0,1-.618-.988,1.185,1.185,0,0,1,.247-1.112l4.076-5.682A1.508,1.508,0,0,1,15.1,9.756L11.892,14.2l5.188,3.582a1.456,1.456,0,0,1,.371,2.1A1.52,1.52,0,0,1,16.215,20.5Z" transform="translate(-8.261 -7.36)" fill="#0073ff"/></g><circle cx="16" cy="16" r="16" transform="translate(0.118 0.118)" fill="none"/></g><g transform="translate(1108.011 300.375) rotate(-124)"><g transform="translate(10.081 9.092)"><path d="M16.215,20.5a2.29,2.29,0,0,1-.865-.247L8.927,15.809a1.26,1.26,0,0,1-.618-.988,1.185,1.185,0,0,1,.247-1.112l4.076-5.682A1.508,1.508,0,0,1,15.1,9.756L11.892,14.2l5.188,3.582a1.456,1.456,0,0,1,.371,2.1A1.52,1.52,0,0,1,16.215,20.5Z" transform="translate(-8.261 -7.36)" fill="#0073ff"/></g><circle cx="16" cy="16" r="16" transform="translate(0.118 0.118)" fill="none"/></g><g transform="translate(270.439 511.33) rotate(-167)"><g transform="translate(10.081 9.092)"><path d="M16.215,20.5a2.29,2.29,0,0,1-.865-.247L8.927,15.809a1.26,1.26,0,0,1-.618-.988,1.185,1.185,0,0,1,.247-1.112l4.076-5.682A1.508,1.508,0,0,1,15.1,9.756L11.892,14.2l5.188,3.582a1.456,1.456,0,0,1,.371,2.1A1.52,1.52,0,0,1,16.215,20.5Z" transform="translate(-8.261 -7.36)" fill="#0073ff"/></g><circle cx="16" cy="16" r="16" transform="translate(0.118 0.118)" fill="none"/></g><g transform="translate(1462.725 344.734) rotate(-25)"><g transform="translate(7.412 7.412)"><g transform="translate(10.747 7.165)"><path d="M19.765,14.765H16.182a1.482,1.482,0,1,1,0-2.965h3.582a1.5,1.5,0,0,1,1.482,1.482A1.363,1.363,0,0,1,19.765,14.765Z" transform="translate(-14.7 -11.8)" fill="#0073ff"/></g><g transform="translate(0 7.165)"><path d="M11.188,14.765H7.606A1.532,1.532,0,0,1,6,13.282,1.5,1.5,0,0,1,7.482,11.8h3.582a1.5,1.5,0,0,1,1.482,1.482A1.332,1.332,0,0,1,11.188,14.765Z" transform="translate(-6 -11.8)" fill="#0073ff"/></g><g transform="translate(7.288)"><path d="M13.382,12.547A1.5,1.5,0,0,1,11.9,11.065V7.482A1.5,1.5,0,0,1,13.382,6a1.594,1.594,0,0,1,1.482,1.482v3.582A1.5,1.5,0,0,1,13.382,12.547Z" transform="translate(-11.9 -6)" fill="#0073ff"/></g><g transform="translate(7.288 10.747)"><path d="M13.382,21.247A1.5,1.5,0,0,1,11.9,19.765V16.182A1.5,1.5,0,0,1,13.382,14.7a1.594,1.594,0,0,1,1.482,1.482v3.582A1.5,1.5,0,0,1,13.382,21.247Z" transform="translate(-11.9 -14.7)" fill="#0073ff"/></g></g><ellipse cx="16" cy="16.5" rx="16" ry="16.5" transform="translate(0 -0.471)" fill="none"/></g><g transform="translate(333.79 432.867) rotate(47)"><g transform="translate(7.412 7.412)"><g transform="translate(10.747 7.165)"><path d="M19.765,14.765H16.182a1.482,1.482,0,1,1,0-2.965h3.582a1.5,1.5,0,0,1,1.482,1.482A1.363,1.363,0,0,1,19.765,14.765Z" transform="translate(-14.7 -11.8)" fill="#0073ff"/></g><g transform="translate(0 7.165)"><path d="M11.188,14.765H7.606A1.532,1.532,0,0,1,6,13.282,1.5,1.5,0,0,1,7.482,11.8h3.582a1.5,1.5,0,0,1,1.482,1.482A1.332,1.332,0,0,1,11.188,14.765Z" transform="translate(-6 -11.8)" fill="#0073ff"/></g><g transform="translate(7.288)"><path d="M13.382,12.547A1.5,1.5,0,0,1,11.9,11.065V7.482A1.5,1.5,0,0,1,13.382,6a1.594,1.594,0,0,1,1.482,1.482v3.582A1.5,1.5,0,0,1,13.382,12.547Z" transform="translate(-11.9 -6)" fill="#0073ff"/></g><g transform="translate(7.288 10.747)"><path d="M13.382,21.247A1.5,1.5,0,0,1,11.9,19.765V16.182A1.5,1.5,0,0,1,13.382,14.7a1.594,1.594,0,0,1,1.482,1.482v3.582A1.5,1.5,0,0,1,13.382,21.247Z" transform="translate(-11.9 -14.7)" fill="#0073ff"/></g></g><ellipse cx="16" cy="16.5" rx="16" ry="16.5" transform="translate(0 -0.471)" fill="none"/></g><g transform="translate(1035.541 739.906) rotate(41)"><g transform="translate(7.412 7.412)"><g transform="translate(10.747 7.165)"><path d="M19.765,14.765H16.182a1.482,1.482,0,1,1,0-2.965h3.582a1.5,1.5,0,0,1,1.482,1.482A1.363,1.363,0,0,1,19.765,14.765Z" transform="translate(-14.7 -11.8)" fill="#0073ff"/></g><g transform="translate(0 7.165)"><path d="M11.188,14.765H7.606A1.532,1.532,0,0,1,6,13.282,1.5,1.5,0,0,1,7.482,11.8h3.582a1.5,1.5,0,0,1,1.482,1.482A1.332,1.332,0,0,1,11.188,14.765Z" transform="translate(-6 -11.8)" fill="#0073ff"/></g><g transform="translate(7.288)"><path d="M13.382,12.547A1.5,1.5,0,0,1,11.9,11.065V7.482A1.5,1.5,0,0,1,13.382,6a1.594,1.594,0,0,1,1.482,1.482v3.582A1.5,1.5,0,0,1,13.382,12.547Z" transform="translate(-11.9 -6)" fill="#0073ff"/></g><g transform="translate(7.288 10.747)"><path d="M13.382,21.247A1.5,1.5,0,0,1,11.9,19.765V16.182A1.5,1.5,0,0,1,13.382,14.7a1.594,1.594,0,0,1,1.482,1.482v3.582A1.5,1.5,0,0,1,13.382,21.247Z" transform="translate(-11.9 -14.7)" fill="#0073ff"/></g></g><ellipse cx="16" cy="16.5" rx="16" ry="16.5" transform="translate(0 -0.471)" fill="none"/></g><g transform="translate(348.892 243.46) rotate(-8)"><path d="M24.994,62.8a3.325,3.325,0,0,1-2.159-.635,4.807,4.807,0,0,1-2.413-4.318l.508-14.605A2.584,2.584,0,0,1,20.8,42.6L8.991,33.714a4.511,4.511,0,0,1-1.778-4.572,4.653,4.653,0,0,1,3.429-3.556l13.97-3.937a.273.273,0,0,0,.254-.254L29.82,7.551A4.741,4.741,0,0,1,33.5,4.5a5,5,0,0,1,4.445,2.032L46.2,18.854a.746.746,0,0,0,.635.254H61.571a4.014,4.014,0,0,1,3.937,2.667,3.987,3.987,0,0,1-.635,4.7h0L55.729,38.159c-.127.127-.127.254-.127.635l4.445,14.1a4.118,4.118,0,0,1-1.27,4.572,4.075,4.075,0,0,1-4.7.889L40.234,53.145H39.6L27.534,61.528A3.3,3.3,0,0,1,24.994,62.8Zm8.89-54.866c-.381,0-.381.127-.508.254l-4.7,13.97a4.372,4.372,0,0,1-3.048,2.921L11.4,29.269c-.254.127-.254.254-.635.635-.127.127,0,.254.127.762l11.811,8.89a4.57,4.57,0,0,1,1.778,3.81L23.851,58.1c0,.254.127.635.254.635a1.341,1.341,0,0,0,.762,0l12.065-8.382a5.151,5.151,0,0,1,4.318-.635l13.843,5.207a.78.78,0,0,0,.762-.127c.127-.127.254-.254.127-.762l-4.445-14.1a6.293,6.293,0,0,1,1.016-4.318L61.7,23.935h0a.8.8,0,0,0,0-.762c0-.127-.127-.254-.635-.254L46.33,22.791a4.262,4.262,0,0,1-3.683-2.032L34.392,8.44C34.265,8.059,34.265,7.932,33.884,7.932ZM63.6,25.078Z" fill="#0073ff"/></g><g transform="translate(1516.1 393.5)"><g transform="translate(11.9 1.5)"><path d="M26.119,75.6a14.219,14.219,0,1,1,0-28.438,15.227,15.227,0,0,1,5.086.925V3a1.53,1.53,0,0,1,1.5-1.5H39.3A1.53,1.53,0,0,1,40.8,3V7.627c2.543,2.312,13.641,13.178,14.1,26.7.231,7.514-2.774,14.566-9.132,20.808a1.507,1.507,0,0,1-2.543-1.387c.116-.231,5.433-20.461-3.006-29.941v37.57A14.184,14.184,0,0,1,26.119,75.6Zm0-25.317A11.213,11.213,0,1,0,37.332,61.5V20.574a1.465,1.465,0,0,1,2.312-1.156c9.595,6.7,8.9,21.5,7.63,29.594A22.693,22.693,0,0,0,51.9,34.562c-.462-13.641-13.41-24.854-13.525-24.97a1.34,1.34,0,0,1-.462-1.156V4.621h-3.7V50.63A1.25,1.25,0,0,1,33.4,51.9a1.715,1.715,0,0,1-1.5,0A11.484,11.484,0,0,0,26.119,50.283Z" transform="translate(-11.9 -1.5)" fill="#0073ff"/></g></g><g transform="translate(1383.7 183.637)"><path d="M22.576,89.427A1.453,1.453,0,0,0,21.149,88H11.927a1.427,1.427,0,0,0,0,2.854h9.222A1.453,1.453,0,0,0,22.576,89.427Z" transform="translate(0.411 15.954)" fill="#0073ff"/><path d="M46.659,88.1H37.327a1.427,1.427,0,0,0,0,2.854h9.332a1.427,1.427,0,0,0,0-2.854Z" transform="translate(4.995 15.964)" fill="#0073ff"/><path d="M18.113,76.737a1.4,1.4,0,0,0-1.976,1.976l5.709,5.709a1.635,1.635,0,0,0,.988.439,1.341,1.341,0,0,0,.988-.439,1.392,1.392,0,0,0,0-1.976Z" transform="translate(0.922 12.943)" fill="#0073ff"/><path d="M36.413,95.037a1.4,1.4,0,0,0-1.976,1.976l5.709,5.709a1.635,1.635,0,0,0,.988.439,1.341,1.341,0,0,0,.988-.439,1.392,1.392,0,0,0,0-1.976Z" transform="translate(4.611 16.603)" fill="#0073ff"/><path d="M27.5,72.527v9.332a1.427,1.427,0,1,0,2.854,0V72.527a1.427,1.427,0,1,0-2.854,0Z" transform="translate(3.452 12.207)" fill="#0073ff"/><path d="M28.927,96.4A1.453,1.453,0,0,0,27.5,97.827v9.332a1.427,1.427,0,1,0,2.854,0V97.827A1.534,1.534,0,0,0,28.927,96.4Z" transform="translate(3.452 16.776)" fill="#0073ff"/><path d="M34.537,84.322a1.635,1.635,0,0,0,.988.439,1.341,1.341,0,0,0,.988-.439l5.709-5.709a1.4,1.4,0,0,0-1.976-1.976l-5.709,5.709A1.39,1.39,0,0,0,34.537,84.322Z" transform="translate(4.627 12.925)" fill="#0073ff"/><path d="M21.846,95.037l-5.709,5.709a1.392,1.392,0,0,0,0,1.976,1.635,1.635,0,0,0,.988.439,1.341,1.341,0,0,0,.988-.439l5.709-5.709a1.4,1.4,0,0,0-1.976-1.976Z" transform="translate(0.922 16.603)" fill="#0073ff"/><path d="M13.765,45.027A1.453,1.453,0,0,0,12.338,43.6H7.727a1.427,1.427,0,1,0,0,2.854h4.721A1.437,1.437,0,0,0,13.765,45.027Z" transform="translate(0 6.963)" fill="#0073ff"/><path d="M33.648,43.6H28.927a1.427,1.427,0,1,0,0,2.854h4.721a1.453,1.453,0,0,0,1.427-1.427A1.629,1.629,0,0,0,33.648,43.6Z" transform="translate(3.513 6.963)" fill="#0073ff"/><path d="M15.24,41.916a1.635,1.635,0,0,0,.988.439,1.341,1.341,0,0,0,.988-.439,1.392,1.392,0,0,0,0-1.976l-3.4-3.4a1.4,1.4,0,1,0-1.976,1.976Z" transform="translate(0.502 5.743)" fill="#0073ff"/><path d="M28.109,54.146a1.771,1.771,0,0,0,.988-.329,1.392,1.392,0,0,0,0-1.976l-3.184-3.4a1.4,1.4,0,0,0-1.976,1.976l3.184,3.4A1.533,1.533,0,0,0,28.109,54.146Z" transform="translate(2.837 7.834)" fill="#0073ff"/><path d="M20.317,38.256a1.453,1.453,0,0,0,1.427-1.427v-4.5A1.453,1.453,0,0,0,20.317,30.9,1.361,1.361,0,0,0,19,32.327v4.5A1.361,1.361,0,0,0,20.317,38.256Z" transform="translate(1.243 4.846)" fill="#0073ff"/><path d="M19,53.427v4.721a1.427,1.427,0,1,0,2.854,0V53.427a1.427,1.427,0,1,0-2.854,0Z" transform="translate(1.243 8.585)" fill="#0073ff"/><path d="M24.925,42.255a1.192,1.192,0,0,0,.988-.439l3.184-3.4a1.4,1.4,0,0,0-1.976-1.976l-3.184,3.4a1.392,1.392,0,0,0,0,1.976A1.341,1.341,0,0,0,24.925,42.255Z" transform="translate(2.837 5.725)" fill="#0073ff"/><path d="M15.24,48.437l-3.4,3.4a1.392,1.392,0,0,0,0,1.976,1.635,1.635,0,0,0,.988.439,1.341,1.341,0,0,0,.988-.439l3.4-3.4a1.4,1.4,0,0,0-1.976-1.976Z" transform="translate(0.502 7.837)" fill="#0073ff"/><path d="M29.133,85.9a3.733,3.733,0,1,0,3.733,3.733A3.7,3.7,0,0,0,29.133,85.9Z" transform="translate(3.163 15.749)" fill="#0073ff"/><circle cx="3.733" cy="3.733" r="3.733" transform="translate(17.828 48.223)" fill="#0073ff"/><path d="M77.833,33a3.733,3.733,0,1,0,3.733,3.733A3.772,3.772,0,0,0,77.833,33Z" transform="translate(11.23 5.219)" fill="#0073ff"/><path d="M70.875,36.527A1.453,1.453,0,0,0,69.448,35.1H64.727a1.427,1.427,0,0,0,0,2.854h4.721A1.629,1.629,0,0,0,70.875,36.527Z" transform="translate(9.445 5.487)" fill="#0073ff"/><path d="M90.648,35.1H85.927a1.427,1.427,0,1,0,0,2.854h4.721a1.427,1.427,0,1,0,0-2.854Z" transform="translate(12.958 5.487)" fill="#0073ff"/><path d="M77.627,43.6A1.453,1.453,0,0,0,76.2,45.027v4.721a1.427,1.427,0,0,0,2.854,0V45.027A1.534,1.534,0,0,0,77.627,43.6Z" transform="translate(11.381 7.098)" fill="#0073ff"/><path d="M57.918,44.975a1.483,1.483,0,0,0-1.757-.769l-6.587,2.635a1.483,1.483,0,0,0-.769,1.757,1.427,1.427,0,0,0,1.317.878.99.99,0,0,0,.549-.11l6.587-2.635A1.289,1.289,0,0,0,57.918,44.975Z" transform="translate(7.08 7.127)" fill="#0073ff"/><path d="M97.711,28.4a1.427,1.427,0,0,0,1.317.878.99.99,0,0,0,.549-.11l6.587-2.635a1.356,1.356,0,0,0-.988-2.525l-6.587,2.635A1.218,1.218,0,0,0,97.711,28.4Z" transform="translate(15.52 3.584)" fill="#0073ff"/><path d="M87.731,57.475a1.356,1.356,0,1,0-2.525.988l2.635,6.587a1.427,1.427,0,0,0,1.317.878.99.99,0,0,0,.549-.11,1.483,1.483,0,0,0,.769-1.757Z" transform="translate(12.957 9.475)" fill="#0073ff"/><path d="M67.531,16.25a1.427,1.427,0,0,0,1.317.878.99.99,0,0,0,.549-.11,1.483,1.483,0,0,0,.769-1.757L67.531,8.675a1.356,1.356,0,1,0-2.525.988Z" transform="translate(9.633 0.425)" fill="#0073ff"/><path d="M69.3,56.711a1.258,1.258,0,0,0-1.757.769l-2.635,6.587a1.258,1.258,0,0,0,.769,1.757.99.99,0,0,0,.549.11,1.427,1.427,0,0,0,1.317-.878l2.635-6.587A1.437,1.437,0,0,0,69.3,56.711Z" transform="translate(9.614 9.467)" fill="#0073ff"/><path d="M85.87,16.924a.99.99,0,0,0,.549.11,1.427,1.427,0,0,0,1.317-.878l2.635-6.587a1.356,1.356,0,1,0-2.525-.988l-2.635,6.587A1.256,1.256,0,0,0,85.87,16.924Z" transform="translate(12.948 0.409)" fill="#0073ff"/><path d="M106.055,46.846l-6.587-2.635a1.356,1.356,0,1,0-.988,2.525l6.587,2.635a.99.99,0,0,0,.549.11,1.427,1.427,0,0,0,1.317-.878A1.7,1.7,0,0,0,106.055,46.846Z" transform="translate(15.52 7.119)" fill="#0073ff"/><path d="M49.57,26.436l6.587,2.635a.99.99,0,0,0,.549.11,1.427,1.427,0,0,0,1.317-.878,1.258,1.258,0,0,0-.769-1.757l-6.587-2.635a1.258,1.258,0,0,0-1.757.769A1.289,1.289,0,0,0,49.57,26.436Z" transform="translate(7.089 3.558)" fill="#0073ff"/><path d="M45.827,37.854H57.355a1.427,1.427,0,1,0,0-2.854H45.827A1.453,1.453,0,0,0,44.4,36.427,1.534,1.534,0,0,0,45.827,37.854Z" transform="translate(6.489 5.47)" fill="#0073ff"/><path d="M110.265,35.1H98.627a1.427,1.427,0,0,0,0,2.854h11.528a1.453,1.453,0,0,0,1.427-1.427A1.437,1.437,0,0,0,110.265,35.1Z" transform="translate(15.482 5.487)" fill="#0073ff"/><path d="M77.627,56.3A1.453,1.453,0,0,0,76.2,57.727V69.255a1.427,1.427,0,0,0,2.854,0V57.727A1.534,1.534,0,0,0,77.627,56.3Z" transform="translate(11.381 9.631)" fill="#0073ff"/><path d="M77.627,17.772a1.453,1.453,0,0,0,1.427-1.427V4.927a1.427,1.427,0,0,0-2.854,0V16.455A1.361,1.361,0,0,0,77.627,17.772Z" transform="translate(11.381)" fill="#0073ff"/><path d="M62.371,50.437l-8.234,8.234a1.392,1.392,0,0,0,0,1.976,1.635,1.635,0,0,0,.988.439,1.341,1.341,0,0,0,.988-.439l8.234-8.234a1.4,1.4,0,0,0-1.976-1.976Z" transform="translate(7.966 8.36)" fill="#0073ff"/><path d="M92.525,23.786a1.341,1.341,0,0,0,.988-.439l8.234-8.234a1.4,1.4,0,0,0-1.976-1.976l-8.234,8.234a1.392,1.392,0,0,0,0,1.976A1.341,1.341,0,0,0,92.525,23.786Z" transform="translate(14.888 0.903)" fill="#0073ff"/><path d="M93.513,50.437a1.4,1.4,0,0,0-1.976,1.976l8.234,8.234a1.635,1.635,0,0,0,.988.439,1.341,1.341,0,0,0,.988-.439,1.392,1.392,0,0,0,0-1.976Z" transform="translate(14.888 8.36)" fill="#0073ff"/><path d="M62.371,23.347a1.635,1.635,0,0,0,.988.439,1.341,1.341,0,0,0,.988-.439,1.392,1.392,0,0,0,0-1.976l-8.234-8.234a1.4,1.4,0,0,0-1.976,1.976Z" transform="translate(7.966 0.903)" fill="#0073ff"/><path d="M77.627,29.875a1.453,1.453,0,0,0,1.427-1.427V23.727a1.427,1.427,0,0,0-2.854,0v4.831A1.361,1.361,0,0,0,77.627,29.875Z" transform="translate(11.381 3.328)" fill="#0073ff"/><path d="M70.82,41.637,67.637,44.82a1.392,1.392,0,0,0,0,1.976,1.635,1.635,0,0,0,.988.439,1.341,1.341,0,0,0,.988-.439L72.8,43.613a1.4,1.4,0,1,0-1.976-1.976Z" transform="translate(10.034 6.634)" fill="#0073ff"/><path d="M83.525,32.236a1.341,1.341,0,0,0,.988-.439L87.7,28.613a1.4,1.4,0,0,0-1.976-1.976L82.537,29.82a1.392,1.392,0,0,0,0,1.976A1.973,1.973,0,0,0,83.525,32.236Z" transform="translate(12.488 3.996)" fill="#0073ff"/><path d="M86.709,47.136A1.341,1.341,0,0,0,87.7,46.7a1.392,1.392,0,0,0,0-1.976l-3.184-3.184a1.4,1.4,0,0,0-1.976,1.976L85.72,46.7A1.341,1.341,0,0,0,86.709,47.136Z" transform="translate(12.488 6.617)" fill="#0073ff"/><path d="M69.513,26.637a1.4,1.4,0,0,0-1.976,1.976L70.721,31.8a1.635,1.635,0,0,0,.988.439A1.341,1.341,0,0,0,72.7,31.8a1.392,1.392,0,0,0,0-1.976Z" transform="translate(10.018 3.996)" fill="#0073ff"/></g><g transform="translate(718.6 201.5)"><path d="M56.051,18.5,29.932,24.356a1.287,1.287,0,0,0-1.084,1.3V60.662a10.3,10.3,0,0,0-7.586-1.3c-5.419.975-9.862,5.2-9.862,9.32a5.7,5.7,0,0,0,2.168,4.443,9.432,9.432,0,0,0,5.852,1.842,16.169,16.169,0,0,0,2.276-.217c5.419-.975,9.862-5.2,9.862-9.32V35.41l23.409-5.2v24.6a10.3,10.3,0,0,0-7.586-1.3c-5.419.975-9.862,5.2-9.862,9.32a5.7,5.7,0,0,0,2.168,4.443,9.5,9.5,0,0,0,5.852,1.951,19.464,19.464,0,0,0,2.384-.217c5.419-.975,9.862-5.2,9.862-9.32V19.8a1.5,1.5,0,0,0-.542-1.084A1.588,1.588,0,0,0,56.051,18.5ZM21.154,72.15a7.506,7.506,0,0,1-5.961-1.084A3.029,3.029,0,0,1,14,68.682c0-2.818,3.576-5.961,7.586-6.611a12.068,12.068,0,0,1,1.842-.217,6.25,6.25,0,0,1,4.118,1.3,3.029,3.029,0,0,1,1.192,2.384C28.849,68.248,25.272,71.391,21.154,72.15ZM31.558,32.7V26.74l23.409-5.2V27.5ZM47.381,66.3a7.506,7.506,0,0,1-5.961-1.084,3.029,3.029,0,0,1-1.192-2.384c0-2.818,3.576-5.961,7.586-6.611A12.068,12.068,0,0,1,49.657,56a6.25,6.25,0,0,1,4.118,1.3,3.029,3.029,0,0,1,1.192,2.384C54.968,62.5,51.391,65.539,47.381,66.3Z" transform="translate(0 0.918)" fill="#0073ff"/><path d="M85.511,58.993a47.17,47.17,0,0,1-7.478-7.153,1.34,1.34,0,0,0-1.517-.434,1.307,1.307,0,0,0-.867,1.3V87.713a10.3,10.3,0,0,0-7.586-1.3c-5.419.975-9.862,5.2-9.862,9.32a5.7,5.7,0,0,0,2.168,4.443,9.432,9.432,0,0,0,5.852,1.842A16.169,16.169,0,0,0,68.5,101.8c5.419-.975,9.862-5.2,9.862-9.32V64.412a20.283,20.283,0,0,0,5.094,2.818c4.335,1.626,6.828,6.286,6.828,6.286a1.255,1.255,0,0,0,1.517.65,1.287,1.287,0,0,0,1.084-1.3C92.881,67.121,90.5,62.678,85.511,58.993ZM68.062,99.2A7.506,7.506,0,0,1,62.1,98.117a3.029,3.029,0,0,1-1.192-2.384c0-2.818,3.576-5.961,7.586-6.611a12.068,12.068,0,0,1,1.842-.217,6.25,6.25,0,0,1,4.118,1.3,3.029,3.029,0,0,1,1.192,2.384C75.649,95.3,72.072,98.442,68.062,99.2ZM84.427,64.737a17.941,17.941,0,0,1-6.069-3.9v-4.66a68.874,68.874,0,0,0,5.527,4.985c2.709,2.059,4.552,4.227,5.419,6.828A14.764,14.764,0,0,0,84.427,64.737Z" transform="translate(3.92 3.671)" fill="#0073ff"/><path d="M100.035,12.8H97.109a1.409,1.409,0,0,0,0,2.818h2.926a1.409,1.409,0,1,0,0-2.818Z" transform="translate(7.062 0.444)" fill="#0073ff"/><path d="M91.935,12.8H89.009a1.409,1.409,0,1,0,0,2.818h2.926a1.409,1.409,0,1,0,0-2.818Z" transform="translate(6.383 0.444)" fill="#0073ff"/><path d="M94.409,7.5A1.344,1.344,0,0,0,93,8.8v2.926a1.409,1.409,0,0,0,2.818,0V8.8A1.414,1.414,0,0,0,94.409,7.5Z" transform="translate(6.836 0)" fill="#0073ff"/><path d="M94.409,15.5A1.435,1.435,0,0,0,93,16.909v2.926a1.409,1.409,0,0,0,2.818,0V16.909A1.514,1.514,0,0,0,94.409,15.5Z" transform="translate(6.836 0.67)" fill="#0073ff"/><path d="M29.035,95H26.109a1.409,1.409,0,1,0,0,2.818h2.926a1.409,1.409,0,1,0,0-2.818Z" transform="translate(1.114 7.33)" fill="#0073ff"/><path d="M21.035,95H18.109a1.409,1.409,0,0,0,0,2.818h2.926a1.409,1.409,0,1,0,0-2.818Z" transform="translate(0.444 7.33)" fill="#0073ff"/><path d="M23.509,89.7A1.435,1.435,0,0,0,22.1,91.109v2.926a1.409,1.409,0,1,0,2.818,0V91.109A1.508,1.508,0,0,0,23.509,89.7Z" transform="translate(0.896 6.886)" fill="#0073ff"/><path d="M23.509,97.7A1.435,1.435,0,0,0,22.1,99.109v2.926a1.409,1.409,0,1,0,2.818,0V99.109A1.608,1.608,0,0,0,23.509,97.7Z" transform="translate(0.896 7.556)" fill="#0073ff"/></g><g transform="translate(245.139 538.848)"><g transform="translate(3.861 25.884)"><g transform="translate(0 1.366)"><path d="M18.6,88.738a1.637,1.637,0,0,0,1.206-.536L30.8,77.076a2.627,2.627,0,0,1,2.413-.67c3.753.938,8.043-2.011,10.054-4.021L66.723,48.792c2.547-2.547,2.681-6.032.4-8.445A5.293,5.293,0,0,0,62.97,38.6a5.394,5.394,0,0,0-4.155,2.011,1.517,1.517,0,0,0,2.145,2.145A4.38,4.38,0,0,1,63.1,41.553a3.368,3.368,0,0,1,1.877.8c1.34,1.34.67,2.949-.4,4.021L41.12,70.24c-2.011,2.011-5.228,3.887-7.1,3.217a5.577,5.577,0,0,0-5.5,1.475L17.528,86.057a1.389,1.389,0,0,0,0,2.145A1.384,1.384,0,0,0,18.6,88.738Z" transform="translate(0.62 -15.146)" fill="#0073ff"/><path d="M5.388,81.153a1.637,1.637,0,0,0,1.206-.536L20,66.676a5.325,5.325,0,0,0,1.475-4.826v-.268c-.134-1.206-.134-4.826-.134-9.249.134-6.166.536-8.579.67-8.981v-.134l4.021-11.662a2.355,2.355,0,0,1,1.206-1.34,2,2,0,0,1,1.743-.134A2.13,2.13,0,0,1,30.32,32.9h0l-3.485,9.517a3.33,3.33,0,0,0,.134,2.547l1.475,2.815c.134.536.67.67,1.206.8a1.554,1.554,0,0,0,1.34-.536L53.645,25.121a2.509,2.509,0,0,1,1.877-.67h0a4.5,4.5,0,0,1,1.877.67,2.289,2.289,0,0,1,0,3.485L42.251,43.754A1.517,1.517,0,0,0,44.4,45.9L59.543,30.751a5.665,5.665,0,0,0,0-7.909A5.572,5.572,0,0,0,55.521,21.1h0A6.07,6.07,0,0,0,51.5,22.843L30.32,44.692l-.536-.938V43.62h0l3.351-9.785A5.577,5.577,0,0,0,33,29.679a5.993,5.993,0,0,0-2.949-2.815A5.577,5.577,0,0,0,25.9,27a5.287,5.287,0,0,0-2.815,3.083l-4.021,11.8c-1.206,2.815-1.206,17.292-.67,20.107v.8h0v.4a3.515,3.515,0,0,1-.67,1.206L4.315,78.338a1.489,1.489,0,0,0,0,2.145A1.194,1.194,0,0,0,5.388,81.153Z" transform="translate(-3.861 -21.1)" fill="#0073ff"/><path d="M37.534,53.065a1.637,1.637,0,0,0,1.206-.536L59.518,31.751a5.687,5.687,0,1,0-8.043-8.043l-4.558,4.558a1.517,1.517,0,1,0,2.145,2.145l4.558-4.558a2.591,2.591,0,0,1,3.753,0,2.854,2.854,0,0,1,0,3.753L36.328,50.384a1.4,1.4,0,0,0,0,2.145A1.455,1.455,0,0,0,37.534,53.065Z" transform="translate(7.021 -20.76)" fill="#0073ff"/><path d="M41.9,56.92a1.637,1.637,0,0,0,1.206-.536L61.739,37.751A5.687,5.687,0,1,0,53.7,29.709l-4.558,4.558a1.517,1.517,0,0,0,2.145,2.145l4.558-4.558a2.591,2.591,0,0,1,3.753,0,2.647,2.647,0,0,1,.8,1.877,3.368,3.368,0,0,1-.8,1.877L40.828,54.239a1.4,1.4,0,0,0,0,2.145A1.088,1.088,0,0,0,41.9,56.92Z" transform="translate(8.553 -18.717)" fill="#0073ff"/></g><g transform="translate(37.466)"><path d="M33.673,88.778a1.455,1.455,0,0,0,1.206-.536l8.445-9.115.134-.134a2.945,2.945,0,0,1,2.413-1.072c3.887.536,7.641-3.217,9.383-5.362L75.228,45.883c2.145-2.815,1.877-6.434-.67-8.445a5.439,5.439,0,0,0-7.909.8A1.543,1.543,0,1,0,69.2,39.985a2.352,2.352,0,0,1,3.485-.134c1.475,1.206,1.072,2.815.134,4.021L52.439,70.682c-1.743,2.145-4.558,4.29-6.568,4.155a5.428,5.428,0,0,0-5.228,2.145L32.2,86.1a1.486,1.486,0,0,0,.134,2.145A4.529,4.529,0,0,0,33.673,88.778Z" transform="translate(-31.811 -14.625)" fill="#0073ff"/><path d="M60.178,32.573a1.172,1.172,0,0,0,1.206-.67l2.145-2.681a6.578,6.578,0,0,0,1.206-4.155,5.966,5.966,0,0,0-2.145-3.753,5.678,5.678,0,0,0-4.155-1.206,5.967,5.967,0,0,0-3.753,2.145,1.543,1.543,0,0,0,2.547,1.743,3.244,3.244,0,0,1,1.743-1.072,2.4,2.4,0,0,1,1.877.536A3.849,3.849,0,0,1,61.92,25.2a2.4,2.4,0,0,1-.536,1.877l-2.145,2.681a1.417,1.417,0,0,0,.4,2.145A.54.54,0,0,0,60.178,32.573Z" transform="translate(-24.134 -20.081)" fill="#0073ff"/><path d="M57.82,46.392a1.172,1.172,0,0,0,1.206-.67L67.606,34.6a5.291,5.291,0,0,0,1.206-4.155,5.427,5.427,0,0,0-2.145-3.753,5.887,5.887,0,0,0-8.043,1.072l-.4.4A1.543,1.543,0,1,0,60.769,29.9l.4-.4a2.681,2.681,0,0,1,4.29,3.217L56.882,43.711a1.417,1.417,0,0,0,.4,2.145C57.15,46.258,57.418,46.392,57.82,46.392Z" transform="translate(-23.385 -18.217)" fill="#0073ff"/></g></g><path d="M63.488,21.562a1.283,1.283,0,0,0,1.206-.67L75.686,6.817a1.491,1.491,0,1,0-2.413-1.743L62.282,19.15a1.417,1.417,0,0,0,.4,2.145A1.437,1.437,0,0,0,63.488,21.562Z" transform="translate(19.781 0.459)" fill="#0073ff"/><path d="M53.409,19.072A1.453,1.453,0,0,0,54.884,18L59.039,5.131a1.473,1.473,0,0,0-1.072-2.011A1.387,1.387,0,0,0,56.09,4.193L51.935,17.062a1.491,1.491,0,0,0,.938,2.011Z" transform="translate(16.321 0)" fill="#0073ff"/><path d="M69.781,27.581a1.458,1.458,0,0,0,.67-.134l11.528-4.692a1.531,1.531,0,0,0-1.206-2.815L69.244,24.632a1.469,1.469,0,0,0-.8,2.011A1.2,1.2,0,0,0,69.781,27.581Z" transform="translate(21.934 5.701)" fill="#0073ff"/><path d="M42.543,19.947a1.488,1.488,0,0,0,1.475-1.475l.8-11.93A1.614,1.614,0,1,0,41.6,6.275L40.8,18.2c.268.938.938,1.743,1.743,1.743Z" transform="translate(12.577 0.6)" fill="#0073ff"/><path d="M70.375,39.349H80.562a1.475,1.475,0,1,0,0-2.949H70.375a1.475,1.475,0,0,0,0,2.949Z" transform="translate(22.144 11.359)" fill="#0073ff"/></g></g></svg>