<svg xmlns="http://www.w3.org/2000/svg" width="419.315" height="219" viewBox="0 0 419.315 219"><g transform="translate(-7.489 -35.326)"><g transform="translate(149.951 189.61)"><g transform="translate(0 53.415)"><path d="M161.5,249.2a1,1,0,0,1-1-1v-3.6a2.9,2.9,0,0,0-2.9-2.9h-5.4a2.9,2.9,0,0,0-2.9,2.9v3.6a1,1,0,0,1-1,1,.945.945,0,0,1-1-1v-3.6a5.015,5.015,0,0,1,5-5h5.4a5.015,5.015,0,0,1,5,5v3.6A1.362,1.362,0,0,1,161.5,249.2Z" transform="translate(-147.3 -239.6)" fill="#0073ff"/></g><g transform="translate(16.5 53.415)"><path d="M178,249.2a1,1,0,0,1-1-1v-3.6a2.9,2.9,0,0,0-2.9-2.9h-5.4a2.9,2.9,0,0,0-2.9,2.9v3.6a1,1,0,0,1-2,0v-3.6a5.015,5.015,0,0,1,5-5h5.4a5.015,5.015,0,0,1,5,5v3.6A1.268,1.268,0,0,1,178,249.2Z" transform="translate(-163.8 -239.6)" fill="#0073ff"/></g><g transform="translate(33 53.415)"><path d="M194.5,249.2a1,1,0,0,1-1-1v-3.6a2.9,2.9,0,0,0-2.9-2.9h-5.4a2.9,2.9,0,0,0-2.9,2.9v3.6a1,1,0,0,1-2,0v-3.6a5.015,5.015,0,0,1,5-5h5.4a5.015,5.015,0,0,1,5,5v3.6A1.362,1.362,0,0,1,194.5,249.2Z" transform="translate(-180.3 -239.6)" fill="#0073ff"/></g><g transform="translate(49.5 53.415)"><path d="M211,249.2a1,1,0,0,1-1-1v-3.6a2.9,2.9,0,0,0-2.9-2.9h-5.4a2.9,2.9,0,0,0-2.9,2.9v3.6a1,1,0,0,1-1,1,.945.945,0,0,1-1-1v-3.6a5.015,5.015,0,0,1,5-5h5.4a5.015,5.015,0,0,1,5,5v3.6A1.362,1.362,0,0,1,211,249.2Z" transform="translate(-196.8 -239.6)" fill="#0073ff"/></g><g transform="translate(1.6 45.415)"><g transform="translate(12.3)"><path d="M171.9,238.2a1,1,0,0,1-1-1v-1.7a1.9,1.9,0,0,0-1.9-1.9h-3.9a1.9,1.9,0,0,0-1.9,1.9v1.7a1,1,0,0,1-1,1,.945.945,0,0,1-1-1v-1.7a3.9,3.9,0,0,1,3.9-3.9H169a3.9,3.9,0,0,1,3.9,3.9v1.7C173,237.8,172.6,238.2,171.9,238.2Z" transform="translate(-161.2 -231.6)" fill="#0073ff"/></g><path d="M159.6,238.2a1,1,0,0,1-1-1v-1.7a1.9,1.9,0,0,0-1.9-1.9h-3.9a1.9,1.9,0,0,0-1.9,1.9v1.7a1,1,0,0,1-1,1,.945.945,0,0,1-1-1v-1.7a3.9,3.9,0,0,1,3.9-3.9h3.9a3.9,3.9,0,0,1,3.9,3.9v1.7A1,1,0,0,1,159.6,238.2Z" transform="translate(-148.9 -231.6)" fill="#0073ff"/><g transform="translate(24.8)"><path d="M184.4,238.2a1,1,0,0,1-1-1v-1.7a1.9,1.9,0,0,0-1.9-1.9h-3.9a1.9,1.9,0,0,0-1.9,1.9v1.7a1,1,0,0,1-1,1,.945.945,0,0,1-1-1v-1.7a3.9,3.9,0,0,1,3.9-3.9h3.9a3.9,3.9,0,0,1,3.9,3.9v1.7A1.071,1.071,0,0,1,184.4,238.2Z" transform="translate(-173.7 -231.6)" fill="#0073ff"/></g><g transform="translate(37.1)"><path d="M196.7,238.2a1,1,0,0,1-1-1v-1.7a1.9,1.9,0,0,0-1.9-1.9h-3.9a1.9,1.9,0,0,0-1.9,1.9v1.7a1,1,0,0,1-1,1,.945.945,0,0,1-1-1v-1.7a3.9,3.9,0,0,1,3.9-3.9h3.9a3.9,3.9,0,0,1,3.9,3.9v1.7A.945.945,0,0,1,196.7,238.2Z" transform="translate(-186 -231.6)" fill="#0073ff"/></g><g transform="translate(49.5)"><path d="M209.1,238.2a1,1,0,0,1-1-1v-1.7a1.9,1.9,0,0,0-1.9-1.9h-3.9a1.9,1.9,0,0,0-1.9,1.9v1.7a1,1,0,0,1-2,0v-1.7a3.9,3.9,0,0,1,3.9-3.9h3.9a3.9,3.9,0,0,1,3.9,3.9v1.7C210.2,237.8,209.6,238.2,209.1,238.2Z" transform="translate(-198.4 -231.6)" fill="#0073ff"/></g></g><g transform="translate(0.1 0.015)"><path d="M151.8,213.5h-3.4a1,1,0,0,1,0-2h3.1a32.265,32.265,0,0,0,12.3-15.2,39.358,39.358,0,0,0,2.6-9.2,1,1,0,0,1,2,.2,36.563,36.563,0,0,1-2.7,9.7,34.438,34.438,0,0,1-13.5,16.4A.6.6,0,0,1,151.8,213.5Z" transform="translate(-147.4 -186.2)" fill="#0073ff"/><g transform="translate(4.159 28.559)"><path d="M156.6,229.3a1.063,1.063,0,0,1-1-.9,37.734,37.734,0,0,0-3.9-12.2.962.962,0,1,1,1.7-.9,38.626,38.626,0,0,1,4.2,12.9.991.991,0,0,1-.8,1.1Z" transform="translate(-151.559 -214.759)" fill="#0073ff"/></g><g transform="translate(2.456 1.587)"><path d="M150.8,213.5a.764.764,0,0,1-.5-.2,1.076,1.076,0,0,1-.3-1.4h0a50.015,50.015,0,0,0,7.2-23.2.951.951,0,0,1,1.9.1,51.542,51.542,0,0,1-7.6,24.2C151.3,213.4,151.1,213.5,150.8,213.5Z" transform="translate(-149.856 -187.787)" fill="#0073ff"/></g><g transform="translate(1.1 28.5)"><path d="M149.5,224.5a1,1,0,0,1-1-1v-7.8a1,1,0,0,1,1-1,.945.945,0,0,1,1,1v7.8A1.075,1.075,0,0,1,149.5,224.5Z" transform="translate(-148.5 -214.7)" fill="#0073ff"/></g><g transform="translate(0.747 15.485)"><path d="M149.1,204.3h-.2a.911.911,0,0,1-.7-1.2c0-.2.1-.4.1-.6a1.02,1.02,0,0,1,2,.4c0,.2-.1.4-.1.6A1.4,1.4,0,0,1,149.1,204.3Z" transform="translate(-148.147 -201.685)" fill="#0073ff"/></g><g transform="translate(1.381 3)"><path d="M149.8,200.8h-.3a1.086,1.086,0,0,1-.7-1.2,40.061,40.061,0,0,0,1.1-9.4,1,1,0,0,1,2,0,38.192,38.192,0,0,1-1.2,10A1.013,1.013,0,0,1,149.8,200.8Z" transform="translate(-148.781 -189.2)" fill="#0073ff"/></g></g><g transform="translate(44.085)"><path d="M211.5,213.5h-3.4a4.331,4.331,0,0,1-.5-.1A35.433,35.433,0,0,1,194.1,197a39.877,39.877,0,0,1-2.7-9.7,1,1,0,1,1,2-.2,33.188,33.188,0,0,0,2.6,9.2c1.9,4.6,5.6,11,12.3,15.2h3.2a1,1,0,0,1,0,2Z" transform="translate(-191.385 -186.185)" fill="#0073ff"/><g transform="translate(10.9 28.619)"><path d="M203.2,229.3h-.1a.991.991,0,0,1-.8-1.1,36.227,36.227,0,0,1,4.2-12.9.962.962,0,0,1,1.7.9h0a37.734,37.734,0,0,0-3.9,12.2A1.072,1.072,0,0,1,203.2,229.3Z" transform="translate(-202.285 -214.803)" fill="#0073ff"/></g><g transform="translate(9.215 1.715)"><path d="M209,213.5a1.234,1.234,0,0,1-.8-.4,52.087,52.087,0,0,1-7.6-24.2.951.951,0,1,1,1.9-.1,50.015,50.015,0,0,0,7.2,23.2,1,1,0,0,1-.3,1.4C209.4,213.5,209.2,213.5,209,213.5Z" transform="translate(-200.6 -187.9)" fill="#0073ff"/></g><g transform="translate(18.015 28.515)"><path d="M210.4,224.5a1,1,0,0,1-1-1v-7.8a1,1,0,0,1,1-1,.945.945,0,0,1,1,1v7.8A1,1,0,0,1,210.4,224.5Z" transform="translate(-209.4 -214.7)" fill="#0073ff"/></g><g transform="translate(18.296 15.496)"><path d="M210.8,204.3a1.053,1.053,0,0,1-1-.8c0-.2-.1-.4-.1-.6a1.02,1.02,0,0,1,2-.4c0,.2.1.4.1.6a1.028,1.028,0,0,1-.7,1.2Z" transform="translate(-209.681 -201.681)" fill="#0073ff"/></g><g transform="translate(16.615 2.915)"><path d="M210.1,200.8a.961.961,0,0,1-.9-.7,43.06,43.06,0,0,1-1.2-10,1,1,0,0,1,1-1h0a1.075,1.075,0,0,1,1,1,40.061,40.061,0,0,0,1.1,9.4.888.888,0,0,1-.7,1.2C210.3,200.7,210.2,200.8,210.1,200.8Z" transform="translate(-208 -189.1)" fill="#0073ff"/></g></g></g><g transform="translate(368.815 246.251)"><g transform="translate(0.6)"><line x2="0.8" y2="1.1" transform="translate(0.874 0.874)" fill="none"/><path d="M364.5,245.8a.909.909,0,0,1-.8-.4l-.7-1a1,1,0,0,1,1.6-1.2l.7,1a1.075,1.075,0,0,1-.2,1.4A1.421,1.421,0,0,1,364.5,245.8Z" transform="translate(-362.826 -242.826)" fill="#0073ff"/><g transform="translate(2.1 2.9)"><line x2="0.7" y2="1.1" transform="translate(0.974 0.874)" fill="none"/><path d="M366.6,248.7a.909.909,0,0,1-.8-.4l-.7-1a1,1,0,0,1,1.6-1.2l.7,1a1.075,1.075,0,0,1-.2,1.4A1.421,1.421,0,0,1,366.6,248.7Z" transform="translate(-364.926 -245.726)" fill="#0073ff"/></g></g><g transform="translate(0 0.5)"><g transform="translate(0 2.2)"><line y1="0.8" x2="1" transform="translate(0.974 0.774)" fill="none"/><path d="M363.2,248.2a.909.909,0,0,1-.8-.4,1.075,1.075,0,0,1,.2-1.4l1-.7a1,1,0,1,1,1.2,1.6l-1,.7A.845.845,0,0,1,363.2,248.2Z" transform="translate(-362.226 -245.526)" fill="#0073ff"/></g><g transform="translate(2.9)"><line y1="0.8" x2="1" transform="translate(0.974 0.874)" fill="none"/><path d="M366.1,246a.909.909,0,0,1-.8-.4,1.075,1.075,0,0,1,.2-1.4l1-.7a1,1,0,1,1,1.2,1.6l-1,.7A.735.735,0,0,1,366.1,246Z" transform="translate(-365.126 -243.326)" fill="#0073ff"/></g></g></g><g transform="translate(381.489 92.617)"><g transform="translate(1.1 1.1)"><path d="M376.9,94.6a.9.9,0,1,1,.9-.9A.9.9,0,0,1,376.9,94.6Z" transform="translate(-376 -92.8)" fill="#fff"/></g><path d="M376.9,91.7a2,2,0,0,0,0,4,1.944,1.944,0,0,0,2-2,2.006,2.006,0,0,0-2-2Z" transform="translate(-374.9 -91.7)" fill="#0073ff"/></g><g transform="translate(206.457 70.1)"><g transform="translate(1.1 1.1)"><path d="M205.3,73a.9.9,0,1,1,.9-.9C206.3,72.6,205.9,73,205.3,73Z" transform="translate(-204.4 -71.2)" fill="#fff"/></g><path d="M205.3,70.1a2,2,0,0,0,0,4,1.944,1.944,0,0,0,2-2,2,2,0,0,0-2-2Z" transform="translate(-203.3 -70.1)" fill="#0073ff"/></g><g transform="translate(415.615 55.826)"><g transform="translate(1)"><line x2="1.5" y2="1.9" transform="translate(0.874 0.974)" fill="none"/><path d="M412.4,59.8a.909.909,0,0,1-.8-.4l-1.4-2a1,1,0,0,1,1.6-1.2l1.4,2a1,1,0,0,1-.8,1.6Z" transform="translate(-410.026 -55.826)" fill="#0073ff"/><g transform="translate(4.1 5.6)"><line x2="1.4" y2="1.9" transform="translate(0.974 0.974)" fill="none"/><path d="M416.5,65.4a.909.909,0,0,1-.8-.4l-1.4-2a1,1,0,0,1,1.6-1.2l1.4,2a1.075,1.075,0,0,1-.2,1.4A1.421,1.421,0,0,1,416.5,65.4Z" transform="translate(-414.126 -61.426)" fill="#0073ff"/></g></g><g transform="translate(0 1.1)"><g transform="translate(0 4)"><line y1="1.5" x2="2" transform="translate(0.974 0.874)" fill="none"/><path d="M410,64.3a.909.909,0,0,1-.8-.4,1.075,1.075,0,0,1,.2-1.4l2-1.4a1,1,0,1,1,1.2,1.6l-2,1.4A.735.735,0,0,1,410,64.3Z" transform="translate(-409.026 -60.926)" fill="#0073ff"/></g><g transform="translate(5.5)"><line y1="1.5" x2="2.1" transform="translate(0.974 0.774)" fill="none"/><path d="M415.5,60.3a.909.909,0,0,1-.8-.4,1.075,1.075,0,0,1,.2-1.4l2-1.4a1,1,0,1,1,1.2,1.6l-2,1.4A.845.845,0,0,1,415.5,60.3Z" transform="translate(-414.526 -56.926)" fill="#0073ff"/></g></g></g><g transform="translate(368.415 35.326)"><g transform="translate(0.7)"><line x2="0.7" y2="0.8" transform="translate(0.874 0.874)" fill="none"/><path d="M364.1,38.1a.909.909,0,0,1-.8-.4l-.6-.8a1,1,0,0,1,1.6-1.2l.6.8a1.075,1.075,0,0,1-.2,1.4A.735.735,0,0,1,364.1,38.1Z" transform="translate(-362.526 -35.326)" fill="#0073ff"/><g transform="translate(2.9 4)"><line x2="0.7" y2="1" transform="translate(0.874 0.774)" fill="none"/><path d="M367,42.1a.909.909,0,0,1-.8-.4l-.6-.8a1,1,0,0,1,1.6-1.2l.6.8a1.075,1.075,0,0,1-.2,1.4A1.421,1.421,0,0,1,367,42.1Z" transform="translate(-365.426 -39.326)" fill="#0073ff"/></g></g><g transform="translate(0 0.5)"><g transform="translate(0 3)"><line y1="0.6" x2="0.9" transform="translate(0.974 0.874)" fill="none"/><path d="M362.8,41.4a.909.909,0,0,1-.8-.4,1.075,1.075,0,0,1,.2-1.4l.8-.6a1,1,0,1,1,1.2,1.6l-.8.6A.735.735,0,0,1,362.8,41.4Z" transform="translate(-361.826 -38.826)" fill="#0073ff"/></g><g transform="translate(4)"><line y1="0.6" x2="0.8" transform="translate(0.974 0.974)" fill="none"/><path d="M366.8,38.5a.909.909,0,0,1-.8-.4,1.075,1.075,0,0,1,.2-1.4l.8-.7a1,1,0,1,1,1.2,1.6l-.8.6A.6.6,0,0,1,366.8,38.5Z" transform="translate(-365.826 -35.826)" fill="#0073ff"/></g></g></g><g transform="translate(38.9 134.199)"><path d="M39.9,138.8a1,1,0,0,1-1-1,.945.945,0,0,1,1-1l3.4-.1v-3.1a1,1,0,0,1,2,0l.1,4.1a.945.945,0,0,1-1,1l-4.5.1Z" transform="translate(-38.9 -132.6)" fill="#0073ff"/></g><g transform="translate(303.616 60.585)"><path d="M300.7,67.1a1.421,1.421,0,0,1-.6-.2.822.822,0,0,1-.4-.6l-.8-4.5a1.02,1.02,0,1,1,2-.4l.6,3.4,3.1-.6a1.02,1.02,0,0,1,.4,2l-4,.8A.368.368,0,0,1,300.7,67.1Z" transform="translate(-298.885 -60.585)" fill="#0073ff"/></g><g transform="translate(221.411 155.537)"><path d="M223.2,160.7H223l-4.1-.7a1.012,1.012,0,0,1-.7-.4.952.952,0,0,1-.2-.7l.7-4.5a.962.962,0,1,1,1.9.3l-.5,3.4,3.1.5a.991.991,0,0,1,.8,1.1A.766.766,0,0,1,223.2,160.7Z" transform="translate(-218 -153.585)" fill="#0073ff"/></g><g transform="translate(402.141 135.759)"><g transform="translate(0 16.194)"><path d="M399.4,158.5a3.814,3.814,0,0,1-3.4-1.8c-1.1-1.9-.1-4.6,2.2-5.8a5.823,5.823,0,0,1,3.4-.7,3.889,3.889,0,0,1,2.8,1.8,3.6,3.6,0,0,1,.1,3.2,5.231,5.231,0,0,1-2.3,2.6A5.81,5.81,0,0,1,399.4,158.5Zm1.6-6.3a4.925,4.925,0,0,0-1.8.5c-1.2.7-2,2.1-1.4,3,.5.9,2.1,1,3.3.3a3.638,3.638,0,0,0,1.4-1.6,1.691,1.691,0,0,0,0-1.4h0a1.546,1.546,0,0,0-1.2-.7A.367.367,0,0,0,401,152.2Z" transform="translate(-395.552 -150.175)" fill="#0073ff"/></g><g transform="translate(7.248 2.819)"><path d="M403.8,154.6a.945.945,0,0,1-1-1V137.8a1,1,0,1,1,2,0v15.7A1.09,1.09,0,0,1,403.8,154.6Z" transform="translate(-402.8 -136.8)" fill="#0073ff"/></g><g transform="translate(12.919 13.494)"><path d="M412.3,155.8h-.6a3.889,3.889,0,0,1-2.8-1.8,3.6,3.6,0,0,1-.1-3.2,5.231,5.231,0,0,1,2.3-2.6,5.823,5.823,0,0,1,3.4-.7,3.889,3.889,0,0,1,2.8,1.8,3.6,3.6,0,0,1,.1,3.2,5.231,5.231,0,0,1-2.3,2.6A6.438,6.438,0,0,1,412.3,155.8Zm1.6-6.3a4.925,4.925,0,0,0-1.8.5,3.638,3.638,0,0,0-1.4,1.6,1.691,1.691,0,0,0,0,1.4,1.546,1.546,0,0,0,1.2.7,4.126,4.126,0,0,0,2.1-.4,3.168,3.168,0,0,0,1.4-1.6,1.691,1.691,0,0,0,0-1.4h0a1.546,1.546,0,0,0-1.2-.7C414.2,149.5,414,149.5,413.9,149.5Z" transform="translate(-408.471 -147.475)" fill="#0073ff"/></g><g transform="translate(20.148 0.019)"><path d="M416.7,151.9a.945.945,0,0,1-1-1V135a1,1,0,1,1,2,0v15.7A1.12,1.12,0,0,1,416.7,151.9Z" transform="translate(-415.7 -134)" fill="#0073ff"/></g><g transform="translate(7.229)"><path d="M403.8,138.7a.974.974,0,0,1-1-.8,1.012,1.012,0,0,1,.8-1.2l12.9-2.7a1.02,1.02,0,0,1,.4,2L404,138.7Z" transform="translate(-402.781 -133.981)" fill="#0073ff"/></g></g><g transform="translate(370.104 156.305)"><g transform="translate(0 18.754)"><path d="M367.8,182.2h-.7a4.206,4.206,0,0,1-3.1-2c-1.2-2.2-.1-5.1,2.5-6.5s5.7-1,6.9,1.1a3.81,3.81,0,0,1,.1,3.6,6.556,6.556,0,0,1-2.6,2.9A6.127,6.127,0,0,1,367.8,182.2Zm1.7-7.4a4.5,4.5,0,0,0-2.1.6c-1.6.9-2.4,2.6-1.8,3.7a1.987,1.987,0,0,0,1.6.9,4.345,4.345,0,0,0,2.5-.5,4.689,4.689,0,0,0,1.8-1.9,2.118,2.118,0,0,0,0-1.9A2.049,2.049,0,0,0,369.5,174.8Z" transform="translate(-363.515 -172.877)" fill="#0073ff"/></g><g transform="translate(8.285 3.077)"><path d="M372.8,177.5a.945.945,0,0,1-1-1V158.2a1,1,0,1,1,2,0v18.3C373.9,177.1,373.5,177.5,372.8,177.5Z" transform="translate(-371.8 -157.2)" fill="#0073ff"/></g><g transform="translate(8.308)"><path d="M372.8,159.2a.961.961,0,0,1-.9-.6.992.992,0,0,1,.5-1.3l6.6-3.1a.985.985,0,0,1,.8,1.8l-6.6,3.1C373.2,159.2,372.9,159.2,372.8,159.2Z" transform="translate(-371.823 -154.123)" fill="#0073ff"/></g></g><g transform="translate(215.115 102.841)"><g transform="translate(0 18.754)"><path d="M216,129.7h-.7a4.206,4.206,0,0,1-3.1-2c-1.2-2.2-.1-5.1,2.5-6.5s5.7-1,6.9,1.1a3.81,3.81,0,0,1,.1,3.6,6.476,6.476,0,0,1-5.7,3.8Zm1.8-7.4a4.5,4.5,0,0,0-2.1.6c-1.6.9-2.4,2.6-1.8,3.7a1.987,1.987,0,0,0,1.6.9,4.345,4.345,0,0,0,2.5-.5,4.689,4.689,0,0,0,1.8-1.9,2.118,2.118,0,0,0,0-1.9A2.263,2.263,0,0,0,217.8,122.3Z" transform="translate(-211.715 -120.377)" fill="#0073ff"/></g><g transform="translate(8.385 3.077)"><path d="M221.1,125a.945.945,0,0,1-1-1V105.7a1,1,0,0,1,2,0V124A.945.945,0,0,1,221.1,125Z" transform="translate(-220.1 -104.7)" fill="#0073ff"/></g><g transform="translate(8.408)"><path d="M221.1,106.7a.961.961,0,0,1-.9-.6.992.992,0,0,1,.5-1.3l6.6-3.1a.985.985,0,0,1,.8,1.8l-6.6,3.1A.6.6,0,0,1,221.1,106.7Z" transform="translate(-220.123 -101.623)" fill="#0073ff"/></g></g><g transform="translate(97.846 138.842)"><path d="M103.2,139.2H97.4a1,1,0,0,1,0-2h5.7a.945.945,0,0,1,1,1A.871.871,0,0,1,103.2,139.2Z" transform="translate(-96.4 -137.2)" fill="#0073ff"/></g><g transform="translate(115.428 138.842)"><path d="M120.4,139.2h-5.7a1,1,0,0,1,0-2h5.7a.945.945,0,0,1,1,1C121.5,138.8,120.9,139.2,120.4,139.2Z" transform="translate(-113.7 -137.2)" fill="#0073ff"/></g><g transform="translate(101.598 130.839)"><line x2="3.5" y2="3.4" transform="translate(0.9 1)" fill="none"/><path d="M104.5,134.7a.908.908,0,0,1-.7-.3l-3.4-3.4a.99.99,0,0,1,1.4-1.4l3.4,3.4a.967.967,0,0,1,0,1.4A1.08,1.08,0,0,1,104.5,134.7Z" transform="translate(-100.1 -129.3)" fill="#0073ff"/></g><g transform="translate(114.199 143.544)"><line x2="3.5" y2="3.5" transform="translate(0.9 0.8)" fill="none"/><path d="M116.9,147.2a.908.908,0,0,1-.7-.3l-3.4-3.4a.99.99,0,0,1,1.4-1.4l3.4,3.4a.967.967,0,0,1,0,1.4A1.08,1.08,0,0,1,116.9,147.2Z" transform="translate(-112.5 -141.8)" fill="#0073ff"/></g><g transform="translate(109.511 127.298)"><path d="M108.9,133.5a.945.945,0,0,1-1-1v-5.7a1,1,0,0,1,2,0v5.7C110,133,109.4,133.5,108.9,133.5Z" transform="translate(-107.9 -125.8)" fill="#0073ff"/></g><g transform="translate(109.511 144.783)"><path d="M108.9,150.7a.945.945,0,0,1-1-1V144a1,1,0,0,1,2,0v5.7C110,150.3,109.4,150.7,108.9,150.7Z" transform="translate(-107.9 -143)" fill="#0073ff"/></g><g transform="translate(114.097 130.839)"><line x1="3.5" y2="3.4" transform="translate(1 1)" fill="none"/><path d="M113.4,134.7a.908.908,0,0,1-.7-.3.967.967,0,0,1,0-1.4l3.4-3.4a.99.99,0,0,1,1.4,1.4l-3.4,3.4A.908.908,0,0,1,113.4,134.7Z" transform="translate(-112.4 -129.3)" fill="#0073ff"/></g><g transform="translate(101.496 143.544)"><line x1="3.5" y2="3.5" transform="translate(1 0.8)" fill="none"/><path d="M101,147.2a.908.908,0,0,1-.7-.3.967.967,0,0,1,0-1.4l3.4-3.4a.99.99,0,0,1,1.4,1.4l-3.4,3.4A.908.908,0,0,1,101,147.2Z" transform="translate(-100 -141.8)" fill="#0073ff"/></g><g transform="translate(80.8 100.433)"><path d="M84.7,101.4H81.8a1,1,0,0,1,0-2h2.9a1,1,0,0,1,0,2Z" transform="translate(-80.8 -99.4)" fill="#0073ff"/></g><g transform="translate(96.617 100.433)"><path d="M99.1,101.4H96.2a1,1,0,0,1,0-2h2.9a.945.945,0,0,1,1,1A1,1,0,0,1,99.1,101.4Z" transform="translate(-95.2 -99.4)" fill="#0073ff"/></g><g transform="translate(84.3 95.26)"><line x2="2" y2="2.1" transform="translate(1.1 1)" fill="none"/><path d="M87.4,98.4a.908.908,0,0,1-.7-.3L84.6,96A.99.99,0,0,1,86,94.6l2.1,2.1a.967.967,0,0,1,0,1.4A.908.908,0,0,1,87.4,98.4Z" transform="translate(-84.3 -94.3)" fill="#0073ff"/></g><g transform="translate(93.769 103.492)"><line x2="2" y2="1.9" transform="translate(1.1 1.1)" fill="none"/><path d="M95.5,106.5a.908.908,0,0,1-.7-.3l-2.1-2.1a.99.99,0,1,1,1.4-1.4l2.1,2.1a.967.967,0,0,1,0,1.4A.779.779,0,0,1,95.5,106.5Z" transform="translate(-92.4 -102.4)" fill="#0073ff"/></g><g transform="translate(90.816 91.706)"><path d="M90.5,95.7a.945.945,0,0,1-1-1V91.8a1,1,0,0,1,2,0v2.9A1.075,1.075,0,0,1,90.5,95.7Z" transform="translate(-89.5 -90.8)" fill="#0073ff"/></g><g transform="translate(90.816 106.24)"><path d="M90.5,110a.945.945,0,0,1-1-1v-2.9a1,1,0,0,1,2,0V109A1,1,0,0,1,90.5,110Z" transform="translate(-89.5 -105.1)" fill="#0073ff"/></g><g transform="translate(93.871 95.26)"><line x1="2" y2="2.1" transform="translate(1 1)" fill="none"/><path d="M93.5,98.4a.908.908,0,0,1-.7-.3.967.967,0,0,1,0-1.4l2.1-2.1A.99.99,0,0,1,96.3,96l-2.1,2.1A1.08,1.08,0,0,1,93.5,98.4Z" transform="translate(-92.5 -94.3)" fill="#0073ff"/></g><g transform="translate(84.4 103.492)"><line x1="2" y2="1.9" transform="translate(1 1.1)" fill="none"/><path d="M85.4,106.5a.908.908,0,0,1-.7-.3.967.967,0,0,1,0-1.4l2.1-2.1a.99.99,0,1,1,1.4,1.4l-2.1,2.1A1.08,1.08,0,0,1,85.4,106.5Z" transform="translate(-84.4 -102.4)" fill="#0073ff"/></g><g transform="translate(107.998 137.239)"><circle cx="1.4" cy="1.4" r="1.4" transform="translate(1.1 1.2)" fill="#fff"/><path d="M108.9,140.6a2.54,2.54,0,0,1-2.5-2.5,2.5,2.5,0,1,1,2.5,2.5Zm0-2.9a.4.4,0,1,0,.4.4A.43.43,0,0,0,108.9,137.7Z" transform="translate(-106.4 -135.6)" fill="#0073ff"/></g><g transform="translate(89.301 98.821)"><circle cx="1.4" cy="1.4" r="1.4" transform="translate(1.1 1.2)" fill="#fff"/><path d="M90.5,102.8a2.54,2.54,0,0,1-2.5-2.5,2.476,2.476,0,0,1,2.5-2.5,2.562,2.562,0,0,1,2.5,2.6A2.454,2.454,0,0,1,90.5,102.8Zm0-2.9a.4.4,0,1,0,.4.4A.43.43,0,0,0,90.5,99.9Z" transform="translate(-88 -97.8)" fill="#0073ff"/></g><g transform="translate(149.661 93.028)"><circle cx="1.4" cy="1.4" r="1.4" transform="translate(1.1 1.2)" fill="#fff"/><path d="M149.9,97.1a2.5,2.5,0,0,1,0-5,2.476,2.476,0,0,1,2.5,2.5A2.54,2.54,0,0,1,149.9,97.1Zm0-2.9a.4.4,0,1,0,.4.4C150.3,94.5,150.1,94.2,149.9,94.2Z" transform="translate(-147.4 -92.1)" fill="#0073ff"/></g><g transform="translate(142.344 94.641)"><path d="M144.1,95.7h-2.9a1,1,0,0,1,0-2h2.9a1,1,0,0,1,0,2Z" transform="translate(-140.2 -93.7)" fill="#0073ff"/></g><g transform="translate(156.977 94.641)"><path d="M158.5,95.7h-2.9a1,1,0,0,1,0-2h2.9a.945.945,0,0,1,1,1A1,1,0,0,1,158.5,95.7Z" transform="translate(-154.6 -93.7)" fill="#0073ff"/></g><g transform="translate(151.169 100.447)"><path d="M149.9,104.3a.945.945,0,0,1-1-1v-2.9a1,1,0,0,1,2,0v2.9A1.075,1.075,0,0,1,149.9,104.3Z" transform="translate(-148.9 -99.4)" fill="#0073ff"/></g><g transform="translate(132.313 100.769)"><line y1="1.6" x2="4" transform="translate(0.977 0.977)" fill="none"/><path d="M131.3,103.4a.875.875,0,0,1-.9-.6.992.992,0,0,1,.5-1.3l3.9-1.7a.985.985,0,1,1,.8,1.8l-3.9,1.7C131.6,103.4,131.5,103.4,131.3,103.4Z" transform="translate(-130.323 -99.723)" fill="#0073ff"/></g><g transform="translate(166.05 86.745)"><line y1="1.6" x2="3.9" transform="translate(0.977 1.077)" fill="none"/><path d="M164.5,89.6a.875.875,0,0,1-.9-.6.992.992,0,0,1,.5-1.3L168,86a.985.985,0,1,1,.8,1.8l-3.9,1.7A.756.756,0,0,1,164.5,89.6Z" transform="translate(-163.523 -85.923)" fill="#0073ff"/></g><g transform="translate(157.298 109.522)"><line x1="1.7" y1="3.9" transform="translate(0.977 0.977)" fill="none"/><path d="M157.6,114.2a.875.875,0,0,1-.9-.6l-1.7-3.9a.985.985,0,1,1,1.8-.8l1.7,3.9a.992.992,0,0,1-.5,1.3A.6.6,0,0,1,157.6,114.2Z" transform="translate(-154.923 -108.323)" fill="#0073ff"/></g><g transform="translate(143.276 75.878)"><line x1="1.7" y1="4" transform="translate(0.977 0.877)" fill="none"/><path d="M143.8,81.1a.875.875,0,0,1-.9-.6l-1.7-3.9a.985.985,0,1,1,1.8-.8l1.7,3.9a.992.992,0,0,1-.5,1.3C144.1,81.1,144,81.1,143.8,81.1Z" transform="translate(-141.123 -75.223)" fill="#0073ff"/></g><g transform="translate(143.233 109.478)"><line y1="3.9" x2="1.7" transform="translate(1.02 1.02)" fill="none"/><path d="M142.1,114.2a.6.6,0,0,1-.4-.1.917.917,0,0,1-.5-1.3l1.7-3.9a.985.985,0,0,1,1.8.8l-1.7,3.9C143,114,142.5,114.2,142.1,114.2Z" transform="translate(-141.08 -108.28)" fill="#0073ff"/></g><g transform="translate(157.255 75.835)"><line y1="4" x2="1.7" transform="translate(1.02 0.92)" fill="none"/><path d="M155.9,81.1a.6.6,0,0,1-.4-.1.917.917,0,0,1-.5-1.3l1.7-3.9a.985.985,0,1,1,1.8.8l-1.7,3.9A.875.875,0,0,1,155.9,81.1Z" transform="translate(-154.88 -75.18)" fill="#0073ff"/></g><g transform="translate(166.007 100.726)"><line x1="3.9" y1="1.6" transform="translate(1.02 1.02)" fill="none"/><path d="M168.4,103.4a.6.6,0,0,1-.4-.1l-3.9-1.7a.985.985,0,0,1,.8-1.8l3.9,1.7a.917.917,0,0,1,.5,1.3C169.3,103.2,168.9,103.4,168.4,103.4Z" transform="translate(-163.48 -99.68)" fill="#0073ff"/></g><g transform="translate(132.371 86.702)"><line x1="4" y1="1.6" transform="translate(0.92 1.12)" fill="none"/><path d="M135.3,89.6a.6.6,0,0,1-.4-.1L131,87.8a.985.985,0,1,1,.8-1.8l3.9,1.7a.917.917,0,0,1,.5,1.3A.875.875,0,0,1,135.3,89.6Z" transform="translate(-130.38 -85.88)" fill="#0073ff"/></g><g transform="translate(129.357 94.641)"><path d="M135.5,95.7h-7.1a1,1,0,0,1,0-2h7.1a1,1,0,0,1,0,2Z" transform="translate(-127.4 -93.7)" fill="#0073ff"/></g><g transform="translate(165.844 94.641)"><path d="M171.4,95.7h-7.1a1,1,0,0,1,0-2h7.1a.945.945,0,0,1,1,1C172.5,95.3,172,95.7,171.4,95.7Z" transform="translate(-163.3 -93.7)" fill="#0073ff"/></g><g transform="translate(151.169 109.212)"><path d="M149.9,117.2a.945.945,0,0,1-1-1V109a1,1,0,1,1,2,0v7.1A1.1,1.1,0,0,1,149.9,117.2Z" transform="translate(-148.9 -108)" fill="#0073ff"/></g><g transform="translate(151.169 72.815)"><path d="M149.9,81.3a.945.945,0,0,1-1-1V73.2a1,1,0,0,1,2,0v7.1A1,1,0,0,1,149.9,81.3Z" transform="translate(-148.9 -72.2)" fill="#0073ff"/></g><g transform="translate(135.75 104.931)"><line y1="5.1" x2="5.1" transform="translate(1 1)" fill="none"/><path d="M134.7,110.9a.908.908,0,0,1-.7-.3.967.967,0,0,1,0-1.4l5.1-5.1a.99.99,0,1,1,1.4,1.4l-5.1,5.1A1.08,1.08,0,0,1,134.7,110.9Z" transform="translate(-133.7 -103.8)" fill="#0073ff"/></g><g transform="translate(161.461 79.213)"><line y1="5.1" x2="5.1" transform="translate(1 0.9)" fill="none"/><path d="M160,85.6a.908.908,0,0,1-.7-.3.967.967,0,0,1,0-1.4l5.1-5.1a.99.99,0,1,1,1.4,1.4l-5.1,5.1A1.143,1.143,0,0,1,160,85.6Z" transform="translate(-159 -78.5)" fill="#0073ff"/></g><g transform="translate(161.461 104.931)"><line x1="5.1" y1="5.1" transform="translate(1 1)" fill="none"/><path d="M165.1,110.9a.908.908,0,0,1-.7-.3l-5.1-5.1a.99.99,0,0,1,1.4-1.4l5.1,5.1a.967.967,0,0,1,0,1.4A1.08,1.08,0,0,1,165.1,110.9Z" transform="translate(-159 -103.8)" fill="#0073ff"/></g><g transform="translate(135.75 79.213)"><line x1="5.1" y1="5.1" transform="translate(1 0.9)" fill="none"/><path d="M139.8,85.6a.908.908,0,0,1-.7-.3L134,80.2a.99.99,0,1,1,1.4-1.4l5.1,5.1a.967.967,0,0,1,0,1.4A2.117,2.117,0,0,1,139.8,85.6Z" transform="translate(-133.7 -78.5)" fill="#0073ff"/></g><g transform="translate(151.169 85.812)"><path d="M149.9,89.9a.945.945,0,0,1-1-1V86a1,1,0,0,1,2,0v2.9A1,1,0,0,1,149.9,89.9Z" transform="translate(-148.9 -85)" fill="#0073ff"/></g><g transform="translate(144.982 98.715)"><line y1="2.1" x2="2" transform="translate(1 1)" fill="none"/><path d="M143.8,101.8a.908.908,0,0,1-.7-.3.967.967,0,0,1,0-1.4l2.1-2.1a.99.99,0,0,1,1.4,1.4l-2.1,2.1A1.08,1.08,0,0,1,143.8,101.8Z" transform="translate(-142.8 -97.7)" fill="#0073ff"/></g><g transform="translate(155.245 88.451)"><line y1="2" x2="2" transform="translate(1 1)" fill="none"/><path d="M153.9,91.7a.908.908,0,0,1-.7-.3.967.967,0,0,1,0-1.4l2.1-2.1a.99.99,0,0,1,1.4,1.4l-2.1,2.1C154.5,91.6,154.1,91.7,153.9,91.7Z" transform="translate(-152.9 -87.6)" fill="#0073ff"/></g><g transform="translate(155.143 98.715)"><line x1="2" y1="2.1" transform="translate(1.1 1)" fill="none"/><path d="M155.9,101.8a.908.908,0,0,1-.7-.3l-2.1-2.1a.99.99,0,0,1,1.4-1.4l2.1,2.1a.967.967,0,0,1,0,1.4A.779.779,0,0,1,155.9,101.8Z" transform="translate(-152.8 -97.7)" fill="#0073ff"/></g><g transform="translate(144.88 88.451)"><line x1="2" y1="2" transform="translate(1.1 1)" fill="none"/><path d="M145.8,91.7a.908.908,0,0,1-.7-.3L143,89.3a.99.99,0,1,1,1.4-1.4l2.1,2.1a.967.967,0,0,1,0,1.4A.779.779,0,0,1,145.8,91.7Z" transform="translate(-142.7 -87.6)" fill="#0073ff"/></g><g transform="translate(300.63 91.953)"><path d="M305.4,145.6c-5.5,0-9.9-4-9.9-9.2s4.5-9.2,9.9-9.2a10.974,10.974,0,0,1,4,.8l.1-29.4a2.464,2.464,0,0,1,1.9-2.4l24.5-5.4a2.09,2.09,0,0,1,1.7.4,1.8,1.8,0,0,1,.7,1.5V132c0,4.9-4.3,8.9-9.4,8.9s-9.4-4-9.4-8.9c0-4.8,4.3-8.9,9.4-8.9a8.627,8.627,0,0,1,2.8.4V108.8l-16.5,3.5c0,4.3.2,23.3.2,23.7C315.4,141.6,310.9,145.6,305.4,145.6Zm0-16.1c-4.4,0-7.8,3.1-7.8,7.2s3.6,7.2,7.8,7.2c4.4,0,7.8-3.1,7.8-7.2,0-.4-.2-24.3-.2-24.5a1.053,1.053,0,0,1,.8-1l18.5-3.9a.778.778,0,0,1,.8.2,1.039,1.039,0,0,1,.4.8v17.3a1.039,1.039,0,0,1-.4.8,1.147,1.147,0,0,1-1,.1,9.828,9.828,0,0,0-3.4-.7c-4.1,0-7.5,3.1-7.5,6.8,0,3.8,3.4,6.8,7.5,6.8s7.5-3.1,7.5-6.8V93.2l-24.5,5.4a.43.43,0,0,0-.4.4l-.1,30.9a1.268,1.268,0,0,1-.4.9.908.908,0,0,1-1,0A7.639,7.639,0,0,0,305.4,129.5Z" transform="translate(-295.5 -90.764)" fill="#0073ff"/><g transform="translate(18.3 7.197)"><path d="M314.7,109.6a1.421,1.421,0,0,1-.6-.2.984.984,0,0,1-.3-.8v-4.8a1.2,1.2,0,0,1,.7-1L332.3,98a1.02,1.02,0,0,1,.9.2,1.039,1.039,0,0,1,.4.8v4.9a1.2,1.2,0,0,1-.7,1l-17.6,4.7h-.6Zm1-5.1v2.8l15.8-4.1v-2.8Z" transform="translate(-313.8 -97.961)" fill="#0073ff"/></g></g><g transform="translate(272.218 189.826)"><path d="M312,240.1h-.4a4.043,4.043,0,0,1-3.1-3.5l-.1-.5-3.8-.8.4-2.1,5.2,1.1.2,2a1.806,1.806,0,0,0,1.5,1.6l.9-4.1a1.062,1.062,0,0,0-.1-.8,1.794,1.794,0,0,0-.7-.5l-4-.9.4-2.1,4,.9a3.189,3.189,0,0,1,2.4,3.8l-.9,4.1A1.815,1.815,0,0,1,312,240.1Z" transform="translate(-267.5 -186.4)" fill="#0073ff"/><path d="M302.3,249.6a1.689,1.689,0,0,1-1-.3,3.887,3.887,0,0,1-2.1-3.4,8.56,8.56,0,0,1,.5-2.4c0-.1,0-.2.1-.2l-1.9-3.6,1.9-1,2.3,4.3-.1.4a4.076,4.076,0,0,1-.2.7,16.246,16.246,0,0,0-.4,1.9,2.039,2.039,0,0,0,1,1.6l2-3.6a.908.908,0,0,0,0-1c-.2-.3-3.1-5.8-3.1-5.8l1.9-1s2.9,5.5,3.1,5.8a3.186,3.186,0,0,1,0,3l-2.1,3.6A2.576,2.576,0,0,1,302.3,249.6Z" transform="translate(-267.5 -186.4)" fill="#0073ff"/><path d="M304.5,205.2a4.234,4.234,0,0,1-1.9-8l2.1-1.1a4.058,4.058,0,0,1,1.9-.4,4.234,4.234,0,0,1,1.9,8l-2.1,1.1A4.058,4.058,0,0,1,304.5,205.2Zm2.1-7.4a2.388,2.388,0,0,0-.9.2l-2.1,1.1a2.241,2.241,0,0,0-1.2,1.9,2.051,2.051,0,0,0,2.1,2.1,2.388,2.388,0,0,0,.9-.2l2.1-1.1a2.241,2.241,0,0,0,1.2-1.9A2.112,2.112,0,0,0,306.6,197.8Z" transform="translate(-267.5 -186.4)" fill="#0073ff"/><path d="M290.7,220h-2.1V207.1a1.58,1.58,0,0,1,1.6-1.6,1.884,1.884,0,0,1,.8.2l4.8,2.7-1.1,1.8-4-2.2v12Zm-.8-12.5Z" transform="translate(-267.5 -186.4)" fill="#0073ff"/><path d="M295,249.6h-5.3a3.222,3.222,0,0,1-3.2-3.2V242h2.1v4.4a1.11,1.11,0,0,0,1.1,1.1H295a1.922,1.922,0,0,0-1.3-1.8l-1.9-.6v-3.3h2.1v1.8l.4.1a4,4,0,0,1,2.7,3.8A1.97,1.97,0,0,1,295,249.6Z" transform="translate(-267.5 -186.4)" fill="#0073ff"/><path d="M277.7,249.6a2.663,2.663,0,0,1-1.2-.3l-4.4-2.9a3.115,3.115,0,0,1-.9-4.4l9-13.8V207.4a1.848,1.848,0,0,0-1.1-1.7l-9.7-3.9a3.173,3.173,0,0,1-1.9-2.8,3.009,3.009,0,0,1,3-3,2.959,2.959,0,0,1,1,.2l10.1,3.7a5.663,5.663,0,0,0,1.8.3h5a5.949,5.949,0,0,1,3.2.9l8.9,5.3-1.1,1.8-8.9-5.3a3.936,3.936,0,0,0-2.1-.6h-5a6.963,6.963,0,0,1-2.5-.5l-10.1-3.7a.9.9,0,0,0-1.2.9.76.76,0,0,0,.6.8l9.7,3.9a3.8,3.8,0,0,1,2.4,3.6v20.2L273,243a1.12,1.12,0,0,0,.3,1.5l4.4,2.9a2.46,2.46,0,0,0,.4-1.1,1.823,1.823,0,0,0-.5-1.1l-1.2-1.6,3.5-5.4,1.8,1.2-2.7,4.1.3.4a4.041,4.041,0,0,1,.9,2.5,3.81,3.81,0,0,1-.7,2.2,1.964,1.964,0,0,1-1.3.9A1.087,1.087,0,0,1,277.7,249.6Z" transform="translate(-267.5 -186.4)" fill="#0073ff"/><path d="M286,198.1a4.8,4.8,0,0,1-4.8-4.8v-2.1a4.8,4.8,0,1,1,9.6,0v2.1A4.866,4.866,0,0,1,286,198.1Zm0-9.5a2.582,2.582,0,0,0-2.6,2.6v2.1a2.6,2.6,0,1,0,5.2,0v-2.1A2.647,2.647,0,0,0,286,188.6Z" transform="translate(-267.5 -186.4)" fill="#0073ff"/><path d="M289.7,243.3a14.845,14.845,0,0,1-10-3.8,2.035,2.035,0,0,1-.6-1.5,1.9,1.9,0,0,1,.5-1.3c4.8-5.8,7.1-11.9,9.2-17.4,2.8-7.3,5-13,11.7-13h1.2a5.867,5.867,0,0,1,2.3.4l4.3,1.6,5.3-.9h.5a3.009,3.009,0,0,1,3,3,2.9,2.9,0,0,1-2.3,2.9l-6.1,1.4a3.3,3.3,0,0,1-1.4,0l-5.1-1,.2-1-.2,1v1.7c0,4.8,2.6,9.9,7.4,9.9a2.051,2.051,0,0,1,2.1,2.1,2.836,2.836,0,0,1-.4,1.3C311,229.3,300.1,243.3,289.7,243.3Zm10.9-34.9c-5,0-6.8,4-9.8,11.7-2,5.3-4.6,11.9-9.6,17.9a12.5,12.5,0,0,0,8.5,3.2c9.4,0,19.7-13.2,20.1-13.7-6.2,0-9.5-6.2-9.5-12.1v-1.7a2.051,2.051,0,0,1,2.1-2.1h.4l5.1,1h.5l6.1-1.4a.815.815,0,1,0-.3-1.6l-5.9,1-4.9-1.8a4.146,4.146,0,0,0-1.6-.3h-1.2Z" transform="translate(-267.5 -186.4)" fill="#0073ff"/></g><path d="M12.5,215.5a2.689,2.689,0,0,0,2.7-2.7,3.553,3.553,0,0,0-.2-1l-1.5.6c0,.1.1.3.1.4a1.216,1.216,0,0,1-1.2,1.2c-1.1,0-1.9-1.2-1.9-2.7,0-1.6.8-2.8,2.1-2.7a.714.714,0,0,0,.8-.7.829.829,0,0,0-.6-.9h-.4c-1.9,0-3.5,1.9-3.5,4.3C9,213.6,10.6,215.5,12.5,215.5Z" transform="translate(0 3.426)" fill="#0073ff"/><path d="M9,217.4s.8.4,1.2-.1-.2-1.1-.2-1.1a2.576,2.576,0,0,1-1-1.9c0-1.5,1.6-2.7,3.5-2.7a1.216,1.216,0,0,1,1.2,1.2h1.6a2.689,2.689,0,0,0-2.7-2.7c-2.8,0-5.1,1.9-5.1,4.3A3.556,3.556,0,0,0,9,217.4Z" transform="translate(0 3.426)" fill="#0073ff"/><path d="M90.1,200.6a3.465,3.465,0,0,0-3.6,1.5,2.652,2.652,0,0,0,1,3.7c.2.1.3.2.5.2h.2c.1,0,.2.1.3.1h0a2.689,2.689,0,0,0,2.8-1.3A13.354,13.354,0,0,0,92,203a1.99,1.99,0,0,1,.6,2.7.79.79,0,0,0,.1,1.1c.5.4,1.1-.1,1.1-.1.1-.1.2-.2.2-.3,1-1.7.1-4-1.9-5.2h0a3.873,3.873,0,0,0-5.4-3.1s-.8.4-.5,1.1a.866.866,0,0,0,1,.4,2.526,2.526,0,0,1,2.1.1A2.361,2.361,0,0,1,90.1,200.6Zm.3,1.6a3.226,3.226,0,0,1-.6,1.8,1.166,1.166,0,0,1-2-1.2A2.281,2.281,0,0,1,90.4,202.2Z" transform="translate(1.281 2.709)" fill="#0073ff"/><path d="M61.9,221.9c-2,.9-2.8,2.5-4.8,3.5,0,1.1,1.3,17.3,1.3,17.3-.4,2.5,1.1,7.2,1.1,7.2s4.2-6.4,1.8-7.1C61.2,242.7,61.9,223.4,61.9,221.9Z" transform="translate(0 3.426)" fill="none" stroke="#0073ff" stroke-linejoin="round" stroke-miterlimit="10" stroke-width="2"/><path d="M73.3,214.8H65.8a5.549,5.549,0,0,1-5.5-5.5v-1.6a2.456,2.456,0,0,0-2.5-2.4h-.4L50,206.8l-6.2-1.5h-.4a2.13,2.13,0,0,0-1.6.7,2.035,2.035,0,0,0-.6,1.5,2.131,2.131,0,0,0,1.5,2l6.5,2.2a1.949,1.949,0,0,0,.8.1h4a1.538,1.538,0,0,1,1.5,1.5v4a1.99,1.99,0,0,1-.7,1.6L48,226h6a6.791,6.791,0,0,0,5.3-2.3,7.672,7.672,0,0,1,5.5-2.4,8.313,8.313,0,0,0,8.1-5.3Z" transform="translate(0 3.426)" fill="none" stroke="#0073ff" stroke-linejoin="round" stroke-miterlimit="10" stroke-width="2"/><path d="M71.9,217.9a8.326,8.326,0,0,1-6.2,3.3c1.7.4,20.2,4.5,20.2,4.5,1.3.3,4.7,3.5,4.8,1.9.1-.9-2.4-6.9-4.5-4.5C86.2,223.2,74.3,218.7,71.9,217.9Z" transform="translate(0 3.426)" fill="none" stroke="#0073ff" stroke-linejoin="round" stroke-miterlimit="10" stroke-width="2"/><path d="M56.4,197.7a3.864,3.864,0,0,1,1.1-2.7l1.3-1.3a3.864,3.864,0,0,1,2.7-1.1,3.8,3.8,0,0,1,3.8,3.8,3.864,3.864,0,0,1-1.1,2.7l-1.3,1.3a3.818,3.818,0,0,1-6.5-2.7Z" transform="translate(0 2.619)" fill="none" stroke="#0073ff" stroke-miterlimit="10" stroke-width="2"/><line y2="29.8" transform="translate(252.754 78.078)" fill="none" stroke="#0073ff" stroke-linecap="round" stroke-miterlimit="10" stroke-width="2"/><ellipse cx="6" cy="4.6" rx="6" ry="4.6" transform="matrix(0.836, -0.548, 0.548, 0.836, 239.817, 110.258)" fill="none" stroke="#0073ff" stroke-linecap="round" stroke-miterlimit="10" stroke-width="2"/><path d="M248.9,81.8c8.9,1.8,12.8,7.5,7.3,15.6" transform="translate(3.948 0.8)" fill="none" stroke="#0073ff" stroke-linecap="round" stroke-miterlimit="10" stroke-width="2"/><line x2="4.7" y2="2.2" transform="translate(268.142 212.626)" fill="none" stroke="#0073ff" stroke-linecap="round" stroke-miterlimit="10" stroke-width="2"/><line x2="4.7" transform="translate(267.634 221.326)" fill="none" stroke="#0073ff" stroke-linecap="round" stroke-miterlimit="10" stroke-width="2"/><line y1="3.5" x2="4.8" transform="translate(270.074 227.426)" fill="none" stroke="#0073ff" stroke-linecap="round" stroke-miterlimit="10" stroke-width="2"/><g transform="translate(396.86 217.562)"><path d="M391.4,237.7a3.043,3.043,0,0,1-.8-.8,2.275,2.275,0,0,1,.1-2.5l4.2-6.3a.187.187,0,0,0,0-.3l-2.8-7a2.316,2.316,0,0,1,.4-2.4,2.375,2.375,0,0,1,2.4-.7l7.3,2a.367.367,0,0,0,.3-.1l5.8-4.9a2.494,2.494,0,0,1,2.5-.4,2.285,2.285,0,0,1,1.4,2l.3,7.6c0,.1.1.2.2.3l6.4,4a2.234,2.234,0,0,1,1.1,2.2,2.584,2.584,0,0,1-1.5,2h0l-7.1,2.7a.215.215,0,0,0-.2.2l-1.8,7.4a2.25,2.25,0,0,1-1.8,1.7,2.2,2.2,0,0,1-2.3-.8l-4.7-5.9a.367.367,0,0,0-.3-.1l-7.6.5A2.235,2.235,0,0,1,391.4,237.7Zm18.5-21.5h0a.3.3,0,0,0-.4,0l-5.8,4.9a2.337,2.337,0,0,1-2.1.5l-7.3-2c-.2,0-.3,0-.4.1s-.1.2-.1.4l2.8,7a2.463,2.463,0,0,1-.2,2.2l-4.2,6.3c-.1.2-.1.3,0,.4,0,.1.1.2.3.2l7.6-.5a2.248,2.248,0,0,1,2,.9l4.7,5.9a.494.494,0,0,0,.3.1q.15,0,.3-.3l1.8-7.4a2.2,2.2,0,0,1,1.5-1.6l7.1-2.7h0c.2-.1.2-.2.2-.3s0-.2-.2-.3l-6.4-4a2.144,2.144,0,0,1-1.1-1.9l-.3-7.6C410.1,216.3,410,216.2,409.9,216.2Zm8.3,15.3Z" transform="translate(-390.271 -214.136)" fill="#0073ff"/></g></g></svg>