<svg width="68" height="69" viewBox="0 0 68 69" fill="none" xmlns="http://www.w3.org/2000/svg">
<path d="M0.808 69L33.256 39.72C35.112 37.992 36.904 36.328 38.632 34.728C40.424 33.128 41.928 31.496 43.144 29.832C44.424 28.104 45.192 26.248 45.448 24.264C45.64 22.6 45.32 21.192 44.488 20.04C43.72 18.824 42.28 18.184 40.168 18.12C38.504 18.056 37 18.504 35.656 19.464C34.376 20.424 33.32 21.64 32.488 23.112C31.656 24.584 31.08 26.12 30.76 27.72H10.408C11.24 22.792 13.032 18.248 15.784 14.088C18.6 9.928 22.248 6.6 26.728 4.10399C31.272 1.544 36.584 0.263998 42.664 0.263998C47.72 0.263998 52.2 1.288 56.104 3.336C60.008 5.384 62.952 8.136 64.936 11.592C66.984 14.984 67.688 18.76 67.048 22.92C66.6 26.632 65.192 29.928 62.824 32.808C60.52 35.688 57.832 38.248 54.76 40.488L41.704 49.8H65.32L62.248 69H0.808Z" fill="#0073FF"/>
</svg>
