<svg width="109" height="109" viewBox="0 0 109 109" fill="none" xmlns="http://www.w3.org/2000/svg">
<path d="M54.9961 107.994C84.2672 107.994 107.996 84.2652 107.996 54.9941C107.996 25.723 84.2672 1.99414 54.9961 1.99414C25.725 1.99414 1.99609 25.723 1.99609 54.9941C1.99609 84.2652 25.725 107.994 54.9961 107.994Z" stroke="#0073FF" stroke-width="2" stroke-miterlimit="10"/>
<path d="M105.748 39.6621H3.4707" stroke="#0073FF" stroke-width="2" stroke-miterlimit="10"/>
<path d="M83.3181 39.6621L69.6286 51.2965C67.8584 52.7868 66.704 54.8809 66.3888 57.1734C66.0735 59.4659 66.62 61.7938 67.9223 63.7066V63.7066C68.9433 65.2378 69.4881 67.037 69.4881 68.8775C69.4881 70.7179 68.9433 72.5171 67.9223 74.0483L46.6189 106.586" stroke="#0073FF" stroke-width="2" stroke-miterlimit="10"/>
<path d="M54.9958 39.6621C55.0734 39.6621 40.5049 45.3758 31.999 48.7109C30.2205 49.4221 28.6744 50.6133 27.5331 52.1517C26.3919 53.6901 25.7004 55.5152 25.5356 57.4236L25.3029 60.0089C25.1478 61.7627 24.5475 63.4478 23.559 64.9046C22.5704 66.3615 21.2263 67.5418 19.6539 68.3338L5.99023 75.2238" stroke="#0073FF" stroke-width="2" stroke-miterlimit="10"/>
<path d="M27.009 83.666C30.2795 83.666 30.2795 86.2514 33.55 86.2514C36.8205 86.2514 36.8205 83.666 40.0781 83.666C43.3356 83.666 43.3485 86.2514 46.619 86.2514" stroke="#0073FF" stroke-width="2" stroke-miterlimit="10"/>
<path d="M32.9043 69.3945C36.1619 69.3945 36.1619 71.9799 39.4323 71.9799C42.7028 71.9799 42.7028 69.3945 45.9733 69.3945C49.2438 69.3945 49.2438 71.9799 52.5143 71.9799" stroke="#0073FF" stroke-width="2" stroke-miterlimit="10"/>
<path d="M42.9353 55.2793C46.1929 55.2793 46.1929 57.8633 49.3987 57.8633C52.6046 57.8633 52.6692 55.2793 55.9397 55.2793C59.2102 55.2793 59.2102 57.8633 62.4031 57.8633" stroke="#0073FF" stroke-width="2" stroke-miterlimit="10"/>
</svg>
