<svg width="65" height="65" viewBox="0 0 65 65" fill="none" xmlns="http://www.w3.org/2000/svg">
<g clip-path="url(#clip0)">
<path d="M32.0781 63.4619C49.0611 63.4619 62.8286 49.6944 62.8286 32.7114C62.8286 15.7284 49.0611 1.96094 32.0781 1.96094C15.0951 1.96094 1.32765 15.7284 1.32765 32.7114C1.32765 49.6944 15.0951 63.4619 32.0781 63.4619Z" stroke="#0073FF" stroke-width="2" stroke-miterlimit="10"/>
<path d="M22.035 28.9535L28.8781 17.0981C30.2764 14.6756 33.773 14.6756 35.1712 17.0981L38.3794 22.6553" stroke="#0073FF" stroke-width="2" stroke-miterlimit="10"/>
<path d="M32.9331 44.6916H19.2427C16.4459 44.6916 14.6979 41.6642 16.096 39.2419L19.3105 33.6738" stroke="#0073FF" stroke-width="2" stroke-miterlimit="10"/>
<path d="M41.1041 27.375L47.9536 39.2413C49.3517 41.6635 47.6038 44.6909 44.8069 44.6909H38.383" stroke="#0073FF" stroke-width="2" stroke-miterlimit="10"/>
<path d="M27.4835 39.2422L32.9333 44.692L27.4835 50.1418" stroke="#0073FF" stroke-width="2" stroke-miterlimit="10"/>
<path d="M27.4835 39.2422L32.9333 44.692L27.4835 50.1418" stroke="#0073FF" stroke-width="2" stroke-miterlimit="10"/>
<path d="M39.113 34.8234L41.1079 27.3789L48.5525 29.3735" stroke="#0073FF" stroke-width="2" stroke-miterlimit="10"/>
<path d="M29.478 26.9576L22.0334 28.9525L20.0385 21.5078" stroke="#0073FF" stroke-width="2" stroke-miterlimit="10"/>
</g>
<defs>
<clipPath id="clip0">
<rect width="64" height="64" fill="white" transform="translate(0.078125 0.710938)"/>
</clipPath>
</defs>
</svg>
