<?xml version="1.0" encoding="utf-8"?>
<!-- Generator: Adobe Illustrator 25.2.0, SVG Export Plug-In . SVG Version: 6.00 Build 0)  -->
<svg version="1.1" id="Layer_1" xmlns="http://www.w3.org/2000/svg" xmlns:xlink="http://www.w3.org/1999/xlink" x="0px" y="0px"
	 viewBox="0 0 108 108" style="enable-background:new 0 0 108 108;" xml:space="preserve">
<style type="text/css">
	.st0{fill:url(#SVGID_1_);stroke:#0073FF;stroke-width:2;stroke-miterlimit:10;}
	.st1{fill:url(#SVGID_2_);stroke:#0073FF;stroke-width:2;stroke-linecap:round;stroke-linejoin:round;stroke-miterlimit:10;}
	.st2{fill:#0073FF;}
	.st3{fill:url(#SVGID_3_);stroke:#0073FF;stroke-width:2;stroke-miterlimit:10;}
	.st4{fill:none;stroke:#0073FF;stroke-width:2;stroke-miterlimit:10;}
	.st5{fill:url(#SVGID_4_);stroke:#0073FF;stroke-width:2;stroke-linecap:round;stroke-linejoin:round;stroke-miterlimit:10;}
	.st6{fill:url(#SVGID_5_);stroke:#0073FF;stroke-width:2;stroke-linecap:round;stroke-linejoin:round;stroke-miterlimit:10;}
	.st7{fill:none;stroke:#0073FF;stroke-width:2;stroke-linecap:round;stroke-linejoin:round;stroke-miterlimit:10;}
</style>
<linearGradient id="SVGID_1_" gradientUnits="userSpaceOnUse" x1="54" y1="38.6382" x2="54" y2="-1.4558">
	<stop  offset="9.949999e-15" style="stop-color:#F0F7FF"/>
	<stop  offset="1" style="stop-color:#CCE3FF"/>
</linearGradient>
<circle class="st0" cx="54" cy="54" r="53"/>
<linearGradient id="SVGID_2_" gradientUnits="userSpaceOnUse" x1="54" y1="39.8783" x2="54" y2="260.9917">
	<stop  offset="0" style="stop-color:#CCE3FF"/>
	<stop  offset="1" style="stop-color:#0073FF"/>
</linearGradient>
<path class="st1" d="M107,54c0,29.3-23.7,53-53,53S1,83.3,1,54c0-5.3,0.8-10.5,2.3-15.3h101.5C106.2,43.6,107,48.7,107,54z"/>
<circle class="st2" cx="90.9" cy="59.1" r="1.9"/>
<circle class="st2" cx="16.5" cy="60.6" r="1.9"/>
<circle class="st2" cx="95.9" cy="47.4" r="1.9"/>
<circle class="st2" cx="10.4" cy="49.2" r="1.9"/>
<g>
	<linearGradient id="SVGID_3_" gradientUnits="userSpaceOnUse" x1="39.9395" y1="35.4481" x2="114.9035" y2="105.4693">
		<stop  offset="9.949999e-15" style="stop-color:#F0F7FF"/>
		<stop  offset="1" style="stop-color:#CCE3FF"/>
	</linearGradient>
	<rect x="25.3" y="39" class="st3" width="56.5" height="18.1"/>
	<path class="st4" d="M25.3,49.2L38.4,39 M81.7,50.9l-8.1,6.3 M81.7,41.8L61.9,57.2 M73.5,39.1L50.2,57.2 M61.8,39.1L38.5,57.2
		 M50.1,39.1L26.8,57.2"/>
</g>
<linearGradient id="SVGID_4_" gradientUnits="userSpaceOnUse" x1="40.6275" y1="49.8357" x2="40.6275" y2="13.548">
	<stop  offset="0" style="stop-color:#CCE3FF"/>
	<stop  offset="1" style="stop-color:#0073FF"/>
</linearGradient>
<polygon class="st5" points="24.6,38.6 40.9,26.1 56.7,38.8 "/>
<linearGradient id="SVGID_5_" gradientUnits="userSpaceOnUse" x1="64.3044" y1="45.4953" x2="64.3044" y2="7.4493">
	<stop  offset="0" style="stop-color:#CCE3FF"/>
	<stop  offset="1" style="stop-color:#0073FF"/>
</linearGradient>
<polygon class="st6" points="47.5,31.3 60.1,21.5 81.1,38.8 56.6,38.8 "/>
<g>
	<path class="st7" d="M17.4,71.7c2.6,0,4.7-1.6,4.7-4.3c0,2.6,2.1,4.3,4.7,4.3c2.6,0,4.7-1.6,4.7-4.3c0,2.6,2.1,4.3,4.7,4.3
		c2.6,0,4.7-1.6,4.7-4.3c0,2.6,2.1,4.3,4.7,4.3c2.6,0,4.7-1.6,4.7-4.3c0,2.6,2.1,4.3,4.7,4.3c2.6,0,4.7-1.6,4.7-4.3
		c0,2.6,2.1,4.3,4.7,4.3c2.6,0,4.7-1.6,4.7-4.3c0,2.6,2.1,4.3,4.7,4.3s4.7-1.6,4.7-4.3c0,2.6,2.1,4.3,4.7,4.3c2.6,0,4.7-1.6,4.7-4.3
		c0,2.6,2.1,4.3,4.7,4.3"/>
</g>
<g>
	<path class="st7" d="M27.1,84.9c2.6,0,4.7-1.6,4.7-4.3c0,2.6,2.1,4.3,4.7,4.3c2.6,0,4.7-1.6,4.7-4.3c0,2.6,2.1,4.3,4.7,4.3
		c2.6,0,4.7-1.6,4.7-4.3c0,2.6,2.1,4.3,4.7,4.3c2.6,0,4.7-1.6,4.7-4.3c0,2.6,2.1,4.3,4.7,4.3"/>
	<path class="st7" d="M65,84.9c2.6,0,4.7-1.6,4.7-4.3c0,2.6,2.1,4.3,4.7,4.3c2.6,0,4.7-1.6,4.7-4.3c0,2.6,2.1,4.3,4.7,4.3"/>
</g>
</svg>
