<?xml version="1.0" encoding="utf-8"?>
<!-- Generator: Adobe Illustrator 25.2.0, SVG Export Plug-In . SVG Version: 6.00 Build 0)  -->
<svg version="1.1" id="Layer_1" xmlns="http://www.w3.org/2000/svg" xmlns:xlink="http://www.w3.org/1999/xlink" x="0px" y="0px"
	 viewBox="0 0 108 108" style="enable-background:new 0 0 108 108;" xml:space="preserve">
<style type="text/css">
	.st0{fill:url(#SVGID_1_);stroke:#0073FF;stroke-width:2;stroke-miterlimit:10;}
	.st1{fill:url(#SVGID_2_);stroke:#0073FF;stroke-width:2;stroke-linecap:round;stroke-linejoin:round;stroke-miterlimit:10;}
	.st2{fill:url(#SVGID_3_);stroke:#0073FF;stroke-width:2;stroke-miterlimit:10;}
	.st3{fill:none;stroke:#0073FF;stroke-width:2;stroke-linecap:round;stroke-miterlimit:10;}
</style>
<g>
	<g>
		<linearGradient id="SVGID_1_" gradientUnits="userSpaceOnUse" x1="53.9984" y1="38.5949" x2="53.9984" y2="-1.4991">
			<stop  offset="9.949999e-15" style="stop-color:#F0F7FF"/>
			<stop  offset="1" style="stop-color:#CCE3FF"/>
		</linearGradient>
		<circle class="st0" cx="54" cy="54" r="53"/>
		<linearGradient id="SVGID_2_" gradientUnits="userSpaceOnUse" x1="54.0017" y1="33.19" x2="54.0017" y2="170.7499">
			<stop  offset="0" style="stop-color:#CCE3FF"/>
			<stop  offset="1" style="stop-color:#0073FF"/>
		</linearGradient>
		<path class="st1" d="M107,54c0,29.3-23.7,53-53,53c-3.7,0-7.3-0.4-10.8-1.1c-0.5-0.1-1.1-0.2-1.6-0.4c-0.5-0.1-1.1-0.3-1.6-0.4
			c-0.5-0.2-1.1-0.3-1.6-0.5c-1-0.3-2-0.6-2.9-1c-0.1,0-0.3-0.1-0.4-0.1c-0.4-0.2-0.8-0.3-1.3-0.5c-0.5-0.2-1-0.4-1.5-0.6
			c0,0,0,0-0.1,0c-0.5-0.2-0.9-0.4-1.4-0.7c-1-0.5-1.9-1-2.9-1.5c-0.9-0.5-1.8-1.1-2.7-1.6c-0.4-0.3-0.9-0.6-1.3-0.9
			c-0.9-0.6-1.8-1.3-2.6-1.9c-0.4-0.3-0.8-0.7-1.2-1c-0.4-0.3-0.8-0.7-1.2-1c-0.8-0.7-1.6-1.4-2.3-2.2s-1.5-1.5-2.2-2.3
			c-0.3-0.4-0.7-0.8-1-1.2c-0.3-0.4-0.7-0.8-1-1.2c-0.3-0.3-0.5-0.7-0.8-1.1c-0.2-0.2-0.4-0.5-0.5-0.7c-0.2-0.3-0.5-0.6-0.7-1
			c-0.3-0.4-0.5-0.8-0.8-1.2c-0.3-0.4-0.5-0.9-0.8-1.3c-0.2-0.4-0.5-0.8-0.7-1.1c-0.2-0.4-0.4-0.7-0.6-1.1c-0.2-0.3-0.4-0.6-0.5-1
			c0-0.1-0.1-0.1-0.1-0.2c-0.4-0.8-0.8-1.5-1.1-2.3c0,0,0-0.1-0.1-0.1c-0.2-0.5-0.4-1-0.6-1.5v0C2.4,68,1,61.2,1,54
			c0-5.3,0.8-10.5,2.3-15.3c0,0,9.7-3,28.5-3c11.1,0,19.6,2.2,28.3,3.8c6,1.1,12,1.5,19-0.3c0.6-0.2,1.1-0.3,1.7-0.4
			c12.1-2.5,24.1,0,24.1,0C106.2,43.5,107,48.7,107,54z"/>
		<linearGradient id="SVGID_3_" gradientUnits="userSpaceOnUse" x1="43.3794" y1="101.1739" x2="42.6171" y2="38.9246">
			<stop  offset="9.949999e-15" style="stop-color:#F0F7FF"/>
			<stop  offset="1" style="stop-color:#CCE3FF"/>
		</linearGradient>
		<path class="st2" d="M77.7,78.7c-5.7,16.2-32,26.9-32,26.9l-2.5,0.3c-0.5-0.1-1.1-0.2-1.6-0.4c-0.5-0.1-1.1-0.3-1.6-0.4
			c-0.5-0.2-1.1-0.3-1.6-0.5c-1-0.3-2-0.6-2.9-1c-0.1,0-0.3-0.1-0.4-0.1c-0.4-0.2-0.8-0.3-1.3-0.5c-0.5-0.2-1-0.4-1.5-0.6
			c0,0,0,0-0.1,0c-0.5-0.2-0.9-0.4-1.4-0.7c-1-0.5-1.9-1-2.9-1.5c-0.9-0.5-1.8-1.1-2.7-1.6c-0.4-0.3-0.9-0.6-1.3-0.9
			c-0.9-0.6-1.8-1.3-2.6-1.9c-0.4-0.3-0.8-0.7-1.2-1c-0.4-0.3-0.8-0.7-1.2-1c-0.8-0.7-1.6-1.4-2.3-2.2s-1.5-1.5-2.2-2.3
			c-0.3-0.4-0.7-0.8-1-1.2c-0.3-0.4-0.7-0.8-1-1.2c-0.3-0.3-0.5-0.7-0.8-1.1c-0.2-0.2-0.4-0.5-0.5-0.7c-0.2-0.3-0.5-0.6-0.7-1
			c-0.3-0.4-0.5-0.8-0.8-1.2c-0.3-0.4-0.5-0.9-0.8-1.3c-0.2-0.4-0.5-0.8-0.7-1.1c-0.2-0.4-0.4-0.7-0.6-1.1c-0.2-0.3-0.4-0.6-0.5-1
			c0-0.1-0.1-0.1-0.1-0.2c-0.4-0.8-0.8-1.5-1.1-2.3c0,0,0-0.1-0.1-0.1c-0.2-0.5-0.4-1-0.6-1.5v0c0,0,17.4-2.6,24.3-9.8
			c4.3-4.5-3-11.9,4.3-18.3c4.3-3.7,18.2-5.7,26.4-6.7c6,1.1,12,1.5,19-0.3c0.6-0.2,1.1-0.3,1.7-0.4h0.1c0,0-19.4,7.7-17.6,15.9
			C65,62.9,82.9,63.9,77.7,78.7z"/>
	</g>
	<path class="st3" d="M46.7,52c-11.3,6.1,8.5,13.3-12.9,25.4"/>
	<path class="st3" d="M40.2,92.2c0,0,18.1-8.4,18.1-20.9"/>
</g>
</svg>
