<?xml version="1.0" encoding="utf-8"?>
<!-- Generator: Adobe Illustrator 25.2.0, SVG Export Plug-In . SVG Version: 6.00 Build 0)  -->
<svg version="1.1" id="Layer_1" xmlns="http://www.w3.org/2000/svg" xmlns:xlink="http://www.w3.org/1999/xlink" x="0px" y="0px"
	 viewBox="0 0 108 108" style="enable-background:new 0 0 108 108;" xml:space="preserve">
<style type="text/css">
	.st0{fill:url(#SVGID_1_);stroke:#0073FF;stroke-width:2;stroke-miterlimit:10;}
	.st1{fill:url(#SVGID_2_);stroke:#0073FF;stroke-width:2;stroke-miterlimit:10;}
	.st2{fill:url(#SVGID_3_);stroke:#0073FF;stroke-width:2;stroke-linecap:round;stroke-linejoin:round;stroke-miterlimit:10;}
	.st3{fill:url(#SVGID_4_);stroke:#0073FF;stroke-width:2;stroke-linecap:round;stroke-linejoin:round;stroke-miterlimit:10;}
	.st4{fill:url(#SVGID_5_);stroke:#0073FF;stroke-width:2;stroke-linecap:round;stroke-linejoin:round;stroke-miterlimit:10;}
	.st5{fill:none;stroke:#0073FF;stroke-width:2;stroke-linecap:round;stroke-linejoin:round;stroke-miterlimit:10;}
</style>
<g>
	<linearGradient id="SVGID_1_" gradientUnits="userSpaceOnUse" x1="54" y1="83.1115" x2="54" y2="12.2677">
		<stop  offset="9.949999e-15" style="stop-color:#FFFFFF"/>
		<stop  offset="1" style="stop-color:#CCE3FF"/>
	</linearGradient>
	<path class="st0" d="M107,54c0,29.3-23.7,53-53,53C26.9,107,4.6,86.7,1.4,60.5C1.1,58.4,1,56.2,1,54c0-11.8,3.8-22.6,10.3-31.4
		C21,9.5,36.5,1,54,1C83.3,1,107,24.7,107,54z"/>
	<g>
		<linearGradient id="SVGID_2_" gradientUnits="userSpaceOnUse" x1="54" y1="-9.5691" x2="54" y2="45.6449">
			<stop  offset="9.949999e-15" style="stop-color:#FFFFFF"/>
			<stop  offset="1" style="stop-color:#CCE3FF"/>
		</linearGradient>
		<path class="st1" d="M54,14.1c-15.2,0-27.4,12.3-27.4,27.4C26.6,56.7,38.8,69,54,69s27.4-12.3,27.4-27.4
			C81.4,26.4,69.2,14.1,54,14.1z"/>
		<linearGradient id="SVGID_3_" gradientUnits="userSpaceOnUse" x1="54" y1="55.1105" x2="54" y2="27.3872">
			<stop  offset="0" style="stop-color:#CCE3FF"/>
			<stop  offset="1" style="stop-color:#0073FF"/>
		</linearGradient>
		<path class="st2" d="M54,55.6c-7.7,0-14-6.3-14-14s6.3-14,14-14s14,6.3,14,14S61.7,55.6,54,55.6z"/>
		<linearGradient id="SVGID_4_" gradientUnits="userSpaceOnUse" x1="54.0009" y1="48.7713" x2="54.0009" y2="103.4477">
			<stop  offset="0" style="stop-color:#CCE3FF"/>
			<stop  offset="1" style="stop-color:#0073FF"/>
		</linearGradient>
		<path class="st3" d="M74.5,76.6l-12.7-26c-1.4-2.8-4.3-4.5-7.5-4.5h0c-3.2,0-6,1.7-7.4,4.4l-13.3,27"/>
	</g>
	<g>
		<linearGradient id="SVGID_5_" gradientUnits="userSpaceOnUse" x1="53.9959" y1="74.3032" x2="53.9959" y2="122.3039">
			<stop  offset="0" style="stop-color:#CCE3FF"/>
			<stop  offset="1" style="stop-color:#0073FF"/>
		</linearGradient>
		<path class="st4" d="M101.4,77l0,0.8c-8.7,17.3-26.6,29.1-47.3,29.1c-20.8,0-38.8-12-47.5-29.5C6.7,77.1,6.8,77,6.8,77
			c2.6,0,4.7-1.6,4.7-4.3c0,2.6,2.1,4.3,4.7,4.3c2.6,0,4.7-1.6,4.7-4.3c0,2.6,2.1,4.3,4.7,4.3c2.6,0,4.7-1.6,4.7-4.3
			c0,2.6,2.1,4.3,4.7,4.3c2.6,0,4.7-1.6,4.7-4.3c0,2.6,2.1,4.3,4.7,4.3c2.6,0,4.7-1.6,4.7-4.3c0,2.6,2.1,4.3,4.7,4.3
			c2.6,0,4.7-1.6,4.7-4.3c0,2.6,2.1,4.3,4.7,4.3c2.6,0,4.7-1.6,4.7-4.3c0,2.6,2.1,4.3,4.7,4.3c2.6,0,4.7-1.6,4.7-4.3
			c0,2.6,2.1,4.3,4.7,4.3c2.6,0,4.7-1.6,4.7-4.3c0,2.6,2.1,4.3,4.7,4.3c2.6,0,4.7-1.6,4.7-4.3C96.7,75.4,98.8,77,101.4,77z"/>
		<path class="st5" d="M28,90c2.6,0,4.7-1.6,4.7-4.3c0,2.6,2.1,4.3,4.7,4.3c2.6,0,4.7-1.6,4.7-4.3c0,2.6,2.1,4.3,4.7,4.3
			c2.6,0,4.7-1.6,4.7-4.3c0,2.6,2.1,4.3,4.7,4.3"/>
		<path class="st5" d="M64.8,90c2.6,0,4.7-1.6,4.7-4.3c0,2.6,2.1,4.3,4.7,4.3c2.6,0,4.7-1.6,4.7-4.3c0,2.6,2.1,4.3,4.7,4.3"/>
	</g>
</g>
</svg>
