<?xml version="1.0" encoding="utf-8"?>
<!-- Generator: Adobe Illustrator 25.2.0, SVG Export Plug-In . SVG Version: 6.00 Build 0)  -->
<svg version="1.2" baseProfile="tiny" id="Layer_1" xmlns="http://www.w3.org/2000/svg" xmlns:xlink="http://www.w3.org/1999/xlink"
	 x="0px" y="0px" viewBox="0 0 66 66" overflow="visible" xml:space="preserve">
<g>
	<linearGradient id="SVGID_1_" gradientUnits="userSpaceOnUse" x1="33" y1="67.45461" x2="33" y2="1.02255">
		<stop  offset="9.949999e-15" style="stop-color:#FFFFFF"/>
		<stop  offset="1" style="stop-color:#CCE3FF"/>
	</linearGradient>
	<circle fill="url(#SVGID_1_)" stroke="#0073FF" stroke-width="2" stroke-miterlimit="10" cx="33" cy="33" r="32"/>
	<g>
		<linearGradient id="SVGID_2_" gradientUnits="userSpaceOnUse" x1="19.94368" y1="44.86841" x2="22.61874" y2="44.86841">
			<stop  offset="0" style="stop-color:#CCE3FF"/>
			<stop  offset="1" style="stop-color:#0073FF"/>
		</linearGradient>
		
			<line fill="url(#SVGID_2_)" stroke="#0073FF" stroke-width="2" stroke-linecap="round" stroke-linejoin="round" stroke-miterlimit="10" x1="22.61874" y1="42.55228" x2="19.94368" y2="47.18454"/>
		<linearGradient id="SVGID_3_" gradientUnits="userSpaceOnUse" x1="32.47659" y1="44.86841" x2="35.15166" y2="44.86841">
			<stop  offset="0" style="stop-color:#CCE3FF"/>
			<stop  offset="1" style="stop-color:#0073FF"/>
		</linearGradient>
		
			<line fill="url(#SVGID_3_)" stroke="#0073FF" stroke-width="2" stroke-linecap="round" stroke-linejoin="round" stroke-miterlimit="10" x1="35.15166" y1="42.55228" x2="32.47659" y2="47.18454"/>
		<linearGradient id="SVGID_4_" gradientUnits="userSpaceOnUse" x1="23.80909" y1="50.57982" x2="26.40019" y2="50.57982">
			<stop  offset="0" style="stop-color:#CCE3FF"/>
			<stop  offset="1" style="stop-color:#0073FF"/>
		</linearGradient>
		
			<line fill="url(#SVGID_4_)" stroke="#0073FF" stroke-width="2" stroke-linecap="round" stroke-linejoin="round" stroke-miterlimit="10" x1="26.40019" y1="48.33562" x2="23.80909" y2="52.82402"/>
		<linearGradient id="SVGID_5_" gradientUnits="userSpaceOnUse" x1="35.62974" y1="50.57982" x2="38.22166" y2="50.57982">
			<stop  offset="0" style="stop-color:#CCE3FF"/>
			<stop  offset="1" style="stop-color:#0073FF"/>
		</linearGradient>
		
			<line fill="url(#SVGID_5_)" stroke="#0073FF" stroke-width="2" stroke-linecap="round" stroke-linejoin="round" stroke-miterlimit="10" x1="38.22166" y1="48.33562" x2="35.62974" y2="52.82402"/>
		<linearGradient id="SVGID_6_" gradientUnits="userSpaceOnUse" x1="43.67314" y1="44.86841" x2="46.34739" y2="44.86841">
			<stop  offset="0" style="stop-color:#CCE3FF"/>
			<stop  offset="1" style="stop-color:#0073FF"/>
		</linearGradient>
		
			<line fill="url(#SVGID_6_)" stroke="#0073FF" stroke-width="2" stroke-linecap="round" stroke-linejoin="round" stroke-miterlimit="10" x1="46.34739" y1="42.55228" x2="43.67314" y2="47.18454"/>
	</g>
	<g>
		<linearGradient id="SVGID_7_" gradientUnits="userSpaceOnUse" x1="33.39332" y1="41.08134" x2="33.39332" y2="12.66181">
			<stop  offset="0" style="stop-color:#CCE3FF"/>
			<stop  offset="1" style="stop-color:#0073FF"/>
		</linearGradient>
		
			<path fill="url(#SVGID_7_)" stroke="#0073FF" stroke-width="2" stroke-linecap="round" stroke-linejoin="round" stroke-miterlimit="10" d="
			M44.67652,20.1666c-0.31139,0-0.61718,0.02317-0.9204,0.05416c-1.04786-4.48537-5.06278-7.82983-9.86736-7.82983
			c-5.60165,0-10.14265,4.54099-10.14265,10.14265c0,0.15564,0.01634,0.30688,0.02317,0.46081
			c-0.76903-0.25931-1.68662-0.44471-2.85108-0.44471c-4.27619,0-7.74262,3.4674-7.74262,7.74298
			c0,4.27607,3.46642,7.74298,7.74262,7.74298h0.11563h23.64268c4.93483,0,8.93452-4.00041,8.93452-8.93489
			S49.61135,20.1666,44.67652,20.1666z"/>
		<path fill="none" stroke="#0073FF" stroke-width="2" stroke-linecap="round" stroke-linejoin="round" stroke-miterlimit="10" d="
			M26.25537,24.27067c-1.14861-0.67392-2.57592-1.69137-5.33973-1.69137c-4.27614,0-7.74263,3.46751-7.74263,7.743
			c0,4.04626,3.10374,7.36785,7.06031,7.71334"/>
		<path fill="none" stroke="#0073FF" stroke-width="2" stroke-linecap="round" stroke-linejoin="round" stroke-miterlimit="10" d="
			M36.88057,38.02981h8.05934h-0.30628c4.93485,0,8.93451-4.00039,8.93451-8.93488c0-4.93452-3.99966-8.93419-8.93451-8.93419
			c-1.43935,0-2.79929,0.33997-4.00322,0.94514"/>
	</g>
</g>
</svg>
