<?xml version="1.0" standalone="no"?>
<!DOCTYPE svg PUBLIC "-//W3C//DTD SVG 1.1//EN" "http://www.w3.org/Graphics/SVG/1.1/DTD/svg11.dtd" >
<svg xmlns="http://www.w3.org/2000/svg">
<metadata>Generated by IcoMoon</metadata>
<defs>
<font id="cp-vue" horiz-adv-x="1024">
<font-face units-per-em="1024" ascent="960" descent="-64" />
<missing-glyph horiz-adv-x="1024" />
<glyph unicode="&#x20;" horiz-adv-x="512" d="" />
<glyph unicode="&#xe900;" glyph-name="half-star" horiz-adv-x="1075" d="M305.065 313.564l-60.366-351.964 316.084 166.175 316.078-166.175-60.365 351.964 255.713 249.26-353.388 51.351-158.039 320.226-158.043-320.226-353.39-51.351 255.715-249.26zM760.361 121.974l-199.562 104.914v509.275l99.773-202.165 223.124-32.421-161.454-157.379 38.118-222.223z" />
<glyph unicode="&#xe901;" glyph-name="star-fill" horiz-adv-x="1075" d="M560.788 127.775l-316.118-166.175 60.373 351.964-255.744 249.26 353.429 51.351 158.059 320.226 158.060-320.226 353.428-51.351-255.744-249.26 60.37-351.964-316.114 166.175z" />
<glyph unicode="&#xe902;" glyph-name="star-stroke" d="M511.988 243.461l180.113-94.684-34.396 200.54 145.7 142.006-201.354 29.256-90.062 182.464-90.062-182.464-201.355-29.256 145.701-142.006-34.399-200.54 180.114 94.684zM195.871-38.4l60.373 351.964-255.744 249.26 353.43 51.351 158.058 320.226 158.056-320.226 353.434-51.351-255.744-249.26 60.37-351.964-316.115 166.175-316.117-166.175z" />
<glyph unicode="&#xe903;" glyph-name="send" d="M0 947.094l69.888-489.217 39.514-9.876-39.514-9.882-69.888-489.216 998.19 499.098-998.19 499.094zM161.522 540.519l-32.512 227.583 640.209-320.102-640.209-320.108 32.512 227.584 370.088 92.524-370.088 92.519z" />
<glyph unicode="&#xe904;" glyph-name="crop" d="M957.804 565.396v102.4h-183.593l219.796 219.796-72.407 72.408-219.796-219.796v183.592h-102.4v-358.4h358.4zM241.004 718.996v-256h-102.4v358.4h358.4v-102.4h-256zM753.004 462.996v-255.999h-255.999v-102.4h358.399v358.399h-102.4zM72.408-34.007l219.796 219.796v-183.593h102.4v358.4h-358.4v-102.4h183.592l-219.796-219.796 72.408-72.407z" />
<glyph unicode="&#xe905;" glyph-name="copy" d="M409.6 960h512c58.998 0 102.4-43.403 102.4-102.4v-512c0-58.998-43.402-102.4-102.4-102.4h-204.8v-204.8c0-58.998-43.402-102.4-102.4-102.4h-512c-58.997 0-102.4 43.402-102.4 102.4v512c0 58.997 43.403 102.4 102.4 102.4h204.8v204.8c0 58.997 43.403 102.4 102.4 102.4zM307.2 550.4h-204.8v-512h512v204.8h-204.8c-58.997 0-102.4 43.402-102.4 102.4v204.8zM409.6 857.6v-512h512v512h-512z" />
<glyph unicode="&#xe906;" glyph-name="paste" horiz-adv-x="975" d="M438.861 200.007v759.993h97.525v-759.993l306.854 306.854 68.959-68.96-424.575-424.575-424.576 424.575 68.96 68.96 306.854-306.854z" />
<glyph unicode="&#xe907;" glyph-name="moving" horiz-adv-x="1075" d="M876.672 403.144h-295.414v-295.414l102.851 102.851 63.437-63.437-211.144-211.144-211.146 211.144 63.437 63.437 102.851-102.851v295.414h-295.414l102.851-102.851-63.437-63.437-211.144 211.144 211.144 211.144 63.437-63.436-102.851-102.851h295.414v295.414l-102.851-102.851-63.437 63.436 211.146 211.144 211.144-211.144-63.437-63.436-102.851 102.851v-295.414h295.414l-102.851 102.851 63.437 63.436 211.144-211.144-211.144-211.144-63.437 63.437 102.851 102.851z" />
<glyph unicode="&#xe908;" glyph-name="download" d="M256 857.6v-358.4h-256l512-439.537 512 439.537h-256v358.4c0 56.554-45.844 102.4-102.4 102.4h-307.2c-56.554 0-102.4-45.846-102.4-102.4zM665.6 857.6v-460.8h66.391l-219.991-202.266-219.993 202.266h66.393v460.8h307.2zM870.4-64c56.556 0 102.4 45.844 102.4 102.4h-921.6c0-56.556 45.846-102.4 102.4-102.4h716.8z" />
<glyph unicode="&#xe909;" glyph-name="user" horiz-adv-x="1075" d="M560.799 727.273c112.369 0 186.184-89.441 186.184-195.491 0-152.651-82.939-223.419-186.184-223.419-104.22 0-186.181 73.201-186.181 232.729 0 104.459 73.5 186.182 186.181 186.182zM467.709 541.091c0-105.625 38.084-139.637 93.090-139.637 54.82 0 93.092 32.655 93.092 130.328 0 58.163-36.506 102.4-93.092 102.4-58.937 0-93.090-37.973-93.090-93.091zM560.799-64c-282.768 0-511.999 229.233-511.999 512 0 282.77 229.23 512 511.999 512 282.772 0 512-229.23 512-512 0-282.767-229.228-512-512-512zM905.211 209.469c46.971 67.697 74.496 149.898 74.496 238.531 0 231.357-187.551 418.909-418.908 418.909s-418.908-187.552-418.908-418.909c0-88.632 27.526-170.839 74.497-238.531 52.384 69.197 175.481 98.893 344.411 98.893 168.934 0 292.029-29.696 344.412-98.893zM838.431 134.292c-13.624 48.988-111.493 80.978-277.632 80.978-166.137 0-264.004-31.99-277.627-80.978 73.913-65.459 171.13-105.201 277.627-105.201 106.501 0 203.715 39.741 277.632 105.201z" />
<glyph unicode="&#xe90a;" glyph-name="attention" d="M512 874.667c-235.642 0-426.667-191.025-426.667-426.667 0-235.639 191.025-426.667 426.667-426.667 235.639 0 426.667 191.027 426.667 426.667 0 235.642-191.027 426.667-426.667 426.667zM0 448c0 282.77 229.23 512 512 512s512-229.23 512-512c0-282.769-229.231-512-512-512s-512 229.231-512 512zM481.135 351.979h61.739l12.83 273.409 3.204 91.404h-93.005l2.402-91.404 12.83-273.409zM512.405 169.971c33.677 0 59.332 26.458 59.332 62.541 0 36.079-25.655 62.537-59.332 62.537s-60.134-26.458-60.134-62.537c0-36.083 26.458-62.541 60.134-62.541z" />
<glyph unicode="&#xe90b;" glyph-name="trash" d="M344.109 415.084l65.825 65.826 106.725-106.724 106.721 106.724 65.828-65.826-106.726-106.721 106.726-106.726-65.828-65.823-106.721 106.721-106.725-106.721-65.825 65.823 106.724 106.726-106.724 106.721zM377.018 960c-51.413 0-93.091-41.678-93.091-93.091v-46.545h-139.636c-51.412 0-93.091-41.678-93.091-93.091v-93.091c0-51.412 41.678-93.091 93.091-93.091h3.708l42.989-515.865c-0.161-47.544 41.518-89.226 92.93-89.226h465.456c51.41 0 93.092 41.682 93.092 93.092l42.813 511.999h3.738c51.415 0 93.092 41.678 93.092 93.091v93.091c0 51.412-41.677 93.091-93.092 93.091h-139.633v46.545c0 51.413-41.682 93.091-93.092 93.091h-279.273zM144.286 727.274h744.725v-93.091h-744.725v93.091zM283.923 29.087l-42.52 511.999h550.481l-42.348-508.134-0.159-3.866h-465.456zM656.287 866.909v-46.545h-279.273v46.545h279.273z" />
<glyph unicode="&#xe90c;" glyph-name="enter" d="M224.034 351.949l193.803-197.34-63.845-65.009-302.792 308.316 302.792 308.315 63.845-65.009-193.803-197.338h252.17c304.57 0 406.304 107.737 406.304 413.716h90.291c0-355.966-141.353-505.651-496.595-505.651h-252.17z" />
<glyph unicode="&#xe90d;" glyph-name="tree" d="M512 755.2c-28.277 0-51.2 22.923-51.2 51.2h-102.4c0-84.831 68.769-153.6 153.6-153.6v102.4zM563.2 806.4c0-28.277-22.922-51.2-51.2-51.2v-102.4c84.833 0 153.6 68.769 153.6 153.6h-102.4zM512 857.6c28.278 0 51.2-22.923 51.2-51.2h102.4c0 84.831-68.767 153.6-153.6 153.6v-102.4zM460.8 806.4c0 28.277 22.923 51.2 51.2 51.2v102.4c-84.831 0-153.6-68.769-153.6-153.6h102.4zM153.6 38.4c-28.277 0-51.2 22.922-51.2 51.2h-102.4c0-84.833 68.769-153.6 153.6-153.6v102.4zM204.8 89.6c0-28.278-22.923-51.2-51.2-51.2v-102.4c84.831 0 153.6 68.767 153.6 153.6h-102.4zM153.6 140.8c28.277 0 51.2-22.922 51.2-51.2h102.4c0 84.833-68.769 153.6-153.6 153.6v-102.4zM102.4 89.6c0 28.278 22.923 51.2 51.2 51.2v102.4c-84.831 0-153.6-68.767-153.6-153.6h102.4zM512 38.4c-28.277 0-51.2 22.922-51.2 51.2h-102.4c0-84.833 68.769-153.6 153.6-153.6v102.4zM563.2 89.6c0-28.278-22.922-51.2-51.2-51.2v-102.4c84.833 0 153.6 68.767 153.6 153.6h-102.4zM512 140.8c28.278 0 51.2-22.922 51.2-51.2h102.4c0 84.833-68.767 153.6-153.6 153.6v-102.4zM460.8 89.6c0 28.278 22.923 51.2 51.2 51.2v102.4c-84.831 0-153.6-68.767-153.6-153.6h102.4zM870.4 38.4c-28.278 0-51.2 22.922-51.2 51.2h-102.4c0-84.833 68.767-153.6 153.6-153.6v102.4zM921.6 89.6c0-28.278-22.922-51.2-51.2-51.2v-102.4c84.833 0 153.6 68.767 153.6 153.6h-102.4zM870.4 140.8c28.278 0 51.2-22.922 51.2-51.2h102.4c0 84.833-68.767 153.6-153.6 153.6v-102.4zM819.2 89.6c0 28.278 22.922 51.2 51.2 51.2v102.4c-84.833 0-153.6-68.767-153.6-153.6h102.4zM102.4 499.2h51.2v102.4h-51.2v-102.4zM153.6 499.2h358.4v102.4h-358.4v-102.4zM512 499.2h358.4v102.4h-358.4v-102.4zM870.4 499.2h51.2v102.4h-51.2v-102.4zM102.4 550.4v-256h102.4v256h-102.4zM460.8 550.4v-256h102.4v256h-102.4zM819.2 550.4v-256h102.4v256h-102.4z" />
<glyph unicode="&#xe90e;" glyph-name="eye" d="M328.93 448.004c0-101.108 81.963-183.069 183.070-183.069 101.105 0 183.071 81.961 183.071 183.069s-81.966 183.070-183.071 183.070c-101.107 0-183.070-81.963-183.070-183.070zM603.53 448.007c0-50.552-40.98-91.532-91.535-91.532-50.553 0-91.534 40.98-91.534 91.532 0 50.553 40.982 91.535 91.534 91.535 50.555 0 91.535-40.982 91.535-91.535zM512 814.14c124.836 0 244.204-65.476 355.446-173.053 37.949-36.701 72.284-75.882 102.508-115.081 18.237-23.653 31.186-42.26 38.277-53.345l15.77-24.659-15.77-24.659c-7.091-11.085-20.040-29.691-38.277-53.345-30.223-39.199-64.558-78.382-102.508-115.082-111.242-107.576-230.61-173.051-355.446-173.051-124.832 0-244.199 65.475-355.442 173.051-37.951 36.7-72.285 75.884-102.51 115.082-18.239 23.654-31.188 42.26-38.277 53.345l-15.771 24.659 15.771 24.659c7.090 11.085 20.039 29.692 38.277 53.345 30.224 39.199 64.559 78.381 102.51 115.081 111.243 107.577 230.61 173.053 355.442 173.053zM897.475 470.109c-27.674 35.889-59.136 71.794-93.65 105.175-95.816 92.655-195.471 147.318-291.814 147.318s-195.998-54.663-291.81-147.318c-34.518-33.38-65.981-69.286-93.654-105.175-5.977-7.751-11.5-15.146-16.549-22.114 5.049-6.963 10.572-14.356 16.549-22.108 27.673-35.891 59.135-71.793 93.654-105.175 95.812-92.657 195.467-147.318 291.81-147.318s195.999 54.661 291.814 147.318c34.514 33.382 65.976 69.284 93.65 105.175 5.98 7.752 11.5 15.145 16.548 22.108-5.048 6.967-10.568 14.363-16.548 22.114z" />
<glyph unicode="&#xe90f;" glyph-name="time" d="M744.73 494.545h-186.184v232.728h-93.091v-325.819h279.275v93.091zM512-64c-282.77 0-512 229.233-512 512 0 282.77 229.23 512 512 512 282.767 0 512-229.23 512-512 0-282.767-229.233-512-512-512zM512 29.092c231.357 0 418.908 187.551 418.908 418.908s-187.551 418.909-418.908 418.909c-231.357 0-418.909-187.552-418.909-418.909s187.552-418.908 418.909-418.908z" />
<glyph unicode="&#xe910;" glyph-name="refresh" d="M809.313 704c-69.652 98.371-174.761 153.6-297.313 153.6-226.216 0-409.6-183.384-409.6-409.6s183.384-409.6 409.6-409.6c226.217 0 409.6 183.383 409.6 409.6h102.4c0-282.767-229.233-512-512-512-282.77 0-512 229.233-512 512 0 282.77 229.23 512 512 512 143.575 0 270.075-60.545 358.4-167.442v167.442h102.4v-358.4h-358.4v102.4h194.913z" />
<glyph unicode="&#xe911;" glyph-name="print" horiz-adv-x="1075" d="M919.199 499.2c0 28.277-22.922 51.2-51.2 51.2s-51.2-22.923-51.2-51.2c0-28.277 22.922-51.2 51.2-51.2s51.2 22.923 51.2 51.2zM151.2 704c-56.553 0-102.4-45.846-102.4-102.4v-409.6c0-56.556 45.846-102.4 102.4-102.4h102.4v-153.6h614.399v153.6h102.4c56.556 0 102.4 45.844 102.4 102.4v409.6c0 56.554-45.844 102.4-102.4 102.4h-102.4v256h-614.399v-256h-102.4zM765.599 704h-409.599v153.6h409.599v-153.6zM970.399 601.6v-409.6h-102.4v102.4h-614.399v-102.4h-102.4v409.6h819.199zM765.599 192v-153.6h-409.599v153.6h409.599z" />
<glyph unicode="&#xe912;" glyph-name="date" d="M256 345.6v102.4h102.4v-102.4h-102.4zM460.8 345.6h102.4v102.4h-102.4v-102.4zM665.6 345.6v102.4h102.4v-102.4h-102.4zM256 243.2v-102.4h102.4v102.4h-102.4zM563.2 140.8h-102.4v102.4h102.4v-102.4zM716.8 908.8v51.2h102.4v-51.2h102.4c56.556 0 102.4-45.846 102.4-102.4v-768c0-56.556-45.844-102.4-102.4-102.4h-819.2c-56.554 0-102.4 45.844-102.4 102.4v768c0 56.554 45.846 102.4 102.4 102.4h102.4v51.2h102.4v-51.2h409.6zM307.2 755.2h-102.4v51.2h-102.4v-153.6h819.2v153.6h-102.4v-51.2h-102.4v51.2h-409.6v-51.2zM921.6 550.4h-819.2v-512h819.2v512z" />
<glyph unicode="&#xe913;" glyph-name="cancel" d="M512-64c282.767 0 512 229.233 512 512 0 282.77-229.233 512-512 512-282.77 0-512-229.23-512-512 0-282.767 229.23-512 512-512zM839.301 186.522l-588.779 588.782c71.665 57.327 162.568 91.606 261.478 91.606 231.357 0 418.908-187.552 418.908-418.909 0-98.908-34.278-189.814-91.607-261.478zM773.478 120.699c-71.665-57.329-162.57-91.607-261.478-91.607-231.357 0-418.909 187.551-418.909 418.908 0 98.91 34.279 189.813 91.606 261.478l588.782-588.779z" />
<glyph unicode="&#xe914;" glyph-name="grid" d="M926.476 960c53.862 0 97.524-43.663 97.524-97.524v-780.19c0-53.862-43.661-97.524-97.524-97.524h-780.19c-53.861 0-97.524 43.661-97.524 97.524v780.19c0 53.861 43.663 97.524 97.524 97.524h780.19zM146.286 82.286h341.333v341.333h-341.333v-341.333zM585.143 82.286h341.333v341.333h-341.333v-341.333zM585.143 521.143h341.333v341.333h-341.333v-341.333zM487.619 862.476h-341.333v-341.333h341.333v341.333z" />
<glyph unicode="&#xe915;" glyph-name="export" d="M885.76 719.36l-230.4 230.4c-5.46 5.22-12.459 8.872-20.249 10.207l-0.231 0.033h-465.92c-34.944-0.148-63.571-26.995-66.542-61.188l-0.018-0.252v-911.36c0.565-33.702 27.737-60.874 61.386-61.439l0.054-0.001h665.6c33.702 0.565 60.874 27.737 61.439 61.386l0.001 0.054 5.12 711.68c-0.164 8.31-4.11 15.665-10.183 20.437l-0.057 0.043zM834.56-17.92c0-2.828-2.292-5.12-5.12-5.12h-665.6c-2.828 0-5.12 2.292-5.12 5.12v0 916.48c0 2.828 2.292 5.12 5.12 5.12v0h435.2l235.52-235.52zM261.12 642.56c0-15.36 10.24-30.72 20.48-30.72h363.52c10.24 0 20.48 15.36 20.48 30.72s-10.24 30.72-20.48 30.72h-363.52c-10.24 0-20.48-15.36-20.48-30.72zM645.12 437.76h-363.52c-10.24 0-20.48-15.36-20.48-30.72s10.24-30.72 20.48-30.72h363.52c10.24 0 20.48 15.36 20.48 30.72s-10.24 30.72-20.48 30.72zM481.28 202.24h-194.56c-10.24 0-20.48-15.36-20.48-30.72s10.24-30.72 20.48-30.72h194.56c10.24 0 20.48 15.36 20.48 30.72s-10.24 30.72-20.48 30.72z" />
<glyph unicode="&#xe916;" glyph-name="arrow-down" horiz-adv-x="975" d="M490.574 363.53l355.616 355.615 68.959-68.96-424.575-424.574-424.574 424.574 68.96 68.96 355.614-355.615z" />
<glyph unicode="&#xe917;" glyph-name="arrow-left" horiz-adv-x="975" d="M381.729 472.376l355.614-355.616-68.959-68.959-424.575 424.575 424.575 424.576 68.959-68.96-355.614-355.617z" />
<glyph unicode="&#xe918;" glyph-name="arrow-right" horiz-adv-x="975" d="M599.415 472.376l-355.617 355.617 68.96 68.96 424.575-424.576-424.575-424.575-68.96 68.959 355.617 355.616z" />
<glyph unicode="&#xe919;" glyph-name="arrow-up" horiz-adv-x="975" d="M490.569 581.225l-355.617-355.613-68.96 68.959 424.577 424.574 424.575-424.574-68.959-68.959-355.616 355.613z" />
<glyph unicode="&#xe91a;" glyph-name="burger" d="M1024 704v102.4h-1024v-102.4h1024zM1024 499.2v-102.4h-1024v102.4h1024zM1024 192v-102.4h-1024v102.4h1024z" />
<glyph unicode="&#xe91b;" glyph-name="list" d="M0 755.2c0-56.554 45.846-102.4 102.4-102.4s102.4 45.846 102.4 102.4c0 56.554-45.846 102.4-102.4 102.4s-102.4-45.846-102.4-102.4zM307.2 806.4h716.8v-102.4h-716.8v102.4zM1024 499.2h-716.8v-102.4h716.8v102.4zM307.2 89.6h716.8v102.4h-716.8v-102.4zM0 140.8c0-56.556 45.846-102.4 102.4-102.4s102.4 45.844 102.4 102.4c0 56.556-45.846 102.4-102.4 102.4s-102.4-45.844-102.4-102.4zM102.4 345.6c-56.554 0-102.4 45.844-102.4 102.4 0 56.554 45.846 102.4 102.4 102.4s102.4-45.846 102.4-102.4c0-56.556-45.846-102.4-102.4-102.4z" />
<glyph unicode="&#xe91c;" glyph-name="upload" d="M744.73 264.146v-93.092h46.541c128.532 0 232.73 104.197 232.73 232.73 0 117.063-86.431 213.94-198.963 230.295-39.583 137.151-166.016 235.159-313.037 235.159-109.222 0-209.035-54.228-269.038-141.976-137.442-17.836-242.962-135.377-242.962-276.933 0-154.239 125.034-279.274 279.273-279.274v93.092c-102.825 0-186.182 83.359-186.182 186.183 0 100.052 79.097 182.125 178.719 186.036l25.647 1.007 12.835 22.226c41.327 71.566 117.573 116.549 201.709 116.549 114.089 0 210.867-82.677 229.514-193.915l6.646-39.658 40.202 0.817c1.454 0.025 1.454 0.025 2.908 0.030 77.123 0 139.638-62.517 139.638-139.636 0-77.117-62.515-139.638-139.638-139.638h-46.541zM558.551 77.962v306.54l106.721-106.721 65.828 65.823-219.095 219.095-219.096-219.095 65.825-65.823 106.724 106.721v-306.54h93.093z" />
<glyph unicode="&#xe91d;" glyph-name="sort" horiz-adv-x="1075" d="M563.2 294.4l-256 307.2h512l-256-307.2z" />
<glyph unicode="&#xe91e;" glyph-name="question" d="M579.379 489.946c-91.406-46.538-131.379-94.031-131.379-204.931h128c0 52.029 8.028 61.568 60.621 88.346 91.407 46.541 131.379 94.030 131.379 204.933 0 142.037-109.804 228.107-256 228.107-141.385 0-256-116.717-256-260.694h128c0 71.988 57.308 130.346 128 130.346 81.741 0 128-36.263 128-97.76 0-52.031-8.028-61.568-60.621-88.348zM576.041 154.772c0-35.994-28.662-65.172-64.020-65.172s-64.020 29.179-64.020 65.172 28.663 65.172 64.020 65.172c35.359 0 64.020-29.179 64.020-65.172z" />
<glyph unicode="&#xe91f;" glyph-name="plus" d="M563.2 499.2h460.8v-102.4h-460.8v-460.8h-102.4v460.8h-460.8v102.4h460.8v460.8h102.4v-460.8z" />
<glyph unicode="&#xe920;" glyph-name="ok" d="M394.604 279.404l475.796 475.796 72.407-72.408-548.203-548.203-292.204 292.204 72.408 72.407 219.796-219.796z" />
<glyph unicode="&#xe921;" glyph-name="menu" d="M153.6 345.6c-56.554 0-102.4 45.844-102.4 102.4 0 56.554 45.846 102.4 102.4 102.4s102.4-45.846 102.4-102.4c0-56.556-45.846-102.4-102.4-102.4zM512 345.6c-56.554 0-102.4 45.844-102.4 102.4 0 56.554 45.846 102.4 102.4 102.4 56.556 0 102.4-45.846 102.4-102.4 0-56.556-45.844-102.4-102.4-102.4zM768 448c0-56.556 45.844-102.4 102.4-102.4s102.4 45.844 102.4 102.4c0 56.554-45.844 102.4-102.4 102.4s-102.4-45.846-102.4-102.4z" />
<glyph unicode="&#xe922;" glyph-name="image" horiz-adv-x="1075" d="M663.199 652.8c0 84.831-68.767 153.6-153.599 153.6-84.831 0-153.6-68.769-153.6-153.6s68.769-153.6 153.6-153.6c84.832 0 153.599 68.769 153.599 153.6zM458.4 652.8c0 28.277 22.923 51.2 51.2 51.2s51.199-22.923 51.199-51.2c0-28.277-22.922-51.2-51.199-51.2s-51.2 22.923-51.2 51.2zM151.2 960h819.199c56.556 0 102.4-45.846 102.4-102.4v-819.2c0-56.556-45.844-102.4-102.4-102.4h-819.199c-56.553 0-102.4 45.844-102.4 102.4v819.2c0 56.554 45.846 102.4 102.4 102.4zM151.2 857.6v-593.193l204.8 204.801 179.199-179.201 332.8 332.801 102.4-102.4v337.192h-819.199zM151.2 38.4h490.792l-285.992 285.993-204.8-204.8v-81.193zM970.399 38.4v337.193l-102.4 102.399-260.393-260.392 179.2-179.2h183.593z" />
<glyph unicode="&#xe923;" glyph-name="find" horiz-adv-x="1075" d="M458.4 140.8c94.652 0 181.81 32.108 251.171 86.021l275.825-275.825 72.407 72.407-275.825 275.83c53.914 69.356 86.021 156.513 86.021 251.167 0 226.216-183.383 409.6-409.599 409.6s-409.6-183.384-409.6-409.6c0-226.217 183.384-409.6 409.6-409.6zM765.599 550.4c0-169.661-137.539-307.2-307.199-307.2s-307.2 137.539-307.2 307.2 137.539 307.2 307.2 307.2c169.66 0 307.199-137.538 307.199-307.2z" />
<glyph unicode="&#xe924;" glyph-name="edit" horiz-adv-x="975" d="M703.995 960c31.924 0 62.527-12.747 84.88-35.275l151.206-151.206c22.513-22.512 35.162-53.046 35.162-84.883s-12.649-62.37-35.162-84.883l-552.057-551.885c-34.060-39.287-82.34-63.425-137.65-67.218h-250.373l0.158 254.293c4.154 51.419 28.059 99.23 64.524 131.36l554.369 554.363c22.479 22.616 53.053 35.334 84.943 35.334zM246.929 82.052c26.050 1.843 50.298 13.965 69.769 36.24l368.733 368.732-183.072 183.078-370.893-370.806c-19.756-17.471-31.978-41.916-33.943-64.278v-152.873l149.406-0.093zM571.329 739.052l183.062-183.069 116.731 116.73c4.223 4.223 6.597 9.95 6.597 15.923s-2.375 11.7-6.597 15.923l-151.342 151.341c-4.174 4.209-9.86 6.576-15.784 6.576-5.929 0-11.615-2.367-15.789-6.576l-116.877-116.848z" />
<glyph unicode="&#xe925;" glyph-name="documents" d="M51.2 79.36c0-50.898 41.262-92.16 92.16-92.16h618.127l211.313 211.313v618.127c0 50.898-41.262 92.16-92.16 92.16h-737.28c-50.898 0-92.16-41.262-92.16-92.16v-737.28zM143.36 816.64h737.28v-506.88h-138.24c-50.898 0-92.16-41.262-92.16-92.16v-138.24h-506.88v737.28zM742.4 217.6h119.153l-119.153-119.153v119.153zM281.6 309.76v-92.16h276.48v92.16h-276.48zM281.6 401.92v92.16h460.8v-92.16h-460.8zM281.6 678.4v-92.16h460.8v92.16h-460.8z" />
<glyph unicode="&#xe926;" glyph-name="close" d="M595.784 448l377.016-377.016-83.784-83.784-377.016 377.016-377.018-377.016-83.782 83.784 377.018 377.016-377.018 377.018 83.782 83.782 377.018-377.018 377.016 377.018 83.784-83.782-377.016-377.018z" />
<glyph unicode="&#xe927;" glyph-name="audio" d="M902.095-64h-780.19c-67.326 0-121.905 54.579-121.905 121.905v0 780.19c0 67.326 54.579 121.905 121.905 121.905v0h780.19c67.326 0 121.905-54.579 121.905-121.905v0-780.19c0-67.326-54.579-121.905-121.905-121.905v0zM121.905 911.238c-40.396 0-73.143-32.747-73.143-73.143v0-780.19c0-40.396 32.747-73.143 73.143-73.143v0h780.19c40.396 0 73.143 32.747 73.143 73.143v0 780.19c0 40.396-32.747 73.143-73.143 73.143v0zM692.907 745.935c-7.542 4.482-16.627 7.132-26.331 7.132s-18.79-2.649-26.573-7.264l0.241 0.132-174.568-162.377h-108.251c-0.145 0.001-0.316 0.002-0.488 0.002-28.816 0-52.175-23.36-52.175-52.175 0-0.001 0-0.002 0-0.002v0-166.766c0-0.001 0-0.001 0-0.002 0-28.816 23.36-52.175 52.175-52.175 0.171 0 0.343 0.001 0.514 0.002h108.225l168.229-158.476 4.389-3.413c7.301-4.593 16.179-7.318 25.694-7.318 0.224 0 0.448 0.002 0.672 0.005h-0.034c9.666 0.065 18.73 2.587 26.615 6.971l-0.284-0.145c15.853 9.275 26.332 26.218 26.332 45.608 0 0.080 0 0.161-0.001 0.241v-0.012 504.198c0.012 0.417 0.019 0.908 0.019 1.4 0 18.596-9.638 34.94-24.191 44.31l-0.208 0.126zM669.013 700.099v-504.198h-2.926l-169.691 157.989-4.389 3.413c-7.301 4.593-16.179 7.318-25.694 7.318-0.224 0-0.448-0.002-0.672-0.005h-108.217v166.766h108.251c0.19-0.003 0.414-0.004 0.638-0.004 9.515 0 18.393 2.725 25.897 7.437l-0.203-0.119 175.055 161.89z" />
<glyph unicode="&#xe928;" glyph-name="card" d="M902.095-64h-780.19c-67.326 0-121.905 54.579-121.905 121.905v0 780.19c0 67.326 54.579 121.905 121.905 121.905v0h780.19c67.326 0 121.905-54.579 121.905-121.905v0-780.19c0-67.326-54.579-121.905-121.905-121.905v0zM121.905 911.238c-40.396 0-73.143-32.747-73.143-73.143v0-780.19c0-40.396 32.747-73.143 73.143-73.143v0h780.19c40.396 0 73.143 32.747 73.143 73.143v0 780.19c0 40.396-32.747 73.143-73.143 73.143v0zM792.869 562.59l-238.933 243.81c-4.489 4.504-10.694 7.297-17.551 7.314h-248.201c-13.465 0-24.381-10.916-24.381-24.381v0-682.667c0-13.465 10.916-24.381 24.381-24.381v0h487.619c13.465 0 24.381 10.916 24.381 24.381v0 438.857c-0.154 6.682-2.92 12.69-7.313 17.066l-0.001 0.001zM560.762 729.844l157.013-159.939h-157.013zM312.564 131.048v633.905h199.436v-219.429c0-13.465 10.916-24.381 24.381-24.381v0h215.040v-390.095z" />
<glyph unicode="&#xe929;" glyph-name="direct-speech" d="M902.095-64h-780.19c-67.326 0-121.905 54.579-121.905 121.905v0 780.19c0 67.326 54.579 121.905 121.905 121.905v0h780.19c67.326 0 121.905-54.579 121.905-121.905v0-780.19c0-67.326-54.579-121.905-121.905-121.905v0zM121.905 911.238c-40.396 0-73.143-32.747-73.143-73.143v0-780.19c0-40.396 32.747-73.143 73.143-73.143v0h780.19c40.396 0 73.143 32.747 73.143 73.143v0 780.19c0 40.396-32.747 73.143-73.143 73.143v0zM511.025 415.817c0.289-0.002 0.632-0.003 0.975-0.003 94.257 0 170.667 76.41 170.667 170.667s-76.41 170.667-170.667 170.667c-94.084 0-170.387-76.131-170.666-170.149v-0.027c0-0.002 0-0.004 0-0.006 0-94.012 75.797-170.32 169.613-171.147l0.079-0.001zM511.025 712.777c69.481 0 125.806-56.325 125.806-125.806s-56.325-125.806-125.806-125.806c-69.481 0-125.806 56.325-125.806 125.806v0c0.276 69.369 56.436 125.53 125.779 125.806h0.026zM511.025 411.429c-96.95 0-175.543 78.593-175.543 175.543s78.593 175.543 175.543 175.543c96.95 0 175.543-78.593 175.543-175.543v0c0-96.95-78.593-175.543-175.543-175.543v0zM511.025 752.762c-91.564 0-165.79-74.227-165.79-165.79s74.227-165.79 165.79-165.79c91.564 0 165.79 74.227 165.79 165.79v0c0 91.564-74.227 165.79-165.79 165.79v0zM511.025 456.29c-72.174 0-130.682 58.508-130.682 130.682s58.508 130.682 130.682 130.682c72.174 0 130.682-58.508 130.682-130.682v0c0-72.174-58.508-130.682-130.682-130.682v0zM511.025 707.901c-65.943-1.098-118.979-54.812-118.979-120.914 0-66.788 54.142-120.93 120.93-120.93 66.782 0 120.921 54.133 120.93 120.913v0.001c0 0.005 0 0.010 0 0.016 0 66.788-54.142 120.93-120.93 120.93-0.686 0-1.37-0.006-2.053-0.017l0.103 0.001zM217.478 138.85h589.044c0.145-0.003 0.316-0.005 0.488-0.005 12.119 0 21.943 9.824 21.943 21.943 0 0.002 0 0.004 0 0.006v0c0.001 0.29 0.002 0.632 0.002 0.975 0 117.686-95.403 213.090-213.090 213.090-0.001 0-0.002 0-0.002 0h-207.726c-0.001 0-0.001 0-0.002 0-117.686 0-213.090-95.403-213.090-213.090 0-0.343 0.001-0.686 0.002-1.028v0.053c0-0.002 0-0.004 0-0.005 0-12.119 9.824-21.943 21.943-21.943 0.171 0 0.342 0.002 0.513 0.006h-0.025zM408.137 329.021h207.726c85.162-0.013 155.538-63.305 166.669-145.416l0.096-0.869h-538.819c11.108 82.162 80.187 145.013 164.197 146.284l0.131 0.002zM806.522 131.048h-589.044c-15.081 0-27.307 12.226-27.307 27.307v0c0 120.379 97.587 217.966 217.966 217.966h207.726c120.379 0 217.966-97.587 217.966-217.966v0c0-15.081-12.226-27.307-27.307-27.307v0zM408.137 369.006c-114.993 0-208.213-93.22-208.213-208.213v0c0-9.695 7.859-17.554 17.554-17.554h589.044c9.695 0 17.554 7.859 17.554 17.554v0c0 114.993-93.22 208.213-208.213 208.213v0zM787.992 179.81h-551.985v5.851c12.137 84.941 84.322 149.544 171.625 149.699h207.742c0.038 0 0.082 0 0.127 0 87.348 0 159.586-64.696 171.41-148.784l0.105-0.915zM247.223 189.562h529.554c-13.116 77.913-80.073 136.533-160.722 136.533-0.068 0-0.135 0-0.203 0h-207.715c-81.075-0.235-148.238-59.496-160.789-137.058l-0.125-0.939z" />
<glyph unicode="&#xe92a;" glyph-name="gallery" d="M463.238 472.381h-243.81c-13.465 0-24.381 10.916-24.381 24.381v0 243.81c0 13.465 10.916 24.381 24.381 24.381v0h243.81c13.465 0 24.381-10.916 24.381-24.381v0-243.81c0-13.465-10.916-24.381-24.381-24.381v0zM243.81 521.143h195.048v195.048h-195.048zM804.571 472.381h-243.81c-13.465 0-24.381 10.916-24.381 24.381v0 243.81c0 13.465 10.916 24.381 24.381 24.381v0h243.81c13.465 0 24.381-10.916 24.381-24.381v0-243.81c0-13.465-10.916-24.381-24.381-24.381v0zM585.143 521.143h195.048v195.048h-195.048zM463.238 131.048h-243.81c-13.465 0-24.381 10.916-24.381 24.381v0 243.81c0 13.465 10.916 24.381 24.381 24.381v0h243.81c13.465 0 24.381-10.916 24.381-24.381v0-243.81c0-13.465-10.916-24.381-24.381-24.381v0zM243.81 179.81h195.048v195.048h-195.048zM804.571 131.048h-243.81c-13.465 0-24.381 10.916-24.381 24.381v0 243.81c0 13.465 10.916 24.381 24.381 24.381v0h243.81c13.465 0 24.381-10.916 24.381-24.381v0-243.81c0-13.465-10.916-24.381-24.381-24.381v0zM585.143 179.81h195.048v195.048h-195.048zM902.095-64h-780.19c-67.326 0-121.905 54.579-121.905 121.905v0 780.19c0 67.326 54.579 121.905 121.905 121.905v0h780.19c67.326 0 121.905-54.579 121.905-121.905v0-780.19c0-67.326-54.579-121.905-121.905-121.905v0zM121.905 911.238c-40.396 0-73.143-32.747-73.143-73.143v0-780.19c0-40.396 32.747-73.143 73.143-73.143v0h780.19c40.396 0 73.143 32.747 73.143 73.143v0 780.19c0 40.396-32.747 73.143-73.143 73.143v0z" />
<glyph unicode="&#xe92b;" glyph-name="imagee" d="M902.095-64h-780.19c-67.326 0-121.905 54.579-121.905 121.905v0 780.19c0 67.326 54.579 121.905 121.905 121.905v0h780.19c67.326 0 121.905-54.579 121.905-121.905v0-780.19c0-67.326-54.579-121.905-121.905-121.905v0zM121.905 911.238c-40.396 0-73.143-32.747-73.143-73.143v0-780.19c0-40.396 32.747-73.143 73.143-73.143v0h780.19c40.396 0 73.143 32.747 73.143 73.143v0 780.19c0 40.396-32.747 73.143-73.143 73.143v0zM311.589 518.705c-67.326 0-121.905 54.579-121.905 121.905s54.579 121.905 121.905 121.905c67.326 0 121.905-54.579 121.905-121.905v0c0-67.326-54.579-121.905-121.905-121.905v0zM311.589 713.752c-40.396 0-73.143-32.747-73.143-73.143s32.747-73.143 73.143-73.143c40.396 0 73.143 32.747 73.143 73.143v0c0 40.396-32.747 73.143-73.143 73.143v0zM35.596 113.981l-34.621 34.133 261.364 261.364 170.667-170.667 341.333 341.333 242.347-242.834-34.621-34.133-207.726 207.726-341.333-341.333-170.667 170.667-226.743-226.255z" />
<glyph unicode="&#xe92c;" glyph-name="video" d="M902.095-64h-780.19c-67.326 0-121.905 54.579-121.905 121.905v0 780.19c0 67.326 54.579 121.905 121.905 121.905v0h780.19c67.326 0 121.905-54.579 121.905-121.905v0-780.19c0-67.326-54.579-121.905-121.905-121.905v0zM121.905 911.238c-40.396 0-73.143-32.747-73.143-73.143v0-780.19c0-40.396 32.747-73.143 73.143-73.143v0h780.19c40.396 0 73.143 32.747 73.143 73.143v0 780.19c0 40.396-32.747 73.143-73.143 73.143v0zM365.714 185.661c-4.336 0.162-8.349 1.409-11.817 3.476l0.114-0.063c-7.563 4.081-12.627 11.927-12.678 20.961v487.626c1.442 12.49 11.956 22.097 24.714 22.097 4.741 0 9.172-1.327 12.942-3.629l-0.109 0.062 390.095-243.81c6.743-4.52 11.122-12.11 11.122-20.724s-4.379-16.204-11.032-20.667l-0.090-0.057-390.095-243.81c-2.825-1.082-6.094-1.709-9.508-1.709-1.29 0-2.559 0.089-3.801 0.262l0.143-0.016zM390.095 653.775v-399.36l319.878 199.436z" />
<glyph unicode="&#xe92d;" glyph-name="tvitter" d="M902.095-64h-780.19c-67.326 0-121.905 54.579-121.905 121.905v0 780.19c0 67.326 54.579 121.905 121.905 121.905v0h780.19c67.326 0 121.905-54.579 121.905-121.905v0-780.19c0-67.326-54.579-121.905-121.905-121.905v0zM121.905 911.238c-40.396 0-73.143-32.747-73.143-73.143v0-780.19c0-40.396 32.747-73.143 73.143-73.143v0h780.19c40.396 0 73.143 32.747 73.143 73.143v0 780.19c0 40.396-32.747 73.143-73.143 73.143v0zM828.952 622.568h-43.398l23.406 67.291s-73.63-27.307-92.16-32.183c-25.205 21.183-58.013 34.053-93.826 34.053-30.073 0-58.026-9.074-81.271-24.635l0.53 0.334c-35.499-21.383-58.877-59.72-58.877-103.518 0-6.317 0.486-12.52 1.423-18.574l-0.086 0.675c-84.841 11.19-157.961 54.192-208.226 116.421l-0.475 0.608-17.554 20.968-14.629-23.893c-11.178-20.181-17.757-44.25-17.757-69.855 0-9.787 0.961-19.35 2.794-28.599l-0.154 0.93c3.308-14.384 8.518-27.083 15.448-38.631l-0.332 0.597-15.116 5.851v-25.356c-0.167-2.528-0.263-5.479-0.263-8.454 0-27.083 7.914-52.318 21.555-73.518l-0.325 0.539c5.317-8.061 11.1-15.083 17.54-21.442l0.014-0.014h-7.802l9.265-28.77c12.949-35.596 38.823-63.847 71.808-79.605l0.847-0.364c-33.646-14.141-60.465-23.406-105.326-38.034l-40.96-13.166 37.547-20.968c33.218-18.618 71.767-32.992 112.588-41.039l2.49-0.409c24.624-5.531 52.905-8.7 81.925-8.7 90.196 0 173.243 30.611 239.318 82.012l-0.878-0.657c56.235 54.648 91.128 130.999 91.128 215.5 0 11.864-0.688 23.568-2.026 35.073l0.132-1.4c-0.043 0.861-0.067 1.869-0.067 2.884 0 13.351 4.225 25.716 11.411 35.83l-0.129-0.191zM738.743 562.59c-11.676-15.882-18.685-35.825-18.685-57.405 0-1.934 0.056-3.855 0.167-5.762l-0.012 0.263c1.408-10.228 2.211-22.048 2.211-34.055 0-73.766-30.333-140.448-79.207-188.252l-0.048-0.047c-58.264-44.902-132.288-71.966-212.633-71.966-27.301 0-53.871 3.125-79.374 9.036l2.361-0.461c-23.109 5.080-43.462 12.3-62.562 21.682l1.609-0.714c44.556 14.845 81.792 30.515 117.604 48.596l-4.964-2.272 64.853 30.72-73.143 4.389c-33.655 1.52-62.873 19.221-80.222 45.458l-0.235 0.378c9.933 0.519 19.268 2.088 28.206 4.605l-0.9-0.216 68.267 19.017-70.705 17.067c-26.338 6.284-48.289 21.879-62.67 43.035l-0.233 0.364c-5.494 8.695-10.136 18.717-13.415 29.338l-0.238 0.895c8.286-2.231 17.955-3.796 27.89-4.37l0.392-0.018 63.39-6.339-48.762 39.010c-26.661 19.553-43.776 50.762-43.776 85.968 0 10.011 1.384 19.7 3.971 28.884l-0.18-0.749c66.348-67.796 158.228-110.373 260.057-112.148l0.331-0.005c-0.372 11.438-1.774 22.33-4.12 32.867l0.219-1.172c-3.105 8.461-4.901 18.23-4.901 28.419 0 31.249 16.894 58.553 42.047 73.276l0.401 0.217c16.574 10.429 36.729 16.616 58.33 16.616 27.952 0 53.484-10.361 72.966-27.452l-0.126 0.108c5.934-5.648 13.983-9.123 22.843-9.123 2.62 0 5.169 0.304 7.614 0.878l-0.225-0.044c10.213 2.503 18.673 5.178 26.902 8.32l-1.545-0.519-17.067-47.787h20.48zM431.543 168.107c-30.063 0.142-59.435 2.619-88.081 7.259l3.235-0.432c-43.864 8.509-82.915 23.232-118.454 43.423l1.913-1-48.762 25.844 48.762 17.067c40.472 13.166 65.829 21.455 97.524 33.646-29.906 18.443-52.329 46.558-63.101 79.909l-0.289 1.035-12.19 36.571c-2.782 3.538-5.518 7.518-8 11.668l-0.29 0.523c-14.727 21.568-23.516 48.21-23.516 76.904 0 1.935 0.040 3.862 0.119 5.778l-0.009-0.274v31.695l9.752-3.901c-3.54 8.048-6.569 17.51-8.612 27.333l-0.165 0.949c-0.819 5.884-1.287 12.682-1.287 19.589 0 30.034 8.845 58.002 24.071 81.442l-0.354-0.581 16.091 30.232 19.992-25.356c48.464-60.636 117.894-102.743 197.155-115.331l1.794-0.235c-0.486 4.158-0.763 8.976-0.763 13.858 0 45.917 24.504 86.11 61.148 108.217l0.567 0.317c22.714 14.3 50.339 22.784 79.945 22.784 37.48 0 71.785-13.597 98.25-36.127l-0.214 0.178c21.455 6.339 88.747 31.208 89.722 31.208l9.752 3.901-24.869-70.217h45.836l-5.364-7.314s-45.836-63.39-60.465-82.408c-6.462-8.806-10.34-19.86-10.34-31.818 0-1.158 0.036-2.307 0.108-3.446l-0.008 0.156c1.231-10.304 1.934-22.237 1.934-34.334 0-85.949-35.466-163.615-92.561-219.161l-0.070-0.068c-60.547-49.704-138.813-79.834-224.117-79.834-5.554 0-11.078 0.128-16.57 0.38l0.778-0.029zM207.238 240.762l27.794-15.116c32.646-18.562 70.56-32.782 110.766-40.579l2.361-0.381c24.649-5.644 52.955-8.878 82.017-8.878 88.698 0 170.359 30.13 235.306 80.714l-0.858-0.643c55.215 53.897 89.458 129.064 89.458 212.229 0 11.125-0.613 22.107-1.806 32.913l0.12-1.332c-0.065 1.080-0.102 2.344-0.102 3.615 0 14.219 4.611 27.361 12.418 38.013l-0.126-0.18 54.613 77.531h-40.96l22.918 64.853c-20.968-7.314-68.267-24.381-83.383-28.282h-2.438c-25.165 21.059-57.879 33.848-93.58 33.848-28.345 0-54.807-8.062-77.218-22.017l0.619 0.359c-35.646-20.017-59.335-57.58-59.335-100.676 0-7.158 0.654-14.164 1.904-20.96l-0.108 0.707v-6.339h-6.339c-85.173 12.609-158.292 56.459-208.69 119.311l-0.499 0.644-12.678 15.604-9.752-17.554c-10.886-19.447-17.298-42.673-17.298-67.396 0-9.625 0.972-19.024 2.822-28.102l-0.153 0.9c2.702-13.766 7.093-26.011 13.034-37.314l-0.356 0.743 6.339-11.703-20.968 5.851v-18.53c-0.041-1.212-0.064-2.636-0.064-4.066 0-26.019 7.661-50.248 20.85-70.556l-0.307 0.504c5.102-7.906 10.731-14.774 17.044-20.946l0.022-0.022 10.24-10.728-14.141 2.438 6.827-21.455c11.178-35.197 35.482-63.47 67.022-79.618l0.757-0.352 9.752-4.876-9.752-4.389c-34.133-14.141-60.952-22.918-105.326-38.034zM431.543 205.166c-27.898 0.007-55.252 2.312-81.89 6.736l2.896-0.397c-23.729 3.504-45.077 9.464-65.232 17.736l1.842-0.669-11.703 4.876 12.19 3.901c44.792 15.275 81.849 30.931 117.611 48.792l-5.459-2.468 48.762 22.43-54.126 5.364c-35.216 1.916-65.67 20.699-83.619 48.349l-0.251 0.413-4.876 7.314h8.777c9.045 0.464 17.55 1.859 25.707 4.097l-0.838-0.196 48.762 14.141-48.762 12.19c-27.424 6.798-50.22 23.242-65.092 45.441l-0.249 0.395c-5.651 8.267-10.299 17.813-13.453 28.016l-0.2 0.753v8.29l8.29-2.438c6.827 0 15.116-2.926 27.307-4.389l43.398-1.463-37.059 29.257c-27.138 20.594-44.484 52.869-44.484 89.195 0 9.89 1.286 19.48 3.699 28.612l-0.175-0.779v8.29l7.802-8.29c62.586-65.255 149.543-106.714 246.19-109.701l0.545-0.013h4.876c-2.438 21.943-2.438 22.43-2.926 24.381-3.238 8.914-5.11 19.203-5.11 29.93 0 33.012 17.732 61.882 44.191 77.605l0.416 0.229c17.173 10.597 37.987 16.876 60.267 16.876 29.258 0 55.988-10.827 76.4-28.694l-0.134 0.115c5.174-4.711 12.083-7.596 19.667-7.596 2.364 0 4.663 0.28 6.864 0.81l-0.199-0.040c9.907 2.391 18.047 4.9 25.982 7.832l-1.601-0.518 9.752 3.901-17.067-48.762h23.406l-19.992-26.331c-11.052-15.124-17.683-34.087-17.683-54.599 0-1.72 0.047-3.429 0.139-5.126l-0.010 0.236c1.189-9.441 1.867-20.365 1.867-31.448 0-74.639-30.77-142.090-80.317-190.363l-0.057-0.056c-54.35-45.089-124.823-72.449-201.685-72.449-4.697 0-9.37 0.102-14.017 0.304l0.662-0.023zM305.25 234.423c13.762-5.279 30.138-9.843 47.037-12.906l1.725-0.259c22.878-5.403 49.145-8.5 76.136-8.5 79.198 0 152.168 26.668 210.419 71.515l-0.811-0.6c47.898 46.647 77.61 111.762 77.61 183.817 0 11.351-0.737 22.529-2.167 33.49l0.138-1.292c-0.079 1.513-0.124 3.284-0.124 5.066 0 22.82 7.36 43.922 19.835 61.060l-0.207-0.298 8.29 10.728h-17.554l15.116 42.423-16.091-4.389c-2.836-0.789-6.092-1.243-9.454-1.243-9.997 0-19.058 4.011-25.659 10.512l0.005-0.005c-18.467 16.107-42.781 25.928-69.388 25.928-20.518 0-39.671-5.84-55.889-15.947l0.447 0.26c-24.324-14.266-40.399-40.284-40.399-70.058 0-9.853 1.76-19.294 4.984-28.027l-0.181 0.561c2.015-9.564 3.412-20.789 3.887-32.253l0.014-0.418v-6.827h-16.579c-96.715 4.323-183.004 45.677-245.678 110.118l-0.082 0.084c-0.74-4.613-1.162-9.932-1.162-15.349 0-33.608 16.268-63.416 41.358-81.98l0.277-0.196 63.878-48.762-82.408 6.339c-3.060-0.183-6.638-0.288-10.24-0.288s-7.18 0.104-10.731 0.31l0.491-0.023c3.068-7.834 6.673-14.581 10.954-20.83l-0.226 0.35c13.675-20.594 34.482-35.518 58.826-41.314l0.663-0.133 87.284-21.455-86.309-23.893c-5.81-1.855-12.604-3.235-19.613-3.873l-0.38-0.028c17.12-21.586 42.869-35.687 71.95-37.051l0.218-0.008 90.21-5.851-79.97-35.596c-26.307-13.464-59.442-27.926-93.441-40.618l-7.009-2.293z" />
<glyph unicode="&#xe92e;" glyph-name="text" d="M902.095-64h-780.19c-67.326 0-121.905 54.579-121.905 121.905v0 780.19c0 67.326 54.579 121.905 121.905 121.905v0h780.19c67.326 0 121.905-54.579 121.905-121.905v0-780.19c0-67.326-54.579-121.905-121.905-121.905v0zM121.905 911.238c-40.396 0-73.143-32.747-73.143-73.143v0-780.19c0-40.396 32.747-73.143 73.143-73.143v0h780.19c40.396 0 73.143 32.747 73.143 73.143v0 780.19c0 40.396-32.747 73.143-73.143 73.143v0zM705.585 672.305l5.364-106.301h-13.166c-1.111 14.852-4.591 28.609-10.071 41.301l0.318-0.829c-6.365 12.060-15.873 21.724-27.444 28.105l-0.35 0.177c-11.83 5.923-25.776 9.391-40.531 9.391-1.695 0-3.379-0.046-5.051-0.136l0.233 0.010h-63.878v-345.234c-0.362-3.155-0.569-6.811-0.569-10.516 0-15.134 3.447-29.463 9.599-42.244l-0.254 0.584c9.189-8.848 21.704-14.298 35.492-14.298 1.41 0 2.806 0.057 4.187 0.169l-0.182-0.012h15.604v-12.19h-192.61v12.19h16.579c1.016-0.075 2.2-0.118 3.394-0.118 15.078 0 28.557 6.843 37.502 17.593l0.064 0.079c4.93 11.489 7.797 24.86 7.797 38.901 0 3.473-0.175 6.905-0.518 10.287l0.035-0.426v345.234h-55.101c-2.333 0.138-5.061 0.216-7.807 0.216-13.361 0-26.287-1.859-38.535-5.333l0.993 0.241c-12.566-4.741-22.807-13.249-29.6-24.132l-0.145-0.249c-8.739-13.871-14.117-30.639-14.626-48.625l-0.003-0.137h-13.166l5.364 106.301z" />
<glyph unicode="&#xe92f;" glyph-name="test" d="M902.095-64h-780.19c-67.326 0-121.905 54.579-121.905 121.905v0 780.19c0 67.326 54.579 121.905 121.905 121.905v0h780.19c67.326 0 121.905-54.579 121.905-121.905v0-780.19c0-67.326-54.579-121.905-121.905-121.905v0zM121.905 911.238c-40.396 0-73.143-32.747-73.143-73.143v0-780.19c0-40.396 32.747-73.143 73.143-73.143v0h780.19c40.396 0 73.143 32.747 73.143 73.143v0 780.19c0 40.396-32.747 73.143-73.143 73.143v0zM341.333 472.381h292.571v-48.762h-292.571v48.762zM341.333 374.857h292.571v-48.762h-292.571v48.762zM341.333 277.333h292.571v-48.762h-292.571v48.762zM731.429 716.19h-72.168v56.076c0 13.465-10.916 24.381-24.381 24.381v0h-293.547c-13.465 0-24.381-10.916-24.381-24.381v0-56.076h-73.143c-13.465 0-24.381-10.916-24.381-24.381v0-585.143c0-13.465 10.916-24.381 24.381-24.381v0h487.619c13.465 0 24.381 10.916 24.381 24.381v0 585.143c0 13.465-10.916 24.381-24.381 24.381v0zM366.69 747.886h243.81v-97.524h-243.81zM707.048 131.048h-438.857v536.381h48.762v-41.448c0-13.465 10.916-24.381 24.381-24.381v0h292.571c13.465 0 24.381 10.916 24.381 24.381v0 41.448h48.762z" />
<glyph unicode="&#xe930;" glyph-name="slider" d="M902.095-64h-780.19c-67.326 0-121.905 54.579-121.905 121.905v0 780.19c0 67.326 54.579 121.905 121.905 121.905v0h780.19c67.326 0 121.905-54.579 121.905-121.905v0-780.19c0-67.326-54.579-121.905-121.905-121.905v0zM121.905 911.238c-40.396 0-73.143-32.747-73.143-73.143v0-780.19c0-40.396 32.747-73.143 73.143-73.143v0h780.19c40.396 0 73.143 32.747 73.143 73.143v0 780.19c0 40.396-32.747 73.143-73.143 73.143v0zM804.571 618.667h-24.381v24.381c0 40.396-32.747 73.143-73.143 73.143v0h-24.381v24.381c0 40.396-32.747 73.143-73.143 73.143v0h-195.048c-40.396 0-73.143-32.747-73.143-73.143v0-24.381h-24.381c-40.396 0-73.143-32.747-73.143-73.143v0-24.381h-24.381c-40.396 0-73.143-32.747-73.143-73.143v0-390.095c0-40.396 32.747-73.143 73.143-73.143v0h585.143c40.396 0 73.143 32.747 73.143 73.143v0 390.095c0 40.396-32.747 73.143-73.143 73.143v0zM390.095 740.571c0 13.465 10.916 24.381 24.381 24.381v0h195.048c13.465 0 24.381-10.916 24.381-24.381v0-24.381h-243.81zM292.571 643.048c0 13.465 10.916 24.381 24.381 24.381v0h390.095c13.465 0 24.381-10.916 24.381-24.381v0-24.381h-438.857zM828.952 155.429c0-13.465-10.916-24.381-24.381-24.381v0h-585.143c-13.465 0-24.381 10.916-24.381 24.381v0 390.095c0 13.465 10.916 24.381 24.381 24.381v0h585.143c13.465 0 24.381-10.916 24.381-24.381v0z" />
<glyph unicode="&#xe931;" glyph-name="separator" d="M902.095-64h-780.19c-67.326 0-121.905 54.579-121.905 121.905v0 780.19c0 67.326 54.579 121.905 121.905 121.905v0h780.19c67.326 0 121.905-54.579 121.905-121.905v0-780.19c0-67.326-54.579-121.905-121.905-121.905v0zM121.905 911.238c-40.396 0-73.143-32.747-73.143-73.143v0-780.19c0-40.396 32.747-73.143 73.143-73.143v0h780.19c40.396 0 73.143 32.747 73.143 73.143v0 780.19c0 40.396-32.747 73.143-73.143 73.143v0zM172.617 472.381h682.667v-48.762h-682.667v48.762zM731.429 569.905h-438.857v243.81h438.857zM341.333 618.667h341.333v146.286h-341.333zM727.528 82.286h-438.857v243.81h438.857zM337.432 131.048h341.333v146.286h-341.333z" />
<glyph unicode="&#xe932;" glyph-name="quote" d="M902.095-64h-780.19c-67.326 0-121.905 54.579-121.905 121.905v0 780.19c0 67.326 54.579 121.905 121.905 121.905v0h780.19c67.326 0 121.905-54.579 121.905-121.905v0-780.19c0-67.326-54.579-121.905-121.905-121.905v0zM121.905 911.238c-40.396 0-73.143-32.747-73.143-73.143v0-780.19c0-40.396 32.747-73.143 73.143-73.143v0h780.19c40.396 0 73.143 32.747 73.143 73.143v0 780.19c0 40.396-32.747 73.143-73.143 73.143v0zM332.556 298.789v22.918c29.079 14.161 53.592 33.373 73.363 56.727l0.268 0.325c11.002 15.98 17.573 35.753 17.573 57.060 0 0.683-0.007 1.364-0.020 2.044l0.002-0.102c0.054 0.772 0.084 1.673 0.084 2.581 0 7.712-2.21 14.908-6.032 20.989l0.096-0.164c-2.921 4.367-7.655 7.325-13.1 7.797l-0.066 0.005c-6.471-0.613-12.422-2.169-17.942-4.536l0.387 0.148c-7.244-2.705-15.613-4.307-24.345-4.388h-0.036c-0.256-0.004-0.559-0.007-0.862-0.007-15.259 0-29.082 6.148-39.127 16.102l0.004-0.004c-10.239 9.938-16.594 23.83-16.594 39.206 0 0.445 0.005 0.889 0.016 1.332l-0.001-0.066c0 0.037 0 0.082 0 0.126 0 18.486 8.296 35.035 21.368 46.126l0.087 0.072c12.944 12.103 30.389 19.536 49.569 19.536 0.745 0 1.487-0.011 2.227-0.033l-0.108 0.003c26.511-0.522 50.132-12.464 66.219-31.093l0.097-0.115c18.175-19.796 29.315-46.305 29.315-75.415 0-1.259-0.021-2.512-0.062-3.761l0.005 0.182c0.011-0.702 0.017-1.531 0.017-2.362 0-39.258-13.605-75.338-36.356-103.783l0.256 0.331c-26.671-32.852-63.142-56.815-104.93-67.482l-1.37-0.297zM596.846 298.789v22.918c27.496 13.151 50.706 31.058 69.499 52.877l0.23 0.274c13.069 16.444 20.968 37.507 20.968 60.416 0 0.017 0 0.035 0 0.052v-0.003c0.117 1.267 0.184 2.741 0.184 4.23 0 8.258-2.053 16.036-5.676 22.852l0.128-0.264c-2.671 4.096-7.066 6.876-12.131 7.31l-0.060 0.004c-7.129-0.443-13.771-2.015-19.92-4.54l0.416 0.151c-6.488-2.552-13.994-4.14-21.839-4.386l-0.104-0.003c-0.203-0.003-0.442-0.004-0.682-0.004-15.344 0-29.155 6.562-38.781 17.033l-0.034 0.038c-10.528 10.13-17.068 24.341-17.068 40.078 0 0.139 0.001 0.277 0.002 0.416v-0.021c0 0.012 0 0.027 0 0.042 0 18.169 7.886 34.496 20.423 45.744l0.057 0.051c12.598 11.783 29.577 19.019 48.247 19.019 0.181 0 0.362-0.001 0.543-0.002h-0.028c27.166-0.472 51.356-12.816 67.67-32.052l0.109-0.131c19.313-19.973 31.215-47.218 31.215-77.242 0-0.444-0.003-0.888-0.008-1.332l0.001 0.067c-0.276-38.956-14.024-74.649-36.811-102.705l0.24 0.305c-26.93-33.615-63.406-58.566-105.303-70.82l-1.486-0.372z" />
<glyph unicode="&#xe933;" glyph-name="popular" d="M828.952 521.143c-2.288 6.213-7.553 10.832-14.018 12.169l-0.123 0.021-195.048 27.794-92.648 178.956c-3.001 5.718-8.832 9.588-15.582 9.752h-0.022c-6.805-0.049-12.684-3.962-15.558-9.652l-0.046-0.101-87.771-178.956-195.048-29.257c-0.273 0.014-0.594 0.022-0.916 0.022-7.496 0-13.979-4.337-17.076-10.638l-0.050-0.112c-0.447-1.496-0.705-3.215-0.705-4.994 0-5.128 2.139-9.756 5.574-13.041l0.007-0.006 142.872-138.484-33.158-195.048c-0.129-0.801-0.203-1.724-0.203-2.665 0-5.938 2.949-11.188 7.462-14.365l0.056-0.037c2.587-2.134 5.935-3.428 9.585-3.428 0.23 0 0.459 0.005 0.687 0.015l-0.032-0.001c1.244-0.325 2.673-0.511 4.145-0.511s2.9 0.186 4.263 0.537l-0.118-0.026 176.030 93.623 176.518-92.648c1.173-0.213 2.523-0.334 3.901-0.334s2.728 0.122 4.039 0.355l-0.138-0.020c9.695 0 17.554 7.859 17.554 17.554v0c0.113 0.66 0.177 1.419 0.177 2.194s-0.065 1.535-0.189 2.274l0.011-0.080-34.133 195.048 142.385 139.459c4.458 3.323 7.315 8.581 7.315 14.506 0 0.043 0 0.086 0 0.129v-0.007zM650.971 382.171c-3.235-3.033-5.25-7.333-5.25-12.104 0-1.24 0.136-2.448 0.394-3.61l-0.021 0.11 29.745-170.179-155.063 80.945c-2.329 1.269-5.1 2.016-8.046 2.016s-5.717-0.746-8.136-2.060l0.090 0.045-153.112-81.432 28.77 170.667c0.14 0.854 0.219 1.839 0.219 2.842 0 4.95-1.941 9.446-5.103 12.77l0.007-0.008-124.343 120.442 171.154 25.356c5.752 0.814 10.542 4.315 13.12 9.17l0.046 0.095 76.069 155.55 77.044-155.063c2.744-4.955 7.448-8.54 13.038-9.73l0.128-0.023 171.642-24.381zM328.655 138.85c-0.244-0.010-0.53-0.015-0.818-0.015-5.252 0-10.073 1.845-13.851 4.923l0.040-0.032c-6.245 4.267-10.291 11.354-10.291 19.387 0 1.77 0.196 3.493 0.569 5.151l-0.029-0.156 32.183 192.61-141.41 136.046c-4.093 4.351-6.608 10.227-6.608 16.69 0 2.751 0.456 5.395 1.295 7.862l-0.051-0.172c3.054 8.758 10.629 15.195 19.857 16.563l0.136 0.017 195.048 28.77 82.895 176.518c4.099 8.431 12.598 14.139 22.43 14.141v0c0.014 0 0.032 0 0.049 0 9.56 0 17.834-5.502 21.83-13.512l0.064-0.141 88.747-173.592 195.048-27.794c9.363-1.384 16.938-7.821 19.939-16.405l0.053-0.174c0.794-2.302 1.253-4.954 1.253-7.714 0-7.187-3.11-13.648-8.058-18.11l-0.022-0.019-139.459-136.533 33.646-191.634c0.153-0.806 0.24-1.734 0.24-2.682s-0.087-1.876-0.254-2.775l0.014 0.093c0-13.735-11.134-24.869-24.869-24.869v0c-4.119 0.123-7.962 1.191-11.355 2.993l0.14-0.068-174.080 89.234-171.642-91.672c-3.471-1.849-7.59-2.936-11.963-2.936-0.251 0-0.502 0.004-0.752 0.011l0.037-0.001zM511.512 742.522c-0.004 0-0.008 0-0.013 0-4.061 0-7.569-2.364-9.225-5.79l-0.027-0.061-89.234-182.37-200.899-29.745c-4.045-0.503-7.291-3.421-8.275-7.247l-0.015-0.068c-0.398-0.995-0.628-2.147-0.628-3.354 0-2.729 1.18-5.183 3.058-6.879l0.008-0.007 146.286-141.41-33.646-199.924c-0.057-0.432-0.089-0.932-0.089-1.439 0-3.502 1.539-6.645 3.977-8.79l0.013-0.011c1.539-0.904 3.389-1.437 5.364-1.437s3.825 0.534 5.414 1.465l179.881 97.496 179.931-94.11c1.287-0.627 2.801-0.993 4.399-0.993 5.49 0 9.971 4.321 10.228 9.747l0.001 0.023-35.109 199.924 146.286 142.385c1.501 1.641 2.421 3.836 2.421 6.245 0 1.844-0.539 3.563-1.468 5.007l0.022-0.037c-1.266 3.621-4.411 6.277-8.235 6.82l-0.054 0.006-200.899 28.282-90.21 180.419c-1.77 3.417-5.233 5.738-9.25 5.851h-0.015zM341.333 179.81l31.208 185.295c0.2 0.774 0.314 1.662 0.314 2.578 0 2.763-1.045 5.282-2.761 7.184l0.008-0.009-134.583 132.632 185.783 27.794c3.307 0.306 6.058 2.406 7.293 5.306l0.022 0.057 82.895 168.716 83.87-168.229c1.515-3.045 4.351-5.238 7.737-5.842l0.065-0.010 185.783-26.331-134.583-134.095c-1.675-1.676-2.71-3.991-2.71-6.548 0-0.792 0.099-1.56 0.286-2.293l-0.014 0.064 32.183-185.295-166.766 87.284c-1.425 0.704-3.103 1.116-4.876 1.116s-3.451-0.412-4.942-1.145l0.066 0.029zM266.728 497.25l113.615-110.202c4.673-4.527 7.574-10.86 7.574-17.87 0-1.265-0.094-2.508-0.277-3.722l0.017 0.137-26.331-156.526 139.947 74.118c3.308 1.842 7.257 2.927 11.459 2.927s8.151-1.085 11.581-2.989l-0.122 0.062 140.434-73.143-27.307 156.038c-0.252 1.329-0.396 2.857-0.396 4.42 0 6.837 2.759 13.029 7.224 17.525l-0.001-0.001 113.128 110.69-156.526 22.43c-8.171 1.030-14.974 6.056-18.467 13.028l-0.063 0.138-70.705 141.897-69.242-141.897c-3.745-6.949-10.453-11.887-18.385-13.147l-0.144-0.019zM902.095-64h-780.19c-67.326 0-121.905 54.579-121.905 121.905v0 780.19c0 67.326 54.579 121.905 121.905 121.905v0h780.19c67.326 0 121.905-54.579 121.905-121.905v0-780.19c0-67.326-54.579-121.905-121.905-121.905v0zM121.905 911.238c-40.396 0-73.143-32.747-73.143-73.143v0-780.19c0-40.396 32.747-73.143 73.143-73.143v0h780.19c40.396 0 73.143 32.747 73.143 73.143v0 780.19c0 40.396-32.747 73.143-73.143 73.143v0z" />
<glyph unicode="&#xe934;" glyph-name="mobile-advertising" d="M902.095-64h-780.19c-67.326 0-121.905 54.579-121.905 121.905v0 780.19c0 67.326 54.579 121.905 121.905 121.905v0h780.19c67.326 0 121.905-54.579 121.905-121.905v0-780.19c0-67.326-54.579-121.905-121.905-121.905v0zM121.905 911.238c-40.396 0-73.143-32.747-73.143-73.143v0-780.19c0-40.396 32.747-73.143 73.143-73.143v0h780.19c40.396 0 73.143 32.747 73.143 73.143v0 780.19c0 40.396-32.747 73.143-73.143 73.143v0zM719.238 90.088h-390.095c-40.396 0-73.143 32.747-73.143 73.143v0 585.143c0 40.396 32.747 73.143 73.143 73.143v0h390.095c40.396 0 73.143-32.747 73.143-73.143v0-585.143c0-40.396-32.747-73.143-73.143-73.143v0zM329.143 772.754c-13.465 0-24.381-10.916-24.381-24.381v0-585.143c0-13.465 10.916-24.381 24.381-24.381v0h390.095c13.465 0 24.381 10.916 24.381 24.381v0 585.143c0 13.465-10.916 24.381-24.381 24.381v0zM268.19 716.19h487.619v-48.762h-487.619v48.762zM268.19 228.571h487.619v-48.762h-487.619v48.762z" />
<glyph unicode="&#xe935;" glyph-name="instagram" d="M902.095-64h-780.19c-67.326 0-121.905 54.579-121.905 121.905v0 780.19c0 67.326 54.579 121.905 121.905 121.905v0h780.19c67.326 0 121.905-54.579 121.905-121.905v0-780.19c0-67.326-54.579-121.905-121.905-121.905v0zM121.905 911.238c-40.396 0-73.143-32.747-73.143-73.143v0-780.19c0-40.396 32.747-73.143 73.143-73.143v0h780.19c40.396 0 73.143 32.747 73.143 73.143v0 780.19c0 40.396-32.747 73.143-73.143 73.143v0zM512 179.81c-148.118 0-268.19 120.073-268.19 268.19s120.073 268.19 268.19 268.19c148.118 0 268.19-120.073 268.19-268.19v0c-0.277-148.006-120.184-267.913-268.164-268.19h-0.027zM512 667.429c-121.187 0-219.429-98.242-219.429-219.429s98.242-219.429 219.429-219.429c121.187 0 219.429 98.242 219.429 219.429v0c-0.277 121.076-98.353 219.152-219.402 219.429h-0.027zM512 277.333c-94.257 0-170.667 76.41-170.667 170.667s76.41 170.667 170.667 170.667c94.257 0 170.667-76.41 170.667-170.667v0c0-94.257-76.41-170.667-170.667-170.667v0zM512 569.905c-67.326 0-121.905-54.579-121.905-121.905s54.579-121.905 121.905-121.905c67.326 0 121.905 54.579 121.905 121.905v0c0 67.326-54.579 121.905-121.905 121.905v0zM873.813 748.861c0-26.93-21.831-48.762-48.762-48.762s-48.762 21.831-48.762 48.762c0 26.93 21.831 48.762 48.762 48.762s48.762-21.831 48.762-48.762z" />
<glyph unicode="&#xe936;" glyph-name="geo" horiz-adv-x="1075" d="M611.999 453.121c116.854 23.719 204.8 127.028 204.8 250.879 0 141.385-114.616 256-256 256s-255.999-114.615-255.999-256c0-123.851 87.949-227.16 204.8-250.879v-363.521h102.399v363.521zM714.399 704c0-84.831-68.767-153.6-153.6-153.6-84.83 0-153.599 68.769-153.599 153.6s68.769 153.6 153.599 153.6c84.833 0 153.6-68.769 153.6-153.6zM407.2 337.546v-103.788c-150.16-18.744-256-61.558-256-92.959 0-41.318 183.252-102.4 409.599-102.4 226.35 0 409.6 61.082 409.6 102.4 0 31.401-105.841 74.214-256 92.959v103.788c207.662-22.753 358.4-92.698 358.4-196.746 0-128.348-229.361-204.8-512-204.8-282.636 0-511.999 76.452-511.999 204.8 0 104.049 150.739 173.993 358.4 196.746z" />
<glyph unicode="&#xe937;" glyph-name="filter" d="M563.2 499.2c113.106 0 204.8 91.692 204.8 204.8s-91.694 204.8-204.8 204.8c-95.429 0-175.613-65.268-198.348-153.6h-364.852v-102.4h364.852c22.735-88.332 102.919-153.6 198.348-153.6zM665.6 704c0-56.554-45.844-102.4-102.4-102.4-56.554 0-102.4 45.846-102.4 102.4s45.846 102.4 102.4 102.4c56.556 0 102.4-45.846 102.4-102.4zM870.4 755.2h153.6v-102.4h-153.6v102.4zM307.2-12.8c113.108 0 204.8 91.694 204.8 204.8s-91.692 204.8-204.8 204.8c-95.429 0-175.613-65.27-198.348-153.6h-108.852v-102.4h108.852c22.735-88.33 102.919-153.6 198.348-153.6zM409.6 192c0-56.556-45.846-102.4-102.4-102.4s-102.4 45.844-102.4 102.4c0 56.556 45.846 102.4 102.4 102.4s102.4-45.844 102.4-102.4zM614.4 140.8h409.6v102.4h-409.6v-102.4z" />
<glyph unicode="&#xe938;" glyph-name="comment" horiz-adv-x="1075" d="M304.8 396.8v102.4h358.399v-102.4h-358.399zM304.8 704v-102.4h460.799v102.4h-460.799zM253.6-53.975l311.643 194.775h405.156c56.556 0 102.4 45.844 102.4 102.4v614.4c0 56.554-45.844 102.4-102.4 102.4h-819.199c-56.553 0-102.4-45.846-102.4-102.4v-614.4c0-56.556 45.846-102.4 102.4-102.4h102.4v-194.775zM535.875 243.2l-179.875-112.425v112.425h-204.8v614.4h819.199v-614.4h-434.524z" />
<glyph unicode="&#xe939;" glyph-name="notifications" horiz-adv-x="1075" d="M862.674 532.139c0 169.883-93.681 287.792-214.892 323.189-4.388 11.355-11.325 21.912-20.751 30.77-32.215 30.269-82.417 30.269-114.632 0-9.406-8.839-16.332-19.368-20.723-30.695-121.369-35.242-214.922-152.894-214.922-323.265 0-110.231-22.224-171.998-63.365-216.762-6.878-7.485-25.515-24.627-38.139-36.239-5.965-5.489-10.601-9.754-11.999-11.162l-12.052-12.221v-142.72h254.791c8.615-44.447 32.732-74.189 76.347-100.803 53.65-32.737 121.106-32.737 174.753 0 38.492 23.491 64.302 59.587 74.772 100.803h256.369v142.72l-12.052 12.221c-1.27 1.285-5.709 5.381-11.51 10.732-12.585 11.607-31.59 29.143-38.574 36.767-41.17 44.974-63.421 106.819-63.421 216.665zM642.401 113.034c-6.738-11.704-16.461-21.755-28.913-29.353-26.875-16.399-60.672-16.399-87.552 0-16.459 10.045-26.538 18.355-32.451 29.353h148.915zM864.358 258.959c8.806-9.62 27.679-27.208 40.166-38.697v-23.526h-669.622v23.511c12.391 11.351 31.323 28.923 40.114 38.487 55.902 60.826 85.44 142.92 85.44 273.405 0 158.203 97.63 250.591 209.255 250.591 111.314 0 209.26-92.865 209.26-250.591 0-130.065 29.548-212.185 85.386-273.18z" />
<glyph unicode="&#xe93a;" glyph-name="drag-drop" d="M317.804 763.987v-470.386h-102.4v470.386l-117.396-117.396-72.408 72.408 241.004 241.004 241.004-241.004-72.408-72.408-117.396 117.396zM727.404 136.417v465.186h102.4v-465.186l117.396 117.396 72.407-72.412-241.004-241.004-241.004 241.004 72.407 72.412 117.396-117.396z" />
</font>
</defs>
</svg>
