<svg xmlns="http://www.w3.org/2000/svg" width="319.153" height="318.86" viewBox="0 0 319.153 318.86"><g transform="translate(-1150.615 -10467.817)"><g transform="matrix(0.966, 0.259, -0.259, 0.966, 1568.627, 7511.418)"><g transform="translate(699.248 3129.416)"><path d="M726.256,3138.529l.257,10.112c.072,3.392-5.859,6.269-13.248,6.426s-13.438-2.464-13.51-5.856l-.129-9.5" transform="translate(-699.364 -3132.198)" fill="none" stroke="#0073ff" stroke-linecap="round" stroke-miterlimit="10" stroke-width="2"/><ellipse cx="13.382" cy="6.142" rx="13.382" ry="6.142" transform="matrix(1, -0.021, 0.021, 1, 0, 0.57)" fill="none" stroke="#0073ff" stroke-miterlimit="10" stroke-width="2"/><path d="M726.2,3138.529l.129,5.056c.072,3.392-5.859,6.268-13.248,6.426s-13.438-2.465-13.51-5.856l-.129-5.056" transform="translate(-699.307 -3132.198)" fill="none" stroke="#0073ff" stroke-linecap="round" stroke-miterlimit="10" stroke-width="2"/></g><g transform="translate(706.824 3141.288)"><line y2="4.656" transform="translate(0 0.394)" fill="none" stroke="#0073ff" stroke-linecap="round" stroke-miterlimit="10" stroke-width="2"/><line y2="5.05" transform="translate(12.128)" fill="none" stroke="#0073ff" stroke-linecap="round" stroke-miterlimit="10" stroke-width="2"/></g><g transform="translate(703.106 3145.791)"><line y2="4.459" transform="translate(9.27 1.951)" fill="none" stroke="#0073ff" stroke-linecap="round" stroke-miterlimit="10" stroke-width="2"/><line y2="4.459" fill="none" stroke="#0073ff" stroke-linecap="round" stroke-miterlimit="10" stroke-width="2"/><line y2="4.656" transform="translate(18.539)" fill="none" stroke="#0073ff" stroke-linecap="round" stroke-miterlimit="10" stroke-width="2"/></g></g><path d="M1343.516,2708.291l-5.648,5a2.375,2.375,0,0,1-3.964-1.868l.448-7.5a2.513,2.513,0,0,0-1.177-2.2l-6.561-3.811a2.363,2.363,0,0,1,.592-4.335l7.326-1.936a2.439,2.439,0,0,0,1.746-1.784l1.593-7.365a2.4,2.4,0,0,1,4.343-.79l4.086,6.332a2.331,2.331,0,0,0,2.263,1.055l7.54-.767a2.3,2.3,0,0,1,2.066,3.765l-4.8,5.877a2.509,2.509,0,0,0-.326,2.475l3.076,6.946a2.375,2.375,0,0,1-3.052,3.144l-7.046-2.687A2.707,2.707,0,0,0,1343.516,2708.291Z" transform="matrix(0.875, 0.485, -0.485, 0.875, 1456.478, 7491.31)" fill="none" stroke="#0073ff" stroke-miterlimit="10" stroke-width="2"/><g transform="translate(994.202 7029.807) rotate(21)"><line y2="6.823" transform="translate(1490.296 3195.595)" stroke-width="2" stroke="#0073ff" stroke-linecap="round" stroke-linejoin="round" fill="#fff"/><line x2="6.823" transform="translate(1486.884 3199.007)" stroke-width="2" stroke="#0073ff" stroke-linecap="round" stroke-linejoin="round" fill="#fff"/></g><path d="M1460.375,3166.3a1.469,1.469,0,1,1,1.469-1.469,1.469,1.469,0,0,1-1.469,1.469" transform="translate(-96.906 7375.635)" fill="#fff" stroke="#0073ff" stroke-linecap="round" stroke-linejoin="round" stroke-width="2"/><path d="M0,2.41l3.311.647L3.908,0" transform="translate(1268.798 10469.195) rotate(58)" fill="none" stroke="#0073ff" stroke-linecap="round" stroke-linejoin="round" stroke-width="2"/><g transform="translate(-235.819 9835.858) rotate(11)"><g transform="translate(1606 571.949)"><circle cx="34.87" cy="34.87" r="34.87" fill="none" stroke="#0073ff" stroke-miterlimit="10" stroke-width="2"/><circle cx="28.77" cy="28.77" r="28.77" transform="translate(6.101 6.101)" fill="none" stroke="#0073ff" stroke-miterlimit="10" stroke-width="2"/><g transform="translate(22.073 17.825)"><path d="M988.932,3250.555v-36.6h11.284a7.276,7.276,0,0,1,7.276,7.277v2.593a7.277,7.277,0,0,1-7.276,7.277H981.769" transform="translate(-981.769 -3213.951)" fill="none" stroke="#0073ff" stroke-linecap="round" stroke-linejoin="round" stroke-width="2"/><line x2="21.491" transform="translate(0 23.892)" stroke-width="2" stroke="#0073ff" stroke-linecap="round" stroke-linejoin="round" fill="#fff"/></g><path d="M1016.244,3251.689h0" transform="translate(-950.416 -3185.968)" fill="none" stroke="#0073ff" stroke-miterlimit="10" stroke-width="2"/></g></g><g transform="matrix(0.966, 0.259, -0.259, 0.966, 1168.016, 10653.266)"><g transform="translate(0 0)"><path d="M1369.141,1193.519l-1.646-6.142-9.813,9.813-6.437-1.725-1.725-6.438,9.814-9.813-6.143-1.646a6.275,6.275,0,0,0-6.062,1.624l-6.647,6.647a6.277,6.277,0,0,0-1.625,6.063l1.646,6.142-30.851,28.33c-2.254,2.254-4.081,6.677.155,10.914s8.659,2.409,10.913.155l27.946-31.236,6.143,1.645a6.274,6.274,0,0,0,6.062-1.624l6.647-6.648A6.276,6.276,0,0,0,1369.141,1193.519Z" transform="translate(-1307.255 -1177.354)" fill="none" stroke="#0073ff" stroke-linecap="round" stroke-linejoin="round" stroke-width="2"/></g></g><g transform="matrix(0.996, 0.087, -0.087, 0.996, 342.362, 7930.295)"><g transform="translate(1239.732 2659.613)"><line y1="63.236" fill="none" stroke="#0073ff" stroke-linecap="round" stroke-linejoin="round" stroke-width="2"/><rect width="23.108" height="21.421" transform="translate(0 7.96)" stroke-width="2" stroke="#0073ff" stroke-linecap="round" stroke-linejoin="round" fill="none"/><path d="M1257.656,2671.752h21.486l-5.318,10.71,5.318,10.71h-21.486v-8.33" transform="translate(-1234.548 -2657.076)" fill="none" stroke="#0073ff" stroke-linecap="round" stroke-linejoin="round" stroke-width="2"/></g><line x1="13.48" transform="translate(1232.853 2722.849)" stroke-width="2" stroke="#0073ff" stroke-linecap="round" stroke-linejoin="round" fill="none"/></g><g transform="translate(-450.011 7765.462) rotate(-16)"><rect width="64.26" height="31.703" rx="2" transform="translate(796.244 3173.053)" fill="none" stroke="#0073ff" stroke-miterlimit="10" stroke-width="2"/><circle cx="11.313" cy="11.313" r="11.313" transform="translate(817.061 3177.592)" fill="none" stroke="#0073ff" stroke-miterlimit="10" stroke-width="2"/><g transform="translate(851.258 3173.054)"><path d="M859.533,3195.777a8.351,8.351,0,0,0-8.351,8.352c0,.2.016.4.029.6h7.214a2,2,0,0,0,2-2v-6.9A8.577,8.577,0,0,0,859.533,3195.777Z" transform="translate(-851.183 -3173.023)" fill="none" stroke="#0073ff" stroke-miterlimit="10" stroke-width="2"/><path d="M859.533,3182a8.351,8.351,0,0,1-8.351-8.352c0-.2.016-.4.029-.6h7.214a2,2,0,0,1,2,2v6.9A8.192,8.192,0,0,1,859.533,3182Z" transform="translate(-851.183 -3173.054)" fill="none" stroke="#0073ff" stroke-miterlimit="10" stroke-width="2"/></g><g transform="translate(796.244 3173.054)"><path d="M797.139,3195.777a8.352,8.352,0,0,1,8.351,8.352c0,.2-.016.4-.03.6h-7.214a2,2,0,0,1-2-2v-6.9A8.607,8.607,0,0,1,797.139,3195.777Z" transform="translate(-796.244 -3173.023)" fill="none" stroke="#0073ff" stroke-miterlimit="10" stroke-width="2"/><path d="M797.139,3182a8.351,8.351,0,0,0,8.351-8.352c0-.2-.016-.4-.03-.6h-7.214a2,2,0,0,0-2,2v6.9A8.221,8.221,0,0,0,797.139,3182Z" transform="translate(-796.244 -3173.054)" fill="none" stroke="#0073ff" stroke-miterlimit="10" stroke-width="2"/></g></g><path d="M1461.151,3167.854a2.244,2.244,0,1,1,2.245-2.245,2.245,2.245,0,0,1-2.245,2.245" transform="translate(-178.906 7510.635)" fill="#fff" stroke="#0073ff" stroke-linecap="round" stroke-linejoin="round" stroke-width="2"/><path d="M0,2.41l3.311.647L3.908,0" transform="translate(1466.788 10695.246) rotate(65)" fill="none" stroke="#0073ff" stroke-linecap="round" stroke-linejoin="round" stroke-width="2"/><g transform="translate(8.202 7371.865)"><g transform="translate(1402.761 3179.479)"><line x2="1.424" y2="1.931" fill="#fff" stroke="#0073ff" stroke-linecap="round" stroke-linejoin="round" stroke-width="2"/><line x2="1.424" y2="1.931" transform="translate(3.989 5.408)" stroke-width="2" stroke="#0073ff" stroke-linecap="round" stroke-linejoin="round" fill="#fff"/></g><g transform="translate(1401.798 3180.443)"><line y1="1.424" x2="1.931" transform="translate(0 3.989)" stroke-width="2" stroke="#0073ff" stroke-linecap="round" stroke-linejoin="round" fill="#fff"/><line y1="1.424" x2="1.931" transform="translate(5.408)" stroke-width="2" stroke="#0073ff" stroke-linecap="round" stroke-linejoin="round" fill="#fff"/></g></g><g transform="translate(56.882 8646.392) rotate(-18)"><g transform="translate(472.025 2107.31)"><path d="M535.2,2132.614a10.016,10.016,0,0,1-9.809,10,1.077,1.077,0,0,1-.112,0H481.947a1.051,1.051,0,0,1-.112,0,10,10,0,0,1-1.985-19.756,10.258,10.258,0,0,1,.686-5.291,12.147,12.147,0,0,1,4.73-5.614,11.9,11.9,0,0,1,9.578-1.6,11.976,11.976,0,0,1,8.094-3.036c5.006,0,9.338,2.927,10.771,7.044a11.42,11.42,0,0,1,7.905.088,11.031,11.031,0,0,1,7.266,8.879,10.092,10.092,0,0,1,4.271,3.232,9.891,9.891,0,0,1,2.053,6.061" transform="translate(-472.025 -2107.31)" fill="#fafbfc" stroke="#0073ff" stroke-miterlimit="10" stroke-width="2"/><path d="M515.769,2118.934a8.263,8.263,0,0,0-9.258,5.547" transform="translate(-458.717 -2102.881)" fill="#fafbfc" stroke="#0073ff" stroke-linecap="round" stroke-linejoin="round" stroke-width="2"/><path d="M509.676,2135.02a4.424,4.424,0,0,1-.861-7.4" transform="translate(-458.452 -2099.471)" fill="#fafbfc" stroke="#0073ff" stroke-linecap="round" stroke-linejoin="round" stroke-width="2"/><path d="M494.634,2122.387a11.633,11.633,0,0,1,.049,14.517" transform="translate(-463.3 -2101.492)" fill="#fafbfc" stroke="#0073ff" stroke-linecap="round" stroke-linejoin="round" stroke-width="2"/><path d="M504.93,2123.785a10.026,10.026,0,0,0-8.444,4.4" transform="translate(-462.586 -2100.953)" fill="#fafbfc" stroke="#0073ff" stroke-linecap="round" stroke-linejoin="round" stroke-width="2"/><path d="M489.3,2109.5c-2.924,3.013-3.738,6.335-2.076,11.3" transform="translate(-466.486 -2106.464)" fill="#fafbfc" stroke="#0073ff" stroke-linecap="round" stroke-linejoin="round" stroke-width="2"/><path d="M504.442,2112.1a13.9,13.9,0,0,0-7.495,10.307" transform="translate(-462.408 -2105.46)" fill="#fafbfc" stroke="#0073ff" stroke-linecap="round" stroke-linejoin="round" stroke-width="2"/><path d="M495,2112.489a9.268,9.268,0,0,1,4.616,4.58" transform="translate(-463.16 -2105.311)" fill="#fafbfc" stroke="#0073ff" stroke-linecap="round" stroke-linejoin="round" stroke-width="2"/><path d="M476.972,2118.949a10.25,10.25,0,0,1,12.276,5.49" transform="translate(-470.116 -2102.987)" fill="#fafbfc" stroke="#0073ff" stroke-linecap="round" stroke-linejoin="round" stroke-width="2"/><path d="M482.635,2119.733a10.111,10.111,0,0,0-2.17,9.057" transform="translate(-468.885 -2102.516)" fill="#fafbfc" stroke="#0073ff" stroke-linecap="round" stroke-linejoin="round" stroke-width="2"/></g></g><g transform="translate(-337.937 8834.8) rotate(-17)"><g transform="translate(1125.391 2201.473)"><rect width="12.699" height="31.798" rx="4.01" transform="matrix(0.9, -0.435, 0.435, 0.9, 19.633, 37.201)" stroke-width="2" stroke="#0073ff" stroke-linecap="round" stroke-linejoin="round" fill="none"/><rect width="6.612" height="23.447" transform="matrix(0.9, -0.435, 0.435, 0.9, 12.178, 14.765)" stroke-width="2" stroke="#0073ff" stroke-linecap="round" stroke-linejoin="round" fill="none"/><path d="M1129.96,2219.913l-4.569-9.46,18.6-8.98,12.418.458a1.349,1.349,0,0,1,.731,2.39l-7.431,6.057Z" transform="translate(-1125.391 -2201.473)" fill="none" stroke="#0073ff" stroke-linecap="round" stroke-linejoin="round" stroke-width="2"/></g></g><g transform="translate(-2401.724 547.735) rotate(-14)"><g transform="translate(1161 10620)"><path d="M1221.383,2055.625l-13.413,26.93a2.936,2.936,0,0,0,2.542,4.4h28.733a2.936,2.936,0,0,0,2.542-4.4l-13.412-26.93A4.037,4.037,0,0,0,1221.383,2055.625Z" transform="translate(-1207.573 -2053.606)" fill="none" stroke="#0073ff" stroke-linecap="round" stroke-linejoin="round" stroke-width="2"/><rect width="4.204" height="9.687" transform="translate(15.204 33.611)" stroke-width="2" stroke="#0073ff" stroke-linecap="round" stroke-linejoin="round" fill="none"/><rect width="7.672" height="29.806" rx="3" transform="translate(13.47 43.298)" stroke-width="2" stroke="#0073ff" stroke-linecap="round" stroke-linejoin="round" fill="none"/></g></g></g></svg>