<svg xmlns="http://www.w3.org/2000/svg" width="224.182" height="387.98" viewBox="0 0 224.182 387.98"><defs><style>.a{fill:#3f79fe;}.b{fill:#f7c8b2;}.c{fill:#edb7a2;}.d{fill:#406fc4;}.e{fill:#242c45;}.f{fill:#325cff;}.g{fill:#223d72;}.h{fill:#d9e8fb;}.i{fill:#a6caf4;}.j{fill:#2041a1;}.k{fill:#c1d8fa;}.l{fill:#fff;}.m{fill:#6d3839;}.n{fill:#93a4e0;}.o{fill:#f7d0cb;}.p{fill:#eabbbb;}.q{fill:#243b5a;}.r{fill:#cce0ff;}.s{fill:#3f79ff;}.t{fill:#74394a;}.u{fill:#4f394a;}.v{fill:#f3c3c8;}</style></defs><g transform="translate(-841 -9829.918)"><g transform="translate(267.428 9081.266)"><path class="a" d="M823.379,874.107s7.849-1.942,11.488,3.961c3.1,5.03.794,8.947-3.792,14.683-1.487,6.72-16.409,19.38-16.409,19.38l-10.706-23.948,13.645-12.873Z" transform="translate(-38.531 -20.93)"/><path class="b" d="M772.46,1188.058c.66,1.657,9.3,6.986,15.736,7.36,6.451.374,5.524-6.255,2.762-7.912-2.067-1.248-3.261-5.774-2.923-10.229l.018-.018a15.419,15.419,0,0,1,.321-2.245,13.09,13.09,0,0,1,.552-2.068c1.158-3.261-12.581-3.421-12.581-3.421s.018.766,0,1.906c-.018,2.94-.3,8.376-1.746,9.819a8.254,8.254,0,0,0-1.782,2.691A5.9,5.9,0,0,0,772.46,1188.058Z" transform="translate(-33.224 -70.389)"/><path class="c" d="M772.935,1184.324c.588,2.726,9.214,3.8,6.273,2.619-2.994-1.212-3.314-3.083-3.314-3.083a36.934,36.934,0,0,0,2.8-6.255,15.528,15.528,0,0,0,9.463.053l.018-.018a15.419,15.419,0,0,1,.321-2.245l-2.958-1.765-9.071-1.818c-.018,2.94-.3,8.376-1.746,9.819A8.254,8.254,0,0,0,772.935,1184.324Z" transform="translate(-33.342 -70.772)"/><path class="b" d="M727.065,1164.142c-.184.24-4.334,6.564-4.236,8.217.2,3.444-1.463,3.792-1.452,6.027,0,.735.355,3.836.355,3.836s-4.414,5.517-13.242,4.414.551-7.541,1.839-9.012,3.176-8.092,3.727-8.643,1.422-4.782,2.894-10.3S727.065,1164.142,727.065,1164.142Z" transform="translate(-21.938 -68.316)"/><path class="d" d="M792.073,839.943l2.715-10.87L782.8,825.02l-14.6,1.412-3.5,5.7Z" transform="translate(-31.964 -12.772)"/><path class="e" d="M714.415,1134.146a5.252,5.252,0,0,0,1.444,2.495,17.179,17.179,0,0,0,2.816,2.406,32.3,32.3,0,0,0,13.383,0,12.86,12.86,0,0,1,0-5.24c.66-2.281,20.618-48.336,25.821-61.078s12.477-45.14,13.722-55.218c1.621.66,0,15.362.321,24.824.321,9.48-2.62,57.167-4.241,67.307-1.64,10.122-2.62,27.1-2.62,27.1-1.639,1.319,0,4.58,0,4.58a11.363,11.363,0,0,0,2.851,1.3c5.4,1.764,13.152,1.318,13.152,1.318v-3.92c2.62-4.58,13.4-38.563,18.961-67.308,5.542-28.744,5.114-91.864,5.114-91.864l-11.315-.25-46.8-1s-7.449,27.782-8.108,32.344c-.642,4.579-13.063,60.108-15.023,67.628s-8.037,50.966-8.037,50.966Z" transform="translate(-23.555 -38.626)"/><path class="e" d="M714.415,1134.146a5.252,5.252,0,0,0,1.444,2.495l2.139-4.705s6.4-33.7,9.088-51.554c2.531-16.716,21.848-77.432,24.343-85.718,1.621.41,5.292-2.671,12.9-1.834,20.208,2.263,37.013-6.486,37.013-6.486l-7.52-5.739-46.8-1s-7.449,27.782-8.108,32.344c-.642,4.579-13.063,60.108-15.023,67.628s-8.037,50.966-8.037,50.966Z" transform="translate(-23.555 -38.626)"/><path class="f" d="M786.8,829.9s4.342,3.7,8.8,4.977-9.667,10.967-9.667,10.967-16.853-5.536-18.752-10.967,5.341-4.977,5.341-4.977Z" transform="translate(-32.327 -13.586)"/><path class="b" d="M770.31,830.632c2.726,4.7,18,7.038,17.607,1.96-.178-2.21.463-5.9,1.247-9.374.909-4.028,2-7.752,2.228-8.5.018-.072.036-.125.036-.125,2.317-8.839-19.175-10.568-18.391-7.039a8.21,8.21,0,0,1,.09,2.014,115.7,115.7,0,0,1-1.372,12.331C771.023,826.623,770.31,830.632,770.31,830.632Z" transform="translate(-32.903 -9.565)"/><path class="c" d="M772.044,822.648c5.132,2.6,17.41,1.319,17.41,1.319.909-4.028,2-7.752,2.228-8.5a8.091,8.091,0,0,0-2.228-1.283l-16.038-3.866A115.718,115.718,0,0,1,772.044,822.648Z" transform="translate(-33.193 -10.313)"/><path class="b" d="M803.972,777.937s1.956,26.6-5.477,34.036-26.994,3.13-31.688-8.215-3.13-28.168-3.13-28.168S801.234,759.55,803.972,777.937Z" transform="translate(-31.752 -3.421)"/><path class="g" d="M758.68,780.383s.784,13.793,5.667,15.9a67.472,67.472,0,0,0-.57-10.817c-.784-4.687,1.943-11.156,4.3-9.588s-.855,11.245,2.281,10.852a2.193,2.193,0,0,0,1.5-1.283c1.854-3.154,2.513-10.942,5.061-10.727a30.816,30.816,0,0,0,12.456-1.3s12.421,6.736,20.689,2.869c5.757-2.673,6.042-12.225,2.62-16.359a.136.136,0,0,1-.018-.053,4.918,4.918,0,0,0-6.095-1.39s-9.32-12.742-19.228-7.984c0,0-3.475-3.475-4.6-.855,0,0-8.411-4.58-14.666,5.97C768.072,755.612,751.73,757.662,758.68,780.383Z" transform="translate(-30.67 0)"/><path class="b" d="M770.272,783.312a3.894,3.894,0,0,0-5.51-3.021c-4.706,1.636-.424,16.778,2.756,15.961S770.272,783.312,770.272,783.312Z" transform="translate(-31.626 -5.233)"/><path class="h" d="M753.59,864.182v87.588l1.479,4.882,4.241,2.6s.66.428,1.907,1.069a52.291,52.291,0,0,0,22.507,5.453c14.06.3,28.708-5.167,30.437-5.827.125-.053.178-.072.178-.072l-.909-12.741c8.464-37.441-10.871-97.6-10.871-97.6l-4.812-13.917-6.38,7.573-7.645,3.386-12.706-6.361-12.047-5.953Z" transform="translate(-30.107 -14.317)"/><path class="i" d="M752.777,963.525l2.156,14.221,6.095,3.6v.017l.053.053c.142.072.285.142.445.232l.124.072a52.9,52.9,0,0,0,21.937,5.15c13.668.3,27.906-4.865,30.259-5.773-2.548.749-18.64,5.364-32.166,3.422-11.993-1.729-18.159-4.046-20.03-4.847v-1.283h10.408v-9.124l-4.687-6.255-8.019-2.62Z" transform="translate(-29.971 -35.412)"/><path class="i" d="M818.251,950.338s-12.868,4.573-17.445,3.79c0,0,5.67-61.568,3.024-82.031s-3.024-24.7-3.024-24.7L792.77,849l12.8-10.3,5.522,15.278Z" transform="translate(-36.66 -15.06)"/><path class="a" d="M807.852,899.851c-1,17.268-.937,50.772-.937,50.772s12.386.66,16.93-3.26c0,0,1.3-7.805,0-11.708,0,0,.944-8.143,1.621-17.5a180.1,180.1,0,0,0,.552-19.62c-.089-1.925-3.428-6.688-3.642-9.521-1.145-15.254,1.874-29.893,0-40.586-1.124-6.419-4.787-8.434-5.88-9.2a32.894,32.894,0,0,0-15.665-5.954S809.848,864.994,807.852,899.851Z" transform="translate(-38.008 -14.152)"/><path class="f" d="M808.094,835.267l2.423,2.388,2.548,8.75,1.033,5.809s-.819,12.724,4.419,17.25c1.158,7.592,0,30.723,0,30.723a44.225,44.225,0,0,0,5.382,16.091,16.406,16.406,0,0,0,2.78,2.21,180.116,180.116,0,0,0,.553-19.621c-.089-1.924-.25-4.384-.464-7.217l-5.791-26-6.594-26.891L810.8,836.8A10.9,10.9,0,0,0,808.094,835.267Z" transform="translate(-39.223 -14.486)"/><path class="f" d="M808.153,964.563s11.654,1.747,16.929-3.261h-13.4l1.568-8.233h7.574s-9.106-.57-9.142-3.1l.3-1.639-3.054-31.739Z" transform="translate(-39.232 -28.087)"/><path class="a" d="M745.791,937.971c1.96,4.882,1.96,12.741,1.96,12.741,10.888,2.94,26.036,0,26.036,0-1.016-7.288-1.8-14.9-2.388-22.543-3.172-40.506-1.1-81.956-1.1-81.956-8.393-5.471-16.021-15.825-18.818-11.709-1.925,2.816-4.633,20.672-6.986,37.3-1.087,7.645-2.1,15.04-2.922,20.582C738.966,909.94,745.791,937.971,745.791,937.971Z" transform="translate(-27.998 -14.201)"/><path class="f" d="M745.791,943.715c1.96,4.882,1.96,12.741,1.96,12.741,10.888,2.94,26.036,0,26.036,0-1.016-7.288-1.8-14.9-2.388-22.543l-1.3,15.717s-11.761-.927-15.807-3.225c0,0-6.112-45.371,0-69.428,4.152-16.377-4.116-7.057-9.8.57-1.087,7.645-2.1,15.04-2.922,20.582C738.966,915.683,745.791,943.715,745.791,943.715Z" transform="translate(-27.998 -19.944)"/><path class="c" d="M824.87,864.319s7.02,6.736,9.105,9.628-8.67-3.391-8.67-3.391l-1.466-3.964Z" transform="translate(-41.856 -19.345)"/><path class="b" d="M756.373,979.546l3.721,6.516s-3.393,9.723-12.852,13.676V985.1S755.3,977.668,756.373,979.546Z" transform="translate(-29.045 -38.565)"/><path class="a" d="M736.816,961.453c-2.673,5.667,0,8.518,0,8.518a21.4,21.4,0,0,0,9.712-5.132,37.847,37.847,0,0,0,6.7-7.663,5.257,5.257,0,0,0-3.1-4.9s-17.589-37.244-8.091-64.581c19.214-33.944,12.849-46.048,12.849-46.048s-.719-10.359-7.562-7.08c-14.736,5.779-23.8,27.787-28.756,55v.072c-.071.338-.142.695-.2,1.051-.8,4.509-1.443,9.142-1.907,13.847C713.151,938.144,736.816,961.453,736.816,961.453Z" transform="translate(-23.845 -14.261)"/><path class="j" d="M806.061,833.963s.374.178.927.428v.018c1.354.66,3.76,1.943,4.33,2.834a.055.055,0,0,1,.018.036c.713,1.247,14.185,56.882,15,81.421,1.5,1.765,3.867-4.687,3.475-10.549-1.568-23.024-10.5-71.035-16.029-73.875-.943-.485-3.951-1.532-3.951-1.532-.73-.232-2.083-.544-2.883.241C806.716,833.216,806.061,833.963,806.061,833.963Z" transform="translate(-38.882 -14.02)"/><path class="j" d="M766.608,1196.665c0,2.263.446,4.134,1.569,4.847,3.385,2.138,19.424,6.237,25.3,7.128,5.9.891,11.583.713,14.1-1.6a5.123,5.123,0,0,0,1.658-3.03c.267-1.729-.413-4.783-1.736-6.024-5.281-4.956-11.671-3.325-15.975-9.323,0,0,.2-4.1-6.774-3.506-7.33.62-6.594,3.528-6.594,3.528s-5.292-1.408-5.417-4.277a12.794,12.794,0,0,0,1.238-1.364,6.388,6.388,0,0,0,.331-.864,4.033,4.033,0,0,0-.929.114,7.014,7.014,0,0,0-3.545,2.114C768.373,1185.955,766.608,1192.1,766.608,1196.665Z" transform="translate(-32.284 -72.504)"/><path class="k" d="M792.419,826.716s6.124-.062,8.384,2.449,4.268,7.531,4.268,7.531-.787,4.462-12.8,10.3a2.12,2.12,0,0,1-2.5-1.683c6.243-3.526,8.178-15.451,8.178-15.451a9.24,9.24,0,0,0-5.759-2.079Z" transform="translate(-36.157 -13.056)"/><path class="k" d="M783.714,845.027s-15.34-6.39-17.116-15.147c0,0,.555-2.617,2.172-3.617V825.02s-7.26.244-8.917,2.848c0,0-3.432-1.183-6.272,5.206,0,0,6.746,9.283,25.681,13.661,1.148.266,2.1.777,4.953-.644S783.714,845.027,783.714,845.027Z" transform="translate(-30.105 -12.772)"/><path class="f" d="M834.119,875.471s6,3.695,4.788,7.692-3.1,4.331-6.842,3.3-6.092-4.816-5.156-7.072S827.866,874,834.119,875.471Z" transform="translate(-42.335 -21.146)"/><path class="b" d="M835.893,877.5c-3.39-4.719-15.641-13.118-18.315-10.556a1.8,1.8,0,0,0-.2,2.521c.546.961-.935.573-.919,2.233a7.143,7.143,0,0,0,1.427,3.855c1.06,1.356.014,2.522,2.427,4.945,2.279,3.094,7.157,2.459,11.043,3.09a4.3,4.3,0,0,0,4.735-2.622A3.268,3.268,0,0,0,835.893,877.5Z" transform="translate(-40.621 -19.703)"/><path class="l" d="M766.608,1199.575c0,2.263.446,4.134,1.569,4.847,3.385,2.139,19.424,6.237,25.3,7.128,5.9.891,11.583.713,14.1-1.6a5.123,5.123,0,0,0,1.658-3.03c0-1.56-1.415-1.492-2.742-1.106-1.944.565-4.949,3.388-8.2,3.441C786.816,1209.465,766.608,1199.575,766.608,1199.575Z" transform="translate(-32.284 -75.414)"/><path class="j" d="M680.854,1196.64a1.607,1.607,0,0,1,0,.41,8.524,8.524,0,0,0,6.772,7.805c3.9.927,7.84,1.033,13.116,1.212s15.058-4.758,17.589-6.9c1.087-.926,1.407-2.958,1.407-5.221,0-2.975-.552-6.344-.552-7.965,0-2.851-1.8-3.528-1.8-3.528-.8,2.5-1.052,4.063-3.012,5.311s-3.974-1.6-3.974-1.6c-1.14-2.495-5.72-7.075-8.393-3.333s-15.094,10.443-18.195,10.443a2.678,2.678,0,0,0-2.495,1.515,1.532,1.532,0,0,0-.107.25A4.6,4.6,0,0,0,680.854,1196.64Z" transform="translate(-17.942 -72.377)"/><path class="l" d="M680.854,1199.157a1.607,1.607,0,0,1,0,.41,8.524,8.524,0,0,0,6.772,7.805c3.9.927,7.84,1.033,13.116,1.212s15.058-4.758,17.589-6.9c1.087-.926,1.407-2.958,1.407-5.221,0,0-6.647,7.253-16.733,8.59-10.068,1.336-15.414-3.6-17-5.186-1.461-1.479-4.1-3.172-4.687-2.567a1.532,1.532,0,0,0-.107.25A4.6,4.6,0,0,0,680.854,1199.157Z" transform="translate(-17.942 -74.894)"/><path class="f" d="M736.816,972.778c-2.673,5.667,0,8.518,0,8.518a21.4,21.4,0,0,0,9.712-5.132l.107-.107s-5.287,1.049-7-.718c-2.309-2.379.533-5.823.533-5.823s-5.524-7.627-14.417-21.189c-7.306-11.156-7.449-36.068-7.271-44.551.018-.908.036-1.64.054-2.138l-.018.3-.142.071c-.8,4.509-1.443,9.142-1.907,13.847C713.151,949.469,736.816,972.778,736.816,972.778Z" transform="translate(-23.845 -25.586)"/><path class="j" d="M791.086,1171.585s1.342,2.377,0,3.92-12.38.053-16-2.619c0,0-1.674-2.9,0-4.58C775.083,1168.306,788.156,1172.956,791.086,1171.585Z" transform="translate(-33.577 -70.185)"/><path class="j" d="M732.053,1164.12s2.038,2.922,0,5.24c0,0-6.784,2.432-13.383,0,0,0-4.031-2.3-4.26-4.9a3.718,3.718,0,0,1,1.444-3.6S721.636,1167.647,732.053,1164.12Z" transform="translate(-23.551 -68.939)"/><path class="m" d="M807.618,834.915c1.354.66,3.39,1.76,3.961,2.651-.125-.356-1.047-2.831-2.7-3.129A1.3,1.3,0,0,0,807.618,834.915Z" transform="translate(-39.143 -14.343)"/><path class="g" d="M652.5,925.973s1.164,6.161-4.268,12.029-43.912,7.927-57,4.648c-6.079-1.523-14.268-9.3-14.268-9.3s-4.584-13.919-1.481-23.231S593.919,865.3,593.919,865.3l5-29.683,19.369-1.551,18.887,21.484,9.119,26.239,4.268,28.713Z" transform="translate(-0.139 -14.285)"/><path class="j" d="M606.928,906.224l2.12.289-6.381,4.278S604.885,906.833,606.928,906.224Z" transform="translate(-4.866 -26.353)"/><path class="n" d="M606.652,908.907l1.292-2.3,8.216-1.583s11.262-.774,14.064.2,7.3,1.959,7.3,1.959L633.74,911.6Z" transform="translate(-5.532 -26.103)"/><path class="o" d="M614.442,893.629c.385,5.524,1.262,11.37,1.262,11.37,7.262,6.847,18.74-.754,15.956-4.693-1.185-1.677-2.093-4.785-2.724-7.8-.861-4.031-1.246-7.893-1.246-7.893s-11.232-3.431-12.879,0C614.134,886.028,614.165,889.752,614.442,893.629Z" transform="translate(-6.804 -22.484)"/><path class="p" d="M614.442,893.629s5.17,5.093,10,2.739a12.491,12.491,0,0,0,4.493-3.862c-.861-4.031-1.246-7.893-1.246-7.893s-11.232-3.431-12.879,0C614.134,886.028,614.165,889.752,614.442,893.629Z" transform="translate(-6.804 -22.484)"/><path class="o" d="M600.088,865.675c5.062,14.692,12.978,16.886,19.705,16.556a12.617,12.617,0,0,0,6.068-1.929c7.4-4.519,11.791-16.127,14-25.758a74.6,74.6,0,0,0,1.765-11.164c1.022-15.517-5.062-10.141-13.67-15.715s-27.868,6.6-27.868,6.6S595.026,850.982,600.088,865.675Z" transform="translate(-4.058 -12.97)"/><path class="p" d="M604.778,842.454s7.4-.907,11.1-3.809a22.346,22.346,0,0,0,11.675,6.4s4.419,8.146,4.518,16.11c.1,7.949-1.221,14.083-5.047,19.607,7.4-4.519,11.791-16.127,14-25.758l.363-11.906L618.58,828.948l-9.054,5.376Z" transform="translate(-5.219 -13.429)"/><g transform="translate(580.529 960.467)"><g transform="translate(6.993 125.056)"><path class="o" d="M612.985,1153.178c-.371.651,5.714,17.9,7.529,21.367s3.334,6.259,3.334,6.259-11.934,8.716-16.681,8.591c2.614-3.776,3.687-8.313,3.464-10.973-.213-2.542-2.652-14.494-2.652-14.494Z" transform="translate(-593.14 -1153.178)"/><path class="j" d="M590.331,1198.68a6.308,6.308,0,0,0,.05,1.186,7.249,7.249,0,0,0,.3,1.34c2.638,2.1,21.716-.044,25.5-2.494s10.181-6.733,10.666-8.886a2.793,2.793,0,0,0-.381-1.844,8.013,8.013,0,0,0-.521-.891,17.929,17.929,0,0,0-4.331-4.509c-1.428-.87-2.263-.136-2.263-.136l.461.939s-.187,4.74-5.519,3.283c-5.435-1.486-7.852-.451-8.88,1.54-1.444,2.789-1.894,3.718-7.2,4.361C592.447,1193.287,590.47,1196.083,590.331,1198.68Z" transform="translate(-590.323 -1158.024)"/><path class="l" d="M590.393,1201.036a7.256,7.256,0,0,0,.3,1.34c2.638,2.1,21.716-.044,25.5-2.494s10.181-6.733,10.666-8.886a2.793,2.793,0,0,0-.381-1.844c-.055.272-.7,2.689-8.639,7.806-8.487,5.463-21.2,5.343-23.509,4.93C592.651,1201.59,591.184,1201.254,590.393,1201.036Z" transform="translate(-590.335 -1159.194)"/></g><path class="q" d="M583.528,1107.485a3.424,3.424,0,0,0,.281.695l.133.236c1.951,3.12,9.995,24.694,13.854,36.094,1.656,4.953,5.412,18.719,5.929,21.912.118.74.355,1.538,1.02,1.094,1.124-.769,2.706-1.271,4.821-2.5a10.042,10.042,0,0,1,4.036-1.286,7.619,7.619,0,0,1,2.084-.03c3.031.547,2.1-2.6,1.671-3.652-.429-1.02-6.284-26.024-9.478-35.074-5.263-14.889-9.492-17.447-12.494-23.3a26.194,26.194,0,0,1-1.7-4.17v-.015c-.428-1.316-.916-1.922-1.434-2.07-1.035-.281-2.174,1.4-2.957,2.913a22.108,22.108,0,0,0-1.005,2.173C586.456,1101.63,582.76,1104.631,583.528,1107.485Z" transform="translate(-582.177 -1018.457)"/><path class="q" d="M581.933,1086.948v.059a7.392,7.392,0,0,0,1.345,5.027,2.883,2.883,0,0,0,2.4,1.2c1.449-.1,2.868.3,4.317-.162,1.2-.37,2.41-1.346,3.7-3.667a25.612,25.612,0,0,0,1.449-3.179c.326-.858.665-1.8,1.006-2.869.073-.236.147-.5.236-.754v-.015c3.045-9.433,10.5-35.442,15.983-49.311.236-.606.473-1.183.7-1.745,1.478-3.563,2.78-6.077,3.77-6.934a1.366,1.366,0,0,1,.3-.237c2.853-1.775-2.411-11.43-9.715-17.122-4.3-3.372-9.315-5.353-13.81-3.549,0,0-3.061,12.539-5.973,28.464-1.3,7.171-2.588,15.037-3.549,22.755C582.553,1067.15,582.051,1082.586,581.933,1086.948Z" transform="translate(-581.926 -1003.007)"/></g><path class="j" d="M598.443,976.268l4.668,1.35,25.746,7.47s10.516.724,16.2-4.235a10.07,10.07,0,0,0,2.317-2.87c4.321-8.062-2-41.6-2-41.6-3.5-3.59-38.483-4.86-38.483-4.86L600.6,964.848l-.7,3.665Z" transform="translate(-4.159 -30.584)"/><path class="g" d="M599.142,969.615l.879,2.5,3.208,9.105,25.746,7.47s10.516.724,16.2-4.235l-5.349,1.093-1.29-12.136,5.957-12.29,1.912-5.31-24.869-2.753-20.818,15.391Z" transform="translate(-4.276 -34.186)"/><g transform="translate(586.228 955.523)"><g transform="translate(26.293 135.357)"><path class="o" d="M625.577,1159.61c.541.532.765,16.577-.636,20.765a6.389,6.389,0,0,0-.4,2.809,9.164,9.164,0,0,1-1.257,6.055s3.132,4.835,13.763,3.443c4.752-.622-1-5.3-1.257-8.016s-2.016-15.612-2.016-15.612Z" transform="translate(-620.836 -1159.61)"/><path class="j" d="M620.861,1200.763c1.442,1.854,7.834,5.224,12.4,5.865,4.564.657,14.123,1.155,16.977-.714a7.148,7.148,0,0,0,.571-2.612c.083-2.753-1.512-5.459-5.314-7.212-5-2.3-5.562-3.741-8.168-5.775-1.857-1.452-4.283-1.216-9.229,1.455-4.93,2.671-4.245-.538-4.245-.538l-.022-1.109s-.734-.15-1.618,1.328a18.967,18.967,0,0,0-1.811,6.278A4.382,4.382,0,0,0,620.861,1200.763Z" transform="translate(-620.344 -1164.598)"/><path class="l" d="M620.861,1202.43c1.442,1.854,7.834,5.224,12.4,5.865,4.564.657,14.123,1.155,16.977-.714a7.147,7.147,0,0,0,.571-2.611s-6.275,2.328-16.551.867c-11.17-1.588-13.486-6.012-13.855-6.441A4.382,4.382,0,0,0,620.861,1202.43Z" transform="translate(-620.344 -1166.264)"/></g><path class="q" d="M623.865,1166.317c1.3.015,1.375-.37,4.539-1.079a9.446,9.446,0,0,1,3.83.207c.488.1.961.222,1.4.341,1.553.429,2.854.458,3.445-.8-1.39-13.914,5.427-37.765,3.919-60.5a153.238,153.238,0,0,1-.163-18.1v-.236c.1-1.434.222-2.751.341-3.918.014-.03,0-.059,0-.089a1.47,1.47,0,0,0,.044-.266.015.015,0,0,0-.015-.015c-.709-1.8-2.159-.562-3.8.99-.148.133-.311.281-.458.429-1.479,1.376-3.061,2.78-4.392,2.455-3.134-.754-7.422-7.689-7.422-1.39v.029c.044,16.664-1.257,20.966-1.493,31.76s1.227,32.885.547,41.609C623.525,1166.45,623.348,1165.312,623.865,1166.317Z" transform="translate(-594.589 -1011.101)"/><path class="q" d="M613.25,1020.261q.732,2.019,1.685,4.3a53.951,53.951,0,0,1,2.336,7.718c2.587,10.7,4.85,27.088,5.811,38.029v.029c.488,5.544.9,9.641,1.331,10.794,1.4,3.8,5.294,5.4,9.847,3.888a7.317,7.317,0,0,0,.74-.266c.118-.045.221-.1.34-.148,1.76-.739,2.766-5.515,3.445-12.257v-.236c.133-1.243.237-2.558.341-3.918.014-.03,0-.059,0-.089a.873.873,0,0,0,.029-.281c.917-12.257,2.854-28.788,4.125-40.292,1.3-11.71-.932-18.526-1.567-22.267a14.727,14.727,0,0,0-.991-3.712c-2.366-6.047-16.294-5.766-23.805-.458a13.4,13.4,0,0,0-4.6,5.146C610.574,1009.911,611.136,1014.361,613.25,1020.261Z" transform="translate(-592.535 -997.069)"/></g><path class="o" d="M629.795,903.765s8.523,4.9,11.3,6.005c0,0-8.749,19.822-21.359,19.822s-16.622-20.238-16.622-20.238l12.06-5.589Z" transform="translate(-4.94 -25.942)"/><path class="h" d="M595.693,967.506c-1.287,8.207-3.12,17.654-2.869,27.5.473.251.947.5,1.435.77,4.569,2.454,9.788,5.145,22.666,5.367q3.039.066,6.7-.089a28.826,28.826,0,0,1,3.474.163c3.992.355,8.4.843,9.611-2.766a97.091,97.091,0,0,1-6.358-34.614c.3-19.739,3.46-26.821,6.24-33.712,3.43-8.5,4.406-19.429,4.406-19.429l-5.811-3.149c-.724-.561-.99-.177-1.242.045-1.775,1.523-8.871,7.068-18.615,6.949-11.222-.148-9.8-7.556-9.8-7.556s-5.027,2.706-8.4,5.056a2.969,2.969,0,0,0-1.242,2.972,28.9,28.9,0,0,1,.665,6.4c-.266,2.144-7.157,14.5-1.893,24.781.1.236.237.488.37.724C597.793,951.759,597.038,958.945,595.693,967.506Z" transform="translate(-3.196 -26.481)"/><path class="r" d="M594.611,1011.959c.059-.843.192-2.957.355-5.825C594.744,1008.958,594.641,1011.1,594.611,1011.959Z" transform="translate(-3.519 -43.062)"/><path class="s" d="M584.73,935.022c.576,9.256,6.683,22.534,6.683,22.534l1.553-11.311s-1.967-8.339-1.287-12.524a3.339,3.339,0,0,0,.029-.37c.192-3.726-7.082-2.321-7.082-2.321A22.224,22.224,0,0,0,584.73,935.022Z" transform="translate(-1.843 -30.458)"/><path class="s" d="M626.5,947.725c.118,24.441,8.339,95.28,8.339,95.28a35.367,35.367,0,0,0,9,.621,28.813,28.813,0,0,0,10.172-2.322s-9.078-48.128-11.651-62.219c-1.833-10.01,3.652-33.194,6.461-48.142,1.153-6.122,1.863-10.853,1.435-12.76-1.464-6.55-1.819-7.275-10.705-11.355C639.556,906.828,626.336,915.818,626.5,947.725Z" transform="translate(-8.852 -26.454)"/><path class="f" d="M634.838,952.111l5.2,16.4a201.142,201.142,0,0,0,1.523,31.066c2.144,15.658,5.973,45.141,5.973,45.141l-2.38,3.756a28.81,28.81,0,0,0,10.172-2.322s-9.078-48.128-11.651-62.219c-1.833-10.01,3.652-33.194,6.461-48.142H645.47l-11.1,11.474,1.079,2.913Z" transform="translate(-10.167 -31.297)"/><path class="j" d="M646.194,909.606s.052-.381-.152-.474a17.754,17.754,0,0,1-2.9-1.52.272.272,0,0,0-.336.016c-1.365,1.138-10.582,9.433-8.953,24.743,1.758,16.524,10.832,30.089,10.832,30.089l1.167-5s-6.472-16.309-7.218-27.921C638.277,924.01,639.625,913.667,646.194,909.606Z" transform="translate(-10.049 -26.577)"/><path class="t" d="M607.584,906.242a2.564,2.564,0,0,0-.828.5C607.214,906.464,607.48,906.3,607.584,906.242Z" transform="translate(-5.55 -26.356)"/><path class="s" d="M574.725,1028.977a29.419,29.419,0,0,0,9.714,2.972,18.1,18.1,0,0,0,3.416.133c1.123-16.205,9.876-73.116,5.707-93.432.71-23.524,5.619-30.016,7.733-31.716a87.217,87.217,0,0,0-7.171,5.1c-5.146,3.992-3.224,15.525-4.45,24.234s1.064,19.473-.177,27.473C588.239,971.756,574.725,1028.977,574.725,1028.977Z" transform="translate(-0.193 -26.472)"/><path class="j" d="M592.154,927.61a1.985,1.985,0,0,1,.813,1.8,3.324,3.324,0,0,1-.029.37,18.466,18.466,0,0,0-.03,4.451c.947-4.362,3.179-14.609,3.889-17.226a14.965,14.965,0,0,1,5.767-9.02s.369-.843-.4-.754-2.218.976-2.868,1.094-4.821,2.558-6.24,9.552A39.623,39.623,0,0,0,592.154,927.61Z" transform="translate(-3.102 -26.521)"/><path class="g" d="M573.6,912.163c.577,12.236,3.216,18.485,3.216,18.485s-2.639-15.418,1.006-25.032c3.281-8.674,9.284-18.782,12.665-26.005.379-.774.709-1.516,1.005-2.226a53.524,53.524,0,0,0,2.194-6.844c1.864-6.992,3.413-16.127,3.463-21.849a17.2,17.2,0,0,0-.247-3.463c-.4-1.946.825-3.4,2.656-4.618a31.086,31.086,0,0,1,3.841-2.094,33.05,33.05,0,0,0,4.848-2.6h.017c1.2-.891,2-1.864,2-3.035a28.679,28.679,0,0,0,4.139,3.743,21.237,21.237,0,0,0,3.1,1.9,11.715,11.715,0,0,0,4.832,1.336c1.583.05,2.8,1.319,3.776,3.3a41.366,41.366,0,0,1,2.573,8.245c1.138,5.012,2.094,10.372,3.644,13.043.313.527.66,1.072,1.022,1.583,1.534,2.275,3.43,4.452,5.178,6.662,2.227,2.836,4.255,5.739,5.062,9.07,1.6,6.546-2.622,18.634,0,23.861,2.622,5.244,12.2,19.491,4.518,29.665.545-.495,10.653-10.059,6.679-22.377-4.073-12.664,0-24.9-2.622-35.52a46.542,46.542,0,0,0-4.485-11,69.3,69.3,0,0,1-3.974-8.146,15.58,15.58,0,0,1-1.039-5.392,41.483,41.483,0,0,0-2.622-14.907c-.544-1.434-1.187-2.919-1.946-4.452a60.684,60.684,0,0,0-5.111-8.443c-.2-.28-.4-.56-.61-.858a14.43,14.43,0,0,0-4.3-3.957c-7.207-4.337-16.26-1.187-16.26-1.187a18.123,18.123,0,0,0-8.806-.2,11.744,11.744,0,0,0-5.788,3.331,10.04,10.04,0,0,0-.94,1.088,27,27,0,0,0-4.337,8.92,40.415,40.415,0,0,0-1.237,5.838c-1.369,9.465-.3,19.739-1.946,27.836a24.186,24.186,0,0,1-1.632,5.194c-.841,1.847-1.748,3.777-2.672,5.772C579.144,888.285,573.092,901.757,573.6,912.163Z" transform="translate(0 -11.588)"/><path class="s" d="M647.3,933.507c4.229,4.835,13.514,33.135,19.517,32.884a9.085,9.085,0,0,0,2.233-.37c4.6-1.42,6.845-6.743,2.2-15.807-5.072-9.876-12.686-28.108-19.651-36.905l-.014-.015q-.577-.732-1.153-1.375C646.326,907.336,643.074,928.687,647.3,933.507Z" transform="translate(-12 -27.198)"/><path class="f" d="M652.866,913.717c.074.162.177.355.281.547a100.709,100.709,0,0,1,10.572,33.313l2.528,11.385,4.066,7.467c4.6-1.42,6.845-6.743,2.2-15.807C667.445,940.746,659.83,922.514,652.866,913.717Z" transform="translate(-13.261 -27.606)"/><path class="o" d="M629.971,937.359c.266,3.563,3.652,8.088,3.652,8.088l5.309,5.308,6.165-7.215a30.644,30.644,0,0,1-4.14-3.756c-.074-.68-.162-1.316-.266-1.863-.547-2.839.873-6.476,0-7.5s-.917-3.46-1.2-4.392a.94.94,0,0,0-1.064-.769,37.771,37.771,0,0,0-.459,4.791c-.8-.089-4.347-4.318-4.347-4.318s-.606-1.242-1.537-.621c-.947.621-.547,4.244-.547,4.244C630.665,930.321,629.7,933.8,629.971,937.359Z" transform="translate(-9.425 -29.484)"/><path class="s" d="M636.034,952.577c.606.71,1.464,1.641,2.514,2.736,6.018,6.3,18.142,17.7,23.923,17.7,6.787,0,7.9-3.415,7.9-3.415a10.017,10.017,0,0,0,.71-6.314c-.932-4.347-4.762-8.176-10.173-10.793-7.91-3.83-17.137-9.4-17.137-9.4a6.229,6.229,0,0,1-.488,1.08,29.054,29.054,0,0,1-5.825,7.141C636.611,952.1,636.034,952.577,636.034,952.577Z" transform="translate(-10.446 -32.518)"/><path class="f" d="M639.053,957.768c6.018,6.3,18.142,17.7,23.923,17.7,6.787,0,7.9-3.415,7.9-3.415a10.017,10.017,0,0,0,.71-6.314c-.621,3.712-2.884,9.182-11.031,5.944C648.708,966.98,639.053,957.768,639.053,957.768Z" transform="translate(-10.951 -34.973)"/><path class="u" d="M644.806,959.8a1.052,1.052,0,1,0,1.2-.882A1.052,1.052,0,0,0,644.806,959.8Z" transform="translate(-11.911 -35.164)"/><path class="u" d="M640.146,955.024a1.052,1.052,0,1,0,1.2-.882A1.051,1.051,0,0,0,640.146,955.024Z" transform="translate(-11.132 -34.365)"/><path class="f" d="M584.633,931.029a7.948,7.948,0,0,0,1.463,1.331,7.249,7.249,0,0,0,2.81,1.212,5.567,5.567,0,0,0,2.011.059,2.589,2.589,0,0,0,.8-.281,1.915,1.915,0,0,0-.62-1.626c-1.065-.99-3.239-1.02-4.776-.917A14.489,14.489,0,0,0,584.633,931.029Z" transform="translate(-1.85 -30.458)"/><path class="v" d="M597.416,916.545s-.5-2.088-2.153-2.174-5.131,5.218-5.654,6.871-1.479,6,0,6.172,5.332-3.7,5.332-3.7l-.594,2.652a3.325,3.325,0,0,0,1.959-3.189,1.87,1.87,0,0,0,1.109-1.846s1.674-1.237.891-2.14S598.612,917.328,597.416,916.545Z" transform="translate(-2.55 -27.715)"/><path class="o" d="M586.39,931a7.25,7.25,0,0,0,2.81,1.212,5.566,5.566,0,0,0,2.011.059l.177-1.908.591-6.077-2.78-1.656a43.578,43.578,0,0,0-2.587,6.816A7.784,7.784,0,0,0,586.39,931Z" transform="translate(-2.144 -29.097)"/><path class="f" d="M586.39,1038.319a18.1,18.1,0,0,0,3.416.133c1.123-16.205,9.876-73.116,5.707-93.432,0,0-.769,26.659-2.277,42.361S586.39,1038.319,586.39,1038.319Z" transform="translate(-2.144 -32.841)"/></g></g></svg>