<svg xmlns="http://www.w3.org/2000/svg" xmlns:xlink="http://www.w3.org/1999/xlink" width="361.412" height="458.726" viewBox="0 0 361.412 458.726"><defs><style>.a{fill:url(#a);}.b{fill:#f7d0cb;}.c{fill:#3f79ff;}.d{fill:#6ca4ff;}.e{fill:#1f4cdb;}.f{fill:#eabbbb;}.g{fill:#0f3872;}</style><linearGradient id="a" x1="0.5" y1="-0.38" x2="0.5" y2="1.018" gradientUnits="objectBoundingBox"><stop offset="0" stop-color="#fff"/><stop offset="1" stop-color="#d8edff"/></linearGradient></defs><g transform="translate(-148.858 -1441.075)"><path class="a" d="M487.979,1759.277c-9.391,31.337-26.864,62.284-54.453,80.955a149.544,149.544,0,0,1-34.834,17.807c-17.975,6.3-36.409,8.556-58.382,9.684-30.724,1.575-62.089,3.678-92.13-1.77a162.981,162.981,0,0,1-19.27-4.668c-24.719-7.636-42.484-20.483-54.871-36.7-32.7-42.832-27.589-104.113-17.668-153.787,9.837-49.242,23.98-110.383,70.6-137.875a102.348,102.348,0,0,1,29.149-11.384c1.811-.418,3.651-.794,5.49-1.115a5.646,5.646,0,0,1,.669-.125c2.132-.39,4.292-.711,6.451-.989a1.219,1.219,0,0,0,.237-.028c.766-.1,1.533-.181,2.285-.251.432-.056.864-.1,1.282-.139.906-.1,1.811-.167,2.717-.237.432-.042.864-.069,1.3-.1a.209.209,0,0,1,.1-.014c1.7-.125,3.4-.209,5.114-.265,1.8-.07,3.595-.111,5.392-.111,2.1-.014,4.208.028,6.3.1q6.27.209,12.5.739c6.061.5,12.108,1.226,18.086,2.16a3.63,3.63,0,0,1,.376.069q8.757,1.359,17.348,3.358a.235.235,0,0,1,.1.014c.585.139,1.17.265,1.756.418q5.267,1.254,10.436,2.731c.878.251,1.756.515,2.62.78,40.519,12.094,76.984,34.737,102.761,67.69a176.624,176.624,0,0,1,23.91,40.826,182.538,182.538,0,0,1,7.831,22.782C500,1692.242,497.621,1727.09,487.979,1759.277Z" transform="translate(0 30.326)"/><g transform="translate(207.345 1441.075)"><path class="b" d="M380.605,1584.385s2-18.687.908-26.048-8.377-28.292-8.377-28.292,8.674-6.417,11.4,8.548l5.918,7.732s15.905-35.334,19.69-33.1c5.724,3.387,15.794,13.01,10.323,31.412s-27.828,47.719-27.828,47.719Z" transform="translate(-119.12 -1412.731)"/><path class="c" d="M413.834,1554.583l18.6,11.656s-11.206,181.472-60.472,147.8c-2.034-1.392-47.3-48.7-47.3-48.7l-30.431-110.252s63.743,81.536,81.8,118.342C376.022,1673.427,407.269,1554.583,413.834,1554.583Z" transform="translate(-150.161 -1396.423)"/><path class="d" d="M259.114,1557.1l-31.348,13.272s5.71,86.176,3.64,161.193c-1.575,57.041-12.9,111.194-11.487,111.9,3.283,1.642,151.805-11.487,151.805-11.487s-16.056-32.463-22.694-99.108c-1.006-10.109,7.311-70.034,5.221-78.9-15.864-67.286-30.165-99.778-30.165-99.778l-36.451-.309Z" transform="translate(-179.44 -1396.696)"/><path class="e" d="M370.651,1766.893c-17.975,6.3-36.409,8.556-58.382,9.684-30.724,1.575-62.089,3.678-92.13-1.769l.516-8.318.028-.488s145.9-19.271,147.238-15.69a35.566,35.566,0,0,1,1.365,4.779A70.207,70.207,0,0,1,370.651,1766.893Z" transform="translate(-179.305 -1319.602)"/><path class="b" d="M284.281,1685.755s16.411-31.284,19.284-29.9-5.334,18.863-5.334,18.863,36.105-4.6,36.105,4.14S345,1702.778,308.488,1708.3s-42.669,4.14-42.669,4.14l.411-20.241Z" transform="translate(-161.336 -1356.604)"/><path class="c" d="M238.6,1565.52c11.614-8.813-.52,81.113,6.382,156.05l63.463-7.884,11.488,37.725s-66.79,21.829-101.056,1.484C200.313,1741.873,157.365,1627.169,238.6,1565.52Z" transform="translate(-190.833 -1392.356)"/><g transform="translate(26.917 0)"><g transform="translate(0)"><path class="b" d="M265.01,1593.412h0c-16.162.7-19.167-18.655-19.817-26.241l-.776-42.072,42.845-9.272-3.545,50.942C282.661,1581.935,274.6,1593.412,265.01,1593.412Z" transform="translate(-196.672 -1411.668)"/><path class="f" d="M240.506,1515.811l48.47,34.419-3.6,14.778s-11.182,5.505-30.8-15.287c-15.508-16.435-14.066-24.614-14.066-24.614v-9.3Z" transform="translate(-198.224 -1411.985)"/><path class="g" d="M291.572,1465.96s8.629,23.558,5.792,34.43l-2.836,10.873s-7.248-32.46-7.248-32.932S291.572,1465.96,291.572,1465.96Z" transform="translate(-179.81 -1431.285)"/><circle class="b" cx="50.464" cy="50.464" r="50.464" transform="translate(0 38.623) rotate(-22.5)"/><path class="b" d="M320.212,1491.7c0,20.321-10.779,70.919-28.931,72.634-27.745,2.62-73.5-42.761-63.659-65.792,7.984-18.687,37.471-7.794,55.7-7.794S320.212,1471.379,320.212,1491.7Z" transform="translate(-203.814 -1424.812)"/><path class="g" d="M312.461,1475.819c0,11.2-8.33,15.8-27.89,15.8-1.251,0-2.542-.039-3.858-.116-19.282-1.127-44.6-10.275-44.6-20.763,0-11.2,15.857-20.286,35.418-20.286S312.461,1464.614,312.461,1475.819Z" transform="translate(-199.939 -1437.386)"/><path class="g" d="M262.06,1452.838a50.485,50.485,0,0,0-40.625,44.5c2.273,14.04,13.434,30.371,27.32,30.445,4.661.025-4.531-27.069,20.522-40.479C282.027,1480.48,276.229,1455.654,262.06,1452.838Z" transform="translate(-205.712 -1436.447)"/><path class="g" d="M252.513,1497.566c-6.153-9.628-23.541-17.573-29.767-17.573,0,.049-3,18.4-1.269,28.68a39.885,39.885,0,0,0,3.928,12.244h0s6.635,14.02,10.861,16.644,8.813-7.248,8.813-7.248l.687-5.8c3.51-3.684,5.774-9.4,5.774-15.836C251.541,1505.893,252.513,1497.566,252.513,1497.566Z" transform="translate(-205.908 -1425.765)"/><path class="b" d="M241.339,1499.092c0,7.8-3.44,14.122-7.682,14.122s-7.682-6.323-7.682-14.122,3.439-14.123,7.682-14.123S241.339,1491.292,241.339,1499.092Z" transform="translate(-203.926 -1423.807)"/><path class="b" d="M236.754,1515.555l-1.335-1.626-5-6.086,7.987-9.9s0,10.873,4.845,12.763a32.256,32.256,0,0,1,9.219,6.2l-8.915,9.3-6.972,7.091Z" transform="translate(-202.177 -1418.703)"/><path class="g" d="M298.234,1496.629s24.041,10.035,17.837,92.257c0,0,28.691-71.486,12.075-98.073,0,0,10.732-42.014-37.461-39.605-11.487.575-38.038-2.792-49.394,4.021-11.486,6.892-46.433,65.581-3.468,93.787,0,0,8.9,28.206,15.546,39.838C253.368,1588.854,254.2,1511.584,298.234,1496.629Z" transform="translate(-207.464 -1437.22)"/></g></g><path class="g" d="M253.452,1531.655l-2.755,25.314s11.431,35.493,3.811,54.173c0,0,6.669,26.154-3.811,42.966,0,0,9.527,46.7-3.809,65.381,0,0-11.431-28.021-2.858-63.514,0,0-11.431-24.284-2.858-41.1,0,0-5.83-13.888-3.925-40.04,0,0-15.671-47.741-10.337-60.754,1.894-4.621,13.31-1.949,13.31-1.949Z" transform="translate(-177.078 -1413.423)"/><path class="g" d="M283.764,1562.812s-1.312,16.1,1.545,25.1c0,0-9.527,18.013,0,33.026,0,0-11.431,21.016,2.858,33.026,0,0-11.431,51.041,1.9,57.045,5.792,2.608,6.667-36.029,2.858-54.042,0,0,11.431-30.024,1.9-39.031,0,0,11.431-25.52,1.9-33.026,0,0,8.573-12.01,9.526-49.539s-12.738-15.1-12.738-15.1-2.026,7.963-8.847,21.225c-1.335,2.594-7.768,8.714-7.768,8.714Z" transform="translate(-156.972 -1412.535)"/></g></g></svg>