<svg xmlns="http://www.w3.org/2000/svg" xmlns:xlink="http://www.w3.org/1999/xlink" width="385.693" height="458.726" viewBox="0 0 385.693 458.726"><defs><linearGradient id="a" x1="0.5" y1="-0.38" x2="0.5" y2="1.018" gradientUnits="objectBoundingBox"><stop offset="0" stop-color="#fff"/><stop offset="1" stop-color="#d8edff"/></linearGradient></defs><g transform="translate(-579 -1553)"><g transform="translate(579 1553)"><path d="M501.076,1316c-3.713,17.793-13.241,35.283-23,50.352a287.616,287.616,0,0,1-87.485,86.287q-11.285,7.129-23.192,13.178a230.152,230.152,0,0,1-24.173,10.613q-5.941,2.206-12.027,4.048-3.988,1.21-8.025,2.244c-16.172,4.137-32.83,6.077-49.193,4.808a120.379,120.379,0,0,1-13.824-1.885,108.5,108.5,0,0,1-26.945-9.048,113.748,113.748,0,0,1-31.784-23.534c-16.387-16.979-28.414-38.341-38.341-59.775-17.409-37.573-37.494-79.972-33.005-122.5,5.046-47.875,43.387-83.149,84.554-102.971a254.341,254.341,0,0,1,38.316-14.749,246.064,246.064,0,0,1,33.9-7.476c23.911-3.521,48.268-3.338,71.4,1.558,1.765.375,3.514.774,5.263,1.214a159.946,159.946,0,0,1,19.853,6.388c40.744,16.084,75.875,48.49,98.809,84.81a149.387,149.387,0,0,1,14.1,28.175c.382,1.046.758,2.1,1.109,3.156q1.127,3.352,2.029,6.771a95.794,95.794,0,0,1,2.435,12.132A77.968,77.968,0,0,1,501.076,1316Z" transform="translate(-129.444 -1029.186)" fill="url(#a)"/><g transform="translate(110.227)"><path d="M235.95,1118.208l-5.754,14.911s-9.518,77.943-16.849,99.324,5.536,45.875,33.025,45.875,81.156-29.992,97.983-26.327,10.792-132.693,3.461-151.629-60.552-18.194-60.552-18.194Z" transform="translate(-211.316 -1050.318)" fill="#223d72"/><path d="M320.652,1193.927l-3.323-5.92-21.124-4.071s-28.957-1.987-36.162.506-18.773,5.036-18.773,5.036l9.737,11.371Z" transform="translate(-200.943 -1015.331)" fill="#93a4e0"/><path d="M299.454,1175.872c-.99,14.2-3.245,29.234-3.245,29.234-18.671,17.6-48.182-1.939-41.021-12.066,3.045-4.311,5.38-12.3,7-20.056,2.216-10.364,3.2-20.293,3.2-20.293s28.877-8.821,33.11,0C300.244,1156.33,300.165,1165.9,299.454,1175.872Z" transform="translate(-196.503 -1027.25)" fill="#f7d0cb"/><path d="M297.371,1175.872s-13.292,13.094-25.713,7.041a32.114,32.114,0,0,1-11.551-9.929c2.216-10.364,3.2-20.293,3.2-20.293s28.877-8.821,33.11,0C298.161,1156.33,298.082,1165.9,297.371,1175.872Z" transform="translate(-194.42 -1027.25)" fill="#eabbbb"/><path d="M235.206,1111.622c1.523,23.309,15.184,87.838,50.354,89.575,15.508.765,33.738-4.316,45.417-38.186s0-72.412,0-72.412-44.381-28.03-64.236-15.182S232.871,1075.859,235.206,1111.622Z" transform="translate(-203.131 -1053.821)" fill="#f7d0cb"/><g transform="translate(54.202 65.278)"><g transform="translate(0 0.353)"><path d="M253.446,1118.414a1.873,1.873,0,0,1-1.474-3.022c.341-.429,8.39-10.485,20.867-7.623a1.871,1.871,0,1,1-.84,3.647c-10.134-2.349-16.8,5.932-17.079,6.285A1.874,1.874,0,0,1,253.446,1118.414Z" transform="translate(-251.576 -1107.257)" fill="#223d72"/></g><g transform="translate(47.637)"><path d="M308.4,1116.527a1.866,1.866,0,0,1-1.379-.607c-7.032-7.657-17.207-4.618-17.638-4.486a1.871,1.871,0,0,1-1.12-3.57c.522-.161,12.857-3.91,21.514,5.528a1.871,1.871,0,0,1-1.377,3.135Z" transform="translate(-286.959 -1106.995)" fill="#223d72"/></g><ellipse cx="3.219" cy="5.901" rx="3.219" ry="5.901" transform="translate(9.327 15.521)" fill="#223d72"/><path d="M296.816,1124.425c0,3.258-1.441,5.9-3.219,5.9s-3.218-2.641-3.218-5.9,1.441-5.9,3.218-5.9S296.816,1121.166,296.816,1124.425Z" transform="translate(-238.138 -1103.002)" fill="#223d72"/><g transform="translate(29.421 55.978)"><path d="M274.365,1157.551a.936.936,0,0,1-.017-1.871c12.522-.225,18.858-6.749,18.921-6.815a.936.936,0,0,1,1.361,1.286c-.276.292-6.893,7.161-20.249,7.4Z" transform="translate(-273.429 -1148.573)" fill="#9b2f43"/></g><path d="M273.57,1139.851s1.54,1.494,5.614,1.494,5.613-2.264,5.613-2.264-2.091,4.3-5.613,4.522S273.57,1139.851,273.57,1139.851Z" transform="translate(-243.959 -1095.883)" fill="#ddada8"/></g><path d="M341.914,1384.255q-11.285,7.129-23.192,13.178a230.146,230.146,0,0,1-24.173,10.613q-5.941,2.206-12.027,4.048c-1.134-2.842-2.228-5.47-3.29-7.826-2.539-5.661-4.847-9.766-6.764-11.683a6.185,6.185,0,0,0-.751-.671c-3.122-2.252-1.8-8.273,2.388-15.437.168-.28.335-.567.512-.855a77.584,77.584,0,0,1,7.17-9.774,91.709,91.709,0,0,1,17.281-15.709c11.78-8.129,25.26-12.585,36.648-7.067,0,0,1.134,6.62,2.811,17.665C339.51,1367.2,340.676,1375.191,341.914,1384.255Z" transform="translate(-190.994 -960.806)" fill="#3f79ff"/><path d="M345.368,1328.631l-12.342,1.939-68.081,10.76s-27.057-1.543-39.953-16.021a25.849,25.849,0,0,1-4.984-8.07c-8.427-21.954,18.513-105.461,18.513-105.461,10.087-8.031,99.726,0,99.726,0l5.3,87.028.594,9.574Z" transform="translate(-208.872 -1006.665)" fill="#3f79ff"/><path d="M345.486,1291.06l-3.047,6.092-11.115,22.191-68.081,10.76s-27.057-1.543-39.953-16.021l13.291,4.51,7.2-30.539-11.235-33.269-3.164-14.162,64.322.99,48.142,45.966Z" transform="translate(-207.17 -995.439)" fill="#325cff"/><path d="M293.913,1397.106q-5.941,2.205-12.027,4.048c-1.134-2.842-2.228-5.47-3.29-7.826-2.539-5.661-4.847-9.766-6.764-11.683l13.592-9.431s.847,2.427,2.308,6.676C289.233,1383.258,291.382,1389.552,293.913,1397.106Z" transform="translate(-190.359 -949.867)" fill="#325cff"/><path d="M312.221,1378.889a135.631,135.631,0,0,1-8.8,15.429c-1.94,3.051-4.065,6.268-6.333,9.679q-1.377,2.084-2.8,4.759c-1.55,2.9-3.138,6.293-4.735,10.07-16.172,4.137-32.83,6.077-49.193,4.808a120.324,120.324,0,0,1-13.824-1.885c.615-7.914,1.19-15.429,1.725-22.257a151.363,151.363,0,0,1,5.4-30.657c3.362-11.652,7.276-19.43,9.28-24.8,2.45-6.532,4.272-8.9,4.272-8.9,8.9-14.159,43.947-6.724,60.366,10.286a33.721,33.721,0,0,1,6.547,9.216C317.6,1362.2,316.438,1369.84,312.221,1378.889Z" transform="translate(-206.047 -965.294)" fill="#3f79ff"/><path d="M301.919,1375.893s-5.334.368-12.762.863c-15.189,1.006-39.155,2.539-44.282,2.539,0,0-1.836,17.147-4.52,40.13a120.35,120.35,0,0,1-13.824-1.885c.615-7.914,1.19-15.429,1.725-22.257a151.36,151.36,0,0,1,5.4-30.657c3.362-11.652,7.276-19.43,9.28-24.8l44.585,8.385,9.319,17.921,4.911,9.439Z" transform="translate(-206.047 -961.085)" fill="#325cff"/><path d="M262.377,1181.652s-21.917,12.589-29.044,15.439c0,0,22.494,50.964,54.915,50.964s42.735-52.033,42.735-52.033l-31.006-14.371Z" transform="translate(-203.692 -1015.862)" fill="#f7d0cb"/><path d="M330.836,1227.871s3.554,1.513,4.9,4.178-5.571,10.667-11.131,10.482-11.444-3.918-8.945-8.53S330.836,1227.871,330.836,1227.871Z" transform="translate(-175.383 -999.856)" fill="#73a7e0"/><path d="M326.032,1297.4a47.028,47.028,0,0,1-5.182-11.076,193.77,193.77,0,0,1-4.431-20.214c-4.312-25.279-7-60.881,4.351-62.424,0,0,4.945,14,10.6,32.557.792,2.611,1.622,5.262,2.414,8.031,6.29,21.281,12.738,46.323,13.885,62.937C351.823,1326.122,335.367,1312.752,326.032,1297.4Z" transform="translate(-176.204 -1008.23)" fill="#f7d0cb"/><path d="M338.328,1304.7c-7.061-5.889-13.252-15.114-13.252-15.114a47.029,47.029,0,0,1-5.182-11.076,193.856,193.856,0,0,1-4.431-20.214l5.657-29.867h9.3c.792,2.611,1.622,5.262,2.414,8.031,0,0-3.269-3.031-7.473.882.113,18.135,1.431,25.175,3.448,35.268C330.908,1283.138,333.679,1291.78,338.328,1304.7Z" transform="translate(-175.248 -999.662)" fill="#eabbbb"/><path d="M311.526,1195.872s5.369.226,6.589,1.387c9.152,8.7,18.041,29.463,21.355,45.872,0,0-13.811-4.972-26.959,6.407C305.062,1255.984,298.934,1201.13,311.526,1195.872Z" transform="translate(-179.122 -1010.937)" fill="#aed5ff"/><path d="M246.1,1188.239c1.866-1.471,2.566-.477,3.222.088,4.56,3.922,22.8,18.183,47.859,17.874,28.857-.357,25.173-19.433,25.173-19.433s12.944,6.982,21.626,13.016a7.61,7.61,0,0,1,3.158,7.623c-.913,5.012-2.137,12.8-1.694,16.471.681,5.645,19.24,38.816,3.9,65.6-13.938,24.34,6.971,71.926,5.688,123.631-14.645,7.758-28.989,17.576-79.216,15.531-11.4-.464-44.371-5.672-48.481-17.831,0,0,4.039-36.423,24.312-79.819,14.423-30.874-2-66.977-9.15-84.7-8.818-21.871-11.344-49.978-11.344-49.978Z" transform="translate(-205.769 -1014.091)" fill="#aed5ff"/><path d="M303.229,1190.2s-.447-2.327,1.427-1.66,4.987,3.782,6.544,4.45,10.561,9.237,10,27.582c-.572,18.613-3.854,55.3-3.854,55.3l-8.463,2.458s3.759-53.259,3.487-62.157S312.387,1198.759,303.229,1190.2Z" transform="translate(-179.501 -1013.517)" fill="#223d72"/><path d="M334.25,1275.606c-1.819,1.661.555,5.063-5.3,8.466a6.394,6.394,0,0,1-3.125.237c-5.341-.435-15.507-2.888-22.628-.237a6.124,6.124,0,0,1-2.135.4,5.149,5.149,0,0,1-4.273-2.808c-2.135-3.521-2.294-9.613.079-13.372a6.518,6.518,0,0,1,3.56-3.006s13.368-7.488,20.887-8.307c9.576-1.042,15.737-3.332,16.688-.128,1.227,4.233-1.575,2.977-2.881,7.8C334.093,1268.367,338.721,1271.453,334.25,1275.606Z" transform="translate(-182.287 -990.39)" fill="#f7d0cb"/><path d="M326.46,1274.639a16.38,16.38,0,0,1-8.386,6.329c-.277.118-.594.238-.949.357-3.719,1.384-11.591,4.311-20.729,7.278l-.039.041c-15.586,5.1-30.4,6.675-39.5,5.37a7.754,7.754,0,0,1-4.114-1.622,11.81,11.81,0,0,1-3.56-6.013,17.964,17.964,0,0,1,.158-8.347,26.692,26.692,0,0,1,2.453-6.488c0,.633,2.948-3.471,9.3-5.458s10.663-2.365,21.621-.98c12.025,1.5,22.469.553,30.222.039,6.25-.435,10.68-.592,12.7,1.029C328.16,1268.192,328.358,1271.514,326.46,1274.639Z" transform="translate(-198.35 -987.247)" fill="#f7d0cb"/><path d="M299.893,1272.619s-7.206-.913-7.5-2.361c12.106-3.56,15.755-12.388,21.3-14.264s6.386-3.127,8.765-5.055,4.114,4.156-.223,7.059-6.427,8.116-8.7,10.019S299.893,1272.619,299.893,1272.619Z" transform="translate(-183.239 -991.995)" fill="#f7d0cb"/><path d="M233.817,1192.947s-.133-.979.389-1.219a45.541,45.541,0,0,0,7.461-3.907.7.7,0,0,1,.863.04c3.508,2.924,27.205,24.255,23.018,63.617-4.521,42.484-7.118,46.728-7.118,46.728l-10.14-17.979s4.969-21.538,4.969-36.031C253.259,1229.95,250.707,1203.386,233.817,1192.947Z" transform="translate(-203.529 -1013.77)" fill="#223d72"/><path d="M227.406,1239.663s-2.409,7.737-.316,11.247,37.651-6.4,34.245-19.075-11.833-11.145-11.833-11.145Z" transform="translate(-206.15 -1002.362)" fill="#73a7e0"/><path d="M269.749,1308.263a.739.739,0,0,0-.079.276c-.831,2.492-1.978,4.351-3.56,5.024-2.888,1.345-7.16-1.226-13.172-10.958-.159-.237-.316-.475-.475-.751a.039.039,0,0,0-.039-.041c-1.463-2.452-3.047-5.3-4.747-8.664-12.976-25.712-17.88-47.509-19.621-62.106-1.5-12.342-.751-19.5-.751-19.5s14.913-2.729,21.044,2.69c.95.831,2.018,2.81,3.165,5.578a174.955,174.955,0,0,1,5.38,16.655v.039c5.024,17.722,10.166,40.349,12.738,46.717a13.649,13.649,0,0,1,.712,2.414C271.648,1291.45,271.767,1301.814,269.749,1308.263Z" transform="translate(-205.845 -1005.749)" fill="#f7d0cb"/><path d="M256.651,1234.161v.039s-11.868-.118-16.456,7.278c0,0-5.419,4.629-5.657,17.8v.079a170.575,170.575,0,0,1-6.725-30.618l21.124-10.8a9.184,9.184,0,0,1,2.335-.436A175,175,0,0,1,256.651,1234.161Z" transform="translate(-205.603 -1003.445)" fill="#eabbbb"/><path d="M240.809,1193.852H233.1s-22.286,12.732-4.446,66.333c3.049-12.4,25.31-29.207,34.245-19.075C262.9,1241.111,258.244,1207.325,240.809,1193.852Z" transform="translate(-207.71 -1011.637)" fill="#aed5ff"/><path d="M342.443,1278.5c-4.925-.435-14.3-2.888-20.864-.237a5.26,5.26,0,0,1-1.97.4c-3.428,1.384-12.1,3.233-20.521,6.2,0,0-29.972,9.878-38.361,8.573-4.21-.331-7.464.456-13.008-9.275,1.349,1.978,3.173,2.69,5.069,3.323a19.323,19.323,0,0,1,4.05,1.7c1.385.909,3.391,1.186,6.309.909,3.83-.316,9.265-1.661,17-3.837,10.832-3.045,26.152-7.278,35.525-10.4,2.3-.792,11.164-2.92,13.716-3.316a74.448,74.448,0,0,1,15.333-.3C345.048,1274.809,343.208,1276.169,342.443,1278.5Z" transform="translate(-198.709 -984.583)" fill="#eabbbb"/><path d="M444.607,1237.046s-3.267-1.1-9.852,5.613c-4.727,4.824-17.215,4.485-18.98,2.936s3.008-3.6,7.247-4.862,8.794-5.236,5.657-5.236-16.727,2.586-21.109,3.428c-2.328.447-7.215,7.157-20.478,15.617-6.672,2.717-17.144,8.55-28.123,13.172-11.033,4.643-15.191,6.942-21.307,12.029-5.115,4.254-6.958,22.84-1.21,25.13a7.743,7.743,0,0,0,4.421.044c8.964-2.032,25.122-13.933,37.856-24.269l.023-.051c8.188-6.607,14.95-12.625,17.518-14.878.424-.374.819-.753,1.19-1.132,2.409-1.971,4.516-3.609,6.282-4.785a7.406,7.406,0,0,1,2.888-1.41c4.382-.842,19.567.353,24.371-.491,3.272-.575,7.833-5.051,10.465-9.56C445.408,1241.589,444.607,1237.046,444.607,1237.046Z" transform="translate(-169.208 -997.214)" fill="#f7d0cb"/><path d="M331.02,1124.692a81.287,81.287,0,0,0,8.464,11.393,30.069,30.069,0,0,1-9.217-1.3h-.039c-3.441-2.808-6.843-6.131-8.031-9.376a54.332,54.332,0,0,0,2.808,7.28,34.061,34.061,0,0,1-10.838-9.021,139.652,139.652,0,0,1-13.529-20.134,102.1,102.1,0,0,1-5.42-11.433,88.189,88.189,0,0,1-5.656,17.564c-4.035,9.336-10.76,19.977-21.164,25.04-.672.317-1.345.633-2.017.91a156.017,156.017,0,0,0,10.64-21.638c3.008-7.359,4.867-13.055,5.143-13.925-3.164,5.459-6.092,10.246-8.782,14.4-8.5,13.252-14.676,20.571-18.869,24.646-14,2.768-29.964,11.615-29.964,11.615s-1.762-19.606,2.273-36.181a101.643,101.643,0,0,1,9.85-25.713c8.584-15.032,22.509-27.808,45.1-29.906,16.378-1.463,39.282.08,52.574,22.865a70.1,70.1,0,0,1,7.635,19.858c2.1,8.822,5.737,20.013,5.7,32.632C342.374,1132.243,334.739,1128.648,331.02,1124.692Z" transform="translate(-206.866 -1058.509)" fill="#223d72"/></g></g></g></svg>