<svg xmlns="http://www.w3.org/2000/svg" width="44.609" height="39.61" viewBox="0 0 44.609 39.61"><path d="M37.517,38.11H7.093A5.648,5.648,0,0,1,1.5,32.441V10.67A5.648,5.648,0,0,1,7.093,5H37.517a5.648,5.648,0,0,1,5.593,5.67V32.554A5.624,5.624,0,0,1,37.517,38.11Z" fill="none" stroke="#fff" stroke-linecap="round" stroke-linejoin="round" stroke-miterlimit="10" stroke-width="3"/><line x2="41.609" transform="translate(1.5 14.711)" stroke-width="3" stroke="#fff" stroke-linecap="round" stroke-linejoin="round" stroke-miterlimit="10" fill="none"/><g transform="translate(13.105 1.5)"><line y2="7" transform="translate(18.4)" stroke-width="3" stroke="#fff" stroke-linecap="round" stroke-linejoin="round" stroke-miterlimit="10" fill="none"/><line y2="7" fill="none" stroke="#fff" stroke-linecap="round" stroke-linejoin="round" stroke-miterlimit="10" stroke-width="3"/></g><g transform="translate(10.705 21.363)"><path d="M8.5,21.1h3.6V18.4" transform="translate(-8.5 -18.4)" fill="none" stroke="#fff" stroke-linecap="round" stroke-linejoin="round" stroke-miterlimit="10" stroke-width="3"/><path d="M18.3,21.1h3.6V18.4" transform="translate(-8.5 -18.4)" fill="none" stroke="#fff" stroke-linecap="round" stroke-linejoin="round" stroke-miterlimit="10" stroke-width="3"/><path d="M28.1,21.1h3.6V18.4" transform="translate(-8.5 -18.4)" fill="none" stroke="#fff" stroke-linecap="round" stroke-linejoin="round" stroke-miterlimit="10" stroke-width="3"/><g transform="translate(0 7.7)"><path d="M8.5,28.8h3.6V26.1" transform="translate(-8.5 -26.1)" fill="none" stroke="#fff" stroke-linecap="round" stroke-linejoin="round" stroke-miterlimit="10" stroke-width="3"/><path d="M18.3,28.8h3.6V26.1" transform="translate(-8.5 -26.1)" fill="none" stroke="#fff" stroke-linecap="round" stroke-linejoin="round" stroke-miterlimit="10" stroke-width="3"/><path d="M28.1,28.8h3.6V26.1" transform="translate(-8.5 -26.1)" fill="none" stroke="#fff" stroke-linecap="round" stroke-linejoin="round" stroke-miterlimit="10" stroke-width="3"/></g></g></svg>