<svg xmlns="http://www.w3.org/2000/svg" width="44.609" height="39.61"><path d="M37.517 38.11H7.093A5.648 5.648 0 011.5 32.441V10.67A5.648 5.648 0 017.093 5h30.424a5.648 5.648 0 015.593 5.67v21.884a5.624 5.624 0 01-5.593 5.556zM1.5 14.711h41.609M31.505 1.5v7m-18.4-7v7" fill="none" stroke="#fff" stroke-linecap="round" stroke-linejoin="round" stroke-miterlimit="10" stroke-width="3"/><path d="M10.705 24.063h3.6v-2.7m6.2 2.7h3.6v-2.7m6.2 2.7h3.6v-2.7m-23.2 10.4h3.6v-2.7m6.2 2.7h3.6v-2.7m6.2 2.7h3.6v-2.7" fill="none" stroke="#fff" stroke-linecap="round" stroke-linejoin="round" stroke-miterlimit="10" stroke-width="3"/></svg>