<svg xmlns="http://www.w3.org/2000/svg" width="45.187" height="46.698" viewBox="0 0 45.187 46.698"><line x2="42.187" transform="translate(1.5 45.198)" stroke-width="3" stroke="#fff" stroke-linecap="round" stroke-linejoin="round" stroke-miterlimit="10" fill="none"/><line y1="28.334" transform="translate(23.916 9.811)" stroke-width="3" stroke="#fff" stroke-linecap="round" stroke-linejoin="round" stroke-miterlimit="10" fill="none"/><path d="M36,19.256a8.287,8.287,0,0,0-5.667-7.808V9.686a8.186,8.186,0,1,0-16.371,0v1.637a8.242,8.242,0,0,0,.756,15.867,8.254,8.254,0,0,0,14.86,0A8.109,8.109,0,0,0,36,19.256Z" transform="translate(1.763 0)" fill="none" stroke="#fff" stroke-linecap="round" stroke-linejoin="round" stroke-miterlimit="10" stroke-width="3"/><line x1="5.541" y1="4.408" transform="translate(17.745 17.871)" stroke-width="3" stroke="#fff" stroke-linecap="round" stroke-linejoin="round" stroke-miterlimit="10" fill="none"/><line y1="3.148" x2="3.274" transform="translate(23.916 11.826)" stroke-width="3" stroke="#fff" stroke-linecap="round" stroke-linejoin="round" stroke-miterlimit="10" fill="none"/><path d="M29.464,37.641H7.426A3.486,3.486,0,0,1,7.3,36.508c0-3.526,3.4-7.808,7.43-7.808a7.673,7.673,0,0,1,5.793,2.393,4.722,4.722,0,0,1,1.385-.126C28.456,31.093,28.96,34.745,29.464,37.641Z" transform="translate(1.504 7.053)" fill="none" stroke="#fff" stroke-linecap="round" stroke-linejoin="round" stroke-miterlimit="10" stroke-width="3"/></svg>