<svg xmlns="http://www.w3.org/2000/svg" width="45.187" height="46.698"><path stroke-width="3" stroke="#fff" stroke-linecap="round" stroke-linejoin="round" stroke-miterlimit="10" fill="none" d="M1.5 45.198h42.187m-19.771-7.053V9.811m13.847 9.445a8.287 8.287 0 00-5.667-7.808V9.686a8.186 8.186 0 10-16.371 0v1.637a8.242 8.242 0 00.756 15.867 8.254 8.254 0 0014.86 0 8.109 8.109 0 006.422-7.934zm-14.477 3.023l-5.541-4.408m6.171-2.897l3.274-3.148m3.778 32.868H8.93a3.486 3.486 0 01-.126-1.133c0-3.526 3.4-7.808 7.43-7.808a7.673 7.673 0 015.793 2.393 4.722 4.722 0 011.385-.126c6.548.126 7.052 3.778 7.556 6.674z"/></svg>