<svg xmlns="http://www.w3.org/2000/svg" width="18" height="14.897" viewBox="0 0 18 14.897"><g transform="translate(-500.999 -11695)"><g transform="translate(501.999 11696)"><g transform="translate(0 0)"><circle cx="2.089" cy="2.089" r="2.089" transform="translate(0 7.884)" fill="none" stroke="#0073ff" stroke-linecap="round" stroke-linejoin="round" stroke-width="2"/><circle cx="2.089" cy="2.089" r="2.089" transform="translate(11.822 0.836)" fill="none" stroke="#0073ff" stroke-linecap="round" stroke-linejoin="round" stroke-width="2"/><g transform="translate(2.806 0)"><path d="M113.769,36.159V34.554a2.6,2.6,0,0,1,2.6-2.6h0a2.6,2.6,0,0,1,2.6,2.6v4.131" transform="translate(-113.769 -31.957)" fill="none" stroke="#0073ff" stroke-linecap="round" stroke-linejoin="round" stroke-width="2"/><path d="M123.9,39.25v1.605a2.6,2.6,0,0,1-2.6,2.6h0a2.6,2.6,0,0,1-2.6-2.6V36.724" transform="translate(-113.513 -30.555)" fill="none" stroke="#0073ff" stroke-linecap="round" stroke-linejoin="round" stroke-width="2"/></g></g></g></g></svg>