<svg xmlns="http://www.w3.org/2000/svg" width="16.841" height="16.611" viewBox="0 0 16.841 16.611"><g transform="translate(-394.956 -735.547)"><path d="M191.354,14.693c2.437,2.437,3.189,1.638,3.189,1.638l.344-.348a1.543,1.543,0,0,1,2.19-.009l.589.589a1.542,1.542,0,0,1,0,2.181l-.844.844c-2.214,1.018-5.443-.736-7.536-2.829s-3.846-5.321-2.829-7.535l.844-.845a1.543,1.543,0,0,1,2.182,0l.588.589a1.541,1.541,0,0,1-.009,2.19l-.347.343S188.917,12.255,191.354,14.693Z" transform="translate(209.886 731.182)" fill="none" stroke="#0073ff" stroke-linecap="round" stroke-linejoin="round" stroke-width="2"/><g transform="translate(404.21 736.547)"><path d="M198.193,13.636a3.493,3.493,0,0,0-3.285-3.284" transform="translate(-194.908 -7.05)" fill="none" stroke="#0073ff" stroke-linecap="round" stroke-linejoin="round" stroke-width="2"/><path d="M201.518,13.009a6.833,6.833,0,0,0-6.425-6.424" transform="translate(-194.931 -6.585)" fill="none" stroke="#0073ff" stroke-linecap="round" stroke-linejoin="round" stroke-width="2"/></g></g></svg>