<svg xmlns="http://www.w3.org/2000/svg" width="51.509" height="42.845"><g fill="none" stroke="#fff" stroke-miterlimit="10" stroke-width="3"><path d="M41.692 14.364v23.452a3.547 3.547 0 01-3.529 3.529H13.345a3.547 3.547 0 01-3.529-3.529V14.364"/><path d="M2.075 19.146L25.754 3.777l23.68 15.369" stroke-linecap="round" stroke-linejoin="round"/><path d="M32.813 32.238H19.379a1.8 1.8 0 01-1.821-1.817V19.943a1.8 1.8 0 011.821-1.822h13.434a1.8 1.8 0 011.822 1.822v10.478a1.8 1.8 0 01-1.822 1.817zm-6.717-.57V18.121m-8.538 7.058h17.077m4.439-12.75V2.752A1.263 1.263 0 0037.822 1.5h-3.3a1.263 1.263 0 00-1.254 1.252v5.92"/></g></svg>