<svg xmlns="http://www.w3.org/2000/svg" width="56.8" height="43.204" viewBox="0 0 56.8 43.204"><g transform="translate(1.057 6.829)"><g transform="translate(-0.203 -6.329)"><path d="M1,21.5H1A10.244,10.244,0,0,0,10.891,29H54.445" transform="translate(0 12.205)" fill="none" stroke="#fff" stroke-linecap="round" stroke-linejoin="round" stroke-miterlimit="10" stroke-width="3"/><path d="M48.532,20.3V34.982H38.162v-6.7a32.207,32.207,0,0,0-8.934,5.105,7.972,7.972,0,0,1-4.946,1.6H7.53a2.789,2.789,0,0,1-2.712-3.35c.319-1.914,1.6-5.9,3.829-7.5,4.308-3.031,11.487-1.755,17.868-7.658S31.142,1,31.142,1,35.769,2.436,45.82,3.393v7.658C45.82,14.242,48.532,17.273,48.532,20.3Z" transform="translate(2.244 0)" fill="none" stroke="#fff" stroke-linecap="round" stroke-linejoin="round" stroke-miterlimit="10" stroke-width="3"/><path d="M36.07,17.22s-6.062-.479-10.37,1.436" transform="translate(14.706 9.625)" fill="none" stroke="#fff" stroke-miterlimit="10" stroke-width="3"/><line y1="6.222" transform="translate(26.207 34.982)" stroke-width="3" stroke="#fff" stroke-linecap="round" stroke-linejoin="round" stroke-miterlimit="10" fill="none"/><line y1="6.222" transform="translate(46.309 34.982)" stroke-width="3" stroke="#fff" stroke-linecap="round" stroke-linejoin="round" stroke-miterlimit="10" fill="none"/><line y1="6.222" transform="translate(12.806 34.982)" stroke-width="3" stroke="#fff" stroke-linecap="round" stroke-linejoin="round" stroke-miterlimit="10" fill="none"/></g></g></svg>