<svg xmlns="http://www.w3.org/2000/svg" width="56.8" height="43.204"><g fill="none" stroke="#fff" stroke-miterlimit="10" stroke-width="3"><path d="M1.854 34.205h0a10.244 10.244 0 009.891 7.5h43.554" stroke-linecap="round" stroke-linejoin="round"/><path d="M51.63 20.8v14.682H41.26v-6.7a32.207 32.207 0 00-8.934 5.105 7.972 7.972 0 01-4.946 1.6H10.628a2.789 2.789 0 01-2.712-3.35c.319-1.914 1.6-5.9 3.829-7.5 4.308-3.031 11.487-1.755 17.868-7.658S34.24 1.5 34.24 1.5s4.627 1.436 14.678 2.393v7.658c0 3.191 2.712 6.222 2.712 9.249z" stroke-linecap="round" stroke-linejoin="round"/><path d="M51.63 27.345s-6.062-.479-10.37 1.436"/><path stroke-linecap="round" stroke-linejoin="round" d="M27.061 41.704v-6.222m20.102 6.222v-6.222M13.66 41.704v-6.222"/></g></svg>