<svg xmlns="http://www.w3.org/2000/svg" width="396.801" height="1446.757"><g transform="translate(-48.199 -6819.163)"><path data-name="Path 3354" d="M352.708 7998.494a2.168 2.168 0 011.528.022 15.551 15.551 0 016.396 2.408 19.564 19.564 0 013.38 3.263 12.5 12.5 0 012.159 4.035c.203.53.141 1.162.344 1.69.101.264.101.264.468.428a17.228 17.228 0 013.363.84c.367.163.265-.102.428-.47-.367-.162-.305-.794-.508-1.324.021-1.528-.854-3.016-1.363-4.341a9.02 9.02 0 00-1.71-2.08.991.991 0 00-.468-.428c-.102-.265-.102-.265.163-.367.897-.04 1.732.551 2.465.875a16.091 16.091 0 013.44 2.63 6.469 6.469 0 011.914 2.61 3.109 3.109 0 01.814 2.12c.101.265.203.53.733.326s1.223-.773 1.754-.977a13.817 13.817 0 013.078-1.486 18.736 18.736 0 013.607-1.689c1.06-.406 1.753-.977 2.813-1.384.265-.101.53-.203.061-.632a10.083 10.083 0 01-1.547-2.442c-.672-.958-1.445-2.181-2.116-3.14-.875-1.485-1.914-2.609-2.789-4.097-.204-.53-.672-.958-.874-1.485-.102-.266-.367-.164-.632-.062l-1.283 1.404a14.644 14.644 0 01-2.711 1.648c-1.855.712-3.749.527-5.807.71-.367-.164-.633-.062-.734-.328s.265-.101.53-.203a10.016 10.016 0 003.404-2.218 12.793 12.793 0 002.692-4.074c.164-.367.164-.367-.203-.53-.836-.59-1.834-.816-2.669-1.407l-.734-.327c-.101-.265-.265.102-.265.102-.53.204-.856.937-1.282 1.404a12.539 12.539 0 01-3.63 3.214 16.183 16.183 0 01-3.546 1.057 25.649 25.649 0 01-8.273-.168c-.265.101-.367-.164-.734-.327a.278.278 0 01-.366-.164c-.102-.265-.102-.265.163-.366a12.49 12.49 0 012.847-.48c1.161-.142 2.22-.549 3.383-.691a6.249 6.249 0 002.221-.548c1.162-.142 1.957-.447 3.118-.589.266-.102.53-.203.429-.469l1.796-4.033.49-1.1c.163-.366.163-.366-.204-.53l-4.034-1.796-1.466-.652a1.043 1.043 0 00-.896.04c-.958.671-2.018 1.078-3.24 1.852a7.1 7.1 0 01-3.14 2.116c-.794.305-1.485.875-2.282 1.18-.266.102-.266.102-.367-.163-.57-.692-.57-.692.021-1.528l2.571-2.808a16.268 16.268 0 013.302-2.483 10.749 10.749 0 013.975-1.526 13.834 13.834 0 013.321-.059 11.112 11.112 0 013.463 1.102c.367.164.367.164.53-.203l1.467-3.302c.164-.367.164-.367-.203-.53a13.654 13.654 0 00-3.83-1.266c-1.263-.124-2.791-.145-4.318-.164a.278.278 0 01-.367-.163l.265-.102c.692-.57 1.651-1.242 2.61-1.913a10.749 10.749 0 013.974-1.526 5.7 5.7 0 012.526.247c.367.163.367.163.428-.47a6.679 6.679 0 00-.283-2.322c-.142-1.161-.182-2.058-.324-3.22-.244-1.426-.223-2.954-.365-4.115s-.18-2.062-.22-2.959-.142-1.161-.937-.856c-1.427.244-2.487.65-3.913.894-.632-.062-1.689.344-2.588.385a16.609 16.609 0 01-3.648.792c-.53.203-1.161.141-1.688.344-.266.101-.266.101-.164.367a10.2 10.2 0 01.589 3.118 13.079 13.079 0 01-.656 5.42 6.7 6.7 0 01-1.57 3.034c-.164.367-.327.734-.693.57s-.204-.53-.04-.896a16 16 0 00-.16-3.587 8.1 8.1 0 00-1.323-3.444 4.034 4.034 0 00-1.14-1.383l-.266.102c-.591.836-1.449 1.772-2.04 2.604a.278.278 0 00-.164.367l.305.795a16.041 16.041 0 011.322 3.444 14.592 14.592 0 01-1.126 8.945 17.069 17.069 0 01-2.53 3.706l-.53.203c-.366-.163-.733-.326-.835-.59-.367-.164-.367-.164-.203-.53a49.331 49.331 0 011.918-5.297 49.334 49.334 0 011.919-5.296 1.043 1.043 0 00-.04-.897c-.774-1.222-1.812-2.344-2.687-3.832-.102-.265-.469-.429-.672-.958l-.794.305c-.266.102-.429.469-.958.672a8.4 8.4 0 01-2.446 1.547c-.693.57-1.223.774-1.916 1.344a.278.278 0 00-.163.367c.079 1.79.059 3.321.142 5.114-.124 1.263.019 2.424-.003 3.952-.062.632.142 1.162.079 1.79-.163.368-.062.633-.429.47-.265.101-.896.04-1.16.141a.278.278 0 01-.368-.163 18.6 18.6 0 01-1.424-3.71 16.568 16.568 0 01-.118-6.642 12.383 12.383 0 012.877-5.969c.163-.367.693-.57.856-.937.265-.101.164-.367.062-.632l-.814-2.119-.305-.794c-.203-.53-.203-.53-.734-.327a12.35 12.35 0 00-4.016 4.582c-.49 1.1-.716 2.095-1.204 3.197l-.164.367c-.265.102-.101-.265-.367-.163l-.508-1.325a14.528 14.528 0 01.514-6.58 14.875 14.875 0 011.897-3.77c.163-.366.163-.366-.203-.53l-4.706-2.753a59.451 59.451 0 01-5.438-3.08l-1.1-.49c-.366-.164-.366-.164-.53.203-.653 1.467-1.204 3.198-1.858 4.665-.875 2.464-2.02 5.03-2.796 7.761-.163.367-.163.367.204.53a18.586 18.586 0 016.294 2.144 9.346 9.346 0 013.176 2.736 3.109 3.109 0 01.814 2.119c.102.265.203.53-.062.632s-.367-.163-.632-.062c-.734-.326-1.568-.918-2.668-1.407a9.621 9.621 0 00-4.625-.96c-.896.04-2.058.182-2.954.222-.265.102-.265.102-.164.367l.427 3.485c.101.265.203.53.468.428l2.69-.12a11.378 11.378 0 015.397 2.182 9.951 9.951 0 013.011 3.1 19.884 19.884 0 012.218 3.404 4.83 4.83 0 00.978 1.754c.101.265.203.53-.062.632s-.428.468-.958.671c-.265.102-.265.102-.632-.061-.937-.856-1.975-1.978-2.909-2.835-1.404-1.282-2.545-2.671-3.95-3.955-.367-.163-.57-.693-.937-.856a.278.278 0 00-.367-.164 14.244 14.244 0 00-3.383.69 10.083 10.083 0 00-2.853.488c-.265.101-.265.101-.163.367a5.262 5.262 0 01.181 2.058c.142 1.161.284 2.323.528 3.749.102.265.204.53.469.429 1.833.816 3.401 1.734 5.234 2.55 1.569.918 3.402 1.734 4.97 2.652.367.164.367.164.204.53a6.2 6.2 0 00-.286 1.63c.101.265-.164.367-.266.102a14.939 14.939 0 01-6.926-2.205 8.878 8.878 0 01-2.342-2.141c-.57-.693-1.039-1.121-1.608-1.815a18.543 18.543 0 01-1.424-3.709l-.101-.265c.061-.632-.305-.794-.937-.856-.998-.225-1.892-.185-2.893-.41l-.265.102a8.286 8.286 0 00.385 2.588 13.818 13.818 0 001.485 3.078 4.034 4.034 0 001.14 1.384c.469.428.672.958 1.14 1.383l.101.266-.265.101a9.791 9.791 0 01-3.198-1.204 16.005 16.005 0 01-4.947-4.177 7.053 7.053 0 01-1.08-2.017.278.278 0 00-.366-.164c-.958.672-2.283 1.18-3.24 1.852a6.248 6.248 0 01-2.018 1.08c-1.651 1.241-2.875 2.014-4.098 2.788-.53.203-1.223.774-1.753.977-.265.102-.428.469-.062.632l3.418 4.16c.672.957 1.608 1.814 2.28 2.773 1.04 1.12 1.812 2.344 2.85 3.465.102.266.368.164.633.062a10.492 10.492 0 012.406-2.444 13.817 13.817 0 013.078-1.485 14.245 14.245 0 013.383-.69c.632.06 1.162-.142 1.892.185a2.559 2.559 0 01-1.223.773 13.379 13.379 0 00-3.365 3.113 14.875 14.875 0 00-1.897 3.768c-.164.367.101.265.101.265 1.1.49 2.465.875 3.565 1.368.367.163.632.061.53-.204a10.8 10.8 0 012.53-3.706 9.064 9.064 0 014.728-2.727c.795-.305 1.689-.344 2.486-.65.896-.04 2.059-.182 2.955-.223a19.074 19.074 0 013.789.367c.367.163.367.163.468.428.305.795.305.795-.49 1.1a11.641 11.641 0 00-3.016.853 12.727 12.727 0 00-3.016.854c-.794.305-1.689.344-2.486.65-.53.204-1.162.142-1.957.447-.265.102-.53.204-.428.469a30.378 30.378 0 00-2.082 5.663c-.164.367-.164.367.203.53 1.732.551 3.198 1.204 4.93 1.756.734.327.998.226 1.427-.243a7.43 7.43 0 012.834-2.91c1.223-.773 2.181-1.445 3.405-2.218a7.857 7.857 0 012.282-1.18l.537-.206a.278.278 0 01.367.163c.102.266.102.266-.164.367a9.446 9.446 0 01-2.04 2.604 16 16 0 01-2.773 2.28 9.655 9.655 0 01-2.548 1.283 15.386 15.386 0 01-7.237.957 1.474 1.474 0 00-1.263-.123c-.367-.164-.266.101-.53.203a24.549 24.549 0 01-1.938 2.872c-.163.367-.163.367.203.53a10.414 10.414 0 005.527.921 16.182 16.182 0 003.546-1.057c.265-.102.265-.102.367.163s.102.266-.163.367a8.5 8.5 0 01-2.243 2.077c-.53.204-.693.57-1.223.774a9.351 9.351 0 01-3.71 1.423 7.556 7.556 0 01-3.484.427c-.632-.062-.632-.062-.428.468.141 1.162.283 2.323.324 3.22-.062.632.243 1.426.182 2.058.141 1.162.182 2.06.324 3.22.04.896.244 1.427.283 2.323.204.53.04.896.244 1.426.102.266.102.266.367.164a19.164 19.164 0 013.912-.894 24.839 24.839 0 004.443-1.097 9.655 9.655 0 002.752-.752c.53-.203 1.16-.141 1.956-.447.265-.101.265-.101.164-.367l-.61-1.587a16.071 16.071 0 01-1.036-5.073 6.712 6.712 0 011.593-4.563c.265-.102.429-.469.53-.204.265-.102.102.265.204.53a14.379 14.379 0 00.792 3.648 13.816 13.816 0 001.485 3.078c.57.693 1.04 1.121 1.608 1.814.102.265.367.164.632.062.856-.937 1.815-1.608 2.672-2.545a.278.278 0 00.163-.367c-.57-.693-1.242-1.652-1.913-2.61l-1.017-2.65a14.257 14.257 0 01.002-3.952c.164-.367.062-.632.124-1.263a36.549 36.549 0 012.51-6.132 6.2 6.2 0 011.02-1.303.278.278 0 00.163-.367l.265-.102.102.265a13.836 13.836 0 00-.082 2.16 80.366 80.366 0 01-2.451 9.454.532.532 0 00.305.794c.937.856 1.608 1.814 2.545 2.671.57.693 1.039 1.122 1.608 1.815.102.265.367.163.632.061.693-.57 1.121-1.039 1.814-1.608s1.55-1.506 2.243-2.076c.429-.47.225-.998.286-1.63a8.287 8.287 0 00-.385-2.588l-.426-3.485c-.04-.896-.243-1.426-.283-2.323l-.121-2.689c.102.265.57.693.672.958a15.432 15.432 0 011.83 4.769 15.709 15.709 0 01-.411 6.846 13.871 13.871 0 01-3.345 5.54c-.266.101-.429.468-.226.998l1.12 2.914c.1.265.203.53.631.062a10.813 10.813 0 002.341-1.818 11.379 11.379 0 002.55-5.235c-.101-.265.164-.366.327-.733s.266-.102.266-.102l.203.53a8.287 8.287 0 01.385 2.588 25.95 25.95 0 01-.431 4.421 9.783 9.783 0 01-1.96 4.4c-.163.368-.163.368.204.53l6.905 3.734a35.947 35.947 0 014.236 2.322c.367.164.266-.101.53-.203a42.467 42.467 0 001.593-4.563c1.143-2.567 1.919-5.296 3.062-7.863.163-.367.163-.367-.204-.53a8.37 8.37 0 01-5.031-2.02 11.861 11.861 0 01-2.077-2.243c-.468-.429-.773-1.223-1.242-1.652l-.204-.53c.265-.102.265-.102.367.163l2.197.978a21.169 21.169 0 003.891.634c1.06-.406 1.957-.446 2.487-.65.265-.101.265-.101.163-.367-.204-.53-.142-1.161-.344-1.688s-.142-1.162-.447-1.957c-.102-.265-.102-.265-.469-.429-.896.04-1.426.244-2.323.283a9.411 9.411 0 01-4.725-1.227 12.349 12.349 0 01-3.645-3.16c-.672-.958-1.242-1.652-1.913-2.61-.305-.794-.774-1.223-1.079-2.017l-.915-2.385c-.102-.265-.204-.53.327-.734a1.043 1.043 0 00.692-.57c.265-.101.265-.101.367.164.672.957 1.446 2.18 2.117 3.139a23.643 23.643 0 002.585 3.567l2.015 2.875a.61.61 0 00.734.327c2.058-.182 3.952.002 6.01-.18.266-.101.266-.101.164-.366-.141-1.162.083-2.16-.059-3.322-.04-.896.022-1.528-.019-2.424l-.305-.794a46.225 46.225 0 01-4.644-3.386c-1.669-1.18-3.34-2.366-5.112-3.813.469.428.469.428.102.265z" fill="#99cfff"/><g data-name="snowflakes_2"><path data-name="Path 3354" d="M169.466 7201.525a3.065 3.065 0 011.978.87 21.99 21.99 0 016.995 6.67 27.665 27.665 0 012.597 6.113 17.672 17.672 0 01.576 6.445c-.028.8-.456 1.59-.484 2.393-.014.4-.014.4.372.814a24.361 24.361 0 013.912 2.947c.386.414.4.014.814-.372-.386-.414.042-1.2.07-2.006.87-1.978.554-4.397.624-6.403.042-1.2-.716-2.434-1.074-3.652a1.4 1.4 0 00-.371-.813c.014-.4.014-.4.413-.386 1.186.442 1.95 1.674 2.724 2.505a22.753 22.753 0 013.026 5.326 9.147 9.147 0 011.045 4.453 4.4 4.4 0 01-.112 3.208c-.014.4-.028.8.771.827s2.02-.33 2.822-.301a19.538 19.538 0 014.827-.232 26.494 26.494 0 015.628-.204c1.604.056 2.821-.302 4.425-.246.4.014.8.028.428-.785a14.258 14.258 0 01-.66-4.039c-.343-1.618-.673-3.637-1.017-5.255-.315-2.42-1.045-4.453-1.366-6.874.028-.8-.343-1.618-.315-2.42.014-.4-.386-.414-.786-.428l-2.448 1.115a20.707 20.707 0 01-4.44.645c-2.807-.098-5.171-1.38-7.95-2.285-.386-.414-.786-.428-.772-.828s.4.014.8.028a14.163 14.163 0 005.656-1.003 18.089 18.089 0 005.755-3.815c.413-.385.413-.385.027-.8-.757-1.226-1.935-2.075-2.695-3.305l-.771-.828c.014-.4-.4-.014-.4-.014-.8-.028-1.632.744-2.449 1.116a17.731 17.731 0 01-6.5 2.182 22.883 22.883 0 01-5.2-.582 36.269 36.269 0 01-10.675-4.79c-.4-.013-.386-.413-.772-.827a.393.393 0 01-.385-.413c.014-.4.014-.4.413-.386a17.661 17.661 0 013.983.94c1.59.455 3.194.511 4.785.967a8.836 8.836 0 003.194.512c1.59.455 2.794.498 4.384.953.4.014.8.028.813-.372l4.565-4.264 1.24-1.157c.415-.386.415-.386.029-.8l-4.257-4.565-1.548-1.66a1.474 1.474 0 00-1.186-.442c-1.618.344-3.222.288-5.242.618a10.04 10.04 0 01-5.255 1.017c-1.2-.042-2.42.316-3.624.274-.4-.014-.4-.014-.386-.414-.358-1.213-.358-1.213.87-1.978l4.896-2.24a23 23 0 015.67-1.408 15.2 15.2 0 016.017.21 19.562 19.562 0 014.353 1.758 15.713 15.713 0 013.899 3.348c.385.413.385.413.8.028l3.74-3.483c.414-.386.414-.386.028-.8a19.307 19.307 0 00-4.285-3.763c-1.576-.856-3.554-1.73-5.53-2.603a.393.393 0 01-.387-.414l.4.014c1.213-.358 2.835-.701 4.453-1.045a15.2 15.2 0 016.017.21 8.066 8.066 0 013.152 1.716c.385.414.385.414.813-.372a9.445 9.445 0 00.912-3.18c.455-1.59.897-2.779 1.353-4.37.47-1.99 1.34-3.968 1.8-5.558s.91-2.79 1.353-3.976.455-1.59-.744-1.632c-1.992-.47-3.596-.526-5.586-.995-.786-.428-2.393-.484-3.582-.926a23.486 23.486 0 01-5.186-.982c-.8-.027-1.59-.455-2.393-.483-.4-.014-.4-.014-.414.385a14.427 14.427 0 01-.953 4.384 18.494 18.494 0 01-3.848 6.692 9.475 9.475 0 01-3.722 3.082c-.414.385-.827.771-1.213.357s.028-.799.442-1.185a22.624 22.624 0 001.772-4.757 11.454 11.454 0 00.182-5.214 5.7 5.7 0 00-.716-2.434l-.4-.014c-1.227.758-2.863 1.506-4.094 2.266a.393.393 0 00-.414.386l-.042 1.2c.344 1.617-.126 3.61-.182 5.213a20.633 20.633 0 01-6.408 11.02 24.136 24.136 0 01-5.34 3.428l-.8-.028c-.385-.414-.771-.827-.757-1.227-.386-.414-.386-.414.028-.8a69.755 69.755 0 015.424-5.834 69.759 69.759 0 015.423-5.834 1.474 1.474 0 00.442-1.185c-.33-2.02-1.06-4.053-1.38-6.474.014-.4-.372-.813-.344-1.617l-1.199-.042c-.4-.014-.813.371-1.618.343a11.872 11.872 0 01-4.038.66c-1.214.358-2.02.33-3.236.687a.393.393 0 00-.414.386c-.884 2.379-1.758 4.355-2.645 6.734-.855 1.576-1.31 3.166-2.187 5.144-.428.785-.456 1.59-.884 2.378-.414.386-.428.786-.813.372-.4-.014-1.186-.441-1.59-.456a.393.393 0 01-.386-.413c.07-2.006-.274-3.624.196-5.615a23.427 23.427 0 013.49-8.72 17.511 17.511 0 017.041-6.18c.414-.385 1.213-.357 1.632-.743.4.014.414-.386.428-.785l.112-3.209q.02-.6.042-1.199c.028-.8.028-.8-.772-.827a17.463 17.463 0 00-7.762 3.73c-1.241 1.158-2.09 2.337-3.334 3.498l-.414.386c-.4-.014.014-.4-.385-.414l.07-2.006a20.544 20.544 0 014.301-8.282 21.034 21.034 0 014.552-3.856c.413-.386.413-.386.028-.8l-4.603-6.184a84.065 84.065 0 01-5.377-7.014l-1.157-1.241c-.386-.414-.386-.414-.8-.028-1.66 1.548-3.334 3.498-4.995 5.046-2.505 2.723-5.41 5.432-7.928 8.557-.414.386-.414.386-.028.8a26.282 26.282 0 017.01 6.268 13.215 13.215 0 012.624 5.312 4.4 4.4 0 01-.112 3.208c-.014.4-.028.8-.427.786s-.386-.414-.786-.428c-.771-.828-1.534-2.062-2.695-3.306a13.6 13.6 0 00-5.489-3.806c-1.185-.442-2.78-.898-3.968-1.34-.4-.013-.4-.013-.414.386l-1.367 4.772c-.014.4-.028.8.371.813l3.568 1.325a16.089 16.089 0 015.82 5.825 14.07 14.07 0 012.211 5.699c.33 2.02 1.073 3.651 1.003 5.656a6.829 6.829 0 00.302 2.821c-.014.4-.028.8-.428.786s-.813.372-1.618.344c-.4-.014-.4-.014-.785-.428-.744-1.632-1.478-3.666-2.225-5.298-1.115-2.448-1.837-4.883-2.956-7.331-.385-.414-.357-1.214-.743-1.632a.393.393 0 00-.386-.414 20.142 20.142 0 00-4.785-.968 14.258 14.258 0 00-3.983-.94c-.4-.013-.4-.013-.413.387a7.44 7.44 0 01-.898 2.779c-.456 1.59-.911 3.18-1.381 5.172-.014.4-.028.8.372.813 1.935 2.076 3.47 4.137 5.404 6.213 1.534 2.061 3.47 4.136 5.004 6.198.386.414.386.414-.028.8a8.772 8.772 0 00-1.27 1.964c-.013.4-.413.385-.4-.014a21.124 21.124 0 01-7.825-6.695 12.553 12.553 0 01-1.866-4.08c-.358-1.213-.73-2.034-1.087-3.25.056-1.604-.274-3.624.196-5.615l.014-.4c.427-.785.042-1.199-.744-1.631-1.171-.842-2.364-1.284-3.54-2.132l-.4-.014a11.717 11.717 0 00-.925 3.582 19.539 19.539 0 00.232 4.827 5.7 5.7 0 00.715 2.434c.372.814.344 1.618.716 2.435l-.014.4-.4-.015c-1.576-.855-2.336-2.09-3.498-3.334a22.632 22.632 0 01-4.138-8.181 9.973 9.973 0 01-.287-3.222.393.393 0 00-.386-.414c-1.618.344-3.624.274-5.242.618a8.836 8.836 0 01-3.222.287c-2.835.702-4.855 1.032-6.874 1.366-.8-.028-2.02.33-2.821.302-.4-.014-.814.372-.428.786l2.155 7.303c.343 1.618 1.087 3.25 1.436 4.87.729 2.033 1.059 4.052 1.795 6.086-.014.4.386.413.786.427a14.835 14.835 0 014.481-1.851 19.538 19.538 0 014.827-.232 20.142 20.142 0 014.785.967c.786.428 1.59.456 2.365 1.284a3.618 3.618 0 01-2.02.33 18.919 18.919 0 00-6.1 2.196 21.034 21.034 0 00-4.551 3.856c-.414.386-.014.4-.014.4 1.157 1.241 2.723 2.505 3.884 3.75.386.414.786.428.8.028a15.271 15.271 0 015.34-3.428 12.817 12.817 0 017.662-.933c1.199.042 2.392.484 3.596.526 1.185.442 2.779.897 3.968 1.34 1.576.855 3.166 1.31 4.73 2.574.385.414.385.414.371.813-.042 1.2-.042 1.2-1.241 1.158a16.461 16.461 0 00-4.397-.554 18 18 0 00-4.398-.554c-1.2-.042-2.392-.484-3.596-.526-.8-.028-1.59-.456-2.793-.498-.4-.013-.8-.027-.813.372a42.954 42.954 0 00-5.84 6.221c-.413.386-.413.386-.027.8 1.95 1.674 3.498 3.334 5.446 5.009.772.827 1.172.841 1.992.47a10.506 10.506 0 015.298-2.225c2.02-.33 3.638-.673 5.657-1.003a11.11 11.11 0 013.623-.274l.8.028a.393.393 0 01.386.414c-.014.4-.014.4-.414.386a13.357 13.357 0 01-4.095 2.266 22.626 22.626 0 01-4.869 1.436 13.652 13.652 0 01-4.024.26 21.756 21.756 0 01-9.943-2.757 2.085 2.085 0 00-1.576-.855c-.386-.414-.4-.014-.8-.028a34.713 34.713 0 01-4.108 2.667c-.414.386-.414.386-.028.8a14.725 14.725 0 006.678 4.248 22.882 22.882 0 005.2.582c.4.014.4.014.385.414s-.014.4-.413.386a12.018 12.018 0 01-4.067 1.464c-.8-.028-1.213.357-2.02.33a13.223 13.223 0 01-5.614-.197 10.685 10.685 0 01-4.772-1.367c-.785-.428-.785-.428-.813.372-.456 1.59-.912 3.18-1.353 4.37-.428.785-.47 1.99-.898 2.778-.456 1.59-.897 2.78-1.353 4.37-.442 1.185-.47 1.992-.912 3.18-.028.8-.441 1.185-.47 1.992-.013.4-.013.4.386.414a27.1 27.1 0 015.587.995 35.123 35.123 0 006.39 1.024 13.652 13.652 0 003.996.54c.8.027 1.59.455 2.793.497.4.014.4.014.414-.385l.084-2.407a22.725 22.725 0 011.451-7.178 9.491 9.491 0 014.594-5.06c.4.014.813-.371.8.028.399.014-.015.4-.029.8a20.333 20.333 0 00-.981 5.186 19.537 19.537 0 00.231 4.827c.358 1.213.73 2.034 1.087 3.25-.013.4.386.414.786.427 1.632-.743 3.25-1.087 4.883-1.837a.393.393 0 00.414-.386c-.358-1.213-.702-2.835-1.045-4.453l.14-4.01a20.16 20.16 0 012.172-5.105c.414-.386.428-.786.856-1.576a51.681 51.681 0 016.655-6.594 8.772 8.772 0 012.048-1.13.393.393 0 00.413-.385l.4.014-.014.4a19.564 19.564 0 00-1.297 2.765 113.64 113.64 0 01-8.414 10.95.752.752 0 00-.041 1.2c.743 1.631 1.087 3.25 1.837 4.883.358 1.213.73 2.033 1.088 3.25-.014.4.385.413.785.427 1.213-.358 2.034-.73 3.25-1.087s2.85-1.101 4.067-1.464c.813-.372.84-1.171 1.269-1.964a11.718 11.718 0 00.925-3.582l1.368-4.77c.441-1.186.47-1.993.911-3.181l1.326-3.568c-.014.4.358 1.213.343 1.618a21.821 21.821 0 01-.252 7.22 22.213 22.213 0 01-4.318 8.683 19.613 19.613 0 01-7.416 5.363c-.4-.014-.814.371-.841 1.171l-.155 4.411c-.013.4-.027.8.786.428 1.2.042 2.835-.702 4.052-1.06a16.09 16.09 0 006.213-5.404c.014-.4.414-.386.827-.771s.4.014.4.014l-.028.8a11.718 11.718 0 01-.925 3.581 36.694 36.694 0 01-3.004 5.517 13.834 13.834 0 01-4.98 4.645c-.415.385-.415.385-.029.8l6.955 8.671a50.829 50.829 0 014.229 5.373c.386.414.4.014.8.028a60.05 60.05 0 004.596-5.065c2.909-2.7 5.42-5.83 8.329-8.538.414-.386.414-.386.028-.8a11.835 11.835 0 01-5.428-5.413 16.772 16.772 0 01-1.464-4.066c-.371-.814-.33-2.02-.701-2.835l.028-.8c.4.014.4.014.386.414l2.32 2.488a29.933 29.933 0 004.714 2.976c1.604.056 2.794.497 3.596.526.4.013.4.013.414-.386.028-.8.456-1.59.484-2.393s.455-1.59.497-2.793c.014-.4.014-.4-.371-.814-1.186-.441-1.992-.47-3.18-.911a13.307 13.307 0 01-5.475-4.212c-1.548-1.66-2.266-4.094-2.998-6.128-.344-1.618-.701-2.835-1.045-4.453.042-1.2-.33-2.02-.288-3.222l.126-3.61c.014-.4.028-.8.828-.772a1.474 1.474 0 001.213-.358c.4.014.4.014.386.414.343 1.618.673 3.638 1.017 5.256a33.432 33.432 0 001.394 6.072l1.031 4.855a.863.863 0 00.772.827c2.779.898 5.143 2.188 7.923 3.088.4.014.4.014.413-.386.456-1.59 1.298-2.765 1.759-4.355.441-1.186.87-1.978 1.31-3.166l.043-1.2a65.364 65.364 0 01-4.174-6.972c-1.52-2.462-3.04-4.925-4.546-7.788.39.81.39.81.002.395z" fill="#99cfff"/></g><path d="M245.536 7752.898l-16.723-2.6-3.714 1.113 8.919 4.088c2.23.743 2.973 3.345 2.23 5.575s-3.345 2.973-5.574 2.23l-17.838-7.8-5.946 1.858 17.1 10.034a4.08 4.08 0 01-4.088 7.061l-23.793-13.755-10.41 2.973-6.689 6.689 13.007 2.6 13.007-2.23 9.291 10.034-13.007 4.831-10.406-8.176-13.003-3.342 2.6 9.291 7.8 7.433 27.5-1.115a4.278 4.278 0 01.372 8.548l-19.7.743 4.088 4.088.372.372 19.7 1.487a4.105 4.105 0 01-.743 8.176l-9.662-.743 2.6 2.6 15.98 5.2 10.034 25.271-25.641-9.288-5.946-15.609-2.6-2.6 1.115 9.663a4.105 4.105 0 11-8.176.743l-2.23-19.325-.372-.372-4.088-4.088v19.7a4.088 4.088 0 11-8.176 0v-27.5l-7.8-7.433-9.291-2.23 3.716 13.007 8.548 10.034-4.46 13.007-10.777-8.548 1.858-13.379-3.721-13.011-6.689 7.061-2.6 10.406 14.865 23.413a4.02 4.02 0 11-6.689 4.46l-10.406-16.724-1.481 5.946 8.548 17.467a4.155 4.155 0 11-7.433 3.716l-4.088-8.919-.743 3.716 3.345 16.352-16.729 21.184-4.831-26.758 10.406-13.007.743-3.716-7.8 5.575a4.237 4.237 0 11-5.2-6.689l15.98-11.521 1.487-5.946-17.1 9.663a4.08 4.08 0 01-4.088-7.061l23.413-13.009 2.6-10.406-2.6-9.291-9.291 9.663-4.46 12.636-13.379 2.6 2.23-13.751 12.264-4.831 9.291-9.663-9.291-2.23-10.406 2.975-13.007 24.53c-1.115 1.858-3.716 2.973-5.574 1.858s-2.973-3.716-1.858-5.575l9.291-17.467-5.575 1.484h-.372l-11.149 16.353a4.02 4.02 0 11-6.689-4.46l5.574-8.176-3.716 1.115-12.635 11.149-26.758-4.088 20.811-17.467 16.352 2.23 3.716-1.115-8.919-4.088c-2.23-.743-2.973-3.345-2.23-5.575s3.345-2.973 5.574-2.23l17.838 7.8h.372l5.574-1.487-17.1-10.034a4.08 4.08 0 014.088-7.061l23.784 13.751 10.777-2.23 6.689-6.689-13.007-3.345-13.007 2.23-8.912-10.401 13.007-4.831 10.406 8.176 13.007 3.345-2.6-9.291-7.8-7.433-27.5 1.115a4.751 4.751 0 01-4.46-4.088 4.751 4.751 0 014.088-4.46l19.325-.372-4.46-4.46-19.702-1.483a4.105 4.105 0 01.743-8.176l9.662.743-2.6-2.6-15.98-5.575-10.036-25.275 25.643 9.291 5.947 15.609 2.6 2.6-1.115-9.663a4.105 4.105 0 118.176-.743l2.23 19.325 4.46 4.46v-19.696a4.088 4.088 0 118.176 0v27.5l7.8 7.433 9.291 2.23-3.708-13.006-8.551-10.034 4.46-13.007 10.777 8.548-1.858 13.379 3.716 13.007 6.689-7.061 2.6-10.406-14.864-23.414a4.092 4.092 0 011.115-5.575 3.882 3.882 0 015.575 1.487l10.405 16.719 1.487-5.946-8.176-17.834a4.222 4.222 0 011.858-5.575c1.858-1.115 4.46 0 5.574 1.858l4.088 8.919.743-3.716-3.345-16.352 17.096-21.554 4.831 26.758-10.405 13.007-.743 3.716 7.8-5.575a4.237 4.237 0 015.2 6.689l-15.972 11.522-1.487 5.946 17.1-9.663a4.08 4.08 0 014.088 7.061l-23.791 13.751-2.6 10.406 2.23 9.291 9.291-9.663 4.46-12.636 13.379-2.6-2.23 13.751-12.264 4.831-9.291 9.663 9.291 2.23 10.404-2.975 13.007-24.528c1.115-1.858 3.716-2.973 5.574-1.858s2.973 3.716 1.858 5.575l-9.291 17.467 5.574-1.858 11.149-15.98a4.02 4.02 0 116.689 4.46l-5.574 8.176 3.716-1.115 12.637-11.149 27.129 4.088-20.811 17.466z" fill="#cce7ff"/><path d="M361.358 7797.214l3.944-7.458-7.42 1.2a1.554 1.554 0 01-1.954-1.586 1.828 1.828 0 011.469-2.183l10.044-1.676 3.492-6.655-13.013 2.042a1.554 1.554 0 01-1.955-1.585 1.828 1.828 0 011.47-2.183l15.637-2.518 6.306-12.392a4.814 4.814 0 01-1.383-1.589l-1.045-2.05-13.936.792-8.7 13.324a1.714 1.714 0 01-2.758-2.037l7.229-11.142-7.54.4-5.65 8.615a1.714 1.714 0 01-2.758-2.037l4.178-6.429-8.455.293a1.716 1.716 0 01-.024-3.431l8.457-.291-5.07-5.447a1.759 1.759 0 01.21-2.402 1.63 1.63 0 012.4.21l6.347 7.952 7.54-.4-8.305-10.108a1.759 1.759 0 01.21-2.401 1.63 1.63 0 012.402.21l9.921 12.153 13.825-.448c.219-1.26 1.804-3.214 1.688-3.442l-7.522-11.944-15.434-1.025a1.92 1.92 0 01-1.615-2.044 1.612 1.612 0 011.817-1.5l13.034.816-4.048-6.255-9.834-.726a1.92 1.92 0 01-1.615-2.044 1.612 1.612 0 011.817-1.5l7.431.512-4.512-7.165a1.943 1.943 0 01.438-2.517c.91-.464 1.826-.357 2.29.553l4.512 7.166 2.917-7.223a1.707 1.707 0 012.393-.931c1.032.335 1.04 1.477.932 2.392l-3.926 9.748 4.049 6.251 5.047-12.607a1.707 1.707 0 012.393-.932c1.031.335 1.04 1.478.932 2.392l-5.943 14.788 7.746 11.826a7.56 7.56 0 014.11-.375l6.762-12.62-7.193-14.117a1.789 1.789 0 113.188-1.624l5.917 11.612 1.125-2.294 2.483-4.133-4.64-9.108a1.789 1.789 0 113.187-1.625l3.48 6.829 3.827-7.687a1.78 1.78 0 012.51-.705c1.147.563 1.267 1.362.704 2.509l-3.943 7.458 7.419-1.199a1.554 1.554 0 011.955 1.585c.464.911-.215 1.83-1.358 1.839l-10.16 1.449-3.493 6.655 13.015-2.04a1.554 1.554 0 011.955 1.586 1.554 1.554 0 01-1.585 1.955l-15.638 2.519-6.534 12.507a6.014 6.014 0 011.383 1.589l.928 1.821 14.054-.563 8.816-13.095a1.515 1.515 0 012.397-.361 1.559 1.559 0 01.361 2.397l-7.346 10.914 8.112-.405 5.648-8.615a1.515 1.515 0 012.397-.361 1.559 1.559 0 01.361 2.397l-3.952 6.316 8.455-.293a1.559 1.559 0 011.728 1.7 1.559 1.559 0 01-1.701 1.728l-8.455.293 4.73 5.907a1.866 1.866 0 01-.322 2.746 1.759 1.759 0 01-2.402-.211l-6.346-7.952-7.54.4 8.42 10.337a1.705 1.705 0 11-2.61 2.191l-9.921-12.154-14.165.908a8.078 8.078 0 01-2.028 3.901l7.404 11.716 16.12.677a1.755 1.755 0 011.727 1.701 2.071 2.071 0 01-1.928 1.844l-13.263-.7 4.048 6.256 10.518.377a1.755 1.755 0 011.727 1.7 2.071 2.071 0 01-1.928 1.844l-7.66-.399 4.512 7.166a1.943 1.943 0 01-.441 2.518c-.91.464-1.826.357-2.29-.554l-4.513-7.165-2.46 6.99a1.441 1.441 0 01-2.166.816 1.707 1.707 0 01-1.16-2.276l3.47-9.513-4.048-6.255-4.48 12.035a1.441 1.441 0 01-2.165.816 1.707 1.707 0 01-1.16-2.277l5.49-14.556-7.404-11.715c-.116-.229-2.624.476-4 .03l-6.077 12.274 7.193 14.117a1.789 1.789 0 11-3.188 1.624l-6.032-11.84-.452.804-3.04 5.851 4.64 9.108a1.789 1.789 0 11-3.188 1.625l-3.48-6.83-3.944 7.458a1.78 1.78 0 01-2.509.704c-1.146-.562-2.405-.782-2.07-1.814z" fill="#b2d5ff"/><path d="M199.683 7981.766a6.134 6.134 0 01-5.288 1.762l-5.99 6.343 11.982 1.41c1.41 0 2.467 1.41 2.467 3.172a2.635 2.635 0 01-3.172 2.467l-15.858-1.762-6.7 7.4 16.916 1.762a2.65 2.65 0 012.467 1.762 2.741 2.741 0 01-.7 2.819l-12.688 11.278 4.934 1.057 4.934 1.057 11.982-10.573a2.752 2.752 0 013.524 4.229l-8.81 7.754 8.458 1.762a5.817 5.817 0 015.286-1.762 5.6 5.6 0 01-2.467 10.925 5.293 5.293 0 01-4.229-3.877l-8.458-1.762 4.934 10.925a2.684 2.684 0 11-4.934 2.115l-6.7-14.1-8.458-1.762-1.762-.352 7.052 15.862a3.426 3.426 0 01-.352 3.172 2.7 2.7 0 01-3.172.7l-15.506-5.282 3.172 8.811 15.154 4.934a2.788 2.788 0 01-1.763 5.291l-11.277-3.881 2.819 8.458a5.542 5.542 0 013.877 3.524 5.572 5.572 0 11-10.573 3.524 5.482 5.482 0 011.41-5.639l-2.467-8.106-7.048 9.52a2.868 2.868 0 01-3.877.7 3.217 3.217 0 01-.7-3.877l9.515-13.04-3.172-9.868-10.577 14.451a2.361 2.361 0 01-2.819 1.057 3.177 3.177 0 01-2.115-2.115l-3.524-16.563-6.344 6.7 3.172 15.507a2.7 2.7 0 11-5.286 1.048l-2.467-11.625-5.99 6.344a4.923 4.923 0 01-1.058 5.281c-2.115 2.115-5.639 2.467-7.753.352s-2.467-5.639-.352-7.753a6.134 6.134 0 015.286-1.762l5.991-6.337-11.982-1.41c-1.41 0-2.467-1.41-2.467-3.172a2.635 2.635 0 013.172-2.467l15.863 1.761 6.344-7.048-17.274-1.764a2.65 2.65 0 01-2.47-1.761 2.741 2.741 0 01.7-2.819l13.047-11.63-9.163-2.115-11.984 10.573a2.514 2.514 0 01-3.874-.348 2.514 2.514 0 01.352-3.877l8.106-7.048-8.458-1.766a5.817 5.817 0 01-5.286 1.762 5.412 5.412 0 01-4.229-6.7 5.411 5.411 0 016.7-4.229 5.293 5.293 0 014.229 3.877l8.458 1.762-4.938-10.922a2.478 2.478 0 011.41-3.524 2.478 2.478 0 013.524 1.41l6.344 14.8 9.162 1.764-6.7-15.509a3.426 3.426 0 01.352-3.172 2.21 2.21 0 012.819-.7l16.916 5.639-3.167-9.867-15.154-4.937a2.908 2.908 0 01-1.766-3.525 2.908 2.908 0 013.524-1.762l11.277 3.877-2.467-8.106a5.293 5.293 0 01-4.224-3.876 5.572 5.572 0 1110.572-3.525 5.06 5.06 0 01-1.057 4.934l3.175 8.811 7.048-9.515c1.057-1.41 2.467-1.41 3.877-.7 1.41 1.057 1.762 2.467.7 3.877l-9.514 12.681 2.819 8.811 9.515-13.04a2.361 2.361 0 012.819-1.057 3.177 3.177 0 012.115 2.115l3.521 17.268 7.048-7.753-3.168-15.507a2.7 2.7 0 115.286-1.057l2.467 11.63 5.991-6.7a5.657 5.657 0 011.057-5.639c2.115-1.762 5.639-2.115 7.753 0a5.244 5.244 0 01.354 7.758zm-12.335 27.488l-14.453-1.409-8.1 8.81 11.63 2.467zm-12.687 15.154l-10.925-2.466 2.819 9.161.7 2.467 13.397 4.583zm-13.04 10.221l-.352-1.762-3.174-9.516-6.7 7.4-1.762 2.115 2.819 14.449zm-15.858-5.639l8.458-9.163-9.868-2.115-2.467-.352-11.277 10.22zm-2.82-17.269l2.819.7 9.868 2.115-3.172-9.515-.352-1.762-14.8-4.934zm14.1-11.277l.7 2.467 2.819 9.163 6.344-7.048 1.41-1.057-3.172-14.8z" fill="#cce7ff"/><path data-name="snowflakes_3" d="M160.5 6862.336a5.113 5.113 0 01-4.645-.045l-6.443 3.373 9.06 4.362c1.111.383 1.562 1.78 1.084 3.17a2.2 2.2 0 01-3.17 1.083l-12.02-5.693-7.285 4.016 12.854 5.98a2.209 2.209 0 011.466 2.058 2.285 2.285 0 01-1.32 2.03l-13.06 5.446 3.601 2.172 3.602 2.171 12.311-5.08a2.294 2.294 0 011.631 4.287l-9.047 3.72 6.187 3.684a4.849 4.849 0 014.644.045 4.668 4.668 0 01-4.908 7.94 4.412 4.412 0 01-2.281-4.202l-6.188-3.684.924 9.948a2.237 2.237 0 11-4.462.328l-1.452-12.927-6.187-3.684-1.294-.757 1.252 14.412a2.855 2.855 0 01-1.14 2.404 2.246 2.246 0 01-2.685-.3l-10.79-8.377.109 7.805 10.604 8a2.322 2.322 0 01-2.824 3.688l-7.836-6.116-.073 7.431a4.619 4.619 0 012.099 3.83 4.644 4.644 0 11-9.288-.093 4.569 4.569 0 012.641-4.061l.256-7.057-8.138 5.587a2.391 2.391 0 01-3.246-.497 2.681 2.681 0 01.497-3.246l11.034-7.695.178-8.638-12.251 8.52a1.968 1.968 0 01-2.509.068 2.648 2.648 0 01-1.092-2.24l1.72-14.009-6.819 3.553-1.708 13.082a2.247 2.247 0 11-4.453-.601l1.211-9.835-6.44 3.374a4.1 4.1 0 01-2.267 3.88 4.574 4.574 0 01-4.38-8.033 5.113 5.113 0 014.645.046l6.443-3.374-9.06-4.362c-1.111-.382-1.562-1.78-1.083-3.17a2.2 2.2 0 013.169-1.082l12.02 5.692 6.907-3.835-13.13-6.074a2.209 2.209 0 01-1.466-2.058 2.285 2.285 0 011.317-2.032l13.435-5.626-6.647-4.152-12.313 5.08a2.1 2.1 0 01-2.959-1.33 2.1 2.1 0 011.33-2.959l8.3-3.355-6.187-3.685a4.849 4.849 0 01-4.644-.045 4.511 4.511 0 01-1.516-6.425 4.511 4.511 0 016.424-1.515 4.412 4.412 0 012.282 4.202l6.187 3.684-.923-9.948a2.066 2.066 0 012.064-2.397 2.066 2.066 0 012.396 2.073l.983 13.386 6.744 3.87-1.07-14.037a2.855 2.855 0 011.14-2.404 1.842 1.842 0 012.413.21l11.801 9.034.178-8.637-10.604-8a2.424 2.424 0 01-.433-3.256 2.424 2.424 0 013.257-.434l7.836 6.115.254-7.056a4.412 4.412 0 01-2.28-4.203 4.644 4.644 0 119.288.092 4.218 4.218 0 01-2.172 3.601l.109 7.805 8.137-5.586a2.347 2.347 0 013.246.496 2.121 2.121 0 01-.497 3.246l-10.94 7.417-.17 7.709 11.038-7.695a1.968 1.968 0 012.509-.068 2.648 2.648 0 011.092 2.24l-1.909 14.565 7.659-4.198 1.709-13.08a2.247 2.247 0 114.452.601l-1.213 9.834 6.544-3.649a4.715 4.715 0 012.363-4.157 4.914 4.914 0 016.11 2.104 4.371 4.371 0 01-1.83 6.205zm-17.18 18.317l-11.006-5.033-8.779 4.745 8.496 5.1zm-14.112 8.5l-7.94-4.91-.265 7.987-.114 2.135 9.31 7.245zm-13.05 4.516l.201-1.485.082-8.36-7.285 4.016-1.963 1.187-1.699 12.153zm-10.968-8.747l9.152-4.926-7.203-4.345-1.848-.947-11.661 4.994zm2.464-14.375l2.031 1.32 7.203 4.344.082-8.36.2-1.485-10.326-7.903zm14.17-5.063l-.114 2.135-.264 7.986 6.911-3.833 1.398-.45 1.518-12.526z" fill="#cce7ff"/><circle data-name="Ellipse 692" cx="10.534" cy="10.534" transform="translate(228.981 7596)" fill="#cce7ff" r="10.534"/><circle data-name="Ellipse 696" cx="10.534" cy="10.534" transform="translate(302.981 6859)" fill="#cce7ff" r="10.534"/><ellipse cx="26.994" cy="26.993" rx="26.994" ry="26.993" transform="translate(103.287 7517.969)" fill="#cce7ff"/><ellipse data-name="snowflakes_5" cx="26.994" cy="26.993" rx="26.994" ry="26.993" transform="translate(177.287 6997.969)" fill="#cce7ff"/><path data-name="Path 3371" d="M191.633 8240.615l4.463-8.446-8.397 1.36a1.759 1.759 0 01-2.212-1.79 2.07 2.07 0 011.66-2.476l11.377-1.9 3.954-7.534-14.733 2.312a1.759 1.759 0 01-2.211-1.791 2.07 2.07 0 011.66-2.47l17.705-2.849 7.134-14.034a5.45 5.45 0 01-1.566-1.798l-1.18-2.317-15.778.896-9.85 15.08a1.941 1.941 0 01-3.123-2.305l8.185-12.613-8.536.453-6.395 9.752a1.941 1.941 0 01-3.123-2.305l4.732-7.282-9.572.332a1.941 1.941 0 01-.03-3.882l9.572-.332-5.739-6.166a1.992 1.992 0 01.239-2.72 1.845 1.845 0 012.718.24l7.185 9.002 8.536-.452-9.402-11.446a1.992 1.992 0 01.238-2.718 1.845 1.845 0 012.718.238l11.232 13.76 15.653-.512c.248-1.425 2.043-3.638 1.913-3.893l-8.513-13.52-17.476-1.162a2.174 2.174 0 01-1.83-2.315 1.825 1.825 0 012.054-1.696l14.757.923-4.582-7.082-11.133-.82a2.174 2.174 0 01-1.83-2.315 1.825 1.825 0 012.054-1.697l8.415.584-5.108-8.113a2.2 2.2 0 01.497-2.85c1.03-.525 2.067-.403 2.592.628l5.108 8.112 3.307-8.175a1.933 1.933 0 012.708-1.056c1.168.379 1.177 1.673 1.056 2.709l-4.444 11.03 4.583 7.082 5.71-14.278a1.933 1.933 0 012.71-1.056c1.167.38 1.176 1.673 1.056 2.709l-6.73 16.744 8.77 13.387a8.559 8.559 0 014.656-.423l7.653-14.29-8.143-15.982a2.025 2.025 0 113.608-1.839l6.7 13.147 1.274-2.598 2.81-4.68-5.255-10.314a2.025 2.025 0 113.608-1.84l3.943 7.738 4.334-8.7a2.015 2.015 0 012.836-.798c1.299.637 1.435 1.541.798 2.84l-4.463 8.447 8.397-1.36a1.759 1.759 0 012.212 1.79c.525 1.031-.243 2.073-1.537 2.082l-11.497 1.643-3.954 7.534 14.736-2.313a1.759 1.759 0 012.212 1.79 1.759 1.759 0 01-1.792 2.212l-17.705 2.849-7.397 14.16a6.809 6.809 0 011.567 1.798l1.054 2.07 15.902-.635 9.98-14.826a1.715 1.715 0 012.71-.407 1.765 1.765 0 01.407 2.71l-8.316 12.356 9.183-.458 6.4-9.752a1.715 1.715 0 012.71-.407 1.765 1.765 0 01.407 2.711l-4.474 7.15 9.572-.331a1.765 1.765 0 011.954 1.923 1.765 1.765 0 01-1.923 1.953l-9.572.332 5.356 6.687a2.113 2.113 0 01-.366 3.105 1.992 1.992 0 01-2.719-.239l-7.178-8.993-8.536.456 9.533 11.7a1.93 1.93 0 11-2.957 2.48l-11.232-13.758-16.034 1.03a9.146 9.146 0 01-2.295 4.416l8.38 13.26 18.247.768a1.987 1.987 0 011.954 1.923 2.344 2.344 0 01-2.184 2.087l-15.011-.79 4.582 7.081 11.907.427a1.987 1.987 0 011.953 1.923 2.344 2.344 0 01-2.183 2.086l-8.673-.451 5.108 8.112a2.2 2.2 0 01-.494 2.854c-1.03.525-2.068.404-2.593-.627l-5.108-8.112-2.786 7.91a1.631 1.631 0 01-2.448.923 1.933 1.933 0 01-1.314-2.578l3.93-10.768-4.583-7.082-5.068 13.622a1.631 1.631 0 01-2.448.923 1.933 1.933 0 01-1.313-2.578l6.204-16.47-8.38-13.264c-.132-.257-2.972.54-4.528.035l-6.881 13.896 8.143 15.981a2.025 2.025 0 11-3.609 1.84l-6.83-13.405-.51.91-3.443 6.625 5.254 10.31a2.025 2.025 0 11-3.609 1.84l-3.94-7.734-4.463 8.447a2.015 2.015 0 01-2.844.796c-1.297-.638-2.723-.885-2.344-2.053z" fill="#b2d5ff"/></g></svg>