<svg xmlns="http://www.w3.org/2000/svg" width="396.801" height="1446.757" viewBox="0 0 396.801 1446.757">
  <g id="snowflake_left" transform="translate(-48.199 -6819.163)">
    <g id="snowflakes_2" transform="translate(396.684 8023.092) rotate(159)">
      <path id="Path_3354" data-name="Path 3354" d="M32.24,38.724a2.168,2.168,0,0,1-1.419-.568,15.551,15.551,0,0,1-5.108-4.541,19.564,19.564,0,0,1-1.987-4.257,12.5,12.5,0,0,1-.568-4.541c0-.568.284-1.135.284-1.7,0-.284,0-.284-.284-.568A17.228,17.228,0,0,1,20.32,20.56c-.284-.284-.284,0-.568.284.284.284,0,.851,0,1.419-.568,1.419-.284,3.122-.284,4.541a9.02,9.02,0,0,0,.851,2.554.991.991,0,0,0,.284.568c0,.284,0,.284-.284.284-.851-.284-1.419-1.135-1.987-1.7a16.091,16.091,0,0,1-2.27-3.689,6.469,6.469,0,0,1-.851-3.122,3.109,3.109,0,0,1,0-2.27c0-.284,0-.568-.568-.568s-1.419.284-1.987.284a13.817,13.817,0,0,1-3.406.284,18.736,18.736,0,0,1-3.973.284c-1.135,0-1.987.284-3.122.284-.284,0-.568,0-.284.568A10.083,10.083,0,0,1,2.44,23.4c.284,1.135.568,2.554.851,3.689.284,1.7.851,3.122,1.135,4.825,0,.568.284,1.135.284,1.7,0,.284.284.284.568.284l1.7-.851A14.644,14.644,0,0,1,10.1,32.48c1.987,0,3.689.851,5.676,1.419h0c.284.284.568.284.568.568s-.284,0-.568,0a10.016,10.016,0,0,0-3.973.851,12.793,12.793,0,0,0-3.973,2.838c-.284.284-.284.284,0,.568.568.851,1.419,1.419,1.987,2.27l.568.568c0,.284.284,0,.284,0,.568,0,1.135-.568,1.7-.851a12.539,12.539,0,0,1,4.541-1.7,16.183,16.183,0,0,1,3.689.284,25.649,25.649,0,0,1,7.663,3.122c.284,0,.284.284.568.568a.278.278,0,0,1,.284.284c0,.284,0,.284-.284.284A12.49,12.49,0,0,1,26,42.981c-1.135-.284-2.27-.284-3.406-.568a6.249,6.249,0,0,0-2.27-.284c-1.135-.284-1.987-.284-3.122-.568-.284,0-.568,0-.568.284l-3.122,3.122-.851.851c-.284.284-.284.284,0,.568l3.122,3.122,1.135,1.135a1.043,1.043,0,0,0,.851.284c1.135-.284,2.27-.284,3.689-.568a7.1,7.1,0,0,1,3.689-.851c.851,0,1.7-.284,2.554-.284.284,0,.284,0,.284.284.284.851.284.851-.568,1.419l-3.406,1.7a16.268,16.268,0,0,1-3.973,1.135,10.749,10.749,0,0,1-4.257,0,13.834,13.834,0,0,1-3.122-1.135,11.112,11.112,0,0,1-2.838-2.27c-.284-.284-.284-.284-.568,0L6.7,52.914c-.284.284-.284.284,0,.568a13.654,13.654,0,0,0,3.122,2.554c1.135.568,2.554,1.135,3.973,1.7a.278.278,0,0,1,.284.284h-.284c-.851.284-1.987.568-3.122.851a10.749,10.749,0,0,1-4.257,0,5.7,5.7,0,0,1-2.27-1.135c-.284-.284-.284-.284-.568.284a6.679,6.679,0,0,0-.568,2.27c-.284,1.135-.568,1.987-.851,3.122-.284,1.419-.851,2.838-1.135,3.973S.454,69.375.17,70.226s-.284,1.135.568,1.135c1.419.284,2.554.284,3.973.568.568.284,1.7.284,2.554.568a16.609,16.609,0,0,1,3.689.568c.568,0,1.135.284,1.7.284.284,0,.284,0,.284-.284a10.2,10.2,0,0,1,.568-3.122,13.079,13.079,0,0,1,2.554-4.825,6.7,6.7,0,0,1,2.554-2.27c.284-.284.568-.568.851-.284s0,.568-.284.851a16,16,0,0,0-1.135,3.406,8.1,8.1,0,0,0,0,3.689,4.034,4.034,0,0,0,.568,1.7H18.9c.851-.568,1.987-1.135,2.838-1.7a.278.278,0,0,0,.284-.284q0-.426,0-.851a16.041,16.041,0,0,1,0-3.689,14.592,14.592,0,0,1,4.257-7.947,17.069,17.069,0,0,1,3.689-2.554h.568c.284.284.568.568.568.851.284.284.284.284,0,.568a49.331,49.331,0,0,1-3.689,4.257,49.334,49.334,0,0,1-3.689,4.257,1.043,1.043,0,0,0-.284.851c.284,1.419.851,2.838,1.135,4.541,0,.284.284.568.284,1.135h.851c.284,0,.568-.284,1.135-.284a8.4,8.4,0,0,1,2.838-.568c.851-.284,1.419-.284,2.27-.568a.278.278,0,0,0,.284-.284c.568-1.7,1.135-3.122,1.7-4.825.568-1.135.851-2.27,1.419-3.689.284-.568.284-1.135.568-1.7.284-.284.284-.568.568-.284.284,0,.851.284,1.135.284a.278.278,0,0,1,.284.284,18.6,18.6,0,0,1,0,3.973,16.568,16.568,0,0,1-2.27,6.244,12.383,12.383,0,0,1-4.825,4.541c-.284.284-.851.284-1.135.568-.284,0-.284.284-.284.568,0,.851,0,1.7,0,2.27q0,.426,0,.851c0,.568,0,.568.568.568a12.35,12.35,0,0,0,5.392-2.838c.851-.851,1.419-1.7,2.27-2.554l.284-.284c.284,0,0,.284.284.284,0,.568,0,1.135,0,1.419a14.528,14.528,0,0,1-2.838,5.96,14.875,14.875,0,0,1-3.122,2.838c-.284.284-.284.284,0,.568l3.406,4.257a59.451,59.451,0,0,1,3.973,4.825l.851.851c.284.284.284.284.568,0,1.135-1.135,2.27-2.554,3.406-3.689,1.7-1.987,3.689-3.973,5.392-6.244.284-.284.284-.284,0-.568a18.586,18.586,0,0,1-5.108-4.257A9.346,9.346,0,0,1,42.74,76.47a3.109,3.109,0,0,1,0-2.27c0-.284,0-.568.284-.568s.284.284.568.284c.568.568,1.135,1.419,1.987,2.27a9.621,9.621,0,0,0,3.973,2.554c.851.284,1.987.568,2.838.851.284,0,.284,0,.284-.284l.851-3.406c0-.284,0-.568-.284-.568l-2.554-.851A11.378,11.378,0,0,1,46.43,70.51a9.951,9.951,0,0,1-1.7-3.973,19.884,19.884,0,0,1-.851-3.973,4.83,4.83,0,0,0-.284-1.987c0-.284,0-.568.284-.568s.568-.284,1.135-.284c.284,0,.284,0,.568.284.568,1.135,1.135,2.554,1.7,3.689.851,1.7,1.419,3.406,2.27,5.108.284.284.284.851.568,1.135a.278.278,0,0,0,.284.284,14.244,14.244,0,0,0,3.406.568,10.083,10.083,0,0,0,2.838.568c.284,0,.284,0,.284-.284a5.262,5.262,0,0,1,.568-1.987c.284-1.135.568-2.27.851-3.689,0-.284,0-.568-.284-.568-1.419-1.419-2.554-2.838-3.973-4.257-1.135-1.419-2.554-2.838-3.689-4.257-.284-.284-.284-.284,0-.568a6.2,6.2,0,0,0,.851-1.419c0-.284.284-.284.284,0a14.939,14.939,0,0,1,5.676,4.541,8.878,8.878,0,0,1,1.419,2.838c.284.851.568,1.419.851,2.27a18.543,18.543,0,0,1,0,3.973v.284c-.284.568,0,.851.568,1.135.851.568,1.7.851,2.554,1.419h.284a8.286,8.286,0,0,0,.568-2.554,13.818,13.818,0,0,0-.284-3.406,4.034,4.034,0,0,0-.568-1.7c-.284-.568-.284-1.135-.568-1.7v-.284h.284a9.791,9.791,0,0,1,2.554,2.27A16.005,16.005,0,0,1,68,69.091a7.053,7.053,0,0,1,.284,2.27.278.278,0,0,0,.284.284c1.135-.284,2.554-.284,3.689-.568a6.248,6.248,0,0,1,2.27-.284c1.987-.568,3.406-.851,4.825-1.135.568,0,1.419-.284,1.987-.284.284,0,.568-.284.284-.568l-1.7-5.108c-.284-1.135-.851-2.27-1.135-3.406-.568-1.419-.851-2.838-1.419-4.257,0-.284-.284-.284-.568-.284a10.492,10.492,0,0,1-3.122,1.419,13.817,13.817,0,0,1-3.406.284,14.245,14.245,0,0,1-3.406-.568c-.568-.284-1.135-.284-1.7-.851a2.559,2.559,0,0,1,1.419-.284,13.379,13.379,0,0,0,4.257-1.7,14.875,14.875,0,0,0,3.122-2.838c.284-.284,0-.284,0-.284-.851-.851-1.987-1.7-2.838-2.554-.284-.284-.568-.284-.568,0a10.8,10.8,0,0,1-3.689,2.554,9.064,9.064,0,0,1-5.392.851c-.851,0-1.7-.284-2.554-.284-.851-.284-1.987-.568-2.838-.851a19.074,19.074,0,0,1-3.406-1.7c-.284-.284-.284-.284-.284-.568,0-.851,0-.851.851-.851a11.641,11.641,0,0,0,3.122.284,12.727,12.727,0,0,0,3.122.284c.851,0,1.7.284,2.554.284.568,0,1.135.284,1.987.284.284,0,.568,0,.568-.284a30.378,30.378,0,0,0,3.973-4.541c.284-.284.284-.284,0-.568-1.419-1.135-2.554-2.27-3.973-3.406-.568-.568-.851-.568-1.419-.284a7.43,7.43,0,0,1-3.689,1.7c-1.419.284-2.554.568-3.973.851a7.857,7.857,0,0,1-2.554.284H52.39a.278.278,0,0,1-.284-.284c0-.284,0-.284.284-.284a9.446,9.446,0,0,1,2.838-1.7,16,16,0,0,1,3.406-1.135,9.655,9.655,0,0,1,2.838-.284,15.386,15.386,0,0,1,7.1,1.7,1.474,1.474,0,0,0,1.135.568c.284.284.284,0,.568,0a24.549,24.549,0,0,1,2.838-1.987c.284-.284.284-.284,0-.568A10.414,10.414,0,0,0,68.283,35.6a16.182,16.182,0,0,0-3.689-.284c-.284,0-.284,0-.284-.284s0-.284.284-.284a8.5,8.5,0,0,1,2.838-1.135c.568,0,.851-.284,1.419-.284a9.351,9.351,0,0,1,3.973,0,7.556,7.556,0,0,1,3.406.851c.568.284.568.284.568-.284.284-1.135.568-2.27.851-3.122.284-.568.284-1.419.568-1.987.284-1.135.568-1.987.851-3.122.284-.851.284-1.419.568-2.27,0-.568.284-.851.284-1.419,0-.284,0-.284-.284-.284a19.164,19.164,0,0,1-3.973-.568,24.839,24.839,0,0,0-4.541-.568,9.655,9.655,0,0,0-2.838-.284c-.568,0-1.135-.284-1.987-.284-.284,0-.284,0-.284.284v1.7a16.071,16.071,0,0,1-.851,5.108,6.712,6.712,0,0,1-3.122,3.689c-.284,0-.568.284-.568,0-.284,0,0-.284,0-.568a14.379,14.379,0,0,0,.568-3.689,13.816,13.816,0,0,0-.284-3.406c-.284-.851-.568-1.419-.851-2.27,0-.284-.284-.284-.568-.284-1.135.568-2.27.851-3.406,1.419a.278.278,0,0,0-.284.284c.284.851.568,1.987.851,3.122,0,.851,0,1.987,0,2.838a14.257,14.257,0,0,1-1.419,3.689c-.284.284-.284.568-.568,1.135a36.549,36.549,0,0,1-4.541,4.825,6.2,6.2,0,0,1-1.419.851.278.278,0,0,0-.284.284h-.284v-.284a13.836,13.836,0,0,0,.851-1.987,80.366,80.366,0,0,1,5.676-7.947.532.532,0,0,0,0-.851c-.568-1.135-.851-2.27-1.419-3.406-.284-.851-.568-1.419-.851-2.27,0-.284-.284-.284-.568-.284-.851.284-1.419.568-2.27.851s-1.987.851-2.838,1.135c-.568.284-.568.851-.851,1.419a8.287,8.287,0,0,0-.568,2.554l-.851,3.406c-.284.851-.284,1.419-.568,2.27l-.851,2.554c0-.284-.284-.851-.284-1.135a15.432,15.432,0,0,1,0-5.108,15.709,15.709,0,0,1,2.838-6.244,13.871,13.871,0,0,1,5.108-3.973c.284,0,.568-.284.568-.851,0-1.135,0-1.987,0-3.122,0-.284,0-.568-.568-.284A10.813,10.813,0,0,0,48.7,16.3a11.379,11.379,0,0,0-4.257,3.973c0,.284-.284.284-.568.568s-.284,0-.284,0v-.568a8.287,8.287,0,0,1,.568-2.554,25.95,25.95,0,0,1,1.987-3.973,9.783,9.783,0,0,1,3.406-3.406c.284-.284.284-.284,0-.568l-5.108-5.96A35.947,35.947,0,0,1,41.321.126c-.284-.284-.284,0-.568,0a42.467,42.467,0,0,0-3.122,3.689c-1.987,1.987-3.689,4.257-5.676,6.244-.284.284-.284.284,0,.568a8.37,8.37,0,0,1,3.973,3.689,11.861,11.861,0,0,1,1.135,2.838c.284.568.284,1.419.568,1.987h0c0,.284,0,.284,0,.568-.284,0-.284,0-.284-.284l-1.7-1.7a21.169,21.169,0,0,0-3.406-1.987c-1.135,0-1.987-.284-2.554-.284-.284,0-.284,0-.284.284,0,.568-.284,1.135-.284,1.7s-.284,1.135-.284,1.987c0,.284,0,.284.284.568.851.284,1.419.284,2.27.568A9.411,9.411,0,0,1,35.361,23.4a12.349,12.349,0,0,1,2.27,4.257c.284,1.135.568,1.987.851,3.122,0,.851.284,1.419.284,2.27s0,1.7,0,2.554c0,.284,0,.568-.568.568a1.043,1.043,0,0,0-.851.284c-.284,0-.284,0-.284-.284-.284-1.135-.568-2.554-.851-3.689a23.643,23.643,0,0,0-1.135-4.257l-.851-3.406a.61.61,0,0,0-.568-.568c-1.987-.568-3.689-1.419-5.676-1.987-.284,0-.284,0-.284.284-.284,1.135-.851,1.987-1.135,3.122-.284.851-.568,1.419-.851,2.27q0,.426,0,.851a46.225,46.225,0,0,1,3.122,4.825c1.135,1.7,2.27,3.406,3.406,5.392C31.956,38.44,31.956,38.44,32.24,38.724Z" transform="translate(0 0)" fill="#99cfff"/>
    </g>
    <g id="snowflakes_2-2" data-name="snowflakes_2" transform="translate(213.115 7257.839) rotate(-178)">
      <path id="Path_3354-2" data-name="Path 3354" d="M45.588,54.756a3.065,3.065,0,0,1-2.007-.8,21.99,21.99,0,0,1-7.224-6.421,27.665,27.665,0,0,1-2.809-6.02,17.672,17.672,0,0,1-.8-6.421c0-.8.4-1.605.4-2.408,0-.4,0-.4-.4-.8a24.361,24.361,0,0,1-4.013-2.809c-.4-.4-.4,0-.8.4.4.4,0,1.2,0,2.007-.8,2.007-.4,4.414-.4,6.421,0,1.2.8,2.408,1.2,3.612a1.4,1.4,0,0,0,.4.8c0,.4,0,.4-.4.4-1.2-.4-2.007-1.605-2.809-2.408a22.753,22.753,0,0,1-3.21-5.217,9.147,9.147,0,0,1-1.2-4.414,4.4,4.4,0,0,1,0-3.21c0-.4,0-.8-.8-.8s-2.007.4-2.809.4a19.538,19.538,0,0,1-4.816.4,26.494,26.494,0,0,1-5.618.4c-1.605,0-2.809.4-4.414.4-.4,0-.8,0-.4.8a14.258,14.258,0,0,1,.8,4.013c.4,1.605.8,3.612,1.2,5.217.4,2.408,1.2,4.414,1.605,6.822,0,.8.4,1.605.4,2.408,0,.4.4.4.8.4l2.408-1.2a20.707,20.707,0,0,1,4.414-.8c2.809,0,5.217,1.2,8.026,2.007h0c.4.4.8.4.8.8s-.4,0-.8,0a14.163,14.163,0,0,0-5.618,1.2,18.089,18.089,0,0,0-5.618,4.013c-.4.4-.4.4,0,.8.8,1.2,2.007,2.007,2.809,3.21l.8.8c0,.4.4,0,.4,0,.8,0,1.605-.8,2.408-1.2a17.731,17.731,0,0,1,6.421-2.408,22.883,22.883,0,0,1,5.217.4,36.269,36.269,0,0,1,10.835,4.414c.4,0,.4.4.8.8a.393.393,0,0,1,.4.4c0,.4,0,.4-.4.4a17.661,17.661,0,0,1-4.013-.8c-1.605-.4-3.21-.4-4.816-.8a8.836,8.836,0,0,0-3.21-.4c-1.605-.4-2.809-.4-4.414-.8-.4,0-.8,0-.8.4L19.1,63.585l-1.2,1.2c-.4.4-.4.4,0,.8l4.414,4.414,1.605,1.605a1.474,1.474,0,0,0,1.2.4c1.605-.4,3.21-.4,5.217-.8a10.04,10.04,0,0,1,5.217-1.2c1.2,0,2.408-.4,3.612-.4.4,0,.4,0,.4.4.4,1.2.4,1.2-.8,2.007L33.95,74.421a23,23,0,0,1-5.618,1.605,15.2,15.2,0,0,1-6.02,0A19.562,19.562,0,0,1,17.9,74.421a15.713,15.713,0,0,1-4.013-3.21c-.4-.4-.4-.4-.8,0L9.47,74.822c-.4.4-.4.4,0,.8a19.307,19.307,0,0,0,4.414,3.612c1.605.8,3.612,1.605,5.618,2.408a.393.393,0,0,1,.4.4h-.4c-1.2.4-2.809.8-4.414,1.2a15.2,15.2,0,0,1-6.02,0,8.066,8.066,0,0,1-3.21-1.605c-.4-.4-.4-.4-.8.4a9.445,9.445,0,0,0-.8,3.21c-.4,1.605-.8,2.809-1.2,4.414-.4,2.007-1.2,4.013-1.605,5.618S.641,98.1.24,99.3s-.4,1.605.8,1.605c2.007.4,3.612.4,5.618.8.8.4,2.408.4,3.612.8a23.486,23.486,0,0,1,5.217.8c.8,0,1.605.4,2.408.4.4,0,.4,0,.4-.4a14.427,14.427,0,0,1,.8-4.414,18.494,18.494,0,0,1,3.612-6.822,9.475,9.475,0,0,1,3.612-3.21c.4-.4.8-.8,1.2-.4s0,.8-.4,1.2a22.624,22.624,0,0,0-1.605,4.816,11.454,11.454,0,0,0,0,5.217,5.7,5.7,0,0,0,.8,2.408h.4c1.2-.8,2.809-1.605,4.013-2.408a.393.393,0,0,0,.4-.4q0-.6,0-1.2c-.4-1.605,0-3.612,0-5.217a20.633,20.633,0,0,1,6.02-11.237,24.136,24.136,0,0,1,5.217-3.612h.8c.4.4.8.8.8,1.2.4.4.4.4,0,.8a69.755,69.755,0,0,1-5.217,6.02,69.759,69.759,0,0,1-5.217,6.02,1.474,1.474,0,0,0-.4,1.2c.4,2.007,1.2,4.013,1.605,6.421,0,.4.4.8.4,1.605h1.2c.4,0,.8-.4,1.605-.4a11.872,11.872,0,0,1,4.013-.8c1.2-.4,2.007-.4,3.21-.8a.393.393,0,0,0,.4-.4c.8-2.408,1.605-4.414,2.408-6.822.8-1.605,1.2-3.21,2.007-5.217.4-.8.4-1.605.8-2.408.4-.4.4-.8.8-.4.4,0,1.2.4,1.605.4a.393.393,0,0,1,.4.4c0,2.007.4,3.612,0,5.618A23.427,23.427,0,0,1,50.4,99.3a17.511,17.511,0,0,1-6.822,6.421c-.4.4-1.2.4-1.605.8-.4,0-.4.4-.4.8,0,1.2,0,2.408,0,3.21q0,.6,0,1.2c0,.8,0,.8.8.8A17.463,17.463,0,0,0,50,108.532c1.2-1.2,2.007-2.408,3.21-3.612l.4-.4c.4,0,0,.4.4.4,0,.8,0,1.605,0,2.007A20.544,20.544,0,0,1,50,115.354a21.034,21.034,0,0,1-4.414,4.013c-.4.4-.4.4,0,.8l4.816,6.02a84.065,84.065,0,0,1,5.618,6.822l1.2,1.2c.4.4.4.4.8,0,1.605-1.605,3.21-3.612,4.816-5.217,2.408-2.809,5.217-5.618,7.625-8.829.4-.4.4-.4,0-.8a26.282,26.282,0,0,1-7.224-6.02,13.215,13.215,0,0,1-2.809-5.217,4.4,4.4,0,0,1,0-3.21c0-.4,0-.8.4-.8s.4.4.8.4c.8.8,1.605,2.007,2.809,3.21a13.6,13.6,0,0,0,5.618,3.612c1.2.4,2.809.8,4.013,1.2.4,0,.4,0,.4-.4l1.2-4.816c0-.4,0-.8-.4-.8l-3.612-1.2a16.089,16.089,0,0,1-6.02-5.618,14.07,14.07,0,0,1-2.408-5.618c-.4-2.007-1.2-3.612-1.2-5.618a6.829,6.829,0,0,0-.4-2.809c0-.4,0-.8.4-.8s.8-.4,1.605-.4c.4,0,.4,0,.8.4.8,1.605,1.605,3.612,2.408,5.217,1.2,2.408,2.007,4.816,3.21,7.224.4.4.4,1.2.8,1.605a.393.393,0,0,0,.4.4,20.142,20.142,0,0,0,4.816.8,14.258,14.258,0,0,0,4.013.8c.4,0,.4,0,.4-.4a7.44,7.44,0,0,1,.8-2.809c.4-1.605.8-3.21,1.2-5.217,0-.4,0-.8-.4-.8-2.007-2.007-3.612-4.013-5.618-6.02-1.605-2.007-3.612-4.013-5.217-6.02-.4-.4-.4-.4,0-.8a8.772,8.772,0,0,0,1.2-2.007c0-.4.4-.4.4,0A21.124,21.124,0,0,1,80.9,83.249a12.553,12.553,0,0,1,2.007,4.013c.4,1.2.8,2.007,1.2,3.21,0,1.605.4,3.612,0,5.618v.4c-.4.8,0,1.2.8,1.605,1.2.8,2.408,1.2,3.612,2.007h.4a11.717,11.717,0,0,0,.8-3.612,19.539,19.539,0,0,0-.4-4.816,5.7,5.7,0,0,0-.8-2.408c-.4-.8-.4-1.605-.8-2.408v-.4h.4c1.605.8,2.408,2.007,3.612,3.21A22.632,22.632,0,0,1,96.152,97.7a9.973,9.973,0,0,1,.4,3.21.393.393,0,0,0,.4.4c1.605-.4,3.612-.4,5.217-.8a8.836,8.836,0,0,1,3.21-.4c2.809-.8,4.816-1.2,6.822-1.605.8,0,2.007-.4,2.809-.4.4,0,.8-.4.4-.8l-2.408-7.224c-.4-1.605-1.2-3.21-1.605-4.816-.8-2.007-1.2-4.013-2.007-6.02,0-.4-.4-.4-.8-.4a14.835,14.835,0,0,1-4.414,2.007,19.538,19.538,0,0,1-4.816.4,20.142,20.142,0,0,1-4.816-.8c-.8-.4-1.605-.4-2.408-1.2a3.618,3.618,0,0,1,2.007-.4,18.919,18.919,0,0,0,6.02-2.408,21.034,21.034,0,0,0,4.414-4.013c.4-.4,0-.4,0-.4-1.2-1.2-2.809-2.408-4.013-3.612-.4-.4-.8-.4-.8,0a15.271,15.271,0,0,1-5.217,3.612,12.817,12.817,0,0,1-7.625,1.2c-1.2,0-2.408-.4-3.612-.4-1.2-.4-2.809-.8-4.013-1.2-1.605-.8-3.21-1.2-4.816-2.408-.4-.4-.4-.4-.4-.8,0-1.2,0-1.2,1.2-1.2a16.461,16.461,0,0,0,4.414.4,18,18,0,0,0,4.414.4c1.2,0,2.408.4,3.612.4.8,0,1.605.4,2.809.4.4,0,.8,0,.8-.4a42.954,42.954,0,0,0,5.618-6.421c.4-.4.4-.4,0-.8-2.007-1.605-3.612-3.21-5.618-4.816-.8-.8-1.2-.8-2.007-.4a10.506,10.506,0,0,1-5.217,2.408c-2.007.4-3.612.8-5.618,1.2a11.11,11.11,0,0,1-3.612.4h-.8a.393.393,0,0,1-.4-.4c0-.4,0-.4.4-.4a13.357,13.357,0,0,1,4.013-2.408,22.626,22.626,0,0,1,4.816-1.605,13.652,13.652,0,0,1,4.013-.4,21.756,21.756,0,0,1,10.033,2.408,2.085,2.085,0,0,0,1.605.8c.4.4.4,0,.8,0a34.713,34.713,0,0,1,4.013-2.809c.4-.4.4-.4,0-.8a14.725,14.725,0,0,0-6.822-4.013,22.882,22.882,0,0,0-5.217-.4c-.4,0-.4,0-.4-.4s0-.4.4-.4a12.018,12.018,0,0,1,4.013-1.605c.8,0,1.2-.4,2.007-.4a13.223,13.223,0,0,1,5.618,0,10.685,10.685,0,0,1,4.816,1.2c.8.4.8.4.8-.4.4-1.605.8-3.21,1.2-4.414.4-.8.4-2.007.8-2.809.4-1.605.8-2.809,1.2-4.414.4-1.2.4-2.007.8-3.21,0-.8.4-1.2.4-2.007,0-.4,0-.4-.4-.4a27.1,27.1,0,0,1-5.618-.8,35.123,35.123,0,0,0-6.421-.8,13.652,13.652,0,0,0-4.013-.4c-.8,0-1.605-.4-2.809-.4-.4,0-.4,0-.4.4v2.408a22.725,22.725,0,0,1-1.2,7.224,9.491,9.491,0,0,1-4.414,5.217c-.4,0-.8.4-.8,0-.4,0,0-.4,0-.8a20.333,20.333,0,0,0,.8-5.217,19.537,19.537,0,0,0-.4-4.816c-.4-1.2-.8-2.007-1.2-3.21,0-.4-.4-.4-.8-.4-1.605.8-3.21,1.2-4.816,2.007a.393.393,0,0,0-.4.4c.4,1.2.8,2.809,1.2,4.414,0,1.2,0,2.809,0,4.013A20.16,20.16,0,0,1,79.3,45.125c-.4.4-.4.8-.8,1.605a51.681,51.681,0,0,1-6.421,6.822,8.772,8.772,0,0,1-2.007,1.2.393.393,0,0,0-.4.4h-.4v-.4a19.564,19.564,0,0,0,1.2-2.809,113.64,113.64,0,0,1,8.026-11.237.752.752,0,0,0,0-1.2c-.8-1.605-1.2-3.21-2.007-4.816-.4-1.2-.8-2.007-1.2-3.21,0-.4-.4-.4-.8-.4-1.2.4-2.007.8-3.21,1.2s-2.809,1.2-4.013,1.605c-.8.4-.8,1.2-1.2,2.007a11.718,11.718,0,0,0-.8,3.612l-1.2,4.816c-.4,1.2-.4,2.007-.8,3.21l-1.2,3.612c0-.4-.4-1.2-.4-1.605a21.821,21.821,0,0,1,0-7.224,22.213,22.213,0,0,1,4.013-8.829,19.613,19.613,0,0,1,7.224-5.618c.4,0,.8-.4.8-1.2,0-1.605,0-2.809,0-4.414,0-.4,0-.8-.8-.4-1.2,0-2.809.8-4.013,1.2a16.09,16.09,0,0,0-6.02,5.618c0,.4-.4.4-.8.8s-.4,0-.4,0v-.8a11.718,11.718,0,0,1,.8-3.612,36.694,36.694,0,0,1,2.809-5.618,13.834,13.834,0,0,1,4.816-4.816c.4-.4.4-.4,0-.8L62.844,5.4A50.829,50.829,0,0,1,58.43.178c-.4-.4-.4,0-.8,0A60.05,60.05,0,0,0,53.213,5.4C50.4,8.2,48,11.415,45.187,14.224c-.4.4-.4.4,0,.8A11.835,11.835,0,0,1,50.8,20.244a16.772,16.772,0,0,1,1.605,4.013c.4.8.4,2.007.8,2.809h0c0,.4,0,.4,0,.8-.4,0-.4,0-.4-.4L50.4,25.06a29.933,29.933,0,0,0-4.816-2.809c-1.605,0-2.809-.4-3.612-.4-.4,0-.4,0-.4.4,0,.8-.4,1.605-.4,2.408s-.4,1.605-.4,2.809c0,.4,0,.4.4.8,1.2.4,2.007.4,3.21.8A13.307,13.307,0,0,1,50,33.086c1.605,1.605,2.408,4.013,3.21,6.02.4,1.605.8,2.809,1.2,4.414,0,1.2.4,2.007.4,3.21s0,2.408,0,3.612c0,.4,0,.8-.8.8a1.474,1.474,0,0,0-1.2.4c-.4,0-.4,0-.4-.4-.4-1.605-.8-3.612-1.2-5.217a33.432,33.432,0,0,0-1.605-6.02l-1.2-4.816a.863.863,0,0,0-.8-.8c-2.809-.8-5.217-2.007-8.026-2.809-.4,0-.4,0-.4.4-.4,1.605-1.2,2.809-1.605,4.414-.4,1.2-.8,2.007-1.2,3.21q0,.6,0,1.2a65.364,65.364,0,0,1,4.414,6.822c1.605,2.408,3.21,4.816,4.816,7.625C45.186,54.355,45.186,54.355,45.588,54.756Z" transform="translate(0 0)" fill="#99cfff"/>
    </g>
    <path id="snowflakes_1" d="M197.337,96.254h0l-16.723-2.6L176.9,94.767l8.919,4.088c2.23.743,2.973,3.345,2.23,5.575s-3.345,2.973-5.574,2.23l-17.838-7.8-5.946,1.858,17.1,10.034a4.08,4.08,0,0,1-4.088,7.061L147.91,104.058,137.5,107.031l-6.689,6.689,13.007,2.6,13.007-2.23,9.291,10.034h0l-13.007,4.831-10.406-8.176L129.7,117.437l2.6,9.291,7.8,7.433,27.5-1.115a4.278,4.278,0,0,1,.372,8.548l-19.7.743,4.088,4.088.372.372,19.7,1.487a4.1,4.1,0,0,1-.743,8.176l-9.662-.743,2.6,2.6h0l15.98,5.2h0l10.034,25.271L165,179.5h0l-5.946-15.609h0l-2.6-2.6,1.115,9.663a4.1,4.1,0,1,1-8.176.743l-2.23-19.325-.372-.372-4.088-4.088v19.7a4.088,4.088,0,1,1-8.176,0v-27.5l-7.8-7.433-9.291-2.23,3.716,13.007,8.548,10.034-4.46,13.007h0l-10.777-8.548,1.858-13.379L112.6,131.559l-6.689,7.061-2.6,10.406,14.865,23.413a4.02,4.02,0,1,1-6.689,4.46l-10.406-16.724L99.6,166.121l8.548,17.467a4.155,4.155,0,1,1-7.433,3.716l-4.088-8.919-.743,3.716,3.345,16.352h0L82.5,219.637l-4.831-26.758h0l10.406-13.007.743-3.716-7.8,5.575a4.237,4.237,0,1,1-5.2-6.689l15.98-11.521,1.487-5.946-17.1,9.663a4.08,4.08,0,0,1-4.088-7.061L95.51,147.168l2.6-10.406-2.6-9.291-9.291,9.663-4.46,12.636-13.379,2.6h0l2.23-13.751,12.264-4.831,9.291-9.663-9.291-2.23L72.468,124.87,59.461,149.4c-1.115,1.858-3.716,2.973-5.574,1.858s-2.973-3.716-1.858-5.575l9.291-17.467L55.745,129.7h-.372L44.224,146.053a4.02,4.02,0,1,1-6.689-4.46l5.574-8.176-3.716,1.115h0L26.758,145.681h0L0,141.593l20.811-17.467h0l16.352,2.23h0l3.716-1.115-8.919-4.088c-2.23-.743-2.973-3.345-2.23-5.575s3.345-2.973,5.574-2.23l17.838,7.8h.372l5.574-1.487-17.1-10.034a4.08,4.08,0,0,1,4.088-7.061l23.784,13.751,10.777-2.23,6.689-6.689-13.007-3.345-13.007,2.23L52.4,95.882h0l13.007-4.831,10.406,8.176,13.007,3.345-2.6-9.291-7.8-7.433-27.5,1.115a4.751,4.751,0,0,1-4.46-4.088,4.751,4.751,0,0,1,4.088-4.46l19.325-.372-4.46-4.46L45.711,72.1a4.1,4.1,0,0,1,.743-8.176l9.662.743-2.6-2.6-15.98-5.575h0L27.5,31.217l25.643,9.291h0L59.09,56.117l2.6,2.6-1.115-9.663a4.1,4.1,0,1,1,8.176-.743l2.23,19.325,4.46,4.46V52.4a4.088,4.088,0,1,1,8.176,0V79.9l7.8,7.433,9.291,2.23L97,76.557,88.449,66.523l4.46-13.007h0l10.777,8.548-1.858,13.379,3.716,13.007,6.689-7.061,2.6-10.406L99.969,47.569a4.092,4.092,0,0,1,1.115-5.575,3.882,3.882,0,0,1,5.575,1.487L117.064,60.2l1.487-5.946L110.375,36.42a4.222,4.222,0,0,1,1.858-5.575c1.858-1.115,4.46,0,5.574,1.858l4.088,8.919.743-3.716-3.345-16.352h0L136.389,0l4.831,26.758h0L130.815,39.765l-.743,3.716,7.8-5.575a4.237,4.237,0,0,1,5.2,6.689L127.1,56.117l-1.487,5.946,17.1-9.663a4.08,4.08,0,0,1,4.088,7.061L123.01,73.212l-2.6,10.406,2.23,9.291,9.291-9.663,4.46-12.636,13.379-2.6h0l-2.23,13.751-12.264,4.831-9.291,9.663,9.291,2.23L145.68,95.51l13.007-24.528c1.115-1.858,3.716-2.973,5.574-1.858s2.973,3.716,1.858,5.575l-9.291,17.467,5.574-1.858,11.149-15.98a4.02,4.02,0,1,1,6.689,4.46l-5.574,8.176,3.716-1.115L191.019,74.7h0l27.129,4.088L197.337,96.254Z" transform="translate(48.199 7656.644)" fill="#cce7ff"/>
    <path id="snowflakes_4" d="M82.285,22.744l-6.9,4.855,7.155,2.3a1.554,1.554,0,0,1,1.022,2.3,1.828,1.828,0,0,1-2.3,1.278L71.552,30.41l-6.133,4.344,12.522,4.089a1.554,1.554,0,0,1,1.022,2.3,1.828,1.828,0,0,1-2.3,1.278L61.586,37.565,50.342,45.743a4.814,4.814,0,0,1,.511,2.044q0,1.15,0,2.3l12.777,5.622,13.8-7.922a1.714,1.714,0,0,1,1.533,3.067L67.464,57.5l6.9,3.067,8.944-5.111a1.714,1.714,0,0,1,1.533,3.067L78.2,62.354l7.666,3.578A1.714,1.714,0,0,1,84.33,69L76.663,65.42l2.044,7.155A1.759,1.759,0,0,1,77.43,74.62a1.63,1.63,0,0,1-2.044-1.278l-2.044-9.966-6.9-3.067,2.811,12.777a1.759,1.759,0,0,1-1.278,2.044,1.63,1.63,0,0,1-2.044-1.278L62.608,58.52,50.087,52.643c-.767,1.022-3.067,2.044-3.067,2.3L48.3,69,61.586,76.92a1.92,1.92,0,0,1,.511,2.555,1.612,1.612,0,0,1-2.3.511L48.554,73.342l.767,7.411,8.433,5.111a1.92,1.92,0,0,1,.511,2.555,1.612,1.612,0,0,1-2.3.511L49.576,85.1l.767,8.433a1.943,1.943,0,0,1-1.533,2.044c-1.022,0-1.789-.511-1.789-1.533l-.767-8.433-5.878,5.111a1.707,1.707,0,0,1-2.555-.256c-.767-.767-.256-1.789.256-2.555L46,81.008,45.231,73.6,35.01,82.542a1.707,1.707,0,0,1-2.555-.256c-.767-.767-.256-1.789.256-2.555L44.72,69.253,43.187,55.2a7.56,7.56,0,0,1-3.833-1.533L27.6,61.842V77.686a1.789,1.789,0,1,1-3.578,0V64.653l-2.044,1.533-4.089,2.555V78.964a1.789,1.789,0,1,1-3.578,0V71.3l-6.9,5.111A1.78,1.78,0,0,1,4.855,75.9c-.767-1.022-.511-1.789.511-2.555l6.9-4.855-7.155-2.3a1.554,1.554,0,0,1-1.022-2.3c0-1.022,1.022-1.533,2.044-1.022l9.711,3.322,6.133-4.344L9.455,57.754a1.554,1.554,0,0,1-1.022-2.3,1.554,1.554,0,0,1,2.3-1.022L25.81,59.287l11.5-8.177a6.014,6.014,0,0,1-.511-2.044c0-.767,0-1.278,0-2.044L24.021,41.143l-13.8,7.666a1.515,1.515,0,0,1-2.3-.767,1.559,1.559,0,0,1,.767-2.3l11.5-6.389-7.411-3.322L3.833,41.143a1.515,1.515,0,0,1-2.3-.767,1.559,1.559,0,0,1,.767-2.3l6.389-3.833L1.022,30.666a1.559,1.559,0,0,1-.767-2.3,1.559,1.559,0,0,1,2.3-.767l7.666,3.578L8.689,23.766a1.866,1.866,0,0,1,1.533-2.3,1.759,1.759,0,0,1,2.044,1.278l2.044,9.966,6.9,3.067L18.4,22.744a1.7,1.7,0,1,1,3.322-.767L25.043,37.31l13.033,5.622a8.078,8.078,0,0,1,3.578-2.555l-1.278-13.8L26.321,18.655a1.755,1.755,0,0,1-.767-2.3,2.071,2.071,0,0,1,2.555-.767l11.5,6.644-.767-7.411-9.2-5.111a1.755,1.755,0,0,1-.767-2.3,2.071,2.071,0,0,1,2.555-.767l6.644,3.833-.767-8.433A1.943,1.943,0,0,1,38.843,0c1.022,0,1.789.511,1.789,1.533L41.4,9.966l5.366-5.111a1.441,1.441,0,0,1,2.3.256,1.707,1.707,0,0,1,0,2.555l-7.411,6.9.767,7.411,9.455-8.689a1.441,1.441,0,0,1,2.3.256,1.707,1.707,0,0,1,0,2.555l-11.5,10.477,1.278,13.8c0,.256,2.555.767,3.578,1.789L58.52,33.988V18.144a1.789,1.789,0,1,1,3.578,0V31.432l.767-.511,5.366-3.833V16.866a1.789,1.789,0,1,1,3.578,0v7.666l6.9-4.855a1.78,1.78,0,0,1,2.555.511C82.03,21.21,83.052,21.977,82.285,22.744Z" transform="matrix(-0.891, 0.454, -0.454, -0.891, 445, 7780.122)" fill="#b2d5ff"/>
    <path id="snowflakes_3" d="M98.788,20.763A6.134,6.134,0,0,1,93.5,22.525L87.51,28.868l11.982,1.41c1.41,0,2.467,1.41,2.467,3.172a2.635,2.635,0,0,1-3.172,2.467L82.929,34.155l-6.7,7.4,16.916,1.762a2.65,2.65,0,0,1,2.467,1.762,2.741,2.741,0,0,1-.7,2.819L82.224,59.176l4.934,1.057,4.934,1.057,11.982-10.573a2.752,2.752,0,0,1,3.524,4.229L98.788,62.7l8.458,1.762a5.817,5.817,0,0,1,5.286-1.762,5.6,5.6,0,0,1-2.467,10.925,5.293,5.293,0,0,1-4.229-3.877l-8.458-1.762,4.934,10.925a2.684,2.684,0,1,1-4.934,2.115l-6.7-14.1-8.458-1.762-1.762-.352L87.51,80.674a3.426,3.426,0,0,1-.352,3.172,2.7,2.7,0,0,1-3.172.7L68.48,79.264l3.172,8.811,15.154,4.934A2.786,2.786,0,0,1,85.043,98.3L73.766,94.419l2.819,8.458a5.542,5.542,0,0,1,3.877,3.524,5.572,5.572,0,1,1-10.573,3.524,5.482,5.482,0,0,1,1.41-5.639l-2.467-8.106L61.784,105.7a2.868,2.868,0,0,1-3.877.7,3.217,3.217,0,0,1-.7-3.877l9.515-13.04-3.172-9.868L52.973,94.066a2.361,2.361,0,0,1-2.819,1.057,3.177,3.177,0,0,1-2.115-2.115L44.515,76.445l-6.344,6.7,3.172,15.507A2.7,2.7,0,1,1,36.057,99.7L33.59,88.075,27.6,94.419A4.923,4.923,0,0,1,26.542,99.7c-2.115,2.115-5.639,2.467-7.753.352s-2.467-5.639-.352-7.753a6.134,6.134,0,0,1,5.286-1.762L29.714,84.2l-11.982-1.41c-1.41,0-2.467-1.41-2.467-3.172a2.635,2.635,0,0,1,3.172-2.467L34.3,78.912l6.344-7.048L23.37,70.1A2.65,2.65,0,0,1,20.9,68.339a2.741,2.741,0,0,1,.7-2.819L34.647,53.89l-9.163-2.115L13.5,62.348A2.514,2.514,0,0,1,9.626,62a2.514,2.514,0,0,1,.352-3.877l8.106-7.048L9.626,49.309a5.817,5.817,0,0,1-5.286,1.762,5.412,5.412,0,0,1-4.229-6.7,5.411,5.411,0,0,1,6.7-4.229,5.293,5.293,0,0,1,4.229,3.877l8.458,1.762L14.56,34.859a2.478,2.478,0,0,1,1.41-3.524,2.478,2.478,0,0,1,3.524,1.41l6.344,14.8L35,49.309,28.3,33.8a3.426,3.426,0,0,1,.352-3.172,2.21,2.21,0,0,1,2.819-.7l16.916,5.639L45.22,25.7,30.066,20.763A2.908,2.908,0,0,1,28.3,17.238a2.908,2.908,0,0,1,3.524-1.762l11.277,3.877-2.467-8.106A5.293,5.293,0,0,1,36.41,7.371,5.572,5.572,0,1,1,46.982,3.846,5.06,5.06,0,0,1,45.925,8.78L49.1,17.591l7.048-9.515c1.057-1.41,2.467-1.41,3.877-.7,1.41,1.057,1.762,2.467.7,3.877L51.211,23.934l2.819,8.811,9.515-13.04a2.361,2.361,0,0,1,2.819-1.057,3.177,3.177,0,0,1,2.115,2.115L72,38.031l7.048-7.753L75.88,14.771a2.7,2.7,0,1,1,5.286-1.057l2.467,11.63,5.991-6.7a5.657,5.657,0,0,1,1.057-5.639c2.115-1.762,5.639-2.115,7.753,0A5.244,5.244,0,0,1,98.788,20.763ZM86.453,48.251,72,46.842,63.9,55.652l11.63,2.467ZM73.766,63.405,62.841,60.939,65.66,70.1l.7,2.467L79.757,77.15ZM60.726,73.626l-.352-1.762L57.2,62.348l-6.7,7.4-1.762,2.115,2.819,14.449ZM44.868,67.987l8.458-9.163-9.868-2.115-2.467-.352L29.714,66.577ZM42.048,50.718l2.819.7,9.868,2.115-3.172-9.515-.352-1.762-14.8-4.934Zm14.1-11.277.7,2.467,2.819,9.163,6.344-7.048,1.41-1.057-3.172-14.8Z" transform="translate(100.895 7961.003)" fill="#cce7ff"/>
    <path id="snowflakes_3-2" data-name="snowflakes_3" d="M82.333,17.308a5.113,5.113,0,0,1-4.406,1.469l-4.994,5.287,9.987,1.175c1.175,0,2.056,1.175,2.056,2.644a2.2,2.2,0,0,1-2.644,2.056L69.114,28.47l-5.581,6.169,14.1,1.469a2.209,2.209,0,0,1,2.056,1.469,2.285,2.285,0,0,1-.587,2.35l-10.575,9.4,4.112.881,4.112.881,9.987-8.812A2.294,2.294,0,0,1,89.676,45.8l-7.344,6.462,7.05,1.469a4.849,4.849,0,0,1,4.406-1.469,4.668,4.668,0,0,1-2.056,9.106,4.412,4.412,0,0,1-3.525-3.231l-7.05-1.469,4.112,9.106a2.237,2.237,0,1,1-4.112,1.762l-5.581-11.75-7.05-1.469-1.469-.294,5.875,13.219a2.855,2.855,0,0,1-.294,2.644A2.246,2.246,0,0,1,70,70.476L57.071,66.069l2.644,7.344,12.631,4.112a2.322,2.322,0,0,1-1.469,4.406l-9.4-3.231,2.35,7.05a4.619,4.619,0,0,1,3.231,2.937,4.644,4.644,0,1,1-8.812,2.937,4.569,4.569,0,0,1,1.175-4.7l-2.056-6.756L51.49,88.1a2.391,2.391,0,0,1-3.231.587,2.681,2.681,0,0,1-.587-3.231L55.6,74.588l-2.644-8.225L44.146,78.407a1.968,1.968,0,0,1-2.35.881,2.648,2.648,0,0,1-1.762-1.762L37.1,63.72,31.809,69.3l2.644,12.925a2.247,2.247,0,1,1-4.406.881L27.99,73.413,23,78.7a4.1,4.1,0,0,1-.881,4.406,4.574,4.574,0,0,1-6.756-6.169,5.113,5.113,0,0,1,4.406-1.469l4.994-5.287-9.987-1.175c-1.175,0-2.056-1.175-2.056-2.644a2.2,2.2,0,0,1,2.644-2.056l13.218,1.469L33.865,59.9,19.472,58.432a2.209,2.209,0,0,1-2.056-1.469A2.285,2.285,0,0,1,18,54.613L28.872,44.92l-7.637-1.762L11.247,51.97a2.1,2.1,0,0,1-3.231-.294,2.1,2.1,0,0,1,.294-3.231l6.756-5.875L8.016,41.1A4.849,4.849,0,0,1,3.61,42.57,4.511,4.511,0,0,1,.085,36.989a4.511,4.511,0,0,1,5.581-3.525,4.412,4.412,0,0,1,3.525,3.231l7.05,1.469-4.112-9.106A2.066,2.066,0,0,1,13.3,26.12,2.066,2.066,0,0,1,16.241,27.3l5.287,12.337L29.165,41.1,23.584,28.176a2.855,2.855,0,0,1,.294-2.644,1.842,1.842,0,0,1,2.35-.587l14.1,4.7L37.684,21.42,25.053,17.308a2.424,2.424,0,0,1-1.469-2.937A2.424,2.424,0,0,1,26.522,12.9l9.4,3.231L33.865,9.377A4.412,4.412,0,0,1,30.34,6.145a4.644,4.644,0,1,1,8.812-2.937,4.218,4.218,0,0,1-.881,4.112l2.644,7.344L46.79,6.733a2.347,2.347,0,0,1,3.231-.587,2.121,2.121,0,0,1,.587,3.231L42.678,19.951l2.35,7.344,7.931-10.869a1.968,1.968,0,0,1,2.35-.881,2.648,2.648,0,0,1,1.762,1.762L60.008,31.7l5.875-6.462L63.24,12.314a2.247,2.247,0,1,1,4.406-.881L69.7,21.126,74.7,15.545a4.715,4.715,0,0,1,.881-4.7,4.914,4.914,0,0,1,6.462,0A4.371,4.371,0,0,1,82.333,17.308ZM72.052,40.22,60.008,39.045l-6.756,7.344,9.694,2.056ZM61.477,52.851l-9.106-2.056,2.35,7.637.587,2.056,11.162,3.819ZM50.609,61.37,50.315,59.9,47.671,51.97,42.09,58.138,40.621,59.9l2.35,12.044ZM37.39,56.67l7.05-7.637L36.215,47.27l-2.056-.294-9.4,8.519ZM35.04,42.276l2.35.587,8.225,1.762-2.644-7.931-.294-1.469L30.34,31.114Zm11.75-9.4.587,2.056,2.35,7.637,5.287-5.875,1.175-.881L53.546,23.476Z" transform="translate(88.287 6819.166) rotate(19)" fill="#cce7ff"/>
    <ellipse id="Ellipse_692" data-name="Ellipse 692" cx="10.534" cy="10.534" rx="10.534" ry="10.534" transform="translate(228.981 7596)" fill="#cce7ff"/>
    <ellipse id="Ellipse_696" data-name="Ellipse 696" cx="10.534" cy="10.534" rx="10.534" ry="10.534" transform="translate(302.981 6859)" fill="#cce7ff"/>
    <ellipse id="snowflakes_5" cx="26.994" cy="26.993" rx="26.994" ry="26.993" transform="translate(103.287 7517.969)" fill="#cce7ff"/>
    <ellipse id="snowflakes_5-2" data-name="snowflakes_5" cx="26.994" cy="26.993" rx="26.994" ry="26.993" transform="translate(177.287 6997.969)" fill="#cce7ff"/>
    <path id="Path_3371" data-name="Path 3371" d="M93.156,25.748l-7.811,5.5,8.1,2.6a1.759,1.759,0,0,1,1.157,2.6A2.07,2.07,0,0,1,92,37.9L81,34.427l-6.943,4.918,14.176,4.629a1.759,1.759,0,0,1,1.157,2.6,2.07,2.07,0,0,1-2.6,1.447l-17.069-5.5L56.993,51.786a5.45,5.45,0,0,1,.579,2.314v2.6l14.465,6.365L87.659,54.1a1.941,1.941,0,0,1,1.736,3.472L76.376,65.094l7.811,3.472L94.313,62.78a1.941,1.941,0,0,1,1.736,3.472l-7.522,4.34,8.679,4.05a1.941,1.941,0,0,1-1.736,3.472l-8.679-4.05,2.314,8.1a1.992,1.992,0,0,1-1.447,2.314,1.845,1.845,0,0,1-2.314-1.447L83.03,71.748l-7.811-3.472L78.4,82.742a1.992,1.992,0,0,1-1.447,2.314A1.845,1.845,0,0,1,74.64,83.61L70.879,66.251,56.7,59.6c-.868,1.157-3.472,2.314-3.472,2.6l1.447,15.912,15.044,8.969a2.174,2.174,0,0,1,.579,2.893,1.825,1.825,0,0,1-2.6.579L54.968,83.031l.868,8.39,9.547,5.786a2.174,2.174,0,0,1,.579,2.893,1.825,1.825,0,0,1-2.6.579l-7.233-4.34.868,9.547a2.2,2.2,0,0,1-1.736,2.314c-1.157,0-2.025-.579-2.025-1.736l-.868-9.547L45.71,102.7a1.933,1.933,0,0,1-2.893-.289c-.868-.868-.289-2.025.289-2.893l8.968-7.811-.868-8.39L39.635,93.446a1.933,1.933,0,0,1-2.893-.289c-.868-.868-.289-2.025.289-2.893L50.628,78.4,48.892,62.49a8.559,8.559,0,0,1-4.34-1.736L31.245,70.012V87.949a2.025,2.025,0,1,1-4.05,0V73.194L24.88,74.93l-4.629,2.893V89.4a2.025,2.025,0,1,1-4.05,0V80.716L8.39,86.5A2.015,2.015,0,0,1,5.5,85.924c-.868-1.157-.579-2.025.579-2.893l7.811-5.5-8.1-2.6a1.759,1.759,0,0,1-1.157-2.6c0-1.157,1.157-1.736,2.314-1.157L17.937,74.93l6.943-4.918L10.7,65.383a1.759,1.759,0,0,1-1.157-2.6,1.759,1.759,0,0,1,2.6-1.157l17.069,5.5,13.019-9.258a6.809,6.809,0,0,1-.579-2.314V53.232L27.195,46.578,11.572,55.257a1.715,1.715,0,0,1-2.6-.868,1.765,1.765,0,0,1,.868-2.6l13.019-7.233-8.39-3.761L4.34,46.578a1.715,1.715,0,0,1-2.6-.868,1.765,1.765,0,0,1,.868-2.6l7.233-4.34-8.679-4.05a1.765,1.765,0,0,1-.868-2.6,1.765,1.765,0,0,1,2.6-.868l8.679,4.05-1.736-8.39a2.113,2.113,0,0,1,1.736-2.6,1.992,1.992,0,0,1,2.314,1.447L16.2,37.031,24.012,40.5,20.83,25.748a1.93,1.93,0,1,1,3.761-.868l3.761,17.358L43.106,48.6a9.146,9.146,0,0,1,4.05-2.893L45.71,30.088,29.8,21.119a1.987,1.987,0,0,1-.868-2.6,2.344,2.344,0,0,1,2.893-.868L44.842,25.17l-.868-8.39L33.559,10.994a1.987,1.987,0,0,1-.868-2.6,2.344,2.344,0,0,1,2.893-.868l7.522,4.34-.868-9.547A2.2,2.2,0,0,1,43.974,0C45.131,0,46,.579,46,1.736l.868,9.547L52.942,5.5a1.631,1.631,0,0,1,2.6.289,1.933,1.933,0,0,1,0,2.893l-8.39,7.811.868,8.39,10.7-9.836a1.631,1.631,0,0,1,2.6.289,1.933,1.933,0,0,1,0,2.893L48.314,30.088,49.76,45.71c0,.289,2.893.868,4.05,2.025l12.44-9.258V20.541a2.025,2.025,0,1,1,4.05,0V35.585l.868-.579,6.075-4.34V19.094a2.025,2.025,0,1,1,4.05,0v8.679l7.811-5.5A2.015,2.015,0,0,1,92,22.855C92.866,24.012,94.024,24.88,93.156,25.748Z" transform="matrix(-0.891, 0.454, -0.454, -0.891, 286.325, 8221.264)" fill="#b2d5ff"/>
  </g>
</svg>
