<svg xmlns="http://www.w3.org/2000/svg" width="352.815" height="1542.644"><g transform="translate(-1605.592 -6764.728)"><path d="M1897.433 8120.716a8.015 8.015 0 01-6.907 2.3l-7.828 8.288 15.656 1.842c1.842 0 3.223 1.842 3.223 4.144a3.443 3.443 0 01-4.144 3.223l-20.721-2.3-8.749 9.67 22.1 2.3a3.463 3.463 0 013.223 2.3 3.581 3.581 0 01-.921 3.684l-16.574 14.74 6.446 1.381 6.446 1.381 15.656-13.814a3.6 3.6 0 014.6 5.526l-11.512 10.13 11.051 2.3a7.6 7.6 0 016.907-2.3 7.317 7.317 0 01-3.223 14.274 6.916 6.916 0 01-5.526-5.065l-11.051-2.3 6.446 14.274a3.507 3.507 0 11-6.446 2.763l-8.739-18.42-11.051-2.3-2.3-.46 9.209 20.721a4.476 4.476 0 01-.46 4.144c-.921 1.381-2.763 1.381-4.144.921l-20.26-6.907 4.144 11.512 19.8 6.447c1.842.46 2.763 2.763 2.3 4.6s-2.763 2.763-4.6 2.3l-14.735-5.065 3.684 11.051a7.241 7.241 0 015.065 4.6c1.381 3.684-.921 7.828-4.6 9.209s-7.828-.921-9.209-4.6a7.162 7.162 0 011.842-7.367l-3.223-10.591-9.224 12.44a3.747 3.747 0 01-5.065.921 4.2 4.2 0 01-.921-5.065l12.432-17.037-4.144-12.893-13.813 18.874a3.085 3.085 0 01-3.684 1.381 4.151 4.151 0 01-2.763-2.763l-4.6-21.642-8.288 8.749 4.144 20.26a3.522 3.522 0 11-6.907 1.381l-3.223-15.2-7.828 8.288a6.432 6.432 0 01-1.381 6.907c-2.763 2.763-7.367 3.223-10.13.46s-3.223-7.367-.46-10.13a8.015 8.015 0 016.907-2.3l7.828-8.288-15.656-1.842c-1.842 0-3.223-1.842-3.223-4.144a3.443 3.443 0 014.137-3.217l20.721 2.3 8.288-9.209-22.563-2.3a3.463 3.463 0 01-3.223-2.3 3.581 3.581 0 01.921-3.684l17.037-15.2-11.97-2.762-15.656 13.814a3.285 3.285 0 01-5.065-.459 3.285 3.285 0 01.46-5.065l10.591-9.209-11.051-2.3a7.6 7.6 0 01-6.907 2.3 7.071 7.071 0 01-5.525-8.751 7.071 7.071 0 018.749-5.525 6.916 6.916 0 015.526 5.065l11.051 2.3-6.447-14.272a3.238 3.238 0 011.842-4.6 3.238 3.238 0 014.6 1.842l8.288 19.339 11.972 2.3-8.749-20.26a4.476 4.476 0 01.46-4.144c.921-1.381 2.3-1.381 3.684-.921l22.1 7.367-4.134-12.895-19.8-6.447c-1.842-.46-2.763-2.763-2.3-4.6s2.763-2.763 4.6-2.3l14.735 5.065-3.224-10.597a6.916 6.916 0 01-5.526-5.065c-1.385-3.684.921-7.827 4.605-9.21s7.828.921 9.209 4.6c.921 2.3 0 4.6-1.381 6.447l4.144 11.516 9.209-12.433c1.381-1.842 3.223-1.842 5.065-.921 1.842 1.381 2.3 3.223.921 5.065l-12.432 16.577 3.683 11.512 12.433-17.037a3.085 3.085 0 013.684-1.381 4.151 4.151 0 012.763 2.763l4.6 22.563 9.209-10.13-4.14-20.258a3.522 3.522 0 116.907-1.381l3.223 15.2 7.828-8.749a7.391 7.391 0 011.381-7.367c2.763-2.3 7.367-2.763 10.13 0a6.852 6.852 0 01.461 10.121zm-16.116 35.916l-18.879-1.84-10.592 11.51 15.2 3.223zm-16.577 19.8l-14.274-3.223 3.68 11.972.921 3.223 17.5 5.986zm-17.037 13.354l-.46-2.3-4.145-12.435-8.752 9.67-2.3 2.763 3.684 18.879zm-20.721-7.368l11.051-11.972-12.893-2.763-3.223-.46-14.735 13.353zm-3.683-22.562l3.684.921 12.893 2.763-4.145-12.433-.46-2.3-19.34-6.449zm18.418-14.735l.921 3.223 3.684 11.972 8.288-9.209 1.842-1.381-4.144-19.34z" fill="#cce7ff"/><path data-name="snowflakes_3" d="M1845.34 7158.685a8.016 8.016 0 01-2.081 6.977l2.294 11.168 10.495-11.765c1.058-1.508 3.359-1.582 5.244-.26a3.443 3.443 0 01.261 5.243l-13.777 15.65 2.897 12.717 14.57-16.78a3.463 3.463 0 013.733-1.32 3.581 3.581 0 012.489 2.87l2.558 22.034 4.831-4.486 4.832-4.487-2.328-20.751a3.6 3.6 0 017.167-.596l1.688 15.243 8.227-7.73a7.6 7.6 0 012.081-6.977 7.318 7.318 0 019.84 10.832 6.917 6.917 0 01-7.32 1.619l-8.227 7.73 15.39 2.915a3.507 3.507 0 11-1.436 6.865l-20.103-3.416-8.227 7.73-1.696 1.62 22.256 4.352a4.477 4.477 0 013.13 2.755c.602 1.547-.455 3.056-1.624 3.923l-17.287 12.628 11.807 3.214 16.646-12.516c1.434-1.244 3.849-.676 5.087.757s.677 3.849-.756 5.088l-12.606 9.16 11.165 3.327a7.242 7.242 0 016.675-1.508c3.81.983 5.882 5.247 4.901 9.053s-5.247 5.883-9.053 4.902a7.163 7.163 0 01-4.976-5.737l-10.524-3.44 4.894 14.695a3.747 3.747 0 01-2.153 4.677 4.2 4.2 0 01-4.677-2.153l-6.818-19.961-12.938-4.007 7.53 22.147a3.085 3.085 0 01-.984 3.81 4.151 4.151 0 01-3.849.677l-20.365-8.656 2.408 11.81 18.971 8.236a3.522 3.522 0 11-2.833 6.449l-14.299-6.085 2.295 11.168a6.433 6.433 0 014.864 5.096c.677 3.849-1.59 7.884-5.438 8.56s-7.884-1.589-8.56-5.437a8.016 8.016 0 012.08-6.977l-2.294-11.169-10.495 11.765c-1.058 1.509-3.359 1.582-5.244.261a3.443 3.443 0 01-.26-5.235l13.777-15.65-2.785-12.074-14.835 17.16a3.463 3.463 0 01-3.733 1.318 3.581 3.581 0 01-2.489-2.868l-2.67-22.679-9.132 8.219 2.327 20.751a3.285 3.285 0 01-3.283 3.885 3.285 3.285 0 01-3.885-3.284l-1.462-13.96-8.227 7.73a7.6 7.6 0 01-2.081 6.977 7.072 7.072 0 01-10.339-.498 7.072 7.072 0 01.497-10.337 6.917 6.917 0 017.32-1.618l8.227-7.73-15.389-2.913a3.238 3.238 0 01-2.71-4.149 3.238 3.238 0 014.149-2.71l20.596 4.313 8.755-8.485-21.614-4.464a4.477 4.477 0 01-3.13-2.755c-.603-1.547.189-2.676 1.36-3.546l18.719-13.871-12.934-4.016-16.645 12.515c-1.434 1.245-3.85.677-5.088-.756s-.677-3.85.757-5.088l12.606-9.16-10.53-3.443a6.917 6.917 0 01-7.32 1.619c-3.812-.98-5.881-5.247-4.9-9.058s5.248-5.883 9.054-4.902c2.412.566 3.767 2.64 4.487 4.832l11.81 3.216-4.896-14.679c-.716-2.188.341-3.697 2.153-4.677 2.188-.716 3.96-.033 4.677 2.153l6.44 19.697 11.543 3.592-6.817-19.962a3.085 3.085 0 01.984-3.81 4.151 4.151 0 013.848-.677l21.12 9.184-3.01-13.357-18.968-8.237a3.522 3.522 0 112.833-6.45l14.3 6.085-2.673-11.433a7.392 7.392 0 01-5.24-5.36c-.299-3.583 1.965-7.619 5.814-8.296a6.853 6.853 0 018.553 5.432zm20.164 33.815l-12.343 14.405 3.346 15.282 11.365-10.599zm6.701 24.941l-10.833 9.84 11.918 3.859 3.168 1.096 14.947-10.897zm1.158 21.619l-2.148-.943-12.563-3.743 2.896 12.718.942 3.47 17.577 7.82zm-17.928 12.741l-3.462-15.922-9.664 8.973-2.226 2.376 2.478 19.732zm-20.593-9.934l2.87-2.489 9.663-8.973-12.562-3.742-2.148-.943-16.383 12.138zm-1.496-23.542l3.168 1.096 11.92 3.854-2.785-12.074-.073-2.3-18.219-7.708z" fill="#cce7ff"/><g data-name="Group 4385"><path data-name="Path 3354" d="M1859.43 7857.03a4.028 4.028 0 012.84.042 28.9 28.9 0 0111.887 4.476 36.354 36.354 0 016.282 6.062c1.93 2.084 3.063 5.037 4.009 7.5.378.985.264 2.158.642 3.142.188.492.188.492.87.797a32.015 32.015 0 016.246 1.556c.681.303.492-.189.796-.87-.68-.303-.566-1.477-.945-2.462.04-2.84-1.586-5.603-2.531-8.066-.567-1.477-2.12-2.576-3.178-3.864a1.841 1.841 0 00-.87-.796c-.19-.492-.19-.492.303-.68 1.666-.076 3.218 1.024 4.58 1.63a29.9 29.9 0 016.396 4.889 12.021 12.021 0 013.556 4.847 5.777 5.777 0 011.512 3.94c.189.491.378.984 1.363.606s2.273-1.437 3.258-1.815a25.676 25.676 0 015.718-2.76 34.817 34.817 0 016.704-3.138c1.97-.755 3.258-1.815 5.226-2.57.492-.189.985-.378.114-1.174a18.737 18.737 0 01-2.875-4.546c-1.248-1.78-2.686-4.052-3.934-5.833-1.628-2.77-3.559-4.852-5.184-7.617-.378-.985-1.248-1.781-1.626-2.765-.189-.492-.68-.304-1.174-.114l-2.386 2.61a27.211 27.211 0 01-5.037 3.064c-3.447 1.323-6.968.98-10.792 1.318-.68-.303-1.173-.114-1.363-.607s.492-.189.985-.378a18.613 18.613 0 006.326-4.123 23.772 23.772 0 005.001-7.567c.304-.68.304-.68-.378-.985-1.551-1.099-3.406-1.517-4.958-2.615l-1.362-.61c-.19-.492-.492.189-.492.189-.985.378-1.591 1.74-2.387 2.61a23.3 23.3 0 01-6.744 5.979 30.069 30.069 0 01-6.59 1.965c-5.301.905-9.996.448-15.371-.312-.492.188-.68-.304-1.363-.607a.516.516 0 01-.68-.303c-.19-.492-.19-.492.302-.681a23.21 23.21 0 015.302-.905c2.158-.264 4.128-1.02 6.286-1.283a11.612 11.612 0 004.127-1.02c2.158-.264 3.636-.831 5.793-1.094.492-.189.985-.378.796-.87l3.337-7.493.909-2.048c.303-.68.303-.68-.378-.985l-7.493-3.336-2.725-1.213a1.937 1.937 0 00-1.666.075c-1.78 1.247-3.75 2.004-6.022 3.441a13.194 13.194 0 01-5.836 3.931c-1.477.567-2.765 1.626-4.242 2.193-.492.189-.492.189-.681-.303-1.06-1.288-1.06-1.288.04-2.84l4.773-5.22a30.23 30.23 0 016.136-4.616 19.974 19.974 0 017.386-2.835 25.706 25.706 0 016.17-.11 20.648 20.648 0 016.436 2.049c.681.303.681.303.985-.378l2.73-6.132c.303-.68.303-.68-.378-.985a25.372 25.372 0 00-7.116-2.352c-2.347-.23-5.186-.268-8.026-.308a.517.517 0 01-.681-.303l.492-.189c1.288-1.059 3.069-2.308 4.848-3.555a19.974 19.974 0 017.385-2.836 10.6 10.6 0 014.695.46c.68.303.68.303.796-.87a12.412 12.412 0 00-.527-4.317c-.264-2.158-.338-3.825-.602-5.982-.453-2.65-.413-5.49-.677-7.648s-.338-3.827-.413-5.497-.264-2.158-1.74-1.591c-2.652.453-4.62 1.209-7.272 1.66-1.173-.113-3.142.643-4.808.717a30.864 30.864 0 01-6.78 1.472c-.984.378-2.157.263-3.142.642-.492.188-.492.188-.303.68a18.959 18.959 0 011.094 5.793 24.3 24.3 0 01-1.216 10.08 12.451 12.451 0 01-2.919 5.639c-.303.68-.607 1.363-1.288 1.059s-.378-.985-.075-1.666a29.732 29.732 0 00-.298-6.664 15.052 15.052 0 00-2.457-6.4 7.5 7.5 0 00-2.119-2.576l-.492.189c-1.098 1.552-2.69 3.292-3.79 4.844a.517.517 0 00-.302.68l.566 1.477c1.248 1.78 1.701 4.431 2.457 6.401a27.114 27.114 0 01-2.093 16.62c-1.214 2.725-2.805 4.466-4.7 6.888l-.985.378c-.681-.303-1.363-.607-1.552-1.099-.68-.303-.68-.303-.378-.985a91.672 91.672 0 013.565-9.842 91.673 91.673 0 013.567-9.84 1.937 1.937 0 00-.075-1.667c-1.437-2.273-3.367-4.356-4.993-7.121-.189-.492-.87-.796-1.248-1.78l-1.477.566c-.492.19-.796.87-1.78 1.248a15.6 15.6 0 01-4.545 2.875c-1.289 1.06-2.273 1.437-3.561 2.497a.517.517 0 00-.303.681c.149 3.332.11 6.17.259 9.503-.23 2.347.035 4.506-.005 7.346-.114 1.174.264 2.158.149 3.332-.303.68-.114 1.174-.796.87-.492.189-1.666.075-2.158.264a.516.516 0 01-.681-.303c-.945-2.462-2.193-4.242-2.646-6.893a30.787 30.787 0 01-.218-12.341 23.011 23.011 0 015.346-11.09c.303-.682 1.288-1.06 1.59-1.741.492-.19.303-.681.114-1.174l-1.512-3.939-.567-1.477c-.378-.985-.378-.985-1.363-.607-3.068 2.308-5.947 5.108-7.464 8.515-.91 2.044-1.328 3.899-2.238 5.942l-.303.681c-.492.19-.189-.492-.681-.303l-.945-2.462a27 27 0 01.955-12.23 27.641 27.641 0 013.524-7.001c.304-.681.304-.681-.378-.985l-8.742-5.118c-3.596-2.009-7.003-3.525-10.106-5.724l-2.044-.91c-.68-.303-.68-.303-.985.378-1.213 2.725-2.238 5.943-3.45 8.669-1.631 4.58-3.755 9.35-5.198 14.42-.303.68-.303.68.378.985a34.538 34.538 0 0111.698 3.984c2.233 1.402 4.466 2.804 5.904 5.077a5.777 5.777 0 011.512 3.939c.188.492.378.985-.114 1.174s-.681-.303-1.174-.114c-1.363-.607-2.914-1.706-4.959-2.616a17.879 17.879 0 00-8.593-1.785c-1.666.075-3.825.338-5.49.413-.493.19-.493.19-.304.681l.79 6.475c.19.492.379.985.87.796l4.999-.224a21.144 21.144 0 0110.031 4.057 18.49 18.49 0 015.6 5.76c1.437 2.272 3.177 3.863 4.122 6.325a8.975 8.975 0 001.816 3.254c.19.492.378.985-.114 1.174s-.796.87-1.78 1.248c-.492.189-.492.189-1.173-.114-1.741-1.59-3.67-3.675-5.411-5.267-2.611-2.387-4.73-4.962-7.341-7.35-.68-.303-1.059-1.288-1.74-1.591a.517.517 0 00-.682-.303 26.471 26.471 0 00-6.285 1.283 18.736 18.736 0 00-5.302.905c-.492.189-.492.189-.303.68a9.777 9.777 0 01.338 3.825c.264 2.16.527 4.317.98 6.968.189.492.378.985.87.796 3.407 1.517 6.32 3.223 9.728 4.74 2.914 1.706 6.32 3.223 9.235 4.928.681.303.681.303.378.985a11.527 11.527 0 00-.532 3.029c.19.492-.303.68-.492.189a27.76 27.76 0 01-12.87-4.098 16.5 16.5 0 01-4.352-3.979c-1.059-1.288-1.93-2.083-2.989-3.371-.755-1.97-2.192-4.242-2.645-6.893l-.19-.492c.115-1.174-.566-1.477-1.74-1.59-1.855-.419-3.52-.344-5.376-.762l-.492.189a15.4 15.4 0 00.716 4.809 25.677 25.677 0 002.76 5.719 7.5 7.5 0 002.119 2.575c.87.796 1.247 1.78 2.118 2.576l.19.492-.493.189c-2.347-.23-3.899-1.328-5.942-2.238a29.741 29.741 0 01-9.195-7.768 13.106 13.106 0 01-2.004-3.75.517.517 0 00-.68-.303c-1.78 1.248-4.243 2.193-6.023 3.442a11.611 11.611 0 01-3.75 2.004c-3.069 2.308-5.341 3.745-7.614 5.182-.985.379-2.273 1.438-3.258 1.816-.492.188-.796.87-.113 1.173l6.355 7.729c1.248 1.78 2.99 3.372 4.237 5.152 1.93 2.084 3.367 4.357 5.297 6.44.189.492.68.304 1.174.114a19.5 19.5 0 014.47-4.54 25.676 25.676 0 015.718-2.76 26.471 26.471 0 016.286-1.283c1.174.114 2.158-.263 3.52.343a4.754 4.754 0 01-2.272 1.437 24.862 24.862 0 00-6.252 5.79 27.641 27.641 0 00-3.525 7.002c-.303.68.19.492.19.492 2.043.91 4.58 1.63 6.624 2.54.68.303 1.174.114.985-.378a20.068 20.068 0 014.7-6.888 16.844 16.844 0 018.787-5.067c1.477-.567 3.143-.642 4.62-1.21 1.666-.074 3.825-.337 5.49-.412 2.347.229 4.506-.035 7.042.686.68.303.68.303.87.796.567 1.477.567 1.477-.91 2.044a21.631 21.631 0 00-5.604 1.586 23.649 23.649 0 00-5.603 1.587c-1.477.567-3.143.642-4.62 1.209-.985.378-2.158.263-3.635.83-.492.19-.985.379-.797.87a56.45 56.45 0 00-3.868 10.524c-.303.681-.303.681.378.985 3.217 1.024 5.943 2.238 9.16 3.262 1.363.607 1.855.418 2.65-.453a13.806 13.806 0 015.268-5.41c2.273-1.438 4.052-2.687 6.325-4.124a14.6 14.6 0 014.242-2.192l.978-.376a.516.516 0 01.68.304c.19.492.19.492-.303.68-.91 2.044-2.198 3.103-3.79 4.844a29.732 29.732 0 01-5.151 4.237 17.94 17.94 0 01-4.735 2.382 28.591 28.591 0 01-13.442 1.77 2.74 2.74 0 00-2.347-.228c-.681-.303-.492.189-.985.378-1.1 1.552-2.01 3.596-3.6 5.337-.304.68-.304.68.377.985a19.35 19.35 0 0010.26 1.71 30.07 30.07 0 006.59-1.964c.491-.19.491-.19.68.303s.189.492-.303.68a15.792 15.792 0 01-4.168 3.86c-.984.378-1.288 1.06-2.273 1.437a17.377 17.377 0 01-6.892 2.646 14.042 14.042 0 01-6.475.791c-1.174-.114-1.174-.114-.796.87.264 2.158.527 4.317.602 5.982-.114 1.174.453 2.65.338 3.825.264 2.158.338 3.825.602 5.981.074 1.666.453 2.651.527 4.317.378.985.075 1.666.453 2.651.188.492.188.492.68.303a35.61 35.61 0 017.27-1.658 46.155 46.155 0 008.255-2.039 17.94 17.94 0 005.112-1.398c.985-.378 2.158-.264 3.636-.83.492-.19.492-.19.303-.682l-1.134-2.954a29.864 29.864 0 01-1.925-9.43 12.473 12.473 0 012.958-8.478c.492-.19.796-.87.985-.378.492-.19.189.492.378.985a26.719 26.719 0 001.472 6.778 25.674 25.674 0 002.76 5.72c1.059 1.287 1.93 2.083 2.989 3.371.188.492.68.303 1.173.114 1.591-1.74 3.372-2.989 4.963-4.73a.516.516 0 00.303-.68c-1.059-1.289-2.308-3.07-3.555-4.848l-1.89-4.924a26.492 26.492 0 01.005-7.346c.303-.68.113-1.174.228-2.348a67.916 67.916 0 014.665-11.393 11.528 11.528 0 011.895-2.422.517.517 0 00.303-.68l.492-.19.189.492a25.71 25.71 0 00-.154 4.014 149.337 149.337 0 01-4.55 17.562.989.989 0 00.567 1.477c1.74 1.59 2.989 3.372 4.73 4.963 1.058 1.288 1.93 2.084 2.988 3.372.189.492.681.303 1.174.114 1.288-1.06 2.084-1.93 3.372-2.99s2.88-2.8 4.168-3.858c.796-.87.418-1.855.532-3.03a15.4 15.4 0 00-.716-4.808l-.791-6.475c-.075-1.665-.453-2.65-.527-4.316l-.224-4.998c.189.492 1.059 1.288 1.248 1.78a28.676 28.676 0 013.402 8.862c.527 4.317.562 8.823-.767 12.72a25.775 25.775 0 01-6.217 10.295c-.492.188-.796.87-.418 1.855l2.079 5.414c.189.492.378.985 1.174.114 1.477-.567 3.068-2.308 4.357-3.367a21.145 21.145 0 004.74-9.727c-.19-.492.302-.681.606-1.363s.492-.19.492-.19l.38.99a15.4 15.4 0 01.715 4.808 48.22 48.22 0 01-.8 8.216 18.179 18.179 0 01-3.64 8.176c-.303.681-.303.681.378.985l12.831 6.938a66.8 66.8 0 017.872 4.322c.681.303.492-.189.985-.378a78.912 78.912 0 002.958-8.48c2.124-4.77 3.565-9.842 5.69-14.609.302-.68.302-.68-.379-.985a15.552 15.552 0 01-9.347-3.754 22.04 22.04 0 01-3.86-4.168c-.87-.796-1.436-2.273-2.307-3.069l-.378-.985c.492-.189.492-.189.68.303l4.088 1.82a39.335 39.335 0 007.231 1.18c1.97-.756 3.636-.832 4.62-1.21.492-.188.492-.188.303-.68-.378-.985-.264-2.158-.642-3.143s-.264-2.159-.831-3.636c-.189-.492-.189-.492-.87-.796-1.666.075-2.65.453-4.317.527a17.487 17.487 0 01-8.783-2.277c-2.724-1.214-4.844-3.79-6.773-5.874-1.249-1.781-2.308-3.069-3.556-4.848-.567-1.477-1.437-2.273-2.004-3.75l-1.7-4.43c-.19-.493-.379-.986.606-1.364a1.937 1.937 0 001.288-1.059c.492-.188.492-.188.681.304 1.248 1.78 2.686 4.052 3.934 5.833a43.934 43.934 0 004.804 6.63l3.746 5.338a1.134 1.134 0 001.363.607c3.824-.338 7.345.005 11.167-.333.492-.189.492-.189.303-.68-.264-2.159.154-4.015-.108-6.172-.075-1.666.04-2.84-.035-4.506l-.567-1.477c-3.103-2.198-6.018-3.902-8.628-6.29-3.103-2.199-6.206-4.396-9.498-7.087.87.794.87.794.189.49z" fill="#cce7ff"/></g><g data-name="Group 4388"><path data-name="Path 3354" d="M1898.33 6857.212a1.637 1.637 0 011.155.016 11.747 11.747 0 014.832 1.82 14.778 14.778 0 012.552 2.464 9.44 9.44 0 011.63 3.049c.154.4.108.876.261 1.277.077.2.077.2.354.324a13.014 13.014 0 012.539.632c.276.123.2-.077.324-.354-.277-.123-.23-.6-.384-1a9.28 9.28 0 00-1.03-3.28 6.813 6.813 0 00-1.291-1.57.748.748 0 00-.354-.324c-.077-.2-.077-.2.123-.276.677-.03 1.308.416 1.861.663a12.154 12.154 0 012.6 1.987 4.886 4.886 0 011.446 1.971 2.348 2.348 0 01.614 1.601c.077.2.154.4.554.247s.925-.584 1.324-.737a10.437 10.437 0 012.325-1.122 14.153 14.153 0 012.724-1.275c.8-.307 1.323-.737 2.124-1.045.2-.076.4-.153.046-.477a7.617 7.617 0 01-1.168-1.848c-.507-.723-1.092-1.647-1.6-2.371-.66-1.124-1.445-1.971-2.106-3.095-.153-.4-.506-.723-.66-1.124-.077-.2-.277-.123-.477-.046l-.97 1.061a11.061 11.061 0 01-2.048 1.246 15.724 15.724 0 01-4.387.535c-.276-.123-.477-.046-.554-.246s.2-.077.4-.154a7.566 7.566 0 002.571-1.676 9.663 9.663 0 002.032-3.076c.123-.277.123-.277-.153-.4-.631-.447-1.385-.617-2.015-1.064l-.555-.247c-.076-.2-.2.077-.2.077-.4.153-.646.707-.97 1.06a9.472 9.472 0 01-2.74 2.43 12.223 12.223 0 01-2.68.8 19.374 19.374 0 01-6.248-.128c-.2.077-.276-.123-.554-.246a.21.21 0 01-.277-.124c-.076-.2-.076-.2.123-.276a9.434 9.434 0 012.156-.368c.876-.107 1.677-.415 2.555-.521a4.72 4.72 0 001.677-.415c.877-.107 1.477-.338 2.356-.444.2-.077.4-.154.323-.354l1.362-3.052.37-.83c.123-.277.123-.277-.154-.4l-3.051-1.36-1.108-.492a.788.788 0 00-.676.03c-.724.507-1.525.815-2.449 1.4a5.363 5.363 0 01-2.371 1.599c-.6.23-1.124.66-1.724.89-.2.077-.2.077-.277-.123-.43-.523-.43-.523.017-1.154l1.94-2.122a12.288 12.288 0 012.493-1.876 8.119 8.119 0 013.003-1.153 10.449 10.449 0 012.508-.045 8.394 8.394 0 012.616.833c.277.123.277.123.4-.154l1.111-2.49c.124-.276.124-.276-.153-.4a10.313 10.313 0 00-2.893-.956c-.954-.093-2.108-.108-3.262-.125a.21.21 0 01-.276-.123l.2-.077c.523-.43 1.246-.938 1.97-1.445a8.119 8.119 0 013.003-1.153 4.309 4.309 0 011.908.186c.277.123.277.123.324-.354a5.045 5.045 0 00-.214-1.755c-.107-.876-.137-1.554-.245-2.431-.184-1.078-.168-2.232-.275-3.108s-.139-1.554-.17-2.233-.106-.877-.707-.646c-1.077.184-1.877.491-2.954.674-.477-.046-1.278.261-1.955.291a12.546 12.546 0 01-2.755.598c-.401.154-.877.108-1.278.261-.2.077-.2.077-.123.277a7.707 7.707 0 01.445 2.355 9.879 9.879 0 01-.495 4.093 5.061 5.061 0 01-1.187 2.293c-.123.276-.246.554-.523.43s-.154-.4-.03-.677a12.086 12.086 0 00-.122-2.708 6.119 6.119 0 00-1-2.602 3.047 3.047 0 00-.86-1.047l-.2.077c-.447.63-1.094 1.337-1.541 1.969a.21.21 0 00-.123.276l.23.6a12.117 12.117 0 01.999 2.602 11.022 11.022 0 01-.852 6.754 12.894 12.894 0 01-1.91 2.8l-.401.154c-.277-.124-.555-.247-.631-.447-.277-.123-.277-.123-.154-.4a37.264 37.264 0 011.45-4.002 37.264 37.264 0 011.449-4 .788.788 0 00-.03-.678c-.585-.924-1.37-1.77-2.03-2.895-.077-.2-.354-.324-.507-.723l-.6.23c-.2.077-.324.354-.724.507a6.342 6.342 0 01-1.848 1.169c-.523.43-.924.584-1.447 1.015a.21.21 0 00-.123.277c.06 1.354.045 2.508.105 3.862-.093.954.015 1.832-.002 2.986-.046.478.108.877.06 1.355-.123.276-.045.477-.323.353-.2.077-.677.03-.877.108a.21.21 0 01-.276-.123 14.046 14.046 0 01-1.076-2.801 12.515 12.515 0 01-.089-5.018 9.354 9.354 0 012.173-4.508c.123-.276.524-.43.647-.707.2-.077.123-.277.046-.477l-.615-1.602-.23-.6c-.154-.4-.154-.4-.555-.247a9.328 9.328 0 00-3.034 3.462c-.37.83-.54 1.584-.91 2.415l-.123.277c-.2.076-.076-.2-.276-.124l-.384-1a10.974 10.974 0 01.389-4.97 11.236 11.236 0 011.433-2.846c.123-.277.123-.277-.154-.4l-3.554-2.082a44.9 44.9 0 01-4.106-2.326l-.831-.37c-.277-.123-.277-.123-.4.153-.494 1.108-.91 2.416-1.403 3.524-.663 1.861-1.527 3.8-2.112 5.862-.124.277-.124.277.153.4a14.039 14.039 0 014.755 1.62 7.059 7.059 0 012.4 2.065 2.348 2.348 0 01.614 1.6c.077.2.154.401-.046.478s-.276-.123-.477-.046c-.554-.247-1.184-.694-2.015-1.064a7.267 7.267 0 00-3.492-.725c-.677.03-1.554.137-2.232.168-.2.076-.2.076-.123.276l.321 2.632c.077.2.154.4.354.324l2.031-.091a8.6 8.6 0 014.078 1.648 7.516 7.516 0 012.275 2.34 15.019 15.019 0 011.676 2.57 3.648 3.648 0 00.737 1.324c.077.2.154.4-.046.477s-.324.353-.723.507c-.2.076-.2.076-.478-.046-.707-.647-1.491-1.494-2.199-2.141-1.061-.97-1.922-2.017-2.984-2.988-.276-.123-.43-.524-.708-.647a.21.21 0 00-.276-.123 10.76 10.76 0 00-2.555.521 7.616 7.616 0 00-2.155.368c-.2.077-.2.077-.123.277a3.974 3.974 0 01.137 1.554c.107.877.214 1.755.398 2.832.077.2.154.4.354.324 1.385.617 2.569 1.31 3.953 1.927 1.184.694 2.57 1.31 3.754 2.004.277.123.277.123.154.4a4.686 4.686 0 00-.216 1.232c.077.2-.123.276-.2.076a11.284 11.284 0 01-5.231-1.666 6.706 6.706 0 01-1.77-1.617c-.43-.524-.784-.847-1.214-1.37a14.006 14.006 0 01-1.075-2.801l-.077-.2c.046-.477-.23-.6-.708-.647-.754-.17-1.43-.139-2.185-.309l-.202.077a6.259 6.259 0 00.291 1.955 10.438 10.438 0 001.122 2.324 3.047 3.047 0 00.861 1.047c.354.324.507.724.862 1.047l.076.2-.2.077a7.4 7.4 0 01-2.413-.905 12.089 12.089 0 01-3.738-3.158 5.328 5.328 0 01-.814-1.524.21.21 0 00-.277-.123c-.723.507-1.724.89-2.448 1.4a4.72 4.72 0 01-1.524.813c-1.247.939-2.171 1.522-3.095 2.107-.4.154-.924.584-1.324.738-.2.076-.323.353-.046.477l2.584 3.142c.507.723 1.215 1.37 1.722 2.094.784.847 1.368 1.77 2.153 2.618.077.2.277.123.477.046a7.925 7.925 0 011.817-1.846 10.437 10.437 0 012.325-1.121 10.76 10.76 0 012.555-.522c.477.047.877-.107 1.43.14a1.933 1.933 0 01-.923.584 10.106 10.106 0 00-2.542 2.353 11.236 11.236 0 00-1.433 2.847c-.123.276.077.2.077.2.83.37 1.861.662 2.693 1.032.276.123.477.046.4-.154a8.157 8.157 0 011.91-2.8 6.847 6.847 0 013.573-2.06c.6-.23 1.277-.26 1.877-.49.677-.032 1.555-.138 2.232-.169a14.407 14.407 0 012.863.279c.276.123.276.123.353.324.23.6.23.6-.37.83a8.793 8.793 0 00-2.278.646 9.613 9.613 0 00-2.278.645c-.6.23-1.277.261-1.878.491-.4.154-.876.108-1.477.338-.2.077-.4.154-.323.354a22.947 22.947 0 00-1.572 4.277c-.123.277-.123.277.154.4 1.308.416 2.415.91 3.722 1.327.554.246.754.17 1.078-.185a5.612 5.612 0 012.14-2.2c.925-.583 1.648-1.09 2.571-1.675a5.935 5.935 0 011.72-.891l.401-.154a.21.21 0 01.277.123c.076.2.076.2-.123.276a7.135 7.135 0 01-1.541 1.97 12.086 12.086 0 01-2.094 1.721 7.292 7.292 0 01-1.925.968 11.622 11.622 0 01-5.464.72 1.114 1.114 0 00-.954-.093c-.276-.123-.2.077-.4.154a18.544 18.544 0 01-1.464 2.168c-.123.277-.123.277.153.4a7.866 7.866 0 004.17.696 12.223 12.223 0 002.68-.799c.2-.076.2-.076.276.124s.076.2-.123.276a6.419 6.419 0 01-1.694 1.57c-.401.153-.524.43-.925.583a7.064 7.064 0 01-2.8 1.075 5.708 5.708 0 01-2.632.322c-.477-.046-.477-.046-.324.353.108.877.214 1.755.245 2.432-.046.477.184 1.078.137 1.554.107.877.137 1.554.245 2.432.03.677.184 1.078.214 1.755.154.4.03.677.184 1.077.077.2.077.2.277.124a14.475 14.475 0 012.954-.675 18.762 18.762 0 003.356-.829 7.293 7.293 0 002.078-.568c.401-.154.877-.108 1.478-.338.2-.077.2-.077.123-.277l-.461-1.2a12.139 12.139 0 01-.783-3.833 5.07 5.07 0 011.203-3.447c.2-.077.324-.354.4-.154.2-.077.077.2.154.4a10.861 10.861 0 00.598 2.756 10.436 10.436 0 001.122 2.325c.43.523.784.847 1.215 1.37.076.2.276.123.477.046.646-.707 1.37-1.214 2.017-1.922a.21.21 0 00.123-.277c-.43-.523-.938-1.246-1.445-1.97l-.769-2.002a10.769 10.769 0 01.007-2.977c.123-.277.046-.477.093-.954a27.608 27.608 0 011.896-4.631 4.686 4.686 0 01.77-.985.21.21 0 00.124-.276l.2-.077.074.194a10.451 10.451 0 00-.062 1.631 60.7 60.7 0 01-1.853 7.138.4.4 0 00.23.6c.709.647 1.216 1.37 1.923 2.017.43.524.785.847 1.215 1.37.077.2.277.124.478.047.523-.43.847-.785 1.37-1.215s1.17-1.138 1.695-1.568c.323-.354.17-.754.216-1.232a6.259 6.259 0 00-.291-1.954l-.321-2.632c-.031-.677-.185-1.077-.215-1.755l-.09-2.03c.076.199.43.523.506.722a11.657 11.657 0 011.383 3.603 11.866 11.866 0 01-.311 5.171 10.477 10.477 0 01-2.528 4.184c-.2.077-.324.353-.17.754l.845 2.201c.077.2.154.4.477.046a8.168 8.168 0 001.772-1.368 8.6 8.6 0 001.927-3.953c-.077-.2.123-.277.247-.555s.2-.076.2-.076l.153.4a6.259 6.259 0 01.29 1.955 19.6 19.6 0 01-.324 3.338 7.39 7.39 0 01-1.48 3.323c-.123.276-.123.276.154.4l5.215 2.819a27.154 27.154 0 013.2 1.759c.276.129.197-.076.4-.154a32.077 32.077 0 001.202-3.447c.863-1.938 1.45-4 2.313-5.939.123-.276.123-.276-.154-.4a6.322 6.322 0 01-3.8-1.527 8.959 8.959 0 01-1.571-1.688c-.354-.324-.584-.924-.938-1.247l-.154-.4c.2-.077.2-.077.277.123l1.661.74a15.99 15.99 0 002.939.478c.8-.307 1.477-.337 1.877-.491.2-.077.2-.077.124-.277-.154-.4-.108-.876-.262-1.277s-.107-.878-.337-1.477c-.077-.2-.077-.2-.354-.324-.677.03-1.077.185-1.755.214a7.108 7.108 0 01-3.569-.926 9.328 9.328 0 01-2.753-2.388c-.507-.723-.938-1.247-1.446-1.971-.23-.6-.584-.924-.814-1.524l-.691-1.801c-.077-.2-.154-.4.246-.555a.787.787 0 00.524-.43c.2-.076.2-.076.276.123.507.724 1.092 1.648 1.6 2.372a17.859 17.859 0 001.952 2.695l1.522 2.17a.461.461 0 00.554.248c1.555-.137 2.986.002 4.54-.136.2-.077.2-.077.123-.277-.107-.877.063-1.63-.045-2.508-.03-.677.017-1.155-.014-1.832l-.23-.6a34.916 34.916 0 01-3.508-2.557c-1.26-.894-2.522-1.787-3.86-2.88.359.32.359.32.082.198z" fill="#99cfff"/></g><path data-name="Path 3370" d="M1673.364 7986.994l2.95-5.58-5.55.898a1.162 1.162 0 01-1.462-1.185 1.368 1.368 0 011.098-1.633l7.513-1.254 2.613-4.977-9.737 1.528a1.162 1.162 0 01-1.463-1.185 1.368 1.368 0 011.099-1.633l11.7-1.888 4.716-9.268a3.6 3.6 0 01-1.034-1.189l-.781-1.532-10.422.596-6.506 9.965a1.282 1.282 0 01-2.064-1.523l5.407-8.332-5.64.296-4.226 6.444a1.282 1.282 0 01-2.063-1.523l3.126-4.81-6.324.218a1.282 1.282 0 01-.02-2.565l6.326-.217-3.792-4.075a1.316 1.316 0 01.157-1.796 1.219 1.219 0 011.797.158l4.747 5.948 5.64-.3-6.21-7.561a1.316 1.316 0 01.157-1.797 1.219 1.219 0 011.797.158l7.416 9.09 10.342-.332c.164-.942 1.35-2.404 1.263-2.574l-5.624-8.932-11.545-.767a1.436 1.436 0 01-1.208-1.53 1.206 1.206 0 011.359-1.12l9.75.61-3.028-4.679-7.362-.545a1.436 1.436 0 01-1.207-1.53 1.206 1.206 0 011.359-1.12l5.562.382-3.374-5.36a1.453 1.453 0 01.327-1.883c.682-.347 1.366-.267 1.713.415l3.37 5.362 2.185-5.404a1.277 1.277 0 011.789-.698c.77.25.778 1.106.697 1.79l-2.931 7.286 3.027 4.679 3.774-9.432a1.277 1.277 0 011.79-.697c.77.25.777 1.105.697 1.789l-4.45 11.06 5.797 8.848a5.655 5.655 0 013.076-.28l5.057-9.44-5.379-10.555a1.338 1.338 0 112.385-1.215l4.423 8.681.843-1.712 1.857-3.091-3.471-6.812a1.338 1.338 0 112.384-1.215l2.602 5.106 2.862-5.75a1.331 1.331 0 011.876-.526c.858.421.947 1.018.527 1.876l-2.95 5.579 5.552-.894a1.162 1.162 0 011.462 1.185c.348.682-.16 1.37-1.015 1.376l-7.6 1.083-2.611 4.978 9.729-1.534a1.162 1.162 0 011.463 1.186 1.162 1.162 0 01-1.186 1.462l-11.691 1.886-4.886 9.353a4.5 4.5 0 011.035 1.19l.694 1.362 10.513-.419 6.586-9.796a1.133 1.133 0 011.793-.27 1.166 1.166 0 01.27 1.792l-5.493 8.162 6.065-.3 4.226-6.444a1.133 1.133 0 011.792-.27 1.166 1.166 0 01.27 1.792l-2.956 4.726 6.324-.22a1.166 1.166 0 011.292 1.273 1.166 1.166 0 01-1.273 1.291l-6.323.22 3.538 4.418a1.4 1.4 0 01-.241 2.054 1.316 1.316 0 01-1.797-.158l-4.742-5.95-5.64.3 6.297 7.732a1.275 1.275 0 11-1.954 1.638l-7.42-9.09-10.593.684a6.042 6.042 0 01-1.519 2.913l5.537 8.764 12.057.506a1.313 1.313 0 011.292 1.272 1.549 1.549 0 01-1.443 1.378l-9.919-.524 3.027 4.68 7.867.282a1.313 1.313 0 011.292 1.273 1.549 1.549 0 01-1.443 1.378l-5.729-.299 3.374 5.36a1.453 1.453 0 01-.327 1.884c-.682.347-1.366.267-1.713-.415l-3.374-5.36-1.841 5.23a1.077 1.077 0 01-1.62.61 1.277 1.277 0 01-.867-1.703l2.596-7.115-3.027-4.678-3.35 9.002a1.077 1.077 0 01-1.62.61 1.277 1.277 0 01-.867-1.702l4.105-10.886-5.54-8.766c-.086-.17-1.962.357-2.991.023l-4.547 9.18 5.38 10.56a1.338 1.338 0 11-2.384 1.215l-4.512-8.856-.337.6-2.275 4.377 3.471 6.813a1.338 1.338 0 11-2.384 1.215l-2.603-5.11-2.95 5.58a1.331 1.331 0 01-1.876.527c-.858-.421-1.799-.586-1.549-1.356z" fill="#b2d5ff"/><path data-name="Path 3373" d="M1708.921 7030.735l5.13-9.704-9.653 1.56a2.022 2.022 0 01-2.543-2.062 2.379 2.379 0 011.911-2.839l13.065-2.18 4.544-8.66-16.931 2.657a2.022 2.022 0 01-2.544-2.062 2.379 2.379 0 011.912-2.84l20.35-3.28 8.204-16.12a6.264 6.264 0 01-1.8-2.069l-1.359-2.666-18.133 1.03-11.317 17.334a2.23 2.23 0 01-3.59-2.649l9.407-14.495-9.81.52-7.35 11.208a2.23 2.23 0 01-3.589-2.649l5.439-8.368-11.001.38a2.23 2.23 0 11-.034-4.46l11.001-.381-6.597-7.088a2.289 2.289 0 01.273-3.124 2.121 2.121 0 013.125.273l8.257 10.346 9.81-.52-10.803-13.154a2.289 2.289 0 01.273-3.124 2.121 2.121 0 013.125.273l12.905 15.815 17.989-.583c.287-1.639 2.347-4.181 2.197-4.477l-9.785-15.54-20.084-1.334a2.5 2.5 0 01-2.102-2.66 2.1 2.1 0 012.364-1.951l16.96 1.06-5.268-8.137-12.795-.944a2.5 2.5 0 01-2.102-2.66 2.1 2.1 0 012.364-1.951l9.675.668-5.873-9.322a2.528 2.528 0 01.57-3.276c1.185-.603 2.375-.464 2.98.722l5.872 9.322 3.794-9.397a2.221 2.221 0 013.113-1.214c1.345.437 1.352 1.923 1.214 3.113l-5.11 12.678 5.268 8.137 6.567-16.407a2.221 2.221 0 013.114-1.213c1.345.437 1.352 1.922 1.213 3.113l-7.735 19.248 10.078 15.384a9.837 9.837 0 015.352-.488l8.794-16.422-9.359-18.367a2.327 2.327 0 114.148-2.114l7.699 15.109 1.464-2.985 3.23-5.378-6.038-11.85a2.327 2.327 0 114.148-2.114l4.529 8.888 4.979-10a2.316 2.316 0 013.264-.918c1.495.731 1.65 1.772.917 3.265l-5.13 9.704 9.652-1.56a2.022 2.022 0 012.543 2.063c.604 1.185-.279 2.38-1.766 2.392l-13.219 1.885-4.544 8.659 16.933-2.657a2.022 2.022 0 012.544 2.062 2.021 2.021 0 01-2.062 2.543l-20.347 3.278-8.504 16.271a7.825 7.825 0 011.8 2.068l1.208 2.37 18.285-.73 11.468-17.04a1.971 1.971 0 013.12-.467 2.029 2.029 0 01.468 3.12l-9.554 14.198 10.553-.527 7.349-11.21a1.971 1.971 0 013.12-.468 2.029 2.029 0 01.467 3.12l-5.136 8.212 10.995-.38a2.029 2.029 0 012.25 2.212 2.029 2.029 0 01-2.212 2.25l-11.004.382 6.16 7.683a2.428 2.428 0 01-.424 3.573 2.289 2.289 0 01-3.125-.273l-8.257-10.346-9.81.52 10.958 13.449a2.218 2.218 0 11-3.397 2.853l-12.908-15.812-18.43 1.178a10.511 10.511 0 01-2.639 5.076l9.633 15.242 20.972.881c1.193.139 2.387 1.023 2.25 2.212s-1.32 2.538-2.509 2.4l-17.256-.91 5.269 8.138 13.683.491c1.193.139 2.387 1.023 2.25 2.212s-1.32 2.537-2.51 2.4l-9.966-.518 5.872 9.322a2.528 2.528 0 01-.58 3.276c-1.184.604-2.375.464-2.978-.72l-5.873-9.323-3.202 9.095a1.874 1.874 0 01-2.816 1.063 2.221 2.221 0 01-1.51-2.963l4.516-12.376-5.269-8.137-5.829 15.653a1.874 1.874 0 01-2.816 1.062 2.221 2.221 0 01-1.51-2.962l7.145-18.938-9.632-15.242c-.15-.296-3.416.619-5.204.04l-7.91 15.972 9.358 18.367a2.327 2.327 0 11-4.148 2.113l-7.85-15.408-.59 1.046-3.957 7.614 6.039 11.85a2.327 2.327 0 11-4.148 2.113l-4.529-8.887-5.13 9.704a2.316 2.316 0 01-3.265.917c-1.486-.735-3.122-1.016-2.687-2.357z" fill="#b2d5ff"/><path data-name="Path 3372" d="M1862.388 7519.86l5.029-3.809-5.407-1.53a1.162 1.162 0 01-.824-1.692 1.367 1.367 0 011.684-1.016l7.336 2.038 4.47-3.406-9.468-2.728a1.162 1.162 0 01-.824-1.692 1.367 1.367 0 011.685-1.015l11.398 3.23 8.187-6.404a3.599 3.599 0 01-.435-1.514l-.06-1.718-9.695-3.862-10.103 6.28a1.282 1.282 0 01-1.226-2.25l8.417-5.266-5.235-2.114-6.55 4.053a1.282 1.282 0 01-1.226-2.251l4.864-3.038-5.822-2.473a1.282 1.282 0 011.066-2.332l5.823 2.475-1.715-5.293a1.315 1.315 0 01.902-1.561 1.219 1.219 0 011.56.901l1.789 7.394 5.236 2.111-2.432-9.474a1.315 1.315 0 01.901-1.56 1.219 1.219 0 011.561.901l2.88 11.368 9.51 4.068c.546-.785 2.239-1.608 2.232-1.799l-1.323-10.468-10.136-5.571a1.435 1.435 0 01-.449-1.896 1.206 1.206 0 011.705-.442l8.576 4.67-.767-5.517-6.44-3.603a1.435 1.435 0 01-.448-1.895 1.206 1.206 0 011.705-.442l4.877 2.695-.793-6.28a1.452 1.452 0 011.093-1.568c.764-.027 1.35.335 1.376 1.1l.789 6.28 4.261-3.973a1.277 1.277 0 011.916.124c.593.552.238 1.33-.124 1.916l-5.733 5.363.766 5.517 7.403-6.95a1.277 1.277 0 011.916.123c.593.552.238 1.33-.124 1.916l-8.703 8.141 1.515 10.465a5.653 5.653 0 012.905 1.045l8.569-6.417-.415-11.834a1.337 1.337 0 112.673-.094l.341 9.733 1.487-1.195 2.988-2.016-.268-7.638a1.337 1.337 0 112.674-.093l.2 5.724 5.021-4a1.33 1.33 0 011.923.315c.599.744.428 1.323-.315 1.922l-5.029 3.81 5.407 1.534a1.162 1.162 0 01.825 1.692c.027.764-.724 1.172-1.5.818l-7.344-2.229-4.468 3.407 9.462 2.72a1.162 1.162 0 01.825 1.691 1.162 1.162 0 01-1.692.825l-11.389-3.23-8.377 6.41a4.498 4.498 0 01.435 1.515l.054 1.527 9.701 4.061 10.105-6.093a1.133 1.133 0 011.738.512 1.166 1.166 0 01-.512 1.739l-8.424 5.074 5.622 2.29 6.55-4.054a1.133 1.133 0 011.738.512 1.166 1.166 0 01-.512 1.739l-4.675 3.032 5.823 2.473a1.166 1.166 0 01.633 1.698 1.166 1.166 0 01-1.699.633l-5.822-2.473 1.34 5.498a1.4 1.4 0 01-1.086 1.759 1.315 1.315 0 01-1.561-.902l-1.784-7.393-5.236-2.111 2.44 9.665a1.275 1.275 0 11-2.463.659l-2.884-11.37-9.885-3.854a6.04 6.04 0 01-2.607 1.998l1.315 10.278 10.71 5.551a1.312 1.312 0 01.633 1.698 1.548 1.548 0 01-1.89.64l-8.764-4.664.766 5.517 7.008 3.58a1.312 1.312 0 01.633 1.697 1.548 1.548 0 01-1.89.64l-5.064-2.69.793 6.28a1.452 1.452 0 01-1.092 1.569c-.764.027-1.35-.335-1.377-1.1l-.793-6.28-3.876 3.96a1.077 1.077 0 01-1.725-.13 1.277 1.277 0 01-.067-1.91l5.357-5.35-.767-5.517-6.837 6.74a1.077 1.077 0 01-1.725-.13 1.277 1.277 0 01-.067-1.909l8.317-8.129-1.316-10.281c-.007-.191-1.93-.506-2.72-1.243l-7.997 6.397.415 11.84a1.337 1.337 0 11-2.674.093l-.347-9.929-.56.402-3.91 3.004.269 7.639a1.337 1.337 0 11-2.674.093l-.2-5.728-5.03 3.81a1.33 1.33 0 01-1.922-.316c-.599-.744-1.382-1.29-.83-1.883z" fill="#b2d5ff"/><path data-name="Path 3369" d="M1683.613 7736.32a5.052 5.052 0 01-.672-4.54l-4.285-5.766-2.86 9.516c-.202 1.143-1.497 1.798-2.926 1.546a2.17 2.17 0 01-1.546-2.926l3.701-12.61-5.044-6.494-3.854 13.47a2.183 2.183 0 01-1.783 1.748 2.258 2.258 0 01-2.185-.976l-7.329-11.905-1.564 3.852-1.566 3.848 6.858 11.233a2.07 2.07 0 01-.84 3.094 2.07 2.07 0 01-3.095-.841l-5.026-8.256-2.638 6.606a4.791 4.791 0 01.671 4.54 4.457 4.457 0 01-6.036 2.47 4.457 4.457 0 01-2.471-6.036 4.36 4.36 0 013.75-2.874l2.64-6.607-9.571 2.435a2.042 2.042 0 01-2.655-1.648 2.04 2.04 0 011.649-2.655l12.395-3.412 2.641-6.607.538-1.379-13.871 3.441a2.822 2.822 0 01-2.523-.74 2.22 2.22 0 01-.116-2.674l6.505-11.815-7.6 1.31-6.17 11.584a2.4 2.4 0 01-3.108.924 2.4 2.4 0 01-.925-3.108l4.76-8.592-7.265 1.073a4.564 4.564 0 01-3.412 2.64 4.59 4.59 0 11-1.342-9.08 4.515 4.515 0 014.367 1.952l6.928-.84-6.709-7.076a2.363 2.363 0 01-.016-3.245 2.65 2.65 0 013.245-.016l9.213 9.58 8.458-1.158-10.207-10.645a1.944 1.944 0 01-.454-2.438 2.617 2.617 0 012.017-1.412l13.939-.484-4.522-6.103-13.027.35a2.22 2.22 0 11-.1-4.44l9.786-.334-4.287-5.768a4.054 4.054 0 01-4.136-1.615 4.52 4.52 0 117.164-5.514 5.052 5.052 0 01.672 4.54l4.286 5.768 2.86-9.516c.201-1.144 1.496-1.799 2.926-1.546a2.17 2.17 0 011.546 2.926l-3.7 12.61 4.81 6.159 3.903-13.752a2.183 2.183 0 011.781-1.754 2.258 2.258 0 012.186.976l7.567 12.242 3.027-7.128-6.857-11.232a2.267 2.267 0 013.934-2.251l4.552 7.583 2.64-6.607a4.791 4.791 0 01-.671-4.54 4.614 4.614 0 018.511 3.566 4.36 4.36 0 01-3.75 2.875l-2.645 6.604 9.572-2.435a2.21 2.21 0 111.008 4.304l-12.918 3.023-2.742 7.179 13.535-3.208a2.822 2.822 0 012.523.74 1.82 1.82 0 01.167 2.387l-6.997 12.911 8.458-1.159 6.172-11.583a2.295 2.295 0 014.035 2.187l-4.76 8.591 6.927-.835a4.36 4.36 0 013.752-2.878 4.59 4.59 0 111.342 9.079 4.168 4.168 0 01-3.85-1.565l-7.6 1.31 6.709 7.077a2.32 2.32 0 01.016 3.245 2.1 2.1 0 01-3.245.016l-8.927-9.532-7.55 1.024 9.212 9.586a1.944 1.944 0 01.455 2.438 2.617 2.617 0 01-2.018 1.412l-14.51.382 5.278 6.824 13.031-.351a2.22 2.22 0 11.1 4.44l-9.787.342 4.572 5.816a4.66 4.66 0 014.422 1.665 4.855 4.855 0 01-1.11 6.289 4.32 4.32 0 01-6.34-.827zm-20.528-13.942l3.214-11.519-5.984-7.836-3.666 9.079zm-10.472-12.46l3.566-8.511-7.836.98-2.102.218-5.633 10.198zm-6.42-12.039l1.479-.033 8.172-1.21-5.043-6.49-1.46-1.732-12.125.216zm6.845-12.054l6.22 8.172 3.128-7.7.64-1.95-6.675-10.611zm14.41.188l-.976 2.185-3.129 7.697 8.172-1.21 1.48-.033 6.122-11.297zm7.126 13.047l-2.102.218-7.836.973 4.805 6.154.656 1.295 12.458-.452z" fill="#cce7ff"/><circle data-name="Ellipse 695" cx="10.521" cy="10.521" transform="translate(1853.518 8286.329)" fill="#d8edff" r="10.521"/><circle data-name="Ellipse 694" cx="13.152" cy="13.152" transform="translate(1678.602 7659)" fill="#d8edff" r="13.152"/><circle data-name="Ellipse 693" cx="36.167" cy="36.167" transform="translate(1768.009 7536.728)" fill="#cce7ff" r="36.167"/><circle data-name="Ellipse 697" cx="23.667" cy="23.667" transform="translate(1749.009 6812.728)" fill="#cce7ff" r="23.667"/><circle data-name="Ellipse 699" cx="14.167" cy="14.167" transform="translate(1864.009 7989.728)" fill="#cce7ff" r="14.167"/><circle data-name="Ellipse 698" cx="12.167" cy="12.167" transform="translate(1780.009 6764.728)" fill="#cce7ff" r="12.167"/></g></svg>