<svg xmlns="http://www.w3.org/2000/svg" width="2480.004" height="1260.003"><path data-name="Union 13" d="M.388 1260.003V210.085a126.223 126.223 0 01-.2-16.851c.053-.978.119-1.95.2-2.923v-49.454h14.121C59.288 52.367 202.329-7.503 368.13.757c88.527 4.411 168.461 27.488 229.041 62.117 37.92-11.948 84.861-17.478 135.141-14.209 63.807 4.146 120.109 21.641 158.092 46.128 61.092-17.019 140.3-25.206 226.295-20.88 70.82 3.56 136.145 15.107 189.867 31.946 65.061-8.018 141.422-12.629 223.1-12.629 64.969 0 126.574 2.916 181.8 8.145 38.682-26.606 98.59-48.178 167.648-57.405 55.371-7.4 107.4-5.62 149 3.333 37.582-17.69 81.279-31.439 128.771-39.4 161.2-27.023 305.182 22.813 321.592 111.309a91.513 91.513 0 011.4 21.641h.084v1119.15z" fill="#fff"/></svg>