<svg xmlns="http://www.w3.org/2000/svg" width="2480" height="1132.82"><path data-name="Subtraction 1" d="M104.512 1132.82H-.004V188.47h.85a92.63 92.63 0 014.615-20.121 106.757 106.757 0 019.1-19.345 134.35 134.35 0 0113.381-18.5 176.694 176.694 0 0117.441-17.577c12.814-11.287 28.369-22.089 46.23-32.105a446.887 446.887 0 0159.939-27.56 670.95 670.95 0 0171.953-22.439c25.852-6.576 53.531-12.208 82.268-16.741 29.115-4.593 59.693-8.114 90.887-10.468 31.818-2.4 64.725-3.617 97.809-3.617 23.4 0 47.27.611 70.957 1.815 38.551 1.961 76.969 5.5 114.186 10.532 36.256 4.9 71.775 11.258 105.572 18.9 33.186 7.507 65.014 16.319 94.6 26.193a720.759 720.759 0 0181.268 32.4c17.691-3.034 36.223-5.449 55.08-7.176 19.352-1.772 39.285-2.842 59.248-3.179 4.6-.078 9.273-.117 13.881-.117 55.752 0 109.4 5.751 155.156 16.631a403.137 403.137 0 0141.137-6.122c14.5-1.416 29.471-2.134 44.5-2.134 2.684 0 5.4.023 8.078.068a448.387 448.387 0 0174.74 7.392 331.234 331.234 0 0163.014 17.964c25.08-10.658 53.828-20.6 85.445-29.556 31.8-9.007 66.564-17.029 103.326-23.842 37.43-6.937 77.061-12.646 117.791-16.966 41.9-4.444 85.25-7.447 128.834-8.924a1855.944 1855.944 0 0162.59-1.066c34.266 0 68.332.983 101.248 2.923 32.244 1.9 63.813 4.741 93.83 8.445 29.613 3.653 58.072 8.189 84.586 13.481 26.365 5.262 51.1 11.328 73.516 18.032a500.922 500.922 0 0160.619 22.1c17.939 8.027 33.379 16.665 45.895 25.674a146.674 146.674 0 0116.855 14.027 97.135 97.135 0 0112.488 14.739 67.34 67.34 0 017.9 15.391 53.979 53.979 0 013.072 15.981c.061 1.64.041 3.276-.055 4.863h6.17v926.667c-11.926-8.323-27.059-15.906-44.98-22.538a411.586 411.586 0 00-60.922-16.785 686.683 686.683 0 00-74.281-10.477c-26.918-2.4-55.537-3.615-85.061-3.615a1234.849 1234.849 0 00-278.484 32.7c-22.252 5.324-43.865 11.268-64.234 17.666-20.137 6.326-39.32 13.177-57.016 20.364a265.388 265.388 0 00-40.713-16.672 412.975 412.975 0 00-49.311-12.379c-17.779-3.38-36.807-5.973-56.553-7.707-20.055-1.761-41.061-2.653-62.439-2.653a838.285 838.285 0 00-92.416 5.238c-27.482 3.063-54.7 7.419-80.9 12.946a732.229 732.229 0 00-73.24 19.34 961.13 961.13 0 00-96.479-17.441c-34.828-4.549-71.021-7.541-107.576-8.893-14.852-.55-29.83-.828-44.52-.828a1077.964 1077.964 0 00-120.092 6.489c-37.215 4.193-71.844 10.334-102.922 18.252a257.374 257.374 0 00-50.252-17.489 292.251 292.251 0 00-56.834-7.661c-3.7-.137-7.453-.207-11.154-.207a290.883 290.883 0 00-41.061 2.889 266.134 266.134 0 00-38.1 8.3 548.028 548.028 0 00-56.738-17.168c-20.508-5.078-42.441-9.441-65.191-12.966-23.17-3.59-47.424-6.347-72.086-8.2-25.309-1.9-51.357-2.858-77.424-2.858-31.955 0-63.715 1.439-94.4 4.278-29.791 2.757-58.66 6.839-85.807 12.133a635.254 635.254 0 00-74.334 18.937c-22.554 7.341-42.734 15.647-59.964 24.692z" fill="#fff"/></svg>