<svg xmlns="http://www.w3.org/2000/svg" width="2480.004" height="1260.003" viewBox="0 0 2480.004 1260.003">
  <defs>
    <style>
      .cls-1 {
        fill: #fff;
      }
    </style>
  </defs>
  <path id="Union_13" data-name="Union 13" class="cls-1" d="M18552.326,2063.9V1013.982a126.223,126.223,0,0,1-.2-16.851c.053-.978.119-1.95.2-2.923V944.754h14.121c44.779-88.49,187.82-148.36,353.621-140.1,88.527,4.411,168.461,27.488,229.041,62.117,37.92-11.948,84.861-17.478,135.141-14.209,63.807,4.146,120.109,21.641,158.092,46.128,61.092-17.019,140.3-25.206,226.295-20.88,70.82,3.56,136.145,15.107,189.867,31.946,65.061-8.018,141.422-12.629,223.1-12.629,64.969,0,126.574,2.916,181.8,8.145,38.682-26.606,98.59-48.178,167.648-57.405,55.371-7.4,107.4-5.62,149,3.333,37.582-17.69,81.279-31.439,128.771-39.4,161.2-27.023,305.182,22.813,321.592,111.309a91.513,91.513,0,0,1,1.4,21.641h.084V2063.9Z" transform="translate(-18551.938 -803.897)"/>
</svg>
