<svg xmlns="http://www.w3.org/2000/svg" width="352.815" height="1542.644" viewBox="0 0 352.815 1542.644">
  <g id="snowflake_right" transform="translate(-1605.592 -6764.728)">
    <path id="snowflakes_3" d="M129.087,27.124a8.015,8.015,0,0,1-6.907,2.3l-7.828,8.288,15.656,1.842c1.842,0,3.223,1.842,3.223,4.144a3.443,3.443,0,0,1-4.144,3.223l-20.721-2.3-8.749,9.67,22.1,2.3a3.463,3.463,0,0,1,3.223,2.3,3.581,3.581,0,0,1-.921,3.684L107.445,77.315l6.446,1.381,6.446,1.381,15.656-13.814a3.6,3.6,0,0,1,4.6,5.526l-11.512,10.13,11.051,2.3a7.6,7.6,0,0,1,6.907-2.3,7.317,7.317,0,0,1-3.223,14.274,6.916,6.916,0,0,1-5.526-5.065l-11.051-2.3,6.446,14.274a3.507,3.507,0,1,1-6.446,2.763L118.5,87.445l-11.051-2.3-2.3-.46,9.209,20.721a4.476,4.476,0,0,1-.46,4.144c-.921,1.381-2.763,1.381-4.144.921l-20.26-6.907,4.144,11.512,19.8,6.447c1.842.46,2.763,2.763,2.3,4.6s-2.763,2.763-4.6,2.3l-14.735-5.065,3.684,11.051a7.241,7.241,0,0,1,5.065,4.6c1.381,3.684-.921,7.828-4.6,9.209s-7.828-.921-9.209-4.6a7.162,7.162,0,0,1,1.842-7.367l-3.223-10.591L80.738,138.1a3.747,3.747,0,0,1-5.065.921,4.2,4.2,0,0,1-.921-5.065l12.432-17.037-4.144-12.893L69.227,122.9a3.085,3.085,0,0,1-3.684,1.381,4.151,4.151,0,0,1-2.763-2.763l-4.6-21.642-8.288,8.749,4.144,20.26a3.522,3.522,0,1,1-6.907,1.381l-3.223-15.2-7.828,8.288a6.432,6.432,0,0,1-1.381,6.907c-2.763,2.763-7.367,3.223-10.13.46s-3.223-7.367-.46-10.13a8.015,8.015,0,0,1,6.907-2.3l7.828-8.288-15.656-1.842c-1.842,0-3.223-1.842-3.223-4.144A3.443,3.443,0,0,1,24.1,100.8l20.721,2.3,8.288-9.209-22.563-2.3a3.463,3.463,0,0,1-3.223-2.3,3.581,3.581,0,0,1,.921-3.684l17.037-15.2L33.311,67.645,17.655,81.459A3.285,3.285,0,0,1,12.59,81a3.285,3.285,0,0,1,.46-5.065l10.591-9.209-11.051-2.3a7.6,7.6,0,0,1-6.907,2.3A7.071,7.071,0,0,1,.158,57.975,7.071,7.071,0,0,1,8.907,52.45a6.916,6.916,0,0,1,5.526,5.065l11.051,2.3L19.037,45.543a3.238,3.238,0,0,1,1.842-4.6,3.238,3.238,0,0,1,4.6,1.842l8.288,19.339,11.972,2.3-8.749-20.26a4.476,4.476,0,0,1,.46-4.144c.921-1.381,2.3-1.381,3.684-.921l22.1,7.367L59.1,33.571,39.3,27.124c-1.842-.46-2.763-2.763-2.3-4.6s2.763-2.763,4.6-2.3l14.735,5.065L53.111,14.692a6.916,6.916,0,0,1-5.526-5.065C46.2,5.943,48.506,1.8,52.19.417s7.828.921,9.209,4.6c.921,2.3,0,4.6-1.381,6.447L64.162,22.98l9.209-12.433c1.381-1.842,3.223-1.842,5.065-.921,1.842,1.381,2.3,3.223.921,5.065L66.925,31.268,70.608,42.78,83.041,25.743a3.085,3.085,0,0,1,3.684-1.381,4.151,4.151,0,0,1,2.763,2.763l4.6,22.563,9.209-10.13L99.157,19.3a3.522,3.522,0,1,1,6.907-1.381l3.223,15.2,7.828-8.749a7.391,7.391,0,0,1,1.381-7.367c2.763-2.3,7.367-2.763,10.13,0A6.852,6.852,0,0,1,129.087,27.124ZM112.971,63.04,94.092,61.2,83.5,72.71l15.2,3.223ZM96.394,82.84,82.12,79.617,85.8,91.589l.921,3.223,17.5,5.986ZM79.357,96.194l-.46-2.3L74.752,81.459,66,91.129l-2.3,2.763,3.684,18.879ZM58.636,88.826,69.687,76.854,56.794,74.091l-3.223-.46L38.836,86.984ZM54.953,66.264l3.684.921,12.893,2.763L67.385,57.515l-.46-2.3L47.585,48.766ZM73.371,51.529l.921,3.223,3.684,11.972,8.288-9.209,1.842-1.381-4.144-19.34Z" transform="translate(1768.346 8093.592)" fill="#cce7ff"/>
    <path id="snowflakes_3-2" data-name="snowflakes_3" d="M129.087,27.124a8.015,8.015,0,0,1-6.907,2.3l-7.828,8.288,15.656,1.842c1.842,0,3.223,1.842,3.223,4.144a3.443,3.443,0,0,1-4.144,3.223l-20.721-2.3-8.749,9.67,22.1,2.3a3.463,3.463,0,0,1,3.223,2.3,3.581,3.581,0,0,1-.921,3.684L107.445,77.315l6.446,1.381,6.446,1.381,15.656-13.814a3.6,3.6,0,0,1,4.6,5.526l-11.512,10.13,11.051,2.3a7.6,7.6,0,0,1,6.907-2.3,7.317,7.317,0,0,1-3.223,14.274,6.916,6.916,0,0,1-5.526-5.065l-11.051-2.3,6.446,14.274a3.507,3.507,0,1,1-6.446,2.763L118.5,87.445l-11.051-2.3-2.3-.46,9.209,20.721a4.476,4.476,0,0,1-.46,4.144c-.921,1.381-2.763,1.381-4.144.921l-20.26-6.907,4.144,11.512,19.8,6.447c1.842.46,2.763,2.763,2.3,4.6s-2.763,2.763-4.6,2.3l-14.735-5.065,3.684,11.051a7.241,7.241,0,0,1,5.065,4.6c1.381,3.684-.921,7.828-4.6,9.209s-7.828-.921-9.209-4.6a7.162,7.162,0,0,1,1.842-7.367l-3.223-10.591L80.738,138.1a3.747,3.747,0,0,1-5.065.921,4.2,4.2,0,0,1-.921-5.065l12.432-17.037-4.144-12.893L69.227,122.9a3.085,3.085,0,0,1-3.684,1.381,4.151,4.151,0,0,1-2.763-2.763l-4.6-21.642-8.288,8.749,4.144,20.26a3.522,3.522,0,1,1-6.907,1.381l-3.223-15.2-7.828,8.288a6.432,6.432,0,0,1-1.381,6.907c-2.763,2.763-7.367,3.223-10.13.46s-3.223-7.367-.46-10.13a8.015,8.015,0,0,1,6.907-2.3l7.828-8.288-15.656-1.842c-1.842,0-3.223-1.842-3.223-4.144A3.443,3.443,0,0,1,24.1,100.8l20.721,2.3,8.288-9.209-22.563-2.3a3.463,3.463,0,0,1-3.223-2.3,3.581,3.581,0,0,1,.921-3.684l17.037-15.2L33.311,67.645,17.655,81.459A3.285,3.285,0,0,1,12.59,81a3.285,3.285,0,0,1,.46-5.065l10.591-9.209-11.051-2.3a7.6,7.6,0,0,1-6.907,2.3A7.071,7.071,0,0,1,.158,57.975,7.071,7.071,0,0,1,8.907,52.45a6.916,6.916,0,0,1,5.526,5.065l11.051,2.3L19.037,45.543a3.238,3.238,0,0,1,1.842-4.6,3.238,3.238,0,0,1,4.6,1.842l8.288,19.339,11.972,2.3-8.749-20.26a4.476,4.476,0,0,1,.46-4.144c.921-1.381,2.3-1.381,3.684-.921l22.1,7.367L59.1,33.571,39.3,27.124c-1.842-.46-2.763-2.763-2.3-4.6s2.763-2.763,4.6-2.3l14.735,5.065L53.111,14.692a6.916,6.916,0,0,1-5.526-5.065C46.2,5.943,48.506,1.8,52.19.417s7.828.921,9.209,4.6c.921,2.3,0,4.6-1.381,6.447L64.162,22.98l9.209-12.433c1.381-1.842,3.223-1.842,5.065-.921,1.842,1.381,2.3,3.223.921,5.065L66.925,31.268,70.608,42.78,83.041,25.743a3.085,3.085,0,0,1,3.684-1.381,4.151,4.151,0,0,1,2.763,2.763l4.6,22.563,9.209-10.13L99.157,19.3a3.522,3.522,0,1,1,6.907-1.381l3.223,15.2,7.828-8.749a7.391,7.391,0,0,1,1.381-7.367c2.763-2.3,7.367-2.763,10.13,0A6.852,6.852,0,0,1,129.087,27.124ZM112.971,63.04,94.092,61.2,83.5,72.71l15.2,3.223ZM96.394,82.84,82.12,79.617,85.8,91.589l.921,3.223,17.5,5.986ZM79.357,96.194l-.46-2.3L74.752,81.459,66,91.129l-2.3,2.763,3.684,18.879ZM58.636,88.826,69.687,76.854,56.794,74.091l-3.223-.46L38.836,86.984ZM54.953,66.264l3.684.921,12.893,2.763L67.385,57.515l-.46-2.3L47.585,48.766ZM73.371,51.529l.921,3.223,3.684,11.972,8.288-9.209,1.842-1.381-4.144-19.34Z" transform="matrix(0.574, -0.819, 0.819, 0.574, 1749.029, 7248.838)" fill="#cce7ff"/>
    <g id="Group_4385" data-name="Group 4385" transform="translate(1941.146 7902.739) rotate(159)">
      <path id="Path_3354" data-name="Path 3354" d="M59.908,71.957A4.028,4.028,0,0,1,57.271,70.9a28.9,28.9,0,0,1-9.493-8.438,36.354,36.354,0,0,1-3.692-7.911c-1.055-2.637-1.055-5.8-1.055-8.438,0-1.055.527-2.11.527-3.164,0-.527,0-.527-.527-1.055a32.015,32.015,0,0,1-5.274-3.692c-.527-.527-.527,0-1.055.527.527.527,0,1.582,0,2.637-1.055,2.637-.527,5.8-.527,8.438,0,1.582,1.055,3.164,1.582,4.746a1.841,1.841,0,0,0,.527,1.055c0,.527,0,.527-.527.527-1.582-.527-2.637-2.11-3.692-3.164a29.9,29.9,0,0,1-4.219-6.856,12.021,12.021,0,0,1-1.582-5.8,5.777,5.777,0,0,1,0-4.219c0-.527,0-1.055-1.055-1.055s-2.637.527-3.692.527a25.676,25.676,0,0,1-6.328.527,34.817,34.817,0,0,1-7.383.527c-2.109,0-3.692.527-5.8.527-.527,0-1.055,0-.527,1.055a18.737,18.737,0,0,1,1.055,5.274c.527,2.109,1.055,4.746,1.582,6.856C6.644,53.5,7.7,56.136,8.226,59.3c0,1.055.527,2.11.527,3.164,0,.527.527.527,1.055.527l3.164-1.582a27.211,27.211,0,0,1,5.8-1.055c3.692,0,6.856,1.582,10.547,2.637h0c.527.527,1.055.527,1.055,1.055s-.527,0-1.055,0a18.613,18.613,0,0,0-7.383,1.582A23.772,23.772,0,0,0,14.555,70.9c-.527.527-.527.527,0,1.055,1.055,1.582,2.637,2.637,3.692,4.219L19.3,77.231c0,.527.527,0,.527,0,1.055,0,2.109-1.055,3.164-1.582a23.3,23.3,0,0,1,8.438-3.164,30.069,30.069,0,0,1,6.856.527c5.274,1.055,9.493,3.164,14.239,5.8.527,0,.527.527,1.055,1.055a.516.516,0,0,1,.527.527c0,.527,0,.527-.527.527a23.21,23.21,0,0,1-5.274-1.055c-2.109-.527-4.219-.527-6.328-1.055a11.612,11.612,0,0,0-4.219-.527c-2.109-.527-3.692-.527-5.8-1.055-.527,0-1.055,0-1.055.527l-5.8,5.8L23.52,85.142c-.527.527-.527.527,0,1.055l5.8,5.8,2.109,2.109a1.937,1.937,0,0,0,1.582.527c2.109-.527,4.219-.527,6.856-1.055A13.194,13.194,0,0,1,46.724,92c1.582,0,3.164-.527,4.746-.527.527,0,.527,0,.527.527.527,1.582.527,1.582-1.055,2.637L44.615,97.8a30.23,30.23,0,0,1-7.383,2.11,19.974,19.974,0,0,1-7.911,0,25.706,25.706,0,0,1-5.8-2.109,20.648,20.648,0,0,1-5.274-4.219c-.527-.527-.527-.527-1.055,0l-4.746,4.746c-.527.527-.527.527,0,1.055a25.372,25.372,0,0,0,5.8,4.746c2.109,1.055,4.746,2.109,7.383,3.164a.517.517,0,0,1,.527.527h-.527c-1.582.527-3.692,1.055-5.8,1.582a19.974,19.974,0,0,1-7.911,0A10.6,10.6,0,0,1,7.7,107.291c-.527-.527-.527-.527-1.055.527a12.412,12.412,0,0,0-1.055,4.219c-.527,2.109-1.055,3.692-1.582,5.8-.527,2.637-1.582,5.274-2.109,7.383S.843,128.914.315,130.5s-.527,2.109,1.055,2.109c2.637.527,4.746.527,7.383,1.055,1.055.527,3.164.527,4.746,1.055a30.864,30.864,0,0,1,6.856,1.055c1.055,0,2.109.527,3.164.527.527,0,.527,0,.527-.527a18.959,18.959,0,0,1,1.055-5.8A24.3,24.3,0,0,1,29.848,121a12.451,12.451,0,0,1,4.746-4.219c.527-.527,1.055-1.055,1.582-.527s0,1.055-.527,1.582a29.732,29.732,0,0,0-2.11,6.328,15.052,15.052,0,0,0,0,6.856,7.5,7.5,0,0,0,1.055,3.164h.527c1.582-1.055,3.692-2.109,5.274-3.164a.517.517,0,0,0,.527-.527q0-.791,0-1.582c-.527-2.109,0-4.746,0-6.856a27.114,27.114,0,0,1,7.911-14.766c2.109-2.109,4.219-3.164,6.856-4.746h1.055c.527.527,1.055,1.055,1.055,1.582.527.527.527.527,0,1.055a91.672,91.672,0,0,1-6.856,7.911A91.673,91.673,0,0,1,44.087,121a1.937,1.937,0,0,0-.527,1.582c.527,2.637,1.582,5.274,2.109,8.438,0,.527.527,1.055.527,2.109h1.582c.527,0,1.055-.527,2.109-.527a15.6,15.6,0,0,1,5.274-1.055c1.582-.527,2.637-.527,4.219-1.055a.517.517,0,0,0,.527-.527c1.055-3.164,2.109-5.8,3.164-8.965,1.055-2.109,1.582-4.219,2.637-6.856.527-1.055.527-2.109,1.055-3.164.527-.527.527-1.055,1.055-.527.527,0,1.582.527,2.109.527a.516.516,0,0,1,.527.527c0,2.637.527,4.746,0,7.383a30.787,30.787,0,0,1-4.219,11.6,23.011,23.011,0,0,1-8.965,8.438c-.527.527-1.582.527-2.109,1.055-.527,0-.527.527-.527,1.055,0,1.582,0,3.164,0,4.219q0,.791,0,1.582c0,1.055,0,1.055,1.055,1.055,3.692-1.055,7.383-2.637,10.02-5.274,1.582-1.582,2.637-3.164,4.219-4.746l.527-.527c.527,0,0,.527.527.527,0,1.055,0,2.109,0,2.637a27,27,0,0,1-5.274,11.075,27.641,27.641,0,0,1-5.8,5.274c-.527.527-.527.527,0,1.055l6.328,7.911c2.637,3.164,5.274,5.8,7.383,8.965l1.582,1.582c.527.527.527.527,1.055,0,2.109-2.109,4.219-4.746,6.328-6.856,3.164-3.692,6.856-7.383,10.02-11.6.527-.527.527-.527,0-1.055a34.538,34.538,0,0,1-9.493-7.911c-1.582-2.109-3.164-4.219-3.692-6.856a5.777,5.777,0,0,1,0-4.219c0-.527,0-1.055.527-1.055s.527.527,1.055.527c1.055,1.055,2.109,2.637,3.692,4.219a17.879,17.879,0,0,0,7.383,4.746c1.582.527,3.692,1.055,5.274,1.582.527,0,.527,0,.527-.527l1.582-6.328c0-.527,0-1.055-.527-1.055l-4.746-1.582a21.144,21.144,0,0,1-7.911-7.383,18.49,18.49,0,0,1-3.164-7.383c-.527-2.637-1.582-4.746-1.582-7.383A8.975,8.975,0,0,0,81,112.565c0-.527,0-1.055.527-1.055s1.055-.527,2.109-.527c.527,0,.527,0,1.055.527,1.055,2.109,2.109,4.746,3.164,6.856,1.582,3.164,2.637,6.328,4.219,9.493.527.527.527,1.582,1.055,2.109a.517.517,0,0,0,.527.527,26.471,26.471,0,0,0,6.328,1.055,18.736,18.736,0,0,0,5.274,1.055c.527,0,.527,0,.527-.527a9.777,9.777,0,0,1,1.055-3.692c.527-2.11,1.055-4.219,1.582-6.856,0-.527,0-1.055-.527-1.055-2.637-2.637-4.746-5.274-7.383-7.911-2.109-2.637-4.746-5.274-6.856-7.911-.527-.527-.527-.527,0-1.055a11.527,11.527,0,0,0,1.582-2.637c0-.527.527-.527.527,0a27.76,27.76,0,0,1,10.547,8.438,16.5,16.5,0,0,1,2.637,5.274c.527,1.582,1.055,2.637,1.582,4.219,0,2.109.527,4.746,0,7.383v.527c-.527,1.055,0,1.582,1.055,2.109,1.582,1.055,3.164,1.582,4.746,2.637h.527a15.4,15.4,0,0,0,1.055-4.746,25.677,25.677,0,0,0-.527-6.328,7.5,7.5,0,0,0-1.055-3.164c-.527-1.055-.527-2.109-1.055-3.164v-.527h.527c2.109,1.055,3.164,2.637,4.746,4.219a29.741,29.741,0,0,1,5.8,10.547,13.106,13.106,0,0,1,.527,4.219.517.517,0,0,0,.527.527c2.109-.527,4.746-.527,6.856-1.055a11.611,11.611,0,0,1,4.219-.527c3.692-1.055,6.328-1.582,8.965-2.11,1.055,0,2.637-.527,3.692-.527.527,0,1.055-.527.527-1.055l-3.164-9.493c-.527-2.109-1.582-4.219-2.109-6.328-1.055-2.637-1.582-5.274-2.637-7.911,0-.527-.527-.527-1.055-.527a19.5,19.5,0,0,1-5.8,2.637,25.676,25.676,0,0,1-6.328.527,26.471,26.471,0,0,1-6.328-1.055c-1.055-.527-2.109-.527-3.164-1.582a4.754,4.754,0,0,1,2.637-.527,24.862,24.862,0,0,0,7.911-3.164,27.641,27.641,0,0,0,5.8-5.274c.527-.527,0-.527,0-.527-1.582-1.582-3.692-3.164-5.274-4.746-.527-.527-1.055-.527-1.055,0a20.068,20.068,0,0,1-6.856,4.746,16.844,16.844,0,0,1-10.02,1.582c-1.582,0-3.164-.527-4.746-.527-1.582-.527-3.692-1.055-5.274-1.582-2.109-1.055-4.219-1.582-6.328-3.164-.527-.527-.527-.527-.527-1.055,0-1.582,0-1.582,1.582-1.582a21.631,21.631,0,0,0,5.8.527,23.649,23.649,0,0,0,5.8.527c1.582,0,3.164.527,4.746.527,1.055,0,2.109.527,3.692.527.527,0,1.055,0,1.055-.527a56.45,56.45,0,0,0,7.383-8.438c.527-.527.527-.527,0-1.055-2.637-2.109-4.746-4.219-7.383-6.328-1.055-1.055-1.582-1.055-2.637-.527a13.806,13.806,0,0,1-6.856,3.164c-2.637.527-4.746,1.055-7.383,1.582a14.6,14.6,0,0,1-4.746.527H97.352a.516.516,0,0,1-.527-.527c0-.527,0-.527.527-.527,1.582-1.582,3.164-2.109,5.274-3.164a29.732,29.732,0,0,1,6.328-2.109,17.94,17.94,0,0,1,5.274-.527,28.591,28.591,0,0,1,13.184,3.164,2.74,2.74,0,0,0,2.109,1.055c.527.527.527,0,1.055,0,1.582-1.055,3.164-2.637,5.274-3.692.527-.527.527-.527,0-1.055a19.35,19.35,0,0,0-8.965-5.274,30.07,30.07,0,0,0-6.856-.527c-.527,0-.527,0-.527-.527s0-.527.527-.527a15.792,15.792,0,0,1,5.274-2.11c1.055,0,1.582-.527,2.637-.527a17.377,17.377,0,0,1,7.383,0,14.042,14.042,0,0,1,6.328,1.582c1.055.527,1.055.527,1.055-.527.527-2.109,1.055-4.219,1.582-5.8.527-1.055.527-2.637,1.055-3.692.527-2.109,1.055-3.692,1.582-5.8.527-1.582.527-2.637,1.055-4.219,0-1.055.527-1.582.527-2.637,0-.527,0-.527-.527-.527A35.61,35.61,0,0,1,140.6,39.26a46.155,46.155,0,0,0-8.438-1.055,17.94,17.94,0,0,0-5.274-.527c-1.055,0-2.109-.527-3.692-.527-.527,0-.527,0-.527.527q0,1.582,0,3.164a29.864,29.864,0,0,1-1.582,9.493,12.473,12.473,0,0,1-5.8,6.856c-.527,0-1.055.527-1.055,0-.527,0,0-.527,0-1.055a26.719,26.719,0,0,0,1.055-6.856,25.674,25.674,0,0,0-.527-6.328c-.527-1.582-1.055-2.637-1.582-4.219,0-.527-.527-.527-1.055-.527-2.109,1.055-4.219,1.582-6.328,2.637a.516.516,0,0,0-.527.527c.527,1.582,1.055,3.692,1.582,5.8v5.274a26.492,26.492,0,0,1-2.637,6.856c-.527.527-.527,1.055-1.055,2.11a67.916,67.916,0,0,1-8.438,8.965,11.528,11.528,0,0,1-2.637,1.582.517.517,0,0,0-.527.527h-.527v-.527a25.71,25.71,0,0,0,1.582-3.692A149.337,149.337,0,0,1,103.153,53.5a.989.989,0,0,0,0-1.582c-1.055-2.109-1.582-4.219-2.637-6.328-.527-1.582-1.055-2.637-1.582-4.219,0-.527-.527-.527-1.055-.527-1.582.527-2.637,1.055-4.219,1.582s-3.692,1.582-5.274,2.109c-1.055.527-1.055,1.582-1.582,2.637a15.4,15.4,0,0,0-1.055,4.746l-1.582,6.328c-.527,1.582-.527,2.637-1.055,4.219L81.53,67.211c0-.527-.527-1.582-.527-2.109a28.676,28.676,0,0,1,0-9.493c1.055-4.219,2.637-8.438,5.274-11.6a25.775,25.775,0,0,1,9.493-7.383c.527,0,1.055-.527,1.055-1.582,0-2.11,0-3.692,0-5.8,0-.527,0-1.055-1.055-.527-1.582,0-3.692,1.055-5.274,1.582a21.145,21.145,0,0,0-7.911,7.383c0,.527-.527.527-1.055,1.055s-.527,0-.527,0V37.678a15.4,15.4,0,0,1,1.055-4.746,48.22,48.22,0,0,1,3.692-7.383,18.179,18.179,0,0,1,6.328-6.329c.527-.527.527-.527,0-1.055L82.585,7.09a66.8,66.8,0,0,1-5.8-6.856c-.527-.527-.527,0-1.055,0a78.912,78.912,0,0,0-5.8,6.856c-3.692,3.692-6.856,7.911-10.547,11.6-.527.527-.527.527,0,1.055A15.552,15.552,0,0,1,66.764,26.6a22.04,22.04,0,0,1,2.109,5.274c.527,1.055.527,2.637,1.055,3.692h0c0,.527,0,.527,0,1.055-.527,0-.527,0-.527-.527l-3.164-3.164a39.335,39.335,0,0,0-6.328-3.692c-2.109,0-3.692-.527-4.746-.527-.527,0-.527,0-.527.527,0,1.055-.527,2.109-.527,3.164s-.527,2.11-.527,3.692c0,.527,0,.527.527,1.055,1.582.527,2.637.527,4.219,1.055a17.487,17.487,0,0,1,7.383,5.274c2.109,2.109,3.164,5.274,4.219,7.911.527,2.11,1.055,3.692,1.582,5.8,0,1.582.527,2.637.527,4.219s0,3.164,0,4.746c0,.527,0,1.055-1.055,1.055a1.937,1.937,0,0,0-1.582.527c-.527,0-.527,0-.527-.527-.527-2.109-1.055-4.746-1.582-6.856a43.934,43.934,0,0,0-2.109-7.911L63.6,46.116a1.134,1.134,0,0,0-1.055-1.055C58.854,44.006,55.689,42.424,52,41.37c-.527,0-.527,0-.527.527-.527,2.109-1.582,3.692-2.11,5.8-.527,1.582-1.055,2.637-1.582,4.219q0,.791,0,1.582c2.109,3.164,4.219,5.8,5.8,8.965,2.109,3.164,4.219,6.328,6.328,10.02C59.381,71.43,59.381,71.43,59.908,71.957Z" transform="translate(0 0)" fill="#cce7ff"/>
    </g>
    <g id="Group_4388" data-name="Group 4388" transform="translate(1931.547 6875.792) rotate(159)">
      <path id="Path_3354-2" data-name="Path 3354" d="M24.352,29.25a1.637,1.637,0,0,1-1.072-.429,11.747,11.747,0,0,1-3.859-3.43,14.778,14.778,0,0,1-1.5-3.216,9.44,9.44,0,0,1-.429-3.43c0-.429.214-.857.214-1.286,0-.214,0-.214-.214-.429a13.014,13.014,0,0,1-2.144-1.5c-.214-.214-.214,0-.429.214.214.214,0,.643,0,1.072a9.28,9.28,0,0,0-.214,3.43,6.813,6.813,0,0,0,.643,1.929.748.748,0,0,0,.214.429c0,.214,0,.214-.214.214-.643-.214-1.072-.857-1.5-1.286a12.154,12.154,0,0,1-1.715-2.787,4.886,4.886,0,0,1-.643-2.358,2.348,2.348,0,0,1,0-1.715c0-.214,0-.429-.429-.429s-1.072.214-1.5.214a10.437,10.437,0,0,1-2.572.214,14.153,14.153,0,0,1-3,.214c-.857,0-1.5.214-2.358.214-.214,0-.429,0-.214.429a7.617,7.617,0,0,1,.429,2.144c.214.857.429,1.929.643,2.787.214,1.286.643,2.358.857,3.644,0,.429.214.857.214,1.286,0,.214.214.214.429.214l1.286-.643a11.061,11.061,0,0,1,2.358-.429,15.724,15.724,0,0,1,4.287,1.072h0c.214.214.429.214.429.429s-.214,0-.429,0a7.566,7.566,0,0,0-3,.643,9.663,9.663,0,0,0-3,2.144c-.214.214-.214.214,0,.429.429.643,1.072,1.072,1.5,1.715l.429.429c0,.214.214,0,.214,0,.429,0,.857-.429,1.286-.643a9.472,9.472,0,0,1,3.43-1.286,12.223,12.223,0,0,1,2.787.214,19.374,19.374,0,0,1,5.788,2.358c.214,0,.214.214.429.429a.21.21,0,0,1,.214.214c0,.214,0,.214-.214.214a9.434,9.434,0,0,1-2.144-.429c-.857-.214-1.715-.214-2.572-.429a4.72,4.72,0,0,0-1.715-.214c-.857-.214-1.5-.214-2.358-.429-.214,0-.429,0-.429.214L10.2,33.966l-.643.643c-.214.214-.214.214,0,.429L11.919,37.4l.857.857a.788.788,0,0,0,.643.214c.857-.214,1.715-.214,2.787-.429a5.363,5.363,0,0,1,2.787-.643c.643,0,1.286-.214,1.929-.214.214,0,.214,0,.214.214.214.643.214.643-.429,1.072l-2.572,1.286a12.288,12.288,0,0,1-3,.858,8.119,8.119,0,0,1-3.216,0,10.449,10.449,0,0,1-2.358-.857,8.394,8.394,0,0,1-2.144-1.715c-.214-.214-.214-.214-.429,0L5.059,39.969c-.214.214-.214.214,0,.429a10.313,10.313,0,0,0,2.358,1.929c.857.429,1.929.857,3,1.286a.21.21,0,0,1,.214.214h-.214c-.643.214-1.5.429-2.358.643a8.119,8.119,0,0,1-3.216,0,4.309,4.309,0,0,1-1.715-.857c-.214-.214-.214-.214-.429.214a5.045,5.045,0,0,0-.429,1.715c-.214.857-.429,1.5-.643,2.358-.214,1.072-.643,2.144-.857,3S.343,52.4.128,53.045s-.214.857.429.857c1.072.214,1.929.214,3,.429.429.214,1.286.214,1.929.429a12.546,12.546,0,0,1,2.787.429c.429,0,.857.214,1.286.214.214,0,.214,0,.214-.214a7.707,7.707,0,0,1,.429-2.358,9.879,9.879,0,0,1,1.929-3.644,5.061,5.061,0,0,1,1.929-1.715c.214-.214.429-.429.643-.214s0,.429-.214.643a12.086,12.086,0,0,0-.857,2.572,6.119,6.119,0,0,0,0,2.787,3.047,3.047,0,0,0,.429,1.286h.214c.643-.429,1.5-.857,2.144-1.286a.21.21,0,0,0,.214-.214q0-.322,0-.643a12.117,12.117,0,0,1,0-2.787,11.022,11.022,0,0,1,3.216-6,12.894,12.894,0,0,1,2.787-1.929h.429c.214.214.429.429.429.643.214.214.214.214,0,.429a37.264,37.264,0,0,1-2.787,3.216,37.264,37.264,0,0,1-2.787,3.216.788.788,0,0,0-.214.643c.214,1.072.643,2.144.857,3.43,0,.214.214.429.214.857h.643c.214,0,.429-.214.857-.214a6.342,6.342,0,0,1,2.144-.429c.643-.214,1.072-.214,1.715-.429a.21.21,0,0,0,.214-.214c.429-1.286.857-2.358,1.286-3.644.429-.857.643-1.715,1.072-2.787.214-.429.214-.857.429-1.286.214-.214.214-.429.429-.214.214,0,.643.214.857.214a.21.21,0,0,1,.214.214,14.046,14.046,0,0,1,0,3,12.515,12.515,0,0,1-1.715,4.716,9.354,9.354,0,0,1-3.644,3.43c-.214.214-.643.214-.857.429-.214,0-.214.214-.214.429,0,.643,0,1.286,0,1.715q0,.322,0,.643c0,.429,0,.429.429.429a9.328,9.328,0,0,0,4.073-2.144c.643-.643,1.072-1.286,1.715-1.929l.214-.214c.214,0,0,.214.214.214,0,.429,0,.857,0,1.072a10.974,10.974,0,0,1-2.144,4.5,11.236,11.236,0,0,1-2.358,2.144c-.214.214-.214.214,0,.429l2.572,3.216a44.9,44.9,0,0,1,3,3.644l.643.643c.214.214.214.214.429,0,.857-.857,1.715-1.929,2.572-2.787,1.286-1.5,2.787-3,4.073-4.716.214-.214.214-.214,0-.429a14.039,14.039,0,0,1-3.859-3.216,7.059,7.059,0,0,1-1.5-2.787,2.348,2.348,0,0,1,0-1.715c0-.214,0-.429.214-.429s.214.214.429.214c.429.429.857,1.072,1.5,1.715a7.267,7.267,0,0,0,3,1.929c.643.214,1.5.429,2.144.643.214,0,.214,0,.214-.214l.643-2.572c0-.214,0-.429-.214-.429l-1.929-.643a8.6,8.6,0,0,1-3.216-3,7.516,7.516,0,0,1-1.286-3,15.019,15.019,0,0,1-.643-3,3.648,3.648,0,0,0-.214-1.5c0-.214,0-.429.214-.429s.429-.214.857-.214c.214,0,.214,0,.429.214.429.857.857,1.929,1.286,2.787.643,1.286,1.072,2.572,1.715,3.859.214.214.214.643.429.857a.21.21,0,0,0,.214.214,10.76,10.76,0,0,0,2.572.429,7.616,7.616,0,0,0,2.144.429c.214,0,.214,0,.214-.214a3.974,3.974,0,0,1,.429-1.5c.214-.857.429-1.715.643-2.787,0-.214,0-.429-.214-.429-1.072-1.072-1.929-2.144-3-3.216-.857-1.072-1.929-2.144-2.787-3.216-.214-.214-.214-.214,0-.429a4.686,4.686,0,0,0,.643-1.072c0-.214.214-.214.214,0a11.284,11.284,0,0,1,4.287,3.43,6.706,6.706,0,0,1,1.072,2.144c.214.643.429,1.072.643,1.715a14.006,14.006,0,0,1,0,3v.214c-.214.429,0,.643.429.857.643.429,1.286.643,1.929,1.072H47.5a6.259,6.259,0,0,0,.429-1.929,10.438,10.438,0,0,0-.214-2.572,3.047,3.047,0,0,0-.429-1.286c-.214-.429-.214-.857-.429-1.286v-.214h.214A7.4,7.4,0,0,1,49,47.9a12.089,12.089,0,0,1,2.358,4.287,5.328,5.328,0,0,1,.214,1.715.21.21,0,0,0,.214.214c.857-.214,1.929-.214,2.787-.429a4.72,4.72,0,0,1,1.715-.214c1.5-.429,2.572-.643,3.644-.858.429,0,1.072-.214,1.5-.214.214,0,.429-.214.214-.429l-1.286-3.859c-.214-.857-.643-1.715-.857-2.572-.429-1.072-.643-2.144-1.072-3.216,0-.214-.214-.214-.429-.214a7.925,7.925,0,0,1-2.358,1.072,10.437,10.437,0,0,1-2.572.214,10.76,10.76,0,0,1-2.572-.429c-.429-.214-.857-.214-1.286-.643a1.933,1.933,0,0,1,1.072-.214,10.106,10.106,0,0,0,3.216-1.286,11.236,11.236,0,0,0,2.358-2.144c.214-.214,0-.214,0-.214-.643-.643-1.5-1.286-2.144-1.929-.214-.214-.429-.214-.429,0a8.157,8.157,0,0,1-2.787,1.929,6.847,6.847,0,0,1-4.073.643c-.643,0-1.286-.214-1.929-.214-.643-.214-1.5-.429-2.144-.643a14.407,14.407,0,0,1-2.572-1.286c-.214-.214-.214-.214-.214-.429,0-.643,0-.643.643-.643a8.793,8.793,0,0,0,2.358.214,9.613,9.613,0,0,0,2.358.214c.643,0,1.286.214,1.929.214.429,0,.857.214,1.5.214.214,0,.429,0,.429-.214a22.947,22.947,0,0,0,3-3.43c.214-.214.214-.214,0-.429-1.072-.857-1.929-1.715-3-2.572-.429-.429-.643-.429-1.072-.214a5.612,5.612,0,0,1-2.787,1.286c-1.072.214-1.929.429-3,.643A5.935,5.935,0,0,1,40,32.037h-.429a.21.21,0,0,1-.214-.214c0-.214,0-.214.214-.214a7.135,7.135,0,0,1,2.144-1.286,12.086,12.086,0,0,1,2.572-.857,7.292,7.292,0,0,1,2.144-.214,11.622,11.622,0,0,1,5.359,1.286,1.114,1.114,0,0,0,.857.429c.214.214.214,0,.429,0a18.544,18.544,0,0,1,2.144-1.5c.214-.214.214-.214,0-.429a7.866,7.866,0,0,0-3.644-2.144,12.223,12.223,0,0,0-2.787-.214c-.214,0-.214,0-.214-.214s0-.214.214-.214a6.419,6.419,0,0,1,2.144-.858c.429,0,.643-.214,1.072-.214a7.064,7.064,0,0,1,3,0,5.708,5.708,0,0,1,2.572.643c.429.214.429.214.429-.214.214-.857.429-1.715.643-2.358.214-.429.214-1.072.429-1.5.214-.857.429-1.5.643-2.358.214-.643.214-1.072.429-1.715,0-.429.214-.643.214-1.072,0-.214,0-.214-.214-.214a14.475,14.475,0,0,1-3-.429,18.762,18.762,0,0,0-3.43-.429,7.293,7.293,0,0,0-2.144-.214c-.429,0-.857-.214-1.5-.214-.214,0-.214,0-.214.214q0,.643,0,1.286a12.139,12.139,0,0,1-.643,3.859,5.07,5.07,0,0,1-2.358,2.787c-.214,0-.429.214-.429,0-.214,0,0-.214,0-.429a10.861,10.861,0,0,0,.429-2.787,10.436,10.436,0,0,0-.214-2.572c-.214-.643-.429-1.072-.643-1.715,0-.214-.214-.214-.429-.214-.857.429-1.715.643-2.572,1.072a.21.21,0,0,0-.214.214c.214.643.429,1.5.643,2.358v2.144A10.769,10.769,0,0,1,42.359,24.1c-.214.214-.214.429-.429.857a27.608,27.608,0,0,1-3.43,3.644,4.686,4.686,0,0,1-1.072.643.21.21,0,0,0-.214.214H37V29.25a10.451,10.451,0,0,0,.643-1.5,60.7,60.7,0,0,1,4.287-6,.4.4,0,0,0,0-.643c-.429-.857-.643-1.715-1.072-2.572-.214-.643-.429-1.072-.643-1.715,0-.214-.214-.214-.429-.214-.643.214-1.072.429-1.715.643s-1.5.643-2.144.857c-.429.214-.429.643-.643,1.072a6.259,6.259,0,0,0-.429,1.929l-.643,2.572c-.214.643-.214,1.072-.429,1.715l-.643,1.929c0-.214-.214-.643-.214-.857a11.657,11.657,0,0,1,0-3.859,11.866,11.866,0,0,1,2.144-4.716,10.477,10.477,0,0,1,3.859-3c.214,0,.429-.214.429-.643,0-.858,0-1.5,0-2.358,0-.214,0-.429-.429-.214a8.168,8.168,0,0,0-2.144.643,8.6,8.6,0,0,0-3.216,3c0,.214-.214.214-.429.429s-.214,0-.214,0v-.429a6.259,6.259,0,0,1,.429-1.929,19.6,19.6,0,0,1,1.5-3,7.39,7.39,0,0,1,2.572-2.572c.214-.214.214-.214,0-.429l-3.859-4.5A27.154,27.154,0,0,1,31.212.1C31-.119,31,.1,30.783.1a32.077,32.077,0,0,0-2.358,2.787c-1.5,1.5-2.787,3.216-4.287,4.716-.214.214-.214.214,0,.429a6.322,6.322,0,0,1,3,2.787A8.959,8.959,0,0,1,28,12.958c.214.429.214,1.072.429,1.5h0c0,.214,0,.214,0,.429-.214,0-.214,0-.214-.214l-1.286-1.286a15.99,15.99,0,0,0-2.572-1.5c-.857,0-1.5-.214-1.929-.214-.214,0-.214,0-.214.214,0,.429-.214.857-.214,1.286s-.214.858-.214,1.5c0,.214,0,.214.214.429.643.214,1.072.214,1.715.429a7.108,7.108,0,0,1,3,2.144,9.328,9.328,0,0,1,1.715,3.216c.214.857.429,1.5.643,2.358,0,.643.214,1.072.214,1.715s0,1.286,0,1.929c0,.214,0,.429-.429.429a.787.787,0,0,0-.643.214c-.214,0-.214,0-.214-.214-.214-.857-.429-1.929-.643-2.787a17.859,17.859,0,0,0-.857-3.216l-.643-2.572a.461.461,0,0,0-.429-.429c-1.5-.429-2.787-1.072-4.287-1.5-.214,0-.214,0-.214.214-.214.857-.643,1.5-.857,2.358-.214.643-.429,1.072-.643,1.715q0,.322,0,.643a34.916,34.916,0,0,1,2.358,3.644c.857,1.286,1.715,2.572,2.572,4.073C24.138,29.036,24.138,29.036,24.352,29.25Z" transform="translate(0 0)" fill="#99cfff"/>
    </g>
    <path id="Path_3370" data-name="Path 3370" d="M61.545,17.011l-5.161,3.632,5.352,1.72a1.162,1.162,0,0,1,.765,1.72,1.368,1.368,0,0,1-1.72.956l-7.263-2.294L48.93,25.994,58.3,29.053a1.162,1.162,0,0,1,.765,1.72,1.368,1.368,0,0,1-1.72.956L46.063,28.1l-8.41,6.116a3.6,3.6,0,0,1,.382,1.529v1.72l9.557,4.2,10.321-5.925a1.282,1.282,0,0,1,1.147,2.294l-8.6,4.969L55.62,45.3l6.69-3.823a1.282,1.282,0,0,1,1.147,2.294l-4.969,2.867,5.734,2.676a1.282,1.282,0,0,1-1.147,2.294L57.34,48.93l1.529,5.352a1.316,1.316,0,0,1-.956,1.529,1.219,1.219,0,0,1-1.529-.956L54.855,47.4l-5.161-2.294,2.1,9.557a1.316,1.316,0,0,1-.956,1.529,1.219,1.219,0,0,1-1.529-.956L46.828,43.77l-9.366-4.4c-.573.765-2.294,1.529-2.294,1.72l.956,10.512,9.939,5.925a1.436,1.436,0,0,1,.382,1.911,1.206,1.206,0,0,1-1.72.382l-8.41-4.97.573,5.543L43.2,64.221a1.436,1.436,0,0,1,.382,1.911,1.206,1.206,0,0,1-1.72.382L37.08,63.648l.573,6.307a1.453,1.453,0,0,1-1.147,1.529c-.765,0-1.338-.382-1.338-1.147L34.6,64.03l-4.4,3.823a1.277,1.277,0,0,1-1.911-.191c-.573-.573-.191-1.338.191-1.911L34.4,60.59l-.573-5.543-7.645,6.69a1.277,1.277,0,0,1-1.911-.191c-.573-.573-.191-1.338.191-1.911L33.448,51.8,32.3,41.285a5.655,5.655,0,0,1-2.867-1.147l-8.792,6.116V58.1a1.338,1.338,0,1,1-2.676,0V48.357L16.437,49.5l-3.058,1.911v7.645a1.338,1.338,0,1,1-2.676,0V53.326L5.543,57.149a1.331,1.331,0,0,1-1.911-.382c-.573-.765-.382-1.338.382-1.911l5.161-3.632L3.823,49.5a1.162,1.162,0,0,1-.765-1.72c0-.765.765-1.147,1.529-.765L11.85,49.5l4.587-3.249L7.072,43.2a1.162,1.162,0,0,1-.765-1.72,1.162,1.162,0,0,1,1.72-.765L19.3,44.343l8.6-6.116a4.5,4.5,0,0,1-.382-1.529c0-.573,0-.956,0-1.529l-9.557-4.4L7.645,36.507a1.133,1.133,0,0,1-1.72-.573,1.166,1.166,0,0,1,.573-1.72l8.6-4.778L9.557,26.95l-6.69,3.823a1.133,1.133,0,0,1-1.72-.573,1.166,1.166,0,0,1,.573-1.72L6.5,25.612.765,22.936a1.166,1.166,0,0,1-.573-1.72,1.166,1.166,0,0,1,1.72-.573l5.734,2.676L6.5,17.775a1.4,1.4,0,0,1,1.147-1.72,1.316,1.316,0,0,1,1.529.956L10.7,24.465l5.161,2.294-2.1-9.748a1.275,1.275,0,1,1,2.485-.573l2.485,11.468,9.748,4.2A6.042,6.042,0,0,1,31.155,30.2L30.2,19.878,19.687,13.953a1.313,1.313,0,0,1-.573-1.72,1.549,1.549,0,0,1,1.911-.573l8.6,4.97-.573-5.543L22.171,7.263a1.313,1.313,0,0,1-.573-1.72,1.549,1.549,0,0,1,1.911-.573l4.969,2.867-.573-6.307A1.453,1.453,0,0,1,29.052,0c.765,0,1.338.382,1.338,1.147l.573,6.307,4.014-3.823a1.077,1.077,0,0,1,1.72.191,1.277,1.277,0,0,1,0,1.911l-5.543,5.161.573,5.543,7.072-6.5a1.077,1.077,0,0,1,1.72.191,1.277,1.277,0,0,1,0,1.911l-8.6,7.836L32.875,30.2c0,.191,1.911.573,2.676,1.338l8.219-6.116V13.571a1.338,1.338,0,1,1,2.676,0V23.51l.573-.382,4.014-2.867V12.615a1.338,1.338,0,1,1,2.676,0v5.734l5.161-3.632a1.331,1.331,0,0,1,1.911.382C61.354,15.864,62.118,16.438,61.545,17.011Z" transform="matrix(-0.891, 0.454, -0.454, -0.891, 1735.924, 7974.209)" fill="#b2d5ff"/>
    <path id="Path_3373" data-name="Path 3373" d="M107.06,29.591l-8.977,6.317,9.31,2.992a2.022,2.022,0,0,1,1.33,2.992,2.379,2.379,0,0,1-2.992,1.662L93.1,39.566l-7.98,5.652,16.292,5.32a2.022,2.022,0,0,1,1.33,2.992,2.379,2.379,0,0,1-2.992,1.662L80.129,48.876,65.5,59.515a6.264,6.264,0,0,1,.665,2.66v2.992l16.624,7.315,17.954-10.307a2.23,2.23,0,0,1,1.995,3.99L87.776,74.81l8.977,3.99,11.637-6.65a2.23,2.23,0,0,1,1.995,3.99l-8.645,4.987,9.975,4.655a2.23,2.23,0,1,1-1.995,3.99l-9.975-4.655,2.66,9.31a2.289,2.289,0,0,1-1.662,2.66,2.121,2.121,0,0,1-2.66-1.662l-2.66-12.967-8.977-3.99L90.1,95.092a2.289,2.289,0,0,1-1.662,2.66,2.121,2.121,0,0,1-2.66-1.662L81.459,76.14,65.167,68.492c-1,1.33-3.99,2.66-3.99,2.992L62.84,89.772l17.289,10.307a2.5,2.5,0,0,1,.665,3.325,2.1,2.1,0,0,1-2.992.665L63.172,95.424l1,9.642,10.972,6.65a2.5,2.5,0,0,1,.665,3.325,2.1,2.1,0,0,1-2.992.665L64.5,110.718l1,10.972a2.528,2.528,0,0,1-1.995,2.66c-1.33,0-2.327-.665-2.327-1.995l-1-10.972-7.647,6.65a2.221,2.221,0,0,1-3.325-.332c-1-1-.332-2.327.332-3.325L59.847,105.4l-1-9.642-13.3,11.637a2.221,2.221,0,0,1-3.325-.332c-1-1-.332-2.327.332-3.325L58.185,90.1,56.19,71.817A9.837,9.837,0,0,1,51.2,69.822L35.908,80.462v20.614a2.327,2.327,0,1,1-4.655,0V84.119l-2.66,1.995-5.32,3.325v13.3a2.327,2.327,0,1,1-4.655,0V92.764l-8.977,6.65a2.316,2.316,0,0,1-3.325-.665c-1-1.33-.665-2.327.665-3.325l8.977-6.317L6.65,86.114a2.022,2.022,0,0,1-1.33-2.992c0-1.33,1.33-1.995,2.66-1.33l12.634,4.322,7.98-5.652L12.3,75.142a2.022,2.022,0,0,1-1.33-2.992,2.021,2.021,0,0,1,2.992-1.33l19.617,6.317L48.543,66.5a7.825,7.825,0,0,1-.665-2.66c0-1,0-1.662,0-2.66L31.254,53.53,13.3,63.505a1.971,1.971,0,0,1-2.992-1,2.029,2.029,0,0,1,1-2.992L26.266,51.2l-9.642-4.322L4.987,53.53a1.971,1.971,0,0,1-2.992-1,2.029,2.029,0,0,1,1-2.992L11.3,44.553,1.33,39.9a2.029,2.029,0,0,1-1-2.992,2.029,2.029,0,0,1,2.992-1L13.3,40.563,11.3,30.921A2.428,2.428,0,0,1,13.3,27.929a2.289,2.289,0,0,1,2.66,1.662l2.66,12.967,8.977,3.99L23.939,29.591a2.218,2.218,0,1,1,4.322-1l4.322,19.949L49.54,55.858a10.511,10.511,0,0,1,4.655-3.325L52.532,34.579,34.246,24.272c-1-.665-1.662-1.995-1-2.992s2.327-1.662,3.325-1l14.962,8.645-1-9.642-11.969-6.65c-1-.665-1.662-1.995-1-2.992s2.327-1.662,3.325-1l8.645,4.987-1-10.972A2.528,2.528,0,0,1,50.538,0c1.33,0,2.327.665,2.327,1.995l1,10.972,6.982-6.65a1.874,1.874,0,0,1,2.992.332,2.221,2.221,0,0,1,0,3.325l-9.642,8.977,1,9.642,12.3-11.3a1.874,1.874,0,0,1,2.992.332,2.221,2.221,0,0,1,0,3.325L55.525,34.579l1.662,17.954c0,.332,3.325,1,4.655,2.327l14.3-10.64V23.607a2.327,2.327,0,1,1,4.655,0V40.9l1-.665,6.982-4.987v-13.3a2.327,2.327,0,1,1,4.655,0v9.975l8.977-6.317a2.316,2.316,0,0,1,3.325.665C106.727,27.6,108.057,28.594,107.06,29.591Z" transform="matrix(-0.891, 0.454, -0.454, -0.891, 1817.746, 7008.495)" fill="#b2d5ff"/>
    <path id="Path_3372" data-name="Path 3372" d="M61.545,17.011l-5.161,3.632,5.352,1.72a1.162,1.162,0,0,1,.765,1.72,1.368,1.368,0,0,1-1.72.956l-7.263-2.294L48.93,25.994,58.3,29.053a1.162,1.162,0,0,1,.765,1.72,1.368,1.368,0,0,1-1.72.956L46.063,28.1l-8.41,6.116a3.6,3.6,0,0,1,.382,1.529v1.72l9.557,4.2,10.321-5.925a1.282,1.282,0,0,1,1.147,2.294l-8.6,4.969L55.62,45.3l6.69-3.823a1.282,1.282,0,0,1,1.147,2.294l-4.969,2.867,5.734,2.676a1.282,1.282,0,0,1-1.147,2.294L57.34,48.93l1.529,5.352a1.316,1.316,0,0,1-.956,1.529,1.219,1.219,0,0,1-1.529-.956L54.855,47.4l-5.161-2.294,2.1,9.557a1.316,1.316,0,0,1-.956,1.529,1.219,1.219,0,0,1-1.529-.956L46.828,43.77l-9.366-4.4c-.573.765-2.294,1.529-2.294,1.72l.956,10.512,9.939,5.925a1.436,1.436,0,0,1,.382,1.911,1.206,1.206,0,0,1-1.72.382l-8.41-4.97.573,5.543L43.2,64.221a1.436,1.436,0,0,1,.382,1.911,1.206,1.206,0,0,1-1.72.382L37.08,63.648l.573,6.307a1.453,1.453,0,0,1-1.147,1.529c-.765,0-1.338-.382-1.338-1.147L34.6,64.03l-4.4,3.823a1.277,1.277,0,0,1-1.911-.191c-.573-.573-.191-1.338.191-1.911L34.4,60.59l-.573-5.543-7.645,6.69a1.277,1.277,0,0,1-1.911-.191c-.573-.573-.191-1.338.191-1.911L33.448,51.8,32.3,41.285a5.655,5.655,0,0,1-2.867-1.147l-8.792,6.116V58.1a1.338,1.338,0,1,1-2.676,0V48.357L16.437,49.5l-3.058,1.911v7.645a1.338,1.338,0,1,1-2.676,0V53.326L5.543,57.149a1.331,1.331,0,0,1-1.911-.382c-.573-.765-.382-1.338.382-1.911l5.161-3.632L3.823,49.5a1.162,1.162,0,0,1-.765-1.72c0-.765.765-1.147,1.529-.765L11.85,49.5l4.587-3.249L7.072,43.2a1.162,1.162,0,0,1-.765-1.72,1.162,1.162,0,0,1,1.72-.765L19.3,44.343l8.6-6.116a4.5,4.5,0,0,1-.382-1.529c0-.573,0-.956,0-1.529l-9.557-4.4L7.645,36.507a1.133,1.133,0,0,1-1.72-.573,1.166,1.166,0,0,1,.573-1.72l8.6-4.778L9.557,26.95l-6.69,3.823a1.133,1.133,0,0,1-1.72-.573,1.166,1.166,0,0,1,.573-1.72L6.5,25.612.765,22.936a1.166,1.166,0,0,1-.573-1.72,1.166,1.166,0,0,1,1.72-.573l5.734,2.676L6.5,17.775a1.4,1.4,0,0,1,1.147-1.72,1.316,1.316,0,0,1,1.529.956L10.7,24.465l5.161,2.294-2.1-9.748a1.275,1.275,0,1,1,2.485-.573l2.485,11.468,9.748,4.2A6.042,6.042,0,0,1,31.155,30.2L30.2,19.878,19.687,13.953a1.313,1.313,0,0,1-.573-1.72,1.549,1.549,0,0,1,1.911-.573l8.6,4.97-.573-5.543L22.171,7.263a1.313,1.313,0,0,1-.573-1.72,1.549,1.549,0,0,1,1.911-.573l4.969,2.867-.573-6.307A1.453,1.453,0,0,1,29.052,0c.765,0,1.338.382,1.338,1.147l.573,6.307,4.014-3.823a1.077,1.077,0,0,1,1.72.191,1.277,1.277,0,0,1,0,1.911l-5.543,5.161.573,5.543,7.072-6.5a1.077,1.077,0,0,1,1.72.191,1.277,1.277,0,0,1,0,1.911l-8.6,7.836L32.875,30.2c0,.191,1.911.573,2.676,1.338l8.219-6.116V13.571a1.338,1.338,0,1,1,2.676,0V23.51l.573-.382,4.014-2.867V12.615a1.338,1.338,0,1,1,2.676,0v5.734l5.161-3.632a1.331,1.331,0,0,1,1.911.382C61.354,15.864,62.118,16.438,61.545,17.011Z" transform="matrix(-0.999, 0.035, -0.035, -0.999, 1924.467, 7534.7)" fill="#b2d5ff"/>
    <path id="Path_3369" data-name="Path 3369" d="M14.926,76.572a5.051,5.051,0,0,1,4.353-1.451L24.211,69.9l-9.866-1.161c-1.161,0-2.031-1.161-2.031-2.612a2.17,2.17,0,0,1,2.612-2.031l13.058,1.451L33.5,59.452,19.569,58a2.182,2.182,0,0,1-2.031-1.451,2.257,2.257,0,0,1,.58-2.321l10.446-9.286L24.5,44.072,20.439,43.2l-9.866,8.705a2.07,2.07,0,0,1-3.192-.29,2.07,2.07,0,0,1,.29-3.192l7.254-6.384L7.962,40.59a4.79,4.79,0,0,1-4.353,1.451A4.456,4.456,0,0,1,.127,36.528,4.456,4.456,0,0,1,5.64,33.045a4.358,4.358,0,0,1,3.482,3.192l6.964,1.451-4.062-9a2.041,2.041,0,0,1,1.161-2.9,2.04,2.04,0,0,1,2.9,1.161L21.6,38.559l6.964,1.451,1.451.29-5.8-13.058a2.821,2.821,0,0,1,.29-2.612,2.219,2.219,0,0,1,2.612-.58L39.881,28.4l-2.612-7.254L24.792,17.086a2.4,2.4,0,0,1-1.451-2.9,2.4,2.4,0,0,1,2.9-1.451l9.286,3.192L33.207,8.961a4.563,4.563,0,0,1-3.192-2.9,4.588,4.588,0,1,1,8.705-2.9A4.514,4.514,0,0,1,37.559,7.8l2.031,6.674,5.8-7.835a2.362,2.362,0,0,1,3.192-.58,2.649,2.649,0,0,1,.58,3.192L41.332,19.987l2.612,8.125,8.705-11.9a1.944,1.944,0,0,1,2.321-.871,2.616,2.616,0,0,1,1.741,1.741l2.9,13.638,5.223-5.513L62.224,12.443a2.219,2.219,0,1,1,4.353-.871l2.031,9.576,4.933-5.223a4.053,4.053,0,0,1,.871-4.353,4.519,4.519,0,1,1,6.674,6.094,5.051,5.051,0,0,1-4.353,1.451L71.8,24.34,81.666,25.5c1.161,0,2.031,1.161,2.031,2.612a2.17,2.17,0,0,1-2.612,2.031L68.027,28.693,62.8,34.5l14.218,1.451A2.182,2.182,0,0,1,79.054,37.4a2.257,2.257,0,0,1-.58,2.321L67.737,49.3l7.544,1.741,9.866-8.705a2.266,2.266,0,0,1,2.9,3.482l-6.674,5.8,6.964,1.451a4.79,4.79,0,0,1,4.353-1.451,4.611,4.611,0,0,1-2.031,9,4.358,4.358,0,0,1-3.482-3.192L80.215,55.97l4.062,9a2.21,2.21,0,1,1-4.062,1.741L74.992,54.519l-7.544-1.451L72.96,65.836a2.821,2.821,0,0,1-.29,2.612,1.82,1.82,0,0,1-2.321.58L56.421,64.385l2.612,8.125L71.51,76.572a2.294,2.294,0,0,1-1.451,4.353l-9.286-3.192L62.8,84.407A4.358,4.358,0,0,1,66.286,87.6a4.588,4.588,0,1,1-8.705,2.9,4.167,4.167,0,0,1,.871-4.062L55.84,79.184l-5.8,7.835a2.319,2.319,0,0,1-3.192.58,2.1,2.1,0,0,1-.58-3.192L54.1,73.961l-2.321-7.254L43.943,77.443a1.944,1.944,0,0,1-2.321.871,2.616,2.616,0,0,1-1.741-1.741l-2.9-14.219-5.8,6.384,2.612,12.768a2.219,2.219,0,1,1-4.353.871L27.4,72.8,22.47,78.313a4.658,4.658,0,0,1-.871,4.643,4.854,4.854,0,0,1-6.384,0A4.318,4.318,0,0,1,14.926,76.572ZM25.082,53.938l11.9,1.161,6.674-7.254-9.576-2.031ZM35.528,41.461l9,2.031L42.2,35.947l-.58-2.031L30.6,30.144Zm10.736-8.415.29,1.451,2.612,7.835,5.513-6.094L56.13,34.5,53.809,22.6Zm13.058,4.643-6.964,7.545,8.125,1.741,2.031.29L71.8,38.849Zm2.321,14.219-2.321-.58L51.2,49.586l2.612,7.835.29,1.451,12.187,4.063ZM50.037,61.193l-.58-2.031-2.321-7.545-5.223,5.8-1.161.871,2.612,12.187Z" transform="matrix(0.174, -0.985, 0.985, 0.174, 1605.592, 7737.699)" fill="#cce7ff"/>
    <ellipse id="Ellipse_695" data-name="Ellipse 695" cx="10.521" cy="10.521" rx="10.521" ry="10.521" transform="translate(1853.518 8286.329)" fill="#d8edff"/>
    <ellipse id="Ellipse_694" data-name="Ellipse 694" cx="13.152" cy="13.152" rx="13.152" ry="13.152" transform="translate(1678.602 7659)" fill="#d8edff"/>
    <ellipse id="Ellipse_693" data-name="Ellipse 693" cx="36.167" cy="36.167" rx="36.167" ry="36.167" transform="translate(1768.009 7536.728)" fill="#cce7ff"/>
    <ellipse id="Ellipse_697" data-name="Ellipse 697" cx="23.667" cy="23.667" rx="23.667" ry="23.667" transform="translate(1749.009 6812.728)" fill="#cce7ff"/>
    <ellipse id="Ellipse_699" data-name="Ellipse 699" cx="14.167" cy="14.167" rx="14.167" ry="14.167" transform="translate(1864.009 7989.728)" fill="#cce7ff"/>
    <ellipse id="Ellipse_698" data-name="Ellipse 698" cx="12.167" cy="12.167" rx="12.167" ry="12.167" transform="translate(1780.009 6764.728)" fill="#cce7ff"/>
  </g>
</svg>
