<svg xmlns="http://www.w3.org/2000/svg" viewBox="0 0 12 16"><defs><style>.cls-1{fill:#333;}</style></defs><title>bold</title><g id="Layer_2" data-name="Layer 2"><g id="Layer_1-2" data-name="Layer 1"><path class="cls-1" d="M6.18,16a6.87,6.87,0,0,0,4.3-1.18A4.14,4.14,0,0,0,12,11.34,3.93,3.93,0,0,0,11.28,9,3.4,3.4,0,0,0,9.12,7.68a3.55,3.55,0,0,0,1.71-1.31,3.46,3.46,0,0,0,.59-2A3.73,3.73,0,0,0,9.83,1.1,7.66,7.66,0,0,0,5.42,0H0V16Zm.24-7.08a2.35,2.35,0,0,1,1.81.62,2.55,2.55,0,0,1,.57,1.79A2,2,0,0,1,8.13,13a3,3,0,0,1-1.95.55h-3V8.92ZM3.21,2.47h2.2A3.45,3.45,0,0,1,7.5,3a1.92,1.92,0,0,1,.7,1.64,1.82,1.82,0,0,1-.69,1.54,3.22,3.22,0,0,1-2,.53H3.21Z"/></g></g></svg>