<svg xmlns="http://www.w3.org/2000/svg" viewBox="0 0 18 14"><defs><style>.cls-1{fill:#333;fill-rule:evenodd;}</style></defs><title>edit_code</title><g id="Layer_2" data-name="Layer 2"><g id="Layer_1-2" data-name="Layer 1"><path id="CODE" class="cls-1" d="M17.74,7.63h0l-3.37,3.5h0a.82.82,0,0,1-.59.25.86.86,0,0,1-.84-.88.89.89,0,0,1,.24-.61h0L16,7,13.19,4.13h0a.89.89,0,0,1-.26-.63.86.86,0,0,1,.84-.88.83.83,0,0,1,.6.27h0L17.7,6.34a.89.89,0,0,1,0,1.29ZM7.54,13.42a.85.85,0,0,1-.79.58.86.86,0,0,1-.84-.87A.9.9,0,0,1,6,12.81L10.45.58A.85.85,0,0,1,11.24,0a.86.86,0,0,1,.84.87.9.9,0,0,1-.06.31ZM4.81,4.13,2,7,4.82,9.89h0a.89.89,0,0,1,.24.61.86.86,0,0,1-.84.88.82.82,0,0,1-.59-.25h0L.26,7.63h0a.89.89,0,0,1,0-1.29L3.62,2.89h0a.83.83,0,0,1,.6-.27.86.86,0,0,1,.84.88.89.89,0,0,1-.26.63Z"/></g></g></svg>