<svg xmlns="http://www.w3.org/2000/svg" viewBox="0 0 16 16"><defs><style>.cls-1{fill:#333;fill-rule:evenodd;}</style></defs><title>enter_fullscreen</title><g id="Layer_2" data-name="Layer 2"><g id="Layer_1-2" data-name="Layer 1"><path id="RESIZE_1" data-name="RESIZE 1" class="cls-1" d="M15.25,16h-3a.75.75,0,1,1,0-1.5h1.19L9.71,10.77h0a.75.75,0,0,1,1.06-1.06h0l3.73,3.73V12.25a.75.75,0,1,1,1.5,0v3A.75.75,0,0,1,15.25,16Zm0-11.5a.75.75,0,0,1-.75-.75V2.56L10.77,6.29h0A.75.75,0,0,1,9.71,5.23h0L13.44,1.5H12.25a.75.75,0,0,1,0-1.5h3A.75.75,0,0,1,16,.75v3A.75.75,0,0,1,15.25,4.5Zm-9,6.27L2.56,14.5H3.75a.75.75,0,1,1,0,1.5h-3A.75.75,0,0,1,0,15.25v-3a.75.75,0,1,1,1.5,0v1.19L5.23,9.71h0a.75.75,0,0,1,1.06,1.06ZM5.75,6.5a.75.75,0,0,1-.52-.21h0L1.5,2.56V3.75a.75.75,0,1,1-1.5,0v-3A.75.75,0,0,1,.75,0h3a.75.75,0,1,1,0,1.5H2.56L6.29,5.23h0A.75.75,0,0,1,5.75,6.5Z"/></g></g></svg>