<svg xmlns="http://www.w3.org/2000/svg" viewBox="0 0 16 16"><defs><style>.cls-1{fill:#333;}</style></defs><title>footnote</title><g id="Layer_2" data-name="Layer 2"><g id="Layer_1-2" data-name="Layer 1"><path class="cls-1" d="M8.37,10.23c-3.43,3-7.72,6.29-8.3,5.7s2.7-4.87,5.7-8.3l2.6,2.6Zm7.3-4.93L14.45,4.09a2.74,2.74,0,0,0,.64-1.79L16,1.39,14.61,0l-.93.93c-.77-.07-1.93.52-4,2.61-.77.77-1.73,1.81-2.72,2.94L9.55,9.08c1.13-1,2.17-1.95,2.94-2.72.55-.55,1-1,1.36-1.47l.77.76L12.13,8.13a.5.5,0,1,0,.71.71L15.67,6a.5.5,0,0,0,0-.71Z"/></g></g></svg>