<svg xmlns="http://www.w3.org/2000/svg" viewBox="0 0 16 16"><defs><style>.cls-1{fill:#333;}</style></defs><title>link</title><g id="Layer_2" data-name="Layer 2"><g id="Layer_1-2" data-name="Layer 1"><path class="cls-1" d="M11.28,4.72a.66.66,0,0,0-.94,0L4.72,10.34a.66.66,0,0,0,.94.94l5.62-5.62A.66.66,0,0,0,11.28,4.72Z"/><path class="cls-1" d="M5.66,15,8,12.69a3.31,3.31,0,0,0,.74-3.55l-1.1,1.1a2,2,0,0,1-.57,1.51L4.72,14.09a2,2,0,0,1-2.81-2.81L4.25,8.94a2,2,0,0,1,1.51-.57l1.1-1.1A3.31,3.31,0,0,0,3.31,8L1,10.34A3.31,3.31,0,0,0,5.66,15Z"/><path class="cls-1" d="M8.94,4.25l2.34-2.34a2,2,0,0,1,2.81,2.81L11.75,7.06a2,2,0,0,1-1.51.57L9.13,8.74A3.31,3.31,0,0,0,12.69,8L15,5.66A3.31,3.31,0,0,0,10.34,1L8,3.31a3.31,3.31,0,0,0-.74,3.55l1.1-1.1A2,2,0,0,1,8.94,4.25Z"/></g></g></svg>