<svg xmlns="http://www.w3.org/2000/svg" viewBox="0 0 15 16"><defs><style>.cls-1{fill:#333;}</style></defs><title>ol</title><g id="Layer_2" data-name="Layer 2"><g id="Layer_1-2" data-name="Layer 1"><path class="cls-1" d="M5,14.49V13H15v1.5ZM5,7.17H15v1.5H5Zm0-6H15v1.6H5ZM2.89,14.79a1.11,1.11,0,0,1-.38.89,1.45,1.45,0,0,1-1,.32,1.49,1.49,0,0,1-1-.31,1,1,0,0,1-.37-.83v0H.77a.67.67,0,0,0,.21.52.79.79,0,0,0,.56.19.8.8,0,0,0,.57-.19.74.74,0,0,0,.21-.57.76.76,0,0,0-.18-.56.8.8,0,0,0-.58-.18h-.5v-.44h.5a.68.68,0,0,0,.54-.19.77.77,0,0,0,.16-.52.74.74,0,0,0-.18-.54.71.71,0,0,0-.53-.19.75.75,0,0,0-.54.19.67.67,0,0,0-.2.51H.25v0a1,1,0,0,1,.35-.8,1.36,1.36,0,0,1,.95-.33,1.37,1.37,0,0,1,.94.31,1.09,1.09,0,0,1,.35.87,1,1,0,0,1-.16.51,1,1,0,0,1-.48.39.93.93,0,0,1,.54.38A1.1,1.1,0,0,1,2.89,14.79ZM.06,9.68l1.39-1.5A3.79,3.79,0,0,0,2,7.53,1,1,0,0,0,2.09,7a.76.76,0,0,0-.19-.52.62.62,0,0,0-.49-.21.86.86,0,0,0-.65.22.86.86,0,0,0-.21.62H0v0a1.15,1.15,0,0,1,.36-.9,1.45,1.45,0,0,1,1-.36,1.26,1.26,0,0,1,.91.33A1.1,1.1,0,0,1,2.67,7a1.31,1.31,0,0,1-.21.68,4.39,4.39,0,0,1-.58.73L.77,9.61h2v.44H.06ZM1.4.55H.54V.15L2,0V4.14H1.4Z"/></g></g></svg>