<svg xmlns="http://www.w3.org/2000/svg" viewBox="0 0 16 16"><defs><style>.cls-1{fill:#333;fill-rule:evenodd;}</style></defs><title>reset_styles</title><g id="Layer_2" data-name="Layer 2"><g id="Layer_1-2" data-name="Layer 1"><path id="REPEAT_2" data-name="REPEAT 2" class="cls-1" d="M15.25,5.75H12a.75.75,0,0,1,0-1.5h1.29A6.49,6.49,0,0,0,1.5,8,.75.75,0,0,1,0,8H0A8,8,0,0,1,14.5,3.35V2A.75.75,0,1,1,16,2V5A.75.75,0,0,1,15.25,5.75ZM.75,10.25H4a.75.75,0,1,1,0,1.5H2.7A6.5,6.5,0,0,0,14.5,8,.75.75,0,1,1,16,8h0A8,8,0,0,1,1.5,12.64V14A.75.75,0,1,1,0,14V11A.75.75,0,0,1,.75,10.25Z"/></g></g></svg>