<svg xmlns="http://www.w3.org/2000/svg" viewBox="0 0 16 16"><defs><style>.cls-1{fill:#333;fill-rule:evenodd;}</style></defs><title>show_blocks</title><g id="Layer_2" data-name="Layer 2"><g id="Layer_1-2" data-name="Layer 1"><path id="SQUARE_DASHED" data-name="SQUARE / DASHED" class="cls-1" d="M15.25,16h-3a.75.75,0,0,1,0-1.5H14.5V12.25h0a.75.75,0,1,1,1.5,0v3A.75.75,0,0,1,15.25,16Zm0-10a.75.75,0,0,1,.75.75v2.5a.75.75,0,1,1-1.5,0V6.75A.75.75,0,0,1,15.25,6Zm0-1.5a.75.75,0,0,1-.75-.75h0V1.5H12.25a.75.75,0,1,1,0-1.5h3A.75.75,0,0,1,16,.75v3A.75.75,0,0,1,15.25,4.5ZM9.25,16H6.75a.75.75,0,1,1,0-1.5h2.5a.75.75,0,1,1,0,1.5Zm0-14.5H6.75a.75.75,0,0,1,0-1.5h2.5a.75.75,0,1,1,0,1.5ZM3.75,16h-3A.75.75,0,0,1,0,15.25v-3H0a.75.75,0,0,1,1.5,0V14.5H3.75a.75.75,0,0,1,0,1.5ZM1.5,6.75v2.5a.75.75,0,1,1-1.5,0V6.75a.75.75,0,0,1,1.5,0ZM3.75,1.5H1.5V3.75a.75.75,0,0,1-1.5,0H0v-3A.75.75,0,0,1,.75,0h3a.75.75,0,1,1,0,1.5Z"/></g></g></svg>