<svg xmlns="http://www.w3.org/2000/svg" viewBox="0 0 16 16"><defs><style>.cls-1{fill:#333;}</style></defs><title>special_char</title><g id="Layer_2" data-name="Layer 2"><g id="Layer_1-2" data-name="Layer 1"><path class="cls-1" d="M0,12.39H.42A1.44,1.44,0,0,0,.9,13.53a2.33,2.33,0,0,0,1.38.32H5.4l0-.77a6.06,6.06,0,0,1-3.31-2A6.1,6.1,0,0,1,.57,6.82,6.43,6.43,0,0,1,2.65,2,7.53,7.53,0,0,1,8.09,0a7.58,7.58,0,0,1,5.32,1.89,6.25,6.25,0,0,1,2.07,4.83,6.45,6.45,0,0,1-1.28,4.05,6.61,6.61,0,0,1-3.48,2.31l-.11.77h3.17a1.85,1.85,0,0,0,1.43-.42,1.68,1.68,0,0,0,.37-1H16V16H9.61l.3-3.48q2.94-.93,2.94-5.5a6.59,6.59,0,0,0-1.44-4.58A4.44,4.44,0,0,0,8,.84,4.2,4.2,0,0,0,4.6,2.53,6.7,6.7,0,0,0,3.25,6.85a9.53,9.53,0,0,0,.6,3.47,3.73,3.73,0,0,0,2.32,2.2L6.39,16H0Z"/></g></g></svg>