<svg xmlns="http://www.w3.org/2000/svg" viewBox="0 0 16 16"><defs><style>.cls-1{fill:#333;}</style></defs><title>strikethrough</title><g id="Layer_2" data-name="Layer 2"><g id="Layer_1-2" data-name="Layer 1"><path class="cls-1" d="M8.62,6.75c-2.12-.82-2.8-1.46-2.8-2.63,0-1,.79-2,2.55-2a5.67,5.67,0,0,1,2.71.68l.29.16L12.08.88l-.2-.11A7,7,0,0,0,8.43,0c-3,0-5.12,1.79-5.12,4.34,0,2.07,1.32,3.5,4.13,4.5,2,.75,2.65,1.46,2.65,2.72S9,13.85,7.23,13.85a6.6,6.6,0,0,1-3.32-.94l-.31-.19L3,14.88l.17.11a8,8,0,0,0,4,1c4.08,0,5.52-2.47,5.52-4.59S11.43,7.84,8.62,6.75Z"/><rect class="cls-1" y="7.6" width="16" height="0.8"/></g></g></svg>