<svg xmlns="http://www.w3.org/2000/svg" width="1924.596" height="180.86"><path d="M1151.692 93.552l12.1 5.567a2.367 2.367 0 011.339 1.748l2.276 13.121a2.366 2.366 0 004.07 1.2l9.034-9.787a2.363 2.363 0 012.075-.736l13.183 1.893a2.366 2.366 0 002.4-3.498l-6.517-11.617a2.366 2.366 0 01-.06-2.202l5.875-11.953a2.366 2.366 0 00-2.586-3.363l-13.062 2.608a2.367 2.367 0 01-2.113-.623l-9.555-9.28a2.366 2.366 0 00-3.998 1.42l-1.556 13.228a2.363 2.363 0 01-1.244 1.815l-11.78 6.22a2.365 2.365 0 00.12 4.239z" fill="none" stroke="#0073ff" stroke-linecap="round" stroke-linejoin="round" stroke-width="2"/><path d="M1215.346 86.649c307.225-66.638 462.206 36.766 708.076-11.476M4.356 118.804c1.242-3.873 267.532-34.234 383.174-58.659 262.86-55.517 416.075 64.205 756.243 40.345" fill="none" stroke="#0073ff" stroke-linecap="round" stroke-linejoin="round" stroke-width="2" stroke-dasharray="8"/></svg>