<svg xmlns="http://www.w3.org/2000/svg" width="1430.006" height="273.461"><path d="M1344.538 139.195c2.105-4.433-3.163-7.929-.387-12.447 2.898-4.715 8.76-1.113 11.657-5.828s-2.966-8.317-.069-13.032 8.76-1.112 11.656-5.826-2.966-8.317-.07-13.03" fill="none" stroke="#0073ff" stroke-linecap="round" stroke-linejoin="round" stroke-width="2"/><path d="M42.714 164.776l-12.869-.509a1.386 1.386 0 00-1.166.555l-7.715 10.312a1.386 1.386 0 01-2.445-.454l-3.493-12.4a1.387 1.387 0 00-.888-.937l-12.192-4.15a1.387 1.387 0 01-.323-2.466l10.711-7.153a1.386 1.386 0 00.616-1.134l.18-12.877a1.386 1.386 0 012.245-1.07l10.113 7.976a1.386 1.386 0 001.269.236l12.3-3.808a1.386 1.386 0 011.711 1.8l-4.461 12.082a1.386 1.386 0 00.168 1.279l7.424 10.524a1.388 1.388 0 01-1.185 2.194z" fill="none" stroke="#0073ff" stroke-miterlimit="10" stroke-width="2"/><path d="M244.762 50.328c-2.57-4.18-8.372-1.665-10.65-6.454-2.376-4.997 3.839-7.952 1.462-12.95s-8.591-2.043-10.968-7.04 3.838-7.953 1.462-12.95-8.59-2.041-10.966-7.038" fill="none" stroke="#0073ff" stroke-linecap="round" stroke-linejoin="round" stroke-width="2"/><path d="M1291.354 5.76l2.911 9.723 7.696 6.615a1.717 1.717 0 01-.627 2.947l-9.722 2.91-6.615 7.696a1.717 1.717 0 01-2.946-.626l-2.911-9.722-7.696-6.615a1.717 1.717 0 01.627-2.947l9.722-2.91 6.615-7.697a1.717 1.717 0 012.946.627z" fill="none" stroke="#0073ff" stroke-miterlimit="10" stroke-width="2"/><path d="M99.931 65.678l1.248 1.692m3.929 5.327l1.248 1.692m-7.568-1.143l1.692-1.248m5.327-3.929l1.692-1.248" fill="none" stroke="#0073ff" stroke-linecap="round" stroke-linejoin="round" stroke-width="2"/><g transform="translate(1410.006 185.196)" fill="none" stroke="#0073ff" stroke-width="2"><circle cx="10" cy="10" r="10" stroke="none"/><circle cx="10" cy="10" r="9"/></g><g transform="translate(1191.006 62.196)" fill="none" stroke="#0073ff" stroke-width="2"><circle cx="8" cy="8" r="8" stroke="none"/><circle cx="8" cy="8" r="7"/></g><g transform="translate(93.006 214.196)" fill="none" stroke="#0073ff" stroke-width="2"><circle cx="5" cy="5" r="5" stroke="none"/><circle cx="5" cy="5" r="4"/></g><path d="M1343.177 266.493c4.681-1.476 2.85-7.296 7.526-8.773s6.516 4.344 11.196 2.867 2.85-7.294 7.525-8.772" fill="none" stroke="#0073ff" stroke-linecap="round" stroke-linejoin="round" stroke-width="2"/><g transform="rotate(17 2857.702 -6427.376)"><ellipse cx="15.3" cy="5.78" rx="15.3" ry="5.78" transform="translate(2434.825 461.009)" fill="none" stroke="#0073ff" stroke-miterlimit="10" stroke-width="2"/><path fill="none" stroke="#0073ff" stroke-miterlimit="10" stroke-width="2" d="M2434.825 466.789v14.199"/><path stroke-width="2" stroke="#0073ff" stroke-linecap="round" stroke-linejoin="round" fill="none" d="M2450.125 455.629v9.394m7.683-7.08v7.617m-15.366-7.617v7.617"/><path fill="none" stroke="#0073ff" stroke-miterlimit="10" stroke-width="2" d="M2465.425 466.789v14.199m0-.001c0 3.192-6.85 5.78-15.3 5.78s-15.3-2.588-15.3-5.78m30.601-6.657c-.731.528-1.915.943-2.957 1.525-1.083.606-1.946 2.418-3.542 2.83-1.3.335-2.992-.776-4.535-.6-1.377.154-2.758 1.632-4.267 1.632s-2.89-1.478-4.268-1.632c-1.542-.172-3.236.939-4.534.6-1.6-.412-2.459-2.225-3.543-2.83-1.031-.577-2.2-.989-2.934-1.509"/><path d="M2452 450.005c0-1.036-1.457-3.407-1.876-3.407s-1.876 2.371-1.876 3.407a1.876 1.876 0 103.752 0zm7.684 2.057c0-1.036-1.457-3.407-1.876-3.407s-1.876 2.371-1.876 3.407a1.876 1.876 0 003.752 0zm-15.366 0c0-1.036-1.457-3.407-1.876-3.407s-1.876 2.371-1.876 3.407a1.876 1.876 0 003.752 0z" fill="#0073ff"/></g></svg>