<svg xmlns="http://www.w3.org/2000/svg" width="1396.033" height="127.279"><path d="M1189.243 106.787h205.677c.071-.97.111-1.95.111-2.94a39.444 39.444 0 00-66.23-28.95 60.35 60.35 0 00-99.671 1.53 33.83 33.83 0 00-39.889 30.36zM1068.101 38.28h120.81a25.607 25.607 0 00-35.731-20.96 28.339 28.339 0 00-53.6 7.25 19.948 19.948 0 00-31.48 13.71zM194.42 93.175h160.526c.055-.757.087-1.522.087-2.294a30.785 30.785 0 00-51.691-22.595 47.1 47.1 0 00-77.79 1.194 26.406 26.406 0 00-31.132 23.7zm-52.564 33.105H1.101a29.835 29.835 0 0141.63-24.421 33.018 33.018 0 0162.449 8.447 23.242 23.242 0 0136.678 15.974z" fill="#fff" stroke="#0073ff" stroke-miterlimit="10" stroke-width="2"/></svg>