<svg xmlns="http://www.w3.org/2000/svg" width="1914.895" height="164.295" viewBox="0 0 1914.895 164.295"><defs><style>.a,.b{fill:none;stroke:#0073ff;stroke-width:2px;}.a{stroke-miterlimit:10;}.b{stroke-linecap:round;stroke-linejoin:round;stroke-dasharray:8;}</style></defs><g transform="translate(1.18 -4211.591)"><path class="a" d="M2601.1,5395.231c-13.982.259-25.113,11.277-24.86,24.609.222,11.725,20.208,34.018,25.024,39.224a1.359,1.359,0,0,0,2.031-.037c4.626-5.379,23.8-28.4,23.581-40.123C2626.625,5405.572,2615.085,5394.973,2601.1,5395.231Zm.456,36.7a11.489,11.489,0,1,1,11.49-11.489A11.489,11.489,0,0,1,2601.558,5431.928Z" transform="translate(-1977.238 -1173.227)"/><path class="b" d="M1212.766,364.151c-196.085-42.753-330.894,128.8-618.894,69.834" transform="translate(-593.872 3921.774)"/><path class="b" d="M0,94.029c229.995-42.763,695.218-15.823,842.094,11.119,266.931,38.963,227.108-67.093,431.122-64.976" transform="matrix(-0.998, -0.07, 0.07, -0.998, 1904.554, 4414.852)"/></g></svg>