<svg xmlns="http://www.w3.org/2000/svg" width="1430.006" height="273.461" viewBox="0 0 1430.006 273.461"><g transform="translate(-265.994 -2076.804)"><path d="M2691.834,609.513c3.781-3.128.484-8.523,4.909-11.445,4.619-3.048,8.41,2.694,13.028-.355s.827-8.791,5.445-11.84,8.409,2.694,13.026-.355.827-8.791,5.444-11.839" transform="translate(-1086.689 2801.211) rotate(-25)" fill="none" stroke="#0073ff" stroke-linecap="round" stroke-linejoin="round" stroke-width="2"/><path d="M2180.073,725.125l-12.869-.509a1.386,1.386,0,0,0-1.166.555l-7.715,10.312a1.386,1.386,0,0,1-2.445-.454l-3.493-12.4a1.387,1.387,0,0,0-.888-.937l-12.192-4.15a1.387,1.387,0,0,1-.323-2.466l10.711-7.153a1.386,1.386,0,0,0,.616-1.134l.18-12.877a1.386,1.386,0,0,1,2.245-1.07l10.113,7.976a1.386,1.386,0,0,0,1.269.236l12.3-3.808a1.386,1.386,0,0,1,1.711,1.8l-4.461,12.082a1.386,1.386,0,0,0,.168,1.279l7.424,10.524A1.388,1.388,0,0,1,2180.073,725.125Z" transform="translate(-1871.365 1516.455)" fill="none" stroke="#0073ff" stroke-miterlimit="10" stroke-width="2"/><path d="M2516.428,1336.438c3.781-3.127.484-8.522,4.909-11.444,4.618-3.049,8.409,2.694,13.028-.355s.827-8.792,5.445-11.841,8.409,2.694,13.026-.354.827-8.791,5.444-11.839" transform="translate(-1162.895 4433.074) rotate(-82)" fill="none" stroke="#0073ff" stroke-linecap="round" stroke-linejoin="round" stroke-width="2"/><path d="M2451.029,1303.24l4.87,8.905,8.905,4.87a1.717,1.717,0,0,1,0,3.013l-8.905,4.87-4.87,8.905a1.717,1.717,0,0,1-3.013,0l-4.87-8.905-8.905-4.87a1.717,1.717,0,0,1,0-3.013l8.905-4.87,4.87-8.905A1.717,1.717,0,0,1,2451.029,1303.24Z" transform="matrix(0.978, 0.208, -0.208, 0.978, -568.684, 298.182)" fill="none" stroke="#0073ff" stroke-miterlimit="10" stroke-width="2"/><g transform="translate(364.782 2142.482)"><g transform="translate(1.143)"><line x2="1.248" y2="1.692" fill="none" stroke="#0073ff" stroke-linecap="round" stroke-linejoin="round" stroke-width="2"/><line x2="1.248" y2="1.692" transform="translate(5.177 7.019)" stroke-width="2" stroke="#0073ff" stroke-linecap="round" stroke-linejoin="round" fill="none"/></g><g transform="translate(0 1.143)"><line y1="1.248" x2="1.692" transform="translate(0 5.177)" stroke-width="2" stroke="#0073ff" stroke-linecap="round" stroke-linejoin="round" fill="none"/><line y1="1.248" x2="1.692" transform="translate(7.019)" stroke-width="2" stroke="#0073ff" stroke-linecap="round" stroke-linejoin="round" fill="none"/></g></g><g transform="translate(1676 2262)" fill="none" stroke="#0073ff" stroke-width="2"><circle cx="10" cy="10" r="10" stroke="none"/><circle cx="10" cy="10" r="9" fill="none"/></g><g transform="translate(1457 2139)" fill="none" stroke="#0073ff" stroke-width="2"><circle cx="8" cy="8" r="8" stroke="none"/><circle cx="8" cy="8" r="7" fill="none"/></g><g transform="translate(359 2291)" fill="none" stroke="#0073ff" stroke-width="2"><circle cx="5" cy="5" r="5" stroke="none"/><circle cx="5" cy="5" r="4" fill="none"/></g><path d="M2269.431,392.451c-2.564-4.185-7.768-1-10.333-5.18s2.639-7.373.074-11.557-7.767-1-10.332-5.179" transform="translate(2538.99 236.22) rotate(104)" fill="none" stroke="#0073ff" stroke-linecap="round" stroke-linejoin="round" stroke-width="2"/><g transform="translate(-1488.321 960.447) rotate(17)"><ellipse cx="15.3" cy="5.78" rx="15.3" ry="5.78" transform="translate(2434.825 461.009)" fill="none" stroke="#0073ff" stroke-miterlimit="10" stroke-width="2"/><line y2="14.199" transform="translate(2434.825 466.789)" fill="none" stroke="#0073ff" stroke-miterlimit="10" stroke-width="2"/><line y2="9.394" transform="translate(2450.125 455.629)" stroke-width="2" stroke="#0073ff" stroke-linecap="round" stroke-linejoin="round" fill="none"/><line y2="7.617" transform="translate(2457.808 457.943)" stroke-width="2" stroke="#0073ff" stroke-linecap="round" stroke-linejoin="round" fill="none"/><line y2="7.617" transform="translate(2442.442 457.943)" stroke-width="2" stroke="#0073ff" stroke-linecap="round" stroke-linejoin="round" fill="none"/><line y2="14.199" transform="translate(2465.425 466.789)" fill="none" stroke="#0073ff" stroke-miterlimit="10" stroke-width="2"/><path d="M2465.425,480.987c0,3.192-6.85,5.78-15.3,5.78s-15.3-2.588-15.3-5.78" fill="none" stroke="#0073ff" stroke-miterlimit="10" stroke-width="2"/><path d="M2465.426,474.33c-.731.528-1.915.943-2.957,1.525-1.083.606-1.946,2.418-3.542,2.83-1.3.335-2.992-.776-4.535-.6-1.377.154-2.758,1.632-4.267,1.632s-2.89-1.478-4.268-1.632c-1.542-.172-3.236.939-4.534.6-1.6-.412-2.459-2.225-3.543-2.83-1.031-.577-2.2-.989-2.934-1.509" fill="none" stroke="#0073ff" stroke-miterlimit="10" stroke-width="2"/><path d="M2452,450.005c0-1.036-1.457-3.407-1.876-3.407s-1.876,2.371-1.876,3.407a1.876,1.876,0,1,0,3.752,0Z" fill="#0073ff"/><path d="M2459.684,452.062c0-1.036-1.457-3.407-1.876-3.407s-1.876,2.371-1.876,3.407a1.876,1.876,0,0,0,3.752,0Z" fill="#0073ff"/><path d="M2444.318,452.062c0-1.036-1.457-3.407-1.876-3.407s-1.876,2.371-1.876,3.407a1.876,1.876,0,0,0,3.752,0Z" fill="#0073ff"/></g></g></svg>