<svg xmlns="http://www.w3.org/2000/svg" width="1795.964" height="385.684"><g fill="none" stroke="#0073ff" stroke-width="2"><path d="M87.555 18.524c-6.538-2.1-14.117-5.159-20.656-7.261 26.25-5.176 77.35-9.829 81.84-10.232a.105.105 0 01.08.184c-6.829 6.137-21.3 20.269-29 29.017-7.579-2.519-18.569-5.545-18.569-5.545l47.567-23.472a.107.107 0 00-.069-.2c-4.192.854-52.484 14.569-61.195 17.51a252.891 252.891 0 018.665 26.193l5.414-20.3" stroke-linejoin="round"/><path d="M96.221 44.717c5.7-6.542 11.2-11.076 17.575-16.583" stroke-miterlimit="10"/><path d="M1794.723 384.447C1239.448 221.602 1127.036 138.213 540.015 232.28 2.96 344.71-98.02 201.576 84.85 42.736" stroke-linecap="round" stroke-dasharray="8" stroke-linejoin="round"/></g></svg>