<svg xmlns="http://www.w3.org/2000/svg" width="1119.859" height="676.147"><defs><style>.a,.c,.f,.i{fill:none}.a,.b,.c,.f{stroke:#0073ff;stroke-width:2px}.a,.b{stroke-linecap:round;stroke-linejoin:round}.b{fill:#fff}.c{stroke-miterlimit:10}.d{fill:#0073ff}.h{stroke:none}</style></defs><path class="a" d="M57.956 187.092l1.846 3.879-18.1 8.612-4.803-.095 2.957-3.784zm-16.254 12.486l-1.846-3.879m19.944-4.733l-1.846-3.879 1.939-.923a2.147 2.147 0 012.863 1.016 2.147 2.147 0 01-1.017 2.863l-1.939.923z"/><path class="a" d="M46.7 202.09l-4.151 9.323a2.862 2.862 0 01-3.779 1.45l-22.886-10.19a2.862 2.862 0 01-1.45-3.78l13.686-30.736a2.863 2.863 0 013.78-1.452l22.889 10.193a2.863 2.863 0 011.45 3.78l-1.519 3.409m-23.617-10.171l18.532 8.253m-21.212-2.385l15.04 6.698M25.9 185.45l11.116 4.951m-13.753 1.122l9.266 4.126"/><path class="b" d="M418.676 450.743l-2.59-5.559 35.895-15.916 1.963 4.208z"/><path class="a" d="M427.084 443.44l-4.528 2.11m-12.489 7.003l-.903-1.933 6.919-5.432 2.591 5.557zm-.45-.969l-1.294.604m47.875-22.325a1.071 1.071 0 01-.518 1.423l-2.266 1.057-.905-1.941 2.266-1.057a1.071 1.071 0 011.423.518z"/><g transform="rotate(-21 -11791.448 29221.765)"><rect class="c" width="25" height="41" rx="3" transform="translate(9508.769 6734.438)"/><circle class="d" cx=".962" cy=".962" r=".962" transform="translate(9513.084 6762.139)"/><circle class="d" cx=".962" cy=".962" r=".962" transform="translate(9516.936 6762.139)"/><circle class="d" cx=".962" cy=".962" r=".962" transform="translate(9520.784 6762.139)"/><rect class="c" width="16" height="17.067" rx="2" transform="translate(9513.406 6740.859)"/><path d="M9513.084 6766.63h12.832m-12.832 3.634h9.624" stroke-miterlimit="10" stroke-linecap="round" stroke="#0073ff" stroke-width="2" fill="none"/></g><g transform="rotate(-19 -13131.534 27962.398)"><rect class="c" width="49" height="36" rx="3" transform="translate(9145.235 6737.058)"/><path class="a" d="M9161.938 6761.96l2.264 2.262-2.264 2.264m-9.113-4.526l-2.263 2.262 2.263 2.264m5.618-5.591l-2.396 6.655m1.32-25.428l2.263 2.263-2.263 2.263m-4.542-4.526l-2.263 2.263 2.263 2.263m-2.59 4.41h30m-29.987 4.144h20.673"/></g><g transform="rotate(-13 -23670.25 38267.471)"><rect class="c" width="44" height="31.264" rx="4.365" transform="translate(8984.171 6759.409)"/><path class="a" d="M8995.224 6796.998h21.896m-13.82-6.325h5.742v6.325h-5.742z"/><rect class="c" width="14.393" height="8.872" rx=".696" transform="translate(8993.002 6764.666)"/><rect class="c" width="8.195" height="8.872" rx=".525" transform="translate(9011.146 6764.666)"/><path class="a" d="M8993.002 6778.481h26.339m-26.339 4.5h26.339"/></g><path class="a" d="M422.45 36.063l-10.539 3.365a1.965 1.965 0 00-1.284 1.305l-3.202 10.59a1.965 1.965 0 01-3.477.577l-6.451-8.98a1.962 1.962 0 00-1.636-.818l-11.06.226a1.965 1.965 0 01-1.627-3.13l6.548-8.917a1.965 1.965 0 00.273-1.809l-3.633-10.449a1.965 1.965 0 012.472-2.51l10.504 3.472a1.965 1.965 0 001.803-.3l8.815-6.684a1.965 1.965 0 013.152 1.575l-.054 11.06a1.963 1.963 0 00.843 1.623l9.08 6.318a1.965 1.965 0 01-.527 3.486zm639.597 25.991l-4.949 3.428a1.07 1.07 0 00-.46.882l.02 6.02a1.069 1.069 0 01-1.717.854l-4.79-3.647a1.068 1.068 0 00-.98-.165l-5.72 1.877a1.069 1.069 0 01-1.343-1.369l1.989-5.682a1.069 1.069 0 00-.145-.985l-3.554-4.86a1.069 1.069 0 01.887-1.7l6.023.137a1.07 1.07 0 00.89-.443l3.525-4.882a1.069 1.069 0 011.89.318l1.73 5.766a1.068 1.068 0 00.697.71l5.73 1.844a1.069 1.069 0 01.277 1.897z"/><g class="f" transform="translate(46.796 534.881)"><circle class="h" cx="8" cy="8" r="8"/><circle class="i" cx="8" cy="8" r="7"/></g><g class="f" transform="translate(55.796 524.881)"><circle class="h" cx="3" cy="3" r="3"/><circle class="i" cx="3" cy="3" r="2"/></g><g class="f" transform="translate(1094.796 580.881)"><circle class="h" cx="8" cy="8" r="8"/><circle class="i" cx="8" cy="8" r="7"/></g><path class="b" d="M708.097 477.255l-6.47 3.017-19.609-42.052 6.47-3.017z"/><path class="a" d="M702.892 472.853l-3.882 1.81m.677-8.685l-3.882 1.81m.078-9.968l-3.882 1.811m4.004-1.549l-3.882 1.81m-.043-10.228l-3.882 1.81"/><path d="M688.873 442.789l-3.882 1.81" stroke-linecap="round" stroke="#0073ff" stroke-width="2" fill="none"/><path class="a" d="M1111.802 165.881l1.098 1.489m3.457 4.687l1.098 1.489m-6.659-1.006l1.489-1.098m4.687-3.457l1.489-1.098"/><g class="f" transform="translate(45.074 125.881)"><circle class="h" cx="6" cy="6" r="6"/><circle class="i" cx="6" cy="6" r="5"/></g><path class="a" d="M3.567 593.207l7.228 2.489-2.297 6.67M1050.64 448.154l1.027 5.557 5.13-.95"/></svg>