<svg xmlns="http://www.w3.org/2000/svg" width="1608.844" height="977"><g fill="none" stroke="#0073ff" stroke-width="2"><path d="M128.442 114.831l-8.986 11.382a2.576 2.576 0 00-.44 2.357l4.282 13.855a2.576 2.576 0 01-3.354 3.176l-13.6-5.029a2.572 2.572 0 00-2.377.311l-11.853 8.353a2.576 2.576 0 01-4.057-2.208l.579-14.49a2.576 2.576 0 00-1.029-2.165l-11.608-8.692a2.576 2.576 0 01.846-4.541l13.96-3.926a2.577 2.577 0 001.74-1.648l4.68-13.726a2.576 2.576 0 014.58-.6l8.048 12.064a2.573 2.573 0 002.1 1.146l14.5.209a2.575 2.575 0 011.989 4.172zm1470.636 600.351l-10.539 3.365a1.965 1.965 0 00-1.284 1.305l-3.202 10.59a1.965 1.965 0 01-3.477.577l-6.451-8.98a1.962 1.962 0 00-1.636-.818l-11.06.226a1.965 1.965 0 01-1.627-3.13l6.548-8.917a1.965 1.965 0 00.273-1.809l-3.633-10.449a1.965 1.965 0 012.472-2.51l10.504 3.472a1.965 1.965 0 001.803-.3l8.815-6.684a1.965 1.965 0 013.152 1.575l-.054 11.06a1.963 1.963 0 00.843 1.623l9.08 6.318a1.965 1.965 0 01-.527 3.486zM1428.86 45.127l-7.925 3.481a1.538 1.538 0 00-.892 1.12l-1.626 8.501a1.538 1.538 0 01-2.658.74l-5.76-6.461a1.535 1.535 0 00-1.34-.502l-8.588 1.08a1.537 1.537 0 01-1.52-2.3l4.366-7.474a1.538 1.538 0 00.064-1.43l-3.682-7.834a1.537 1.537 0 011.718-2.156l8.458 1.843a1.538 1.538 0 001.38-.38l6.312-5.924a1.537 1.537 0 012.581.969l.858 8.61a1.536 1.536 0 00.789 1.194l7.583 4.174a1.537 1.537 0 01-.118 2.75z" stroke-linecap="round" stroke-linejoin="round"/><g transform="translate(1459)"><circle cx="6" cy="6" r="6" stroke="none"/><circle cx="6" cy="6" r="5"/></g><g transform="translate(23 173)"><circle cx="6" cy="6" r="6" stroke="none"/><circle cx="6" cy="6" r="5"/></g><g transform="translate(1562 965)"><circle cx="6" cy="6" r="6" stroke="none"/><circle cx="6" cy="6" r="5"/></g><g transform="translate(0 769)"><circle cx="8" cy="8" r="8" stroke="none"/><circle cx="8" cy="8" r="7"/></g><path d="M38.27 71.083v7.644h-7.055m-4.938 847.599l7.228 2.489-2.297 6.67M5.006 741l1.098 1.489m3.457 4.687l1.098 1.489M4 747.659l1.489-1.098m4.687-3.457l1.489-1.098M1464.98 102.273l1.027 5.557 5.13-.95" stroke-linecap="round" stroke-linejoin="round"/></g></svg>