<svg xmlns="http://www.w3.org/2000/svg" width="1914.895" height="164.295"><path d="M625.042 10.413c-13.982.259-25.113 11.277-24.86 24.609.222 11.725 20.208 34.018 25.024 39.224a1.359 1.359 0 002.031-.037c4.626-5.379 23.8-28.4 23.581-40.123-.251-13.332-11.791-23.931-25.776-23.673zm.456 36.7a11.489 11.489 0 1111.49-11.489A11.489 11.489 0 01625.5 47.11z" stroke-miterlimit="10" fill="none" stroke="#0073ff" stroke-width="2"/><path d="M620.074 74.334C423.989 31.581 289.18 203.134 1.18 144.168m1911.136-34.748c-232.528 26.578-694.935-32.874-839.631-70.043-263.67-57.57-231.35 51.061-434.809 34.667" fill="none" stroke="#0073ff" stroke-width="2" stroke-linecap="round" stroke-linejoin="round" stroke-dasharray="8"/></svg>