<svg xmlns="http://www.w3.org/2000/svg" width="1119.859" height="676.147" viewBox="0 0 1119.859 676.147"><defs><style>.a,.c,.e,.f,.g,.i{fill:none;}.a,.b,.c,.e,.f,.g{stroke:#0073ff;stroke-width:2px;}.a,.b,.e,.g{stroke-linecap:round;}.a,.b{stroke-linejoin:round;}.b{fill:#fff;}.c,.e{stroke-miterlimit:10;}.d{fill:#0073ff;}.h{stroke:none;}</style></defs><g transform="translate(-409.204 -9916.119)"><g transform="matrix(0.914, 0.407, -0.407, 0.914, -5385.919, 16.392)"><g transform="translate(9430.992 6830.009)"><path class="a" d="M9453.432,6833.2l3.263,2.791-13.025,15.222-4.424,1.866,1.161-4.657Z" transform="translate(-9439.245 -6833.197)"/><line class="a" x1="3.262" y1="2.791" transform="translate(1.161 15.221)"/></g><path class="a" d="M0,0H4.293a0,0,0,0,1,0,0V2.146A2.146,2.146,0,0,1,2.146,4.293h0A2.146,2.146,0,0,1,0,2.146V0A0,0,0,0,1,0,0Z" transform="matrix(-0.76, -0.65, 0.65, -0.76, 9448.438, 6832.799)"/><path class="a" d="M9441,6848.282v10.2a2.861,2.861,0,0,1-2.86,2.861H9413.1a2.861,2.861,0,0,1-2.861-2.861v-33.628a2.862,2.862,0,0,1,2.861-2.862h25.043a2.862,2.862,0,0,1,2.86,2.862v3.73"/><line class="a" x2="20.276" transform="translate(9415.304 6828.9)"/><line class="a" x2="16.456" transform="translate(9415.243 6835.347)"/><line class="a" x2="12.163" transform="translate(9415.243 6841.547)"/><line class="a" x2="10.138" transform="translate(9415.304 6848.163)"/></g><g transform="translate(829.473 10332.561) rotate(20)"><g transform="translate(1 -0.434)"><path class="b" d="M9517.771,6860.636l-4.336-4.337,28.287-27.234,3.284,3.283Z" transform="translate(-9508.536 -6827.425)"/><line class="a" x1="3.533" y2="3.533" transform="translate(11.105 23.472)"/><path class="a" d="M9508.438,6876.2l-1.51-1.508,4.644-7.471,4.336,4.336Z" transform="translate(-9506.674 -6838.343)"/><line class="a" x1="1.01" y2="1.01" transform="translate(0 37.1)"/><path class="a" d="M1.071,0h0A1.071,1.071,0,0,1,2.142,1.071v2.5a0,0,0,0,1,0,0H0a0,0,0,0,1,0,0v-2.5A1.071,1.071,0,0,1,1.071,0Z" transform="translate(36.595) rotate(45)"/></g></g><g transform="translate(-10846.123 7631.339) rotate(-21)"><rect class="c" width="25" height="41" rx="3" transform="translate(9508.769 6734.438)"/><circle class="d" cx="0.962" cy="0.962" r="0.962" transform="translate(9513.084 6762.139)"/><circle class="d" cx="0.962" cy="0.962" r="0.962" transform="translate(9516.936 6762.139)"/><circle class="d" cx="0.962" cy="0.962" r="0.962" transform="translate(9520.784 6762.139)"/><rect class="c" width="16" height="17.067" rx="2" transform="translate(9513.406 6740.859)"/><line class="e" x2="12.832" transform="translate(9513.084 6766.63)"/><line class="e" x2="9.624" transform="translate(9513.084 6770.264)"/></g><g transform="translate(-9409.887 7164.341) rotate(-19)"><rect class="c" width="49" height="36" rx="3" transform="translate(9145.235 6737.058)"/><g transform="translate(9150.561 6760.895)"><path class="a" d="M9168.7,6780.069l2.264,2.262-2.264,2.264" transform="translate(-9157.323 -6779.004)"/><path class="a" d="M9156,6780.069l-2.263,2.262,2.263,2.264" transform="translate(-9153.736 -6779.004)"/><line class="a" x1="2.396" y2="6.655" transform="translate(5.486)"/></g><g transform="translate(9150.561 6742.122)"><path class="a" d="M9164.6,6743.611l2.263,2.263-2.263,2.263" transform="translate(-9157.794 -6743.611)"/><path class="a" d="M9156,6743.611l-2.263,2.263,2.263,2.263" transform="translate(-9153.736 -6743.611)"/></g><line class="a" x2="30" transform="translate(9150.235 6751.058)"/><line class="a" x2="20.673" transform="translate(9150.248 6755.202)"/></g><g transform="translate(-8805.771 5572.264) rotate(-13)"><rect class="c" width="44" height="31.264" rx="4.365" transform="translate(8984.171 6759.409)"/><line class="a" x2="21.896" transform="translate(8995.224 6796.998)"/><rect class="a" width="5.742" height="6.325" transform="translate(9003.3 6790.673)"/><rect class="c" width="14.393" height="8.872" rx="0.696" transform="translate(8993.002 6764.666)"/><rect class="c" width="8.195" height="8.872" rx="0.525" transform="translate(9011.146 6764.666)"/><line class="a" x2="26.339" transform="translate(8993.002 6778.481)"/><line class="a" x2="26.339" transform="translate(8993.002 6782.981)"/></g><path class="a" d="M771.653,697.862l-6.855,8.683a1.965,1.965,0,0,0-.335,1.8l3.267,10.57a1.965,1.965,0,0,1-2.559,2.423L754.8,717.5a1.962,1.962,0,0,0-1.813.237l-9.042,6.372a1.965,1.965,0,0,1-3.1-1.685l.442-11.054a1.965,1.965,0,0,0-.785-1.652l-8.855-6.631a1.965,1.965,0,0,1,.646-3.464l10.65-2.995a1.965,1.965,0,0,0,1.327-1.257l3.57-10.471a1.965,1.965,0,0,1,3.494-.457l6.14,9.2a1.963,1.963,0,0,0,1.606.874l11.061.16A1.965,1.965,0,0,1,771.653,697.862Z" transform="translate(582.164 8942.125) rotate(34)"/><path class="a" d="M753.058,691.346l-3.73,4.725a1.07,1.07,0,0,0-.182.978l1.778,5.752a1.069,1.069,0,0,1-1.392,1.318l-5.646-2.088a1.068,1.068,0,0,0-.987.129l-4.921,3.468a1.069,1.069,0,0,1-1.684-.917l.241-6.015a1.069,1.069,0,0,0-.427-.9l-4.819-3.608a1.069,1.069,0,0,1,.351-1.885l5.8-1.63a1.07,1.07,0,0,0,.722-.684l1.943-5.7a1.069,1.069,0,0,1,1.9-.248l3.341,5.008a1.068,1.068,0,0,0,.874.476l6.019.087A1.069,1.069,0,0,1,753.058,691.346Z" transform="translate(953.228 9096.863) rotate(17)"/><g class="f" transform="translate(456 10451)"><circle class="h" cx="8" cy="8" r="8"/><circle class="i" cx="8" cy="8" r="7"/></g><g class="f" transform="translate(465 10441)"><circle class="h" cx="3" cy="3" r="3"/><circle class="i" cx="3" cy="3" r="2"/></g><g class="f" transform="translate(1504 10497)"><circle class="h" cx="8" cy="8" r="8"/><circle class="i" cx="8" cy="8" r="7"/></g><g transform="translate(1092.948 10349.596) rotate(20)"><rect class="b" width="7.138" height="46.399" transform="translate(37.857 32.809) rotate(135)"/><g transform="translate(4.037 6.057)"><line class="a" x1="3.029" y2="3.029" transform="translate(24.395 24.395)"/><line class="a" x1="3.029" y2="3.029" transform="translate(19.032 19.031)"/><line class="a" x1="3.029" y2="3.029" transform="translate(12.667 12.667)"/><line class="a" x1="3.029" y2="3.029" transform="translate(12.871 12.871)"/><line class="a" x1="3.029" y2="3.029" transform="translate(6.304 6.303)"/><path class="g" d="M3.029,0,0,3.029" transform="translate(0.939 0.939)"/></g></g><g transform="translate(-34.639 5098.226)"><line class="a" x2="1.098" y2="1.489" transform="translate(1555.645 4983.774)"/><line class="a" x2="1.098" y2="1.489" transform="translate(1560.2 4989.95)"/><line class="a" y1="1.098" x2="1.489" transform="translate(1554.639 4989.335)"/><line class="a" y1="1.098" x2="1.489" transform="translate(1560.815 4984.78)"/></g><g class="f" transform="translate(454.278 10042)"><circle class="h" cx="6" cy="6" r="6"/><circle class="i" cx="6" cy="6" r="5"/></g><path class="a" d="M904.27-6279.917v7.644h-7.055" transform="translate(6056.148 13408.871) rotate(-71)"/><path class="a" d="M1657.375,4580.73l-5.645-.249-.229,5.211" transform="translate(-2630.654 13009.61) rotate(-103)"/></g></svg>