<svg xmlns="http://www.w3.org/2000/svg" width="1608.844" height="977" viewBox="0 0 1608.844 977"><g transform="translate(-181 -7844)"><path d="M784.335,702.3l-8.986,11.382a2.576,2.576,0,0,0-.44,2.357l4.282,13.855a2.576,2.576,0,0,1-3.354,3.176l-13.6-5.029a2.572,2.572,0,0,0-2.377.311l-11.853,8.353a2.576,2.576,0,0,1-4.057-2.208l.579-14.49a2.576,2.576,0,0,0-1.029-2.165l-11.608-8.692a2.576,2.576,0,0,1,.846-4.541l13.96-3.926a2.577,2.577,0,0,0,1.74-1.648l4.68-13.726a2.576,2.576,0,0,1,4.58-.6l8.048,12.064a2.573,2.573,0,0,0,2.1,1.146l14.5.209A2.575,2.575,0,0,1,784.335,702.3Z" transform="translate(-474.893 7256.531)" fill="none" stroke="#0073ff" stroke-linecap="round" stroke-linejoin="round" stroke-width="2"/><path d="M771.653,697.862l-6.855,8.683a1.965,1.965,0,0,0-.335,1.8l3.267,10.57a1.965,1.965,0,0,1-2.559,2.423L754.8,717.5a1.962,1.962,0,0,0-1.813.237l-9.042,6.372a1.965,1.965,0,0,1-3.1-1.685l.442-11.054a1.965,1.965,0,0,0-.785-1.652l-8.855-6.631a1.965,1.965,0,0,1,.646-3.464l10.65-2.995a1.965,1.965,0,0,0,1.327-1.257l3.57-10.471a1.965,1.965,0,0,1,3.494-.457l6.14,9.2a1.963,1.963,0,0,0,1.606.874l11.061.16A1.965,1.965,0,0,1,771.653,697.862Z" transform="translate(1530.588 7549.125) rotate(34)" fill="none" stroke="#0073ff" stroke-linecap="round" stroke-linejoin="round" stroke-width="2"/><path d="M762.778,694.752l-5.363,6.794a1.538,1.538,0,0,0-.262,1.407l2.556,8.27a1.538,1.538,0,0,1-2,1.9l-8.119-3a1.535,1.535,0,0,0-1.419.186l-7.075,4.986a1.537,1.537,0,0,1-2.422-1.318l.346-8.649a1.538,1.538,0,0,0-.615-1.292l-6.929-5.188a1.537,1.537,0,0,1,.505-2.711l8.333-2.343a1.538,1.538,0,0,0,1.039-.984l2.793-8.193a1.537,1.537,0,0,1,2.734-.357l4.8,7.2a1.536,1.536,0,0,0,1.257.684l8.655.125A1.537,1.537,0,0,1,762.778,694.752Z" transform="translate(1262.533 6917.595) rotate(28)" fill="none" stroke="#0073ff" stroke-linecap="round" stroke-linejoin="round" stroke-width="2"/><g transform="translate(1640 7844)" fill="none" stroke="#0073ff" stroke-width="2"><circle cx="6" cy="6" r="6" stroke="none"/><circle cx="6" cy="6" r="5" fill="none"/></g><g transform="translate(204 8017)" fill="none" stroke="#0073ff" stroke-width="2"><circle cx="6" cy="6" r="6" stroke="none"/><circle cx="6" cy="6" r="5" fill="none"/></g><g transform="translate(1743 8809)" fill="none" stroke="#0073ff" stroke-width="2"><circle cx="6" cy="6" r="6" stroke="none"/><circle cx="6" cy="6" r="5" fill="none"/></g><g transform="translate(181 8613)" fill="none" stroke="#0073ff" stroke-width="2"><circle cx="8" cy="8" r="8" stroke="none"/><circle cx="8" cy="8" r="7" fill="none"/></g><path d="M904.27-6279.917v7.644h-7.055" transform="translate(-685 14195)" fill="none" stroke="#0073ff" stroke-linecap="round" stroke-linejoin="round" stroke-width="2"/><path d="M904.27-6279.917v7.644h-7.055" transform="translate(5850.654 11669.871) rotate(-71)" fill="none" stroke="#0073ff" stroke-linecap="round" stroke-linejoin="round" stroke-width="2"/><g transform="translate(-1369.639 3601.226)"><line x2="1.098" y2="1.489" transform="translate(1555.645 4983.774)" stroke-width="2" stroke="#0073ff" stroke-linecap="round" stroke-linejoin="round" fill="none"/><line x2="1.098" y2="1.489" transform="translate(1560.2 4989.95)" stroke-width="2" stroke="#0073ff" stroke-linecap="round" stroke-linejoin="round" fill="none"/><line y1="1.098" x2="1.489" transform="translate(1554.639 4989.335)" stroke-width="2" stroke="#0073ff" stroke-linecap="round" stroke-linejoin="round" fill="none"/><line y1="1.098" x2="1.489" transform="translate(1560.815 4984.78)" stroke-width="2" stroke="#0073ff" stroke-linecap="round" stroke-linejoin="round" fill="none"/></g><path d="M1657.375,4580.73l-5.645-.249-.229,5.211" transform="translate(-2444.518 10591.61) rotate(-103)" fill="none" stroke="#0073ff" stroke-linecap="round" stroke-linejoin="round" stroke-width="2"/></g></svg>