<svg xmlns="http://www.w3.org/2000/svg" width="1795.964" height="385.684" viewBox="0 0 1795.964 385.684"><defs><style>.a,.b,.c{fill:none;stroke:#0073ff;stroke-width:2px;}.a,.c{stroke-linejoin:round;}.b{stroke-miterlimit:10;}.c{stroke-linecap:round;stroke-dasharray:8;}</style></defs><g transform="translate(-125.12 -6047.989)"><g transform="translate(192.02 6049)"><path class="a" d="M549.6,710.086c-6.538-2.1-14.117-5.159-20.656-7.261,26.25-5.176,77.35-9.829,81.84-10.232a.105.105,0,0,1,.08.184c-6.829,6.137-21.3,20.269-29,29.017-7.579-2.519-18.569-5.545-18.569-5.545l47.567-23.472a.107.107,0,0,0-.069-.2c-4.192.854-52.484,14.569-61.195,17.51a252.891,252.891,0,0,1,8.665,26.193l5.414-20.3" transform="translate(-528.945 -692.573)"/><path class="b" d="M558.266,736.279c5.7-6.542,11.2-11.076,17.575-16.583" transform="translate(-528.945 -692.573)"/></g><path class="c" d="M1853.843,1276.6c-555.275-162.845-667.687-246.234-1254.708-152.167C62.08,1236.863-38.9,1093.729,143.97,934.889" transform="translate(66 5155.836)"/></g></svg>