<svg xmlns="http://www.w3.org/2000/svg" width="77.945" height="56.421"><path d="M44.035 43.171c-2.193-3.026-7.672-9.557-10.508-11.893-3.273-2.7-12.936-2.014-15.39 1.109l-2.649 4.23a3.822 3.822 0 001.207 5.272c1.106.693 11.847 7.425 12.97 8.132l6.161 3.862a3.449 3.449 0 004.753-1.089l3.264-5.081c1.011-1.617 1.307-3.001.192-4.542z" fill="none" stroke="#0073ff" stroke-miterlimit="10" stroke-width="4"/><path d="M64.962 35.979c5.752-4.272 6.066-8.316 6.066-8.316l4.917-3.538L62.926 3.562l-3.879 2.26c-1.221.7-2.632.666-5.632-1.192C47.03.675 39.936 4.588 36.31 7.195c-2.422 1.739-5.27 4.257-8.2 6.722a3.9 3.9 0 00-.865 4.878h0a3.668 3.668 0 004.664 1.618l14.8-2.228 18.695 18.338c7.456 7.677-6.727 15.958-12.6 15.958a17.32 17.32 0 01-7.071-1.494l-1.96-1.083" fill="none" stroke="#0073ff" stroke-linecap="round" stroke-linejoin="round" stroke-width="4"/><path d="M39.955 4.31l-4.437-1.471a12.723 12.723 0 00-7.568.974h0c-3.313 1.531-5.218 3.287-8.557 1.813L12.951 2.64l-11 22.708c-.2.535 6.485 3.819 6.882 4.233l5.839 6.011" fill="none" stroke="#0073ff" stroke-miterlimit="10" stroke-width="4"/></svg>