<svg xmlns="http://www.w3.org/2000/svg" width="77.945" height="56.421" viewBox="0 0 77.945 56.421"><g transform="translate(-806.778 -4256.943)"><g transform="translate(808.723 4259.584)"><path d="M1289.851,1179.175c-2.193-3.026-7.672-9.557-10.508-11.893-3.273-2.7-12.936-2.014-15.39,1.109l-2.649,4.23a3.822,3.822,0,0,0,1.207,5.272c1.106.693,11.847,7.425,12.97,8.132,1.238.776,5.054,3.167,6.161,3.862a3.449,3.449,0,0,0,4.753-1.089l3.264-5.081C1290.67,1182.1,1290.966,1180.716,1289.851,1179.175Z" transform="translate(-1247.761 -1138.645)" fill="none" stroke="#0073ff" stroke-miterlimit="10" stroke-width="4"/><g transform="translate(24.798 0.304)"><path d="M1302.558,1189.856c5.752-4.272,6.066-8.316,6.066-8.316l4.917-3.538-13.019-20.563-3.879,2.26c-1.221.7-2.632.666-5.632-1.192-6.385-3.955-13.479-.042-17.105,2.565-2.422,1.739-5.27,4.257-8.2,6.722a3.9,3.9,0,0,0-.865,4.878h0a3.668,3.668,0,0,0,4.664,1.618l14.8-2.228L1303,1190.4c7.456,7.677-6.727,15.958-12.6,15.958a17.32,17.32,0,0,1-7.071-1.494l-1.96-1.083" transform="translate(-1264.339 -1156.822)" fill="none" stroke="#0073ff" stroke-linecap="round" stroke-linejoin="round" stroke-width="4"/></g><path d="M1294.427,1158.385l-4.437-1.471a12.723,12.723,0,0,0-7.568.974h0c-3.313,1.531-5.218,3.287-8.557,1.813l-6.442-2.986-11,22.708c-.2.535,6.485,3.819,6.882,4.233l5.839,6.011" transform="translate(-1256.417 -1156.716)" fill="none" stroke="#0073ff" stroke-miterlimit="10" stroke-width="4"/></g></g></svg>