<svg xmlns="http://www.w3.org/2000/svg" xmlns:xlink="http://www.w3.org/1999/xlink" width="367.919" height="384.65" viewBox="0 0 367.919 384.65"><defs><linearGradient id="a" x1="-63.703" y1="-40.186" x2="-63.688" y2="-40.158" gradientUnits="objectBoundingBox"><stop offset="0" stop-color="#ffa843"/><stop offset="1" stop-color="#c800b3"/></linearGradient></defs><g transform="translate(-1090.277 -1731.156)"><g transform="translate(1431.015 1848)" fill="none" stroke="#0073ff" stroke-width="2"><circle cx="7.5" cy="7.5" r="7.5" stroke="none"/><circle cx="7.5" cy="7.5" r="6.5" fill="none"/></g><path d="M1489.087,4989.837c2.491-2.491,5.319.337,7.81-2.154s-.335-5.321,2.157-7.814,5.322.336,7.814-2.157" transform="translate(-50.087 -3202.711)" fill="none" stroke="#0073ff" stroke-linecap="round" stroke-linejoin="round" stroke-width="2"/><g transform="translate(-393.717 -3144.289)"><g transform="translate(1521.806 4959.29)"><line x2="1.189" y2="1.612" fill="none" stroke="#0073ff" stroke-linecap="round" stroke-linejoin="round" stroke-width="2"/><line x2="1.189" y2="1.612" transform="translate(4.932 6.687)" stroke-width="2" stroke="#0073ff" stroke-linecap="round" stroke-linejoin="round" fill="none"/></g><g transform="translate(1520.717 4960.379)"><line y1="1.189" x2="1.612" transform="translate(0 4.932)" stroke-width="2" stroke="#0073ff" stroke-linecap="round" stroke-linejoin="round" fill="none"/><line y1="1.189" x2="1.612" transform="translate(6.687)" stroke-width="2" stroke="#0073ff" stroke-linecap="round" stroke-linejoin="round" fill="none"/></g></g><g transform="translate(963.416 -3367.883)"><path d="M203.116,5188.866c-3.977,34.511-40.918,30.15-58.028,60.669-19.883,37.917-23.12,66.587-11.56,113.29,12.947,57.338,98.362,121.808,136.859,96.961,24.324-15.7,50.312-12.043,79.026-8.354,17.892,2.3,34.732,10.174,52.654,12.223a82.285,82.285,0,0,0,91.63-81.572c.048-22.321-8.962-43.718-20.164-63.024s-42.476-37.293-52.821-57.071c-11.954-22.855-.568-50.84-28.407-73.122-18.019-14.422-26.447-11.716-48.885-17.124-14.173-3.417-57.937-57.95-84.295-52.268C225.16,5126.793,206.393,5160.425,203.116,5188.866Z" transform="translate(0 -3.563)" fill="#cce3ff"/><g transform="translate(231.394 5105.268)"><rect width="137.22" height="244.235" rx="16" transform="translate(56.946 0) rotate(13.483)" fill="#fafbfc" stroke="#0073ff" stroke-miterlimit="10" stroke-width="2"/><path d="M439.176,5140.031l-13.839-3.318-1.308,5.455a4.316,4.316,0,0,1-5.2,3.191l-62.1-14.892a4.314,4.314,0,0,1-3.19-5.2l1.308-5.455L341,5116.492a13.833,13.833,0,0,0-16.659,10.215l-48.49,202.238A13.833,13.833,0,0,0,286.07,5345.6l98.173,23.538a13.832,13.832,0,0,0,16.659-10.214l48.49-202.238A13.833,13.833,0,0,0,439.176,5140.031Z" transform="translate(-267.431 -5108.068)" fill="#fff" stroke="#0073ff" stroke-miterlimit="10" stroke-width="2"/><rect width="34.089" height="5.178" rx="2.589" transform="translate(54.031 233.318) rotate(13.483)" fill="none" stroke="#0073ff" stroke-miterlimit="10" stroke-width="2"/><path d="M348.531,5149.249a6.633,6.633,0,1,1,5.011-.8A6.629,6.629,0,0,1,348.531,5149.249Zm3-12.491a6.215,6.215,0,1,0,4.6,7.493A6.216,6.216,0,0,0,351.526,5136.758Z" transform="translate(-284.986 -5113.249)" fill="url(#a)"/><g transform="translate(78.629 26.902)" style="isolation:isolate"><text transform="translate(0.235 3.89) rotate(13.483)" font-size="4" font-family="ProximaNova-Bold, Proxima Nova" font-weight="700" style="isolation:isolate"><tspan x="0" y="0">Proamursk</tspan></text></g><g transform="translate(77.337 33.265)"><g transform="translate(0 0)"><text transform="translate(0.235 2.917) rotate(13.483)" fill="#0073ff" font-size="3" font-family="PTSansPro-Regular, PT Sans Pro" style="isolation:isolate"><tspan x="0" y="0">в твоем городе</tspan></text></g></g><g transform="translate(20.889 186.944)" style="isolation:isolate"><g transform="translate(0 0)"><text transform="translate(0.235 2.917) rotate(13.483)" fill="#0073ff" font-size="3" font-family="PTSansPro-Bold, PT Sans Pro" font-weight="700" style="isolation:isolate"><tspan x="0" y="0">«Нравится»</tspan></text></g></g><text transform="translate(45.949 196.108) rotate(13.483)" fill="#0073ff" font-size="3" font-family="PTSansPro-Regular, PT Sans Pro" style="isolation:isolate"><tspan x="0" y="0">вам, вашим друзьям и друзьям ваших друзей</tspan></text><g transform="translate(28.745 175.371)"><path d="M315.714,5347.112c-1.187,4.951-7.8,5.727-7.8,5.727s-5.545-3.692-4.358-8.643a3.257,3.257,0,0,1,6.378.23,3.254,3.254,0,0,1,5.784,2.686Z" transform="translate(-303.385 -5341.703)" fill="#e1000e"/></g><g transform="translate(45.107 179.859)"><path d="M330.831,5349.237h0a3.9,3.9,0,0,1,3.162,6.167,3.3,3.3,0,0,0-.424,2.036,4,4,0,0,0-1.7-.5,2.106,2.106,0,0,0-.359.031,3.824,3.824,0,0,1-.69.062,3.9,3.9,0,0,1-.679-7.733,3.985,3.985,0,0,1,.691-.062m0-1.483a5.453,5.453,0,0,0-.952.084,5.381,5.381,0,0,0,.94,10.677,5.451,5.451,0,0,0,.951-.084.687.687,0,0,1,.1-.008c.725,0,2.283,1.148,2.938,1.148a.312.312,0,0,0,.2-.058c.3-.217-.177-2.728.194-3.243a5.382,5.382,0,0,0-4.368-8.516Z" transform="translate(-325.444 -5347.753)" fill="#0073ff"/></g><g transform="translate(59.664 24.127)"><circle cx="5.426" cy="5.426" r="5.426" fill="#0073ff"/><path d="M350.494,5146.381l-.412-.874a3.628,3.628,0,0,0-3.057-1.765l.109-1.59a5.349,5.349,0,0,1,3.927,1.971,5.387,5.387,0,0,1,4.38.022l-.63,1.462a3.728,3.728,0,0,0-3.539.2Z" transform="translate(-345.575 -5138.92)" fill="#fff"/></g><g transform="translate(21.545 205.995)"><g transform="translate(70.968 15.455)"><path d="M400.755,5408.825c-1.1,4.576-7.3,5.645-7.3,5.645s-5.042-3.764-3.945-8.34a3.011,3.011,0,0,1,5.9.212,3.008,3.008,0,0,1,5.346,2.483Z" transform="translate(-389.356 -5403.825)" fill="none" stroke="#0073ff" stroke-miterlimit="10" stroke-width="2"/></g><path d="M305.945,5388.527l-3.508-4.935a1.317,1.317,0,0,0-1.769-.423l-5.363,2.807a.658.658,0,0,0-.309.417l-1.318,5.5,3.842.921,1.022-4.265a.659.659,0,0,1,.794-.487l2.07.5a.66.66,0,0,1,.487.794l-1.023,4.264,3.842.922,1.318-5.5A.659.659,0,0,0,305.945,5388.527Z" transform="translate(-293.678 -5382.989)" fill="none" stroke="#0073ff" stroke-linecap="round" stroke-linejoin="round" stroke-width="2"/><g transform="translate(24.436 4.868)"><path d="M336.415,5395.676a4.964,4.964,0,1,1-3.67-5.986A4.949,4.949,0,0,1,336.415,5395.676Z" transform="translate(-326.622 -5389.552)" fill="none" stroke="#0073ff" stroke-linecap="round" stroke-linejoin="round" stroke-width="2"/><line x1="1.896" y1="3.092" transform="translate(7.16 9.419)" stroke-width="2" stroke="#0073ff" stroke-linecap="round" stroke-linejoin="round" fill="none"/></g><g transform="translate(45.602 9.43)"><rect width="11.348" height="11.348" rx="4.843" transform="translate(2.646 0) rotate(13.483)" stroke-width="2" stroke="#0073ff" stroke-linecap="round" stroke-linejoin="round" fill="none"/><g transform="translate(4.512 4.512)"><line x1="1.117" y2="4.658" transform="translate(1.771)" stroke-width="2" stroke="#0073ff" stroke-linecap="round" stroke-linejoin="round" fill="none"/><line x2="4.658" y2="1.117" transform="translate(0 1.771)" stroke-width="2" stroke="#0073ff" stroke-linecap="round" stroke-linejoin="round" fill="none"/></g></g><g transform="translate(92.948 21.22)"><circle cx="3.294" cy="3.294" r="3.294" transform="translate(3.585)" fill="none" stroke="#0073ff" stroke-miterlimit="10" stroke-width="2"/><path d="M429,5426.515l.16-.668a2.071,2.071,0,0,0-1.293-2.6l-6.381-1.531a2.072,2.072,0,0,0-2.333,1.734l-.16.668" transform="translate(-418.99 -5414.199)" fill="none" stroke="#0073ff" stroke-miterlimit="10" stroke-width="2"/></g></g></g><path d="M331.974,5558.1c-2.983-12.865-4.072-15.973-7.056-28.838-1.2-5.16-2.407-10.359-4.617-15.173-3.359-7.313-8.866-13.4-13.053-20.272-10.86-17.825-17.925-41.8-18.844-62.649l85.775,20.566,59.964,22.945-9.658,39.012,10.708,40.606" transform="translate(-39.377 -84.17)" fill="#fafbfc" stroke="#0073ff" stroke-miterlimit="10" stroke-width="2"/><path d="M349.7,5615.454" transform="translate(-55.207 -131.765)" fill="#fff" stroke="#0073ff" stroke-miterlimit="10" stroke-width="2"/><path d="M490.174,5607.454" transform="translate(-91.487 -129.699)" fill="#fff" stroke="#0073ff" stroke-miterlimit="10" stroke-width="2"/><path d="M461.8,5519.666c-5.851-20.986-5.639-22.457-10.823-40.711,10.605-10.227,31.3-59.781,31.064-67.23-1.1-35.424-14.009-69.236-20.241-76-9.212-10.007-12.035-17.644-27.469-32.13-5.183-4.865-14.064-7.986-21.164-6.586-10.349,2.04-14.5,9.566-7.509,25.333,4.051,9.138,14.22,19.63,19.143,26.134,1.824,3.714,5.157,26.02,5.171,37.6-23.508,10.835-37.518,37.458-39,76.974" transform="translate(-65.866 -49.433)" fill="#fafbfc" stroke="#0073ff" stroke-miterlimit="10" stroke-width="2"/><path d="M317.335,5174.528c-.923-3.135-5.672-6.675-8.93-6.413a10.877,10.877,0,0,0-7.936,5.157,21.1,21.1,0,0,0-2.9,9.269c-.823,7.639,2.341,13.8,9.512,34.762Z" transform="translate(-41.71 -16.228)" fill="#fff" stroke="#0073ff" stroke-miterlimit="10" stroke-width="2"/><path d="M296.2,5245.344c-7.207-5.452-15.521.679-18.543,5.845a25.29,25.29,0,0,0-3.179,17.98,19.436,19.436,0,0,0,11.4,13.869,9.779,9.779,0,0,0,4.325.78,10.148,10.148,0,0,0,4.229-1.506,20.062,20.062,0,0,0,9.45-19.839C303.325,5258.844,303.583,5250.93,296.2,5245.344Z" transform="translate(-35.646 -35.628)" fill="#fff" stroke="#0073ff" stroke-miterlimit="10" stroke-width="2"/><path d="M271.547,5313.442c-4.109,1.168-7.486,1.9-10.61,5.195-3.413,3.6-4.154,9.089-3.23,13.963s3.281,9.336,5.421,13.813c2.042,4.275,2.986,8.328,4.15,12.842a26.3,26.3,0,0,0,4.476,9.706c3.655,4.445,14.3,5.951,17-.372a12.675,12.675,0,0,0,.7-5.3c-.294-12.483-3.215-25.535-9.958-36.043l.341-1.774c0-.662,3.129-13.716,3.129-13.716S274.9,5312.493,271.547,5313.442Z" transform="translate(-31.354 -53.329)" fill="#fff" stroke="#0073ff" stroke-miterlimit="10" stroke-width="2"/><path d="M528.939,5409.878c4.025,10.453,4.9,21.954,3.622,33.082s-4.643,21.93-8.861,32.307" transform="translate(-100.146 -78.672)" fill="none" stroke="#0073ff" stroke-miterlimit="10" stroke-width="2"/><path d="M253.5,5226.712c-.877-16.07,6.908-31.413,18.7-37.672-3.356-14.169-3.538-27.83,8.824-41.337" transform="translate(-30.344 -10.96)" fill="none" stroke="#0073ff" stroke-miterlimit="10" stroke-width="2"/><path d="M561.964,5441.629a86.03,86.03,0,0,0-1.481-51.227" transform="translate(-109.646 -73.641)" fill="none" stroke="#0073ff" stroke-miterlimit="10" stroke-width="2"/><path d="M1919.757-12339.844v4.349l-4.127-.442" transform="translate(-1643.416 17439.883)" fill="none" stroke="#0073ff" stroke-linecap="round" stroke-linejoin="round" stroke-width="2"/></g><g transform="translate(1227.182 1791.776)"><g transform="matrix(0.978, 0.208, -0.208, 0.978, 68.699, 7)"><path d="M15.951,15.14a5.294,5.294,0,0,1,5.278-5.278h2.328A5.059,5.059,0,0,1,24.692,7.3a4.722,4.722,0,0,0-2.767-.9h-.036a4.353,4.353,0,0,0-3.783-3.175A6.5,6.5,0,0,0,5.994,6.406H4.76a4.76,4.76,0,0,0,0,9.52H16.017A5.189,5.189,0,0,1,15.951,15.14Z" fill="none" stroke="#0073ff" stroke-linecap="round" stroke-linejoin="round" stroke-width="2"/><path d="M37.5,13.587a5.294,5.294,0,0,1-5.279,5.278H5.278a5.278,5.278,0,1,1,0-10.556H7.607A5.026,5.026,0,0,1,13.39,3.994a7.2,7.2,0,0,1,13.268.893,4.115,4.115,0,0,1,3.927,3.422h1.633A5.294,5.294,0,0,1,37.5,13.587Z" transform="translate(15.951 1.553)" fill="none" stroke="#0073ff" stroke-linecap="round" stroke-linejoin="round" stroke-width="2"/></g><path d="M13.923,14.511,8.071,0H5.83L0,14.511H2.067l1.284-3.22h7.223l1.284,3.22Zm-3.894-4.83H3.872l3.089-7.81Zm16.882,4.83V4H24.735l-3.176,7.788L18.339,4H16.186V14.511h1.632V6.265l3.437,8.245h.609l3.416-8.245v8.245Zm3.111,4.112a5.3,5.3,0,0,0,1.2.152,3.124,3.124,0,0,0,3.089-2.132L39.572,4H37.788l-3.481,8.615L30.8,4H29.043l4.394,10.616-.7,1.588a1.511,1.511,0,0,1-1.566,1.109,2.5,2.5,0,0,1-.892-.174Zm16.86-3.851c2.763,0,4.677-2.132,4.677-5.526,0-3.416-1.914-5.5-4.677-5.5a4.392,4.392,0,0,0-3.546,1.827V4H41.7V18.513h1.632V12.922A4.306,4.306,0,0,0,46.882,14.772Zm-.413-1.458a3.9,3.9,0,0,1-3.133-1.7V6.875A3.885,3.885,0,0,1,46.468,5.2c2.11,0,3.372,1.719,3.372,4.046S48.579,13.314,46.468,13.314Zm12.748,1.458a4.5,4.5,0,0,0,3.851-1.827l-1.088-1A3.168,3.168,0,0,1,59.3,13.314c-2.241,0-3.633-1.74-3.633-4.068S57.063,5.2,59.3,5.2A3.116,3.116,0,0,1,61.98,6.57l1.088-1a4.5,4.5,0,0,0-3.851-1.827,5.191,5.191,0,0,0-5.243,5.5A5.2,5.2,0,0,0,59.217,14.772Zm15.816-.261L70.355,8.767,75.011,4H72.944L67.418,9.594V4H65.787V14.511h1.632v-3l1.74-1.719,3.785,4.721Zm3.938,0,5.548-8.18v8.18h1.632V4H84.54l-5.5,8.028V4H77.4V14.511Zm15.62.261a5.708,5.708,0,0,0,4.177-1.61L97.984,12.1a4.593,4.593,0,0,1-3.241,1.327A3.7,3.7,0,0,1,90.957,9.79h8.506V9.376c0-3.154-1.871-5.635-5.047-5.635a5.254,5.254,0,0,0-5.178,5.5A5.21,5.21,0,0,0,94.59,14.772Zm3.263-6.178h-6.9a3.506,3.506,0,0,1,3.437-3.5A3.406,3.406,0,0,1,97.854,8.593ZM10.682,34.453,6,28.709l4.656-4.764H8.593L3.067,29.536V23.945H1.436V34.453H3.067v-3l1.74-1.719,3.785,4.721Zm6.9.261c3.2,0,5.2-2.48,5.2-5.526s-2-5.5-5.2-5.5-5.2,2.458-5.2,5.5S14.38,34.714,17.578,34.714Zm0-1.458c-2.241,0-3.5-1.914-3.5-4.068,0-2.132,1.262-4.046,3.5-4.046s3.481,1.914,3.481,4.046C21.059,31.342,19.819,33.256,17.578,33.256Zm11.835,1.2V25.381H32.48V23.945H24.735v1.436h3.046v9.072Zm7.2,0,5.548-8.18v8.18h1.632V23.945h-1.61l-5.5,8.028V23.945H35.047V34.453Zm20.123,0-4.677-5.743,4.656-4.764H54.648l-5.526,5.591V23.945H47.491V34.453h1.632v-3l1.74-1.719,3.785,4.721Zm3.938,0,5.547-8.18v8.18h1.632V23.945h-1.61l-5.5,8.028V23.945H59.108V34.453Z" transform="translate(18.058 24.203) rotate(13)" fill="#0073ff"/><g transform="translate(0 83.185)"><g transform="matrix(0.978, 0.208, -0.208, 0.978, 30.397, 9.935)"><path d="M8.891,4.445A4.446,4.446,0,1,1,4.446,0,4.433,4.433,0,0,1,8.891,4.445Z" transform="translate(1.309 2.557)" fill="none" stroke="#0073ff" stroke-linecap="round" stroke-linejoin="round" stroke-width="2"/><path d="M2.088,4.151,3.681,0,0,3.083" transform="translate(7.829 0)" fill="none" stroke="#0073ff" stroke-linecap="round" stroke-linejoin="round" stroke-width="2"/><path d="M1.593,4.151,0,0,3.681,3.083" fill="none" stroke="#0073ff" stroke-linecap="round" stroke-linejoin="round" stroke-width="2"/><path d="M0,10.894s4.392,2.212,6.686-.924C9.348,6.332,3.864,3.53,6.727,0" transform="translate(18.076 9.969)" fill="none" stroke="#0073ff" stroke-linecap="round" stroke-linejoin="round" stroke-width="2"/><path d="M2.095,0V7.9A1.9,1.9,0,0,0,0,9.718c0,1.5.541,1.835,2.2,1.835H8.208" transform="translate(1.491 11.942)" fill="none" stroke="#0073ff" stroke-linecap="round" stroke-linejoin="round" stroke-width="2"/><path d="M0,0C2.85,0,9.264,6.168,9,10.8" transform="translate(9.082 9.951)" fill="none" stroke="#0073ff" stroke-linecap="round" stroke-linejoin="round" stroke-width="2"/><path d="M2.676,0A2.942,2.942,0,0,0,0,2.852v.936A2.712,2.712,0,0,0,3.013,6.628H6.669c2.36,0,2.927-.448,2.927-2.685" transform="translate(8.48 17.303)" fill="none" stroke="#0073ff" stroke-linecap="round" stroke-linejoin="round" stroke-width="2"/></g><path d="M7.193,23.354S-8.991,21.232,7.193,0C7.193,0,23.469,20.123,7.193,23.354Zm3.6-9.22a2.834,2.834,0,0,1-2.836,2.831H7.193m-3.264-.546a2.576,2.576,0,0,0,2.578,2.573h.685m-2.8-8.767a2.8,2.8,0,0,0,2.8,2.8m0,14.583V6.185" transform="translate(6.209 0) rotate(13)" fill="none" stroke="#0073ff" stroke-linecap="round" stroke-linejoin="round" stroke-width="2"/><path d="M2031.052-12143.327l1.139-5.256" transform="translate(-1966.688 12184.346)" fill="none" stroke="#0073ff" stroke-linecap="round" stroke-width="2"/><path d="M2031.052-12143.561l.688-3.208" transform="translate(-1962.174 12185.707)" fill="none" stroke="#0073ff" stroke-linecap="round" stroke-width="2"/><path d="M2031.052-12143.561l.688-3.208" transform="translate(-1971.202 12183.45)" fill="none" stroke="#0073ff" stroke-linecap="round" stroke-width="2"/></g></g><path d="M1922.06-12299.665l116.795,28.289,7.144,1.73h1.377" transform="translate(-675 14076)" fill="none" stroke="#0073ff" stroke-width="2"/><path d="M1922.06-12299.665l98.988,24.173" transform="translate(-705 14199)" fill="none" stroke="#0073ff" stroke-width="2"/></g></svg>