<svg xmlns="http://www.w3.org/2000/svg" width="367.919" height="384.65"><defs><linearGradient id="a" x1="-63.703" y1="-40.186" x2="-63.688" y2="-40.158" gradientUnits="objectBoundingBox"><stop offset="0" stop-color="#ffa843"/><stop offset="1" stop-color="#c800b3"/></linearGradient></defs><g transform="translate(340.738 116.844)" fill="none" stroke="#0073ff" stroke-width="2"><circle cx="7.5" cy="7.5" r="7.5" stroke="none"/><circle cx="7.5" cy="7.5" r="6.5"/></g><path d="M348.723 55.97c2.491-2.491 5.319.337 7.81-2.154s-.335-5.321 2.157-7.814 5.322.336 7.814-2.157m-328.692 40l1.189 1.612m3.743 5.075l1.189 1.612m-7.21-1.089l1.612-1.189m5.075-3.743l1.612-1.189" fill="none" stroke="#0073ff" stroke-linecap="round" stroke-linejoin="round" stroke-width="2"/><path d="M76.255 86.264c-3.977 34.511-40.918 30.15-58.028 60.669-19.883 37.917-23.12 66.587-11.56 113.29 12.947 57.338 98.362 121.808 136.859 96.961 24.324-15.7 50.312-12.043 79.026-8.354 17.892 2.3 34.732 10.174 52.654 12.223a82.285 82.285 0 0091.63-81.572c.048-22.321-8.962-43.718-20.164-63.024s-42.476-37.293-52.821-57.071c-11.954-22.855-.568-50.84-28.407-73.122-18.019-14.422-26.447-11.716-48.885-17.124-14.173-3.417-57.937-57.95-84.295-52.268-33.965 7.319-52.732 40.951-56.009 69.392z" fill="#cce3ff"/><g transform="translate(104.533 6.229)"><rect width="137.22" height="244.235" rx="16" transform="rotate(13.483 28.473 240.873)" fill="#fafbfc" stroke="#0073ff" stroke-miterlimit="10" stroke-width="2"/><path d="M171.745 31.963l-13.839-3.318-1.308 5.455a4.316 4.316 0 01-5.2 3.191l-62.1-14.892a4.314 4.314 0 01-3.19-5.2l1.308-5.455-13.847-3.32A13.833 13.833 0 0056.91 18.639L8.42 220.877a13.833 13.833 0 0010.219 16.655l98.173 23.538a13.832 13.832 0 0016.659-10.214l48.49-202.238a13.833 13.833 0 00-10.216-16.655z" fill="#fff" stroke="#0073ff" stroke-miterlimit="10" stroke-width="2"/><rect width="34.089" height="5.178" rx="2.589" transform="rotate(13.483 -959.886 345.202)" fill="none" stroke="#0073ff" stroke-miterlimit="10" stroke-width="2"/><path d="M348.531 5149.249a6.633 6.633 0 115.011-.8 6.629 6.629 0 01-5.011.8zm3-12.491a6.215 6.215 0 104.6 7.493 6.216 6.216 0 00-4.605-7.493z" transform="translate(-284.986 -5113.249)" fill="url(#a)"/><text transform="rotate(13.483 -90.814 348.98)" font-size="4" font-family="ProximaNova-Bold, Proxima Nova" font-weight="700" style="isolation:isolate"><tspan x="0" y="0">Proamursk</tspan></text><text transform="rotate(13.483 -114.259 346.21)" fill="#0073ff" font-size="3" font-family="PTSansPro-Regular, PT Sans Pro" style="isolation:isolate"><tspan x="0" y="0">в твоем городе</tspan></text><text transform="rotate(13.483 -792.522 184.282)" fill="#0073ff" font-size="3" font-family="PTSansPro-Bold, PT Sans Pro" font-weight="700" style="isolation:isolate"><tspan x="0" y="0">«Нравится»</tspan></text><text transform="rotate(13.483 -806.534 292.412)" fill="#0073ff" font-size="3" font-family="PTSansPro-Regular, PT Sans Pro" style="isolation:isolate"><tspan x="0" y="0">вам, вашим друзьям и друзьям ваших друзей</tspan></text><path d="M41.074 180.78c-1.187 4.951-7.8 5.727-7.8 5.727s-5.545-3.692-4.358-8.643a3.257 3.257 0 016.378.23 3.254 3.254 0 015.784 2.686z" fill="#e1000e"/><path d="M50.494 181.343a3.9 3.9 0 013.162 6.167 3.3 3.3 0 00-.424 2.036 4 4 0 00-1.7-.5 2.106 2.106 0 00-.359.031 3.824 3.824 0 01-.69.062 3.9 3.9 0 01-.679-7.733 3.985 3.985 0 01.691-.062m0-1.483a5.453 5.453 0 00-.952.084 5.381 5.381 0 00.94 10.677 5.451 5.451 0 00.951-.084.687.687 0 01.1-.008c.725 0 2.283 1.148 2.938 1.148a.312.312 0 00.2-.058c.3-.217-.177-2.728.194-3.243a5.382 5.382 0 00-4.368-8.516z" fill="#0073ff"/><g transform="translate(59.664 24.127)"><circle cx="5.426" cy="5.426" r="5.426" fill="#0073ff"/><path d="M4.919 7.461l-.412-.874A3.628 3.628 0 001.45 4.822l.109-1.59a5.349 5.349 0 013.927 1.971 5.387 5.387 0 014.38.022l-.63 1.462a3.728 3.728 0 00-3.539.2z" fill="#fff"/></g><path d="M103.912 226.45c-1.1 4.576-7.3 5.645-7.3 5.645s-5.042-3.764-3.945-8.34a3.011 3.011 0 015.9.212 3.008 3.008 0 015.346 2.483z" fill="none" stroke="#0073ff" stroke-miterlimit="10" stroke-width="2"/><path d="M33.812 211.533l-3.508-4.935a1.317 1.317 0 00-1.769-.423l-5.363 2.807a.658.658 0 00-.309.417l-1.318 5.5 3.842.921 1.022-4.265a.659.659 0 01.794-.487l2.07.5a.66.66 0 01.487.794l-1.023 4.264 3.842.922 1.318-5.5a.659.659 0 00-.085-.515zm21.962 5.454a4.964 4.964 0 11-3.67-5.986 4.949 4.949 0 013.67 5.986zm-.737 6.387l-1.896-3.092" fill="none" stroke="#0073ff" stroke-linecap="round" stroke-linejoin="round" stroke-width="2"/><g transform="translate(67.147 215.425)" stroke-width="2" stroke="#0073ff" stroke-linecap="round" stroke-linejoin="round" fill="none"><rect width="11.348" height="11.348" rx="4.843" transform="rotate(13.483 1.323 11.192)"/><path d="M7.4 4.512L6.283 9.17M4.512 6.283L9.17 7.4"/></g><g transform="translate(114.493 227.215)" fill="none" stroke="#0073ff" stroke-miterlimit="10" stroke-width="2"><circle cx="3.294" cy="3.294" r="3.294" transform="translate(3.585)"/><path d="M10.01 12.316l.16-.668a2.071 2.071 0 00-1.293-2.6L2.496 7.517A2.072 2.072 0 00.163 9.251l-.16.668"/></g></g><path d="M165.736 374.891c-2.983-12.865-4.072-15.973-7.056-28.838-1.2-5.16-2.407-10.359-4.617-15.173-3.359-7.313-8.866-13.4-13.053-20.272-10.86-17.825-17.925-41.8-18.844-62.649l85.775 20.566 59.964 22.945-9.658 39.012 10.708 40.606" fill="#fafbfc" stroke="#0073ff" stroke-miterlimit="10" stroke-width="2"/><path d="M269.073 371.194c-5.851-20.986-5.639-22.457-10.823-40.711 10.605-10.227 31.3-59.781 31.064-67.23-1.1-35.424-14.009-69.236-20.241-76-9.212-10.007-12.035-17.644-27.469-32.13-5.183-4.865-14.064-7.986-21.164-6.586-10.349 2.04-14.5 9.566-7.509 25.333 4.051 9.138 14.22 19.63 19.143 26.134 1.824 3.714 5.157 26.02 5.171 37.6-23.508 10.835-37.518 37.458-39 76.974" fill="#fafbfc" stroke="#0073ff" stroke-miterlimit="10" stroke-width="2"/><path d="M148.764 59.261c-.923-3.135-5.672-6.675-8.93-6.413a10.877 10.877 0 00-7.936 5.157 21.1 21.1 0 00-2.9 9.269c-.823 7.639 2.341 13.8 9.512 34.762zm-15.071 51.416c-7.207-5.452-15.521.679-18.543 5.845a25.29 25.29 0 00-3.179 17.98 19.436 19.436 0 0011.4 13.869 9.779 9.779 0 004.325.78 10.148 10.148 0 004.229-1.506 20.062 20.062 0 009.45-19.839c-.557-3.629-.299-11.543-7.682-17.129zm-20.361 50.397c-4.109 1.168-7.486 1.9-10.61 5.195-3.413 3.6-4.154 9.089-3.23 13.963s3.281 9.336 5.421 13.813c2.042 4.275 2.986 8.328 4.15 12.842a26.3 26.3 0 004.476 9.706c3.655 4.445 14.3 5.951 17-.372a12.675 12.675 0 00.7-5.3c-.294-12.483-3.215-25.535-9.958-36.043l.341-1.774c0-.662 3.129-13.716 3.129-13.716s-8.066.737-11.419 1.686z" fill="#fff" stroke="#0073ff" stroke-miterlimit="10" stroke-width="2"/><path d="M301.932 232.167c4.025 10.453 4.9 21.954 3.622 33.082s-4.643 21.93-8.861 32.307M96.295 116.713c-.877-16.07 6.908-31.413 18.7-37.672-3.356-14.169-3.538-27.83 8.824-41.337m201.638 231.245a86.03 86.03 0 00-1.481-51.227" fill="none" stroke="#0073ff" stroke-miterlimit="10" stroke-width="2"/><path d="M149.48 1v4.349l-4.127-.442" fill="none" stroke="#0073ff" stroke-linecap="round" stroke-linejoin="round" stroke-width="2"/><g fill="none" stroke="#0073ff" stroke-linecap="round" stroke-linejoin="round" stroke-width="2"><path d="M218.055 85.745a5.293 5.293 0 016.26-4.064l2.276.484a5.058 5.058 0 011.643-2.27 4.721 4.721 0 00-2.519-1.455l-.035-.008a4.352 4.352 0 00-3.04-3.892 6.5 6.5 0 00-12.506.592l-1.207-.257a4.76 4.76 0 00-1.98 9.31l11.009 2.342a5.188 5.188 0 01.099-.782z"/><path d="M254.73 93.545a5.293 5.293 0 01-6.26 4.064l-26.351-5.605a5.277 5.277 0 112.196-10.323l2.277.484a5.025 5.025 0 016.554-3.017 7.2 7.2 0 0112.79 3.633 4.114 4.114 0 013.129 4.164l1.597.34a5.293 5.293 0 014.068 6.26z"/></g><path d="M165.265 102.094l-2.438-15.455-2.183-.505-8.945 12.828 2.014.465 1.975-2.849 7.038 1.625.527 3.427zm-2.708-5.582l-5.999-1.385 4.767-6.915zm15.363 8.504l2.364-10.242-2.12-.49-4.846 6.875-1.386-8.313-2.098-.484-2.364 10.241 1.59.367 1.855-8.034 1.494 8.806.594.137 5.183-7.265-1.855 8.034zm2.106 4.706a5.3 5.3 0 001.135.418 3.124 3.124 0 003.49-1.382l7.97-11.136-1.738-.401-5.33 7.611-1.48-9.183-1.711-.395 1.893 11.332-1.04 1.39a1.511 1.511 0 01-1.774.728 2.5 2.5 0 01-.83-.37zm17.294.04c2.693.622 5.037-1.025 5.8-4.332.77-3.328-.627-5.79-3.32-6.41a4.392 4.392 0 00-3.865.982l.353-1.533-1.594-.368-3.264 14.141 1.59.367 1.258-5.448a4.306 4.306 0 003.042 2.602zm-.074-1.513a3.9 3.9 0 01-2.67-2.361l1.066-4.618a3.885 3.885 0 013.428-.927c2.056.474 2.9 2.433 2.376 4.7s-2.144 3.68-4.201 3.206zm12.093 4.288a4.5 4.5 0 004.164-.914l-.836-1.219a3.168 3.168 0 01-2.919.731c-2.183-.504-3.148-2.512-2.625-4.78s2.27-3.629 4.45-3.126a3.116 3.116 0 012.304 1.938l1.285-.73a4.5 4.5 0 00-3.342-2.646 5.191 5.191 0 00-6.346 4.18 5.2 5.2 0 003.865 6.566zm15.47 3.304l-3.266-6.65 5.609-3.597-2.014-.465-6.643 4.208 1.258-5.45-1.589-.368-2.364 10.242 1.59.367.675-2.923 2.082-1.284 2.626 5.452zm3.837.886l7.246-6.723-1.84 7.97 1.59.368 2.364-10.242-1.57-.362-7.165 6.585 1.806-7.822-1.598-.37-2.364 10.242zm15.16 3.768a5.708 5.708 0 004.433-.63l-.525-1.21a4.593 4.593 0 01-3.457.563 3.7 3.7 0 01-2.87-4.395l8.287 1.913.094-.403c.71-3.073-.556-5.911-3.65-6.626a5.254 5.254 0 00-6.283 4.194 5.21 5.21 0 003.97 6.594zm4.57-5.286l-6.723-1.552a3.506 3.506 0 014.136-2.637 3.406 3.406 0 012.587 4.188zm-90.755 5.587l-3.27-6.65 5.608-3.595-2.01-.464-6.642 4.205 1.258-5.448-1.59-.367-2.363 10.239 1.59.367.674-2.923 2.082-1.284 2.626 5.452zm6.664 1.806c3.118.72 5.625-1.246 6.31-4.214s-.711-5.81-3.83-6.529-5.619 1.225-6.303 4.19.703 5.833 3.82 6.552zm.328-1.42c-2.183-.504-2.98-2.653-2.495-4.751.48-2.078 2.14-3.659 4.32-3.155s2.962 2.648 2.482 4.725c-.488 2.098-2.127 3.684-4.31 3.18zm11.262 3.831l2.042-8.842 2.984.689.323-1.4-7.546-1.742-.323 1.4 2.967.685-2.04 8.84zm7.016 1.62l7.245-6.722-1.84 7.97 1.59.367 2.365-10.242-1.569-.362-7.165 6.585 1.806-7.822-1.598-.369-2.363 10.239zm19.607 4.527l-3.265-6.648 5.608-3.595-2.018-.466-6.642 4.205 1.259-5.452-1.59-.367-2.363 10.24 1.59.366.675-2.923 2.082-1.283 2.626 5.451zm3.837.885l7.245-6.722-1.84 7.97 1.59.367 2.364-10.241-1.568-.362-7.165 6.585 1.806-7.823-1.597-.368-2.364 10.238z" fill="#0073ff"/><g fill="none" stroke="#0073ff" stroke-linecap="round" stroke-width="2"><g stroke-linejoin="round"><path d="M175.821 162.71a4.445 4.445 0 11-3.422-5.272 4.432 4.432 0 013.422 5.272z"/><path d="M176.137 159.862l2.422-3.728-4.242 2.25m-6.32-.253l-.695-4.391 2.959 3.78m10.379 20.384s3.836 3.077 6.732.487c3.36-3.004-1.42-6.885 2.114-9.742m-21.161-2.484l-1.643 7.726a1.9 1.9 0 00-2.427 1.343c-.312 1.467.147 1.907 1.77 2.252l5.876 1.25m2.213-13.375c2.788.593 7.778 7.96 6.556 12.435"/><path d="M174.614 172.983a2.942 2.942 0 00-3.21 2.232l-.195.916a2.712 2.712 0 002.356 3.404l3.575.76c2.308.491 2.956.171 3.421-2.017"/></g><path d="M144.87 168.179s-15.293-5.709 5.253-22.756c0 0 11.332 23.269-5.254 22.756zm5.58-8.174a2.834 2.834 0 01-3.4 2.12l-.744-.172m-3.057-1.266a2.576 2.576 0 001.933 3.087l.667.154m-.756-9.172a2.8 2.8 0 002.099 3.358m-3.28 14.21l4.818-20.875" stroke-linejoin="round"/><path d="M201.269 184.824l1.139-5.256m3.375 6.383l.688-3.208m-9.716.951l.688-3.208"/></g><path d="M156.783 45.179l116.795 28.289 7.144 1.73h1.377m-155.316 92.981l98.988 24.173" fill="none" stroke="#0073ff" stroke-width="2"/></svg>