<svg xmlns="http://www.w3.org/2000/svg" width="244.744" height="310.641"><g transform="translate(-2412.317 113.785)"><path d="M2657.06 92.422c.181 97.349-109.933 129.5-190.812 84.325-39.259-21.929-55.687-49.218-53.784-103.813 2.024-58.063 37.754-82.8 58.38-95.935s44.322-23.029 69.1-23.52c60.482-1.201 116.936 41.594 117.116 138.943z" fill="#cce3ff"/><path d="M2492.563-96.947l1.842 3.939-3.926 1.347" fill="none" stroke="#0073ff" stroke-linecap="round" stroke-linejoin="round" stroke-width="2"/><path d="M2531.73-.788h-15.767v-75.971h15.767z" fill="#fff" stroke="#0073ff" stroke-linecap="round" stroke-linejoin="round" stroke-width="2"/><path d="M2515.964-60.111c6.011 4.8 10.014-8.042 15.724-4.021m-15.724 18.656c6.011 4.8 10.014-8.042 15.724-4.021m-15.724 18.656c6.011 4.8 10.014-8.042 15.724-4.021" fill="none" stroke="#0073ff" stroke-linecap="round" stroke-linejoin="round" stroke-width="2"/><path stroke-width="2" stroke="#0073ff" stroke-linecap="round" stroke-linejoin="round" fill="#fff" d="M2523.847-86.105v8.849"/><path d="M2532.5-94.145c0-4.151-5.074-5.74-7.787-18-7.149 4.77-9.511 13.846-9.511 18s3.872 7.515 8.649 7.515 8.649-3.364 8.649-7.515zm-5.041 75.614c-1.692-1.378-10.333-6.8-12.383 5.212-4.39 25.718-23.033 22-40.419 33.678-12.562 8.438-32.785 28.109-28.763 58.364.128.17 2.212 2.283 2.355 2.451h0a2.729 2.729 0 00.737 2.747c17.439 16.681 121.952 24.945 156.552-8.307a2.783 2.783 0 00.8-1.454c8.367-41.475-49.986-69.153-78.879-92.691z" fill="#fff" stroke="#0073ff" stroke-miterlimit="10" stroke-width="2"/><path d="M2447.839 82.649c12.669-49.06 96.452-23.249 69.829-99.988-.892-2.572 2.511-4.524 4.47-2.634 9.445 9.107 29.025 32.3 30.243 47.142 2.179 26.553-12.328 32.146-10.555 47.5 2.182 18.886 13.472 23.137 13.472 23.137" fill="none" stroke="#0073ff" stroke-miterlimit="10" stroke-width="2"/><path d="M2462.694 163.438c-12.164-37.355-19.957-53.721-31.461-92.311 12.212-3.177 17.7 1.978 23.1 7.263 5.639 5.523 16.722-.7 24.313 1.182 7.645 1.9 14.262 9.38 22.04 10.331 7.806.954 16.031-4.715 23.881-4.715s16.075 5.669 23.88 4.715c7.779-.951 14.4-8.432 22.041-10.331 7.591-1.885 16.94 1.638 24.312-1.182 7.29-2.788 16.208-12.12 24.28-8.444-12.66 38.565-18.378 52.248-32.467 92.267-31.507 13.302-87.513 13.477-123.919 1.225zm3.325-70.564l13.127 62.133" fill="#fff" stroke="#0073ff" stroke-miterlimit="10" stroke-width="2"/><path fill="none" stroke="#0073ff" stroke-miterlimit="10" stroke-width="2" d="M2539.714 101.1v59.518m-34.839-59.518l6.301 57.922m63.613-61.215l-8.656 61.215"/><path stroke-width="2" stroke="#0073ff" stroke-linecap="round" stroke-linejoin="round" fill="none" d="M2504.125 19.681l7.8-4.915m-.749 44.425l7.8 4.994m53.649-28.604l-4.328 4.328"/><circle cx="3" cy="3" r="3" transform="translate(2531.688 33.58)" fill="none" stroke="#0073ff" stroke-linecap="round" stroke-linejoin="round" stroke-width="2"/><circle cx="4.249" cy="4.249" r="4.249" transform="translate(2574.789 61.689)" fill="none" stroke="#0073ff" stroke-linecap="round" stroke-linejoin="round" stroke-width="2"/><circle cx="2.267" cy="2.267" r="2.267" transform="translate(2488.083 31.313)" fill="none" stroke="#0073ff" stroke-linecap="round" stroke-linejoin="round" stroke-width="2"/><path stroke-width="2" stroke="#0073ff" stroke-linecap="round" stroke-linejoin="round" fill="none" d="M2645.089 5.463l1.189 1.612m3.743 5.075l1.189 1.612m-7.21-1.089l1.612-1.189m5.075-3.743l1.612-1.189M2614.282 7.6l-4.345-.159.592-4.108M2459.559-11.6c-2.111-2.82 1.091-5.217-1.02-8.037s-5.314-.426-7.428-3.247 1.09-5.22-1.023-8.042m162.022-2.823c.5-3.487 4.459-2.918 4.961-6.4s-3.457-4.058-2.956-7.548 4.462-2.92 4.963-6.409m-43.865 235.383a178.217 178.217 0 0026.425-7.987c4.4-7.793 9.964-23.035 12.639-33.758"/><circle cx="4.471" cy="4.471" r="4.471" transform="translate(2569.269 -27.473)" fill="#fff" stroke="#0073ff" stroke-width="2"/><path d="M2494.74-24.291c2.777 6.715-2.058 19.377-6.588 24.894-8.065 9.82-22.113 12.577-30.943 21.83" fill="none" stroke="#0073ff" stroke-linecap="round" stroke-linejoin="round" stroke-width="2"/></g></svg>