<svg xmlns="http://www.w3.org/2000/svg" width="493.512" height="325.935" viewBox="0 0 493.512 325.935"><g transform="translate(-377.46 -1419.993)"><g transform="translate(378 1421)"><path d="M6595.815,2434.157c-40.637,38.292-145.753,50.746-237.331,50.746s-154.968-24.177-154.968-24.177c-21.434-6.835-50.8-20.318-60.955-45.325-14.963-30.781-6.317-78.218,30.655-99.03,23.88-13.433,60.793-13.448,88.143-11.847s51.522,7.92,78.252,1.912c31.159-7,57.929-26.306,87.208-39.046s65.983-17.944,91.164,1.693c10.654,8.321,17.964,20.153,27.669,29.558,16.363,15.849,43.52,27.044,62.665,39.395C6641.419,2359.388,6633.326,2397.427,6595.815,2434.157Z" transform="translate(-6136.133 -2159.975)" fill="#cce3ff"/><g transform="translate(37.084)"><g transform="translate(65.473 70.589)"><rect width="275.854" height="186.689" rx="16" stroke-width="2" stroke="#0073ff" stroke-linecap="round" stroke-linejoin="round" fill="#fff"/><g transform="translate(81.735 186.689)"><path d="M6420.264,2466.828h-52.242l4.179-36.4h43.887Z" transform="translate(-6337.949 -2430.431)" fill="#fff" stroke="#0073ff" stroke-linecap="round" stroke-linejoin="round" stroke-width="2"/><path d="M6341.673,2469.8h100.019a6.182,6.182,0,0,1,6.182,6.182h0a6.182,6.182,0,0,1-6.182,6.182H6341.673a6.182,6.182,0,0,1-6.183-6.182h0A6.182,6.182,0,0,1,6341.673,2469.8Z" transform="translate(-6335.491 -2433.406)" fill="#fff" stroke="#0073ff" stroke-linecap="round" stroke-linejoin="round" stroke-width="2"/></g><line x2="275.854" transform="translate(0 162.053)" stroke-width="2" stroke="#0073ff" stroke-linecap="round" stroke-linejoin="round" fill="none"/><rect width="92.39" height="57.643" rx="8" transform="translate(40.199 28.163)" stroke-width="2" stroke="#0073ff" stroke-linecap="round" stroke-linejoin="round" fill="#cce3ff"/><g transform="translate(138.425 28.163)"><rect width="43.142" height="57.643" rx="8" stroke-width="2" stroke="#0073ff" stroke-linecap="round" stroke-linejoin="round" fill="none"/><path d="M6404.211,2258.946h28.351a7.4,7.4,0,0,1,7.4,7.4v30.315h-43.142v-30.315A7.4,7.4,0,0,1,6404.211,2258.946Z" transform="translate(-6396.815 -2258.945)" fill="#cce3ff" stroke="#0073ff" stroke-linecap="round" stroke-linejoin="round" stroke-width="2"/><g transform="translate(4.085 41.616)"><line x2="26.262" fill="none" stroke="#0073ff" stroke-linecap="round" stroke-linejoin="round" stroke-width="2"/><line x2="21.1" transform="translate(0 3.098)" stroke-width="2" stroke="#0073ff" stroke-linecap="round" stroke-linejoin="round" fill="none"/><line x2="21.1" transform="translate(0 6.195)" stroke-width="2" stroke="#0073ff" stroke-linecap="round" stroke-linejoin="round" fill="none"/></g></g><g transform="translate(187.403 28.163)"><rect width="43.142" height="57.643" rx="8" stroke-width="2" stroke="#0073ff" stroke-linecap="round" stroke-linejoin="round" fill="none"/><path d="M6457.193,2258.946h28.351a7.4,7.4,0,0,1,7.4,7.4v30.315H6449.8v-30.315A7.4,7.4,0,0,1,6457.193,2258.946Z" transform="translate(-6449.797 -2258.945)" fill="#cce3ff" stroke="#0073ff" stroke-linecap="round" stroke-linejoin="round" stroke-width="2"/><g transform="translate(4.085 41.616)"><line x2="26.262" fill="none" stroke="#0073ff" stroke-linecap="round" stroke-linejoin="round" stroke-width="2"/><line x2="21.1" transform="translate(0 3.098)" stroke-width="2" stroke="#0073ff" stroke-linecap="round" stroke-linejoin="round" fill="none"/><line x2="21.1" transform="translate(0 6.195)" stroke-width="2" stroke="#0073ff" stroke-linecap="round" stroke-linejoin="round" fill="none"/></g></g><g transform="translate(138.425 90.247)"><rect width="43.142" height="57.643" rx="8" transform="translate(0 0)" stroke-width="2" stroke="#0073ff" stroke-linecap="round" stroke-linejoin="round" fill="none"/><path d="M6404.211,2326.1h28.351a7.4,7.4,0,0,1,7.4,7.4v30.315h-43.142V2333.5A7.4,7.4,0,0,1,6404.211,2326.1Z" transform="translate(-6396.815 -2326.105)" fill="#cce3ff" stroke="#0073ff" stroke-linecap="round" stroke-linejoin="round" stroke-width="2"/><g transform="translate(4.085 41.616)"><line x2="26.262" fill="none" stroke="#0073ff" stroke-linecap="round" stroke-linejoin="round" stroke-width="2"/><line x2="21.1" transform="translate(0 3.098)" stroke-width="2" stroke="#0073ff" stroke-linecap="round" stroke-linejoin="round" fill="none"/><line x2="21.1" transform="translate(0 6.195)" stroke-width="2" stroke="#0073ff" stroke-linecap="round" stroke-linejoin="round" fill="none"/></g></g><g transform="translate(89.447 90.248)"><rect width="43.142" height="57.643" rx="8" stroke-width="2" stroke="#0073ff" stroke-linecap="round" stroke-linejoin="round" fill="#cce3ff"/><g transform="translate(4.085 41.616)"><line x2="26.262" fill="none" stroke="#0073ff" stroke-linecap="round" stroke-linejoin="round" stroke-width="2"/><line x2="21.1" transform="translate(0 3.098)" stroke-width="2" stroke="#0073ff" stroke-linecap="round" stroke-linejoin="round" fill="none"/><line x2="21.1" transform="translate(0 6.195)" stroke-width="2" stroke="#0073ff" stroke-linecap="round" stroke-linejoin="round" fill="none"/></g></g><g transform="translate(40.469 90.247)"><rect width="43.142" height="57.643" rx="8" transform="translate(0 0)" stroke-width="2" stroke="#0073ff" stroke-linecap="round" stroke-linejoin="round" fill="none"/><path d="M6298.247,2326.1H6326.6a7.4,7.4,0,0,1,7.4,7.4v30.315h-43.142V2333.5A7.4,7.4,0,0,1,6298.247,2326.1Z" transform="translate(-6290.852 -2326.105)" fill="#cce3ff" stroke="#0073ff" stroke-linecap="round" stroke-linejoin="round" stroke-width="2"/><g transform="translate(4.085 41.616)"><line x2="26.262" fill="none" stroke="#0073ff" stroke-linecap="round" stroke-linejoin="round" stroke-width="2"/><line x2="21.1" transform="translate(0 3.098)" stroke-width="2" stroke="#0073ff" stroke-linecap="round" stroke-linejoin="round" fill="none"/><line x2="21.1" transform="translate(0 6.195)" stroke-width="2" stroke="#0073ff" stroke-linecap="round" stroke-linejoin="round" fill="none"/></g></g><g transform="translate(187.403 90.247)"><rect width="43.142" height="57.643" rx="8" transform="translate(0 0)" stroke-width="2" stroke="#0073ff" stroke-linecap="round" stroke-linejoin="round" fill="none"/><path d="M6457.193,2326.1h28.351a7.4,7.4,0,0,1,7.4,7.4v30.315H6449.8V2333.5A7.4,7.4,0,0,1,6457.193,2326.1Z" transform="translate(-6449.797 -2326.105)" fill="#cce3ff" stroke="#0073ff" stroke-linecap="round" stroke-linejoin="round" stroke-width="2"/><g transform="translate(4.085 41.616)"><line x2="26.262" fill="none" stroke="#0073ff" stroke-linecap="round" stroke-linejoin="round" stroke-width="2"/><line x2="21.1" transform="translate(0 3.098)" stroke-width="2" stroke="#0073ff" stroke-linecap="round" stroke-linejoin="round" fill="none"/><line x2="21.1" transform="translate(0 6.195)" stroke-width="2" stroke="#0073ff" stroke-linecap="round" stroke-linejoin="round" fill="none"/></g></g><line x2="275.854" transform="translate(0 15.245)" stroke-width="2" stroke="#0073ff" stroke-linecap="round" stroke-linejoin="round" fill="none"/><g transform="translate(97.426 7.592)"><path d="M6352.464,2236.693c2.341,0,2.341.91,4.68.91s2.339-.91,4.68-.91,2.342.91,4.682.91,2.342-.91,4.682-.91" transform="translate(-6352.464 -2236.693)" fill="none" stroke="#0073ff" stroke-linecap="round" stroke-linejoin="round" stroke-width="2"/></g><g transform="translate(123.376 7.592)"><path d="M6380.537,2236.693c1.842,0,1.842.91,3.685.91s1.843-.91,3.685-.91,1.844.91,3.687.91,1.843-.91,3.687-.91" transform="translate(-6380.537 -2236.693)" fill="none" stroke="#0073ff" stroke-linecap="round" stroke-linejoin="round" stroke-width="2"/></g><g transform="translate(154.723 7.592)"><path d="M6414.447,2236.693c1.663,0,1.663.91,3.328.91s1.663-.91,3.328-.91,1.664.91,3.328.91,1.664-.91,3.328-.91" transform="translate(-6414.447 -2236.693)" fill="none" stroke="#0073ff" stroke-linecap="round" stroke-linejoin="round" stroke-width="2"/></g><g transform="translate(175.275 7.592)"><path d="M6436.678,2236.693c1.872,0,1.872.91,3.743.91s1.872-.91,3.746-.91,1.871.91,3.744.91,1.873-.91,3.746-.91,1.873.91,3.745.91" transform="translate(-6436.678 -2236.693)" fill="none" stroke="#0073ff" stroke-linecap="round" stroke-linejoin="round" stroke-width="2"/></g><rect width="26.217" height="5.66" rx="2.83" transform="translate(24.287 4.447)" stroke-width="2" stroke="#0073ff" stroke-linecap="round" stroke-linejoin="round" fill="none"/></g><g transform="translate(366.599 207.879)"><rect width="21.652" height="29.903" transform="matrix(0.272, -0.962, 0.962, 0.272, 0, 37.44)" stroke-width="2" stroke="#0073ff" stroke-linecap="round" stroke-linejoin="round" fill="#fff"/><line x1="5.888" y2="20.836" transform="translate(14.388 20.67)" stroke-width="2" stroke="#0073ff" stroke-linecap="round" stroke-linejoin="round" fill="#fff"/><line x2="28.776" y2="8.131" transform="translate(2.908 27.15)" stroke-width="2" stroke="#0073ff" stroke-linecap="round" stroke-linejoin="round" fill="#fff"/><path d="M6597.759,2391.033c21.15,4.777,9.707-15.808.2-.625" transform="translate(-6574.702 -2377.577)" fill="#fff" stroke="#0073ff" stroke-linecap="round" stroke-linejoin="round" stroke-width="2"/><path d="M6596.179,2390.288c-20.891-14.045,5.605-20.79.365-.67" transform="translate(-6573.966 -2376.993)" fill="#fff" stroke="#0073ff" stroke-linecap="round" stroke-linejoin="round" stroke-width="2"/><rect width="7.239" height="37.856" rx="2.354" transform="matrix(0.272, -0.962, 0.962, 0.272, 2.06, 15.523)" stroke-width="2" stroke="#0073ff" stroke-linecap="round" stroke-linejoin="round" fill="#fff"/></g><g transform="translate(325.705 132.892)"><path d="M6553.13,2295.876l4.773,13.914,13.031,6.1-11.53,9.1-2.017,13.994-11.989-7.877-14.187,2.133,4.029-13.553-6.661-13.09,14.389-.084Z" transform="translate(-6528.58 -2295.876)" fill="#fff" stroke="#0073ff" stroke-linecap="round" stroke-linejoin="round" stroke-width="2"/></g><g transform="translate(71.612 13.001)"><path d="M6271.3,2202.482l19.75,1.957-6.424-28.474-17,10.246Z" transform="translate(-6254.766 -2166.923)" fill="#fff" stroke="#0073ff" stroke-linecap="round" stroke-linejoin="round" stroke-width="2"/><path d="M6270.246,2203.322l-10.769,2.429a2.583,2.583,0,0,1-3.089-1.947v0l-2.618-11.6a2.2,2.2,0,0,1,1.669-2.631h0l11.138-2.513h0l3.67,16.268Z" transform="translate(-6253.715 -2167.761)" fill="#fff" stroke="#0073ff" stroke-linecap="round" stroke-linejoin="round" stroke-width="2"/><path d="M6299.938,2173.181a24.106,24.106,0,0,1,6.417,27.817" transform="translate(-6257.208 -2166.713)" fill="none" stroke="#0073ff" stroke-linecap="round" stroke-linejoin="round" stroke-width="2"/><path d="M6294.426,2181.136a13.867,13.867,0,0,1,3.7,16.022" transform="translate(-6256.791 -2167.314)" fill="none" stroke="#0073ff" stroke-linecap="round" stroke-linejoin="round" stroke-width="2"/><path d="M6306.187,2166.184a32.65,32.65,0,0,1,8.684,37.635" transform="translate(-6257.68 -2166.184)" fill="none" stroke="#0073ff" stroke-linecap="round" stroke-linejoin="round" stroke-width="2"/></g><g transform="translate(400.328 147.821)"><path d="M6631.81,2335.295c-3.431,6.229-10.125,8.593-16.354,5.161s-7.808-10.353-4.376-16.582,20.038-11.848,20.038-11.848S6635.242,2329.066,6631.81,2335.295Z" transform="translate(-6609.303 -2312.026)" fill="#fff" stroke="#0073ff" stroke-linecap="round" stroke-linejoin="round" stroke-width="2"/><line x1="17.753" y2="32.226" transform="translate(4.062)" stroke-width="2" stroke="#0073ff" stroke-linecap="round" stroke-linejoin="round" fill="none"/><g transform="translate(9.82 13.806)"><line y1="1.554" x2="9.269" transform="translate(0 6.413)" stroke-width="2" stroke="#0073ff" stroke-linecap="round" stroke-linejoin="round" fill="none"/><line y1="0.964" x2="5.749" transform="translate(3.858)" stroke-width="2" stroke="#0073ff" stroke-linecap="round" stroke-linejoin="round" fill="none"/></g><g transform="translate(6.181 9.396)"><line x1="3.639" y1="8.665" transform="translate(0 3.713)" stroke-width="2" stroke="#0073ff" stroke-linecap="round" stroke-linejoin="round" fill="none"/><line x1="2.257" y1="5.374" transform="translate(5.241)" stroke-width="2" stroke="#0073ff" stroke-linecap="round" stroke-linejoin="round" fill="none"/></g></g><g transform="translate(198.131)"><path d="M6418.232,2187.672a1.255,1.255,0,0,1-1.288.142c-3.509-1.633-7.857-1.692-11.822-1.171-4.233.557-8.12.948-10.037,1.13a1.279,1.279,0,0,1-1.394-1.134l-3.108-28.2a1.28,1.28,0,0,1,1.106-1.409c1.867-.243,5.653-.706,10.049-1.077a20.683,20.683,0,0,0,24.4-2.688c4.372-.6,8.167-.969,10.042-1.138a1.279,1.279,0,0,1,1.386,1.135l3.108,28.2a1.28,1.28,0,0,1-1.113,1.41c-1.911.24-5.789.705-10.042,1.083C6425.534,2184.31,6421.3,2185.314,6418.232,2187.672Z" transform="translate(-6390.576 -2152.12)" fill="#fff" stroke="#0073ff" stroke-linecap="round" stroke-linejoin="round" stroke-width="2"/><line x1="3.274" y1="29.712" transform="translate(23.815 6.619)" stroke-width="2" stroke="#0073ff" stroke-linecap="round" stroke-linejoin="round" fill="none"/><g transform="translate(6.245 7.488)"><g transform="translate(24.469)"><path d="M6423.8,2162.7a15.7,15.7,0,0,1,5.4-1.781c3.514-.479,3.823-.5,5.895-.7" transform="translate(-6423.802 -2160.221)" fill="none" stroke="#0073ff" stroke-linecap="round" stroke-linejoin="round" stroke-width="2"/><g transform="translate(0.817 7.415)"><path d="M6424.686,2170.726a15.694,15.694,0,0,1,5.4-1.781c3.514-.479,3.823-.5,5.895-.7" transform="translate(-6424.686 -2168.242)" fill="none" stroke="#0073ff" stroke-linecap="round" stroke-linejoin="round" stroke-width="2"/></g><g transform="translate(1.634 14.831)"><path d="M6425.569,2178.748a15.676,15.676,0,0,1,5.4-1.781c3.513-.479,3.822-.5,5.894-.7" transform="translate(-6425.569 -2176.264)" fill="none" stroke="#0073ff" stroke-linecap="round" stroke-linejoin="round" stroke-width="2"/></g></g><g transform="translate(0 3.278)"><path d="M6408.9,2164.394a15.693,15.693,0,0,0-5.662-.562c-3.534.3-3.839.344-5.906.6" transform="translate(-6397.332 -2163.767)" fill="none" stroke="#0073ff" stroke-linecap="round" stroke-linejoin="round" stroke-width="2"/><g transform="translate(0.817 7.416)"><path d="M6409.783,2172.416a15.7,15.7,0,0,0-5.661-.562c-3.534.3-3.84.343-5.907.6" transform="translate(-6398.215 -2171.789)" fill="none" stroke="#0073ff" stroke-linecap="round" stroke-linejoin="round" stroke-width="2"/></g><g transform="translate(1.634 14.831)"><path d="M6410.667,2180.438a15.683,15.683,0,0,0-5.661-.562c-3.534.3-3.84.343-5.906.6" transform="translate(-6399.1 -2179.811)" fill="none" stroke="#0073ff" stroke-linecap="round" stroke-linejoin="round" stroke-width="2"/></g></g></g></g><g transform="translate(13.132 56.602)"><path d="M6197.972,2243.181a18.576,18.576,0,0,0-4.617-.156c1.135,2.242,6.8,9.077,15.223,9.426" transform="translate(-6190.673 -2215.584)" fill="none" stroke="#0073ff" stroke-linecap="round" stroke-linejoin="round" stroke-width="2"/><path d="M6208.094,2249.093c7.411-20.007-3.291-21.828-14-35.744-2.259,4.064-7.731,15.332,1.7,27.368" transform="translate(-6190.454 -2213.349)" fill="none" stroke="#0073ff" stroke-linecap="round" stroke-linejoin="round" stroke-width="2"/><path d="M6199.124,2229.325c1.921,6.7,7.636,21.009,14.968,27.762" transform="translate(-6191.109 -2214.556)" fill="none" stroke="#0073ff" stroke-linecap="round" stroke-linejoin="round" stroke-width="2"/></g><g transform="translate(31.905 176.129)"><path d="M6249.932,2345.341l-9.946,2.276-3.573-4.969-12.261,2.806-1.057,6.028-9.946,2.276a3.071,3.071,0,0,0-2.309,3.679l4.636,20.26a3.4,3.4,0,0,0,4.076,2.559l36.46-8.343a3.072,3.072,0,0,0,2.308-3.68l-.074-.323-4.636-20.26A3.071,3.071,0,0,0,6249.932,2345.341Z" transform="translate(-6210.763 -2342.648)" fill="#fff" stroke="#0073ff" stroke-linecap="round" stroke-linejoin="round" stroke-width="2"/><circle cx="9.313" cy="9.313" r="9.313" transform="translate(14.726 10.189)" fill="none" stroke="#0073ff" stroke-linecap="round" stroke-linejoin="round" stroke-width="2"/></g><g transform="translate(1.127 127.154)"><rect width="24.125" height="27.571" transform="translate(0 9.395) rotate(-22.919)" stroke-width="2" stroke="#0073ff" stroke-linecap="round" stroke-linejoin="round" fill="#fff"/><path d="M6184.932,2304.143l1.631.662,1.189-2.842" transform="translate(-6178.032 -2290.598)" fill="none" stroke="#0073ff" stroke-linecap="round" stroke-linejoin="round" stroke-width="2"/><line y1="2.517" x2="5.952" transform="translate(14.985 8.026)" stroke-width="2" stroke="#0073ff" stroke-linecap="round" stroke-linejoin="round" fill="none"/><path d="M6187.291,2309.723l1.631.662,1.189-2.842" transform="translate(-6178.21 -2291.02)" fill="none" stroke="#0073ff" stroke-linecap="round" stroke-linejoin="round" stroke-width="2"/><line y1="2.517" x2="5.952" transform="translate(17.166 13.184)" stroke-width="2" stroke="#0073ff" stroke-linecap="round" stroke-linejoin="round" fill="none"/><path d="M6189.65,2315.3l1.631.662,1.189-2.842" transform="translate(-6178.388 -2291.441)" fill="none" stroke="#0073ff" stroke-linecap="round" stroke-linejoin="round" stroke-width="2"/><line y1="2.517" x2="5.952" transform="translate(19.347 18.343)" stroke-width="2" stroke="#0073ff" stroke-linecap="round" stroke-linejoin="round" fill="none"/></g><g transform="translate(271.418 46.404)"><path d="M6524.957,2210.341l-38.105-7.808a10.639,10.639,0,0,0-12.522,8.262l-4.258,20.785a10.64,10.64,0,0,0,8.263,12.522l22.25,4.559,8.388,9.084a2.205,2.205,0,0,0,3.781-1.054l1.089-5.313,2.6.532a10.64,10.64,0,0,0,12.522-8.264l4.259-20.785A10.64,10.64,0,0,0,6524.957,2210.341Z" transform="translate(-6469.855 -2202.317)" fill="#fff" stroke="#0073ff" stroke-linecap="round" stroke-linejoin="round" stroke-width="2"/><line x2="35.508" y2="7.275" transform="translate(16.244 12.695)" stroke-width="2" stroke="#0073ff" stroke-linecap="round" stroke-linejoin="round" fill="none"/><line x2="35.508" y2="7.275" transform="translate(14.469 21.355)" stroke-width="2" stroke="#0073ff" stroke-linecap="round" stroke-linejoin="round" fill="none"/><line x2="25.115" y2="5.146" transform="translate(12.695 30.016)" stroke-width="2" stroke="#0073ff" stroke-linecap="round" stroke-linejoin="round" fill="none"/></g><path d="M6581.513,2338.166l.321,4.144,3.825-.3" transform="translate(-6206.875 -2166.18)" fill="none" stroke="#0073ff" stroke-linecap="round" stroke-linejoin="round" stroke-width="2"/><g transform="translate(5.069 235.764)" fill="#fff" stroke="#0073ff" stroke-linecap="round" stroke-linejoin="round" stroke-width="2"><circle cx="1.5" cy="1.5" r="1.5" stroke="none"/><circle cx="1.5" cy="1.5" r="0.5" fill="none"/></g><g transform="translate(304.071 10.482)"><g transform="translate(0.93)"><line x2="1.015" y2="1.376" fill="none" stroke="#0073ff" stroke-linecap="round" stroke-linejoin="round" stroke-width="2"/><line x2="1.015" y2="1.376" transform="translate(4.211 5.709)" stroke-width="2" stroke="#0073ff" stroke-linecap="round" stroke-linejoin="round" fill="none"/></g><g transform="translate(0 0.93)"><line y1="1.015" x2="1.376" transform="translate(0 4.211)" stroke-width="2" stroke="#0073ff" stroke-linecap="round" stroke-linejoin="round" fill="none"/><line y1="1.015" x2="1.376" transform="translate(5.709)" stroke-width="2" stroke="#0073ff" stroke-linecap="round" stroke-linejoin="round" fill="none"/></g></g><path d="M6211.658,2177.013l5.557,1.307,1.206-5.129" transform="translate(-6178.924 -2153.713)" fill="none" stroke="#0073ff" stroke-linecap="round" stroke-linejoin="round" stroke-width="2"/><g transform="translate(173.998 34.625)" fill="#fff" stroke="#0073ff" stroke-linecap="round" stroke-linejoin="round" stroke-width="2"><circle cx="1.809" cy="1.809" r="1.809" stroke="none"/><circle cx="1.809" cy="1.809" r="0.809" fill="none"/></g><g transform="translate(0 186.316)"><g transform="translate(0.677)"><line x2="0.739" y2="1.002" fill="none" stroke="#0073ff" stroke-linecap="round" stroke-linejoin="round" stroke-width="2"/><line x2="0.739" y2="1.002" transform="translate(3.065 4.157)" stroke-width="2" stroke="#0073ff" stroke-linecap="round" stroke-linejoin="round" fill="none"/></g><g transform="translate(0 0.677)"><line y1="0.739" x2="1.002" transform="translate(0 3.066)" stroke-width="2" stroke="#0073ff" stroke-linecap="round" stroke-linejoin="round" fill="none"/><line y1="0.739" x2="1.002" transform="translate(4.157)" stroke-width="2" stroke="#0073ff" stroke-linecap="round" stroke-linejoin="round" fill="none"/></g></g><path d="M6567.823,2237.827c2.3-2.3,4.918.312,7.22-1.991s-.311-4.919,1.995-7.224,4.918.311,7.223-1.994" transform="translate(-6205.84 -2157.75)" fill="none" stroke="#0073ff" stroke-linecap="round" stroke-linejoin="round" stroke-width="2"/><circle cx="1.947" cy="1.947" r="1.947" transform="translate(67.489 184.523)" fill="#fff" stroke="#0073ff" stroke-linecap="round" stroke-linejoin="round" stroke-width="2"/></g></g><g transform="translate(808.081 1517.495) rotate(17)"><path d="M9.386,22.959h0a56.775,56.775,0,0,1-4.693-4.833C2.551,15.622,0,12.075,0,9.392a9.409,9.409,0,0,1,18.819,0c0,2.687-2.565,6.232-4.715,8.733a58.165,58.165,0,0,1-4.715,4.833ZM9.406,5.4a3.921,3.921,0,1,0,3.922,3.924A3.926,3.926,0,0,0,9.406,5.4Z" fill="rgba(0,0,0,0)" stroke="#0073ff" stroke-miterlimit="10" stroke-width="2"/></g></g></svg>