<svg xmlns="http://www.w3.org/2000/svg" width="493.512" height="325.935"><path d="M460.222 275.189c-40.637 38.292-145.753 50.746-237.331 50.746S67.923 301.758 67.923 301.758c-21.434-6.835-50.8-20.318-60.955-45.325-14.963-30.781-6.317-78.218 30.655-99.03 23.88-13.433 60.793-13.448 88.143-11.847s51.522 7.92 78.252 1.912c31.159-7 57.929-26.306 87.208-39.046s65.983-17.944 91.164 1.693c10.654 8.321 17.964 20.153 27.669 29.558 16.363 15.849 43.52 27.044 62.665 39.395 33.102 21.352 25.009 59.391-12.502 96.121z" fill="#cce3ff"/><g transform="translate(37.624 1.007)" stroke-width="2" stroke="#0073ff" stroke-linecap="round" stroke-linejoin="round"><g transform="translate(65.473 70.589)"><rect width="275.854" height="186.689" rx="16" fill="#fff"/><g fill="#fff"><path d="M164.05 223.086h-52.242l4.179-36.4h43.887z"/><path d="M87.917 223.083h100.019a6.182 6.182 0 016.182 6.182h0a6.182 6.182 0 01-6.182 6.182H87.917a6.182 6.182 0 01-6.183-6.182h0a6.182 6.182 0 016.183-6.182z"/></g><path fill="none" d="M0 162.053h275.854"/><rect width="92.39" height="57.643" rx="8" transform="translate(40.199 28.163)" fill="#cce3ff"/><g transform="translate(138.425 28.163)"><rect width="43.142" height="57.643" rx="8" fill="none"/><path d="M7.396.001h28.351a7.4 7.4 0 017.4 7.4v30.315H.005V7.401a7.4 7.4 0 017.391-7.4z" fill="#cce3ff"/><path d="M4.085 41.616h26.262M4.085 44.714h21.1m-21.1 3.097h21.1" fill="none"/></g><g transform="translate(187.403 28.163)"><rect width="43.142" height="57.643" rx="8" fill="none"/><path d="M7.396.001h28.351a7.4 7.4 0 017.4 7.4v30.315H.003V7.401a7.4 7.4 0 017.393-7.4z" fill="#cce3ff"/><path d="M4.085 41.616h26.262M4.085 44.714h21.1m-21.1 3.097h21.1" fill="none"/></g><g transform="translate(138.425 90.247)"><rect width="43.142" height="57.643" rx="8" fill="none"/><path d="M7.396-.005h28.351a7.4 7.4 0 017.4 7.4V37.71H.005V7.395a7.4 7.4 0 017.391-7.4z" fill="#cce3ff"/><path d="M4.085 41.616h26.262M4.085 44.714h21.1m-21.1 3.097h21.1" fill="none"/></g><g transform="translate(89.447 90.248)"><rect width="43.142" height="57.643" rx="8" fill="#cce3ff"/><path d="M4.085 41.616h26.262M4.085 44.714h21.1m-21.1 3.097h21.1" fill="none"/></g><g transform="translate(40.469 90.247)"><rect width="43.142" height="57.643" rx="8" fill="none"/><path d="M7.395-.005h28.353a7.4 7.4 0 017.4 7.4V37.71H.006V7.395a7.4 7.4 0 017.389-7.4z" fill="#cce3ff"/><path d="M4.085 41.616h26.262M4.085 44.714h21.1m-21.1 3.097h21.1" fill="none"/></g><g transform="translate(187.403 90.247)"><rect width="43.142" height="57.643" rx="8" fill="none"/><path d="M7.396-.005h28.351a7.4 7.4 0 017.4 7.4V37.71H.003V7.395a7.4 7.4 0 017.393-7.4z" fill="#cce3ff"/><path d="M4.085 41.616h26.262M4.085 44.714h21.1m-21.1 3.097h21.1" fill="none"/></g><path fill="none" d="M0 15.245h275.854M97.426 7.592c2.341 0 2.341.91 4.68.91s2.339-.91 4.68-.91 2.342.91 4.682.91 2.342-.91 4.682-.91m7.226 0c1.842 0 1.842.91 3.685.91s1.843-.91 3.685-.91 1.844.91 3.687.91 1.843-.91 3.687-.91m16.603 0c1.663 0 1.663.91 3.328.91s1.663-.91 3.328-.91 1.664.91 3.328.91 1.664-.91 3.328-.91m7.24 0c1.872 0 1.872.91 3.743.91s1.872-.91 3.746-.91 1.871.91 3.744.91 1.873-.91 3.746-.91 1.873.91 3.745.91"/><rect width="26.217" height="5.66" rx="2.83" transform="translate(24.287 4.447)" fill="none"/></g><g transform="translate(366.599 207.879)" fill="#fff"><path d="M0 37.44l5.89-20.83 28.766 8.134-5.89 20.83z" stroke-width="1.999"/><path d="M20.276 20.67l-5.888 20.836M2.908 27.15l28.776 8.131m-8.627-21.825c21.15 4.777 9.707-15.808.2-.625m-1.044.464c-20.891-14.045 5.605-20.79.365-.67"/><rect width="7.239" height="37.856" rx="2.354" transform="rotate(-74.21 11.294 6.402)"/></g><path d="M350.255 132.892l4.773 13.914 13.031 6.1-11.53 9.1L354.512 176l-11.989-7.877-14.187 2.133 4.029-13.553-6.661-13.09 14.389-.084zM88.146 48.56l19.75 1.957-6.424-28.474-17 10.246zm-.003.002l-10.769 2.429a2.583 2.583 0 01-3.089-1.947h0l-2.618-11.6a2.2 2.2 0 011.669-2.631h0L84.474 32.3h0l3.67 16.268z" fill="#fff"/><path d="M114.342 19.469a24.106 24.106 0 016.417 27.817m-11.512-20.463a13.867 13.867 0 013.7 16.022m7.172-29.844a32.65 32.65 0 018.684 37.635" fill="none"/><path d="M422.835 171.09c-3.431 6.229-10.125 8.593-16.354 5.161s-7.808-10.353-4.376-16.582 20.038-11.848 20.038-11.848 4.124 17.04.692 23.269z" fill="#fff"/><path fill="none" d="M422.143 147.821l-17.753 32.226m5.758-10.453l9.269-1.554m-5.411-5.449l5.749-.964m-9.607 7.968l-3.639-8.665m7.498 1.661l-2.257-5.374"/><path d="M225.787 35.552a1.255 1.255 0 01-1.288.142c-3.509-1.633-7.857-1.692-11.822-1.171-4.233.557-8.12.948-10.037 1.13a1.279 1.279 0 01-1.394-1.134l-3.108-28.2a1.28 1.28 0 011.106-1.409c1.867-.243 5.653-.706 10.049-1.077a20.683 20.683 0 0024.4-2.688c4.372-.6 8.167-.969 10.042-1.138a1.279 1.279 0 011.386 1.135l3.108 28.2a1.28 1.28 0 01-1.113 1.41c-1.911.24-5.789.705-10.042 1.083-3.985.355-8.219 1.359-11.287 3.717z" fill="#fff"/><path fill="none" d="M225.22 36.331l-3.274-29.712m6.897 3.348a15.7 15.7 0 015.4-1.781c3.514-.479 3.823-.5 5.895-.7m-10.476 9.901a15.694 15.694 0 015.4-1.781c3.514-.479 3.823-.5 5.895-.7m-10.478 9.897a15.676 15.676 0 015.4-1.781c3.513-.479 3.822-.5 5.894-.7m-25.829-10.929a15.693 15.693 0 00-5.662-.562c-3.534.3-3.839.344-5.906.6m12.385 7.378a15.7 15.7 0 00-5.661-.562c-3.534.3-3.84.343-5.907.6m12.384 7.377a15.683 15.683 0 00-5.661-.562c-3.534.3-3.84.343-5.906.6"/><g fill="none"><path d="M20.431 84.199a18.576 18.576 0 00-4.617-.156c1.135 2.242 6.8 9.077 15.223 9.426"/><path d="M30.772 92.346c7.411-20.007-3.291-21.828-14-35.744-2.259 4.064-7.731 15.332 1.7 27.368m2.675-12.599c1.921 6.7 7.636 21.009 14.968 27.762"/></g><g transform="translate(31.905 176.129)"><path d="M39.169 2.693l-9.946 2.276L25.65 0 13.389 2.806l-1.057 6.028-9.946 2.276a3.071 3.071 0 00-2.309 3.679l4.636 20.26a3.4 3.4 0 004.076 2.559l36.46-8.343a3.072 3.072 0 002.308-3.68l-.074-.323-4.636-20.26a3.071 3.071 0 00-3.678-2.309z" fill="#fff"/><circle cx="9.313" cy="9.313" r="9.313" transform="translate(14.726 10.189)" fill="none"/></g><path fill="#fff" d="M1.127 136.549l22.22-9.395 10.737 25.394-22.22 9.395z"/><path d="M8.027 140.699l1.631.662 1.189-2.842m5.265-.822l5.952-2.517m-11.856 10.677l1.631.662 1.189-2.842m5.265-.822l5.952-2.517m-11.856 10.675l1.631.662 1.189-2.842m5.265-.819l5.952-2.517" fill="none"/><path d="M326.52 54.428l-38.105-7.808a10.639 10.639 0 00-12.522 8.262l-4.258 20.785a10.64 10.64 0 008.263 12.522l22.25 4.559 8.388 9.084a2.205 2.205 0 003.781-1.054l1.089-5.313 2.6.532a10.64 10.64 0 0012.522-8.264l4.259-20.785a10.64 10.64 0 00-8.267-12.52z" fill="#fff"/><path fill="none" d="M287.662 59.099l35.508 7.275m-37.283 1.385l35.508 7.275m-37.282 1.386l25.115 5.146m65.41 90.42l.321 4.144 3.825-.3"/><g transform="translate(5.069 235.764)" fill="#fff"><circle cx="1.5" cy="1.5" r="1.5" stroke="none"/><circle cx="1.5" cy="1.5" r=".5" fill="none"/></g><path d="M305.001 10.482l1.015 1.376m3.196 4.333l1.015 1.376m-6.156-.929l1.376-1.015m4.333-3.196l1.376-1.015M32.734 23.3l5.557 1.307 1.206-5.129" fill="none"/><g transform="translate(173.998 34.625)" fill="#fff"><circle cx="1.809" cy="1.809" r="1.809" stroke="none"/><circle cx="1.809" cy="1.809" r=".809" fill="none"/></g><path d="M.677 186.316l.739 1.002m2.326 3.155l.739 1.002M0 190.798l1.002-.739m3.155-2.327l1.002-.739M361.983 80.077c2.3-2.3 4.918.312 7.22-1.991s-.311-4.919 1.995-7.224 4.918.311 7.223-1.994" fill="none"/><circle cx="1.947" cy="1.947" r="1.947" transform="translate(67.489 184.523)" fill="#fff"/></g><path d="M432.884 122.202h0a56.775 56.775 0 01-3.075-5.994c-1.316-3.02-2.718-7.159-1.934-9.724a9.41 9.41 0 0117.997 5.502c-.786 2.57-4.275 5.21-7.063 6.973a58.165 58.165 0 01-5.922 3.243zm5.153-16.786a3.921 3.921 0 102.604 4.9 3.926 3.926 0 00-2.604-4.9z" fill="rgba(0,0,0,0)" stroke="#0073ff" stroke-miterlimit="10" stroke-width="2"/></svg>