<svg xmlns="http://www.w3.org/2000/svg" width="260.43" height="706.778" viewBox="0 0 260.43 706.778"><g transform="translate(-101.318 -13546.569)"><path d="M1356.219,2727.734l-9.615,8.507a4.043,4.043,0,0,1-6.749-3.18l.762-12.77a4.277,4.277,0,0,0-2-3.748l-11.169-6.487a4.023,4.023,0,0,1,1.008-7.38l12.472-3.3a4.151,4.151,0,0,0,2.973-3.038l2.712-12.538a4.078,4.078,0,0,1,7.394-1.345l6.955,10.78a3.969,3.969,0,0,0,3.852,1.8l12.835-1.306a3.912,3.912,0,0,1,3.516,6.41l-8.167,10a4.272,4.272,0,0,0-.556,4.214l5.236,11.825a4.044,4.044,0,0,1-5.2,5.353l-11.995-4.575A4.607,4.607,0,0,0,1356.219,2727.734Z" transform="matrix(0.875, 0.485, -0.485, 0.875, 395.814, 10560.858)" fill="none" stroke="#0073ff" stroke-miterlimit="10" stroke-width="2"/><path d="M0,3.579l4.917.96L5.8,0" transform="translate(357.056 13559.409) rotate(58)" fill="none" stroke="#0073ff" stroke-linecap="round" stroke-linejoin="round" stroke-width="2"/><path d="M0,3.579l4.917.96L5.8,0" transform="matrix(-0.07, 0.998, -0.998, -0.07, 263.135, 14036.336)" fill="none" stroke="#0073ff" stroke-linecap="round" stroke-linejoin="round" stroke-width="2"/><path d="M1461.151,3167.854a2.244,2.244,0,1,1,2.245-2.245,2.245,2.245,0,0,1-2.245,2.245" transform="translate(-1220.906 10618.635)" fill="none" stroke="#0073ff" stroke-linecap="round" stroke-linejoin="round" stroke-width="2"/><g transform="translate(-1273.798 10851.432)"><g transform="translate(1403.08 3179.479)"><line x2="1.896" y2="2.571" fill="#fff" stroke="#0073ff" stroke-linecap="round" stroke-linejoin="round" stroke-width="2"/><line x2="1.896" y2="2.571" transform="translate(5.311 7.202)" stroke-width="2" stroke="#0073ff" stroke-linecap="round" stroke-linejoin="round" fill="#fff"/></g><g transform="translate(1401.798 3180.762)"><line y1="1.896" x2="2.571" transform="translate(0 5.311)" stroke-width="2" stroke="#0073ff" stroke-linecap="round" stroke-linejoin="round" fill="#fff"/><line y1="1.896" x2="2.571" transform="translate(7.202)" stroke-width="2" stroke="#0073ff" stroke-linecap="round" stroke-linejoin="round" fill="#fff"/></g></g><g transform="translate(-1202.798 10419.432)"><g transform="translate(1403.08 3179.479)"><line x2="1.896" y2="2.571" fill="#fff" stroke="#0073ff" stroke-linecap="round" stroke-linejoin="round" stroke-width="2"/><line x2="1.896" y2="2.571" transform="translate(5.311 7.202)" stroke-width="2" stroke="#0073ff" stroke-linecap="round" stroke-linejoin="round" fill="#fff"/></g><g transform="translate(1401.798 3180.762)"><line y1="1.896" x2="2.571" transform="translate(0 5.311)" stroke-width="2" stroke="#0073ff" stroke-linecap="round" stroke-linejoin="round" fill="#fff"/><line y1="1.896" x2="2.571" transform="translate(7.202)" stroke-width="2" stroke="#0073ff" stroke-linecap="round" stroke-linejoin="round" fill="#fff"/></g></g><g transform="translate(-510.359 10376.276) rotate(14)"><g transform="translate(1453.464 3022.191)"><path d="M1516.176,3048.528c0-11.727,2.548-21.677,6.1-25.363a.182.182,0,0,0-.2-.3,155.764,155.764,0,0,1-36.923,9.951,127.41,127.41,0,0,1-17.383,1.235c-19.123,0-19.033,28.948,0,28.948,25.029,0,47.028,8.166,54.306,11.184a.181.181,0,0,0,.2-.3C1518.724,3070.2,1516.176,3060.254,1516.176,3048.528Z" transform="translate(-1453.464 -3021.612)" fill="none" stroke="#0073ff" stroke-miterlimit="10" stroke-width="2"/><path d="M1480.938,3075.115a3.86,3.86,0,0,1-3.9,3.969h-8.132c-3.178,0-8.368-20.825-8.368-34.833,4.568.109,5.642.147,11.359.5C1471.9,3055.117,1480.629,3068.531,1480.938,3075.115Z" transform="translate(-1447.28 -3002.916)" fill="none" stroke="#0073ff" stroke-miterlimit="10" stroke-width="2"/><ellipse cx="9.134" cy="26.916" rx="9.134" ry="26.916" transform="translate(62.712)" fill="none" stroke="#0073ff" stroke-miterlimit="10" stroke-width="2"/><path d="M1487.9,3032.873l5.016,1.834a3.582,3.582,0,0,1,2.826,3.62v2.893a3.582,3.582,0,0,1-2.826,3.618l-5.016,1.834" transform="translate(-1423.372 -3012.857)" fill="none" stroke="#0073ff" stroke-miterlimit="10" stroke-width="2"/><path d="M1497.064,3033.2" transform="translate(-1415.369 -3012.573)" fill="none" stroke="#0073ff" stroke-miterlimit="10" stroke-width="2"/><path d="M1497.064,3039.76" transform="translate(-1415.369 -3006.84)" fill="none" stroke="#0073ff" stroke-miterlimit="10" stroke-width="2"/></g><path d="M1471.48,3059.544a50.029,50.029,0,0,1-2.629-15.919,45.505,45.505,0,0,1,2.677-15.439" transform="translate(13.444 5.238)" fill="none" stroke="#0073ff" stroke-linecap="round" stroke-linejoin="round" stroke-width="2"/></g><g transform="translate(-11148.213 10934.649) rotate(-21)"><rect width="43.84" height="71.849" rx="6.108" transform="translate(9509.235 6733.991)" fill="none" stroke="#0073ff" stroke-miterlimit="10" stroke-width="2"/><circle cx="1.686" cy="1.686" r="1.686" transform="translate(9515.979 6783.358)" fill="#0073ff"/><circle cx="1.686" cy="1.686" r="1.686" transform="translate(9522.725 6783.358)" fill="#0073ff"/><circle cx="1.686" cy="1.686" r="1.686" transform="translate(9529.469 6783.358)" fill="#0073ff"/><rect width="29.227" height="31.475" transform="translate(9516.542 6746.076)" fill="none" stroke="#0073ff" stroke-miterlimit="10" stroke-width="2"/><path d="M0,0H19.11a0,0,0,0,1,0,0V3.217A1.28,1.28,0,0,1,17.83,4.5H1.28A1.28,1.28,0,0,1,0,3.217V0A0,0,0,0,1,0,0Z" transform="translate(9521.6 6733.991)" fill="none" stroke="#0073ff" stroke-miterlimit="10" stroke-width="2"/><line x2="22.482" transform="translate(9515.979 6791.227)" fill="none" stroke="#0073ff" stroke-miterlimit="10" stroke-width="2"/><line x2="16.862" transform="translate(9515.979 6795.723)" fill="none" stroke="#0073ff" stroke-miterlimit="10" stroke-width="2"/></g><g transform="matrix(0.966, 0.259, -0.259, 0.966, -7338.197, 4850.639)"><rect width="99.892" height="75.974" rx="7.866" transform="translate(9590.555 6826.804)" fill="none" stroke="#0073ff" stroke-miterlimit="10" stroke-width="2"/><line x2="53.463" transform="translate(9611.658 6871.825)" fill="none" stroke="#0073ff" stroke-miterlimit="10" stroke-width="2"/><line x2="46.429" transform="translate(9618.693 6878.86)" fill="none" stroke="#0073ff" stroke-miterlimit="10" stroke-width="2"/><line x2="32.359" transform="translate(9632.763 6887.301)" fill="none" stroke="#0073ff" stroke-miterlimit="10" stroke-width="2"/><rect width="52.056" height="22.511" transform="translate(9613.065 6838.059)" fill="none" stroke="#0073ff" stroke-miterlimit="10" stroke-width="2"/></g><g transform="translate(-10176.649 9326.951) rotate(-13)"><rect width="66.506" height="50.095" rx="7.866" transform="translate(9145.235 6736.991)" fill="none" stroke="#0073ff" stroke-miterlimit="10" stroke-width="2"/><g transform="translate(9152.577 6772.729)"><path d="M9168.7,6780.068l3.12,3.12-3.12,3.12" transform="translate(-9155.774 -6778.6)" fill="none" stroke="#0073ff" stroke-linecap="round" stroke-linejoin="round" stroke-width="2"/><path d="M9156.854,6780.068l-3.119,3.12,3.119,3.12" transform="translate(-9153.735 -6778.6)" fill="none" stroke="#0073ff" stroke-linecap="round" stroke-linejoin="round" stroke-width="2"/><line x1="3.303" y2="9.176" transform="translate(6.185)" stroke-width="2" stroke="#0073ff" stroke-linecap="round" stroke-linejoin="round" fill="none"/></g><g transform="translate(9152.577 6742.708)"><path d="M9164.6,6743.611l3.119,3.119-3.119,3.12" transform="translate(-9155.216 -6743.611)" fill="none" stroke="#0073ff" stroke-linecap="round" stroke-linejoin="round" stroke-width="2"/><path d="M9156.854,6743.611l-3.119,3.119,3.119,3.12" transform="translate(-9153.735 -6743.611)" fill="none" stroke="#0073ff" stroke-linecap="round" stroke-linejoin="round" stroke-width="2"/></g><line x2="41.458" transform="translate(9152.146 6755.129)" stroke-width="2" stroke="#0073ff" stroke-linecap="round" stroke-linejoin="round" fill="none"/><line x2="28.503" transform="translate(9152.146 6760.743)" stroke-width="2" stroke="#0073ff" stroke-linecap="round" stroke-linejoin="round" fill="none"/><line x2="32.821" transform="translate(9152.146 6766.357)" stroke-width="2" stroke="#0073ff" stroke-linecap="round" stroke-linejoin="round" fill="none"/></g><g transform="matrix(-0.921, 0.391, -0.391, -0.921, 152.141, 14076.101)"><g transform="translate(0 0)"><rect width="31.435" height="25.353" transform="translate(4.181 0)" stroke-width="2" stroke="#0073ff" stroke-linecap="round" stroke-linejoin="round" fill="none"/><line y1="25.353" transform="translate(19.899 0)" stroke-width="2" stroke="#0073ff" stroke-linecap="round" stroke-linejoin="round" fill="none"/><line x2="31.435" transform="translate(4.181 12.676)" stroke-width="2" stroke="#0073ff" stroke-linecap="round" stroke-linejoin="round" fill="none"/><path d="M0,0C22.76,1.213,5.3,18.766.027.69" transform="translate(20.651 33.447)" fill="none" stroke="#0073ff" stroke-linecap="round" stroke-miterlimit="10" stroke-width="2"/><path d="M11.231,0c-25.148,8.236-.271,22.634.179.782" transform="translate(8.518 33.368)" fill="none" stroke="#0073ff" stroke-linecap="round" stroke-miterlimit="10" stroke-width="2"/><rect width="39.796" height="7.609" rx="3.124" transform="translate(0 25.353)" fill="none" stroke="#0073ff" stroke-miterlimit="10" stroke-width="2"/></g></g><g transform="matrix(0.978, -0.208, 0.208, 0.978, -2789.042, 13906.277)"><path d="M19.286,0a19.286,19.286,0,0,1,0,38.572,19.586,19.586,0,0,1-7.967-1.717A19.289,19.289,0,0,1,19.286,0Z" transform="translate(2877.775 835.978)" fill="none" stroke="#0073ff" stroke-linecap="round" stroke-width="2"/><path d="M12.925,0a12.925,12.925,0,0,1,0,25.85A13.126,13.126,0,0,1,7.586,24.7,12.927,12.927,0,0,1,12.925,0Z" transform="translate(2884.051 842.424)" fill="none" stroke="#0073ff" stroke-linecap="round" stroke-width="2"/><path d="M2930.523,831.738H2913.2l-3.368-8a3.1,3.1,0,0,0-2.86-1.9H2889.02a3.1,3.1,0,0,0-2.858,1.9l-3.368,8h-17.326a5.971,5.971,0,0,0-5.97,5.97V873.6a5.971,5.971,0,0,0,5.97,5.973h65.055a5.971,5.971,0,0,0,5.972-5.971V837.708A5.972,5.972,0,0,0,2930.523,831.738Z" transform="translate(0)" fill="none" stroke="#0073ff" stroke-linecap="round" stroke-linejoin="round" stroke-width="2"/><g transform="translate(2921.498 837.84)" fill="none" stroke="#0073ff" stroke-width="2"><circle cx="3" cy="3" r="3" stroke="none"/><circle cx="3" cy="3" r="2" fill="none"/></g></g><g transform="matrix(0.914, -0.407, 0.407, 0.914, -2352.382, 11907.885)"><g transform="translate(1403.316 3179.479)"><line x2="2.244" y2="3.043" fill="#fff" stroke="#0073ff" stroke-linecap="round" stroke-linejoin="round" stroke-width="2"/><line x2="2.244" y2="3.043" transform="translate(6.287 8.524)" stroke-width="2" stroke="#0073ff" stroke-linecap="round" stroke-linejoin="round" fill="#fff"/></g><g transform="translate(1401.798 3180.998)"><line y1="2.244" x2="3.043" transform="translate(0 6.286)" stroke-width="2" stroke="#0073ff" stroke-linecap="round" stroke-linejoin="round" fill="#fff"/><line y1="2.244" x2="3.043" transform="translate(8.524)" stroke-width="2" stroke="#0073ff" stroke-linecap="round" stroke-linejoin="round" fill="#fff"/></g></g></g></svg>