<svg xmlns="http://www.w3.org/2000/svg" width="260.43" height="706.778"><path d="M158.237 58.822l-12.54 2.78a4.045 4.045 0 01-4.362-6.055l6.86-10.804a4.279 4.279 0 00.068-4.25L141.636 29.4a4.025 4.025 0 014.461-5.968l12.514 3.161a4.153 4.153 0 004.074-1.216l8.454-9.656a4.08 4.08 0 017.122 2.41l.858 12.805a3.97 3.97 0 002.497 3.443l11.864 5.083a3.914 3.914 0 01-.032 7.314l-11.996 4.789a4.274 4.274 0 00-2.53 3.417l-1.154 12.887a4.046 4.046 0 01-7.146 2.161l-8.277-9.82a4.609 4.609 0 00-4.108-1.388z" fill="none" stroke="#0073ff" stroke-miterlimit="10" stroke-width="2.001"/><path d="M252.703 14.737l1.791 4.678 4.318-1.656" fill="none" stroke="#0073ff" stroke-linecap="round" stroke-linejoin="round" stroke-width="2"/><path d="M158.245 489.516l-1.302 4.84 4.468 1.2" fill="none" stroke="#0073ff" stroke-linecap="round" stroke-linejoin="round" stroke-width="2.001"/><path d="M138.927 239.92a2.244 2.244 0 112.245-2.245 2.245 2.245 0 01-2.245 2.245" fill="none" stroke="#0073ff" stroke-linecap="round" stroke-linejoin="round" stroke-width="2"/><path d="M27.964 484.342l1.896 2.571m3.415 4.631l1.896 2.571m-8.489-1.283l2.571-1.896m4.631-3.415l2.571-1.896M98.964 52.342l1.896 2.571m3.415 4.631l1.896 2.571m-8.489-1.283l2.571-1.896m4.631-3.415l2.571-1.896" fill="#fff" stroke="#0073ff" stroke-linecap="round" stroke-linejoin="round" stroke-width="2"/><g fill="none" stroke="#0073ff" stroke-width="2"><g transform="rotate(14 -429.474 331.66)" stroke-miterlimit="10"><path d="M62.712 26.916c0-11.727 2.548-21.677 6.1-25.363a.182.182 0 00-.2-.3 155.764 155.764 0 01-36.923 9.951 127.41 127.41 0 01-17.383 1.235c-19.123 0-19.033 28.948 0 28.948 25.029 0 47.028 8.166 54.306 11.184a.181.181 0 00.2-.3c-3.552-3.683-6.1-13.629-6.1-25.355z"/><path d="M33.658 72.199a3.86 3.86 0 01-3.9 3.969h-8.132c-3.178 0-8.368-20.825-8.368-34.833 4.568.109 5.642.147 11.359.5.003 10.366 8.732 23.78 9.041 30.364z"/><ellipse cx="9.134" cy="26.916" rx="9.134" ry="26.916" transform="translate(62.712)"/><path d="M64.528 20.016l5.016 1.834a3.582 3.582 0 012.826 3.62v2.893a3.582 3.582 0 01-2.826 3.618l-5.016 1.834"/></g><path d="M87.7 162.688a50.029 50.029 0 011.3-16.083 45.505 45.505 0 016.333-14.332" stroke-linecap="round" stroke-linejoin="round"/></g><g transform="rotate(-21 -12671.095 29042.559)"><rect width="43.84" height="71.849" rx="6.108" transform="translate(9509.235 6733.991)" fill="none" stroke="#0073ff" stroke-miterlimit="10" stroke-width="2"/><circle cx="1.686" cy="1.686" r="1.686" transform="translate(9515.979 6783.358)" fill="#0073ff"/><circle cx="1.686" cy="1.686" r="1.686" transform="translate(9522.725 6783.358)" fill="#0073ff"/><circle cx="1.686" cy="1.686" r="1.686" transform="translate(9529.469 6783.358)" fill="#0073ff"/><path fill="none" stroke="#0073ff" stroke-miterlimit="10" stroke-width="2" d="M9516.542 6746.076h29.227v31.475h-29.227zm5.058-12.085h19.11v3.217a1.28 1.28 0 01-1.28 1.283h-16.55a1.28 1.28 0 01-1.28-1.283v-3.217h0zm-5.621 57.236h22.482m-22.482 4.496h16.862"/></g><g transform="rotate(14.98 29299.388 -32570.248)" fill="none" stroke="#0073ff" stroke-miterlimit="10" stroke-width="2"><rect width="99.892" height="75.974" rx="7.866" transform="translate(9590.555 6826.804)"/><path d="M9611.658 6871.825h53.463m-46.428 7.035h46.429m-32.359 8.441h32.359m-52.057-49.242h52.056v22.511h-52.056z"/></g><g transform="rotate(-13 -23656.54 42994.47)" fill="none" stroke="#0073ff" stroke-width="2"><rect width="66.506" height="50.095" rx="7.866" transform="translate(9145.235 6736.991)" stroke-miterlimit="10"/><path d="M9165.503 6774.197l3.12 3.12-3.12 3.12m-9.807-6.24l-3.119 3.12 3.119 3.12m6.369-7.708l-3.303 9.176m3.199-39.197l3.119 3.119-3.119 3.12m-6.265-6.239l-3.119 3.119 3.119 3.12m-3.55 6.182h41.458m-41.458 5.614h28.503m-28.503 5.614h32.821" stroke-linecap="round" stroke-linejoin="round"/></g><g transform="rotate(157 -28.443 269.748)" stroke-width="2" stroke="#0073ff" fill="none"><path stroke-linecap="round" stroke-linejoin="round" d="M4.181 0h31.435v25.353H4.181zm15.718 25.353V0M4.181 12.676h31.435"/><path d="M20.651 33.447c22.76 1.213 5.3 18.766.027.69m-.929-.769c-25.148 8.236-.271 22.634.179.782" stroke-linecap="round" stroke-miterlimit="10"/><rect width="39.796" height="7.609" rx="3.124" transform="translate(0 25.353)" stroke-miterlimit="10"/></g><g fill="none" stroke="#0073ff" stroke-width="2"><path d="M116.85 574.706a19.284 19.284 0 018.022 37.723 19.584 19.584 0 01-8.149-.022 19.287 19.287 0 01.126-37.701z" stroke-linecap="round"/><path d="M118.107 581.028a12.923 12.923 0 015.377 25.281 13.124 13.124 0 01-5.461-.014 12.925 12.925 0 01.084-25.267z" stroke-linecap="round"/><path d="M148.693 563.599l-16.942 3.603-4.958-7.123a3.1 3.1 0 00-3.192-1.264l-17.557 3.734a3.1 3.1 0 00-2.4 2.453l-1.63 8.525-16.945 3.603a5.97 5.97 0 00-4.597 7.08l7.466 35.103a5.97 5.97 0 007.08 4.6l63.625-13.531a5.97 5.97 0 004.598-7.082l-7.466-35.105a5.971 5.971 0 00-7.082-4.596z" stroke-linecap="round" stroke-linejoin="round"/><g transform="rotate(-12.04 2787.906 -383.663)"><circle cx="3" cy="3" r="3" stroke="none"/><circle cx="3" cy="3" r="2"/></g></g><path d="M122.979 696.21l3.29 1.868m5.925 3.364l3.29 1.868m-9.803 2.703l1.868-3.29m3.365-5.925l1.868-3.29" stroke-width="2.001" fill="#fff" stroke="#0073ff" stroke-linecap="round" stroke-linejoin="round"/></svg>