<svg xmlns="http://www.w3.org/2000/svg" width="244.967" height="736.465" viewBox="0 0 244.967 736.465"><g transform="translate(-1552 -13477.579)"><path d="M1335.851,2696.56l-3.254,2.879a1.369,1.369,0,0,1-2.284-1.076l.258-4.322a1.448,1.448,0,0,0-.678-1.269l-3.78-2.2a1.362,1.362,0,0,1,.341-2.5l4.221-1.116a1.405,1.405,0,0,0,1.006-1.028l.918-4.244a1.38,1.38,0,0,1,2.5-.455l2.354,3.648a1.344,1.344,0,0,0,1.3.608l4.344-.442a1.324,1.324,0,0,1,1.19,2.17l-2.764,3.386a1.446,1.446,0,0,0-.188,1.426l1.772,4a1.369,1.369,0,0,1-1.759,1.812l-4.06-1.548A1.56,1.56,0,0,0,1335.851,2696.56Z" transform="matrix(0.998, -0.07, 0.07, 0.998, 243.786, 11346.47)" fill="none" stroke="#0073ff" stroke-miterlimit="10" stroke-width="2"/><path d="M1460.375,3166.3a1.469,1.469,0,1,1,1.469-1.469,1.469,1.469,0,0,1-1.469,1.469" transform="translate(94.094 10363.635)" fill="#fff" stroke="#0073ff" stroke-linecap="round" stroke-linejoin="round" stroke-width="2"/><path d="M0,2.41l3.311.647L3.908,0" transform="translate(1626.798 13479.195) rotate(58)" fill="none" stroke="#0073ff" stroke-linecap="round" stroke-linejoin="round" stroke-width="2"/><path d="M0,3.579l4.917.96L5.8,0" transform="translate(1771.827 13853.177) rotate(111)" fill="none" stroke="#0073ff" stroke-linecap="round" stroke-linejoin="round" stroke-width="2"/><path d="M1461.151,3167.854a2.244,2.244,0,1,1,2.245-2.245,2.245,2.245,0,0,1-2.245,2.245" transform="translate(257.094 10502.635)" fill="none" stroke="#0073ff" stroke-linecap="round" stroke-linejoin="round" stroke-width="2"/><path d="M1461.151,3167.854a2.244,2.244,0,1,1,2.245-2.245,2.245,2.245,0,0,1-2.245,2.245" transform="translate(307.094 10827.635)" fill="none" stroke="#0073ff" stroke-linecap="round" stroke-linejoin="round" stroke-width="2"/><g transform="translate(288.202 10451.432)"><g transform="translate(1403.08 3179.479)"><line x2="1.896" y2="2.571" fill="#fff" stroke="#0073ff" stroke-linecap="round" stroke-linejoin="round" stroke-width="2"/><line x2="1.896" y2="2.571" transform="translate(5.311 7.202)" stroke-width="2" stroke="#0073ff" stroke-linecap="round" stroke-linejoin="round" fill="#fff"/></g><g transform="translate(1401.798 3180.762)"><line y1="1.896" x2="2.571" transform="translate(0 5.311)" stroke-width="2" stroke="#0073ff" stroke-linecap="round" stroke-linejoin="round" fill="#fff"/><line y1="1.896" x2="2.571" transform="translate(7.202)" stroke-width="2" stroke="#0073ff" stroke-linecap="round" stroke-linejoin="round" fill="#fff"/></g></g><g transform="matrix(0.914, -0.407, 0.407, 0.914, -831.382, 11835.885)"><g transform="translate(1403.316 3179.479)"><line x2="2.244" y2="3.043" fill="#fff" stroke="#0073ff" stroke-linecap="round" stroke-linejoin="round" stroke-width="2"/><line x2="2.244" y2="3.043" transform="translate(6.287 8.524)" stroke-width="2" stroke="#0073ff" stroke-linecap="round" stroke-linejoin="round" fill="#fff"/></g><g transform="translate(1401.798 3180.998)"><line y1="2.244" x2="3.043" transform="translate(0 6.286)" stroke-width="2" stroke="#0073ff" stroke-linecap="round" stroke-linejoin="round" fill="#fff"/><line y1="2.244" x2="3.043" transform="translate(8.524)" stroke-width="2" stroke="#0073ff" stroke-linecap="round" stroke-linejoin="round" fill="#fff"/></g></g><g transform="matrix(0.996, 0.087, -0.087, 0.996, 1242.693, 10653.703)"><g transform="translate(595.378 2981.362)"><path d="M696.1,3041.571H597.4v-52.3a7.9,7.9,0,0,1,7.9-7.9h82.9a7.9,7.9,0,0,1,7.9,7.9Z" transform="translate(-590.901 -2981.362)" fill="none" stroke="#0073ff" stroke-miterlimit="10" stroke-width="2"/><rect width="73.032" height="46.66" transform="translate(19.485 13.549)" stroke-width="2" stroke="#0073ff" stroke-linecap="round" stroke-linejoin="round" fill="none"/><g transform="translate(0 60.21)"><path d="M704.054,3000.07H598.4a3.019,3.019,0,0,0-3.019,3.02v5.339a5.232,5.232,0,0,0,5.23,5.23H701.846a5.229,5.229,0,0,0,5.227-5.23v-5.339A3.019,3.019,0,0,0,704.054,3000.07Z" transform="translate(-595.378 -3000.07)" fill="none" stroke="#0073ff" stroke-width="1"/><path d="M704.054,3000.07H598.4a3.019,3.019,0,0,0-3.019,3.02v5.339a5.232,5.232,0,0,0,5.23,5.23H701.846a5.229,5.229,0,0,0,5.227-5.23v-5.339A3.019,3.019,0,0,0,704.054,3000.07Z" transform="translate(-595.378 -3000.07)" fill="none" stroke="#0073ff" stroke-miterlimit="10" stroke-width="2"/></g></g><path d="M614.334,3001.362v-10.736h10.855" transform="translate(42.052 20.55)" fill="none" stroke="#0073ff" stroke-linecap="round" stroke-linejoin="round" stroke-width="2"/><line x1="12.781" y1="12.781" transform="translate(656.385 3011.175)" stroke-width="2" stroke="#0073ff" stroke-linecap="round" stroke-linejoin="round" fill="#fff"/></g><g transform="translate(775.875 10187.661) rotate(7)"><path d="M1282.311,3224.616h-38.8a6.675,6.675,0,0,0-6.675,6.675v20.776a6.674,6.674,0,0,0,6.675,6.675h2.077v10.9l10.073-10.9h26.646a6.674,6.674,0,0,0,6.674-6.675v-20.776A6.675,6.675,0,0,0,1282.311,3224.616Z" transform="translate(0 -0.43)" fill="none" stroke="#0073ff" stroke-linecap="round" stroke-linejoin="round" stroke-width="2"/><line x2="31.02" transform="translate(1246.771 3235.033)" stroke-width="2" stroke="#0073ff" stroke-linecap="round" stroke-linejoin="round" fill="none"/><line x2="31.02" transform="translate(1246.771 3241.441)" stroke-width="2" stroke="#0073ff" stroke-linecap="round" stroke-linejoin="round" fill="none"/><line x2="31.02" transform="translate(1246.771 3248.799)" stroke-width="2" stroke="#0073ff" stroke-linecap="round" stroke-linejoin="round" fill="none"/><path d="M1268.965,3219.337v-6.276a6.675,6.675,0,0,1,6.674-6.675h38.8a6.675,6.675,0,0,1,6.675,6.675v20.777a6.675,6.675,0,0,1-6.675,6.675h-2.077v10.9l-10.073-10.9h-6.657" transform="translate(-0.757 0)" fill="none" stroke="#0073ff" stroke-linecap="round" stroke-linejoin="round" stroke-width="2"/><line x1="31.02" transform="translate(1279.402 3217.233)" stroke-width="2" stroke="#0073ff" stroke-linecap="round" stroke-linejoin="round" fill="none"/><line x1="16.142" transform="translate(1294.282 3223.641)" stroke-width="2" stroke="#0073ff" stroke-linecap="round" stroke-linejoin="round" fill="none"/><line x1="16.142" transform="translate(1294.282 3231)" stroke-width="2" stroke="#0073ff" stroke-linecap="round" stroke-linejoin="round" fill="none"/></g><g transform="matrix(0.978, -0.208, 0.208, 0.978, -9072.08, 9263.858)"><rect width="10" height="65" transform="translate(9559.752 6871.937) rotate(135)" stroke-width="2" stroke="#0073ff" stroke-linecap="round" stroke-linejoin="round" fill="#fff"/><line x1="4.243" y2="4.243" transform="translate(9548.438 6870.522)" stroke-width="2" stroke="#0073ff" stroke-linecap="round" stroke-linejoin="round" fill="none"/><line x1="4.243" y2="4.243" transform="translate(9542.428 6864.512)" stroke-width="2" stroke="#0073ff" stroke-linecap="round" stroke-linejoin="round" fill="none"/><line x1="4.243" y2="4.243" transform="translate(9536.417 6858.502)" stroke-width="2" stroke="#0073ff" stroke-linecap="round" stroke-linejoin="round" fill="none"/><line x1="4.243" y2="4.243" transform="translate(9530.406 6852.491)" stroke-width="2" stroke="#0073ff" stroke-linecap="round" stroke-linejoin="round" fill="none"/><line x1="4.243" y2="4.243" transform="translate(9524.396 6846.481)" stroke-width="2" stroke="#0073ff" stroke-linecap="round" stroke-linejoin="round" fill="none"/><line x1="4.243" y2="4.243" transform="translate(9518.386 6840.471)" stroke-width="2" stroke="#0073ff" stroke-linecap="round" stroke-linejoin="round" fill="none"/><line x1="4.243" y2="4.243" transform="translate(9512.375 6834.46)" stroke-width="2" stroke="#0073ff" stroke-linecap="round" stroke-linejoin="round" fill="none"/></g><g transform="matrix(0.966, -0.259, 0.259, 0.966, -9224.392, 9678.362)"><path d="M9459.073,6833.2l4.559,3.9-18.205,21.274-6.181,2.608,1.622-6.509Z" fill="none" stroke="#0073ff" stroke-linecap="round" stroke-linejoin="round" stroke-width="2"/><line x1="4.559" y1="3.901" transform="translate(9440.868 6854.471)" stroke-width="2" stroke="#0073ff" stroke-linecap="round" stroke-linejoin="round" fill="none"/><path d="M0,0H6A0,0,0,0,1,6,0V3.16A2.84,2.84,0,0,1,3.16,6H2.84A2.84,2.84,0,0,1,0,3.16V0A0,0,0,0,1,0,0Z" transform="matrix(-0.76, -0.65, 0.65, -0.76, 9463.632, 6837.098)" fill="none" stroke="#0073ff" stroke-linecap="round" stroke-linejoin="round" stroke-width="2"/><path d="M9453.235,6858.736v14.255a4,4,0,0,1-4,4h-35a4,4,0,0,1-4-4v-47a4,4,0,0,1,4-4h35a4,4,0,0,1,4,4v5.213" fill="none" stroke="#0073ff" stroke-linecap="round" stroke-linejoin="round" stroke-width="2"/><line x2="29" transform="translate(9417.235 6831.991)" stroke-width="2" stroke="#0073ff" stroke-linecap="round" stroke-linejoin="round" fill="none"/><line x2="23" transform="translate(9417.235 6840.658)" stroke-width="2" stroke="#0073ff" stroke-linecap="round" stroke-linejoin="round" fill="none"/><line x2="17" transform="translate(9417.235 6849.325)" stroke-width="2" stroke="#0073ff" stroke-linecap="round" stroke-linejoin="round" fill="none"/><line x2="14" transform="translate(9417.235 6857.991)" stroke-width="2" stroke="#0073ff" stroke-linecap="round" stroke-linejoin="round" fill="none"/></g><g transform="matrix(0.998, 0.07, -0.07, 0.998, -7269.194, 6254.705)"><path d="M9520,6876.9l-6.57-6.57,42.862-41.267,4.975,4.974Z" transform="translate(0.561 0.187)" fill="#fff" stroke="#0073ff" stroke-linecap="round" stroke-linejoin="round" stroke-width="2"/><line x1="5.354" y2="5.354" transform="translate(9523.398 6862.332)" stroke-width="2" stroke="#0073ff" stroke-linecap="round" stroke-linejoin="round" fill="none"/><path d="M9509.217,6880.824l-2.288-2.287,7.036-11.319,6.57,6.57Z" transform="translate(0.029 3.301)" fill="none" stroke="#0073ff" stroke-linecap="round" stroke-linejoin="round" stroke-width="2"/><line x1="1.53" y2="1.53" transform="translate(9506.572 6882.982)" stroke-width="2" stroke="#0073ff" stroke-linecap="round" stroke-linejoin="round" fill="none"/><path d="M1.16,0h.926a1.16,1.16,0,0,1,1.16,1.16V5.408a0,0,0,0,1,0,0H0a0,0,0,0,1,0,0V1.16A1.16,1.16,0,0,1,1.16,0Z" transform="translate(9562.021 6826.768) rotate(45)" fill="none" stroke="#0073ff" stroke-linecap="round" stroke-linejoin="round" stroke-width="2"/></g><g transform="translate(-1070.066 12999.134) rotate(14)"><g transform="translate(2957.306 337.704)"><path d="M2998.631,394.569a2.14,2.14,0,0,1-2.207,0c-5.632-3.418-12.979-4.327-19.781-4.185-7.267.152-13.914.089-17.193.039a2.177,2.177,0,0,1-2.145-2.178V339.952a2.174,2.174,0,0,1,2.132-2.177c3.206-.064,9.7-.142,17.2.051a35.836,35.836,0,0,1,20.887,6.865,35.84,35.84,0,0,1,20.887-6.865c7.506-.193,14-.115,17.2-.051a2.174,2.174,0,0,1,2.132,2.177v48.293a2.177,2.177,0,0,1-2.146,2.178c-3.279.05-9.926.113-17.192-.039C3011.61,390.241,3004.263,391.151,2998.631,394.569Z" transform="translate(-2957.306 -337.704)" fill="none" stroke="#0073ff" stroke-miterlimit="10" stroke-width="2"/><line y1="50.879" transform="translate(40.222 7.198)" fill="none" stroke="#0073ff" stroke-miterlimit="10" stroke-width="2"/></g><g transform="translate(2966.904 349.731)"><g transform="translate(41.671)"><path d="M3004.377,350.875c3.949-1.347,5.748-1.911,9.474-2.006,6.035-.156,6.563-.136,10.1-.089" transform="translate(-3004.377 -348.746)" fill="none" stroke="#0073ff" stroke-linecap="round" stroke-linejoin="round" stroke-width="2"/><g transform="translate(0 12.699)"><path d="M3004.377,362.534c3.949-1.347,5.748-1.911,9.474-2.007,6.035-.155,6.563-.135,10.1-.088" transform="translate(-3004.377 -360.405)" fill="none" stroke="#0073ff" stroke-linecap="round" stroke-linejoin="round" stroke-width="2"/></g><g transform="translate(0 25.397)"><path d="M3004.377,374.192c3.949-1.346,5.748-1.91,9.474-2.006,6.035-.155,6.563-.135,10.1-.088" transform="translate(-3004.377 -372.064)" fill="none" stroke="#0073ff" stroke-linecap="round" stroke-linejoin="round" stroke-width="2"/></g></g><path d="M2985.7,350.875c-3.949-1.347-5.748-1.911-9.474-2.006-6.035-.156-6.561-.136-10.1-.089" transform="translate(-2966.118 -348.746)" fill="none" stroke="#0073ff" stroke-linecap="round" stroke-linejoin="round" stroke-width="2"/><g transform="translate(0 12.699)"><path d="M2985.7,362.534c-3.949-1.347-5.748-1.911-9.474-2.007-6.035-.155-6.561-.135-10.1-.088" transform="translate(-2966.118 -360.405)" fill="none" stroke="#0073ff" stroke-linecap="round" stroke-linejoin="round" stroke-width="2"/></g><g transform="translate(0 25.397)"><path d="M2985.7,374.192c-3.949-1.346-5.748-1.91-9.474-2.006-6.035-.155-6.561-.135-10.1-.088" transform="translate(-2966.118 -372.064)" fill="none" stroke="#0073ff" stroke-linecap="round" stroke-linejoin="round" stroke-width="2"/></g></g></g><g transform="translate(-1152.363 12614.711) rotate(14)"><path d="M3119.659,843.225a23.856,23.856,0,0,0-1.556-5.739c-2.328,2.247-8.59,11.805-5.834,22.292" transform="translate(-3.502 -8.134)" fill="none" stroke="#0073ff" stroke-linecap="round" stroke-linejoin="round" stroke-width="2"/><path d="M3115.133,850.893c27.415,1.545,25.6-12.307,38.67-30.746-5.853-1.24-21.784-3.708-33.022,12.442" transform="translate(-5.085)" fill="none" stroke="#0073ff" stroke-linecap="round" stroke-linejoin="round" stroke-width="2"/><path d="M3132.207,840.669c-7.515,4.9-22.954,17.342-28.486,28.918" transform="translate(0 -9.552)" fill="none" stroke="#0073ff" stroke-linecap="round" stroke-linejoin="round" stroke-width="2"/><path d="M3121.051,895.813c2.076-.752,4.82-2.614,7.225-2.779s3.207,3.4,6.08,2.5c2.076-.752,4.825-2.709,7.23-2.874s3.265,3.669,6.075,2.591c1.485-.57,2.926-1.005,2.926-1.005" transform="translate(-7.722 -32.715)" fill="none" stroke="#0073ff" stroke-linecap="round" stroke-linejoin="round" stroke-width="2"/></g></g></svg>