<svg xmlns="http://www.w3.org/2000/svg" width="244.967" height="736.465"><path d="M213.724 466.548l-3.045 3.101a1.37 1.37 0 01-2.355-.914l-.045-4.331a1.449 1.449 0 00-.766-1.22l-3.926-1.93a1.363 1.363 0 01.165-2.519l4.135-1.41a1.406 1.406 0 00.932-1.096l.619-4.3a1.38 1.38 0 012.463-.628l2.604 3.476a1.345 1.345 0 001.34.515l4.305-.745a1.325 1.325 0 011.34 2.082l-2.522 3.573a1.447 1.447 0 00-.088 1.436l2.049 3.868a1.37 1.37 0 01-1.63 1.932l-4.16-1.26a1.56 1.56 0 00-1.415.37z" fill="none" stroke="#0073ff" stroke-miterlimit="10" stroke-width="2.001"/><path d="M2.469 52.356a1.469 1.469 0 111.469-1.469 1.469 1.469 0 01-1.469 1.469" fill="#fff" stroke="#0073ff" stroke-linecap="round" stroke-linejoin="round" stroke-width="2"/><path d="M72.754 2.893l1.206 3.15 2.91-1.113m139.616 369.385l-2.659 4.247 3.921 2.45M166.245 192.91a2.244 2.244 0 112.245-2.245 2.245 2.245 0 01-2.245 2.245m50 325a2.244 2.244 0 112.245-2.245 2.245 2.245 0 01-2.245 2.245" fill="none" stroke="#0073ff" stroke-linecap="round" stroke-linejoin="round" stroke-width="2"/><path d="M139.282 153.332l1.896 2.571m3.415 4.631l1.896 2.571M138 161.822l2.571-1.896m4.631-3.415l2.571-1.896" fill="#fff" stroke="#0073ff" stroke-linecap="round" stroke-linejoin="round" stroke-width="2"/><path d="M193.297 693.2l3.29 1.868m5.925 3.364l3.29 1.868M196 703.003l1.867-3.29m3.365-5.925l1.868-3.29" stroke-width="2.001" fill="#fff" stroke="#0073ff" stroke-linecap="round" stroke-linejoin="round"/><g stroke="#0073ff"><g fill="none"><path d="M123.851 266.479l-98.305-8.587 4.55-52.09a7.898 7.898 0 018.556-7.182l82.568 7.212a7.898 7.898 0 017.181 8.556z" stroke-miterlimit="10" stroke-width="2"/><path stroke-width="2" stroke-linecap="round" stroke-linejoin="round" d="M42.54 212.548l72.74 6.354-4.06 46.474-72.74-6.354z"/><path d="M127.314 266.782l-105.231-9.191a3.018 3.018 0 00-3.27 2.745l-.465 5.317a5.23 5.23 0 004.755 5.665l100.83 8.807a5.228 5.228 0 005.66-4.754l.465-5.318a3.018 3.018 0 00-2.744-3.27z"/><path d="M127.314 266.782l-105.231-9.191a3.018 3.018 0 00-3.27 2.745l-.465 5.317a5.23 5.23 0 004.755 5.665l100.83 8.807a5.228 5.228 0 005.66-4.754l.465-5.318a3.018 3.018 0 00-2.744-3.27z" stroke-miterlimit="10" stroke-width="2"/></g><path d="M81.547 243.054l.934-10.693 10.812.944" fill="none" stroke-linecap="round" stroke-linejoin="round" stroke-width="2"/><path stroke-width="2" stroke-linecap="round" stroke-linejoin="round" fill="#fff" d="M94.098 246.202L82.48 232.36"/></g><g fill="none" stroke="#0073ff" stroke-linecap="round" stroke-linejoin="round" stroke-width="2"><path d="M103.698 66.51l-38.51-4.729a6.675 6.675 0 00-7.44 5.812l-2.531 20.621a6.674 6.674 0 005.812 7.439l2.061.253-1.328 10.819 11.326-9.591 26.448 3.247a6.674 6.674 0 007.437-5.812l2.532-20.621a6.675 6.675 0 00-5.807-7.438zm-36.597 6.435l30.79 3.78m-31.571 2.58l30.79 3.78m-31.686 3.523l30.789 3.78"/><path d="M90.291 59.978l.765-6.229a6.675 6.675 0 017.438-5.812l38.51 4.729a6.675 6.675 0 015.813 7.438l-2.532 20.623a6.675 6.675 0 01-7.44 5.811l-2.06-.253-1.33 10.819-8.669-12.046-6.607-.812m18.268-21.211l-30.789-3.78m30.01 10.14l-16.021-1.967m15.124 9.272l-16.021-1.968"/></g><g stroke-width="2" stroke="#0073ff" stroke-linecap="round" stroke-linejoin="round"><path fill="#fff" d="M154.72 518.605l-5.444 8.386-54.511-35.39 5.444-8.387z"/><path fill="none" d="M147.51 518.692l-3.267 5.032m-3.86-9.66l-3.267 5.032m-3.862-9.659l-3.267 5.032m-3.862-9.661l-3.267 5.032m-3.861-9.66l-3.267 5.033m-3.86-9.66l-3.268 5.032m-3.862-9.661l-3.267 5.033"/></g><g fill="none" stroke="#0073ff" stroke-linecap="round" stroke-linejoin="round" stroke-width="2"><path d="M130.871 351.754l5.414 2.587-12.076 25.266-5.295 4.12-.119-6.708zm-6.662 27.851l-5.415-2.588m17.491-22.678l-5.415-2.586h0l1.362-2.852a2.84 2.84 0 013.787-1.34l.29.139a2.84 2.84 0 011.338 3.787l-1.362 2.852h0z"/><path d="M131.846 377.934l3.692 13.77a4 4 0 01-2.828 4.9L98.9 405.67a4 4 0 01-4.9-2.828L81.827 357.44a4 4 0 012.828-4.9l33.81-9.065a4 4 0 014.9 2.828l1.35 5.036m-34.572 10.083l28.014-7.51m-25.77 15.883l22.218-5.957m-19.973 14.329l16.422-4.403m-14.177 12.774l13.524-3.626"/></g><g stroke="#0073ff" stroke-linecap="round" stroke-linejoin="round" stroke-width="2.001"><path d="M198.93 306.898l-6.097-7.017 45.665-38.184 4.617 5.313z" fill="#fff"/><path fill="none" d="M208.137 292.746l-5.718 4.968m-15.274 15.416l-2.124-2.443 7.815-10.803 6.097 7.016zm-1.062-1.22l-1.634 1.419m60.141-52.871l.608.7a1.16 1.16 0 01-.115 1.636l-3.208 2.788h0l-2.13-2.451h0l3.208-2.788a1.16 1.16 0 011.637.115z"/></g><path d="M192.038 629.838a2.14 2.14 0 01-2.141-.534c-4.638-4.679-11.547-7.338-18.181-8.846a495.24 495.24 0 01-16.692-4.121 2.177 2.177 0 01-1.555-2.633l11.684-46.858a2.174 2.174 0 012.595-1.597c3.126.714 9.446 2.21 16.677 4.21a35.836 35.836 0 0118.605 11.715 35.84 35.84 0 0121.928-1.608 389.584 389.584 0 0116.701 4.111 2.174 2.174 0 011.542 2.629l-11.683 46.858a2.177 2.177 0 01-2.61 1.594 495.185 495.185 0 01-16.671-4.197c-6.559-1.782-13.907-2.677-20.199-.723zm-1.363.909l12.308-49.367" fill="none" stroke="#0073ff" stroke-miterlimit="10" stroke-width="2"/><path d="M212.019 590.803c4.157-.351 6.04-.463 9.678.346 5.893 1.309 6.4 1.456 9.821 2.357m-22.571 9.619c4.157-.351 6.04-.463 9.678.345 5.893 1.31 6.4 1.457 9.821 2.358m-22.571 9.617c4.157-.35 6.04-.463 9.678.346 5.893 1.31 6.4 1.456 9.821 2.358m-34.788-32.689c-3.506-2.263-5.115-3.245-8.707-4.239-5.818-1.611-6.334-1.719-9.779-2.53m15.414 19.09c-3.506-2.262-5.115-3.244-8.707-4.239-5.818-1.61-6.334-1.718-9.779-2.529m15.414 19.088c-3.506-2.261-5.115-3.244-8.707-4.238-5.818-1.61-6.334-1.718-9.779-2.529" fill="none" stroke="#0073ff" stroke-linecap="round" stroke-linejoin="round" stroke-width="2"/><g fill="none" stroke="#0073ff" stroke-linecap="round" stroke-linejoin="round" stroke-width="2"><path d="M117.204 701.284a23.856 23.856 0 00-.121-5.945c-2.803 1.617-11.191 9.376-11.054 20.218"/><path d="M107.454 715.139c26.227 8.13 27.817-5.749 44.96-20.478-5.38-2.62-20.24-8.868-35.052 4.084m16.377 2.565c-8.478 2.937-26.468 11.275-34.636 21.168m8.582 5.297c2.196-.228 5.309-1.37 7.682-.949s2.29 4.075 5.295 3.897c2.196-.228 5.337-1.461 7.71-1.04s2.28 4.35 5.268 3.984a47.934 47.934 0 013.082-.267"/></g></svg>