<svg xmlns="http://www.w3.org/2000/svg" width="55.674" height="53.259"><path d="M29.01 2.729l6.962 14.107a1.31 1.31 0 00.985.716l15.567 2.262a1.308 1.308 0 01.725 2.231L41.984 33.026a1.306 1.306 0 00-.376 1.158l2.659 15.5a1.308 1.308 0 01-1.9 1.379l-13.924-7.32a1.308 1.308 0 00-1.217 0l-13.924 7.32a1.308 1.308 0 01-1.9-1.379l2.659-15.5a1.309 1.309 0 00-.376-1.158L2.423 22.044a1.308 1.308 0 01.724-2.231l15.568-2.262a1.309 1.309 0 00.985-.716l6.962-14.107a1.308 1.308 0 012.348.001z" fill="none" stroke="#0073ff" stroke-linecap="round" stroke-linejoin="round" stroke-width="4"/></svg>