<svg xmlns="http://www.w3.org/2000/svg" width="726.19" height="331.12"><path d="M606.04 55.255H176.182a6.594 6.594 0 00-6.35 6.812v256.481a3.96 3.96 0 003.815 4.09h434.935a3.96 3.96 0 003.815-4.09V62.065a6.594 6.594 0 00-6.357-6.81zm-6.431 250.9a2.73 2.73 0 01-2.628 2.817H185.246a2.727 2.727 0 01-2.628-2.817V71.741a2.729 2.729 0 012.628-2.822h411.736a2.731 2.731 0 012.628 2.822z" fill="#0073ff"/><path d="M650.013 323.597a1.017 1.017 0 00-1.066-.96H134.758a1.017 1.017 0 00-1.066.96v2.072l7.949 1.987a116.549 116.549 0 0028.237 3.463h443.948a116.536 116.536 0 0028.236-3.463l7.95-1.987z" fill="#0073ff"/><path d="M650.012 323.571v2.017H133.69v-2.017a1.006 1.006 0 011.066-.933h514.19a1 1 0 011.066.933z" fill="#5ba5ff"/><g fill="none" stroke="#0073ff" stroke-linecap="round" stroke-linejoin="round" stroke-width="2"><path d="M513.23 294.11a3.939 3.939 0 11-3.939-3.939 3.929 3.929 0 013.939 3.939z"/><path d="M512.983 291.583l1.411-3.678-3.261 2.732m-5.529.946l-1.411-3.678 3.262 2.732m12.755 15.754s3.891 1.96 5.925-.819c2.358-3.223-2.5-5.706.036-8.834m-18.801 1.748v7a1.682 1.682 0 00-1.856 1.608c0 1.33.479 1.626 1.951 1.626h5.322m-.546-11.998c2.525 0 8.209 5.465 7.977 9.572"/><path d="M514.078 303.237a2.607 2.607 0 00-2.37 2.527v.83a2.4 2.4 0 002.668 2.516h3.24c2.091 0 2.594-.4 2.594-2.379"/></g><path d="M208.456 261.505H93.371v-48.666h115.085zm-104.3-12.7h10.784m71.942 0h10.783m-93.509-11.63h10.784m71.942 0h10.783m-93.509-11.63h10.784m9.9 0h10.784m9.9 0h10.784m9.9 0h10.785m9.9 0h10.772m-25.934 35.964h-38.36v-16.537h38.36zm-45.277-24.334h48.911m-30.552 14.371v9.962m14.351-9.962v9.962m27.718-48.666h-67.71v-17.871h67.71zm-19.6-17.868h-27.2l5-14.98h17.2zm-63.123 17.865v-52.337m-4.161 23.233h6.457c1.184 0 2.145 1.676 2.145 3.745s-.96 3.745-2.145 3.745m-6.457-23.958h6.457c1.184 0 2.145 1.676 2.145 3.745s-.96 3.745-2.145 3.745" fill="#fff" stroke="#0073ff" stroke-linecap="round" stroke-linejoin="round" stroke-width="2"/><path d="M199.101 261.505H83.259a33.6 33.6 0 00-20.359 6.87l-12.762 9.718a33.607 33.607 0 01-20.359 6.869H1.001" fill="none" stroke="#0073ff" stroke-linecap="round" stroke-linejoin="round" stroke-width="2"/><path d="M112.941 299.156l15.289-37.651h48.755l15.29 37.651m-67.436-29.335h55.538m-59.438 9.563h63.338m-67.237 9.562h71.137m-75.236 10.21h79.334" fill="#fff" stroke="#0073ff" stroke-linecap="round" stroke-linejoin="round" stroke-width="2"/><path d="M237.15 302.57s-23.109-3.03 0-33.348c0 0 23.242 28.735 0 33.348zm5.143-13.166a4.047 4.047 0 01-4.049 4.042h-1.094m-4.66-.78a3.678 3.678 0 003.682 3.674h.979m-4-12.519a3.994 3.994 0 004 3.993m0 20.824v-30.584M703.15 301.57s-23.109-3.03 0-33.348c0 0 23.242 28.735 0 33.348zm5.143-13.166a4.047 4.047 0 01-4.049 4.042h-1.094m-4.66-.78a3.678 3.678 0 003.682 3.674h.979m-4-12.519a3.994 3.994 0 004 3.993m0 20.824v-30.584m-678.096-1.628h7.425l-7.994-10.994 6.418-.071-9.845-13.549-9.845 13.549 6.418.071-7.995 10.994h15.418zm-3.994.005v8.7" fill="none" stroke="#0073ff" stroke-linecap="round" stroke-linejoin="round" stroke-width="2"/><path d="M638.791 291.852l-51.3-.2v-63.029h51.3zm-11.947-28.467v-6.554m-13.94 6.554v-6.554m-13.941 6.554v-6.554m27.881-9.723v-6.554m-13.94 6.554v-6.554m-13.941 6.554v-6.554m27.881 39.108v-6.554m-13.94 6.554v-6.554m-13.941 6.554v-6.554m57.394-84.202v24.943m-5.308 19.161v-6.56m12.836 0v6.56m-12.836 35.578v-6.56m12.836 0v6.56m-12.836-17.122v-6.559m12.836 0v6.559m0 29.315v6.56m5.19 20.729a16.433 16.433 0 01-11.382-4.579l-7.52-7.221a16.433 16.433 0 00-11.382-4.579h0v-76.97h37.612v93.35zm56.115.162h-48.185m-103.815-16.38h21.379" fill="#fff" stroke="#0073ff" stroke-linecap="round" stroke-linejoin="round" stroke-width="2"/><g fill="none" stroke="#0073ff" stroke-linecap="round" stroke-linejoin="round" stroke-width="2"><path d="M347.522 279.525a11.595 11.595 0 11-11.594 11.6 11.6 11.6 0 0111.594-11.6z"/><path d="M346.776 293.608h-1.413c-2.14 0-3.877-2.226-3.877-4.976m6.036 7.977h1.6a3.842 3.842 0 003.844-3.842m-5.444 17.592v-25.64"/></g><path d="M226.69 75.883a14.044 14.044 0 0014 14h50.5a14.004 14.004 0 000-28.007h-3.632a19.112 19.112 0 00-35.632-9.341 12.805 12.805 0 00-11.128 9.341h-.107a14.045 14.045 0 00-14.001 14.007z" fill="#fff" stroke="#0073ff" stroke-linecap="round" stroke-linejoin="round" stroke-width="2"/><path d="M485.394 123.554c8.1-1.363 12.26 3.827 12.26 3.827a13.45 13.45 0 0112.26-3.827m13.866-14.699a7.938 7.938 0 00-7.234 2.258 7.72 7.72 0 00-7.234-2.258M274.976 285.707h46.327l-22.42-24.138zm4.473 0h38.871v24.358h-38.871zm25.986 10.1h-13.386" fill="none" stroke="#0073ff" stroke-linecap="round" stroke-linejoin="round" stroke-width="2"/><g fill="#fff" stroke="#0073ff" stroke-linecap="round" stroke-linejoin="round" stroke-width="2"><path d="M615.432 23.713a7.942 7.942 0 017.918-7.918h3.494a7.584 7.584 0 011.7-3.836 7.084 7.084 0 00-4.151-1.348h-.054a6.53 6.53 0 00-5.676-4.763 9.746 9.746 0 00-18.17 4.763h-1.853a7.142 7.142 0 000 14.283h16.888a7.834 7.834 0 01-.096-1.181z"/><path d="M671.685 23.712a7.942 7.942 0 01-7.919 7.918H623.35a7.918 7.918 0 110-15.836h3.493a7.541 7.541 0 018.676-6.474 10.8 10.8 0 0119.9 1.34 6.174 6.174 0 015.892 5.133h2.45a7.942 7.942 0 017.924 7.919z"/></g></svg>