<svg xmlns="http://www.w3.org/2000/svg" width="726.19" height="331.12" viewBox="0 0 726.19 331.12"><g transform="translate(-568.31 -15354.745)"><g transform="translate(702 15410)"><g transform="translate(0)"><path d="M2504.058,2474.09H2074.2a6.594,6.594,0,0,0-6.35,6.812v256.481a3.96,3.96,0,0,0,3.815,4.09H2506.6a3.96,3.96,0,0,0,3.815-4.09V2480.9A6.594,6.594,0,0,0,2504.058,2474.09Zm-6.431,250.9a2.73,2.73,0,0,1-2.628,2.817H2083.264a2.727,2.727,0,0,1-2.628-2.817V2490.576a2.729,2.729,0,0,1,2.628-2.822H2495a2.731,2.731,0,0,1,2.628,2.822Z" transform="translate(-2031.708 -2474.09)" fill="#0073ff"/><g transform="translate(0 267.382)"><path d="M2486.412,3065.051a1.017,1.017,0,0,0-1.066-.96H1971.157a1.017,1.017,0,0,0-1.066.96v2.072l7.949,1.987a116.549,116.549,0,0,0,28.237,3.463h443.948a116.536,116.536,0,0,0,28.236-3.463l7.95-1.987Z" transform="translate(-1970.089 -3064.091)" fill="#0073ff"/><path d="M2486.409,3065.025v2.017H1970.087v-2.017a1.006,1.006,0,0,1,1.066-.933h514.19A1,1,0,0,1,2486.409,3065.025Z" transform="translate(-1970.087 -3064.091)" fill="#5ba5ff"/></g></g></g><g transform="translate(1072.503 15642.65)"><path d="M2041.9,900.632a3.939,3.939,0,1,1-3.939-3.939A3.929,3.929,0,0,1,2041.9,900.632Z" transform="translate(-2032.863 -894.427)" fill="none" stroke="#0073ff" stroke-linecap="round" stroke-linejoin="round" stroke-width="2"/><path d="M2041.3,898.244l1.411-3.678-3.261,2.732" transform="translate(-2032.51 -894.566)" fill="none" stroke="#0073ff" stroke-linecap="round" stroke-linejoin="round" stroke-width="2"/><path d="M2034.345,898.244l-1.411-3.678,3.262,2.732" transform="translate(-2032.934 -894.566)" fill="none" stroke="#0073ff" stroke-linecap="round" stroke-linejoin="round" stroke-width="2"/><path d="M2047.972,912.512s3.891,1.96,5.925-.819c2.358-3.223-2.5-5.706.036-8.834" transform="translate(-2031.955 -894.026)" fill="none" stroke="#0073ff" stroke-linecap="round" stroke-linejoin="round" stroke-width="2"/><path d="M2036.03,904.5v7a1.682,1.682,0,0,0-1.856,1.608c0,1.33.479,1.626,1.951,1.626h5.322" transform="translate(-2032.853 -893.919)" fill="none" stroke="#0073ff" stroke-linecap="round" stroke-linejoin="round" stroke-width="2"/><path d="M2040.49,902.844c2.525,0,8.209,5.465,7.977,9.572" transform="translate(-2032.442 -894.027)" fill="none" stroke="#0073ff" stroke-linecap="round" stroke-linejoin="round" stroke-width="2"/><path d="M2042.36,908.961a2.607,2.607,0,0,0-2.37,2.527v.83a2.4,2.4,0,0,0,2.668,2.516h3.24c2.091,0,2.594-.4,2.594-2.379" transform="translate(-2032.475 -893.629)" fill="none" stroke="#0073ff" stroke-linecap="round" stroke-linejoin="round" stroke-width="2"/></g><g transform="translate(569.31 15515.247)"><path d="M1850.091,1032.866H1735.006V984.2h115.085Zm-104.3-12.7h10.784m71.942,0H1839.3m-93.509-11.63h10.784m71.942,0H1839.3m-93.509-11.63h10.784m9.9,0h10.784m9.9,0h10.784m9.9,0h10.785m9.9,0H1839.3m-25.934,35.964h-38.36v-16.537h38.36Zm-45.277-24.334H1817m-30.552,14.371v9.962m14.351-9.962v9.962m27.718-48.666h-67.71V966.332h67.71Zm-19.6-17.868h-27.2l5-14.98h17.2ZM1745.794,984.2V931.863m-4.161,23.233h6.457c1.184,0,2.145,1.676,2.145,3.745s-.96,3.745-2.145,3.745m-6.457-23.958h6.457c1.184,0,2.145,1.676,2.145,3.745s-.96,3.745-2.145,3.745" transform="translate(-1642.635 -931.863)" fill="#fff" stroke="#0073ff" stroke-linecap="round" stroke-linejoin="round" stroke-width="2"/><g transform="translate(0 101.003)"><path d="M1842.884,1030.518H1727.042a33.6,33.6,0,0,0-20.359,6.87l-12.762,9.718a33.607,33.607,0,0,1-20.359,6.869h-28.778" transform="translate(-1644.783 -1030.518)" fill="none" stroke="#0073ff" stroke-linecap="round" stroke-linejoin="round" stroke-width="2"/></g><g transform="translate(111.941 101.003)"><path d="M1754.122,1068.169l15.289-37.651h48.755l15.29,37.651" transform="translate(-1754.122 -1030.518)" fill="#fff" stroke="#0073ff" stroke-linecap="round" stroke-linejoin="round" stroke-width="2"/><line x2="55.538" transform="translate(11.898 8.316)" stroke-width="2" stroke="#0073ff" stroke-linecap="round" stroke-linejoin="round" fill="#fff"/><line x2="63.338" transform="translate(7.998 17.879)" stroke-width="2" stroke="#0073ff" stroke-linecap="round" stroke-linejoin="round" fill="#fff"/><line x2="71.137" transform="translate(4.099 27.441)" stroke-width="2" stroke="#0073ff" stroke-linecap="round" stroke-linejoin="round" fill="#fff"/><line x2="79.334" transform="translate(0 37.651)" stroke-width="2" stroke="#0073ff" stroke-linecap="round" stroke-linejoin="round" fill="#fff"/></g></g><path d="M1699.375,1192.048s-23.109-3.03,0-33.348C1699.375,1158.7,1722.617,1187.435,1699.375,1192.048Zm5.143-13.166a4.047,4.047,0,0,1-4.049,4.042h-1.094m-4.66-.78a3.678,3.678,0,0,0,3.682,3.674h.979m-4-12.519a3.994,3.994,0,0,0,4,3.993m0,20.824v-30.584" transform="translate(-893.915 14465.267)" fill="none" stroke="#0073ff" stroke-linecap="round" stroke-linejoin="round" stroke-width="2"/><path d="M1699.375,1192.048s-23.109-3.03,0-33.348C1699.375,1158.7,1722.617,1187.435,1699.375,1192.048Zm5.143-13.166a4.047,4.047,0,0,1-4.049,4.042h-1.094m-4.66-.78a3.678,3.678,0,0,0,3.682,3.674h.979m-4-12.519a3.994,3.994,0,0,0,4,3.993m0,20.824v-30.584" transform="translate(-427.915 14464.267)" fill="none" stroke="#0073ff" stroke-linecap="round" stroke-linejoin="round" stroke-width="2"/><g transform="translate(577.949 15605.561)"><path d="M1663.7,1047.3h7.425l-7.994-10.994,6.418-.071-9.845-13.549-9.845,13.549,6.418.071-7.995,10.994H1663.7Z" transform="translate(-1648.284 -1022.69)" fill="none" stroke="#0073ff" stroke-linecap="round" stroke-linejoin="round" stroke-width="2"/><line y2="8.7" transform="translate(11.422 24.615)" stroke-width="2" stroke="#0073ff" stroke-linecap="round" stroke-linejoin="round" fill="none"/></g><g transform="translate(1150.149 15543.651)"><path d="M2178.358,1204.27l-51.3-.2v-63.029h51.3Z" transform="translate(-2121.406 -1101.324)" fill="#fff" stroke="#0073ff" stroke-linecap="round" stroke-linejoin="round" stroke-width="2"/><g transform="translate(17.124 51.648)"><line y1="6.554" transform="translate(27.881 16.277)" stroke-width="2" stroke="#0073ff" stroke-linecap="round" stroke-linejoin="round" fill="#fff"/><line y1="6.554" transform="translate(13.941 16.277)" stroke-width="2" stroke="#0073ff" stroke-linecap="round" stroke-linejoin="round" fill="#fff"/><line y1="6.554" transform="translate(0 16.277)" stroke-width="2" stroke="#0073ff" stroke-linecap="round" stroke-linejoin="round" fill="#fff"/><line y1="6.554" transform="translate(27.881)" stroke-width="2" stroke="#0073ff" stroke-linecap="round" stroke-linejoin="round" fill="#fff"/><line y1="6.554" transform="translate(13.941)" stroke-width="2" stroke="#0073ff" stroke-linecap="round" stroke-linejoin="round" fill="#fff"/><line y1="6.554" fill="#fff" stroke="#0073ff" stroke-linecap="round" stroke-linejoin="round" stroke-width="2"/><line y1="6.554" transform="translate(27.881 32.554)" stroke-width="2" stroke="#0073ff" stroke-linecap="round" stroke-linejoin="round" fill="#fff"/><line y1="6.554" transform="translate(13.941 32.554)" stroke-width="2" stroke="#0073ff" stroke-linecap="round" stroke-linejoin="round" fill="#fff"/><line y1="6.554" transform="translate(0 32.554)" stroke-width="2" stroke="#0073ff" stroke-linecap="round" stroke-linejoin="round" fill="#fff"/></g><path d="M2192.279,1104.145v24.943m-5.308,19.161v-6.56m12.836,0v6.56m-12.836,35.578v-6.56m12.836,0v6.56m-12.836-17.122v-6.559m12.836,0v6.559m0,29.315v6.56m5.19,20.729a16.433,16.433,0,0,1-11.382-4.579l-7.52-7.221a16.433,16.433,0,0,0-11.382-4.579h0v-76.97h37.612v93.35Z" transform="translate(-2117.761 -1104.145)" fill="#fff" stroke="#0073ff" stroke-linecap="round" stroke-linejoin="round" stroke-width="2"/><line x1="48.185" transform="translate(95.166 119.326)" stroke-width="2" stroke="#0073ff" stroke-linecap="round" stroke-linejoin="round" fill="#fff"/><line x2="21.379" transform="translate(-8.649 102.946)" stroke-width="2" stroke="#0073ff" stroke-linecap="round" stroke-linejoin="round" fill="#fff"/></g><g transform="translate(904.238 15634.27)"><path d="M1980.318,1038.107a11.595,11.595,0,1,1-11.594,11.6A11.6,11.6,0,0,1,1980.318,1038.107Z" transform="translate(-1968.724 -1038.107)" fill="none" stroke="#0073ff" stroke-linecap="round" stroke-linejoin="round" stroke-width="2"/><path d="M1979.142,1051.486h-1.413c-2.14,0-3.877-2.226-3.877-4.976" transform="translate(-1968.294 -1037.403)" fill="none" stroke="#0073ff" stroke-linecap="round" stroke-linejoin="round" stroke-width="2"/><path d="M1979.422,1054.167h1.6a3.842,3.842,0,0,0,3.844-3.842" transform="translate(-1967.828 -1037.083)" fill="none" stroke="#0073ff" stroke-linecap="round" stroke-linejoin="round" stroke-width="2"/><line y1="25.64" transform="translate(11.594 5.194)" stroke-width="2" stroke="#0073ff" stroke-linecap="round" stroke-linejoin="round" fill="none"/></g><path d="M1635.19,808.92a14.044,14.044,0,0,0,14,14h50.5a14,14,0,0,0,0-28.007h-3.632a19.112,19.112,0,0,0-35.632-9.341,12.805,12.805,0,0,0-11.128,9.341h-.107A14.045,14.045,0,0,0,1635.19,808.92Z" transform="translate(-840.19 14621.708)" fill="#fff" stroke="#0073ff" stroke-linecap="round" stroke-linejoin="round" stroke-width="2"/><path d="M1759.447,730.057c8.1-1.363,12.26,3.827,12.26,3.827a13.45,13.45,0,0,1,12.26-3.827" transform="translate(-705.743 14748.242)" fill="none" stroke="#0073ff" stroke-linecap="round" stroke-linejoin="round" stroke-width="2"/><path d="M1753.721,752.689a7.938,7.938,0,0,0-7.234,2.258,7.72,7.72,0,0,0-7.234-2.258" transform="translate(-661.631 14710.911)" fill="none" stroke="#0073ff" stroke-linecap="round" stroke-linejoin="round" stroke-width="2"/><g transform="translate(843.286 15616.314)"><path d="M2275.34,1175.778h46.327l-22.42-24.138Z" transform="translate(-2275.34 -1151.64)" fill="none" stroke="#0073ff" stroke-linecap="round" stroke-linejoin="round" stroke-width="2"/><rect width="38.871" height="24.358" transform="translate(4.473 24.138)" stroke-width="2" stroke="#0073ff" stroke-linecap="round" stroke-linejoin="round" fill="none"/><line x1="13.386" transform="translate(17.073 34.238)" stroke-width="2" stroke="#0073ff" stroke-linecap="round" stroke-linejoin="round" fill="none"/></g><g transform="translate(1159.812 15355.745)"><path d="M1873.994,723.453a7.942,7.942,0,0,1,7.918-7.918h3.494a7.584,7.584,0,0,1,1.7-3.836,7.084,7.084,0,0,0-4.151-1.348h-.054a6.53,6.53,0,0,0-5.676-4.763,9.746,9.746,0,0,0-18.17,4.763h-1.853a7.141,7.141,0,0,0,0,14.283h16.888A7.834,7.834,0,0,1,1873.994,723.453Z" transform="translate(-1850.064 -700.74)" fill="#fff" stroke="#0073ff" stroke-linecap="round" stroke-linejoin="round" stroke-width="2"/><path d="M1946.884,725.072a7.942,7.942,0,0,1-7.919,7.918h-40.416a7.918,7.918,0,1,1,0-15.836h3.493a7.541,7.541,0,0,1,8.676-6.474,10.8,10.8,0,0,1,19.9,1.34,6.174,6.174,0,0,1,5.892,5.133h2.45A7.942,7.942,0,0,1,1946.884,725.072Z" transform="translate(-1866.701 -702.36)" fill="#fff" stroke="#0073ff" stroke-linecap="round" stroke-linejoin="round" stroke-width="2"/></g></g></svg>