<?xml version="1.0" encoding="UTF-8"?>
<svg width="106px" height="86px" viewBox="0 0 106 86" version="1.1" xmlns="http://www.w3.org/2000/svg" xmlns:xlink="http://www.w3.org/1999/xlink">
    <!-- Generator: Sketch 51.1 (57501) - http://www.bohemiancoding.com/sketch -->
    <title>Fill 2</title>
    <desc>Created with Sketch.</desc>
    <defs></defs>
    <g id="Symbols" stroke="none" stroke-width="1" fill="none" fill-rule="evenodd">
        <g id="logo" fill="#000105">
            <path d="M25.841,51.345 C26.023,54.152 27.049,58.619 30.514,58.835 C32.426,58.955 34.456,57.729 35.905,56.497 C38.723,54.099 40.942,50.494 42.385,46.875 C43.073,45.152 43.625,43.358 44.028,41.556 C45.426,35.338 44.917,29.706 42.913,25.518 C40.976,21.468 37.654,18.702 33.264,17.887 C32.099,17.671 30.88,17.576 29.63,17.644 C34.074,13.578 39.007,10.994 44.33,10.994 C49.295,11.251 53.072,14.543 55.196,19.733 C57.534,25.451 57.852,33.357 55.631,42.175 C53.846,48.259 51.068,53.923 47.706,58.74 L60.752,58.74 C63.951,53.56 66.822,47.623 68.274,41.709 C70.824,31.338 70.369,21.919 67.527,14.974 C67.087,13.897 66.585,12.877 66.033,11.915 C69.082,13.268 71.454,16.011 72.975,19.733 C75.318,25.454 75.637,33.375 73.403,42.203 C71.619,48.277 68.844,53.931 65.488,58.74 L78.534,58.74 C81.935,53.231 84.808,47.136 86.264,40.813 C88.575,30.798 88.068,21.718 85.307,14.974 C84.867,13.897 84.368,12.877 83.813,11.915 C86.864,13.268 89.234,16.011 90.758,19.733 C93.095,25.447 93.414,33.347 91.198,42.156 C89.415,48.248 86.634,53.917 83.269,58.74 L96.313,58.74 C99.671,53.306 102.538,47.256 103.996,41.019 C106.362,30.922 105.868,21.764 103.09,14.974 C100.121,7.717 92.079,0.881 84.533,0.357 C83.896,0.316 83.235,0.291 82.539,0.291 L43.618,0.291 C42.526,0.291 41.51,0.287 40.412,0.361 C32.607,0.903 24.565,5.548 17.727,12.788 C10.066,20.895 4.889,33.315 2.303,42.98 C-0.61,53.407 -0.239,62.91 2.718,69.842 C6.306,78.254 12.918,85.33 22.53,85.33 L64.941,85.33 C72.057,85.195 80.65,77.804 84.867,73.426 L27.431,73.494 C25.473,73.483 23.112,73.215 21.996,72.777 C18.945,71.48 16.574,68.85 15.053,65.279 C12.643,59.629 12.377,51.748 14.822,42.98 C15.733,39.582 16.95,36.32 18.406,33.251 C22.153,30.821 28.291,28.834 31.384,33.17 C30.021,35.219 28.842,37.267 27.94,39.573 C26.485,43.284 25.579,47.334 25.841,51.345 Z" id="Fill-2"></path>
        </g>
    </g>
</svg>