<svg width="106" height="86" viewBox="0 0 106 86" xmlns="http://www.w3.org/2000/svg"><title>Fill 2</title><path d="M25.841 51.345c.182 2.807 1.208 7.274 4.673 7.49 1.912.12 3.942-1.106 5.391-2.338 2.818-2.398 5.037-6.003 6.48-9.622a35 35 0 0 0 1.643-5.319c1.398-6.218.889-11.85-1.115-16.038-1.937-4.05-5.259-6.816-9.649-7.631a15.35 15.35 0 0 0-3.634-.243c4.444-4.066 9.377-6.65 14.7-6.65 4.965.257 8.742 3.549 10.866 8.739 2.338 5.718 2.656 13.624.435 22.442-1.785 6.084-4.563 11.748-7.925 16.565h13.046c3.199-5.18 6.07-11.117 7.522-17.031 2.55-10.371 2.095-19.79-.747-26.735a25.59 25.59 0 0 0-1.494-3.059c3.049 1.353 5.421 4.096 6.942 7.818 2.343 5.721 2.662 13.642.428 22.47-1.784 6.074-4.559 11.728-7.915 16.537h13.046c3.401-5.509 6.274-11.604 7.73-17.927 2.311-10.015 1.804-19.095-.957-25.839a25.143 25.143 0 0 0-1.494-3.059c3.051 1.353 5.421 4.096 6.945 7.818 2.337 5.714 2.656 13.614.44 22.423-1.783 6.092-4.564 11.761-7.929 16.584h13.044c3.358-5.434 6.225-11.484 7.683-17.721 2.366-10.097 1.872-19.255-.906-26.045C100.121 7.717 92.079.881 84.533.357a30.9 30.9 0 0 0-1.994-.066H43.618c-1.092 0-2.108-.004-3.206.07-7.805.542-15.847 5.187-22.685 12.427C10.066 20.895 4.889 33.315 2.303 42.98-.61 53.407-.239 62.91 2.718 69.842c3.588 8.412 10.2 15.488 19.812 15.488h42.411c7.116-.135 15.709-7.526 19.926-11.904l-57.436.068c-1.958-.011-4.319-.279-5.435-.717-3.051-1.297-5.422-3.927-6.943-7.498-2.41-5.65-2.676-13.531-.231-22.299a57.433 57.433 0 0 1 3.584-9.729c3.747-2.43 9.885-4.417 12.978-.081-1.363 2.049-2.542 4.097-3.444 6.403-1.455 3.711-2.361 7.761-2.099 11.772z" fill="#000105" fill-rule="evenodd"/></svg>