<svg width="378" height="86" viewBox="0 0 378 86" xmlns="http://www.w3.org/2000/svg"><title>logo</title><path d="M332.962 79.595h2.736l2.926-7.612c-1.712-.076-2.765-.802-2.153-2.379l8.151-20.97h-30.508c-7.518 0-13.377 4.265-16.562 12.419-1.519 3.916-3.566 8.1-3.566 12.359 0 4.074 2.482 6.183 8.088 6.176l11.74-.01c4.295 0 9.914-3.926 11.83-7.984h.078c-.835 4.996 2.427 8.001 7.24 8.001zm-7.064-8.859h-16.625c-2.611 0-4.078 0-4.078-1.848 0-1.02.446-2.482 1.338-4.777 2.229-5.732 2.74-6.625 8.089-6.625h16.432l-5.156 13.25zM260.872 58.86l3.975-10.219h-10.129l-12.037 30.954h10.127l4.607-11.847h21.635l-4.65 11.847h10.127l12.04-30.954H286.44l-3.951 10.254-21.617-.035zm-110.1 11.879h-18.09l8.598-22.098h-10.128l-9.554 24.583c-.446 1.208-.828 2.36-.828 3.309 0 1.851 1.209 3.062 4.97 3.062l41.181-.017c4.294-.011 9.9-3.931 11.816-7.984h.078c-.838 4.996 2.426 8.001 7.24 8.001h2.737l2.922-7.612c-1.712-.076-2.763-.802-2.151-2.379 2.717-6.987 5.428-13.971 8.147-20.963h-10.126c-2.866 7.366-5.727 14.728-8.594 22.095-6.031 0-12.057.003-18.092.003l8.598-22.098h-10.127l-8.597 22.098zm85.402 8.856l12.037-30.954h-5.797c-4.458 0-7.768 2.482-12.1 5.541l-20.446 14.269h-.191l8.091-19.81H207.64l-12.038 30.954h5.86c4.458 0 7.769-2.486 12.163-5.543l20.318-14.266h.192l-8.09 19.809h10.129zm26.757-64.717l-8.605 22.101h-10.13l8.601-22.101h-14.968l3.439-8.853h40.063l-3.438 8.853h-14.962zm52.517 22.109h2.738l2.925-7.614c-1.715-.073-2.765-.798-2.152-2.376l8.149-20.972h-30.51c-7.516 0-13.375 4.269-16.56 12.42-1.519 3.916-3.568 8.1-3.568 12.359 0 4.074 2.484 6.183 8.09 6.175l11.74-.009c4.296 0 9.911-3.926 11.831-7.985h.079c-.837 4.998 2.425 8.002 7.238 8.002zm-7.063-8.859h-16.628c-2.61 0-4.076 0-4.076-1.848 0-1.02.446-2.482 1.337-4.777 2.23-5.731 2.739-6.625 8.09-6.625h16.434l-5.157 13.25zm-83.741 8.851l12.037-30.954h-39.299l-7.962 20.447c-.574 1.528-1.528 2.931-4.077 2.931h-1.466l-2.928 7.576c.892.333 2.928.396 4.394.396 6.626 0 10.893-2.305 13.567-9.247l5.161-13.25h19.043l-8.596 22.101h10.126zm-50.696.008h2.736l2.926-7.614c-1.715-.073-2.766-.798-2.153-2.376l8.15-20.972h-30.509c-7.515 0-13.376 4.269-16.561 12.42-1.518 3.916-3.567 8.1-3.567 12.359 0 4.074 2.484 6.183 8.09 6.175l11.74-.009c4.294 0 9.911-3.926 11.83-7.985h.078c-.837 4.998 2.425 8.002 7.24 8.002zm-7.064-8.859h-16.628c-2.609 0-4.076 0-4.076-1.848 0-1.02.445-2.482 1.339-4.777 2.228-5.731 2.737-6.625 8.089-6.625h16.432l-5.156 13.25zm174.825-11.88l3.975-10.223h-10.128l-12.037 30.954h10.125l4.609-11.847h21.635l-4.651 11.847h10.129l12.037-30.954h-10.126l-3.949 10.255-21.619-.032zM27.94 39.573c-1.455 3.711-2.361 7.761-2.099 11.772.182 2.807 1.208 7.274 4.673 7.49 1.912.12 3.942-1.106 5.391-2.338 2.818-2.398 5.037-6.003 6.48-9.622a35 35 0 0 0 1.643-5.319c1.398-6.218.889-11.85-1.115-16.038-1.937-4.05-5.259-6.816-9.649-7.631a15.35 15.35 0 0 0-3.634-.243c4.444-4.066 9.377-6.65 14.7-6.65 4.965.257 8.742 3.549 10.866 8.739 2.338 5.718 2.656 13.624.435 22.442-1.785 6.084-4.563 11.748-7.925 16.565h13.046c3.199-5.18 6.07-11.117 7.522-17.031 2.55-10.371 2.095-19.79-.747-26.735a25.59 25.59 0 0 0-1.494-3.059c3.049 1.353 5.421 4.096 6.942 7.818 2.343 5.721 2.662 13.642.428 22.47-1.784 6.074-4.559 11.728-7.915 16.537h13.046c3.401-5.509 6.274-11.604 7.73-17.927 2.311-10.015 1.804-19.095-.957-25.839a25.143 25.143 0 0 0-1.494-3.059c3.051 1.353 5.421 4.096 6.945 7.818 2.337 5.714 2.656 13.614.44 22.423-1.783 6.092-4.564 11.761-7.929 16.584h13.044c3.358-5.434 6.225-11.484 7.683-17.721 2.366-10.097 1.872-19.255-.906-26.045C100.121 7.717 92.079.881 84.533.357a30.9 30.9 0 0 0-1.994-.066H43.618c-1.092 0-2.108-.004-3.206.07-7.805.542-15.847 5.187-22.685 12.427C10.066 20.895 4.889 33.315 2.303 42.98-.61 53.407-.239 62.91 2.718 69.842c3.588 8.412 10.2 15.488 19.812 15.488h42.411c7.116-.135 15.709-7.526 19.926-11.904l-57.436.068c-1.958-.011-4.319-.279-5.435-.717-3.051-1.297-5.422-3.927-6.943-7.498-2.41-5.65-2.676-13.531-.231-22.299a57.433 57.433 0 0 1 3.584-9.729c3.747-2.43 9.885-4.417 12.978-.081-1.363 2.049-2.542 4.097-3.444 6.403" fill="#000105" fill-rule="evenodd"/></svg>