<svg xmlns="http://www.w3.org/2000/svg" width="246.887" height="50.076"><g data-name="Group 1708"><g data-name="Group 430"><g data-name="Group 1310"><g data-name="Group 1305"><path data-name="Path 804" d="M197.142 12.796l-2.266-2.787c-.157-.188-4.366-5.115-12.58-3.729l-1-5.947a20.006 20.006 0 0 1 15.969 3.724A20.142 20.142 0 0 1 213.181.338l-1.03 5.938a13.9 13.9 0 0 0-12.636 3.817z" fill="#0073ff"/></g><g data-name="Group 1307"><g data-name="Group 1306" fill="#242434"><path data-name="Path 805" d="M109.607 41.638h-7.3l-2.242-5.844H87.448l-2.2 5.844h-7.166l12.089-29.5h7.253zM97.916 29.99l-3.915-11.21h-.438l-3.958 11.21z"/><path data-name="Path 806" d="M126.123 28.583l5.85-9.363h6.857v22.417h-5.978V27.792h-.4l-4.966 7.78h-2.9l-4.88-7.78h-.352v13.846h-5.978V19.221h7.033z"/><path data-name="Path 807" d="M156.225 35.044h.4l4.966-15.824h6.948l-10.022 24.749a11.614 11.614 0 0 1-2.99 4.483 6.792 6.792 0 0 1-4.661 1.625 8.382 8.382 0 0 1-5.053-1.407l1.758-4.7a6.755 6.755 0 0 0 1.361.44 6.58 6.58 0 0 0 1.277.13 2.611 2.611 0 0 0 2.767-1.712l.351-.88-10.9-22.726h7.385z"/><path data-name="Path 808" d="M177.667 22.166a8.025 8.025 0 0 1 3.186-2.659 10.583 10.583 0 0 1 4.332-.815 11.012 11.012 0 0 1 4.309.815 9.288 9.288 0 0 1 3.315 2.33 10.679 10.679 0 0 1 2.157 3.649 13.832 13.832 0 0 1 .768 4.724 12.923 12.923 0 0 1-.966 5.144 10.929 10.929 0 0 1-2.616 3.759 11.139 11.139 0 0 1-3.781 2.285 13.074 13.074 0 0 1-4.461.768 13.219 13.219 0 0 1-2.9-.305 9.319 9.319 0 0 1-2.638-1.056v9.01h-6.241V19.222h5.057zm3.1 13.979a9.241 9.241 0 0 0 2.7.394 5.613 5.613 0 0 0 4.267-1.714 6.621 6.621 0 0 0 1.625-4.746 6.322 6.322 0 0 0-1.362-4.265 4.774 4.774 0 0 0-3.825-1.583 6.148 6.148 0 0 0-3.6 1.011 6.376 6.376 0 0 0-2.2 2.681v7.166a10.727 10.727 0 0 0 2.395 1.056z"/><path data-name="Path 809" d="M211.067 24.364a6.463 6.463 0 0 0-2.33.417 5.649 5.649 0 0 0-1.912 1.186 5.713 5.713 0 0 0-1.3 1.869 6.035 6.035 0 0 0-.481 2.461 6.294 6.294 0 0 0 1.6 4.484 5.7 5.7 0 0 0 4.374 1.715 8.449 8.449 0 0 0 3.34-.638 8.13 8.13 0 0 0 2.592-1.736l3.648 4.175a12.114 12.114 0 0 1-4.438 2.967 15.377 15.377 0 0 1-5.408.9 13.367 13.367 0 0 1-5.164-.921 10.9 10.9 0 0 1-3.74-2.507 10.452 10.452 0 0 1-2.285-3.715 13.3 13.3 0 0 1-.768-4.55 11.836 11.836 0 0 1 .923-4.7 11.309 11.309 0 0 1 2.572-3.738 11.857 11.857 0 0 1 3.847-2.461 12.786 12.786 0 0 1 4.791-.88 14.769 14.769 0 0 1 5.275.858 12.564 12.564 0 0 1 4.086 2.572l-3.517 4.265a8 8 0 0 0-5.705-2.023z"/><path data-name="Path 810" d="M230.006 27.22l2.329-.4 5.845-7.6h7.869l-8.529 10.2 9.366 12.219h-7.65l-6.725-9.143h-2.505v9.143h-6.286V19.222h6.286z"/></g></g><g data-name="Group 1309"><g data-name="Group 1308" fill="#0073ff"><path data-name="Path 811" d="M21.408 41.639h-6.333V24.716H6.326v16.923H-.003V19.222h21.408z"/><path data-name="Path 812" d="M30.324 22.166a8.017 8.017 0 0 1 3.188-2.659 10.554 10.554 0 0 1 4.33-.815 10.987 10.987 0 0 1 4.306.815 9.33 9.33 0 0 1 3.321 2.33 10.754 10.754 0 0 1 2.152 3.649 13.819 13.819 0 0 1 .772 4.724 12.863 12.863 0 0 1-.97 5.144 10.929 10.929 0 0 1-2.616 3.759 11.063 11.063 0 0 1-3.778 2.285 13.093 13.093 0 0 1-4.464.768 13.2 13.2 0 0 1-2.9-.305 9.322 9.322 0 0 1-2.637-1.056v9.01h-6.245V19.222h5.057zm3.1 13.979a9.253 9.253 0 0 0 2.706.394 5.6 5.6 0 0 0 4.262-1.714 6.619 6.619 0 0 0 1.625-4.746 6.311 6.311 0 0 0-1.359-4.265 4.781 4.781 0 0 0-3.825-1.583 6.168 6.168 0 0 0-3.607 1.011 6.385 6.385 0 0 0-2.195 2.681v7.166a10.663 10.663 0 0 0 2.39 1.056z"/><path data-name="Path 813" d="M67.788 19.529a11.1 11.1 0 0 1 3.893 2.395 10.967 10.967 0 0 1 2.526 3.714 12.32 12.32 0 0 1 .9 4.792 11.967 11.967 0 0 1-.923 4.748 11.075 11.075 0 0 1-2.572 3.713 11.632 11.632 0 0 1-3.89 2.42 13.593 13.593 0 0 1-4.881.854 14.135 14.135 0 0 1-4.966-.834 11.315 11.315 0 0 1-3.868-2.374 10.611 10.611 0 0 1-2.526-3.713 12.435 12.435 0 0 1-.9-4.814 12.183 12.183 0 0 1 .9-4.726 10.6 10.6 0 0 1 2.526-3.714 11.9 11.9 0 0 1 3.868-2.418 13.521 13.521 0 0 1 4.966-.88 14.141 14.141 0 0 1 4.947.837zm-9.363 6.417a6.293 6.293 0 0 0-1.6 4.483 6.293 6.293 0 0 0 1.625 4.55 5.817 5.817 0 0 0 4.4 1.692 5.728 5.728 0 0 0 4.4-1.692 6.4 6.4 0 0 0 1.583-4.55 6.274 6.274 0 0 0-1.6-4.506 5.734 5.734 0 0 0-4.374-1.693 5.76 5.76 0 0 0-4.434 1.717z"/></g></g></g></g></g></svg>