<svg xmlns="http://www.w3.org/2000/svg" viewBox="0 0 45.63 35"><defs><style>.cls-4{fill:#e1ecf8}.cls-3{fill:#fff}</style></defs><g id="Слой_2" data-name="Слой 2"><g id="Capa_1" data-name="Capa 1"><path d="M7.13.5h36a2 2 0 012 2v2h0-40 0v-2a2 2 0 012-2z" stroke="#e1ecf8" stroke-miterlimit="10" fill="#e1ecf8"/><path d="M5.13 4.5h40v23.87a2 2 0 01-2 2h-36a2 2 0 01-2-2V4.5h0z" fill="#fff" stroke="#e1ecf8" stroke-miterlimit="10"/><circle class="cls-3" cx="42.13" cy="2.5" r="1"/><circle class="cls-3" cx="39.13" cy="2.5" r="1"/><circle class="cls-3" cx="36.13" cy="2.5" r="1"/><path class="cls-4" d="M26.29 7.5h16v3h-16zm0 5h16v3h-16zm0 5h16v3h-16zM7.93 22.52h34.36v5H7.93zM24 7.5H8.09v13H24zm-13.29 10l2.65-4.5 2.05 2.37L18.09 12l3.3 5.47z"/><circle class="cls-3" cx="11.06" cy="23.94" r="5.13"/><path class="cls-3" transform="rotate(45 6.674 28.334)" d="M4.45 21.12h4.44v14.42H4.45z"/><path class="cls-4" d="M8.36 28.37l-5.22 5.21-1.73-1.72 5.22-5.22zm1.83-5.29l1.73 1.72L9 27.72 7.28 26zm3.14 2.48l1.08 1.08-.65.65-1.08-1.08zm-4.97-4.97l1.08 1.08-.65.65-1.08-1.08zm5.45 2.89h1.53v.92h-1.53zm-3.21-3.82h.92v1.53h-.92zm3.16.93l.65.65-1.08 1.08-.65-.65z"/></g></g></svg>