<svg width="313" height="556" viewBox="0 0 313 556" fill="none" xmlns="http://www.w3.org/2000/svg">
<g clip-path="url(#clip0)">
<path d="M156.913 114.486C188.225 114.486 213.609 89.1022 213.609 57.7898C213.609 26.4774 188.225 1.09375 156.913 1.09375C125.6 1.09375 100.217 26.4774 100.217 57.7898C100.217 89.1022 125.6 114.486 156.913 114.486Z" fill="#0073FF" stroke="#0073FF" stroke-width="2" stroke-miterlimit="10"/>
<path d="M190.638 49.2534V57.7641H165.108V79.4934H126.206V32.9899C126.206 31.6459 127.782 30.9195 128.804 31.7922L143.857 44.643C144.879 45.5157 146.454 44.7893 146.454 43.4453V32.9857C146.454 31.6424 148.028 30.9157 149.051 31.7869L164.145 44.6483C165.168 45.5195 166.742 44.7929 166.742 43.4495V32.9119C166.742 31.5809 168.29 30.8501 169.318 31.6962L190.638 49.2534Z" stroke="white" stroke-width="2" stroke-miterlimit="10"/>
<path d="M197.286 57.7891H165.118V79.4931H197.286V57.7891Z" stroke="white" stroke-width="2" stroke-miterlimit="10"/>
<path d="M137.976 55.4141V79.4938" stroke="white" stroke-width="2" stroke-miterlimit="10"/>
<path d="M149.285 55.4141V79.4938" stroke="white" stroke-width="2" stroke-miterlimit="10"/>
</g>
<path d="M102.902 141.416H105.619V128.743H94.2189V141.416H96.9169V131.118H102.902V141.416ZM110.472 144.912V140.238C111.213 141.188 112.22 141.644 113.303 141.644C115.659 141.644 117.369 139.877 117.369 136.818C117.369 133.759 115.659 132.011 113.303 132.011C112.182 132.011 111.175 132.505 110.472 133.398V132.239H108.059V144.912H110.472ZM114.861 136.818C114.861 138.414 113.93 139.497 112.543 139.497C111.764 139.497 110.871 139.022 110.472 138.452V135.203C110.871 134.614 111.764 134.158 112.543 134.158C113.93 134.158 114.861 135.241 114.861 136.818ZM123.43 141.644C126.47 141.644 128.294 139.44 128.294 136.818C128.294 134.215 126.47 132.011 123.43 132.011C120.409 132.011 118.585 134.215 118.585 136.818C118.585 139.44 120.409 141.644 123.43 141.644ZM123.43 139.497C121.929 139.497 121.093 138.262 121.093 136.818C121.093 135.393 121.929 134.158 123.43 134.158C124.931 134.158 125.786 135.393 125.786 136.818C125.786 138.262 124.931 139.497 123.43 139.497ZM130.084 141.416H132.402L136.297 135.545V141.416H138.71V132.239H136.278L132.497 137.901V132.239H130.084V141.416ZM140.231 140.181C141.105 141.055 142.549 141.644 144.373 141.644C147.033 141.644 148.61 140.504 148.61 138.889C148.61 137.502 147.147 136.78 146.083 136.704C147.242 136.514 148.439 135.716 148.439 134.538C148.42 132.98 146.9 132.011 144.259 132.03C142.511 132.03 141.219 132.657 140.364 133.55L141.542 134.975C142.226 134.272 143.138 133.93 144.24 133.93C145.247 133.93 145.931 134.329 145.931 134.899C145.931 135.545 145.361 135.906 144.202 135.906H142.587V137.673H144.202C145.418 137.673 146.102 137.958 146.102 138.68C146.102 139.288 145.532 139.744 144.354 139.744C143.328 139.744 142.264 139.326 141.447 138.623L140.231 140.181ZM150.401 141.416H156.082C158.229 141.416 159.217 140.314 159.217 138.927C159.217 137.825 158.476 136.913 157.469 136.685C158.324 136.438 159.027 135.697 159.027 134.595C159.027 133.36 158.077 132.239 155.987 132.239H150.401V141.416ZM156.576 134.975C156.576 135.412 156.253 135.773 155.683 135.773H152.814V134.158H155.683C156.253 134.158 156.576 134.5 156.576 134.975ZM156.747 138.604C156.747 139.136 156.386 139.497 155.778 139.497H152.814V137.692H155.778C156.405 137.692 156.747 138.129 156.747 138.604ZM165.27 141.644C168.31 141.644 170.134 139.44 170.134 136.818C170.134 134.215 168.31 132.011 165.27 132.011C162.249 132.011 160.425 134.215 160.425 136.818C160.425 139.44 162.249 141.644 165.27 141.644ZM165.27 139.497C163.769 139.497 162.933 138.262 162.933 136.818C162.933 135.393 163.769 134.158 165.27 134.158C166.771 134.158 167.626 135.393 167.626 136.818C167.626 138.262 166.771 139.497 165.27 139.497ZM170.828 139.307V143.753H172.937V141.416H179.207V143.753H181.316V139.307H180.309V132.239H173.013L172.823 134.253C172.576 137.198 172.158 138.528 171.683 139.307H170.828ZM174.875 135.165L174.932 134.348H177.896V139.307H173.944C174.267 138.775 174.685 137.768 174.875 135.165ZM182.264 136.818C182.264 139.649 184.297 141.644 187.128 141.644C189.009 141.644 190.149 140.827 190.757 139.972L189.18 138.509C188.743 139.117 188.078 139.497 187.242 139.497C185.779 139.497 184.753 138.414 184.753 136.818C184.753 135.222 185.779 134.158 187.242 134.158C188.078 134.158 188.743 134.5 189.18 135.146L190.757 133.664C190.149 132.828 189.009 132.011 187.128 132.011C184.297 132.011 182.264 134.006 182.264 136.818ZM194.026 141.416H196.458V134.348H199.023V132.239H191.461V134.348H194.026V141.416ZM200.536 141.416H206.217C208.364 141.416 209.352 140.314 209.352 138.927C209.352 137.825 208.611 136.913 207.604 136.685C208.459 136.438 209.162 135.697 209.162 134.595C209.162 133.36 208.212 132.239 206.122 132.239H200.536V141.416ZM206.711 134.975C206.711 135.412 206.388 135.773 205.818 135.773H202.949V134.158H205.818C206.388 134.158 206.711 134.5 206.711 134.975ZM206.882 138.604C206.882 139.136 206.521 139.497 205.913 139.497H202.949V137.692H205.913C206.54 137.692 206.882 138.129 206.882 138.604ZM215.405 141.644C218.445 141.644 220.269 139.44 220.269 136.818C220.269 134.215 218.445 132.011 215.405 132.011C212.384 132.011 210.56 134.215 210.56 136.818C210.56 139.44 212.384 141.644 215.405 141.644ZM215.405 139.497C213.904 139.497 213.068 138.262 213.068 136.818C213.068 135.393 213.904 134.158 215.405 134.158C216.906 134.158 217.761 135.393 217.761 136.818C217.761 138.262 216.906 139.497 215.405 139.497Z" fill="black"/>
<g clip-path="url(#clip1)">
<path d="M156.913 526.031C188.225 526.031 213.609 500.647 213.609 469.335C213.609 438.022 188.225 412.639 156.913 412.639C125.6 412.639 100.217 438.022 100.217 469.335C100.217 500.647 125.6 526.031 156.913 526.031Z" fill="#0073FF" stroke="#0073FF" stroke-width="2" stroke-miterlimit="10"/>
<path d="M187.572 491.361C184.983 501.092 176.112 508.262 165.566 508.262C152.992 508.262 142.798 498.068 142.798 485.493C142.798 467.278 165.566 438.438 165.566 438.438C165.566 438.438 172.209 446.852 178.319 457.461" stroke="white" stroke-width="2" stroke-miterlimit="10"/>
<path d="M168.604 473.862L174.322 463.956C175.49 461.931 178.412 461.931 179.58 463.956L182.261 468.599" stroke="white" stroke-width="2" stroke-miterlimit="10"/>
<path d="M177.71 487.011H166.27C163.933 487.011 162.473 484.481 163.641 482.457L166.327 477.805" stroke="white" stroke-width="2" stroke-miterlimit="10"/>
<path d="M184.537 472.543L190.26 482.458C191.429 484.482 189.968 487.012 187.631 487.012H182.263" stroke="white" stroke-width="2" stroke-miterlimit="10"/>
<path d="M173.156 482.457L177.71 487.011L173.156 491.565" stroke="white" stroke-width="2" stroke-miterlimit="10"/>
<path d="M173.156 482.457L177.71 487.011L173.156 491.565" stroke="white" stroke-width="2" stroke-miterlimit="10"/>
<path d="M182.874 478.767L184.54 472.547L190.761 474.214" stroke="white" stroke-width="2" stroke-miterlimit="10"/>
<path d="M174.823 472.194L168.602 473.861L166.935 467.641" stroke="white" stroke-width="2" stroke-miterlimit="10"/>
<path d="M135.208 439.955L139.501 447.805L147.351 452.098L139.501 456.392L135.208 464.242L130.915 456.392L123.065 452.098L130.915 447.805L135.208 439.955Z" stroke="white" stroke-width="2" stroke-miterlimit="10"/>
</g>
<path d="M100.548 551.886C104.386 551.886 107.179 549.15 107.179 545.331C107.179 541.512 104.386 538.776 100.548 538.776C96.7286 538.776 93.9356 541.512 93.9356 545.331C93.9356 549.15 96.7286 551.886 100.548 551.886ZM100.548 549.492C98.2106 549.492 96.7096 547.687 96.7096 545.331C96.7096 542.956 98.2106 541.17 100.548 541.17C102.885 541.17 104.405 542.956 104.405 545.331C104.405 547.687 102.885 549.492 100.548 549.492ZM108.73 542.481V545.806C108.73 547.706 109.68 548.827 112.245 548.827C113.385 548.827 114.335 548.58 114.924 548.257V551.658H117.356V542.481H114.924V546.319C114.506 546.528 113.917 546.68 113.081 546.68C111.808 546.68 111.143 546.262 111.143 544.97V542.481H108.73ZM122.058 551.658L125.953 545.901V551.658H128.366V542.481H125.934L122.153 548.029V542.481H119.74V551.658H122.058ZM135.036 551.886C136.917 551.886 138.057 551.069 138.665 550.214L137.088 548.751C136.651 549.359 135.986 549.739 135.15 549.739C133.687 549.739 132.661 548.656 132.661 547.06C132.661 545.464 133.687 544.4 135.15 544.4C135.986 544.4 136.651 544.742 137.088 545.388L138.665 543.906C138.057 543.07 136.917 542.253 135.036 542.253C132.205 542.253 130.172 544.248 130.172 547.06C130.172 549.891 132.205 551.886 135.036 551.886ZM144.365 551.658V544.59H146.93V542.481H139.368V544.59H141.933V551.658H144.365ZM157.412 551.658L153.669 546.642L157.298 542.481H154.334L150.857 546.566V542.481H148.444V551.658H150.857V549.302L151.959 548.124L154.391 551.658H157.412ZM166.535 551.658V545.73C166.535 543.089 164.616 542.253 162.526 542.253C161.082 542.253 159.638 542.709 158.517 543.697L159.429 545.312C160.208 544.59 161.12 544.229 162.108 544.229C163.324 544.229 164.122 544.837 164.122 545.768V547.003C163.514 546.281 162.431 545.882 161.215 545.882C159.752 545.882 158.023 546.699 158.023 548.846C158.023 550.898 159.752 551.886 161.215 551.886C162.412 551.886 163.495 551.449 164.122 550.708V551.658H166.535ZM162.184 550.252C161.234 550.252 160.455 549.758 160.455 548.903C160.455 548.01 161.234 547.516 162.184 547.516C162.963 547.516 163.723 547.782 164.122 548.314V549.454C163.723 549.986 162.963 550.252 162.184 550.252ZM179.774 551.658C181.617 551.658 182.605 550.556 182.605 549.169C182.605 548.067 181.864 547.155 180.857 546.927C181.712 546.68 182.415 545.939 182.415 544.837C182.415 543.602 181.465 542.481 179.603 542.481H173.789V551.658H179.774ZM179.185 549.682H176.202V547.972H179.185C179.793 547.972 180.135 548.371 180.135 548.827C180.135 549.359 179.774 549.682 179.185 549.682ZM179.109 545.996H176.202V544.457H179.109C179.641 544.457 179.964 544.78 179.964 545.236C179.964 545.654 179.641 545.996 179.109 545.996ZM189.178 551.886C192.218 551.886 194.042 549.682 194.042 547.06C194.042 544.457 192.218 542.253 189.178 542.253C186.157 542.253 184.333 544.457 184.333 547.06C184.333 549.682 186.157 551.886 189.178 551.886ZM189.178 549.739C187.677 549.739 186.841 548.504 186.841 547.06C186.841 545.635 187.677 544.4 189.178 544.4C190.679 544.4 191.534 545.635 191.534 547.06C191.534 548.504 190.679 549.739 189.178 549.739ZM194.977 553.995H197.409V551.658H203.052V553.995H205.465V549.549H204.458V542.481H197.029L196.44 546.927C196.155 549.15 195.718 549.511 194.977 549.644V553.995ZM199.138 544.59H202.045V549.549H197.789C198.359 549.017 198.72 548.2 198.853 547.079L199.138 544.59ZM206.984 542.481V551.658H212.532C214.584 551.658 215.724 550.271 215.724 548.637C215.724 547.022 214.66 545.635 212.532 545.635H209.397V542.481H206.984ZM212.171 547.649C212.855 547.649 213.254 548.067 213.254 548.637C213.254 549.207 212.855 549.625 212.171 549.625H209.397V547.649H212.171ZM219.353 551.658V542.481H216.921V551.658H219.353Z" fill="black"/>
<path d="M103.429 274.693C103.429 275.264 103.314 275.796 103.086 276.288C102.866 276.78 102.523 277.211 102.058 277.58C101.592 277.94 101.003 278.226 100.291 278.437C99.5791 278.648 98.7353 278.753 97.7597 278.753C97.3466 278.753 96.938 278.731 96.5337 278.688C96.1294 278.652 95.7426 278.6 95.3735 278.529C95.0132 278.459 94.6704 278.375 94.3452 278.279C94.0288 278.182 93.7519 278.072 93.5146 277.949V276.262C94.1211 276.596 94.7846 276.851 95.5053 277.026C96.2348 277.193 96.9687 277.277 97.707 277.277C98.4453 277.277 99.0693 277.215 99.5791 277.092C100.098 276.96 100.515 276.785 100.832 276.565C101.148 276.336 101.376 276.068 101.517 275.761C101.658 275.444 101.728 275.102 101.728 274.732C101.728 273.818 101.363 273.168 100.634 272.781C99.9131 272.395 98.8847 272.201 97.5488 272.201H95.9668V270.738H97.4301C98.6694 270.738 99.5923 270.544 100.199 270.158C100.805 269.762 101.108 269.151 101.108 268.325C101.108 267.657 100.836 267.117 100.291 266.704C99.7461 266.282 98.9331 266.071 97.852 266.071C97.1577 266.071 96.4633 266.163 95.769 266.348C95.0747 266.523 94.4111 266.765 93.7783 267.073V265.464C94.4111 265.218 95.0879 265.012 95.8086 264.845C96.5293 264.678 97.2675 264.594 98.0234 264.594C98.8584 264.594 99.5747 264.682 100.172 264.858C100.779 265.034 101.275 265.28 101.662 265.596C102.058 265.904 102.348 266.277 102.532 266.717C102.726 267.147 102.822 267.622 102.822 268.141C102.822 268.967 102.576 269.666 102.084 270.237C101.601 270.799 100.915 271.168 100.027 271.344V271.41C100.555 271.445 101.029 271.551 101.451 271.727C101.873 271.902 102.229 272.135 102.519 272.425C102.818 272.715 103.042 273.054 103.191 273.44C103.35 273.827 103.429 274.245 103.429 274.693ZM114.556 278.424V276.024H114.503C114.063 276.886 113.461 277.554 112.697 278.028C111.941 278.503 111.084 278.74 110.126 278.74C109.476 278.74 108.887 278.648 108.359 278.463C107.841 278.279 107.397 278.02 107.028 277.686C106.667 277.343 106.386 276.934 106.184 276.459C105.991 275.985 105.894 275.462 105.894 274.891C105.894 273.669 106.272 272.698 107.028 271.977C107.784 271.248 108.926 270.773 110.456 270.553L114.556 269.96C114.556 267.367 113.549 266.071 111.537 266.071C109.963 266.071 108.504 266.646 107.16 267.798V265.952C107.441 265.75 107.757 265.57 108.109 265.412C108.469 265.245 108.847 265.104 109.243 264.99C109.638 264.867 110.042 264.774 110.456 264.713C110.877 264.643 111.286 264.607 111.682 264.607C113.185 264.607 114.318 265.029 115.083 265.873C115.856 266.717 116.243 267.974 116.243 269.644V278.424H114.556ZM111.075 271.872C110.469 271.959 109.95 272.069 109.52 272.201C109.089 272.333 108.733 272.513 108.452 272.742C108.17 272.961 107.964 273.238 107.832 273.572C107.7 273.897 107.634 274.302 107.634 274.785C107.634 275.146 107.696 275.479 107.819 275.787C107.951 276.095 108.135 276.363 108.373 276.591C108.619 276.811 108.913 276.982 109.256 277.105C109.607 277.229 110.003 277.29 110.442 277.29C111.04 277.29 111.589 277.176 112.09 276.947C112.591 276.719 113.022 276.402 113.382 275.998C113.751 275.594 114.037 275.11 114.239 274.548C114.45 273.985 114.556 273.375 114.556 272.715V271.384L111.075 271.872ZM132.34 278.424V267.033C132.314 267.104 132.27 267.231 132.208 267.416C132.147 267.591 132.072 267.798 131.984 268.035C131.896 268.264 131.804 268.51 131.707 268.773C131.611 269.028 131.514 269.274 131.417 269.512L127.911 278.424H126.447L122.729 269.512C122.668 269.362 122.593 269.178 122.505 268.958C122.426 268.738 122.343 268.51 122.255 268.272C122.167 268.035 122.083 267.807 122.004 267.587C121.925 267.367 121.859 267.183 121.807 267.033V278.424H120.304V264.924H122.4L126.236 274.007C126.315 274.192 126.399 274.403 126.487 274.64C126.583 274.877 126.676 275.119 126.764 275.365C126.86 275.603 126.944 275.831 127.014 276.051C127.093 276.271 127.159 276.451 127.212 276.591C127.256 276.486 127.313 276.332 127.383 276.13C127.454 275.928 127.533 275.708 127.621 275.471C127.717 275.233 127.814 274.992 127.911 274.746C128.007 274.5 128.095 274.271 128.174 274.06L131.826 264.924H134.001V278.424H132.34ZM146.249 278.424L140.105 271.872H140.053V278.424H138.365V264.924H140.053V271.239H140.105L146.064 264.924H148.266L141.872 271.476L148.622 278.424H146.249ZM160.052 278.424V272.135H152.63V278.424H150.942V264.924H152.63V270.672H160.052V264.924H161.74V278.424H160.052ZM170.019 280.876C169.492 282.194 168.885 283.17 168.2 283.803C167.514 284.444 166.684 284.765 165.708 284.765C165.225 284.765 164.816 284.708 164.482 284.594V283.012C164.675 283.082 164.869 283.135 165.062 283.17C165.264 283.205 165.466 283.223 165.668 283.223C166.222 283.223 166.701 283.047 167.105 282.695C167.519 282.353 167.874 281.83 168.173 281.126L169.347 278.358L164.152 264.924H166.024L169.887 275.616C169.94 275.756 169.988 275.919 170.032 276.104C170.085 276.279 170.133 276.455 170.177 276.631H170.243C170.287 276.481 170.327 276.332 170.362 276.183C170.406 276.024 170.463 275.853 170.533 275.668L174.633 264.924H176.413L170.019 280.876ZM183.255 266.4V278.424H181.568V266.4H177.507V264.924H187.303V266.4H183.255ZM202.253 278.424V264.924H203.927V278.424H202.253ZM199.616 274.297C199.616 274.965 199.502 275.559 199.273 276.077C199.045 276.587 198.737 277.018 198.351 277.369C197.964 277.712 197.516 277.976 197.006 278.16C196.505 278.336 195.973 278.424 195.411 278.424H189.834V264.924H191.521V270.29H195.266C195.934 270.29 196.536 270.382 197.072 270.566C197.608 270.742 198.065 271.001 198.443 271.344C198.821 271.687 199.111 272.109 199.313 272.61C199.515 273.102 199.616 273.665 199.616 274.297ZM197.876 274.297C197.876 273.524 197.63 272.909 197.138 272.452C196.654 271.995 195.92 271.766 194.936 271.766H191.521V276.947H194.962C195.472 276.947 195.907 276.886 196.268 276.763C196.637 276.631 196.94 276.451 197.177 276.222C197.415 275.994 197.59 275.717 197.705 275.392C197.819 275.058 197.876 274.693 197.876 274.297ZM217.638 278.424V267.402C217.577 267.499 217.515 267.6 217.454 267.706C217.392 267.811 217.331 267.908 217.269 267.996L209.833 278.424H208.291V264.924H209.886V275.84C209.93 275.717 209.992 275.581 210.071 275.431C210.159 275.273 210.264 275.106 210.387 274.93L217.612 264.924H219.22V278.424H217.638ZM213.789 261.285C214.193 261.285 214.571 261.219 214.922 261.087C215.274 260.956 215.582 260.771 215.845 260.534C216.118 260.296 216.337 260.02 216.504 259.703C216.68 259.387 216.786 259.044 216.821 258.675H218.535C218.456 259.22 218.289 259.729 218.034 260.204C217.788 260.679 217.462 261.092 217.058 261.443C216.654 261.786 216.175 262.059 215.621 262.261C215.076 262.454 214.461 262.551 213.775 262.551C213.09 262.551 212.475 262.454 211.93 262.261C211.394 262.059 210.932 261.786 210.545 261.443C210.167 261.092 209.864 260.679 209.636 260.204C209.416 259.729 209.275 259.22 209.214 258.675H210.928C210.963 259.062 211.046 259.417 211.178 259.743C211.319 260.059 211.508 260.332 211.745 260.56C211.982 260.789 212.268 260.969 212.602 261.101C212.945 261.224 213.34 261.285 213.789 261.285ZM141.437 315.341V310.424H130.086V296.924H131.773V308.96H139.196V296.924H140.883V308.96H142.914V315.341H141.437ZM155.148 310.424V299.402C155.086 299.499 155.025 299.6 154.963 299.706C154.902 299.811 154.84 299.908 154.779 299.996L147.343 310.424H145.801V296.924H147.396V307.84C147.44 307.717 147.501 307.581 147.581 307.431C147.668 307.273 147.774 307.106 147.897 306.93L155.122 296.924H156.73V310.424H155.148ZM168.978 310.424L162.834 303.872H162.781V310.424H161.094V296.924H162.781V303.239H162.834L168.793 296.924H170.995L164.601 303.476L171.351 310.424H168.978ZM182.069 310.424V298.4H178.522C178.364 300.492 178.149 302.307 177.876 303.845C177.604 305.375 177.257 306.64 176.835 307.642C176.422 308.644 175.925 309.391 175.345 309.883C174.774 310.367 174.097 310.608 173.315 310.608C173.139 310.608 172.968 310.595 172.801 310.569C172.634 310.542 172.484 310.507 172.353 310.463V309C172.467 309.053 172.603 309.097 172.761 309.132C172.928 309.158 173.082 309.171 173.223 309.171C173.759 309.171 174.233 308.912 174.646 308.394C175.068 307.866 175.433 307.088 175.741 306.06C176.057 305.032 176.325 303.753 176.545 302.224C176.765 300.694 176.945 298.928 177.085 296.924H183.743V310.424H182.069Z" fill="black"/>
<g clip-path="url(#clip2)">
<path d="M58.3346 181.359C24.966 207.46 3.51788 248.098 3.51788 293.746C3.51788 333.826 20.053 370.045 46.6743 395.951" stroke="#85CE5F" stroke-width="4" stroke-miterlimit="10"/>
<path d="M37.2659 401.759L58.3341 406.132L51.5888 385.699L37.2659 401.759Z" fill="#85CE5F"/>
</g>
<g clip-path="url(#clip3)">
<path d="M254.494 404.008C287.862 377.907 309.311 337.269 309.311 291.621C309.311 251.541 292.776 215.323 266.154 189.416" stroke="#85CE5F" stroke-width="4" stroke-miterlimit="10"/>
<path d="M275.563 183.608L254.494 179.235L261.24 199.668L275.563 183.608Z" fill="#85CE5F"/>
</g>
<defs>
<clipPath id="clip0">
<rect width="115.392" height="115.392" fill="white" transform="translate(99.2168 0.09375)"/>
</clipPath>
<clipPath id="clip1">
<rect width="115.392" height="115.392" fill="white" transform="translate(99.2168 411.639)"/>
</clipPath>
<clipPath id="clip2">
<rect width="59.1762" height="226.899" fill="white" transform="translate(0.820312 179.234)"/>
</clipPath>
<clipPath id="clip3">
<rect width="59.1762" height="226.899" fill="white" transform="translate(312.008 406.133) rotate(-180)"/>
</clipPath>
</defs>
</svg>
