<?xml version="1.0" encoding="utf-8"?>
<!-- Generator: Adobe Illustrator 25.2.0, SVG Export Plug-In . SVG Version: 6.00 Build 0)  -->
<svg version="1.2" baseProfile="tiny" id="Layer_1" xmlns="http://www.w3.org/2000/svg" xmlns:xlink="http://www.w3.org/1999/xlink"
	 x="0px" y="0px" width="313px" height="556px" viewBox="0 0 313 556" overflow="visible" xml:space="preserve">
<path d="M102.902,141.416h2.717v-12.673H94.2189v12.673h2.698v-10.298h5.9851V141.416z M110.472,144.912v-4.674
	c0.741,0.95,1.748,1.406,2.831,1.406c2.356,0,4.066-1.767,4.066-4.826c0-3.059-1.71-4.807-4.066-4.807
	c-1.121,0-2.128,0.494-2.831,1.387v-1.159h-2.413v12.673H110.472z M114.861,136.818c0,1.596-0.931,2.679-2.318,2.679
	c-0.779,0-1.672-0.475-2.071-1.045v-3.249c0.399-0.589,1.292-1.045,2.071-1.045C113.93,134.158,114.861,135.241,114.861,136.818z
	 M123.43,141.644c3.04,0,4.864-2.204,4.864-4.826c0-2.603-1.824-4.807-4.864-4.807c-3.021,0-4.845,2.204-4.845,4.807
	C118.585,139.44,120.409,141.644,123.43,141.644z M123.43,139.497c-1.501,0-2.337-1.235-2.337-2.679c0-1.425,0.836-2.66,2.337-2.66
	s2.356,1.235,2.356,2.66C125.786,138.262,124.931,139.497,123.43,139.497z M130.084,141.416h2.318l3.895-5.871v5.871h2.413v-9.177
	h-2.432l-3.781,5.662v-5.662h-2.413V141.416z M140.231,140.181c0.874,0.874,2.318,1.463,4.142,1.463c2.66,0,4.237-1.14,4.237-2.755
	c0-1.387-1.463-2.109-2.527-2.185c1.159-0.19,2.356-0.988,2.356-2.166c-0.019-1.558-1.539-2.527-4.18-2.508
	c-1.748,0-3.04,0.627-3.895,1.52l1.178,1.425c0.684-0.703,1.596-1.045,2.698-1.045c1.007,0,1.691,0.399,1.691,0.969
	c0,0.646-0.57,1.007-1.729,1.007h-1.615v1.767h1.615c1.216,0,1.9,0.285,1.9,1.007c0,0.608-0.57,1.064-1.748,1.064
	c-1.026,0-2.09-0.418-2.907-1.121L140.231,140.181z M150.401,141.416h5.681c2.147,0,3.135-1.102,3.135-2.489
	c0-1.102-0.741-2.014-1.748-2.242c0.855-0.247,1.558-0.988,1.558-2.09c0-1.235-0.95-2.356-3.04-2.356h-5.586V141.416z
	 M156.576,134.975c0,0.437-0.323,0.798-0.893,0.798h-2.869v-1.615h2.869C156.253,134.158,156.576,134.5,156.576,134.975z
	 M156.747,138.604c0,0.532-0.361,0.893-0.969,0.893h-2.964v-1.805h2.964C156.405,137.692,156.747,138.129,156.747,138.604z
	 M165.27,141.644c3.04,0,4.864-2.204,4.864-4.826c0-2.603-1.824-4.807-4.864-4.807c-3.021,0-4.845,2.204-4.845,4.807
	C160.425,139.44,162.249,141.644,165.27,141.644z M165.27,139.497c-1.501,0-2.337-1.235-2.337-2.679c0-1.425,0.836-2.66,2.337-2.66
	c1.501,0,2.356,1.235,2.356,2.66C167.626,138.262,166.771,139.497,165.27,139.497z M170.828,139.307v4.446h2.109v-2.337h6.27v2.337
	h2.109v-4.446h-1.007v-7.068h-7.296l-0.19,2.014c-0.247,2.945-0.665,4.275-1.14,5.054H170.828z M174.875,135.165l0.057-0.817h2.964
	v4.959h-3.952C174.267,138.775,174.685,137.768,174.875,135.165z M182.264,136.818c0,2.831,2.033,4.826,4.864,4.826
	c1.881,0,3.021-0.817,3.629-1.672l-1.577-1.463c-0.437,0.608-1.102,0.988-1.938,0.988c-1.463,0-2.489-1.083-2.489-2.679
	c0-1.596,1.026-2.66,2.489-2.66c0.836,0,1.501,0.342,1.938,0.988l1.577-1.482c-0.608-0.836-1.748-1.653-3.629-1.653
	C184.297,132.011,182.264,134.006,182.264,136.818z M194.026,141.416h2.432v-7.068h2.565v-2.109h-7.562v2.109h2.565V141.416z
	 M200.536,141.416h5.681c2.147,0,3.135-1.102,3.135-2.489c0-1.102-0.741-2.014-1.748-2.242c0.855-0.247,1.558-0.988,1.558-2.09
	c0-1.235-0.95-2.356-3.04-2.356h-5.586V141.416z M206.711,134.975c0,0.437-0.323,0.798-0.893,0.798h-2.869v-1.615h2.869
	C206.388,134.158,206.711,134.5,206.711,134.975z M206.882,138.604c0,0.532-0.361,0.893-0.969,0.893h-2.964v-1.805h2.964
	C206.54,137.692,206.882,138.129,206.882,138.604z M215.405,141.644c3.04,0,4.864-2.204,4.864-4.826
	c0-2.603-1.824-4.807-4.864-4.807c-3.021,0-4.845,2.204-4.845,4.807C210.56,139.44,212.384,141.644,215.405,141.644z
	 M215.405,139.497c-1.501,0-2.337-1.235-2.337-2.679c0-1.425,0.836-2.66,2.337-2.66c1.501,0,2.356,1.235,2.356,2.66
	C217.761,138.262,216.906,139.497,215.405,139.497z"/>
<path d="M100.548,551.886c3.838,0,6.631-2.736,6.631-6.555c0-3.819-2.793-6.555-6.631-6.555c-3.8194,0-6.6124,2.736-6.6124,6.555
	C93.9356,549.15,96.7286,551.886,100.548,551.886z M100.548,549.492c-2.3374,0-3.8384-1.805-3.8384-4.161
	c0-2.375,1.501-4.161,3.8384-4.161c2.337,0,3.857,1.786,3.857,4.161C104.405,547.687,102.885,549.492,100.548,549.492z
	 M108.73,542.481v3.325c0,1.9,0.95,3.021,3.515,3.021c1.14,0,2.09-0.247,2.679-0.57v3.401h2.432v-9.177h-2.432v3.838
	c-0.418,0.209-1.007,0.361-1.843,0.361c-1.273,0-1.938-0.418-1.938-1.71v-2.489H108.73z M122.058,551.658l3.895-5.757v5.757h2.413
	v-9.177h-2.432l-3.781,5.548v-5.548h-2.413v9.177H122.058z M135.036,551.886c1.881,0,3.021-0.817,3.629-1.672l-1.577-1.463
	c-0.437,0.608-1.102,0.988-1.938,0.988c-1.463,0-2.489-1.083-2.489-2.679s1.026-2.66,2.489-2.66c0.836,0,1.501,0.342,1.938,0.988
	l1.577-1.482c-0.608-0.836-1.748-1.653-3.629-1.653c-2.831,0-4.864,1.995-4.864,4.807
	C130.172,549.891,132.205,551.886,135.036,551.886z M144.365,551.658v-7.068h2.565v-2.109h-7.562v2.109h2.565v7.068H144.365z
	 M157.412,551.658l-3.743-5.016l3.629-4.161h-2.964l-3.477,4.085v-4.085h-2.413v9.177h2.413v-2.356l1.102-1.178l2.432,3.534H157.412
	z M166.535,551.658v-5.928c0-2.641-1.919-3.477-4.009-3.477c-1.444,0-2.888,0.456-4.009,1.444l0.912,1.615
	c0.779-0.722,1.691-1.083,2.679-1.083c1.216,0,2.014,0.608,2.014,1.539v1.235c-0.608-0.722-1.691-1.121-2.907-1.121
	c-1.463,0-3.192,0.817-3.192,2.964c0,2.052,1.729,3.04,3.192,3.04c1.197,0,2.28-0.437,2.907-1.178v0.95H166.535z M162.184,550.252
	c-0.95,0-1.729-0.494-1.729-1.349c0-0.893,0.779-1.387,1.729-1.387c0.779,0,1.539,0.266,1.938,0.798v1.14
	C163.723,549.986,162.963,550.252,162.184,550.252z M179.774,551.658c1.843,0,2.831-1.102,2.831-2.489
	c0-1.102-0.741-2.014-1.748-2.242c0.855-0.247,1.558-0.988,1.558-2.09c0-1.235-0.95-2.356-2.812-2.356h-5.814v9.177H179.774z
	 M179.185,549.682h-2.983v-1.71h2.983c0.608,0,0.95,0.399,0.95,0.855C180.135,549.359,179.774,549.682,179.185,549.682z
	 M179.109,545.996h-2.907v-1.539h2.907c0.532,0,0.855,0.3231,0.855,0.7791C179.964,545.654,179.641,545.996,179.109,545.996z
	 M189.178,551.886c3.04,0,4.864-2.204,4.864-4.826c0-2.603-1.824-4.807-4.864-4.807c-3.021,0-4.845,2.204-4.845,4.807
	C184.333,549.682,186.157,551.886,189.178,551.886z M189.178,549.739c-1.501,0-2.337-1.235-2.337-2.679
	c0-1.425,0.836-2.66,2.337-2.66c1.501,0,2.356,1.235,2.356,2.66C191.534,548.504,190.679,549.739,189.178,549.739z M194.977,553.995
	h2.432v-2.337h5.643v2.337h2.413v-4.446h-1.007v-7.068h-7.429l-0.589,4.446c-0.285,2.223-0.722,2.584-1.463,2.717V553.995z
	 M199.138,544.59h2.907v4.959h-4.256c0.57-0.532,0.931-1.349,1.064-2.47L199.138,544.59z M206.984,542.481v9.177h5.548
	c2.052,0,3.192-1.387,3.192-3.021c0-1.6151-1.064-3.002-3.192-3.002h-3.135v-3.154H206.984z M212.171,547.649
	c0.684,0,1.083,0.418,1.083,0.988c0,0.5699-0.399,0.988-1.083,0.988h-2.774v-1.976H212.171z M219.353,551.658v-9.177h-2.432v9.177
	H219.353z"/>
<path d="M103.429,274.693c0,0.571-0.115,1.103-0.343,1.595c-0.22,0.492-0.563,0.923-1.028,1.292
	c-0.466,0.36-1.055,0.646-1.767,0.857c-0.7119,0.211-1.5557,0.316-2.5313,0.316c-0.4131,0-0.8217-0.022-1.226-0.065
	c-0.4043-0.036-0.7911-0.088-1.1602-0.159c-0.3603-0.07-0.7031-0.154-1.0283-0.25c-0.3164-0.097-0.5933-0.207-0.8306-0.33v-1.687
	c0.6065,0.334,1.27,0.589,1.9907,0.764c0.7295,0.167,1.4634,0.251,2.2017,0.251c0.7383,0,1.3623-0.062,1.8721-0.185
	c0.5189-0.132,0.9359-0.307,1.2529-0.527c0.316-0.229,0.544-0.497,0.685-0.804c0.141-0.317,0.211-0.659,0.211-1.029
	c0-0.914-0.365-1.564-1.094-1.951c-0.7209-0.386-1.7493-0.58-3.0852-0.58h-1.582v-1.463h1.4633c1.2393,0,2.1622-0.194,2.7689-0.58
	c0.606-0.396,0.909-1.007,0.909-1.833c0-0.668-0.272-1.208-0.817-1.621c-0.5449-0.422-1.3579-0.633-2.439-0.633
	c-0.6943,0-1.3887,0.092-2.083,0.277c-0.6943,0.175-1.3579,0.417-1.9907,0.725v-1.609c0.6328-0.246,1.3096-0.452,2.0303-0.619
	c0.7207-0.167,1.4589-0.251,2.2148-0.251c0.835,0,1.5513,0.088,2.1486,0.264c0.607,0.176,1.103,0.422,1.49,0.738
	c0.396,0.308,0.686,0.681,0.87,1.121c0.194,0.43,0.29,0.905,0.29,1.424c0,0.826-0.246,1.525-0.738,2.096
	c-0.483,0.562-1.169,0.931-2.057,1.107v0.066c0.528,0.035,1.002,0.141,1.424,0.317c0.422,0.175,0.778,0.408,1.068,0.698
	c0.299,0.29,0.523,0.629,0.672,1.015C103.35,273.827,103.429,274.245,103.429,274.693z M114.556,278.424v-2.4h-0.053
	c-0.44,0.862-1.042,1.53-1.806,2.004c-0.756,0.475-1.613,0.712-2.571,0.712c-0.65,0-1.239-0.092-1.767-0.277
	c-0.518-0.184-0.962-0.443-1.331-0.777c-0.361-0.343-0.642-0.752-0.844-1.227c-0.193-0.474-0.29-0.997-0.29-1.568
	c0-1.222,0.378-2.193,1.134-2.914c0.756-0.729,1.898-1.204,3.428-1.424l4.1-0.593c0-2.593-1.007-3.889-3.019-3.889
	c-1.574,0-3.033,0.575-4.377,1.727v-1.846c0.281-0.202,0.597-0.382,0.949-0.54c0.36-0.167,0.738-0.308,1.134-0.422
	c0.395-0.123,0.799-0.216,1.213-0.277c0.421-0.07,0.83-0.106,1.226-0.106c1.503,0,2.636,0.422,3.401,1.266
	c0.773,0.844,1.16,2.101,1.16,3.771v8.78H114.556z M111.075,271.872c-0.606,0.087-1.125,0.197-1.555,0.329
	c-0.431,0.132-0.787,0.312-1.068,0.541c-0.282,0.219-0.488,0.496-0.62,0.83c-0.132,0.325-0.198,0.73-0.198,1.213
	c0,0.361,0.062,0.694,0.185,1.002c0.132,0.308,0.316,0.576,0.554,0.804c0.246,0.22,0.54,0.391,0.883,0.514
	c0.351,0.124,0.747,0.185,1.186,0.185c0.598,0,1.147-0.114,1.648-0.343c0.501-0.228,0.932-0.545,1.292-0.949
	c0.369-0.404,0.655-0.888,0.857-1.45c0.211-0.563,0.317-1.173,0.317-1.833v-1.331L111.075,271.872z M132.34,278.424v-11.391
	c-0.026,0.071-0.07,0.198-0.132,0.383c-0.061,0.175-0.136,0.382-0.224,0.619c-0.088,0.229-0.18,0.475-0.277,0.738
	c-0.096,0.255-0.193,0.501-0.29,0.739l-3.506,8.912h-1.464l-3.718-8.912c-0.061-0.15-0.136-0.334-0.224-0.554
	c-0.079-0.22-0.162-0.448-0.25-0.686c-0.088-0.237-0.172-0.465-0.251-0.685c-0.079-0.22-0.145-0.404-0.197-0.554v11.391h-1.503
	v-13.5h2.096l3.836,9.083c0.079,0.185,0.163,0.396,0.251,0.633c0.096,0.237,0.189,0.479,0.277,0.725
	c0.096,0.238,0.18,0.466,0.25,0.686c0.079,0.22,0.145,0.4,0.198,0.54c0.044-0.105,0.101-0.259,0.171-0.461
	c0.071-0.202,0.15-0.422,0.238-0.659c0.096-0.238,0.193-0.479,0.29-0.725c0.096-0.246,0.184-0.475,0.263-0.686l3.652-9.136h2.175
	v13.5H132.34z M146.249,278.424l-6.144-6.552h-0.052v6.552h-1.688v-13.5h1.688v6.315h0.052l5.959-6.315h2.202l-6.394,6.552
	l6.75,6.948H146.249z M160.052,278.424v-6.289h-7.422v6.289h-1.688v-13.5h1.688v5.748h7.422v-5.748h1.688v13.5H160.052z
	 M170.019,280.876c-0.527,1.318-1.134,2.294-1.819,2.927c-0.686,0.641-1.516,0.962-2.492,0.962c-0.483,0-0.892-0.057-1.226-0.171
	v-1.582c0.193,0.07,0.387,0.123,0.58,0.158c0.202,0.035,0.404,0.053,0.606,0.053c0.554,0,1.033-0.176,1.437-0.528
	c0.414-0.342,0.769-0.865,1.068-1.569l1.174-2.768l-5.195-13.434h1.872l3.863,10.692c0.053,0.14,0.101,0.303,0.145,0.488
	c0.053,0.175,0.101,0.351,0.145,0.527h0.066c0.044-0.15,0.084-0.299,0.119-0.448c0.044-0.159,0.101-0.33,0.171-0.515l4.1-10.744
	h1.78L170.019,280.876z M183.255,266.4v12.024h-1.687V266.4h-4.061v-1.476h9.796v1.476H183.255z M202.253,278.424v-13.5h1.674v13.5
	H202.253z M199.616,274.297c0,0.668-0.114,1.262-0.343,1.78c-0.228,0.51-0.536,0.941-0.922,1.292
	c-0.387,0.343-0.835,0.607-1.345,0.791c-0.501,0.176-1.033,0.264-1.595,0.264h-5.577v-13.5h1.687v5.366h3.745
	c0.668,0,1.27,0.092,1.806,0.276c0.536,0.176,0.993,0.435,1.371,0.778c0.378,0.343,0.668,0.765,0.87,1.266
	C199.515,273.102,199.616,273.665,199.616,274.297z M197.876,274.297c0-0.773-0.246-1.388-0.738-1.845
	c-0.484-0.457-1.218-0.686-2.202-0.686h-3.415v5.181h3.441c0.51,0,0.945-0.061,1.306-0.184c0.369-0.132,0.672-0.312,0.909-0.541
	c0.238-0.228,0.413-0.505,0.528-0.83C197.819,275.058,197.876,274.693,197.876,274.297z M217.638,278.424v-11.022
	c-0.061,0.097-0.123,0.198-0.184,0.304c-0.062,0.105-0.123,0.202-0.185,0.29l-7.436,10.428h-1.542v-13.5h1.595v10.916
	c0.044-0.123,0.106-0.259,0.185-0.409c0.088-0.158,0.193-0.325,0.316-0.501l7.225-10.006h1.608v13.5H217.638z M213.789,261.285
	c0.404,0,0.782-0.066,1.133-0.198c0.352-0.131,0.66-0.316,0.923-0.553c0.273-0.238,0.492-0.514,0.659-0.831
	c0.176-0.316,0.282-0.659,0.317-1.028h1.714c-0.079,0.545-0.246,1.054-0.501,1.529c-0.246,0.475-0.572,0.888-0.976,1.239
	c-0.404,0.343-0.883,0.616-1.437,0.818c-0.545,0.193-1.16,0.29-1.846,0.29c-0.685,0-1.3-0.097-1.845-0.29
	c-0.536-0.202-0.998-0.475-1.385-0.818c-0.378-0.351-0.681-0.764-0.909-1.239c-0.22-0.475-0.361-0.984-0.422-1.529h1.714
	c0.035,0.387,0.118,0.742,0.25,1.068c0.141,0.316,0.33,0.589,0.567,0.817c0.237,0.229,0.523,0.409,0.857,0.541
	C212.945,261.224,213.34,261.285,213.789,261.285z M141.437,315.341v-4.917h-11.351v-13.5h1.687v12.036h7.423v-12.036h1.687v12.036
	h2.031v6.381H141.437z M155.148,310.424v-11.022c-0.062,0.097-0.123,0.198-0.185,0.304c-0.061,0.105-0.123,0.202-0.184,0.29
	l-7.436,10.428h-1.542v-13.5h1.595v10.916c0.044-0.123,0.105-0.259,0.185-0.409c0.087-0.158,0.193-0.325,0.316-0.501l7.225-10.006
	h1.608v13.5H155.148z M168.978,310.424l-6.144-6.552h-0.053v6.552h-1.687v-13.5h1.687v6.315h0.053l5.959-6.315h2.202l-6.394,6.552
	l6.75,6.948H168.978z M182.069,310.424V298.4h-3.547c-0.158,2.092-0.373,3.907-0.646,5.445c-0.272,1.53-0.619,2.795-1.041,3.797
	c-0.413,1.002-0.91,1.749-1.49,2.241c-0.571,0.484-1.248,0.725-2.03,0.725c-0.176,0-0.347-0.013-0.514-0.039
	c-0.167-0.027-0.317-0.062-0.448-0.106V309c0.114,0.053,0.25,0.097,0.408,0.132c0.167,0.026,0.321,0.039,0.462,0.039
	c0.536,0,1.01-0.259,1.423-0.777c0.422-0.528,0.787-1.306,1.095-2.334c0.316-1.028,0.584-2.307,0.804-3.836
	c0.22-1.53,0.4-3.296,0.54-5.3h6.658v13.5H182.069z"/>
<g>
	<path fill="none" stroke="#85CE5F" stroke-width="4" stroke-miterlimit="10" d="M58.3346,181.359
		C24.966,207.46,3.5179,248.098,3.5179,293.746c0,40.08,16.5351,76.299,43.1564,102.205"/>
	<path fill="#85CE5F" d="M37.2659,401.759l21.0682,4.373l-6.7453-20.433L37.2659,401.759z"/>
</g>
<g>
	<path fill="none" stroke="#85CE5F" stroke-width="4" stroke-miterlimit="10" d="M254.494,404.008
		c33.368-26.101,54.817-66.739,54.817-112.387c0-40.08-16.535-76.298-43.157-102.205"/>
	<path fill="#85CE5F" d="M275.563,183.608l-21.069-4.373l6.746,20.433L275.563,183.608z"/>
</g>
<g>
	<linearGradient id="SVGID_1_" gradientUnits="userSpaceOnUse" x1="157.3765" y1="530.642" x2="157.3765" y2="413.12">
		<stop  offset="9.949999e-15" style="stop-color:#F0F7FF"/>
		<stop  offset="1" style="stop-color:#CCE3FF"/>
	</linearGradient>
	
		<circle fill="url(#SVGID_1_)" stroke="#0073FF" stroke-width="2.4536" stroke-miterlimit="10" cx="157.3765" cy="469.335" r="58.8861"/>
	<radialGradient id="SVGID_2_" cx="169.7314" cy="478.972" r="50.1149" gradientUnits="userSpaceOnUse">
		<stop  offset="0" style="stop-color:#CCE3FF"/>
		<stop  offset="1" style="stop-color:#0073FF"/>
	</radialGradient>
	
		<path fill="url(#SVGID_2_)" stroke="#0073FF" stroke-width="2.4536" stroke-linecap="round" stroke-linejoin="round" stroke-miterlimit="10" d="
		M195.5915,479.7811c0,14.0029-11.3516,25.3546-25.3545,25.3546s-25.3546-11.3516-25.3546-25.3546
		c0-18.8766,25.3546-46.4734,25.3546-46.4734S195.5915,460.9045,195.5915,479.7811z"/>
	<path fill="none" stroke="#0073FF" stroke-width="2.4536" stroke-miterlimit="10" d="M127.9304,467.1492l10.0543-17.4185
		c2.0544-3.5592,7.1917-3.5592,9.2461,0l4.7135,8.1649"/>
	<path fill="none" stroke="#0073FF" stroke-width="2.4536" stroke-miterlimit="10" d="M141.4887,490.2717h-17.6609
		c-4.1093,0-6.6774-4.448-4.6233-8.0069l4.7229-8.1809"/>
	<path fill="none" stroke="#0073FF" stroke-width="2.4536" stroke-miterlimit="10" d="M155.9474,464.8303l10.0636,17.4345
		c2.0541,3.5589-0.5141,8.0069-4.6233,8.0069h-14.2319"/>
	<polyline fill="none" stroke="#0073FF" stroke-width="2.4536" stroke-miterlimit="10" points="133.4816,482.2645 
		141.4887,490.2717 133.4816,498.2788 	"/>
	<polyline fill="none" stroke="#0073FF" stroke-width="2.4536" stroke-miterlimit="10" points="153.0222,475.7742 155.953,464.8365 
		166.8911,467.7671 	"/>
	<polyline fill="none" stroke="#0073FF" stroke-width="2.4536" stroke-miterlimit="10" points="138.8661,464.2169 127.928,467.1478 
		124.9971,456.2098 	"/>
</g>
<g>
	<linearGradient id="SVGID_3_" gradientUnits="userSpaceOnUse" x1="157.3765" y1="-0.9767" x2="157.3765" y2="118.6896">
		<stop  offset="9.949999e-15" style="stop-color:#F0F7FF"/>
		<stop  offset="1" style="stop-color:#CCE3FF"/>
	</linearGradient>
	
		<circle fill="url(#SVGID_3_)" stroke="#0073FF" stroke-width="2.4536" stroke-miterlimit="10" cx="157.3765" cy="60.2904" r="58.8861"/>
	<g>
		<linearGradient id="SVGID_4_" gradientUnits="userSpaceOnUse" x1="123.9877" y1="47.5642" x2="200.3281" y2="80.2451">
			<stop  offset="0" style="stop-color:#CCE3FF"/>
			<stop  offset="1" style="stop-color:#0073FF"/>
		</linearGradient>
		
			<path fill="url(#SVGID_4_)" stroke="#0073FF" stroke-width="2.4536" stroke-linecap="round" stroke-linejoin="round" stroke-miterlimit="10" d="
			M192.8355,51.4247v8.8394h-26.5154v22.5687h-40.4046V34.533c0-1.396,1.6361-2.1504,2.6978-1.2441l15.6347,13.3473
			c1.0617,0.9064,2.6978,0.1519,2.6978-1.2441V34.5286c0-1.3952,1.6346-2.1499,2.6966-1.2451l15.6776,13.3581
			c1.062,0.9049,2.6966,0.1502,2.6966-1.2451V34.4519c0-1.3824,1.6084-2.1414,2.6756-1.2627L192.8355,51.4247z"/>
		<linearGradient id="SVGID_5_" gradientUnits="userSpaceOnUse" x1="164.8058" y1="60.5338" x2="206.1675" y2="85.5551">
			<stop  offset="0" style="stop-color:#CCE3FF"/>
			<stop  offset="1" style="stop-color:#0073FF"/>
		</linearGradient>
		
			<rect x="166.3301" y="60.2904" fill="url(#SVGID_5_)" stroke="#0073FF" stroke-width="2.4536" stroke-linecap="round" stroke-linejoin="round" stroke-miterlimit="10" width="33.4105" height="22.5424"/>
	</g>
	<g>
		<linearGradient id="SVGID_6_" gradientUnits="userSpaceOnUse" x1="138.14" y1="70.3279" x2="138.14" y2="70.3279">
			<stop  offset="0" style="stop-color:#CCE3FF"/>
			<stop  offset="1" style="stop-color:#0073FF"/>
		</linearGradient>
		
			<line fill="url(#SVGID_6_)" stroke="#0073FF" stroke-width="2.4536" stroke-linecap="round" stroke-linejoin="round" stroke-miterlimit="10" x1="138.14" y1="57.823" x2="138.14" y2="82.8328"/>
		<linearGradient id="SVGID_7_" gradientUnits="userSpaceOnUse" x1="149.8859" y1="70.3279" x2="149.8859" y2="70.3279">
			<stop  offset="0" style="stop-color:#CCE3FF"/>
			<stop  offset="1" style="stop-color:#0073FF"/>
		</linearGradient>
		
			<line fill="url(#SVGID_7_)" stroke="#0073FF" stroke-width="2.4536" stroke-linecap="round" stroke-linejoin="round" stroke-miterlimit="10" x1="149.8859" y1="57.823" x2="149.8859" y2="82.8328"/>
		<linearGradient id="SVGID_8_" gradientUnits="userSpaceOnUse" x1="176.2228" y1="70.3279" x2="189.848" y2="70.3279">
			<stop  offset="0" style="stop-color:#CCE3FF"/>
			<stop  offset="1" style="stop-color:#0073FF"/>
		</linearGradient>
		
			<line fill="url(#SVGID_8_)" stroke="#0073FF" stroke-width="2.4536" stroke-linecap="round" stroke-linejoin="round" stroke-miterlimit="10" x1="176.2228" y1="70.3279" x2="189.848" y2="70.3279"/>
	</g>
</g>
</svg>
