<svg xmlns="http://www.w3.org/2000/svg" width="132.5" height="34.667" viewBox="0 0 132.5 34.667"><defs><style>.a{fill:none;stroke:#c3cdd2;stroke-width:0.5px;}.b{fill:#fff;font-size:20px;font-family:Helvetica;letter-spacing:0.08em;}.c{fill:#ffdc7b;}.d{fill:#e2f0ff;}</style></defs><g transform="translate(-1441.25 -14.833)"><line class="a" y2="30" transform="translate(1573.5 19.5)"/><line class="a" y2="30" transform="translate(1441.5 19.5)"/><g transform="translate(1231.216 -2)"><text class="b" transform="translate(280 40)"><tspan x="0" y="0">-24°</tspan></text><g transform="translate(-112.215 -35.01)"><path class="c" d="M9.539,19.566V16.107a.486.486,0,1,1,.972,0v3.458a.486.486,0,1,1-.972,0Zm6.889-2.451L13.983,14.67a.486.486,0,0,1,.688-.687l2.445,2.445a.486.486,0,0,1-.687.687Zm-13.491,0a.487.487,0,0,1,0-.687l2.445-2.445a.486.486,0,0,1,.687.687L3.624,17.115a.486.486,0,0,1-.687,0Zm3.034-7.09a4.054,4.054,0,1,1,4.054,4.054A4.055,4.055,0,0,1,5.971,10.026Zm10.136.486a.486.486,0,1,1,0-.972h3.458a.486.486,0,0,1,0,.972Zm-15.621,0a.486.486,0,0,1,0-.972H3.944a.486.486,0,1,1,0,.972Zm13.5-4.434a.487.487,0,0,1,0-.687l2.445-2.445a.486.486,0,1,1,.687.687L14.671,6.077a.487.487,0,0,1-.688,0Zm-8.593,0L2.937,3.624a.486.486,0,0,1,.687-.687L6.077,5.382a.489.489,0,1,1-.687.7ZM9.539,3.944V.486a.486.486,0,0,1,.972,0V3.944a.486.486,0,1,1-.972,0Z" transform="translate(340 51.843)"/><path class="d" d="M58.025,57.467h-.037a4.569,4.569,0,0,0-6.624-5.683,6.354,6.354,0,0,0-12.194,3.2h-.053a4.266,4.266,0,1,0,0,8.532H58.025a3.026,3.026,0,1,0,0-6.051Z" transform="translate(315.019 11.49)"/></g></g></g></svg>