<svg xmlns="http://www.w3.org/2000/svg" width="78.979" height="78.979"><g stroke-width="2" stroke="#0073ff" stroke-linecap="round" stroke-linejoin="round" fill="none"><g transform="translate(-4301.766 -5242.762)"><ellipse cx="2.629" cy="2.043" rx="2.629" ry="2.043" transform="rotate(-30 11987.783 -5416.39)"/><path d="M4320.042 5268.116v-10.979"/><ellipse cx="2.629" cy="2.043" rx="2.629" ry="2.043" transform="rotate(-30 11988.789 -5434.19)"/><path d="M4329.076 5266.233v-10.979m.001 0l-9.035 1.882"/></g><g transform="translate(-4301.766 -5242.762)"><ellipse cx="2.629" cy="2.043" rx="2.629" ry="2.043" transform="rotate(-30 12008.262 -5446.122)"/><path d="M4337.652 5274.372v-10.979m3.946-1.882l-3.946 1.882"/></g><path d="M46.585 59.554l-16.7-4.841c-3.06 10.559.425 17.177 3.79 18.152s9.85-2.753 12.91-13.311zm-9.078 8.103a2.52 2.52 0 0 1-4.283-1.241m1.18-4.708a.706.706 0 0 0-1.2-.347m7.023 2.035a.707.707 0 0 0-1.2-.348M25.859 60.78a.658.658 0 0 0-1.151.179"/><path d="M28.634 56.147L20.3 57.454c1.411 9.16 6.225 13.241 9.337 13.23"/><g transform="translate(-4301.766 -5242.762)"><path d="M4320.063 5294.246a7.957 7.957 0 0 1-.91-2.872 9.025 9.025 0 0 1 .119-2.766 9.962 9.962 0 0 1 .858-2.551l.082-.162m7.308-4.047a7.96 7.96 0 0 1-2.033 2.224 8.982 8.982 0 0 1-2.455 1.28 9.951 9.951 0 0 1-2.638.533l-.182.01"/><path d="M4313.054 5281.589a7.963 7.963 0 0 1 2.943.649 9.065 9.065 0 0 1 2.336 1.485 9.967 9.967 0 0 1 1.78 2.019l.1.153"/><circle cx="8.328" cy="8.328" r="8.328" transform="translate(4311.894 5277.567)"/></g><path d="M39.489 39.49L51.383 2.884a37.884 37.884 0 0 1 26.6 36.606z"/><path d="M39.489 39.49h38.49A38.49 38.49 0 1 1 39.489 1a36.581 36.581 0 0 1 11.894 1.884z"/><path d="M62.825 47.284c-1.8.41-2.856-.207-3.085-1.212s.458-2.019 2.256-2.429 5.39.687 5.39.687-2.763 2.545-4.561 2.954z"/><path d="M59.715 45.829c-6.707 1.236-19.165 2.227-18.648 4.5s12.175-2.234 18.755-4.025m3.801 16.804c3.13-2.244 5.338-7.012 2.513-10.952-2.487-3.469-2.939 2.861-8.695.72-4.289-1.594-8.462 4.265-5.277 8.708 4.014 5.598 8.915 3.348 11.459 1.524z"/><g transform="translate(54.817 59.013)"><circle cx="1.073" cy="1.073" r="1.073" stroke="none"/><circle cx="1.073" cy="1.073" r=".073"/></g><g transform="translate(58.289 59.778)"><circle cx="1.073" cy="1.073" r="1.073" stroke="none"/><circle cx="1.073" cy="1.073" r=".073"/></g><g transform="translate(61.407 57.888)"><circle cx="1.073" cy="1.073" r="1.073" stroke="none"/><circle cx="1.073" cy="1.073" r=".073"/></g></g></svg>