<svg xmlns="http://www.w3.org/2000/svg" width="107.921" height="73.506"><g transform="translate(-906 -21580)"><path stroke-width="2" stroke="#0073ff" stroke-linecap="round" stroke-linejoin="round" fill="none" d="M1000.344 21650.551h12.577m-105.921 0h12.577"/><g transform="translate(921.341 21619.447)" fill="#fff" stroke="#0073ff" stroke-linecap="round" stroke-linejoin="round" stroke-width="2"><circle cx="1.469" cy="1.469" r="1.469" stroke="none"/><circle cx="1.469" cy="1.469" r=".469" fill="none"/></g><path d="M955.106 21581.849l1.682.7.649-1.552m44.941 48.162l-2 .415.382 1.845" fill="none" stroke="#0073ff" stroke-linecap="round" stroke-linejoin="round" stroke-width="2"/><path d="M973.881 21590.847l.445-2.24 13.8 2.742-.446 2.24zm7.783-3.078a1.8 1.8 0 01-1.422-2.127 1.81 1.81 0 113.55.706 1.8 1.8 0 01-2.128 1.421zm-2.058 10.344a1.81 1.81 0 112.127-1.421 1.806 1.806 0 01-2.127 1.421zm-27.711-4.809l-6.393.932-.321-2.2 6.392-.932zm-17.482 13.754l6.084-1.1.406 2.247-6.083 1.1 1.1 6.082-2.246.406-1.1-6.082-6.083 1.1-.406-2.247 6.083-1.1-1.1-6.082 2.246-.406zm57.041 6.257l4.372-4.371 1.615 1.615-4.372 4.371 4.371 4.371-1.614 1.614-4.371-4.371-4.371 4.371-1.615-1.614 4.371-4.372-4.37-4.37 1.614-1.614z" fill="#0073ff"/><path d="M964.67 21594.235l-16.7 20.6 26.192 4.163z" fill="none" stroke="#0073ff" stroke-linecap="round" stroke-linejoin="round" stroke-width="2"/><circle cx="13.531" cy="13.531" r="13.531" transform="translate(961.347 21625.443)" fill="none" stroke="#0073ff" stroke-linecap="round" stroke-linejoin="round" stroke-width="2"/><path stroke-width="2.001" stroke="#0073ff" stroke-linecap="round" stroke-linejoin="round" fill="none" d="M925.541 21631.391l20.544-8.333 8.333 20.544-20.544 8.333z"/></g></svg>