<svg xmlns="http://www.w3.org/2000/svg" width="107.921" height="73.506" viewBox="0 0 107.921 73.506"><g transform="translate(-906 -21580)"><line x2="12.577" transform="translate(1000.344 21650.551)" stroke-width="2" stroke="#0073ff" stroke-linecap="round" stroke-linejoin="round" fill="none"/><line x2="12.577" transform="translate(907 21650.551)" stroke-width="2" stroke="#0073ff" stroke-linecap="round" stroke-linejoin="round" fill="none"/><g transform="translate(921.341 21619.447)" fill="#fff" stroke="#0073ff" stroke-linecap="round" stroke-linejoin="round" stroke-width="2"><circle cx="1.469" cy="1.469" r="1.469" stroke="none"/><circle cx="1.469" cy="1.469" r="0.469" fill="none"/></g><path d="M6114.9,5274.68l1.682.7.649-1.552" transform="translate(-5159.794 16307.169)" fill="none" stroke="#0073ff" stroke-linecap="round" stroke-linejoin="round" stroke-width="2"/><path d="M6162.172,5321.99l-2,.415.382,1.845" transform="translate(-5159.794 16307.169)" fill="none" stroke="#0073ff" stroke-linecap="round" stroke-linejoin="round" stroke-width="2"/><g transform="translate(-5159.794 16307.169)"><rect width="2.284" height="14.066" transform="matrix(0.195, -0.981, 0.981, 0.195, 6133.675, 5283.678)" fill="#0073ff"/><path d="M6141.458,5280.6a1.8,1.8,0,0,1-1.422-2.127,1.81,1.81,0,1,1,3.55.706A1.8,1.8,0,0,1,6141.458,5280.6Z" fill="#0073ff"/><path d="M6139.4,5290.944a1.81,1.81,0,1,1,2.127-1.421A1.806,1.806,0,0,1,6139.4,5290.944Z" fill="#0073ff"/></g><g transform="translate(-5159.794 16307.169)"><path d="M6111.689,5286.135l-6.393.932-.321-2.2,6.392-.932Z" fill="#0073ff"/></g><g transform="translate(-5159.794 16307.169)"><path d="M6094.207,5299.889l6.084-1.1.406,2.247-6.083,1.1,1.1,6.082-2.246.406-1.1-6.082-6.083,1.1-.406-2.247,6.083-1.1-1.1-6.082,2.246-.406Z" fill="#0073ff"/></g><g transform="translate(-5159.794 16307.169)"><path d="M6151.248,5306.146l4.372-4.371,1.615,1.615-4.372,4.371,4.371,4.371-1.614,1.614-4.371-4.371-4.371,4.371-1.615-1.614,4.371-4.372-4.37-4.37,1.614-1.614Z" fill="#0073ff"/></g><path d="M6124.464,5287.066l-16.7,20.6,26.192,4.163Z" transform="translate(-5159.794 16307.169)" fill="none" stroke="#0073ff" stroke-linecap="round" stroke-linejoin="round" stroke-width="2"/><circle cx="13.531" cy="13.531" r="13.531" transform="translate(961.347 21625.443)" fill="none" stroke="#0073ff" stroke-linecap="round" stroke-linejoin="round" stroke-width="2"/><rect width="22.162" height="22.162" transform="matrix(0.927, -0.376, 0.376, 0.927, 925.541, 21631.391)" stroke-width="2" stroke="#0073ff" stroke-linecap="round" stroke-linejoin="round" fill="none"/></g></svg>