<svg xmlns="http://www.w3.org/2000/svg" width="18.126" height="17.311"><path d="M9.063 4.17v12.64M3.354 8.655v8.155m11.009-8.155v8.155M3.23 4.584a1.1 1.1 0 01.544 1.45 1.479 1.479 0 01-1.959.734 2 2 0 01-.992-2.646 2.7 2.7 0 013.575-1.34c1.436.653 1.811 2.058 1.811 3.606v10.423m8.687-12.227a1.1 1.1 0 00-.544 1.45 1.48 1.48 0 001.959.734 2 2 0 00.992-2.646 2.7 2.7 0 00-3.575-1.34c-1.436.653-1.811 2.058-1.811 3.606v10.423M.5.5h17.126" fill="none" stroke="#fff" stroke-linecap="round" stroke-linejoin="round"/></svg>