<svg xmlns="http://www.w3.org/2000/svg" width="69.2" height="66"><path d="M34.599 15.4V65M12.2 33v32m43.2-32v32M11.712 17.024a4.3 4.3 0 012.134 5.69 5.8 5.8 0 01-7.686 2.882 7.842 7.842 0 01-3.894-10.384 10.593 10.593 0 0114.027-5.26c5.634 2.561 7.107 8.075 7.107 14.15v40.9m34.087-47.978a4.3 4.3 0 00-2.134 5.69 5.8 5.8 0 007.686 2.882 7.842 7.842 0 003.894-10.384 10.593 10.593 0 00-14.027-5.26c-5.634 2.561-7.106 8.075-7.106 14.15v40.9M1 1h67.2" fill="none" stroke="#0073ff" stroke-linecap="round" stroke-linejoin="round" stroke-width="2"/></svg>