<?xml version="1.0" encoding="utf-8"?>
<!-- Generator: Adobe Illustrator 23.0.2, SVG Export Plug-In . SVG Version: 6.00 Build 0)  -->
<svg version="1.1" id="Layer_1" xmlns="http://www.w3.org/2000/svg" xmlns:xlink="http://www.w3.org/1999/xlink" x="0px" y="0px"
	 viewBox="0 0 288 198.1" style="enable-background:new 0 0 288 198.1;" xml:space="preserve">
<style type="text/css">
	.st0{fill:#FFFFFF;}
	.st1{fill:#0073FF;}
</style>
<rect x="278.5" y="143" class="st0" width="7.6" height="21.8"/>
<g>
	<path class="st1" d="M287,141h-9.6c-0.1,0-0.1,0-0.2,0c-0.1,0-0.1,0-0.2,0h-26.8c-0.6,0-1,0.4-1,1v23.8c0,0.6,0.4,1,1,1h26.8
		c0.1,0,0.1,0,0.2,0c0.1,0,0.1,0,0.2,0h9.6c0.6,0,1-0.4,1-1V142C288,141.4,287.6,141,287,141z M286,164.7h-7.6V143h7.6V164.7z
		 M251.4,143h24.8v21.8h-24.8V143z"/>
	<path class="st1" d="M144.2,75.9c0.6,0,1-0.5,0.9-1.1c0-0.6-0.5-1-1.1-0.9c-1.1,0.1-2,0.1-2.9,0c-4.3-0.2-6.3-1.5-7.2-2.3
		c-0.5-0.5-0.6-0.8-0.6-0.8c-0.2-0.5-0.7-0.8-1.3-0.6c-0.5,0.2-0.8,0.7-0.6,1.3c0.1,0.2,1.6,4.6,10.7,4.6
		C142.8,75.9,143.5,75.9,144.2,75.9z"/>
	<path class="st1" d="M239.2,135.4H221h-28.8c-0.6,0-1,0.4-1,1V153l-18.2-1.2l-10.3-20.2c-0.7-4.6-1.9-12-3.9-19.6
		c4.8,0,9.6-0.4,14.4-1.2h18.3h0.5h23.1c0.6,0,1-0.4,1-1V83.2c0-0.6-0.4-1-1-1H192h-0.5h-20c-0.6,0-1,0.4-1,1v6.9
		c-3.3,0.9-7.6,1.1-11.9,1l-0.1-2c0-0.5-0.4-0.9-0.9-0.9l-14-1.1v-1.6c1.8-0.2,3.5-0.5,5.2-1c6.5-1.7,11.4-7.2,13.4-15.1
		c0.7-2.7,1-5.5,0.9-8.2c0.3,0,0.7,0.1,1.1,0.1c0.4,0,0.7,0,1.1-0.1c1.9-0.2,3.4-1.1,4.3-2.5c1.5-2.5,0.8-6.1,0-8.2
		c2.1-2.9,2.4-6.2,1-9.4c-1-2.1-2.7-4.1-4.8-5.5c-0.4-1.2-0.9-2.2-1.5-3.1c-2.7-3.9-8-6-14.4-6.1c-10.3-10.9-25.4-10.9-36.1-4.6
		c-11.6,6.8-19.4,21.3-12.1,39.3c-1,0.7-1.8,1.6-2.5,2.8c-1.7,3.2-1.5,7.5,0.7,10.5c1.7,2.4,4.3,3.5,7.4,3.3
		c0.3,1.3,1.1,2.5,2.1,3.4c1.2,1,2.6,1.5,4.2,1.5c0.2,0,0.4,0,0.6,0c1-0.1,2-0.4,2.9-1c0.9,0.6,1.9,0.9,2.9,0.8
		c1.3,0,2.6-0.6,3.5-1.6c0,0,0.1-0.1,0.1-0.1c2.8,2,6,3.4,9.4,4.2V87l-2.3,0c-0.5,0-5.3-0.2-9.9,3.8c-5,4.3-7.9,11.8-8.6,22.1
		l-3.3,27.9c-0.1,0.5,0.3,1,0.7,1.1c0.3,0.1,1.9,0.5,4.5,0.9c-3.4,4.8-3.1,12.8,1,18.3c2.8,3.8,6.9,5.7,11.8,5.7
		c1.5,0,3.2-0.2,4.9-0.6h22.7h0h10.5v1.4c0,2.6,2.1,4.7,4.7,4.7h14.3c0.8,0,1.7-0.3,2.4-0.7c0.9-0.6,1.6-1.6,1.8-2.7
		c0.2-0.9,0-1.9-0.4-2.7h4.7c0,0,0,0,0,0H221h18.2c0.6,0,1-0.4,1-1v-28.8C240.2,135.9,239.7,135.4,239.2,135.4z M238.2,164.2H222
		v-26.8h16.2V164.2z M195,164.2h-1.8v0v-9.1v-1v-1v-15.7H220v26.8h-24H195z M185.6,166.9c0.3,0.5,0.5,1.1,0.3,1.7
		c-0.1,0.6-0.4,1.1-0.9,1.4c-0.4,0.3-0.8,0.4-1.2,0.4h-14.3c-1.5,0-2.7-1.2-2.7-2.7v-1.4v-1v-1v-3.1h9.9c0.6,0.2,3.7,1.1,6.3,3.1
		c0.4,0.3,0.8,0.6,1.2,1c0.3,0.3,0.6,0.6,0.9,1C185.3,166.5,185.4,166.7,185.6,166.9z M137.4,164.2c1.1-0.5,2.2-1.1,3.4-1.7
		l12.6-8.7l0,0v10.4h0H137.4z M116.6,159.9c-3.8-5.1-3.9-12.7-0.3-16.7c0,0,0.1-0.1,0.1-0.1l4.2-0.3l6.5-0.5l1.5-0.1
		c0.1,0,0.2,0,0.4-0.1l0.7-0.3c0,0,0,0.1-0.1,0.1c0,0.2-0.1,0.3-0.1,0.5c-0.1,0.3-0.2,0.7-0.3,1c-0.1,0.4-0.3,0.7-0.4,1
		c-1.5,3-4.5,5-8,5c0,0-0.1,0-0.1,0c-0.5,0-1,0.4-1,1c0,0.6,0.4,1,1,1c0,0,0.1,0,0.1,0c0.2,0,0.5,0,0.7,0c0.1,1,0.6,2,1.6,2.6
		c0.7,0.4,1.6,0.7,2.5,0.7c0.4,0,0.8-0.1,1.3-0.2c1.1-0.3,2.1-0.7,3-1.3c0.5-0.3,0.6-0.9,0.3-1.4c-0.3-0.5-0.9-0.6-1.4-0.3
		c-0.8,0.5-1.6,0.8-2.5,1.1c-0.7,0.2-1.5,0.1-2.1-0.3c-0.4-0.3-0.6-0.8-0.6-1.2c3.4-0.9,6.2-3.3,7.5-6.6c0.1-0.3,0.3-0.7,0.4-1
		c0.1-0.3,0.2-0.7,0.2-1c0-0.1,0-0.1,0-0.2c0.1-0.5-0.2-0.9-0.7-1.1l12.3-6.1l0.1,0l1,1.3l3.3,4.4l0.7,0.9l0.7,0.9l0.5,0.7l2.8,3.7
		l0.6,0.8l0.6,0.8l1.5,1.9l-0.3,0.2l-1.2,0.8l-0.1,0l-1.1,0.7l-1.1,0.8l-11.4,7.9c-2.2,1.2-4.2,2.2-6.2,2.8c-0.5,0.2-1,0.3-1.5,0.5
		c-0.5,0.1-0.9,0.2-1.4,0.3C124.7,165.7,119.8,164.2,116.6,159.9z M122.1,92.4c4.1-3.6,8.4-3.4,8.5-3.4c0,0,0,0,0.1,0c0,0,0,0,0,0
		l2.6,0l9.6,0c0.1,0,0.3,0.1,0.4,0.1c0,0,0.1,0,0.1,0c0.8,0.2,1.6,0.5,2.4,1c0.5,0.3,1,0.7,1.4,1.2c0.4,0.3,0.7,0.7,1.1,1.1
		c1.7,2,3.2,4.7,4.5,7.8c-2.7-0.2-5-0.5-6.4-0.6c-0.1,0-0.1,0-0.2,0l0.1-0.4l0.3-1.1c0.1-0.5-0.1-1-0.5-1.2l-0.5-0.2l-1.9-0.9
		l-0.9-0.4l-0.9-0.4l-5.4-2.5c-0.5-0.2-1.1,0-1.3,0.5c-0.1,0.2-0.1,0.5,0,0.8c0.1,0.2,0.3,0.5,0.5,0.6l5.7,2.6l0.9,0.4l0.9,0.4
		l1.4,0.6l-0.3,1.2l-0.2,0.6c0,0,0,0,0,0l-0.1,0.4l-0.3,1l-2.2,7.9c0,0,0,0,0,0l-0.4,1.4l-7.4-1.3c-5.8-1.1-9.4-3.1-10.4-5.7
		c-1-2.7,0.9-5.3,0.9-5.3c0.2-0.3,0.2-0.6,0.1-0.9c-0.1-0.2-0.2-0.3-0.3-0.5c-0.4-0.3-1.1-0.2-1.4,0.2c-0.1,0.1-2.6,3.5-1.2,7.2
		c1.3,3.3,5.3,5.7,11.9,7l8.3,1.5c0.1,0,0.1,0,0.2,0c0.4,0,0.8-0.3,1-0.7l0.4-1.4c4.6,0.7,9.2,1.1,13.8,1.2
		c1.6,5.8,2.8,11.8,3.6,16.8c-1.7-1-3.9-1.2-5.8-0.2l-9.6,5l-0.5-0.6c-0.3-0.4-0.8-0.5-1.2-0.3l-14.8,7.3l-12.2,1
		c-2.4-0.4-4.1-0.7-5.1-0.9l3.2-27C114.8,103.4,117.5,96.4,122.1,92.4z M134.2,83.1c-3.5-0.7-6.7-2.1-9.6-4.1
		c-0.3-0.2-0.6-0.4-0.9-0.7c-0.3-0.2-0.6-0.5-0.9-0.7c-1-0.9-2-1.8-2.9-2.8c-0.2-0.2-0.4-0.3-0.7-0.3c-0.1,0-0.2,0-0.3,0
		c-0.1,0-0.2,0-0.3,0.1c-2.5,0.5-4.3-0.2-5.1-1.9c-0.5-1.1-0.4-2.3,0.3-3.4c0.6-1,1.6-1.8,2.9-2.2c0.4-0.1,0.8-0.2,1.3-0.3
		c0.1,0,0.2,0,0.3,0c0.3,0,0.6-0.2,0.7-0.4c0.2-0.2,0.2-0.5,0.2-0.8c-0.1-0.2-0.1-0.4-0.1-0.6c-0.1-0.6-0.2-1.1-0.2-1.7
		c-0.3-3.3,0.8-6.6,2.7-9.5c0-0.1,0.1-0.1,0.1-0.2c0.2-0.3,0.4-0.6,0.6-0.9c0.2-0.3,0.4-0.6,0.6-0.8c0.2-0.2,0.3-0.4,0.5-0.6
		c0.3-0.3,0.5-0.6,0.8-0.9c0.3-0.3,0.7-0.7,1-1c0.4-0.4,0.8-0.7,1.2-1c2.2-1.9,4.7-3.5,7.4-4.7c0,0.2,0,0.4,0,0.5
		c0.1,0.4,0.1,0.7,0.3,1c0.7,1.6,2.2,2.7,4.1,2.7c0.7,0,1.4-0.2,2.1-0.5c0.1,0.2,0.2,0.4,0.4,0.6c0.2,0.3,0.4,0.7,0.7,1
		c0.3,0.3,0.6,0.7,0.9,1c4.2,4,11.6,4.2,15.1,4.1c0,0,0,0,0,0c0.4,2.1,1,5.3,3.9,6.6c0.1,2.7-0.1,5.5-0.8,8.3
		c-1.8,7.2-6.1,12.2-11.9,13.7c-1.9,0.5-3.9,0.8-5.8,1c-0.5,0-0.9,0.5-0.9,1V87l-6.6,0v-2.9C135,83.7,134.7,83.2,134.2,83.1z
		 M117.8,79.7c-0.4-0.3-0.9-0.4-1.3,0c-0.7,0.6-1.6,0.9-2.5,1c-1.2,0.1-2.4-0.3-3.3-1c-0.9-0.8-1.5-1.9-1.6-3.1
		c0-0.3-0.2-0.5-0.4-0.7c-0.2-0.1-0.4-0.2-0.6-0.2c-0.1,0-0.1,0-0.2,0c-2.7,0.5-5-0.4-6.5-2.4c-1.7-2.3-1.9-5.8-0.5-8.4
		c0.4-0.7,0.9-1.3,1.5-1.8c0.3-0.2,0.5-0.4,0.8-0.6c0.3-0.2,0.6-0.3,0.9-0.4c0.6-0.2,1.2-0.3,1.9-0.4c0.3,0,0.6,0,1,0
		c0.3,0,0.6-0.1,0.8-0.3c0.2-0.2,0.3-0.5,0.2-0.8c0-0.1,0-0.1,0-0.2c-0.1-0.5-0.1-1,0-1.5c0.2-1.2,0.9-2.1,1.9-2.8
		c1-0.6,2.2-0.9,3.3-0.6c0.5,0.1,1.1-0.2,1.2-0.7c0.4-1.7,1.9-3,3.7-3c0.7,0,1.3,0.2,1.8,0.5c0,0,0,0,0,0c-0.5,0.7-0.9,1.4-1.2,2
		c-0.3,0.6-0.6,1.2-0.8,1.8c-1.2,2.8-1.6,5.8-1,8.9c-2.1,0.4-3.8,1.6-4.8,3.3c-1,1.6-1.1,3.5-0.4,5.2c0.5,1.2,2.3,4,7.1,3.2
		c1,1.1,2,2.1,3.1,3C120.9,80.7,119,80.8,117.8,79.7z M114.8,23.6c4.3-2.5,9.4-4,14.6-4c6.2,0,12.6,2.1,17.8,7
		c-1.2,0.1-2.5,0.3-3.8,0.5c-9.5,1.9-20.8,8.7-23.8,22.1c0,0.2,0,0.4,0.1,0.6c-0.4-0.1-0.9-0.2-1.3-0.2c-2.4,0-4.5,1.5-5.4,3.6
		c-1.4-0.1-2.8,0.2-3.9,1c-1.4,0.9-2.4,2.4-2.8,4.1c-0.1,0.4-0.1,0.8-0.1,1.3c-0.9,0.1-1.8,0.2-2.6,0.5
		C96.8,43.5,104,29.9,114.8,23.6z M162.7,33.7c0.1,0.1,0.1,0.2,0.2,0.3c-1.5-0.6-3.1-1-4.7-1.1c-3.2-0.2-5.9,1-7.7,3.4
		c-0.6-0.4-1.3-0.7-2-0.9c-0.4-0.1-0.9-0.2-1.3-0.3c-0.6-0.1-1.1-0.2-1.5-0.2c-0.3,0-0.5,0-0.8,0c-2.5,0.4-4.6,1.9-5.7,4.1
		c-0.8-0.2-1.6-0.2-2.3,0.1c-1.1,0.3-2,1.1-2.6,2.1c-4.1,1.7-7.9,4.2-11,7.2l-1.5,0c3.2-11.7,13.3-17.7,22-19.4
		c1.8-0.4,3.6-0.5,5.3-0.6c0.2,0,0.3,0,0.5,0c0.3,0,0.6,0,0.9,0c0.5,0,0.9,0,1.4,0.1C156.6,29,160.6,30.8,162.7,33.7z M167.7,49.7
		c-0.2,0.3-0.3,0.7-0.1,1c0.9,2.1,1.3,5.2,0.3,6.9c-0.5,0.9-1.4,1.4-2.8,1.6c-0.8,0.1-1.5,0-2.2-0.1c-0.4-0.1-0.7-0.2-1-0.3
		c-0.4-0.2-0.8-0.5-1.1-0.8c-1-1.1-1.3-2.7-1.7-4.3c-0.1-0.3-0.1-0.6-0.2-0.9c-0.1-0.5-0.5-0.8-1-0.8c0,0,0,0-0.1,0
		c-2.3,0.1-8.3,0.2-12.6-2.2c-0.5-0.3-1-0.6-1.4-1c-0.4-0.3-0.7-0.6-1-1c-0.6-0.7-1.1-1.5-1.4-2.4c-0.1-0.3-0.4-0.6-0.7-0.6
		c-0.3-0.1-0.7,0-0.9,0.3c-0.4,0.5-1.1,0.8-1.7,0.8c-1.1,0-2.1-0.8-2.3-1.9c0-0.2-0.1-0.4-0.1-0.6c0-0.2,0-0.4,0.1-0.6c0,0,0,0,0,0
		c0-0.2,0.1-0.4,0.2-0.6c0.2-0.3,0.4-0.6,0.8-0.8c0.2-0.1,0.4-0.3,0.7-0.3c0.2-0.1,0.5-0.1,0.7-0.1c0.1,0,0.2,0,0.3,0
		c0.3,0,0.5,0.1,0.8,0.2c0.2,0.1,0.3,0.1,0.5,0.1c0.1,0,0.2,0,0.4-0.1c0.3-0.1,0.4-0.3,0.5-0.5c0,0,0,0,0-0.1c0-0.1,0.1-0.2,0.1-0.3
		c0.2-0.4,0.3-0.8,0.6-1.1c0.1-0.2,0.3-0.4,0.4-0.5c0.6-0.7,1.4-1.2,2.2-1.5c0.4-0.1,0.8-0.2,1.2-0.3c0.3,0,0.7,0,1.1,0
		c1.4,0.1,3.1,0.7,3.7,1.5c0.2,0.3,0.5,0.4,0.9,0.4c0.3,0,0.6-0.2,0.8-0.5c1.7-2.9,4.5-3.4,6.5-3.3c2,0.1,4.1,0.8,5.9,1.9
		c0.4,0.2,0.8,0.5,1.1,0.8c0.4,0.3,0.7,0.6,1.1,0.9c1.1,1,2,2.2,2.6,3.4C169.6,43.8,170.1,46.7,167.7,49.7z M121.4,50.5
		c0,0-0.1,0.1-0.1,0.1c-0.1,0-0.1-0.1-0.2-0.1L121.4,50.5z M156.5,90.1l0,1l0,1l0,1l0.4,7.5c-0.7,0-1.4-0.1-2.1-0.1
		c-1.2-2.9-2.6-5.6-4.1-7.7c-0.3-0.4-0.5-0.7-0.8-1.1c-0.3-0.4-0.6-0.8-0.9-1.1c-0.4-0.4-0.7-0.8-1.1-1.1L156.5,90.1z M170.5,92.1
		v7.4c-3.8,0.5-7.6,0.9-11.5,0.9l-0.4-7.4C162.8,93.1,167.1,92.9,170.5,92.1z M172.5,88.9v-4.8h18v24.6h-11
		c7.5-3.2,10.1-7.8,9.9-10.5c-0.1-1.6-0.5-3.1-1.1-4.5c-0.1-0.5-0.3-0.9-0.5-1.3c-0.2-0.5-0.5-0.9-0.9-1.2c-0.3-0.2-0.6-0.4-1-0.5
		c-0.3-0.1-0.6-0.1-0.9-0.1c-1.8,0.1-3.7,3.4-3.7,3.4c-0.4,0.5-0.8,1-1.3,1.5c0.5-1.2,0.7-2.2,0.4-3c-0.2-0.6-0.6-1.1-1.3-1.4
		c-0.7-0.3-1.4-0.2-2.1,0.1c-2.5,1.2-4.1,6.5-4.5,7.8c0,0,0,0.1,0,0.1c0,0,0,0,0,0v-0.1v-8v-1.2V88.9z M158.2,110.1
		c-0.3,0-0.7,0-1,0c-0.4,0-0.7,0-1.1,0c-4.2-0.1-8.5-0.4-12.7-1.1c0,0,0,0,0,0l2-7.1l0.1-0.3c0,0,0,0,0,0c0.4,0,0.8,0.1,1.4,0.2
		c0,0,0,0,0,0c1.6,0.2,3.9,0.4,6.6,0.6c0.4,0,0.8,0,1.1,0.1c0.4,0,0.7,0,1.1,0.1c0.4,0,0.9,0,1.3,0.1c0.3,0,0.7,0,1,0
		c0.3,0,0.7,0,1,0c3.9,0.1,8-0.1,11.4-0.7c0.3-0.1,0.7-0.1,1-0.2c0.2-0.1,0.5-0.1,0.7-0.2c0.1,0,0.2,0,0.3,0
		c0.3-0.1,0.6-0.2,1.1-0.4c0.4-0.2,0.9-0.4,1.5-0.7c0.3-0.2,0.5-0.6,0.5-0.9c0-0.1,0-0.3-0.1-0.4c-0.1-0.2-0.3-0.3-0.5-0.4
		c-0.1,0-0.1-0.1-0.2-0.1c0.8-2.2,2-4.6,3-5.2c0.2-0.1,0.3-0.1,0.4,0c0.1,0,0.1,0.1,0.1,0.1c0,0.1,0.2,1-1.5,3.6
		c0,0-0.1,0.1-0.1,0.1l-0.3,0.7c0,0.1,0,0.1,0,0.2c-0.1,0.3,0,0.7,0.2,0.9c0,0,0,0,0.1,0.1c0.3,0.2,0.6,0.3,1,0.2
		c1.3-0.4,2.5-1.1,3.5-2c0.6-0.5,1.1-1.2,1.6-1.9c0,0,0,0,0,0c0.4-0.8,1.7-2.3,2.1-2.4c0.2,0,0.4,0,0.5,0.1c0.2,0.1,0.4,0.4,0.6,1
		c0.1,0.2,0.1,0.4,0.2,0.6c0.1,0.2,0.1,0.3,0.2,0.5c0.4,1.1,0.7,2.2,0.8,3.4c0.2,2.1-3,7.4-13.8,10.3c-0.2,0-0.3,0-0.5,0.1
		c-0.5,0.1-1.1,0.2-1.6,0.2c-0.3,0-0.7,0.1-1,0.1C166.4,109.8,162.3,110,158.2,110.1z M170.7,151.6l0.5,1l0.5,1l2.6,5.1h-9
		c-0.6-0.7-2.4-2.7-4.4-5.8c-0.2-0.3-0.4-0.7-0.7-1c-0.2-0.3-0.4-0.7-0.6-1c-0.9-1.6-1.9-3.4-2.8-5.4c-0.1-0.3-0.3-0.4-0.6-0.5
		c-0.3-0.1-0.5-0.1-0.8,0.1l-1.5,0.8l-3-4l-0.7-0.9l-0.7-0.9l-3.6-4.8l9.3-4.9c1.9-1,4.3-0.3,5.3,1.6l0.1,0.1l1.4,2.6l0.9,1.9
		L170.7,151.6z M191.2,155v9.3H186c-3.5-3.7-8.7-5-8.9-5.1c-0.1,0-0.2,0-0.2,0h-0.1l-2.7-5.3L191.2,155z M156.4,149l-1.2-1.5
		l0.3-0.2C155.8,147.8,156.1,148.4,156.4,149z M155.3,152.6l3.2,0.2c3,5,5.6,7.6,5.7,7.7c0.2,0.2,0.4,0.2,0.6,0.3v3.5h-9.5V152.6z
		 M214.1,84.2v24.6H193h-0.5V84.2h0.5H214.1z"/>
	<path class="st1" d="M134.1,150.8c0.2,0,0.3,0,0.4-0.1l3.4-1.7c0.5-0.2,0.7-0.8,0.4-1.3c-0.2-0.5-0.8-0.7-1.3-0.4l-3.4,1.7
		c-0.5,0.2-0.7,0.8-0.4,1.3C133.3,150.6,133.7,150.8,134.1,150.8z"/>
	<path class="st1" d="M141.8,146.9c0.2,0,0.3,0,0.5-0.1l2.9-1.5c0.5-0.3,0.7-0.9,0.4-1.3s-0.9-0.7-1.3-0.4l-2.9,1.5
		c-0.5,0.3-0.7,0.9-0.4,1.3C141,146.7,141.4,146.9,141.8,146.9z"/>
	<path class="st1" d="M208,143c-0.2-0.5-0.9-0.7-1.3-0.4c-0.5,0.2-0.7,0.9-0.4,1.3l0.1,0.3c-0.5-0.2-1,0-1.3,0.5l-7.5,14.9
		c-0.2,0.5-0.1,1.1,0.4,1.3c0.1,0.1,0.3,0.1,0.5,0.1c0.4,0,0.7-0.2,0.9-0.5l2.8-5.5h9.6l2.6,5.1c0.2,0.3,0.5,0.5,0.9,0.5
		c0.2,0,0.3,0,0.5-0.1c0.5-0.2,0.7-0.9,0.4-1.3L208,143z M203.2,152.9l3.7-7.3c0-0.1,0-0.1,0.1-0.2l3.8,7.5H203.2z"/>
	<path class="st1" d="M264.6,151.2C264.6,151.2,264.6,151.2,264.6,151.2l-3.6,0v-4.1h5.9c0.6,0,1-0.4,1-1s-0.4-1-1-1h-6.9
		c-0.6,0-1,0.4-1,1v6.1v9.5c0,0.6,0.4,1,1,1h4.5c0,0,0.1,0,0.1,0c2.1,0,3.8-1.7,3.9-3.8V155C268.5,152.9,266.7,151.2,264.6,151.2z
		 M266.5,158.8c0,1-0.9,1.9-2,1.9h-3.5v-7.5h3.5c0,0,0,0,0,0c1,0,1.9,0.8,1.9,1.8V158.8z"/>
	<path class="st1" d="M199.1,105.3l4.4,0c0.1,0,0.1,0,0.2,0c2,0,3.7-1.6,3.8-3.6l0-3.6c-0.1-1.3-0.8-2.4-1.9-3.1
		c0.3-0.4,0.5-1,0.5-1.5l0-2.8c-0.2-1.8-1.8-3.1-3.4-2.9h-3.7c-0.6,0-1,0.4-1,1v6.8v8.8c0,0,0,0,0,0s0,0,0,0
		C198.1,104.9,198.5,105.3,199.1,105.3z M203.6,103.3h-3.5v-6.8l2.7,0c0.1,0,0.1,0,0.2,0c0,0,0.1,0,0.1,0l0.6,0
		c1-0.1,1.9,0.7,1.9,1.6l0,3.5C205.5,102.6,204.6,103.4,203.6,103.3z M202.9,89.7c0.7-0.1,1.3,0.5,1.4,1l0,2.6
		c-0.1,0.7-0.7,1.2-1.4,1.1h-2.7v-4.8L202.9,89.7z"/>
	<path class="st1" d="M98.8,145.6h-6.6v-3.3c0-0.6-0.4-1-1-1h-6.6c-0.6,0-1,0.4-1,1v3.3h-6.2v-3.3c0-0.6-0.4-1-1-1h-6.6
		c-0.6,0-1,0.4-1,1v3.3h-6.2v-3.3c0-0.6-0.4-1-1-1h-4.9c0.2-0.3,0.2-0.7,0-1l-9.1-16.6c-0.1-0.2-0.3-0.4-0.6-0.5
		c-0.3-0.1-0.5,0-0.8,0.1l-5.8,3.2l-1.6-2.9c-0.1-0.2-0.3-0.4-0.6-0.5c-0.3-0.1-0.5,0-0.8,0.1l-5.8,3.2c-0.2,0.1-0.4,0.3-0.5,0.6
		c-0.1,0.3,0,0.5,0.1,0.8l1.6,2.9l-5.5,3l-1.6-2.9c-0.1-0.2-0.3-0.4-0.6-0.5c-0.3-0.1-0.5,0-0.8,0.1l-5.8,3.2
		c-0.5,0.3-0.7,0.9-0.4,1.4l1.6,2.9l-5.5,3l-1.6-2.9c-0.1-0.2-0.3-0.4-0.6-0.5c-0.3-0.1-0.5,0-0.8,0.1l-5.8,3.2
		c-0.5,0.3-0.7,0.9-0.4,1.4l1.6,2.9L0.9,148c-0.2,0.1-0.4,0.3-0.5,0.6c-0.1,0.3,0,0.5,0.1,0.8L9.5,166c0.2,0.3,0.5,0.5,0.9,0.5
		c0.2,0,0.3,0,0.5-0.1l35.3-19.3v18.4c0,0.6,0.4,1,1,1h51.6c0.6,0,1-0.4,1-1v-18.9C99.8,146,99.4,145.6,98.8,145.6z M11.4,139.6
		l1.1,2l-4.1,2.2l-1.1-2L11.4,139.6z M21.6,139C21.6,139,21.6,139,21.6,139l2.1-1.2l22.6-12.3l8.1,14.8l-43.6,23.8l-8.1-14.8
		L21.6,139z M24.5,132.5l1.1,2l-2.9,1.6l-1.2,0.6v0l-1.1-2L24.5,132.5z M37.5,125.4l1.1,2l-4.1,2.2l-1.1-2L37.5,125.4z M70.7,143.3
		h4.6v2.3h-4.6V143.3z M85.6,143.3h4.6v2.3h-4.6V143.3z M60.5,145.6h-4.6v-2.3h4.6V145.6z M97.8,164.5H48.2v-16.9h49.6V164.5z
		 M53.8,142.9v2.7H49L53.8,142.9z"/>
	<path class="st1" d="M199.8,50c0,0.2-0.1,0.5-0.1,0.7c0,0.3,0,0.5,0.1,0.7c0.3,1.5,1.6,2.7,3.2,2.9c0.1,0,0.2,0,0.3,0
		c0.2,0,0.4,0,0.5-0.1c1.7-0.2,3-1.7,3.1-3.4c0-0.1,0-0.1,0-0.2c0-0.1,0-0.1,0-0.2c-0.1-1.9-1.7-3.4-3.6-3.4
		C201.6,47.1,200.1,48.4,199.8,50z M205,50.7c0,0.9-0.7,1.6-1.6,1.6s-1.6-0.7-1.6-1.6c0-0.9,0.7-1.6,1.6-1.6S205,49.8,205,50.7z"/>
	<path class="st1" d="M119.9,2.9c0.1,0,0.2,0,0.3,0c0.2,0,0.3,0,0.5-0.1c0.6-0.2,1-0.7,1-1.4s-0.4-1.2-1-1.4c-0.1,0-0.3-0.1-0.5-0.1
		c-0.1,0-0.2,0-0.3,0c-0.7,0.1-1.2,0.7-1.2,1.4S119.2,2.8,119.9,2.9z M120.2,0.9c0.3,0,0.5,0.2,0.5,0.5S120.5,2,120.2,2
		c-0.3,0-0.5-0.2-0.5-0.5S119.9,0.9,120.2,0.9z"/>
	<path class="st1" d="M250.8,111.5c0-1-0.7-1.9-1.7-2.1c-0.1,0-0.3,0-0.4,0c-0.2,0-0.3,0-0.5,0.1c-0.7,0.2-1.3,0.7-1.5,1.4
		c-0.1,0.2-0.1,0.5-0.1,0.7c0,0.3,0.1,0.5,0.1,0.7c0.3,0.8,1.1,1.4,2,1.4C249.8,113.6,250.8,112.7,250.8,111.5z M248.5,111.5
		c0-0.1,0.1-0.1,0.1-0.1c0.1,0,0.1,0.1,0.1,0.1C248.8,111.6,248.5,111.6,248.5,111.5z"/>
	<path class="st1" d="M200.8,22.6C200.9,22.6,200.9,22.6,200.8,22.6c0.6,0,1-0.4,1.1-0.9l0.2-2.1c0.1-0.5-0.3-1-0.9-1.1
		c-0.5-0.1-1,0.3-1.1,0.9l-0.2,2.1C199.9,22,200.3,22.5,200.8,22.6z"/>
	<path class="st1" d="M199.3,27.4c-0.1,0.5,0.3,1,0.9,1.1c0,0,0.1,0,0.1,0c0.5,0,0.9-0.4,1-0.9l0.2-2.1c0.1-0.5-0.3-1-0.9-1.1
		c-0.5-0.1-1,0.3-1.1,0.9L199.3,27.4z"/>
	<path class="st1" d="M196.6,24.1l2.1,0.2c0,0,0.1,0,0.1,0c0.5,0,0.9-0.4,1-0.9c0.1-0.5-0.3-1-0.9-1.1l-2.1-0.2
		c-0.5-0.1-1,0.3-1.1,0.9S196,24,196.6,24.1z"/>
	<path class="st1" d="M201.7,23.6c-0.1,0.5,0.3,1,0.9,1.1l2.1,0.2c0,0,0.1,0,0.1,0c0.5,0,0.9-0.4,1-0.9c0.1-0.5-0.3-1-0.9-1.1
		l-2.1-0.2C202.2,22.6,201.7,23,201.7,23.6z"/>
	<path class="st1" d="M80.9,98.4c0.1,0,0.2,0,0.4-0.1l1.2-0.5c0.1,0,0.1-0.1,0.2-0.1c0,0.1,0,0.1,0,0.2l0.5,1.2
		c0.2,0.4,0.5,0.6,0.9,0.6c0.1,0,0.2,0,0.4-0.1c0.5-0.2,0.8-0.8,0.6-1.3l-0.5-1.2c0-0.1-0.1-0.1-0.1-0.2c0.1,0,0.1,0,0.2,0l1.2-0.5
		c0.5-0.2,0.8-0.8,0.6-1.3c-0.2-0.5-0.8-0.8-1.3-0.6l-1.2,0.5c-0.1,0-0.1,0.1-0.2,0.1c0-0.1,0-0.1,0-0.2l-0.5-1.2
		c-0.2-0.5-0.8-0.8-1.3-0.6c-0.5,0.2-0.8,0.8-0.6,1.3l0.5,1.2c0,0.1,0.1,0.1,0.1,0.2c-0.1,0-0.1,0-0.2,0l-1.2,0.5
		c-0.5,0.2-0.8,0.8-0.6,1.3C80.1,98.1,80.5,98.4,80.9,98.4z M83.1,96.3c0.1,0,0.1-0.1,0.2-0.1c0,0.1,0,0.1,0,0.2
		c0,0.1,0.1,0.1,0.1,0.2c-0.1,0-0.1,0-0.2,0c-0.1,0-0.1,0.1-0.2,0.1c0-0.1,0-0.1,0-0.2c0-0.1-0.1-0.1-0.1-0.2
		C83,96.4,83,96.4,83.1,96.3z"/>
	<path class="st1" d="M229.3,64.8l-1.5,1.5c-0.4,0.4-0.4,1,0,1.4c0.2,0.2,0.5,0.3,0.7,0.3s0.5-0.1,0.7-0.3l2.2-2.2
		c0.2-0.2,0.3-0.4,0.3-0.7s-0.1-0.5-0.3-0.7l-2.4-2.4c-0.4-0.4-1-0.4-1.4,0c-0.4,0.4-0.4,1,0,1.4L229.3,64.8z"/>
	<path class="st1" d="M89.9,16.3c0.2,0.2,0.5,0.3,0.7,0.3s0.5-0.1,0.7-0.3c0.4-0.4,0.4-1,0-1.4l-1.5-1.5l1.7-1.7
		c0.4-0.4,0.4-1,0-1.4s-1-0.4-1.4,0l-2.4,2.4c-0.2,0.2-0.3,0.4-0.3,0.7s0.1,0.5,0.3,0.7L89.9,16.3z"/>
	<path class="st1" d="M149.2,60.3c0.6,0,1-0.4,1-1v-3.1c0-0.6-0.4-1-1-1s-1,0.4-1,1v3.1C148.2,59.9,148.7,60.3,149.2,60.3z"/>
	<path class="st1" d="M133.6,60.3c0.6,0,1-0.4,1-1v-3.1c0-0.6-0.4-1-1-1s-1,0.4-1,1v3.1C132.6,59.9,133,60.3,133.6,60.3z"/>
</g>
</svg>
