<svg version="1.1" id="Layer_1" xmlns="http://www.w3.org/2000/svg" x="0" y="0" viewBox="0 0 288 198.1" xml:space="preserve"><style>.st1{fill:#0073ff}</style><path fill="#fff" d="M278.5 143h7.6v21.8h-7.6z"/><path class="st1" d="M287 141h-36.8c-.6 0-1 .4-1 1v23.8c0 .6.4 1 1 1H287c.6 0 1-.4 1-1V142c0-.6-.4-1-1-1zm-1 23.7h-7.6V143h7.6v21.7zM251.4 143h24.8v21.8h-24.8V143zM144.2 75.9c.6 0 1-.5.9-1.1 0-.6-.5-1-1.1-.9-1.1.1-2 .1-2.9 0-4.3-.2-6.3-1.5-7.2-2.3-.5-.5-.6-.8-.6-.8-.2-.5-.7-.8-1.3-.6-.5.2-.8.7-.6 1.3.1.2 1.6 4.6 10.7 4.6.7-.2 1.4-.2 2.1-.2z"/><path class="st1" d="M239.2 135.4h-47c-.6 0-1 .4-1 1V153l-18.2-1.2-10.3-20.2c-.7-4.6-1.9-12-3.9-19.6 4.8 0 9.6-.4 14.4-1.2h41.9c.6 0 1-.4 1-1V83.2c0-.6-.4-1-1-1h-43.6c-.6 0-1 .4-1 1v6.9c-3.3.9-7.6 1.1-11.9 1l-.1-2c0-.5-.4-.9-.9-.9l-14-1.1v-1.6c1.8-.2 3.5-.5 5.2-1 6.5-1.7 11.4-7.2 13.4-15.1.7-2.7 1-5.5.9-8.2.3 0 .7.1 1.1.1.4 0 .7 0 1.1-.1 1.9-.2 3.4-1.1 4.3-2.5 1.5-2.5.8-6.1 0-8.2 2.1-2.9 2.4-6.2 1-9.4-1-2.1-2.7-4.1-4.8-5.5-.4-1.2-.9-2.2-1.5-3.1-2.7-3.9-8-6-14.4-6.1-10.3-10.9-25.4-10.9-36.1-4.6-11.6 6.8-19.4 21.3-12.1 39.3-1 .7-1.8 1.6-2.5 2.8-1.7 3.2-1.5 7.5.7 10.5 1.7 2.4 4.3 3.5 7.4 3.3.3 1.3 1.1 2.5 2.1 3.4 1.2 1 2.6 1.5 4.2 1.5h.6c1-.1 2-.4 2.9-1 .9.6 1.9.9 2.9.8 1.3 0 2.6-.6 3.5-1.6l.1-.1c2.8 2 6 3.4 9.4 4.2V87h-2.3c-.5 0-5.3-.2-9.9 3.8-5 4.3-7.9 11.8-8.6 22.1l-3.3 27.9c-.1.5.3 1 .7 1.1.3.1 1.9.5 4.5.9-3.4 4.8-3.1 12.8 1 18.3 2.8 3.8 6.9 5.7 11.8 5.7 1.5 0 3.2-.2 4.9-.6H165v1.4c0 2.6 2.1 4.7 4.7 4.7H184c.8 0 1.7-.3 2.4-.7.9-.6 1.6-1.6 1.8-2.7.2-.9 0-1.9-.4-2.7h51.4c.6 0 1-.4 1-1v-28.8c0-.5-.5-1-1-1zm-1 28.8H222v-26.8h16.2v26.8zm-43.2 0h-1.8v-26.8H220v26.8h-25zm-9.4 2.7c.3.5.5 1.1.3 1.7-.1.6-.4 1.1-.9 1.4-.4.3-.8.4-1.2.4h-14.3c-1.5 0-2.7-1.2-2.7-2.7v-6.5h9.9c.6.2 3.7 1.1 6.3 3.1.4.3.8.6 1.2 1 .3.3.6.6.9 1 .2.2.3.4.5.6zm-48.2-2.7c1.1-.5 2.2-1.1 3.4-1.7l12.6-8.7v10.4h-16zm-20.8-4.3c-3.8-5.1-3.9-12.7-.3-16.7l.1-.1 4.2-.3 6.5-.5 1.5-.1c.1 0 .2 0 .4-.1l.7-.3s0 .1-.1.1c0 .2-.1.3-.1.5-.1.3-.2.7-.3 1-.1.4-.3.7-.4 1-1.5 3-4.5 5-8 5h-.1c-.5 0-1 .4-1 1s.4 1 1 1h.8c.1 1 .6 2 1.6 2.6.7.4 1.6.7 2.5.7.4 0 .8-.1 1.3-.2 1.1-.3 2.1-.7 3-1.3.5-.3.6-.9.3-1.4-.3-.5-.9-.6-1.4-.3-.8.5-1.6.8-2.5 1.1-.7.2-1.5.1-2.1-.3-.4-.3-.6-.8-.6-1.2 3.4-.9 6.2-3.3 7.5-6.6.1-.3.3-.7.4-1 .1-.3.2-.7.2-1v-.2c.1-.5-.2-.9-.7-1.1l12.3-6.1h.1l1 1.3 3.3 4.4.7.9.7.9.5.7 2.8 3.7.6.8.6.8 1.5 1.9-.3.2-1.2.8h-.1l-1.1.7-1.1.8-11.4 7.9c-2.2 1.2-4.2 2.2-6.2 2.8-.5.2-1 .3-1.5.5-.5.1-.9.2-1.4.3-6.1 1.2-11-.3-14.2-4.6zm5.5-67.5c4.1-3.6 8.4-3.4 8.5-3.4h12.3c.1 0 .3.1.4.1h.1c.8.2 1.6.5 2.4 1 .5.3 1 .7 1.4 1.2.4.3.7.7 1.1 1.1 1.7 2 3.2 4.7 4.5 7.8-2.7-.2-5-.5-6.4-.6h-.2l.1-.4.3-1.1c.1-.5-.1-1-.5-1.2l-.5-.2-1.9-.9-.9-.4-.9-.4-5.4-2.5c-.5-.2-1.1 0-1.3.5-.1.2-.1.5 0 .8.1.2.3.5.5.6l5.7 2.6.9.4.9.4 1.4.6-.3 1.2-.2.6-.1.4-.3 1-2.2 7.9-.4 1.4-7.4-1.3c-5.8-1.1-9.4-3.1-10.4-5.7-1-2.7.9-5.3.9-5.3.2-.3.2-.6.1-.9-.1-.2-.2-.3-.3-.5-.4-.3-1.1-.2-1.4.2-.1.1-2.6 3.5-1.2 7.2 1.3 3.3 5.3 5.7 11.9 7l8.3 1.5h.2c.4 0 .8-.3 1-.7l.4-1.4c4.6.7 9.2 1.1 13.8 1.2 1.6 5.8 2.8 11.8 3.6 16.8-1.7-1-3.9-1.2-5.8-.2l-9.6 5-.5-.6c-.3-.4-.8-.5-1.2-.3l-14.8 7.3-12.2 1c-2.4-.4-4.1-.7-5.1-.9l3.2-27c.2-9.9 2.9-16.9 7.5-20.9zm12.1-9.3c-3.5-.7-6.7-2.1-9.6-4.1-.3-.2-.6-.4-.9-.7-.3-.2-.6-.5-.9-.7-1-.9-2-1.8-2.9-2.8-.2-.2-.4-.3-.7-.3h-.3c-.1 0-.2 0-.3.1-2.5.5-4.3-.2-5.1-1.9-.5-1.1-.4-2.3.3-3.4.6-1 1.6-1.8 2.9-2.2.4-.1.8-.2 1.3-.3h.3c.3 0 .6-.2.7-.4.2-.2.2-.5.2-.8-.1-.2-.1-.4-.1-.6-.1-.6-.2-1.1-.2-1.7-.3-3.3.8-6.6 2.7-9.5 0-.1.1-.1.1-.2l.6-.9c.2-.3.4-.6.6-.8.2-.2.3-.4.5-.6.3-.3.5-.6.8-.9l1-1c.4-.4.8-.7 1.2-1 2.2-1.9 4.7-3.5 7.4-4.7v.5c.1.4.1.7.3 1 .7 1.6 2.2 2.7 4.1 2.7.7 0 1.4-.2 2.1-.5.1.2.2.4.4.6.2.3.4.7.7 1 .3.3.6.7.9 1 4.2 4 11.6 4.2 15.1 4.1.4 2.1 1 5.3 3.9 6.6.1 2.7-.1 5.5-.8 8.3-1.8 7.2-6.1 12.2-11.9 13.7-1.9.5-3.9.8-5.8 1-.5 0-.9.5-.9 1V87h-6.6v-2.9c-.3-.4-.6-.9-1.1-1zm-16.4-3.4c-.4-.3-.9-.4-1.3 0-.7.6-1.6.9-2.5 1-1.2.1-2.4-.3-3.3-1-.9-.8-1.5-1.9-1.6-3.1 0-.3-.2-.5-.4-.7-.2-.1-.4-.2-.6-.2h-.2c-2.7.5-5-.4-6.5-2.4-1.7-2.3-1.9-5.8-.5-8.4.4-.7.9-1.3 1.5-1.8.3-.2.5-.4.8-.6.3-.2.6-.3.9-.4.6-.2 1.2-.3 1.9-.4h1c.3 0 .6-.1.8-.3.2-.2.3-.5.2-.8v-.2c-.1-.5-.1-1 0-1.5.2-1.2.9-2.1 1.9-2.8 1-.6 2.2-.9 3.3-.6.5.1 1.1-.2 1.2-.7.4-1.7 1.9-3 3.7-3 .7 0 1.3.2 1.8.5-.5.7-.9 1.4-1.2 2-.3.6-.6 1.2-.8 1.8-1.2 2.8-1.6 5.8-1 8.9-2.1.4-3.8 1.6-4.8 3.3-1 1.6-1.1 3.5-.4 5.2.5 1.2 2.3 4 7.1 3.2 1 1.1 2 2.1 3.1 3-1 1-2.9 1.1-4.1 0zm-3-56.1c4.3-2.5 9.4-4 14.6-4 6.2 0 12.6 2.1 17.8 7-1.2.1-2.5.3-3.8.5-9.5 1.9-20.8 8.7-23.8 22.1 0 .2 0 .4.1.6-.4-.1-.9-.2-1.3-.2-2.4 0-4.5 1.5-5.4 3.6-1.4-.1-2.8.2-3.9 1-1.4.9-2.4 2.4-2.8 4.1-.1.4-.1.8-.1 1.3-.9.1-1.8.2-2.6.5-6.8-16.6.4-30.2 11.2-36.5zm47.9 10.1c.1.1.1.2.2.3-1.5-.6-3.1-1-4.7-1.1-3.2-.2-5.9 1-7.7 3.4-.6-.4-1.3-.7-2-.9-.4-.1-.9-.2-1.3-.3-.6-.1-1.1-.2-1.5-.2h-.8c-2.5.4-4.6 1.9-5.7 4.1-.8-.2-1.6-.2-2.3.1-1.1.3-2 1.1-2.6 2.1-4.1 1.7-7.9 4.2-11 7.2h-1.5c3.2-11.7 13.3-17.7 22-19.4 1.8-.4 3.6-.5 5.3-.6h1.4c.5 0 .9 0 1.4.1 4.7.5 8.7 2.3 10.8 5.2zm5 16c-.2.3-.3.7-.1 1 .9 2.1 1.3 5.2.3 6.9-.5.9-1.4 1.4-2.8 1.6-.8.1-1.5 0-2.2-.1-.4-.1-.7-.2-1-.3-.4-.2-.8-.5-1.1-.8-1-1.1-1.3-2.7-1.7-4.3-.1-.3-.1-.6-.2-.9-.1-.5-.5-.8-1-.8h-.1c-2.3.1-8.3.2-12.6-2.2-.5-.3-1-.6-1.4-1-.4-.3-.7-.6-1-1-.6-.7-1.1-1.5-1.4-2.4-.1-.3-.4-.6-.7-.6-.3-.1-.7 0-.9.3-.4.5-1.1.8-1.7.8-1.1 0-2.1-.8-2.3-1.9 0-.2-.1-.4-.1-.6 0-.2 0-.4.1-.6 0-.2.1-.4.2-.6.2-.3.4-.6.8-.8.2-.1.4-.3.7-.3.2-.1.5-.1.7-.1h.3c.3 0 .5.1.8.2.2.1.3.1.5.1.1 0 .2 0 .4-.1.3-.1.4-.3.5-.5v-.1c0-.1.1-.2.1-.3.2-.4.3-.8.6-1.1.1-.2.3-.4.4-.5.6-.7 1.4-1.2 2.2-1.5l1.2-.3h1.1c1.4.1 3.1.7 3.7 1.5.2.3.5.4.9.4.3 0 .6-.2.8-.5 1.7-2.9 4.5-3.4 6.5-3.3 2 .1 4.1.8 5.9 1.9.4.2.8.5 1.1.8.4.3.7.6 1.1.9 1.1 1 2 2.2 2.6 3.4.7 1.8 1.2 4.7-1.2 7.7zm-46.3.8l-.1.1c-.1 0-.1-.1-.2-.1h.3zm35.1 39.6v3l.4 7.5c-.7 0-1.4-.1-2.1-.1-1.2-2.9-2.6-5.6-4.1-7.7-.3-.4-.5-.7-.8-1.1-.3-.4-.6-.8-.9-1.1-.4-.4-.7-.8-1.1-1.1l8.6.6zm14 2v7.4c-3.8.5-7.6.9-11.5.9l-.4-7.4c4.2.1 8.5-.1 11.9-.9zm2-3.2v-4.8h18v24.6h-11c7.5-3.2 10.1-7.8 9.9-10.5-.1-1.6-.5-3.1-1.1-4.5-.1-.5-.3-.9-.5-1.3-.2-.5-.5-.9-.9-1.2-.3-.2-.6-.4-1-.5-.3-.1-.6-.1-.9-.1-1.8.1-3.7 3.4-3.7 3.4-.4.5-.8 1-1.3 1.5.5-1.2.7-2.2.4-3-.2-.6-.6-1.1-1.3-1.4-.7-.3-1.4-.2-2.1.1-2.5 1.2-4.1 6.5-4.5 7.8v.1-10.2zm-14.3 21.2h-2.1c-4.2-.1-8.5-.4-12.7-1.1l2-7.1.1-.3c.4 0 .8.1 1.4.2 1.6.2 3.9.4 6.6.6.4 0 .8 0 1.1.1.4 0 .7 0 1.1.1.4 0 .9 0 1.3.1h2c3.9.1 8-.1 11.4-.7.3-.1.7-.1 1-.2.2-.1.5-.1.7-.2h.3c.3-.1.6-.2 1.1-.4.4-.2.9-.4 1.5-.7.3-.2.5-.6.5-.9 0-.1 0-.3-.1-.4-.1-.2-.3-.3-.5-.4-.1 0-.1-.1-.2-.1.8-2.2 2-4.6 3-5.2.2-.1.3-.1.4 0 .1 0 .1.1.1.1 0 .1.2 1-1.5 3.6l-.1.1-.3.7v.2c-.1.3 0 .7.2.9l.1.1c.3.2.6.3 1 .2a9.4 9.4 0 003.5-2c.6-.5 1.1-1.2 1.6-1.9.4-.8 1.7-2.3 2.1-2.4.2 0 .4 0 .5.1.2.1.4.4.6 1 .1.2.1.4.2.6.1.2.1.3.2.5.4 1.1.7 2.2.8 3.4.2 2.1-3 7.4-13.8 10.3-.2 0-.3 0-.5.1-.5.1-1.1.2-1.6.2-.3 0-.7.1-1 .1-3.8.4-7.9.6-12 .7zm12.5 41.5l.5 1 .5 1 2.6 5.1h-9c-.6-.7-2.4-2.7-4.4-5.8-.2-.3-.4-.7-.7-1-.2-.3-.4-.7-.6-1-.9-1.6-1.9-3.4-2.8-5.4-.1-.3-.3-.4-.6-.5-.3-.1-.5-.1-.8.1l-1.5.8-3-4-.7-.9-.7-.9-3.6-4.8 9.3-4.9c1.9-1 4.3-.3 5.3 1.6l.1.1 1.4 2.6.9 1.9 7.8 15zm20.5 3.4v9.3H186c-3.5-3.7-8.7-5-8.9-5.1h-.3l-2.7-5.3 17.1 1.1zm-34.8-6l-1.2-1.5.3-.2c.3.5.6 1.1.9 1.7zm-1.1 3.6l3.2.2c3 5 5.6 7.6 5.7 7.7.2.2.4.2.6.3v3.5h-9.5v-11.7zm58.8-68.4v24.6h-21.6V84.2h21.6z"/><path class="st1" d="M134.1 150.8c.2 0 .3 0 .4-.1l3.4-1.7c.5-.2.7-.8.4-1.3-.2-.5-.8-.7-1.3-.4l-3.4 1.7c-.5.2-.7.8-.4 1.3.1.3.5.5.9.5zm7.7-3.9c.2 0 .3 0 .5-.1l2.9-1.5c.5-.3.7-.9.4-1.3s-.9-.7-1.3-.4l-2.9 1.5c-.5.3-.7.9-.4 1.3 0 .3.4.5.8.5zM208 143c-.2-.5-.9-.7-1.3-.4-.5.2-.7.9-.4 1.3l.1.3c-.5-.2-1 0-1.3.5l-7.5 14.9c-.2.5-.1 1.1.4 1.3.1.1.3.1.5.1.4 0 .7-.2.9-.5l2.8-5.5h9.6l2.6 5.1c.2.3.5.5.9.5.2 0 .3 0 .5-.1.5-.2.7-.9.4-1.3L208 143zm-4.8 9.9l3.7-7.3c0-.1 0-.1.1-.2l3.8 7.5h-7.6zm61.4-1.7H261v-4.1h5.9c.6 0 1-.4 1-1s-.4-1-1-1H260c-.6 0-1 .4-1 1v15.6c0 .6.4 1 1 1h4.6c2.1 0 3.8-1.7 3.9-3.8V155c0-2.1-1.8-3.8-3.9-3.8zm1.9 7.6c0 1-.9 1.9-2 1.9H261v-7.5h3.5c1 0 1.9.8 1.9 1.8v3.8zm-67.4-53.5h4.6c2 0 3.7-1.6 3.8-3.6v-3.6c-.1-1.3-.8-2.4-1.9-3.1.3-.4.5-1 .5-1.5v-2.8c-.2-1.8-1.8-3.1-3.4-2.9H199c-.6 0-1 .4-1 1v15.6c.1.5.5.9 1.1.9zm4.5-2h-3.5v-6.8h3.6c1-.1 1.9.7 1.9 1.6v3.5c-.1 1-1 1.8-2 1.7zm-.7-13.6c.7-.1 1.3.5 1.4 1v2.6c-.1.7-.7 1.2-1.4 1.1h-2.7v-4.8l2.7.1zM98.8 145.6h-6.6v-3.3c0-.6-.4-1-1-1h-6.6c-.6 0-1 .4-1 1v3.3h-6.2v-3.3c0-.6-.4-1-1-1h-6.6c-.6 0-1 .4-1 1v3.3h-6.2v-3.3c0-.6-.4-1-1-1h-4.9c.2-.3.2-.7 0-1l-9.1-16.6c-.1-.2-.3-.4-.6-.5-.3-.1-.5 0-.8.1l-5.8 3.2-1.6-2.9c-.1-.2-.3-.4-.6-.5-.3-.1-.5 0-.8.1l-5.8 3.2c-.2.1-.4.3-.5.6-.1.3 0 .5.1.8l1.6 2.9-5.5 3-1.6-2.9c-.1-.2-.3-.4-.6-.5-.3-.1-.5 0-.8.1l-5.8 3.2c-.5.3-.7.9-.4 1.4l1.6 2.9-5.5 3-1.6-2.9c-.1-.2-.3-.4-.6-.5-.3-.1-.5 0-.8.1l-5.8 3.2c-.5.3-.7.9-.4 1.4l1.6 2.9L.9 148c-.2.1-.4.3-.5.6-.1.3 0 .5.1.8l9 16.6c.2.3.5.5.9.5.2 0 .3 0 .5-.1l35.3-19.3v18.4c0 .6.4 1 1 1h51.6c.6 0 1-.4 1-1v-18.9c0-.6-.4-1-1-1zm-87.4-6l1.1 2-4.1 2.2-1.1-2 4.1-2.2zm10.2-.6l2.1-1.2 22.6-12.3 8.1 14.8-43.6 23.8-8.1-14.8L21.6 139zm2.9-6.5l1.1 2-2.9 1.6-1.2.6-1.1-2 4.1-2.2zm13-7.1l1.1 2-4.1 2.2-1.1-2 4.1-2.2zm33.2 17.9h4.6v2.3h-4.6v-2.3zm14.9 0h4.6v2.3h-4.6v-2.3zm-25.1 2.3h-4.6v-2.3h4.6v2.3zm37.3 18.9H48.2v-16.9h49.6v16.9zm-44-21.6v2.7H49l4.8-2.7zm146-92.9c0 .2-.1.5-.1.7 0 .3 0 .5.1.7.3 1.5 1.6 2.7 3.2 2.9h.3c.2 0 .4 0 .5-.1 1.7-.2 3-1.7 3.1-3.4v-.4c-.1-1.9-1.7-3.4-3.6-3.4-1.7.1-3.2 1.4-3.5 3zm5.2.7c0 .9-.7 1.6-1.6 1.6s-1.6-.7-1.6-1.6c0-.9.7-1.6 1.6-1.6s1.6.7 1.6 1.6zM119.9 2.9h.3c.2 0 .3 0 .5-.1.6-.2 1-.7 1-1.4s-.4-1.2-1-1.4c-.1 0-.3-.1-.5-.1h-.3c-.7.1-1.2.7-1.2 1.4s.5 1.5 1.2 1.6zm.3-2c.3 0 .5.2.5.5s-.2.6-.5.6-.5-.2-.5-.5.2-.6.5-.6zm130.6 110.6c0-1-.7-1.9-1.7-2.1h-.4c-.2 0-.3 0-.5.1-.7.2-1.3.7-1.5 1.4-.1.2-.1.5-.1.7 0 .3.1.5.1.7.3.8 1.1 1.4 2 1.4 1.1-.1 2.1-1 2.1-2.2zm-2.3 0c0-.1.1-.1.1-.1.1 0 .1.1.1.1.1.1-.2.1-.2 0zm-47.7-88.9c.1 0 .1 0 0 0 .6 0 1-.4 1.1-.9l.2-2.1c.1-.5-.3-1-.9-1.1-.5-.1-1 .3-1.1.9l-.2 2.1c0 .5.4 1 .9 1.1zm-1.5 4.8c-.1.5.3 1 .9 1.1h.1c.5 0 .9-.4 1-.9l.2-2.1c.1-.5-.3-1-.9-1.1-.5-.1-1 .3-1.1.9l-.2 2.1zm-2.7-3.3l2.1.2h.1c.5 0 .9-.4 1-.9.1-.5-.3-1-.9-1.1l-2.1-.2c-.5-.1-1 .3-1.1.9s.3 1 .9 1.1zm5.1-.5c-.1.5.3 1 .9 1.1l2.1.2h.1c.5 0 .9-.4 1-.9.1-.5-.3-1-.9-1.1l-2.1-.2c-.6-.1-1.1.3-1.1.9zM80.9 98.4c.1 0 .2 0 .4-.1l1.2-.5c.1 0 .1-.1.2-.1v.2l.5 1.2c.2.4.5.6.9.6.1 0 .2 0 .4-.1.5-.2.8-.8.6-1.3l-.5-1.2c0-.1-.1-.1-.1-.2h.2l1.2-.5c.5-.2.8-.8.6-1.3-.2-.5-.8-.8-1.3-.6L84 95c-.1 0-.1.1-.2.1v-.2l-.5-1.2c-.2-.5-.8-.8-1.3-.6-.5.2-.8.8-.6 1.3l.5 1.2c0 .1.1.1.1.2h-.2l-1.2.5c-.5.2-.8.8-.6 1.3.1.5.5.8.9.8zm2.2-2.1c.1 0 .1-.1.2-.1v.2c0 .1.1.1.1.2h-.2c-.1 0-.1.1-.2.1v-.2c0-.1-.1-.1-.1-.2.1.1.1.1.2 0zm146.2-31.5l-1.5 1.5c-.4.4-.4 1 0 1.4.2.2.5.3.7.3s.5-.1.7-.3l2.2-2.2c.2-.2.3-.4.3-.7s-.1-.5-.3-.7l-2.4-2.4c-.4-.4-1-.4-1.4 0-.4.4-.4 1 0 1.4l1.7 1.7zM89.9 16.3c.2.2.5.3.7.3s.5-.1.7-.3c.4-.4.4-1 0-1.4l-1.5-1.5 1.7-1.7c.4-.4.4-1 0-1.4s-1-.4-1.4 0l-2.4 2.4c-.2.2-.3.4-.3.7s.1.5.3.7l2.2 2.2zm59.3 44c.6 0 1-.4 1-1v-3.1c0-.6-.4-1-1-1s-1 .4-1 1v3.1c0 .6.5 1 1 1zm-15.6 0c.6 0 1-.4 1-1v-3.1c0-.6-.4-1-1-1s-1 .4-1 1v3.1c0 .6.4 1 1 1z"/></svg>