<svg xmlns="http://www.w3.org/2000/svg" width="288.044" height="198.115" viewBox="0 0 288.044 198.115">
  <g id="game_ed" data-name="game&amp;ed" transform="translate(-5251.956 -2414.051)">
    <rect id="Rectangle_990" data-name="Rectangle 990" width="26.763" height="23.751" transform="translate(5502.367 2556.046)" stroke-width="2" stroke="#0073ff" stroke-linecap="round" stroke-linejoin="round" fill="#fff"/>
    <rect id="Rectangle_991" data-name="Rectangle 991" width="9.553" height="23.751" transform="translate(5529.447 2556.046)" stroke-width="2" stroke="#0073ff" stroke-linecap="round" stroke-linejoin="round" fill="#fff"/>
    <path id="Path_1542" data-name="Path 1542" d="M5431.535,2499.89l-8.454,5.083c-9.149,2.6-27.273,0-27.273,0l-2.619,9.291a95.42,95.42,0,0,0,31.606,0,57.826,57.826,0,0,0,11.5-4.52,4.715,4.715,0,0,0,1.8-6.739l-1.188-1.857A3.958,3.958,0,0,0,5431.535,2499.89Z" fill="#fff" stroke="#0073ff" stroke-linecap="round" stroke-linejoin="round" stroke-width="2"/>
    <rect id="Rectangle_992" data-name="Rectangle 992" width="20.523" height="26.649" transform="translate(5423.436 2497.23)" stroke-width="2" stroke="#0073ff" stroke-linecap="round" stroke-linejoin="round" fill="#fff"/>
    <rect id="Rectangle_993" data-name="Rectangle 993" width="23.627" height="26.649" transform="translate(5443.459 2497.23)" stroke-width="2" stroke="#0073ff" stroke-linecap="round" stroke-linejoin="round" fill="#fff"/>
    <path id="Path_1543" data-name="Path 1543" d="M5404.541,2445.486c-19.508-29.221-67.263-4.44-48.408,32.817Z" fill="#fff" stroke="#0073ff" stroke-linecap="round" stroke-linejoin="round" stroke-width="2"/>
    <path id="Path_1544" data-name="Path 1544" d="M5372.483,2463.55c6.831-30.278,57.647-27.969,41.558-1.082Z" fill="#fff" stroke="#0073ff" stroke-linecap="round" stroke-linejoin="round" stroke-width="2"/>
    <path id="Path_1545" data-name="Path 1545" d="M5375.122,2469.771a4.916,4.916,0,0,0-4.852-4.976,4.864,4.864,0,0,0-4.682,3.736,5.432,5.432,0,0,0-6.493,6.232c-11.456-.518-10.319,17.878,1.017,15.885a5.505,5.505,0,0,0,8.977,3.786,4.017,4.017,0,1,0,1.61-6.785c-.764-1.744-.448-2.715-2.354-3C5368.91,2481.783,5375.122,2472.518,5375.122,2469.771Z" fill="#fff" stroke="#0073ff" stroke-linecap="round" stroke-linejoin="round" stroke-width="2"/>
    <path id="Path_1546" data-name="Path 1546" d="M5388.585,2455.49c-10.96,3.65-21.2,13.783-18.445,24.375-4.42.385-6.836,4.056-5.478,7.224.825,1.922,2.881,3.263,6.538,2.475a26.226,26.226,0,0,0,14.769,8.616v4.3h8.561v-3.827a35.732,35.732,0,0,0,5.994-1.042C5421.768,2492.054,5418.11,2445.656,5388.585,2455.49Z" fill="#fff" stroke="#0073ff" stroke-linecap="round" stroke-linejoin="round" stroke-width="2"/>
    <path id="Path_1547" data-name="Path 1547" d="M5417.152,2474.255c5.444-.518,4.616-6.794,3.3-9.836,8.307-10.557-11.86-22.81-17.8-12.571-1.06-1.273-4.155-2.058-5.7-1.825a6.518,6.518,0,0,0-5.282,4.4,3.4,3.4,0,0,0-5.007,3.068,3.453,3.453,0,0,0,3.409,3.493,3.349,3.349,0,0,0,2.46-1.088c2.55,6.971,12.594,7.472,17.442,7.163C5410.59,2469.952,5410.815,2474.858,5417.152,2474.255Z" fill="#fff" stroke="#0073ff" stroke-linecap="round" stroke-linejoin="round" stroke-width="2"/>
    <path id="Path_1548" data-name="Path 1548" d="M5385.552,2470.3v0Z" fill="#fff" stroke="#0073ff" stroke-linecap="round" stroke-linejoin="round" stroke-width="2"/>
    <path id="Path_1549" data-name="Path 1549" d="M5401.185,2470.3v0Z" fill="#fff" stroke="#0073ff" stroke-linecap="round" stroke-linejoin="round" stroke-width="2"/>
    <path id="Path_1550" data-name="Path 1550" d="M5384.415,2485.119s1.446,4.447,11.669,3.81" fill="#fff" stroke="#0073ff" stroke-linecap="round" stroke-linejoin="round" stroke-width="2"/>
    <path id="Path_1551" data-name="Path 1551" d="M5394.827,2502.071l14.608,1.1.652,13.784-10.956-.232" fill="#fff" stroke="#0073ff" stroke-linecap="round" stroke-linejoin="round" stroke-width="2"/>
    <path id="Path_1552" data-name="Path 1552" d="M5446.927,2568.271l-40.645-2.724V2579.3h40.645Z" fill="#fff" stroke="#0073ff" stroke-linecap="round" stroke-linejoin="round" stroke-width="2"/>
    <path id="Path_1553" data-name="Path 1553" d="M5383.235,2579.3h23.048v-12.694l-13.094-2.774Z" fill="#fff" stroke="#0073ff" stroke-linecap="round" stroke-linejoin="round" stroke-width="2"/>
    <path id="Path_1554" data-name="Path 1554" d="M5428.786,2574.181s6.456,1.588,9.6,6.216a3.208,3.208,0,0,1-2.647,5.015h-14.267a3.719,3.719,0,0,1-3.718-3.718v-7.513Z" fill="#fff" stroke="#0073ff" stroke-linecap="round" stroke-linejoin="round" stroke-width="2"/>
    <path id="Path_1555" data-name="Path 1555" d="M5382.6,2502.089s-15.689-1.208-17.467,25.047l-3.341,27.881s30.479,7.807,52.412-4.833c0,0-5.165-46.433-19.382-48.113Z" fill="#fff" stroke="#0073ff" stroke-linecap="round" stroke-linejoin="round" stroke-width="2"/>
    <path id="Path_1556" data-name="Path 1556" d="M5375.175,2511.9s-7.063,9.293,10.038,12.639l8.284,1.487,3.983-14.126-9.647-4.461" fill="#fff" stroke="#0073ff" stroke-linecap="round" stroke-linejoin="round" stroke-width="2"/>
    <path id="Path_1557" data-name="Path 1557" d="M5396.084,2549.268l10.76-5.638a4.957,4.957,0,0,1,6.673,2.056l14.4,28.127h-11.031s-4.745-4.686-8.922-13.878l-3.461,1.842" fill="#fff" stroke="#0073ff" stroke-linecap="round" stroke-linejoin="round" stroke-width="2"/>
    <path id="Path_1558" data-name="Path 1558" d="M5367.909,2556.2c-8.556,8.243-.364,33.671,24.247,19.538l16.122-11.153-12.768-16.853-14.99,7.435Z" fill="#fff" stroke="#0073ff" stroke-linecap="round" stroke-linejoin="round" stroke-width="2"/>
    <rect id="Rectangle_994" data-name="Rectangle 994" width="28.805" height="28.805" transform="translate(5444.161 2550.496)" stroke-width="2" stroke="#0073ff" stroke-linecap="round" stroke-linejoin="round" fill="#fff"/>
    <rect id="Rectangle_995" data-name="Rectangle 995" width="18.183" height="28.805" transform="translate(5472.966 2550.496)" stroke-width="2" stroke="#0073ff" stroke-linecap="round" stroke-linejoin="round" fill="#fff"/>
    <path id="Path_1559" data-name="Path 1559" d="M5426.629,2513.448c-2.114,1.133-2.61,1.051-2.61,1.051-9.149,2.6-27.273,0-27.273,0l-2.62,9.291a95.433,95.433,0,0,0,31.607,0c11.919-3.162,14.748-9.034,14.582-11.31a13.957,13.957,0,0,0-1.02-4.235c-.6-1.9-1.168-2.423-2.353-2.362-.937.048-2.523,2.143-2.96,2.972a8.5,8.5,0,0,1-4.536,3.421l.307-.712c2.277-3.522,1.871-4.83.9-5.22-2.885-1.154-5.26,7.331-5.26,7.331" fill="#fff" stroke="#0073ff" stroke-linecap="round" stroke-linejoin="round" stroke-width="2"/>
    <path id="Path_1560" data-name="Path 1560" d="M5374.537,2564.474a2.321,2.321,0,0,0,.977,2.642,3.8,3.8,0,0,0,2.934.4,11.279,11.279,0,0,0,2.788-1.2" fill="none" stroke="#0073ff" stroke-linecap="round" stroke-linejoin="round" stroke-width="2"/>
    <path id="Path_1561" data-name="Path 1561" d="M5386.021,2563.868l3.447-1.724" fill="none" stroke="#0073ff" stroke-linecap="round" stroke-linejoin="round" stroke-width="2"/>
    <path id="Path_1562" data-name="Path 1562" d="M5393.712,2559.909l2.9-1.471" fill="none" stroke="#0073ff" stroke-linecap="round" stroke-linejoin="round" stroke-width="2"/>
    <path id="Path_1563" data-name="Path 1563" d="M5382.552,2556.046a9.986,9.986,0,0,1-9.934,8.336" fill="none" stroke="#0073ff" stroke-linecap="round" stroke-linejoin="round" stroke-width="2"/>
    <line id="Line_1630" data-name="Line 1630" x1="7.506" y2="14.85" transform="translate(5450.479 2559.174)" fill="#fff" stroke="#0073ff" stroke-linecap="round" stroke-linejoin="round" stroke-width="2"/>
    <line id="Line_1631" data-name="Line 1631" x2="8.114" y2="16.052" transform="translate(5459.104 2557.545)" fill="#fff" stroke="#0073ff" stroke-linecap="round" stroke-linejoin="round" stroke-width="2"/>
    <line id="Line_1632" data-name="Line 1632" x2="10.532" transform="translate(5453.838 2567.963)" fill="#fff" stroke="#0073ff" stroke-linecap="round" stroke-linejoin="round" stroke-width="2"/>
    <path id="Path_1564" data-name="Path 1564" d="M5455.35,2612.166" fill="#fff" stroke="#0073ff" stroke-linecap="round" stroke-linejoin="round" stroke-width="2"/>
    <path id="Path_1565" data-name="Path 1565" d="M5470.363,2612.166" fill="#fff" stroke="#0073ff" stroke-linecap="round" stroke-linejoin="round" stroke-width="2"/>
    <g id="Group_2603" data-name="Group 2603">
      <line id="Line_1633" data-name="Line 1633" y2="15.638" transform="translate(5512.015 2560.102)" fill="#fff" stroke="#0073ff" stroke-linecap="round" stroke-linejoin="round" stroke-width="2"/>
      <line id="Line_1634" data-name="Line 1634" x2="6.894" transform="translate(5512.015 2560.102)" fill="#fff" stroke="#0073ff" stroke-linecap="round" stroke-linejoin="round" stroke-width="2"/>
      <path id="Path_1566" data-name="Path 1566" d="M5512.015,2566.252h4.5a2.9,2.9,0,0,1,2.965,2.831v3.827a2.9,2.9,0,0,1-2.965,2.83h-4.5" fill="none" stroke="#0073ff" stroke-linecap="round" stroke-linejoin="round" stroke-width="2"/>
    </g>
    <g id="Group_2604" data-name="Group 2604">
      <line id="Line_1635" data-name="Line 1635" y2="15.638" transform="translate(5451.039 2502.735)" fill="#fff" stroke="#0073ff" stroke-linecap="round" stroke-linejoin="round" stroke-width="2"/>
      <path id="Path_1567" data-name="Path 1567" d="M5451.039,2509.533h4.5a2.816,2.816,0,0,1,2.965,2.638v3.565a2.816,2.816,0,0,1-2.965,2.638h-4.5" fill="none" stroke="#0073ff" stroke-linecap="round" stroke-linejoin="round" stroke-width="2"/>
      <path id="Path_1568" data-name="Path 1568" d="M5451.039,2502.735h3.695a2.259,2.259,0,0,1,2.434,2.028v2.742a2.259,2.259,0,0,1-2.434,2.028h-3.695" fill="none" stroke="#0073ff" stroke-linecap="round" stroke-linejoin="round" stroke-width="2"/>
    </g>
    <g id="Group_2606" data-name="Group 2606">
      <rect id="Rectangle_996" data-name="Rectangle 996" width="51.643" height="18.911" transform="translate(5299.149 2560.627)" stroke-width="2" stroke="#0073ff" stroke-linecap="round" stroke-linejoin="round" fill="#fff"/>
      <g id="Group_2605" data-name="Group 2605">
        <rect id="Rectangle_997" data-name="Rectangle 997" width="6.647" height="4.322" transform="translate(5306.776 2556.304)" stroke-width="2" stroke="#0073ff" stroke-linecap="round" stroke-linejoin="round" fill="#fff"/>
        <rect id="Rectangle_998" data-name="Rectangle 998" width="6.647" height="4.322" transform="translate(5321.647 2556.304)" stroke-width="2" stroke="#0073ff" stroke-linecap="round" stroke-linejoin="round" fill="#fff"/>
        <rect id="Rectangle_999" data-name="Rectangle 999" width="6.647" height="4.322" transform="translate(5336.518 2556.304)" stroke-width="2" stroke="#0073ff" stroke-linecap="round" stroke-linejoin="round" fill="#fff"/>
      </g>
    </g>
    <g id="Group_2608" data-name="Group 2608">
      <rect id="Rectangle_1000" data-name="Rectangle 1000" width="51.643" height="18.911" transform="translate(5253.313 2562.942) rotate(-28.652)" stroke-width="2" stroke="#0073ff" stroke-linecap="round" stroke-linejoin="round" fill="#fff"/>
      <g id="Group_2607" data-name="Group 2607">
        <rect id="Rectangle_1001" data-name="Rectangle 1001" width="6.647" height="4.322" transform="translate(5257.933 2555.492) rotate(-28.652)" stroke-width="2" stroke="#0073ff" stroke-linecap="round" stroke-linejoin="round" fill="#fff"/>
        <rect id="Rectangle_1002" data-name="Rectangle 1002" width="6.647" height="4.322" transform="translate(5270.983 2548.362) rotate(-28.652)" stroke-width="2" stroke="#0073ff" stroke-linecap="round" stroke-linejoin="round" fill="#fff"/>
        <rect id="Rectangle_1003" data-name="Rectangle 1003" width="6.647" height="4.322" transform="translate(5284.033 2541.231) rotate(-28.652)" stroke-width="2" stroke="#0073ff" stroke-linecap="round" stroke-linejoin="round" fill="#fff"/>
      </g>
    </g>
    <g id="Ellipse_342" data-name="Ellipse 342" transform="translate(5451.634 2461.157)" fill="#fff" stroke="#0073ff" stroke-linecap="round" stroke-linejoin="round" stroke-width="2">
      <circle cx="3.638" cy="3.638" r="3.638" stroke="none"/>
      <circle cx="3.638" cy="3.638" r="2.638" fill="none"/>
    </g>
    <g id="Ellipse_343" data-name="Ellipse 343" transform="translate(5370.664 2414.051)" fill="#fff" stroke="#0073ff" stroke-linecap="round" stroke-linejoin="round" stroke-width="2">
      <circle cx="1.469" cy="1.469" r="1.469" stroke="none"/>
      <circle cx="1.469" cy="1.469" r="0.469" fill="none"/>
    </g>
    <g id="Ellipse_344" data-name="Ellipse 344" transform="translate(5498.434 2523.392)" fill="#fff" stroke="#0073ff" stroke-linecap="round" stroke-linejoin="round" stroke-width="2">
      <circle cx="2.144" cy="2.144" r="2.144" stroke="none"/>
      <circle cx="2.144" cy="2.144" r="1.144" fill="none"/>
    </g>
    <g id="Group_2611" data-name="Group 2611">
      <g id="Group_2609" data-name="Group 2609">
        <line id="Line_1636" data-name="Line 1636" x1="0.211" y2="2.128" transform="translate(5452.875 2433.482)" fill="#fff" stroke="#0073ff" stroke-linecap="round" stroke-linejoin="round" stroke-width="2"/>
        <line id="Line_1637" data-name="Line 1637" x1="0.211" y2="2.128" transform="translate(5452.286 2439.442)" fill="#fff" stroke="#0073ff" stroke-linecap="round" stroke-linejoin="round" stroke-width="2"/>
      </g>
      <g id="Group_2610" data-name="Group 2610">
        <line id="Line_1638" data-name="Line 1638" x2="2.128" y2="0.211" transform="translate(5448.642 2437.126)" fill="#fff" stroke="#0073ff" stroke-linecap="round" stroke-linejoin="round" stroke-width="2"/>
        <line id="Line_1639" data-name="Line 1639" x2="2.128" y2="0.211" transform="translate(5454.603 2437.715)" fill="#fff" stroke="#0073ff" stroke-linecap="round" stroke-linejoin="round" stroke-width="2"/>
      </g>
    </g>
    <g id="Group_2614" data-name="Group 2614">
      <g id="Group_2612" data-name="Group 2612">
        <line id="Line_1640" data-name="Line 1640" x2="0.459" y2="1.213" transform="translate(5334.245 2508.248)" fill="#fff" stroke="#0073ff" stroke-linecap="round" stroke-linejoin="round" stroke-width="2"/>
        <line id="Line_1641" data-name="Line 1641" x2="0.459" y2="1.213" transform="translate(5335.531 2511.647)" fill="#fff" stroke="#0073ff" stroke-linecap="round" stroke-linejoin="round" stroke-width="2"/>
      </g>
      <g id="Group_2613" data-name="Group 2613">
        <line id="Line_1642" data-name="Line 1642" y1="0.459" x2="1.213" transform="translate(5332.812 2510.968)" fill="#fff" stroke="#0073ff" stroke-linecap="round" stroke-linejoin="round" stroke-width="2"/>
        <line id="Line_1643" data-name="Line 1643" y1="0.459" x2="1.213" transform="translate(5336.21 2509.682)" fill="#fff" stroke="#0073ff" stroke-linecap="round" stroke-linejoin="round" stroke-width="2"/>
      </g>
    </g>
    <path id="Path_1569" data-name="Path 1569" d="M5480.269,2476.435l2.385,2.385-2.2,2.2" fill="none" stroke="#0073ff" stroke-linecap="round" stroke-linejoin="round" stroke-width="2"/>
    <path id="Path_1570" data-name="Path 1570" d="M5342.745,2425.047l-2.386,2.385,2.2,2.2" fill="none" stroke="#0073ff" stroke-linecap="round" stroke-linejoin="round" stroke-width="2"/>
  </g>
</svg>
