<svg xmlns="http://www.w3.org/2000/svg" width="93.541" height="69.128" viewBox="0 0 93.541 69.128">
  <g id="Children" transform="translate(-5696.675 -2204.512)">
    <path id="Path_1502" data-name="Path 1502" d="M5741.5,2247.723l-12-9.05v22.279h-20.13v-22.279l-11.7,9.05" fill="none" stroke="#0073ff" stroke-linecap="round" stroke-linejoin="round" stroke-width="2"/>
    <g id="Group_2594" data-name="Group 2594">
      <line id="Line_1619" data-name="Line 1619" x1="20.13" transform="translate(5709.373 2250.058)" fill="none" stroke="#0073ff" stroke-linecap="round" stroke-linejoin="round" stroke-width="2"/>
      <line id="Line_1620" data-name="Line 1620" y2="10.895" transform="translate(5719.59 2250.058)" fill="none" stroke="#0073ff" stroke-linecap="round" stroke-linejoin="round" stroke-width="2"/>
    </g>
    <g id="Group_2595" data-name="Group 2595">
      <line id="Line_1621" data-name="Line 1621" x1="1.444" y2="11.571" transform="translate(5712.957 2260.952)" fill="none" stroke="#0073ff" stroke-linecap="round" stroke-linejoin="round" stroke-width="2"/>
      <line id="Line_1622" data-name="Line 1622" x2="1.444" y2="11.571" transform="translate(5724.779 2260.952)" fill="none" stroke="#0073ff" stroke-linecap="round" stroke-linejoin="round" stroke-width="2"/>
    </g>
    <path id="Path_1503" data-name="Path 1503" d="M5785.335,2247.723l-14.928-9.05,7.339,22.279H5748.79l7.339-22.279-14.624,9.05" fill="none" stroke="#0073ff" stroke-linecap="round" stroke-linejoin="round" stroke-width="2"/>
    <g id="Group_2596" data-name="Group 2596">
      <line id="Line_1623" data-name="Line 1623" x1="0.722" y1="11.571" transform="translate(5757.971 2260.952)" fill="none" stroke="#0073ff" stroke-linecap="round" stroke-linejoin="round" stroke-width="2"/>
      <line id="Line_1624" data-name="Line 1624" y1="11.571" x2="0.722" transform="translate(5768.147 2260.952)" fill="none" stroke="#0073ff" stroke-linecap="round" stroke-linejoin="round" stroke-width="2"/>
    </g>
    <path id="Path_1504" data-name="Path 1504" d="M5725.818,2268c.046.08,4.348.23,5.606,1.016,1.281.8.793,3.509.793,3.509h-5.993" fill="none" stroke="#0073ff" stroke-linecap="round" stroke-linejoin="round" stroke-width="2"/>
    <path id="Path_1505" data-name="Path 1505" d="M5713.362,2268c-.045.08-4.348.23-5.606,1.016-1.281.8-.793,3.509-.793,3.509h5.994" fill="none" stroke="#0073ff" stroke-linecap="round" stroke-linejoin="round" stroke-width="2"/>
    <path id="Path_1506" data-name="Path 1506" d="M5724.008,2250.058c0,2.336,2.647,4.481,5.5,4.481" fill="none" stroke="#0073ff" stroke-linecap="round" stroke-linejoin="round" stroke-width="2"/>
    <path id="Path_1507" data-name="Path 1507" d="M5715.148,2250.057c0,2.251-2.782,4.316-5.775,4.316" fill="none" stroke="#0073ff" stroke-linecap="round" stroke-linejoin="round" stroke-width="2"/>
    <path id="Path_1508" data-name="Path 1508" d="M5768.386,2268.689s5.168.394,6.426,1.179c1.281.8.793,2.656.793,2.656h-7.458" fill="none" stroke="#0073ff" stroke-linecap="round" stroke-linejoin="round" stroke-width="2"/>
    <path id="Path_1509" data-name="Path 1509" d="M5758.452,2268.657s-5.166.426-6.424,1.211c-1.281.8-.793,2.656-.793,2.656h7.458" fill="none" stroke="#0073ff" stroke-linecap="round" stroke-linejoin="round" stroke-width="2"/>
    <g id="Group_2597" data-name="Group 2597">
      <path id="Path_1510" data-name="Path 1510" d="M5774.192,2250.058l-3.639,2.827-3.639-2.827-3.639,2.827-3.638-2.827-3.639,2.827-3.639-2.827" fill="none" stroke="#0073ff" stroke-linecap="round" stroke-linejoin="round" stroke-width="2"/>
    </g>
    <path id="Path_1511" data-name="Path 1511" d="M5706.549,2221.588c-.044.416-.1.961-.1,1.389a13.144,13.144,0,0,0,26.288,0c0-.289-.024-.57-.043-.854a5.344,5.344,0,0,0-1.4-2.088" fill="none" stroke="#0073ff" stroke-linecap="round" stroke-linejoin="round" stroke-width="2"/>
    <path id="Path_1512" data-name="Path 1512" d="M5732.244,2219.26c-.292.12-3.445,1.607-3.738,1.727a10.754,10.754,0,0,1-1.78-3.732c-2.618,2.666-6.188,3.761-11.4,3.761a21.45,21.45,0,0,1,.223-3.822c-3.36,1-8.876,2.211-11.687,8.211-4.216-18.8,13.756-23.781,23.25-17.014,4.941-2.42,9.677,1.851,9.677,6.665,0,4.979-.89,7.828-2.3,9.083A5.307,5.307,0,0,0,5732.244,2219.26Z" fill="none" stroke="#0073ff" stroke-linecap="round" stroke-linejoin="round" stroke-width="2"/>
    <path id="Path_1513" data-name="Path 1513" d="M5750.738,2222.221a5.545,5.545,0,0,0-.046.756,13.145,13.145,0,0,0,26.289,0c0-.289-.025-.57-.043-.854" fill="none" stroke="#0073ff" stroke-linecap="round" stroke-linejoin="round" stroke-width="2"/>
    <path id="Path_1514" data-name="Path 1514" d="M5748.979,2221.533c5.207,3.181,17.622-2.917,18.726-5.777,1.2,2.876,7.7,6.417,12,6.417,0-8.762-5.847-13.966-11.906-11.811C5762.448,2207.471,5750.99,2207.383,5748.979,2221.533Z" fill="none" stroke="#0073ff" stroke-linecap="round" stroke-linejoin="round" stroke-width="2"/>
    <path id="Path_1515" data-name="Path 1515" d="M5776.691,2225.738c2.089,9.342,9.727,8.845,12.525,6.046a5.4,5.4,0,0,1-4.425-4.834,4.964,4.964,0,0,0-5.088-4.777" fill="none" stroke="#0073ff" stroke-linecap="round" stroke-linejoin="round" stroke-width="2"/>
    <path id="Path_1516" data-name="Path 1516" d="M5751.012,2225.738c-2.089,9.342-9.727,8.845-12.526,6.046a5.4,5.4,0,0,0,4.426-4.834c0-3.006,4.169-5.866,6.76-5.066" fill="none" stroke="#0073ff" stroke-linecap="round" stroke-linejoin="round" stroke-width="2"/>
    <g id="Group_2598" data-name="Group 2598">
      <g id="Ellipse_338" data-name="Ellipse 338" transform="translate(5723.266 2224.262)" fill="none" stroke="#0073ff" stroke-linecap="round" stroke-linejoin="round" stroke-width="2">
        <circle cx="1.555" cy="1.555" r="1.555" stroke="none"/>
        <circle cx="1.555" cy="1.555" r="0.555" fill="none"/>
      </g>
      <g id="Ellipse_339" data-name="Ellipse 339" transform="translate(5712.804 2224.262)" fill="none" stroke="#0073ff" stroke-linecap="round" stroke-linejoin="round" stroke-width="2">
        <circle cx="1.555" cy="1.555" r="1.555" stroke="none"/>
        <circle cx="1.555" cy="1.555" r="0.555" fill="none"/>
      </g>
    </g>
    <g id="Group_2599" data-name="Group 2599">
      <g id="Ellipse_340" data-name="Ellipse 340" transform="translate(5767.512 2224.262)" fill="none" stroke="#0073ff" stroke-linecap="round" stroke-linejoin="round" stroke-width="2">
        <circle cx="1.555" cy="1.555" r="1.555" stroke="none"/>
        <circle cx="1.555" cy="1.555" r="0.555" fill="none"/>
      </g>
      <g id="Ellipse_341" data-name="Ellipse 341" transform="translate(5757.051 2224.262)" fill="none" stroke="#0073ff" stroke-linecap="round" stroke-linejoin="round" stroke-width="2">
        <circle cx="1.555" cy="1.555" r="1.555" stroke="none"/>
        <circle cx="1.555" cy="1.555" r="0.555" fill="none"/>
      </g>
    </g>
  </g>
</svg>
