<svg xmlns="http://www.w3.org/2000/svg" width="93.541" height="69.128"><path data-name="Path 1502" d="M44.825 43.211l-12-9.05V56.44h-20.13V34.161l-11.7 9.05" fill="none" stroke="#0073ff" stroke-linecap="round" stroke-linejoin="round" stroke-width="2"/><g data-name="Group 2594" fill="none" stroke="#0073ff" stroke-linecap="round" stroke-linejoin="round" stroke-width="2"><path data-name="Line 1619" d="M32.828 45.546h-20.13"/><path data-name="Line 1620" d="M22.915 45.546v10.895"/></g><g data-name="Group 2595" fill="none" stroke="#0073ff" stroke-linecap="round" stroke-linejoin="round" stroke-width="2"><path data-name="Line 1621" d="M17.726 56.44l-1.444 11.571"/><path data-name="Line 1622" d="M28.104 56.44l1.444 11.571"/></g><path data-name="Path 1503" d="M88.66 43.211l-14.928-9.05 7.339 22.279H52.115l7.339-22.279-14.624 9.05" fill="none" stroke="#0073ff" stroke-linecap="round" stroke-linejoin="round" stroke-width="2"/><g data-name="Group 2596" fill="none" stroke="#0073ff" stroke-linecap="round" stroke-linejoin="round" stroke-width="2"><path data-name="Line 1623" d="M62.018 68.011l-.722-11.571"/><path data-name="Line 1624" d="M71.472 68.011l.722-11.571"/></g><path data-name="Path 1504" d="M29.143 63.488c.046.08 4.348.23 5.606 1.016 1.281.8.793 3.509.793 3.509h-5.993" fill="none" stroke="#0073ff" stroke-linecap="round" stroke-linejoin="round" stroke-width="2"/><path data-name="Path 1505" d="M16.687 63.488c-.045.08-4.348.23-5.606 1.016-1.281.8-.793 3.509-.793 3.509h5.994" fill="none" stroke="#0073ff" stroke-linecap="round" stroke-linejoin="round" stroke-width="2"/><path data-name="Path 1506" d="M27.333 45.546c0 2.336 2.647 4.481 5.5 4.481" fill="none" stroke="#0073ff" stroke-linecap="round" stroke-linejoin="round" stroke-width="2"/><path data-name="Path 1507" d="M18.473 45.545c0 2.251-2.782 4.316-5.775 4.316" fill="none" stroke="#0073ff" stroke-linecap="round" stroke-linejoin="round" stroke-width="2"/><path data-name="Path 1508" d="M71.711 64.177s5.168.394 6.426 1.179c1.281.8.793 2.656.793 2.656h-7.458" fill="none" stroke="#0073ff" stroke-linecap="round" stroke-linejoin="round" stroke-width="2"/><path data-name="Path 1509" d="M61.777 64.145s-5.166.426-6.424 1.211c-1.281.8-.793 2.656-.793 2.656h7.458" fill="none" stroke="#0073ff" stroke-linecap="round" stroke-linejoin="round" stroke-width="2"/><g data-name="Group 2597"><path data-name="Path 1510" d="M77.517 45.546l-3.639 2.827-3.639-2.827-3.639 2.827-3.638-2.827-3.639 2.827-3.639-2.827" fill="none" stroke="#0073ff" stroke-linecap="round" stroke-linejoin="round" stroke-width="2"/></g><path data-name="Path 1511" d="M9.874 17.076c-.044.416-.1.961-.1 1.389a13.144 13.144 0 0026.288 0c0-.289-.024-.57-.043-.854a5.344 5.344 0 00-1.4-2.088" fill="none" stroke="#0073ff" stroke-linecap="round" stroke-linejoin="round" stroke-width="2"/><path data-name="Path 1512" d="M35.569 14.748c-.292.12-3.445 1.607-3.738 1.727a10.754 10.754 0 01-1.78-3.732c-2.618 2.666-6.188 3.761-11.4 3.761a21.45 21.45 0 01.223-3.822c-3.36 1-8.876 2.211-11.687 8.211-4.216-18.8 13.756-23.781 23.25-17.014 4.941-2.42 9.677 1.851 9.677 6.665 0 4.979-.89 7.828-2.3 9.083a5.307 5.307 0 00-2.245-4.879z" fill="none" stroke="#0073ff" stroke-linecap="round" stroke-linejoin="round" stroke-width="2"/><path data-name="Path 1513" d="M54.063 17.709a5.545 5.545 0 00-.046.756 13.145 13.145 0 0026.289 0c0-.289-.025-.57-.043-.854" fill="none" stroke="#0073ff" stroke-linecap="round" stroke-linejoin="round" stroke-width="2"/><path data-name="Path 1514" d="M52.304 17.021c5.207 3.181 17.622-2.917 18.726-5.777 1.2 2.876 7.7 6.417 12 6.417 0-8.762-5.847-13.966-11.906-11.811-5.351-2.891-16.809-2.979-18.82 11.171z" fill="none" stroke="#0073ff" stroke-linecap="round" stroke-linejoin="round" stroke-width="2"/><path data-name="Path 1515" d="M80.016 21.226c2.089 9.342 9.727 8.845 12.525 6.046a5.4 5.4 0 01-4.425-4.834 4.964 4.964 0 00-5.088-4.777" fill="none" stroke="#0073ff" stroke-linecap="round" stroke-linejoin="round" stroke-width="2"/><path data-name="Path 1516" d="M54.337 21.226c-2.089 9.342-9.727 8.845-12.526 6.046a5.4 5.4 0 004.426-4.834c0-3.006 4.169-5.866 6.76-5.066" fill="none" stroke="#0073ff" stroke-linecap="round" stroke-linejoin="round" stroke-width="2"/><g data-name="Group 2598" fill="none" stroke="#0073ff" stroke-linecap="round" stroke-linejoin="round" stroke-width="2"><g data-name="Ellipse 338" transform="translate(26.591 19.75)"><circle cx="1.555" cy="1.555" r="1.555" stroke="none"/><circle cx="1.555" cy="1.555" r=".555"/></g><g data-name="Ellipse 339" transform="translate(16.129 19.75)"><circle cx="1.555" cy="1.555" r="1.555" stroke="none"/><circle cx="1.555" cy="1.555" r=".555"/></g></g><g data-name="Group 2599" fill="none" stroke="#0073ff" stroke-linecap="round" stroke-linejoin="round" stroke-width="2"><g data-name="Ellipse 340" transform="translate(70.837 19.75)"><circle cx="1.555" cy="1.555" r="1.555" stroke="none"/><circle cx="1.555" cy="1.555" r=".555"/></g><g data-name="Ellipse 341" transform="translate(60.376 19.75)"><circle cx="1.555" cy="1.555" r="1.555" stroke="none"/><circle cx="1.555" cy="1.555" r=".555"/></g></g></svg>