<?xml version="1.0" encoding="utf-8"?>
<!-- Generator: Adobe Illustrator 23.0.2, SVG Export Plug-In . SVG Version: 6.00 Build 0)  -->
<svg version="1.1" id="Layer_1" xmlns="http://www.w3.org/2000/svg" xmlns:xlink="http://www.w3.org/1999/xlink" x="0px" y="0px"
	 viewBox="0 0 239.2 299.1" style="enable-background:new 0 0 239.2 299.1;" xml:space="preserve">
<style type="text/css">
	.st0{fill:#0073FF;}
</style>
<g>
	<path class="st0" d="M111.9,67.8c2.4,0.5,4.4,0.7,6,0.7c6.6,0,8.4-3.2,8.4-3.4c0.3-0.5,0.1-1.1-0.4-1.3c-0.5-0.3-1.1-0.1-1.3,0.4
		c0,0-0.2,0.3-0.7,0.7c-1,0.9-3.5,2.1-8.8,1.4c-0.9-0.1-1.8-0.3-2.8-0.5c-0.5-0.1-1.1,0.2-1.2,0.8C111,67.2,111.3,67.7,111.9,67.8z"
		/>
	<path class="st0" d="M191.6,160.2c0,0-0.1,0-0.1,0c-0.7,0-1.2,0.5-1.4,1c-0.1,0.2-0.1,0.4-0.1,0.6c0,0.2,0,0.4,0.1,0.6
		c0.2,0.5,0.6,0.9,1.1,1c0.1,0,0.2,0,0.4,0c0.1,0,0.2,0,0.3,0c0.7-0.1,1.3-0.8,1.3-1.6C193.3,160.9,192.5,160.2,191.6,160.2
		C191.6,160.2,191.6,160.2,191.6,160.2z M192,161.8c0,0.2-0.2,0.4-0.4,0.4s-0.4-0.2-0.4-0.4s0.2-0.4,0.4-0.4S192,161.6,192,161.8z"
		/>
	<path class="st0" d="M30.7,222.4c0,0.7,0.5,1.3,1.1,1.5c0.2,0.1,0.3,0.1,0.5,0.1c0.2,0,0.4,0,0.6-0.1c0.6-0.2,1.1-0.8,1.1-1.5
		c0-0.9-0.7-1.6-1.6-1.6C31.4,220.8,30.7,221.5,30.7,222.4z M32.3,222.1c0.2,0,0.4,0.2,0.4,0.4s-0.2,0.4-0.4,0.4s-0.4-0.2-0.4-0.4
		S32.1,222.1,32.3,222.1z"/>
	<path class="st0" d="M65.4,155.6c0.2,0,0.4-0.1,0.6-0.2c0.4-0.3,0.5-1,0.2-1.4l-1.2-1.7c-0.3-0.4-1-0.5-1.4-0.2
		c-0.4,0.3-0.5,1-0.2,1.4l1.2,1.7C64.8,155.5,65.1,155.6,65.4,155.6z"/>
	<path class="st0" d="M66.8,158.2l1.2,1.7c0.2,0.3,0.5,0.4,0.8,0.4c0.2,0,0.4-0.1,0.6-0.2c0.4-0.3,0.5-1,0.2-1.4l-1.2-1.7
		c-0.3-0.4-1-0.5-1.4-0.2C66.6,157.1,66.5,157.7,66.8,158.2z"/>
	<path class="st0" d="M62.6,159c0.2,0.3,0.5,0.4,0.8,0.4c0.2,0,0.4-0.1,0.6-0.2l1.7-1.2c0.4-0.3,0.5-1,0.2-1.4
		c-0.3-0.4-1-0.5-1.4-0.2l-1.7,1.2C62.4,158,62.3,158.6,62.6,159z"/>
	<path class="st0" d="M68,156c0.2,0,0.4-0.1,0.6-0.2l1.7-1.2c0.4-0.3,0.5-1,0.2-1.4c-0.3-0.4-1-0.5-1.4-0.2l-1.7,1.2
		c-0.4,0.3-0.5,1-0.2,1.4C67.4,155.9,67.7,156,68,156z"/>
	<path class="st0" d="M16,241.7c-0.4-0.4-1.1-0.3-1.4,0.1c-0.4,0.4-0.3,1.1,0.1,1.4l2.1,1.8l-1.6,1.9c-0.4,0.4-0.3,1.1,0.1,1.4
		c0.2,0.2,0.4,0.2,0.6,0.2c0.3,0,0.6-0.1,0.8-0.4l2.2-2.6c0.4-0.4,0.3-1.1-0.1-1.4L16,241.7z"/>
	<path class="st0" d="M212.1,191.3c0.3,0,0.7-0.2,0.9-0.5c0.3-0.5,0.1-1.1-0.4-1.4l-2.1-1.2l1.4-2.4c0.3-0.5,0.1-1.1-0.4-1.4
		c-0.5-0.3-1.1-0.1-1.4,0.4l-1.9,3.2c-0.1,0.2-0.2,0.5-0.1,0.8c0.1,0.3,0.2,0.5,0.5,0.6l3,1.7C211.7,191.3,211.9,191.3,212.1,191.3z
		"/>
	<path class="st0" d="M31.6,187.8c0.1-0.3,0.1-0.5,0-0.8l-1.6-3.4c-0.2-0.5-0.8-0.7-1.3-0.5c-0.5,0.2-0.7,0.8-0.5,1.3l1.2,2.5
		l-2.2,1c-0.5,0.2-0.7,0.8-0.5,1.3c0.2,0.4,0.5,0.6,0.9,0.6c0.1,0,0.3,0,0.4-0.1l3.1-1.5C31.4,188.3,31.6,188.1,31.6,187.8z"/>
	<path class="st0" d="M214.8,266.9l-3.2,1.9c-0.5,0.3-0.6,0.9-0.4,1.4l1.7,3c0.2,0.3,0.5,0.5,0.9,0.5c0.2,0,0.3,0,0.5-0.1
		c0.5-0.3,0.6-0.9,0.4-1.4l-1.2-2.1l2.3-1.4c0.5-0.3,0.6-0.9,0.4-1.4C215.9,266.8,215.3,266.7,214.8,266.9z"/>
	<path class="st0" d="M127.1,174.3c2.3,3.4,6.2,5.7,10.5,5.7c0.3,0,0.5,0,0.8,0c0.6,0,1-0.5,0.9-1.1c0-0.6-0.5-1-1.1-0.9
		c-3.4,0.2-6.5-1.2-8.6-3.6c-0.3-0.3-0.6-0.7-0.8-1.1c-0.2-0.3-0.4-0.7-0.6-1c-0.7-1.2-1.1-2.6-1.2-4.1c0-0.6-0.5-1-1.1-0.9
		c-0.6,0-1,0.5-0.9,1.1c0.1,1.4,0.4,2.7,1,3.9c0.1,0.3,0.3,0.7,0.5,1C126.7,173.6,126.9,174,127.1,174.3z"/>
	<path class="st0" d="M142.2,170.3c-0.5,0-1,0.4-1,1l-0.1,2.7l0,1l0,1l0,1.6c0,0.6,0.4,1,1,1c0,0,0,0,0,0c0.5,0,1-0.4,1-1l0-1.3l0-1
		l0-1l0.1-3C143.2,170.7,142.8,170.3,142.2,170.3z"/>
	<path class="st0" d="M140.3,181.8l-2.5,3.5c-0.3,0.4-0.2,1.1,0.2,1.4c0.2,0.1,0.4,0.2,0.6,0.2c0.3,0,0.6-0.1,0.8-0.4l2.5-3.5
		c0.3-0.4,0.2-1.1-0.2-1.4C141.2,181.2,140.6,181.3,140.3,181.8z"/>
	<path class="st0" d="M132,189.9l-5.2,2.5c-0.5,0.2-0.7,0.8-0.5,1.3c0.2,0.4,0.5,0.6,0.9,0.6c0.1,0,0.3,0,0.4-0.1l5.2-2.5
		c0.5-0.2,0.7-0.8,0.5-1.3C133.1,189.8,132.5,189.6,132,189.9z"/>
	<path class="st0" d="M119.8,195.4l-6.1,2.3c-0.5,0.2-0.8,0.8-0.6,1.3c0.2,0.4,0.5,0.6,0.9,0.6c0.1,0,0.2,0,0.4-0.1l6.1-2.3
		c0.5-0.2,0.8-0.8,0.6-1.3C120.9,195.4,120.4,195.2,119.8,195.4z"/>
	<path class="st0" d="M106.9,200.3l-5.9,2.3c-0.5,0.2-0.8,0.8-0.6,1.3c0.2,0.4,0.5,0.6,0.9,0.6c0.1,0,0.2,0,0.4-0.1l5.9-2.3
		c0.5-0.2,0.8-0.8,0.6-1.3S107.4,200.1,106.9,200.3z"/>
	<path class="st0" d="M238.4,82.5c-1.1-1.2-3.5-0.7-6.7-0.1c0,0,0,0,0,0c0.7-0.7,1.1-1.4,1.2-2.1c0.2-1-0.1-1.8-0.9-2.5
		c-2-1.8-9.4,1.1-12.1,2.9c-0.4,0.2-0.8,0.5-1.1,0.8c-1.3,0.9-2.6,1.8-4.1,1.8c-0.9,0-1.8-0.1-2.7-0.1c-0.7,0-1.5-0.1-2.2-0.1
		l-1.1-0.1C191,82,181,82.3,178.3,83.8c-1,0.5-3.4,1-6.3,1.4v-1.3c0-0.5-0.3-0.9-0.8-1c-0.9-0.2-17.8-3.3-27.4-0.2
		c-1.2-0.4-2.4-0.6-3.8-0.6c-2.1,0.1-5,0-8.4,0c-1.7,0-3.4,0-5.1,0v-4.7c5.2-1.2,8.8-3.5,11.2-5.6c0.3,0.3,0.6,0.5,0.9,0.8
		c1,0.7,2.1,1,3.2,1c1.5,0,3-0.6,4.1-1.8c1.1,0.4,2.3,0.6,3.5,0.4c2-0.2,3.7-1.2,4.9-2.8c1-1.3,1.5-2.8,1.5-4.4
		c3.6-0.4,6.3-2.3,7.6-5.4c1.7-3.8,0.9-8.7-1.8-11.9c-1.5-1.8-3.5-2.8-5.7-3.1c5.1-23.6-6.8-38.5-21.8-43.1
		c-12.3-3.8-27.3-0.7-35.8,11c-3.4,0.9-6.1,2.6-7.8,5c-1.3,1.9-2.4,4.7-1.7,8.7c0,0,0,0,0,0c-1.9,3.2-1.9,6.7-0.1,10.1
		c-1.1,2.1-2.4,5.8-1.2,8.8c0.5,1.2,1.7,2.8,4.4,3.4c0,0,0,0,0,0c0.1,0,0.2,0,0.3,0.1c-0.1,1.4-0.2,2.8-0.2,4.2
		c-3.7,0.7-4.9,2.9-5.2,4c-0.8,2.4,0.1,5.1,2.1,6.7c1,0.8,2.3,1.2,3.5,1.2c0.6,0,1.3-0.1,2-0.3C97.4,71,102.1,75.4,108,77
		c1.7,0.5,3.5,0.9,5.3,1.1v4.3c-6.2,0.3-11.1,0.8-14,1.9c-17.1-0.5-31.1,0-31.2,0c-0.5,0-0.9,0.4-1,0.9L67,87.5
		c-2.8-0.2-5.2-0.4-6.1-0.8c-2.8-1.4-12.4-1.5-30.3-0.3l-1.2,0.1c-0.8,0-1.5,0.1-2.3,0.2c-0.9,0.1-1.7,0.1-2.6,0.2
		c-1.5,0.1-2.8-0.8-4.2-1.7c-0.4-0.3-0.8-0.5-1.2-0.8c-2.6-1.6-10.3-5-12.5-2.2c-0.4,0.6-0.6,1.3-0.4,2C6.6,85,7.2,85.8,8,86.5
		c-0.2,0-0.4-0.1-0.6-0.1c-3.3-0.6-5.6-1-6.7,0.2c-1.9,2.2,0.5,8.7,2,11C2.9,97.7,3,97.9,3.2,98c4.5,2.3,9.5,3.2,14.6,2.8
		c2.5-0.3,4.9-1,7.1-2.3c6.7,1.5,29.7,5,35.6,4.3c1.6,0.7,3.5,1.4,5.6,1.9l0,0.6c0,0.5,0.3,0.9,0.8,1c0.2,0,15.5,3.8,24,7.2
		c0.1,3.7,0.5,7.4,0.9,11.3c1.1,10.5,2.4,22.5-1.3,38.5c-0.1,0.3,0,0.6,0.2,0.8c0.2,0.2,0.5,0.4,0.8,0.4c0.2,0,1.2,0,2.8,0.1
		c-2.4,4-10.7,11.6-23.5,19.7c-0.2,0.1-0.4,0.4-0.5,0.7s0,0.6,0.2,0.8c0.7,0.9,1.3,1.8,2,2.7c-6.2,4.3-13.1,9.1-17.7,12.1
		c-3.5,2.4-5.7,6.1-6.2,10.2L40.9,260c-2.1,0.9-9.6,4.7-12.3,10.5c-0.8,1.8-0.6,3.9,0.5,5.5c0.9,1.2,2.2,1.8,3.6,1.8
		c0.3,0,0.5,0,0.8-0.1l17.6-2.7c3.1-0.3,4.8-3.2,5.1-6c0.3-2.2-1.1-8-1.4-9.5l3.2-11.3c1,5,2.8,9.7,5.1,14
		c-0.9,8.6-1.7,16.3-1.9,18.2c-1.7,1.1-7.6,5.4-9.5,11.8c-0.8,2.7,0.7,5.6,3.5,6.4c0.5,0.1,1,0.2,1.5,0.2c0.5,0,1-0.1,1.6-0.2
		l17-5.4c3.1-0.6,5.2-3.5,4.7-6.5c-0.2-2.1-2.8-7.4-3.9-9.4c12.3,9.5,29.9,14.8,51.6,14.8c42,0,65.1-19.9,65.1-55.9
		c0-27.2-15.4-49-39-58.6c-0.3-3.2-0.8-6.7-1.4-10.7c1.5,0.1,3,0.1,4.4,0.2c0,0,0,0,0,0c0.3,0,0.6-0.2,0.8-0.4
		c0.2-0.3,0.2-0.7,0.1-1c-5.7-12.5-5.6-30.4-5.5-46.2c0-2.7,0-5.3,0-7.8c6.4-2,12.8-4.3,19.1-6.8c0.4-0.2,0.6-0.5,0.6-0.9v-1.5
		c2.9-0.9,5.4-1.9,7.1-2.7c5.9,0.6,28.9-3.4,35.5-5c2.2,1.2,4.6,1.9,7.1,2.1c5,0.4,10-0.7,14.5-3c0.2-0.1,0.3-0.2,0.4-0.4
		C238.3,90.9,240.4,84.6,238.4,82.5z M221.9,95c-2.4-0.2-4.6-0.9-6.6-2.1c-0.2-0.1-0.5-0.2-0.7-0.1c-6.8,1.7-30.6,5.8-35.5,5
		c-0.2,0-0.4,0-0.6,0.1c-1.7,0.9-4,1.8-6.5,2.5V87.2c3.3-0.5,6-1,7.3-1.7c1.6-0.9,8.1-1.7,29.4-0.6l1.1,0.1c0.7,0,1.5,0.1,2.2,0.1
		c0.9,0.1,1.8,0.1,2.7,0.1c2.2,0.1,3.8-1.1,5.3-2.1c0.4-0.2,0.7-0.5,1.1-0.7c3.3-2.1,8.8-3.5,9.7-3.1c0.2,0.2,0.3,0.4,0.2,0.6
		c-0.2,0.9-1.7,2.3-4.5,3.3c-0.8,0.1-1.5,0.1-2.2,0c-0.6,0-1,0.4-1.1,0.9c0,0.5,0.4,1,0.9,1.1c2.5,0.2,5.4-0.3,8-0.8
		c1.7-0.3,4.4-0.8,4.9-0.5c0.7,0.8-0.2,5.5-1.9,8.4C231,94.4,226.4,95.3,221.9,95z M170,103.2v0.2c-5.8,2.3-11.7,4.4-17.7,6.3
		c-0.3,0.1-0.7,0.2-1,0.3c-0.3,0.1-0.7,0.2-1,0.3c-1.8,0.6-3.7,1.1-5.5,1.7c0,0-0.1,0-0.1,0c-0.5,0.2-0.8,0.7-0.7,1.2
		c0.1,0.4,0.5,0.7,1,0.7c0.1,0,0.2,0,0.3,0c1.7-0.5,3.4-1,5.1-1.5c0,2.3,0,4.7,0,7.2c-0.1,15.4-0.2,32.7,5,45.5
		c-1,0-2.1-0.1-3.2-0.1c-0.3,0-0.7,0-1,0c-0.3,0-0.7,0-1,0c-3.7-0.2-7.6-0.3-11.6-0.5c-8.3-0.3-16.9-0.7-24.4-1
		c-8-0.3-14.8-0.6-18.8-0.8c-1.1,0-1.9-0.1-2.5-0.1c3.4-15.7,2.1-27.5,1-37.9c-0.4-3.7-0.8-7.3-0.9-10.9c0-0.5,0-1,0-1.5
		c0-0.4,0-0.7,0-1.1c-0.1-7.6,1.1-15.2,5.6-24.2c0.2-0.3,0.5-0.6,1.1-0.8c0.3-0.2,0.7-0.3,1.2-0.4c0.3-0.1,0.7-0.2,1.1-0.3
		c6.7-1.5,21.7-1.4,29.8-1.4c3.4,0,6.3,0,8.5,0c0.2,0,0.4,0,0.6,0c-0.6,0.4-1.2,0.8-1.6,1.3c-0.4,0.4-0.4,1,0,1.4
		c0.2,0.2,0.6,0.3,0.9,0.2c0.2,0,0.4-0.1,0.5-0.3c0.8-0.8,1.9-1.5,3.2-2c0.4-0.2,0.8-0.3,1.3-0.4c0.4-0.1,0.8-0.2,1.3-0.3
		c7.3-1.6,18.3-0.3,23.8,0.7v0.7v1v1v13.6v1V103.2z M151.9,178c0,0.4,0.1,0.8,0.1,1.1c1.6,20.7-6.7,24.3-38.6,38.1
		c-1.7,0.7-3.5,1.5-5.4,2.3c-0.7-0.8-1.3-1.5-2-2.3c-3.9-4.5-7.3-8.6-10.1-11.8c-1.1-1.3-2.1-2.5-3-3.5c-0.2-0.3-0.4-0.5-0.6-0.8
		c-0.2-0.3-0.4-0.5-0.6-0.8c-1.2-1.5-2-2.4-2-2.4c0,0,0,0,0,0l-1.4-1.9c0.5-0.3,1.1-0.6,1.6-0.9c0.9-0.5,1.8-1,2.7-1.6
		c0.3-0.2,0.6-0.3,0.9-0.5c0.3-0.2,0.6-0.3,0.9-0.5c6.8-4,13.3-8.5,18-15.7c0.3-0.5,0.2-1.1-0.3-1.4c-0.5-0.3-1.1-0.2-1.4,0.3
		c-4.4,6.8-10.5,11.1-17.2,15c-0.3,0.2-0.6,0.3-0.9,0.5c-0.3,0.2-0.6,0.3-0.9,0.5c-0.9,0.5-1.9,1.1-2.8,1.6c-0.9,0.5-1.7,1-2.6,1.5
		c-0.2,0.1-0.4,0.4-0.5,0.7s0,0.6,0.2,0.8l1.5,2l-3.7,2.5c-1.1-1.5-3.5-5-6.4-9c-0.2-0.3-0.4-0.5-0.6-0.8c-0.2-0.3-0.4-0.5-0.6-0.8
		c-0.3-0.4-0.6-0.9-1-1.3c-0.2-0.3-0.4-0.5-0.6-0.8c-0.2-0.3-0.4-0.5-0.6-0.8c-0.5-0.6-0.9-1.3-1.4-1.9
		c12.2-7.8,21.5-15.9,23.7-20.7c10.5,0.4,35.3,1.4,53.9,2.2c0.6,3.7,1.1,7,1.4,10C151.8,177.3,151.9,177.7,151.9,178z M190.9,236.4
		c0,34.8-22.4,53.9-63.1,53.9c-22,0-39.7-5.5-51.6-15.5c1.4-10.9,4.5-25.1,9.1-42.3c0.9-3.2,1.5-4.6,4.1-6c2.7-1.3,4.5-2.3,6.5-3.5
		c2.1-1.2,4.6-2.6,8.5-4.6c0.8,1,1.7,2,2.6,3c0.2,0.2,0.5,0.3,0.8,0.3c0.1,0,0.3,0,0.4-0.1c2.1-0.9,4.1-1.8,6-2.6
		c32.1-13.9,41.2-17.9,39.8-39.1C176.4,189.6,190.9,210.4,190.9,236.4z M74.8,291.5l-17.1,5.4c-0.6,0.2-1.3,0.2-1.9,0
		c-1.7-0.5-2.6-2.3-2.1-4c1-3.5,3.5-6.3,5.6-8.3c1.3,1.4,3.1,2.2,5,2.2c0.7,0,1.3-0.1,2-0.3c0.5-0.2,0.8-0.7,0.7-1.2
		c-0.2-0.5-0.7-0.8-1.2-0.7c-1.7,0.5-3.6,0-4.9-1.3c0.9-0.7,1.5-1.1,1.8-1.3c0,0,0,0,0,0l11.7-3.7c0,0,0,0,0,0
		c1.5,2.9,3.6,7.2,3.7,8.7c0.3,2.1-1.1,4-3.1,4.3C74.9,291.4,74.9,291.4,74.8,291.5z M54.3,268.9c-0.2,2-1.3,4-3.4,4.2l-17.6,2.7
		c-1.4,0.2-2.2-0.5-2.5-1c-0.7-0.9-0.8-2.3-0.3-3.4c1.7-3.8,6-6.7,8.9-8.3c0,0,0,0,0,0c1.2,1.8,3.2,2.9,5.2,2.9
		c0.8,0,1.5-0.1,2.3-0.4c0.5-0.2,0.8-0.8,0.6-1.3c-0.2-0.5-0.8-0.8-1.3-0.6c-1.8,0.7-3.9,0.1-5-1.6c0.5-0.2,0.8-0.4,1-0.5
		c0,0,0,0,0,0l10.9-1c0,0,0,0,0,0C53.6,263,54.4,267.4,54.3,268.9z M53,258.7l-9.1,0.8l-0.9,0.1l7.6-48.5c0.4-3.6,2.3-6.8,5.3-8.8
		c4.6-3.1,11.6-7.9,17.8-12.2c0.4,0.5,0.8,1.1,1.2,1.6c0.2,0.3,0.4,0.6,0.6,0.8c0.2,0.3,0.4,0.6,0.6,0.8c2.8,3.9,5.1,7.2,6.2,8.7
		c-4.9,3.3-6.6,4.6-9.8,8.3c-0.9,1-1.6,2.4-2.3,3.9l-1.3,0.9c-2.7,1.7-4.6,4.4-5.4,7.4l-4.5,15.7l-0.8,3l-0.7,2.6L53,258.7z
		 M65.3,223c0.5-2.2,1.8-4.1,3.5-5.6c-1.9,5.7-2.9,12.8-3.1,17.3c-0.1,3.1-1.2,13.6-2.2,23.9c-2.1-4.5-3.5-9.4-4.2-14.7L65.3,223z
		 M65.1,263.7c0.1-0.6,0.1-1.2,0.2-1.9c1.1-11.1,2.3-23.5,2.5-27c0.3-5.5,1.6-13.8,3.9-19.3c0.3-0.6,0.5-1.2,0.8-1.7
		c0.4-0.8,0.8-1.4,1.3-2c0.1-0.1,0.1-0.2,0.2-0.3c3.2-3.7,4.7-4.7,10.2-8.5c0,0,0,0,0,0l0.4-0.2c0.2-0.1,0.3-0.2,0.5-0.3
		c1.1-0.7,2.3-1.6,3.7-2.5c0.4,0.5,0.8,1,1.2,1.5c0.2,0.3,0.4,0.5,0.6,0.8c0.2,0.3,0.4,0.5,0.6,0.8c1.1,1.3,2.2,2.5,3.2,3.7
		c2.4,2.8,5.3,6.3,8.6,10.1c-3.8,1.9-6.1,3.3-8.2,4.4c-2,1.2-3.8,2.1-6.4,3.5c-3.4,1.7-4.3,4-5.1,7.2c-4.4,16.6-7.5,30.4-9,41.2
		c-0.1,0.4-0.1,0.9-0.2,1.3c-0.1,0.4-0.1,0.8-0.1,1.1c0,0.2-0.1,0.5-0.1,0.7l-10.6,3.4c0.3-2.6,0.8-8.2,1.5-14.5
		C65,264.7,65,264.2,65.1,263.7z M76.6,106.9c-3.8-1.1-7-1.9-8.5-2.2l0-0.4l0.1-1l0.7-13.6l0.1-1l0.1-1l0.1-1.4
		c3.2-0.1,14.2-0.4,27.5-0.1c0,0,0,0,0,0c-4.7,9.4-5.9,17.4-5.9,25.2C86.5,109.8,81.1,108.1,76.6,106.9z M60.6,100.7
		c-0.1,0-0.1,0-0.2,0c-4.9,0.8-28.7-2.8-35.6-4.3c-0.3-0.1-0.5,0-0.7,0.1c-2,1.2-4.3,2-6.6,2.2c-4.6,0.4-9.1-0.4-13.2-2.4
		c-1.7-2.9-2.8-7.6-2.1-8.4c0.5-0.4,3.1,0.1,4.9,0.4c1.8,0.3,3.7,0.6,5.6,0.7c0.1,0,0.2,0,0.3,0c0.7,0,1.5,0,2.1-0.1
		c0.5-0.1,0.9-0.6,0.9-1.1c-0.1-0.5-0.6-0.9-1.1-0.9c-0.6,0.1-1.2,0.1-1.8,0.1c-2.7-1.1-4.6-2.6-4.8-3.4c0-0.1,0-0.2,0-0.3
		c0.7-0.9,6,0.4,9.8,2.7c0.4,0.2,0.7,0.5,1.1,0.7c1.5,1,3.2,2.1,5.4,2c0.9,0,1.8-0.1,2.6-0.2c0.7-0.1,1.5-0.1,2.2-0.2l1.2-0.1
		c21.3-1.4,27.7-0.7,29.3,0.1c1.2,0.6,3.5,0.9,6.9,1l-0.7,13.2c-2-0.5-3.7-1.1-5.2-1.8C60.9,100.7,60.7,100.7,60.6,100.7z
		 M96.2,62.8c-0.3-0.9-0.7-1.9-0.9-2.9c-0.5-2-0.8-4.1-0.9-6.1c0-0.3,0-0.7,0-1c0-1.3,0-2.5,0.1-3.8c0.1,0,0.2,0,0.3,0
		c5.1,0,6.5-4.2,7.4-6.8c0,0,0-0.1,0-0.1c4.3,0.7,14.3,1.7,19.4-3.8c0.3-0.3,0.5-0.6,0.8-0.9c0,0,0.1-0.1,0.1-0.1
		c0.1,0.1,0.1,0.1,0.2,0.1c1.1,0.7,2.4,1,3.8,0.7c0.2,0,0.4-0.1,0.7-0.2c0,0,0.1,0,0.1-0.1c0.2-0.1,0.3-0.2,0.5-0.2
		c0.3-0.2,0.6-0.4,0.9-0.6c0,0,0,0,0.1-0.1c0.5-0.4,0.9-1,1.1-1.6c0.1-0.2,0.1-0.3,0.2-0.5c1.2,0.8,2.3,1.7,3.4,2.6
		c0.2,0.2,0.4,0.3,0.6,0.5c0.2,0.2,0.4,0.4,0.6,0.6c0,0,0.1,0.1,0.1,0.1c0.2,0.2,0.5,0.5,0.7,0.7c0.1,0.1,0.2,0.2,0.3,0.3
		c0.2,0.2,0.4,0.4,0.6,0.6c0.5,0.6,0.9,1.1,1.4,1.7c0.4,0.5,0.7,1,1,1.6c1.9,3.2,2.9,6.7,2.6,10.3c0,0.4-0.1,0.9-0.2,1.3
		c-0.1,0.3-0.1,0.6-0.2,0.9c0,0.1,0,0.2,0,0.4c0,0.2,0.1,0.3,0.2,0.5c0.1,0.2,0.3,0.3,0.5,0.3c0.1,0,0.2,0.1,0.3,0.1
		c0.4,0,0.8,0.1,1.2,0.2c0.6,0.1,1.1,0.3,1.6,0.6c0.9,0.5,1.6,1.1,2.1,2c0.7,1.2,0.8,2.6,0.3,3.8c-0.9,2-3,2.8-6.1,2.1
		c-0.4-0.1-0.8,0.1-1.1,0.5c0,0-0.5,0.8-1.6,2c-0.2,0.3-0.5,0.5-0.8,0.8c-0.2,0.2-0.5,0.5-0.8,0.7c-2.3,2-6,4.4-11.3,5.5
		c-0.5,0.1-0.8,0.5-0.8,1v4.9l-9.1,0.2v-4.6c0-0.5-0.4-0.9-0.9-1c-2-0.2-4-0.6-5.9-1.1c-5.3-1.4-9.5-5.4-12-11.3
		C96.4,63.4,96.3,63.1,96.2,62.8z M90.5,62.1c-1.4-1.1-2-3-1.5-4.5c0.5-1.3,1.7-2.2,3.4-2.6c0.1,1.8,0.4,3.6,0.9,5.4
		c0.2,0.8,0.4,1.6,0.7,2.4C92.3,63.2,91.1,62.6,90.5,62.1z M92.7,46.7c-1.5-0.3-2.5-1.1-3-2.2c-0.9-2.1,0-5.3,1.3-7.5
		c0.2-0.3,0.2-0.7,0-1c-1.6-2.5-1.6-4.8-1.1-6.5c0.2-0.5,0.4-1,0.6-1.5c0.1-0.2,0.2-0.4,0.3-0.6c0.1-0.2,0.3-0.4,0.4-0.6
		c0.9-1.2,2-2.3,3.4-3.2c0.3-0.2,0.7-0.4,1-0.6c0.4-0.2,0.8-0.4,1.2-0.6c2.2-1,4.7-1.5,7.1-1.4c2.4,0.2,5.7,1.1,7.2,4.7
		c0.1,0.3,0.4,0.5,0.7,0.6c0.3,0.1,0.6,0,0.9-0.2c1-0.9,4.3-1.4,5.8-0.9c2,0.5,3.5,1.9,4.3,3.8c0.1,0.3,0.2,0.7,0.3,1
		c0,0.1,0.1,0.1,0.1,0.2c0.1,0.2,0.2,0.4,0.4,0.5c0.3,0.1,0.6,0.2,0.8,0.1c0,0,0,0,0,0c0.7-0.3,1.5-0.2,2.1,0.1
		c0.7,0.3,1.2,0.9,1.5,1.6c0,0.1,0,0.1,0,0.2c0.1,0.4,0.2,0.8,0.1,1.2c0,0.3-0.1,0.5-0.2,0.8c-0.3,0.6-0.8,1.1-1.4,1.4
		c-0.1,0-0.1,0.1-0.2,0.1c-1.2,0.4-2.6,0-3.3-1c-0.2-0.3-0.5-0.4-0.9-0.4c-0.2,0-0.4,0.1-0.5,0.2c-0.1,0.1-0.2,0.2-0.3,0.3
		c-0.1,0.2-0.2,0.3-0.3,0.5c-0.1,0.2-0.2,0.4-0.3,0.5c-0.2,0.3-0.5,0.6-0.8,0.9c-0.3,0.3-0.7,0.6-1,0.9c-5.1,3.8-14.1,2.5-17.1,1.9
		c-0.5-0.1-1,0.2-1.1,0.6c-0.1,0.3-0.2,0.6-0.3,1c-0.9,2.7-1.9,5.5-5.6,5.5c-0.3,0-0.6,0-1-0.1c-0.3,0-0.6-0.1-1-0.2
		C92.7,46.7,92.7,46.7,92.7,46.7z M92.3,18.8c1-1.4,2.5-2.6,4.4-3.4c0.5-0.2,1-0.4,1.5-0.6c0.5-0.1,0.9-0.3,1.4-0.4
		c3.2-0.7,7-0.7,11.1,0.1c9.5,1.9,21.6,8.8,25.8,22c-0.3,0.1-0.6,0.2-0.9,0.3c-1.6-1.6-3.5-3-5.5-4.3c-0.1-0.3-0.1-0.6-0.3-1
		c-0.5-1.2-1.4-2.2-2.5-2.7c-0.8-0.4-1.8-0.5-2.7-0.4c-0.9-2.6-3-4.6-5.8-5.3c-1.6-0.4-4.6-0.3-6.6,0.7c-1.7-2.9-4.6-4.6-8.4-4.9
		c-2.5-0.2-5,0.3-7.4,1.3c-0.4,0.2-0.9,0.4-1.3,0.6c-0.4,0.2-0.9,0.5-1.3,0.7c-1.2,0.7-2.3,1.6-3.2,2.5C90.8,22,91.3,20.3,92.3,18.8
		z M133.7,3.5c13.1,4,25.7,17.1,20.3,41.1c-0.4,0-0.7,0.1-1.1,0.1c-0.1-0.5-0.3-1-0.5-1.5c-0.8-1.8-2.2-3.1-4.1-3.8
		c-1.5-0.6-3.2-0.6-4.7-0.2c-1.1-1.7-3-2.8-5-2.9c-4.4-14.3-17.3-21.8-27.5-23.8c-3.5-0.7-6.8-0.8-9.7-0.5
		C109.6,2.5,122.8,0.2,133.7,3.5z M160.2,49.1c2.2,2.6,2.8,6.7,1.5,9.8c-1.2,2.7-3.6,4.2-6.9,4.3c-0.3,0-0.5,0.1-0.7,0.4
		c-0.2,0.2-0.3,0.5-0.2,0.8c0.2,1.4-0.2,2.8-1.1,4s-2.1,1.9-3.6,2c-1.1,0.1-2.2-0.1-3.1-0.5c-0.4-0.2-1-0.1-1.3,0.3
		c-1.1,1.6-3.4,2.1-5.1,0.9c-0.2-0.1-0.4-0.3-0.6-0.5c0.9-0.9,1.6-1.8,2-2.3c5.2,0.9,7.1-2.1,7.7-3.4c0.8-1.8,0.6-3.9-0.4-5.6
		c-1.1-1.8-3-3.1-5.3-3.6c0.7-3.7,0.1-7.3-1.4-10.6c-0.2-0.5-0.5-1-0.7-1.4c-0.3-0.5-0.6-1-0.9-1.5c-0.5-0.7-1-1.4-1.5-2.1
		c-0.3-0.4-0.6-0.7-0.9-1c-0.1-0.1-0.2-0.3-0.4-0.4c0,0,0,0,0,0c0.3-0.1,0.6-0.1,0.9-0.1c0.4,0,0.7,0,1.1,0.1
		c1.3,0.3,2.5,1.2,3.1,2.5c0.2,0.5,0.8,0.7,1.3,0.5c1.3-0.6,2.7-0.6,4-0.1c1.3,0.5,2.4,1.5,2.9,2.8c0.3,0.6,0.4,1.3,0.5,1.9
		c0,0.3,0.2,0.6,0.4,0.8c0.2,0.2,0.6,0.2,0.8,0.2c0.4-0.1,0.8-0.2,1.2-0.2c0.4-0.1,0.7-0.1,1.1-0.1c0.3,0,0.7,0,1,0
		C157.4,46.9,159,47.7,160.2,49.1z"/>
	<path class="st0" d="M179.3,235.9c0,0.5,0.5,0.9,1,0.9c0,0,0.1,0,0.1,0c0.5,0,1-0.5,0.9-1.1c-1.3-16.3-5.4-25.5-15.1-34.1
		c-0.4-0.4-1-0.3-1.4,0.1c-0.4,0.4-0.3,1,0.1,1.4C172.7,210.1,177.9,218,179.3,235.9z"/>
	<path class="st0" d="M122.6,274.2c-13.3-2.4-26.2-10.3-28.9-17.7c-0.2-0.5-0.8-0.8-1.3-0.6c-0.5,0.2-0.8,0.8-0.6,1.3
		c2.9,8.1,16.3,16.5,30.4,19c0.1,0,0.1,0,0.2,0c0.5,0,0.9-0.3,1-0.8C123.5,274.8,123.2,274.3,122.6,274.2z"/>
	<path class="st0" d="M126.6,50.4c0.6,0,1-0.4,1-1v-2.9c0-0.6-0.4-1-1-1s-1,0.4-1,1v2.9C125.6,50,126,50.4,126.6,50.4z"/>
	<path class="st0" d="M108.8,50.4c0.6,0,1-0.4,1-1v-2.9c0-0.6-0.4-1-1-1s-1,0.4-1,1v2.9C107.8,50,108.2,50.4,108.8,50.4z"/>
</g>
</svg>
