<svg xmlns="http://www.w3.org/2000/svg" width="225.78" height="279.128" viewBox="0 0 225.78 279.128">
  <g id="fitbol" transform="translate(-5265.312 -2712.927)">
    <path id="Path_1638" data-name="Path 1638" d="M5351.477,2761.674c-11.2,0-6.155,13.468,1.509,8.477C5351.808,2767.146,5352.124,2764.885,5351.477,2761.674Z" transform="translate(3.274 1.984)" fill="#fff" stroke="#0073ff" stroke-linecap="round" stroke-linejoin="round" stroke-width="2"/>
    <path id="Path_1639" data-name="Path 1639" d="M5351.225,2734.228c10.772-34.975,70.47-23.312,55.705,25.364Z" transform="translate(3.534 0)" fill="#fff" stroke="#0073ff" stroke-linecap="round" stroke-linejoin="round" stroke-width="2"/>
    <path id="Path_1640" data-name="Path 1640" d="M5392.494,2749.259c-7.115-31.538-59.183-32.358-42.424-4.351Z" transform="translate(3.349 0.445)" fill="#fff" stroke="#0073ff" stroke-linecap="round" stroke-linejoin="round" stroke-width="2"/>
    <path id="Path_1641" data-name="Path 1641" d="M5385.656,2753.354a5.357,5.357,0,0,1,4.026-6.418,5.3,5.3,0,0,1,5.848,2.9,5.922,5.922,0,0,1,8.352,5.148c12.089-3.186,15.108,16.678,2.57,17.161a6,6,0,0,1-8.7,6.1,4.379,4.379,0,1,1-3.276-6.86c.414-2.034-.148-3,1.818-3.742C5395.038,2764.726,5386.288,2756.281,5385.656,2753.354Z" transform="translate(4.963 1.365)" fill="#fff" stroke="#0073ff" stroke-linecap="round" stroke-linejoin="round" stroke-width="2"/>
    <path id="Path_1642" data-name="Path 1642" d="M5376.454,2739.788c11.416,3.8,22.081,14.357,19.212,25.39,4.6.4,7.121,4.225,5.706,7.525-.859,2-3,3.4-6.81,2.579,0,0-4.141,6.851-14.342,8.974v5.585l-10.479.192v-5.285a31.854,31.854,0,0,1-5.723-1.085C5341.891,2777.874,5345.7,2729.546,5376.454,2739.788Z" transform="translate(3.481 1.014)" fill="#fff" stroke="#0073ff" stroke-linecap="round" stroke-linejoin="round" stroke-width="2"/>
    <path id="Path_1643" data-name="Path 1643" d="M5349.282,2757.247c-5.726-1.292-4-7.659-2.182-10.617-7.419-12.06,15.706-21.91,20.649-10.507,1.3-1.168,4.7-1.548,6.319-1.092a6.95,6.95,0,0,1,5.032,5.276,3.631,3.631,0,1,1-1.658,5.532c-3.655,6.846-14.418,5.966-19.538,4.972C5356.851,2753.716,5355.949,2758.753,5349.282,2757.247Z" transform="translate(3.291 0.71)" fill="#fff" stroke="#0073ff" stroke-linecap="round" stroke-linejoin="round" stroke-width="2"/>
    <path id="Path_1644" data-name="Path 1644" d="M5380.069,2755.117v0Z" transform="translate(4.735 1.711)" fill="#fff" stroke="#0073ff" stroke-linecap="round" stroke-linejoin="round" stroke-width="2"/>
    <path id="Path_1645" data-name="Path 1645" d="M5363.931,2755.117v0Z" transform="translate(4.063 1.711)" fill="#fff" stroke="#0073ff" stroke-linecap="round" stroke-linejoin="round" stroke-width="2"/>
    <path id="Path_1646" data-name="Path 1646" d="M5379.532,2771.627s-2.206,4.342-12.623,2.036" transform="translate(4.187 2.398)" fill="#fff" stroke="#0073ff" stroke-linecap="round" stroke-linejoin="round" stroke-width="2"/>
    <g id="Ellipse_355" data-name="Ellipse 355" transform="translate(5444.626 2864.112)" fill="#fff" stroke="#0073ff" stroke-linecap="round" stroke-linejoin="round" stroke-width="2">
      <circle cx="1.53" cy="1.53" r="1.53" stroke="none"/>
      <circle cx="1.53" cy="1.53" r="0.53" fill="none"/>
    </g>
    <g id="Ellipse_356" data-name="Ellipse 356" transform="translate(5294.337 2921.288)" fill="#fff" stroke="#0073ff" stroke-linecap="round" stroke-linejoin="round" stroke-width="2">
      <circle cx="1.53" cy="1.53" r="1.53" stroke="none"/>
      <circle cx="1.53" cy="1.53" r="0.53" fill="none"/>
    </g>
    <g id="Group_2638" data-name="Group 2638" transform="translate(5325.176 2857.299)">
      <g id="Group_2636" data-name="Group 2636" transform="translate(0.777)">
        <line id="Line_1662" data-name="Line 1662" x2="1.149" y2="1.557" stroke-width="2" stroke="#0073ff" stroke-linecap="round" stroke-linejoin="round" fill="#fff"/>
        <line id="Line_1663" data-name="Line 1663" x2="1.149" y2="1.557" transform="translate(3.217 4.362)" fill="#fff" stroke="#0073ff" stroke-linecap="round" stroke-linejoin="round" stroke-width="2"/>
      </g>
      <g id="Group_2637" data-name="Group 2637" transform="translate(0 0.777)">
        <line id="Line_1664" data-name="Line 1664" y1="1.149" x2="1.557" transform="translate(0 3.217)" fill="#fff" stroke="#0073ff" stroke-linecap="round" stroke-linejoin="round" stroke-width="2"/>
        <line id="Line_1665" data-name="Line 1665" y1="1.149" x2="1.557" transform="translate(4.362)" fill="#fff" stroke="#0073ff" stroke-linecap="round" stroke-linejoin="round" stroke-width="2"/>
      </g>
    </g>
    <path id="Path_1647" data-name="Path 1647" d="M5279.273,2932.58l2.694,2.256-2.083,2.487" transform="translate(0.539 9.098)" fill="none" stroke="#0073ff" stroke-linecap="round" stroke-linejoin="round" stroke-width="2"/>
    <path id="Path_1648" data-name="Path 1648" d="M5456.539,2880.922l-1.755,3.044,2.811,1.62" transform="translate(7.845 6.948)" fill="none" stroke="#0073ff" stroke-linecap="round" stroke-linejoin="round" stroke-width="2"/>
    <path id="Path_1649" data-name="Path 1649" d="M5291.85,2879.763l1.484,3.186-2.941,1.37" transform="translate(1.003 6.9)" fill="none" stroke="#0073ff" stroke-linecap="round" stroke-linejoin="round" stroke-width="2"/>
    <path id="Path_1650" data-name="Path 1650" d="M5460.51,2955.561l-3.028,1.783,1.646,2.8" transform="translate(7.957 10.054)" fill="none" stroke="#0073ff" stroke-linecap="round" stroke-linejoin="round" stroke-width="2"/>
    <path id="Path_1651" data-name="Path 1651" d="M5448.245,2929.488c0,34.27-22.5,51.808-60.44,51.808s-66-17.539-66-51.808,26.318-59.564,63.217-59.564S5448.245,2895.22,5448.245,2929.488Z" transform="translate(2.31 6.49)" fill="#fff" stroke="#0073ff" stroke-linecap="round" stroke-linejoin="round" stroke-width="2"/>
    <g id="Group_2639" data-name="Group 2639" transform="translate(5292.866 2867.171)">
      <path id="Path_1652" data-name="Path 1652" d="M5354.694,2893.642l-9.187-17.728s-20.035,13.931-29.476,20.323a12.494,12.494,0,0,0-5.418,9l-7.3,43.816,11.29-1.01,9.92-31.682a10.688,10.688,0,0,1,4.646-6.484Z" transform="translate(-5291.326 -2860.432)" fill="#fff" stroke="#0073ff" stroke-linecap="round" stroke-linejoin="round" stroke-width="2"/>
      <path id="Path_1653" data-name="Path 1653" d="M5347.2,2892.945c-9.7,6.576-17.164,13.523-26.447,20.754-3.33,2.594-4.766,6.335-4.518,12.327l4.606,42.245,13.1-4.391-.784-32.332a6.619,6.619,0,0,1,2.459-4.989s17.528-9.426,26.365-16.109l.6-.45C5356.775,2903.844,5352.608,2899.909,5347.2,2892.945Z" transform="translate(-5290.79 -2859.723)" fill="#fff" stroke="#0073ff" stroke-linecap="round" stroke-linejoin="round" stroke-width="2"/>
      <path id="Path_1654" data-name="Path 1654" d="M5404.434,2861.051h-51.827c-.951,3.873-4.7,10.156-10.013,12.662,1.354,3.109,4.738,10.121,5.973,12.666-1.577.974-4,3.093-5.973,4.09,10.045,12.528,11.17,13.057,21.24,24.7C5405.514,2897.017,5410.749,2896.66,5404.434,2861.051Z" transform="translate(-5289.69 -2861.051)" fill="#fff" stroke="#0073ff" stroke-linecap="round" stroke-linejoin="round" stroke-width="2"/>
      <path id="Path_1655" data-name="Path 1655" d="M5303.789,2946.173s-8.814,3.663-11.585,9.687c-1.275,2.771.659,5.98,3.668,5.477l16.615-2.526c2.42-.236,3.709-2.644,3.956-4.811s-1.365-8.837-1.365-8.837Z" transform="translate(-5291.805 -2857.55)" fill="#fff" stroke="#0073ff" stroke-linecap="round" stroke-linejoin="round" stroke-width="2"/>
      <path id="Path_1656" data-name="Path 1656" d="M5348.344,2886.044c8.615-4.955,12.023-6.84,17.242-16.12" transform="translate(-5289.451 -2860.682)" fill="none" stroke="#0073ff" stroke-linecap="round" stroke-linejoin="round" stroke-width="2"/>
      <path id="Path_1657" data-name="Path 1657" d="M5369.388,2861.051" transform="translate(-5288.576 -2861.051)" fill="#fff" stroke="#0073ff" stroke-linecap="round" stroke-linejoin="round" stroke-width="2"/>
      <path id="Path_1658" data-name="Path 1658" d="M5322.147,2964.842s-6.963,4.252-8.926,10.834a3.938,3.938,0,0,0,4.958,4.884l16.12-5.114a4.564,4.564,0,0,0,3.744-5.162c-.187-2.261-2.963-9.543-2.963-9.543Z" transform="translate(-5290.921 -2856.901)" fill="#fff" stroke="#0073ff" stroke-linecap="round" stroke-linejoin="round" stroke-width="2"/>
      <path id="Path_1659" data-name="Path 1659" d="M5319.7,2967.1a5.556,5.556,0,0,0,5.78,1.65" transform="translate(-5290.644 -2856.636)" fill="none" stroke="#0073ff" stroke-linecap="round" stroke-linejoin="round" stroke-width="2"/>
      <path id="Path_1660" data-name="Path 1660" d="M5379.6,2865.416a10.9,10.9,0,0,0,11.59,10.09" transform="translate(-5288.149 -2860.869)" fill="none" stroke="#0073ff" stroke-linecap="round" stroke-linejoin="round" stroke-width="2"/>
      <path id="Path_1661" data-name="Path 1661" d="M5394.195,2868.124l-.179,5.973" transform="translate(-5287.55 -2860.757)" fill="none" stroke="#0073ff" stroke-linecap="round" stroke-linejoin="round" stroke-width="2"/>
      <path id="Path_1662" data-name="Path 1662" d="M5393.264,2878.2l-2.353,3.258" transform="translate(-5287.68 -2860.337)" fill="none" stroke="#0073ff" stroke-linecap="round" stroke-linejoin="round" stroke-width="2"/>
      <path id="Path_1663" data-name="Path 1663" d="M5385.526,2885.809l-4.867,2.391" transform="translate(-5288.107 -2860.02)" fill="none" stroke="#0073ff" stroke-linecap="round" stroke-linejoin="round" stroke-width="2"/>
      <path id="Path_1664" data-name="Path 1664" d="M5374.5,2890.819l-5.786,2.213" transform="translate(-5288.604 -2859.812)" fill="none" stroke="#0073ff" stroke-linecap="round" stroke-linejoin="round" stroke-width="2"/>
      <path id="Path_1665" data-name="Path 1665" d="M5362.743,2895.237l-5.591,2.185" transform="translate(-5289.084 -2859.628)" fill="none" stroke="#0073ff" stroke-linecap="round" stroke-linejoin="round" stroke-width="2"/>
    </g>
    <path id="Path_1666" data-name="Path 1666" d="M5471.142,2789.537c4.685.417,11.463-2.356,12.747-.989s-.252,6.741-1.824,9.308a24.154,24.154,0,0,1-13.162,2.76,16.5,16.5,0,0,1-6.646-2.088c-6.116,1.542-28.948,5.5-33.835,4.766-4.917,2.512-17.469,6.156-20.956,4.219-8.778-4.875.521-14.175.521-14.175,5.1-1.091,17.517-1.948,20.291-3.418,3.875-2.054,25.766-.817,29.291-.661,1.533.068,3.065.191,4.6.246,2.167.078,3.764-1.439,5.5-2.548,2.993-1.908,9.112-3.842,10.294-2.788,1.562,1.393-.346,3.919-4.453,5.354" transform="translate(5.72 2.908)" fill="#fff" stroke="#0073ff" stroke-linecap="round" stroke-linejoin="round" stroke-width="2"/>
    <path id="Path_1667" data-name="Path 1667" d="M5279.524,2792.963c-4.676.508-11.506-2.132-12.765-.741s.384,6.735,2.007,9.271a24.165,24.165,0,0,0,13.212,2.5,16.534,16.534,0,0,0,6.6-2.218c6.145,1.422,29.051,4.933,33.921,4.106,4.964,2.416,13.931,3.693,21.343,4.96a20.321,20.321,0,0,0,.668-16.542c-5.122-.992-19.325-.377-22.127-1.793-3.914-1.978-25.776-.316-29.3-.091-1.532.1-3.061.25-4.593.335-2.165.12-3.792-1.366-5.553-2.44-3.03-1.85-9.173-4.064-10.5-2.309-1.15,1.519,1.936,3.788,5.083,5.02" transform="translate(0 3.053)" fill="#fff" stroke="#0073ff" stroke-linecap="round" stroke-linejoin="round" stroke-width="2"/>
    <path id="Path_1668" data-name="Path 1668" d="M5357.959,2790.212c-16.924-.536-30.818,0-30.818,0l-1.047,19.036s15.743,3.826,23.721,7.2" transform="translate(2.489 3.162)" fill="#fff" stroke="#0073ff" stroke-linecap="round" stroke-linejoin="round" stroke-width="2"/>
    <path id="Path_1669" data-name="Path 1669" d="M5409.908,2866.691c-22.358-.94-60.65-2.489-61.7-2.529,7.546-33.193-6.956-47.3,5.7-72.6,2.134-4.266,30.033-3.074,40.1-3.311C5413.441,2787.792,5397.677,2839.592,5409.908,2866.691Z" transform="translate(3.409 3.09)" fill="#fff" stroke="#0073ff" stroke-linecap="round" stroke-linejoin="round" stroke-width="2"/>
    <path id="Path_1670" data-name="Path 1670" d="M5391.94,2791.129c6.129-6.511,29.472-2.06,29.472-2.06V2808.1a252.009,252.009,0,0,1-24.551,8.442" transform="translate(5.23 3.063)" fill="#fff" stroke="#0073ff" stroke-linecap="round" stroke-linejoin="round" stroke-width="2"/>
    <path id="Path_1671" data-name="Path 1671" d="M5415.338,2896.286c8.23,7.316,12.633,15.351,13.932,31.582" transform="translate(6.204 7.587)" fill="none" stroke="#0073ff" stroke-linecap="round" stroke-linejoin="round" stroke-width="2"/>
    <path id="Path_1672" data-name="Path 1672" d="M5349.464,2945.62c2.622,7.3,15.037,14.988,27.96,17.305" transform="translate(3.461 9.641)" fill="none" stroke="#0073ff" stroke-linecap="round" stroke-linejoin="round" stroke-width="2"/>
    <path id="Path_1673" data-name="Path 1673" d="M5298.965,2948.642a4.88,4.88,0,0,0,5.917,1.938" transform="translate(1.359 9.767)" fill="none" stroke="#0073ff" stroke-linecap="round" stroke-linejoin="round" stroke-width="2"/>
  </g>
</svg>
