<svg xmlns="http://www.w3.org/2000/svg" width="79.473" height="86.496"><defs><linearGradient id="a" x1=".5" y1=".935" x2=".5" y2=".014" gradientUnits="objectBoundingBox"><stop offset="0" stop-color="#ef4058"/><stop offset=".461" stop-color="#b14b71"/><stop offset=".589" stop-color="#3760a1"/><stop offset="1" stop-color="#0f67b1"/></linearGradient></defs><g data-name="Group 2641"><g data-name="Group 2640"><path data-name="Path 1674" d="M32.229 46.722H24.27a.1.1 0 00-.1.1 46.919 46.919 0 01-1.867 10.711v.1l.1.1h2.751c.1 0 .1 0 .1-.1a38.135 38.135 0 001.572-8.353h2.653v8.254a.1.1 0 00.1.1h2.653a.1.1 0 00.1-.1l-.1-10.809m33.8 0h-2.653a.1.1 0 00-.1.1v8.255a5.447 5.447 0 01-1.768.2c-1.769 0-2.162-.491-2.162-2.849v-5.7a.1.1 0 00-.1-.1h-2.653a.1.1 0 00-.1.1v6.092c0 3.734 1.276 5.208 4.52 5.208a14.736 14.736 0 005.11-.983.1.1 0 00.1-.1V46.822c0-.1-.1-.1-.2-.1m-55.222 0H8.151c-.1 0-.1 0-.1.1a66.02 66.02 0 01-2.358 7.271l-2.751-7.271a.1.1 0 00-.1-.1H.091a.1.1 0 00-.1.1v.1l4.028 10.907a14.358 14.358 0 01-1.178 2.162c-.295.491-.492.982-.787 1.473v.1l.1.1h2.948c.1 0 .1 0 .1-.1a70.725 70.725 0 001.67-3.635 85.766 85.766 0 003.931-11.2m9.532 8.353a.3.3 0 00-.2-.1 10.75 10.75 0 01-2.654.393c-1.768 0-2.653-.491-2.653-3.243 0-2.259.3-3.242 2.653-3.242a9.422 9.422 0 012.162.295c.1 0 .1 0 .2-.1.295-.589.688-1.277 1.081-2.063v-.1l-.1-.1a13.844 13.844 0 00-3.439-.491c-3.832 0-5.5 1.769-5.5 5.8 0 4.127 1.671 5.9 5.5 5.9a11.883 11.883 0 003.734-.589c.1 0 .1-.1.1-.2l-.884-2.161m24.761-8.353h-2.653c-.1 0-.1 0-.1.1a65.579 65.579 0 01-2.358 7.271l-2.653-7.271a.1.1 0 00-.1-.1h-2.85a.1.1 0 00-.1.1v.1l4.029 10.907a14.353 14.353 0 01-1.18 2.162c-.295.491-.491.982-.786 1.473v.1l.1.1h2.947c.1 0 .1 0 .1-.1a70.654 70.654 0 001.671-3.635 81.12 81.12 0 003.93-11.2m9.728 0h-7.665a.1.1 0 00-.1.1v10.711a.1.1 0 00.1.1h2.653a.1.1 0 00.1-.1v-8.254h4.029c.1 0 .1 0 .1-.1.294-.687.589-1.473.982-2.26v-.1c-.1-.1-.1-.1-.2-.1" fill="#ef4058"/></g></g><g data-name="Group 2643"><g data-name="Group 2642"><path data-name="Path 1675" d="M13.855 30.515c-3.733 0-5.208 1.573-5.208 5.8s1.474 5.8 5.208 5.8c3.833 0 5.306-1.671 5.306-5.8 0-4.225-1.473-5.8-5.306-5.8m0 9.138c-1.67 0-2.26-.491-2.26-3.341 0-3.145.589-3.341 2.26-3.341s2.26.3 2.26 3.341c.1 2.948-.491 3.341-2.26 3.341m15.721-.393a.3.3 0 00-.2-.1 10.792 10.792 0 01-2.653.393c-1.769 0-2.653-.491-2.653-3.243 0-2.26.295-3.243 2.653-3.243a9.4 9.4 0 012.162.295c.1 0 .1 0 .2-.1.295-.59.688-1.277 1.08-2.063v-.1l-.1-.1a13.832 13.832 0 00-3.439-.491c-3.832 0-5.5 1.769-5.5 5.8 0 4.127 1.671 5.9 5.5 5.9a11.883 11.883 0 003.734-.59c.1 0 .1-.1.1-.2l-.886-2.162M7.859 30.805H.097a.1.1 0 00-.1.1v10.71a.1.1 0 00.1.1H2.75a.1.1 0 00.1-.1v-8.254h4.028c.1 0 .1 0 .1-.1.3-.688.59-1.474.983-2.26v-.1a.1.1 0 00-.1-.1" fill="#0f67b1"/></g></g><path data-name="Path 1676" d="M5099.772 2616.039l-20.129-11.621a20.011 20.011 0 00-20.009 0l-20.128 11.622a19.953 19.953 0 00-6.653 6.266.791.791 0 00.658 1.228h5.911a.782.782 0 00.538-.218 13.736 13.736 0 012.616-1.96l20.129-11.622a13.9 13.9 0 0113.87 0l20.13 11.622a13.908 13.908 0 016.934 12.012v23.243a13.91 13.91 0 01-6.934 12.012l-20.13 11.622a13.907 13.907 0 01-13.87 0l-20.129-11.622a13.812 13.812 0 01-2.616-1.959.777.777 0 00-.537-.219h-5.912a.792.792 0 00-.658 1.229 19.954 19.954 0 006.653 6.265l20.128 11.622a20.064 20.064 0 0020.009 0l20.129-11.622a20.009 20.009 0 0010-17.329v-23.243a20.011 20.011 0 00-10-17.328z" transform="translate(-5030.304 -2601.737)" fill="url(#a)"/></svg>