<svg xmlns="http://www.w3.org/2000/svg" width="85.134" height="83.159"><g fill="none" stroke="#0073ff" stroke-linecap="round" stroke-linejoin="round" stroke-width="2"><path data-name="Path 1497" d="M79.667 49.223v32.94h-74.2v-32.94"/><path data-name="Path 1498" d="M58.987 28.83v53.33H26.146V28.83"/><g data-name="Group 2583"><g data-name="Group 2581"><path data-name="Rectangle 981" d="M41.178 57.553h2.777a7.372 7.372 0 017.372 7.372v17.234h0-17.521 0V64.925a7.372 7.372 0 017.372-7.372z"/><path data-name="Line 1605" d="M42.566 57.553v24.606"/></g><g data-name="Group 2582"><g data-name="Ellipse 335" transform="translate(45.066 71.795)"><circle cx="1.245" cy="1.245" r="1.245" stroke="none"/><circle cx="1.245" cy="1.245" r=".245"/></g><g data-name="Ellipse 336" transform="translate(37.577 71.795)"><circle cx="1.245" cy="1.245" r="1.245" stroke="none"/><circle cx="1.245" cy="1.245" r=".245"/></g></g></g><g data-name="Group 2586"><g data-name="Group 2584"><path data-name="Rectangle 982" d="M66.726 54.058h5.313a3.16 3.16 0 013.16 3.16v14.577h0-11.633 0V57.218a3.16 3.16 0 013.16-3.16z"/><path data-name="Line 1606" d="M75.199 60.042H63.566"/></g><g data-name="Group 2585"><path data-name="Rectangle 983" d="M13.093 54.058h5.313a3.16 3.16 0 013.16 3.16v14.577h0H9.933h0V57.218a3.16 3.16 0 013.16-3.16z"/><path data-name="Line 1607" d="M21.566 60.042H9.933"/></g></g><path data-name="Path 1499" d="M70.923 36.805l-28.356-19.32-28.356 19.32"/><g data-name="Group 2587"><path data-name="Line 1608" d="M83.744 51.986L58.987 35.118"/><path data-name="Line 1609" d="M26.146 35.118L1.389 51.986"/></g><path data-name="Line 1610" d="M42.566 17.485V1"/><path data-name="Path 1500" d="M55.54 11.744H42.566V3.893H55.54l-3.156 3.926z"/><g data-name="Group 2592" transform="translate(-5534.84 -2186.337)"><circle data-name="Ellipse 337" cx="4.625" cy="4.625" r="4.625" transform="translate(5572.781 2218.823)"/><g data-name="Group 2588"><path data-name="Line 1611" d="M5577.406 2212.892v3.207"/><path data-name="Line 1612" d="M5577.406 2230.796v3.207"/></g><g data-name="Group 2589"><path data-name="Line 1613" d="M5566.851 2223.448h3.207"/><path data-name="Line 1614" d="M5584.755 2223.448h3.207"/></g><g data-name="Group 2590"><path data-name="Line 1615" d="M5569.942 2215.983l2.268 2.268"/><path data-name="Line 1616" d="M5582.603 2228.644l2.268 2.268"/></g><g data-name="Group 2591"><path data-name="Line 1617" d="M5584.871 2215.983l-2.268 2.268"/><path data-name="Line 1618" d="M5572.21 2228.644l-2.268 2.268"/></g></g></g></svg>