<svg xmlns="http://www.w3.org/2000/svg" width="85.134" height="83.159" viewBox="0 0 85.134 83.159">
  <g id="Kindergarten" transform="translate(-5534.84 -2186.337)">
    <path id="Path_1497" data-name="Path 1497" d="M5614.507,2235.56V2268.5h-74.2V2235.56" fill="none" stroke="#0073ff" stroke-linecap="round" stroke-linejoin="round" stroke-width="2"/>
    <path id="Path_1498" data-name="Path 1498" d="M5593.827,2215.167v53.33h-32.841v-53.33" fill="none" stroke="#0073ff" stroke-linecap="round" stroke-linejoin="round" stroke-width="2"/>
    <g id="Group_2583" data-name="Group 2583">
      <g id="Group_2581" data-name="Group 2581">
        <path id="Rectangle_981" data-name="Rectangle 981" d="M7.372,0h2.777a7.372,7.372,0,0,1,7.372,7.372V24.606a0,0,0,0,1,0,0H0a0,0,0,0,1,0,0V7.372A7.372,7.372,0,0,1,7.372,0Z" transform="translate(5568.646 2243.89)" fill="none" stroke="#0073ff" stroke-linecap="round" stroke-linejoin="round" stroke-width="2"/>
        <line id="Line_1605" data-name="Line 1605" y2="24.606" transform="translate(5577.406 2243.89)" fill="none" stroke="#0073ff" stroke-linecap="round" stroke-linejoin="round" stroke-width="2"/>
      </g>
      <g id="Group_2582" data-name="Group 2582">
        <g id="Ellipse_335" data-name="Ellipse 335" transform="translate(5579.906 2258.132)" fill="none" stroke="#0073ff" stroke-linecap="round" stroke-linejoin="round" stroke-width="2">
          <circle cx="1.245" cy="1.245" r="1.245" stroke="none"/>
          <circle cx="1.245" cy="1.245" r="0.245" fill="none"/>
        </g>
        <g id="Ellipse_336" data-name="Ellipse 336" transform="translate(5572.417 2258.132)" fill="none" stroke="#0073ff" stroke-linecap="round" stroke-linejoin="round" stroke-width="2">
          <circle cx="1.245" cy="1.245" r="1.245" stroke="none"/>
          <circle cx="1.245" cy="1.245" r="0.245" fill="none"/>
        </g>
      </g>
    </g>
    <g id="Group_2586" data-name="Group 2586">
      <g id="Group_2584" data-name="Group 2584">
        <path id="Rectangle_982" data-name="Rectangle 982" d="M3.16,0H8.473a3.16,3.16,0,0,1,3.16,3.16V17.737a0,0,0,0,1,0,0H0a0,0,0,0,1,0,0V3.16A3.16,3.16,0,0,1,3.16,0Z" transform="translate(5598.406 2240.395)" fill="none" stroke="#0073ff" stroke-linecap="round" stroke-linejoin="round" stroke-width="2"/>
        <line id="Line_1606" data-name="Line 1606" x1="11.633" transform="translate(5598.406 2246.379)" fill="none" stroke="#0073ff" stroke-linecap="round" stroke-linejoin="round" stroke-width="2"/>
      </g>
      <g id="Group_2585" data-name="Group 2585">
        <path id="Rectangle_983" data-name="Rectangle 983" d="M3.16,0H8.473a3.16,3.16,0,0,1,3.16,3.16V17.737a0,0,0,0,1,0,0H0a0,0,0,0,1,0,0V3.16A3.16,3.16,0,0,1,3.16,0Z" transform="translate(5544.773 2240.395)" fill="none" stroke="#0073ff" stroke-linecap="round" stroke-linejoin="round" stroke-width="2"/>
        <line id="Line_1607" data-name="Line 1607" x1="11.633" transform="translate(5544.773 2246.379)" fill="none" stroke="#0073ff" stroke-linecap="round" stroke-linejoin="round" stroke-width="2"/>
      </g>
    </g>
    <path id="Path_1499" data-name="Path 1499" d="M5605.763,2223.142l-28.356-19.32-28.356,19.32" fill="none" stroke="#0073ff" stroke-linecap="round" stroke-linejoin="round" stroke-width="2"/>
    <g id="Group_2587" data-name="Group 2587">
      <line id="Line_1608" data-name="Line 1608" x1="24.757" y1="16.868" transform="translate(5593.827 2221.455)" fill="none" stroke="#0073ff" stroke-linecap="round" stroke-linejoin="round" stroke-width="2"/>
      <line id="Line_1609" data-name="Line 1609" x1="24.757" y2="16.868" transform="translate(5536.229 2221.455)" fill="none" stroke="#0073ff" stroke-linecap="round" stroke-linejoin="round" stroke-width="2"/>
    </g>
    <line id="Line_1610" data-name="Line 1610" y1="16.485" transform="translate(5577.406 2187.337)" fill="none" stroke="#0073ff" stroke-linecap="round" stroke-linejoin="round" stroke-width="2"/>
    <path id="Path_1500" data-name="Path 1500" d="M5590.38,2198.081h-12.974v-7.851h12.974l-3.156,3.926Z" fill="none" stroke="#0073ff" stroke-linecap="round" stroke-linejoin="round" stroke-width="2"/>
    <g id="Group_2592" data-name="Group 2592">
      <path id="Path_1501" data-name="Path 1501" d="M5577.406,2214.328" fill="none" stroke="#0073ff" stroke-linecap="round" stroke-linejoin="round" stroke-width="2"/>
      <circle id="Ellipse_337" data-name="Ellipse 337" cx="4.625" cy="4.625" r="4.625" transform="translate(5572.781 2218.823)" stroke-width="2" stroke="#0073ff" stroke-linecap="round" stroke-linejoin="round" fill="none"/>
      <g id="Group_2588" data-name="Group 2588">
        <line id="Line_1611" data-name="Line 1611" y2="3.207" transform="translate(5577.406 2212.892)" fill="none" stroke="#0073ff" stroke-linecap="round" stroke-linejoin="round" stroke-width="2"/>
        <line id="Line_1612" data-name="Line 1612" y2="3.207" transform="translate(5577.406 2230.796)" fill="none" stroke="#0073ff" stroke-linecap="round" stroke-linejoin="round" stroke-width="2"/>
      </g>
      <g id="Group_2589" data-name="Group 2589">
        <line id="Line_1613" data-name="Line 1613" x2="3.207" transform="translate(5566.851 2223.448)" fill="none" stroke="#0073ff" stroke-linecap="round" stroke-linejoin="round" stroke-width="2"/>
        <line id="Line_1614" data-name="Line 1614" x2="3.207" transform="translate(5584.755 2223.448)" fill="none" stroke="#0073ff" stroke-linecap="round" stroke-linejoin="round" stroke-width="2"/>
      </g>
      <g id="Group_2590" data-name="Group 2590">
        <line id="Line_1615" data-name="Line 1615" x2="2.268" y2="2.268" transform="translate(5569.942 2215.983)" fill="none" stroke="#0073ff" stroke-linecap="round" stroke-linejoin="round" stroke-width="2"/>
        <line id="Line_1616" data-name="Line 1616" x2="2.268" y2="2.268" transform="translate(5582.603 2228.644)" fill="none" stroke="#0073ff" stroke-linecap="round" stroke-linejoin="round" stroke-width="2"/>
      </g>
      <g id="Group_2591" data-name="Group 2591">
        <line id="Line_1617" data-name="Line 1617" x1="2.268" y2="2.268" transform="translate(5582.603 2215.983)" fill="none" stroke="#0073ff" stroke-linecap="round" stroke-linejoin="round" stroke-width="2"/>
        <line id="Line_1618" data-name="Line 1618" x1="2.268" y2="2.268" transform="translate(5569.942 2228.644)" fill="none" stroke="#0073ff" stroke-linecap="round" stroke-linejoin="round" stroke-width="2"/>
      </g>
    </g>
  </g>
</svg>
