<svg xmlns="http://www.w3.org/2000/svg" width="87.527" height="66.345"><defs><style>.a{fill:none;stroke:#0073ff;stroke-linecap:round;stroke-linejoin:round;stroke-width:2px}</style></defs><path class="a" d="M47.567 19.232H7.835A6.836 6.836 0 001 26.067v21.278a6.836 6.836 0 006.835 6.836h2.128v11.167l10.316-11.167h27.288a6.837 6.837 0 006.836-6.836V26.067a6.836 6.836 0 00-6.836-6.835zM11.17 30.337h31.769M11.17 36.9h31.769M11.17 44.435h31.769"/><path class="a" d="M33.125 14.262v-6.43A6.835 6.835 0 0139.96.997h39.736a6.835 6.835 0 016.835 6.835V29.11a6.836 6.836 0 01-6.835 6.836h-2.128v11.167L67.252 35.946h-6.816m15.922-23.838H44.589m31.769 6.563H59.827m16.531 7.535H59.827"/></svg>