<svg xmlns="http://www.w3.org/2000/svg" width="25.098" height="19.13"><defs><style>.a{fill:none;stroke:#fff;stroke-linecap:round;stroke-linejoin:round}</style></defs><path class="a" d="M13.617 5.636H2.422A1.925 1.925 0 00.496 7.562v6a1.925 1.925 0 001.926 1.926h.6v3.146l2.907-3.146h7.688a1.926 1.926 0 001.926-1.926v-6a1.926 1.926 0 00-1.926-1.926zM3.365 8.766h8.951m-8.951 1.849h8.951m-8.951 2.123h8.951"/><path class="a" d="M9.552 4.237V2.43A1.926 1.926 0 0111.478.504h11.194a1.926 1.926 0 011.926 1.926v5.995a1.926 1.926 0 01-1.926 1.926h-.6v3.147l-2.906-3.147h-1.922m4.489-6.721h-8.951m8.951 1.849h-4.658m4.658 2.123h-4.658"/></svg>