<svg xmlns="http://www.w3.org/2000/svg" width="87.527" height="66.345" viewBox="0 0 87.527 66.345"><defs><style>.a{fill:none;stroke:#0073ff;stroke-linecap:round;stroke-linejoin:round;stroke-width:2px;}</style></defs><g transform="translate(-4715.904 -6120.368)"><path class="a" d="M4763.471,6139.6h-39.732a6.836,6.836,0,0,0-6.835,6.835v21.278a6.836,6.836,0,0,0,6.835,6.836h2.128v11.167l10.316-11.167h27.288a6.837,6.837,0,0,0,6.836-6.836v-21.278A6.836,6.836,0,0,0,4763.471,6139.6Z"/><line class="a" x2="31.769" transform="translate(4727.074 6150.705)"/><line class="a" x2="31.769" transform="translate(4727.074 6157.268)"/><line class="a" x2="31.769" transform="translate(4727.074 6164.803)"/><path class="a" d="M4749.029,6134.63V6128.2a6.835,6.835,0,0,1,6.835-6.835H4795.6a6.835,6.835,0,0,1,6.835,6.835v21.278a6.836,6.836,0,0,1-6.835,6.836h-2.128v11.167l-10.316-11.167h-6.816"/><line class="a" x1="31.769" transform="translate(4760.493 6132.476)"/><line class="a" x1="16.531" transform="translate(4775.731 6139.039)"/><line class="a" x1="16.531" transform="translate(4775.731 6146.574)"/></g></svg>