<svg xmlns="http://www.w3.org/2000/svg" width="107.921" height="82.883" viewBox="0 0 107.921 82.883"><g transform="translate(-904 -20904)"><line x2="12.577" transform="translate(998.344 20985.883)" stroke-width="2" stroke="#0073ff" stroke-linecap="round" stroke-linejoin="round" fill="none"/><line x2="12.577" transform="translate(905 20985.883)" stroke-width="2" stroke="#0073ff" stroke-linecap="round" stroke-linejoin="round" fill="none"/><g transform="translate(990.841 20923.643)" fill="#fff" stroke="#0073ff" stroke-linecap="round" stroke-linejoin="round" stroke-width="2"><circle cx="1.038" cy="1.038" r="1.038" stroke="none"/><circle cx="1.038" cy="1.038" r="0.038" fill="none"/></g><g transform="translate(924.127 20937.568)" fill="#fff" stroke="#0073ff" stroke-linecap="round" stroke-linejoin="round" stroke-width="2"><circle cx="1.469" cy="1.469" r="1.469" stroke="none"/><circle cx="1.469" cy="1.469" r="0.469" fill="none"/></g><g transform="translate(957.448 20904)" fill="#fff" stroke="#0073ff" stroke-linecap="round" stroke-linejoin="round" stroke-width="2"><circle cx="1.469" cy="1.469" r="1.469" stroke="none"/><circle cx="1.469" cy="1.469" r="0.469" fill="none"/></g><g transform="translate(-5161.794 15801.085)"><line x2="0.6" y2="0.813" transform="translate(6097.171 5112.764)" stroke-width="2" stroke="#0073ff" stroke-linecap="round" stroke-linejoin="round" fill="none"/><line x2="0.6" y2="0.813" transform="translate(6099.66 5116.138)" stroke-width="2" stroke="#0073ff" stroke-linecap="round" stroke-linejoin="round" fill="none"/><line y1="0.6" x2="0.813" transform="translate(6096.622 5115.802)" stroke-width="2" stroke="#0073ff" stroke-linecap="round" stroke-linejoin="round" fill="none"/><line y1="0.6" x2="0.813" transform="translate(6099.996 5113.313)" stroke-width="2" stroke="#0073ff" stroke-linecap="round" stroke-linejoin="round" fill="none"/></g><path d="M6138.317,5109.73l1,3.221,2.974-.926" transform="translate(-5161.794 15801.085)" fill="none" stroke="#0073ff" stroke-linecap="round" stroke-linejoin="round" stroke-width="2"/><path d="M6147.336,5139.023l.261,3.364,3.1-.241" transform="translate(-5161.794 15801.085)" fill="none" stroke="#0073ff" stroke-linecap="round" stroke-linejoin="round" stroke-width="2"/><g transform="translate(-5161.794 15801.085)"><path d="M6095.657,5178.567h-2.64l7.368-16.994h2.16l7.3,16.994h-2.688l-1.728-4.177h-8.064Zm2.545-6.265h6.36l-3.168-7.969Z" fill="#0073ff"/><rect width="27.957" height="27.957" rx="2.617" transform="translate(6087.39 5156.839)" stroke-width="2" stroke="#0073ff" stroke-linecap="round" stroke-linejoin="round" fill="none"/><path d="M6114.722,5127.292h5.857c2.568,0,5.328,1.055,5.328,4.3a3.751,3.751,0,0,1-2.977,3.7v.048a4,4,0,0,1,3.769,4.129c0,3.263-2.832,4.824-6.385,4.824h-5.592Zm2.376,7.176h3.1c1.823,0,3.336-.793,3.336-2.64,0-1.824-1.464-2.544-3.721-2.544H6117.1Zm0,7.8h2.977c2.015,0,4.223-.624,4.223-2.927,0-1.993-1.416-2.857-4.008-2.857H6117.1Z" fill="#0073ff"/><rect width="27.957" height="27.957" rx="2.617" transform="translate(6106.383 5122.558)" stroke-width="2" stroke="#0073ff" stroke-linecap="round" stroke-linejoin="round" fill="none"/><path d="M6145.693,5176.926a7.738,7.738,0,0,1-6.481,3.072,8.929,8.929,0,1,1,.1-17.857c2.328,0,4.849.912,6.1,2.64l-1.872,1.441a5.3,5.3,0,0,0-4.225-1.993c-3.936,0-6.457,3.1-6.457,6.817,0,3.816,2.473,6.841,6.385,6.841a5.374,5.374,0,0,0,4.56-2.257Z" fill="#0073ff"/><rect width="27.957" height="27.957" rx="2.617" transform="translate(6124.076 5156.839)" stroke-width="2" stroke="#0073ff" stroke-linecap="round" stroke-linejoin="round" fill="none"/></g></g></svg>