<svg xmlns="http://www.w3.org/2000/svg" width="69.201" height="75.631"><g fill="none" stroke="#0073ff" stroke-linecap="round" stroke-linejoin="round" stroke-width="2"><g transform="translate(6.87 19.17)"><path d="M55.46 27.731c0 2.357-3.053 4.283-3.634 6.458-.6 2.25 1.062 5.44-.078 7.41-1.156 2-4.762 2.146-6.383 3.767s-1.77 5.228-3.767 6.383c-1.969 1.14-5.161-.524-7.409.078-2.175.581-4.1 3.634-6.459 3.634s-4.284-3.053-6.458-3.634c-2.25-.6-5.44 1.062-7.411-.079-2-1.155-2.144-4.761-3.767-6.382s-5.227-1.769-6.382-3.767c-1.14-1.971.523-5.161-.078-7.411C3.053 32.013 0 30.088 0 27.73s3.053-4.284 3.634-6.458c.6-2.25-1.062-5.439.078-7.411 1.157-2 4.762-2.145 6.383-3.766s1.769-5.227 3.767-6.383c1.969-1.141 5.159.522 7.409-.078 2.175-.581 4.1-3.635 6.458-3.635s4.284 3.054 6.459 3.635c2.25.6 5.44-1.062 7.409.078 2 1.156 2.146 4.761 3.768 6.383s5.227 1.768 6.382 3.767c1.14 1.97-.523 5.16.078 7.41.584 2.175 3.635 4.101 3.635 6.459z"/><ellipse cx="18.459" cy="18.459" rx="18.459" ry="18.459" transform="translate(9.272 9.271)"/><path d="M27.715 35.315c-3.356-3.356-6.663 1.292-11.116 0V21.499c4.584 1.192 8.468-4.1 11.116 0zm.03 0c3.355-3.356 6.662 1.292 11.116 0V21.499c-4.586 1.192-8.469-4.1-11.116 0z"/></g><path d="M41.059 22.805c2.25.6 5.441-1.062 7.411.077 2 1.157 2.145 4.762 3.766 6.384a7.815 7.815 0 0 0 2.7 1.485L68.198 1h-20.3l-9.38 20.273a7.49 7.49 0 0 0 2.541 1.532zm-24.093 6.46c1.622-1.622 1.769-5.227 3.767-6.383 1.969-1.139 5.159.525 7.41-.077a7.488 7.488 0 0 0 2.535-1.533L21.298.999H.998L14.26 30.75a7.812 7.812 0 0 0 2.706-1.485z"/></g></svg>