<svg version="1.1" id="Layer_1" xmlns="http://www.w3.org/2000/svg" x="0" y="0" viewBox="0 0 242.7 306.2" xml:space="preserve"><style>.st0{fill:#0073ff}</style><path class="st0" d="M196.4 4.5h.3c.9 0 1.5-.7 1.5-1.6 0-.8-.5-1.4-1.3-1.5h-.3c-.2 0-.4 0-.6.1-.6.2-1 .8-1 1.5.1.7.6 1.3 1.4 1.5zm.7-1.6c0 .2-.2.4-.4.4s-.4-.2-.4-.4.2-.4.4-.4.4.2.4.4zM211.7 51h-.3c-.7.2-1.2.8-1.2 1.5 0 .8.6 1.5 1.4 1.6h.3c.6-.1 1.2-.6 1.3-1.2v-.4c0-.2 0-.3-.1-.5-.2-.5-.5-.9-1-1h-.4zm0 2c-.2 0-.4-.2-.4-.4s.2-.4.4-.4.4.2.4.4-.1.4-.4.4zm-76.8-32.1c.2.3.5.4.8.4.2 0 .4-.1.6-.2.4-.3.5-1 .2-1.4l-1.2-1.6c-.3-.4-1-.5-1.4-.2s-.5 1-.2 1.4l1.2 1.6zm3.4 4.5c.2.3.5.4.8.4.2 0 .4-.1.6-.2.4-.3.5-1 .2-1.4l-1.2-1.6c-.3-.4-1-.5-1.4-.2-.4.3-.5 1-.2 1.4l1.2 1.6zm-4.5-.4c.2 0 .4-.1.6-.2l1.6-1.2c.4-.3.5-1 .2-1.4-.3-.4-1-.5-1.4-.2l-1.6 1.2c-.4.3-.5 1-.2 1.4.2.2.5.4.8.4zm4.5-3.4c.2 0 .4-.1.6-.2l1.6-1.2c.4-.3.5-1 .2-1.4-.3-.4-1-.5-1.4-.2l-1.6 1.2c-.4.3-.5 1-.2 1.4.2.3.5.4.8.4zM125.7 4.4l3.2 1h.3c.2 0 .3 0 .5-.1s.4-.3.5-.6l1.1-3.5c.2-.5-.1-1.1-.7-1.3-.5-.2-1.1.1-1.3.7l-.8 2.5-2.2-.7c-.5-.2-1.1.1-1.3.7-.1.6.2 1.2.7 1.3zm107 98l-3.6-.7c-.5-.1-1.1.2-1.2.8l-.6 3.3c-.1.5.2 1.1.8 1.2h.2c.5 0 .9-.3 1-.8l.5-2.3 2.6.5c.5.1 1.1-.2 1.2-.8s-.4-1.1-.9-1.2zm-108.5 2.9l2.2.9-1 2.4c-.2.5.1 1.1.6 1.3.1 0 .2.1.4.1.4 0 .8-.2.9-.6l1.3-3.4c.1-.2.1-.5 0-.8-.1-.2-.3-.4-.6-.5l-3.1-1.2c-.5-.2-1.1.1-1.3.6-.2.4.1 1 .6 1.2zM57 86.2c.2.1 3.3 1.6 8.5 1.6 2.1 0 4.6-.3 7.4-1 .5-.1.9-.7.7-1.2s-.7-.9-1.2-.7c-1.6.4-3.2.7-4.6.8-2.5.2-4.6 0-6.2-.2-2.3-.4-3.7-1-3.7-1.1-.5-.2-1.1 0-1.3.4-.3.5-.1 1.1.4 1.4zM13.6 257.3c-.6 0-1 .4-1 1v6.6c0 .6.4 1 1 1s1-.4 1-1v-6.6c0-.6-.5-1-1-1z"/><path class="st0" d="M195.3 169.8s-.1 0 0 0l-4.8 3.3c-1.3-1.2-3.1-1.6-4.9-1.3-.8.2-1.7.2-2.6 0-.8-.2-1.5-.5-2.2-.7-1.2-.5-2.4-.9-4.4-.9-1.7 0-3.3.4-4.9 1.1l-5.8-2.5 1.8-5.2c.2-.5-.1-1-.6-1.2L132 147.8c-1.7-2.6-15.1-23.4-16.1-31.1-1.4-10.2-14.5-11-18.4-11H83.2l-3.4-5.6c-.1-.2-.4-.4-.7-.5-.3-.1-.6 0-.8.2l-2.4 1.9v-4.1c.6-.1 1.2-.3 1.9-.5 8.1-2.1 13.4-9.3 15.9-17.6.5.1.9.1 1.3.1 1.4 0 2.8-.4 3.9-1.3 2.3-1.8 3.3-4.9 2.4-7.5-.3-.8-1-2.2-2.7-3.2 2.1-6.1 4.3-19.6-1.1-27.5C90 29 80 24.1 65.1 24.1c-14.4 0-24.7 5.1-32.4 16-3.7 5.2-3.2 13.6-1.6 19.7.6 2.3 1.4 4.4 2.3 6.2-2.2.4-3.8 1.6-4.7 3.4-1.2 2.5-.5 5.8 1.6 7.8 1.1 1.1 2.5 1.6 4 1.6.4 0 .8-.1 1.2-.1 2.4 8.7 7.8 16.2 16.2 18.4.7.2 1.3.3 1.9.5v4.1l-2.4-1.9c-.2-.2-.5-.2-.8-.2-.3.1-.5.2-.7.5l-3.4 5.6H32.4c-4 0-17 .8-18.4 11-1.1 8.3-6.2 38.3-6.3 38.7l-2.8 39.9c0 .3.1.5.3.8.2.2.5.3.7.3h4.7c-.3 1.4-1.1 3.9-2.8 5.6-1.9 1.9-2.5 4.9-1.5 7.3.4.9 1.2 2.2 3 3.1v4.3H1c-.6 0-1 .4-1 1v59.4c0 .6.4 1 1 1h23.8c.6 0 1-.4 1-1v-59.4c0-.6-.4-1-1-1h-6.9v-3.8c1.5-.6 2.5-1.5 3-2.3 1.5-2.2 1.4-5.5-.2-9.3-1.3-3.2-1.4-4.5-1.3-5h3.8c.5 0 1-.4 1-.9l2.7-36.7c.7-3.9 1.4-7.9 2.1-11.7l.8 4c.7 3.3.9 6.7.7 10.1l-1.2 26.6c0 .3.1.5.3.7.2.2.4.3.7.3v5.6c-.1.2-.2.4-.2.6s.1.5.2.6v93c0 .6.4 1 1 1h1.5c-2.4 1.4-5.1 3.8-6.6 7.5-1.1 2.7-1 5.4.1 7.1.6.9 1.7 1.9 3.8 1.9h21.4c.3 0 .5.1.8.1 3.1 0 5.9-2.3 6.4-5.4.5-2.2.3-8.7.1-11.2h2.1c.6 0 1-.4 1-1v-72h5.5v72c0 .6.4 1 1 1h.3c-.1 2.6-.4 9 .1 11.2.5 3.2 3.3 5.4 6.4 5.4.3 0 .5 0 .8-.1h26.5c1.1 0 2.3-.3 3.2-1 2.6-1.8 3.3-5.4 1.5-8-2.5-3.7-6.3-6.1-9.5-7.6h.2c.6 0 1-.4 1-1v-99.9h.2c.3 0 .5-.1.7-.3.2-.2.3-.5.3-.7l-1.2-26.6c-.2-3.4.1-6.8.7-10.1l1.8-8.9c3.7 7.5 7.9 16.4 11 23.2.1.2.3.4.5.5l46.5 18.1c.1 0 .2.1.4.1.1 0 .3 0 .4-.1.2-.1.4-.3.5-.6l1.8-5.3 2.8 1.2c.2.8.8 1.5 1.8 2.1 2 1.3 4.4 2 6.8 2h10c1.9 0 3.7-.5 5.4-1.5l8.7-6.3c.1-.1.2-.1.3-.2 1.4-1 1.8-3.1.7-4.5-.5-1.2-2.3-1.6-3.7-.8zm-81-5.7c-2.4-5.2-7.5-16.2-12-25.2-.2-.5-.5-1-.7-1.5-.2-.5-.5-1-.7-1.5-3-5.9-5.5-10.4-6.4-11-.1-.1-.2-.1-.3-.1-.4-.1-.8.1-1.1.4-.3.5-.2 1.1.3 1.4.8.7 3.5 5.8 6.8 12.5l-2.3 11.5c-.7 3.5-.9 7-.8 10.6l1.1 25.6H31.4l1.1-25.6c.2-3.5-.1-7.1-.8-10.6l-1.7-8.7c1.7-8.5 3.4-15.1 4.2-15.9.5-.3.6-.9.3-1.4-.2-.3-.6-.5-.9-.4-.2 0-.3 0-.5.1-1.1.7-2.6 6.1-4.1 12.6-.2.8-.4 1.6-.5 2.4-.2.8-.4 1.7-.5 2.5-1.3 6.1-2.4 12.5-3.1 16.6l-2.6 35.9H7l2.7-38.7c.1-.3 5.2-30.3 6.3-38.7.7-5.3 5.4-7.6 9.8-8.6.7-.2 1.4-.3 2.1-.4 1.9-.3 3.6-.3 4.6-.3H46l5.7 11.5c.2.3.5.6.9.6s.7-.2.9-.6l4.3-8.8.2-.3.1.3 1.1 7.5-4.2 34.9c0 .3.1.7.4.9l8.9 7.4c.2.2.4.2.6.2s.5-.1.6-.2l8.9-7.4c.3-.2.4-.6.4-.9l-4.2-35 1.1-7.5.1-.3.2.3 4.3 8.8c.2.3.5.6.9.6s.7-.2.9-.6l5.7-11.5h13.8v-.1h.2c.9 0 2.4 0 4.1.3l2.1.3c4.5.9 9.5 3.2 10.3 8.7 1.2 8.6 15.9 31.2 16.6 32.2.1.2.3.3.5.4l34.4 14.4-4.2 12.3-1.8 5.4-45.5-17.3zm-17.6 48.2c-5.2-.7-8.9-2.5-11-5.2-1.8-2.3-2-4.8-1.9-5.9v-.6c.1-.5-.3-1.1-.8-1.2-.5-.1-1.1.3-1.2.8 0 .2-.7 4.2 2.2 8.1 2.5 3.3 6.9 5.4 13 6.1v73.2H69.5v-72c0-.6-.4-1-1-1H61c-.6 0-1 .4-1 1v72H32.3v-73.2c6.1-.7 10.5-2.8 13-6.1 2.9-3.8 2.3-7.9 2.2-8.1-.1-.5-.6-.9-1.2-.8-.5.1-.9.6-.8 1.2v.6c0 1.1-.1 3.6-1.9 5.9-2.1 2.8-5.9 4.5-11 5.2h-.4v-16.4h22.6v2.5c0 .6.4 1 1 1h16.7c.6 0 1-.4 1-1v-2.5H97v16.4c0 .1-.2.1-.3 0zm8 91.2c-.6.4-1.3.6-2.1.6H75.9c-2.4.3-4.7-1.3-5-3.8-.4-1.8-.2-7.7-.1-10.8h21.5c.3.1 1.3.4 2.5.9-.1.2-.1.3-.2.5-.9 2.4-2.2 5.6-9.1 5.6-.6 0-1 .4-1 1s.4 1 1 1c8.3 0 10-4.3 11-6.8.1-.2.1-.3.2-.4 3 1.4 6.7 3.6 9.1 7.1 1 1.6.6 4-1.1 5.1zm-47.9-3.1c-.4 2.4-2.6 4-5 3.7H30.1c-1 0-1.7-.3-2.1-1-.8-1.2-.7-3.3.1-5.3.8-1.9 1.9-3.4 3.1-4.6 1.9 2 4.2 3 6.6 3.1h.3c3.8 0 8.1-2.3 12.8-6.9h5.9c.2 3.3.4 9.1 0 11zm-8.7-10.8c-3.8 3.3-7.2 5-10.1 4.9-1.9-.1-3.6-.9-5.2-2.4 2.3-1.7 4.6-2.3 5.1-2.5h10.2zM32.3 188.7h22.6v5.2H32.3v-5.2zm24.6 6.2v-6.2h14.7v8.7H56.9v-2.5zm40.2-1H73.6v-5.2h23.5v5.2zm-79.7 2.4c-.1 1.3.4 3.2 1.4 5.8 1.3 3.1 1.4 5.8.3 7.4-.3.5-.8.9-1.3 1.2v-2c0-.6-.4-1-1-1h-6.6c-.6 0-1 .4-1 1v1.3c-.5-.4-.9-.9-1.1-1.5-.7-1.7-.2-3.8 1.1-5.2 2.2-2.2 3.1-5.4 3.4-7h4.8zm-1.5 17.1v3.3h-4.6v-7h4.6v3.7zM2 238.5h21.8v37.6H2v-37.6zm21.8-2H2v-17.8h21.8v17.8zm25-130.8l2.2-3.6 2.8 2.2 1 .8.8.6.2.2 1.1.8.4.3-.3.7-.3.7-.5 1-.5 1-2.9 6.1-4.4-8.8-.3-.6.3-.4.4-1zm6.2-9.8c-.8-.2-1.7-.4-2.6-.6-7.7-2-12.6-9-14.8-17.1-.1-.3-.2-.7-.3-1-.6-2.3-.9-4.8-1-7.2l.6.6c.3.3.7.6 1 .8.4.3.8.5 1.2.7.3.2.8.1 1.1-.1 2.2-1.8 1.8-4.7 1.5-7-.2-1.3-.4-2.7.1-3.1.3-.3 1-.3 2.1-.2 1.1.2 2.1.5 3 .8 2.3.7 4.5 1.4 7.5-.7.2-.2.4-.4.4-.7 0-.3 0-.5-.2-.7-.8-1.1-.9-2.8-.1-3.7.8-.9 2.7-.7 5 .5 1.6.9 2.9 1.9 4 2.8 2.6 2.1 5.1 4.1 8.7.9.3-.2.4-.6.3-.9-.4-2.5.2-3.9 1.9-4.2 3.1-.5 8.8 3 9.7 8.1.1.7.5.9.8 1 .8.3 1.5-.2 2.4-.8.7-.5 1.8-1.2 2.4-1.1.2.1.4.3.6.6 1.3 2.6.7 8.2.3 10.2-.1.4.1.7.3.9l.1.1c.2.1.4.2.6.2.1 0 .2 0 .3-.1.1 0 .1 0 .2-.1.3-.2.7-.4 1-.6-.1.9-.3 1.8-.5 2.6-.1.3-.2.7-.2 1-.1.3-.2.6-.3 1-2.3 7.7-7.1 14.3-14.6 16.3-1 .2-1.8.5-2.6.6-.5.1-.8.5-.8 1v6.4l-3.1 2.4H59l-3.1-2.4v-6.4c-.1-.3-.5-.7-.9-.8zM31.8 75.8c-1.4-1.4-1.9-3.8-1.1-5.5.6-1.3 1.8-2.1 3.5-2.3 0 2.9.3 5.9 1 8.8-1.3.2-2.4-.1-3.4-1zm33.4-49.7c14.2 0 23.7 4.7 30.7 15.1 4.9 7.2 2.7 20 .9 25.5-.1.3-.2.7-.3.9-.1.4-.3.7-.4.9-.1.2-.2.4-.3.5-.1.2-.3.3-.4.5-.3.4-.7.8-1.1 1.1-.3.3-.7.6-1.1.9-.2.1-.3.3-.5.4.2-1.3.3-3.1.2-4.9 0-.3 0-.7-.1-1-.1-1.3-.4-2.5-.9-3.4-.5-.9-1.1-1.4-1.9-1.6-.2-.1-.4-.1-.7-.1-1.2 0-2.5.8-3.4 1.4-.1.1-.2.1-.3.2-1.5-5.6-7.7-9.6-11.8-8.9-1 .2-4.1 1.1-3.6 5.9-1.9 1.6-3 .9-5.7-1.3-1.2-1-2.6-2-4.3-3-4.5-2.4-6.6-1.1-7.5-.1-1.2 1.3-1.3 3.5-.5 5.2-1.8 1-3 .6-5 0-.9-.3-2-.6-3.3-.9-1.8-.3-3-.1-3.8.7-1.2 1.1-.9 2.9-.7 4.8.2 1.7.5 3.5-.3 4.7-.5-.3-1-.8-1.5-1.3-.4-.4-.7-.8-1.1-1.3-.1-.2-.2-.3-.3-.5-.1-.1-.1-.2-.2-.3-.2-.2-.3-.5-.5-.7-.2-.3-.3-.6-.5-.9-.4-.8-.8-1.6-1.1-2.5-.4-1-.7-2.1-1-3.2-1.9-7.1-1.4-14.2 1.3-18.1 7.6-9.9 17.3-14.7 31-14.7zm32.6 50.7c-1 .8-2.2 1.1-3.5.8.4-1.6.7-3.3.9-4.9.8-.7 1.6-1.5 2.3-2.3.2-.2.3-.5.5-.9.7.5 1.3 1.2 1.5 2 .6 1.8-.1 4-1.7 5.3zm-16.4 29.9l.3.4-.3.6-4.4 8.8-2.9-6.1-.5-1-.5-1-.3-.7-.3-.7.4-.3 1.1-.8.2-.2.8-.6 1-.8 2.8-2.2 2.2 3.6.4 1zm-11.8 3.6l-1 6.5H61l-1-6.5-.2-1-.2-1-.1-.7H70l-.1.7-.2 1-.1 1zm-8.6 8.6h7.6l4.1 33.7-7.9 6.6-7.9-6.6 4.1-33.7zm136.6 54.7s-.1.1-.2.1l-8.7 6.3c-1.3.8-2.8 1.2-4.3 1.2h-10c-2 0-4-.6-5.8-1.7-.7-.5-1-.9-1-1.1 0-.4-.2-.8-.5-1-.1 0-.1-.1-.2-.1l-3.3-1.4 1.8-5.3 6 2.6c.3.1.6.1.9 0 1.4-.7 2.9-1.1 4.4-1.1 1.5 0 2.4.3 3.6.8.7.2 1.4.5 2.4.8 1.2.3 2.4.3 3.5 0 .9-.2 1.9 0 2.7.5l-2 1.4c-1.3.1-7.1.3-12.8.2-.5 0-1 .4-1 1s.4 1 1 1c6.6.2 13.2-.2 13.3-.2.2 0 .4-.1.5-.2l8.7-5.9c.5-.3 1.2-.1 1.5.4.1.5 0 1.3-.5 1.7zM169.9 65.2c0 7.6 6.1 13.8 13.7 13.8s13.7-6.1 13.7-13.7c0-7.5-6.2-13.6-13.7-13.6-7.5-.2-13.6 6-13.7 13.5zm9.2-10.7c-.8 1.1-1.4 2.6-1.9 4.2-.9-.3-1.7-.6-2.4-1 1.1-1.4 2.6-2.5 4.3-3.2zm13.5 3.2c-.7.4-1.5.7-2.4 1-.5-1.6-1.1-3.1-1.9-4.2 1.6.7 3.1 1.8 4.3 3.2zm2.7 6.5H191c0-1.2-.2-2.4-.4-3.5 1.2-.4 2.2-.8 3.1-1.3.9 1.4 1.4 3 1.6 4.8zm-1.6 7c-.9-.5-2-1-3.1-1.3.2-1.1.3-2.4.4-3.6h4.3c-.1 1.7-.7 3.4-1.6 4.9zm-5.5 4.8c.8-1.1 1.4-2.6 1.9-4.2.9.3 1.7.6 2.4 1-1.1 1.4-2.6 2.5-4.3 3.2zm-13.5-3.2c.7-.4 1.5-.7 2.4-1 .5 1.6 1.1 3.1 1.9 4.2-1.6-.7-3.1-1.8-4.3-3.2zm-2.7-6.6h4.3c0 1.3.2 2.5.4 3.6-1.2.4-2.2.8-3.1 1.3-.9-1.4-1.5-3.1-1.6-4.9zm1.6-6.9c.9.5 2 1 3.1 1.3-.2 1.1-.3 2.3-.4 3.5H172c.2-1.7.7-3.3 1.6-4.8zm10-5.8c1.7 0 3.5 2.2 4.5 5.7-1.4.3-3 .4-4.5.4-1.6 0-3.1-.2-4.5-.4 1-3.5 2.8-5.7 4.5-5.7zm0 23.4c-1.7 0-3.5-2.2-4.5-5.7 1.4-.3 3-.4 4.5-.4 1.6 0 3.1.2 4.5.4-.9 3.6-2.8 5.7-4.5 5.7zm-4.9-15.7c1.6.3 3.2.5 5 .5 1.7 0 3.4-.2 5-.5.2 1 .3 2 .3 3h-10.6c0-1.1.1-2.1.3-3zm9.9 8.1c-1.6-.3-3.2-.5-5-.5-1.7 0-3.4.2-5 .5-.2-1-.3-2-.3-3.1h10.6c0 1.1-.1 2.2-.3 3.1zm53.1-26h-7.3V36c0-.6-.4-1-1-1s-1 .4-1 1v7.3h-7.3c-.6 0-1 .4-1 1s.4 1 1 1h7.3v7.3c0 .6.4 1 1 1s1-.4 1-1v-7.3h7.3c.6 0 1-.4 1-1s-.4-1-1-1zm-105.9 5.2c0 .6.4 1 1 1h16.6c.6 0 1-.4 1-1s-.4-1-1-1h-16.6c-.5 0-1 .4-1 1z"/><path class="st0" d="M150.8 100c-.2.2-.4.5-.4.8v37.4c0 .4.3.8.7 1 1.6.5 3.2.7 4.8.7 3.7 0 7.1-1.1 10.3-2.2 5.6-1.9 10-3.4 14.7 1.3.2.2.4.3.7.3h.2c.2 0 .5-.1.7-.3 4.6-4.6 9.1-3.2 14.7-1.3 3.1 1 6.5 2.2 10.3 2.2 1.5 0 3.1-.2 4.8-.7.4-.1.7-.5.7-1v-37.4c0-.3-.1-.6-.4-.8-.2-.2-.6-.3-.9-.2-5 1.3-9.7-.4-14.3-2.1-5.8-2.2-11.2-4.2-15.6 1.4-4.4-5.6-9.9-3.6-15.6-1.4-4.5 1.7-9.2 3.4-14.3 2.1-.5-.1-.8 0-1.1.2zm31.8 1.1c3.6-5.4 7.9-3.8 13.9-1.5 4.3 1.6 9 3.4 14.2 2.5v35.4c-4.7 1.1-9-.3-13.1-1.7-2.8-.9-5.6-1.9-8.4-1.9-2.2 0-4.4.6-6.6 2.2v-35zm-30.2.9c5.2.9 10-.9 14.2-2.5 6-2.2 10.3-3.8 13.9 1.5v35c-5-3.7-10.1-1.9-15-.3-4.1 1.4-8.4 2.8-13.1 1.7V102z"/><path class="st0" d="M217 100.1c-.6 0-1 .4-1 1v42c-6.8 1.7-12.3-.1-17.2-1.7-5.8-1.9-11.3-3.6-17.1 1.1-5.8-4.8-11.3-3-17.1-1.1-4.9 1.6-10.4 3.3-17.2 1.7v-42c0-.6-.4-1-1-1s-1 .4-1 1v42.8c0 .4.3.8.7 1 7.7 2.1 13.8.2 19.1-1.5 6-1.9 10.7-3.4 15.8 1.3.4.3 1 .3 1.3 0 5.2-4.7 9.9-3.2 15.8-1.3 3.7 1.2 7.7 2.5 12.3 2.5 2.1 0 4.4-.3 6.8-.9.4-.1.7-.5.7-1v-42.8c.1-.7-.4-1.1-.9-1.1zm11.3-14.8c0-.6-.4-1-1-1H221v-2h1.4c5.9 0 9-3.3 9-6.6 0-2-1-6.5-9.8-6.5h-1.7c-.6 0-1 .4-1 1v10h-1c-.6 0-1 .4-1 1s.4 1 1 1h1v2.1h-.9c-.6 0-1 .4-1 1s.4 1 1 1h.9v2.4c0 .6.4 1 1 1s1-.4 1-1v-2.4h6.3c.6 0 1.1-.4 1.1-1zm-7.4-14.1h.7c5 0 7.8 1.6 7.8 4.5 0 2.3-2.4 4.6-7 4.6H221v-9.1zm-63.1-46.1l3 .1 6.9 11.3c.2.3.5.5.9.5h.1c.4 0 .7-.3.8-.7l6.1-19.9 5.9.3c.6 0 1-.4 1-1s-.4-1-1-1l-6.7-.3c-.4 0-.9.3-1 .7l-5.7 18.5-6-9.8c-.2-.3-.5-.5-.8-.5l-3.5-.1c-.5 0-1 .4-1 1s.4.9 1 .9zm45.3 16.6c3.3 0 5.3-2.2 5.3-6V25.4c0-1.8.6-4 3.3-4 .6 0 1-.4 1-1s-.4-1-1-1c-3.3 0-5.3 2.2-5.3 6v10.3c0 1.8-.6 4-3.3 4-.6 0-1 .4-1 1s.5 1 1 1zm-67.2 41.8c.2.4.5.6.9.6h9.6c.6 0 1-.4 1-1s-.4-1-1-1H139l5-5.8c.3-.4.3-.9 0-1.3l-4.8-5.8h7.2c.6 0 1-.4 1-1s-.4-1-1-1h-9.3c-.4 0-.7.2-.9.6-.2.4-.1.8.1 1.1l5.6 6.8-5.8 6.8c-.3.2-.4.7-.2 1zM75.5 71.2c.6 0 1-.4 1-1v-1.9c0-.6-.4-1-1-1s-1 .4-1 1v1.9c0 .6.5 1 1 1zm-21.4-3.8c-.6 0-1 .4-1 1v1.9c0 .6.4 1 1 1s1-.4 1-1v-1.9c0-.6-.4-1-1-1z"/></svg>