<svg xmlns="http://www.w3.org/2000/svg" width="242.73" height="306.177" viewBox="0 0 242.73 306.177"><g transform="translate(-1079 -12621)"><g transform="translate(1105.462 12808.742)"><g transform="translate(43.115 100.857)"><path d="M4488.044,4333.3s9.519,2.341,14.157,9.165a4.732,4.732,0,0,1-3.9,7.394h-26.576a5.482,5.482,0,0,1-6.162-4.551c-.607-2.658-.071-12.006-.071-12.006Z" transform="translate(-4465.269 -4333.299)" fill="#fff" stroke="#0073ff" stroke-linecap="round" stroke-linejoin="round" stroke-width="2"/><path d="M4490.344,4335.257c-.989,2.352-2.022,6.813-10.283,6.813" transform="translate(-4464.171 -4333.154)" fill="none" stroke="#0073ff" stroke-linecap="round" stroke-linejoin="round" stroke-width="2"/></g><g transform="translate(0 100.857)"><path d="M4436.449,4333.3s-7.633,1.646-10.606,8.916c-1.437,3.515-.823,7.643,2.973,7.643h21.454a5.481,5.481,0,0,0,6.161-4.551c.608-2.658.072-12.006.072-12.006Z" transform="translate(-4425.13 -4333.299)" fill="#fff" stroke="#0073ff" stroke-linecap="round" stroke-linejoin="round" stroke-width="2"/><path d="M4429.754,4336.771c4.194,4.816,10.413,5.208,19.188-3.471" transform="translate(-4424.787 -4333.299)" fill="none" stroke="#0073ff" stroke-linecap="round" stroke-linejoin="round" stroke-width="2"/></g><path d="M4429.654,4239.4v100.856h29.622V4267.3h7.534v72.961h29.621V4239.4Z" transform="translate(-4424.794 -4239.405)" fill="#fff" stroke="#0073ff" stroke-linecap="round" stroke-linejoin="round" stroke-width="2"/><path d="M4444.94,4251.167s1.991,11.485-15.283,13.144" transform="translate(-4424.794 -4238.533)" fill="#fff" stroke="#0073ff" stroke-linecap="round" stroke-linejoin="round" stroke-width="2"/><path d="M4477.593,4251.167s-1.992,11.485,15.282,13.144" transform="translate(-4421.245 -4238.533)" fill="#fff" stroke="#0073ff" stroke-linecap="round" stroke-linejoin="round" stroke-width="2"/></g><g transform="translate(1274.107 12622.35)" fill="#fff" stroke="#0073ff" stroke-linecap="round" stroke-linejoin="round" stroke-width="2"><circle cx="1.578" cy="1.578" r="1.578" stroke="none"/><circle cx="1.578" cy="1.578" r="0.578" fill="none"/></g><g transform="translate(1289.167 12671.963)" fill="#fff" stroke="#0073ff" stroke-linecap="round" stroke-linejoin="round" stroke-width="2"><circle cx="1.578" cy="1.578" r="1.578" stroke="none"/><circle cx="1.578" cy="1.578" r="0.578" fill="none"/></g><g transform="translate(1212.763 12639.659)"><g transform="translate(0.801)"><line x2="1.184" y2="1.606" fill="#fff" stroke="#0073ff" stroke-linecap="round" stroke-linejoin="round" stroke-width="2"/><line x2="1.184" y2="1.606" transform="translate(3.318 4.498)" stroke-width="2" stroke="#0073ff" stroke-linecap="round" stroke-linejoin="round" fill="#fff"/></g><g transform="translate(0 0.801)"><line y1="1.184" x2="1.606" transform="translate(0 3.317)" stroke-width="2" stroke="#0073ff" stroke-linecap="round" stroke-linejoin="round" fill="#fff"/><line y1="1.184" x2="1.606" transform="translate(4.498)" stroke-width="2" stroke="#0073ff" stroke-linecap="round" stroke-linejoin="round" fill="#fff"/></g></g><path d="M4522.083,4065.555l-1.078,3.46-3.193-.995" transform="translate(-3312.795 8556.445)" fill="none" stroke="#0073ff" stroke-linecap="round" stroke-linejoin="round" stroke-width="2"/><path d="M4617.213,4160.94l-3.557-.694-.642,3.282" transform="translate(-3305.734 8563.467)" fill="none" stroke="#0073ff" stroke-linecap="round" stroke-linejoin="round" stroke-width="2"/><path d="M4518.246,4166.365l1.316-3.376-3.117-1.215" transform="translate(-3312.896 8563.581)" fill="none" stroke="#0073ff" stroke-linecap="round" stroke-linejoin="round" stroke-width="2"/><g transform="translate(1102.86 12646.103)"><path d="M4487.067,4127.176c13.463,0,7.4,16.182-1.812,10.183C4486.671,4133.751,4486.291,4131.033,4487.067,4127.176Z" transform="translate(-4418.069 -4085.087)" fill="#fff" stroke="#0073ff" stroke-linecap="round" stroke-linejoin="round" stroke-width="2"/><path d="M4435.192,4126.913c-11.775-1.2-7.908,14.595.679,10.168C4434.954,4133.8,4435.529,4130.355,4435.192,4126.913Z" transform="translate(-4422.33 -4085.111)" fill="#fff" stroke="#0073ff" stroke-linecap="round" stroke-linejoin="round" stroke-width="2"/><path d="M4433.393,4126.736a17.692,17.692,0,0,1-.113-2c0-5.519,2.328-12.453,6.232-16.444a19.513,19.513,0,0,1,12.076-7.259,34.3,34.3,0,0,1,10.262-1.564c.345,0,.69.011,1.036.02.345-.009.691-.02,1.037-.02,3.616,0,7.07,1.815,10.261,2.815,5.093.889,9.11,2.3,12.076,6.008,3.905,3.991,6.232,10.925,6.232,16.444a17.579,17.579,0,0,1-.113,2c1.1,13.016-4.529,28.308-16.768,31.512-.972.252-1.834.465-2.661.646v12.494h-20.128v-12.494c-.826-.181-1.689-.395-2.661-.646C4437.923,4155.043,4432.292,4139.752,4433.393,4126.736Z" transform="translate(-4421.926 -4087.143)" fill="#fff" stroke="#0073ff" stroke-linecap="round" stroke-linejoin="round" stroke-width="2"/><path d="M4452.746,4125.956v0Z" transform="translate(-4420.48 -4085.178)" fill="#fff" stroke="#0073ff" stroke-linecap="round" stroke-linejoin="round" stroke-width="2"/><path d="M4472.712,4125.956v0Z" transform="translate(-4419 -4085.178)" fill="#fff" stroke="#0073ff" stroke-linecap="round" stroke-linejoin="round" stroke-width="2"/><path d="M4453.959,4144.025s5.9,2.941,15.166.568" transform="translate(-4420.391 -4083.838)" fill="#fff" stroke="#0073ff" stroke-linecap="round" stroke-linejoin="round" stroke-width="2"/><path d="M4495.166,4103.569c6.227,9.2,1.723,26.52-.188,29.1a17.464,17.464,0,0,1-5.19,4.3s1.417-7.384-.39-10.834-5.821,2.123-6.115.5c-1.559-8.605-15.146-13.282-13.546-3.607-4.219,3.822-6.081-.828-11.508-3.785-6.863-3.741-8.171,1.833-6.193,4.589-3.723,2.636-5.631.443-9.769-.234-7.11-1.164-.482,7.24-4.438,10.5-6.929-3.261-11.614-22.246-5.794-30.531,5.932-8.444,14.948-15.577,31.565-15.577S4488.938,4094.365,4495.166,4103.569Z" transform="translate(-4422.211 -4087.993)" fill="#fff" stroke="#0073ff" stroke-linecap="round" stroke-linejoin="round" stroke-width="2"/><path d="M4431.261,4163.911h64.818a8.481,8.481,0,0,1,8.49,9.406c-.02.154-.041.292-.063.414l-6.822,34.322a41.91,41.91,0,0,0-.75,10.317L4498.1,4245h-68.861l1.167-26.632a41.958,41.958,0,0,0-.751-10.317l-6.822-34.322c-.022-.122-.044-.26-.062-.414A8.48,8.48,0,0,1,4431.261,4163.911Z" transform="translate(-4422.708 -4082.363)" fill="#fff" stroke="#0073ff" stroke-linecap="round" stroke-linejoin="round" stroke-width="2"/><g transform="translate(22.955 75.499)"><g transform="translate(9.079 6.049)"><path d="M4456.618,4175.113h9.326l1.7-11.2H4454.92Z" transform="translate(-4452.354 -4163.911)" fill="#fff" stroke="#0073ff" stroke-linecap="round" stroke-linejoin="round" stroke-width="2"/><path d="M4456.8,4174.34h9.326l4.264,35.093-8.927,7.442-8.927-7.442Z" transform="translate(-4452.531 -4163.138)" fill="#fff" stroke="#0073ff" stroke-linecap="round" stroke-linejoin="round" stroke-width="2"/></g><path d="M4444.078,4164.691l5.823,11.734,5.823-12.1-7.744-6.049Z" transform="translate(-4444.078 -4158.279)" fill="#fff" stroke="#0073ff" stroke-linecap="round" stroke-linejoin="round" stroke-width="2"/><path d="M4478.409,4164.691l-5.823,11.734-5.822-12.1,7.743-6.049Z" transform="translate(-4442.396 -4158.279)" fill="#fff" stroke="#0073ff" stroke-linecap="round" stroke-linejoin="round" stroke-width="2"/></g></g><path d="M4491.652,4163.911c5.877,0,16.276,1.654,17.436,10.163,1.15,8.434,16.419,31.746,16.419,31.746l35.217,14.747-6.7,19.6-46.482-18.067s-17.371-37.628-19.658-39.075" transform="translate(-3315.014 8563.739)" fill="#fff" stroke="#0073ff" stroke-linecap="round" stroke-linejoin="round" stroke-width="2"/><path d="M4432.5,4163.911c-5.877,0-16.275,1.654-17.436,10.163-1.15,8.434-6.3,38.648-6.3,38.648L4406,4252.6h17.322l2.683-36.828s5.478-31.919,7.765-33.366" transform="translate(-3321.087 8563.739)" fill="#fff" stroke="#0073ff" stroke-linecap="round" stroke-linejoin="round" stroke-width="2"/><line x1="24.821" transform="translate(1151.595 12815.938)" stroke-width="2" stroke="#0073ff" stroke-linecap="round" stroke-linejoin="round" fill="#fff"/><line x1="24.821" transform="translate(1110.074 12815.938)" stroke-width="2" stroke="#0073ff" stroke-linecap="round" stroke-linejoin="round" fill="#fff"/><rect width="16.7" height="10.709" transform="translate(1151.595 12819.453) rotate(180)" stroke-width="2" stroke="#0073ff" stroke-linecap="round" stroke-linejoin="round" fill="#fff"/><path d="M4418.942,4246.472s-1.581.525.877,6.393,1.119,10.724-5.439,10.724c-8.521,0-8.738-6.843-5.807-9.819,2.68-2.721,3.289-7.3,3.289-7.3Z" transform="translate(-3321.022 8569.862)" fill="#fff" stroke="#0073ff" stroke-linecap="round" stroke-linejoin="round" stroke-width="2"/><rect width="23.786" height="59.446" transform="translate(1103.786 12898.143) rotate(180)" stroke-width="2" stroke="#0073ff" stroke-linecap="round" stroke-linejoin="round" fill="#fff"/><rect width="6.57" height="9.006" transform="translate(1095.881 12838.697) rotate(180)" stroke-width="2" stroke="#0073ff" stroke-linecap="round" stroke-linejoin="round" fill="#fff"/><line x1="22.86" transform="translate(1080 12858.547)" stroke-width="2" stroke="#0073ff" stroke-linecap="round" stroke-linejoin="round" fill="#fff"/><line y2="6.583" transform="translate(1092.596 12879.264)" stroke-width="2" stroke="#0073ff" stroke-linecap="round" stroke-linejoin="round" fill="#fff"/><g transform="translate(1241.182 12790.376)"><path d="M4563.167,4229.628c6.625.152,13.184-.177,13.184-.177l8.718-5.944a2.24,2.24,0,0,1,2.87.654h0a2.238,2.238,0,0,1-.689,3.252l-8.819,6.356a9.65,9.65,0,0,1-4.837,1.3h-10.038a11.529,11.529,0,0,1-6.307-1.873c-1.9-1.242-1.372-2.113-1.5-2.015l-4.272-1.774" transform="translate(-4551.48 -4222.237)" fill="none" stroke="#0073ff" stroke-linecap="round" stroke-linejoin="round" stroke-width="2"/><path d="M4579.5,4227.26l-.255-.265a4.547,4.547,0,0,0-4.278-1.309,6.4,6.4,0,0,1-3.064.019c-2.585-.693-3.589-1.593-6.232-1.593a11.262,11.262,0,0,0-4.87,1.229l-7.034-3.034" transform="translate(-4551.311 -4222.306)" fill="none" stroke="#0073ff" stroke-linecap="round" stroke-linejoin="round" stroke-width="2"/></g><g transform="translate(1249.943 12673.541)"><circle cx="12.702" cy="12.702" r="12.702" fill="#fff" stroke="#0073ff" stroke-linecap="round" stroke-linejoin="round" stroke-width="2"/><path d="M4571.9,4138.941c-3.507,0-6.351-5.687-6.351-12.7s2.843-12.7,6.351-12.7" transform="translate(-4559.197 -4113.538)" fill="#fff" stroke="#0073ff" stroke-linecap="round" stroke-linejoin="round" stroke-width="2"/><path d="M4571.46,4138.941c3.508,0,6.352-5.687,6.352-12.7s-2.843-12.7-6.352-12.7" transform="translate(-4558.759 -4113.538)" fill="#fff" stroke="#0073ff" stroke-linecap="round" stroke-linejoin="round" stroke-width="2"/><g transform="translate(0 5.417)"><path d="M4582.547,4132.328c-2.3-1.623-6.088-2.683-10.371-2.683s-8.069,1.059-10.37,2.682" transform="translate(-4559.475 -4117.759)" fill="none" stroke="#0073ff" stroke-linecap="round" stroke-linejoin="round" stroke-width="2"/><path d="M4582.547,4118.58c-2.3,1.624-6.088,2.685-10.371,2.685s-8.069-1.061-10.37-2.683" transform="translate(-4559.475 -4118.58)" fill="none" stroke="#0073ff" stroke-linecap="round" stroke-linejoin="round" stroke-width="2"/><line x1="25.404" transform="translate(0 7.239)" stroke-width="2" stroke="#0073ff" stroke-linecap="round" stroke-linejoin="round" fill="#fff"/></g></g><g transform="translate(1304.16 12656.971)"><line y2="16.571" transform="translate(8.285)" stroke-width="2" stroke="#0073ff" stroke-linecap="round" stroke-linejoin="round" fill="#fff"/><line x2="16.571" transform="translate(0 8.285)" stroke-width="2" stroke="#0073ff" stroke-linecap="round" stroke-linejoin="round" fill="#fff"/></g><g transform="translate(1215.814 12669.451)"><line x2="16.571" fill="#fff" stroke="#0073ff" stroke-linecap="round" stroke-linejoin="round" stroke-width="2"/></g><g transform="translate(1225.256 12717.458)"><path d="M4571.58,4196.158c-9.095-9.094-18.053,3.5-30.122,0V4158.72c12.423,3.234,22.947-11.119,30.122,0Z" transform="translate(-4536.297 -4154.423)" fill="none" stroke="#0073ff" stroke-linecap="round" stroke-linejoin="round" stroke-width="2"/><path d="M4569.579,4196.158c9.095-9.094,18.054,3.5,30.122,0V4158.72c-12.423,3.234-22.947-11.119-30.122,0Z" transform="translate(-4534.212 -4154.423)" fill="none" stroke="#0073ff" stroke-linecap="round" stroke-linejoin="round" stroke-width="2"/><path d="M4536.654,4158.717v42.8c16.01,4.459,24.906-9.479,35.366,0,10.46-9.479,19.356,4.459,35.367,0v-42.8" transform="translate(-4536.654 -4154.104)" fill="none" stroke="#0073ff" stroke-linecap="round" stroke-linejoin="round" stroke-width="2"/></g><g transform="translate(1296.928 12691.238)"><g transform="translate(2.011)"><path d="M4605.249,4141.1v-11.077c.506,0,1.314-.006,1.674-.006,6.6,0,8.767,2.652,8.767,5.541,0,2.987-3,5.614-8.024,5.614-.465,0-1.643,0-2.417-.072v7.376" transform="translate(-4605.249 -4130.012)" fill="none" stroke="#0073ff" stroke-linecap="round" stroke-linejoin="round" stroke-width="2"/></g><path d="M4603.489,4144.072h9.211" transform="translate(-4603.369 -4128.97)" fill="none" stroke="#0073ff" stroke-linecap="round" stroke-linejoin="round" stroke-width="2"/><path d="M4603.377,4140.269h1.892" transform="translate(-4603.377 -4129.251)" fill="none" stroke="#0073ff" stroke-linecap="round" stroke-linejoin="round" stroke-width="2"/></g><g transform="translate(1236.798 12636.321)"><path d="M4571.139,4079.169l-6.72-.283-6.343,20.648-7.146-11.708-3.53-.148" transform="translate(-4547.399 -4078.887)" fill="none" stroke="#0073ff" stroke-linecap="round" stroke-linejoin="round" stroke-width="2"/></g><g transform="translate(1282.122 12641.408)"><path d="M4589.593,4103.876c2.629,0,4.312-1.683,4.312-4.97v-10.314c0-3.287,1.682-4.969,4.312-4.969" transform="translate(-4589.593 -4083.623)" fill="none" stroke="#0073ff" stroke-linecap="round" stroke-linejoin="round" stroke-width="2"/></g><g transform="translate(1215.814 12689.28)"><path d="M4537.471,4128.19h-9.338l6.136,7.413-6.4,7.414h9.606" transform="translate(-4527.864 -4128.19)" fill="none" stroke="#0073ff" stroke-linecap="round" stroke-linejoin="round" stroke-width="2"/></g></g></svg>