<?xml version="1.0" encoding="utf-8"?>
<!-- Generator: Adobe Illustrator 23.0.2, SVG Export Plug-In . SVG Version: 6.00 Build 0)  -->
<svg version="1.1" id="Layer_1" xmlns="http://www.w3.org/2000/svg" xmlns:xlink="http://www.w3.org/1999/xlink" x="0px" y="0px"
	 viewBox="0 0 242.7 306.2" style="enable-background:new 0 0 242.7 306.2;" xml:space="preserve">
<style type="text/css">
	.st0{fill:#0073FF;}
</style>
<path class="st0" d="M196.4,4.5c0.1,0,0.2,0,0.3,0c0,0,0,0,0,0c0.9,0,1.5-0.7,1.5-1.6c0-0.8-0.5-1.4-1.3-1.5c-0.1,0-0.2,0-0.3,0
	c-0.2,0-0.4,0-0.6,0.1c-0.6,0.2-1,0.8-1,1.5C195.1,3.7,195.6,4.3,196.4,4.5z M197.1,2.9c0,0.2-0.2,0.4-0.4,0.4
	c-0.2,0-0.4-0.2-0.4-0.4s0.2-0.4,0.4-0.4C196.9,2.5,197.1,2.7,197.1,2.9z"/>
<path class="st0" d="M211.7,51c-0.1,0-0.2,0-0.3,0c-0.7,0.2-1.2,0.8-1.2,1.5c0,0,0,0,0,0c0,0.8,0.6,1.5,1.4,1.6c0,0,0.1,0,0.1,0
	c0.1,0,0.2,0,0.2,0c0.6-0.1,1.2-0.6,1.3-1.2c0-0.1,0-0.2,0-0.4c0-0.2,0-0.3-0.1-0.5c-0.2-0.5-0.5-0.9-1-1
	C212.1,51,211.9,51,211.7,51z M211.7,53c-0.2,0-0.4-0.2-0.4-0.4s0.2-0.4,0.4-0.4s0.4,0.2,0.4,0.4S212,53,211.7,53z"/>
<path class="st0" d="M134.9,20.9c0.2,0.3,0.5,0.4,0.8,0.4c0.2,0,0.4-0.1,0.6-0.2c0.4-0.3,0.5-1,0.2-1.4l-1.2-1.6
	c-0.3-0.4-1-0.5-1.4-0.2s-0.5,1-0.2,1.4L134.9,20.9z"/>
<path class="st0" d="M138.3,25.4c0.2,0.3,0.5,0.4,0.8,0.4c0.2,0,0.4-0.1,0.6-0.2c0.4-0.3,0.5-1,0.2-1.4l-1.2-1.6
	c-0.3-0.4-1-0.5-1.4-0.2c-0.4,0.3-0.5,1-0.2,1.4L138.3,25.4z"/>
<path class="st0" d="M133.8,25c0.2,0,0.4-0.1,0.6-0.2l1.6-1.2c0.4-0.3,0.5-1,0.2-1.4c-0.3-0.4-1-0.5-1.4-0.2l-1.6,1.2
	c-0.4,0.3-0.5,1-0.2,1.4C133.2,24.8,133.5,25,133.8,25z"/>
<path class="st0" d="M138.3,21.6c0.2,0,0.4-0.1,0.6-0.2l1.6-1.2c0.4-0.3,0.5-1,0.2-1.4c-0.3-0.4-1-0.5-1.4-0.2l-1.6,1.2
	c-0.4,0.3-0.5,1-0.2,1.4C137.7,21.5,138,21.6,138.3,21.6z"/>
<path class="st0" d="M125.7,4.4l3.2,1c0.1,0,0.2,0,0.3,0c0.2,0,0.3,0,0.5-0.1c0.2-0.1,0.4-0.3,0.5-0.6l1.1-3.5
	c0.2-0.5-0.1-1.1-0.7-1.3c-0.5-0.2-1.1,0.1-1.3,0.7l-0.8,2.5l-2.2-0.7c-0.5-0.2-1.1,0.1-1.3,0.7C124.9,3.7,125.2,4.3,125.7,4.4z"/>
<path class="st0" d="M232.7,102.4l-3.6-0.7c-0.5-0.1-1.1,0.2-1.2,0.8l-0.6,3.3c-0.1,0.5,0.2,1.1,0.8,1.2c0.1,0,0.1,0,0.2,0
	c0.5,0,0.9-0.3,1-0.8l0.5-2.3l2.6,0.5c0.5,0.1,1.1-0.2,1.2-0.8S233.2,102.5,232.7,102.4z"/>
<path class="st0" d="M124.2,105.3l2.2,0.9l-1,2.4c-0.2,0.5,0.1,1.1,0.6,1.3c0.1,0,0.2,0.1,0.4,0.1c0.4,0,0.8-0.2,0.9-0.6l1.3-3.4
	c0.1-0.2,0.1-0.5,0-0.8c-0.1-0.2-0.3-0.4-0.6-0.5l-3.1-1.2c-0.5-0.2-1.1,0.1-1.3,0.6C123.4,104.5,123.7,105.1,124.2,105.3z"/>
<path class="st0" d="M57,86.2c0.2,0.1,3.3,1.6,8.5,1.6c2.1,0,4.6-0.3,7.4-1c0.5-0.1,0.9-0.7,0.7-1.2s-0.7-0.9-1.2-0.7
	c-1.6,0.4-3.2,0.7-4.6,0.8c-2.5,0.2-4.6,0-6.2-0.2c-2.3-0.4-3.7-1-3.7-1.1c-0.5-0.2-1.1,0-1.3,0.4C56.3,85.3,56.5,85.9,57,86.2z"/>
<path class="st0" d="M13.6,257.3c-0.6,0-1,0.4-1,1v6.6c0,0.6,0.4,1,1,1s1-0.4,1-1v-6.6C14.6,257.7,14.1,257.3,13.6,257.3z"/>
<path class="st0" d="M195.3,169.8C195.3,169.8,195.2,169.8,195.3,169.8l-4.8,3.3c-1.3-1.2-3.1-1.6-4.9-1.3c-0.8,0.2-1.7,0.2-2.6,0
	c-0.8-0.2-1.5-0.5-2.2-0.7c-1.2-0.5-2.4-0.9-4.4-0.9c0,0,0,0,0,0c-1.7,0-3.3,0.4-4.9,1.1l-5.8-2.5l1.8-5.2c0.2-0.5-0.1-1-0.6-1.2
	l-34.9-14.6c-1.7-2.6-15.1-23.4-16.1-31.1c-1.4-10.2-14.5-11-18.4-11c0,0-0.1,0-0.1,0c-0.1,0-0.2,0-0.3,0H83.2l-3.4-5.6
	c-0.1-0.2-0.4-0.4-0.7-0.5c-0.3-0.1-0.6,0-0.8,0.2l-2.4,1.9v-4.1c0.6-0.1,1.2-0.3,1.9-0.5c8.1-2.1,13.4-9.3,15.9-17.6
	c0.5,0.1,0.9,0.1,1.3,0.1c1.4,0,2.8-0.4,3.9-1.3c2.3-1.8,3.3-4.9,2.4-7.5c-0.3-0.8-1-2.2-2.7-3.2c2.1-6.1,4.3-19.6-1.1-27.5
	c-7.5-11.1-17.5-16-32.4-16c-14.4,0-24.7,5.1-32.4,16c-3.7,5.2-3.2,13.6-1.6,19.7c0.6,2.3,1.4,4.4,2.3,6.2c-2.2,0.4-3.8,1.6-4.7,3.4
	c-1.2,2.5-0.5,5.8,1.6,7.8c1.1,1.1,2.5,1.6,4,1.6c0.4,0,0.8-0.1,1.2-0.1c2.4,8.7,7.8,16.2,16.2,18.4c0.7,0.2,1.3,0.3,1.9,0.5v4.1
	l-2.4-1.9c-0.2-0.2-0.5-0.2-0.8-0.2c-0.3,0.1-0.5,0.2-0.7,0.5l-3.4,5.6H32.4c0,0,0,0,0,0c-4,0-17,0.8-18.4,11
	c-1.1,8.3-6.2,38.3-6.3,38.7l-2.8,39.9c0,0.3,0.1,0.5,0.3,0.8c0.2,0.2,0.5,0.3,0.7,0.3h4.7c-0.3,1.4-1.1,3.9-2.8,5.6
	c-1.9,1.9-2.5,4.9-1.5,7.3c0.4,0.9,1.2,2.2,3,3.1v4.3H1c-0.6,0-1,0.4-1,1v19.8v39.6c0,0.6,0.4,1,1,1h23.8c0.6,0,1-0.4,1-1v-59.4
	c0-0.6-0.4-1-1-1h-6.9v-3.8c1.5-0.6,2.5-1.5,3-2.3c1.5-2.2,1.4-5.5-0.2-9.3c-1.3-3.2-1.4-4.5-1.3-5h3.8c0.5,0,1-0.4,1-0.9l2.7-36.7
	c0.7-3.9,1.4-7.9,2.1-11.7l0.8,4c0.7,3.3,0.9,6.7,0.7,10.1l-1.2,26.6c0,0.3,0.1,0.5,0.3,0.7c0.2,0.2,0.4,0.3,0.7,0.3v5.6
	c-0.1,0.2-0.2,0.4-0.2,0.6s0.1,0.5,0.2,0.6v93c0,0.6,0.4,1,1,1h1.5c-2.4,1.4-5.1,3.8-6.6,7.5c-1.1,2.7-1,5.4,0.1,7.1
	c0.6,0.9,1.7,1.9,3.8,1.9h21.4c0.3,0,0.5,0.1,0.8,0.1c3.1,0,5.9-2.3,6.4-5.4c0.5-2.2,0.3-8.7,0.1-11.2h2.1c0.6,0,1-0.4,1-1v-72h5.5
	v72c0,0.6,0.4,1,1,1h0.3c-0.1,2.6-0.4,9,0.1,11.2c0.5,3.2,3.3,5.4,6.4,5.4c0.3,0,0.5,0,0.8-0.1h26.5c1.1,0,2.3-0.3,3.2-1
	c2.6-1.8,3.3-5.4,1.5-8c-2.5-3.7-6.3-6.1-9.5-7.6h0.2c0.6,0,1-0.4,1-1v-99.9h0.2c0.3,0,0.5-0.1,0.7-0.3c0.2-0.2,0.3-0.5,0.3-0.7
	l-1.2-26.6c-0.2-3.4,0.1-6.8,0.7-10.1l1.8-8.9c3.7,7.5,7.9,16.4,11,23.2c0.1,0.2,0.3,0.4,0.5,0.5l46.5,18.1c0.1,0,0.2,0.1,0.4,0.1
	c0.1,0,0.3,0,0.4-0.1c0.2-0.1,0.4-0.3,0.5-0.6l1.8-5.3l2.8,1.2c0.2,0.8,0.8,1.5,1.8,2.1c2,1.3,4.4,2,6.8,2c0,0,0,0,0,0h10
	c1.9,0,3.7-0.5,5.4-1.5l8.7-6.3c0.1-0.1,0.2-0.1,0.3-0.2c1.4-1,1.8-3.1,0.7-4.5C198.5,169.4,196.7,169,195.3,169.8z M114.3,164.1
	c-2.4-5.2-7.5-16.2-12-25.2c-0.2-0.5-0.5-1-0.7-1.5c-0.2-0.5-0.5-1-0.7-1.5c-3-5.9-5.5-10.4-6.4-11c-0.1-0.1-0.2-0.1-0.3-0.1
	c-0.4-0.1-0.8,0.1-1.1,0.4c-0.3,0.5-0.2,1.1,0.3,1.4c0.8,0.7,3.5,5.8,6.8,12.5l-2.3,11.5c-0.7,3.5-0.9,7-0.8,10.6l1.1,25.6h-0.1
	H31.4l0,0l1.1-25.6c0.2-3.5-0.1-7.1-0.8-10.6l-1.7-8.7c1.7-8.5,3.4-15.1,4.2-15.9c0.5-0.3,0.6-0.9,0.3-1.4c-0.2-0.3-0.6-0.5-0.9-0.4
	c-0.2,0-0.3,0-0.5,0.1c-1.1,0.7-2.6,6.1-4.1,12.6c-0.2,0.8-0.4,1.6-0.5,2.4c-0.2,0.8-0.4,1.7-0.5,2.5c-1.3,6.1-2.4,12.5-3.1,16.6
	l-2.6,35.9h-3.4c0,0,0,0,0,0l-7.1,0c0,0,0,0,0,0c0,0,0,0,0,0H7l2.7-38.7c0.1-0.3,5.2-30.3,6.3-38.7c0.7-5.3,5.4-7.6,9.8-8.6
	c0.7-0.2,1.4-0.3,2.1-0.4c1.9-0.3,3.6-0.3,4.6-0.3c0,0,0,0,0.1,0l0,0H46l5.7,11.5c0.2,0.3,0.5,0.6,0.9,0.6c0,0,0,0,0,0
	c0.4,0,0.7-0.2,0.9-0.6l4.3-8.8L58,110l0.1,0.3l1.1,7.5l-4.2,34.9c0,0.3,0.1,0.7,0.4,0.9l8.9,7.4c0.2,0.2,0.4,0.2,0.6,0.2
	s0.5-0.1,0.6-0.2l8.9-7.4c0.3-0.2,0.4-0.6,0.4-0.9l-4.2-35l1.1-7.5l0.1-0.3l0.2,0.3l4.3,8.8c0.2,0.3,0.5,0.6,0.9,0.6c0,0,0,0,0,0
	c0.4,0,0.7-0.2,0.9-0.6l5.7-11.5h13.6c0.1,0,0.1,0,0.2,0l0-0.1c0.1,0,0.1,0,0.2,0c0.9,0,2.4,0,4.1,0.3c0.7,0.1,1.4,0.2,2.1,0.3
	c4.5,0.9,9.5,3.2,10.3,8.7c1.2,8.6,15.9,31.2,16.6,32.2c0.1,0.2,0.3,0.3,0.5,0.4l34.4,14.4l-4.2,12.3c0,0,0,0,0,0c0,0,0,0,0,0
	l-1.8,5.4L114.3,164.1z M96.7,212.3c-5.2-0.7-8.9-2.5-11-5.2c-1.8-2.3-2-4.8-1.9-5.9c0-0.4,0-0.6,0-0.6c0.1-0.5-0.3-1.1-0.8-1.2
	c-0.5-0.1-1.1,0.3-1.2,0.8c0,0.2-0.7,4.2,2.2,8.1c2.5,3.3,6.9,5.4,13,6.1v73.2H69.5v-72c0-0.6-0.4-1-1-1h-7.5c-0.6,0-1,0.4-1,1v72
	H32.3v-73.2c6.1-0.7,10.5-2.8,13-6.1c2.9-3.8,2.3-7.9,2.2-8.1c-0.1-0.5-0.6-0.9-1.2-0.8c-0.5,0.1-0.9,0.6-0.8,1.2c0,0,0,0.2,0,0.6
	c0,1.1-0.1,3.6-1.9,5.9c-2.1,2.8-5.9,4.5-11,5.2c-0.1,0-0.3,0-0.4,0v-16.4h22.6v2.5c0,0.6,0.4,1,1,1h16.7c0.6,0,1-0.4,1-1v-2.5h23.5
	v16.4C97,212.4,96.8,212.4,96.7,212.3z M104.7,303.5c-0.6,0.4-1.3,0.6-2.1,0.6H76c0,0-0.1,0-0.1,0c-2.4,0.3-4.7-1.3-5-3.8
	c-0.4-1.8-0.2-7.7-0.1-10.8l21.5,0c0.3,0.1,1.3,0.4,2.5,0.9c-0.1,0.2-0.1,0.3-0.2,0.5c-0.9,2.4-2.2,5.6-9.1,5.6c-0.6,0-1,0.4-1,1
	s0.4,1,1,1c8.3,0,10-4.3,11-6.8c0.1-0.2,0.1-0.3,0.2-0.4c3,1.4,6.7,3.6,9.1,7.1C106.8,300,106.4,302.4,104.7,303.5z M56.8,300.4
	c-0.4,2.4-2.6,4-5,3.7c0,0-0.1,0-0.1,0H30.1c-1,0-1.7-0.3-2.1-1c-0.8-1.2-0.7-3.3,0.1-5.3c0.8-1.9,1.9-3.4,3.1-4.6
	c1.9,2,4.2,3,6.6,3.1c0.1,0,0.2,0,0.3,0c3.8,0,8.1-2.3,12.8-6.9l5.9,0C57,292.7,57.2,298.5,56.8,300.4z M48.1,289.6
	c-3.8,3.3-7.2,5-10.1,4.9c-1.9-0.1-3.6-0.9-5.2-2.4c2.3-1.7,4.6-2.3,5.1-2.5L48.1,289.6z M32.3,188.7h22.6v5.2H32.3V188.7z
	 M56.9,194.9v-6.2h14.7v6.2v2.5H56.9V194.9z M97.1,193.9H73.6v-5.2h23.5V193.9z M17.4,196.3c-0.1,1.3,0.4,3.2,1.4,5.8
	c1.3,3.1,1.4,5.8,0.3,7.4c-0.3,0.5-0.8,0.9-1.3,1.2v-2c0-0.6-0.4-1-1-1h-6.6c-0.6,0-1,0.4-1,1v1.3c-0.5-0.4-0.9-0.9-1.1-1.5
	c-0.7-1.7-0.2-3.8,1.1-5.2c2.2-2.2,3.1-5.4,3.4-7c0,0,0,0,0,0L17.4,196.3C17.4,196.3,17.4,196.3,17.4,196.3z M15.9,213.4v3.3h-4.6
	v-3.6v-1v-1v-1.4h4.6v1.7v1V213.4z M2,238.5h21.8v37.6H2V238.5z M23.8,236.5H2v-17.8h8.3h6.6h6.9V236.5z M48.8,105.7l2.2-3.6
	l2.8,2.2l1,0.8l0.8,0.6l0.2,0.2l1.1,0.8l0.4,0.3l-0.3,0.7l-0.3,0.7l-0.5,1l-0.5,1l-2.9,6.1l-4.4-8.8l-0.3-0.6l0.3-0.4L48.8,105.7z
	 M55,95.9c-0.8-0.2-1.7-0.4-2.6-0.6c-7.7-2-12.6-9-14.8-17.1c-0.1-0.3-0.2-0.7-0.3-1c-0.6-2.3-0.9-4.8-1-7.2
	c0.2,0.2,0.4,0.4,0.6,0.6c0.3,0.3,0.7,0.6,1,0.8c0.4,0.3,0.8,0.5,1.2,0.7c0.3,0.2,0.8,0.1,1.1-0.1c2.2-1.8,1.8-4.7,1.5-7
	c-0.2-1.3-0.4-2.7,0.1-3.1c0.3-0.3,1-0.3,2.1-0.2c1.1,0.2,2.1,0.5,3,0.8c2.3,0.7,4.5,1.4,7.5-0.7c0.2-0.2,0.4-0.4,0.4-0.7
	c0-0.3,0-0.5-0.2-0.7c-0.8-1.1-0.9-2.8-0.1-3.7c0.8-0.9,2.7-0.7,5,0.5c1.6,0.9,2.9,1.9,4,2.8c2.6,2.1,5.1,4.1,8.7,0.9
	c0.3-0.2,0.4-0.6,0.3-0.9c-0.4-2.5,0.2-3.9,1.9-4.2c3.1-0.5,8.8,3,9.7,8.1c0.1,0.7,0.5,0.9,0.8,1c0.8,0.3,1.5-0.2,2.4-0.8
	c0.7-0.5,1.8-1.2,2.4-1.1c0.2,0.1,0.4,0.3,0.6,0.6c1.3,2.6,0.7,8.2,0.3,10.2c-0.1,0.4,0.1,0.7,0.3,0.9c0,0,0,0,0.1,0.1
	c0.2,0.1,0.4,0.2,0.6,0.2c0.1,0,0.2,0,0.3-0.1c0.1,0,0.1,0,0.2-0.1c0.3-0.2,0.7-0.4,1-0.6c0,0,0,0,0,0c-0.1,0.9-0.3,1.8-0.5,2.6
	c-0.1,0.3-0.2,0.7-0.2,1c-0.1,0.3-0.2,0.6-0.3,1c-2.3,7.7-7.1,14.3-14.6,16.3c-1,0.2-1.8,0.5-2.6,0.6c-0.5,0.1-0.8,0.5-0.8,1v6.4
	l-3.1,2.4h-12l-3.1-2.4v-6.4C55.8,96.4,55.4,96,55,95.9z M31.8,75.8c-1.4-1.4-1.9-3.8-1.1-5.5c0.6-1.3,1.8-2.1,3.5-2.3
	c0,2.9,0.3,5.9,1,8.8C33.9,77,32.8,76.7,31.8,75.8z M65.2,26.1c14.2,0,23.7,4.7,30.7,15.1c4.9,7.2,2.7,20,0.9,25.5
	c-0.1,0.3-0.2,0.7-0.3,0.9c-0.1,0.4-0.3,0.7-0.4,0.9c-0.1,0.2-0.2,0.4-0.3,0.5c-0.1,0.2-0.3,0.3-0.4,0.5c-0.3,0.4-0.7,0.8-1.1,1.1
	c-0.3,0.3-0.7,0.6-1.1,0.9c0,0,0,0,0,0c-0.2,0.1-0.3,0.3-0.5,0.4c0.2-1.3,0.3-3.1,0.2-4.9c0-0.3,0-0.7-0.1-1
	c-0.1-1.3-0.4-2.5-0.9-3.4c-0.5-0.9-1.1-1.4-1.9-1.6c-0.2-0.1-0.4-0.1-0.7-0.1c-1.2,0-2.5,0.8-3.4,1.4c-0.1,0.1-0.2,0.1-0.3,0.2
	c-1.5-5.6-7.7-9.6-11.8-8.9c-1,0.2-4.1,1.1-3.6,5.9c-1.9,1.6-3,0.9-5.7-1.3c-1.2-1-2.6-2-4.3-3c-4.5-2.4-6.6-1.1-7.5-0.1
	c-1.2,1.3-1.3,3.5-0.5,5.2c-1.8,1-3,0.6-5,0c-0.9-0.3-2-0.6-3.3-0.9c-1.8-0.3-3-0.1-3.8,0.7c-1.2,1.1-0.9,2.9-0.7,4.8
	c0.2,1.7,0.5,3.5-0.3,4.7c-0.5-0.3-1-0.8-1.5-1.3c-0.4-0.4-0.7-0.8-1.1-1.3c-0.1-0.2-0.2-0.3-0.3-0.5c-0.1-0.1-0.1-0.2-0.2-0.3
	c-0.2-0.2-0.3-0.5-0.5-0.7c-0.2-0.3-0.3-0.6-0.5-0.9c-0.4-0.8-0.8-1.6-1.1-2.5c-0.4-1-0.7-2.1-1-3.2c-1.9-7.1-1.4-14.2,1.3-18.1
	C41.8,30.9,51.5,26.1,65.2,26.1z M97.8,76.8c-1,0.8-2.2,1.1-3.5,0.8c0.4-1.6,0.7-3.3,0.9-4.9c0.8-0.7,1.6-1.5,2.3-2.3
	c0.2-0.2,0.3-0.5,0.5-0.9c0.7,0.5,1.3,1.2,1.5,2C100.1,73.3,99.4,75.5,97.8,76.8z M81.4,106.7l0.3,0.4l-0.3,0.6l-4.4,8.8l-2.9-6.1
	l-0.5-1l-0.5-1l-0.3-0.7l-0.3-0.7l0.4-0.3l1.1-0.8l0.2-0.2l0.8-0.6l1-0.8l2.8-2.2l2.2,3.6L81.4,106.7z M69.6,110.3l-1,6.5H61l-1-6.5
	l-0.2-1l-0.2-1l-0.1-0.7H70l-0.1,0.7l-0.2,1L69.6,110.3z M61,118.9h7.6l4.1,33.7l-7.9,6.6l-7.9-6.6L61,118.9z M197.6,173.6
	c0,0-0.1,0.1-0.2,0.1l-8.7,6.3c-1.3,0.8-2.8,1.2-4.3,1.2h-10c0,0,0,0,0,0c-2,0-4-0.6-5.8-1.7c-0.7-0.5-1-0.9-1-1.1
	c0-0.4-0.2-0.8-0.5-1c-0.1,0-0.1-0.1-0.2-0.1l-3.3-1.4l1.8-5.3l6,2.6c0.3,0.1,0.6,0.1,0.9,0c1.4-0.7,2.9-1.1,4.4-1.1
	c1.5,0,2.4,0.3,3.6,0.8c0.7,0.2,1.4,0.5,2.4,0.8c1.2,0.3,2.4,0.3,3.5,0c0.9-0.2,1.9,0,2.7,0.5l-2,1.4c-1.3,0.1-7.1,0.3-12.8,0.2
	c0,0,0,0,0,0c-0.5,0-1,0.4-1,1c0,0.6,0.4,1,1,1c6.6,0.2,13.2-0.2,13.3-0.2c0.2,0,0.4-0.1,0.5-0.2l8.7-5.9c0.5-0.3,1.2-0.1,1.5,0.4
	C198.2,172.4,198.1,173.2,197.6,173.6z"/>
<path class="st0" d="M169.9,65.2C169.9,65.2,169.9,65.2,169.9,65.2C169.9,65.2,169.9,65.2,169.9,65.2
	C169.9,65.2,169.9,65.2,169.9,65.2c0,7.6,6.1,13.8,13.7,13.8c7.6,0,13.7-6.1,13.7-13.7c0,0,0,0,0,0c0,0,0,0,0,0c0,0,0,0,0,0
	c0-7.5-6.2-13.6-13.7-13.6C176.1,51.5,170,57.7,169.9,65.2z M179.1,54.5c-0.8,1.1-1.4,2.6-1.9,4.2c-0.9-0.3-1.7-0.6-2.4-1
	C175.9,56.3,177.4,55.2,179.1,54.5z M192.6,57.7c-0.7,0.4-1.5,0.7-2.4,1c-0.5-1.6-1.1-3.1-1.9-4.2C189.9,55.2,191.4,56.3,192.6,57.7
	z M195.3,64.2H191c0-1.2-0.2-2.4-0.4-3.5c1.2-0.4,2.2-0.8,3.1-1.3C194.6,60.8,195.1,62.4,195.3,64.2z M193.7,71.2
	c-0.9-0.5-2-1-3.1-1.3c0.2-1.1,0.3-2.4,0.4-3.6h4.3C195.2,68,194.6,69.7,193.7,71.2z M188.2,76c0.8-1.1,1.4-2.6,1.9-4.2
	c0.9,0.3,1.7,0.6,2.4,1C191.4,74.2,189.9,75.3,188.2,76z M174.7,72.8c0.7-0.4,1.5-0.7,2.4-1c0.5,1.6,1.1,3.1,1.9,4.2
	C177.4,75.3,175.9,74.2,174.7,72.8z M172,66.2h4.3c0,1.3,0.2,2.5,0.4,3.6c-1.2,0.4-2.2,0.8-3.1,1.3C172.7,69.7,172.1,68,172,66.2z
	 M173.6,59.3c0.9,0.5,2,1,3.1,1.3c-0.2,1.1-0.3,2.3-0.4,3.5H172C172.2,62.4,172.7,60.8,173.6,59.3z M183.6,53.5L183.6,53.5
	C183.6,53.5,183.6,53.5,183.6,53.5C183.6,53.5,183.6,53.5,183.6,53.5C183.6,53.5,183.6,53.5,183.6,53.5c1.7,0,3.5,2.2,4.5,5.7
	c-1.4,0.3-3,0.4-4.5,0.4c0,0,0,0,0,0c0,0,0,0,0,0c-1.6,0-3.1-0.2-4.5-0.4C180.1,55.7,181.9,53.5,183.6,53.5z M183.6,76.9
	C183.6,76.9,183.6,76.9,183.6,76.9C183.6,76.9,183.6,76.9,183.6,76.9C183.6,76.9,183.6,76.9,183.6,76.9L183.6,76.9
	c-1.7,0-3.5-2.2-4.5-5.7c1.4-0.3,3-0.4,4.5-0.4c0,0,0,0,0,0c0,0,0,0,0,0c1.6,0,3.1,0.2,4.5,0.4C187.2,74.8,185.3,76.9,183.6,76.9z
	 M178.7,61.2c1.6,0.3,3.2,0.5,5,0.5c0,0,0,0,0,0c0,0,0,0,0,0c1.7,0,3.4-0.2,5-0.5c0.2,1,0.3,2,0.3,3h-5.3h0h-5.3
	C178.4,63.1,178.5,62.1,178.7,61.2z M188.6,69.3c-1.6-0.3-3.2-0.5-5-0.5c0,0,0,0,0,0c0,0,0,0,0,0c-1.7,0-3.4,0.2-5,0.5
	c-0.2-1-0.3-2-0.3-3.1h5.3h0h5.3C188.9,67.3,188.8,68.4,188.6,69.3z"/>
<path class="st0" d="M241.7,43.3h-7.3V36c0-0.6-0.4-1-1-1s-1,0.4-1,1v7.3h-7.3c-0.6,0-1,0.4-1,1s0.4,1,1,1h7.3v7.3c0,0.6,0.4,1,1,1
	s1-0.4,1-1v-7.3h7.3c0.6,0,1-0.4,1-1S242.3,43.3,241.7,43.3z"/>
<path class="st0" d="M135.8,48.5c0,0.6,0.4,1,1,1h16.6c0.6,0,1-0.4,1-1s-0.4-1-1-1h-16.6C136.3,47.5,135.8,47.9,135.8,48.5z"/>
<path class="st0" d="M150.8,100c-0.2,0.2-0.4,0.5-0.4,0.8v37.4c0,0.4,0.3,0.8,0.7,1c1.6,0.5,3.2,0.7,4.8,0.7c3.7,0,7.1-1.1,10.3-2.2
	c5.6-1.9,10-3.4,14.7,1.3c0.2,0.2,0.4,0.3,0.7,0.3c0,0,0.1,0,0.1,0c0,0,0.1,0,0.1,0c0.2,0,0.5-0.1,0.7-0.3c4.6-4.6,9.1-3.2,14.7-1.3
	c3.1,1,6.5,2.2,10.3,2.2c1.5,0,3.1-0.2,4.8-0.7c0.4-0.1,0.7-0.5,0.7-1v-37.4c0-0.3-0.1-0.6-0.4-0.8c-0.2-0.2-0.6-0.3-0.9-0.2
	c-5,1.3-9.7-0.4-14.3-2.1c-5.8-2.2-11.2-4.2-15.6,1.4c-4.4-5.6-9.9-3.6-15.6-1.4c-4.5,1.7-9.2,3.4-14.3,2.1
	C151.4,99.7,151.1,99.8,150.8,100z M182.6,101.1c3.6-5.4,7.9-3.8,13.9-1.5c4.3,1.6,9,3.4,14.2,2.5v35.4c-4.7,1.1-9-0.3-13.1-1.7
	c-2.8-0.9-5.6-1.9-8.4-1.9c-2.2,0-4.4,0.6-6.6,2.2V101.1z M152.4,102c5.2,0.9,10-0.9,14.2-2.5c6-2.2,10.3-3.8,13.9,1.5v35
	c-5-3.7-10.1-1.9-15-0.3c-4.1,1.4-8.4,2.8-13.1,1.7V102z"/>
<path class="st0" d="M217,100.1c-0.6,0-1,0.4-1,1v42c-6.8,1.7-12.3-0.1-17.2-1.7c-5.8-1.9-11.3-3.6-17.1,1.1
	c-5.8-4.8-11.3-3-17.1-1.1c-4.9,1.6-10.4,3.3-17.2,1.7v-42c0-0.6-0.4-1-1-1s-1,0.4-1,1v42.8c0,0.4,0.3,0.8,0.7,1
	c7.7,2.1,13.8,0.2,19.1-1.5c6-1.9,10.7-3.4,15.8,1.3c0.4,0.3,1,0.3,1.3,0c5.2-4.7,9.9-3.2,15.8-1.3c3.7,1.2,7.7,2.5,12.3,2.5
	c2.1,0,4.4-0.3,6.8-0.9c0.4-0.1,0.7-0.5,0.7-1v-42.8C218,100.5,217.5,100.1,217,100.1z"/>
<path class="st0" d="M228.3,85.3c0-0.6-0.4-1-1-1h-6.3v-2c0.6,0,1.1,0,1.4,0c5.9,0,9-3.3,9-6.6c0-2-1-6.5-9.8-6.5l-1.7,0
	c-0.6,0-1,0.4-1,1v10h-1c-0.6,0-1,0.4-1,1s0.4,1,1,1h1v2.1H218c-0.6,0-1,0.4-1,1s0.4,1,1,1h0.9v2.4c0,0.6,0.4,1,1,1s1-0.4,1-1v-2.4
	h6.3C227.8,86.3,228.3,85.9,228.3,85.3z M220.9,71.2l0.7,0c5,0,7.8,1.6,7.8,4.5c0,2.3-2.4,4.6-7,4.6c-0.3,0-0.9,0-1.4,0V71.2z"/>
<path class="st0" d="M157.8,25.1l3,0.1l6.9,11.3c0.2,0.3,0.5,0.5,0.9,0.5c0,0,0.1,0,0.1,0c0.4,0,0.7-0.3,0.8-0.7l6.1-19.9l5.9,0.3
	c0.6,0,1-0.4,1-1c0-0.6-0.4-1-1-1l-6.7-0.3c-0.4,0-0.9,0.3-1,0.7l-5.7,18.5l-6-9.8c-0.2-0.3-0.5-0.5-0.8-0.5l-3.5-0.1
	c-0.5,0-1,0.4-1,1S157.2,25.1,157.8,25.1z"/>
<path class="st0" d="M203.1,41.7c3.3,0,5.3-2.2,5.3-6V25.4c0-1.8,0.6-4,3.3-4c0.6,0,1-0.4,1-1s-0.4-1-1-1c-3.3,0-5.3,2.2-5.3,6v10.3
	c0,1.8-0.6,4-3.3,4c-0.6,0-1,0.4-1,1S202.6,41.7,203.1,41.7z"/>
<path class="st0" d="M135.9,83.5c0.2,0.4,0.5,0.6,0.9,0.6h9.6c0.6,0,1-0.4,1-1s-0.4-1-1-1H139l5-5.8c0.3-0.4,0.3-0.9,0-1.3l-4.8-5.8
	h7.2c0.6,0,1-0.4,1-1s-0.4-1-1-1h-9.3c-0.4,0-0.7,0.2-0.9,0.6c-0.2,0.4-0.1,0.8,0.1,1.1l5.6,6.8l-5.8,6.8
	C135.8,82.7,135.7,83.2,135.9,83.5z"/>
<path class="st0" d="M75.5,71.2c0.6,0,1-0.4,1-1v-1.9c0-0.6-0.4-1-1-1s-1,0.4-1,1v1.9C74.5,70.8,75,71.2,75.5,71.2z"/>
<path class="st0" d="M54.1,67.4c-0.6,0-1,0.4-1,1v1.9c0,0.6,0.4,1,1,1s1-0.4,1-1v-1.9C55.1,67.8,54.7,67.4,54.1,67.4z"/>
</svg>
