<svg xmlns="http://www.w3.org/2000/svg" width="554.333" height="405.101"><defs><style>.a,.f{fill:none}.a{stroke:#0073ff;stroke-linecap:round;stroke-linejoin:round;stroke-width:2px}.c{fill:#0073ff}.e{stroke:none}</style></defs><path class="a" d="M66.435 22.15l.799 1.084m2.517 3.413l.799 1.084m-4.848-.733l1.084-.799m3.413-2.517l1.084-.799"/><g transform="translate(188.206)" fill="#fff" stroke="#0073ff" stroke-linecap="round" stroke-linejoin="round" stroke-width="2"><circle class="e" cx="1.957" cy="1.957" r="1.957"/><circle class="f" cx="1.957" cy="1.957" r=".957"/></g><path class="a" d="M544.831 361.071a89.386 89.386 0 0 1-114.745-10.389c-3.149-3.158-3.385-7.72-.8-9.8 2.592-2.089 6.652-1.358 9.318 1.3a77.35 77.35 0 0 0 99.375 9c3.095-2.137 6.478-2.2 8.65.323 2.17 2.514 1.868 7.022-1.798 9.566zm-85.064-64.043a20.388 20.388 0 0 0-39.431 7.239c-.008 3.6 1.067 7.378 3.726 9.807s7.108 3.039 9.866.723c3.641-3.06 2.767-9.067 5.551-12.924a7.9 7.9 0 0 1 13.085.409m27.582-2.333c-3.71 1.918-6.164 7.242-5.8 11.4a13.878 13.878 0 0 0 6.518 10.185 17.116 17.116 0 0 0 11.269 2.57 18.6 18.6 0 0 0 9.959-3.727 12.808 12.808 0 0 0 4.956-9.213c.157-3.592-.221-7.4-3.393-9.088"/><path class="a" d="M451.395 352.561c9.438-9.512 22.124-14.981 36.512-13.678 14.63 1.324 26.3 9.223 33.84 20.576a77.919 77.919 0 0 0 11.8-5.957 34.213 34.213 0 0 1-9.989-21.69c-.582-8.483-.359-17.156 5.95-24.134.6 9.422 10.206 9 12.278 10.707 1.282 1.06 5.451 6.5 8.527 4.044 3.911-3.122 3.992-9.2.4-15.062-2.739-4.467-2.328-7.327-4.987-11.478s-5.679-3.294-7.417-5.037c-1.657-1.661-1.314-6.477-1.593-8.765a1.947 1.947 0 0 0-3.614-.746l-5.053 8.669c-5.051-2.327-10.247.514-14.549 4.039-3.268 2.678-6.271 5.88-9.84 8.029a19.553 19.553 0 0 1-12.715 3.258 17.655 17.655 0 0 1-11.732-6.007 18.22 18.22 0 0 0-20.548-1.709 12.35 12.35 0 0 0-3.987 2.485 13.572 13.572 0 0 0-3.439 5.442 18.182 18.182 0 0 0-.929 13.736c.4 4.2.934 8.4.3 12.56a16.55 16.55 0 0 1-2.977 7.38c-.938 1.241-5.925 3.842-6.172 4.755a2.009 2.009 0 0 0 .005.936 77.879 77.879 0 0 0 9.929 7.647z"/><g class="a" transform="translate(516.645 301.507)"><circle class="e" cx="2.51" cy="2.51" r="2.51"/><circle class="f" cx="2.51" cy="2.51" r="1.51"/></g><g class="a" transform="translate(536.201 298.46)"><circle class="e" cx="2.423" cy="2.423" r="2.423"/><circle class="f" cx="2.423" cy="2.423" r="1.423"/></g><path class="a" d="M383.054 215.283l-1.06 1.328m-3.334 4.182l-1.06 1.328m-.692-6.146l1.328 1.059m4.181 3.336l1.328 1.059m-128.538-30.975l.034 4.498 4.152-.031"/><g transform="translate(78.267 -1100.296)"><path class="c" d="M83.365 1205.641l-3.893.49 7.708-26.433 3.186-.4 13.922 23.707-3.965.5-3.324-5.839-11.895 1.5zm2.588-9.714l9.381-1.183-6.155-11.164z"/><rect class="a" width="41.562" height="41.562" rx="2.617" transform="rotate(-7.185 9392.209 52.933)"/></g><g transform="rotate(-7 -8904.195 -400.269)"><path class="c" d="M118.77 1238.112l6.767-.483c2.968-.211 6.245.781 6.512 4.525a4.344 4.344 0 0 1-3.135 4.517v.055a4.633 4.633 0 0 1 4.695 4.461c.27 3.771-2.874 5.808-6.98 6.1l-6.461.461zm3.337 8.1l3.578-.255c2.106-.15 3.79-1.191 3.637-3.326-.15-2.108-1.9-2.819-4.509-2.633l-3.134.224zm.643 9.013l3.439-.245c2.329-.166 4.829-1.069 4.639-3.731-.164-2.3-1.872-3.185-4.867-2.971l-3.689.263z"/><rect class="a" width="32.388" height="32.388" rx="2.617" transform="rotate(-4.081 17362.493 -909.419)"/></g><g transform="translate(188.267 -1097.466)"><path class="c" d="M197.103 1236.995a11.074 11.074 0 0 1-9.882 2.762 12.335 12.335 0 0 1-10.456-14.792c1.285-7.48 7.64-11.616 14.916-10.366 3.283.565 6.616 2.461 7.958 5.2l-2.989 1.577a7.585 7.585 0 0 0-5.475-3.832c-5.551-.953-9.854 2.8-10.756 8.047-.924 5.382 1.831 10.246 7.346 11.193a7.693 7.693 0 0 0 6.978-2.078z"/><rect class="a" width="40" height="40" rx="2.617" transform="rotate(9.73 -6984.032 1608.914)"/></g><path class="a" d="M77.77 117.268c-6.994 8.395-17.782 10.007-26.177 3.011s-8.757-17.896-1.761-26.292 33.69-12.025 33.69-12.025 1.245 26.91-5.751 35.306zm5.751-35.306l-36.19 43.433m11.738-14.087l14.437.362m-6.573-9.801l8.954.223m-16.818 9.216l-2.961-14.134m10.825 4.695l-1.836-8.767m-25.466 114.99a11.214 11.214 0 1 0 11.214-11.215 11.167 11.167 0 0 0-11.214 11.215z"/><path class="a" d="M41.025 202.673l-4.158-10.844 8.748 6.377m15.252 4.467l4.493-10.213-9.283 5.744m-36.31 44.854s-11.079 5.579-16.868-2.333c-6.713-9.175 7.119-16.243-.1-25.15m53.519 4.978v21.038c2.88 0 5.284 1.728 5.284 4.578 0 3.786-1.364 4.629-5.556 4.629H39.631m2.821-35.269c-7.192 0-23.373 15.558-22.709 27.253"/><path class="a" d="M37.219 234.078c3.247 0 6.749 3.36 6.749 7.2v2.362s.412 7.161-7.6 7.161h-9.222c-5.952 0-7.383-1.132-7.383-6.774"/><g transform="rotate(-10.02 -5458.547 1562.785)"><path class="a" d="M257.285 1208.713h8.079m31.713 0h19.487"/><rect class="a" width="6.343" height="19.778" rx="2.472" transform="translate(271.706 1198.824)"/><rect class="a" width="6.343" height="19.778" rx="2.472" transform="translate(265.363 1198.824)"/><rect class="a" width="6.343" height="19.778" rx="2.472" transform="translate(278.049 1198.824)"/><rect class="a" width="6.343" height="19.778" rx="2.472" transform="translate(290.735 1198.824)"/><rect class="a" width="6.343" height="19.778" rx="2.472" transform="translate(316.564 1198.824)"/><rect class="a" width="6.343" height="19.778" rx="2.472" transform="translate(284.392 1198.824)"/><path class="a" d="M257.285 1235.853h16.381m19.028 0h10.786m12.686 0h5.606"/><rect class="a" width="6.343" height="19.778" rx="2.472" transform="translate(286.351 1225.964)"/><rect class="a" width="6.343" height="19.778" rx="2.472" transform="translate(273.666 1225.964)"/><rect class="a" width="6.343" height="19.778" rx="2.472" transform="translate(303.48 1225.964)"/><rect class="a" width="6.343" height="19.778" rx="2.472" transform="translate(309.823 1225.964)"/><rect class="a" width="6.343" height="19.778" rx="2.472" transform="translate(280.009 1225.964)"/><rect class="a" width="6.343" height="19.778" rx="2.472" transform="translate(321.772 1225.964)"/><rect class="a" width="6.343" height="19.778" rx="2.472" transform="translate(334.458 1225.964)"/><rect class="a" width="6.343" height="19.778" rx="2.472" transform="translate(328.115 1225.964)"/><path class="a" d="M257.285 1262.993h13.21m12.685 0h13.21m6.342 0h14.323m19.201 0h11.38"/><rect class="a" width="6.343" height="19.778" rx="2.472" transform="translate(276.837 1253.105)"/><rect class="a" width="6.343" height="19.778" rx="2.472" transform="translate(270.494 1253.105)"/><rect class="a" width="6.343" height="19.778" rx="2.472" transform="translate(317.228 1253.105)"/><rect class="a" width="6.343" height="19.778" rx="2.472" transform="translate(296.39 1253.105)"/><rect class="a" width="6.343" height="19.778" rx="2.472" transform="translate(329.913 1253.105)"/><rect class="a" width="6.343" height="19.778" rx="2.472" transform="translate(323.571 1253.105)"/><path class="a" d="M332.243 1295.335h-59.565a15.438 15.438 0 0 1-15.393-15.393v-88.178a15.438 15.438 0 0 1 15.393-15.393h59.565a15.438 15.438 0 0 1 15.393 15.393v88.178a15.438 15.438 0 0 1-15.393 15.393zm8.557-59.482h6.836m-24.729-27.14h24.729"/></g><path class="a" d="M224.679 403.743h-55.627v-20.371h55.627z"/><path class="a" d="M216.464 383.373h-7.159v-4.656h7.159zm-16.019 0h-7.159v-4.656h7.159zm-16.019 0h-7.159v-4.656h7.159zm79.859 20.37L215.47 377.07l9.767-17.876 48.816 26.672z"/><path class="a" d="M266.843 381.928l-6.282-3.433 2.232-4.086 6.282 3.433zm-14.057-7.681l-6.282-3.433 2.232-4.086 6.282 3.433zm-14.057-7.68l-6.282-3.433 2.232-4.086 6.282 3.433z"/><path d="M312.958 50.321l-11.284 7.245a2.378 2.378 0 0 0-1.095 1.93l-.43 13.407a2.38 2.38 0 0 1-3.891 1.762l-10.372-8.494a2.4 2.4 0 0 0-2.173-.448l-12.875 3.727a2.385 2.385 0 0 1-2.887-3.151l4.87-12.49a2.375 2.375 0 0 0-.251-2.201l-7.526-11.086a2.383 2.383 0 0 1 2.106-3.717l13.388.766a2.4 2.4 0 0 0 2.02-.914l8.221-10.595a2.382 2.382 0 0 1 4.182.85l3.402 12.965a2.389 2.389 0 0 0 1.502 1.634l12.607 4.546a2.4 2.4 0 0 1 .486 4.264z" stroke-miterlimit="10" stroke="#0073ff" stroke-linecap="round" stroke-linejoin="round" stroke-width="2" fill="none"/><g transform="translate(248.998 207.048)"><path class="a" d="M77.207 70.511v34.49h-6.693a19.391 19.391 0 0 0-38.781 0H25.04v-34.49zm0 0h25.04V105h-25.04zm-42.631 0V41.288h33.095v29.223zm67.674 0H77.21l12.52-18.457zM0 70.511h25.04V105H0zm25.04 0H-.001l12.52-18.457zm48.905-29.223H28.303L51.124 0z"/><circle class="a" cx="5.175" cy="5.175" r="5.175" transform="translate(45.948 51.59)"/></g><path class="a" d="M29.499 314.709l9.175 20.303M23.778 317.18l11.357-5.132m74.76 63.404c-3.606-15.709-22.351-27.684-44.948-27.684s-41.343 11.975-44.949 27.684zm-68.417-11.904h2.536m36.574 2.745h2.536m-23.273-8.809H57.62m-2.549 8.809h1.551m17.311-5.936h1.551"/><path class="a" d="M35.937 355.362l-5.526-12.228a4 4 0 0 1 2-5.292l12.53-5.662a4 4 0 0 1 5.292 2l6.391 14.142"/></svg>