<svg xmlns="http://www.w3.org/2000/svg" width="578.051" height="367.279" viewBox="0 0 578.051 367.279"><defs><style>.a,.e{fill:none;}.a,.b{stroke:#0073ff;stroke-linecap:round;stroke-linejoin:round;stroke-width:2px;}.b{fill:#fff;}.c{fill:#0073ff;}.d{stroke:none;}</style></defs><g transform="translate(-1302 -872.412)"><g transform="translate(-29.561 -211.422)"><g transform="translate(1797.641 1211.421)"><circle class="a" cx="49.972" cy="49.972" r="49.972" transform="translate(0 7.828)"/><path class="a" d="M1879.625,1217.558a60.95,60.95,0,0,1-64.533,103.41" transform="translate(-1796.782 -1211.119)"/><line class="a" x1="10.096" y2="16.174" transform="translate(14.004 100.561)"/><path class="a" d="M1871.05,1226.459" transform="translate(-1794.025 -1210.681)"/><line class="a" x1="9.85" y2="15.779" transform="translate(77.024)"/><g transform="translate(44.961 118.499)"><line class="a" x1="0.176" y2="13.065"/><line class="a" x1="0.176" y2="13.065" transform="translate(9.846)"/></g><path class="a" d="M5.04,0H31.386a5.04,5.04,0,0,1,5.04,5.04v5.2a0,0,0,0,1,0,0H0a0,0,0,0,1,0,0V5.04A5.04,5.04,0,0,1,5.04,0Z" transform="translate(31.759 133.162)"/><path class="a" d="M1821.854,1227.256c.9-1.233,2.969-.2,3.563,1.209s.532,3.089,1.437,4.319a6.568,6.568,0,0,0,3.518,1.987l11.448,3.593,2.909.913,4.041,1.267a23.239,23.239,0,0,0,7.7,1.486c2.887-.1,5.572-1.263,8.24-2.252,2.606-.966,6.613-3.248,8.41-.454,2.2,3.42,3.4,8.93,3.653,12.931.3,4.771-1.218,9.925-5.027,12.812a10.362,10.362,0,0,0-2.678-4.811,16.649,16.649,0,0,1-3.184-4.544c-.673-1.733-.543-3.935.847-5.17l-5.921,2.789c-2.739,1.291-5.86,3.106-6.1,6.122a4.744,4.744,0,0,1,4.295,3.313,5.033,5.033,0,0,1-.827,4.16c-.776,1.3-1.266,2.638-2.021,4.019-.837,1.536-1.014,1.209-2.446,1.76a5.647,5.647,0,0,0-3.945,4.9c-.058,1.411.446,2.8.426,4.208s-.873,3.023-2.283,3.084c-1.274.055-2.223-1.157-2.753-2.317s-.951-2.487-2.024-3.175c-1.849-1.187-4.418.438-5.145,2.511s-.254,4.344-.072,6.534-.069,4.683-1.767,6.077c-1.575,1.294-3.835,1.194-5.866,1.027-1.452-.119-4.188-1.007-5.1.488-.933,1.526.846,3.287,1.3,4.626a3.673,3.673,0,0,1-6.118,3.741,19.11,19.11,0,0,0-2.7-5.437,6.463,6.463,0,0,0-5.23-2.656c-2.03.131-3.965,1.934-3.772,3.958" transform="translate(-1797.099 -1210.668)"/><path class="a" d="M1861.742,1263.909a9.785,9.785,0,0,1-2.963,7.07" transform="translate(-1794.63 -1208.836)"/><path class="a" d="M1850.482,1286.713a6.9,6.9,0,0,1,4.364-2.434,10.63,10.63,0,0,0,3.671-2.06,5.408,5.408,0,0,0,1.244-5.591" transform="translate(-1795.038 -1208.209)"/><path class="a" d="M1838.655,1298.994a3.506,3.506,0,0,0,3.494,4.473" transform="translate(-1795.627 -1207.108)"/><path class="a" d="M1849.843,1303.9a7.1,7.1,0,0,1,5.876,2.272" transform="translate(-1795.07 -1206.868)"/><path class="a" d="M1871.506,1228.933c-.993,2.059.121,4.567,1.734,6.186s3.694,2.714,5.3,4.341a11.262,11.262,0,0,1,2.1,12.406,53.871,53.871,0,0,1,2.64-9.351" transform="translate(-1794.021 -1210.559)"/></g></g><g transform="translate(56.439 -192.703)"><path class="a" d="M1541.886,1213.759c-7.648,2.477-14.97,6.233-19.948,10.577,7.028,25.649,18.872,34.078,34.586,35.959a.033.033,0,0,0,.026-.009,42.957,42.957,0,0,0,5.546-6.593"/><path class="a" d="M1535.475,1235.741c.474,1.388,3.773,1.4,6.934.319a14.952,14.952,0,0,0,2.481-1.108"/><path class="a" d="M1600.878,1197.037c-15.008-6.1-39.484-6.1-54.492,0-2.127,34.064,8.82,49.216,27.228,58.024a.045.045,0,0,0,.036,0C1592.058,1246.253,1603.005,1231.1,1600.878,1197.037Z"/><path class="a" d="M1567.42,1217.306a7.051,7.051,0,0,0-5.832-3.547c-2.309,0-4.078,1.9-4.816,3.549"/><path class="a" d="M1579.844,1217.306a7.051,7.051,0,0,1,5.832-3.547c2.309,0,4.078,1.9,4.816,3.549"/><path class="a" d="M1562.1,1233.281s4.743,7.1,11.541,7.1,11.531-7.1,11.531-7.1"/></g><g transform="translate(55.439 -194.703)"><line class="a" y2="54.453" transform="translate(1568.374 1293.635)"/><line class="a" y2="36.018" transform="translate(1544.911 1312.07)"/><line class="a" y2="36.018" transform="translate(1590.16 1312.07)"/><path class="a" d="M1544.4,1295.336a4.5,4.5,0,0,1,2.234,5.96,6.08,6.08,0,0,1-8.05,3.019,8.214,8.214,0,0,1-4.079-10.877,11.1,11.1,0,0,1,14.693-5.509c5.9,2.682,7.443,8.458,7.443,14.821v45.338"/><path class="a" d="M1592.347,1295.336a4.5,4.5,0,0,0-2.235,5.96,6.081,6.081,0,0,0,8.051,3.019,8.215,8.215,0,0,0,4.078-10.877,11.1,11.1,0,0,0-14.693-5.509c-5.9,2.682-7.443,8.458-7.443,14.821v45.338"/><line class="a" x2="70.388" transform="translate(1533.18 1278.552)"/></g><g transform="translate(1303 1132.915)"><path class="a" d="M1373.028,1321.24c-15.4-15.4-30.57,5.932-51,0v-63.395c21.035,5.476,38.856-18.828,51,0Z" transform="translate(-1313.284 -1250.569)"/><path class="a" d="M1365.7,1321.24c15.4-15.4,30.57,5.932,51,0v-63.395c-21.035,5.476-38.856-18.828-51,0Z" transform="translate(-1305.814 -1250.569)"/><path class="a" d="M1314.561,1257.24v72.476c27.111,7.55,42.175-16.052,59.888,0,17.713-16.052,32.776,7.55,59.888,0V1257.24" transform="translate(-1314.561 -1249.428)"/></g><g class="b" transform="translate(1432.783 1063.079)"><ellipse class="d" cx="1.9" cy="1.9" rx="1.9" ry="1.9"/><ellipse class="e" cx="1.9" cy="1.9" rx="0.9" ry="0.9"/></g><g transform="translate(1326.218 1145.139)"><path class="c" d="M1336.489,1276.391l-2.1.712,1.277-15.513,1.719-.583,10.4,11.553-2.14.726-2.5-2.857-6.418,2.177Zm.335-5.672,5.061-1.718-4.672-5.486Z" transform="translate(-1334.388 -1261.007)"/></g><g transform="translate(1377.448 1095.516)"><path class="c" d="M1357.641,1234.307l4.373-2.183c1.918-.958,4.373-1.2,5.581,1.221a3.13,3.13,0,0,1-.844,3.87l.018.036a3.339,3.339,0,0,1,4.354,1.678c1.217,2.437-.318,4.658-2.97,5.983l-4.176,2.084Zm4.45,4.474,2.313-1.155c1.361-.68,2.2-1.836,1.506-3.216-.679-1.363-2.041-1.355-3.726-.513l-2.026,1.011Zm2.908,5.825,2.223-1.11c1.506-.751,2.922-2.04,2.063-3.76-.744-1.488-2.123-1.605-4.059-.639l-2.384,1.19Z" transform="translate(-1357.641 -1231.44)"/></g><g transform="translate(1423.39 1089.805)"><path class="c" d="M1395.832,1236.682a5.324,5.324,0,0,1-4.932-.157,6.144,6.144,0,1,1,5.67-10.9,5.276,5.276,0,0,1,2.9,3.533l-1.6.293a3.648,3.648,0,0,0-1.959-2.547,4.433,4.433,0,0,0-6.1,2.144,4.379,4.379,0,0,0,1.759,6.193,3.7,3.7,0,0,0,3.5.051Z" transform="translate(-1387.48 -1224.856)"/></g><g transform="translate(51.439 -169.164)"><g transform="translate(1645.19 1350.417)"><path class="a" d="M1672.562,1402.728a36.093,36.093,0,0,1-4.127-13.037,40.871,40.871,0,0,1,.537-12.551,45.31,45.31,0,0,1,3.893-11.579l.375-.735" transform="translate(-1640.756 -1345.291)"/><path class="a" d="M1705.715,1348.955a36.075,36.075,0,0,1-9.228,10.092,40.892,40.892,0,0,1-11.136,5.812,45.358,45.358,0,0,1-11.974,2.417l-.824.043" transform="translate(-1640.069 -1347.782)"/><path class="a" d="M1644.476,1347.941a36.049,36.049,0,0,1,13.354,2.944,40.853,40.853,0,0,1,10.6,6.739,45.3,45.3,0,0,1,8.081,9.161l.449.692" transform="translate(-1644.476 -1347.941)"/></g><circle class="a" cx="37.795" cy="37.795" r="37.795" transform="translate(1639.925 1332.165)"/><path class="a" d="M1701.87,1359.607c-.648.567-1.331,1.111-2.025,1.631a39.469,39.469,0,0,1-8.747,4.906,53.874,53.874,0,0,0-39.6-25.418,37.7,37.7,0,0,1,9.58-5.958A53.858,53.858,0,0,1,1701.87,1359.607Z" transform="translate(1.816 0.408)"/><path class="a" d="M1668.873,1392.888c-.168-.844-.3-1.708-.4-2.569a39.457,39.457,0,0,1,.126-10.027,53.879,53.879,0,0,0,41.814-21.588,37.715,37.715,0,0,1,.37,11.276A53.86,53.86,0,0,1,1668.873,1392.888Z" transform="translate(4.44 4.165)"/><path class="a" d="M1654.572,1349.512c.814.278,1.627.6,2.425.938a39.387,39.387,0,0,1,8.622,5.122,53.875,53.875,0,0,0-2.212,47.006,37.713,37.713,0,0,1-9.95-5.318A53.859,53.859,0,0,1,1654.572,1349.512Z" transform="translate(1.333 2.723)"/></g><g transform="translate(-80.561 -181.703)"><ellipse class="a" cx="6.89" cy="5.354" rx="6.89" ry="5.354" transform="translate(1658.49 1131.49) rotate(-30)"/><line class="a" y1="28.779" transform="translate(1673.663 1102.405)"/><ellipse class="a" cx="6.89" cy="5.354" rx="6.89" ry="5.354" transform="translate(1682.171 1126.555) rotate(-30)"/><line class="a" y1="28.779" transform="translate(1697.344 1097.47)"/><line class="a" x1="23.681" y2="4.934" transform="translate(1673.663 1097.47)"/></g><g transform="translate(33.209 -166.703)"><ellipse class="a" cx="4.978" cy="3.868" rx="4.978" ry="3.868" transform="translate(1785.751 1080.356) rotate(-30)"/><line class="a" y1="20.793" transform="translate(1796.714 1059.342)"/><ellipse class="a" cx="4.978" cy="3.868" rx="4.978" ry="3.868" transform="translate(1802.861 1076.791) rotate(-30)"/><line class="a" y1="20.793" transform="translate(1813.823 1055.777)"/><line class="a" x1="17.11" y2="3.565" transform="translate(1796.714 1055.777)"/></g><g transform="translate(-22.331 -204.703)"><ellipse class="a" cx="4.855" cy="3.773" rx="4.855" ry="3.773" transform="translate(1736.411 1102.422) rotate(-30)"/><line class="a" y1="20.28" transform="translate(1747.104 1081.926)"/><line class="a" x1="7.289" y2="3.477" transform="translate(1747.104 1078.448)"/></g><g transform="translate(1457.478 1106.667) rotate(10)"><line class="b" y2="13.061" transform="translate(6.53 0)"/><line class="b" x2="13.061" transform="translate(0 6.53)"/></g><path class="a" d="M1441.725,1190.162l.51,6.575,6.069-.471" transform="translate(104.717 -129.901)"/><g transform="matrix(0.996, -0.087, 0.087, 0.996, 1505.762, 1095.195)"><line class="b" x2="10.009" transform="translate(0 0)"/></g><g transform="translate(1470.019 1041.01) rotate(-9)"><path class="a" d="M21.849.26,15.665,0,9.826,19,3.249,8.228,0,8.092"/></g><g transform="translate(1515.5 1118.162)"><path class="a" d="M1608.227,1082.913h-13.275l8.722,10.54-9.1,10.54h13.658" transform="translate(-1594.57 -1082.913)"/></g><g transform="translate(-294.842 -66.766) rotate(-10)"><path class="a" d="M1451.331,1386.99a41.293,41.293,0,0,0,24.6-10.454c-2.008-1.789-5.218-2.469-6.251-2.688"/><path class="a" d="M1454.672,1363.848a19.189,19.189,0,0,0-2.082-5.9,28.669,28.669,0,0,0-7.932,22.366"/><path class="a" d="M1471.774,1351.1c1.24-2.166,2.415-5.968,1.659-7.833-2.253-.435-13.144,6.509-20.091,17.571"/><path class="a" d="M1472.3,1374.4c20.826-7.355,10.642-12.41,25.743-31.379-7.833-1.659-15.572-2.957-25.159,2.856"/><path class="a" d="M1478.778,1356.3c-10.057,6.556-30.719,23.21-38.123,38.7"/></g><g transform="translate(155.094 -269.971) rotate(9)"><path class="a" d="M1555.45,1079.46c4.052,0,6.646-2.594,6.646-7.66v-15.9c0-5.066,2.594-7.66,6.646-7.66"/></g><g transform="translate(122.439 -186.703)"><line class="a" x2="1.098" y2="1.489" transform="translate(1384.653 1155.015)"/><line class="a" x2="1.098" y2="1.489" transform="translate(1389.208 1161.191)"/><line class="a" y1="1.098" x2="1.489" transform="translate(1383.647 1160.576)"/><line class="a" y1="1.098" x2="1.489" transform="translate(1389.823 1156.021)"/></g><g transform="translate(89.115 -341.061) rotate(3)"><path class="a" d="M1707.58,1262.079a31.687,31.687,0,0,0,28.961-24.149c2.292-9.476.05-18.04-3.212-22.589m-22.372,4.213a12.287,12.287,0,0,1-5.913-2.318c-3.3-2.42-6.768-7.661-13.192-9.09-7.455-1.656-14.762,3.491-16.488,15.677-1.3,9.182,4.91,26.715,16.533,34.344" transform="translate(0 -2.007)"/><path class="a" d="M1721.918,1215.9c-2.7,2.776-23.591,47.452-24.169,49.72a2.223,2.223,0,1,0,3.935,2.053c1.529-1.772,26.229-44.461,26.961-48.263" transform="translate(-2.997 -3.083)"/><path class="a" d="M1730.868,1192.83c6.4,3.415,8.571,8.443,8.737,12.306.226,5.246-3.012,7.683-6.151,7.819s-6.173-1.668-6.381-6.505S1732.118,1198.857,1730.868,1192.83Z" transform="translate(-6.933)"/><circle class="a" cx="4.355" cy="4.355" r="4.355" transform="translate(1685.099 1212.004)"/><circle class="a" cx="4.355" cy="4.355" r="4.355" transform="translate(1681.655 1225.26)"/><circle class="a" cx="4.355" cy="4.355" r="4.355" transform="translate(1688.342 1236.855)"/><path class="a" d="M1732.322,1233.389a4.355,4.355,0,1,1-2.849,5.461" transform="translate(-7.255 -5.394)"/></g></g></svg>