<svg xmlns="http://www.w3.org/2000/svg" width="554.333" height="405.101" viewBox="0 0 554.333 405.101"><defs><style>.a,.d,.f{fill:none;}.a,.b,.d{stroke:#0073ff;stroke-linecap:round;stroke-linejoin:round;stroke-width:2px;}.b{fill:#fff;}.c{fill:#0073ff;}.d{stroke-miterlimit:10;}.e{stroke:none;}</style></defs><g transform="translate(-15.002 -825.952)"><g transform="translate(-118.731 -426.344)"><line class="a" x2="0.799" y2="1.084" transform="translate(200.168 1274.446)"/><line class="a" x2="0.799" y2="1.084" transform="translate(203.484 1278.943)"/><line class="a" y1="0.799" x2="1.084" transform="translate(199.435 1278.495)"/><line class="a" y1="0.799" x2="1.084" transform="translate(203.932 1275.179)"/></g><g class="b" transform="translate(203.208 825.952)"><circle class="e" cx="1.957" cy="1.957" r="1.957"/><circle class="f" cx="1.957" cy="1.957" r="0.957"/></g><g transform="translate(187.269 -204.807)"><g transform="translate(248.07 1311.131)"><path class="a" d="M372.307,1389.708a89.386,89.386,0,0,1-114.745-10.389c-3.149-3.158-3.385-7.72-.8-9.8h0c2.592-2.089,6.652-1.358,9.318,1.3a77.35,77.35,0,0,0,99.375,9c3.095-2.137,6.478-2.2,8.65.323h0C376.275,1382.656,375.973,1387.164,372.307,1389.708Z" transform="translate(-247.813 -1309.009)"/><path class="a" d="M287.5,1327.659a20.388,20.388,0,0,0-39.431,7.239c-.008,3.6,1.067,7.378,3.726,9.807s7.108,3.039,9.866.723c3.641-3.06,2.767-9.067,5.551-12.924a7.9,7.9,0,0,1,13.085.409" transform="translate(-248.07 -1311.003)"/><path class="a" d="M305.948,1330.007c-3.71,1.918-6.164,7.242-5.8,11.4a13.878,13.878,0,0,0,6.518,10.185,17.116,17.116,0,0,0,11.269,2.57,18.6,18.6,0,0,0,9.959-3.727,12.808,12.808,0,0,0,4.956-9.213c.157-3.592-.221-7.4-3.393-9.088" transform="translate(-246.139 -1310.43)"/><path class="a" d="M278.374,1383.32c9.438-9.512,22.124-14.981,36.512-13.678,14.63,1.324,26.3,9.223,33.84,20.576a77.919,77.919,0,0,0,11.8-5.957,34.213,34.213,0,0,1-9.989-21.69c-.582-8.483-.359-17.156,5.95-24.134.6,9.422,10.206,9,12.278,10.707,1.282,1.06,5.451,6.5,8.527,4.044,3.911-3.122,3.992-9.2.4-15.062-2.739-4.467-2.328-7.327-4.987-11.478s-5.679-3.294-7.417-5.037c-1.657-1.661-1.314-6.477-1.593-8.765a1.947,1.947,0,0,0-3.614-.746l-5.053,8.669c-5.051-2.327-10.247.514-14.549,4.039-3.268,2.678-6.271,5.88-9.84,8.029a19.553,19.553,0,0,1-12.715,3.258,17.655,17.655,0,0,1-11.732-6.007,18.22,18.22,0,0,0-20.548-1.709,12.35,12.35,0,0,0-3.987,2.485,13.572,13.572,0,0,0-3.439,5.442,18.182,18.182,0,0,0-.929,13.736c.4,4.2.934,8.4.3,12.56a16.55,16.55,0,0,1-2.977,7.38c-.938,1.241-5.925,3.842-6.172,4.755a2.009,2.009,0,0,0,.005.936A77.879,77.879,0,0,0,278.374,1383.32Z" transform="translate(-247.316 -1311.131)"/><g class="a" transform="translate(96.308 21.135)"><circle class="e" cx="2.51" cy="2.51" r="2.51"/><circle class="f" cx="2.51" cy="2.51" r="1.51"/></g></g><g class="a" transform="translate(363.934 1329.219)"><circle class="e" cx="2.423" cy="2.423" r="2.423"/><circle class="f" cx="2.423" cy="2.423" r="1.423"/></g></g><g transform="matrix(0.259, 0.966, -0.966, 0.259, 1577.278, 517.607)"><g transform="translate(200.359 1274.446)"><line class="a" x2="1.008" y2="1.367"/><line class="a" x2="1.008" y2="1.367" transform="translate(4.183 5.671)"/></g><g transform="translate(199.435 1275.37)"><line class="a" y1="1.008" x2="1.367" transform="translate(0 4.183)"/><line class="a" y1="1.008" x2="1.367" transform="translate(5.671)"/></g></g><path class="a" d="M204.972,1163.344l.348,4.482,4.138-.321" transform="matrix(0.998, 0.07, -0.07, 0.998, 147.081, -158.959)"/><g transform="translate(93.269 -274.344)"><g transform="translate(79.472 1179.296)"><path class="c" d="M82.086,1204.671l-3.893.49,7.708-26.433,3.186-.4,13.922,23.707-3.965.5-3.324-5.839-11.895,1.5Zm2.588-9.714,9.381-1.183L87.9,1182.61Z" transform="translate(-78.193 -1178.326)"/></g><rect class="a" width="41.562" height="41.562" rx="2.617" transform="translate(67.132 1175.132) rotate(-7.185)"/></g><g transform="translate(-2.588 -262.18) rotate(-7)"><g transform="translate(118.77 1237.597)"><path class="c" d="M120.277,1239.1l6.767-.483c2.968-.211,6.245.781,6.512,4.525a4.344,4.344,0,0,1-3.135,4.517l0,.055a4.633,4.633,0,0,1,4.695,4.461c.27,3.771-2.874,5.808-6.98,6.1l-6.461.461Zm3.337,8.1,3.578-.255c2.106-.15,3.79-1.191,3.637-3.326-.15-2.108-1.9-2.819-4.509-2.633l-3.134.224Zm.643,9.013,3.439-.245c2.329-.166,4.829-1.069,4.639-3.731-.164-2.3-1.872-3.185-4.867-2.971l-3.689.263Z" transform="translate(-120.277 -1238.585)"/></g><rect class="a" width="32.388" height="32.388" rx="2.617" transform="translate(108.744 1233.325) rotate(-4.081)"/></g><g transform="translate(203.269 -271.514)"><g transform="translate(176.548 1214.378)"><path class="c" d="M196.291,1236.244a11.074,11.074,0,0,1-9.882,2.762,12.335,12.335,0,0,1-10.456-14.792c1.285-7.48,7.64-11.616,14.916-10.366,3.283.565,6.616,2.461,7.958,5.2l-2.989,1.577a7.585,7.585,0,0,0-5.475-3.832c-5.551-.953-9.854,2.8-10.756,8.047-.924,5.382,1.831,10.246,7.346,11.193a7.693,7.693,0,0,0,6.978-2.078Z" transform="translate(-175.736 -1213.627)"/></g><rect class="a" width="40" height="40" rx="2.617" transform="matrix(0.986, 0.169, -0.169, 0.986, 171.487, 1203.435)"/></g><g transform="translate(-310.233 -282.068) rotate(-16)"><path class="a" d="M50.038,1288.906c-9.038,6.142-19.852,4.718-25.994-4.321s-3.485-19.617,5.554-25.759,35.7-2.273,35.7-2.273S59.077,1282.764,50.038,1288.906Z" transform="translate(-0.379)"/><line class="a" x1="46.76" y2="31.775" transform="translate(18.158 1256.553)"/><g transform="translate(33.324 1271.116)"><line class="a" x2="13.778" y2="4.327" transform="translate(0 6.906)"/><line class="a" x2="8.545" y2="2.683" transform="translate(10.162)"/></g><g transform="translate(33.324 1262.183)"><line class="a" y1="14.403" x2="1.05" transform="translate(0 1.436)"/><line class="a" y1="8.933" x2="0.651" transform="translate(10.162)"/></g></g><g transform="translate(1.269 -329.344)"><path class="a" d="M53.364,1363.388a11.214,11.214,0,1,0,11.214-11.215A11.167,11.167,0,0,0,53.364,1363.388Z"/><path class="a" d="M54.758,1357.969,50.6,1347.125l8.748,6.377"/><path class="a" d="M74.6,1357.969l4.493-10.213L69.81,1353.5"/><path class="a" d="M33.5,1398.354s-11.079,5.579-16.868-2.333c-6.713-9.175,7.119-16.243-.1-25.15"/><path class="a" d="M70.051,1375.849v21.038c2.88,0,5.284,1.728,5.284,4.578,0,3.786-1.364,4.629-5.556,4.629H53.364"/><path class="a" d="M56.185,1370.825c-7.192,0-23.373,15.558-22.709,27.253"/><path class="a" d="M50.952,1389.374c3.247,0,6.749,3.36,6.749,7.2v2.362s.412,7.161-7.6,7.161H40.879c-5.952,0-7.383-1.132-7.383-6.774"/></g><g transform="matrix(0.985, -0.174, 0.174, 0.985, -340.168, -100.002)"><line class="a" x2="8.079" transform="translate(257.285 1208.713)"/><line class="a" x2="19.487" transform="translate(297.077 1208.713)"/><rect class="a" width="6.343" height="19.778" rx="2.472" transform="translate(271.706 1198.824)"/><rect class="a" width="6.343" height="19.778" rx="2.472" transform="translate(265.363 1198.824)"/><rect class="a" width="6.343" height="19.778" rx="2.472" transform="translate(278.049 1198.824)"/><rect class="a" width="6.343" height="19.778" rx="2.472" transform="translate(290.735 1198.824)"/><rect class="a" width="6.343" height="19.778" rx="2.472" transform="translate(316.564 1198.824)"/><rect class="a" width="6.343" height="19.778" rx="2.472" transform="translate(284.392 1198.824)"/><line class="a" x2="16.381" transform="translate(257.285 1235.853)"/><line class="a" x2="10.786" transform="translate(292.694 1235.853)"/><line class="a" x2="5.606" transform="translate(316.166 1235.853)"/><rect class="a" width="6.343" height="19.778" rx="2.472" transform="translate(286.351 1225.964)"/><rect class="a" width="6.343" height="19.778" rx="2.472" transform="translate(273.666 1225.964)"/><rect class="a" width="6.343" height="19.778" rx="2.472" transform="translate(303.48 1225.964)"/><rect class="a" width="6.343" height="19.778" rx="2.472" transform="translate(309.823 1225.964)"/><rect class="a" width="6.343" height="19.778" rx="2.472" transform="translate(280.009 1225.964)"/><rect class="a" width="6.343" height="19.778" rx="2.472" transform="translate(321.772 1225.964)"/><rect class="a" width="6.343" height="19.778" rx="2.472" transform="translate(334.458 1225.964)"/><rect class="a" width="6.343" height="19.778" rx="2.472" transform="translate(328.115 1225.964)"/><line class="a" x2="13.21" transform="translate(257.285 1262.993)"/><line class="a" x2="13.21" transform="translate(283.18 1262.993)"/><line class="a" x2="14.323" transform="translate(302.732 1262.993)"/><line class="a" x2="11.38" transform="translate(336.256 1262.993)"/><rect class="a" width="6.343" height="19.778" rx="2.472" transform="translate(276.837 1253.105)"/><rect class="a" width="6.343" height="19.778" rx="2.472" transform="translate(270.494 1253.105)"/><rect class="a" width="6.343" height="19.778" rx="2.472" transform="translate(317.228 1253.105)"/><rect class="a" width="6.343" height="19.778" rx="2.472" transform="translate(296.39 1253.105)"/><rect class="a" width="6.343" height="19.778" rx="2.472" transform="translate(329.913 1253.105)"/><rect class="a" width="6.343" height="19.778" rx="2.472" transform="translate(323.571 1253.105)"/><path class="a" d="M332.243,1295.335H272.678a15.438,15.438,0,0,1-15.393-15.393v-88.178a15.438,15.438,0,0,1,15.393-15.393h59.565a15.438,15.438,0,0,1,15.393,15.393v88.178A15.438,15.438,0,0,1,332.243,1295.335Z" transform="translate(0 0)"/><line class="a" x2="6.836" transform="translate(340.8 1235.853)"/><line class="a" x2="24.729" transform="translate(322.907 1208.713)"/></g><g transform="translate(109.169 -259.73)"><g transform="translate(74.885 1464.399)"><rect class="a" width="55.627" height="20.371" transform="translate(55.627 25.026) rotate(180)"/><g transform="translate(8.215)"><rect class="a" width="7.159" height="4.656" transform="translate(39.197 4.656) rotate(180)"/><rect class="a" width="7.159" height="4.656" transform="translate(23.178 4.656) rotate(180)"/><rect class="a" width="7.159" height="4.656" transform="translate(7.159 4.656) rotate(180)"/></g></g><g transform="translate(121.302 1444.73)"><rect class="a" width="55.627" height="20.371" transform="translate(48.816 44.695) rotate(-151.348)"/><g transform="translate(16.977)"><rect class="a" width="7.159" height="4.656" transform="translate(34.397 22.88) rotate(-151.348)"/><rect class="a" width="7.159" height="4.656" transform="translate(20.34 15.199) rotate(-151.348)"/><rect class="a" width="7.159" height="4.656" transform="translate(6.283 7.519) rotate(-151.348)"/></g></g></g><path class="d" d="M51.948,23.1,43.637,33.624a2.378,2.378,0,0,0-.406,2.182l3.957,12.816a2.38,2.38,0,0,1-3.105,2.933L31.511,46.9a2.4,2.4,0,0,0-2.2.284L18.35,54.9a2.385,2.385,0,0,1-3.755-2.04l.538-13.394a2.375,2.375,0,0,0-.954-2L3.454,29.434a2.383,2.383,0,0,1,.781-4.2L17.143,21.6a2.4,2.4,0,0,0,1.613-1.522L23.079,7.383a2.382,2.382,0,0,1,4.231-.558l7.438,11.152A2.389,2.389,0,0,0,36.7,19.033l13.4.193A2.4,2.4,0,0,1,51.948,23.1Z" transform="translate(286.363 837.519) rotate(19)"/><g transform="translate(158.299 -260.283)"><g transform="translate(105.701 1293.283)"><path class="a" d="M184.805,1369.135v34.49h-6.693a19.391,19.391,0,0,0-38.781,0h-6.693v-34.49Z" transform="translate(-107.598 -1298.624)"/><rect class="a" width="25.04" height="34.489" transform="translate(77.207 70.511)"/><rect class="a" width="29.223" height="33.095" transform="translate(34.576 70.511) rotate(-90)"/><path class="a" d="M213.8,1367.737h-25.04l12.52-18.457Z" transform="translate(-111.55 -1297.226)"/><rect class="a" width="25.04" height="34.489" transform="translate(0 70.511)"/><path class="a" d="M130.741,1367.737H105.7l12.52-18.457Z" transform="translate(-105.701 -1297.226)"/><path class="a" d="M181.79,1334.571H136.148l22.821-41.288Z" transform="translate(-107.845 -1293.283)"/><circle class="a" cx="5.175" cy="5.175" r="5.175" transform="translate(45.948 51.59)"/></g></g><g transform="translate(-388.844 -259.586)"><line class="a" x2="9.175" y2="20.303" transform="translate(433.345 1400.247)"/><line class="a" y1="5.132" x2="11.357" transform="translate(427.624 1397.586)"/><path class="a" d="M513.741,1460.99c-3.606-15.709-22.351-27.684-44.948-27.684s-41.343,11.975-44.949,27.684Z"/><line class="a" x2="2.536" transform="translate(445.324 1449.086)"/><line class="a" x2="2.536" transform="translate(484.434 1451.831)"/><line class="a" x1="2.231" transform="translate(461.466 1443.022)"/><line class="a" x2="1.551" transform="translate(458.917 1451.831)"/><line class="a" x2="1.551" transform="translate(477.779 1445.895)"/><path class="a" d="M439.783,1440.9l-5.526-12.228a4,4,0,0,1,2-5.292l12.53-5.662a4,4,0,0,1,5.292,2l6.391,14.142"/></g></g></svg>