<svg xmlns="http://www.w3.org/2000/svg" width="578.051" height="367.279"><defs><style>.a,.b{fill:none;stroke:#0073ff;stroke-linecap:round;stroke-linejoin:round;stroke-width:2px}.b{fill:#fff}</style></defs><g transform="translate(466.08 127.587)"><circle class="a" cx="49.972" cy="49.972" r="49.972" transform="translate(0 7.828)"/><path class="a" d="M82.843 6.439a60.95 60.95 0 0 1-64.533 103.41m5.79-9.288l-10.096 16.174M86.874 0l-9.85 15.779m-31.887 102.72l-.176 13.065m10.022-13.065l-.176 13.065m-18.008 1.598h26.346a5.04 5.04 0 0 1 5.04 5.04v5.2H31.759v-5.2a5.04 5.04 0 0 1 5.04-5.04z"/><path class="a" d="M24.755 16.588c.9-1.233 2.969-.2 3.563 1.209s.532 3.089 1.437 4.319a6.568 6.568 0 0 0 3.518 1.987l11.448 3.593 2.909.913 4.041 1.267a23.239 23.239 0 0 0 7.7 1.486c2.887-.1 5.572-1.263 8.24-2.252 2.606-.966 6.613-3.248 8.41-.454 2.2 3.42 3.4 8.93 3.653 12.931.3 4.771-1.218 9.925-5.027 12.812a10.362 10.362 0 0 0-2.678-4.811 16.649 16.649 0 0 1-3.184-4.544c-.673-1.733-.543-3.935.847-5.17l-5.921 2.789c-2.739 1.291-5.86 3.106-6.1 6.122a4.744 4.744 0 0 1 4.295 3.313 5.033 5.033 0 0 1-.827 4.16c-.776 1.3-1.266 2.638-2.021 4.019-.837 1.536-1.014 1.209-2.446 1.76a5.647 5.647 0 0 0-3.945 4.9c-.058 1.411.446 2.8.426 4.208s-.873 3.023-2.283 3.084c-1.274.055-2.223-1.157-2.753-2.317s-.951-2.487-2.024-3.175c-1.849-1.187-4.418.438-5.145 2.511s-.254 4.344-.072 6.534-.069 4.683-1.767 6.077c-1.575 1.294-3.835 1.194-5.866 1.027-1.452-.119-4.188-1.007-5.1.488-.933 1.526.846 3.287 1.3 4.626a3.673 3.673 0 0 1-6.118 3.741 19.11 19.11 0 0 0-2.7-5.437 6.463 6.463 0 0 0-5.23-2.656c-2.03.131-3.965 1.934-3.772 3.958m55.549-34.533a9.785 9.785 0 0 1-2.963 7.07m-8.705 16.361a6.9 6.9 0 0 1 4.364-2.434 10.63 10.63 0 0 0 3.671-2.06 5.408 5.408 0 0 0 1.244-5.591M43.028 91.886a3.506 3.506 0 0 0 3.494 4.473m8.251.673a7.1 7.1 0 0 1 5.876 2.272m16.836-80.93c-.993 2.059.121 4.567 1.734 6.186s3.694 2.714 5.3 4.341a11.262 11.262 0 0 1 2.1 12.406 53.871 53.871 0 0 1 2.64-9.351"/></g><path class="a" d="M296.325 148.644c-7.648 2.477-14.97 6.233-19.948 10.577 7.028 25.649 18.872 34.078 34.586 35.959a.033.033 0 0 0 .026-.009 42.957 42.957 0 0 0 5.546-6.593"/><path class="a" d="M289.914 170.626c.474 1.388 3.773 1.4 6.934.319a14.952 14.952 0 0 0 2.481-1.108m55.988-37.915c-15.008-6.1-39.484-6.1-54.492 0-2.127 34.064 8.82 49.216 27.228 58.024a.045.045 0 0 0 .036 0c18.408-8.808 29.355-23.961 27.228-58.024z"/><path class="a" d="M321.859 152.191a7.051 7.051 0 0 0-5.832-3.547c-2.309 0-4.078 1.9-4.816 3.549m23.072-.002a7.051 7.051 0 0 1 5.832-3.547c2.309 0 4.078 1.9 4.816 3.549m-28.392 15.973s4.743 7.1 11.541 7.1 11.531-7.1 11.531-7.1m-17.798 58.354v54.453m-23.463-36.018v36.018m45.249-36.018v36.018m-45.76-52.752a4.5 4.5 0 0 1 2.234 5.96 6.08 6.08 0 0 1-8.05 3.019 8.214 8.214 0 0 1-4.079-10.877 11.1 11.1 0 0 1 14.693-5.509c5.9 2.682 7.443 8.458 7.443 14.821v45.338m35.706-52.752a4.5 4.5 0 0 0-2.235 5.96 6.081 6.081 0 0 0 8.051 3.019 8.215 8.215 0 0 0 4.078-10.877 11.1 11.1 0 0 0-14.693-5.509c-5.9 2.682-7.443 8.458-7.443 14.821v45.338m-46.925-69.536h70.388M60.744 331.174c-15.4-15.4-30.57 5.932-51 0v-63.395c21.035 5.476 38.856-18.828 51 0zm.142 0c15.4-15.4 30.57 5.932 51 0v-63.395c-21.035 5.476-38.856-18.828-51 0z"/><path class="a" d="M1 268.315v72.476c27.111 7.55 42.175-16.052 59.888 0 17.713-16.052 32.776 7.55 59.888 0v-72.476"/><g class="b" transform="translate(130.783 190.667)"><ellipse cx="1.9" cy="1.9" rx="1.9" ry="1.9"/><ellipse cx="1.9" cy="1.9" rx=".9" ry=".9" fill="none"/></g><path d="M26.319 288.111l-2.1.712 1.277-15.513 1.719-.583 10.4 11.553-2.14.726-2.5-2.857-6.418 2.177zm.335-5.672l5.061-1.718-4.672-5.486zm48.794-56.468l4.373-2.183c1.918-.958 4.373-1.2 5.581 1.221a3.13 3.13 0 0 1-.844 3.87l.018.036a3.339 3.339 0 0 1 4.354 1.678c1.217 2.437-.318 4.658-2.97 5.983l-4.176 2.084zm4.45 4.474l2.313-1.155c1.361-.68 2.2-1.836 1.506-3.216-.679-1.363-2.041-1.355-3.726-.513l-2.026 1.011zm2.908 5.825l2.223-1.11c1.506-.751 2.922-2.04 2.063-3.76-.744-1.488-2.123-1.605-4.059-.639l-2.384 1.19zm46.936-7.051a5.324 5.324 0 0 1-4.932-.157 6.144 6.144 0 1 1 5.67-10.9 5.276 5.276 0 0 1 2.9 3.533l-1.6.293a3.648 3.648 0 0 0-1.959-2.547 4.433 4.433 0 0 0-6.1 2.144 4.379 4.379 0 0 0 1.759 6.193 3.7 3.7 0 0 0 3.5.051z" fill="#0073ff"/><g transform="translate(-1250.561 -1041.576)"><path class="a" d="M1676.996 1407.854a36.093 36.093 0 0 1-4.127-13.037 40.871 40.871 0 0 1 .537-12.551 45.31 45.31 0 0 1 3.893-11.579l.375-.735m33.162-18.362a36.075 36.075 0 0 1-9.228 10.092 40.892 40.892 0 0 1-11.136 5.812 45.358 45.358 0 0 1-11.974 2.417l-.824.043"/><path class="a" d="M1645.19 1350.417a36.049 36.049 0 0 1 13.354 2.944 40.853 40.853 0 0 1 10.6 6.739 45.3 45.3 0 0 1 8.081 9.161l.449.692"/><circle class="a" cx="37.795" cy="37.795" r="37.795" transform="translate(1639.925 1332.165)"/><path class="a" d="M1703.686 1360.015a34.44 34.44 0 0 1-2.025 1.631 39.469 39.469 0 0 1-8.747 4.906 53.874 53.874 0 0 0-39.6-25.418 37.7 37.7 0 0 1 9.58-5.958 53.858 53.858 0 0 1 40.792 24.839zm-30.373 37.038c-.168-.844-.3-1.708-.4-2.569a39.457 39.457 0 0 1 .126-10.027 53.879 53.879 0 0 0 41.814-21.588 37.715 37.715 0 0 1 .37 11.276 53.86 53.86 0 0 1-41.91 22.908zm-17.408-44.818c.814.278 1.627.6 2.425.938a39.387 39.387 0 0 1 8.622 5.122 53.875 53.875 0 0 0-2.212 47.006 37.713 37.713 0 0 1-9.95-5.318 53.859 53.859 0 0 1 1.115-47.748z"/></g><g transform="translate(-1382.561 -1054.115)"><ellipse class="a" cx="6.89" cy="5.354" rx="6.89" ry="5.354" transform="rotate(-30 2940.634 -2529.04)"/><path class="a" d="M1673.663 1131.184v-28.779"/><ellipse class="a" cx="6.89" cy="5.354" rx="6.89" ry="5.354" transform="rotate(-30 2943.266 -2575.696)"/><path class="a" d="M1697.344 1126.249v-28.779m0 0l-23.681 4.934"/></g><g transform="translate(-1268.791 -1039.115)"><ellipse class="a" cx="4.978" cy="3.868" rx="4.978" ry="3.868" transform="rotate(-30 2908.847 -2792.079)"/><path class="a" d="M1796.714 1080.135v-20.793"/><ellipse class="a" cx="4.978" cy="3.868" rx="4.978" ry="3.868" transform="rotate(-30 2910.75 -2825.789)"/><path class="a" d="M1813.823 1076.57v-20.793m.001 0l-17.11 3.565"/></g><g transform="translate(-1324.331 -1077.115)"><ellipse class="a" cx="4.855" cy="3.773" rx="4.855" ry="3.773" transform="rotate(-30 2925.353 -2688.976)"/><path class="a" d="M1747.104 1102.206v-20.28m7.289-3.478l-7.289 3.477"/></g><path class="b" d="M161.909 235.389l-2.268 12.862m-5.297-7.565l12.863 2.268"/><path class="a" d="M244.442 187.849l.51 6.575 6.069-.471"/><path class="b" d="M203.762 222.783l9.969-.87"/><path class="a" d="M189.64 165.437l-6.149.71-2.795 19.68-8.18-9.61-3.231.373m57.872 69.16h-13.275l8.722 10.54-9.1 10.54h13.658M73.288 174.72A41.293 41.293 0 0 0 95.7 160.153c-2.288-1.414-5.567-1.526-6.623-1.562m-16.517-7.242a19.189 19.189 0 0 0-3.075-5.449 28.669 28.669 0 0 0-3.928 23.404"/><path class="a" d="M87.188 135.825c.846-2.349 1.342-6.297.274-8.002-2.294-.037-11.814 8.692-16.734 20.793"/><path class="a" d="M91.753 158.68c19.232-10.86 8.325-14.07 19.903-35.373-8.003-.274-15.85-.208-24.281 7.181m7.615 9.242c-8.767 8.202-26.223 28.191-30.825 44.732m156.365-17.349c4.001.634 6.969-1.522 7.762-6.526l2.487-15.704c.792-5.004 3.76-7.16 7.762-6.526M205.092 95.9l1.098 1.489m3.457 4.687l1.098 1.489m-6.659-1.006l1.489-1.098m4.687-3.457l1.489-1.098"/><g transform="rotate(3 22563.89 -23765.841)"><path class="a" d="M1707.58 1260.072a31.687 31.687 0 0 0 28.961-24.149c2.292-9.476.05-18.04-3.212-22.589m-22.372 4.213a12.287 12.287 0 0 1-5.913-2.318c-3.3-2.42-6.768-7.661-13.192-9.09-7.455-1.656-14.762 3.491-16.488 15.677-1.3 9.182 4.91 26.715 16.533 34.344m27.024-43.343c-2.7 2.776-23.591 47.452-24.169 49.72a2.223 2.223 0 1 0 3.935 2.053c1.529-1.772 26.229-44.461 26.961-48.263m-1.713-23.497c6.4 3.415 8.571 8.443 8.737 12.306.226 5.246-3.012 7.683-6.151 7.819s-6.173-1.668-6.381-6.505 5.045-7.593 3.795-13.62z"/><circle class="a" cx="4.355" cy="4.355" r="4.355" transform="translate(1685.099 1212.004)"/><circle class="a" cx="4.355" cy="4.355" r="4.355" transform="translate(1681.655 1225.26)"/><circle class="a" cx="4.355" cy="4.355" r="4.355" transform="translate(1688.342 1236.855)"/><path class="a" d="M1725.067 1227.995a4.355 4.355 0 1 1-2.849 5.461"/></g></svg>