<svg xmlns="http://www.w3.org/2000/svg" width="107.921" height="59.824"><defs><style>.a{fill:none;stroke:#0073ff;stroke-linecap:round;stroke-linejoin:round;stroke-width:2px}</style></defs><path class="a" d="M87.623 46.721a51.42 51.42 0 01-66.278 0c-1.968-1.646-2.34-4.247-.967-5.573 1.376-1.332 3.74-1.124 5.406.264a44.5 44.5 0 0057.4 0c1.662-1.385 3.6-1.595 4.973-.264a3.771 3.771 0 01-.534 5.573zM35.568 14.442a11.729 11.729 0 00-22.216 6.193 7.566 7.566 0 002.644 5.425 4.469 4.469 0 005.689-.1c1.928-1.941 1.116-5.338 2.51-7.692a4.543 4.543 0 017.518-.445m15.681-2.765a7.245 7.245 0 00-2.729 6.833 7.981 7.981 0 004.262 5.5 9.849 9.849 0 006.589.888 10.692 10.692 0 005.513-2.652 7.368 7.368 0 002.362-5.535c-.1-2.066-.51-4.226-2.416-5.031"/><path class="a" d="M33.651 46.692a25.859 25.859 0 0140.663.3 44.791 44.791 0 006.455-4.025 19.675 19.675 0 01-6.848-11.908c-.774-4.83-1.1-9.811 2.156-14.136.833 5.367 6.314 4.624 7.59 5.5.79.541 3.46 3.441 5.095 1.875 2.079-1.992 1.81-5.478-.554-8.65-1.8-2.417-1.714-4.077-3.453-6.317s-3.425-1.593-4.511-2.5c-1.035-.866-1.089-3.643-1.367-4.94a1.12 1.12 0 00-2.11-.239l-2.445 5.229c-3.014-1.072-5.844.825-8.126 3.068a51.517 51.517 0 01-5.221 5.11 11.245 11.245 0 01-7.115 2.526 10.155 10.155 0 01-7.033-2.833 10.481 10.481 0 00-11.861.087 7.107 7.107 0 00-2.156 1.63 7.8 7.8 0 00-1.687 3.3 10.469 10.469 0 00.179 7.918 29.361 29.361 0 01.825 7.18 9.519 9.519 0 01-1.323 4.382c-.473.761-3.2 2.509-3.289 3.045a1.137 1.137 0 00.051.536 44.86 44.86 0 006.085 3.862z"/><g class="a" transform="translate(68.51 13.922)"><circle cx="1.444" cy="1.444" r="1.444"/><circle cx="1.444" cy="1.444" r=".444" fill="none"/></g><path class="a" d="M1 58.824h19.828m66.265 0h19.828"/></svg>