<svg xmlns="http://www.w3.org/2000/svg" width="107.921" height="59.824" viewBox="0 0 107.921 59.824">
  <g id="Toys" transform="translate(-927 -2654.995)">
    <g id="Group_2630" data-name="Group 2630" transform="translate(-3560.894 341.405)">
      <g id="Group_2629" data-name="Group 2629">
        <path id="Path_1626" data-name="Path 1626" d="M4575.517,2360.311a51.42,51.42,0,0,1-66.278,0c-1.968-1.646-2.34-4.247-.967-5.573h0c1.376-1.332,3.74-1.124,5.406.264a44.5,44.5,0,0,0,57.4,0c1.662-1.385,3.6-1.595,4.973-.264h0A3.771,3.771,0,0,1,4575.517,2360.311Z" fill="none" stroke="#0073ff" stroke-linecap="round" stroke-linejoin="round" stroke-width="2"/>
        <path id="Path_1627" data-name="Path 1627" d="M4523.462,2328.032a11.729,11.729,0,0,0-22.216,6.193,7.566,7.566,0,0,0,2.644,5.425,4.469,4.469,0,0,0,5.689-.1c1.928-1.941,1.116-5.338,2.51-7.692a4.543,4.543,0,0,1,7.518-.445" fill="none" stroke="#0073ff" stroke-linecap="round" stroke-linejoin="round" stroke-width="2"/>
        <path id="Path_1628" data-name="Path 1628" d="M4535.288,2328.648a7.245,7.245,0,0,0-2.729,6.833,7.981,7.981,0,0,0,4.262,5.5,9.849,9.849,0,0,0,6.589.888,10.692,10.692,0,0,0,5.513-2.652,7.368,7.368,0,0,0,2.362-5.535c-.1-2.066-.51-4.226-2.416-5.031" fill="none" stroke="#0073ff" stroke-linecap="round" stroke-linejoin="round" stroke-width="2"/>
        <path id="Path_1629" data-name="Path 1629" d="M4521.545,2360.282a25.859,25.859,0,0,1,40.663.3,44.791,44.791,0,0,0,6.455-4.025,19.675,19.675,0,0,1-6.848-11.908c-.774-4.83-1.1-9.811,2.156-14.136.833,5.367,6.314,4.624,7.59,5.5.79.541,3.46,3.441,5.095,1.875,2.079-1.992,1.81-5.478-.554-8.65-1.8-2.417-1.714-4.077-3.453-6.317s-3.425-1.593-4.511-2.5c-1.035-.866-1.089-3.643-1.367-4.94a1.12,1.12,0,0,0-2.11-.239l-2.445,5.229c-3.014-1.072-5.844.825-8.126,3.068a51.517,51.517,0,0,1-5.221,5.11,11.245,11.245,0,0,1-7.115,2.526,10.155,10.155,0,0,1-7.033-2.833,10.481,10.481,0,0,0-11.861.087,7.107,7.107,0,0,0-2.156,1.63,7.8,7.8,0,0,0-1.687,3.3,10.469,10.469,0,0,0,.179,7.918,29.361,29.361,0,0,1,.825,7.18,9.519,9.519,0,0,1-1.323,4.382c-.473.761-3.2,2.509-3.289,3.045a1.137,1.137,0,0,0,.051.536A44.86,44.86,0,0,0,4521.545,2360.282Z" fill="none" stroke="#0073ff" stroke-linecap="round" stroke-linejoin="round" stroke-width="2"/>
        <g id="Ellipse_353" data-name="Ellipse 353" transform="translate(4556.404 2327.512)" fill="none" stroke="#0073ff" stroke-linecap="round" stroke-linejoin="round" stroke-width="2">
          <circle cx="1.444" cy="1.444" r="1.444" stroke="none"/>
          <circle cx="1.444" cy="1.444" r="0.444" fill="none"/>
        </g>
      </g>
      <line id="Line_1654" data-name="Line 1654" x2="19.828" transform="translate(4488.894 2372.414)" fill="none" stroke="#0073ff" stroke-linecap="round" stroke-linejoin="round" stroke-width="2"/>
      <line id="Line_1655" data-name="Line 1655" x2="19.828" transform="translate(4574.987 2372.414)" fill="none" stroke="#0073ff" stroke-linecap="round" stroke-linejoin="round" stroke-width="2"/>
    </g>
  </g>
</svg>
