<svg xmlns="http://www.w3.org/2000/svg" width="89.991" height="71.621" viewBox="0 0 89.991 71.621"><g transform="translate(-915 -11577.997)"><g transform="translate(-5715.854 6724.48)"><path d="M6664.22,4888.511v28.811h-21.063v-4h5.015a1.371,1.371,0,0,0,1.371-1.371v-5.77h1.193v-5.989a2.735,2.735,0,0,0-2.735-2.735h-2.739v-1.222a2.111,2.111,0,0,0-2.1-2.1h0v-5.619" fill="none" stroke="#0073ff" stroke-linecap="round" stroke-linejoin="round" stroke-width="2"/><path d="M6709.057,4900.167l3.974,10.155h-26.649l3.975-10.155v-2.089" fill="none" stroke="#0073ff" stroke-linecap="round" stroke-linejoin="round" stroke-width="2"/><line x1="0.086" y2="2.872" transform="translate(6647.491 4917.322)" stroke-width="2" stroke="#0073ff" stroke-linecap="round" stroke-linejoin="round" fill="none"/><line x1="0.616" y2="6.607" transform="translate(6650.798 4917.322)" stroke-width="2" stroke="#0073ff" stroke-linecap="round" stroke-linejoin="round" fill="none"/><path d="M6650.8,4923.929H6640.9s-.51-1.834.83-2.671c1.317-.822,5.709-.979,5.757-1.064h3.685" fill="none" stroke="#0073ff" stroke-linecap="round" stroke-linejoin="round" stroke-width="2"/><line x2="0.086" y2="2.872" transform="translate(6659.8 4917.322)" stroke-width="2" stroke="#0073ff" stroke-linecap="round" stroke-linejoin="round" fill="none"/><line x2="0.616" y2="6.607" transform="translate(6655.962 4917.322)" stroke-width="2" stroke="#0073ff" stroke-linecap="round" stroke-linejoin="round" fill="none"/><path d="M6656.579,4923.929h9.893s.511-1.834-.83-2.671c-1.316-.822-5.708-.979-5.756-1.064H6656.2" fill="none" stroke="#0073ff" stroke-linecap="round" stroke-linejoin="round" stroke-width="2"/><line x1="12.806" transform="translate(6651.414 4898.922)" stroke-width="2" stroke="#0073ff" stroke-linecap="round" stroke-linejoin="round" fill="none"/><line y2="18.399" transform="translate(6653.847 4898.922)" stroke-width="2" stroke="#0073ff" stroke-linecap="round" stroke-linejoin="round" fill="none"/><path d="M6658.469,4898.923c0,2.444,2.771,4.689,5.751,4.689" fill="none" stroke="#0073ff" stroke-linecap="round" stroke-linejoin="round" stroke-width="2"/><line x1="0.756" y1="13.763" transform="translate(6694.005 4910.322)" stroke-width="2" stroke="#0073ff" stroke-linecap="round" stroke-linejoin="round" fill="none"/><line y1="13.763" x2="0.756" transform="translate(6704.653 4910.322)" stroke-width="2" stroke="#0073ff" stroke-linecap="round" stroke-linejoin="round" fill="none"/><path d="M6704.9,4920.072s5.407.412,6.723,1.234c1.341.837.83,2.779.83,2.779h-7.8" fill="none" stroke="#0073ff" stroke-linecap="round" stroke-linejoin="round" stroke-width="2"/><path d="M6694.508,4920.039s-5.4.445-6.721,1.267c-1.34.837-.83,2.779-.83,2.779h7.8" fill="none" stroke="#0073ff" stroke-linecap="round" stroke-linejoin="round" stroke-width="2"/><path d="M6643.02,4867.974c-.037.347-.086.8-.086,1.162a11,11,0,0,0,22,0c0-.241-.021-.477-.037-.715a4.479,4.479,0,0,0-1.171-1.748" fill="none" stroke="#0073ff" stroke-linecap="round" stroke-linejoin="round" stroke-width="2"/><path d="M6664.528,4866.025c-.245.1-2.884,1.345-3.129,1.446a9,9,0,0,1-1.49-3.124c-2.191,2.231-5.18,3.148-9.539,3.148a17.905,17.905,0,0,1,.187-3.2c-2.813.833-7.43,1.85-9.783,6.872-3.529-15.739,11.514-19.906,19.461-14.241,4.136-2.026,8.1,1.549,8.1,5.579,0,4.167-.745,6.552-1.924,7.6A4.441,4.441,0,0,0,6664.528,4866.025Z" fill="none" stroke="#0073ff" stroke-linecap="round" stroke-linejoin="round" stroke-width="2"/><g transform="translate(6657.013 4870.211)" fill="none" stroke="#0073ff" stroke-linecap="round" stroke-linejoin="round" stroke-width="2"><circle cx="1.302" cy="1.302" r="1.302" stroke="none"/><circle cx="1.302" cy="1.302" r="0.302" fill="none"/></g><g transform="translate(6648.256 4870.211)" fill="none" stroke="#0073ff" stroke-linecap="round" stroke-linejoin="round" stroke-width="2"><circle cx="1.302" cy="1.302" r="1.302" stroke="none"/><circle cx="1.302" cy="1.302" r="0.302" fill="none"/></g><path d="M6689.182,4867.85a4.526,4.526,0,0,0-.038.632,11,11,0,0,0,22,0c0-.241-.021-.477-.037-.715" fill="none" stroke="#0073ff" stroke-linecap="round" stroke-linejoin="round" stroke-width="2"/><path d="M6687.71,4867.274c4.358,2.662,14.75-2.443,15.674-4.836,1.005,2.407,6.449,5.371,10.043,5.371,0-7.334-4.895-11.69-9.966-9.886C6698.984,4855.5,6689.392,4855.429,6687.71,4867.274Z" fill="none" stroke="#0073ff" stroke-linecap="round" stroke-linejoin="round" stroke-width="2"/><path d="M6711.149,4871.286c5.778,4.272-.47,7.847,7.065,12.314,2.72-4.347,1.608-10.822-.269-13.211-1.555-1.978-3.285-3.217-5.2-2.667" fill="none" stroke="#0073ff" stroke-linecap="round" stroke-linejoin="round" stroke-width="2"/><path d="M6689.066,4872.841c-4.523,4.053.762,7.524-6.38,11.763-2.722-4.345-1.614-10.822.262-13.211,1.554-1.979,3.283-3.219,5.2-2.67" fill="none" stroke="#0073ff" stroke-linecap="round" stroke-linejoin="round" stroke-width="2"/><g transform="translate(6703.223 4869.558)" fill="none" stroke="#0073ff" stroke-linecap="round" stroke-linejoin="round" stroke-width="2"><circle cx="1.302" cy="1.302" r="1.302" stroke="none"/><circle cx="1.302" cy="1.302" r="0.302" fill="none"/></g><g transform="translate(6694.466 4869.558)" fill="none" stroke="#0073ff" stroke-linecap="round" stroke-linejoin="round" stroke-width="2"><circle cx="1.302" cy="1.302" r="1.302" stroke="none"/><circle cx="1.302" cy="1.302" r="0.302" fill="none"/></g><path d="M6637.766,4897.458c0-2.84.621-3.257.621-3.257a33.77,33.77,0,0,1-.126-3.813c0-3.191,1.053-7.069,7.151-7.069h4.844l3.432,2.26,3.433-2.26h4.844c6.1,0,7.151,3.878,7.151,7.069,0,2.921-.126,7.313-.126,7.313s1.474,4.211.063,4.767h-4.114" fill="none" stroke="#0073ff" stroke-linecap="round" stroke-linejoin="round" stroke-width="2"/><line x2="2.03" transform="translate(6640.28 4909.607)" stroke-width="2" stroke="#0073ff" stroke-linecap="round" stroke-linejoin="round" fill="none"/><path d="M6648.023,4897.458h-2.764v1.2a1.226,1.226,0,0,1-1.226,1.227h-5.012a1.226,1.226,0,0,1-1.227-1.227v-1.2h-3.227a2.712,2.712,0,0,0-2.713,2.712v6.011h1.189v5.576a1.465,1.465,0,0,0,1.339,1.565h13.826a1.465,1.465,0,0,0,1.339-1.565v-5.576h1.189v-6.011A2.712,2.712,0,0,0,6648.023,4897.458Z" fill="none" stroke="#0073ff" stroke-linecap="round" stroke-linejoin="round" stroke-width="2"/><line x1="16.499" transform="translate(6633.043 4906.181)" stroke-width="2" stroke="#0073ff" stroke-linecap="round" stroke-linejoin="round" fill="none"/><line x1="3.603" transform="translate(6690.357 4900.167)" stroke-width="2" stroke="#0073ff" stroke-linecap="round" stroke-linejoin="round" fill="none"/><path d="M6705.548,4898.426a1.032,1.032,0,0,1-1.515-.448l-.91-2.078a1.033,1.033,0,0,1,.393-1.286l5.558-3.028v-6.2h-13.957v6.779l2.831-1.051a1.141,1.141,0,0,1,1.459.67l.736,1.949a1.143,1.143,0,0,1-.723,1.492l-4.3,1.363v8.081h13.957v-8.122Z" fill="none" stroke="#0073ff" stroke-linecap="round" stroke-linejoin="round" stroke-width="2"/><line y2="0.622" transform="translate(6709.075 4884.803)" stroke-width="2" stroke="#0073ff" stroke-linecap="round" stroke-linejoin="round" fill="none"/><path d="M6709.074,4891.586l-5.558,3.028a1.032,1.032,0,0,0-.393,1.286l.91,2.078a1.032,1.032,0,0,0,1.515.448l7.877-4.195a2.64,2.64,0,0,0,1.187-2.2v-7.692c0-1.443-2.464-2.643-9.069-2.907a6.7,6.7,0,0,1-8.766.006c-6.149.279-9.075,1.472-9.075,2.9v11.372a2.369,2.369,0,0,0,3.094,2.255l8.624-2.74a1.143,1.143,0,0,0,.723-1.492l-.736-1.949a1.142,1.142,0,0,0-1.459-.67l-6.327,2.357v-6.808" fill="none" stroke="#0073ff" stroke-linecap="round" stroke-linejoin="round" stroke-width="2"/></g></g></svg>