<svg xmlns="http://www.w3.org/2000/svg" width="96.419" height="68.773" viewBox="0 0 96.419 68.773"><g transform="translate(-689 -11579)"><rect width="31.46" height="44.798" transform="translate(721.479 11593.551)" stroke-width="2" stroke="#0073ff" stroke-linecap="round" stroke-linejoin="round" fill="none"/><rect width="11.921" height="8.809" transform="translate(703.14 11608.519)" stroke-width="2" stroke="#0073ff" stroke-linecap="round" stroke-linejoin="round" fill="none"/><rect width="11.921" height="8.809" transform="translate(703.14 11623.264)" stroke-width="2" stroke="#0073ff" stroke-linecap="round" stroke-linejoin="round" fill="none"/><rect width="11.921" height="8.809" transform="translate(759.357 11608.519)" stroke-width="2" stroke="#0073ff" stroke-linecap="round" stroke-linejoin="round" fill="none"/><rect width="11.921" height="8.809" transform="translate(759.357 11623.264)" stroke-width="2" stroke="#0073ff" stroke-linecap="round" stroke-linejoin="round" fill="none"/><path d="M6271.242,4749.056h-17.783l2.293,3.678h-5v7.921h31.479Z" transform="translate(-5497.815 6840.816)" fill="none" stroke="#0073ff" stroke-linecap="round" stroke-linejoin="round" stroke-width="2"/><path d="M6198.807,4749.056h17.783l-2.293,3.678h5v7.921h-31.479Z" transform="translate(-5497.815 6840.816)" fill="none" stroke="#0073ff" stroke-linecap="round" stroke-linejoin="round" stroke-width="2"/><path d="M6247.3,4739.184h-24.049l-8.448,13.55h40.945Z" transform="translate(-5497.815 6840.816)" fill="none" stroke="#0073ff" stroke-linecap="round" stroke-linejoin="round" stroke-width="2"/><line x1="31.46" transform="translate(721.479 11623.264)" stroke-width="2" stroke="#0073ff" stroke-linecap="round" stroke-linejoin="round" fill="none"/><path d="M8.633,0H9.1a8.633,8.633,0,0,1,8.633,8.633v4.621a0,0,0,0,1,0,0H0a0,0,0,0,1,0,0V8.633A8.633,8.633,0,0,1,8.633,0Z" transform="translate(728.344 11601.566)" fill="none" stroke="#0073ff" stroke-linecap="round" stroke-linejoin="round" stroke-width="2"/><path d="M6250.755,4760.655v36.877l6.691,8.426h18.066v-45.3Z" transform="translate(-5497.815 6840.816)" fill="none" stroke="#0073ff" stroke-linecap="round" stroke-linejoin="round" stroke-width="2"/><line x1="38.409" transform="translate(717.876 11642.561)" stroke-width="2" stroke="#0073ff" stroke-linecap="round" stroke-linejoin="round" fill="none"/><path d="M6219.295,4760.655h-24.757v45.3H6212.6l6.691-8.426Z" transform="translate(-5497.815 6840.816)" fill="none" stroke="#0073ff" stroke-linecap="round" stroke-linejoin="round" stroke-width="2"/><path d="M6212.6,4805.957l6.691-8.425h31.46l6.691,8.425Z" transform="translate(-5497.815 6840.816)" fill="none" stroke="#0073ff" stroke-linecap="round" stroke-linejoin="round" stroke-width="2"/><rect width="17.731" height="9.222" transform="translate(728.344 11629.127)" stroke-width="2" stroke="#0073ff" stroke-linecap="round" stroke-linejoin="round" fill="none"/></g></svg>