<svg xmlns="http://www.w3.org/2000/svg" width="89.991" height="71.621"><g fill="none" stroke="#0073ff" stroke-linecap="round" stroke-linejoin="round" stroke-width="2"><path d="M33.366 34.994v28.811H12.303v-4h5.015a1.371 1.371 0 001.371-1.371v-5.77h1.193v-5.989a2.735 2.735 0 00-2.735-2.735h-2.739v-1.222a2.111 2.111 0 00-2.1-2.1h0v-5.619M78.203 46.65l3.974 10.155H55.528l3.975-10.155v-2.089m-42.78 19.244l-.086 2.872m3.923-2.872l-.616 6.607m.002 0h-9.9s-.51-1.834.83-2.671c1.317-.822 5.709-.979 5.757-1.064h3.685m8.628-2.872l.086 2.872m-3.924-2.872l.616 6.607m.001 0h9.893s.511-1.834-.83-2.671c-1.316-.822-5.708-.979-5.756-1.064h-3.686m8.02-21.272H20.56m2.433 0v18.399m4.622-18.398c0 2.444 2.771 4.689 5.751 4.689m30.541 20.473l-.756-13.763m10.648 13.763l.756-13.763m-.509 9.75s5.407.412 6.723 1.234c1.341.837.83 2.779.83 2.779h-7.8m-10.145-4.046s-5.4.445-6.721 1.267c-1.34.837-.83 2.779-.83 2.779h7.8M12.166 14.457c-.037.347-.086.8-.086 1.162a11 11 0 0022 0c0-.241-.021-.477-.037-.715a4.479 4.479 0 00-1.171-1.748"/><path d="M33.674 12.508c-.245.1-2.884 1.345-3.129 1.446a9 9 0 01-1.49-3.124c-2.191 2.231-5.18 3.148-9.539 3.148a17.905 17.905 0 01.187-3.2c-2.813.833-7.43 1.85-9.783 6.872C6.391 1.911 21.434-2.256 29.381 3.409c4.136-2.026 8.1 1.549 8.1 5.579 0 4.167-.745 6.552-1.924 7.6a4.441 4.441 0 00-1.883-4.08z"/><g transform="translate(26.159 16.694)"><circle cx="1.302" cy="1.302" r="1.302" stroke="none"/><circle cx="1.302" cy="1.302" r=".302"/></g><g transform="translate(17.402 16.694)"><circle cx="1.302" cy="1.302" r="1.302" stroke="none"/><circle cx="1.302" cy="1.302" r=".302"/></g><path d="M58.328 14.333a4.526 4.526 0 00-.038.632 11 11 0 0022 0c0-.241-.021-.477-.037-.715"/><path d="M56.856 13.757c4.358 2.662 14.75-2.443 15.674-4.836 1.005 2.407 6.449 5.371 10.043 5.371 0-7.334-4.895-11.69-9.966-9.886-4.477-2.423-14.069-2.494-15.751 9.351z"/><path d="M80.295 17.769c5.778 4.272-.47 7.847 7.065 12.314 2.72-4.347 1.608-10.822-.269-13.211-1.555-1.978-3.285-3.217-5.2-2.667m-23.679 5.119c-4.523 4.053.762 7.524-6.38 11.763-2.722-4.345-1.614-10.822.262-13.211 1.554-1.979 3.283-3.219 5.2-2.67"/><g transform="translate(72.369 16.041)"><circle cx="1.302" cy="1.302" r="1.302" stroke="none"/><circle cx="1.302" cy="1.302" r=".302"/></g><g transform="translate(63.612 16.041)"><circle cx="1.302" cy="1.302" r="1.302" stroke="none"/><circle cx="1.302" cy="1.302" r=".302"/></g><path d="M6.912 43.941c0-2.84.621-3.257.621-3.257a33.77 33.77 0 01-.126-3.813c0-3.191 1.053-7.069 7.151-7.069h4.844l3.432 2.26 3.433-2.26h4.844c6.1 0 7.151 3.878 7.151 7.069 0 2.921-.126 7.313-.126 7.313s1.474 4.211.063 4.767h-4.114M9.426 56.09h2.03"/><path d="M17.169 43.941h-2.764v1.2a1.226 1.226 0 01-1.226 1.227H8.167a1.226 1.226 0 01-1.227-1.227v-1.2H3.713A2.712 2.712 0 001 46.653v6.011h1.189v5.576a1.465 1.465 0 001.339 1.565h13.826a1.465 1.465 0 001.339-1.565v-5.576h1.189v-6.011a2.712 2.712 0 00-2.713-2.712zm1.519 8.723H2.189m60.917-6.014h-3.603m15.191-1.741a1.032 1.032 0 01-1.515-.448l-.91-2.078a1.033 1.033 0 01.393-1.286l5.558-3.028v-6.2H64.263v6.779l2.831-1.051a1.141 1.141 0 011.459.67l.736 1.949a1.143 1.143 0 01-.723 1.492l-4.3 1.363v8.081h13.957V43.03zm3.527-13.623v.622"/><path d="M78.22 38.069l-5.558 3.028a1.032 1.032 0 00-.393 1.286l.91 2.078a1.032 1.032 0 001.515.448l7.877-4.195a2.64 2.64 0 001.187-2.2v-7.692c0-1.443-2.464-2.643-9.069-2.907a6.7 6.7 0 01-8.766.006c-6.149.279-9.075 1.472-9.075 2.9v11.372a2.369 2.369 0 003.094 2.255l8.624-2.74a1.143 1.143 0 00.723-1.492l-.736-1.949a1.142 1.142 0 00-1.459-.67l-6.327 2.357v-6.808"/></g></svg>