<svg xmlns="http://www.w3.org/2000/svg" width="96.419" height="68.773"><g stroke-width="2" stroke="#0073ff" stroke-linecap="round" stroke-linejoin="round" fill="none"><path d="M32.479 14.551h31.46v44.798h-31.46zM14.14 29.519h11.921v8.809H14.14zm0 14.745h11.921v8.809H14.14zm56.217-14.745h11.921v8.809H70.357zm0 14.745h11.921v8.809H70.357z"/><path d="M84.427 10.872H66.644l2.293 3.678h-5v7.921h31.479zm-72.435 0h17.783l-2.293 3.678h5v7.921H1.003z"/><path d="M60.485 1H36.436l-8.448 13.55h40.945zm3.454 43.264h-31.46m15.498-21.698h.467a8.633 8.633 0 0 1 8.633 8.633v4.621h0-17.733 0v-4.621a8.633 8.633 0 0 1 8.633-8.633zm15.963-.095v36.877l6.691 8.426h18.066v-45.3zm3.345 41.09H28.876m3.604-41.09H7.723v45.3h18.062l6.691-8.426zm-6.695 45.302l6.691-8.425h31.46l6.691 8.425z"/><path d="M39.344 50.127h17.731v9.222H39.344z"/></g></svg>