<svg xmlns="http://www.w3.org/2000/svg" width="197.692" height="152.239"><defs><clipPath id="a"><path d="M5769.073 4235.365s-10.762-3.632-35.823-14.8c-11.115 34.221 18.068 48.771 24.815 50.22 4.914-18.121 11.008-35.42 11.008-35.42z" fill="none"/></clipPath></defs><g stroke="#0073ff" stroke-linecap="round" stroke-linejoin="round" stroke-width="2"><g transform="translate(57.782 4.162)" fill="#fff"><circle cx="1.469" cy="1.469" r="1.469" stroke="none"/><circle cx="1.469" cy="1.469" r=".469" fill="none"/></g><g transform="translate(174.229 50.266)" fill="#fff"><circle cx="1.469" cy="1.469" r="1.469" stroke="none"/><circle cx="1.469" cy="1.469" r=".469" fill="none"/></g><path d="M157.905 3.783l1.103 1.495m1.986 2.692l1.103 1.495m-4.937-.745l1.495-1.103m2.692-1.986l1.495-1.103M1.658 85.825l.385.522m.694.941l.385.522m-1.724-.26l.522-.385m.941-.695l.522-.385" fill="#fff"/><path d="M24.994 19.036l3.089-1.356-1.252-2.852m152.673-5.363l-.237 3.366 3.106.219" fill="none"/><g fill="none"><path d="M108.788 59.938l35.084-17.542v26.629c0 6.166-15.707 11.164-35.084 11.164s-35.084-5-35.084-11.164V42.397z"/><path d="M162.842 28.025l-54.054 27.027-54.054-27.027L108.788.998z"/><path d="M162.842 32.88l-54.054 27.027L54.734 32.88"/><path d="M108.894 29.076l28.1 13.061-.161 42.41m-4.26 11.309l4.257-11.309 4.257 11.309-1.276 1.016a4.783 4.783 0 01-5.962 0z"/></g><g transform="translate(-5706.643 -4141.875)" fill="none"><path d="M5803.107 4239.737h12.2v29.627a6.1 6.1 0 01-6.1 6.1h0a6.1 6.1 0 01-6.1-6.1v-29.627h0zm-4.005 0h20.207m-16.134 9.357h3.497m-3.497 4.371h3.497m-3.497 4.372h3.497m-3.497 4.371h3.497m-3.497 4.372h3.497m-3.296-21.835h21.443m-26.766 34.464h26.766v5.113h0-26.766a1.134 1.134 0 01-1.134-1.134v-2.845a1.134 1.134 0 011.134-1.134zm26.766-45.959v51.073"/><circle cx="2.905" cy="2.905" r="2.905" transform="translate(5821.915 4241.84)"/></g><g transform="translate(-5706.643 -4141.875)" fill="none"><path d="M5887.336 4284.323h-27.011a3.69 3.69 0 01-3.562-4.653l8.488-31.386v-15.1a4.6 4.6 0 00-.431-1.944l-1.368-2.552h20.735l-1.368 2.552a4.6 4.6 0 00-.431 1.944v14.449l8.514 32.049a3.69 3.69 0 01-3.566 4.641zm-27.138-55.631h27.265"/><path d="M5862.135 4259.806a12.982 12.982 0 015.888-1.143c3.836 0 6.331 2.656 10.364 2.656a21.364 21.364 0 007.283-1.328"/><circle cx="3.007" cy="3.007" r="3.007" transform="translate(5866.479 4264.23)"/><circle cx="2.15" cy="2.15" r="2.15" transform="translate(5878.039 4267.901)"/><circle cx="1.552" cy="1.552" r="1.552" transform="translate(5874.849 4276.358)"/></g><path d="M194.828 142.448H7.095a1.826 1.826 0 00-1.863 1.787v5.217a1.826 1.826 0 001.863 1.787h187.733a1.826 1.826 0 001.863-1.787v-5.217a1.826 1.826 0 00-1.863-1.787z" fill="none"/><g transform="translate(-5706.643 -4141.875)" fill="none"><g clip-path="url(#a)"><circle cx="33.68" cy="33.68" r="33.68" transform="translate(5735.393 4201.686)"/><circle cx="28.8" cy="28.8" r="28.8" transform="translate(5740.272 4206.564)"/></g><rect width="63.412" height="8.296" rx="1.133" transform="rotate(-180 2893.542 2142.162)"/><path d="M5751.287 4267.855a33.884 33.884 0 01-10.087 3.611v3.459a1.238 1.238 0 001.313 1.1h34.059a1.228 1.228 0 001.314-1.1v-22.283a1.217 1.217 0 00-1.314-1.1h-4.5m-.105-3.136v8.007"/><path d="M5754.09 4234.629l-18.314-33.003 15.739-8.734 18.314 33.003zm-15.143-34.783l-4.606-8.3 9.378-5.203 4.605 8.3zm20.423 37.835l-2.537-4.572 10.258-5.692 2.537 4.572z" stroke-width="1.999"/><path d="M5747.441 4184.271l-16.823 9.337"/><circle cx="9.111" cy="9.111" r="9.111" transform="translate(5732.99 4210.401)"/><circle cx="5.34" cy="5.34" r="5.34" transform="translate(5736.761 4214.173)"/><path d="M5766.991 4250.896v7.484m8.345-11.66l-13.194 6.603m13.194-10.248l-18.885 9.451"/><circle cx="6.35" cy="6.35" r="6.35" transform="translate(5756.147 4259.979)"/></g></g></svg>