<svg xmlns="http://www.w3.org/2000/svg" width="81.244" height="81.161"><g fill="none" stroke="#0073ff" stroke-linecap="round" stroke-linejoin="round" stroke-width="2"><g transform="translate(65.412)"><circle cx="1.469" cy="1.469" r="1.469" stroke="none"/><circle cx="1.469" cy="1.469" r=".469"/></g><g transform="translate(0 37.555)"><circle cx="1.469" cy="1.469" r="1.469" stroke="none"/><circle cx="1.469" cy="1.469" r=".469"/></g><path d="M14.748 9.049l1.754.5.458-1.619m63.285 55.701l-2 .415.382 1.845M3.396 61.958l.667-1.929-1.78-.616"/><g transform="translate(-4415.627 -5238.574)"><ellipse cx="2.463" cy="1.914" rx="2.463" ry="1.914" transform="rotate(-30 12048.48 -5619.936)"/><path d="M4429.582 5271.202v-10.288"/><ellipse cx="2.463" cy="1.914" rx="2.463" ry="1.914" transform="rotate(-30 12049.42 -5636.614)"/><path d="M4438.047 5269.438v-10.288m0 0l-8.465 1.764m1.898 34.214h7.361v11.498h-7.361zm40.57 0h7.361v11.498h-7.361zm9.533-13.957h-13.018l1.655 2.654h-3.42v5.716h22.717zm-52.274 0h13.018l-1.655 2.654h3.422v5.716h-22.717z"/><path d="M4464.124 5274.048h-17.355l-6.1 9.778h29.548zm-8.676 14.063h0a6.4 6.4 0 016.4 6.4v2.665h0-12.8 0v-2.665a6.4 6.4 0 016.4-6.4z"/><path d="M4444.094 5283.826h22.704v28.829h-22.704zm22.706 5.716v23.113l4.828 6.081h13.038v-29.193z"/><path d="M4444.094 5289.542h-17.866v29.193h13.038l4.829-6.081z"/><path d="M4439.266 5318.735l4.828-6.08h22.7l4.828 6.08z"/><path d="M4449.048 5301.859h12.796v10.796h-12.796zm6.398 0v10.796m10.525-70.171h-15.912c0 10.061 4.75 14.991 7.956 14.991s7.956-4.93 7.956-14.991zm-5.915 9.437a2.307 2.307 0 01-4.081 0m-.162-4.439a.647.647 0 00-1.144 0m6.692 0a.646.646 0 00-1.143 0m-12.153 1.361a.6.6 0 00-.966.45"/><path d="M4449.325 5244.063l-6.992 3.273c3.573 7.692 8.845 10.053 11.578 9.25m22.182 16.336a6.826 6.826 0 01-.783-2.472 7.73 7.73 0 01.1-2.379 8.6 8.6 0 01.738-2.195l.071-.14m6.289-3.481a6.833 6.833 0 01-1.749 1.913 7.748 7.748 0 01-2.111 1.1 8.592 8.592 0 01-2.271.458l-.156.008m-6.159-3.702a6.859 6.859 0 012.532.558 7.794 7.794 0 012.01 1.278 8.626 8.626 0 011.532 1.737l.085.131"/><circle cx="7.166" cy="7.166" r="7.166" transform="translate(4469.064 5258.572)"/></g></g></svg>