<svg xmlns="http://www.w3.org/2000/svg" width="81.244" height="81.161" viewBox="0 0 81.244 81.161"><g transform="translate(-1063 -24464)"><g transform="translate(1128.412 24464)" fill="none" stroke="#0073ff" stroke-linecap="round" stroke-linejoin="round" stroke-width="2"><circle cx="1.469" cy="1.469" r="1.469" stroke="none"/><circle cx="1.469" cy="1.469" r="0.469" fill="none"/></g><g transform="translate(1063 24501.555)" fill="none" stroke="#0073ff" stroke-linecap="round" stroke-linejoin="round" stroke-width="2"><circle cx="1.469" cy="1.469" r="1.469" stroke="none"/><circle cx="1.469" cy="1.469" r="0.469" fill="none"/></g><path d="M4430.375,5247.623l1.754.5.458-1.619" transform="translate(-3352.627 19225.426)" fill="none" stroke="#0073ff" stroke-linecap="round" stroke-linejoin="round" stroke-width="2"/><path d="M4495.872,5302.205l-2,.415.382,1.845" transform="translate(-3352.627 19225.426)" fill="none" stroke="#0073ff" stroke-linecap="round" stroke-linejoin="round" stroke-width="2"/><path d="M4419.023,5300.532l.667-1.929-1.78-.616" transform="translate(-3352.627 19225.426)" fill="none" stroke="#0073ff" stroke-linecap="round" stroke-linejoin="round" stroke-width="2"/><g transform="translate(-3352.627 19225.426)"><ellipse cx="2.463" cy="1.914" rx="2.463" ry="1.914" transform="translate(4424.158 5271.311) rotate(-30)" stroke-width="2" stroke="#0073ff" stroke-linecap="round" stroke-linejoin="round" fill="none"/><line y1="10.288" transform="translate(4429.582 5260.914)" stroke-width="2" stroke="#0073ff" stroke-linecap="round" stroke-linejoin="round" fill="none"/><ellipse cx="2.463" cy="1.914" rx="2.463" ry="1.914" transform="translate(4432.623 5269.547) rotate(-30)" stroke-width="2" stroke="#0073ff" stroke-linecap="round" stroke-linejoin="round" fill="none"/><line y1="10.288" transform="translate(4438.047 5259.15)" stroke-width="2" stroke="#0073ff" stroke-linecap="round" stroke-linejoin="round" fill="none"/><line x1="8.465" y2="1.764" transform="translate(4429.582 5259.15)" stroke-width="2" stroke="#0073ff" stroke-linecap="round" stroke-linejoin="round" fill="none"/><rect width="7.361" height="11.498" transform="translate(4431.48 5295.128)" stroke-width="2" stroke="#0073ff" stroke-linecap="round" stroke-linejoin="round" fill="none"/><rect width="7.361" height="11.498" transform="translate(4472.05 5295.128)" stroke-width="2" stroke="#0073ff" stroke-linecap="round" stroke-linejoin="round" fill="none"/><path d="M4481.583,5281.171h-13.018l1.655,2.654H4466.8v5.716h22.717Z" fill="none" stroke="#0073ff" stroke-linecap="round" stroke-linejoin="round" stroke-width="2"/><path d="M4429.309,5281.171h13.018l-1.655,2.654h3.422v5.716h-22.717Z" fill="none" stroke="#0073ff" stroke-linecap="round" stroke-linejoin="round" stroke-width="2"/><path d="M4464.124,5274.048h-17.355l-6.1,9.778h29.548Z" fill="none" stroke="#0073ff" stroke-linecap="round" stroke-linejoin="round" stroke-width="2"/><path d="M6.4,0h0a6.4,6.4,0,0,1,6.4,6.4V9.065a0,0,0,0,1,0,0H0a0,0,0,0,1,0,0V6.4A6.4,6.4,0,0,1,6.4,0Z" transform="translate(4449.048 5288.111)" fill="none" stroke="#0073ff" stroke-linecap="round" stroke-linejoin="round" stroke-width="2"/><rect width="22.704" height="28.829" transform="translate(4444.094 5283.826)" stroke-width="2" stroke="#0073ff" stroke-linecap="round" stroke-linejoin="round" fill="none"/><path d="M4466.8,5289.542v23.113l4.828,6.081h13.038v-29.193Z" fill="none" stroke="#0073ff" stroke-linecap="round" stroke-linejoin="round" stroke-width="2"/><path d="M4444.094,5289.542h-17.866v29.193h13.038l4.829-6.081Z" fill="none" stroke="#0073ff" stroke-linecap="round" stroke-linejoin="round" stroke-width="2"/><path d="M4439.266,5318.735l4.828-6.08h22.7l4.828,6.08Z" fill="none" stroke="#0073ff" stroke-linecap="round" stroke-linejoin="round" stroke-width="2"/><rect width="12.796" height="10.796" transform="translate(4449.048 5301.859)" stroke-width="2" stroke="#0073ff" stroke-linecap="round" stroke-linejoin="round" fill="none"/><line y2="10.796" transform="translate(4455.446 5301.859)" stroke-width="2" stroke="#0073ff" stroke-linecap="round" stroke-linejoin="round" fill="none"/><path d="M4465.971,5242.484h-15.912c0,10.061,4.75,14.991,7.956,14.991S4465.971,5252.545,4465.971,5242.484Z" fill="none" stroke="#0073ff" stroke-linecap="round" stroke-linejoin="round" stroke-width="2"/><path d="M4460.056,5251.921a2.307,2.307,0,0,1-4.081,0" fill="none" stroke="#0073ff" stroke-linecap="round" stroke-linejoin="round" stroke-width="2"/><path d="M4455.813,5247.482a.647.647,0,0,0-1.144,0" fill="none" stroke="#0073ff" stroke-linecap="round" stroke-linejoin="round" stroke-width="2"/><path d="M4461.361,5247.482a.646.646,0,0,0-1.143,0" fill="none" stroke="#0073ff" stroke-linecap="round" stroke-linejoin="round" stroke-width="2"/><path d="M4448.065,5248.843a.6.6,0,0,0-.966.45" fill="none" stroke="#0073ff" stroke-linecap="round" stroke-linejoin="round" stroke-width="2"/><path d="M4449.325,5244.063l-6.992,3.273c3.573,7.692,8.845,10.053,11.578,9.25" fill="none" stroke="#0073ff" stroke-linecap="round" stroke-linejoin="round" stroke-width="2"/><path d="M4476.093,5272.922a6.826,6.826,0,0,1-.783-2.472,7.73,7.73,0,0,1,.1-2.379,8.6,8.6,0,0,1,.738-2.195l.071-.14" fill="none" stroke="#0073ff" stroke-linecap="round" stroke-linejoin="round" stroke-width="2"/><path d="M4482.508,5262.255a6.833,6.833,0,0,1-1.749,1.913,7.748,7.748,0,0,1-2.111,1.1,8.592,8.592,0,0,1-2.271.458l-.156.008" fill="none" stroke="#0073ff" stroke-linecap="round" stroke-linejoin="round" stroke-width="2"/><path d="M4470.062,5262.032a6.859,6.859,0,0,1,2.532.558,7.794,7.794,0,0,1,2.01,1.278,8.626,8.626,0,0,1,1.532,1.737l.085.131" fill="none" stroke="#0073ff" stroke-linecap="round" stroke-linejoin="round" stroke-width="2"/><circle cx="7.166" cy="7.166" r="7.166" transform="translate(4469.064 5258.572)" fill="none" stroke="#0073ff" stroke-linecap="round" stroke-linejoin="round" stroke-width="2"/></g></g></svg>