<svg xmlns="http://www.w3.org/2000/svg" width="246.667" height="283.748"><defs><style>.a{fill:#fff}.a,.b{stroke:#0073ff;stroke-linecap:round;stroke-linejoin:round;stroke-width:2px}.b,.d{fill:none}.c{stroke:none}</style></defs><g transform="translate(-5784.15 -3211.362)"><g class="a" transform="translate(5802.608 3454.771)"><circle class="c" cx="2.427" cy="2.427" r="2.427"/><circle class="d" cx="2.427" cy="2.427" r="1.427"/></g><g class="a" transform="translate(5920.624 3236.436)"><circle class="c" cx="2.427" cy="2.427" r="2.427"/><circle class="d" cx="2.427" cy="2.427" r="1.427"/></g><g class="a" transform="translate(5990.872 3286.597)"><circle class="c" cx="2.427" cy="2.427" r="2.427"/><circle class="d" cx="2.427" cy="2.427" r="1.427"/></g><path class="a" d="M5945.238 3271.304l1.583 2.146m2.85 3.865l1.583 2.146m-7.087-1.07l2.146-1.583m3.865-2.85l2.146-1.583m-164.727 149.43l.994.176m3.553.629l.994.176m-3.26 2.28l.176-.994m.629-3.553l.176-.994"/><path class="b" d="M5957.684 3212.362l2.442 5.01 4.625-2.255m-131.476 251.207l.762-5.522-5.1-.7m157.762-201.581l-.9 5.5 5.078.835m-2.766 77.816h-105.169a2.758 2.758 0 0 0-2.758 2.759v24.441a34.785 34.785 0 0 1 0 56.705v64.775a2.757 2.757 0 0 0 2.758 2.758h105.169a2.759 2.759 0 0 0 2.759-2.758v-145.92a2.759 2.759 0 0 0-2.759-2.76zm-128.096 42.241v26.623m-13.311-13.312h26.623"/><path class="b" d="M5913.145 3330.222h92.221a3.927 3.927 0 0 1 3.927 3.927v143.583a3.928 3.928 0 0 1-3.927 3.928h-5.774"/><path class="b" d="M5927.172 3317.771h98.716a3.927 3.927 0 0 1 3.928 3.927v143.582a3.928 3.928 0 0 1-3.928 3.929h-5.772m-215.082-195.435h65.148m-65.148 14.69h51.702m-51.702 14.691h66.662m-66.662 14.69h54.98m2.958-75.808h23.463m-23.463 8.913h23.463m-81.401 86.763h25.851m-25.851 9.673h20.001m80.944 48.3h62.219m-62.219 14.69h48.773m-48.773 14.691h63.734m-63.734 14.69h52.052m-33.249-71.844h23.463m-42.266 91.712h22.922m-22.922 9.673h17.073m-21.715-126.626v-113.143H5785.15v153.738h42.706"/><circle class="b" cx="34.802" cy="34.802" r="34.802" transform="translate(5825.213 3363.422)"/></g></svg>