<svg xmlns="http://www.w3.org/2000/svg" width="254.189" height="204.563"><defs><style>.a,.d{fill:none}.a,.b{stroke:#0073ff;stroke-linecap:round;stroke-linejoin:round;stroke-width:2px}.b{fill:#fff}.c{stroke:none}</style></defs><g transform="translate(83.058 66.005)"><rect class="a" width="56.468" height="77.257" rx="1.884" transform="translate(0 11.583)"/><path class="a" d="M8.193 5.792h56.019a2 2 0 0 1 2 2v73.249a2 2 0 0 1-2 2h-2.945"/><path class="a" d="M17.941 0H73.96a2 2 0 0 1 2 2v73.249a2 2 0 0 1-2 2h-2.945M9.283 44.589h36.641m-15.816-22.42h15.816M30.108 31.18h15.816M9.283 54.318h36.641M9.283 64.047h28.733"/><rect class="a" width="14.557" height="13.566" rx="1.154" transform="translate(8.553 22.169)"/></g><path class="a" d="M56.825 46.211l-19.44 5.209m19.44-5.209L55.071 66.26m130.182 108.379l3.495-19.82m-3.495 19.82l19.82-3.495M86.627 26.359a90.826 90.826 0 0 1 98.626 148.28m-28.042 19.11A90.826 90.826 0 0 1 56.824 46.211"/><path class="b" d="M214.936 34.108l.84 1.139m1.512 2.05l.84 1.139m-3.76-.568l1.139-.84m2.05-1.512l1.139-.84"/><g class="b" transform="translate(56.971 17.431)"><circle class="c" cx="2.181" cy="2.181" r="2.181"/><circle class="d" cx="2.181" cy="2.181" r="1.181"/></g><path class="b" d="M2.507 141.871l1.638 2.22m2.949 3.999l1.638 2.22m-7.333-1.106l2.22-1.638m3.999-2.949l2.22-1.638m28.71 51.784l1.106.034m1.993.061l1.106.034m-2.167 2.038l.034-1.106m.061-1.993l.034-1.106m191.525-50.186l.894.158m3.193.565l.894.158m-2.932 2.05l.158-.894m.565-3.193l.158-.894"/><path class="a" d="M151.484 1l.056 5.01 4.625-.052m26.012 197.605l1.857-4.654 4.3 1.714m54.52-29.822l-5.005-.221-.2 4.621M12.591 75.278l3.874-3.179-2.936-3.574"/><g class="b" transform="translate(249.828 83.944)"><circle class="c" cx="2.181" cy="2.181" r="2.181"/><circle class="d" cx="2.181" cy="2.181" r="1.181"/></g><path class="a" d="M121.039 188.71A78.347 78.347 0 0 1 46.077 87.786m74.963-55.647a78.347 78.347 0 0 1 74.767 101.565"/></svg>