<svg xmlns="http://www.w3.org/2000/svg" width="187.542" height="191.127" viewBox="0 0 187.542 191.127"><defs><style>.a,.d{fill:none;}.a,.b{stroke:#0073ff;stroke-linecap:round;stroke-linejoin:round;stroke-width:2px;}.b{fill:#fff;}.c{stroke:none;}</style></defs><g transform="translate(-666.602 -223.97)"><g transform="translate(-4603 7969)"><g transform="translate(-221.233 -10952.718)"><path class="a" d="M5553.618,3243.847h-17.8v104.948h36.017a49.02,49.02,0,0,1,49.021-49.02v-55.928h-17.8"/><path class="a" d="M5578.339,3243.492"/><path class="a" d="M5500.959,3304.521"/><line class="b" x2="0.728" y2="0.987" transform="translate(5492.726 3305.075)"/><line class="b" x2="0.728" y2="0.987" transform="translate(5494.764 3307.838)"/><line class="b" y1="0.728" x2="0.987" transform="translate(5492.233 3307.605)"/><line class="b" y1="0.728" x2="0.987" transform="translate(5494.997 3305.567)"/><g class="b" transform="translate(5496.602 3270.184)"><circle class="c" cx="1.89" cy="1.89" r="1.89"/><circle class="d" cx="1.89" cy="1.89" r="0.89"/></g><g class="b" transform="translate(5674.596 3264.462)"><circle class="c" cx="1.89" cy="1.89" r="1.89"/><circle class="d" cx="1.89" cy="1.89" r="0.89"/></g><g class="b" transform="translate(5667.988 3296.302)"><circle class="c" cx="1.89" cy="1.89" r="1.89"/><circle class="d" cx="1.89" cy="1.89" r="0.89"/></g><g class="b" transform="translate(5637.667 3223.954)"><circle class="c" cx="1.89" cy="1.89" r="1.89"/><circle class="d" cx="1.89" cy="1.89" r="0.89"/></g><line class="b" x2="1.233" y2="1.672" transform="translate(5650.418 3259.999)"/><line class="b" x2="1.233" y2="1.672" transform="translate(5653.872 3264.681)"/><line class="b" y1="1.233" x2="1.672" transform="translate(5649.584 3264.286)"/><line class="b" y1="1.233" x2="1.672" transform="translate(5654.267 3260.833)"/><line class="b" x2="0.959" y2="0.029" transform="translate(5597.702 3210.484)"/><line class="b" x2="0.959" y2="0.029" transform="translate(5600.387 3210.566)"/><line class="b" y1="0.959" x2="0.029" transform="translate(5599.468 3211.403)"/><line class="b" y1="0.959" x2="0.029" transform="translate(5599.55 3208.718)"/><line class="b" x2="0.774" y2="0.137" transform="translate(5545.502 3384.651)"/><line class="b" x2="0.774" y2="0.137" transform="translate(5549.044 3385.278)"/><line class="b" y1="0.774" x2="0.137" transform="translate(5547.278 3386.417)"/><line class="b" y1="0.774" x2="0.137" transform="translate(5547.905 3382.875)"/><path class="a" d="M5503.028,3229.624l4.341.113.1-4.007"/><path class="a" d="M5498.491,3346.763l4.285-.7.65,3.955"/><path class="a" d="M5644.042,3285.4l-.7,4.284,3.955.651"/><path class="a" d="M5591.958,3238.728a12.885,12.885,0,0,0-25.769,0h-12.571v12.056h49.441v-12.056Z"/><line class="a" x2="7.149" transform="translate(5574.764 3239.314)"/><path class="a" d="M5547.66,3267.143s7.262,7.971,7.617,7.616l12.776-12.776"/><line class="a" x2="11.567" transform="translate(5578.913 3263.656)"/><line class="a" x2="26.466" transform="translate(5578.913 3269.213)"/><line class="a" x2="22.429" transform="translate(5578.913 3274.771)"/><path class="a" d="M5547.66,3290.564s7.262,7.972,7.617,7.617l12.776-12.777"/><line class="a" x2="11.567" transform="translate(5578.913 3287.077)"/><line class="a" x2="23.466" transform="translate(5578.913 3292.635)"/><line class="a" x2="19.268" transform="translate(5578.913 3298.192)"/><path class="a" d="M5547.66,3313.985s7.262,7.972,7.617,7.617l12.776-12.777"/><line class="a" x2="11.567" transform="translate(5578.913 3310.498)"/><line class="a" x2="5.784" transform="translate(5578.913 3316.056)"/><path class="a" d="M5567.137,3233.032h-36.3a4.963,4.963,0,0,0-5.083,4.833v117.277a4.963,4.963,0,0,0,5.083,4.833h42.3a49.039,49.039,0,0,1,57.793-59.161v-62.949a4.963,4.963,0,0,0-5.084-4.833h-35.218"/><circle class="a" cx="49.02" cy="49.02" r="49.02" transform="translate(5571.837 3299.775)"/><path class="a" d="M5651.973,3340.052c0,21.588-31.115,40.665-31.115,40.665s-31.116-20-31.116-40.665a147.424,147.424,0,0,0,52.351-14.887A16.19,16.19,0,0,1,5651.973,3340.052Z"/><path class="a" d="M5641.447,3343.2a16.961,16.961,0,0,1-1.023,5.608c-2.44,6.965-8.83,13.7-14.6,18.555"/><path class="a" d="M5583.37,3353.752"/></g></g></g></svg>