<svg xmlns="http://www.w3.org/2000/svg" width="246.667" height="283.748" viewBox="0 0 246.667 283.748"><defs><style>.a{fill:#fff;}.a,.b{stroke:#0073ff;stroke-linecap:round;stroke-linejoin:round;stroke-width:2px;}.b,.d{fill:none;}.c{stroke:none;}</style></defs><g transform="translate(-5784.15 -3211.362)"><g class="a" transform="translate(5802.608 3454.771)"><circle class="c" cx="2.427" cy="2.427" r="2.427"/><circle class="d" cx="2.427" cy="2.427" r="1.427"/></g><g class="a" transform="translate(5920.624 3236.436)"><circle class="c" cx="2.427" cy="2.427" r="2.427"/><circle class="d" cx="2.427" cy="2.427" r="1.427"/></g><g class="a" transform="translate(5990.872 3286.597)"><circle class="c" cx="2.427" cy="2.427" r="2.427"/><circle class="d" cx="2.427" cy="2.427" r="1.427"/></g><g transform="translate(5944.167 3271.304)"><g transform="translate(1.071)"><line class="a" x2="1.583" y2="2.146"/><line class="a" x2="1.583" y2="2.146" transform="translate(4.433 6.011)"/></g><g transform="translate(0 1.071)"><line class="a" y1="1.583" x2="2.146" transform="translate(0 4.433)"/><line class="a" y1="1.583" x2="2.146" transform="translate(6.011)"/></g></g><g transform="translate(5787.597 3419.525)"><g transform="translate(0 2.28)"><line class="a" x2="0.994" y2="0.176"/><line class="a" x2="0.994" y2="0.176" transform="translate(4.547 0.805)"/></g><g transform="translate(2.281)"><line class="a" y1="0.994" x2="0.176" transform="translate(0 4.547)"/><line class="a" y1="0.994" x2="0.176" transform="translate(0.805)"/></g></g><path class="b" d="M5919.539,3212.362l2.442,5.01,4.625-2.255" transform="translate(38.145 0)"/><path class="b" d="M5823.594,3411.552l.762-5.522-5.1-.7" transform="translate(9.681 54.772)"/><path class="b" d="M5942.339,3248.316l-.9,5.5,5.078.835" transform="translate(44.36 10.205)"/><path class="b" d="M5967.1,3313.862H5861.931a2.758,2.758,0,0,0-2.758,2.759v24.441a34.785,34.785,0,0,1,0,56.705v64.775a2.757,2.757,0,0,0,2.758,2.758H5967.1a2.759,2.759,0,0,0,2.759-2.758v-145.92A2.759,2.759,0,0,0,5967.1,3313.862Z" transform="translate(21.011 28.81)"/><g transform="translate(5846.704 3384.913)"><line class="b" y2="26.623" transform="translate(13.311)"/><line class="b" x2="26.623" transform="translate(0 13.311)"/></g><path class="b" d="M5884.847,3304.165h92.221a3.927,3.927,0,0,1,3.927,3.927v143.583a3.928,3.928,0,0,1-3.927,3.928h-5.774" transform="translate(28.298 26.057)"/><path class="b" d="M5895.773,3294.466h98.716a3.927,3.927,0,0,1,3.928,3.927v143.582a3.928,3.928,0,0,1-3.928,3.929h-5.772" transform="translate(31.399 23.305)"/><g transform="translate(5805.034 3273.774)"><line class="b" x2="65.148"/><line class="b" x2="51.702" transform="translate(0 14.69)"/><line class="b" x2="66.662" transform="translate(0 29.381)"/><line class="b" x2="54.98" transform="translate(0 44.071)"/></g><line class="b" x2="23.463" transform="translate(5862.972 3242.037)"/><line class="b" x2="23.463" transform="translate(5862.972 3250.95)"/><line class="b" x2="25.851" transform="translate(5805.034 3337.713)"/><line class="b" x2="20.001" transform="translate(5805.034 3347.386)"/><g transform="translate(5905.979 3395.686)"><line class="b" x2="62.219"/><line class="b" x2="48.773" transform="translate(0 14.69)"/><line class="b" x2="63.734" transform="translate(0 29.381)"/><line class="b" x2="52.052" transform="translate(0 44.071)"/></g><line class="b" x2="23.463" transform="translate(5924.782 3367.913)"/><line class="b" x2="22.922" transform="translate(5905.979 3459.625)"/><line class="b" x2="17.073" transform="translate(5905.979 3469.298)"/><path class="b" d="M5901.337,3338.877V3225.734H5785.15v153.738h42.706" transform="translate(0 3.795)"/><circle class="b" cx="34.802" cy="34.802" r="34.802" transform="translate(5825.213 3363.422)"/></g></svg>