<?xml version="1.0" encoding="utf-8"?>
<!-- Generator: Adobe Illustrator 23.0.2, SVG Export Plug-In . SVG Version: 6.00 Build 0)  -->
<svg version="1.1" id="Layer_1" xmlns="http://www.w3.org/2000/svg" xmlns:xlink="http://www.w3.org/1999/xlink" x="0px" y="0px"
	 viewBox="0 0 187.5 191.1" style="enable-background:new 0 0 187.5 191.1;" xml:space="preserve">
<style type="text/css">
	.st0{fill:#0073FF;}
</style>
<g>
	<path class="st0" d="M4.6,97.1l-1,0.7c0,0-0.1,0.1-0.1,0.1c0,0,0-0.1-0.1-0.1l-0.7-1c-0.3-0.4-1-0.5-1.4-0.2
		c-0.4,0.3-0.5,1-0.2,1.4l0.7,1c0,0,0.1,0.1,0.1,0.1c0,0-0.1,0-0.1,0.1l-1,0.7c-0.4,0.3-0.5,1-0.2,1.4c0.2,0.3,0.5,0.4,0.8,0.4
		c0.2,0,0.4-0.1,0.6-0.2l1-0.7c0,0,0.1-0.1,0.1-0.1c0,0,0,0.1,0.1,0.1l0.7,1c0.2,0.3,0.5,0.4,0.8,0.4c0.2,0,0.4-0.1,0.6-0.2
		c0.4-0.3,0.5-1,0.2-1.4l-0.7-1c0,0-0.1-0.1-0.1-0.1c0,0,0.1,0,0.1-0.1l1-0.7c0.4-0.3,0.5-1,0.2-1.4C5.6,96.8,5,96.7,4.6,97.1z
		 M3.3,99.3C3.3,99.4,3.3,99.4,3.3,99.3c-0.1,0.1-0.1,0-0.1,0c0,0-0.1-0.1-0.1-0.1c0,0,0.1,0,0.1-0.1c0,0,0.1-0.1,0.1-0.1
		c0,0,0,0.1,0.1,0.1c0,0,0.1,0.1,0.1,0.1C3.4,99.3,3.4,99.3,3.3,99.3z"/>
	<path class="st0" d="M9.5,64.4c0-1-0.8-1.9-1.9-1.9s-1.9,0.8-1.9,1.9s0.8,1.9,1.9,1.9S9.5,65.4,9.5,64.4z M7.5,64.4
		c0-0.1,0-0.1,0.1-0.1s0.1,0,0.1,0.1C7.8,64.5,7.5,64.5,7.5,64.4z"/>
	<path class="st0" d="M185.7,56.8c-1,0-1.9,0.8-1.9,1.9s0.8,1.9,1.9,1.9s1.9-0.8,1.9-1.9S186.7,56.8,185.7,56.8z M185.5,58.7
		c0-0.1,0-0.1,0.1-0.1s0.1,0,0.1,0.1C185.8,58.8,185.5,58.8,185.5,58.7z"/>
	<path class="st0" d="M179,88.6c-1,0-1.9,0.8-1.9,1.9s0.8,1.9,1.9,1.9s1.9-0.8,1.9-1.9S180.1,88.6,179,88.6z M178.9,90.5
		c0-0.1,0-0.1,0.1-0.1s0.1,0,0.1,0.1C179.2,90.6,178.9,90.6,178.9,90.5z"/>
	<path class="st0" d="M148.7,20c1,0,1.9-0.8,1.9-1.9s-0.8-1.9-1.9-1.9c-1,0-1.9,0.8-1.9,1.9S147.7,20,148.7,20z M148.7,18
		c0.1,0,0.1,0,0.1,0.1c0,0.1-0.2,0.1-0.2,0C148.6,18.1,148.7,18,148.7,18z"/>
	<path class="st0" d="M160,54.6c0.2,0.3,0.5,0.4,0.8,0.4c0.2,0,0.4-0.1,0.6-0.2c0.4-0.3,0.5-1,0.2-1.4l-1.2-1.7
		c-0.3-0.4-1-0.5-1.4-0.2c-0.4,0.3-0.5,1-0.2,1.4L160,54.6z"/>
	<path class="st0" d="M163.5,59.3c0.2,0.3,0.5,0.4,0.8,0.4c0.2,0,0.4-0.1,0.6-0.2c0.4-0.3,0.5-1,0.2-1.4l-1.2-1.7
		c-0.3-0.4-1-0.5-1.4-0.2c-0.4,0.3-0.5,1-0.2,1.4L163.5,59.3z"/>
	<path class="st0" d="M158.8,58.8c0.2,0,0.4-0.1,0.6-0.2l1.7-1.2c0.4-0.3,0.5-1,0.2-1.4c-0.3-0.4-1-0.5-1.4-0.2l-1.7,1.2
		c-0.4,0.3-0.5,1-0.2,1.4C158.1,58.7,158.4,58.8,158.8,58.8z"/>
	<path class="st0" d="M163.4,55.4c0.2,0,0.4-0.1,0.6-0.2l1.7-1.2c0.4-0.3,0.5-1,0.2-1.4c-0.3-0.4-1-0.5-1.4-0.2l-1.7,1.2
		c-0.4,0.3-0.5,1-0.2,1.4C162.8,55.2,163.1,55.4,163.4,55.4z"/>
	<path class="st0" d="M106.8,3.8l0.8,0l0,0.8c0,0.6,0.4,1,1,1c0,0,0,0,0,0c0.5,0,1-0.4,1-1l0-0.8l0.8,0c0,0,0,0,0,0c0.5,0,1-0.4,1-1
		c0-0.6-0.4-1-1-1l-0.8,0l0-0.8c0-0.6-0.4-1-1-1c0,0,0,0,0,0c-0.5,0-1,0.4-1,1l0,0.8l-0.8,0c0,0,0,0,0,0c-0.5,0-1,0.4-1,1
		C105.9,3.3,106.3,3.8,106.8,3.8z"/>
	<path class="st0" d="M16.7,17c-0.6,0-1,0.4-1,1l-0.1,3l-3.3-0.1c-0.6,0-1,0.4-1,1c0,0.6,0.4,1,1,1l4.3,0.1c0,0,0,0,0,0
		c0.3,0,0.5-0.1,0.7-0.3c0.2-0.2,0.3-0.4,0.3-0.7l0.1-4C17.6,17.5,17.2,17.1,16.7,17z"/>
	<path class="st0" d="M11.8,137.4l-4.3,0.7c-0.5,0.1-0.9,0.6-0.8,1.1s0.6,0.9,1.1,0.8l3.3-0.5l0.5,3c0.1,0.5,0.5,0.8,1,0.8
		c0.1,0,0.1,0,0.2,0c0.5-0.1,0.9-0.6,0.8-1.1l-0.6-4C12.8,137.7,12.3,137.3,11.8,137.4z"/>
	<path class="st0" d="M152.3,83l4,0.7c0.1,0,0.1,0,0.2,0c0.5,0,0.9-0.3,1-0.8c0.1-0.5-0.3-1.1-0.8-1.1l-3-0.5l0.5-3.3
		c0.1-0.5-0.3-1.1-0.8-1.1c-0.5-0.1-1.1,0.3-1.1,0.8l-0.7,4.3C151.4,82.4,151.8,82.9,152.3,83z"/>
	<path class="st0" d="M83.9,32.6h7.1c0.6,0,1-0.4,1-1s-0.4-1-1-1h-7.1c-0.6,0-1,0.4-1,1S83.4,32.6,83.9,32.6z"/>
	<path class="st0" d="M76.5,53.6L64.3,65.8c-1.2-1.1-4.2-4.2-6.7-7c-0.4-0.4-1-0.4-1.4-0.1c-0.4,0.4-0.4,1-0.1,1.4
		c7.2,7.9,7.8,7.9,8.3,8c0,0,0,0,0,0c0.3,0,0.6-0.1,0.7-0.3L77.9,55c0.4-0.4,0.4-1,0-1.4S76.9,53.2,76.5,53.6z"/>
	<path class="st0" d="M88.1,57h11.6c0.6,0,1-0.4,1-1s-0.4-1-1-1H88.1c-0.6,0-1,0.4-1,1S87.5,57,88.1,57z"/>
	<path class="st0" d="M88.1,62.5h26.5c0.6,0,1-0.4,1-1s-0.4-1-1-1H88.1c-0.6,0-1,0.4-1,1S87.5,62.5,88.1,62.5z"/>
	<path class="st0" d="M88.1,68.1h22.4c0.6,0,1-0.4,1-1s-0.4-1-1-1H88.1c-0.6,0-1,0.4-1,1S87.5,68.1,88.1,68.1z"/>
	<path class="st0" d="M76.5,77L64.3,89.2c-1.2-1.1-4.2-4.2-6.7-7c-0.4-0.4-1-0.4-1.4-0.1c-0.4,0.4-0.4,1-0.1,1.4
		c7.2,7.9,7.8,7.9,8.3,8c0,0,0,0,0,0c0.3,0,0.6-0.1,0.7-0.3l12.8-12.8c0.4-0.4,0.4-1,0-1.4S76.9,76.6,76.5,77z"/>
	<path class="st0" d="M88.1,80.4h11.6c0.6,0,1-0.4,1-1s-0.4-1-1-1H88.1c-0.6,0-1,0.4-1,1S87.5,80.4,88.1,80.4z"/>
	<path class="st0" d="M88.1,85.9h23.5c0.6,0,1-0.4,1-1s-0.4-1-1-1H88.1c-0.6,0-1,0.4-1,1S87.5,85.9,88.1,85.9z"/>
	<path class="st0" d="M88.1,91.5h19.3c0.6,0,1-0.4,1-1s-0.4-1-1-1H88.1c-0.6,0-1,0.4-1,1S87.5,91.5,88.1,91.5z"/>
	<path class="st0" d="M76.5,100.4l-12.2,12.2c-1.2-1.1-4.2-4.2-6.7-7c-0.4-0.4-1-0.4-1.4-0.1c-0.4,0.4-0.4,1-0.1,1.4
		c7.2,7.9,7.8,7.9,8.3,8c0,0,0,0,0,0c0.3,0,0.6-0.1,0.7-0.3l12.8-12.8c0.4-0.4,0.4-1,0-1.4S76.9,100,76.5,100.4z"/>
	<path class="st0" d="M141.1,92.3V30.2c-0.1-3.2-2.7-5.8-5.9-5.8c0,0-0.1,0-0.1,0h-34.7c-2.4-4.2-6.9-7.1-12.1-7.1c0,0-0.1,0-0.1,0
		c-5.1,0-9.6,2.9-11.9,7.1l-36.1,0c-3.3-0.1-6,2.5-6.1,5.8l0,117.3c0.1,3.2,2.7,5.8,5.9,5.8c0,0,0.1,0,0.1,0h41.5
		c5.5,21.7,25.1,37.8,48.5,37.8c27.6,0,50-22.4,50-50C180,117.3,163.4,97.4,141.1,92.3z M135,26.3C135.1,26.3,135.1,26.3,135,26.3
		c2.2,0,4,1.7,4.1,3.8v61.7c-0.2,0-0.4-0.1-0.7-0.1c-0.5-0.1-0.9-0.2-1.4-0.2c-1.7-0.2-3.5-0.4-5.3-0.5c-0.2,0-0.4,0-0.7,0
		c0,0,0,0-0.1,0v-55c0-0.6-0.4-1-1-1h-16.8V31c0-0.6-0.4-1-1-1h-10.1c-0.1-1.3-0.4-2.5-0.8-3.7L135,26.3z M76.4,31
		c0.1-6.4,5.3-11.7,11.8-11.8c0,0,0.1,0,0.1,0c6.5,0,11.8,5.3,11.9,11.8c0,0.5,0.5,1,1,1h10.1v4.1c0,0,0,0,0,0s0,0,0,0v5.9H63.8V32
		h11.6C75.9,32,76.3,31.6,76.4,31z M40,151.3c-2.2,0-4-1.7-4.1-3.8l0-117.3c0.1-2.2,1.9-3.9,4.1-3.9h35.2c-0.4,1.2-0.7,2.4-0.8,3.7
		H62.8c-0.6,0-1,0.4-1,1v4.1H45c-0.6,0-1,0.4-1,1v104.9c0,0.6,0.4,1,1,1h35c0,0.3,0,0.6,0,0.9c0,0.3,0,0.6,0,0.9
		c0,0.4,0.1,0.7,0.1,1.1c0,0.5,0.1,1,0.1,1.5c0,0,0,0.1,0,0.1c0.2,1.6,0.4,3.1,0.7,4.7H40z M80.2,136.2c0,0.4-0.1,0.9-0.1,1.3
		c0,0.1,0,0.3,0,0.4c0,0.1,0,0.2,0,0.4c0,0.1,0,0.3,0,0.4c0,0.4,0,0.8,0,1.2c0,0.1,0,0.1,0,0.2H46V37.2h15.8v5.9c0,0.6,0.4,1,1,1
		h49.4c0.6,0,1-0.4,1-1v-5.9H129l0,53.9c-0.3,0-0.5,0-0.8,0c-0.4,0-0.8,0-1.2,0.1c-1.7,0.1-3.3,0.3-5,0.5c-4.9,0.8-9.8,2.3-14.3,4.6
		c-3.1,1.5-6,3.4-8.7,5.5h-11c-0.6,0-1,0.4-1,1s0.4,1,1,1h8.6c-1.3,1.1-2.4,2.3-3.6,3.6h-5c-0.6,0-1,0.4-1,1s0.4,1,1,1h3.3
		c0,0,0,0,0,0.1c-0.4,0.5-0.8,1-1.2,1.5c-0.5,0.6-0.9,1.2-1.3,1.8c-0.1,0.1-0.2,0.3-0.3,0.4c-0.1,0.1-0.1,0.2-0.2,0.3
		c-0.4,0.5-0.7,1.1-1.1,1.7C83.4,121.5,81,128.8,80.2,136.2z M130,189.1c-22.7,0-41.8-15.9-46.8-37.1c-0.2-0.7-0.3-1.5-0.5-2.2
		c0-0.1,0-0.1,0-0.2c-0.1-0.7-0.2-1.4-0.3-2c0-0.2,0-0.3-0.1-0.5c-0.1-0.6-0.1-1.1-0.2-1.7c0-0.3-0.1-0.7-0.1-1
		c0-0.4-0.1-0.8-0.1-1.2c0-0.5,0-1,0-1.5c0-0.3,0-0.5,0-0.8c0-0.6,0-1.3,0-1.9c0-0.2,0-0.3,0-0.5c0-0.7,0.1-1.4,0.2-2.1
		c0.7-7.4,3.2-14.6,7.2-20.9c0.3-0.5,0.7-1,1-1.5c0.2-0.3,0.4-0.6,0.7-0.9c0.6-0.9,1.3-1.7,1.9-2.5c0.3-0.4,0.7-0.8,1-1.2
		c0.4-0.1,0.7-0.4,0.8-0.9c1.6-1.7,3.2-3.3,5-4.7c0.3-0.1,0.5-0.3,0.7-0.5c2.6-2,5.4-3.8,8.5-5.3c5.6-2.7,11.7-4.4,17.9-4.8
		c0.8-0.1,1.6-0.1,2.4-0.1c0.1,0,0.2,0,0.2,0c1.7,0,3.4,0.1,5,0.2c0.1,0,0.1,0,0.2,0c1.7,0.2,3.4,0.4,5,0.8
		c21.8,4.5,38.3,23.9,38.3,47C178,167.6,156.5,189.1,130,189.1z"/>
	<path class="st0" d="M151.6,116.6c-3.8-1.6-8-1.6-12,0c-4,1.6-7.4,4.7-9.6,8.6c-3.5-6.9-8.1-10-14.9-10.1c0,0,0,0,0,0
		c-4.6,0-8.9,1.8-12.1,5c-3.3,3.2-5.1,7.6-5.1,12.2c0,21,30.3,40.7,31.6,41.5c0.2,0.1,0.4,0.2,0.5,0.2c0.2,0,0.4,0,0.5-0.1
		c1.3-0.8,31.6-19.6,31.6-41.5v0C162.1,125.5,158,119.2,151.6,116.6z M130,171.8c-4.1-2.7-30.1-21-30.1-39.5c0-4.1,1.6-7.9,4.5-10.7
		c2.9-2.9,6.7-4.4,10.7-4.4c0,0,0,0,0,0c6.6,0,10.7,3.2,14,10.8c0.2,0.4,0.5,0.6,0.9,0.6c0.4,0,0.8-0.2,0.9-0.6
		c1.8-4.3,5.3-7.8,9.4-9.5c3.5-1.4,7.2-1.4,10.5-0.1c5.6,2.4,9.3,7.9,9.3,14C160.1,151.6,134.1,169.2,130,171.8z"/>
	<path class="st0" d="M150.6,134.5C150.6,134.5,150.6,134.5,150.6,134.5c-0.6,0-1,0.4-1,1c0,1.8-0.3,3.6-1,5.3
		c-2.6,7.5-10.1,14.6-14.3,18.1c-0.4,0.4-0.5,1-0.1,1.4c0.2,0.2,0.5,0.4,0.8,0.4c0.2,0,0.5-0.1,0.6-0.2c5.3-4.5,12.3-11.4,14.9-19
		c0.7-1.9,1.1-3.9,1.1-5.9C151.6,135,151.2,134.5,150.6,134.5z"/>
</g>
</svg>
