<svg xmlns="http://www.w3.org/2000/svg" width="254.189" height="204.563" viewBox="0 0 254.189 204.563"><defs><style>.a,.d{fill:none;}.a,.b{stroke:#0073ff;stroke-linecap:round;stroke-linejoin:round;stroke-width:2px;}.b{fill:#fff;}.c{stroke:none;}</style></defs><g transform="translate(-5151.359 -3200.084)"><g transform="translate(5234.417 3266.089)"><rect class="a" width="56.468" height="77.257" rx="1.884" transform="translate(0 11.583)"/><path class="a" d="M5230.62,3262.434h56.019a2,2,0,0,1,2,2v73.249a2,2,0,0,1-2,2h-2.945" transform="translate(-5222.427 -3256.642)"/><path class="a" d="M5239.067,3257.415h56.019a2,2,0,0,1,2,2v73.249a2,2,0,0,1-2,2h-2.945" transform="translate(-5221.126 -3257.415)"/><line class="a" x2="36.641" transform="translate(9.283 44.589)"/><line class="a" x2="15.816" transform="translate(30.108 22.169)"/><line class="a" x2="15.816" transform="translate(30.108 31.18)"/><line class="a" x2="36.641" transform="translate(9.283 54.318)"/><line class="a" x2="28.733" transform="translate(9.283 64.047)"/><rect class="a" width="14.557" height="13.566" rx="1.154" transform="translate(8.553 22.169)"/></g><path class="a" d="M5200.788,3240.262" transform="translate(7.396 6.033)"/><g transform="translate(5181.585 3219.697)"><g transform="translate(7.159 26.598)"><line class="a" x1="19.44" y2="5.209"/><line class="a" x1="1.754" y2="20.049" transform="translate(17.686)"/></g><g transform="translate(155.027 135.206)"><line class="a" y1="19.82" x2="3.495"/><line class="a" y1="3.495" x2="19.82" transform="translate(0 16.325)"/></g><path class="a" d="M5226.613,3223.959a90.826,90.826,0,0,1,98.626,148.28" transform="translate(-5170.212 -3217.213)"/><path class="a" d="M5304.724,3387.8a90.826,90.826,0,0,1-100.387-147.538" transform="translate(-5177.739 -3213.664)"/></g><path class="a" d="M5312.079,3351.553" transform="translate(24.533 23.17)"/><g transform="translate(5365.727 3234.192)"><g transform="translate(0.568)"><line class="b" x2="0.84" y2="1.139"/><line class="b" x2="0.84" y2="1.139" transform="translate(2.352 3.189)"/></g><g transform="translate(0 0.568)"><line class="b" y1="0.84" x2="1.139" transform="translate(0 2.352)"/><line class="b" y1="0.84" x2="1.139" transform="translate(3.189)"/></g></g><g class="b" transform="translate(5208.33 3217.515)"><circle class="c" cx="2.181" cy="2.181" r="2.181"/><circle class="d" cx="2.181" cy="2.181" r="1.181"/></g><g transform="translate(5152.758 3341.955)"><g transform="translate(1.108)"><line class="b" x2="1.638" y2="2.22"/><line class="b" x2="1.638" y2="2.22" transform="translate(4.587 6.219)"/></g><g transform="translate(0 1.108)"><line class="b" y1="1.638" x2="2.22" transform="translate(0 4.587)"/><line class="b" y1="1.638" x2="2.22" transform="translate(6.219)"/></g></g><g transform="translate(5189.907 3392.809)"><g transform="translate(0 2.038)"><line class="b" x2="1.106" y2="0.034"/><line class="b" x2="1.106" y2="0.034" transform="translate(3.099 0.095)"/></g><g transform="translate(2.038)"><line class="b" y1="1.106" x2="0.034" transform="translate(0 3.099)"/><line class="b" y1="1.106" x2="0.034" transform="translate(0.095)"/></g></g><g transform="translate(5383.599 3340.573)"><g transform="translate(0 2.05)"><line class="b" x2="0.894" y2="0.158"/><line class="b" x2="0.894" y2="0.158" transform="translate(4.087 0.723)"/></g><g transform="translate(2.049)"><line class="b" y1="0.894" x2="0.158" transform="translate(0 4.087)"/><line class="b" y1="0.894" x2="0.158" transform="translate(0.723)"/></g></g><path class="a" d="M5282.816,3201.084l.056,5.01,4.625-.052" transform="translate(20.027 0)"/><path class="a" d="M5309.414,3377.239l1.857-4.654,4.3,1.714" transform="translate(24.122 26.408)"/><path class="a" d="M5362.689,3348.257l-5.005-.221-.2,4.621" transform="translate(31.524 22.628)"/><path class="a" d="M5162.456,3266.352l3.874-3.179-2.936-3.574" transform="translate(1.494 9.01)"/><g class="b" transform="translate(5401.187 3284.028)"><circle class="c" cx="2.181" cy="2.181" r="2.181"/><circle class="d" cx="2.181" cy="2.181" r="1.181"/></g><path class="a" d="M5266.88,3377.214a78.347,78.347,0,0,1-74.962-100.924" transform="translate(5.518 11.58)"/><path class="a" d="M5256.434,3228.068a78.347,78.347,0,0,1,74.767,101.565" transform="translate(15.965 4.155)"/></g></svg>