<svg version="1.1" id="Layer_1" xmlns="http://www.w3.org/2000/svg" x="0" y="0" viewBox="0 0 187.5 191.1" xml:space="preserve"><style>.st0{fill:#0073ff}</style><path class="st0" d="M4.6 97.1l-1 .7-.1.1s0-.1-.1-.1l-.7-1c-.3-.4-1-.5-1.4-.2-.4.3-.5 1-.2 1.4l.7 1 .1.1s-.1 0-.1.1l-1 .7c-.4.3-.5 1-.2 1.4.2.3.5.4.8.4.2 0 .4-.1.6-.2l1-.7.1-.1s0 .1.1.1l.7 1c.2.3.5.4.8.4.2 0 .4-.1.6-.2.4-.3.5-1 .2-1.4l-.7-1-.1-.1s.1 0 .1-.1l1-.7c.4-.3.5-1 .2-1.4-.4-.5-1-.6-1.4-.2zm-1.3 2.2c0 .1 0 .1 0 0-.1.1-.1 0-.1 0l-.1-.1s.1 0 .1-.1l.1-.1s0 .1.1.1l.1.1c-.1.1-.1.1-.2.1zm6.2-34.9c0-1-.8-1.9-1.9-1.9s-1.9.8-1.9 1.9.8 1.9 1.9 1.9 1.9-.9 1.9-1.9zm-2 0c0-.1 0-.1.1-.1s.1 0 .1.1c.1.1-.2.1-.2 0zm178.2-7.6c-1 0-1.9.8-1.9 1.9s.8 1.9 1.9 1.9 1.9-.8 1.9-1.9-.9-1.9-1.9-1.9zm-.2 1.9c0-.1 0-.1.1-.1s.1 0 .1.1c.1.1-.2.1-.2 0zM179 88.6c-1 0-1.9.8-1.9 1.9s.8 1.9 1.9 1.9 1.9-.8 1.9-1.9-.8-1.9-1.9-1.9zm-.1 1.9c0-.1 0-.1.1-.1s.1 0 .1.1c.1.1-.2.1-.2 0zM148.7 20c1 0 1.9-.8 1.9-1.9s-.8-1.9-1.9-1.9c-1 0-1.9.8-1.9 1.9s.9 1.9 1.9 1.9zm0-2c.1 0 .1 0 .1.1s-.2.1-.2 0l.1-.1zM160 54.6c.2.3.5.4.8.4.2 0 .4-.1.6-.2.4-.3.5-1 .2-1.4l-1.2-1.7c-.3-.4-1-.5-1.4-.2-.4.3-.5 1-.2 1.4l1.2 1.7zm3.5 4.7c.2.3.5.4.8.4.2 0 .4-.1.6-.2.4-.3.5-1 .2-1.4l-1.2-1.7c-.3-.4-1-.5-1.4-.2-.4.3-.5 1-.2 1.4l1.2 1.7zm-4.7-.5c.2 0 .4-.1.6-.2l1.7-1.2c.4-.3.5-1 .2-1.4-.3-.4-1-.5-1.4-.2l-1.7 1.2c-.4.3-.5 1-.2 1.4.1.3.4.4.8.4zm4.6-3.4c.2 0 .4-.1.6-.2l1.7-1.2c.4-.3.5-1 .2-1.4-.3-.4-1-.5-1.4-.2l-1.7 1.2c-.4.3-.5 1-.2 1.4.2.2.5.4.8.4zM106.8 3.8h.8v.8c0 .6.4 1 1 1 .5 0 1-.4 1-1v-.8h.8c.5 0 1-.4 1-1s-.4-1-1-1h-.8V1c0-.6-.4-1-1-1-.5 0-1 .4-1 1v.8h-.8c-.5 0-1 .4-1 1 .1.5.5 1 1 1zM16.7 17c-.6 0-1 .4-1 1l-.1 3-3.3-.1c-.6 0-1 .4-1 1s.4 1 1 1l4.3.1c.3 0 .5-.1.7-.3.2-.2.3-.4.3-.7l.1-4c-.1-.5-.5-.9-1-1zm-4.9 120.4l-4.3.7c-.5.1-.9.6-.8 1.1s.6.9 1.1.8l3.3-.5.5 3c.1.5.5.8 1 .8h.2c.5-.1.9-.6.8-1.1l-.6-4c-.2-.5-.7-.9-1.2-.8zM152.3 83l4 .7h.2c.5 0 .9-.3 1-.8.1-.5-.3-1.1-.8-1.1l-3-.5.5-3.3c.1-.5-.3-1.1-.8-1.1-.5-.1-1.1.3-1.1.8l-.7 4.3c-.2.4.2.9.7 1zM83.9 32.6H91c.6 0 1-.4 1-1s-.4-1-1-1h-7.1c-.6 0-1 .4-1 1s.5 1 1 1zm-7.4 21L64.3 65.8c-1.2-1.1-4.2-4.2-6.7-7-.4-.4-1-.4-1.4-.1-.4.4-.4 1-.1 1.4 7.2 7.9 7.8 7.9 8.3 8 .3 0 .6-.1.7-.3L77.9 55c.4-.4.4-1 0-1.4s-1-.4-1.4 0zM88.1 57h11.6c.6 0 1-.4 1-1s-.4-1-1-1H88.1c-.6 0-1 .4-1 1s.4 1 1 1zm0 5.5h26.5c.6 0 1-.4 1-1s-.4-1-1-1H88.1c-.6 0-1 .4-1 1s.4 1 1 1zm0 5.6h22.4c.6 0 1-.4 1-1s-.4-1-1-1H88.1c-.6 0-1 .4-1 1s.4 1 1 1zM76.5 77L64.3 89.2c-1.2-1.1-4.2-4.2-6.7-7-.4-.4-1-.4-1.4-.1-.4.4-.4 1-.1 1.4 7.2 7.9 7.8 7.9 8.3 8 .3 0 .6-.1.7-.3l12.8-12.8c.4-.4.4-1 0-1.4s-1-.4-1.4 0zm11.6 3.4h11.6c.6 0 1-.4 1-1s-.4-1-1-1H88.1c-.6 0-1 .4-1 1s.4 1 1 1zm0 5.5h23.5c.6 0 1-.4 1-1s-.4-1-1-1H88.1c-.6 0-1 .4-1 1s.4 1 1 1zm0 5.6h19.3c.6 0 1-.4 1-1s-.4-1-1-1H88.1c-.6 0-1 .4-1 1s.4 1 1 1zm-11.6 8.9l-12.2 12.2c-1.2-1.1-4.2-4.2-6.7-7-.4-.4-1-.4-1.4-.1-.4.4-.4 1-.1 1.4 7.2 7.9 7.8 7.9 8.3 8 .3 0 .6-.1.7-.3l12.8-12.8c.4-.4.4-1 0-1.4s-1-.4-1.4 0z"/><path class="st0" d="M141.1 92.3V30.2c-.1-3.2-2.7-5.8-5.9-5.8h-34.8c-2.4-4.2-6.9-7.1-12.1-7.1h-.1c-5.1 0-9.6 2.9-11.9 7.1H40.2c-3.3-.1-6 2.5-6.1 5.8v117.3c.1 3.2 2.7 5.8 5.9 5.8h41.6c5.5 21.7 25.1 37.8 48.5 37.8 27.6 0 50-22.4 50-50-.1-23.8-16.7-43.7-39-48.8zm-6.1-66c.1 0 .1 0 0 0 2.2 0 4 1.7 4.1 3.8v61.7c-.2 0-.4-.1-.7-.1-.5-.1-.9-.2-1.4-.2-1.7-.2-3.5-.4-5.3-.5h-.8V36c0-.6-.4-1-1-1h-16.8v-4c0-.6-.4-1-1-1H102c-.1-1.3-.4-2.5-.8-3.7H135zM76.4 31c.1-6.4 5.3-11.7 11.8-11.8h.1c6.5 0 11.8 5.3 11.9 11.8 0 .5.5 1 1 1h10.1v10H63.8V32h11.6c.5 0 .9-.4 1-1zM40 151.3c-2.2 0-4-1.7-4.1-3.8V30.2c.1-2.2 1.9-3.9 4.1-3.9h35.2c-.4 1.2-.7 2.4-.8 3.7H62.8c-.6 0-1 .4-1 1v4.1H45c-.6 0-1 .4-1 1V141c0 .6.4 1 1 1h35v1.8c0 .4.1.7.1 1.1 0 .5.1 1 .1 1.5v.1c.2 1.6.4 3.1.7 4.7H40zm40.2-15.1c0 .4-.1.9-.1 1.3v2.6H46V37.2h15.8v5.9c0 .6.4 1 1 1h49.4c.6 0 1-.4 1-1v-5.9H129v53.9h-.8c-.4 0-.8 0-1.2.1-1.7.1-3.3.3-5 .5-4.9.8-9.8 2.3-14.3 4.6-3.1 1.5-6 3.4-8.7 5.5H88c-.6 0-1 .4-1 1s.4 1 1 1h8.6c-1.3 1.1-2.4 2.3-3.6 3.6h-5c-.6 0-1 .4-1 1s.4 1 1 1h3.3v.1l-1.2 1.5c-.5.6-.9 1.2-1.3 1.8-.1.1-.2.3-.3.4-.1.1-.1.2-.2.3-.4.5-.7 1.1-1.1 1.7-3.8 6.3-6.2 13.6-7 21zm49.8 52.9c-22.7 0-41.8-15.9-46.8-37.1-.2-.7-.3-1.5-.5-2.2v-.2c-.1-.7-.2-1.4-.3-2 0-.2 0-.3-.1-.5-.1-.6-.1-1.1-.2-1.7 0-.3-.1-.7-.1-1 0-.4-.1-.8-.1-1.2v-4.7c0-.7.1-1.4.2-2.1.7-7.4 3.2-14.6 7.2-20.9.3-.5.7-1 1-1.5.2-.3.4-.6.7-.9.6-.9 1.3-1.7 1.9-2.5.3-.4.7-.8 1-1.2.4-.1.7-.4.8-.9 1.6-1.7 3.2-3.3 5-4.7.3-.1.5-.3.7-.5 2.6-2 5.4-3.8 8.5-5.3 5.6-2.7 11.7-4.4 17.9-4.8.8-.1 1.6-.1 2.4-.1h.2c1.7 0 3.4.1 5 .2h.2c1.7.2 3.4.4 5 .8 21.8 4.5 38.3 23.9 38.3 47 .1 26.5-21.4 48-47.9 48z"/><path class="st0" d="M151.6 116.6c-3.8-1.6-8-1.6-12 0s-7.4 4.7-9.6 8.6c-3.5-6.9-8.1-10-14.9-10.1-4.6 0-8.9 1.8-12.1 5-3.3 3.2-5.1 7.6-5.1 12.2 0 21 30.3 40.7 31.6 41.5.2.1.4.2.5.2.2 0 .4 0 .5-.1 1.3-.8 31.6-19.6 31.6-41.5 0-6.9-4.1-13.2-10.5-15.8zM130 171.8c-4.1-2.7-30.1-21-30.1-39.5 0-4.1 1.6-7.9 4.5-10.7 2.9-2.9 6.7-4.4 10.7-4.4 6.6 0 10.7 3.2 14 10.8.2.4.5.6.9.6s.8-.2.9-.6c1.8-4.3 5.3-7.8 9.4-9.5 3.5-1.4 7.2-1.4 10.5-.1 5.6 2.4 9.3 7.9 9.3 14 0 19.2-26 36.8-30.1 39.4z"/><path class="st0" d="M150.6 134.5c-.6 0-1 .4-1 1 0 1.8-.3 3.6-1 5.3-2.6 7.5-10.1 14.6-14.3 18.1-.4.4-.5 1-.1 1.4.2.2.5.4.8.4.2 0 .5-.1.6-.2 5.3-4.5 12.3-11.4 14.9-19 .7-1.9 1.1-3.9 1.1-5.9 0-.6-.4-1.1-1-1.1z"/></svg>