<svg xmlns="http://www.w3.org/2000/svg" width="322.896" height="205.053" viewBox="0 0 322.896 205.053"><defs><style>.a{fill:#fff;}.a,.b{stroke:#0073ff;stroke-linecap:round;stroke-linejoin:round;stroke-width:2px;}.b,.d{fill:none;}.c{stroke:none;}</style></defs><g transform="translate(-6004.258 -3228.172)"><g transform="translate(6319.763 3320.564)"><g transform="translate(0.787)"><line class="a" x2="1.163" y2="1.577"/><line class="a" x2="1.163" y2="1.577" transform="translate(3.257 4.416)"/></g><g transform="translate(0 0.787)"><line class="a" y1="1.163" x2="1.577" transform="translate(0 3.257)"/><line class="a" y1="1.163" x2="1.577" transform="translate(4.417)"/></g></g><g class="a" transform="translate(6150.572 3250.707)"><circle class="c" cx="1.942" cy="1.942" r="1.942"/><circle class="d" cx="1.942" cy="1.942" r="0.942"/></g><g class="a" transform="translate(6296.134 3285.941)"><circle class="c" cx="1.942" cy="1.942" r="1.942"/><circle class="d" cx="1.942" cy="1.942" r="0.942"/></g><g class="a" transform="translate(6024.95 3362.479)"><circle class="c" cx="3.021" cy="3.021" r="3.021"/><circle class="d" cx="3.021" cy="3.021" r="2.021"/></g><g class="a" transform="translate(6065.679 3253.069)"><circle class="c" cx="2.506" cy="2.506" r="2.506"/><circle class="d" cx="2.506" cy="2.506" r="1.506"/></g><g transform="translate(6104.706 3229.57)"><g transform="translate(0.975)"><line class="a" x2="0.964" y2="1.308"/><line class="a" x2="0.964" y2="1.308" transform="translate(4.513 6.118)"/></g><g transform="translate(0 0.974)"><line class="a" y1="0.964" x2="1.308" transform="translate(0 4.513)"/><line class="a" y1="0.964" x2="1.308" transform="translate(6.119)"/></g></g><g transform="translate(6212.636 3240.038)"><g transform="translate(0 2.838)"><line class="a" x2="0.573" y2="0.101"/><line class="a" x2="0.573" y2="0.101" transform="translate(6.324 1.119)"/></g><g transform="translate(2.838)"><line class="a" y1="0.573" x2="0.101" transform="translate(0 6.324)"/><line class="a" y1="0.573" x2="0.101" transform="translate(1.12)"/></g></g><path class="b" d="M5996.558,3291.252l3.96-5.7-5.26-3.655" transform="translate(10 25.297)"/><path class="b" d="M6192.513,3305.315l-6.551,2.291,2.115,6.047" transform="translate(114.057 45.302)"/><rect class="b" width="219.086" height="151.997" transform="translate(6049.373 3280.228)"/><g transform="translate(6068.185 3342.89)"><rect class="b" width="49.28" height="63.809"/><line class="b" x2="13.225" transform="translate(18.237 11.895)"/><line class="b" x2="16.081" transform="translate(18.237 29.363)"/><line class="b" x2="11.287" transform="translate(18.237 46.831)"/><line class="b" x2="21.998" transform="translate(18.237 38.097)"/><line class="b" x2="20.106" transform="translate(18.237 20.629)"/><line class="b" x2="0.849" transform="translate(9.464 11.895)"/><line class="b" x2="0.849" transform="translate(9.464 20.629)"/><line class="b" x2="0.849" transform="translate(9.464 29.363)"/><line class="b" x2="0.849" transform="translate(9.464 38.097)"/><line class="b" x2="0.849" transform="translate(9.464 46.831)"/><g transform="translate(66.092)"><rect class="b" width="49.28" height="63.809"/><line class="b" x2="13.225" transform="translate(18.237 11.895)"/><line class="b" x2="16.081" transform="translate(18.237 29.363)"/><line class="b" x2="11.287" transform="translate(18.237 46.831)"/><line class="b" x2="21.998" transform="translate(18.237 38.097)"/><line class="b" x2="20.106" transform="translate(18.237 20.629)"/><line class="b" x2="0.849" transform="translate(9.464 11.895)"/><line class="b" x2="0.849" transform="translate(9.464 20.629)"/><line class="b" x2="0.849" transform="translate(9.464 29.363)"/><line class="b" x2="0.849" transform="translate(9.464 38.097)"/><line class="b" x2="0.849" transform="translate(9.464 46.831)"/></g><g transform="translate(132.183)"><rect class="b" width="49.28" height="63.809"/><line class="b" x2="13.225" transform="translate(18.237 11.895)"/><line class="b" x2="16.081" transform="translate(18.237 29.363)"/><line class="b" x2="11.287" transform="translate(18.237 46.831)"/><line class="b" x2="21.998" transform="translate(18.237 38.097)"/><line class="b" x2="20.106" transform="translate(18.237 20.629)"/><line class="b" x2="0.849" transform="translate(9.464 11.895)"/><line class="b" x2="0.849" transform="translate(9.464 20.629)"/><line class="b" x2="0.849" transform="translate(9.464 29.363)"/><line class="b" x2="0.849" transform="translate(9.464 38.097)"/><line class="b" x2="0.849" transform="translate(9.464 46.831)"/></g></g><g transform="translate(6087.271 3296.534)"><path class="b" d="M6104.94,3272.132l4.491,9.1,10.044,1.46a1.18,1.18,0,0,1,.655,2.012l-7.268,7.084,1.715,10a1.18,1.18,0,0,1-1.711,1.245l-8.984-4.724-8.985,4.724a1.18,1.18,0,0,1-1.71-1.245l1.715-10-7.268-7.084a1.18,1.18,0,0,1,.654-2.012l10.044-1.46,4.492-9.1A1.18,1.18,0,0,1,6104.94,3272.132Z" transform="translate(-6032.236 -3271.474)"/><g transform="translate(103.153 11.238)"><line class="b" x2="35.855" transform="translate(4.284)"/><line class="b" x2="28.273" transform="translate(0 10.098)"/></g><g transform="translate(0 11.238)"><line class="b" x1="35.855"/><line class="b" x1="28.273" transform="translate(11.865 10.098)"/></g></g></g></svg>