<svg xmlns="http://www.w3.org/2000/svg" width="322.896" height="205.053"><defs><style>.a{fill:#fff}.a,.b{stroke:#0073ff;stroke-linecap:round;stroke-linejoin:round;stroke-width:2px}.b,.d{fill:none}.c{stroke:none}</style></defs><path class="a" d="M316.292 92.392l1.163 1.577m2.094 2.839l1.163 1.577m-5.207-.786l1.577-1.163m2.84-2.094l1.577-1.163"/><g class="a" transform="translate(146.314 22.535)"><circle class="c" cx="1.942" cy="1.942" r="1.942"/><circle class="d" cx="1.942" cy="1.942" r=".942"/></g><g class="a" transform="translate(291.876 57.769)"><circle class="c" cx="1.942" cy="1.942" r="1.942"/><circle class="d" cx="1.942" cy="1.942" r=".942"/></g><g class="a" transform="translate(20.692 134.307)"><circle class="c" cx="3.021" cy="3.021" r="3.021"/><circle class="d" cx="3.021" cy="3.021" r="2.021"/></g><g class="a" transform="translate(61.421 24.897)"><circle class="c" cx="2.506" cy="2.506" r="2.506"/><circle class="d" cx="2.506" cy="2.506" r="1.506"/></g><path class="a" d="M101.423 1.398l.964 1.308m3.549 4.81l.964 1.308m-6.452-.975l1.308-.964m4.811-3.549l1.308-.964m100.503 12.332l.573.101m5.751 1.018l.573.101m-4.059 2.839l.101-.573m1.019-5.751l.101-.573"/><path class="b" d="M2.3 88.377l3.96-5.7L1 79.022m301.312 43.423l-6.551 2.291 2.115 6.047M45.115 52.056h219.086v151.997H45.115z"/><path class="b" d="M63.927 114.718h49.28v63.809h-49.28zm18.237 11.895h13.225m-13.225 17.468h16.081m-16.081 17.468h11.287m-11.287-8.734h21.998m-21.998-17.468h20.106m-28.879-8.734h.849m-.849 8.734h.849m-.849 8.734h.849m-.849 8.734h.849m-.849 8.734h.849m55.779-46.831h49.28v63.809h-49.28zm18.237 11.895h13.225m-13.225 17.468h16.081m-16.081 17.468h11.287m-11.287-8.734h21.998m-21.998-17.468h20.106m-28.879-8.734h.849m-.849 8.734h.849m-.849 8.734h.849m-.849 8.734h.849m-.849 8.734h.849m55.778-46.831h49.28v63.809h-49.28zm18.237 11.895h13.225m-13.225 17.468h16.081m-16.081 17.468h11.287m-11.287-8.734h21.998m-21.998-17.468h20.106m-28.879-8.734h.849m-.849 8.734h.849m-.849 8.734h.849m-.849 8.734h.849m-.849 8.734h.849M155.717 69.02l4.491 9.1 10.044 1.46a1.18 1.18 0 01.655 2.012l-7.268 7.084 1.715 10a1.18 1.18 0 01-1.711 1.245l-8.984-4.724-8.985 4.724a1.18 1.18 0 01-1.71-1.245l1.715-10-7.268-7.084a1.18 1.18 0 01.654-2.012l10.044-1.46 4.492-9.1a1.18 1.18 0 012.116 0zM190.45 79.6h35.855m-40.139 10.098h28.273M118.868 79.6H83.013m40.138 10.098H94.878"/></svg>