<svg xmlns="http://www.w3.org/2000/svg" width="67.334" height="67.421"><defs><style>.a{fill:none;stroke:#0073ff;stroke-linecap:round;stroke-linejoin:round;stroke-width:2px}</style></defs><g transform="translate(-4605.853 -6121.5)"><path class="a" d="M4638.9 6187.921a31.2 31.2 0 0 1-3.567-11.269 35.324 35.324 0 0 1 .464-10.847 39.133 39.133 0 0 1 3.365-10.008l.324-.635m28.658-15.872a31.206 31.206 0 0 1-7.975 8.723 35.34 35.34 0 0 1-9.626 5.022 39.217 39.217 0 0 1-10.35 2.09l-.712.037m-28.081-16.887a31.192 31.192 0 0 1 11.542 2.545 35.316 35.316 0 0 1 9.162 5.825 39.15 39.15 0 0 1 6.985 7.919l.388.6"/><circle class="a" cx="32.667" cy="32.667" r="32.667" transform="translate(4606.853 6122.5)"/><path class="a" d="M4661.964 6146.571c-.56.491-1.15.96-1.75 1.411a34.081 34.081 0 0 1-7.56 4.239 46.567 46.567 0 0 0-34.23-21.969 32.583 32.583 0 0 1 8.28-5.15 46.553 46.553 0 0 1 35.26 21.469zm-26.253 32.013a29.125 29.125 0 0 1-.346-2.22 34.091 34.091 0 0 1 .108-8.667 46.565 46.565 0 0 0 36.141-18.659 32.557 32.557 0 0 1 .32 9.745 46.55 46.55 0 0 1-36.223 19.801zm-15.046-38.737c.7.239 1.406.516 2.1.81a34.115 34.115 0 0 1 7.452 4.427 46.569 46.569 0 0 0-1.912 40.629 32.57 32.57 0 0 1-8.6-4.595 46.552 46.552 0 0 1 .96-41.271z"/></g></svg>