<svg xmlns="http://www.w3.org/2000/svg" width="23.081" height="23.111" viewBox="0 0 23.081 23.111"><defs><style>.a{fill:none;stroke:#fff;stroke-linecap:round;stroke-linejoin:round;}</style></defs><g transform="translate(0.5 0.5)"><g transform="translate(1.538 5.332)"><path class="a" d="M4636.385,6166.234a10.566,10.566,0,0,1-1.206-3.809,11.971,11.971,0,0,1,.158-3.667,13.209,13.209,0,0,1,1.137-3.382l.109-.214" transform="translate(-4627.095 -6149.455)"/><path class="a" d="M4649.168,6139.29a10.547,10.547,0,0,1-2.7,2.948,11.935,11.935,0,0,1-3.253,1.7,13.241,13.241,0,0,1-3.5.706l-.24.012" transform="translate(-4629.992 -6138.947)"/><path class="a" d="M4611.4,6138.274a10.556,10.556,0,0,1,3.9.861,11.912,11.912,0,0,1,3.1,1.969,13.256,13.256,0,0,1,2.361,2.676l.131.2" transform="translate(-4611.404 -6138.274)"/></g><ellipse class="a" cx="11.041" cy="11.041" rx="11.041" ry="11.041" transform="translate(0 0)"/><path class="a" d="M4633.139,6132.357c-.189.167-.389.325-.591.478a11.531,11.531,0,0,1-2.555,1.432,15.742,15.742,0,0,0-11.569-7.425,11.027,11.027,0,0,1,2.8-1.741A15.738,15.738,0,0,1,4633.139,6132.357Z" transform="translate(-4614.513 -6124.222)"/><path class="a" d="M4635.333,6159.023c-.05-.246-.087-.5-.118-.75a11.561,11.561,0,0,1,.037-2.929,15.736,15.736,0,0,0,12.214-6.306,10.975,10.975,0,0,1,.109,3.293A15.731,15.731,0,0,1,4635.333,6159.023Z" transform="translate(-4625.579 -6140.069)"/><path class="a" d="M4617.143,6139.848c.238.08.475.174.708.273a11.537,11.537,0,0,1,2.518,1.5,15.744,15.744,0,0,0-.646,13.732,11.017,11.017,0,0,1-2.906-1.553A15.735,15.735,0,0,1,4617.143,6139.848Z" transform="translate(-4612.475 -6133.985)"/></g></svg>