<svg xmlns="http://www.w3.org/2000/svg" width="23.081" height="23.111"><defs><style>.a{fill:none;stroke:#fff;stroke-linecap:round;stroke-linejoin:round}</style></defs><g transform="translate(.5 .5)"><path class="a" d="M10.828 22.111a10.566 10.566 0 0 1-1.206-3.809 11.971 11.971 0 0 1 .158-3.667 13.209 13.209 0 0 1 1.137-3.382l.109-.214"/><path class="a" d="M20.714 5.675a10.547 10.547 0 0 1-2.7 2.948 11.935 11.935 0 0 1-3.253 1.7 13.241 13.241 0 0 1-3.5.706l-.24.012M1.534 5.332a10.556 10.556 0 0 1 3.9.861 11.912 11.912 0 0 1 3.1 1.969 13.256 13.256 0 0 1 2.361 2.676l.131.2"/><ellipse class="a" cx="11.041" cy="11.041" rx="11.041" ry="11.041"/><path class="a" d="M18.626 8.135c-.189.167-.389.325-.591.478a11.531 11.531 0 0 1-2.555 1.432A15.742 15.742 0 0 0 3.911 2.62a11.027 11.027 0 0 1 2.8-1.741 15.738 15.738 0 0 1 11.915 7.256zM9.754 18.954c-.05-.246-.087-.5-.118-.75a11.561 11.561 0 0 1 .037-2.929 15.736 15.736 0 0 0 12.214-6.306 10.975 10.975 0 0 1 .109 3.293 15.731 15.731 0 0 1-12.242 6.692zM4.668 5.863c.238.08.475.174.708.273a11.537 11.537 0 0 1 2.518 1.5 15.744 15.744 0 0 0-.646 13.732 11.017 11.017 0 0 1-2.906-1.553 15.735 15.735 0 0 1 .326-13.952z"/></g></svg>