<svg version="1.1" id="Layer_1" xmlns="http://www.w3.org/2000/svg" x="0" y="0" viewBox="0 0 325.5 277.5" xml:space="preserve"><style>.st0{fill:#fff}.st1{fill:#0073ff}</style><path class="st0" d="M302.6 156.3l-.4.2c.1 0 .3-.1.4-.2z"/><path class="st0" d="M301.8 156.7c.1 0 .3-.1.4-.1l.4-.3c0-.1 0-.1-.1-.2-.2.2-.4.4-.7.6z"/><path class="st0" d="M300 156.9c.7 0 1.3 0 1.8-.2.3-.2.6-.4.7-.6-.1-.2-.3-.4-.5-.6l-2 1.4z"/><path class="st1" d="M183.7 67.4c5.1 0 8.2-1.5 8.4-1.6.5-.2.7-.8.4-1.3-.2-.5-.8-.7-1.3-.5 0 0-1.4.7-3.8 1.1-1.5.3-3.5.4-5.9.2-1.4-.1-3-.4-4.6-.8-.5-.1-1.1.2-1.2.7s.2 1.1.7 1.2c2.8.7 5.2 1 7.3 1z"/><path class="st1" d="M324.8 140.2c0-.4-.3-.7-.6-.8-.3-.1-.7-.1-1 .1l-8.5 6-3.2-1.5-.3-3.5 8.5-6c.3-.2.5-.6.4-.9 0-.4-.3-.7-.6-.8l-7.3-3.3c-.3-.1-.7-.1-1 .1l-10.3 7.3c-.3.2-.5.6-.4.9l.6 6.4-5.8 4.1c-.9-.4-1.7-.8-2.5-1.1-.1-.1-.2-.1-.2-.1-.3-.1-.7-.3-1-.4-.4-.2-.8-.3-1.1-.4l-1.2-.3c-1.8-.5-3.3-.9-4.4-2.3l-1.8-2.4c-.5-.7-1-1.3-1.5-2-2.5-3.2-19.5-22.9-24-26-1.2-.9-2.7-2.6-4.4-4.7-.3-.3-.6-.7-.9-1l1.8-1.5c.2-.2.4-.4.4-.7 0-.3-.1-.6-.3-.8-.9-.9-21.9-20.9-42-21.4-1-.3-2.1-.6-3.1-.7h-.3c-.9-.5-1.9-.9-3-.9h-8.5c-.4 0-.7.2-.8.5h-2.8v-4.7c1.1-.2 2.2-.5 3.5-.8 7.4-1.9 12.4-7.7 15-14.6.9.3 1.9.5 2.8.5 1.7 0 3.2-.6 4.4-1.8 2.1-2 2.7-5.1 1.6-7.6-.5-1-1.7-2.9-4.9-3.6.3-.4.5-.8.7-1.2.4-.8.6-1.7.8-2.6.1 0 .1.1.2.1.6.6 1.4.9 2.2.9.8 0 1.6-.3 2.2-.9.6-.6.9-1.3.9-2.2 0-2.8-1.1-5.5-3.1-7.9.1-.1.1-.3.1-.4V22c0-12.1-9.9-22-22-22h-26.8c-12.1 0-22 9.9-22 22v13.6c0 .2 0 .3.1.4-2 2.4-3.2 5.1-3.2 8 .1 1.7 1.5 3 3.2 3 .5 0 1-.2 1.4-.4.1 1.5.4 3 1 4.2-2.3 1.1-3.2 2.8-3.5 3.7-.9 2.6.1 5.7 2.3 7.4 1.1.9 2.5 1.3 3.9 1.3.8 0 1.5-.1 2.3-.4 2.7 6.6 7.6 12.1 14.8 13.9 1.3.4 2.5.6 3.5.8v5.2c-.3 0-.6 0-.9.1 0-.5-.4-1-1-1h-8.5c-1.6 0-3 .7-4.1 1.8-23-.8-32.8 19.1-32.9 19.3-.2.3-.1.7.1 1l.4.6c-3.6 3.8-7.4 7.7-9 8.3-3.1 1.2-7.3 6.3-11 10.7-2.3 2.8-4.5 5.4-5.8 6.3-.4.3-.9.6-1.4 1.1-1.2 1-4.2 3.4-5.1 2.7-1.4-1-4.1-.9-6.2-.3-2.9.8-5.1 2.4-6.2 4.5h-2.2v-5.2c0-.6-.4-1-1-1H70c-.6 0-1 .4-1 1v5.2h-5.6v-5.2c0-.6-.4-1-1-1s-1 .4-1 1v5.2h-5.3c.5-.4.9-.9 1.3-1.4 1.4-1.9 1.9-4.3 1.5-6.6-.3-1.6-1-3.2-2.1-4.4v-.9c0-3.5-2.6-7-6.3-8.4-3.4-1.2-7.1-1.1-10.4.1-6.5 2.2-11.6 7.2-14.1 13.6-.2.5.1 1.1.6 1.3.5.2 1.1-.1 1.3-.6 2.2-5.9 6.9-10.4 12.9-12.4 2.9-1.1 6.1-1.1 9-.1 2.6 1 4.5 3.4 4.9 5.8-1.8-1.1-3.9-1.5-6.1-1.1-2.7.5-5.1 2.2-6.4 4.7-1.3 2.6-.9 6.4 1.8 7.8 1.9 1 4.2.5 6.8-1.2 2.5-1.7 4.3-3.8 5.2-5.9.4.7.6 1.4.8 2.2.3 1.8-.1 3.6-1.2 5.1-.9 1.2-2.1 2.1-3.6 2.6H38.3c-.6 0-1 .4-1 1v29.6H1c-.6 0-1 .4-1 1v14.1c0 .6.4 1 1 1h23.9v28.5c-3.2 6.1-5.1 13.1-5.1 20.5s1.8 14.4 5.1 20.5v22.4c0 .6.4 1 1 1H40c.6 0 1-.4 1-1V271c6.6 4 14.4 6.3 22.7 6.3 24.2 0 43.9-19.7 43.9-43.9s-19.7-43.9-43.9-43.9c-8.3 0-16.1 2.3-22.7 6.3v-11.4h78.9v91.9c0 .6.4 1 1 1H135c.6 0 1-.4 1-1v-91.9h15.3v75.7c0 .6.4 1 1 1h.7c-2.3 1.4-5 3.7-6.5 7.4-1.1 2.6-1 5.3.1 7.1.6.9 1.7 1.9 3.7 1.9h21.1c.3 0 .6.1.8.1 3.1 0 5.8-2.2 6.3-5.3.5-2.2.3-8.5.1-11.1h2.8c.6 0 1-.4 1-1v-66.3h5.4v66.3c0 .6.4 1 1 1h2.6c-.1 2.5-.4 8.8.1 11 .5 3.2 3.2 5.4 6.3 5.4.3 0 .6 0 .8-.1H225c1.1 0 2.2-.3 3.2-1 1.3-.9 2.1-2.1 2.4-3.6.3-1.5 0-3-.9-4.3-2.8-4.2-7.3-6.7-10.5-8.1.1-.1.1-.3.1-.4V116.3c7.6 5.6 13.1 7.1 13.3 7.1.3.1.6 0 .9-.2l1.7-1.4c2.9 2.1 5.9 3.9 8 4.8 3.6 5.1 23 19.1 31.6 25.2.2.8.3 1.6.5 2.4.5 2.4 1 4.9 1.8 6.6 0 .1.1.1.1.2l-11.9 8.4c-.5.3-.6.9-.2 1.4l5.6 7.9c.2.2.4.4.6.4h.2c.2 0 .4-.1.6-.2l13.2-9.4c1.4.9 2.9 1.6 4.6 2.2.1 0 .2.1.3.1h.2c3.1-.5 13.3-4.8 13.7-8 .2-1.6-.9-3.4-2.5-5.1.9-.1 1.6-.4 2.3-.8.6-.4.9-1 .8-1.7v-.2l3.3-2.3 5.9 2.7c.3.1.7.1 1-.1l10.3-7.3c.3-.2.5-.6.4-.9l-.8-7.9zm-275-8c-1.1.8-3.2 1.9-4.8 1.1-1.6-.8-1.8-3.4-.9-5.1 1-1.9 2.8-3.3 4.9-3.7.4-.1.8-.1 1.2-.1 1.7 0 3.2.6 4.4 1.7-.7 3-3.5 5.2-4.8 6.1zm158.8-90.6c-.8-.7-2-1-3.7-.7-1.3.2-2.3.5-3.3.8-1.9.6-3.1 1-4.9 0 .7-1.6.6-3.6-.3-4.9 6.2 1 11.8 2.9 16.1 5.3.3.2.7.4 1 .6.4.2.7.5 1 .7.4.3.7.5 1.1.8 0 1.2-.2 2.3-.7 3.3-.1.2-.2.4-.4.6l-.9 1.2c-.3.3-.7.6-1 .8-.4.3-.9.5-1.4.6-.5.2-1 .3-1.5.3-1-1.1-.7-3-.5-4.8.3-1.7.5-3.5-.6-4.6zm10.6 12.5c.8 1.7.3 4-1.1 5.3-1.3 1.3-3.2 1.5-5.2.8.9-2.8 1.4-5.8 1.6-8.7 2.3.1 4 1 4.7 2.6zm-68-32.1c0-11 9-20 20-20H198c11 0 20 9 20 20v12c-2.7-2.4-6.3-4.6-10.6-6.2-.7-.3-1.4-.5-2.2-.8-.9-.3-1.7-.5-2.6-.8-5.4-1.5-11.5-2.3-18-2.3-6.8 0-13.3.9-18.8 2.6-.9.3-1.7.5-2.5.8-.7.3-1.5.5-2.1.8-4 1.6-7.4 3.6-9.9 5.9V22zm.5 21.2c-.4.3-.7.6-1 .9-.2.2-.4.4-.6.5-.2.2-.5.3-.7.3-.6 0-1.1-.4-1.1-1.1 0-2.6 1.1-5.1 3.2-7.3.3-.3.6-.7 1-1 .4-.3.7-.7 1.1-1 1.4-1.1 3-2.1 4.7-3.1.7-.3 1.4-.7 2.1-1l2.1-.9c.2-.1.4-.1.6-.2 6.1-2.2 13.5-3.5 21.6-3.5 5.8 0 11.2.7 16.1 1.8 1.9.5 3.7 1 5.4 1.6.7.3 1.4.5 2 .8.7.3 1.4.6 2.1 1 2.1 1 4 2.2 5.5 3.5.4.3.8.7 1.1 1l1 1c2 2.2 3.2 4.7 3.2 7.3 0 .3-.1.5-.3.7-.2.2-.5.3-.8.3-.3 0-.6-.1-.8-.3-.5-.5-1-.9-1.5-1.3-.4-.3-.7-.6-1.1-.9-.4-.3-.8-.6-1.3-.9l-.9-.6c-.4-.2-.7-.4-1.1-.6-.4-.2-.7-.4-1.1-.6-2.4-1.2-5.2-2.3-8.1-3.2-1.2-.4-2.5-.7-3.9-1-1.8-.4-3.8-.7-5.7-1-3.2-.4-6.4-.6-9.8-.6-3.4 0-6.6.2-9.8.6-2 .3-3.9.6-5.7 1-1.3.3-2.6.6-3.8 1-3.2.9-6.1 2.1-8.7 3.5-.4.2-.7.4-1.1.6-.4.2-.8.4-1.1.7-.6.4-1.1.7-1.6 1.1-.6.4-.9.7-1.2.9zm26.1-6.5c-.1-.1-.2-.1-.2-.2H189c-.1 0-.2.1-.2.1-1.7.9-3.1 2-4.2 3-2.6 2.1-3.6 2.8-5.5 1.3.4-1.5-.1-3-1.3-4.2zm-26 23.5c-1.6-1.2-2.3-3.4-1.7-5.2.4-1.2 1.4-2.1 2.8-2.7.5.5.9 1 1.5 1.4.3 2.4.9 4.8 1.6 7.1-1.5.6-3 .3-4.2-.6zm4.1-7.8c-.2-.2-.4-.4-.7-.5l-.1-.1c-.3-.3-.5-.6-.8-.8l-.3-.3-.4-.4c0-.1-.1-.1-.1-.2-.6-1-.9-3-1-5.1.5-.4.9-.7 1.4-1.1.3-.2.7-.5 1-.7.3-.2.7-.4 1-.6 3.1-1.8 6.8-3.3 11-4.4-1.7 1-3.2 2.4-3.6 4.5-.1 0-.3-.1-.4-.1-1.4-.4-4.2-1.3-5.7 1.5-.8 1.6-1 3.8-1 5.8v1c0 .8.1 1.6.2 2.3-.2-.1-.3-.3-.5-.4.3-.2.2-.3 0-.4zM172 74.7c-6.5-1.7-11-6.7-13.5-12.8-.1-.3-.2-.6-.4-.9-.7-1.8-1.2-3.7-1.5-5.6.2.1.4.3.6.4.1.1.2.1.3.2.1.1.3.1.5.1h.3c.1 0 .2-.1.3-.1.3-.2.5-.6.4-1-.4-1.9-1-7.5.3-10 .6-1.1 1.5-1.1 3.3-.5.9.3 1.7.5 2.3.1.2-.1.5-.5.6-1.1.1-2.2 2.3-3.3 4.5-4.5.5-.2.9-.5 1.4-.7 2-1.1 3.9-.7 4.9.2.8.7 1 1.7.5 2.7-.2.4-.1.9.2 1.2 3.5 3.2 6 1.2 8.6-.8 1.1-.9 2.4-1.9 3.9-2.8 2.3-1.3 4.1-1.5 5-.5.7.8.7 2.5-.1 3.6-.2.2-.2.5-.2.7s.2.5.4.7c3 2.1 5.1 1.4 7.4.7.9-.3 1.9-.6 3-.8 1-.2 1.8-.1 2 .2.4.4.2 1.8.1 3.1-.3 2.3-.7 5.1 1.5 6.9.2.2.4.2.7.2.6 0 1.1-.1 1.7-.3.3-.1.7-.2 1-.3.1 0 .2-.1.3-.1-.1.8-.2 1.5-.3 2.3-.3 2.1-.9 4.1-1.6 6-2.4 6.6-7 12-13.9 13.8-1.6.4-2.9.7-4.2.9-.5.1-.8.5-.8 1v5.5c-4.8 0-9.9.1-14.6.4v-5.9c0-.5-.4-.9-.8-1-1.1-.4-2.4-.7-4.1-1.2zm2.2 10c.3 0 .6 0 1-.1 2-.1 4.1-.2 6.2-.3 3.8-.1 7.7-.2 11.3-.2h3.6v30.2c0 1.9-1.6 3.5-3.5 3.5h-15.1c-1.9 0-3.5-1.6-3.5-3.5V84.7zm-43.9 17.6c2.5-4.3 11.4-17 29.1-16.8-.2.6-.3 1.2-.3 1.9v25.8c0 1.8-2.8 3.7-3.8 4-.6.2-1.7.5-2.5 1.1-.2-.1-.4 0-.7 0-3.1 1.4-6.3 2.6-9.6 3.5l-1.5-2.2-.6-.8-.6-.8-9.1-13.4-.6-.8-.4-.6.6-.9zm21 18.5v47.6H98.9v-16.6c1.6-.8 3.2-1.9 3.9-2.4 2-1.3 3.8-3.1 4.7-6.2 1.5-1.1 3.6-2.4 5.9-3.9 7.2-4.6 16.1-10.4 18.8-14.3 2.2-.9 4.7-2.4 7.2-4.2l1.9 2.7c.2.4.7.5 1.1.4 3-.8 6-1.9 8.9-3.1zm-61 14.4c2.3-.6 4-.4 4.5 0 2.2 1.7 5.3-.9 7.5-2.7.5-.4.9-.8 1.3-1 1.5-1 3.7-3.7 6.2-6.7 3.3-4 7.5-9.1 10.2-10.1 1.8-.7 4.8-3.7 9.4-8.5l8.9 13c-2.6 1.8-5 3.2-7.1 4.1-.2.1-.4.2-.5.4-2.2 3.5-11.6 9.5-18.4 13.9-2.5 1.6-4.7 3-6.3 4.1-.2.1-.3.3-.4.6-.6 2.6-2 4-3.7 5.2v.1c-.1 0-.2.1-.3.2-.8.6-1.8 1.2-2.7 1.8-.3.2-.7.4-1 .5-.4.2-.7.3-1 .4-.5.2-.9.3-1.1.2-.6-.2-1-.4-1.1-.7-.1-.3.1-.6.4-1 .3-.4 1-.8 1.8-1.3.1-.1.2-.1.4-.2s.4-.3.6-.4c.3-.2.7-.4 1-.7.8-.6 1.5-1.2 2.1-1.9.2-.2.4-.5.5-.8.3-.5.1-1.1-.4-1.4-.5-.3-1.1-.1-1.4.4-.2.4-.5.7-.9 1.1v-4.9c0-.6-.4-1-1-1H86c1.3-1.7 3.3-2.5 4.3-2.7zm-51 4.6h11.6c.2.1.4.2.6.2h.2c.3 0 .5-.1.8-.2H70c.6 0 1-.4 1-1v-5.2h8.4v5.2c0 .6.4 1 1 1h16.4v5.4c-.2.2-.5.3-.7.4-1 .6-2 1.2-2.6 1.9-.8.9-1.1 2-.8 2.9.3 1 1.2 1.7 2.5 2.1.2.1.4.1.6.1.3 0 .6 0 1-.1v15.8H39.3v-28.5zM39 275.3H26.9v-18c3.2 4.9 7.3 9.1 12.1 12.4v5.6zm24.7-83.8c23.1 0 41.9 18.8 41.9 41.9s-18.8 41.9-41.9 41.9c-8.4 0-16.1-2.5-22.7-6.7-.3-.2-.7-.4-1-.7-.3-.2-.7-.5-1-.7-5-3.6-9.1-8.4-12.1-13.8-.4-.6-.7-1.3-1-2-.4-.7-.7-1.5-1-2.3-2-4.9-3.1-10.2-3.1-15.8s1.1-10.9 3.1-15.8c.3-.8.6-1.5 1-2.3.3-.7.6-1.3 1-2 3-5.5 7.1-10.2 12.1-13.8.3-.2.7-.5 1-.7.3-.2.7-.4 1-.7 6.5-4 14.3-6.5 22.7-6.5zm-36.8 18.1v-25.1H39v12.7c-4.8 3.2-9 7.5-12.1 12.4zM134 275.3h-12.1v-90.9H134v90.9zm18.3-92.8H2v-12.1h156.9v12.2h-6.6zm24.3 89.3c-.4 2.4-2.6 4-5 3.7h-21.3c-1 0-1.6-.3-2.1-1-.8-1.1-.7-3.2.1-5.2.8-1.9 1.9-3.3 3.1-4.5 1.9 1.9 4.1 3 6.5 3.1h.3c3.8 0 8-2.3 12.6-6.8h5.8c.3 3 .4 8.8 0 10.7zm-23.7-8.3c2.3-1.6 4.5-2.3 5-2.4h10c-3.7 3.3-7.1 4.9-10 4.8-1.7-.1-3.4-.9-5-2.4zm37.1-4.4v-66.3c0-.6-.4-1-1-1h-7.4c-.6 0-1 .4-1 1v66.3h-27.2v-67.5c5.1-.7 9-2.6 11.6-5.9 2.8-3.4 3.4-7.5 3.5-10v-2.4c-.1-.5-.6-.9-1.1-.9-.5.1-.9.6-.9 1.1v2.2c-.1 2.2-.7 5.8-3.1 8.7-2.2 2.8-5.6 4.5-10.1 5.1v-5.1h6.6c.6 0 1-.4 1-1v-14.2c0-.6-.4-1-1-1h-6.7V121c0-.3.1-.6.3-.8.4-.5 1.2-.8 2.3-1.1 1.4-.4 5.3-2.8 5.3-5.9V87.3c0-.7.2-1.3.5-1.8.2-.4.5-.7.8-1 .5-.4 1.1-.7 1.8-.8.2 0 .3-.1.5-.1h7.5v30.7c0 3 2.5 5.5 5.5 5.5h15.1c3 0 5.5-2.5 5.5-5.5V83.7h7.5c.9 0 1.7.3 2.3.8.8.7 1.3 1.6 1.3 2.8v27.1c0 3 2.5 5.5 5.5 5.5h2.3v69.7c-4.4-.6-7.8-2.3-10.1-5.1-2.2-2.7-2.9-5.9-3-8.2 0-.4 0-.7-.1-1v-1.8c.1-.5-.3-1-.9-1.1-.5-.1-1 .3-1.1.9 0 .1 0 .4-.1.9v2c.2 2.5.9 6.3 3.5 9.5 2.6 3.3 6.5 5.2 11.6 5.9v67.5h-27zm38 10.6c.6.8.8 1.8.6 2.8s-.7 1.8-1.5 2.3c-.6.4-1.3.6-2.1.6h-26.4c-2.4.3-4.6-1.3-5-3.7-.4-1.8-.2-7.6-.1-10.6h21.2c.3.1 1.2.4 2.5.8-.1.2-.1.3-.2.5-.9 2.3-2.2 5.5-9 5.5-.6 0-1 .4-1 1s.4 1 1 1c8.2 0 9.8-4.2 10.8-6.8.1-.2.1-.3.2-.4 3 1.4 6.7 3.6 9 7zm7-150.3l-.8.7-.8.6-.9.7c-1.6-.5-6.9-2.5-13.6-7.8-.2-.3-.4-.3-.8-.4-.4 0-.8.3-1 .7-.1.2-.1.4 0 .6v3.4h-2.3c-1.9 0-3.5-1.6-3.5-3.5V87.3c0-.8-.2-1.6-.5-2.3.3.1.6.1.9.2.1 0 .2.1.3.1 17.2.4 35.9 16.4 40 20.1l-.9.7-.8.6-.8.6-14.5 12.1zm50.2 47.9l-.9.6-.9.6-11.8 8.4-4.4-6.3 10.9-7.7.8-.6.8-.6 9.9-7c2.7 1.9 5.4 3.3 7.9 3.8l-12.3 8.8zm16.8-3.6c-.3 1.4-8 5.5-11.8 6.2-1.1-.4-2.2-.9-3.2-1.4l12.5-8.8c1.6 1.5 2.6 3 2.5 4zm.2-7.1c-.1.1-.3.1-.4.1-.5.1-1.1.2-1.8.2-.9 0-1.9-.2-2.9-.5-.2-.1-.4-.1-.6-.2-.8-.3-1.7-.7-2.6-1.2-.8-.4-1.5-.9-2.3-1.4l-.9-.6c-.2-.1-.3-.3-.5-.4-.1-.1-.2-.2-.3-.2-.2-.2-.5-.4-.7-.6-.3-.3-.8-.3-1.2-.1-.1.1-.2.1-.3.2-.4.4-.3 1.1.1 1.4.1.1.2.2.3.2l-9.2 6.5c-.7-1.4-1.2-3.8-1.6-6-.2-1-.4-1.9-.6-2.8-.1-.2-.2-.4-.4-.6-13.7-9.7-29.2-21.3-31.6-25.1-.1-.2-.3-.3-.5-.4-2.1-.9-4.8-2.5-7.5-4.4l14.2-11.7c.3.4.6.7.9 1 1.8 2.1 3.3 4 4.8 5 4 2.9 20.6 21.9 23.5 25.6.5.7 1.1 1.5 1.7 2.2.7.9 1.3 1.8 1.9 2.6.3.4.6.7 1 .9 1.3.9 3 1.3 4.5 1.7.7.2 1.4.4 2 .6h.1c.2.1.3.1.5.2.5.2 1 .5 1.6.8.3.2.7.3 1 .5.3.2.6.4 1 .5 2.1 1.2 4.2 2.6 5.6 3.7.4.3.7.6.9.8l.2.2c.2.2.4.5.5.6 0 .1.1.1.1.2v.1c-.2.2-.4.3-.5.4zm11.9-2.2l-.5-.2-6.7-3.1c-.5-.2-1.1 0-1.3.5-.2.4-.1.9.3 1.2l-2.3 1.6c-.4-.5-.9-.9-1.5-1.4-1.5-1.2-3.3-2.4-5-3.4l.2-.1 4.1-2.9c.1.4.5.7.9.7h.1c.6-.1 1-.5.9-1.1l-.7-7.4v-.5l9.4-6.6 5.2 2.4-7.5 5.3c-.3.2-.5.6-.4.9l.4 4.6c0 .4.3.7.6.8l4.2 1.9c.3.1.7.1 1-.1l7.5-5.3.5 5.7-9.4 6.5z"/><path class="st1" d="M203.2 144.1c.1.5.7.9 1.2.7.5-.1.9-.7.7-1.2l-2.8-11.1c-.8-3.3-3.8-5.6-7.2-5.6h-18.4c-3.3 0-6.3 2.3-7.2 5.5l-3.1 11.2c-.1.5.2 1.1.7 1.2h.3c.4 0 .8-.3 1-.7l.1-.3 3-10.9c.6-2.4 2.8-4 5.2-4h18.4c2.5 0 4.6 1.7 5.3 4.1l2.8 10.8v.3zM88.1 89h.8c.8-.2 1.4-.9 1.4-1.8 0-.8-.6-1.6-1.4-1.8-.1 0-.3-.1-.4-.1s-.3 0-.4.1c-.8.2-1.4.9-1.4 1.8s.6 1.6 1.4 1.8zm.4-1.9c.1 0 .2.1.2.2 0 .2-.4.2-.4 0s.1-.2.2-.2zM48 97.2h.8c.8-.2 1.4-.9 1.4-1.8s-.6-1.6-1.4-1.8H48c-.8.2-1.4.9-1.4 1.7v.1c0 .9.6 1.7 1.4 1.8zm.4-1.9c.1 0 .2.1.2.2 0 .2-.4.2-.4 0 0-.1.1-.2.2-.2zm43.2 24.5l-1.4-1.8c-.3-.4-1-.5-1.4-.2-.4.3-.5 1-.2 1.4L90 121c.2.3.5.4.8.4.2 0 .4-.1.6-.2.4-.3.5-1 .2-1.4zm1 3.1c-.4.3-.5 1-.2 1.4l1.4 1.8c.2.3.5.4.8.4.2 0 .4-.1.6-.2.4-.3.5-1 .2-1.4l-1.4-1.8c-.3-.4-.9-.5-1.4-.2zm-2.8-.4l-1.8 1.4c-.4.3-.5 1-.2 1.4.2.3.5.4.8.4.2 0 .4-.1.6-.2l1.8-1.4c.4-.3.5-1 .2-1.4-.4-.5-1-.6-1.4-.2zm3.1-1.1c.2.3.5.4.8.4.2 0 .4-.1.6-.2l1.8-1.4c.4-.3.5-1 .2-1.4-.3-.4-1-.5-1.4-.2l-1.8 1.4c-.5.3-.6 1-.2 1.4zm-2.8-18c.1-.5-.3-1.1-.8-1.1-.5-.1-1.1.3-1.1.8l-.6 3.8c0 .3 0 .5.2.7.2.2.4.4.7.4l4.1.6h.2c.5 0 .9-.4 1-.8.1-.5-.3-1.1-.8-1.1l-3.1-.5.2-2.8zm-16.2-4c.1.3.3.5.5.6.1.1.3.1.5.1h.3l3.7-1.1c.5-.2.8-.7.7-1.3-.2-.5-.7-.8-1.3-.7l-2.7.8-.9-3c-.2-.5-.7-.8-1.3-.7-.5.2-.8.7-.7 1.3l1.2 4zm-45.1 7h.2l3.8-.7c.3-.1.5-.2.6-.4.1-.2.2-.5.2-.8l-.8-4.1c-.1-.5-.6-.9-1.2-.8-.5.1-.9.6-.8 1.2l.6 3.1-2.8.5c-.5.1-.9.6-.8 1.2.1.5.6.8 1 .8zm-3.9 35.8l2.7 1-1.2 3c-.2.5.1 1.1.6 1.3.1 0 .2.1.4.1.4 0 .8-.2.9-.6l1.5-3.9c.2-.5-.1-1.1-.6-1.3l-3.6-1.4c-.5-.2-1.1.1-1.3.6-.2.5 0 1 .6 1.2zm51.5 3.4h-4.8c-.6 0-1 .4-1 1s.4 1 1 1h4.8c1.7 0 3 1.3 3 3v5.5c0 1.7-1.3 3-3 3h-4.8c-.6 0-1 .4-1 1s.4 1 1 1h4.8c2.8 0 5-2.2 5-5v-5.5c0-2.8-2.2-5-5-5zM47.6 265.4c-.4-.2-.8-.4-1.1-.6-2-1.1-3.8-2.3-5.5-3.8-.3-.3-.7-.6-1-.9-.3-.3-.7-.6-1-.9-8.8-8.5-12.9-21.2-10.2-33.5l.3-1.2c.1-.5-.2-1.1-.7-1.2-.5-.1-1.1.2-1.2.7l-.3 1.2c-1.2 5.5-1.2 11 0 16.3 1.7 7.9 6 15.1 12.1 20.5.3.3.7.6 1 .8.3.3.7.5 1 .8 1.8 1.4 3.7 2.6 5.7 3.6.1.1.3.1.4.1.4 0 .7-.2.9-.5.3-.6.1-1.2-.4-1.4zM85 214c6.9 7.6 9.3 18.4 6.2 28.2-.2.5-.3 1-.5 1.5s.1 1.1.6 1.3c.1 0 .2.1.4.1.4 0 .8-.2.9-.6 4.4-11.5 1.5-24.4-7.2-33-.4-.4-1-.4-1.4 0-.4.4-.4 1 0 1.4.3.3.7.7 1 1.1z"/><path class="st1" d="M40 226.4c-.6 1.9-.9 4-1 6.1v1.8c.1 2.1.4 4.1 1 6.1.3.9.6 1.9 1 2.8 3.8 8.8 12.5 14.9 22.7 14.9 13.6 0 24.7-11.1 24.7-24.7s-11.1-24.7-24.7-24.7c-10.1 0-18.9 6.2-22.7 14.9-.4.9-.7 1.9-1 2.8zm23.7-15.7c12.5 0 22.7 10.2 22.7 22.7s-10.2 22.7-22.7 22.7c-12.2 0-22.2-9.7-22.7-21.8v-1.8c.5-12.1 10.5-21.8 22.7-21.8z"/><path class="st1" d="M63.7 238.3c2.7 0 4.9-2.2 4.9-4.9s-2.2-4.9-4.9-4.9-4.9 2.2-4.9 4.9 2.2 4.9 4.9 4.9zm0-7.8c1.6 0 2.9 1.3 2.9 2.9s-1.3 2.9-2.9 2.9-2.9-1.3-2.9-2.9 1.3-2.9 2.9-2.9zm14.5 1.8c2.1 0 3.8-1.7 3.8-3.8s-1.7-3.8-3.8-3.8-3.8 1.7-3.8 3.8 1.8 3.8 3.8 3.8zm0-5.5c1 0 1.8.8 1.8 1.8s-.8 1.8-1.8 1.8-1.8-.8-1.8-1.8c.1-1 .9-1.8 1.8-1.8zm-5.5 22.8c2.1 0 3.8-1.7 3.8-3.8s-1.7-3.8-3.8-3.8-3.8 1.7-3.8 3.8 1.8 3.8 3.8 3.8zm0-5.5c1 0 1.8.8 1.8 1.8s-.8 1.8-1.8 1.8-1.8-.8-1.8-1.8c.1-1 .9-1.8 1.8-1.8zm-21.9 1.7c0 2.1 1.7 3.8 3.8 3.8s3.8-1.7 3.8-3.8-1.7-3.8-3.8-3.8-3.8 1.8-3.8 3.8zm3.8-1.7c1 0 1.8.8 1.8 1.8s-.8 1.8-1.8 1.8-1.8-.8-1.8-1.8.8-1.8 1.8-1.8zm-5.5-11.8c2.1 0 3.8-1.7 3.8-3.8s-1.7-3.8-3.8-3.8-3.8 1.7-3.8 3.8 1.7 3.8 3.8 3.8zm0-5.5c1 0 1.8.8 1.8 1.8s-.8 1.8-1.8 1.8-1.8-.8-1.8-1.8.8-1.8 1.8-1.8zm14.6-5c2.1 0 3.8-1.7 3.8-3.8s-1.7-3.8-3.8-3.8-3.8 1.7-3.8 3.8 1.7 3.8 3.8 3.8zm0-5.5c1 0 1.8.8 1.8 1.8s-.8 1.8-1.8 1.8-1.8-.8-1.8-1.8.8-1.8 1.8-1.8zm-1.6-63.9c-.6-.7-1.5-1.2-2.5-1.2H50c-1 0-1.9.4-2.5 1.2l-1.1 1.3c-.4.4-.3 1.1.1 1.4.4.4 1.1.3 1.4-.1l1.1-1.3c.2-.3.6-.4 1-.4h9.6c.4 0 .7.2 1 .4l1.1 1.3c.2.2.5.4.8.4.2 0 .5-.1.6-.2.4-.4.5-1 .1-1.4l-1.1-1.4zm0 5.1c-.6-.7-1.5-1.2-2.5-1.2H50c-1 0-1.9.4-2.5 1.2l-1.1 1.3c-.4.4-.3 1.1.1 1.4.4.4 1.1.3 1.4-.1l1.1-1.3c.2-.3.6-.4 1-.4h9.6c.4 0 .7.2 1 .4l1.1 1.3c.2.2.5.4.8.4.2 0 .5-.1.6-.2.4-.4.5-1 .1-1.4l-1.1-1.4zm0-10.2c-.6-.7-1.5-1.2-2.5-1.2H50c-1 0-1.9.4-2.5 1.2l-1.1 1.3c-.4.4-.3 1.1.1 1.4.4.4 1.1.3 1.4-.1l1.1-1.3c.2-.3.6-.4 1-.4h9.6c.4 0 .7.2 1 .4l1.1 1.3c.2.2.5.4.8.4.2 0 .5-.1.6-.2.4-.4.5-1 .1-1.4l-1.1-1.4zm132.6-94c.6 0 1-.4 1-1v-3c0-.6-.4-1-1-1s-1 .4-1 1v3c0 .6.4 1 1 1zm-21.6-5c-.6 0-1 .4-1 1v3c0 .6.4 1 1 1s1-.4 1-1v-3c0-.5-.4-1-1-1z"/></svg>