<?xml version="1.0" encoding="utf-8"?>
<!-- Generator: Adobe Illustrator 23.0.2, SVG Export Plug-In . SVG Version: 6.00 Build 0)  -->
<svg version="1.1" id="Layer_1" xmlns="http://www.w3.org/2000/svg" xmlns:xlink="http://www.w3.org/1999/xlink" x="0px" y="0px"
	 viewBox="0 0 325.5 277.5" style="enable-background:new 0 0 325.5 277.5;" xml:space="preserve">
<style type="text/css">
	.st0{fill:#FFFFFF;}
	.st1{fill:#0073FF;}
</style>
<path class="st0" d="M302.6,156.3C302.6,156.3,302.6,156.3,302.6,156.3l-0.4,0.2C302.3,156.5,302.5,156.4,302.6,156.3z"/>
<path class="st0" d="M301.8,156.7c0.1,0,0.3-0.1,0.4-0.1l0.4-0.3c0-0.1,0-0.1-0.1-0.2C302.3,156.3,302.1,156.5,301.8,156.7z"/>
<path class="st0" d="M300,156.9c0.7,0,1.3,0,1.8-0.2c0.3-0.2,0.6-0.4,0.7-0.6c-0.1-0.2-0.3-0.4-0.5-0.6L300,156.9z"/>
<g>
	<path class="st1" d="M183.7,67.4c5.1,0,8.2-1.5,8.4-1.6c0.5-0.2,0.7-0.8,0.4-1.3c-0.2-0.5-0.8-0.7-1.3-0.5c0,0-1.4,0.7-3.8,1.1
		c-1.5,0.3-3.5,0.4-5.9,0.2c-1.4-0.1-3-0.4-4.6-0.8c-0.5-0.1-1.1,0.2-1.2,0.7s0.2,1.1,0.7,1.2C179.2,67.1,181.6,67.4,183.7,67.4z"/>
	<path class="st1" d="M324.8,140.2c0-0.4-0.3-0.7-0.6-0.8c-0.3-0.1-0.7-0.1-1,0.1l-8.5,6l-3.2-1.5l-0.3-3.5l8.5-6
		c0.3-0.2,0.5-0.6,0.4-0.9c0-0.4-0.3-0.7-0.6-0.8l-7.3-3.3c-0.3-0.1-0.7-0.1-1,0.1l-10.3,7.3c-0.3,0.2-0.5,0.6-0.4,0.9l0.6,6.4
		l-5.8,4.1c-0.9-0.4-1.7-0.8-2.5-1.1c-0.1-0.1-0.2-0.1-0.2-0.1c-0.3-0.1-0.7-0.3-1-0.4c-0.4-0.2-0.8-0.3-1.1-0.4
		c-0.4-0.1-0.8-0.2-1.2-0.3c-1.8-0.5-3.3-0.9-4.4-2.3c-0.6-0.8-1.2-1.6-1.8-2.4c-0.5-0.7-1-1.3-1.5-2c-2.5-3.2-19.5-22.9-24-26
		c-1.2-0.9-2.7-2.6-4.4-4.7c-0.3-0.3-0.6-0.7-0.9-1l1.8-1.5c0.2-0.2,0.4-0.4,0.4-0.7c0-0.3-0.1-0.6-0.3-0.8
		c-0.9-0.9-21.9-20.9-42-21.4c-1-0.3-2.1-0.6-3.1-0.7c-0.1,0-0.2,0-0.3,0c-0.9-0.5-1.9-0.9-3-0.9h-8.5c-0.4,0-0.7,0.2-0.8,0.5
		c-0.9,0-1.9,0-2.8,0v-4.7c1.1-0.2,2.2-0.5,3.5-0.8c7.4-1.9,12.4-7.7,15-14.6c0.9,0.3,1.9,0.5,2.8,0.5c1.7,0,3.2-0.6,4.4-1.8
		c2.1-2,2.7-5.1,1.6-7.6c-0.5-1-1.7-2.9-4.9-3.6c0.3-0.4,0.5-0.8,0.7-1.2c0.4-0.8,0.6-1.7,0.8-2.6c0.1,0,0.1,0.1,0.2,0.1
		c0.6,0.6,1.4,0.9,2.2,0.9c0,0,0,0,0,0c0.8,0,1.6-0.3,2.2-0.9c0.6-0.6,0.9-1.3,0.9-2.2c0-2.8-1.1-5.5-3.1-7.9
		c0.1-0.1,0.1-0.3,0.1-0.4V22c0-12.1-9.9-22-22-22h-26.8c-12.1,0-22,9.9-22,22v13.6c0,0.2,0,0.3,0.1,0.4c-2,2.4-3.2,5.1-3.2,8
		c0.1,1.7,1.5,3,3.2,3c0.5,0,1-0.2,1.4-0.4c0.1,1.5,0.4,3,1,4.2c-2.3,1.1-3.2,2.8-3.5,3.7c-0.9,2.6,0.1,5.7,2.3,7.4
		c1.1,0.9,2.5,1.3,3.9,1.3c0.8,0,1.5-0.1,2.3-0.4c2.7,6.6,7.6,12.1,14.8,13.9c1.3,0.4,2.5,0.6,3.5,0.8v5.2c-0.3,0-0.6,0-0.9,0.1
		c0-0.5-0.4-1-1-1h-8.5c-1.6,0-3,0.7-4.1,1.8c-23-0.8-32.8,19.1-32.9,19.3c-0.2,0.3-0.1,0.7,0.1,1l0.4,0.6c-3.6,3.8-7.4,7.7-9,8.3
		c-3.1,1.2-7.3,6.3-11,10.7c-2.3,2.8-4.5,5.4-5.8,6.3c-0.4,0.3-0.9,0.6-1.4,1.1c-1.2,1-4.2,3.4-5.1,2.7c-1.4-1-4.1-0.9-6.2-0.3
		c-2.9,0.8-5.1,2.4-6.2,4.5h-2.2v-5.2c0-0.6-0.4-1-1-1H70c-0.6,0-1,0.4-1,1v5.2h-5.6v-5.2c0-0.6-0.4-1-1-1s-1,0.4-1,1v5.2h-5.3
		c0.5-0.4,0.9-0.9,1.3-1.4c1.4-1.9,1.9-4.3,1.5-6.6c-0.3-1.6-1-3.2-2.1-4.4c0-0.3,0-0.6,0-0.9c0-3.5-2.6-7-6.3-8.4
		c-3.4-1.2-7.1-1.1-10.4,0.1c-6.5,2.2-11.6,7.2-14.1,13.6c-0.2,0.5,0.1,1.1,0.6,1.3c0.5,0.2,1.1-0.1,1.3-0.6
		c2.2-5.9,6.9-10.4,12.9-12.4c2.9-1.1,6.1-1.1,9-0.1c2.6,1,4.5,3.4,4.9,5.8c-1.8-1.1-3.9-1.5-6.1-1.1c-2.7,0.5-5.1,2.2-6.4,4.7
		c-1.3,2.6-0.9,6.4,1.8,7.8c1.9,1,4.2,0.5,6.8-1.2c2.5-1.7,4.3-3.8,5.2-5.9c0.4,0.7,0.6,1.4,0.8,2.2c0.3,1.8-0.1,3.6-1.2,5.1
		c-0.9,1.2-2.1,2.1-3.6,2.6H38.3c-0.6,0-1,0.4-1,1v29.6H1c-0.6,0-1,0.4-1,1v14.1c0,0.6,0.4,1,1,1h23.9v28.5
		c-3.2,6.1-5.1,13.1-5.1,20.5c0,7.4,1.8,14.4,5.1,20.5v22.4c0,0.6,0.4,1,1,1H40c0.6,0,1-0.4,1-1V271c6.6,4,14.4,6.3,22.7,6.3
		c24.2,0,43.9-19.7,43.9-43.9c0-24.2-19.7-43.9-43.9-43.9c-8.3,0-16.1,2.3-22.7,6.3v-11.4h78.9v91.9c0,0.6,0.4,1,1,1H135
		c0.6,0,1-0.4,1-1v-91.9h15.3v75.7c0,0.6,0.4,1,1,1h0.7c-2.3,1.4-5,3.7-6.5,7.4c-1.1,2.6-1,5.3,0.1,7.1c0.6,0.9,1.7,1.9,3.7,1.9
		h21.1c0.3,0,0.6,0.1,0.8,0.1c3.1,0,5.8-2.2,6.3-5.3c0.5-2.2,0.3-8.5,0.1-11.1h2.8c0.6,0,1-0.4,1-1v-66.3h5.4v66.3c0,0.6,0.4,1,1,1
		h2.6c-0.1,2.5-0.4,8.8,0.1,11c0.5,3.2,3.2,5.4,6.3,5.4c0.3,0,0.6,0,0.8-0.1H225c1.1,0,2.2-0.3,3.2-1c1.3-0.9,2.1-2.1,2.4-3.6
		c0.3-1.5,0-3-0.9-4.3c-2.8-4.2-7.3-6.7-10.5-8.1c0.1-0.1,0.1-0.3,0.1-0.4V119.6c0-1.4,0-2.4,0-3.3c7.6,5.6,13.1,7.1,13.3,7.1
		c0.3,0.1,0.6,0,0.9-0.2l1.7-1.4c2.9,2.1,5.9,3.9,8,4.8c3.6,5.1,23,19.1,31.6,25.2c0.2,0.8,0.3,1.6,0.5,2.4c0.5,2.4,1,4.9,1.8,6.6
		c0,0.1,0.1,0.1,0.1,0.2l-11.9,8.4c-0.5,0.3-0.6,0.9-0.2,1.4l5.6,7.9c0.2,0.2,0.4,0.4,0.6,0.4c0.1,0,0.1,0,0.2,0
		c0.2,0,0.4-0.1,0.6-0.2l13.2-9.4c1.4,0.9,2.9,1.6,4.6,2.2c0.1,0,0.2,0.1,0.3,0.1c0.1,0,0.1,0,0.2,0c3.1-0.5,13.3-4.8,13.7-8
		c0.2-1.6-0.9-3.4-2.5-5.1c0.9-0.1,1.6-0.4,2.3-0.8c0.6-0.4,0.9-1,0.8-1.7c0-0.1,0-0.1,0-0.2l3.3-2.3l5.9,2.7c0.3,0.1,0.7,0.1,1-0.1
		l10.3-7.3c0.3-0.2,0.5-0.6,0.4-0.9L324.8,140.2z M49.8,132.2c-1.1,0.8-3.2,1.9-4.8,1.1c-1.6-0.8-1.8-3.4-0.9-5.1
		c1-1.9,2.8-3.3,4.9-3.7c0.4-0.1,0.8-0.1,1.2-0.1c1.7,0,3.2,0.6,4.4,1.7C53.9,129.1,51.1,131.3,49.8,132.2z M208.6,41.6
		c-0.8-0.7-2-1-3.7-0.7c-1.3,0.2-2.3,0.5-3.3,0.8c-1.9,0.6-3.1,1-4.9,0c0.7-1.6,0.6-3.6-0.3-4.9c6.2,1,11.8,2.9,16.1,5.3
		c0.3,0.2,0.7,0.4,1,0.6c0.4,0.2,0.7,0.5,1,0.7c0.4,0.3,0.7,0.5,1.1,0.8c0,1.2-0.2,2.3-0.7,3.3c-0.1,0.2-0.2,0.4-0.4,0.6
		c-0.3,0.4-0.6,0.8-0.9,1.2c0,0,0,0,0,0c-0.3,0.3-0.7,0.6-1,0.8c-0.4,0.3-0.9,0.5-1.4,0.6c-0.5,0.2-1,0.3-1.5,0.3
		c-1-1.1-0.7-3-0.5-4.8C209.5,44.5,209.7,42.7,208.6,41.6z M219.2,54.1c0.8,1.7,0.3,4-1.1,5.3c-1.3,1.3-3.2,1.5-5.2,0.8
		c0.9-2.8,1.4-5.8,1.6-8.7C216.8,51.6,218.5,52.5,219.2,54.1z M151.2,22c0-11,9-20,20-20H198c11,0,20,9,20,20v12
		c-2.7-2.4-6.3-4.6-10.6-6.2c-0.7-0.3-1.4-0.5-2.2-0.8c-0.9-0.3-1.7-0.5-2.6-0.8c-5.4-1.5-11.5-2.3-18-2.3c-6.8,0-13.3,0.9-18.8,2.6
		c-0.9,0.3-1.7,0.5-2.5,0.8c-0.7,0.3-1.5,0.5-2.1,0.8c-4,1.6-7.4,3.6-9.9,5.9V22z M151.7,43.2c-0.4,0.3-0.7,0.6-1,0.9
		c-0.2,0.2-0.4,0.4-0.6,0.5c-0.2,0.2-0.5,0.3-0.7,0.3c-0.6,0-1.1-0.4-1.1-1.1c0-2.6,1.1-5.1,3.2-7.3c0.3-0.3,0.6-0.7,1-1
		c0.4-0.3,0.7-0.7,1.1-1c1.4-1.1,3-2.1,4.7-3.1c0.7-0.3,1.4-0.7,2.1-1c0.7-0.3,1.4-0.6,2.1-0.9c0.2-0.1,0.4-0.1,0.6-0.2
		c6.1-2.2,13.5-3.5,21.6-3.5c5.8,0,11.2,0.7,16.1,1.8c1.9,0.5,3.7,1,5.4,1.6c0.7,0.3,1.4,0.5,2,0.8c0.7,0.3,1.4,0.6,2.1,1
		c2.1,1,4,2.2,5.5,3.5c0.4,0.3,0.8,0.7,1.1,1c0.3,0.3,0.7,0.7,1,1c2,2.2,3.2,4.7,3.2,7.3c0,0.3-0.1,0.5-0.3,0.7
		c-0.2,0.2-0.5,0.3-0.8,0.3c0,0,0,0,0,0c-0.3,0-0.6-0.1-0.8-0.3c-0.5-0.5-1-0.9-1.5-1.3c-0.4-0.3-0.7-0.6-1.1-0.9
		c-0.4-0.3-0.8-0.6-1.3-0.9c-0.3-0.2-0.6-0.4-0.9-0.6c-0.4-0.2-0.7-0.4-1.1-0.6c-0.4-0.2-0.7-0.4-1.1-0.6c-2.4-1.2-5.2-2.3-8.1-3.2
		c-1.2-0.4-2.5-0.7-3.9-1c-1.8-0.4-3.8-0.7-5.7-1c-3.2-0.4-6.4-0.6-9.8-0.6c-3.4,0-6.6,0.2-9.8,0.6c-2,0.3-3.9,0.6-5.7,1
		c-1.3,0.3-2.6,0.6-3.8,1c-3.2,0.9-6.1,2.1-8.7,3.5c-0.4,0.2-0.7,0.4-1.1,0.6c-0.4,0.2-0.8,0.4-1.1,0.7c-0.6,0.4-1.1,0.7-1.6,1.1
		C152.3,42.7,152,43,151.7,43.2z M177.8,36.7c-0.1-0.1-0.2-0.1-0.2-0.2H189c-0.1,0-0.2,0.1-0.2,0.1c-1.7,0.9-3.1,2-4.2,3
		c-2.6,2.1-3.6,2.8-5.5,1.3C179.5,39.4,179,37.9,177.8,36.7z M151.8,60.2c-1.6-1.2-2.3-3.4-1.7-5.2c0.4-1.2,1.4-2.1,2.8-2.7
		c0.5,0.5,0.9,1,1.5,1.4c0.3,2.4,0.9,4.8,1.6,7.1C154.5,61.4,153,61.1,151.8,60.2z M155.9,52.4c-0.2-0.2-0.4-0.4-0.7-0.5
		c0,0,0,0-0.1-0.1c-0.3-0.3-0.5-0.6-0.8-0.8c-0.1-0.1-0.2-0.2-0.3-0.3c-0.1-0.1-0.3-0.3-0.4-0.4c0-0.1-0.1-0.1-0.1-0.2
		c-0.6-1-0.9-3-1-5.1c0.5-0.4,0.9-0.7,1.4-1.1c0.3-0.2,0.7-0.5,1-0.7c0.3-0.2,0.7-0.4,1-0.6c3.1-1.8,6.8-3.3,11-4.4
		c-1.7,1-3.2,2.4-3.6,4.5c-0.1,0-0.3-0.1-0.4-0.1c-1.4-0.4-4.2-1.3-5.7,1.5c-0.8,1.6-1,3.8-1,5.8c0,0.3,0,0.7,0,1
		c0,0.8,0.1,1.6,0.2,2.3c-0.2-0.1-0.3-0.3-0.5-0.4C156.2,52.6,156.1,52.5,155.9,52.4z M172,74.7c-6.5-1.7-11-6.7-13.5-12.8
		c-0.1-0.3-0.2-0.6-0.4-0.9c-0.7-1.8-1.2-3.7-1.5-5.6c0.2,0.1,0.4,0.3,0.6,0.4c0.1,0.1,0.2,0.1,0.3,0.2c0.1,0.1,0.3,0.1,0.5,0.1
		c0.1,0,0.2,0,0.3,0c0.1,0,0.2-0.1,0.3-0.1c0.3-0.2,0.5-0.6,0.4-1c-0.4-1.9-1-7.5,0.3-10c0.6-1.1,1.5-1.1,3.3-0.5
		c0.9,0.3,1.7,0.5,2.3,0.1c0.2-0.1,0.5-0.5,0.6-1.1c0.1-2.2,2.3-3.3,4.5-4.5c0.5-0.2,0.9-0.5,1.4-0.7c2-1.1,3.9-0.7,4.9,0.2
		c0.8,0.7,1,1.7,0.5,2.7c-0.2,0.4-0.1,0.9,0.2,1.2c3.5,3.2,6,1.2,8.6-0.8c1.1-0.9,2.4-1.9,3.9-2.8c2.3-1.3,4.1-1.5,5-0.5
		c0.7,0.8,0.7,2.5-0.1,3.6c-0.2,0.2-0.2,0.5-0.2,0.7s0.2,0.5,0.4,0.7c3,2.1,5.1,1.4,7.4,0.7c0.9-0.3,1.9-0.6,3-0.8
		c1-0.2,1.8-0.1,2,0.2c0.4,0.4,0.2,1.8,0.1,3.1c-0.3,2.3-0.7,5.1,1.5,6.9c0.2,0.2,0.4,0.2,0.7,0.2c0.6,0,1.1-0.1,1.7-0.3
		c0.3-0.1,0.7-0.2,1-0.3c0.1,0,0.2-0.1,0.3-0.1c-0.1,0.8-0.2,1.5-0.3,2.3c-0.3,2.1-0.9,4.1-1.6,6c-2.4,6.6-7,12-13.9,13.8
		c-1.6,0.4-2.9,0.7-4.2,0.9c-0.5,0.1-0.8,0.5-0.8,1v5.5c-4.8,0-9.9,0.1-14.6,0.4v-5.9c0-0.5-0.4-0.9-0.8-1
		C175,75.5,173.7,75.2,172,74.7z M174.2,84.7c0.3,0,0.6,0,1-0.1c2-0.1,4.1-0.2,6.2-0.3c3.8-0.1,7.7-0.2,11.3-0.2c0.3,0,0.7,0,1,0
		c0.9,0,1.8,0,2.6,0v30.2c0,1.9-1.6,3.5-3.5,3.5h-15.1c-1.9,0-3.5-1.6-3.5-3.5V84.7z M130.3,102.3c2.5-4.3,11.4-17,29.1-16.8
		c-0.2,0.6-0.3,1.2-0.3,1.9v25.8c0,1.8-2.8,3.7-3.8,4c-0.6,0.2-1.7,0.5-2.5,1.1c-0.2-0.1-0.4,0-0.7,0c-3.1,1.4-6.3,2.6-9.6,3.5
		l-1.5-2.2l-0.6-0.8l-0.6-0.8l-9.1-13.4l-0.6-0.8l-0.4-0.6C129.9,102.9,130.1,102.6,130.3,102.3z M151.3,120.8c0,0.1,0,0.1,0,0.2
		v47.4H98.9v-16.6c1.6-0.8,3.2-1.9,3.9-2.4c2-1.3,3.8-3.1,4.7-6.2c1.5-1.1,3.6-2.4,5.9-3.9c7.2-4.6,16.1-10.4,18.8-14.3
		c2.2-0.9,4.7-2.4,7.2-4.2l1.9,2.7c0.2,0.4,0.7,0.5,1.1,0.4C145.4,123.1,148.4,122,151.3,120.8z M90.3,135.2c2.3-0.6,4-0.4,4.5,0
		c2.2,1.7,5.3-0.9,7.5-2.7c0.5-0.4,0.9-0.8,1.3-1c1.5-1,3.7-3.7,6.2-6.7c3.3-4,7.5-9.1,10.2-10.1c1.8-0.7,4.8-3.7,9.4-8.5l8.9,13
		c-2.6,1.8-5,3.2-7.1,4.1c-0.2,0.1-0.4,0.2-0.5,0.4c-2.2,3.5-11.6,9.5-18.4,13.9c-2.5,1.6-4.7,3-6.3,4.1c-0.2,0.1-0.3,0.3-0.4,0.6
		c-0.6,2.6-2,4-3.7,5.2l0,0.1c-0.1,0-0.2,0.1-0.3,0.2c-0.8,0.6-1.8,1.2-2.7,1.8c-0.3,0.2-0.7,0.4-1,0.5c-0.4,0.2-0.7,0.3-1,0.4
		c0,0,0,0,0,0c-0.5,0.2-0.9,0.3-1.1,0.2c-0.6-0.2-1-0.4-1.1-0.7c-0.1-0.3,0.1-0.6,0.4-1c0.3-0.4,1-0.8,1.8-1.3c0,0,0,0,0,0
		c0.1-0.1,0.2-0.1,0.4-0.2c0.2-0.1,0.4-0.3,0.6-0.4c0.3-0.2,0.7-0.4,1-0.7c0,0,0,0,0,0c0.8-0.6,1.5-1.2,2.1-1.9
		c0.2-0.2,0.4-0.5,0.5-0.8c0.3-0.5,0.1-1.1-0.4-1.4c-0.5-0.3-1.1-0.1-1.4,0.4c-0.2,0.4-0.5,0.7-0.9,1.1v-4.9c0-0.6-0.4-1-1-1h0H86
		C87.3,136.2,89.3,135.4,90.3,135.2z M39.3,139.8h11.6c0.2,0.1,0.4,0.2,0.6,0.2c0.1,0,0.1,0,0.2,0c0.3,0,0.5-0.1,0.8-0.2H70
		c0.6,0,1-0.4,1-1v-5.2h8.4v5.2c0,0.6,0.4,1,1,1h3.8h12.6v5.4c-0.2,0.2-0.5,0.3-0.7,0.4c-1,0.6-2,1.2-2.6,1.9
		c-0.8,0.9-1.1,2-0.8,2.9c0.3,1,1.2,1.7,2.5,2.1c0.2,0.1,0.4,0.1,0.6,0.1c0.3,0,0.6,0,1-0.1v15.8H39.3V139.8z M39,275.3H26.9v-18
		c3.2,4.9,7.3,9.1,12.1,12.4V275.3z M63.7,191.5c23.1,0,41.9,18.8,41.9,41.9s-18.8,41.9-41.9,41.9c-8.4,0-16.1-2.5-22.7-6.7
		c-0.3-0.2-0.7-0.4-1-0.7c-0.3-0.2-0.7-0.5-1-0.7c-5-3.6-9.1-8.4-12.1-13.8c-0.4-0.6-0.7-1.3-1-2c-0.4-0.7-0.7-1.5-1-2.3
		c-2-4.9-3.1-10.2-3.1-15.8s1.1-10.9,3.1-15.8c0.3-0.8,0.6-1.5,1-2.3c0.3-0.7,0.6-1.3,1-2c3-5.5,7.1-10.2,12.1-13.8
		c0.3-0.2,0.7-0.5,1-0.7c0.3-0.2,0.7-0.4,1-0.7C47.5,194,55.3,191.5,63.7,191.5z M26.9,209.6v-25.1H39v12.7
		C34.2,200.4,30,204.7,26.9,209.6z M134,275.3h-12.1v-90.9H134V275.3z M152.3,182.5h-1h-16.1h-14.5H40.2H25.7H2v-12.1h149.3h1h1h1.6
		h1h1h2v3.4v1v1v6.8h-5.6H152.3z M176.6,271.8c-0.4,2.4-2.6,4-5,3.7c0,0-0.1,0-0.1,0h-21.2c-1,0-1.6-0.3-2.1-1
		c-0.8-1.1-0.7-3.2,0.1-5.2c0.8-1.9,1.9-3.3,3.1-4.5c1.9,1.9,4.1,3,6.5,3.1c0.1,0,0.2,0,0.3,0c3.8,0,8-2.3,12.6-6.8h5.8
		C176.9,264.1,177,269.9,176.6,271.8z M152.9,263.5c2.3-1.6,4.5-2.3,5-2.4h10c-3.7,3.3-7.1,4.9-10,4.8
		C156.2,265.8,154.5,265,152.9,263.5z M190,259.1v-66.3c0-0.6-0.4-1-1-1h-7.4c-0.6,0-1,0.4-1,1v66.3h-2.8h-7.1h-0.1h-12.7h-4.5
		v-67.5c5.1-0.7,9-2.6,11.6-5.9c2.8-3.4,3.4-7.5,3.5-10c0-0.4,0-0.7,0-1c0-0.4,0-0.8,0-1c0-0.2,0-0.4,0-0.4
		c-0.1-0.5-0.6-0.9-1.1-0.9c-0.5,0.1-0.9,0.6-0.9,1.1c0,0,0,0.1,0,0.2c0,0.2,0,0.4,0,0.8c0,0.1,0,0.1,0,0.2c0,0.3,0,0.6,0,1
		c-0.1,2.2-0.7,5.8-3.1,8.7c-2.2,2.8-5.6,4.5-10.1,5.1c0,0,0,0,0,0l0,0v-5.1h4.5h2.1c0.6,0,1-0.4,1-1v-2.6v-5.2v-1v-1v-4.4
		c0-0.6-0.4-1-1-1H157h-1h-1h-1.8v-34.7v-7.1V121c0-0.3,0.1-0.6,0.3-0.8c0.4-0.5,1.2-0.8,2.3-1.1c1.4-0.4,5.3-2.8,5.3-5.9V87.3
		c0-0.7,0.2-1.3,0.5-1.8c0.2-0.4,0.5-0.7,0.8-1c0.5-0.4,1.1-0.7,1.8-0.8c0.2,0,0.3-0.1,0.5-0.1h0.7h6.8v0.2v1v29.5
		c0,3,2.5,5.5,5.5,5.5h15.1c3,0,5.5-2.5,5.5-5.5V84.2v-0.5h7.5c0.9,0,1.7,0.3,2.3,0.8c0.8,0.7,1.3,1.6,1.3,2.8v27.1
		c0,3,2.5,5.5,5.5,5.5h2.3h0v35.6V176v13.6l0,0c0,0,0,0,0,0c-4.4-0.6-7.8-2.3-10.1-5.1c-2.2-2.7-2.9-5.9-3-8.2c0-0.4,0-0.7-0.1-1
		c0-0.3,0-0.6,0-0.8c0-0.1,0-0.1,0-0.2c0-0.5,0-0.7,0-0.8c0.1-0.5-0.3-1-0.9-1.1c-0.5-0.1-1,0.3-1.1,0.9c0,0.1,0,0.4-0.1,0.9
		c0,0.3,0,0.6,0,1c0,0.3,0,0.6,0,1c0.2,2.5,0.9,6.3,3.5,9.5c2.6,3.3,6.5,5.2,11.6,5.9v67.5h-2.3h-22.4H190z M228,269.7
		c0.6,0.8,0.8,1.8,0.6,2.8s-0.7,1.8-1.5,2.3c-0.6,0.4-1.3,0.6-2.1,0.6h-26.3c0,0-0.1,0-0.1,0c-2.4,0.3-4.6-1.3-5-3.7
		c-0.4-1.8-0.2-7.6-0.1-10.6h21.2c0.3,0.1,1.2,0.4,2.5,0.8c-0.1,0.2-0.1,0.3-0.2,0.5c-0.9,2.3-2.2,5.5-9,5.5c-0.6,0-1,0.4-1,1
		s0.4,1,1,1c8.2,0,9.8-4.2,10.8-6.8c0.1-0.2,0.1-0.3,0.2-0.4C222,264.1,225.7,266.3,228,269.7z M235,119.4l-0.8,0.7l-0.8,0.6
		l-0.9,0.7c-1.6-0.5-6.9-2.5-13.6-7.8c-0.2-0.3-0.4-0.3-0.8-0.4c-0.4,0-0.8,0.3-1,0.7c-0.1,0.2-0.1,0.4,0,0.6c0,0.4,0,1.6,0,3.4
		h-2.3c-1.9,0-3.5-1.6-3.5-3.5V87.3c0-0.8-0.2-1.6-0.5-2.3c0.3,0.1,0.6,0.1,0.9,0.2c0.1,0,0.2,0.1,0.3,0.1
		c17.2,0.4,35.9,16.4,40,20.1l-0.9,0.7l-0.8,0.6l-0.8,0.6L235,119.4z M285.2,167.3l-0.9,0.6l-0.9,0.6l-11.8,8.4l-4.4-6.3l10.9-7.7
		l0.8-0.6l0.8-0.6l9.9-7c2.7,1.9,5.4,3.3,7.9,3.8L285.2,167.3z M302,163.7c-0.3,1.4-8,5.5-11.8,6.2c-1.1-0.4-2.2-0.9-3.2-1.4
		l12.5-8.8C301.1,161.2,302.1,162.7,302,163.7z M302.2,156.6c-0.1,0.1-0.3,0.1-0.4,0.1c-0.5,0.1-1.1,0.2-1.8,0.2
		c-0.9,0-1.9-0.2-2.9-0.5c-0.2-0.1-0.4-0.1-0.6-0.2c-0.8-0.3-1.7-0.7-2.6-1.2c-0.8-0.4-1.5-0.9-2.3-1.4c-0.3-0.2-0.6-0.4-0.9-0.6
		c-0.2-0.1-0.3-0.3-0.5-0.4c-0.1-0.1-0.2-0.2-0.3-0.2c-0.2-0.2-0.5-0.4-0.7-0.6c-0.3-0.3-0.8-0.3-1.2-0.1c-0.1,0.1-0.2,0.1-0.3,0.2
		c-0.4,0.4-0.3,1.1,0.1,1.4c0.1,0.1,0.2,0.2,0.3,0.2l-9.2,6.5c-0.7-1.4-1.2-3.8-1.6-6c-0.2-1-0.4-1.9-0.6-2.8
		c-0.1-0.2-0.2-0.4-0.4-0.6c-13.7-9.7-29.2-21.3-31.6-25.1c-0.1-0.2-0.3-0.3-0.5-0.4c-2.1-0.9-4.8-2.5-7.5-4.4l14.2-11.7
		c0.3,0.4,0.6,0.7,0.9,1c1.8,2.1,3.3,4,4.8,5c4,2.9,20.6,21.9,23.5,25.6c0,0,0,0,0,0c0.5,0.7,1.1,1.5,1.7,2.2
		c0.7,0.9,1.3,1.8,1.9,2.6c0.3,0.4,0.6,0.7,1,0.9c1.3,0.9,3,1.3,4.5,1.7c0.7,0.2,1.4,0.4,2,0.6c0,0,0.1,0,0.1,0
		c0.2,0.1,0.3,0.1,0.5,0.2c0.5,0.2,1,0.5,1.6,0.8c0.3,0.2,0.7,0.3,1,0.5c0.3,0.2,0.6,0.4,1,0.5c2.1,1.2,4.2,2.6,5.6,3.7
		c0.4,0.3,0.7,0.6,0.9,0.8c0.1,0.1,0.1,0.1,0.2,0.2c0.2,0.2,0.4,0.5,0.5,0.6c0,0.1,0.1,0.1,0.1,0.2c0,0,0,0,0,0.1
		C302.5,156.4,302.3,156.5,302.2,156.6z M314.1,154.4l-0.5-0.2c0,0,0,0,0,0l-6.7-3.1c-0.5-0.2-1.1,0-1.3,0.5
		c-0.2,0.4-0.1,0.9,0.3,1.2l-2.3,1.6c-0.4-0.5-0.9-0.9-1.5-1.4c-1.5-1.2-3.3-2.4-5-3.4l0.2-0.1l4.1-2.9c0.1,0.4,0.5,0.7,0.9,0.7
		c0,0,0.1,0,0.1,0c0.6-0.1,1-0.5,0.9-1.1l-0.7-7.4c0,0,0,0,0,0l0-0.5l9.4-6.6l5.2,2.4l-7.5,5.3c-0.3,0.2-0.5,0.6-0.4,0.9l0.4,4.6
		c0,0.4,0.3,0.7,0.6,0.8l4.2,1.9c0.3,0.1,0.7,0.1,1-0.1l7.5-5.3l0.5,5.7L314.1,154.4z"/>
	<path class="st1" d="M203.2,144.1c0.1,0.5,0.7,0.9,1.2,0.7c0.5-0.1,0.9-0.7,0.7-1.2l-2.8-11.1c-0.8-3.3-3.8-5.6-7.2-5.6h-18.4
		c-3.3,0-6.3,2.3-7.2,5.5l-3.1,11.2c-0.1,0.5,0.2,1.1,0.7,1.2c0.1,0,0.2,0,0.3,0c0.4,0,0.8-0.3,1-0.7l0.1-0.3l3-10.9
		c0.6-2.4,2.8-4,5.2-4h18.4c2.5,0,4.6,1.7,5.3,4.1l2.8,10.8L203.2,144.1z"/>
	<path class="st1" d="M88.1,89c0.1,0,0.2,0,0.4,0s0.2,0,0.4,0c0.8-0.2,1.4-0.9,1.4-1.8c0-0.8-0.6-1.6-1.4-1.8
		c-0.1,0-0.3-0.1-0.4-0.1s-0.3,0-0.4,0.1c-0.8,0.2-1.4,0.9-1.4,1.8C86.7,88.1,87.3,88.8,88.1,89z M88.5,87.1c0.1,0,0.2,0.1,0.2,0.2
		c0,0.2-0.4,0.2-0.4,0C88.3,87.1,88.4,87.1,88.5,87.1z"/>
	<path class="st1" d="M48,97.2c0.1,0,0.2,0,0.4,0c0.1,0,0.2,0,0.4,0c0.8-0.2,1.4-0.9,1.4-1.8s-0.6-1.6-1.4-1.8c-0.1,0-0.2,0-0.4,0
		c-0.1,0-0.3,0-0.4,0c-0.8,0.2-1.4,0.9-1.4,1.7c0,0,0,0.1,0,0.1c0,0,0,0,0,0C46.6,96.3,47.2,97.1,48,97.2z M48.4,95.3
		c0.1,0,0.2,0.1,0.2,0.2c0,0.2-0.4,0.2-0.4,0C48.2,95.4,48.3,95.3,48.4,95.3z"/>
	<path class="st1" d="M91.6,119.8l-1.4-1.8c-0.3-0.4-1-0.5-1.4-0.2c-0.4,0.3-0.5,1-0.2,1.4L90,121c0.2,0.3,0.5,0.4,0.8,0.4
		c0.2,0,0.4-0.1,0.6-0.2C91.8,120.9,91.9,120.2,91.6,119.8z"/>
	<path class="st1" d="M92.6,122.9c-0.4,0.3-0.5,1-0.2,1.4l1.4,1.8c0.2,0.3,0.5,0.4,0.8,0.4c0.2,0,0.4-0.1,0.6-0.2
		c0.4-0.3,0.5-1,0.2-1.4l-1.4-1.8C93.7,122.7,93.1,122.6,92.6,122.9z"/>
	<path class="st1" d="M89.8,122.5l-1.8,1.4c-0.4,0.3-0.5,1-0.2,1.4c0.2,0.3,0.5,0.4,0.8,0.4c0.2,0,0.4-0.1,0.6-0.2l1.8-1.4
		c0.4-0.3,0.5-1,0.2-1.4C90.8,122.2,90.2,122.1,89.8,122.5z"/>
	<path class="st1" d="M92.9,121.4c0.2,0.3,0.5,0.4,0.8,0.4c0.2,0,0.4-0.1,0.6-0.2l1.8-1.4c0.4-0.3,0.5-1,0.2-1.4
		c-0.3-0.4-1-0.5-1.4-0.2l-1.8,1.4C92.6,120.3,92.5,121,92.9,121.4z"/>
	<path class="st1" d="M90.1,103.4c0.1-0.5-0.3-1.1-0.8-1.1c-0.5-0.1-1.1,0.3-1.1,0.8l-0.6,3.8c0,0.3,0,0.5,0.2,0.7
		c0.2,0.2,0.4,0.4,0.7,0.4l4.1,0.6c0.1,0,0.1,0,0.2,0c0.5,0,0.9-0.4,1-0.8c0.1-0.5-0.3-1.1-0.8-1.1l-3.1-0.5L90.1,103.4z"/>
	<path class="st1" d="M73.9,99.4c0.1,0.3,0.3,0.5,0.5,0.6c0.1,0.1,0.3,0.1,0.5,0.1c0.1,0,0.2,0,0.3,0l3.7-1.1
		c0.5-0.2,0.8-0.7,0.7-1.3c-0.2-0.5-0.7-0.8-1.3-0.7l-2.7,0.8l-0.9-3c-0.2-0.5-0.7-0.8-1.3-0.7c-0.5,0.2-0.8,0.7-0.7,1.3L73.9,99.4z
		"/>
	<path class="st1" d="M28.8,106.4c0.1,0,0.1,0,0.2,0l3.8-0.7c0.3-0.1,0.5-0.2,0.6-0.4c0.1-0.2,0.2-0.5,0.2-0.8l-0.8-4.1
		c-0.1-0.5-0.6-0.9-1.2-0.8c-0.5,0.1-0.9,0.6-0.8,1.2l0.6,3.1l-2.8,0.5c-0.5,0.1-0.9,0.6-0.8,1.2C27.9,106.1,28.4,106.4,28.8,106.4z
		"/>
	<path class="st1" d="M24.9,142.2l2.7,1l-1.2,3c-0.2,0.5,0.1,1.1,0.6,1.3c0.1,0,0.2,0.1,0.4,0.1c0.4,0,0.8-0.2,0.9-0.6l1.5-3.9
		c0.2-0.5-0.1-1.1-0.6-1.3l-3.6-1.4c-0.5-0.2-1.1,0.1-1.3,0.6C24.1,141.5,24.3,142,24.9,142.2z"/>
	<path class="st1" d="M76.4,145.6h-4.8c-0.6,0-1,0.4-1,1s0.4,1,1,1h4.8c1.7,0,3,1.3,3,3v5.5c0,1.7-1.3,3-3,3h-4.8c-0.6,0-1,0.4-1,1
		s0.4,1,1,1h4.8c2.8,0,5-2.2,5-5v-5.5C81.4,147.8,79.2,145.6,76.4,145.6z"/>
	<path class="st1" d="M47.6,265.4c-0.4-0.2-0.8-0.4-1.1-0.6c-2-1.1-3.8-2.3-5.5-3.8c-0.3-0.3-0.7-0.6-1-0.9c-0.3-0.3-0.7-0.6-1-0.9
		c-8.8-8.5-12.9-21.2-10.2-33.5c0.1-0.4,0.2-0.8,0.3-1.2c0.1-0.5-0.2-1.1-0.7-1.2c-0.5-0.1-1.1,0.2-1.2,0.7
		c-0.1,0.4-0.2,0.8-0.3,1.2c-1.2,5.5-1.2,11,0,16.3c1.7,7.9,6,15.1,12.1,20.5c0.3,0.3,0.7,0.6,1,0.8c0.3,0.3,0.7,0.5,1,0.8
		c1.8,1.4,3.7,2.6,5.7,3.6c0.1,0.1,0.3,0.1,0.4,0.1c0.4,0,0.7-0.2,0.9-0.5C48.3,266.2,48.1,265.6,47.6,265.4z"/>
	<path class="st1" d="M85,214c6.9,7.6,9.3,18.4,6.2,28.2c-0.2,0.5-0.3,1-0.5,1.5c-0.2,0.5,0.1,1.1,0.6,1.3c0.1,0,0.2,0.1,0.4,0.1
		c0.4,0,0.8-0.2,0.9-0.6c4.4-11.5,1.5-24.4-7.2-33c-0.4-0.4-1-0.4-1.4,0c-0.4,0.4-0.4,1,0,1.4C84.3,213.2,84.7,213.6,85,214z"/>
	<path class="st1" d="M40,226.4c-0.6,1.9-0.9,4-1,6.1c0,0.3,0,0.6,0,0.9s0,0.6,0,0.9c0.1,2.1,0.4,4.1,1,6.1c0.3,0.9,0.6,1.9,1,2.8
		c3.8,8.8,12.5,14.9,22.7,14.9c13.6,0,24.7-11.1,24.7-24.7s-11.1-24.7-24.7-24.7c-10.1,0-18.9,6.2-22.7,14.9
		C40.6,224.5,40.3,225.5,40,226.4z M63.7,210.7c12.5,0,22.7,10.2,22.7,22.7s-10.2,22.7-22.7,22.7c-12.2,0-22.2-9.7-22.7-21.8
		c0-0.3,0-0.6,0-0.9s0-0.6,0-0.9C41.5,220.4,51.5,210.7,63.7,210.7z"/>
	<path class="st1" d="M63.7,238.3c2.7,0,4.9-2.2,4.9-4.9s-2.2-4.9-4.9-4.9s-4.9,2.2-4.9,4.9S61,238.3,63.7,238.3z M63.7,230.5
		c1.6,0,2.9,1.3,2.9,2.9s-1.3,2.9-2.9,2.9s-2.9-1.3-2.9-2.9S62.1,230.5,63.7,230.5z"/>
	<path class="st1" d="M78.2,232.3c2.1,0,3.8-1.7,3.8-3.8s-1.7-3.8-3.8-3.8s-3.8,1.7-3.8,3.8S76.2,232.3,78.2,232.3z M78.2,226.8
		c1,0,1.8,0.8,1.8,1.8c0,1-0.8,1.8-1.8,1.8s-1.8-0.8-1.8-1.8C76.5,227.6,77.3,226.8,78.2,226.8z"/>
	<path class="st1" d="M72.7,249.6c2.1,0,3.8-1.7,3.8-3.8s-1.7-3.8-3.8-3.8s-3.8,1.7-3.8,3.8S70.7,249.6,72.7,249.6z M72.7,244.1
		c1,0,1.8,0.8,1.8,1.8c0,1-0.8,1.8-1.8,1.8s-1.8-0.8-1.8-1.8C71,244.9,71.8,244.1,72.7,244.1z"/>
	<path class="st1" d="M50.8,245.8c0,2.1,1.7,3.8,3.8,3.8s3.8-1.7,3.8-3.8s-1.7-3.8-3.8-3.8S50.8,243.8,50.8,245.8z M54.6,244.1
		c1,0,1.8,0.8,1.8,1.8c0,1-0.8,1.8-1.8,1.8s-1.8-0.8-1.8-1.8C52.8,244.9,53.6,244.1,54.6,244.1z"/>
	<path class="st1" d="M49.1,232.3c2.1,0,3.8-1.7,3.8-3.8s-1.7-3.8-3.8-3.8s-3.8,1.7-3.8,3.8S47,232.3,49.1,232.3z M49.1,226.8
		c1,0,1.8,0.8,1.8,1.8c0,1-0.8,1.8-1.8,1.8s-1.8-0.8-1.8-1.8C47.3,227.6,48.1,226.8,49.1,226.8z"/>
	<path class="st1" d="M63.7,221.8c2.1,0,3.8-1.7,3.8-3.8s-1.7-3.8-3.8-3.8s-3.8,1.7-3.8,3.8S61.6,221.8,63.7,221.8z M63.7,216.3
		c1,0,1.8,0.8,1.8,1.8s-0.8,1.8-1.8,1.8s-1.8-0.8-1.8-1.8S62.7,216.3,63.7,216.3z"/>
	<path class="st1" d="M62.1,152.4c-0.6-0.7-1.5-1.2-2.5-1.2H50c-1,0-1.9,0.4-2.5,1.2l-1.1,1.3c-0.4,0.4-0.3,1.1,0.1,1.4
		c0.4,0.4,1.1,0.3,1.4-0.1l1.1-1.3c0.2-0.3,0.6-0.4,1-0.4h9.6c0.4,0,0.7,0.2,1,0.4l1.1,1.3c0.2,0.2,0.5,0.4,0.8,0.4
		c0.2,0,0.5-0.1,0.6-0.2c0.4-0.4,0.5-1,0.1-1.4L62.1,152.4z"/>
	<path class="st1" d="M62.1,157.5c-0.6-0.7-1.5-1.2-2.5-1.2H50c-1,0-1.9,0.4-2.5,1.2l-1.1,1.3c-0.4,0.4-0.3,1.1,0.1,1.4
		c0.4,0.4,1.1,0.3,1.4-0.1l1.1-1.3c0.2-0.3,0.6-0.4,1-0.4h9.6c0.4,0,0.7,0.2,1,0.4l1.1,1.3c0.2,0.2,0.5,0.4,0.8,0.4
		c0.2,0,0.5-0.1,0.6-0.2c0.4-0.4,0.5-1,0.1-1.4L62.1,157.5z"/>
	<path class="st1" d="M62.1,147.3c-0.6-0.7-1.5-1.2-2.5-1.2H50c-1,0-1.9,0.4-2.5,1.2l-1.1,1.3c-0.4,0.4-0.3,1.1,0.1,1.4
		c0.4,0.4,1.1,0.3,1.4-0.1l1.1-1.3c0.2-0.3,0.6-0.4,1-0.4h9.6c0.4,0,0.7,0.2,1,0.4l1.1,1.3c0.2,0.2,0.5,0.4,0.8,0.4
		c0.2,0,0.5-0.1,0.6-0.2c0.4-0.4,0.5-1,0.1-1.4L62.1,147.3z"/>
	<path class="st1" d="M194.7,53.3c0.6,0,1-0.4,1-1v-3c0-0.6-0.4-1-1-1s-1,0.4-1,1v3C193.7,52.9,194.1,53.3,194.7,53.3z"/>
	<path class="st1" d="M173.1,48.3c-0.6,0-1,0.4-1,1v3c0,0.6,0.4,1,1,1s1-0.4,1-1v-3C174.1,48.8,173.7,48.3,173.1,48.3z"/>
</g>
</svg>
