<svg xmlns="http://www.w3.org/2000/svg" width="217.075" height="158.967"><g stroke="#0073ff" stroke-linecap="round" stroke-linejoin="round" stroke-width="2"><g transform="translate(156.965 87.504)" fill="#fff"><circle cx="1.727" cy="1.727" r="1.727" stroke="none"/><circle cx="1.727" cy="1.727" r=".727" fill="none"/></g><g transform="translate(87.202 8.876)" fill="#fff"><circle cx="1.727" cy="1.727" r="1.727" stroke="none"/><circle cx="1.727" cy="1.727" r=".727" fill="none"/></g><path d="M61.827 95.757l3.832 1.025-.947 3.537M52.235 23.75l3.758-1.271-1.173-3.469" fill="none"/><path d="M113.789 112.46v15.879c5.787 2.369 14.864 6.673 19.347 11.933h-49.2c4.483-5.259 13.561-9.564 19.348-11.933V112.46c-4.174-2.357-10.165-6.972-15.461-15.729-9.277-15.343-15.6-57.453-15.6-57.453h72.635s-6.325 42.109-15.6 57.453c-5.305 8.757-11.293 13.372-15.469 15.729zm19.29 27.813v17.694h-49.09v-17.694h49.09z" fill="#fff"/><path d="M143.584 46.836h15.652a6.825 6.825 0 016.539 8.82c-2.446 7.9-6.972 18.471-13.961 19.933a80.064 80.064 0 01-15.061 1.815 264.609 264.609 0 006.831-30.568zm-70.092 0H57.841a6.824 6.824 0 00-6.538 8.82c2.445 7.9 6.971 18.471 13.96 19.933a80.064 80.064 0 0015.062 1.815 264.737 264.737 0 01-6.833-30.568zm.49 2.76h69.037" fill="#fff"/><path d="M94.115 147.15l2.835 2.836a2.315 2.315 0 003.272 0l1.513-1.514a2.315 2.315 0 013.273 0l1.467 1.467a2.313 2.313 0 003.272 0l1.433-1.433a2.314 2.314 0 013.273 0l1.5 1.5a2.314 2.314 0 003.272 0l3.2-3.2" fill="none"/><path d="M99.903 110.229a13.926 13.926 0 0017.278-.2" fill="#fff"/><path d="M108.511 84.123c-5.392-5.393-10.7 2.076-17.857 0v-22.2c7.365 1.917 13.6-6.593 17.857 0zm.051 0c5.392-5.393 10.7 2.076 17.857 0v-22.2c-7.365 1.917-13.6-6.593-17.857 0z" fill="none"/><g transform="translate(132.775)" fill="#fff"><circle cx="2.887" cy="2.887" r="2.887" stroke="none"/><circle cx="2.887" cy="2.887" r="1.887" fill="none"/></g><path d="M107.71 15.67l1.296 1.758m2.335 3.166l1.296 1.758m-5.804-.877l1.758-1.296m3.166-2.336l1.758-1.296" fill="#fff"/><path d="M166.094 20.652l-1.74 3.564 3.29 1.606" fill="none"/><g fill="#fff"><path d="M203.816 91.375a5.026 5.026 0 00.212-.913c.039-3.589.036-7.19-.28-10.8a8.95 8.95 0 00-4.195-7.193c-1.521-.968-2.916-2.157-4.425-3.195-.934-.643-1.914-1.205-3.2-2 .192 3.506.1 6.651.3 9.809a12.95 12.95 0 003.512 7.771 32.76 32.76 0 003.35 3.334c1.416 1.193 2.712 2.593 4.726 3.187zm-7.776 27.14c1.375-4.3 2.569-8.533 3.56-12.807a7.824 7.824 0 00-1.515-6.841c-2.141-2.743-4.446-5.412-6.91-8.213-.408 1.4-.853 2.553-1.122 3.752-.578 2.518-1.258 5.011-1.723 7.549a9.237 9.237 0 00.678 6.063c.61 1.166 1.194 2.336 1.781 3.5a19.419 19.419 0 001.792 3.439c.998 1.233 1.76 2.752 3.459 3.558zm-8.756 15.163c-.938 1.815-2.208 3.5-3.319 5.237-1.147 1.8-2.271 3.6-3.518 5.481.421.017.616.04.813.034 3.285-.028 6.585-1.181 9.881-2.352a16.738 16.738 0 003.993-1.823 15.1 15.1 0 003.8-3.592 33.256 33.256 0 003.821-6.529c.724-1.8 1.618-3.549 2.555-5.728-3.137.721-6.077 1.216-8.954 2.046a13.922 13.922 0 00-9.072 7.226zm16.186-32.593a8.819 8.819 0 00-3.223 4.783c-1.023 3.805-2.22 7.559-3.509 11.284a15.711 15.711 0 00-.361 1.576c.543-.043.914-.042 1.265-.1a6.675 6.675 0 001.08-.281 38.906 38.906 0 009.647-5.353 7.266 7.266 0 00.983-.985 13.849 13.849 0 003.474-7.021c.586-2.962.951-5.954 1.331-9.284-1.969.884-3.531 1.668-5.155 2.282a20.885 20.885 0 00-5.532 3.099z"/><path d="M188.872 131.02a2.693 2.693 0 00.3-.843 11.636 11.636 0 00-.959-7.94c-.537-.968-.871-2.073-1.379-3.077a28.363 28.363 0 00-2.433-4.013c-1.633 2.9-3.266 5.552-4.85 8.228-2.09 3.51-3.127 7.08-2.143 10.88.426 1.633.52 3.384 1 4.955a21.5 21.5 0 002.124 4.962 10.637 10.637 0 00.909-1.023q3.94-5.938 7.431-12.129zm7.762-75.088c1.785 2.551 3.417 5.162 5.025 7.765.156.255.4.492.75.936a38.678 38.678 0 002.89-8.449 6.944 6.944 0 00-.94-4.522 39.282 39.282 0 00-4.406-5.988c-.7-.849-1.5-1.633-2.472-2.663-.636 1.811-1.2 3.24-1.691 4.7-.881 2.61-1.236 5.25.844 8.221zm9.593 16.925a6.567 6.567 0 00-2.077 5c.124 3 0 5.981-.068 8.966-.028 1.508.064 3.023.066 4.474a1.607 1.607 0 001.986-.355c1.2-.919 2.451-1.8 3.6-2.791a43.486 43.486 0 004.092-3.9 7.975 7.975 0 002.071-4.259c.579-4.416-.2-8.842-1.413-13.336a29.847 29.847 0 00-8.257 6.201z"/></g><g fill="#fff"><path d="M13.26 93.542a5.02 5.02 0 01-.211-.914c-.038-3.59-.037-7.191.279-10.8a8.95 8.95 0 014.2-7.194c1.521-.966 2.916-2.156 4.425-3.194.935-.644 1.914-1.2 3.205-2-.191 3.506-.1 6.65-.3 9.809a12.957 12.957 0 01-3.513 7.772 32.845 32.845 0 01-3.35 3.333c-1.425 1.197-2.721 2.596-4.735 3.188zm7.775 27.139c-1.374-4.3-2.569-8.531-3.559-12.807a7.828 7.828 0 011.515-6.841c2.142-2.743 4.448-5.411 6.91-8.213.408 1.4.853 2.553 1.123 3.752.577 2.518 1.257 5.013 1.723 7.549a9.236 9.236 0 01-.679 6.063c-.61 1.166-1.194 2.338-1.781 3.5a19.37 19.37 0 01-1.792 3.438c-.997 1.234-1.76 2.752-3.46 3.559zm8.756 15.164c.939 1.815 2.208 3.5 3.319 5.238 1.147 1.8 2.271 3.6 3.518 5.481-.419.015-.615.039-.812.033-3.285-.028-6.585-1.18-9.88-2.352a16.787 16.787 0 01-3.994-1.822 15.139 15.139 0 01-3.8-3.591 33.305 33.305 0 01-3.821-6.53c-.722-1.8-1.618-3.549-2.555-5.727 3.137.721 6.078 1.217 8.954 2.047a13.921 13.921 0 019.071 7.223zm-16.185-32.591a8.8 8.8 0 013.223 4.782c1.024 3.8 2.22 7.559 3.51 11.285a15.446 15.446 0 01.361 1.576c-.544-.044-.914-.042-1.265-.1a6.568 6.568 0 01-1.079-.281 38.93 38.93 0 01-9.648-5.351 7.279 7.279 0 01-.982-.987 13.84 13.84 0 01-3.474-7.02c-.587-2.962-.951-5.954-1.33-9.284 1.969.885 3.53 1.668 5.155 2.283a20.812 20.812 0 015.529 3.097z"/><path d="M28.204 133.186a2.69 2.69 0 01-.305-.843 11.652 11.652 0 01.96-7.94c.538-.968.871-2.073 1.379-3.077a28.436 28.436 0 012.433-4.013c1.633 2.9 3.266 5.552 4.85 8.229 2.09 3.509 3.128 7.079 2.143 10.88-.426 1.632-.52 3.385-1 4.954a21.478 21.478 0 01-2.124 4.961 10.711 10.711 0 01-.909-1.022q-3.932-5.938-7.427-12.129zm-7.761-75.088c-1.785 2.553-3.417 5.162-5.025 7.765-.156.255-.4.494-.75.936a38.648 38.648 0 01-2.891-8.449 6.949 6.949 0 01.94-4.521 39.328 39.328 0 014.405-5.989c.7-.849 1.5-1.633 2.473-2.663.636 1.81 1.2 3.24 1.69 4.7.881 2.61 1.233 5.25-.842 8.221zm-9.594 16.925a6.566 6.566 0 012.077 5c-.122 3 0 5.98.068 8.966.028 1.509-.063 3.023-.066 4.475a1.605 1.605 0 01-1.986-.355c-1.2-.919-2.452-1.8-3.6-2.791a43.162 43.162 0 01-4.09-3.9 7.97 7.97 0 01-2.073-4.259c-.579-4.415.2-8.842 1.413-13.336a29.845 29.845 0 018.257 6.2z"/></g></g></svg>