<svg xmlns="http://www.w3.org/2000/svg" width="217.075" height="158.967" viewBox="0 0 217.075 158.967"><g transform="translate(-693.858 -18054.385)"><g transform="translate(694.843 18054.385)"><g transform="translate(155.98 87.504)" fill="#fff" stroke="#0073ff" stroke-linecap="round" stroke-linejoin="round" stroke-width="2"><circle cx="1.727" cy="1.727" r="1.727" stroke="none"/><circle cx="1.727" cy="1.727" r="0.727" fill="none"/></g><g transform="translate(86.217 8.876)" fill="#fff" stroke="#0073ff" stroke-linecap="round" stroke-linejoin="round" stroke-width="2"><circle cx="1.727" cy="1.727" r="1.727" stroke="none"/><circle cx="1.727" cy="1.727" r="0.727" fill="none"/></g><path d="M6128.615,5210.218l3.832,1.025-.947,3.537" transform="translate(-6067.773 -5114.461)" fill="none" stroke="#0073ff" stroke-linecap="round" stroke-linejoin="round" stroke-width="2"/><path d="M6120.458,5149.685l3.758-1.271-1.173-3.469" transform="translate(-6069.208 -5125.935)" fill="none" stroke="#0073ff" stroke-linecap="round" stroke-linejoin="round" stroke-width="2"/><g transform="translate(50.009 39.278)"><path d="M6179.024,5235.364v15.879c5.787,2.369,14.864,6.673,19.347,11.933h-49.2c4.483-5.259,13.561-9.564,19.348-11.933v-15.879c-4.174-2.357-10.165-6.972-15.461-15.729-9.277-15.343-15.6-57.453-15.6-57.453h72.635s-6.325,42.109-15.6,57.453C6189.188,5228.392,6183.2,5233.007,6179.024,5235.364Z" transform="translate(-6116.229 -5162.182)" fill="#fff" stroke="#0073ff" stroke-linecap="round" stroke-linejoin="round" stroke-width="2"/><path d="M6196.555,5248.079v17.694h-49.09v-17.694h49.09Z" transform="translate(-6114.47 -5147.084)" fill="#fff" stroke="#0073ff" stroke-linecap="round" stroke-linejoin="round" stroke-width="2"/><path d="M6199.172,5168.61h15.652a6.825,6.825,0,0,1,6.539,8.82c-2.446,7.9-6.972,18.471-13.961,19.933a80.064,80.064,0,0,1-15.061,1.815A264.609,264.609,0,0,0,6199.172,5168.61Z" transform="translate(-6106.582 -5161.052)" fill="#fff" stroke="#0073ff" stroke-linecap="round" stroke-linejoin="round" stroke-width="2"/><path d="M6141.9,5168.61h-15.651a6.824,6.824,0,0,0-6.538,8.82c2.445,7.9,6.971,18.471,13.96,19.933a80.064,80.064,0,0,0,15.062,1.815A264.737,264.737,0,0,1,6141.9,5168.61Z" transform="translate(-6119.402 -5161.052)" fill="#fff" stroke="#0073ff" stroke-linecap="round" stroke-linejoin="round" stroke-width="2"/><line x2="69.037" transform="translate(22.988 10.318)" stroke-width="2" stroke="#0073ff" stroke-linecap="round" stroke-linejoin="round" fill="#fff"/><path d="M6156.077,5253.98l2.835,2.836a2.315,2.315,0,0,0,3.272,0l1.513-1.514a2.315,2.315,0,0,1,3.273,0l1.467,1.467a2.313,2.313,0,0,0,3.272,0l1.433-1.433a2.314,2.314,0,0,1,3.273,0l1.5,1.5a2.314,2.314,0,0,0,3.272,0l3.2-3.2" transform="translate(-6112.956 -5146.108)" fill="none" stroke="#0073ff" stroke-linecap="round" stroke-linejoin="round" stroke-width="2"/><path d="M6161,5222.556a13.926,13.926,0,0,0,17.278-.2" transform="translate(-6112.091 -5151.605)" fill="#fff" stroke="#0073ff" stroke-linecap="round" stroke-linejoin="round" stroke-width="2"/><g transform="translate(39.66 20.102)"><path d="M6170.991,5204.022c-5.392-5.393-10.7,2.076-17.857,0v-22.2c7.365,1.917,13.6-6.593,17.857,0Z" transform="translate(-6153.134 -5179.279)" fill="none" stroke="#0073ff" stroke-linecap="round" stroke-linejoin="round" stroke-width="2"/><path d="M6168.365,5204.022c5.392-5.393,10.7,2.076,17.857,0v-22.2c-7.365,1.917-13.6-6.593-17.857,0Z" transform="translate(-6150.457 -5179.279)" fill="none" stroke="#0073ff" stroke-linecap="round" stroke-linejoin="round" stroke-width="2"/></g></g><g transform="translate(131.79 0)" fill="#fff" stroke="#0073ff" stroke-linecap="round" stroke-linejoin="round" stroke-width="2"><circle cx="2.887" cy="2.887" r="2.887" stroke="none"/><circle cx="2.887" cy="2.887" r="1.887" fill="none"/></g><g transform="translate(105.848 15.67)"><g transform="translate(0.877)"><line x2="1.296" y2="1.758" fill="#fff" stroke="#0073ff" stroke-linecap="round" stroke-linejoin="round" stroke-width="2"/><line x2="1.296" y2="1.758" transform="translate(3.631 4.924)" stroke-width="2" stroke="#0073ff" stroke-linecap="round" stroke-linejoin="round" fill="#fff"/></g><g transform="translate(0 0.877)"><line y1="1.296" x2="1.758" transform="translate(0 3.632)" stroke-width="2" stroke="#0073ff" stroke-linecap="round" stroke-linejoin="round" fill="#fff"/><line y1="1.296" x2="1.758" transform="translate(4.924)" stroke-width="2" stroke="#0073ff" stroke-linecap="round" stroke-linejoin="round" fill="#fff"/></g></g><path d="M6217.555,5146.341l-1.74,3.564,3.29,1.606" transform="translate(-6052.446 -5125.689)" fill="none" stroke="#0073ff" stroke-linecap="round" stroke-linejoin="round" stroke-width="2"/><g transform="translate(176.052 43.01)"><path d="M6251.156,5210.094a5.026,5.026,0,0,0,.212-.913c.039-3.589.036-7.19-.28-10.8a8.95,8.95,0,0,0-4.195-7.193c-1.521-.968-2.916-2.157-4.425-3.195-.934-.643-1.914-1.205-3.2-2,.192,3.506.1,6.651.3,9.809a12.95,12.95,0,0,0,3.512,7.771,32.76,32.76,0,0,0,3.35,3.334C6247.846,5208.1,6249.142,5209.5,6251.156,5210.094Z" transform="translate(-6224.377 -5161.729)" fill="#fff" stroke="#0073ff" stroke-linecap="round" stroke-linejoin="round" stroke-width="2"/><path d="M6243.949,5233.739c1.375-4.3,2.569-8.533,3.56-12.807a7.824,7.824,0,0,0-1.515-6.841c-2.141-2.743-4.446-5.412-6.91-8.213-.408,1.4-.853,2.553-1.122,3.752-.578,2.518-1.258,5.011-1.723,7.549a9.237,9.237,0,0,0,.678,6.063c.61,1.166,1.194,2.336,1.781,3.5a19.419,19.419,0,0,0,1.792,3.439C6241.488,5231.414,6242.25,5232.933,6243.949,5233.739Z" transform="translate(-6224.946 -5158.234)" fill="#fff" stroke="#0073ff" stroke-linecap="round" stroke-linejoin="round" stroke-width="2"/><path d="M6236.34,5243.856c-.938,1.815-2.208,3.5-3.319,5.237-1.147,1.8-2.271,3.6-3.518,5.481.421.017.616.04.813.034,3.285-.028,6.585-1.181,9.881-2.352a16.738,16.738,0,0,0,3.993-1.823,15.1,15.1,0,0,0,3.8-3.592,33.256,33.256,0,0,0,3.821-6.529c.724-1.8,1.618-3.549,2.555-5.728-3.137.721-6.077,1.216-8.954,2.046A13.922,13.922,0,0,0,6236.34,5243.856Z" transform="translate(-6226.093 -5153.188)" fill="#fff" stroke="#0073ff" stroke-linecap="round" stroke-linejoin="round" stroke-width="2"/><path d="M6250.144,5215.555a8.819,8.819,0,0,0-3.223,4.783c-1.023,3.805-2.22,7.559-3.509,11.284a15.711,15.711,0,0,0-.361,1.576c.543-.043.914-.042,1.265-.1a6.675,6.675,0,0,0,1.08-.281,38.906,38.906,0,0,0,9.647-5.353,7.266,7.266,0,0,0,.983-.985,13.849,13.849,0,0,0,3.474-7.021c.586-2.962.951-5.954,1.331-9.284-1.969.884-3.531,1.668-5.155,2.282A20.885,20.885,0,0,0,6250.144,5215.555Z" transform="translate(-6223.711 -5157.48)" fill="#fff" stroke="#0073ff" stroke-linecap="round" stroke-linejoin="round" stroke-width="2"/><path d="M6238.438,5242.583a2.693,2.693,0,0,0,.3-.843,11.636,11.636,0,0,0-.959-7.94c-.537-.968-.871-2.073-1.379-3.077a28.363,28.363,0,0,0-2.433-4.013c-1.633,2.9-3.266,5.552-4.85,8.228-2.09,3.51-3.127,7.08-2.143,10.88.426,1.633.52,3.384,1,4.955a21.5,21.5,0,0,0,2.124,4.962,10.637,10.637,0,0,0,.909-1.023Q6234.947,5248.774,6238.438,5242.583Z" transform="translate(-6226.603 -5154.573)" fill="#fff" stroke="#0073ff" stroke-linecap="round" stroke-linejoin="round" stroke-width="2"/><path d="M6243.5,5178.279c1.785,2.551,3.417,5.162,5.025,7.765.156.255.4.492.75.936a38.678,38.678,0,0,0,2.89-8.449,6.944,6.944,0,0,0-.94-4.522,39.282,39.282,0,0,0-4.406-5.988c-.7-.849-1.5-1.633-2.472-2.663-.636,1.811-1.2,3.24-1.691,4.7C6241.775,5172.668,6241.42,5175.308,6243.5,5178.279Z" transform="translate(-6223.903 -5165.357)" fill="#fff" stroke="#0073ff" stroke-linecap="round" stroke-linejoin="round" stroke-width="2"/><path d="M6251.75,5191.67a6.567,6.567,0,0,0-2.077,5c.124,3,0,5.981-.068,8.966-.028,1.508.064,3.023.066,4.474a1.607,1.607,0,0,0,1.986-.355c1.2-.919,2.451-1.8,3.6-2.791a43.486,43.486,0,0,0,4.092-3.9,7.975,7.975,0,0,0,2.071-4.259c.579-4.416-.2-8.842-1.413-13.336A29.847,29.847,0,0,0,6251.75,5191.67Z" transform="translate(-6222.56 -5161.823)" fill="#fff" stroke="#0073ff" stroke-linecap="round" stroke-linejoin="round" stroke-width="2"/></g><g transform="translate(0 45.176)"><path d="M6087.343,5211.937a5.02,5.02,0,0,1-.211-.914c-.038-3.59-.037-7.191.279-10.8a8.95,8.95,0,0,1,4.2-7.194c1.521-.966,2.916-2.156,4.425-3.194.935-.644,1.914-1.2,3.205-2-.191,3.506-.1,6.65-.3,9.809a12.957,12.957,0,0,1-3.513,7.772,32.845,32.845,0,0,1-3.35,3.333C6090.653,5209.946,6089.357,5211.345,6087.343,5211.937Z" transform="translate(-6075.068 -5163.571)" fill="#fff" stroke="#0073ff" stroke-linecap="round" stroke-linejoin="round" stroke-width="2"/><path d="M6094.488,5235.581c-1.374-4.3-2.569-8.531-3.559-12.807a7.828,7.828,0,0,1,1.515-6.841c2.142-2.743,4.448-5.411,6.91-8.213.408,1.4.853,2.553,1.123,3.752.577,2.518,1.257,5.013,1.723,7.549a9.236,9.236,0,0,1-.679,6.063c-.61,1.166-1.194,2.338-1.781,3.5a19.37,19.37,0,0,1-1.792,3.438C6096.951,5233.256,6096.188,5234.774,6094.488,5235.581Z" transform="translate(-6074.438 -5160.076)" fill="#fff" stroke="#0073ff" stroke-linecap="round" stroke-linejoin="round" stroke-width="2"/><path d="M6104.064,5245.7c.939,1.815,2.208,3.5,3.319,5.238,1.147,1.8,2.271,3.6,3.518,5.481-.419.015-.615.039-.812.033-3.285-.028-6.585-1.18-9.88-2.352a16.787,16.787,0,0,1-3.994-1.822,15.139,15.139,0,0,1-3.8-3.591,33.305,33.305,0,0,1-3.821-6.53c-.722-1.8-1.618-3.549-2.555-5.727,3.137.721,6.078,1.217,8.954,2.047A13.921,13.921,0,0,1,6104.064,5245.7Z" transform="translate(-6075.258 -5155.031)" fill="#fff" stroke="#0073ff" stroke-linecap="round" stroke-linejoin="round" stroke-width="2"/><path d="M6089.2,5217.4a8.8,8.8,0,0,1,3.223,4.782c1.024,3.8,2.22,7.559,3.51,11.285a15.446,15.446,0,0,1,.361,1.576c-.544-.044-.914-.042-1.265-.1a6.568,6.568,0,0,1-1.079-.281,38.93,38.93,0,0,1-9.648-5.351,7.279,7.279,0,0,1-.982-.987,13.84,13.84,0,0,1-3.474-7.02c-.587-2.962-.951-5.954-1.33-9.284,1.969.885,3.53,1.668,5.155,2.283A20.812,20.812,0,0,1,6089.2,5217.4Z" transform="translate(-6076.579 -5159.322)" fill="#fff" stroke="#0073ff" stroke-linecap="round" stroke-linejoin="round" stroke-width="2"/><path d="M6100.105,5244.425a2.69,2.69,0,0,1-.305-.843,11.652,11.652,0,0,1,.96-7.94c.538-.968.871-2.073,1.379-3.077a28.436,28.436,0,0,1,2.433-4.013c1.633,2.9,3.266,5.552,4.85,8.229,2.09,3.509,3.128,7.079,2.143,10.88-.426,1.632-.52,3.385-1,4.954a21.478,21.478,0,0,1-2.124,4.961,10.711,10.711,0,0,1-.909-1.022Q6103.6,5250.616,6100.105,5244.425Z" transform="translate(-6072.886 -5156.415)" fill="#fff" stroke="#0073ff" stroke-linecap="round" stroke-linejoin="round" stroke-width="2"/><path d="M6094.725,5180.121c-1.785,2.553-3.417,5.162-5.025,7.765-.156.255-.4.494-.75.936a38.648,38.648,0,0,1-2.891-8.449,6.949,6.949,0,0,1,.94-4.521,39.328,39.328,0,0,1,4.405-5.989c.7-.849,1.5-1.633,2.473-2.663.636,1.81,1.2,3.24,1.69,4.7C6096.448,5174.51,6096.8,5177.15,6094.725,5180.121Z" transform="translate(-6075.267 -5167.199)" fill="#fff" stroke="#0073ff" stroke-linecap="round" stroke-linejoin="round" stroke-width="2"/><path d="M6086.733,5193.512a6.566,6.566,0,0,1,2.077,5c-.122,3,0,5.98.068,8.966.028,1.509-.063,3.023-.066,4.475a1.605,1.605,0,0,1-1.986-.355c-1.2-.919-2.452-1.8-3.6-2.791a43.162,43.162,0,0,1-4.09-3.9,7.97,7.97,0,0,1-2.073-4.259c-.579-4.415.2-8.842,1.413-13.336A29.845,29.845,0,0,1,6086.733,5193.512Z" transform="translate(-6076.869 -5163.665)" fill="#fff" stroke="#0073ff" stroke-linecap="round" stroke-linejoin="round" stroke-width="2"/></g></g></g></svg>