<svg xmlns="http://www.w3.org/2000/svg" width="107.921" height="60.499"><g stroke-width="2" stroke="#0073ff" stroke-linecap="round" stroke-linejoin="round" fill="none"><path d="M92.58 59.498h14.341"/><g transform="translate(69.666)"><circle cx="1.469" cy="1.469" r="1.469" stroke="none"/><circle cx="1.469" cy="1.469" r=".469"/></g><g transform="translate(15.341 30.893)"><circle cx="1.469" cy="1.469" r="1.469" stroke="none"/><circle cx="1.469" cy="1.469" r=".469"/></g><path d="M29.837 2.473l1.754.5.458-1.619m64.329 37.751l-2 .414.383 1.845m-13.156-21.32v7.072m-3.062-5.303l6.124 3.536m0-3.536l-6.124 3.536m-44.824-1.276a3.382 3.382 0 1 1-6.763 0c0-2.6 3.381-4.76 3.381-6.166 0 1.406 3.382 3.566 3.382 6.166zm24.083 20.794c0 6.1-4.05 10.644-10.149 10.644s-10.149-4.545-10.149-10.644 10.149-17.193 10.149-17.193 10.149 11.099 10.149 17.193zM47.654 27.674v31.554m0-10.235l6.319-5.003m-6.319-1.854l3.919-3.103m-3.92 9.96l-6.319-5.003m6.319-1.854l-3.919-3.103M23.971 59.228v-2.665m11.514 2.665v-2.665m-5.757 2.664v-6.844m43.324-6.969a3.7 3.7 0 1 1-3.7-3.7 3.685 3.685 0 0 1 3.7 3.7z"/><path d="M72.816 43.042l1.325-3.454-3.062 2.565m-5.188.889l-1.325-3.454 3.063 2.565m11.975 14.792s3.654 1.84 5.563-.769c2.214-3.026-2.348-5.357.033-8.294m-17.651 1.641v6.938a1.579 1.579 0 0 0-1.743 1.51c0 1.249.45 1.527 1.833 1.527h5.413m-.93-11.631c2.371 0 7.708 5.13 7.489 8.987"/><path d="M73.847 53.984a2.448 2.448 0 0 0-2.225 2.373v.779a2.257 2.257 0 0 0 2.5 2.362h3.042c1.963 0 2.435-.374 2.435-2.234M1 59.498h14.341"/><g transform="translate(-4457.07 -5179.227)"><circle cx="4.279" cy="4.279" r="4.279" transform="translate(4508.139 5185.694)"/><path d="M4512.417 5185.694v-4.432m0 17.421v-4.432m-4.278-4.278h-4.432m17.421 0h-4.432m-7.304-3.026l-3.134-3.134m12.319 12.32l-3.134-3.134m-6.051 0l-3.134 3.134m12.319-12.32l-3.134 3.134"/></g><path d="M41.653 59.498H56.53"/></g></svg>