<svg xmlns="http://www.w3.org/2000/svg" width="923.494" height="447.622" viewBox="0 0 923.494 447.622">
  <g id="error404" transform="translate(-654.5 -716.647)">
    <g id="Group_2035" data-name="Group 2035" transform="translate(-487.99 -10.576)">
      <g id="Group_2000" data-name="Group 2000" transform="translate(1506.948 890.281)">
        <g id="Group_1999" data-name="Group 1999">
          <path id="Path_1354" data-name="Path 1354" d="M1461.353,981.116c0-55.565,27.459-111.13,89.161-111.13,61.381,0,89.164,55.565,89.164,111.13s-27.783,111.453-89.164,111.453C1488.813,1092.569,1461.353,1036.681,1461.353,981.116Zm131.482,0c0-39.736-11.63-70.426-42.32-70.426-31.013,0-42.641,30.69-42.641,70.426s11.629,70.748,42.641,70.748C1581.2,1051.865,1592.835,1020.852,1592.835,981.116Z" transform="translate(-1461.353 -869.986)" fill="#0073ff"/>
          <path id="Path_1355" data-name="Path 1355" d="M1731.349,1088.287v-44.581H1628.294v-36.182L1713.9,872.81h63.317v130.513H1805v40.383h-27.783v44.581Zm0-174.772-58.15,89.808h58.15Z" transform="translate(-1437.369 -869.58)" fill="#0073ff"/>
        </g>
      </g>
      <g id="Group_2029" data-name="Group 2029" transform="translate(1316.554 728.724)">
        <path id="Path_1356" data-name="Path 1356" d="M1527.762,811.832a12.949,12.949,0,0,1,12.911-12.91h5.7a12.357,12.357,0,0,1,2.775-6.255,11.552,11.552,0,0,0-6.768-2.2h-.089a10.644,10.644,0,0,0-9.252-7.766,15.89,15.89,0,0,0-29.625,7.766h-3.019a11.643,11.643,0,0,0,0,23.286h27.534A12.861,12.861,0,0,1,1527.762,811.832Zm91.717,0a12.949,12.949,0,0,1-12.91,12.911h-65.9a12.91,12.91,0,1,1,0-25.821h5.7a12.3,12.3,0,0,1,14.145-10.555,17.616,17.616,0,0,1,32.453,2.187,10.064,10.064,0,0,1,9.606,8.368h4A12.948,12.948,0,0,1,1619.479,811.832Z" transform="translate(-1267.024 -722.104)" fill="none" stroke="#0073ff" stroke-linecap="round" stroke-linejoin="round" stroke-width="3"/>
        <path id="Path_1357" data-name="Path 1357" d="M1338.94,833.464h0a8.762,8.762,0,0,0-7.615-6.392,13.078,13.078,0,0,0-24.382,6.392h-2.059a9.877,9.877,0,0,0-9.932,8.358,9.607,9.607,0,0,0,9.505,10.807h34.555a9.582,9.582,0,1,0-.073-19.164Z" transform="translate(-1294.877 -715.528)" fill="none" stroke="#0073ff" stroke-linecap="round" stroke-linejoin="round" stroke-width="3"/>
        <g id="Group_2009" data-name="Group 2009" transform="translate(531.318)">
          <circle id="Ellipse_183" data-name="Ellipse 183" cx="32.287" cy="32.287" r="32.287" transform="translate(27.535 27.535)" stroke-width="3" stroke="#0073ff" stroke-linecap="round" stroke-linejoin="round" fill="none"/>
          <g id="Group_2001" data-name="Group 2001" transform="translate(59.822)">
            <line id="Line_1331" data-name="Line 1331" y2="14.038" stroke-width="3" stroke="#0073ff" stroke-linecap="round" stroke-linejoin="round" fill="none"/>
            <line id="Line_1332" data-name="Line 1332" y2="14.038" transform="translate(0 105.605)" fill="none" stroke="#0073ff" stroke-linecap="round" stroke-linejoin="round" stroke-width="3"/>
          </g>
          <g id="Group_2002" data-name="Group 2002" transform="translate(40.372 12.867)">
            <line id="Line_1333" data-name="Line 1333" x1="1.929" y2="4.656" transform="translate(36.97)" fill="none" stroke="#0073ff" stroke-linecap="round" stroke-linejoin="round" stroke-width="3"/>
            <line id="Line_1334" data-name="Line 1334" y1="4.656" x2="1.929" transform="translate(0 89.253)" fill="none" stroke="#0073ff" stroke-linecap="round" stroke-linejoin="round" stroke-width="3"/>
          </g>
          <g id="Group_2003" data-name="Group 2003" transform="translate(0 59.822)">
            <line id="Line_1335" data-name="Line 1335" x2="14.038" transform="translate(105.605)" fill="none" stroke="#0073ff" stroke-linecap="round" stroke-linejoin="round" stroke-width="3"/>
            <line id="Line_1336" data-name="Line 1336" x1="14.038" stroke-width="3" stroke="#0073ff" stroke-linecap="round" stroke-linejoin="round" fill="none"/>
          </g>
          <g id="Group_2004" data-name="Group 2004" transform="translate(17.521 17.521)">
            <line id="Line_1337" data-name="Line 1337" y1="9.926" x2="9.926" transform="translate(74.674)" fill="none" stroke="#0073ff" stroke-linecap="round" stroke-linejoin="round" stroke-width="3"/>
            <line id="Line_1338" data-name="Line 1338" x1="9.926" y2="9.926" transform="translate(0 74.674)" fill="none" stroke="#0073ff" stroke-linecap="round" stroke-linejoin="round" stroke-width="3"/>
          </g>
          <g id="Group_2005" data-name="Group 2005" transform="translate(17.521 17.521)">
            <line id="Line_1339" data-name="Line 1339" x2="9.926" y2="9.926" transform="translate(74.674 74.674)" fill="none" stroke="#0073ff" stroke-linecap="round" stroke-linejoin="round" stroke-width="3"/>
            <line id="Line_1340" data-name="Line 1340" x1="9.926" y1="9.926" stroke-width="3" stroke="#0073ff" stroke-linecap="round" stroke-linejoin="round" fill="none"/>
          </g>
          <g id="Group_2006" data-name="Group 2006" transform="translate(12.867 40.372)">
            <line id="Line_1341" data-name="Line 1341" x1="4.656" y1="1.929" transform="translate(89.253 36.97)" fill="none" stroke="#0073ff" stroke-linecap="round" stroke-linejoin="round" stroke-width="3"/>
            <line id="Line_1342" data-name="Line 1342" x2="4.656" y2="1.929" stroke-width="3" stroke="#0073ff" stroke-linecap="round" stroke-linejoin="round" fill="none"/>
          </g>
          <g id="Group_2007" data-name="Group 2007" transform="translate(12.867 40.372)">
            <line id="Line_1343" data-name="Line 1343" y1="1.929" x2="4.656" transform="translate(89.253)" fill="none" stroke="#0073ff" stroke-linecap="round" stroke-linejoin="round" stroke-width="3"/>
            <line id="Line_1344" data-name="Line 1344" y1="1.929" x2="4.656" transform="translate(0 36.97)" fill="none" stroke="#0073ff" stroke-linecap="round" stroke-linejoin="round" stroke-width="3"/>
          </g>
          <g id="Group_2008" data-name="Group 2008" transform="translate(40.372 12.867)">
            <line id="Line_1345" data-name="Line 1345" x2="1.929" y2="4.656" transform="translate(36.97 89.253)" fill="none" stroke="#0073ff" stroke-linecap="round" stroke-linejoin="round" stroke-width="3"/>
            <line id="Line_1346" data-name="Line 1346" x2="1.929" y2="4.656" stroke-width="3" stroke="#0073ff" stroke-linecap="round" stroke-linejoin="round" fill="none"/>
          </g>
          <circle id="Ellipse_184" data-name="Ellipse 184" cx="4.667" cy="4.667" r="4.667" transform="translate(40.151 53.873)" stroke-width="3" stroke="#0073ff" stroke-linecap="round" stroke-linejoin="round" fill="none"/>
          <circle id="Ellipse_185" data-name="Ellipse 185" cx="4.667" cy="4.667" r="4.667" transform="translate(58.569 45.203)" stroke-width="3" stroke="#0073ff" stroke-linecap="round" stroke-linejoin="round" fill="none"/>
          <path id="Path_1358" data-name="Path 1358" d="M1807.583,768.568a6.855,6.855,0,0,1,5.678-5.78" transform="translate(-1752.535 -723.83)" fill="none" stroke="#0073ff" stroke-linecap="round" stroke-linejoin="round" stroke-width="3"/>
          <path id="Path_1359" data-name="Path 1359" d="M1801.789,772.048a6.858,6.858,0,0,0-8.042.988" transform="translate(-1754.523 -722.626)" fill="none" stroke="#0073ff" stroke-linecap="round" stroke-linejoin="round" stroke-width="3"/>
          <circle id="Ellipse_186" data-name="Ellipse 186" cx="1.723" cy="1.723" r="1.723" transform="translate(61.514 49.854)" fill="#0073ff"/>
          <circle id="Ellipse_187" data-name="Ellipse 187" cx="1.723" cy="1.723" r="1.723" transform="translate(43.096 58.541)" fill="#0073ff"/>
          <path id="Path_1360" data-name="Path 1360" d="M1810.8,797.322a14.963,14.963,0,0,1,11.629-5.038" transform="translate(-1752.073 -719.594)" fill="none" stroke="#0073ff" stroke-linecap="round" stroke-linejoin="round" stroke-width="3"/>
        </g>
        <path id="Path_1361" data-name="Path 1361" d="M1768.927,1109.53v-4.369m-6.974-4.369v8.738m-9.545-4.369v4.369m-6.974,0v-8.738m105.426,8.738v-4.369m-6.657,0v4.369m-6.657-8.738v8.738m-6.657,0v-4.369m-7.428,4.369v-4.369m-86.144,4.369v-4.369" transform="translate(-1231.313 -675.269)" fill="none" stroke="#0073ff" stroke-linecap="round" stroke-linejoin="round" stroke-width="3"/>
        <g id="Group_2010" data-name="Group 2010" transform="translate(546.343 400.641)">
          <path id="Path_1362" data-name="Path 1362" d="M1804.865,1095.854h-32.277l15.62-16.818Z" transform="translate(-1772.588 -1079.036)" fill="none" stroke="#0073ff" stroke-linecap="round" stroke-linejoin="round" stroke-width="3"/>
          <rect id="Rectangle_789" data-name="Rectangle 789" width="27.083" height="16.971" transform="translate(2.078 16.818)" stroke-width="3" stroke="#0073ff" stroke-linecap="round" stroke-linejoin="round" fill="none"/>
          <line id="Line_1347" data-name="Line 1347" x2="9.327" transform="translate(11.055 23.855)" fill="none" stroke="#0073ff" stroke-linecap="round" stroke-linejoin="round" stroke-width="3"/>
        </g>
        <g id="Group_2012" data-name="Group 2012" transform="translate(635.019 356.311)">
          <g id="Group_2011" data-name="Group 2011">
            <path id="Path_1363" data-name="Path 1363" d="M1860.336,1040.275a10.213,10.213,0,1,0,10.212,10.215A10.215,10.215,0,0,0,1860.336,1040.275Z" transform="translate(-1850.124 -1040.275)" fill="none" stroke="#0073ff" stroke-linecap="round" stroke-linejoin="round" stroke-width="3"/>
            <path id="Path_1364" data-name="Path 1364" d="M1859.628,1051.672h1.245c1.885,0,3.415-1.96,3.415-4.383" transform="translate(-1848.759 -1039.267)" fill="none" stroke="#0073ff" stroke-linecap="round" stroke-linejoin="round" stroke-width="3"/>
            <path id="Path_1365" data-name="Path 1365" d="M1859.656,1053.857h-1.411a3.383,3.383,0,0,1-3.385-3.384" transform="translate(-1849.444 -1038.81)" fill="none" stroke="#0073ff" stroke-linecap="round" stroke-linejoin="round" stroke-width="3"/>
            <line id="Line_1348" data-name="Line 1348" y1="22.584" transform="translate(10.212 4.575)" fill="none" stroke="#0073ff" stroke-linecap="round" stroke-linejoin="round" stroke-width="3"/>
          </g>
        </g>
        <g id="Group_2014" data-name="Group 2014" transform="translate(271.476 413.221)">
          <g id="Group_2013" data-name="Group 2013">
            <path id="Path_1366" data-name="Path 1366" d="M1544.514,1090.036a12.264,12.264,0,1,0,12.262,12.265A12.266,12.266,0,0,0,1544.514,1090.036Z" transform="translate(-1532.25 -1090.036)" fill="none" stroke="#0073ff" stroke-linecap="round" stroke-linejoin="round" stroke-width="3"/>
            <path id="Path_1367" data-name="Path 1367" d="M1543.548,1102.883h1.244c1.885,0,3.415-1.96,3.415-4.383" transform="translate(-1530.627 -1088.82)" fill="none" stroke="#0073ff" stroke-linecap="round" stroke-linejoin="round" stroke-width="3"/>
            <path id="Path_1368" data-name="Path 1368" d="M1543.576,1106.2h-1.411a3.385,3.385,0,0,1-3.386-3.385" transform="translate(-1531.312 -1088.2)" fill="none" stroke="#0073ff" stroke-linecap="round" stroke-linejoin="round" stroke-width="3"/>
            <line id="Line_1349" data-name="Line 1349" y1="22.584" transform="translate(12.264 8.816)" fill="none" stroke="#0073ff" stroke-linecap="round" stroke-linejoin="round" stroke-width="3"/>
          </g>
        </g>
        <g id="Group_2015" data-name="Group 2015" transform="translate(388.161 436.859)">
          <line id="Line_1350" data-name="Line 1350" y1="3.345" transform="translate(20.982 3.345)" fill="none" stroke="#0073ff" stroke-linecap="round" stroke-linejoin="round" stroke-width="3"/>
          <line id="Line_1351" data-name="Line 1351" y2="3.345" transform="translate(15.884 3.345)" fill="none" stroke="#0073ff" stroke-linecap="round" stroke-linejoin="round" stroke-width="3"/>
          <line id="Line_1352" data-name="Line 1352" y2="6.69" transform="translate(10.786)" fill="none" stroke="#0073ff" stroke-linecap="round" stroke-linejoin="round" stroke-width="3"/>
          <line id="Line_1353" data-name="Line 1353" y2="3.345" transform="translate(5.688 3.345)" fill="none" stroke="#0073ff" stroke-linecap="round" stroke-linejoin="round" stroke-width="3"/>
          <line id="Line_1354" data-name="Line 1354" y1="3.345" transform="translate(0 3.345)" fill="none" stroke="#0073ff" stroke-linecap="round" stroke-linejoin="round" stroke-width="3"/>
        </g>
        <g id="Group_2016" data-name="Group 2016" transform="translate(242.698 436.859)">
          <line id="Line_1355" data-name="Line 1355" y2="3.345" transform="translate(10.196 3.345)" fill="none" stroke="#0073ff" stroke-linecap="round" stroke-linejoin="round" stroke-width="3"/>
          <line id="Line_1356" data-name="Line 1356" y2="6.69" transform="translate(5.098)" fill="none" stroke="#0073ff" stroke-linecap="round" stroke-linejoin="round" stroke-width="3"/>
          <line id="Line_1357" data-name="Line 1357" y2="3.345" transform="translate(0 3.345)" fill="none" stroke="#0073ff" stroke-linecap="round" stroke-linejoin="round" stroke-width="3"/>
        </g>
        <g id="Group_2017" data-name="Group 2017" transform="translate(163.535 434.432)">
          <path id="Path_1369" data-name="Path 1369" d="M1437.868,1118.772h300.68c5.808,0,11.565-3.386,16.981-5.48h0c5.418-2.1,11.175-4.709,16.982-4.709h136.84" transform="translate(-1437.868 -1108.582)" fill="none" stroke="#0073ff" stroke-linecap="round" stroke-linejoin="round" stroke-width="3"/>
        </g>
        <g id="Group_2020" data-name="Group 2020" transform="translate(364.107 363.204)">
          <path id="Path_1370" data-name="Path 1370" d="M1660.707,1057.923a11.637,11.637,0,1,1-11.639-11.621A11.625,11.625,0,0,1,1660.707,1057.923Zm-1.113,12.541a6.834,6.834,0,0,1-6.833,6.829h-3.693m-9.674-1.125a5.278,5.278,0,0,0,5.284,5.275h4.391m-5.375-23.812a3.868,3.868,0,0,0,3.869,3.865m1.506,29.778v-35.166" transform="translate(-1609.77 -1046.302)" fill="none" stroke="#0073ff" stroke-linecap="round" stroke-linejoin="round" stroke-width="3"/>
          <g id="Group_2018" data-name="Group 2018" transform="translate(62.515 8.405)">
            <line id="Line_1358" data-name="Line 1358" x2="8.85" transform="translate(10.491 25.056)" fill="none" stroke="#0073ff" stroke-linecap="round" stroke-linejoin="round" stroke-width="3"/>
            <path id="Path_1371" data-name="Path 1371" d="M1698.536,1071.316h-30.629l14.823-17.665Z" transform="translate(-1667.906 -1053.651)" fill="none" stroke="#0073ff" stroke-linecap="round" stroke-linejoin="round" stroke-width="3"/>
            <rect id="Rectangle_790" data-name="Rectangle 790" width="25.7" height="17.826" transform="translate(1.972 17.665)" stroke-width="3" stroke="#0073ff" stroke-linecap="round" stroke-linejoin="round" fill="none"/>
          </g>
          <g id="Group_2019" data-name="Group 2019" transform="translate(96.328 34.538)">
            <line id="Line_1359" data-name="Line 1359" y2="4.588" transform="translate(13.986 4.589)" fill="none" stroke="#0073ff" stroke-linecap="round" stroke-linejoin="round" stroke-width="3"/>
            <line id="Line_1360" data-name="Line 1360" y2="9.177" transform="translate(6.993)" fill="none" stroke="#0073ff" stroke-linecap="round" stroke-linejoin="round" stroke-width="3"/>
            <line id="Line_1361" data-name="Line 1361" y1="4.588" transform="translate(0 4.589)" fill="none" stroke="#0073ff" stroke-linecap="round" stroke-linejoin="round" stroke-width="3"/>
          </g>
          <line id="Line_1362" data-name="Line 1362" x2="136.273" transform="translate(0 44.971)" fill="none" stroke="#0073ff" stroke-linecap="round" stroke-linejoin="round" stroke-width="3"/>
        </g>
        <path id="Path_1372" data-name="Path 1372" d="M1643.2,855.413c12.476-2.1,18.887,5.9,18.887,5.9a20.718,20.718,0,0,1,18.885-5.9" transform="translate(-1244.834 -710.573)" fill="none" stroke="#0073ff" stroke-linecap="round" stroke-linejoin="round" stroke-width="3"/>
        <path id="Path_1373" data-name="Path 1373" d="M1638.64,872.926A12.221,12.221,0,0,0,1627.5,876.4s-3.782-4.718-11.144-3.478" transform="translate(-1248.691 -708.036)" fill="none" stroke="#0073ff" stroke-linecap="round" stroke-linejoin="round" stroke-width="3"/>
        <path id="Path_1374" data-name="Path 1374" d="M1833.476,993.449v17.929m-17.38,53.1h-4.453m2.155-20.965-9.736,11.418h19.473Zm-20.377-2.364,10.833-9.829v5.206m19.281-11.224v-5.211m9.718,0v5.211m-9.718,15.849v-5.211m9.718,0v5.211m0,10.638V1057m-29.191,17.163h19.471v-19.232h-19.471Zm9.736-51.394h-20.212v24.882m50.565,26.513v-62.783H1813.8v33.135m-3.527,3.135h-36.934v26.513" transform="translate(-1226.137 -690.691)" fill="none" stroke="#0073ff" stroke-linecap="round" stroke-linejoin="round" stroke-width="3"/>
        <rect id="Rectangle_791" data-name="Rectangle 791" width="85.641" height="77.577" transform="translate(543.207 209.107)" stroke-width="3" stroke="#0073ff" stroke-linecap="round" stroke-linejoin="round" fill="none"/>
        <path id="Path_1375" data-name="Path 1375" d="M1778.891,976.611v6.424m8.791-6.424v6.424m8.792-6.424v6.424m8.792-6.424v6.424m8.791-6.424v6.424m8.792-6.424v6.424m8.792-6.424v6.424m8.791-6.424v6.424m8.793-6.424v6.424m-70.334-30.01v6.424m8.791-6.424v6.424m8.792-6.424v6.424m8.792-6.424v6.424m8.791-6.424v6.424m8.792-6.424v6.424m8.792-6.424v6.424m8.791-6.424v6.424m8.793-6.424v6.424m-70.334-22.893v6.424m8.791-6.424v6.424m8.792-6.424v6.424m8.792-6.424v6.424m8.791-6.424v6.424m8.792-6.424v6.424m8.792-6.424v6.424m8.791-6.424v6.424m8.793-6.424v6.424M1778.3,921.718v6.425m8.791-6.425v6.425m8.792-6.425v6.425m8.791-6.425v6.425m8.792-6.425v6.425m8.792-6.425v6.425m8.792-6.425v6.425m8.791-6.425v6.425m8.792-6.425v6.425m-76.989,38.726h83.643m-92.166-55.044,6.652-7.852h88.416l6.654,7.854" transform="translate(-1227.604 -703.546)" fill="none" stroke="#0073ff" stroke-linecap="round" stroke-linejoin="round" stroke-width="3"/>
        <g id="Group_2021" data-name="Group 2021" transform="translate(529.288 286.684)">
          <path id="Path_1376" data-name="Path 1376" d="M1757.675,979.394H1874.16a39.869,39.869,0,0,1,28.188,11.676h0a39.864,39.864,0,0,0,28.188,11.677h45.783" transform="translate(-1757.675 -979.394)" fill="none" stroke="#0073ff" stroke-linecap="round" stroke-linejoin="round" stroke-width="3"/>
        </g>
        <line id="Line_1363" data-name="Line 1363" x2="127.227" transform="translate(538.592 383.47)" fill="none" stroke="#0073ff" stroke-linecap="round" stroke-linejoin="round" stroke-width="3"/>
        <g id="Group_2022" data-name="Group 2022" transform="translate(304.805 418.677)">
          <path id="Path_1377" data-name="Path 1377" d="M1607.6,1109.8a4.4,4.4,0,1,0,4.4,4.4A4.394,4.394,0,0,0,1607.6,1109.8Z" transform="translate(-1555.384 -1092.652)" fill="none" stroke="#0073ff" stroke-linecap="round" stroke-linejoin="round" stroke-width="3"/>
          <path id="Path_1378" data-name="Path 1378" d="M1576.167,1109.8a4.4,4.4,0,1,0,4.4,4.4A4.394,4.394,0,0,0,1576.167,1109.8Z" transform="translate(-1559.9 -1092.652)" fill="none" stroke="#0073ff" stroke-linecap="round" stroke-linejoin="round" stroke-width="3"/>
          <line id="Line_1364" data-name="Line 1364" x2="15.32" transform="translate(0 9.162)" fill="none" stroke="#0073ff" stroke-linecap="round" stroke-linejoin="round" stroke-width="3"/>
          <path id="Path_1379" data-name="Path 1379" d="M1598.908,1104.068" transform="translate(-1556.002 -1093.476)" fill="none" stroke="#0073ff" stroke-linecap="round" stroke-linejoin="round" stroke-width="3"/>
          <path id="Path_1380" data-name="Path 1380" d="M1572.871,1103.969l6.135-9.162h18.985l5.372,9.162" transform="translate(-1559.742 -1094.807)" fill="none" stroke="#0073ff" stroke-linecap="round" stroke-linejoin="round" stroke-width="3"/>
          <path id="Path_1381" data-name="Path 1381" d="M1572.975,1113.558h-8.521v-10.74" transform="translate(-1560.952 -1093.656)" fill="none" stroke="#0073ff" stroke-linecap="round" stroke-linejoin="round" stroke-width="3"/>
          <line id="Line_1365" data-name="Line 1365" x1="26.104" transform="translate(21.479 19.88)" fill="none" stroke="#0073ff" stroke-linecap="round" stroke-linejoin="round" stroke-width="3"/>
          <path id="Path_1382" data-name="Path 1382" d="M1613.129,1113.536h7.157a1.092,1.092,0,0,0,1.092-1.092v-5.8a1.805,1.805,0,0,0-1.6-1.795l-20.242-2.033" transform="translate(-1555.912 -1093.656)" fill="none" stroke="#0073ff" stroke-linecap="round" stroke-linejoin="round" stroke-width="3"/>
          <path id="Path_1383" data-name="Path 1383" d="M1603.087,1102.827c-.329-.167-28.3,0-28.3,0" transform="translate(-1559.467 -1093.665)" fill="none" stroke="#0073ff" stroke-linecap="round" stroke-linejoin="round" stroke-width="3"/>
        </g>
        <path id="Path_1384" data-name="Path 1384" d="M1462.523,1126.756v-73.75h34.917v73.75" transform="translate(-1270.791 -682.135)" fill="none" stroke="#0073ff" stroke-linecap="round" stroke-linejoin="round" stroke-width="3"/>
        <rect id="Rectangle_792" data-name="Rectangle 792" width="63.032" height="35.647" transform="translate(411.538 219.647)" stroke-width="3" stroke="#0073ff" stroke-linecap="round" stroke-linejoin="round" fill="#fff"/>
        <g id="Group_2025" data-name="Group 2025" transform="translate(419.488 228.482)">
          <g id="Group_2023" data-name="Group 2023">
            <line id="Line_1366" data-name="Line 1366" y2="4.882" transform="translate(28.28)" fill="none" stroke="#0073ff" stroke-linecap="round" stroke-linejoin="round" stroke-width="3"/>
            <line id="Line_1367" data-name="Line 1367" y2="4.882" transform="translate(18.853)" fill="none" stroke="#0073ff" stroke-linecap="round" stroke-linejoin="round" stroke-width="3"/>
            <line id="Line_1368" data-name="Line 1368" y2="4.882" transform="translate(9.427)" fill="none" stroke="#0073ff" stroke-linecap="round" stroke-linejoin="round" stroke-width="3"/>
            <line id="Line_1369" data-name="Line 1369" y2="4.882" stroke-width="3" stroke="#0073ff" stroke-linecap="round" stroke-linejoin="round" fill="none"/>
            <line id="Line_1370" data-name="Line 1370" y2="4.882" transform="translate(37.707)" fill="none" stroke="#0073ff" stroke-linecap="round" stroke-linejoin="round" stroke-width="3"/>
            <line id="Line_1371" data-name="Line 1371" y2="4.882" transform="translate(47.133)" fill="none" stroke="#0073ff" stroke-linecap="round" stroke-linejoin="round" stroke-width="3"/>
          </g>
          <g id="Group_2024" data-name="Group 2024" transform="translate(0 13.096)">
            <line id="Line_1372" data-name="Line 1372" y2="4.882" transform="translate(28.28)" fill="none" stroke="#0073ff" stroke-linecap="round" stroke-linejoin="round" stroke-width="3"/>
            <line id="Line_1373" data-name="Line 1373" y2="4.882" transform="translate(18.853)" fill="none" stroke="#0073ff" stroke-linecap="round" stroke-linejoin="round" stroke-width="3"/>
            <line id="Line_1374" data-name="Line 1374" y2="4.882" transform="translate(9.427)" fill="none" stroke="#0073ff" stroke-linecap="round" stroke-linejoin="round" stroke-width="3"/>
            <line id="Line_1375" data-name="Line 1375" y2="4.882" stroke-width="3" stroke="#0073ff" stroke-linecap="round" stroke-linejoin="round" fill="none"/>
            <line id="Line_1376" data-name="Line 1376" y2="4.882" transform="translate(37.707)" fill="none" stroke="#0073ff" stroke-linecap="round" stroke-linejoin="round" stroke-width="3"/>
            <line id="Line_1377" data-name="Line 1377" y2="4.882" transform="translate(47.133)" fill="none" stroke="#0073ff" stroke-linecap="round" stroke-linejoin="round" stroke-width="3"/>
          </g>
        </g>
        <g id="Group_2026" data-name="Group 2026" transform="translate(199.6 379.955)">
          <line id="Line_1378" data-name="Line 1378" y2="4.473" stroke-width="3" stroke="#0073ff" stroke-linecap="round" stroke-linejoin="round" fill="none"/>
          <line id="Line_1379" data-name="Line 1379" y2="4.473" transform="translate(9.975)" fill="none" stroke="#0073ff" stroke-linecap="round" stroke-linejoin="round" stroke-width="3"/>
          <line id="Line_1380" data-name="Line 1380" y2="4.473" transform="translate(19.95)" fill="none" stroke="#0073ff" stroke-linecap="round" stroke-linejoin="round" stroke-width="3"/>
          <line id="Line_1381" data-name="Line 1381" y2="4.473" transform="translate(0 12.715)" fill="none" stroke="#0073ff" stroke-linecap="round" stroke-linejoin="round" stroke-width="3"/>
          <line id="Line_1382" data-name="Line 1382" y2="4.473" transform="translate(9.975 12.715)" fill="none" stroke="#0073ff" stroke-linecap="round" stroke-linejoin="round" stroke-width="3"/>
          <line id="Line_1383" data-name="Line 1383" y2="4.473" transform="translate(19.95 12.715)" fill="none" stroke="#0073ff" stroke-linecap="round" stroke-linejoin="round" stroke-width="3"/>
          <line id="Line_1384" data-name="Line 1384" y2="4.473" transform="translate(0 25.431)" fill="none" stroke="#0073ff" stroke-linecap="round" stroke-linejoin="round" stroke-width="3"/>
          <line id="Line_1385" data-name="Line 1385" y2="4.473" transform="translate(9.975 25.431)" fill="none" stroke="#0073ff" stroke-linecap="round" stroke-linejoin="round" stroke-width="3"/>
          <line id="Line_1386" data-name="Line 1386" y2="4.473" transform="translate(19.95 25.431)" fill="none" stroke="#0073ff" stroke-linecap="round" stroke-linejoin="round" stroke-width="3"/>
          <line id="Line_1387" data-name="Line 1387" y2="4.473" transform="translate(0 38.146)" fill="none" stroke="#0073ff" stroke-linecap="round" stroke-linejoin="round" stroke-width="3"/>
          <line id="Line_1388" data-name="Line 1388" y2="4.473" transform="translate(9.975 38.146)" fill="none" stroke="#0073ff" stroke-linecap="round" stroke-linejoin="round" stroke-width="3"/>
          <line id="Line_1389" data-name="Line 1389" y2="4.473" transform="translate(19.95 38.146)" fill="none" stroke="#0073ff" stroke-linecap="round" stroke-linejoin="round" stroke-width="3"/>
          <rect id="Rectangle_793" data-name="Rectangle 793" width="9.092" height="13.019" transform="translate(5.298 51.648)" stroke-width="3" stroke="#0073ff" stroke-linecap="round" stroke-linejoin="round" fill="none"/>
        </g>
        <line id="Line_1390" data-name="Line 1390" y2="4.767" transform="translate(557.69 367.284)" fill="none" stroke="#0073ff" stroke-linecap="round" stroke-linejoin="round" stroke-width="3"/>
        <line id="Line_1391" data-name="Line 1391" y2="4.767" transform="translate(567.699 367.284)" fill="none" stroke="#0073ff" stroke-linecap="round" stroke-linejoin="round" stroke-width="3"/>
        <g id="Group_2028" data-name="Group 2028" transform="translate(118.286 181.68)">
          <path id="Path_1385" data-name="Path 1385" d="M1457.312,966.126l-43.482-.2V919.315h43.482Z" transform="translate(-1396.072 -883.022)" fill="#fff" stroke="#0073ff" stroke-linecap="round" stroke-linejoin="round" stroke-width="3"/>
          <g id="Group_2027" data-name="Group 2027" transform="translate(26.551 48.279)">
            <line id="Line_1392" data-name="Line 1392" y1="6.444" transform="translate(25.896)" fill="#fff" stroke="#0073ff" stroke-linecap="round" stroke-linejoin="round" stroke-width="3"/>
            <line id="Line_1393" data-name="Line 1393" y1="6.444" transform="translate(12.948)" fill="#fff" stroke="#0073ff" stroke-linecap="round" stroke-linejoin="round" stroke-width="3"/>
            <line id="Line_1394" data-name="Line 1394" y1="6.444" stroke-width="3" stroke="#0073ff" stroke-linecap="round" stroke-linejoin="round" fill="#fff"/>
            <line id="Line_1395" data-name="Line 1395" y1="6.444" transform="translate(25.896 16.395)" fill="#fff" stroke="#0073ff" stroke-linecap="round" stroke-linejoin="round" stroke-width="3"/>
            <line id="Line_1396" data-name="Line 1396" y1="6.444" transform="translate(12.948 16.395)" fill="#fff" stroke="#0073ff" stroke-linecap="round" stroke-linejoin="round" stroke-width="3"/>
            <line id="Line_1397" data-name="Line 1397" y1="6.444" transform="translate(0 16.395)" fill="#fff" stroke="#0073ff" stroke-linecap="round" stroke-linejoin="round" stroke-width="3"/>
          </g>
          <path id="Path_1386" data-name="Path 1386" d="M1476.21,887.581v22.2M1463.9,927.009V920.56m12.029,0v6.449m-12.029,19.62v-6.449m12.029,0v6.449m0,13.171v6.45m5.693,20.542a16.16,16.16,0,0,1-11.191-4.5l-7.394-7.1a16.156,16.156,0,0,0-11.191-4.5h0V909.776h37.573v77.015Z" transform="translate(-1390.61 -887.581)" fill="#fff" stroke="#0073ff" stroke-linecap="round" stroke-linejoin="round" stroke-width="3"/>
          <line id="Line_1398" data-name="Line 1398" x2="17.758" transform="translate(0 83.104)" fill="#fff" stroke="#0073ff" stroke-linecap="round" stroke-linejoin="round" stroke-width="3"/>
        </g>
        <path id="Path_1387" data-name="Path 1387" d="M1749.933,951.924h-75.444a40.953,40.953,0,0,0-28.958,11.995l-1.743,1.743a40.957,40.957,0,0,1-29.031,11.995c-6.207-.011-11.6,0-11.6,0l-15.9-.226h-28.93a3.822,3.822,0,0,0-2.324.787l-3.868,2.955a10.552,10.552,0,0,1-12.816,0l-3.867-2.955a3.831,3.831,0,0,0-2.324-.787h-33.26" transform="translate(-1265.425 -696.657)" fill="none" stroke="#0073ff" stroke-linecap="round" stroke-linejoin="round" stroke-width="3"/>
        <path id="Path_1388" data-name="Path 1388" d="M1721.517,921.973h-69.726l5.243-9.507h59.241Z" transform="translate(-1243.6 -702.326)" fill="#fff" stroke="#0073ff" stroke-linecap="round" stroke-linejoin="round" stroke-width="3"/>
      </g>
      <g id="Group_2030" data-name="Group 2030" transform="translate(1560.243 971.983)">
        <path id="Path_1389" data-name="Path 1389" d="M1568.715,951.85a35.593,35.593,0,1,0,0,50.336A35.593,35.593,0,0,0,1568.715,951.85Zm-6.129,44.207a26.926,26.926,0,1,1,0-38.079A26.925,26.925,0,0,1,1562.586,996.057Z" transform="translate(-1507.954 -941.424)" fill="#fff" stroke="#0073ff" stroke-linecap="round" stroke-linejoin="round" stroke-width="3"/>
        <path id="Path_1390" data-name="Path 1390" d="M1553.178,958.338a20.412,20.412,0,0,0-31.352,11.553" transform="translate(-1505.96 -939.516)" fill="#fff" stroke="#0073ff" stroke-linecap="round" stroke-linejoin="round" stroke-width="3"/>
        <path id="Path_1391" data-name="Path 1391" d="M1563.452,1001.591l-4.349-4.349,5.645-5.645,4.349,4.349" transform="translate(-1500.605 -934.216)" fill="#fff" stroke="#0073ff" stroke-linecap="round" stroke-linejoin="round" stroke-width="3"/>
        <path id="Path_1392" data-name="Path 1392" d="M1567.987,995.907c1.084-.361,2.978-.562,3.894.277l34.473,30.966c3.087,2.826,2.89,7.942-.434,11.265h0c-3.322,3.323-8.439,3.52-11.265.433l-30.965-34.472c-.839-.917-.638-2.811-.278-3.894" transform="translate(-1500.031 -933.642)" fill="#fff" stroke="#0073ff" stroke-linecap="round" stroke-linejoin="round" stroke-width="3"/>
        <path id="Path_1393" data-name="Path 1393" d="M1563.593,1000.16a2.807,2.807,0,0,1,.671-1.077l2.323-2.323a2.806,2.806,0,0,1,1.078-.672" transform="translate(-1499.96 -933.571)" fill="#fff" stroke="#0073ff" stroke-linecap="round" stroke-linejoin="round" stroke-width="3"/>
      </g>
      <path id="Path_1394" data-name="Path 1394" d="M1398.88,1088.287v-44.581H1295.825v-36.182l85.609-134.714h63.318v130.513h27.783v40.383h-27.783v44.581Zm0-174.772-58.15,89.808h58.15Z" transform="translate(21.814 20.701)" fill="#0073ff"/>
      <g id="Group_2031" data-name="Group 2031" transform="translate(1469.837 1124.857)">
        <line id="Line_1399" data-name="Line 1399" y2="4.588" transform="translate(13.986 4.589)" fill="none" stroke="#0073ff" stroke-linecap="round" stroke-linejoin="round" stroke-width="3"/>
        <line id="Line_1400" data-name="Line 1400" y2="9.177" transform="translate(6.993)" fill="none" stroke="#0073ff" stroke-linecap="round" stroke-linejoin="round" stroke-width="3"/>
        <line id="Line_1401" data-name="Line 1401" y1="4.588" transform="translate(0 4.589)" fill="none" stroke="#0073ff" stroke-linecap="round" stroke-linejoin="round" stroke-width="3"/>
      </g>
      <path id="Path_1395" data-name="Path 1395" d="M1479.275,1083.3H1328.731a31.919,31.919,0,0,0-22.57,9.349h0a31.92,31.92,0,0,1-22.57,9.349h-17.33" transform="translate(17.566 50.941)" fill="none" stroke="#0073ff" stroke-linecap="round" stroke-linejoin="round" stroke-width="3"/>
      <rect id="Rectangle_794" data-name="Rectangle 794" width="86.993" height="43.072" transform="translate(1370.514 1090.962)" stroke-width="3" stroke="#0073ff" stroke-linecap="round" stroke-linejoin="round" fill="#fff"/>
      <path id="Path_1396" data-name="Path 1396" d="M1427.167,1032.949h-83.531l-6.291,14.305h96.114Z" transform="translate(27.779 43.707)" fill="#fff" stroke="#0073ff" stroke-linecap="round" stroke-linejoin="round" stroke-width="3"/>
      <path id="Path_1397" data-name="Path 1397" d="M1355.005,1054.327v6.335m14.49-6.335v6.335m14.491-6.335v6.335m14.49-6.335v6.335m14.491-6.335v6.335m-57.963,10.1v6.335m14.49-6.335v6.335m14.491-6.335v6.335m14.49-6.335v6.335m14.491-6.335v6.335" transform="translate(30.316 46.779)" fill="none" stroke="#0073ff" stroke-linecap="round" stroke-linejoin="round" stroke-width="3"/>
      <g id="Group_2034" data-name="Group 2034" transform="translate(1143.99 956.678)">
        <path id="Path_1398" data-name="Path 1398" d="M1336.649,1005.358h-88.095V968.1h88.095Zm-79.837-9.724h8.255m55.07,0h8.255m-71.58-8.9h8.255m55.07,0h8.255m-71.58-8.9h8.255m7.576,0h8.255m7.577,0h8.255m7.577,0h8.255m7.576,0h8.255m-19.852,27.53h-29.365V992.7h29.365Zm-34.659-18.627h37.442m-23.388,11v7.627m10.985-7.627v7.627m21.217-37.254h-51.831V954.426h51.831Zm-15-13.678h-20.822l3.829-11.466H1301.3ZM1256.811,968.1V928.042m-3.185,17.784h4.943c.907,0,1.642,1.284,1.642,2.867s-.735,2.867-1.642,2.867m-4.943-18.34h4.943c.907,0,1.642,1.283,1.642,2.867s-.735,2.866-1.642,2.866" transform="translate(-1128.968 -928.042)" fill="#fff" stroke="#0073ff" stroke-linecap="round" stroke-linejoin="round" stroke-width="3"/>
        <g id="Group_2032" data-name="Group 2032" transform="translate(0 77.317)">
          <path id="Path_1399" data-name="Path 1399" d="M1366.17,995.646H1252.837a62.391,62.391,0,0,0-44.118,18.274h0a62.392,62.392,0,0,1-44.117,18.275H1143.99" transform="translate(-1143.99 -995.646)" fill="none" stroke="#0073ff" stroke-linecap="round" stroke-linejoin="round" stroke-width="3"/>
        </g>
        <g id="Group_2033" data-name="Group 2033" transform="translate(134.567 77.316)">
          <path id="Path_1400" data-name="Path 1400" d="M1261.653,1024.467l11.7-28.821h37.321l11.7,28.821" transform="translate(-1261.653 -995.646)" fill="#fff" stroke="#0073ff" stroke-linecap="round" stroke-linejoin="round" stroke-width="3"/>
          <line id="Line_1402" data-name="Line 1402" x2="42.514" transform="translate(9.108 6.366)" fill="#fff" stroke="#0073ff" stroke-linecap="round" stroke-linejoin="round" stroke-width="3"/>
          <line id="Line_1403" data-name="Line 1403" x2="48.484" transform="translate(6.123 13.686)" fill="#fff" stroke="#0073ff" stroke-linecap="round" stroke-linejoin="round" stroke-width="3"/>
          <line id="Line_1404" data-name="Line 1404" x2="54.454" transform="translate(3.138 21.006)" fill="#fff" stroke="#0073ff" stroke-linecap="round" stroke-linejoin="round" stroke-width="3"/>
          <line id="Line_1405" data-name="Line 1405" x2="60.729" transform="translate(0 28.821)" fill="#fff" stroke="#0073ff" stroke-linecap="round" stroke-linejoin="round" stroke-width="3"/>
        </g>
      </g>
    </g>
  </g>
</svg>
