<svg xmlns="http://www.w3.org/2000/svg" width="923.494" height="447.622"><g data-name="Group 2035"><g data-name="Group 2000"><g data-name="Group 1999" fill="#0073ff"><path data-name="Path 1354" d="M364.458 274.188c0-55.565 27.459-111.13 89.161-111.13 61.381 0 89.164 55.565 89.164 111.13S515 385.641 453.619 385.641c-61.701 0-89.161-55.888-89.161-111.453zm131.482 0c0-39.736-11.63-70.426-42.32-70.426-31.013 0-42.641 30.69-42.641 70.426s11.629 70.748 42.641 70.748c30.685.001 42.32-31.012 42.32-70.748z"/><path data-name="Path 1355" d="M658.438 381.765v-44.581H555.383v-36.182l85.606-134.714h63.317v130.513h27.783v40.383h-27.783v44.581zm0-174.772l-58.15 89.808h58.15z"/></g></g><g data-name="Group 2029"><path data-name="Path 1356" d="M434.802 91.229a12.949 12.949 0 0112.911-12.91h5.7a12.357 12.357 0 012.775-6.255 11.552 11.552 0 00-6.768-2.2h-.089a10.644 10.644 0 00-9.252-7.766 15.89 15.89 0 00-29.625 7.766h-3.019a11.643 11.643 0 000 23.286h27.534a12.861 12.861 0 01-.167-1.921zm91.717 0a12.949 12.949 0 01-12.91 12.911h-65.9a12.91 12.91 0 110-25.821h5.7a12.3 12.3 0 0114.145-10.555 17.616 17.616 0 0132.453 2.187 10.064 10.064 0 019.606 8.368h4a12.948 12.948 0 0112.906 12.91z" fill="none" stroke="#0073ff" stroke-linecap="round" stroke-linejoin="round" stroke-width="3"/><path data-name="Path 1357" d="M218.127 119.437h0a8.762 8.762 0 00-7.615-6.392 13.078 13.078 0 00-24.382 6.392h-2.059a9.877 9.877 0 00-9.932 8.358 9.607 9.607 0 009.505 10.807h34.555a9.582 9.582 0 10-.073-19.164z" fill="none" stroke="#0073ff" stroke-linecap="round" stroke-linejoin="round" stroke-width="3"/><g data-name="Group 2009" transform="translate(705.382 1.501)"><circle data-name="Ellipse 183" cx="32.287" cy="32.287" r="32.287" transform="translate(27.535 27.535)" stroke-width="3" stroke="#0073ff" stroke-linecap="round" stroke-linejoin="round" fill="none"/><g data-name="Group 2001" stroke-width="3" stroke="#0073ff" stroke-linecap="round" stroke-linejoin="round" fill="none"><path data-name="Line 1331" d="M59.822 0v14.038"/><path data-name="Line 1332" d="M59.822 105.605v14.038"/></g><g data-name="Group 2002" fill="none" stroke="#0073ff" stroke-linecap="round" stroke-linejoin="round" stroke-width="3"><path data-name="Line 1333" d="M79.271 12.867l-1.929 4.656"/><path data-name="Line 1334" d="M40.372 106.776l1.929-4.656"/></g><g data-name="Group 2003" fill="none" stroke="#0073ff" stroke-linecap="round" stroke-linejoin="round" stroke-width="3"><path data-name="Line 1335" d="M105.605 59.822h14.038"/><path data-name="Line 1336" d="M14.038 59.822H0"/></g><g data-name="Group 2004" fill="none" stroke="#0073ff" stroke-linecap="round" stroke-linejoin="round" stroke-width="3"><path data-name="Line 1337" d="M92.195 27.447l9.926-9.926"/><path data-name="Line 1338" d="M27.447 92.195l-9.926 9.926"/></g><g data-name="Group 2005" fill="none" stroke="#0073ff" stroke-linecap="round" stroke-linejoin="round" stroke-width="3"><path data-name="Line 1339" d="M92.195 92.195l9.926 9.926"/><path data-name="Line 1340" d="M27.447 27.447l-9.926-9.926"/></g><g data-name="Group 2006" fill="none" stroke="#0073ff" stroke-linecap="round" stroke-linejoin="round" stroke-width="3"><path data-name="Line 1341" d="M106.776 79.271l-4.656-1.929"/><path data-name="Line 1342" d="M12.867 40.372l4.656 1.929"/></g><g data-name="Group 2007" fill="none" stroke="#0073ff" stroke-linecap="round" stroke-linejoin="round" stroke-width="3"><path data-name="Line 1343" d="M102.12 42.301l4.656-1.929"/><path data-name="Line 1344" d="M12.867 79.271l4.656-1.929"/></g><g data-name="Group 2008" fill="none" stroke="#0073ff" stroke-linecap="round" stroke-linejoin="round" stroke-width="3"><path data-name="Line 1345" d="M77.342 102.12l1.929 4.656"/><path data-name="Line 1346" d="M40.372 12.867l1.929 4.656"/></g><circle data-name="Ellipse 184" cx="4.667" cy="4.667" r="4.667" transform="translate(40.151 53.873)" stroke-width="3" stroke="#0073ff" stroke-linecap="round" stroke-linejoin="round" fill="none"/><circle data-name="Ellipse 185" cx="4.667" cy="4.667" r="4.667" transform="translate(58.569 45.203)" stroke-width="3" stroke="#0073ff" stroke-linecap="round" stroke-linejoin="round" fill="none"/><path data-name="Path 1358" d="M55.048 44.738a6.855 6.855 0 015.678-5.78" fill="none" stroke="#0073ff" stroke-linecap="round" stroke-linejoin="round" stroke-width="3"/><path data-name="Path 1359" d="M47.266 49.422a6.858 6.858 0 00-8.042.988" fill="none" stroke="#0073ff" stroke-linecap="round" stroke-linejoin="round" stroke-width="3"/><circle data-name="Ellipse 186" cx="1.723" cy="1.723" r="1.723" transform="translate(61.514 49.854)" fill="#0073ff"/><circle data-name="Ellipse 187" cx="1.723" cy="1.723" r="1.723" transform="translate(43.096 58.541)" fill="#0073ff"/><path data-name="Path 1360" d="M58.727 77.728a14.963 14.963 0 0111.629-5.038" fill="none" stroke="#0073ff" stroke-linecap="round" stroke-linejoin="round" stroke-width="3"/></g><path data-name="Path 1361" d="M711.678 435.762v-4.369m-6.974-4.369v8.738m-9.545-4.369v4.369m-6.974 0v-8.738m105.426 8.738v-4.369m-6.657 0v4.369m-6.657-8.738v8.738m-6.657 0v-4.369m-7.428 4.369v-4.369m-86.144 4.369v-4.369" fill="none" stroke="#0073ff" stroke-linecap="round" stroke-linejoin="round" stroke-width="3"/><g data-name="Group 2010" fill="none" stroke="#0073ff" stroke-linecap="round" stroke-linejoin="round" stroke-width="3"><path data-name="Path 1362" d="M752.684 418.96h-32.277l15.62-16.818z"/><path data-name="Rectangle 789" d="M722.485 418.96h27.083v16.971h-27.083z"/><path data-name="Line 1347" d="M731.462 425.997h9.327"/></g><g data-name="Group 2012"><g data-name="Group 2011" fill="none" stroke="#0073ff" stroke-linecap="round" stroke-linejoin="round" stroke-width="3"><path data-name="Path 1363" d="M819.295 357.812a10.213 10.213 0 1010.212 10.215 10.215 10.215 0 00-10.212-10.215z"/><path data-name="Path 1364" d="M819.952 370.217h1.245c1.885 0 3.415-1.96 3.415-4.383"/><path data-name="Path 1365" d="M819.295 372.859h-1.411a3.383 3.383 0 01-3.385-3.384"/><path data-name="Line 1348" d="M819.295 384.971v-22.584"/></g></g><g data-name="Group 2014"><g data-name="Group 2013" fill="none" stroke="#0073ff" stroke-linecap="round" stroke-linejoin="round" stroke-width="3"><path data-name="Path 1366" d="M457.804 414.722a12.264 12.264 0 1012.262 12.265 12.266 12.266 0 00-12.262-12.265z"/><path data-name="Path 1367" d="M458.461 428.785h1.244c1.885 0 3.415-1.96 3.415-4.383"/><path data-name="Path 1368" d="M457.804 432.722h-1.411a3.385 3.385 0 01-3.386-3.385"/><path data-name="Line 1349" d="M457.804 446.122v-22.584"/></g></g><g data-name="Group 2015" fill="none" stroke="#0073ff" stroke-linecap="round" stroke-linejoin="round" stroke-width="3"><path data-name="Line 1350" d="M583.207 445.05v-3.345"/><path data-name="Line 1351" d="M578.109 441.705v3.345"/><path data-name="Line 1352" d="M573.011 438.36v6.69"/><path data-name="Line 1353" d="M567.913 441.705v3.345"/><path data-name="Line 1354" d="M562.225 445.05v-3.345"/></g><g data-name="Group 2016" fill="none" stroke="#0073ff" stroke-linecap="round" stroke-linejoin="round" stroke-width="3"><path data-name="Line 1355" d="M426.958 441.705v3.345"/><path data-name="Line 1356" d="M421.86 438.36v6.69"/><path data-name="Line 1357" d="M416.762 441.705v3.345"/></g><g data-name="Group 2017"><path data-name="Path 1369" d="M337.599 446.123h300.68c5.808 0 11.565-3.386 16.981-5.48h0c5.418-2.1 11.175-4.709 16.982-4.709h136.84" fill="none" stroke="#0073ff" stroke-linecap="round" stroke-linejoin="round" stroke-width="3"/></g><g data-name="Group 2020" fill="none" stroke="#0073ff" stroke-linecap="round" stroke-linejoin="round" stroke-width="3"><path data-name="Path 1370" d="M589.108 376.326a11.637 11.637 0 11-11.639-11.621 11.625 11.625 0 0111.639 11.621zm-1.113 12.541a6.834 6.834 0 01-6.833 6.829h-3.693m-9.674-1.125a5.278 5.278 0 005.284 5.275h4.391m-5.375-23.812a3.868 3.868 0 003.869 3.865m1.506 29.778v-35.166"/><g data-name="Group 2018"><path data-name="Line 1358" d="M611.177 398.166h8.85"/><path data-name="Path 1371" d="M631.316 390.775h-30.629l14.823-17.665z"/><path data-name="Rectangle 790" d="M602.658 390.775h25.7v17.826h-25.7z"/></g><g data-name="Group 2019"><path data-name="Line 1359" d="M648.485 403.832v4.588"/><path data-name="Line 1360" d="M641.492 399.243v9.177"/><path data-name="Line 1361" d="M634.499 408.42v-4.588"/></g><path data-name="Line 1362" d="M538.171 409.676h136.273"/></g><path data-name="Path 1372" d="M572.43 146.341c12.476-2.1 18.887 5.9 18.887 5.9a20.718 20.718 0 0118.885-5.9" fill="none" stroke="#0073ff" stroke-linecap="round" stroke-linejoin="round" stroke-width="3"/><path data-name="Path 1373" d="M564.013 166.391a12.221 12.221 0 00-11.14 3.474s-3.782-4.718-11.144-3.478" fill="none" stroke="#0073ff" stroke-linecap="round" stroke-linejoin="round" stroke-width="3"/><path data-name="Path 1374" d="M781.403 304.259v17.929m-17.38 53.1h-4.453m2.155-20.965l-9.736 11.418h19.473zm-20.377-2.364l10.833-9.829v5.206m19.281-11.224v-5.211m9.718 0v5.211m-9.718 15.849v-5.211m9.718 0v5.211m0 10.638v5.211m-29.191 17.163h19.471v-19.232h-19.471zm9.736-51.394h-20.212v24.882m50.565 26.513v-62.783h-30.351v33.135m-3.527 3.135h-36.934v26.513" fill="none" stroke="#0073ff" stroke-linecap="round" stroke-linejoin="round" stroke-width="3"/><path data-name="Rectangle 791" stroke-width="3" stroke="#0073ff" stroke-linecap="round" stroke-linejoin="round" fill="none" d="M717.271 210.608h85.641v77.577h-85.641z"/><path data-name="Path 1375" d="M725.351 274.566v6.424m8.791-6.424v6.424m8.792-6.424v6.424m8.792-6.424v6.424m8.791-6.424v6.424m8.792-6.424v6.424m8.792-6.424v6.424m8.791-6.424v6.424m8.793-6.424v6.424m-70.334-30.01v6.424m8.791-6.424v6.424m8.792-6.424v6.424m8.792-6.424v6.424m8.791-6.424v6.424m8.792-6.424v6.424m8.792-6.424v6.424m8.791-6.424v6.424m8.793-6.424v6.424m-70.334-22.893v6.424m8.791-6.424v6.424m8.792-6.424v6.424m8.792-6.424v6.424m8.791-6.424v6.424m8.792-6.424v6.424m8.792-6.424v6.424m8.791-6.424v6.424m8.793-6.424v6.424m-70.925-21.262v6.425m8.791-6.425v6.425m8.792-6.425v6.425m8.791-6.425v6.425m8.792-6.425v6.425m8.792-6.425v6.425m8.792-6.425v6.425m8.791-6.425v6.425m8.792-6.425v6.425m-76.989 38.726h83.643m-92.166-55.044l6.652-7.852h88.416l6.654 7.854" fill="none" stroke="#0073ff" stroke-linecap="round" stroke-linejoin="round" stroke-width="3"/><g data-name="Group 2021"><path data-name="Path 1376" d="M703.352 288.185h116.485a39.869 39.869 0 0128.188 11.676h0a39.864 39.864 0 0028.188 11.677h45.783" fill="none" stroke="#0073ff" stroke-linecap="round" stroke-linejoin="round" stroke-width="3"/></g><path data-name="Line 1363" fill="none" stroke="#0073ff" stroke-linecap="round" stroke-linejoin="round" stroke-width="3" d="M712.656 384.971h127.227"/><g data-name="Group 2022" fill="none" stroke="#0073ff" stroke-linecap="round" stroke-linejoin="round" stroke-width="3"><path data-name="Path 1377" d="M531.085 437.326a4.4 4.4 0 104.4 4.4 4.394 4.394 0 00-4.4-4.4z"/><path data-name="Path 1378" d="M495.136 437.326a4.4 4.4 0 104.4 4.4 4.394 4.394 0 00-4.4-4.4z"/><path data-name="Line 1364" d="M478.869 429.34h15.32"/><path data-name="Path 1380" d="M491.998 429.34l6.135-9.162h18.985l5.372 9.162"/><path data-name="Path 1381" d="M490.892 440.08h-8.521v-10.74"/><path data-name="Line 1365" d="M526.452 440.058h-26.104"/><path data-name="Path 1382" d="M536.086 440.058h7.157a1.092 1.092 0 001.092-1.092v-5.8a1.805 1.805 0 00-1.6-1.795l-20.242-2.033"/><path data-name="Path 1383" d="M522.489 429.34c-.329-.167-28.3 0-28.3 0"/></g><path data-name="Path 1384" d="M365.796 446.122v-73.75h34.917v73.75" fill="none" stroke="#0073ff" stroke-linecap="round" stroke-linejoin="round" stroke-width="3"/><path data-name="Rectangle 792" stroke-width="3" stroke="#0073ff" stroke-linecap="round" stroke-linejoin="round" fill="#fff" d="M585.602 221.148h63.032v35.647h-63.032z"/><g data-name="Group 2025" fill="none" stroke="#0073ff" stroke-linecap="round" stroke-linejoin="round" stroke-width="3"><g data-name="Group 2023"><path data-name="Line 1366" d="M621.832 229.983v4.882"/><path data-name="Line 1367" d="M612.405 229.983v4.882"/><path data-name="Line 1368" d="M602.979 229.983v4.882"/><path data-name="Line 1369" d="M593.552 229.983v4.882"/><path data-name="Line 1370" d="M631.259 229.983v4.882"/><path data-name="Line 1371" d="M640.685 229.983v4.882"/></g><g data-name="Group 2024"><path data-name="Line 1372" d="M621.832 243.079v4.882"/><path data-name="Line 1373" d="M612.405 243.079v4.882"/><path data-name="Line 1374" d="M602.979 243.079v4.882"/><path data-name="Line 1375" d="M593.552 243.079v4.882"/><path data-name="Line 1376" d="M631.259 243.079v4.882"/><path data-name="Line 1377" d="M640.685 243.079v4.882"/></g></g><g data-name="Group 2026" stroke-width="3" stroke="#0073ff" stroke-linecap="round" stroke-linejoin="round" fill="none"><path data-name="Line 1378" d="M373.664 381.456v4.473"/><path data-name="Line 1379" d="M383.639 381.456v4.473"/><path data-name="Line 1380" d="M393.614 381.456v4.473"/><path data-name="Line 1381" d="M373.664 394.171v4.473"/><path data-name="Line 1382" d="M383.639 394.171v4.473"/><path data-name="Line 1383" d="M393.614 394.171v4.473"/><path data-name="Line 1384" d="M373.664 406.887v4.473"/><path data-name="Line 1385" d="M383.639 406.887v4.473"/><path data-name="Line 1386" d="M393.614 406.887v4.473"/><path data-name="Line 1387" d="M373.664 419.602v4.473"/><path data-name="Line 1388" d="M383.639 419.602v4.473"/><path data-name="Line 1389" d="M393.614 419.602v4.473"/><path data-name="Rectangle 793" d="M378.962 433.104h9.092v13.019h-9.092z"/></g><path data-name="Line 1390" fill="none" stroke="#0073ff" stroke-linecap="round" stroke-linejoin="round" stroke-width="3" d="M731.754 368.785v4.767"/><path data-name="Line 1391" fill="none" stroke="#0073ff" stroke-linecap="round" stroke-linejoin="round" stroke-width="3" d="M741.763 368.785v4.767"/><g data-name="Group 2028" fill="#fff" stroke="#0073ff" stroke-linecap="round" stroke-linejoin="round" stroke-width="3"><path data-name="Path 1385" d="M353.59 266.285l-43.482-.2v-46.611h43.482z"/><g data-name="Group 2027"><path data-name="Line 1392" d="M344.797 237.904v-6.444"/><path data-name="Line 1393" d="M331.849 237.904v-6.444"/><path data-name="Line 1394" d="M318.901 237.904v-6.444"/><path data-name="Line 1395" d="M344.797 254.299v-6.444"/><path data-name="Line 1396" d="M331.849 254.299v-6.444"/><path data-name="Line 1397" d="M318.901 254.299v-6.444"/></g><path data-name="Path 1386" d="M377.95 183.181v22.2m-12.31 17.228v-6.449m12.029 0v6.449m-12.029 19.62v-6.449m12.029 0v6.449m0 13.171v6.45m5.693 20.542a16.16 16.16 0 01-11.191-4.5l-7.394-7.1a16.156 16.156 0 00-11.191-4.5h0v-60.916h37.573v77.015z"/><path data-name="Line 1398" d="M292.35 266.285h17.758"/></g><path data-name="Path 1387" d="M658.572 256.768h-75.444a40.953 40.953 0 00-28.958 11.995l-1.743 1.743a40.957 40.957 0 01-29.031 11.995c-6.207-.011-11.6 0-11.6 0l-15.9-.226h-28.93a3.822 3.822 0 00-2.324.787l-3.868 2.955a10.552 10.552 0 01-12.816 0l-3.867-2.955a3.831 3.831 0 00-2.324-.787h-33.26" fill="none" stroke="#0073ff" stroke-linecap="round" stroke-linejoin="round" stroke-width="3"/><path data-name="Path 1388" d="M651.981 221.148h-69.726l5.243-9.507h59.241z" fill="#fff" stroke="#0073ff" stroke-linecap="round" stroke-linejoin="round" stroke-width="3"/></g><g data-name="Group 2030" fill="#fff" stroke="#0073ff" stroke-linecap="round" stroke-linejoin="round" stroke-width="3"><path data-name="Path 1389" d="M478.514 255.186a35.593 35.593 0 100 50.336 35.593 35.593 0 000-50.336zm-6.129 44.207a26.926 26.926 0 110-38.079 26.925 26.925 0 010 38.079z"/><path data-name="Path 1390" d="M464.971 263.582a20.412 20.412 0 00-31.352 11.553"/><path data-name="Path 1391" d="M480.6 312.135l-4.349-4.349 5.645-5.645 4.349 4.349"/><path data-name="Path 1392" d="M485.709 307.025c1.084-.361 2.978-.562 3.894.277l34.473 30.966c3.087 2.826 2.89 7.942-.434 11.265h0c-3.322 3.323-8.439 3.52-11.265.433l-30.965-34.472c-.839-.917-.638-2.811-.278-3.894"/><path data-name="Path 1393" d="M481.386 311.349a2.807 2.807 0 01.671-1.077l2.323-2.323a2.806 2.806 0 011.078-.672"/></g><path data-name="Path 1394" d="M278.204 381.765v-44.581H175.149v-36.182l85.609-134.714h63.318v130.513h27.783v40.383h-27.783v44.581zm0-174.772l-58.15 89.808h58.15z" fill="#0073ff"/><g data-name="Group 2031" fill="none" stroke="#0073ff" stroke-linecap="round" stroke-linejoin="round" stroke-width="3"><path data-name="Line 1399" d="M341.333 402.223v4.588"/><path data-name="Line 1400" d="M334.34 397.634v9.177"/><path data-name="Line 1401" d="M327.347 406.811v-4.588"/></g><path data-name="Path 1395" d="M354.351 407.018H203.807a31.919 31.919 0 00-22.57 9.349h0a31.92 31.92 0 01-22.57 9.349h-17.33" fill="none" stroke="#0073ff" stroke-linecap="round" stroke-linejoin="round" stroke-width="3"/><path data-name="Rectangle 794" stroke-width="3" stroke="#0073ff" stroke-linecap="round" stroke-linejoin="round" fill="#fff" d="M228.024 363.739h86.993v43.072h-86.993z"/><path data-name="Path 1396" d="M312.456 349.433h-83.531l-6.291 14.305h96.114z" fill="#fff" stroke="#0073ff" stroke-linecap="round" stroke-linejoin="round" stroke-width="3"/><path data-name="Path 1397" d="M242.831 373.883v6.335m14.49-6.335v6.335m14.491-6.335v6.335m14.49-6.335v6.335m14.491-6.335v6.335m-57.963 10.1v6.335m14.49-6.335v6.335m14.491-6.335v6.335m14.49-6.335v6.335m14.491-6.335v6.335" fill="none" stroke="#0073ff" stroke-linecap="round" stroke-linejoin="round" stroke-width="3"/><g data-name="Group 2034"><path data-name="Path 1398" d="M209.181 306.771h-88.095v-37.258h88.095zm-79.837-9.724h8.255m55.07 0h8.255m-71.58-8.9h8.255m55.07 0h8.255m-71.58-8.9h8.255m7.576 0h8.255m7.577 0h8.255m7.577 0h8.255m7.576 0h8.255m-19.852 27.53h-29.365v-12.664h29.365zm-34.659-18.627h37.442m-23.388 11v7.627m10.985-7.627v7.627m21.217-37.254h-51.831v-13.684h51.831zm-15-13.678h-20.822l3.829-11.466h13.155zm-48.327 13.668v-40.058m-3.185 17.784h4.943c.907 0 1.642 1.284 1.642 2.867s-.735 2.867-1.642 2.867m-4.943-18.34h4.943c.907 0 1.642 1.283 1.642 2.867s-.735 2.866-1.642 2.866" fill="#fff" stroke="#0073ff" stroke-linecap="round" stroke-linejoin="round" stroke-width="3"/><g data-name="Group 2032"><path data-name="Path 1399" d="M223.68 306.772H110.347a62.391 62.391 0 00-44.118 18.274h0a62.392 62.392 0 01-44.117 18.275H1.5" fill="none" stroke="#0073ff" stroke-linecap="round" stroke-linejoin="round" stroke-width="3"/></g><g data-name="Group 2033" fill="#fff" stroke="#0073ff" stroke-linecap="round" stroke-linejoin="round" stroke-width="3"><path data-name="Path 1400" d="M136.067 335.592l11.7-28.821h37.321l11.7 28.821"/><path data-name="Line 1402" d="M145.175 313.137h42.514"/><path data-name="Line 1403" d="M142.19 320.457h48.484"/><path data-name="Line 1404" d="M139.205 327.777h54.454"/><path data-name="Line 1405" d="M136.067 335.592h60.729"/></g></g></g></svg>