<svg xmlns="http://www.w3.org/2000/svg" width="743.564" height="398.834"><g data-name="Group 1997"><g data-name="Group 1952"><g data-name="Group 1951"><path data-name="Path 1297" d="M268.565 240.616c0-50.547 24.979-101.094 81.11-101.094 55.836 0 81.109 50.547 81.109 101.094s-25.273 101.388-81.109 101.388c-56.131.001-81.11-50.841-81.11-101.388zm119.608 0c0-36.147-10.58-64.065-38.5-64.065-28.213 0-38.793 27.918-38.793 64.065s10.58 64.359 38.793 64.359c27.919 0 38.5-28.212 38.5-64.359z" fill="#0073ff"/></g></g><g data-name="Group 1993"><path data-name="Path 1298" d="M234.936 100.925a11.779 11.779 0 0 1 11.745-11.744h5.182a11.245 11.245 0 0 1 2.524-5.69 10.5 10.5 0 0 0-6.158-2h-.08a9.684 9.684 0 0 0-8.417-7.064 14.455 14.455 0 0 0-26.949 7.064h-2.747a10.592 10.592 0 0 0 0 21.183h25.046a11.74 11.74 0 0 1-.146-1.749zm83.432 0a11.778 11.778 0 0 1-11.744 11.744H246.68a11.744 11.744 0 1 1 0-23.488h5.182a11.185 11.185 0 0 1 12.867-9.6 16.025 16.025 0 0 1 29.521 1.989 9.157 9.157 0 0 1 8.739 7.613h3.634a11.778 11.778 0 0 1 11.746 11.742z" fill="none" stroke="#0073ff" stroke-linecap="round" stroke-linejoin="round" stroke-width="3"/><path data-name="Path 1299" d="M594.168 93.833h0a7.969 7.969 0 0 0-6.927-5.814 11.9 11.9 0 0 0-22.179 5.814h-1.873a8.984 8.984 0 0 0-9.034 7.6 8.738 8.738 0 0 0 8.646 9.83h31.433a8.717 8.717 0 1 0-.067-17.433z" fill="none" stroke="#0073ff" stroke-linecap="round" stroke-linejoin="round" stroke-width="3"/><g data-name="Group 1964" transform="translate(387.304 1.5)"><circle data-name="Ellipse 177" cx="29.371" cy="29.371" r="29.371" transform="translate(25.048 25.048)" stroke-width="3" stroke="#0073ff" stroke-linecap="round" stroke-linejoin="round" fill="none"/><g data-name="Group 1953" stroke-width="3" stroke="#0073ff" stroke-linecap="round" stroke-linejoin="round" fill="none"><path data-name="Line 1240" d="M54.419 0v12.77"/><path data-name="Line 1241" d="M54.419 96.067v12.77"/></g><g data-name="Group 1954" fill="none" stroke="#0073ff" stroke-linecap="round" stroke-linejoin="round" stroke-width="3"><path data-name="Line 1242" d="M72.111 11.705l-1.754 4.235"/><path data-name="Line 1243" d="M36.726 97.132l1.754-4.235"/></g><g data-name="Group 1955" fill="none" stroke="#0073ff" stroke-linecap="round" stroke-linejoin="round" stroke-width="3"><path data-name="Line 1244" d="M96.067 54.419h12.77"/><path data-name="Line 1245" d="M12.77 54.419H0"/></g><g data-name="Group 1956" fill="none" stroke="#0073ff" stroke-linecap="round" stroke-linejoin="round" stroke-width="3"><path data-name="Line 1246" d="M83.869 24.969l9.03-9.03"/><path data-name="Line 1247" d="M24.969 83.869l-9.03 9.03"/></g><g data-name="Group 1957" fill="none" stroke="#0073ff" stroke-linecap="round" stroke-linejoin="round" stroke-width="3"><path data-name="Line 1248" d="M83.869 83.869l9.03 9.03"/><path data-name="Line 1249" d="M24.969 24.969l-9.03-9.03"/></g><g data-name="Group 1958" fill="none" stroke="#0073ff" stroke-linecap="round" stroke-linejoin="round" stroke-width="3"><path data-name="Line 1250" d="M97.132 72.111l-4.235-1.754"/><path data-name="Line 1251" d="M11.705 36.726l4.235 1.754"/></g><g data-name="Group 1959" fill="none" stroke="#0073ff" stroke-linecap="round" stroke-linejoin="round" stroke-width="3"><path data-name="Line 1252" d="M92.897 38.48l4.235-1.754"/><path data-name="Line 1253" d="M11.705 72.111l4.235-1.754"/></g><g data-name="Group 1960" fill="none" stroke="#0073ff" stroke-linecap="round" stroke-linejoin="round" stroke-width="3"><path data-name="Line 1254" d="M70.357 92.897l1.754 4.235"/><path data-name="Line 1255" d="M36.726 11.705l1.754 4.235"/></g><g data-name="Group 1963" transform="translate(38.344 37.717)"><g data-name="Group 1961" transform="translate(21.225)" stroke-width="3" stroke="#0073ff" stroke-linecap="round" stroke-linejoin="round" fill="none"><circle data-name="Ellipse 178" cx="4.246" cy="4.246" r="4.246" transform="translate(0 6.229)"/><path data-name="Path 1300" d="M2.537 1.218a5.4 5.4 0 0 1 8.387 2.069"/></g><g data-name="Group 1962" stroke-width="3" stroke="#0073ff" stroke-linecap="round" stroke-linejoin="round" fill="none"><circle data-name="Ellipse 179" cx="4.246" cy="4.246" r="4.246" transform="translate(2.432 6.229)"/><path data-name="Path 1301" d="M8.387 1.218A5.4 5.4 0 0 0 0 3.287"/></g><circle data-name="Ellipse 180" cx="1.331" cy="1.331" r="1.331" transform="translate(23.888 9.899)" fill="#0073ff"/><circle data-name="Ellipse 181" cx="1.331" cy="1.331" r="1.331" transform="translate(5.346 9.899)" fill="#0073ff"/></g><path data-name="Path 1302" d="M60.519 68.5c.777 3.083.17 6.3-5.54 6.3s-6.317-3.214-5.54-6.3a5.836 5.836 0 0 1 11.08 0z" fill="none" stroke="#0073ff" stroke-linecap="round" stroke-linejoin="round" stroke-width="3"/></g><path data-name="Path 1303" d="M579.821 387.398v-3.972m-6.344-3.974v7.947m-8.684-3.974v3.974m-6.344 0v-7.947m96.234 7.947v-3.973m-6.056 0v3.974m-6.056-7.947v7.947m-6.056 0v-3.974m-6.754 3.972v-3.972m-78.694 3.974v-3.974" fill="none" stroke="#0073ff" stroke-linecap="round" stroke-linejoin="round" stroke-width="3"/><g data-name="Group 1965" fill="none" stroke="#0073ff" stroke-linecap="round" stroke-linejoin="round" stroke-width="3"><path data-name="Path 1304" d="M620.345 372.115h-29.362l14.21-15.3z"/><path data-name="Rectangle 783" d="M592.873 372.115h24.636v15.438h-24.636z"/><path data-name="Line 1256" d="M601.04 378.516h8.484"/></g><g data-name="Group 1967"><g data-name="Group 1966" fill="none" stroke="#0073ff" stroke-linecap="round" stroke-linejoin="round" stroke-width="3"><path data-name="Path 1305" d="M675.546 316.491a9.29 9.29 0 1 0 9.289 9.292 9.292 9.292 0 0 0-9.289-9.292z"/><path data-name="Path 1306" d="M676.144 327.775h1.132c1.714 0 3.106-1.783 3.106-3.987"/><path data-name="Path 1307" d="M675.546 330.179h-1.284a3.079 3.079 0 0 1-3.08-3.078"/><path data-name="Line 1257" d="M675.546 341.196v-20.544"/></g></g><g data-name="Group 1969"><g data-name="Group 1968" fill="none" stroke="#0073ff" stroke-linecap="round" stroke-linejoin="round" stroke-width="3"><path data-name="Path 1308" d="M264.057 372.119a9.291 9.291 0 1 0 9.29 9.292 9.292 9.292 0 0 0-9.29-9.292z"/><path data-name="Path 1309" d="M264.655 383.404h1.132c1.714 0 3.106-1.784 3.106-3.988"/><path data-name="Path 1310" d="M264.057 385.808h-1.284a3.079 3.079 0 0 1-3.079-3.079"/><path data-name="Line 1258" d="M264.057 396.825v-20.544"/></g></g><g data-name="Group 1970" fill="none" stroke="#0073ff" stroke-linecap="round" stroke-linejoin="round" stroke-width="3"><path data-name="Line 1259" d="M497.212 351.136v-3.043"/><path data-name="Line 1260" d="M492.574 348.093v3.043"/><path data-name="Line 1261" d="M487.937 345.05v6.086"/><path data-name="Line 1262" d="M483.299 348.093v3.043"/><path data-name="Line 1263" d="M478.125 351.136v-3.043"/></g><g data-name="Group 1971" fill="none" stroke="#0073ff" stroke-linecap="round" stroke-linejoin="round" stroke-width="3"><path data-name="Line 1264" d="M334.275 392.806v3.043"/><path data-name="Line 1265" d="M329.637 389.763v6.086"/><path data-name="Line 1266" d="M325 392.806v3.043"/></g><g data-name="Group 1972"><path data-name="Path 1311" d="M228.536 396.825H513.05c5.283 0 10.52-3.08 15.448-4.985h0c4.927-1.905 10.164-4.285 15.447-4.285h140.286" fill="none" stroke="#0073ff" stroke-linecap="round" stroke-linejoin="round" stroke-width="3"/></g><g data-name="Group 1973" fill="none" stroke="#0073ff" stroke-linecap="round" stroke-linejoin="round" stroke-width="3"><path data-name="Line 1267" d="M694.165 337.022v4.174"/><path data-name="Line 1268" d="M700.526 332.848v8.348"/><path data-name="Line 1269" d="M706.888 341.196v-4.174"/></g><g data-name="Group 1977" fill="none" stroke="#0073ff" stroke-linecap="round" stroke-linejoin="round" stroke-width="3"><path data-name="Path 1312" d="M104.181 338.714a7.9 7.9 0 1 1-7.9-7.887 7.889 7.889 0 0 1 7.9 7.887zm-.973 8.968c0 1.938-.877 3.876-4.5 3.876h-2.43m-5.952 0a3.247 3.247 0 0 0 3.25 3.245h2.7m-3.335-16.437a2.147 2.147 0 0 0 2.148 2.145m1.186 18.658v-22.9"/><g data-name="Group 1974"><path data-name="Line 1270" d="M250.299 348.698h-8.051"/><path data-name="Path 1313" d="M231.98 341.974h27.863l-13.484-16.069z"/><path data-name="Rectangle 784" d="M234.671 341.974h23.378v16.216h-23.378z"/></g><g data-name="Group 1975"><path data-name="Line 1271" d="M210 353.852v4.174"/><path data-name="Line 1272" d="M216.361 349.678v8.348"/><path data-name="Line 1273" d="M222.722 358.026v-4.174"/></g><g data-name="Group 1976"><path data-name="Line 1274" d="M124.807 353.852v4.174"/><path data-name="Line 1275" d="M131.168 349.678v8.348"/><path data-name="Line 1276" d="M137.529 358.026v-4.174"/></g><path data-name="Path 1314" d="M31.642 341.36c.449.034 16.407.036 20.907.028a15.66 15.66 0 0 1 14.148 8.89h0a15.66 15.66 0 0 0 14.121 8.89h193.954"/></g><path data-name="Path 1315" d="M93.824 94.982c11.35-1.91 17.18 5.363 17.18 5.363a18.847 18.847 0 0 1 17.18-5.363" fill="none" stroke="#0073ff" stroke-linecap="round" stroke-linejoin="round" stroke-width="3"/><path data-name="Path 1316" d="M86.17 113.219a11.121 11.121 0 0 0-10.137 3.164 10.815 10.815 0 0 0-10.136-3.164" fill="none" stroke="#0073ff" stroke-linecap="round" stroke-linejoin="round" stroke-width="3"/><path data-name="Path 1317" d="M643.246 267.773v16.311m-15.81 48.3h-4.056m1.961-19.07l-8.857 10.387h17.715zm-18.536-2.151l9.854-8.941v4.732m17.539-10.211v-4.74m8.84 0v4.74m-8.84 14.418v-4.74m8.84 0v4.74m0 9.678v4.74m-26.555 15.612h17.713v-17.49h-17.713zm8.857-46.752h-18.386v22.634m46 24.118v-57.107h-27.611v30.143m-3.21 2.851h-33.6v24.118" fill="none" stroke="#0073ff" stroke-linecap="round" stroke-linejoin="round" stroke-width="3"/><path data-name="Rectangle 785" stroke-width="3" stroke="#0073ff" stroke-linecap="round" stroke-linejoin="round" fill="none" d="M581 189.529h77.906v56.242H581z"/><path data-name="Path 1318" d="M588.35 233.382v5.844m8-5.844v5.844m8-5.844v5.844m8-5.844v5.844m8-5.844v5.844m8-5.844v5.844m8-5.844v5.844m8-5.844v5.844m8-5.844v5.844m-63.982-27.3v5.844m8-5.844v5.844m8-5.844v5.844m8-5.844v5.844m8-5.844v5.844m8-5.844v5.844m8-5.844v5.844m8-5.844v5.844m8-5.844v5.844m-63.982-20.825v5.846m8-5.844v5.844m8-5.844v5.844m8-5.844v5.844m8-5.844v5.844m8-5.844v5.844m8-5.844v5.844m8-5.844v5.844m8-5.844v5.844m-70.568 21.731h76.088" fill="none" stroke="#0073ff" stroke-linecap="round" stroke-linejoin="round" stroke-width="3"/><g data-name="Group 1978"><path data-name="Path 1319" d="M533.896 245.771h130.286a30.378 30.378 0 0 1 21.48 8.9h0a30.378 30.378 0 0 0 21.48 8.9h34.921" fill="none" stroke="#0073ff" stroke-linecap="round" stroke-linejoin="round" stroke-width="3"/></g><path data-name="Line 1277" fill="none" stroke="#0073ff" stroke-linecap="round" stroke-linejoin="round" stroke-width="3" d="M581.143 341.196h134.159"/><g data-name="Group 1979" fill="none" stroke="#0073ff" stroke-linecap="round" stroke-linejoin="round" stroke-width="3"><path data-name="Path 1320" d="M444.191 388.826a4 4 0 1 0 4 4 4 4 0 0 0-4-4z"/><path data-name="Path 1321" d="M411.492 388.826a4 4 0 1 0 4 4 4 4 0 0 0-4-4z"/><path data-name="Line 1278" d="M396.694 381.559h13.937"/><path data-name="Path 1323" d="M408.636 381.558l5.581-8.335h17.27l4.887 8.335"/><path data-name="Path 1324" d="M407.632 391.328h-7.754v-9.77"/><path data-name="Line 1279" d="M439.979 391.309h-23.746"/><path data-name="Path 1325" d="M448.746 391.307h6.511a.993.993 0 0 0 .994-.993v-5.275a1.643 1.643 0 0 0-1.459-1.633l-18.414-1.849"/><path data-name="Path 1326" d="M436.375 381.559c-.3-.152-25.744 0-25.744 0"/></g><g data-name="Group 1980" fill="none" stroke="#0073ff" stroke-linecap="round" stroke-linejoin="round" stroke-width="3"><path data-name="Path 1327" d="M534.735 270.609h4.544l-4.892-6.728 3.927-.044-6.025-8.292-6.025 8.292 3.928.044-4.892 6.728h9.436z"/><path data-name="Line 1280" d="M532.289 270.605v5.324"/></g><path data-name="Path 1328" d="M540.597 276.683s-3.626-.075-9.629-.063a39.647 39.647 0 0 1-28.1-11.607l-1.686-1.686a39.627 39.627 0 0 0-28.022-11.607H371.491" fill="none" stroke="#0073ff" stroke-linecap="round" stroke-linejoin="round" stroke-width="3"/><path data-name="Rectangle 786" stroke-width="3" stroke="#0073ff" stroke-linecap="round" stroke-linejoin="round" fill="#fff" d="M479.844 251.625h-80.91v-31.559h80.91z"/><g data-name="Group 1983" fill="none" stroke="#0073ff" stroke-linecap="round" stroke-linejoin="round" stroke-width="3"><g data-name="Group 1981"><path data-name="Line 1281" d="M443.677 228.705v4.441"/><path data-name="Line 1282" d="M452.252 228.705v4.441"/><path data-name="Line 1283" d="M460.827 228.705v4.441"/><path data-name="Line 1284" d="M469.403 228.705v4.441"/><path data-name="Line 1285" d="M435.102 228.705v4.441"/><path data-name="Line 1286" d="M426.526 228.705v4.441"/><path data-name="Line 1287" d="M417.951 228.705v4.441"/><path data-name="Line 1288" d="M409.376 228.705v4.441"/></g><g data-name="Group 1982"><path data-name="Line 1289" d="M443.677 240.618v4.441"/><path data-name="Line 1290" d="M452.252 240.618v4.441"/><path data-name="Line 1291" d="M460.827 240.618v4.441"/><path data-name="Line 1292" d="M469.403 240.618v4.441"/><path data-name="Line 1293" d="M435.102 240.618v4.441"/><path data-name="Line 1294" d="M426.526 240.618v4.441"/><path data-name="Line 1295" d="M417.951 240.618v4.441"/><path data-name="Line 1296" d="M409.376 240.618v4.441"/></g></g><path data-name="Path 1329" d="M363.31 338.146h83.593a23.5 23.5 0 0 1 16.615 6.882h0a23.5 23.5 0 0 0 16.615 6.883h21.653" fill="none" stroke="#0073ff" stroke-linecap="round" stroke-linejoin="round" stroke-width="3"/><path data-name="Rectangle 787" stroke-width="3" stroke="#0073ff" stroke-linecap="round" stroke-linejoin="round" fill="#fff" d="M380.167 298.777h65.242v39.182h-65.242z"/><path data-name="Path 1330" d="M431.94 313.766v-5.762m-13.182 5.762v-5.762m-13.182 5.762v-5.762m-13.183 5.762v-5.762m39.547 20.711v-5.759m-13.182 5.763v-5.763m-13.182 5.763v-5.763m-13.183 5.763v-5.763" fill="none" stroke="#0073ff" stroke-linecap="round" stroke-linejoin="round" stroke-width="3"/><g data-name="Group 1985" stroke="#0073ff" stroke-linecap="round" stroke-linejoin="round" stroke-width="3"><path data-name="Path 1331" d="M283.847 396.824V340.59h31.764v56.234" fill="#fff"/><g data-name="Group 1984" fill="none"><path data-name="Line 1297" d="M291.005 348.853v4.069"/><path data-name="Line 1298" d="M300.079 348.853v4.069"/><path data-name="Line 1299" d="M309.153 348.853v4.069"/><path data-name="Line 1300" d="M291.005 360.42v4.069"/><path data-name="Line 1301" d="M300.079 360.42v4.069"/><path data-name="Line 1302" d="M309.153 360.42v4.069"/><path data-name="Line 1303" d="M291.005 371.987v4.069"/><path data-name="Line 1304" d="M300.079 371.987v4.069"/><path data-name="Line 1305" d="M309.153 371.987v4.069"/><path data-name="Rectangle 788" d="M295.824 384.981h8.271v11.843h-8.271z"/></g></g><path data-name="Line 1306" fill="none" stroke="#0073ff" stroke-linecap="round" stroke-linejoin="round" stroke-width="3" d="M598.517 326.472v4.336"/><path data-name="Line 1307" fill="none" stroke="#0073ff" stroke-linecap="round" stroke-linejoin="round" stroke-width="3" d="M607.621 326.472v4.336"/><g data-name="Group 1987" fill="#fff" stroke="#0073ff" stroke-linecap="round" stroke-linejoin="round" stroke-width="3"><path data-name="Path 1332" d="M268.002 274.397l37.063-.147v-45.542h-37.063z"/><g data-name="Group 1986"><path data-name="Line 1308" d="M276.635 253.829v-4.736"/><path data-name="Line 1309" d="M286.708 253.829v-4.736"/><path data-name="Line 1310" d="M296.781 253.829v-4.736"/><path data-name="Line 1311" d="M276.635 242.068v-4.736"/><path data-name="Line 1312" d="M286.708 242.068v-4.736"/><path data-name="Line 1313" d="M296.781 242.068v-4.736"/><path data-name="Line 1314" d="M276.635 265.59v-4.736"/><path data-name="Line 1315" d="M286.708 265.59v-4.736"/><path data-name="Line 1316" d="M296.781 265.59v-4.736"/></g><path data-name="Path 1333" d="M255.31 218.037v-18.023m3.834 27.128v4.74m-9.274 0v-4.74m9.274 25.706v4.74m-9.274 0v-4.74m9.274-12.372v4.74m-9.274 0v-4.74m0 30.66v-4.74m-9.045 19.717v-67.447h27.177v55.614h0a11.873 11.873 0 0 0-8.224 3.309l-5.433 5.217a11.872 11.872 0 0 1-8.224 3.309z"/><path data-name="Line 1317" d="M219.692 286.233h20.699"/><path data-name="Line 1318" d="M309.153 274.397h-9.198"/></g><path data-name="Line 1319" fill="#fff" stroke="#0073ff" stroke-linecap="round" stroke-linejoin="round" stroke-width="3" d="M281.497 227.142v-9.105"/><path data-name="Line 1320" fill="#fff" stroke="#0073ff" stroke-linecap="round" stroke-linejoin="round" stroke-width="3" d="M293.394 227.142v-9.105"/><path data-name="Line 1321" fill="none" stroke="#0073ff" stroke-linecap="round" stroke-linejoin="round" stroke-width="3" d="M546.256 245.317v-38.578"/><path data-name="Line 1322" fill="none" stroke="#0073ff" stroke-linecap="round" stroke-linejoin="round" stroke-width="3" d="M439.389 197.371v22.695"/><path data-name="Path 1334" d="M580.999 189.529c-3.59 10.789-21.532 26.041-34.744 22.492-11.913 6.1-100.134-11.969-106.867-14.649-9.112 11.348-50.429 24.17-65.707 24.17" fill="none" stroke="#0073ff" stroke-linecap="round" stroke-linejoin="round" stroke-width="3"/><path data-name="Path 1335" d="M256.18 202.917c6.825 6.824 20.976 19.672 24.937 17.3a10.665 10.665 0 0 0 12.277 0 8.742 8.742 0 0 0 5.4 1.965h21.8a3.667 3.667 0 0 1 3.131 2.317" fill="none" stroke="#0073ff" stroke-linecap="round" stroke-linejoin="round" stroke-width="3"/><path data-name="Path 1336" d="M366.772 223.484a3.347 3.347 0 0 1 3-1.943h7.385" fill="none" stroke="#0073ff" stroke-linecap="round" stroke-linejoin="round" stroke-width="3"/><g data-name="Group 1989"><g data-name="Group 1988" fill="none" stroke="#0073ff" stroke-linecap="round" stroke-linejoin="round" stroke-width="3"><path data-name="Path 1337" d="M485.102 368.708a10.765 10.765 0 1 0 10.763 10.766 10.767 10.767 0 0 0-10.763-10.766z"/><path data-name="Path 1338" d="M485.795 381.782h1.312c1.987 0 3.6-2.066 3.6-4.62"/><path data-name="Path 1339" d="M485.103 384.569h-1.488a3.567 3.567 0 0 1-3.569-3.567"/><path data-name="Line 1323" d="M485.103 397.335V373.53"/></g></g><path data-name="Path 1340" d="M359.351 384.909a3.211 3.211 0 1 1-3.211-3.212 3.2 3.2 0 0 1 3.211 3.212z" fill="none" stroke="#0073ff" stroke-linecap="round" stroke-linejoin="round" stroke-width="2.4"/><g data-name="Group 1990" fill="none" stroke="#0073ff" stroke-linecap="round" stroke-linejoin="round" stroke-width="2.4"><path data-name="Path 1341" d="M359.146 382.849l1.151-3-2.659 2.227"/><path data-name="Path 1342" d="M353.133 382.849l-1.151-3 2.659 2.227"/></g><path data-name="Path 1343" d="M365.041 394.922s3.172 1.6 4.83-.668c1.923-2.628-2.039-4.652.03-7.2" fill="none" stroke="#0073ff" stroke-linecap="round" stroke-linejoin="round" stroke-width="2.4"/><path data-name="Path 1344" d="M354.574 388.477v5.71a1.371 1.371 0 0 0-1.514 1.311c0 1.085.391 1.326 1.592 1.326" fill="none" stroke="#0073ff" stroke-linecap="round" stroke-linejoin="round" stroke-width="2.4"/><path data-name="Path 1345" d="M358.543 387.039c2.06 0 6.693 4.455 6.5 7.8" fill="none" stroke="#0073ff" stroke-linecap="round" stroke-linejoin="round" stroke-width="2.4"/><path data-name="Path 1346" d="M360.476 391.917a2.126 2.126 0 0 0-1.933 2.061v2.25" fill="none" stroke="#0073ff" stroke-linecap="round" stroke-linejoin="round" stroke-width="2.4"/><g data-name="Group 1992" transform="translate(333.615 209.585)" stroke-width="3" stroke="#0073ff" stroke-linecap="round" stroke-linejoin="round" fill="none"><circle data-name="Ellipse 182" cx="14.443" cy="14.443" r="14.443"/><g data-name="Group 1991"><path data-name="Line 1324" d="M19.057 9.828l-9.229 9.229"/><path data-name="Line 1325" d="M9.828 9.828l9.229 9.229"/></g></g><path data-name="Path 1347" d="M443.368 286.233h-61.161l-4.875 12.544h70.91z" fill="#fff" stroke="#0073ff" stroke-linecap="round" stroke-linejoin="round" stroke-width="3"/></g><path data-name="Path 1348" d="M662.38 189.529h-78.211l6.472-12.977h65.268z" fill="#fff" stroke="#0073ff" stroke-linecap="round" stroke-linejoin="round" stroke-width="3"/><path data-name="Line 1326" fill="#fff" stroke="#0073ff" stroke-linecap="round" stroke-linejoin="round" stroke-width="3" d="M614.08 176.551v-13.259"/><path data-name="Path 1349" d="M100.175 312.617l23.216-29.094c13.224 13.811 31.445 21.453 52.016 21.453 23.218 0 36.441-13.224 36.441-29.094 0-17.339-12.93-29.095-35.265-29.095-16.163 0-29.387 4.7-41.143 15.87l-29.094-7.641V142.461h134.6v36.736h-92.869v47.9c9.4-9.4 25.273-16.457 43.2-16.457 33.208 0 62.89 23.8 62.89 63.477 0 41.731-31.151 67.887-78.466 67.887-34.089.001-58.775-11.166-75.526-29.387z" fill="#0073ff"/><g data-name="Group 1996"><path data-name="Path 1350" d="M148.004 241.787H67.866v-33.889h80.138zm-72.626-8.845h7.51m50.1 0h7.509m-65.115-8.1h7.51m50.1 0h7.509m-65.115-8.1h7.51m6.891 0h7.51m6.892 0h7.509m6.892 0h7.51m6.892 0h7.509m-18.067 25.045H95.722v-11.516h26.712zm-31.53-16.945h34.06m-21.274 10.012v6.937m9.992-6.937v6.937m19.3-33.889h-47.15v-12.448h47.15zm-13.648-12.448h-18.941l3.483-10.432h11.975zm-43.957 12.442v-36.442m-2.9 16.178h4.5c.826 0 1.494 1.168 1.494 2.609s-.669 2.608-1.494 2.608m-4.5-16.683h4.5c.826 0 1.494 1.167 1.494 2.608s-.669 2.608-1.494 2.608" fill="#fff" stroke="#0073ff" stroke-linecap="round" stroke-linejoin="round" stroke-width="3"/><g data-name="Group 1994"><path data-name="Path 1351" d="M139.049 241.787H65.242a40.631 40.631 0 0 0-28.731 11.9h0c-7.62 7.621-15.784 11.9-26.56 11.9h-8.45" fill="none" stroke="#0073ff" stroke-linecap="round" stroke-linejoin="round" stroke-width="3"/></g><g data-name="Group 1995" fill="#fff" stroke="#0073ff" stroke-linecap="round" stroke-linejoin="round" stroke-width="3"><path data-name="Path 1352" d="M81.494 268.006l10.645-26.219h33.951l10.649 26.219"/><path data-name="Line 1327" d="M89.779 247.578h38.674"/><path data-name="Line 1328" d="M87.064 254.237h44.105"/><path data-name="Line 1329" d="M84.348 260.895h49.536"/><path data-name="Line 1330" d="M81.494 268.005h55.244"/></g></g><path data-name="Path 1353" d="M444.891 240.616c0-50.547 24.979-101.094 81.111-101.094 55.835 0 81.109 50.547 81.109 101.094s-25.274 101.388-81.109 101.388c-56.132.001-81.111-50.841-81.111-101.388zm119.609 0c0-36.147-10.58-64.065-38.5-64.065-28.213 0-38.793 27.918-38.793 64.065s10.579 64.359 38.793 64.359c27.919 0 38.5-28.212 38.5-64.359z" fill="#0073ff"/></g></svg>