<svg xmlns="http://www.w3.org/2000/svg" width="743.564" height="398.834" viewBox="0 0 743.564 398.834">
  <g id="error500" transform="translate(-834.639 -734.5)">
    <g id="Group_1997" data-name="Group 1997" transform="translate(94.703 615.916)">
      <g id="Group_1952" data-name="Group 1952" transform="translate(1008.501 258.106)">
        <g id="Group_1951" data-name="Group 1951">
          <path id="Path_1297" data-name="Path 1297" d="M1048.983,380.122c0-50.547,24.979-101.094,81.11-101.094,55.836,0,81.109,50.547,81.109,101.094s-25.273,101.388-81.109,101.388C1073.962,481.511,1048.983,430.669,1048.983,380.122Zm119.608,0c0-36.147-10.58-64.065-38.5-64.065-28.213,0-38.793,27.918-38.793,64.065s10.58,64.359,38.793,64.359C1158.01,444.481,1168.591,416.269,1168.591,380.122Z" transform="translate(-1048.983 -279.028)" fill="#0073ff"/>
        </g>
      </g>
      <g id="Group_1993" data-name="Group 1993" transform="translate(771.578 120.084)">
        <path id="Path_1298" data-name="Path 1298" d="M1004.877,229.473a11.779,11.779,0,0,1,11.745-11.744h5.182a11.245,11.245,0,0,1,2.524-5.69,10.5,10.5,0,0,0-6.158-2h-.08a9.684,9.684,0,0,0-8.417-7.064,14.455,14.455,0,0,0-26.949,7.064h-2.747a10.592,10.592,0,0,0,0,21.183h25.046A11.74,11.74,0,0,1,1004.877,229.473Zm83.432,0a11.778,11.778,0,0,1-11.744,11.744h-59.944a11.744,11.744,0,1,1,0-23.488h5.182a11.185,11.185,0,0,1,12.867-9.6,16.025,16.025,0,0,1,29.521,1.989,9.157,9.157,0,0,1,8.739,7.613h3.634A11.778,11.778,0,0,1,1088.31,229.473Z" transform="translate(-801.583 -130.048)" fill="none" stroke="#0073ff" stroke-linecap="round" stroke-linejoin="round" stroke-width="3"/>
        <path id="Path_1299" data-name="Path 1299" d="M1417.865,224.635h0a7.969,7.969,0,0,0-6.927-5.814,11.9,11.9,0,0,0-22.179,5.814h-1.873a8.984,8.984,0,0,0-9.034,7.6,8.738,8.738,0,0,0,8.646,9.83h31.433a8.717,8.717,0,1,0-.067-17.433Z" transform="translate(-855.339 -132.302)" fill="none" stroke="#0073ff" stroke-linecap="round" stroke-linejoin="round" stroke-width="3"/>
        <g id="Group_1964" data-name="Group 1964" transform="translate(355.662)">
          <circle id="Ellipse_177" data-name="Ellipse 177" cx="29.371" cy="29.371" r="29.371" transform="translate(25.048 25.048)" stroke-width="3" stroke="#0073ff" stroke-linecap="round" stroke-linejoin="round" fill="none"/>
          <g id="Group_1953" data-name="Group 1953" transform="translate(54.419)">
            <line id="Line_1240" data-name="Line 1240" y2="12.77" stroke-width="3" stroke="#0073ff" stroke-linecap="round" stroke-linejoin="round" fill="none"/>
            <line id="Line_1241" data-name="Line 1241" y2="12.77" transform="translate(0 96.067)" fill="none" stroke="#0073ff" stroke-linecap="round" stroke-linejoin="round" stroke-width="3"/>
          </g>
          <g id="Group_1954" data-name="Group 1954" transform="translate(36.726 11.705)">
            <line id="Line_1242" data-name="Line 1242" x1="1.754" y2="4.235" transform="translate(33.631)" fill="none" stroke="#0073ff" stroke-linecap="round" stroke-linejoin="round" stroke-width="3"/>
            <line id="Line_1243" data-name="Line 1243" y1="4.235" x2="1.754" transform="translate(0 81.192)" fill="none" stroke="#0073ff" stroke-linecap="round" stroke-linejoin="round" stroke-width="3"/>
          </g>
          <g id="Group_1955" data-name="Group 1955" transform="translate(0 54.419)">
            <line id="Line_1244" data-name="Line 1244" x2="12.77" transform="translate(96.067)" fill="none" stroke="#0073ff" stroke-linecap="round" stroke-linejoin="round" stroke-width="3"/>
            <line id="Line_1245" data-name="Line 1245" x1="12.77" stroke-width="3" stroke="#0073ff" stroke-linecap="round" stroke-linejoin="round" fill="none"/>
          </g>
          <g id="Group_1956" data-name="Group 1956" transform="translate(15.939 15.939)">
            <line id="Line_1246" data-name="Line 1246" y1="9.03" x2="9.03" transform="translate(67.93)" fill="none" stroke="#0073ff" stroke-linecap="round" stroke-linejoin="round" stroke-width="3"/>
            <line id="Line_1247" data-name="Line 1247" x1="9.03" y2="9.03" transform="translate(0 67.93)" fill="none" stroke="#0073ff" stroke-linecap="round" stroke-linejoin="round" stroke-width="3"/>
          </g>
          <g id="Group_1957" data-name="Group 1957" transform="translate(15.939 15.939)">
            <line id="Line_1248" data-name="Line 1248" x2="9.03" y2="9.03" transform="translate(67.93 67.93)" fill="none" stroke="#0073ff" stroke-linecap="round" stroke-linejoin="round" stroke-width="3"/>
            <line id="Line_1249" data-name="Line 1249" x1="9.03" y1="9.03" stroke-width="3" stroke="#0073ff" stroke-linecap="round" stroke-linejoin="round" fill="none"/>
          </g>
          <g id="Group_1958" data-name="Group 1958" transform="translate(11.705 36.726)">
            <line id="Line_1250" data-name="Line 1250" x1="4.235" y1="1.754" transform="translate(81.192 33.631)" fill="none" stroke="#0073ff" stroke-linecap="round" stroke-linejoin="round" stroke-width="3"/>
            <line id="Line_1251" data-name="Line 1251" x2="4.235" y2="1.754" stroke-width="3" stroke="#0073ff" stroke-linecap="round" stroke-linejoin="round" fill="none"/>
          </g>
          <g id="Group_1959" data-name="Group 1959" transform="translate(11.705 36.726)">
            <line id="Line_1252" data-name="Line 1252" y1="1.754" x2="4.235" transform="translate(81.192)" fill="none" stroke="#0073ff" stroke-linecap="round" stroke-linejoin="round" stroke-width="3"/>
            <line id="Line_1253" data-name="Line 1253" y1="1.754" x2="4.235" transform="translate(0 33.631)" fill="none" stroke="#0073ff" stroke-linecap="round" stroke-linejoin="round" stroke-width="3"/>
          </g>
          <g id="Group_1960" data-name="Group 1960" transform="translate(36.726 11.705)">
            <line id="Line_1254" data-name="Line 1254" x2="1.754" y2="4.235" transform="translate(33.631 81.192)" fill="none" stroke="#0073ff" stroke-linecap="round" stroke-linejoin="round" stroke-width="3"/>
            <line id="Line_1255" data-name="Line 1255" x2="1.754" y2="4.235" stroke-width="3" stroke="#0073ff" stroke-linecap="round" stroke-linejoin="round" fill="none"/>
          </g>
          <g id="Group_1963" data-name="Group 1963" transform="translate(38.344 37.717)">
            <g id="Group_1961" data-name="Group 1961" transform="translate(21.225)">
              <circle id="Ellipse_178" data-name="Ellipse 178" cx="4.246" cy="4.246" r="4.246" transform="translate(0 6.229)" stroke-width="3" stroke="#0073ff" stroke-linecap="round" stroke-linejoin="round" fill="none"/>
              <path id="Path_1300" data-name="Path 1300" d="M1257.241,164.735a5.4,5.4,0,0,1,8.387,2.069" transform="translate(-1254.704 -163.517)" fill="none" stroke="#0073ff" stroke-linecap="round" stroke-linejoin="round" stroke-width="3"/>
            </g>
            <g id="Group_1962" data-name="Group 1962">
              <circle id="Ellipse_179" data-name="Ellipse 179" cx="4.246" cy="4.246" r="4.246" transform="translate(2.432 6.229)" stroke-width="3" stroke="#0073ff" stroke-linecap="round" stroke-linejoin="round" fill="none"/>
              <path id="Path_1301" data-name="Path 1301" d="M1238.264,164.735a5.4,5.4,0,0,0-8.387,2.069" transform="translate(-1229.877 -163.517)" fill="none" stroke="#0073ff" stroke-linecap="round" stroke-linejoin="round" stroke-width="3"/>
            </g>
            <circle id="Ellipse_180" data-name="Ellipse 180" cx="1.331" cy="1.331" r="1.331" transform="translate(23.888 9.899)" fill="#0073ff"/>
            <circle id="Ellipse_181" data-name="Ellipse 181" cx="1.331" cy="1.331" r="1.331" transform="translate(5.346 9.899)" fill="#0073ff"/>
          </g>
          <path id="Path_1302" data-name="Path 1302" d="M1253.692,198.36c.777,3.083.17,6.3-5.54,6.3s-6.317-3.214-5.54-6.3a5.836,5.836,0,0,1,11.08,0Z" transform="translate(-1193.173 -129.86)" fill="none" stroke="#0073ff" stroke-linecap="round" stroke-linejoin="round" stroke-width="3"/>
        </g>
        <path id="Path_1303" data-name="Path 1303" d="M1403.06,563.272V559.3m-6.344-3.974v7.947m-8.684-3.974v3.974m-6.344,0v-7.947m96.234,7.947V559.3m-6.056,0v3.974m-6.056-7.947v7.947m-6.056,0V559.3M1453,563.272V559.3m-78.694,3.974V559.3" transform="translate(-854.881 -177.374)" fill="none" stroke="#0073ff" stroke-linecap="round" stroke-linejoin="round" stroke-width="3"/>
        <g id="Group_1965" data-name="Group 1965" transform="translate(559.341 355.316)">
          <path id="Path_1304" data-name="Path 1304" d="M1449.635,544.558h-29.362l14.21-15.3Z" transform="translate(-1420.273 -529.259)" fill="none" stroke="#0073ff" stroke-linecap="round" stroke-linejoin="round" stroke-width="3"/>
          <rect id="Rectangle_783" data-name="Rectangle 783" width="24.636" height="15.438" transform="translate(1.89 15.299)" stroke-width="3" stroke="#0073ff" stroke-linecap="round" stroke-linejoin="round" fill="none"/>
          <line id="Line_1256" data-name="Line 1256" x2="8.484" transform="translate(10.057 21.7)" fill="none" stroke="#0073ff" stroke-linecap="round" stroke-linejoin="round" stroke-width="3"/>
        </g>
        <g id="Group_1967" data-name="Group 1967" transform="translate(634.613 314.991)">
          <g id="Group_1966" data-name="Group 1966">
            <path id="Path_1305" data-name="Path 1305" d="M1516.246,482.821a9.29,9.29,0,1,0,9.289,9.292A9.292,9.292,0,0,0,1516.246,482.821Z" transform="translate(-1506.955 -482.821)" fill="none" stroke="#0073ff" stroke-linecap="round" stroke-linejoin="round" stroke-width="3"/>
            <path id="Path_1306" data-name="Path 1306" d="M1518.343,495.211h1.132c1.714,0,3.106-1.783,3.106-3.987" transform="translate(-1508.454 -483.927)" fill="none" stroke="#0073ff" stroke-linecap="round" stroke-linejoin="round" stroke-width="3"/>
            <path id="Path_1307" data-name="Path 1307" d="M1516.993,498.117h-1.284a3.079,3.079,0,0,1-3.08-3.078" transform="translate(-1507.702 -484.429)" fill="none" stroke="#0073ff" stroke-linecap="round" stroke-linejoin="round" stroke-width="3"/>
            <line id="Line_1257" data-name="Line 1257" y1="20.544" transform="translate(9.291 4.161)" fill="none" stroke="#0073ff" stroke-linecap="round" stroke-linejoin="round" stroke-width="3"/>
          </g>
        </g>
        <g id="Group_1969" data-name="Group 1969" transform="translate(223.125 370.619)">
          <g id="Group_1968" data-name="Group 1968">
            <path id="Path_1308" data-name="Path 1308" d="M1042.383,546.881a9.291,9.291,0,1,0,9.29,9.292A9.292,9.292,0,0,0,1042.383,546.881Z" transform="translate(-1033.093 -546.881)" fill="none" stroke="#0073ff" stroke-linecap="round" stroke-linejoin="round" stroke-width="3"/>
            <path id="Path_1309" data-name="Path 1309" d="M1044.48,559.272h1.132c1.714,0,3.106-1.784,3.106-3.988" transform="translate(-1034.592 -547.987)" fill="none" stroke="#0073ff" stroke-linecap="round" stroke-linejoin="round" stroke-width="3"/>
            <path id="Path_1310" data-name="Path 1310" d="M1043.13,562.178h-1.284a3.079,3.079,0,0,1-3.079-3.079" transform="translate(-1033.84 -548.489)" fill="none" stroke="#0073ff" stroke-linecap="round" stroke-linejoin="round" stroke-width="3"/>
            <line id="Line_1258" data-name="Line 1258" y1="20.544" transform="translate(9.29 4.162)" fill="none" stroke="#0073ff" stroke-linecap="round" stroke-linejoin="round" stroke-width="3"/>
          </g>
        </g>
        <g id="Group_1970" data-name="Group 1970" transform="translate(446.483 343.55)">
          <line id="Line_1259" data-name="Line 1259" y1="3.043" transform="translate(19.087 3.043)" fill="none" stroke="#0073ff" stroke-linecap="round" stroke-linejoin="round" stroke-width="3"/>
          <line id="Line_1260" data-name="Line 1260" y2="3.043" transform="translate(14.449 3.043)" fill="none" stroke="#0073ff" stroke-linecap="round" stroke-linejoin="round" stroke-width="3"/>
          <line id="Line_1261" data-name="Line 1261" y2="6.086" transform="translate(9.812)" fill="none" stroke="#0073ff" stroke-linecap="round" stroke-linejoin="round" stroke-width="3"/>
          <line id="Line_1262" data-name="Line 1262" y2="3.043" transform="translate(5.174 3.043)" fill="none" stroke="#0073ff" stroke-linecap="round" stroke-linejoin="round" stroke-width="3"/>
          <line id="Line_1263" data-name="Line 1263" y1="3.043" transform="translate(0 3.043)" fill="none" stroke="#0073ff" stroke-linecap="round" stroke-linejoin="round" stroke-width="3"/>
        </g>
        <g id="Group_1971" data-name="Group 1971" transform="translate(293.358 388.263)">
          <line id="Line_1264" data-name="Line 1264" y2="3.043" transform="translate(9.275 3.043)" fill="none" stroke="#0073ff" stroke-linecap="round" stroke-linejoin="round" stroke-width="3"/>
          <line id="Line_1265" data-name="Line 1265" y2="6.086" transform="translate(4.637)" fill="none" stroke="#0073ff" stroke-linecap="round" stroke-linejoin="round" stroke-width="3"/>
          <line id="Line_1266" data-name="Line 1266" y2="3.043" transform="translate(0 3.043)" fill="none" stroke="#0073ff" stroke-linecap="round" stroke-linejoin="round" stroke-width="3"/>
        </g>
        <g id="Group_1972" data-name="Group 1972" transform="translate(196.894 386.055)">
          <path id="Path_1311" data-name="Path 1311" d="M1002.886,573.927H1287.4c5.283,0,10.52-3.08,15.448-4.985h0c4.927-1.905,10.164-4.285,15.447-4.285h140.286" transform="translate(-1002.886 -564.657)" fill="none" stroke="#0073ff" stroke-linecap="round" stroke-linejoin="round" stroke-width="3"/>
        </g>
        <g id="Group_1973" data-name="Group 1973" transform="translate(662.523 331.348)">
          <line id="Line_1267" data-name="Line 1267" y2="4.174" transform="translate(0 4.174)" fill="none" stroke="#0073ff" stroke-linecap="round" stroke-linejoin="round" stroke-width="3"/>
          <line id="Line_1268" data-name="Line 1268" y2="8.348" transform="translate(6.361)" fill="none" stroke="#0073ff" stroke-linecap="round" stroke-linejoin="round" stroke-width="3"/>
          <line id="Line_1269" data-name="Line 1269" y1="4.174" transform="translate(12.723 4.174)" fill="none" stroke="#0073ff" stroke-linecap="round" stroke-linejoin="round" stroke-width="3"/>
        </g>
        <g id="Group_1977" data-name="Group 1977" transform="translate(0 324.405)">
          <path id="Path_1312" data-name="Path 1312" d="M857.287,507.217a7.9,7.9,0,1,1-7.9-7.887A7.889,7.889,0,0,1,857.287,507.217Zm-.973,8.968c0,1.938-.877,3.876-4.5,3.876h-2.43m-5.952,0a3.247,3.247,0,0,0,3.25,3.245h2.7m-3.335-16.437a2.147,2.147,0,0,0,2.148,2.145m1.186,18.658v-22.9" transform="translate(-784.748 -494.408)" fill="none" stroke="#0073ff" stroke-linecap="round" stroke-linejoin="round" stroke-width="3"/>
          <g id="Group_1974" data-name="Group 1974" transform="translate(200.338)">
            <line id="Line_1270" data-name="Line 1270" x1="8.051" transform="translate(10.268 22.793)" fill="none" stroke="#0073ff" stroke-linecap="round" stroke-linejoin="round" stroke-width="3"/>
            <path id="Path_1313" data-name="Path 1313" d="M1006.852,509.731h27.863l-13.484-16.069Z" transform="translate(-1006.852 -493.662)" fill="none" stroke="#0073ff" stroke-linecap="round" stroke-linejoin="round" stroke-width="3"/>
            <rect id="Rectangle_784" data-name="Rectangle 784" width="23.378" height="16.216" transform="translate(2.691 16.069)" stroke-width="3" stroke="#0073ff" stroke-linecap="round" stroke-linejoin="round" fill="none"/>
          </g>
          <g id="Group_1975" data-name="Group 1975" transform="translate(178.358 23.773)">
            <line id="Line_1271" data-name="Line 1271" y2="4.174" transform="translate(0 4.174)" fill="none" stroke="#0073ff" stroke-linecap="round" stroke-linejoin="round" stroke-width="3"/>
            <line id="Line_1272" data-name="Line 1272" y2="8.348" transform="translate(6.361)" fill="none" stroke="#0073ff" stroke-linecap="round" stroke-linejoin="round" stroke-width="3"/>
            <line id="Line_1273" data-name="Line 1273" y1="4.174" transform="translate(12.722 4.174)" fill="none" stroke="#0073ff" stroke-linecap="round" stroke-linejoin="round" stroke-width="3"/>
          </g>
          <g id="Group_1976" data-name="Group 1976" transform="translate(93.165 23.773)">
            <line id="Line_1274" data-name="Line 1274" y2="4.174" transform="translate(0 4.174)" fill="none" stroke="#0073ff" stroke-linecap="round" stroke-linejoin="round" stroke-width="3"/>
            <line id="Line_1275" data-name="Line 1275" y2="8.348" transform="translate(6.361)" fill="none" stroke="#0073ff" stroke-linecap="round" stroke-linejoin="round" stroke-width="3"/>
            <line id="Line_1276" data-name="Line 1276" y1="4.174" transform="translate(12.722 4.174)" fill="none" stroke="#0073ff" stroke-linecap="round" stroke-linejoin="round" stroke-width="3"/>
          </g>
          <path id="Path_1314" data-name="Path 1314" d="M776.147,511.459c.449.034,16.407.036,20.907.028a15.66,15.66,0,0,1,14.148,8.89h0a15.66,15.66,0,0,0,14.121,8.89h193.954" transform="translate(-776.147 -496.004)" fill="none" stroke="#0073ff" stroke-linecap="round" stroke-linejoin="round" stroke-width="3"/>
        </g>
        <path id="Path_1315" data-name="Path 1315" d="M847.755,227.687c11.35-1.91,17.18,5.363,17.18,5.363a18.847,18.847,0,0,1,17.18-5.363" transform="translate(-785.573 -134.205)" fill="none" stroke="#0073ff" stroke-linecap="round" stroke-linejoin="round" stroke-width="3"/>
        <path id="Path_1316" data-name="Path 1316" d="M835.867,248.709a11.121,11.121,0,0,0-10.137,3.164,10.815,10.815,0,0,0-10.136-3.164" transform="translate(-781.339 -136.99)" fill="none" stroke="#0073ff" stroke-linecap="round" stroke-linejoin="round" stroke-width="3"/>
        <path id="Path_1317" data-name="Path 1317" d="M1472.166,426.719V443.03m-15.81,48.3H1452.3m1.961-19.07-8.857,10.387h17.715Zm-18.536-2.151,9.854-8.941V465.9m17.539-10.211v-4.74m8.84,0v4.74m-8.84,14.418v-4.74m8.84,0v4.74m0,9.678v4.74m-26.555,15.612h17.713V482.647h-17.713Zm8.857-46.752h-18.386v22.634m46,24.118V443.03h-27.611v30.143m-3.21,2.851h-33.6v24.118" transform="translate(-860.562 -160.446)" fill="none" stroke="#0073ff" stroke-linecap="round" stroke-linejoin="round" stroke-width="3"/>
        <rect id="Rectangle_785" data-name="Rectangle 785" width="77.906" height="56.242" transform="translate(549.358 188.029)" stroke-width="3" stroke="#0073ff" stroke-linecap="round" stroke-linejoin="round" fill="none"/>
        <path id="Path_1318" data-name="Path 1318" d="M1416.243,381.591v5.844m8-5.844v5.844m8-5.844v5.844m8-5.844v5.844m8-5.844v5.844m8-5.844v5.844m8-5.844v5.844m8-5.844v5.844m8-5.844v5.844m-63.982-27.3v5.844m8-5.844v5.844m8-5.844v5.844m8-5.844v5.844m8-5.844v5.844m8-5.844v5.844m8-5.844v5.844m8-5.844v5.844m8-5.844v5.844m-63.982-20.825V351m8-5.844V351m8-5.844V351m8-5.844V351m8-5.844V351m8-5.844V351m8-5.844V351m8-5.844V351m8-5.844V351m-70.568,21.731h76.088" transform="translate(-859.535 -149.709)" fill="none" stroke="#0073ff" stroke-linecap="round" stroke-linejoin="round" stroke-width="3"/>
        <g id="Group_1978" data-name="Group 1978" transform="translate(502.254 244.271)">
          <path id="Path_1319" data-name="Path 1319" d="M1354.533,401.381h130.286a30.378,30.378,0,0,1,21.48,8.9h0a30.378,30.378,0,0,0,21.48,8.9H1562.7" transform="translate(-1354.533 -401.381)" fill="none" stroke="#0073ff" stroke-linecap="round" stroke-linejoin="round" stroke-width="3"/>
        </g>
        <line id="Line_1277" data-name="Line 1277" x2="134.159" transform="translate(549.501 339.696)" fill="none" stroke="#0073ff" stroke-linecap="round" stroke-linejoin="round" stroke-width="3"/>
        <g id="Group_1979" data-name="Group 1979" transform="translate(365.052 371.724)">
          <path id="Path_1320" data-name="Path 1320" d="M1250.625,566.121a4,4,0,1,0,4,4A4,4,0,0,0,1250.625,566.121Z" transform="translate(-1203.128 -550.519)" fill="none" stroke="#0073ff" stroke-linecap="round" stroke-linejoin="round" stroke-width="3"/>
          <path id="Path_1321" data-name="Path 1321" d="M1212.969,566.121a4,4,0,1,0,4,4A4,4,0,0,0,1212.969,566.121Z" transform="translate(-1198.171 -550.519)" fill="none" stroke="#0073ff" stroke-linecap="round" stroke-linejoin="round" stroke-width="3"/>
          <line id="Line_1278" data-name="Line 1278" x2="13.937" transform="translate(0 8.335)" fill="none" stroke="#0073ff" stroke-linecap="round" stroke-linejoin="round" stroke-width="3"/>
          <path id="Path_1322" data-name="Path 1322" d="M1241.48,559.249" transform="translate(-1202.45 -549.614)" fill="none" stroke="#0073ff" stroke-linecap="round" stroke-linejoin="round" stroke-width="3"/>
          <path id="Path_1323" data-name="Path 1323" d="M1210.286,556.488l5.581-8.335h17.27l4.887,8.335" transform="translate(-1198.344 -548.154)" fill="none" stroke="#0073ff" stroke-linecap="round" stroke-linejoin="round" stroke-width="3"/>
          <path id="Path_1324" data-name="Path 1324" d="M1207.954,567.521H1200.2v-9.77" transform="translate(-1197.016 -549.417)" fill="none" stroke="#0073ff" stroke-linecap="round" stroke-linejoin="round" stroke-width="3"/>
          <line id="Line_1279" data-name="Line 1279" x1="23.746" transform="translate(19.539 18.085)" fill="none" stroke="#0073ff" stroke-linecap="round" stroke-linejoin="round" stroke-width="3"/>
          <path id="Path_1325" data-name="Path 1325" d="M1254.6,567.5h6.511a.993.993,0,0,0,.994-.993v-5.275a1.643,1.643,0,0,0-1.459-1.633l-18.414-1.849" transform="translate(-1202.548 -549.417)" fill="none" stroke="#0073ff" stroke-linecap="round" stroke-linejoin="round" stroke-width="3"/>
          <path id="Path_1326" data-name="Path 1326" d="M1238.327,557.742c-.3-.152-25.744,0-25.744,0" transform="translate(-1198.646 -549.407)" fill="none" stroke="#0073ff" stroke-linecap="round" stroke-linejoin="round" stroke-width="3"/>
        </g>
        <g id="Group_1980" data-name="Group 1980" transform="translate(493.657 254.042)">
          <path id="Path_1327" data-name="Path 1327" d="M1354.068,427.7h4.544l-4.892-6.728,3.927-.044-6.025-8.292-6.025,8.292,3.928.044-4.892,6.728h9.436Z" transform="translate(-1344.632 -412.633)" fill="none" stroke="#0073ff" stroke-linecap="round" stroke-linejoin="round" stroke-width="3"/>
          <line id="Line_1280" data-name="Line 1280" y2="5.324" transform="translate(6.99 15.063)" fill="none" stroke="#0073ff" stroke-linecap="round" stroke-linejoin="round" stroke-width="3"/>
        </g>
        <path id="Path_1328" data-name="Path 1328" d="M1336.617,433.195s-3.626-.075-9.629-.063a39.647,39.647,0,0,1-28.1-11.607l-1.686-1.686a39.627,39.627,0,0,0-28.022-11.607H1167.511" transform="translate(-827.662 -158.012)" fill="none" stroke="#0073ff" stroke-linecap="round" stroke-linejoin="round" stroke-width="3"/>
        <rect id="Rectangle_786" data-name="Rectangle 786" width="80.91" height="31.559" transform="translate(448.202 250.125) rotate(-180)" stroke-width="3" stroke="#0073ff" stroke-linecap="round" stroke-linejoin="round" fill="#fff"/>
        <g id="Group_1983" data-name="Group 1983" transform="translate(377.734 227.205)">
          <g id="Group_1981" data-name="Group 1981">
            <line id="Line_1281" data-name="Line 1281" y2="4.441" transform="translate(34.301)" fill="none" stroke="#0073ff" stroke-linecap="round" stroke-linejoin="round" stroke-width="3"/>
            <line id="Line_1282" data-name="Line 1282" y2="4.441" transform="translate(42.876)" fill="none" stroke="#0073ff" stroke-linecap="round" stroke-linejoin="round" stroke-width="3"/>
            <line id="Line_1283" data-name="Line 1283" y2="4.441" transform="translate(51.451)" fill="none" stroke="#0073ff" stroke-linecap="round" stroke-linejoin="round" stroke-width="3"/>
            <line id="Line_1284" data-name="Line 1284" y2="4.441" transform="translate(60.027)" fill="none" stroke="#0073ff" stroke-linecap="round" stroke-linejoin="round" stroke-width="3"/>
            <line id="Line_1285" data-name="Line 1285" y2="4.441" transform="translate(25.726)" fill="none" stroke="#0073ff" stroke-linecap="round" stroke-linejoin="round" stroke-width="3"/>
            <line id="Line_1286" data-name="Line 1286" y2="4.441" transform="translate(17.15)" fill="none" stroke="#0073ff" stroke-linecap="round" stroke-linejoin="round" stroke-width="3"/>
            <line id="Line_1287" data-name="Line 1287" y2="4.441" transform="translate(8.575)" fill="none" stroke="#0073ff" stroke-linecap="round" stroke-linejoin="round" stroke-width="3"/>
            <line id="Line_1288" data-name="Line 1288" y2="4.441" stroke-width="3" stroke="#0073ff" stroke-linecap="round" stroke-linejoin="round" fill="none"/>
          </g>
          <g id="Group_1982" data-name="Group 1982" transform="translate(0 11.913)">
            <line id="Line_1289" data-name="Line 1289" y2="4.441" transform="translate(34.301)" fill="none" stroke="#0073ff" stroke-linecap="round" stroke-linejoin="round" stroke-width="3"/>
            <line id="Line_1290" data-name="Line 1290" y2="4.441" transform="translate(42.876)" fill="none" stroke="#0073ff" stroke-linecap="round" stroke-linejoin="round" stroke-width="3"/>
            <line id="Line_1291" data-name="Line 1291" y2="4.441" transform="translate(51.451)" fill="none" stroke="#0073ff" stroke-linecap="round" stroke-linejoin="round" stroke-width="3"/>
            <line id="Line_1292" data-name="Line 1292" y2="4.441" transform="translate(60.027)" fill="none" stroke="#0073ff" stroke-linecap="round" stroke-linejoin="round" stroke-width="3"/>
            <line id="Line_1293" data-name="Line 1293" y2="4.441" transform="translate(25.726)" fill="none" stroke="#0073ff" stroke-linecap="round" stroke-linejoin="round" stroke-width="3"/>
            <line id="Line_1294" data-name="Line 1294" y2="4.441" transform="translate(17.15)" fill="none" stroke="#0073ff" stroke-linecap="round" stroke-linejoin="round" stroke-width="3"/>
            <line id="Line_1295" data-name="Line 1295" y2="4.441" transform="translate(8.575)" fill="none" stroke="#0073ff" stroke-linecap="round" stroke-linejoin="round" stroke-width="3"/>
            <line id="Line_1296" data-name="Line 1296" y2="4.441" stroke-width="3" stroke="#0073ff" stroke-linecap="round" stroke-linejoin="round" fill="none"/>
          </g>
        </g>
        <path id="Path_1329" data-name="Path 1329" d="M1158.089,507.759h83.593a23.5,23.5,0,0,1,16.615,6.882h0a23.5,23.5,0,0,0,16.615,6.883h21.653" transform="translate(-826.421 -171.113)" fill="none" stroke="#0073ff" stroke-linecap="round" stroke-linejoin="round" stroke-width="3"/>
        <rect id="Rectangle_787" data-name="Rectangle 787" width="65.242" height="39.182" transform="translate(348.525 297.277)" stroke-width="3" stroke="#0073ff" stroke-linecap="round" stroke-linejoin="round" fill="#fff"/>
        <path id="Path_1330" data-name="Path 1330" d="M1231.128,478.81v-5.762m-13.182,5.762v-5.762m-13.182,5.762v-5.762m-13.183,5.762v-5.762m39.547,20.711V488m-13.182,5.763V488m-13.182,5.763V488m-13.183,5.763V488" transform="translate(-830.83 -166.544)" fill="none" stroke="#0073ff" stroke-linecap="round" stroke-linejoin="round" stroke-width="3"/>
        <g id="Group_1985" data-name="Group 1985" transform="translate(252.205 339.09)">
          <path id="Path_1331" data-name="Path 1331" d="M1066.581,566.808V510.574h31.764v56.234" transform="translate(-1066.581 -510.574)" fill="#fff" stroke="#0073ff" stroke-linecap="round" stroke-linejoin="round" stroke-width="3"/>
          <g id="Group_1984" data-name="Group 1984" transform="translate(7.158 8.263)">
            <line id="Line_1297" data-name="Line 1297" y2="4.069" stroke-width="3" stroke="#0073ff" stroke-linecap="round" stroke-linejoin="round" fill="none"/>
            <line id="Line_1298" data-name="Line 1298" y2="4.069" transform="translate(9.074)" fill="none" stroke="#0073ff" stroke-linecap="round" stroke-linejoin="round" stroke-width="3"/>
            <line id="Line_1299" data-name="Line 1299" y2="4.069" transform="translate(18.148)" fill="none" stroke="#0073ff" stroke-linecap="round" stroke-linejoin="round" stroke-width="3"/>
            <line id="Line_1300" data-name="Line 1300" y2="4.069" transform="translate(0 11.567)" fill="none" stroke="#0073ff" stroke-linecap="round" stroke-linejoin="round" stroke-width="3"/>
            <line id="Line_1301" data-name="Line 1301" y2="4.069" transform="translate(9.074 11.567)" fill="none" stroke="#0073ff" stroke-linecap="round" stroke-linejoin="round" stroke-width="3"/>
            <line id="Line_1302" data-name="Line 1302" y2="4.069" transform="translate(18.148 11.567)" fill="none" stroke="#0073ff" stroke-linecap="round" stroke-linejoin="round" stroke-width="3"/>
            <line id="Line_1303" data-name="Line 1303" y2="4.069" transform="translate(0 23.134)" fill="none" stroke="#0073ff" stroke-linecap="round" stroke-linejoin="round" stroke-width="3"/>
            <line id="Line_1304" data-name="Line 1304" y2="4.069" transform="translate(9.074 23.134)" fill="none" stroke="#0073ff" stroke-linecap="round" stroke-linejoin="round" stroke-width="3"/>
            <line id="Line_1305" data-name="Line 1305" y2="4.069" transform="translate(18.148 23.134)" fill="none" stroke="#0073ff" stroke-linecap="round" stroke-linejoin="round" stroke-width="3"/>
            <rect id="Rectangle_788" data-name="Rectangle 788" width="8.271" height="11.843" transform="translate(4.819 36.128)" stroke-width="3" stroke="#0073ff" stroke-linecap="round" stroke-linejoin="round" fill="none"/>
          </g>
        </g>
        <line id="Line_1306" data-name="Line 1306" y2="4.336" transform="translate(566.875 324.972)" fill="none" stroke="#0073ff" stroke-linecap="round" stroke-linejoin="round" stroke-width="3"/>
        <line id="Line_1307" data-name="Line 1307" y2="4.336" transform="translate(575.979 324.972)" fill="none" stroke="#0073ff" stroke-linecap="round" stroke-linejoin="round" stroke-width="3"/>
        <g id="Group_1987" data-name="Group 1987" transform="translate(188.05 198.514)">
          <path id="Path_1332" data-name="Path 1332" d="M1048.335,427.422l37.063-.147V381.733h-37.063Z" transform="translate(-1000.025 -353.039)" fill="#fff" stroke="#0073ff" stroke-linecap="round" stroke-linejoin="round" stroke-width="3"/>
          <g id="Group_1986" data-name="Group 1986" transform="translate(56.943 37.318)">
            <line id="Line_1308" data-name="Line 1308" y1="4.736" transform="translate(0 11.761)" fill="#fff" stroke="#0073ff" stroke-linecap="round" stroke-linejoin="round" stroke-width="3"/>
            <line id="Line_1309" data-name="Line 1309" y1="4.736" transform="translate(10.073 11.761)" fill="#fff" stroke="#0073ff" stroke-linecap="round" stroke-linejoin="round" stroke-width="3"/>
            <line id="Line_1310" data-name="Line 1310" y1="4.736" transform="translate(20.146 11.761)" fill="#fff" stroke="#0073ff" stroke-linecap="round" stroke-linejoin="round" stroke-width="3"/>
            <line id="Line_1311" data-name="Line 1311" y1="4.736" stroke-width="3" stroke="#0073ff" stroke-linecap="round" stroke-linejoin="round" fill="#fff"/>
            <line id="Line_1312" data-name="Line 1312" y1="4.736" transform="translate(10.073)" fill="#fff" stroke="#0073ff" stroke-linecap="round" stroke-linejoin="round" stroke-width="3"/>
            <line id="Line_1313" data-name="Line 1313" y1="4.736" transform="translate(20.146)" fill="#fff" stroke="#0073ff" stroke-linecap="round" stroke-linejoin="round" stroke-width="3"/>
            <line id="Line_1314" data-name="Line 1314" y1="4.736" transform="translate(0 23.522)" fill="#fff" stroke="#0073ff" stroke-linecap="round" stroke-linejoin="round" stroke-width="3"/>
            <line id="Line_1315" data-name="Line 1315" y1="4.736" transform="translate(10.073 23.522)" fill="#fff" stroke="#0073ff" stroke-linecap="round" stroke-linejoin="round" stroke-width="3"/>
            <line id="Line_1316" data-name="Line 1316" y1="4.736" transform="translate(20.146 23.522)" fill="#fff" stroke="#0073ff" stroke-linecap="round" stroke-linejoin="round" stroke-width="3"/>
          </g>
          <path id="Path_1333" data-name="Path 1333" d="M1031.524,366.712V348.689m3.834,27.128v4.74m-9.274,0v-4.74m9.274,25.706v4.74m-9.274,0v-4.74m9.274-12.372v4.74m-9.274,0v-4.74m0,30.66v-4.74m-9.045,19.717V367.341h27.177v55.614h0a11.873,11.873,0,0,0-8.224,3.309l-5.433,5.217a11.872,11.872,0,0,1-8.224,3.309Z" transform="translate(-995.906 -348.689)" fill="#fff" stroke="#0073ff" stroke-linecap="round" stroke-linejoin="round" stroke-width="3"/>
          <line id="Line_1317" data-name="Line 1317" x2="20.699" transform="translate(0 86.219)" fill="#fff" stroke="#0073ff" stroke-linecap="round" stroke-linejoin="round" stroke-width="3"/>
          <line id="Line_1318" data-name="Line 1318" x1="9.198" transform="translate(80.263 74.383)" fill="#fff" stroke="#0073ff" stroke-linecap="round" stroke-linejoin="round" stroke-width="3"/>
        </g>
        <line id="Line_1319" data-name="Line 1319" y1="9.105" transform="translate(249.855 216.537)" fill="#fff" stroke="#0073ff" stroke-linecap="round" stroke-linejoin="round" stroke-width="3"/>
        <line id="Line_1320" data-name="Line 1320" y1="9.105" transform="translate(261.752 216.537)" fill="#fff" stroke="#0073ff" stroke-linecap="round" stroke-linejoin="round" stroke-width="3"/>
        <line id="Line_1321" data-name="Line 1321" y1="38.578" transform="translate(514.614 205.239)" fill="none" stroke="#0073ff" stroke-linecap="round" stroke-linejoin="round" stroke-width="3"/>
        <line id="Line_1322" data-name="Line 1322" y2="22.695" transform="translate(407.747 195.871)" fill="none" stroke="#0073ff" stroke-linecap="round" stroke-linejoin="round" stroke-width="3"/>
        <path id="Path_1334" data-name="Path 1334" d="M1377.351,336.614c-3.59,10.789-21.532,26.041-34.744,22.492-11.913,6.1-100.134-11.969-106.867-14.649-9.112,11.348-50.429,24.17-65.707,24.17" transform="translate(-827.994 -148.585)" fill="none" stroke="#0073ff" stroke-linecap="round" stroke-linejoin="round" stroke-width="3"/>
        <path id="Path_1335" data-name="Path 1335" d="M1034.72,352.032c6.825,6.824,20.976,19.672,24.937,17.3a10.665,10.665,0,0,0,12.277,0,8.742,8.742,0,0,0,5.4,1.965h21.8a3.667,3.667,0,0,1,3.131,2.317" transform="translate(-810.182 -150.615)" fill="none" stroke="#0073ff" stroke-linecap="round" stroke-linejoin="round" stroke-width="3"/>
        <path id="Path_1336" data-name="Path 1336" d="M1162.076,375.421a3.347,3.347,0,0,1,3-1.943h7.385" transform="translate(-826.946 -153.437)" fill="none" stroke="#0073ff" stroke-linecap="round" stroke-linejoin="round" stroke-width="3"/>
        <g id="Group_1989" data-name="Group 1989" transform="translate(442.696 367.208)">
          <g id="Group_1988" data-name="Group 1988">
            <path id="Path_1337" data-name="Path 1337" d="M1296.711,542.953a10.765,10.765,0,1,0,10.763,10.766A10.767,10.767,0,0,0,1296.711,542.953Z" transform="translate(-1285.947 -542.953)" fill="none" stroke="#0073ff" stroke-linecap="round" stroke-linejoin="round" stroke-width="3"/>
            <path id="Path_1338" data-name="Path 1338" d="M1299.141,557.309h1.312c1.987,0,3.6-2.066,3.6-4.62" transform="translate(-1287.684 -544.235)" fill="none" stroke="#0073ff" stroke-linecap="round" stroke-linejoin="round" stroke-width="3"/>
            <path id="Path_1339" data-name="Path 1339" d="M1297.577,560.677h-1.488a3.567,3.567,0,0,1-3.569-3.567" transform="translate(-1286.812 -544.816)" fill="none" stroke="#0073ff" stroke-linecap="round" stroke-linejoin="round" stroke-width="3"/>
            <line id="Line_1323" data-name="Line 1323" y1="23.805" transform="translate(10.765 4.822)" fill="none" stroke="#0073ff" stroke-linecap="round" stroke-linejoin="round" stroke-width="3"/>
          </g>
        </g>
        <path id="Path_1340" data-name="Path 1340" d="M1152.557,561.123a3.211,3.211,0,1,1-3.211-3.212A3.2,3.2,0,0,1,1152.557,561.123Z" transform="translate(-824.848 -177.714)" fill="none" stroke="#0073ff" stroke-linecap="round" stroke-linejoin="round" stroke-width="2.4"/>
        <g id="Group_1990" data-name="Group 1990" transform="translate(320.34 378.35)">
          <path id="Path_1341" data-name="Path 1341" d="M1153.066,558.783l1.151-3-2.659,2.227" transform="translate(-1145.902 -555.784)" fill="none" stroke="#0073ff" stroke-linecap="round" stroke-linejoin="round" stroke-width="2.4"/>
          <path id="Path_1342" data-name="Path 1342" d="M1146.195,558.783l-1.151-3,2.659,2.227" transform="translate(-1145.044 -555.784)" fill="none" stroke="#0073ff" stroke-linecap="round" stroke-linejoin="round" stroke-width="2.4"/>
        </g>
        <path id="Path_1343" data-name="Path 1343" d="M1160.083,571.948s3.172,1.6,4.83-.668c1.923-2.628-2.039-4.652.03-7.2" transform="translate(-826.684 -178.526)" fill="none" stroke="#0073ff" stroke-linecap="round" stroke-linejoin="round" stroke-width="2.4"/>
        <path id="Path_1344" data-name="Path 1344" d="M1147.8,565.719v5.71a1.371,1.371,0,0,0-1.514,1.311c0,1.085.391,1.326,1.592,1.326" transform="translate(-824.868 -178.742)" fill="none" stroke="#0073ff" stroke-linecap="round" stroke-linejoin="round" stroke-width="2.4"/>
        <path id="Path_1345" data-name="Path 1345" d="M1152.6,564.063c2.06,0,6.693,4.455,6.5,7.8" transform="translate(-825.699 -178.524)" fill="none" stroke="#0073ff" stroke-linecap="round" stroke-linejoin="round" stroke-width="2.4"/>
        <path id="Path_1346" data-name="Path 1346" d="M1154.533,569.68a2.126,2.126,0,0,0-1.933,2.061v2.25" transform="translate(-825.699 -179.263)" fill="none" stroke="#0073ff" stroke-linecap="round" stroke-linejoin="round" stroke-width="2.4"/>
        <g id="Group_1992" data-name="Group 1992" transform="translate(301.973 208.085)">
          <circle id="Ellipse_182" data-name="Ellipse 182" cx="14.443" cy="14.443" r="14.443" stroke-width="3" stroke="#0073ff" stroke-linecap="round" stroke-linejoin="round" fill="none"/>
          <g id="Group_1991" data-name="Group 1991" transform="translate(9.828 9.828)">
            <line id="Line_1324" data-name="Line 1324" x1="9.229" y2="9.229" stroke-width="3" stroke="#0073ff" stroke-linecap="round" stroke-linejoin="round" fill="none"/>
            <line id="Line_1325" data-name="Line 1325" x2="9.229" y2="9.229" stroke-width="3" stroke="#0073ff" stroke-linecap="round" stroke-linejoin="round" fill="none"/>
          </g>
        </g>
        <path id="Path_1347" data-name="Path 1347" d="M1240.273,447.977h-61.161l-4.875,12.544h70.91Z" transform="translate(-828.547 -163.244)" fill="#fff" stroke="#0073ff" stroke-linecap="round" stroke-linejoin="round" stroke-width="3"/>
      </g>
      <path id="Path_1348" data-name="Path 1348" d="M1490.637,334.647h-78.211l6.472-12.977h65.268Z" transform="translate(-88.321 -26.534)" fill="#fff" stroke="#0073ff" stroke-linecap="round" stroke-linejoin="round" stroke-width="3"/>
      <line id="Line_1326" data-name="Line 1326" y1="13.259" transform="translate(1354.016 281.876)" fill="#fff" stroke="#0073ff" stroke-linecap="round" stroke-linejoin="round" stroke-width="3"/>
      <path id="Path_1349" data-name="Path 1349" d="M855.068,452.568l23.216-29.094c13.224,13.811,31.445,21.453,52.016,21.453,23.218,0,36.441-13.224,36.441-29.094,0-17.339-12.93-29.095-35.265-29.095-16.163,0-29.387,4.7-41.143,15.87l-29.094-7.641V282.412h134.6v36.736H902.97v47.9c9.4-9.4,25.273-16.457,43.2-16.457,33.208,0,62.89,23.8,62.89,63.477,0,41.731-31.151,67.887-78.466,67.887C896.505,481.956,871.819,470.789,855.068,452.568Z" transform="translate(-14.957 -21.367)" fill="#0073ff"/>
      <g id="Group_1996" data-name="Group 1996" transform="translate(741.436 290.038)">
        <path id="Path_1350" data-name="Path 1350" d="M898,386.133H817.862V352.244H898Zm-72.626-8.845h7.51m50.1,0h7.509m-65.115-8.1h7.51m50.1,0h7.509m-65.115-8.1h7.51m6.891,0h7.51m6.892,0h7.509m6.892,0h7.51m6.892,0h7.509M872.43,386.133H845.718V374.617H872.43ZM840.9,369.188H874.96M853.686,379.2v6.937m9.992-6.937v6.937m19.3-33.889h-47.15V339.8h47.15ZM869.33,339.8H850.389l3.483-10.432h11.975Zm-43.957,12.442V315.8m-2.9,16.178h4.5c.826,0,1.494,1.168,1.494,2.609s-.669,2.608-1.494,2.608m-4.5-16.683h4.5c.826,0,1.494,1.167,1.494,2.608s-.669,2.608-1.494,2.608" transform="translate(-751.496 -315.8)" fill="#fff" stroke="#0073ff" stroke-linecap="round" stroke-linejoin="round" stroke-width="3"/>
        <g id="Group_1994" data-name="Group 1994" transform="translate(0 70.333)">
          <path id="Path_1351" data-name="Path 1351" d="M878.985,396.794H805.178a40.631,40.631,0,0,0-28.731,11.9h0c-7.62,7.621-15.784,11.9-26.56,11.9h-8.45" transform="translate(-741.436 -396.794)" fill="none" stroke="#0073ff" stroke-linecap="round" stroke-linejoin="round" stroke-width="3"/>
        </g>
        <g id="Group_1995" data-name="Group 1995" transform="translate(79.994 70.333)">
          <path id="Path_1352" data-name="Path 1352" d="M833.555,423.013,844.2,396.794h33.951L888.8,423.013" transform="translate(-833.555 -396.794)" fill="#fff" stroke="#0073ff" stroke-linecap="round" stroke-linejoin="round" stroke-width="3"/>
          <line id="Line_1327" data-name="Line 1327" x2="38.674" transform="translate(8.285 5.791)" fill="#fff" stroke="#0073ff" stroke-linecap="round" stroke-linejoin="round" stroke-width="3"/>
          <line id="Line_1328" data-name="Line 1328" x2="44.105" transform="translate(5.57 12.45)" fill="#fff" stroke="#0073ff" stroke-linecap="round" stroke-linejoin="round" stroke-width="3"/>
          <line id="Line_1329" data-name="Line 1329" x2="49.536" transform="translate(2.854 19.108)" fill="#fff" stroke="#0073ff" stroke-linecap="round" stroke-linejoin="round" stroke-width="3"/>
          <line id="Line_1330" data-name="Line 1330" x2="55.244" transform="translate(0 26.218)" fill="#fff" stroke="#0073ff" stroke-linecap="round" stroke-linejoin="round" stroke-width="3"/>
        </g>
      </g>
      <path id="Path_1353" data-name="Path 1353" d="M1252.037,380.122c0-50.547,24.979-101.094,81.111-101.094,55.835,0,81.109,50.547,81.109,101.094s-25.274,101.388-81.109,101.388C1277.016,481.511,1252.037,430.669,1252.037,380.122Zm119.609,0c0-36.147-10.58-64.065-38.5-64.065-28.213,0-38.793,27.918-38.793,64.065s10.579,64.359,38.793,64.359C1361.065,444.481,1371.646,416.269,1371.646,380.122Z" transform="translate(-67.21 -20.922)" fill="#0073ff"/>
    </g>
  </g>
</svg>
