<svg xmlns="http://www.w3.org/2000/svg" viewBox="0 0 17.71 14.19"><defs><style>.cls-1{fill:#fff;}</style></defs><title>Asset 1</title><g id="Layer_2" data-name="Layer 2"><g id="Layer_1-2" data-name="Layer 1"><path class="cls-1" d="M8.86,14.19l-.53-.32A5.84,5.84,0,0,0,4.85,13c-2.06.05-3.8,0-3.88,0L0,13V.06L1,0C1,0,2.71,0,4.8,0A7.82,7.82,0,0,1,8.86,1.21,7.78,7.78,0,0,1,12.93,0C15,0,16.68,0,16.75,0l1,0V13l-1,0c-.07,0-1.81,0-3.82,0a5.76,5.76,0,0,0-3.54.85Zm1-11.25v8.5A7.69,7.69,0,0,1,13,11c1,0,2,0,2.7,0V2C15,2,14.05,2,13,2A6,6,0,0,0,9.85,2.94ZM5.32,11a7.57,7.57,0,0,1,2.53.44V2.94A5.71,5.71,0,0,0,4.77,2C3.67,2,2.68,2,2,2v9c.7,0,1.7,0,2.76,0A5.12,5.12,0,0,1,5.32,11Zm.86-4.57c-.34-.08-.89-.15-1.08-.18H2.87v-2H5.29s.85.11,1.33.22Zm5.53,0-.48-1.95a13.45,13.45,0,0,1,1.36-.22H15v2H12.76C12.52,6.27,12,6.35,11.71,6.42Z"/></g></g></svg>