<svg xmlns="http://www.w3.org/2000/svg" width="260.957" height="221.418" viewBox="0 0 260.957 221.418">
  <g id="cover_trasnport" transform="translate(-761 -1668)">
    <path id="Path_1570" data-name="Path 1570" d="M7023.093,1414.277h0a5.138,5.138,0,0,1,4.465-3.747,7.667,7.667,0,0,1,14.295,3.747h1.207a5.791,5.791,0,0,1,5.823,4.9,5.633,5.633,0,0,1-5.573,6.336h-20.26a5.619,5.619,0,1,1,.043-11.237Z" transform="translate(-6059.905 266.536)" fill="none" stroke="#0073ff" stroke-linecap="round" stroke-linejoin="round" stroke-width="2"/>
    <path id="Path_1571" data-name="Path 1571" d="M6893.425,1416.078a6.326,6.326,0,0,0-6.362-5.354h-1.318a8.377,8.377,0,0,0-15.618-4.094h-2.121a5.883,5.883,0,0,0-5.735,4.594h-3.319a5.888,5.888,0,0,0,0,11.776h28.384A6.154,6.154,0,0,0,6893.425,1416.078Z" transform="translate(-6059.905 266.536)" fill="none" stroke="#0073ff" stroke-linecap="round" stroke-linejoin="round" stroke-width="2"/>
    <path id="Path_1572" data-name="Path 1572" d="M6836.4,1429.423h0a2.658,2.658,0,0,1,2.309-1.938,3.965,3.965,0,0,1,7.392,1.938h.625a3,3,0,0,1,3.011,2.534,2.914,2.914,0,0,1-2.882,3.277h-10.477a2.906,2.906,0,1,1,.022-5.811Z" transform="translate(-6059.905 266.536)" fill="none" stroke="#0073ff" stroke-linecap="round" stroke-linejoin="round" stroke-width="2"/>
    <circle id="Ellipse_210" data-name="Ellipse 210" cx="53" cy="53" r="53" transform="translate(838.479 1689.885)" fill="#fff"/>
    <path id="Path_1573" data-name="Path 1573" d="M6989.454,1460.658h-11.017v-13.7a1.957,1.957,0,0,0-1.957-1.957h-50.191a1.957,1.957,0,0,0-1.956,1.957v13.7h-11.018a.489.489,0,0,0-.489.489v10.127a.978.978,0,0,0,.978.978h6.262a.489.489,0,0,0,.489-.489v-7.24h3.778v34.79a.978.978,0,0,0,.978.978h4.91v8.921a.489.489,0,0,0,.49.489h8.211a.49.49,0,0,0,.49-.489v-8.921h24.13v8.921a.489.489,0,0,0,.489.489h8.212a.488.488,0,0,0,.489-.489v-8.921h4.727a.978.978,0,0,0,.978-.978v-34.79h3.777v7.24a.489.489,0,0,0,.489.489h6.262a.978.978,0,0,0,.978-.978v-10.127A.488.488,0,0,0,6989.454,1460.658Zm-56.639-10.675a.49.49,0,0,1,.49-.489h36.746a.489.489,0,0,1,.489.489v5.642a.489.489,0,0,1-.489.489h-36.746a.49.49,0,0,1-.49-.489Zm8.66,44.226-11.254-.957V1486.9l11.254,1.568Zm1.153-11.459-10.694-1.224a1.933,1.933,0,0,1-1.713-1.92v-17.015a1.934,1.934,0,0,1,1.933-1.933H6970.8a1.933,1.933,0,0,1,1.932,1.933V1479.6a1.932,1.932,0,0,1-1.714,1.92l-10.876,1.235A77.243,77.243,0,0,1,6942.628,1482.75Zm17.976,5.713,11.253-1.568v6.357l-11.253.957Z" transform="translate(-6059.905 266.536)" fill="#0073ff"/>
    <g id="Group_2405" data-name="Group 2405" transform="translate(-6059.905 266.536)">
      <g id="Group_2385" data-name="Group 2385">
        <path id="Path_1574" data-name="Path 1574" d="M6939.238,1589.136v5.273m11.065-29.17v-13.428h-5.672v13.564m-9.3,34.309v14.867h3.9V1605.2m6.793,0v16.686m-6.793-16.686v16.686m6.793-49.245v20.915m-6.793-20.915v8.394m12.142,13.378h-27.035V1605.2h29.683m-4.093-39.821h-22.208v7.262h29.665v-7.262h-7.457Zm-14.6,34.309h26.1v-10.226h-15.4m4.294-33.794h5.825v-8.076h-10.458v-11.763h-6.106v29.55m6.171,15.656h-14.068v8.1h14.342" fill="none" stroke="#0073ff" stroke-linecap="round" stroke-linejoin="round" stroke-width="2"/>
        <line id="Line_1716" data-name="Line 1716" x2="257.969" transform="translate(6821.905 1621.832)" fill="none" stroke="#0073ff" stroke-linecap="round" stroke-linejoin="round" stroke-width="2"/>
      </g>
      <g id="Group_2390" data-name="Group 2390">
        <g id="Group_2388" data-name="Group 2388">
          <g id="Group_2386" data-name="Group 2386">
            <rect id="Rectangle_866" data-name="Rectangle 866" width="13.453" height="8.076" transform="translate(7033.49 1594.572)" stroke-width="2" stroke="#0073ff" stroke-linecap="round" stroke-linejoin="round" fill="none"/>
            <rect id="Rectangle_867" data-name="Rectangle 867" width="13.453" height="8.076" transform="translate(6991.945 1594.572)" stroke-width="2" stroke="#0073ff" stroke-linecap="round" stroke-linejoin="round" fill="none"/>
            <rect id="Rectangle_868" data-name="Rectangle 868" width="9.062" height="8.076" transform="translate(6975.121 1594.572)" stroke-width="2" stroke="#0073ff" stroke-linecap="round" stroke-linejoin="round" fill="none"/>
            <path id="Path_1575" data-name="Path 1575" d="M7066.524,1602.648h-11.049v-8.076h8.988Z" fill="none" stroke="#0073ff" stroke-linecap="round" stroke-linejoin="round" stroke-width="2"/>
          </g>
          <line id="Line_1717" data-name="Line 1717" x1="2.751" transform="translate(7066.524 1611.271)" fill="none" stroke="#0073ff" stroke-linecap="round" stroke-linejoin="round" stroke-width="2"/>
          <g id="Group_2387" data-name="Group 2387">
            <path id="Path_1576" data-name="Path 1576" d="M6990.564,1615.312h-18.909v-5.165h3.5v-18.075a2.516,2.516,0,0,1,2.516-2.516h82.5a3.852,3.852,0,0,1,3.732,2.893l3.258,12.669a5.815,5.815,0,0,1,.181,1.437v7.361a1.4,1.4,0,0,1-1.4,1.4h-13.475" fill="none" stroke="#0073ff" stroke-linecap="round" stroke-linejoin="round" stroke-width="2"/>
            <line id="Line_1718" data-name="Line 1718" x1="41.89" transform="translate(7000.815 1615.312)" fill="none" stroke="#0073ff" stroke-linecap="round" stroke-linejoin="round" stroke-width="2"/>
          </g>
          <path id="Path_1577" data-name="Path 1577" d="M7047.587,1610.426a4.885,4.885,0,1,0,4.882,4.885A4.882,4.882,0,0,0,7047.587,1610.426Z" fill="none" stroke="#0073ff" stroke-linecap="round" stroke-linejoin="round" stroke-width="2"/>
        </g>
        <path id="Path_1578" data-name="Path 1578" d="M6995.446,1610.426a4.885,4.885,0,1,0,4.882,4.885A4.882,4.882,0,0,0,6995.446,1610.426Z" fill="none" stroke="#0073ff" stroke-linecap="round" stroke-linejoin="round" stroke-width="2"/>
        <g id="Group_2389" data-name="Group 2389">
          <rect id="Rectangle_869" data-name="Rectangle 869" width="10.543" height="20.739" transform="translate(7024.784 1615.311) rotate(180)" stroke-width="2" stroke="#0073ff" stroke-linecap="round" stroke-linejoin="round" fill="none"/>
          <line id="Line_1719" data-name="Line 1719" y1="17.425" transform="translate(7019.512 1597.887)" fill="none" stroke="#0073ff" stroke-linecap="round" stroke-linejoin="round" stroke-width="2"/>
        </g>
      </g>
      <g id="Group_2391" data-name="Group 2391">
        <path id="Path_1579" data-name="Path 1579" d="M6867.633,1611.711a4.242,4.242,0,1,1-4.243,4.243A4.242,4.242,0,0,1,6867.633,1611.711Z" fill="none" stroke="#0073ff" stroke-linecap="round" stroke-linejoin="round" stroke-width="2"/>
        <path id="Path_1580" data-name="Path 1580" d="M6902.326,1611.711a4.242,4.242,0,1,1-4.243,4.243A4.242,4.242,0,0,1,6902.326,1611.711Z" fill="none" stroke="#0073ff" stroke-linecap="round" stroke-linejoin="round" stroke-width="2"/>
        <line id="Line_1720" data-name="Line 1720" x1="14.787" transform="translate(6903.24 1604)" fill="none" stroke="#0073ff" stroke-linecap="round" stroke-linejoin="round" stroke-width="2"/>
        <path id="Path_1581" data-name="Path 1581" d="M6876.616,1605.379" fill="none" stroke="#0073ff" stroke-linecap="round" stroke-linejoin="round" stroke-width="2"/>
        <path id="Path_1582" data-name="Path 1582" d="M6905.355,1604l-5.921-8.843h-18.323l-5.185,8.843" fill="none" stroke="#0073ff" stroke-linecap="round" stroke-linejoin="round" stroke-width="2"/>
        <path id="Path_1583" data-name="Path 1583" d="M6906.422,1614.365h8.225V1604" fill="none" stroke="#0073ff" stroke-linecap="round" stroke-linejoin="round" stroke-width="2"/>
        <line id="Line_1721" data-name="Line 1721" x2="25.194" transform="translate(6872.102 1614.344)" fill="none" stroke="#0073ff" stroke-linecap="round" stroke-linejoin="round" stroke-width="2"/>
        <path id="Path_1584" data-name="Path 1584" d="M6862.8,1614.344H6855.9a1.054,1.054,0,0,1-1.054-1.053v-5.6a1.743,1.743,0,0,1,1.549-1.732l19.536-1.962" fill="none" stroke="#0073ff" stroke-linecap="round" stroke-linejoin="round" stroke-width="2"/>
        <path id="Path_1585" data-name="Path 1585" d="M6875.926,1604c.319-.162,27.314,0,27.314,0" fill="none" stroke="#0073ff" stroke-linecap="round" stroke-linejoin="round" stroke-width="2"/>
      </g>
      <g id="Group_2392" data-name="Group 2392">
        <line id="Line_1722" data-name="Line 1722" y2="2.811" transform="translate(6847.386 1619.02)" fill="none" stroke="#0073ff" stroke-linecap="round" stroke-linejoin="round" stroke-width="2"/>
        <line id="Line_1723" data-name="Line 1723" y2="5.623" transform="translate(6843.102 1616.209)" fill="none" stroke="#0073ff" stroke-linecap="round" stroke-linejoin="round" stroke-width="2"/>
        <line id="Line_1724" data-name="Line 1724" y2="2.811" transform="translate(6838.817 1619.02)" fill="none" stroke="#0073ff" stroke-linecap="round" stroke-linejoin="round" stroke-width="2"/>
      </g>
      <path id="Path_1586" data-name="Path 1586" d="M6918.026,1569.342H6896.8a19.3,19.3,0,0,0-13.646,5.653h0a19.3,19.3,0,0,1-13.646,5.652h-39.723" fill="none" stroke="#0073ff" stroke-linecap="round" stroke-linejoin="round" stroke-width="2"/>
      <path id="Path_1587" data-name="Path 1587" d="M6971.655,1560.973h18.118a19.687,19.687,0,0,1,13.921,5.766h0a19.691,19.691,0,0,0,13.922,5.767h63.248" fill="none" stroke="#0073ff" stroke-linecap="round" stroke-linejoin="round" stroke-width="2"/>
      <g id="Group_2393" data-name="Group 2393">
        <line id="Line_1725" data-name="Line 1725" x1="43.688" transform="translate(7027.111 1559.666)" fill="none" stroke="#0073ff" stroke-linecap="round" stroke-linejoin="round" stroke-width="2"/>
        <line id="Line_1726" data-name="Line 1726" y2="16.292" transform="translate(7053.995 1550.9)" fill="none" stroke="#0073ff" stroke-linecap="round" stroke-linejoin="round" stroke-width="2"/>
        <line id="Line_1727" data-name="Line 1727" y2="16.292" transform="translate(7046.332 1550.9)" fill="none" stroke="#0073ff" stroke-linecap="round" stroke-linejoin="round" stroke-width="2"/>
        <path id="Path_1588" data-name="Path 1588" d="M7064.529,1550.9h-37.78v16.292h4.792a3.22,3.22,0,0,1,6.41,0h21.819a3.22,3.22,0,0,1,6.41,0h4.62v-8.146Z" fill="none" stroke="#0073ff" stroke-linecap="round" stroke-linejoin="round" stroke-width="2"/>
        <path id="Path_1589" data-name="Path 1589" d="M7037.034,1565.238a3.237,3.237,0,1,1-4.577,0A3.238,3.238,0,0,1,7037.034,1565.238Zm28.23,0a3.237,3.237,0,1,0,0,4.578A3.238,3.238,0,0,0,7065.264,1565.238Z" fill="none" stroke="#0073ff" stroke-linecap="round" stroke-linejoin="round" stroke-width="2"/>
      </g>
      <g id="Group_2395" data-name="Group 2395">
        <path id="Path_1590" data-name="Path 1590" d="M6910.01,1552.166h-12.529l-1.157,5.766v6.954h14.843v-6.954Z" fill="none" stroke="#0073ff" stroke-linecap="round" stroke-linejoin="round" stroke-width="2"/>
        <line id="Line_1728" data-name="Line 1728" x2="14.843" transform="translate(6896.324 1557.932)" fill="none" stroke="#0073ff" stroke-linecap="round" stroke-linejoin="round" stroke-width="2"/>
        <g id="Group_2394" data-name="Group 2394">
          <line id="Line_1729" data-name="Line 1729" y2="0.567" transform="translate(6899.508 1561.135)" fill="none" stroke="#0073ff" stroke-linecap="round" stroke-linejoin="round" stroke-width="2"/>
          <line id="Line_1730" data-name="Line 1730" y2="0.567" transform="translate(6907.983 1561.135)" fill="none" stroke="#0073ff" stroke-linecap="round" stroke-linejoin="round" stroke-width="2"/>
        </g>
        <line id="Line_1731" data-name="Line 1731" x2="2.741" transform="translate(6902.375 1561.702)" fill="none" stroke="#0073ff" stroke-linecap="round" stroke-linejoin="round" stroke-width="2"/>
      </g>
      <g id="Group_2396" data-name="Group 2396">
        <line id="Line_1732" data-name="Line 1732" y2="2.91" transform="translate(6898.546 1564.886)" fill="none" stroke="#0073ff" stroke-linecap="round" stroke-linejoin="round" stroke-width="2"/>
        <line id="Line_1733" data-name="Line 1733" y2="2.91" transform="translate(6908.945 1564.886)" fill="none" stroke="#0073ff" stroke-linecap="round" stroke-linejoin="round" stroke-width="2"/>
      </g>
      <g id="Group_2397" data-name="Group 2397">
        <line id="Line_1734" data-name="Line 1734" y2="4.258" transform="translate(6987.868 1556.715)" fill="none" stroke="#0073ff" stroke-linecap="round" stroke-linejoin="round" stroke-width="2"/>
        <line id="Line_1735" data-name="Line 1735" y2="8.516" transform="translate(6981.379 1552.457)" fill="none" stroke="#0073ff" stroke-linecap="round" stroke-linejoin="round" stroke-width="2"/>
        <line id="Line_1736" data-name="Line 1736" y1="4.258" transform="translate(6974.89 1556.715)" fill="none" stroke="#0073ff" stroke-linecap="round" stroke-linejoin="round" stroke-width="2"/>
      </g>
      <g id="Group_2400" data-name="Group 2400">
        <g id="Group_2399" data-name="Group 2399">
          <rect id="Rectangle_870" data-name="Rectangle 870" width="20.793" height="26.573" transform="translate(6878.691 1507.709)" stroke-width="2" stroke="#0073ff" stroke-linecap="round" stroke-linejoin="round" fill="none"/>
          <g id="Group_2398" data-name="Group 2398">
            <line id="Line_1737" data-name="Line 1737" y1="3.79" transform="translate(6885.6 1514.031)" fill="none" stroke="#0073ff" stroke-linecap="round" stroke-linejoin="round" stroke-width="2"/>
            <line id="Line_1738" data-name="Line 1738" y1="3.79" transform="translate(6892.161 1514.031)" fill="none" stroke="#0073ff" stroke-linecap="round" stroke-linejoin="round" stroke-width="2"/>
            <line id="Line_1739" data-name="Line 1739" y1="3.79" transform="translate(6885.6 1523.443)" fill="none" stroke="#0073ff" stroke-linecap="round" stroke-linejoin="round" stroke-width="2"/>
            <line id="Line_1740" data-name="Line 1740" y1="3.79" transform="translate(6892.161 1523.443)" fill="none" stroke="#0073ff" stroke-linecap="round" stroke-linejoin="round" stroke-width="2"/>
          </g>
          <path id="Path_1591" data-name="Path 1591" d="M6868.535,1497.668V1486.96m3.068,30.077v3.793m-7.422,0v-3.793m7.422-9.9v3.793m-7.422,0v-3.793m0,24.537v-3.793m-7.238,15.779v-45.488h21.748v36.017h0a9.5,9.5,0,0,0-6.581,2.648l-4.348,4.175a9.5,9.5,0,0,1-6.581,2.648Z" fill="none" stroke="#0073ff" stroke-linecap="round" stroke-linejoin="round" stroke-width="2"/>
          <line id="Line_1741" data-name="Line 1741" x2="16.035" transform="translate(6840.561 1543.754)" fill="none" stroke="#0073ff" stroke-linecap="round" stroke-linejoin="round" stroke-width="2"/>
        </g>
        <line id="Line_1742" data-name="Line 1742" x2="9.958" transform="translate(6895.8 1534.282)" fill="none" stroke="#0073ff" stroke-linecap="round" stroke-linejoin="round" stroke-width="2"/>
      </g>
      <g id="Group_2401" data-name="Group 2401">
        <line id="Line_1743" data-name="Line 1743" x2="7.96" transform="translate(6848.992 1572.169)" fill="none" stroke="#0073ff" stroke-linecap="round" stroke-linejoin="round" stroke-width="2"/>
        <path id="Path_1592" data-name="Path 1592" d="M6867.1,1566.163h-27.547l13.331-14.353Z" fill="none" stroke="#0073ff" stroke-linecap="round" stroke-linejoin="round" stroke-width="2"/>
        <rect id="Rectangle_871" data-name="Rectangle 871" width="23.113" height="14.484" transform="translate(6841.33 1566.163)" stroke-width="2" stroke="#0073ff" stroke-linecap="round" stroke-linejoin="round" fill="none"/>
      </g>
      <g id="Group_2403" data-name="Group 2403">
        <g id="Group_2402" data-name="Group 2402">
          <path id="Path_1593" data-name="Path 1593" d="M7035.058,1539.69h-3.835l4.129-5.679h-3.369l5.139-7.072,5.139,7.072h-3.369l4.129,5.679h-7.964Z" fill="none" stroke="#0073ff" stroke-linecap="round" stroke-linejoin="round" stroke-width="2"/>
          <line id="Line_1744" data-name="Line 1744" y2="4.494" transform="translate(7037.123 1539.69)" fill="none" stroke="#0073ff" stroke-linecap="round" stroke-linejoin="round" stroke-width="2"/>
        </g>
        <path id="Path_1594" data-name="Path 1594" d="M6991.63,1539.509H7008.1a11.771,11.771,0,0,1,7.039,2.337h0a11.762,11.762,0,0,0,7.038,2.337h23.18" fill="none" stroke="#0073ff" stroke-linecap="round" stroke-linejoin="round" stroke-width="2"/>
      </g>
      <g id="Group_2404" data-name="Group 2404">
        <line id="Line_1745" data-name="Line 1745" y2="3.64" transform="translate(6996.348 1535.869)" fill="none" stroke="#0073ff" stroke-linecap="round" stroke-linejoin="round" stroke-width="2"/>
        <line id="Line_1746" data-name="Line 1746" y2="5.922" transform="translate(7001.626 1533.588)" fill="none" stroke="#0073ff" stroke-linecap="round" stroke-linejoin="round" stroke-width="2"/>
        <line id="Line_1747" data-name="Line 1747" y2="4.096" transform="translate(7006.904 1535.413)" fill="none" stroke="#0073ff" stroke-linecap="round" stroke-linejoin="round" stroke-width="2"/>
      </g>
    </g>
  </g>
</svg>
