<svg xmlns="http://www.w3.org/2000/svg" width="393.975" height="73.035"><defs><style>.a{fill:none;stroke:#fff;stroke-linecap:round;stroke-linejoin:round}</style></defs><path class="a" d="M53.489 63.503a3.116 3.116 0 01-3.12 3.112 3.115 3.115 0 01-3.118-3.112 3.116 3.116 0 013.118-3.115 3.117 3.117 0 013.12 3.115zm-.139 2.967a1.935 1.935 0 01-1.936 1.933h-1.045m-2.3-.318a1.5 1.5 0 001.5 1.494h.806m-1.2-6.42a.773.773 0 00.772.771m.426 8.432v-9.958M123.131.499v10.665m-10.287 31.584h-2.636m1.276-12.471l-5.763 6.793h11.525zm-12.06-1.405l5.5-3.1v3.1m12.323-9.427v-3.1m5.752 0v3.1m-5.752 9.428v-3.1m5.752 0v3.1m0 6.328v3.1m-17.277 10.453h11.524V37.071h-11.524zm5.762-30.815H99.522v13.425m29.927 17.389V11.164h-17.964v19.71m-5.763 8.459H93.01v9.176M81.8 39.295l-4.381 4.717v4.76h9.053v-4.76z"/><path class="a" d="M134.295 48.754H46.113a29.671 29.671 0 00-20.984 8.693 29.677 29.677 0 01-20.984 8.692H.499m145.863-11.958a6.835 6.835 0 00-6.833 6.835 6.834 6.834 0 006.833 6.832 6.835 6.835 0 006.833-6.832 6.836 6.836 0 00-6.833-6.835z"/><path class="a" d="M146.801 62.482h.833c1.261 0 2.285-1.312 2.285-2.933m-3.559 4.701h-.945a2.264 2.264 0 01-2.265-2.264m3.211 10.368V57.242m-13.556 14.395v-2.238m-3.411 0v2.238m-3.411-4.477v4.477m-3.412-2.238v2.238m-3.806 0v-2.238m-54.051-20.89v-2.238m-3.411 0v2.238m-3.411-4.476v4.477m-3.412-2.239v2.238m-3.806 0v-2.238m157.677 26.084H39.068m260.859-51.732h57.308v51.911h-57.308zm5.408 42.797v4.3m5.884-4.3v4.3m5.883-4.3v4.3m5.884-4.3v4.3m5.883-4.3v4.3m5.883-4.3v4.3m5.884-4.3v4.3m5.883-4.3v4.3m5.884-4.3v4.3m-47.066-20.083v4.3m5.884-4.3v4.3m5.883-4.3v4.3m5.884-4.3v4.3m5.883-4.3v4.3m5.883-4.3v4.3m5.884-4.3v4.3m5.883-4.3v4.3m5.884-4.3v4.3m-47.066-15.319v4.3m5.884-4.3v4.3m5.883-4.3v4.3m5.884-4.3v4.3m5.883-4.3v4.3m5.883-4.3v4.3m5.884-4.3v4.3m5.883-4.3v4.3m5.884-4.3v4.3m-47.465-14.232v4.3m5.884-4.3v4.3m5.883-4.3v4.3m5.884-4.3v4.3m5.883-4.3v4.3m5.884-4.3v4.3m5.883-4.3v4.3m5.883-4.3v4.3m5.884-4.3v4.3m-51.518 25.915h55.971m-61.674-36.833l4.451-5.255h59.164l4.453 5.256m11.947 52.465H270.746m-117.232-23.78h29.497M165.043 3.812h14.217v44.941h-14.217zm5.101 4.936v2.764m4.015-2.764v2.764m-4.015 3.818v2.764m4.015-2.764v2.764m-4.015 3.818v2.764m4.015-2.764v2.764m-4.015 3.818v2.764m4.015-2.764v2.764m-4.015 3.817v2.764m4.015-2.764v2.764m-4.015 3.818v2.764m4.015-2.764v2.764m101.743 28.113V70.16m3.565 2.375v-4.437m3.565 4.436V70.16m7.13 2.374V70.16m-3.565 2.375v-4.437M76.365 64.236H60.904l7.483-8.056z"/><path class="a" d="M61.899 64.232h12.973v8.129H61.899zm4.301 3.371h4.468m26.528-3.367H81.735l7.482-8.056z"/><path class="a" d="M82.73 64.232h12.973v8.129H82.73zm4.301 3.371h4.468m278.497-16.934l-2.6 3.1v3.132h5.364v-3.132zm-7.28 6.234h11.911a7.1 7.1 0 015.023 2.08 7.1 7.1 0 005.023 2.081h8.8"/><g transform="translate(386.753 55.02)"><path class="a" d="M2.071 4.28v1.763"/><circle class="a" cx="2.071" cy="2.071" r="2.071"/></g><path class="a" d="M132.805 40.916h3.669a12.352 12.352 0 008.732-3.616l4.649-4.65a12.349 12.349 0 018.732-3.617h2.77m-.655 43.322v-8.934h40.149v8.934m-35.306-5.815v2.859m4.351-2.859v2.859m4.351-2.859v2.859m4.351-2.859v2.859m4.35-2.859v2.859m4.351-2.859v2.859m4.351-2.859v2.859m4.351-2.859v2.859"/></svg>