<svg xmlns="http://www.w3.org/2000/svg" width="70" height="70" viewBox="0 0 70 70">
  <g id="bus_b_icon" transform="translate(-212 -2813)">
    <g id="Ellipse_144" data-name="Ellipse 144" transform="translate(212 2813)" fill="none" stroke="#0073ff" stroke-width="4">
      <circle cx="35" cy="35" r="35" stroke="none"/>
      <circle cx="35" cy="35" r="33" fill="none"/>
    </g>
    <path id="Path_1032" data-name="Path 1032" d="M340.432,135.771h-5.717v-4.737a4.613,4.613,0,0,0-4.614-4.614H307.028a4.615,4.615,0,0,0-4.614,4.614v4.737H296.7a1.152,1.152,0,0,0-1.154,1.154v3.461a2.307,2.307,0,0,0,2.307,2.307h1.154a1.154,1.154,0,0,0,1.154-1.154v-3.461h2.254v19.046a2.308,2.308,0,0,0,2.307,2.307h1.209V163.9a1.154,1.154,0,0,0,1.154,1.154h3.179a1.154,1.154,0,0,0,1.154-1.154v-4.464h14.406V163.9a1.154,1.154,0,0,0,1.154,1.154h3.179a1.154,1.154,0,0,0,1.154-1.154v-4.464h1.1a2.308,2.308,0,0,0,2.307-2.307V138.078h2.256v3.461a1.153,1.153,0,0,0,1.154,1.154h1.154a2.308,2.308,0,0,0,2.307-2.307v-3.461A1.153,1.153,0,0,0,340.432,135.771Zm-32.954-5.512a1.154,1.154,0,0,1,1.154-1.154h20.216A1.154,1.154,0,0,1,330,130.259V131.9a1.154,1.154,0,0,1-1.154,1.154H308.631a1.154,1.154,0,0,1-1.154-1.154Zm5.17,24.618a.835.835,0,0,1-.921.844l-4.877-.415a1.022,1.022,0,0,1-.921-1v-1.95a.783.783,0,0,1,.914-.8l4.891.681a1.1,1.1,0,0,1,.914,1.05Zm18.139-.57a1.024,1.024,0,0,1-.921,1l-4.88.415a.834.834,0,0,1-.918-.844v-1.585a1.1,1.1,0,0,1,.914-1.05l4.891-.681a.784.784,0,0,1,.914.8Zm.521-7.226a1.155,1.155,0,0,1-1.024,1.147l-6.493.736a46.066,46.066,0,0,1-10.456,0l-6.384-.731a1.153,1.153,0,0,1-1.022-1.147V136.925a1.153,1.153,0,0,1,1.154-1.154h23.072a1.153,1.153,0,0,1,1.154,1.154Z" transform="translate(-71.545 2701.693)" fill="#0073ff"/>
  </g>
</svg>
