<svg xmlns="http://www.w3.org/2000/svg" width="273.779" height="230.077" viewBox="0 0 273.779 230.077">
  <g id="cover_place" transform="translate(-328 -1340.999)">
    <g id="Group_2305" data-name="Group 2305" transform="translate(-572.567 -1946.995)">
      <circle id="Ellipse_203" data-name="Ellipse 203" cx="53" cy="53" r="53" transform="translate(984.567 3319.027)" fill="#fff"/>
      <path id="Path_1487" data-name="Path 1487" d="M1073.427,3375.343c-.047-.073-.079-.158-.127-.23s-.077-.158-.126-.231-8.564-15.629-8.612-15.7a12,12,0,0,0-9.171-5.563c-.011-.016-.018-.035-.028-.051s-.027-.056-.044-.081c-.746-1.091-1.188-2.4-1.925-3.5a6.988,6.988,0,0,0-5.876-3.244,7.117,7.117,0,0,0-7.041,7.19,7.351,7.351,0,0,0,.167,1.529c.394,2.079,1.3,4.058,1.75,6.125a8.009,8.009,0,0,0,.357,1.183,12.468,12.468,0,0,0-.43,3.1c0,.263.06.508.084.764l.224,1.612a21.642,21.642,0,0,0-10.122,0l0-.016-.068.016.355-2.566h0a12.694,12.694,0,0,0-.415-2.907,7.88,7.88,0,0,0,.357-1.184c.458-2.07,1.3-4.052,1.75-6.124a7.343,7.343,0,0,0,.167-1.529,7.117,7.117,0,0,0-7.041-7.19,6.989,6.989,0,0,0-5.876,3.244c-.765,1.139-1.226,2.494-2,3.628a12,12,0,0,0-9.171,5.563c-.048.073-.079.157-.126.231s-8.565,15.628-8.612,15.7-.08.157-.127.23a15.28,15.28,0,0,0-2.541,8.471,14.783,14.783,0,0,0,29.331,2.943c.019-.088.04-.173.057-.261s.041-.174.059-.262.04-.171.057-.259.04-.173.058-.261.04-.172.058-.26l.033-.151a28.171,28.171,0,0,1,5.4-.677,5.283,5.283,0,0,0,7.89,0,36.487,36.487,0,0,1,4.152.415c.012.05.023.1.033.151.018.088.039.174.059.262s.039.172.057.26.038.173.058.26.039.173.058.261.038.173.058.261.038.173.057.261a14.783,14.783,0,0,0,29.331-2.943A15.281,15.281,0,0,0,1073.427,3375.343Zm-59.448,19.264a10.8,10.8,0,1,1,10.569-10.793A10.683,10.683,0,0,1,1013.979,3394.607Zm24.163-10.767a2.909,2.909,0,1,1,2.887-2.908A2.873,2.873,0,0,1,1038.142,3383.84Zm23.015,10.767a10.8,10.8,0,1,1,10.57-10.793A10.683,10.683,0,0,1,1061.156,3394.607Z" transform="translate(0 -0.815)" fill="#0073ff"/>
    </g>
    <path id="Path_1507" data-name="Path 1507" d="M1126.19,3326.022a4.412,4.412,0,0,1,4.4-4.4h1.941a4.207,4.207,0,0,1,.946-2.131,3.937,3.937,0,0,0-2.307-.749h-.03a3.626,3.626,0,0,0-3.153-2.646,5.415,5.415,0,0,0-10.095,2.646h-1.029a3.968,3.968,0,0,0,0,7.935h9.382A4.434,4.434,0,0,1,1126.19,3326.022Zm31.252,0a4.412,4.412,0,0,1-4.4,4.4h-22.454a4.4,4.4,0,0,1,0-8.8h1.941a4.19,4.19,0,0,1,4.82-3.6,6,6,0,0,1,11.058.744,3.431,3.431,0,0,1,3.274,2.852h1.361A4.412,4.412,0,0,1,1157.442,3326.022Z" transform="translate(-576 -1959.995)" fill="none" stroke="#0073ff" stroke-linecap="round" stroke-linejoin="round" stroke-width="2"/>
    <path id="Path_1504" data-name="Path 1504" d="M956.718,3311.746h0a6.625,6.625,0,0,0-5.758-4.833,9.889,9.889,0,0,0-18.437,4.833h-1.556a7.468,7.468,0,0,0-7.51,6.32,7.264,7.264,0,0,0,7.187,8.171h26.129a7.246,7.246,0,1,0-.055-14.491Z" transform="translate(-576 -1959.995)" fill="none" stroke="#0073ff" stroke-linecap="round" stroke-linejoin="round" stroke-width="2"/>
    <g id="Group_2318" data-name="Group 2318" transform="translate(-571 -1948.447)">
      <g id="Group_2321" data-name="Group 2321">
        <g id="Group_2318-2" data-name="Group 2318">
          <rect id="Rectangle_844" data-name="Rectangle 844" width="51.121" height="30.368" transform="translate(1109.61 3488.007)" stroke-width="2" stroke="#0073ff" stroke-linecap="round" stroke-linejoin="round" fill="none"/>
          <line id="Line_1587" data-name="Line 1587" x2="51.121" transform="translate(1109.61 3503.376)" fill="none" stroke="#0073ff" stroke-linecap="round" stroke-linejoin="round" stroke-width="2"/>
          <path id="Path_1508" data-name="Path 1508" d="M1166.247,3487.966l-4.83-5.623h-52.575l-4.832,5.624" fill="none" stroke="#0073ff" stroke-linecap="round" stroke-linejoin="round" stroke-width="2"/>
        </g>
        <g id="Group_2319" data-name="Group 2319">
          <line id="Line_1588" data-name="Line 1588" y1="4.6" transform="translate(1153.216 3508.053)" fill="none" stroke="#0073ff" stroke-linecap="round" stroke-linejoin="round" stroke-width="2"/>
          <line id="Line_1589" data-name="Line 1589" y1="4.6" transform="translate(1146.077 3508.053)" fill="none" stroke="#0073ff" stroke-linecap="round" stroke-linejoin="round" stroke-width="2"/>
          <path id="Path_1509" data-name="Path 1509" d="M1131.8,3517.445v-9.392h6.042v9.931" fill="none" stroke="#0073ff" stroke-linecap="round" stroke-linejoin="round" stroke-width="2"/>
          <line id="Line_1590" data-name="Line 1590" y1="4.6" transform="translate(1124.66 3508.053)" fill="none" stroke="#0073ff" stroke-linecap="round" stroke-linejoin="round" stroke-width="2"/>
          <line id="Line_1591" data-name="Line 1591" y1="4.6" transform="translate(1117.52 3508.053)" fill="none" stroke="#0073ff" stroke-linecap="round" stroke-linejoin="round" stroke-width="2"/>
        </g>
        <g id="Group_2320" data-name="Group 2320">
          <line id="Line_1592" data-name="Line 1592" y1="4.6" transform="translate(1153.216 3493.463)" fill="none" stroke="#0073ff" stroke-linecap="round" stroke-linejoin="round" stroke-width="2"/>
          <line id="Line_1593" data-name="Line 1593" y1="4.6" transform="translate(1146.077 3493.463)" fill="none" stroke="#0073ff" stroke-linecap="round" stroke-linejoin="round" stroke-width="2"/>
          <line id="Line_1594" data-name="Line 1594" y2="4.6" transform="translate(1138.938 3493.463)" fill="none" stroke="#0073ff" stroke-linecap="round" stroke-linejoin="round" stroke-width="2"/>
          <line id="Line_1595" data-name="Line 1595" y1="4.6" transform="translate(1131.799 3493.463)" fill="none" stroke="#0073ff" stroke-linecap="round" stroke-linejoin="round" stroke-width="2"/>
          <line id="Line_1596" data-name="Line 1596" y1="4.6" transform="translate(1124.66 3493.463)" fill="none" stroke="#0073ff" stroke-linecap="round" stroke-linejoin="round" stroke-width="2"/>
          <line id="Line_1597" data-name="Line 1597" y1="4.6" transform="translate(1117.52 3493.463)" fill="none" stroke="#0073ff" stroke-linecap="round" stroke-linejoin="round" stroke-width="2"/>
        </g>
      </g>
      <g id="Group_2322" data-name="Group 2322">
        <path id="Path_1510" data-name="Path 1510" d="M1013.546,3486.633H955.832c-17.977,0-17.093,14.994-37.342,14.994h-4" fill="none" stroke="#0073ff" stroke-linecap="round" stroke-linejoin="round" stroke-width="2"/>
        <path id="Path_1511" data-name="Path 1511" d="M1006.511,3464.843H954.216v21.79h52.295Zm-47.393,16.1h4.9m32.691,0h4.9m-42.491-5.207h4.9m32.691,0h4.9m-42.491-5.207h4.9m4.5,0h4.9m4.5,0h4.9m4.5,0h4.9m4.5,0h4.9m-11.784,8.7H972.394v7.405h17.431Zm-20.574-3.49h22.225m-13.883,6.934v3.961m6.521-3.961v3.961m12.595-29.79H965.941v8h30.768Zm-11.18-6.707h-7.814l-2.273,6.707H987.8Zm-26.411,14.707v-23.432m1.044,13.756c.538,0,.975-.751.975-1.677s-.437-1.677-.975-1.677h-2.935m2.935-4.019c.538,0,.975-.751.975-1.677s-.437-1.677-.975-1.677h-2.935" fill="none" stroke="#0073ff" stroke-linecap="round" stroke-linejoin="round" stroke-width="2"/>
      </g>
      <g id="Group_2326" data-name="Group 2326">
        <path id="Path_1512" data-name="Path 1512" d="M1058.184,3475.382h6.924c11.854,0,14.673-12.14,25.827-12.14h22.139a23.506,23.506,0,0,1,15.765,6.07h0a23.5,23.5,0,0,0,15.764,6.07h5.234" fill="none" stroke="#0073ff" stroke-linecap="round" stroke-linejoin="round" stroke-width="2"/>
        <g id="Group_2325" data-name="Group 2325">
          <line id="Line_1598" data-name="Line 1598" y2="2.808" transform="translate(1101.665 3460.434)" fill="none" stroke="#0073ff" stroke-linecap="round" stroke-linejoin="round" stroke-width="2"/>
          <line id="Line_1599" data-name="Line 1599" y2="5.616" transform="translate(1097.386 3457.626)" fill="none" stroke="#0073ff" stroke-linecap="round" stroke-linejoin="round" stroke-width="2"/>
          <line id="Line_1600" data-name="Line 1600" y2="2.808" transform="translate(1093.107 3460.434)" fill="none" stroke="#0073ff" stroke-linecap="round" stroke-linejoin="round" stroke-width="2"/>
          <g id="Group_2324" data-name="Group 2324">
            <g id="Group_2323" data-name="Group 2323">
              <path id="Path_1513" data-name="Path 1513" d="M1110.074,3440.447a8.572,8.572,0,1,0,8.571,8.573A8.574,8.574,0,0,0,1110.074,3440.447Z" fill="none" stroke="#0073ff" stroke-linecap="round" stroke-linejoin="round" stroke-width="2"/>
              <path id="Path_1514" data-name="Path 1514" d="M1110.074,3449.07h1.565a2.9,2.9,0,0,0,2.9-2.9" fill="none" stroke="#0073ff" stroke-linecap="round" stroke-linejoin="round" stroke-width="2"/>
              <line id="Line_1601" data-name="Line 1601" y1="18.956" transform="translate(1110.074 3444.286)" fill="none" stroke="#0073ff" stroke-linecap="round" stroke-linejoin="round" stroke-width="2"/>
            </g>
          </g>
          <path id="Path_1515" data-name="Path 1515" d="M1109.357,3452.247a2.445,2.445,0,0,1-2.446-2.446" fill="none" stroke="#0073ff" stroke-linecap="round" stroke-linejoin="round" stroke-width="2"/>
        </g>
      </g>
      <g id="Group_2327" data-name="Group 2327">
        <path id="Path_1516" data-name="Path 1516" d="M1171.78,3518.375H900m135.041-54.358,0,5.892m33.84,31.125v3.6m-7.3-3.6v3.6m-6.991-3.6v3.6m14.29-12.22V3496m-7.3-3.595V3496m-6.991-3.595V3496m-24.138,2.939v3.6m8.768-3.6v3.6m0-14.312v3.6m-8.768-3.6v3.6m8.768-14.311v3.6m-8.768-3.6v3.6m45.247,36.68v-31.428h-28.684m0,21.99v-38.448h-23.955v48.456m42.818,0h-33.6v-10.008h33.6Zm-27.377-5h2.952m6.15,0h2.952m6.15,0h2.952" fill="none" stroke="#0073ff" stroke-linecap="round" stroke-linejoin="round" stroke-width="2"/>
      </g>
      <g id="Group_2328" data-name="Group 2328">
        <path id="Path_1517" data-name="Path 1517" d="M953.2,3513.325h-4.3l4.631-6.369H949.75l5.764-7.932,5.763,7.932H957.5l4.631,6.369H953.2Z" fill="none" stroke="#0073ff" stroke-linecap="round" stroke-linejoin="round" stroke-width="2"/>
        <line id="Line_1602" data-name="Line 1602" y2="5.04" transform="translate(955.514 3513.325)" fill="none" stroke="#0073ff" stroke-linecap="round" stroke-linejoin="round" stroke-width="2"/>
      </g>
      <g id="Group_2329" data-name="Group 2329">
        <path id="Path_1518" data-name="Path 1518" d="M1002.419,3513.325h-4.3l4.631-6.369h-3.778l5.763-7.932,5.763,7.932h-3.778l4.631,6.369h-8.933Z" fill="none" stroke="#0073ff" stroke-linecap="round" stroke-linejoin="round" stroke-width="2"/>
        <line id="Line_1603" data-name="Line 1603" y2="5.04" transform="translate(1004.735 3513.325)" fill="none" stroke="#0073ff" stroke-linecap="round" stroke-linejoin="round" stroke-width="2"/>
      </g>
      <path id="Path_1519" data-name="Path 1519" d="M933.255,3518.365v-6.56m5.094,6.56v-4.124m-10.188,4.124v-4.124" fill="none" stroke="#0073ff" stroke-linecap="round" stroke-linejoin="round" stroke-width="2"/>
      <path id="Path_1520" data-name="Path 1520" d="M973.416,3518.365" fill="#283348"/>
      <line id="Line_1604" data-name="Line 1604" x1="4.999" y2="30.624" transform="translate(972.294 3487.751)" fill="none" stroke="#0073ff" stroke-linecap="round" stroke-linejoin="round" stroke-width="2"/>
      <line id="Line_1605" data-name="Line 1605" x2="4.999" y2="30.624" transform="translate(984.114 3487.751)" fill="none" stroke="#0073ff" stroke-linecap="round" stroke-linejoin="round" stroke-width="2"/>
      <g id="Group_2330" data-name="Group 2330">
        <line id="Line_1606" data-name="Line 1606" x2="8.523" transform="translate(976.442 3492.803)" fill="none" stroke="#0073ff" stroke-linecap="round" stroke-linejoin="round" stroke-width="2"/>
        <line id="Line_1607" data-name="Line 1607" x2="10.703" transform="translate(975.352 3499.643)" fill="none" stroke="#0073ff" stroke-linecap="round" stroke-linejoin="round" stroke-width="2"/>
        <line id="Line_1608" data-name="Line 1608" x2="12.936" transform="translate(974.236 3506.483)" fill="none" stroke="#0073ff" stroke-linecap="round" stroke-linejoin="round" stroke-width="2"/>
        <line id="Line_1609" data-name="Line 1609" x2="15.332" transform="translate(973.038 3513.323)" fill="none" stroke="#0073ff" stroke-linecap="round" stroke-linejoin="round" stroke-width="2"/>
      </g>
      <g id="Group_2331" data-name="Group 2331">
        <path id="Path_1521" data-name="Path 1521" d="M1101.366,3509.926H1084.6l8.112-8.733Z" fill="none" stroke="#0073ff" stroke-linecap="round" stroke-linejoin="round" stroke-width="2"/>
        <rect id="Rectangle_845" data-name="Rectangle 845" width="12.483" height="8.449" transform="translate(1086.485 3509.926)" stroke-width="2" stroke="#0073ff" stroke-linecap="round" stroke-linejoin="round" fill="none"/>
        <line id="Line_1610" data-name="Line 1610" x2="2.643" transform="translate(1091.455 3513.429)" fill="none" stroke="#0073ff" stroke-linecap="round" stroke-linejoin="round" stroke-width="2"/>
      </g>
    </g>
  </g>
</svg>
