<svg xmlns="http://www.w3.org/2000/svg" width="273.781" height="229.508"><g data-name="Group 2362"><g data-name="Group 2336"><g data-name="Group 2332" stroke-width="2" stroke="#0073ff" stroke-linecap="round" stroke-linejoin="round" fill="none"><path data-name="Rectangle 846" d="M159.434 171.453h69.778v30.121h-69.778z"/><path data-name="Line 1611" d="M159.434 186.855h69.778"/><path data-name="Path 1522" d="M236.742 170.84l-6.592-7.118h-71.764l-6.6 7.118"/></g><g data-name="Group 2333"><path data-name="Path 1523" d="M169.181 227.835v-11.583h8.247V228.5" fill="none" stroke="#0073ff" stroke-linecap="round" stroke-linejoin="round" stroke-width="2"/></g><g data-name="Group 2334" fill="none" stroke="#0073ff" stroke-linecap="round" stroke-linejoin="round" stroke-width="2"><path data-name="Line 1612" d="M218.954 181.276v-4.048"/><path data-name="Line 1613" d="M209.209 181.276v-4.048"/><path data-name="Line 1614" d="M199.465 177.228v4.048"/><path data-name="Line 1615" d="M189.72 181.276v-4.048"/><path data-name="Line 1616" d="M179.975 181.276v-4.048"/><path data-name="Line 1617" d="M170.231 181.276v-4.048"/></g><g data-name="Group 2335" fill="none" stroke="#0073ff" stroke-linecap="round" stroke-linejoin="round" stroke-width="2"><path data-name="Line 1618" d="M218.954 196.251v-4.048"/><path data-name="Line 1619" d="M209.209 196.251v-4.048"/><path data-name="Line 1620" d="M199.465 192.203v4.048"/><path data-name="Line 1621" d="M189.72 196.251v-4.048"/><path data-name="Line 1622" d="M179.975 196.251v-4.048"/><path data-name="Line 1623" d="M170.231 196.251v-4.048"/></g><path data-name="Rectangle 847" stroke-width="2" stroke="#0073ff" stroke-linecap="round" stroke-linejoin="round" fill="none" d="M159.434 201.574h69.778v26.924h-69.778z"/><path data-name="Line 1624" fill="none" stroke="#0073ff" stroke-linecap="round" stroke-linejoin="round" stroke-width="2" d="M165.499 209.18h57.647"/><path data-name="Rectangle 848" stroke-width="2" stroke="#0073ff" stroke-linecap="round" stroke-linejoin="round" fill="none" d="M185.184 216.252h7.541v5.101h-7.541z"/><path data-name="Rectangle 849" stroke-width="2" stroke="#0073ff" stroke-linecap="round" stroke-linejoin="round" fill="none" d="M199.08 216.252h7.541v5.101h-7.541z"/><path data-name="Rectangle 850" stroke-width="2" stroke="#0073ff" stroke-linecap="round" stroke-linejoin="round" fill="none" d="M212.976 216.252h7.541v5.101h-7.541z"/></g><g data-name="Group 2337"><path data-name="Path 1524" d="M272.78 228.508H1" fill="none" stroke="#0073ff" stroke-linecap="round" stroke-linejoin="round" stroke-width="2"/></g><path data-name="Path 1526" d="M29.082 23.237h0a4.454 4.454 0 0 0-3.872-3.251 6.651 6.651 0 0 0-12.4 3.251h-1.047a5.023 5.023 0 0 0-5.051 4.251 4.886 4.886 0 0 0 4.834 5.5h17.575a4.874 4.874 0 1 0-.038-9.747z" fill="none" stroke="#0073ff" stroke-linecap="round" stroke-linejoin="round" stroke-width="2"/><path data-name="Path 1527" d="M46.504 59.45h0a2.656 2.656 0 0 1 2.309-1.938 3.965 3.965 0 0 1 7.392 1.938h.624a3 3 0 0 1 3.011 2.535 2.913 2.913 0 0 1-2.882 3.276H46.482a2.906 2.906 0 1 1 .022-5.811z" fill="none" stroke="#0073ff" stroke-linecap="round" stroke-linejoin="round" stroke-width="2"/><g data-name="Group 2340" transform="translate(-5808.965 -1393.374)"><circle data-name="Ellipse 204" cx="53" cy="53" r="53" transform="translate(5895.347 1423.349)" fill="#fff"/><g data-name="Group 2339" fill="#0073ff"><g data-name="Group 2338"><circle data-name="Ellipse 205" cx="23.378" cy="23.378" r="23.378" transform="translate(5924.95 1456.748)"/><circle data-name="Ellipse 206" cx="15.973" cy="15.973" r="15.973" transform="translate(5932.355 1464.153)" stroke="#f7f7f7" stroke-width="2"/></g><path data-name="Path 1528" d="M5985.963 1462.285c0-6.081-3.191-11.979-7.128-11.979s-7.128 5.9-7.128 11.979c0 4.469 1.731 7.777 4.208 9.226l-.865 27.378v.239a3.788 3.788 0 0 0 7.571-.239l-.866-27.378c2.477-1.449 4.208-4.757 4.208-9.226z"/><path data-name="Path 1529" d="M5923.868 1450.306h-.785a1.14 1.14 0 0 0-1.136 1.136v10.417a1.139 1.139 0 0 1-1.136 1.135h-.28a1.165 1.165 0 0 1-1.136-1.135v-10.417a1.139 1.139 0 0 0-1.135-1.136h-.785a1.139 1.139 0 0 0-1.135 1.136v10.417a1.165 1.165 0 0 1-1.137 1.135h-.279a1.164 1.164 0 0 1-1.136-1.135v-10.417a1.14 1.14 0 0 0-1.136-1.136h-.785a1.14 1.14 0 0 0-1.136 1.136v12.309a7.209 7.209 0 0 0 4.354 6.588 2.208 2.208 0 0 0-.113.53l-.909 28.014v.227a3.788 3.788 0 0 0 7.572-.227l-.871-28.014a2.986 2.986 0 0 0-.114-.568 7.116 7.116 0 0 0 4.354-6.55v-12.309a1.14 1.14 0 0 0-1.136-1.136z"/></g></g><g data-name="Group 2345" stroke-width="2" stroke="#0073ff" stroke-linecap="round" stroke-linejoin="round" fill="none" transform="translate(-5808.965 -1393.374)"><circle data-name="Ellipse 207" cx="10.736" cy="10.736" r="10.736" transform="translate(6039.083 1406.719)"/><g data-name="Group 2341"><path data-name="Line 1625" d="M6049.819 1394.374v5.819"/><path data-name="Line 1626" d="M6049.819 1434.719v5.819"/></g><g data-name="Group 2342"><path data-name="Line 1627" d="M6067.082 1417.456h5.819"/><path data-name="Line 1628" d="M6032.556 1417.456h-5.819"/></g><g data-name="Group 2343"><path data-name="Line 1629" d="M6062.026 1405.249l4.115-4.115"/><path data-name="Line 1630" d="M6037.613 1429.662l-4.115 4.115"/></g><g data-name="Group 2344"><path data-name="Line 1631" d="M6062.026 1429.662l4.115 4.115"/><path data-name="Line 1632" d="M6037.613 1405.249l-4.115-4.115"/></g></g><g data-name="Group 2349"><path data-name="Path 1530" d="M43.316 209.826H24.03v18.681h52.347v-18.681H57.09" fill="none" stroke="#0073ff" stroke-linecap="round" stroke-linejoin="round" stroke-width="2"/><g data-name="Group 2346" fill="none" stroke="#0073ff" stroke-linecap="round" stroke-linejoin="round" stroke-width="2"><path data-name="Path 1531" d="M60.143 198.226l-9.94-21.018-9.94 21.018"/><path data-name="Line 1633" d="M50.203 164.879v12.331"/></g><g data-name="Group 2347" fill="none" stroke="#0073ff" stroke-linecap="round" stroke-linejoin="round" stroke-width="2"><path data-name="Path 1533" d="M63.1 204.882l-12.9-5.917-12.9 5.917"/><path data-name="Path 1534" d="M79.074 204.882l-7.987-3.665-7.987 3.665"/><path data-name="Path 1535" d="M37.306 204.882l-7.987-3.665-7.987 3.665"/></g><g data-name="Group 2348"><path data-name="Path 1536" d="M63.645 212.834l-13.442-6.167-13.441 6.167" fill="none" stroke="#0073ff" stroke-linecap="round" stroke-linejoin="round" stroke-width="2"/></g><path data-name="Rectangle 851" d="M45.261 216.146h9.885a3.351 3.351 0 0 1 3.351 3.351v9.011h0H41.91h0v-9.011a3.351 3.351 0 0 1 3.351-3.351z" fill="none" stroke="#0073ff" stroke-linecap="round" stroke-linejoin="round" stroke-width="2"/><path data-name="Line 1634" fill="none" stroke="#0073ff" stroke-linecap="round" stroke-linejoin="round" stroke-width="2" d="M69.11 218.413v5.158"/><path data-name="Line 1635" fill="none" stroke="#0073ff" stroke-linecap="round" stroke-linejoin="round" stroke-width="2" d="M33.17 218.413v5.158"/></g><path data-name="Path 1538" d="M245.848 223.353s-19.594-2.569 0-28.275c0 0 19.705 24.363 0 28.275zm4.36-11.163a3.432 3.432 0 0 1-3.433 3.427h-.927m-3.951-.662a3.118 3.118 0 0 0 3.12 3.116h.831m-3.388-10.615a3.387 3.387 0 0 0 3.388 3.386m0 17.656v-25.932" fill="none" stroke="#0073ff" stroke-linecap="round" stroke-linejoin="round" stroke-width="2"/><g data-name="Group 2350" fill="none" stroke="#0073ff" stroke-linecap="round" stroke-linejoin="round" stroke-width="2"><path data-name="Line 1636" d="M258.932 222.687v5.821"/><path data-name="Line 1637" d="M253.228 225.038v3.47"/><path data-name="Line 1638" d="M264.637 225.038v3.47"/></g><g data-name="Group 2351" stroke-width="2" stroke="#0073ff" stroke-linecap="round" stroke-linejoin="round" fill="none"><path data-name="Rectangle 852" d="M132.283 215.16h15.05v13.338h-15.05z"/><path data-name="Rectangle 853" d="M129.833 209.52h19.95v5.64h-19.95z"/><path data-name="Line 1639" d="M132.283 221.261h15.05"/><path data-name="Line 1640" d="M139.808 215.16v6.101"/></g><g data-name="Group 2353" fill="none" stroke="#0073ff" stroke-linecap="round" stroke-linejoin="round" stroke-width="2"><path data-name="Path 1539" d="M13.123 222.055a1.737 1.737 0 1 0 1.736-1.736 1.729 1.729 0 0 0-1.736 1.736z"/><g data-name="Group 2352"><path data-name="Path 1540" d="M13.235 220.942l-.622-1.621 1.438 1.2"/><path data-name="Path 1541" d="M16.485 220.942l.623-1.621-1.438 1.2"/></g><path data-name="Path 1542" d="M10.047 227.469s-1.716.864-2.612-.361c-1.039-1.42 1.1-2.515-.015-3.894"/><path data-name="Path 1543" d="M15.707 223.985v3.087a.742.742 0 0 1 .818.709c0 .586-.211.717-.86.717h-2.956"/><path data-name="Path 1544" d="M13.56 223.207c-1.114 0-3.619 2.409-3.516 4.22"/><path data-name="Path 1545" d="M12.935 227.193v.366s.064.939-1.176.939h-.574c-.922 0-1.143-.006-1.143-.879"/></g><g data-name="Group 2356" fill="none" stroke="#0073ff" stroke-linecap="round" stroke-linejoin="round" stroke-width="2"><path data-name="Path 1546" d="M67.145 189.726h47.05c8.544 0 11.169 6.19 20.223 6.19h17.249"/><g data-name="Group 2354"><path data-name="Path 1547" d="M130.93 191.826l4.731-12.565 4.731 12.565z"/><path data-name="Line 1641" d="M135.66 191.823v4.095"/></g><path data-name="Line 1642" d="M145.862 192.971v2.947"/><g data-name="Group 2355"><path data-name="Rectangle 854" d="M74.267 149.12h24.979v23.904H74.267z"/><path data-name="Rectangle 855" d="M74.267 173.024h36.293v16.704H74.267z"/><path data-name="Line 1643" d="M87.472 164.5v3.94"/><path data-name="Line 1644" d="M94.397 164.5v3.94"/><path data-name="Line 1645" d="M80.547 164.5v3.94"/><path data-name="Line 1646" d="M87.472 154.998v3.94"/><path data-name="Line 1647" d="M94.397 154.998v3.94"/><path data-name="Line 1648" d="M80.547 154.998v3.94"/><path data-name="Rectangle 856" d="M85.196 189.728h-5.67v-11.622h5.67z"/><path data-name="Rectangle 857" d="M90.793 177.916h4.019v5.281h-4.019z"/><path data-name="Rectangle 858" d="M99.553 177.916h4.019v5.281h-4.019z"/></g></g><g data-name="Group 2361"><g data-name="Group 2357"><path data-name="Rectangle 859" stroke-width="2" stroke="#0073ff" stroke-linecap="round" stroke-linejoin="round" fill="none" d="M93.881 213.553h21.969v14.944H93.881z"/></g><g data-name="Group 2360"><g data-name="Group 2358"><path data-name="Path 1548" d="M120.429 212.054l-4.579-6.9H93.881l-4.579 6.9" fill="none" stroke="#0073ff" stroke-linecap="round" stroke-linejoin="round" stroke-width="2"/></g><g data-name="Group 2359" fill="none" stroke="#0073ff" stroke-linecap="round" stroke-linejoin="round" stroke-width="2"><path data-name="Line 1649" d="M99.234 205.158l-1.653 4.396"/><path data-name="Line 1650" d="M110.495 205.158l1.653 4.396"/></g><path data-name="Line 1651" fill="none" stroke="#0073ff" stroke-linecap="round" stroke-linejoin="round" stroke-width="2" d="M104.865 205.526v4.028"/></g><path data-name="Rectangle 860" stroke-width="2" stroke="#0073ff" stroke-linecap="round" stroke-linejoin="round" fill="none" d="M98.408 217.739h6.127v10.758h-6.127z"/><path data-name="Line 1652" fill="none" stroke="#0073ff" stroke-linecap="round" stroke-linejoin="round" stroke-width="2" d="M109.906 218.413v2.612"/></g></g></svg>