<svg xmlns="http://www.w3.org/2000/svg" width="273.779" height="221.418"><g transform="translate(-1318 -1349)"><g data-name="Group 2365"><path data-name="Path 1549" d="M1590.78 1569.418H1319" fill="none" stroke="#0073ff" stroke-linecap="round" stroke-linejoin="round" stroke-width="2"/></g><path data-name="Path 1550" d="M1529.091 1361.813h0a5.136 5.136 0 014.464-3.747 7.668 7.668 0 0114.3 3.747h1.207a5.79 5.79 0 015.822 4.9 5.632 5.632 0 01-5.572 6.336h-20.26a5.619 5.619 0 11.043-11.237z" fill="none" stroke="#0073ff" stroke-linecap="round" stroke-linejoin="round" stroke-width="2"/><path data-name="Path 1551" d="M1399.422 1363.614a6.325 6.325 0 00-6.361-5.354h-1.319a8.377 8.377 0 00-15.617-4.094h-2.122a5.881 5.881 0 00-5.734 4.594h-3.319a5.888 5.888 0 100 11.776h28.384a6.154 6.154 0 006.088-6.922z" fill="none" stroke="#0073ff" stroke-linecap="round" stroke-linejoin="round" stroke-width="2"/><path data-name="Path 1552" d="M1342.402 1376.959h0a2.657 2.657 0 012.309-1.938 3.965 3.965 0 017.392 1.938h.624a3 3 0 013.011 2.534 2.913 2.913 0 01-2.882 3.277h-10.476a2.906 2.906 0 11.022-5.811z" fill="none" stroke="#0073ff" stroke-linecap="round" stroke-linejoin="round" stroke-width="2"/><circle data-name="Ellipse 208" cx="53" cy="53" r="53" transform="translate(1404.382 1370.885)" fill="#fff"/><path data-name="Path 1553" d="M1561.848 1564.263s-19.594-2.569 0-28.275c0 0 19.706 24.363 0 28.275zm4.36-11.163a3.432 3.432 0 01-3.433 3.427h-.927m-3.951-.662a3.118 3.118 0 003.121 3.116h.83m-3.388-10.615a3.387 3.387 0 003.388 3.386m0 17.656v-25.932" fill="none" stroke="#0073ff" stroke-linecap="round" stroke-linejoin="round" stroke-width="2"/><g data-name="Group 2366" fill="none" stroke="#0073ff" stroke-linecap="round" stroke-linejoin="round" stroke-width="2"><path data-name="Line 1653" d="M1576.933 1563.597v5.821"/><path data-name="Line 1654" d="M1571.228 1565.948v3.47"/><path data-name="Line 1655" d="M1582.637 1565.948v3.47"/></g><g data-name="Group 2367" fill="none" stroke="#0073ff" stroke-linecap="round" stroke-linejoin="round" stroke-width="2"><path data-name="Path 1554" d="M1470.347 1503.514l4.731-12.565 4.731 12.565z"/><path data-name="Line 1656" d="M1475.078 1503.514v4.095"/></g><g data-name="Group 2371" fill="none" stroke="#0073ff" stroke-linecap="round" stroke-linejoin="round" stroke-width="2"><g data-name="Group 2369"><g data-name="Group 2368"><path data-name="Line 1657" d="M1566.563 1515.049v2.276"/><path data-name="Line 1658" d="M1563.095 1512.773v4.552"/><path data-name="Line 1659" d="M1559.626 1515.049v2.276"/></g><path data-name="Path 1555" d="M1469.432 1507.61h63.45a17.577 17.577 0 0112.428 5.147h0a17.575 17.575 0 0012.428 5.148h12.715"/></g><g data-name="Group 2370"><path data-name="Rectangle 861" d="M1486.82 1482.682h41.508v24.928h-41.508z"/><path data-name="Path 1556" d="M1519.759 1492.218v-3.666m-8.387 3.666v-3.666m-8.387 3.666v-3.666m-8.386 3.666v-3.666m25.16 13.177v-3.666m-8.387 3.666v-3.666m-8.387 3.666v-3.666m-8.386 3.666v-3.666"/><path data-name="Path 1557" d="M1527.03 1474.701h-38.915l-3.1 7.981h45.114z"/></g></g><g data-name="Group 2373" fill="none" stroke="#0073ff" stroke-linecap="round" stroke-linejoin="round" stroke-width="2"><path data-name="Path 1558" d="M1371.047 1514.808l27.949-.111v-34.342h-27.949z"/><g data-name="Group 2372"><path data-name="Line 1660" d="M1377.557 1499.297v-3.571"/><path data-name="Line 1661" d="M1385.152 1499.297v-3.571"/><path data-name="Line 1662" d="M1392.748 1499.297v-3.571"/><path data-name="Line 1663" d="M1377.557 1490.429v-3.571"/><path data-name="Line 1664" d="M1385.152 1490.429v-3.571"/><path data-name="Line 1665" d="M1392.748 1490.429v-3.571"/><path data-name="Line 1666" d="M1377.557 1508.166v-3.571"/><path data-name="Line 1667" d="M1385.152 1508.166v-3.571"/><path data-name="Line 1668" d="M1392.748 1508.166v-3.571"/></g><path data-name="Path 1559" d="M1361.477 1472.307v-13.59m2.891 20.456v3.574m-6.993 0v-3.574m6.993 19.385v3.574m-6.993 0v-3.574m6.993-9.329v3.574m-6.993 0v-3.574m0 23.12v-3.574m-6.821 14.868v-50.861h20.493v41.937h0a8.953 8.953 0 00-6.2 2.495l-4.1 3.934a8.956 8.956 0 01-6.2 2.495z"/><path data-name="Line 1669" d="M1334.618 1523.732h15.609"/><path data-name="Line 1670" d="M1402.078 1514.808h-6.936"/></g><g data-name="Group 2377" fill="none" stroke="#0073ff" stroke-linecap="round" stroke-linejoin="round" stroke-width="2"><path data-name="Path 1560" d="M1414.93 1569.017v-71.051h41.444v71.452m-40.62-21.312h40.62m-47.409-50.18l4.728-5.581h43.414l4.726 5.58"/><g data-name="Group 2374"><path data-name="Line 1671" d="M1449.73 1506.222v4.565"/><path data-name="Line 1672" d="M1442.863 1506.222v4.565"/><path data-name="Line 1673" d="M1435.996 1506.222v4.565"/><path data-name="Line 1674" d="M1429.128 1506.222v4.565"/><path data-name="Line 1675" d="M1422.261 1506.222v4.565"/></g><g data-name="Group 2375"><path data-name="Line 1676" d="M1449.73 1520.409v4.565"/><path data-name="Line 1677" d="M1442.863 1520.409v4.565"/><path data-name="Line 1678" d="M1435.996 1520.409v4.565"/><path data-name="Line 1679" d="M1429.128 1520.409v4.565"/><path data-name="Line 1680" d="M1422.261 1520.409v4.565"/></g><g data-name="Group 2376"><path data-name="Line 1681" d="M1449.73 1534.597v4.565"/><path data-name="Line 1682" d="M1442.863 1534.597v4.565"/><path data-name="Line 1683" d="M1435.996 1534.597v4.565"/><path data-name="Line 1684" d="M1429.128 1534.597v4.565"/><path data-name="Line 1685" d="M1422.261 1534.597v4.565"/></g><path data-name="Line 1686" d="M1435.996 1555.44v4.565"/><path data-name="Line 1687" d="M1429.128 1555.44v4.565"/><path data-name="Line 1688" d="M1422.261 1555.44v4.565"/></g><g data-name="Group 2381" fill="none" stroke="#0073ff" stroke-linecap="round" stroke-linejoin="round" stroke-width="2"><path data-name="Line 1689" d="M1381.885 1562.77h-2.918"/><path data-name="Path 1561" d="M1380.379 1548.966l-6.379 7.519h12.757z"/><path data-name="Line 1690" d="M1354.66 1547.41v-3.428"/><path data-name="Line 1691" d="M1362.606 1547.41v-3.428"/><path data-name="Line 1692" d="M1370.188 1543.982v3.428"/><g data-name="Group 2378"><path data-name="Line 1693" d="M1386.758 1536.975v-3.431"/><path data-name="Line 1694" d="M1393.124 1533.544v3.431"/><path data-name="Line 1695" d="M1399.491 1536.975v-3.431"/></g><g data-name="Group 2379"><path data-name="Line 1696" d="M1386.758 1547.411v-3.431"/><path data-name="Line 1697" d="M1393.124 1543.98v3.431"/><path data-name="Line 1698" d="M1399.491 1543.98v3.431"/></g><g data-name="Group 2380"><path data-name="Line 1699" d="M1393.124 1554.416v3.431"/><path data-name="Line 1700" d="M1399.491 1554.416v3.431"/></g><path data-name="Rectangle 862" d="M1374 1556.485h12.756v12.933H1374z"/><path data-name="Path 1562" d="M1380.378 1538.807h-33.17v15.609"/><path data-name="Path 1563" d="M1405.431 1569.418v-41.609h-25.051v21.818"/><path data-name="Path 1564" d="M1365.166 1554.416h-33.286v15"/><path data-name="Line 1701" d="M1338.766 1561.072v2.899"/><path data-name="Line 1702" d="M1346.713 1561.072v2.899"/><path data-name="Line 1703" d="M1354.66 1561.072v2.899"/><path data-name="Line 1704" d="M1362.606 1561.072v2.899"/></g><g data-name="Group 2382" fill="none" stroke="#0073ff" stroke-linecap="round" stroke-linejoin="round" stroke-width="2"><path data-name="Path 1565" d="M1475.078 1554.981l.251-26.973h65.333v41.4h-74.833v-14.427h74.833"/><path data-name="Path 1566" d="M1484.896 1534.489v3.941m11.823-3.941v3.941m11.823-3.941v3.941m11.823-3.941v3.941m-35.469 5.735v3.941m11.823-3.941v3.941m11.823-3.941v3.941m11.823-3.941v3.941m10.73-13.617v3.941m0 5.735v3.941"/><path data-name="Path 1567" d="M1473.046 1519.536h69.9l3.292 8.473h-76.482z"/><path data-name="Line 1705" d="M1472.578 1560.005v3.091"/><path data-name="Line 1706" d="M1479.468 1560.005v3.091"/><path data-name="Line 1707" d="M1486.358 1560.005v3.091"/><path data-name="Line 1708" d="M1493.248 1560.005v3.091"/><path data-name="Line 1709" d="M1500.138 1560.005v3.091"/><path data-name="Line 1710" d="M1518.38 1560.005v3.091"/><path data-name="Line 1711" d="M1525.269 1560.005v3.091"/><path data-name="Line 1712" d="M1532.16 1560.005v3.091"/><path data-name="Rectangle 863" d="M1505.649 1560.005h7.532v9.413h-7.532z"/></g><path data-name="Rectangle 864" stroke-width="2" stroke="#0073ff" stroke-linecap="round" stroke-linejoin="round" fill="none" d="M1441.979 1555.566h7.752v13.852h-7.752z"/><g data-name="Group 2383" transform="translate(-4829.585 -52.464)"><path data-name="Line 1713" fill="none" stroke="#0073ff" stroke-linecap="round" stroke-linejoin="round" stroke-width="7" d="M6265.146 1470.707v33.829"/><path data-name="Line 1714" fill="none" stroke="#0073ff" stroke-linecap="round" stroke-linejoin="round" stroke-width="7" d="M6311.321 1487.069v17.468"/><path data-name="Line 1715" fill="none" stroke="#0073ff" stroke-linecap="round" stroke-linejoin="round" stroke-width="7" d="M6265.146 1490.459h46.174"/><path data-name="Rectangle 865" d="M6281.381 1476.697h30.408a3 3 0 013 3v9.218h-33.408v-12.218z" fill="#0073ff"/><circle data-name="Ellipse 209" cx="4.391" cy="4.391" r="4.391" transform="translate(6270.225 1476.99)" fill="#0073ff"/><path data-name="Path 1568" d="M6287.14 1443.519l3.666 6.541 7.354 1.48a.7.7 0 01.392 1.143l-4.941 5.724.733 7.235a.7.7 0 01-.953.722l-7.124-2.8-6.583 2.791a.7.7 0 01-.973-.664l.212-7.286-4.442-5.754a.7.7 0 01.405-1.112l6.842-1.481 4.212-6.576a.7.7 0 011.2.037z" fill="#0073ff"/></g><path data-name="Path 1569" d="M1570.986 1396.412a10.691 10.691 0 00-9.744 3.042 10.4 10.4 0 00-9.743-3.042" fill="none" stroke="#0073ff" stroke-linecap="round" stroke-linejoin="round" stroke-width="3"/></g></svg>