<svg xmlns="http://www.w3.org/2000/svg" width="273.779" height="230.077"><g data-name="Group 2305" transform="translate(-900.567 -3287.994)"><circle data-name="Ellipse 203" cx="53" cy="53" r="53" transform="translate(984.567 3319.027)" fill="#fff"/><path data-name="Path 1487" d="M1073.427 3374.528c-.047-.073-.079-.158-.127-.23s-.077-.158-.126-.231-8.564-15.629-8.612-15.7a12 12 0 0 0-9.171-5.563c-.011-.016-.018-.035-.028-.051s-.027-.056-.044-.081c-.746-1.091-1.188-2.4-1.925-3.5a6.988 6.988 0 0 0-5.876-3.244 7.117 7.117 0 0 0-7.041 7.19 7.351 7.351 0 0 0 .167 1.529c.394 2.079 1.3 4.058 1.75 6.125a8.009 8.009 0 0 0 .357 1.183 12.468 12.468 0 0 0-.43 3.1c0 .263.06.508.084.764l.224 1.612a21.642 21.642 0 0 0-10.122 0v-.016l-.068.016.355-2.566a12.694 12.694 0 0 0-.415-2.907 7.88 7.88 0 0 0 .357-1.184c.458-2.07 1.3-4.052 1.75-6.124a7.343 7.343 0 0 0 .167-1.529 7.117 7.117 0 0 0-7.041-7.19 6.989 6.989 0 0 0-5.876 3.244c-.765 1.139-1.226 2.494-2 3.628a12 12 0 0 0-9.171 5.563c-.048.073-.079.157-.126.231s-8.565 15.628-8.612 15.7-.08.157-.127.23a15.28 15.28 0 0 0-2.541 8.471 14.783 14.783 0 0 0 29.331 2.943c.019-.088.04-.173.057-.261s.041-.174.059-.262.04-.171.057-.259.04-.173.058-.261.04-.172.058-.26l.033-.151a28.171 28.171 0 0 1 5.4-.677 5.283 5.283 0 0 0 7.89 0 36.487 36.487 0 0 1 4.152.415c.012.05.023.1.033.151.018.088.039.174.059.262s.039.172.057.26.038.173.058.26l.058.261.058.261.057.261a14.783 14.783 0 0 0 29.331-2.943 15.281 15.281 0 0 0-2.538-8.47zm-59.448 19.264a10.8 10.8 0 1 1 10.569-10.793 10.683 10.683 0 0 1-10.569 10.793zm24.163-10.767a2.909 2.909 0 1 1 2.887-2.908 2.873 2.873 0 0 1-2.887 2.908zm23.015 10.767a10.8 10.8 0 1 1 10.57-10.793 10.683 10.683 0 0 1-10.571 10.793z" fill="#0073ff"/></g><path data-name="Path 1507" d="M222.19 25.028a4.412 4.412 0 0 1 4.4-4.4h1.941a4.207 4.207 0 0 1 .946-2.131 3.937 3.937 0 0 0-2.307-.749h-.03a3.626 3.626 0 0 0-3.153-2.646 5.415 5.415 0 0 0-10.095 2.646h-1.029a3.968 3.968 0 0 0 0 7.935h9.382a4.434 4.434 0 0 1-.055-.655zm31.252 0a4.412 4.412 0 0 1-4.4 4.4h-22.454a4.4 4.4 0 0 1 0-8.8h1.941a4.19 4.19 0 0 1 4.82-3.6 6 6 0 0 1 11.058.744 3.431 3.431 0 0 1 3.274 2.852h1.361a4.412 4.412 0 0 1 4.4 4.404z" fill="none" stroke="#0073ff" stroke-linecap="round" stroke-linejoin="round" stroke-width="2"/><path data-name="Path 1504" d="M52.718 10.752h0a6.625 6.625 0 0 0-5.758-4.833 9.889 9.889 0 0 0-18.437 4.833h-1.556a7.468 7.468 0 0 0-7.51 6.32 7.264 7.264 0 0 0 7.187 8.171h26.129a7.246 7.246 0 1 0-.055-14.491z" fill="none" stroke="#0073ff" stroke-linecap="round" stroke-linejoin="round" stroke-width="2"/><g data-name="Group 2318"><g data-name="Group 2321" stroke-width="2" stroke="#0073ff" stroke-linecap="round" stroke-linejoin="round" fill="none"><g data-name="Group 2318"><path data-name="Rectangle 844" d="M210.61 198.561h51.121v30.368H210.61z"/><path data-name="Line 1587" d="M210.61 213.93h51.121"/><path data-name="Path 1508" d="M267.247 198.52l-4.83-5.623h-52.575l-4.832 5.624"/></g><g data-name="Group 2319"><path data-name="Line 1588" d="M254.216 223.207v-4.6"/><path data-name="Line 1589" d="M247.077 223.207v-4.6"/><path data-name="Path 1509" d="M232.8 227.999v-9.392h6.042v9.931"/><path data-name="Line 1590" d="M225.66 223.207v-4.6"/><path data-name="Line 1591" d="M218.52 223.207v-4.6"/></g><g data-name="Group 2320"><path data-name="Line 1592" d="M254.216 208.617v-4.6"/><path data-name="Line 1593" d="M247.077 208.617v-4.6"/><path data-name="Line 1594" d="M239.938 204.017v4.6"/><path data-name="Line 1595" d="M232.799 208.617v-4.6"/><path data-name="Line 1596" d="M225.66 208.617v-4.6"/><path data-name="Line 1597" d="M218.52 208.617v-4.6"/></g></g><g data-name="Group 2322" fill="none" stroke="#0073ff" stroke-linecap="round" stroke-linejoin="round" stroke-width="2"><path data-name="Path 1510" d="M114.546 197.187H56.832c-17.977 0-17.093 14.994-37.342 14.994h-4"/><path data-name="Path 1511" d="M107.511 175.397H55.216v21.79h52.295zm-47.393 16.1h4.9m32.691 0h4.9m-42.491-5.207h4.9m32.691 0h4.9m-42.491-5.207h4.9m4.5 0h4.9m4.5 0h4.9m4.5 0h4.9m4.5 0h4.9m-11.784 8.7h-17.44v7.405h17.431zm-20.574-3.49h22.225m-13.883 6.934v3.961m6.521-3.961v3.961m12.595-29.79H66.941v8h30.768zm-11.18-6.707h-7.814l-2.273 6.707H88.8zm-26.411 14.707v-23.432m1.044 13.756c.538 0 .975-.751.975-1.677s-.437-1.677-.975-1.677h-2.935m2.935-4.019c.538 0 .975-.751.975-1.677s-.437-1.677-.975-1.677h-2.935"/></g><g data-name="Group 2326"><path data-name="Path 1512" d="M159.184 185.936h6.924c11.854 0 14.673-12.14 25.827-12.14h22.139a23.506 23.506 0 0 1 15.765 6.07h0a23.5 23.5 0 0 0 15.764 6.07h5.234" fill="none" stroke="#0073ff" stroke-linecap="round" stroke-linejoin="round" stroke-width="2"/><g data-name="Group 2325"><path data-name="Line 1598" fill="none" stroke="#0073ff" stroke-linecap="round" stroke-linejoin="round" stroke-width="2" d="M202.665 170.988v2.808"/><path data-name="Line 1599" fill="none" stroke="#0073ff" stroke-linecap="round" stroke-linejoin="round" stroke-width="2" d="M198.386 168.18v5.616"/><path data-name="Line 1600" fill="none" stroke="#0073ff" stroke-linecap="round" stroke-linejoin="round" stroke-width="2" d="M194.107 170.988v2.808"/><g data-name="Group 2324"><g data-name="Group 2323" fill="none" stroke="#0073ff" stroke-linecap="round" stroke-linejoin="round" stroke-width="2"><path data-name="Path 1513" d="M211.074 151.001a8.572 8.572 0 1 0 8.571 8.573 8.574 8.574 0 0 0-8.571-8.573z"/><path data-name="Path 1514" d="M211.074 159.624h1.565a2.9 2.9 0 0 0 2.9-2.9"/><path data-name="Line 1601" d="M211.074 173.796V154.84"/></g></g><path data-name="Path 1515" d="M210.357 162.801a2.445 2.445 0 0 1-2.446-2.446" fill="none" stroke="#0073ff" stroke-linecap="round" stroke-linejoin="round" stroke-width="2"/></g></g><g data-name="Group 2327"><path data-name="Path 1516" d="M272.78 228.929H1m135.041-54.358v5.892m33.84 31.125v3.6m-7.3-3.6v3.6m-6.991-3.6v3.6m14.29-12.22v3.586m-7.3-3.595v3.595m-6.991-3.595v3.595m-24.138 2.939v3.6m8.768-3.6v3.6m0-14.312v3.6m-8.768-3.6v3.6m8.768-14.311v3.6m-8.768-3.6v3.6m45.247 36.68v-31.428h-28.684m0 21.99v-38.448h-23.955v48.456m42.818 0h-33.6v-10.008h33.6zm-27.377-5h2.952m6.15 0h2.952m6.15 0h2.952" fill="none" stroke="#0073ff" stroke-linecap="round" stroke-linejoin="round" stroke-width="2"/></g><g data-name="Group 2328" fill="none" stroke="#0073ff" stroke-linecap="round" stroke-linejoin="round" stroke-width="2"><path data-name="Path 1517" d="M54.2 223.879h-4.3l4.631-6.369H50.75l5.764-7.932 5.763 7.932H58.5l4.631 6.369H54.2z"/><path data-name="Line 1602" d="M56.514 223.879v5.04"/></g><g data-name="Group 2329" fill="none" stroke="#0073ff" stroke-linecap="round" stroke-linejoin="round" stroke-width="2"><path data-name="Path 1518" d="M103.419 223.879h-4.3l4.631-6.369h-3.778l5.763-7.932 5.763 7.932h-3.778l4.631 6.369h-8.933z"/><path data-name="Line 1603" d="M105.735 223.879v5.04"/></g><path data-name="Path 1519" d="M34.255 228.919v-6.56m5.094 6.56v-4.124m-10.188 4.124v-4.124" fill="none" stroke="#0073ff" stroke-linecap="round" stroke-linejoin="round" stroke-width="2"/><path data-name="Line 1604" fill="none" stroke="#0073ff" stroke-linecap="round" stroke-linejoin="round" stroke-width="2" d="M78.293 198.305l-4.999 30.624"/><path data-name="Line 1605" fill="none" stroke="#0073ff" stroke-linecap="round" stroke-linejoin="round" stroke-width="2" d="M85.114 198.305l4.999 30.624"/><g data-name="Group 2330" fill="none" stroke="#0073ff" stroke-linecap="round" stroke-linejoin="round" stroke-width="2"><path data-name="Line 1606" d="M77.442 203.357h8.523"/><path data-name="Line 1607" d="M76.352 210.197h10.703"/><path data-name="Line 1608" d="M75.236 217.037h12.936"/><path data-name="Line 1609" d="M74.038 223.877H89.37"/></g><g data-name="Group 2331" fill="none" stroke="#0073ff" stroke-linecap="round" stroke-linejoin="round" stroke-width="2"><path data-name="Path 1521" d="M202.366 220.48H185.6l8.112-8.733z"/><path data-name="Rectangle 845" d="M187.485 220.48h12.483v8.449h-12.483z"/><path data-name="Line 1610" d="M192.455 223.983h2.643"/></g></g></svg>