<svg xmlns="http://www.w3.org/2000/svg" width="259.895" height="221.418" viewBox="0 0 259.895 221.418">
  <g id="cover_hlpphone" transform="translate(-995 -1349)">
    <g id="Group_2412" data-name="Group 2412" transform="translate(-5507.853 -52.464)">
      <g id="Group_2408" data-name="Group 2408">
        <path id="Path_1595" data-name="Path 1595" d="M6636.267,1596.612H6581.81c-16.963,0-16.128,14.148-35.235,14.148H6542.8" fill="none" stroke="#0073ff" stroke-linecap="round" stroke-linejoin="round" stroke-width="2"/>
        <path id="Path_1596" data-name="Path 1596" d="M6629.63,1576.052h-49.344v20.56h49.344Zm-44.719,15.193h4.624m30.846,0H6625m-40.094-4.913h4.624m30.846,0H6625m-40.094-4.914h4.624m4.243,0h4.624m4.244,0h4.624m4.243,0h4.624m4.244,0H6625m-11.12,8.207h-16.448v6.987h16.448Zm-19.413-3.293h20.971m-13.1,6.542v3.738m6.152-3.738v3.738m11.885-28.109h-29.032v7.549h29.032Zm-10.549-6.329h-7.373l-2.145,6.329h11.663Zm-24.921,13.878v-22.111m.985,12.98c.508,0,.919-.709.919-1.582s-.411-1.583-.919-1.583h-2.769m2.769-3.792c.508,0,.919-.709.919-1.583s-.411-1.582-.919-1.582h-2.769" fill="none" stroke="#0073ff" stroke-linecap="round" stroke-linejoin="round" stroke-width="2"/>
      </g>
      <g id="Group_2409" data-name="Group 2409">
        <path id="Path_1597" data-name="Path 1597" d="M6579.325,1617.042h-4.059l4.37-6.01h-3.565l5.438-7.484,5.438,7.484h-3.565l4.37,6.01h-8.429Z" fill="none" stroke="#0073ff" stroke-linecap="round" stroke-linejoin="round" stroke-width="2"/>
        <line id="Line_1748" data-name="Line 1748" y2="4.756" transform="translate(6581.51 1617.042)" fill="none" stroke="#0073ff" stroke-linecap="round" stroke-linejoin="round" stroke-width="2"/>
      </g>
      <g id="Group_2410" data-name="Group 2410">
        <path id="Path_1598" data-name="Path 1598" d="M6625.769,1617.042h-4.059l4.37-6.01h-3.565l5.438-7.484,5.438,7.484h-3.564l4.37,6.01h-8.429Z" fill="none" stroke="#0073ff" stroke-linecap="round" stroke-linejoin="round" stroke-width="2"/>
        <line id="Line_1749" data-name="Line 1749" y2="4.756" transform="translate(6627.954 1617.042)" fill="none" stroke="#0073ff" stroke-linecap="round" stroke-linejoin="round" stroke-width="2"/>
      </g>
      <line id="Line_1750" data-name="Line 1750" x1="4.717" y2="23.762" transform="translate(6597.344 1597.667)" fill="none" stroke="#0073ff" stroke-linecap="round" stroke-linejoin="round" stroke-width="2"/>
      <line id="Line_1751" data-name="Line 1751" x2="4.717" y2="23.762" transform="translate(6608.496 1597.667)" fill="none" stroke="#0073ff" stroke-linecap="round" stroke-linejoin="round" stroke-width="2"/>
      <g id="Group_2411" data-name="Group 2411">
        <line id="Line_1752" data-name="Line 1752" x2="8.042" transform="translate(6601.257 1602.434)" fill="none" stroke="#0073ff" stroke-linecap="round" stroke-linejoin="round" stroke-width="2"/>
        <line id="Line_1753" data-name="Line 1753" x2="10.099" transform="translate(6600.229 1608.888)" fill="none" stroke="#0073ff" stroke-linecap="round" stroke-linejoin="round" stroke-width="2"/>
        <line id="Line_1754" data-name="Line 1754" x2="12.206" transform="translate(6599.175 1615.342)" fill="none" stroke="#0073ff" stroke-linecap="round" stroke-linejoin="round" stroke-width="2"/>
      </g>
    </g>
    <path id="Path_1599" data-name="Path 1599" d="M6549.6,1621.8a3.586,3.586,0,0,0-7.13,0,3.275,3.275,0,0,1-3.566-3.2m0,0a8.35,8.35,0,0,0-10.694,3.2,3.585,3.585,0,0,0-7.13,0" transform="translate(-5507.853 -52.464)" fill="none" stroke="#0073ff" stroke-linecap="round" stroke-linejoin="round" stroke-width="2"/>
    <g id="Group_2413" data-name="Group 2413" transform="translate(-5507.853 -52.464)">
      <path id="Path_1600" data-name="Path 1600" d="M6761.748,1621.882h-199.17" fill="none" stroke="#0073ff" stroke-linecap="round" stroke-linejoin="round" stroke-width="2"/>
    </g>
    <path id="Path_1601" data-name="Path 1601" d="M6570.39,1416.078a6.327,6.327,0,0,0-6.361-5.354h-1.319a8.377,8.377,0,0,0-15.618-4.094h-2.121a5.884,5.884,0,0,0-5.735,4.594h-3.319a5.888,5.888,0,0,0,0,11.776H6564.3A6.154,6.154,0,0,0,6570.39,1416.078Z" transform="translate(-5507.853 -52.464)" fill="none" stroke="#0073ff" stroke-linecap="round" stroke-linejoin="round" stroke-width="2"/>
    <path id="Path_1602" data-name="Path 1602" d="M6513.37,1429.423h0a2.655,2.655,0,0,1,2.308-1.938,3.966,3.966,0,0,1,7.393,1.938h.624a3,3,0,0,1,3.011,2.534,2.914,2.914,0,0,1-2.882,3.277h-10.477a2.906,2.906,0,1,1,.023-5.811Z" transform="translate(-5507.853 -52.464)" fill="none" stroke="#0073ff" stroke-linecap="round" stroke-linejoin="round" stroke-width="2"/>
    <path id="Path_1619" data-name="Path 1619" d="M53,0A53,53,0,1,1,0,53,53,53,0,0,1,53,0Z" transform="translate(1067.497 1370.885)" fill="#fff"/>
    <path id="Path_1603" data-name="Path 1603" d="M6732.816,1616.727s-19.594-2.569,0-28.275C6732.816,1588.452,6752.521,1612.815,6732.816,1616.727Zm4.36-11.163a3.431,3.431,0,0,1-3.433,3.427h-.927m-3.952-.662a3.119,3.119,0,0,0,3.121,3.116h.831m-3.389-10.615a3.387,3.387,0,0,0,3.389,3.386m0,17.656V1595.94" transform="translate(-5507.853 -52.464)" fill="none" stroke="#0073ff" stroke-linecap="round" stroke-linejoin="round" stroke-width="2"/>
    <g id="Group_2414" data-name="Group 2414" transform="translate(-5507.853 -52.464)">
      <line id="Line_1755" data-name="Line 1755" y2="5.821" transform="translate(6747.9 1616.061)" fill="none" stroke="#0073ff" stroke-linecap="round" stroke-linejoin="round" stroke-width="2"/>
      <line id="Line_1756" data-name="Line 1756" y2="3.47" transform="translate(6742.196 1618.412)" fill="none" stroke="#0073ff" stroke-linecap="round" stroke-linejoin="round" stroke-width="2"/>
      <line id="Line_1757" data-name="Line 1757" y2="3.47" transform="translate(6753.604 1618.412)" fill="none" stroke="#0073ff" stroke-linecap="round" stroke-linejoin="round" stroke-width="2"/>
    </g>
    <g id="Group_2415" data-name="Group 2415" transform="translate(-5507.853 -52.464)">
      <path id="Path_1604" data-name="Path 1604" d="M6596.251,1461.134c-1.159,5.325,2.272,11.927,4.923,16.328a69.313,69.313,0,0,0,23.805,23.806c4.4,2.65,11,6.081,16.328,4.922,3.479-.733,9.51-5.877,9.581-9.687.041-1.967-2.025-4.094-4.012-5.966-2.555-2.406-5.8-4.849-8.247-4.583-2.887.331-3.738,3.266-6.151,4.213-2.6,1.041-5.487-1.464-7.357-2.908-1.4-1.08-2.968-2.362-4.52-3.775-.57-.52-1.123-1.073-1.643-1.644-1.414-1.552-2.7-3.12-3.776-4.52-1.443-1.869-3.948-4.753-2.907-7.356.946-2.414,3.881-3.265,4.213-6.152.265-2.45-2.177-5.692-4.584-8.247-1.872-1.987-4-4.053-5.966-4.011C6602.128,1451.625,6596.985,1457.656,6596.251,1461.134Z" fill="#0073ff"/>
      <path id="Path_1605" data-name="Path 1605" d="M6638.4,1447.276a15.281,15.281,0,1,0,15.281,15.281A15.28,15.28,0,0,0,6638.4,1447.276Zm10.106,15.966a2.515,2.515,0,0,1-2.515,2.514H6641.6v4.392a2.514,2.514,0,0,1-2.514,2.514h-1.37a2.515,2.515,0,0,1-2.515-2.514v-4.392h-4.392a2.514,2.514,0,0,1-2.514-2.514v-1.371a2.514,2.514,0,0,1,2.514-2.514h4.392v-4.391a2.515,2.515,0,0,1,2.515-2.515h1.37a2.514,2.514,0,0,1,2.514,2.515v4.391h4.391a2.515,2.515,0,0,1,2.515,2.514Z" fill="#0073ff"/>
    </g>
    <g id="Group_2419" data-name="Group 2419" transform="translate(-5507.853 -52.464)">
      <g id="Group_2417" data-name="Group 2417">
        <g id="Group_2416" data-name="Group 2416">
          <line id="Line_1758" data-name="Line 1758" y2="1.712" transform="translate(6507.778 1592.629)" fill="none" stroke="#0073ff" stroke-linecap="round" stroke-linejoin="round" stroke-width="2"/>
          <line id="Line_1759" data-name="Line 1759" y2="3.424" transform="translate(6510.387 1590.917)" fill="none" stroke="#0073ff" stroke-linecap="round" stroke-linejoin="round" stroke-width="2"/>
          <line id="Line_1760" data-name="Line 1760" y2="1.712" transform="translate(6512.997 1592.629)" fill="none" stroke="#0073ff" stroke-linecap="round" stroke-linejoin="round" stroke-width="2"/>
        </g>
        <path id="Path_1606" data-name="Path 1606" d="M6568.531,1587.033h-36.419a13.214,13.214,0,0,0-9.347,3.872h0a13.223,13.223,0,0,1-9.348,3.872h-9.564" fill="none" stroke="#0073ff" stroke-linecap="round" stroke-linejoin="round" stroke-width="2"/>
      </g>
      <g id="Group_2418" data-name="Group 2418">
        <rect id="Rectangle_872" data-name="Rectangle 872" width="28.642" height="20.504" transform="translate(6532.45 1566.528)" stroke-width="2" stroke="#0073ff" stroke-linecap="round" stroke-linejoin="round" fill="none"/>
        <path id="Path_1607" data-name="Path 1607" d="M6539.5,1571.357v3.015m6.9-3.015v3.015m6.9-3.015v3.015m-13.8,4.808v3.015m6.9-3.015v3.015m6.9-3.015v3.015" fill="none" stroke="#0073ff" stroke-linecap="round" stroke-linejoin="round" stroke-width="2"/>
        <path id="Path_1608" data-name="Path 1608" d="M6533.518,1559.964h26.507l2.551,6.565h-31.608Z" fill="none" stroke="#0073ff" stroke-linecap="round" stroke-linejoin="round" stroke-width="2"/>
      </g>
    </g>
    <g id="Group_2421" data-name="Group 2421" transform="translate(-5507.853 -52.464)">
      <path id="Path_1609" data-name="Path 1609" d="M6691.422,1563.547l-27.949-.111v-34.342h27.949Z" fill="none" stroke="#0073ff" stroke-linecap="round" stroke-linejoin="round" stroke-width="2"/>
      <g id="Group_2420" data-name="Group 2420">
        <line id="Line_1761" data-name="Line 1761" y1="3.571" transform="translate(6684.913 1544.466)" fill="none" stroke="#0073ff" stroke-linecap="round" stroke-linejoin="round" stroke-width="2"/>
        <line id="Line_1762" data-name="Line 1762" y1="3.571" transform="translate(6677.317 1544.466)" fill="none" stroke="#0073ff" stroke-linecap="round" stroke-linejoin="round" stroke-width="2"/>
        <line id="Line_1763" data-name="Line 1763" y1="3.571" transform="translate(6669.721 1544.466)" fill="none" stroke="#0073ff" stroke-linecap="round" stroke-linejoin="round" stroke-width="2"/>
        <line id="Line_1764" data-name="Line 1764" y1="3.571" transform="translate(6684.913 1535.597)" fill="none" stroke="#0073ff" stroke-linecap="round" stroke-linejoin="round" stroke-width="2"/>
        <line id="Line_1765" data-name="Line 1765" y1="3.571" transform="translate(6677.317 1535.597)" fill="none" stroke="#0073ff" stroke-linecap="round" stroke-linejoin="round" stroke-width="2"/>
        <line id="Line_1766" data-name="Line 1766" y1="3.571" transform="translate(6669.721 1535.597)" fill="none" stroke="#0073ff" stroke-linecap="round" stroke-linejoin="round" stroke-width="2"/>
        <line id="Line_1767" data-name="Line 1767" y1="3.571" transform="translate(6684.913 1553.334)" fill="none" stroke="#0073ff" stroke-linecap="round" stroke-linejoin="round" stroke-width="2"/>
        <line id="Line_1768" data-name="Line 1768" y1="3.571" transform="translate(6677.317 1553.334)" fill="none" stroke="#0073ff" stroke-linecap="round" stroke-linejoin="round" stroke-width="2"/>
        <line id="Line_1769" data-name="Line 1769" y1="3.571" transform="translate(6669.721 1553.334)" fill="none" stroke="#0073ff" stroke-linecap="round" stroke-linejoin="round" stroke-width="2"/>
      </g>
      <path id="Path_1610" data-name="Path 1610" d="M6700.992,1507.457v13.59m-2.891,10.44v-3.574m6.994,0v3.574m-6.994,19.385V1547.3m6.994,0v3.574m-6.994-9.329v-3.574m6.994,0v3.574m0,15.972v3.574m2.827,11.294a8.954,8.954,0,0,1-6.2-2.5l-4.1-3.934a8.957,8.957,0,0,0-6.2-2.5h0v-41.937h20.494v50.862Z" fill="none" stroke="#0073ff" stroke-linecap="round" stroke-linejoin="round" stroke-width="2"/>
      <line id="Line_1770" data-name="Line 1770" x1="15.609" transform="translate(6712.243 1572.472)" fill="none" stroke="#0073ff" stroke-linecap="round" stroke-linejoin="round" stroke-width="2"/>
      <line id="Line_1771" data-name="Line 1771" x2="39.374" transform="translate(6627.954 1563.547)" fill="none" stroke="#0073ff" stroke-linecap="round" stroke-linejoin="round" stroke-width="2"/>
    </g>
    <g id="Group_2425" data-name="Group 2425" transform="translate(-5507.853 -52.464)">
      <line id="Line_1772" data-name="Line 1772" x1="2.918" transform="translate(6676.843 1615.234)" fill="none" stroke="#0073ff" stroke-linecap="round" stroke-linejoin="round" stroke-width="2"/>
      <path id="Path_1611" data-name="Path 1611" d="M6671.97,1608.949h12.757l-6.378-7.519Z" fill="none" stroke="#0073ff" stroke-linecap="round" stroke-linejoin="round" stroke-width="2"/>
      <line id="Line_1773" data-name="Line 1773" y2="3.428" transform="translate(6696.122 1596.446)" fill="none" stroke="#0073ff" stroke-linecap="round" stroke-linejoin="round" stroke-width="2"/>
      <line id="Line_1774" data-name="Line 1774" y1="3.428" transform="translate(6688.54 1596.446)" fill="none" stroke="#0073ff" stroke-linecap="round" stroke-linejoin="round" stroke-width="2"/>
      <g id="Group_2422" data-name="Group 2422">
        <line id="Line_1775" data-name="Line 1775" y2="3.431" transform="translate(6671.97 1586.008)" fill="none" stroke="#0073ff" stroke-linecap="round" stroke-linejoin="round" stroke-width="2"/>
        <line id="Line_1776" data-name="Line 1776" y1="3.431" transform="translate(6665.604 1586.008)" fill="none" stroke="#0073ff" stroke-linecap="round" stroke-linejoin="round" stroke-width="2"/>
        <line id="Line_1777" data-name="Line 1777" y2="3.431" transform="translate(6659.237 1586.008)" fill="none" stroke="#0073ff" stroke-linecap="round" stroke-linejoin="round" stroke-width="2"/>
      </g>
      <g id="Group_2423" data-name="Group 2423">
        <line id="Line_1778" data-name="Line 1778" y2="3.431" transform="translate(6671.97 1596.444)" fill="none" stroke="#0073ff" stroke-linecap="round" stroke-linejoin="round" stroke-width="2"/>
        <line id="Line_1779" data-name="Line 1779" y1="3.431" transform="translate(6665.604 1596.444)" fill="none" stroke="#0073ff" stroke-linecap="round" stroke-linejoin="round" stroke-width="2"/>
        <line id="Line_1780" data-name="Line 1780" y1="3.431" transform="translate(6659.237 1596.444)" fill="none" stroke="#0073ff" stroke-linecap="round" stroke-linejoin="round" stroke-width="2"/>
      </g>
      <g id="Group_2424" data-name="Group 2424">
        <line id="Line_1781" data-name="Line 1781" y1="3.431" transform="translate(6665.604 1606.88)" fill="none" stroke="#0073ff" stroke-linecap="round" stroke-linejoin="round" stroke-width="2"/>
        <line id="Line_1782" data-name="Line 1782" y1="3.431" transform="translate(6659.237 1606.88)" fill="none" stroke="#0073ff" stroke-linecap="round" stroke-linejoin="round" stroke-width="2"/>
      </g>
      <rect id="Rectangle_873" data-name="Rectangle 873" width="12.756" height="12.933" transform="translate(6671.972 1608.949)" stroke-width="2" stroke="#0073ff" stroke-linecap="round" stroke-linejoin="round" fill="none"/>
      <path id="Path_1612" data-name="Path 1612" d="M6703.52,1606.88v-15.609h-25.17" fill="none" stroke="#0073ff" stroke-linecap="round" stroke-linejoin="round" stroke-width="2"/>
      <path id="Path_1613" data-name="Path 1613" d="M6678.349,1602.091v-21.818H6653.3v41.609" fill="none" stroke="#0073ff" stroke-linecap="round" stroke-linejoin="round" stroke-width="2"/>
      <path id="Path_1614" data-name="Path 1614" d="M6711.382,1621.882v-15h-17.82" fill="none" stroke="#0073ff" stroke-linecap="round" stroke-linejoin="round" stroke-width="2"/>
      <line id="Line_1783" data-name="Line 1783" y2="2.899" transform="translate(6704.068 1613.536)" fill="none" stroke="#0073ff" stroke-linecap="round" stroke-linejoin="round" stroke-width="2"/>
      <line id="Line_1784" data-name="Line 1784" y2="2.899" transform="translate(6696.122 1613.536)" fill="none" stroke="#0073ff" stroke-linecap="round" stroke-linejoin="round" stroke-width="2"/>
    </g>
    <path id="Path_1615" data-name="Path 1615" d="M6707.594,1413.692c10.909-1.837,16.513,5.154,16.513,5.154a18.116,18.116,0,0,1,16.514-5.154" transform="translate(-5507.853 -52.464)" fill="none" stroke="#0073ff" stroke-linecap="round" stroke-linejoin="round" stroke-width="3"/>
    <g id="Group_2426" data-name="Group 2426" transform="translate(-5507.853 -52.464)">
      <line id="Line_1785" data-name="Line 1785" x2="6.199" transform="translate(6638.849 1556.944)" fill="none" stroke="#0073ff" stroke-linecap="round" stroke-linejoin="round" stroke-width="2"/>
      <path id="Path_1616" data-name="Path 1616" d="M6652.955,1552.267H6631.5l10.383-11.178Z" fill="none" stroke="#0073ff" stroke-linecap="round" stroke-linejoin="round" stroke-width="2"/>
      <rect id="Rectangle_874" data-name="Rectangle 874" width="18.001" height="11.28" transform="translate(6632.882 1552.267)" stroke-width="2" stroke="#0073ff" stroke-linecap="round" stroke-linejoin="round" fill="none"/>
    </g>
    <g id="Group_2430" data-name="Group 2430" transform="translate(-5507.853 -52.464)">
      <g id="Group_2428" data-name="Group 2428">
        <g id="Group_2427" data-name="Group 2427">
          <path id="Path_1617" data-name="Path 1617" d="M6559.907,1540.859h3.835l-4.129-5.679h3.369l-5.139-7.072-5.139,7.072h3.369l-4.129,5.679h7.964Z" fill="none" stroke="#0073ff" stroke-linecap="round" stroke-linejoin="round" stroke-width="2"/>
          <line id="Line_1786" data-name="Line 1786" y2="4.494" transform="translate(6557.842 1540.859)" fill="none" stroke="#0073ff" stroke-linecap="round" stroke-linejoin="round" stroke-width="2"/>
        </g>
        <path id="Path_1618" data-name="Path 1618" d="M6602.4,1540.679h-20.043a11.765,11.765,0,0,0-7.038,2.337h0a11.77,11.77,0,0,1-7.039,2.337H6545.1" fill="none" stroke="#0073ff" stroke-linecap="round" stroke-linejoin="round" stroke-width="2"/>
      </g>
      <g id="Group_2429" data-name="Group 2429">
        <line id="Line_1787" data-name="Line 1787" y2="3.64" transform="translate(6587.04 1537.038)" fill="none" stroke="#0073ff" stroke-linecap="round" stroke-linejoin="round" stroke-width="2"/>
        <line id="Line_1788" data-name="Line 1788" y2="5.922" transform="translate(6592.317 1534.757)" fill="none" stroke="#0073ff" stroke-linecap="round" stroke-linejoin="round" stroke-width="2"/>
        <line id="Line_1789" data-name="Line 1789" y2="4.096" transform="translate(6597.595 1536.582)" fill="none" stroke="#0073ff" stroke-linecap="round" stroke-linejoin="round" stroke-width="2"/>
      </g>
    </g>
  </g>
</svg>
