<svg xmlns="http://www.w3.org/2000/svg" width="259.895" height="221.418"><g data-name="Group 2412" fill="none" stroke="#0073ff" stroke-linecap="round" stroke-linejoin="round" stroke-width="2"><g data-name="Group 2408"><path data-name="Path 1595" d="M133.414 195.148H78.957c-16.963 0-16.128 14.148-35.235 14.148h-3.775"/><path data-name="Path 1596" d="M126.777 174.588H77.433v20.56h49.344zm-44.719 15.193h4.624m30.846 0h4.619m-40.094-4.913h4.624m30.846 0h4.624m-40.094-4.914h4.624m4.243 0h4.624m4.244 0h4.624m4.243 0h4.624m4.244 0h4.624m-11.12 8.207H94.579v6.987h16.448zm-19.413-3.293h20.971m-13.1 6.542v3.738m6.152-3.738v3.738m11.885-28.109H88.49v7.549h29.032zm-10.549-6.329H99.6l-2.145 6.329h11.663zm-24.921 13.878v-22.111m.985 12.98c.508 0 .919-.709.919-1.582s-.411-1.583-.919-1.583h-2.769m2.769-3.792c.508 0 .919-.709.919-1.583s-.411-1.582-.919-1.582h-2.769"/></g><g data-name="Group 2409"><path data-name="Path 1597" d="M76.472 215.578h-4.059l4.37-6.01h-3.565l5.438-7.484 5.438 7.484h-3.565l4.37 6.01H76.47z"/><path data-name="Line 1748" d="M78.657 215.578v4.756"/></g><g data-name="Group 2410"><path data-name="Path 1598" d="M122.916 215.578h-4.059l4.37-6.01h-3.565l5.438-7.484 5.438 7.484h-3.564l4.37 6.01h-8.429z"/><path data-name="Line 1749" d="M125.101 215.578v4.756"/></g><path data-name="Line 1750" d="M99.208 196.203l-4.717 23.762"/><path data-name="Line 1751" d="M105.643 196.203l4.717 23.762"/><g data-name="Group 2411"><path data-name="Line 1752" d="M98.404 200.97h8.042"/><path data-name="Line 1753" d="M97.376 207.424h10.099"/><path data-name="Line 1754" d="M96.322 213.878h12.206"/></g></g><path data-name="Path 1599" d="M46.747 220.336a3.586 3.586 0 0 0-7.13 0 3.275 3.275 0 0 1-3.566-3.2m0 0a8.35 8.35 0 0 0-10.694 3.2 3.585 3.585 0 0 0-7.13 0" fill="none" stroke="#0073ff" stroke-linecap="round" stroke-linejoin="round" stroke-width="2"/><g data-name="Group 2413"><path data-name="Path 1600" d="M258.895 220.418H59.725" fill="none" stroke="#0073ff" stroke-linecap="round" stroke-linejoin="round" stroke-width="2"/></g><path data-name="Path 1601" d="M67.537 14.614a6.327 6.327 0 0 0-6.361-5.354h-1.319a8.377 8.377 0 0 0-15.618-4.094h-2.121a5.884 5.884 0 0 0-5.735 4.594h-3.319a5.888 5.888 0 0 0 0 11.776h28.383a6.154 6.154 0 0 0 6.09-6.922z" fill="none" stroke="#0073ff" stroke-linecap="round" stroke-linejoin="round" stroke-width="2"/><path data-name="Path 1602" d="M10.517 27.959h0a2.655 2.655 0 0 1 2.308-1.938 3.966 3.966 0 0 1 7.393 1.938h.624a3 3 0 0 1 3.011 2.534 2.914 2.914 0 0 1-2.882 3.277H10.494a2.906 2.906 0 1 1 .023-5.811z" fill="none" stroke="#0073ff" stroke-linecap="round" stroke-linejoin="round" stroke-width="2"/><path data-name="Path 1619" d="M125.497 21.885a53 53 0 1 1-53 53 53 53 0 0 1 53-53z" fill="#fff"/><path data-name="Path 1603" d="M229.963 215.263s-19.594-2.569 0-28.275c0 0 19.705 24.363 0 28.275zm4.36-11.163a3.431 3.431 0 0 1-3.433 3.427h-.927m-3.952-.662a3.119 3.119 0 0 0 3.121 3.116h.831m-3.389-10.615a3.387 3.387 0 0 0 3.389 3.386m0 17.656v-25.932" fill="none" stroke="#0073ff" stroke-linecap="round" stroke-linejoin="round" stroke-width="2"/><g data-name="Group 2414" fill="none" stroke="#0073ff" stroke-linecap="round" stroke-linejoin="round" stroke-width="2"><path data-name="Line 1755" d="M245.047 214.597v5.821"/><path data-name="Line 1756" d="M239.343 216.948v3.47"/><path data-name="Line 1757" d="M250.751 216.948v3.47"/></g><g data-name="Group 2415" fill="#0073ff"><path data-name="Path 1604" d="M93.398 59.67c-1.159 5.325 2.272 11.927 4.923 16.328a69.313 69.313 0 0 0 23.805 23.806c4.4 2.65 11 6.081 16.328 4.922 3.479-.733 9.51-5.877 9.581-9.687.041-1.967-2.025-4.094-4.012-5.966-2.555-2.406-5.8-4.849-8.247-4.583-2.887.331-3.738 3.266-6.151 4.213-2.6 1.041-5.487-1.464-7.357-2.908a72.997 72.997 0 0 1-4.52-3.775 25.227 25.227 0 0 1-1.643-1.644 71.302 71.302 0 0 1-3.776-4.52c-1.443-1.869-3.948-4.753-2.907-7.356.946-2.414 3.881-3.265 4.213-6.152.265-2.45-2.177-5.692-4.584-8.247-1.872-1.987-4-4.053-5.966-4.011-3.81.071-8.953 6.102-9.687 9.58z"/><path data-name="Path 1605" d="M135.547 45.812a15.281 15.281 0 1 0 15.281 15.281 15.28 15.28 0 0 0-15.281-15.281zm10.106 15.966a2.515 2.515 0 0 1-2.515 2.514h-4.391v4.392a2.514 2.514 0 0 1-2.514 2.514h-1.37a2.515 2.515 0 0 1-2.515-2.514v-4.392h-4.392a2.514 2.514 0 0 1-2.514-2.514v-1.371a2.514 2.514 0 0 1 2.514-2.514h4.392v-4.391a2.515 2.515 0 0 1 2.515-2.515h1.37a2.514 2.514 0 0 1 2.514 2.515v4.391h4.391a2.515 2.515 0 0 1 2.515 2.514z"/></g><g data-name="Group 2419" fill="none" stroke="#0073ff" stroke-linecap="round" stroke-linejoin="round" stroke-width="2"><g data-name="Group 2417"><g data-name="Group 2416"><path data-name="Line 1758" d="M4.925 191.165v1.712"/><path data-name="Line 1759" d="M7.534 189.453v3.424"/><path data-name="Line 1760" d="M10.144 191.165v1.712"/></g><path data-name="Path 1606" d="M65.678 185.569H29.259a13.214 13.214 0 0 0-9.347 3.872h0a13.223 13.223 0 0 1-9.348 3.872H1"/></g><g data-name="Group 2418"><path data-name="Rectangle 872" d="M29.597 165.064h28.642v20.504H29.597z"/><path data-name="Path 1607" d="M36.647 169.893v3.015m6.9-3.015v3.015m6.9-3.015v3.015m-13.8 4.808v3.015m6.9-3.015v3.015m6.9-3.015v3.015"/><path data-name="Path 1608" d="M30.665 158.5h26.507l2.551 6.565H28.115z"/></g></g><g data-name="Group 2421" fill="none" stroke="#0073ff" stroke-linecap="round" stroke-linejoin="round" stroke-width="2"><path data-name="Path 1609" d="M188.569 162.083l-27.949-.111V127.63h27.949z"/><g data-name="Group 2420"><path data-name="Line 1761" d="M182.06 146.573v-3.571"/><path data-name="Line 1762" d="M174.464 146.573v-3.571"/><path data-name="Line 1763" d="M166.868 146.573v-3.571"/><path data-name="Line 1764" d="M182.06 137.704v-3.571"/><path data-name="Line 1765" d="M174.464 137.704v-3.571"/><path data-name="Line 1766" d="M166.868 137.704v-3.571"/><path data-name="Line 1767" d="M182.06 155.441v-3.571"/><path data-name="Line 1768" d="M174.464 155.441v-3.571"/><path data-name="Line 1769" d="M166.868 155.441v-3.571"/></g><path data-name="Path 1610" d="M198.139 105.993v13.59m-2.891 10.44v-3.574m6.994 0v3.574m-6.994 19.385v-3.572m6.994 0v3.574m-6.994-9.329v-3.574m6.994 0v3.574m0 15.972v3.574m2.827 11.294a8.954 8.954 0 0 1-6.2-2.5l-4.1-3.934a8.957 8.957 0 0 0-6.2-2.5h0V120.05h20.494v50.862z"/><path data-name="Line 1770" d="M224.999 171.008H209.39"/><path data-name="Line 1771" d="M125.101 162.083h39.374"/></g><g data-name="Group 2425" fill="none" stroke="#0073ff" stroke-linecap="round" stroke-linejoin="round" stroke-width="2"><path data-name="Line 1772" d="M176.908 213.77h-2.918"/><path data-name="Path 1611" d="M169.117 207.485h12.757l-6.378-7.519z"/><path data-name="Line 1773" d="M193.269 194.982v3.428"/><path data-name="Line 1774" d="M185.687 198.41v-3.428"/><g data-name="Group 2422"><path data-name="Line 1775" d="M169.117 184.544v3.431"/><path data-name="Line 1776" d="M162.751 187.975v-3.431"/><path data-name="Line 1777" d="M156.384 184.544v3.431"/></g><g data-name="Group 2423"><path data-name="Line 1778" d="M169.117 194.98v3.431"/><path data-name="Line 1779" d="M162.751 198.411v-3.431"/><path data-name="Line 1780" d="M156.384 198.411v-3.431"/></g><g data-name="Group 2424"><path data-name="Line 1781" d="M162.751 208.847v-3.431"/><path data-name="Line 1782" d="M156.384 208.847v-3.431"/></g><path data-name="Rectangle 873" d="M169.119 207.485h12.756v12.933h-12.756z"/><path data-name="Path 1612" d="M200.667 205.416v-15.609h-25.17"/><path data-name="Path 1613" d="M175.496 200.627v-21.818h-25.049v41.609"/><path data-name="Path 1614" d="M208.529 220.418v-15h-17.82"/><path data-name="Line 1783" d="M201.215 212.072v2.899"/><path data-name="Line 1784" d="M193.269 212.072v2.899"/></g><path data-name="Path 1615" d="M204.741 12.228c10.909-1.837 16.513 5.154 16.513 5.154a18.116 18.116 0 0 1 16.514-5.154" fill="none" stroke="#0073ff" stroke-linecap="round" stroke-linejoin="round" stroke-width="3"/><g data-name="Group 2426" fill="none" stroke="#0073ff" stroke-linecap="round" stroke-linejoin="round" stroke-width="2"><path data-name="Line 1785" d="M135.996 155.48h6.199"/><path data-name="Path 1616" d="M150.102 150.803h-21.455l10.383-11.178z"/><path data-name="Rectangle 874" d="M130.029 150.803h18.001v11.28h-18.001z"/></g><g data-name="Group 2430" fill="none" stroke="#0073ff" stroke-linecap="round" stroke-linejoin="round" stroke-width="2"><g data-name="Group 2428"><g data-name="Group 2427"><path data-name="Path 1617" d="M57.054 139.395h3.835l-4.129-5.679h3.369l-5.139-7.072-5.139 7.072h3.369l-4.129 5.679h7.964z"/><path data-name="Line 1786" d="M54.989 139.395v4.494"/></g><path data-name="Path 1618" d="M99.547 139.215H79.504a11.765 11.765 0 0 0-7.038 2.337h0a11.77 11.77 0 0 1-7.039 2.337h-23.18"/></g><g data-name="Group 2429"><path data-name="Line 1787" d="M84.187 135.574v3.64"/><path data-name="Line 1788" d="M89.464 133.293v5.922"/><path data-name="Line 1789" d="M94.742 135.118v4.096"/></g></g></svg>