<svg xmlns="http://www.w3.org/2000/svg" width="273.779" height="221.418" viewBox="0 0 273.779 221.418">
  <g id="cover_hotel" transform="translate(-1318 -1349)">
    <g id="Group_2365" data-name="Group 2365" transform="translate(-4829.585 -52.464)">
      <path id="Path_1549" data-name="Path 1549" d="M6420.365,1621.882h-271.78" fill="none" stroke="#0073ff" stroke-linecap="round" stroke-linejoin="round" stroke-width="2"/>
    </g>
    <path id="Path_1550" data-name="Path 1550" d="M6358.676,1414.277h0a5.136,5.136,0,0,1,4.464-3.747,7.668,7.668,0,0,1,14.3,3.747h1.207a5.79,5.79,0,0,1,5.822,4.9,5.632,5.632,0,0,1-5.572,6.336h-20.26a5.619,5.619,0,1,1,.043-11.237Z" transform="translate(-4829.585 -52.464)" fill="none" stroke="#0073ff" stroke-linecap="round" stroke-linejoin="round" stroke-width="2"/>
    <path id="Path_1551" data-name="Path 1551" d="M6229.007,1416.078a6.325,6.325,0,0,0-6.361-5.354h-1.319a8.377,8.377,0,0,0-15.617-4.094h-2.122a5.881,5.881,0,0,0-5.734,4.594h-3.319a5.888,5.888,0,1,0,0,11.776h28.384A6.154,6.154,0,0,0,6229.007,1416.078Z" transform="translate(-4829.585 -52.464)" fill="none" stroke="#0073ff" stroke-linecap="round" stroke-linejoin="round" stroke-width="2"/>
    <path id="Path_1552" data-name="Path 1552" d="M6171.987,1429.423h0a2.657,2.657,0,0,1,2.309-1.938,3.965,3.965,0,0,1,7.392,1.938h.624a3,3,0,0,1,3.011,2.534,2.913,2.913,0,0,1-2.882,3.277h-10.476a2.906,2.906,0,1,1,.022-5.811Z" transform="translate(-4829.585 -52.464)" fill="none" stroke="#0073ff" stroke-linecap="round" stroke-linejoin="round" stroke-width="2"/>
    <circle id="Ellipse_208" data-name="Ellipse 208" cx="53" cy="53" r="53" transform="translate(1404.382 1370.885)" fill="#fff"/>
    <path id="Path_1553" data-name="Path 1553" d="M6391.433,1616.727s-19.594-2.569,0-28.275C6391.433,1588.452,6411.139,1612.815,6391.433,1616.727Zm4.36-11.163a3.432,3.432,0,0,1-3.433,3.427h-.927m-3.951-.662a3.118,3.118,0,0,0,3.121,3.116h.83m-3.388-10.615a3.387,3.387,0,0,0,3.388,3.386m0,17.656V1595.94" transform="translate(-4829.585 -52.464)" fill="none" stroke="#0073ff" stroke-linecap="round" stroke-linejoin="round" stroke-width="2"/>
    <g id="Group_2366" data-name="Group 2366" transform="translate(-4829.585 -52.464)">
      <line id="Line_1653" data-name="Line 1653" y2="5.821" transform="translate(6406.518 1616.061)" fill="none" stroke="#0073ff" stroke-linecap="round" stroke-linejoin="round" stroke-width="2"/>
      <line id="Line_1654" data-name="Line 1654" y2="3.47" transform="translate(6400.813 1618.412)" fill="none" stroke="#0073ff" stroke-linecap="round" stroke-linejoin="round" stroke-width="2"/>
      <line id="Line_1655" data-name="Line 1655" y2="3.47" transform="translate(6412.222 1618.412)" fill="none" stroke="#0073ff" stroke-linecap="round" stroke-linejoin="round" stroke-width="2"/>
    </g>
    <g id="Group_2367" data-name="Group 2367" transform="translate(-4829.585 -52.464)">
      <path id="Path_1554" data-name="Path 1554" d="M6299.932,1555.978l4.731-12.565,4.731,12.565Z" fill="none" stroke="#0073ff" stroke-linecap="round" stroke-linejoin="round" stroke-width="2"/>
      <line id="Line_1656" data-name="Line 1656" y2="4.095" transform="translate(6304.663 1555.978)" fill="none" stroke="#0073ff" stroke-linecap="round" stroke-linejoin="round" stroke-width="2"/>
    </g>
    <g id="Group_2371" data-name="Group 2371" transform="translate(-4829.585 -52.464)">
      <g id="Group_2369" data-name="Group 2369">
        <g id="Group_2368" data-name="Group 2368">
          <line id="Line_1657" data-name="Line 1657" y2="2.276" transform="translate(6396.148 1567.513)" fill="none" stroke="#0073ff" stroke-linecap="round" stroke-linejoin="round" stroke-width="2"/>
          <line id="Line_1658" data-name="Line 1658" y2="4.552" transform="translate(6392.68 1565.237)" fill="none" stroke="#0073ff" stroke-linecap="round" stroke-linejoin="round" stroke-width="2"/>
          <line id="Line_1659" data-name="Line 1659" y2="2.276" transform="translate(6389.211 1567.513)" fill="none" stroke="#0073ff" stroke-linecap="round" stroke-linejoin="round" stroke-width="2"/>
        </g>
        <path id="Path_1555" data-name="Path 1555" d="M6299.017,1560.074h63.45a17.577,17.577,0,0,1,12.428,5.147h0a17.575,17.575,0,0,0,12.428,5.148h12.715" fill="none" stroke="#0073ff" stroke-linecap="round" stroke-linejoin="round" stroke-width="2"/>
      </g>
      <g id="Group_2370" data-name="Group 2370">
        <rect id="Rectangle_861" data-name="Rectangle 861" width="41.508" height="24.928" transform="translate(6316.405 1535.146)" stroke-width="2" stroke="#0073ff" stroke-linecap="round" stroke-linejoin="round" fill="none"/>
        <path id="Path_1556" data-name="Path 1556" d="M6349.344,1544.682v-3.666m-8.387,3.666v-3.666m-8.387,3.666v-3.666m-8.386,3.666v-3.666m25.16,13.177v-3.666m-8.387,3.666v-3.666m-8.387,3.666v-3.666m-8.386,3.666v-3.666" fill="none" stroke="#0073ff" stroke-linecap="round" stroke-linejoin="round" stroke-width="2"/>
        <path id="Path_1557" data-name="Path 1557" d="M6356.615,1527.165H6317.7l-3.1,7.981h45.114Z" fill="none" stroke="#0073ff" stroke-linecap="round" stroke-linejoin="round" stroke-width="2"/>
      </g>
    </g>
    <g id="Group_2373" data-name="Group 2373" transform="translate(-4829.585 -52.464)">
      <path id="Path_1558" data-name="Path 1558" d="M6200.632,1567.272l27.949-.111v-34.342h-27.949Z" fill="none" stroke="#0073ff" stroke-linecap="round" stroke-linejoin="round" stroke-width="2"/>
      <g id="Group_2372" data-name="Group 2372">
        <line id="Line_1660" data-name="Line 1660" y1="3.571" transform="translate(6207.142 1548.19)" fill="none" stroke="#0073ff" stroke-linecap="round" stroke-linejoin="round" stroke-width="2"/>
        <line id="Line_1661" data-name="Line 1661" y1="3.571" transform="translate(6214.737 1548.19)" fill="none" stroke="#0073ff" stroke-linecap="round" stroke-linejoin="round" stroke-width="2"/>
        <line id="Line_1662" data-name="Line 1662" y1="3.571" transform="translate(6222.333 1548.19)" fill="none" stroke="#0073ff" stroke-linecap="round" stroke-linejoin="round" stroke-width="2"/>
        <line id="Line_1663" data-name="Line 1663" y1="3.571" transform="translate(6207.142 1539.322)" fill="none" stroke="#0073ff" stroke-linecap="round" stroke-linejoin="round" stroke-width="2"/>
        <line id="Line_1664" data-name="Line 1664" y1="3.571" transform="translate(6214.737 1539.322)" fill="none" stroke="#0073ff" stroke-linecap="round" stroke-linejoin="round" stroke-width="2"/>
        <line id="Line_1665" data-name="Line 1665" y1="3.571" transform="translate(6222.333 1539.322)" fill="none" stroke="#0073ff" stroke-linecap="round" stroke-linejoin="round" stroke-width="2"/>
        <line id="Line_1666" data-name="Line 1666" y1="3.571" transform="translate(6207.142 1557.059)" fill="none" stroke="#0073ff" stroke-linecap="round" stroke-linejoin="round" stroke-width="2"/>
        <line id="Line_1667" data-name="Line 1667" y1="3.571" transform="translate(6214.737 1557.059)" fill="none" stroke="#0073ff" stroke-linecap="round" stroke-linejoin="round" stroke-width="2"/>
        <line id="Line_1668" data-name="Line 1668" y1="3.571" transform="translate(6222.333 1557.059)" fill="none" stroke="#0073ff" stroke-linecap="round" stroke-linejoin="round" stroke-width="2"/>
      </g>
      <path id="Path_1559" data-name="Path 1559" d="M6191.062,1524.771v-13.59m2.891,20.456v3.574m-6.993,0v-3.574m6.993,19.385v3.574m-6.993,0v-3.574m6.993-9.329v3.574m-6.993,0v-3.574m0,23.12v-3.574m-6.821,14.868v-50.861h20.493v41.937h0a8.953,8.953,0,0,0-6.2,2.495l-4.1,3.934a8.956,8.956,0,0,1-6.2,2.495Z" fill="none" stroke="#0073ff" stroke-linecap="round" stroke-linejoin="round" stroke-width="2"/>
      <line id="Line_1669" data-name="Line 1669" x2="15.609" transform="translate(6164.203 1576.196)" fill="none" stroke="#0073ff" stroke-linecap="round" stroke-linejoin="round" stroke-width="2"/>
      <line id="Line_1670" data-name="Line 1670" x1="6.936" transform="translate(6224.727 1567.272)" fill="none" stroke="#0073ff" stroke-linecap="round" stroke-linejoin="round" stroke-width="2"/>
    </g>
    <g id="Group_2377" data-name="Group 2377" transform="translate(-4829.585 -52.464)">
      <path id="Path_1560" data-name="Path 1560" d="M6244.515,1621.481V1550.43h41.444v71.452m-40.62-21.312h40.62m-47.409-50.18,4.728-5.581h43.414l4.726,5.58" fill="none" stroke="#0073ff" stroke-linecap="round" stroke-linejoin="round" stroke-width="2"/>
      <g id="Group_2374" data-name="Group 2374">
        <line id="Line_1671" data-name="Line 1671" y2="4.565" transform="translate(6279.315 1558.686)" fill="none" stroke="#0073ff" stroke-linecap="round" stroke-linejoin="round" stroke-width="2"/>
        <line id="Line_1672" data-name="Line 1672" y2="4.565" transform="translate(6272.448 1558.686)" fill="none" stroke="#0073ff" stroke-linecap="round" stroke-linejoin="round" stroke-width="2"/>
        <line id="Line_1673" data-name="Line 1673" y2="4.565" transform="translate(6265.581 1558.686)" fill="none" stroke="#0073ff" stroke-linecap="round" stroke-linejoin="round" stroke-width="2"/>
        <line id="Line_1674" data-name="Line 1674" y2="4.565" transform="translate(6258.713 1558.686)" fill="none" stroke="#0073ff" stroke-linecap="round" stroke-linejoin="round" stroke-width="2"/>
        <line id="Line_1675" data-name="Line 1675" y2="4.565" transform="translate(6251.846 1558.686)" fill="none" stroke="#0073ff" stroke-linecap="round" stroke-linejoin="round" stroke-width="2"/>
      </g>
      <g id="Group_2375" data-name="Group 2375">
        <line id="Line_1676" data-name="Line 1676" y2="4.565" transform="translate(6279.315 1572.873)" fill="none" stroke="#0073ff" stroke-linecap="round" stroke-linejoin="round" stroke-width="2"/>
        <line id="Line_1677" data-name="Line 1677" y2="4.565" transform="translate(6272.448 1572.873)" fill="none" stroke="#0073ff" stroke-linecap="round" stroke-linejoin="round" stroke-width="2"/>
        <line id="Line_1678" data-name="Line 1678" y2="4.565" transform="translate(6265.581 1572.873)" fill="none" stroke="#0073ff" stroke-linecap="round" stroke-linejoin="round" stroke-width="2"/>
        <line id="Line_1679" data-name="Line 1679" y2="4.565" transform="translate(6258.713 1572.873)" fill="none" stroke="#0073ff" stroke-linecap="round" stroke-linejoin="round" stroke-width="2"/>
        <line id="Line_1680" data-name="Line 1680" y2="4.565" transform="translate(6251.846 1572.873)" fill="none" stroke="#0073ff" stroke-linecap="round" stroke-linejoin="round" stroke-width="2"/>
      </g>
      <g id="Group_2376" data-name="Group 2376">
        <line id="Line_1681" data-name="Line 1681" y2="4.565" transform="translate(6279.315 1587.061)" fill="none" stroke="#0073ff" stroke-linecap="round" stroke-linejoin="round" stroke-width="2"/>
        <line id="Line_1682" data-name="Line 1682" y2="4.565" transform="translate(6272.448 1587.061)" fill="none" stroke="#0073ff" stroke-linecap="round" stroke-linejoin="round" stroke-width="2"/>
        <line id="Line_1683" data-name="Line 1683" y2="4.565" transform="translate(6265.581 1587.061)" fill="none" stroke="#0073ff" stroke-linecap="round" stroke-linejoin="round" stroke-width="2"/>
        <line id="Line_1684" data-name="Line 1684" y2="4.565" transform="translate(6258.713 1587.061)" fill="none" stroke="#0073ff" stroke-linecap="round" stroke-linejoin="round" stroke-width="2"/>
        <line id="Line_1685" data-name="Line 1685" y2="4.565" transform="translate(6251.846 1587.061)" fill="none" stroke="#0073ff" stroke-linecap="round" stroke-linejoin="round" stroke-width="2"/>
      </g>
      <line id="Line_1686" data-name="Line 1686" y2="4.565" transform="translate(6265.581 1607.904)" fill="none" stroke="#0073ff" stroke-linecap="round" stroke-linejoin="round" stroke-width="2"/>
      <line id="Line_1687" data-name="Line 1687" y2="4.565" transform="translate(6258.713 1607.904)" fill="none" stroke="#0073ff" stroke-linecap="round" stroke-linejoin="round" stroke-width="2"/>
      <line id="Line_1688" data-name="Line 1688" y2="4.565" transform="translate(6251.846 1607.904)" fill="none" stroke="#0073ff" stroke-linecap="round" stroke-linejoin="round" stroke-width="2"/>
    </g>
    <g id="Group_2381" data-name="Group 2381" transform="translate(-4829.585 -52.464)">
      <line id="Line_1689" data-name="Line 1689" x1="2.918" transform="translate(6208.552 1615.234)" fill="none" stroke="#0073ff" stroke-linecap="round" stroke-linejoin="round" stroke-width="2"/>
      <path id="Path_1561" data-name="Path 1561" d="M6209.964,1601.43l-6.379,7.519h12.757Z" fill="none" stroke="#0073ff" stroke-linecap="round" stroke-linejoin="round" stroke-width="2"/>
      <line id="Line_1690" data-name="Line 1690" y1="3.428" transform="translate(6184.245 1596.446)" fill="none" stroke="#0073ff" stroke-linecap="round" stroke-linejoin="round" stroke-width="2"/>
      <line id="Line_1691" data-name="Line 1691" y1="3.428" transform="translate(6192.191 1596.446)" fill="none" stroke="#0073ff" stroke-linecap="round" stroke-linejoin="round" stroke-width="2"/>
      <line id="Line_1692" data-name="Line 1692" y2="3.428" transform="translate(6199.773 1596.446)" fill="none" stroke="#0073ff" stroke-linecap="round" stroke-linejoin="round" stroke-width="2"/>
      <g id="Group_2378" data-name="Group 2378">
        <line id="Line_1693" data-name="Line 1693" y1="3.431" transform="translate(6216.343 1586.008)" fill="none" stroke="#0073ff" stroke-linecap="round" stroke-linejoin="round" stroke-width="2"/>
        <line id="Line_1694" data-name="Line 1694" y2="3.431" transform="translate(6222.709 1586.008)" fill="none" stroke="#0073ff" stroke-linecap="round" stroke-linejoin="round" stroke-width="2"/>
        <line id="Line_1695" data-name="Line 1695" y1="3.431" transform="translate(6229.076 1586.008)" fill="none" stroke="#0073ff" stroke-linecap="round" stroke-linejoin="round" stroke-width="2"/>
      </g>
      <g id="Group_2379" data-name="Group 2379">
        <line id="Line_1696" data-name="Line 1696" y1="3.431" transform="translate(6216.343 1596.444)" fill="none" stroke="#0073ff" stroke-linecap="round" stroke-linejoin="round" stroke-width="2"/>
        <line id="Line_1697" data-name="Line 1697" y2="3.431" transform="translate(6222.709 1596.444)" fill="none" stroke="#0073ff" stroke-linecap="round" stroke-linejoin="round" stroke-width="2"/>
        <line id="Line_1698" data-name="Line 1698" y2="3.431" transform="translate(6229.076 1596.444)" fill="none" stroke="#0073ff" stroke-linecap="round" stroke-linejoin="round" stroke-width="2"/>
      </g>
      <g id="Group_2380" data-name="Group 2380">
        <line id="Line_1699" data-name="Line 1699" y2="3.431" transform="translate(6222.709 1606.88)" fill="none" stroke="#0073ff" stroke-linecap="round" stroke-linejoin="round" stroke-width="2"/>
        <line id="Line_1700" data-name="Line 1700" y2="3.431" transform="translate(6229.076 1606.88)" fill="none" stroke="#0073ff" stroke-linecap="round" stroke-linejoin="round" stroke-width="2"/>
      </g>
      <rect id="Rectangle_862" data-name="Rectangle 862" width="12.756" height="12.933" transform="translate(6203.585 1608.949)" stroke-width="2" stroke="#0073ff" stroke-linecap="round" stroke-linejoin="round" fill="none"/>
      <path id="Path_1562" data-name="Path 1562" d="M6209.963,1591.271h-33.17v15.609" fill="none" stroke="#0073ff" stroke-linecap="round" stroke-linejoin="round" stroke-width="2"/>
      <path id="Path_1563" data-name="Path 1563" d="M6235.016,1621.882v-41.609h-25.051v21.818" fill="none" stroke="#0073ff" stroke-linecap="round" stroke-linejoin="round" stroke-width="2"/>
      <path id="Path_1564" data-name="Path 1564" d="M6194.751,1606.88h-33.286v15" fill="none" stroke="#0073ff" stroke-linecap="round" stroke-linejoin="round" stroke-width="2"/>
      <line id="Line_1701" data-name="Line 1701" y2="2.899" transform="translate(6168.351 1613.536)" fill="none" stroke="#0073ff" stroke-linecap="round" stroke-linejoin="round" stroke-width="2"/>
      <line id="Line_1702" data-name="Line 1702" y2="2.899" transform="translate(6176.298 1613.536)" fill="none" stroke="#0073ff" stroke-linecap="round" stroke-linejoin="round" stroke-width="2"/>
      <line id="Line_1703" data-name="Line 1703" y2="2.899" transform="translate(6184.245 1613.536)" fill="none" stroke="#0073ff" stroke-linecap="round" stroke-linejoin="round" stroke-width="2"/>
      <line id="Line_1704" data-name="Line 1704" y2="2.899" transform="translate(6192.191 1613.536)" fill="none" stroke="#0073ff" stroke-linecap="round" stroke-linejoin="round" stroke-width="2"/>
    </g>
    <g id="Group_2382" data-name="Group 2382" transform="translate(-4829.585 -52.464)">
      <path id="Path_1565" data-name="Path 1565" d="M6304.663,1607.445l.251-26.973h65.333v41.4h-74.833v-14.427h74.833" fill="none" stroke="#0073ff" stroke-linecap="round" stroke-linejoin="round" stroke-width="2"/>
      <path id="Path_1566" data-name="Path 1566" d="M6314.481,1586.953v3.941m11.823-3.941v3.941m11.823-3.941v3.941m11.823-3.941v3.941m-35.469,5.735v3.941m11.823-3.941v3.941m11.823-3.941v3.941m11.823-3.941v3.941m10.73-13.617v3.941m0,5.735v3.941" fill="none" stroke="#0073ff" stroke-linecap="round" stroke-linejoin="round" stroke-width="2"/>
      <path id="Path_1567" data-name="Path 1567" d="M6302.631,1572h69.9l3.292,8.473h-76.482Z" fill="none" stroke="#0073ff" stroke-linecap="round" stroke-linejoin="round" stroke-width="2"/>
      <line id="Line_1705" data-name="Line 1705" y2="3.091" transform="translate(6302.163 1612.469)" fill="none" stroke="#0073ff" stroke-linecap="round" stroke-linejoin="round" stroke-width="2"/>
      <line id="Line_1706" data-name="Line 1706" y2="3.091" transform="translate(6309.053 1612.469)" fill="none" stroke="#0073ff" stroke-linecap="round" stroke-linejoin="round" stroke-width="2"/>
      <line id="Line_1707" data-name="Line 1707" y2="3.091" transform="translate(6315.943 1612.469)" fill="none" stroke="#0073ff" stroke-linecap="round" stroke-linejoin="round" stroke-width="2"/>
      <line id="Line_1708" data-name="Line 1708" y2="3.091" transform="translate(6322.833 1612.469)" fill="none" stroke="#0073ff" stroke-linecap="round" stroke-linejoin="round" stroke-width="2"/>
      <line id="Line_1709" data-name="Line 1709" y2="3.091" transform="translate(6329.723 1612.469)" fill="none" stroke="#0073ff" stroke-linecap="round" stroke-linejoin="round" stroke-width="2"/>
      <line id="Line_1710" data-name="Line 1710" y2="3.091" transform="translate(6347.965 1612.469)" fill="none" stroke="#0073ff" stroke-linecap="round" stroke-linejoin="round" stroke-width="2"/>
      <line id="Line_1711" data-name="Line 1711" y2="3.091" transform="translate(6354.854 1612.469)" fill="none" stroke="#0073ff" stroke-linecap="round" stroke-linejoin="round" stroke-width="2"/>
      <line id="Line_1712" data-name="Line 1712" y2="3.091" transform="translate(6361.745 1612.469)" fill="none" stroke="#0073ff" stroke-linecap="round" stroke-linejoin="round" stroke-width="2"/>
      <rect id="Rectangle_863" data-name="Rectangle 863" width="7.532" height="9.413" transform="translate(6335.234 1612.469)" stroke-width="2" stroke="#0073ff" stroke-linecap="round" stroke-linejoin="round" fill="none"/>
    </g>
    <rect id="Rectangle_864" data-name="Rectangle 864" width="7.752" height="13.852" transform="translate(1441.979 1555.566)" stroke-width="2" stroke="#0073ff" stroke-linecap="round" stroke-linejoin="round" fill="none"/>
    <g id="Group_2383" data-name="Group 2383" transform="translate(-4829.585 -52.464)">
      <line id="Line_1713" data-name="Line 1713" y2="33.829" transform="translate(6265.146 1470.707)" fill="none" stroke="#0073ff" stroke-linecap="round" stroke-linejoin="round" stroke-width="7"/>
      <line id="Line_1714" data-name="Line 1714" y2="17.468" transform="translate(6311.321 1487.069)" fill="none" stroke="#0073ff" stroke-linecap="round" stroke-linejoin="round" stroke-width="7"/>
      <line id="Line_1715" data-name="Line 1715" x2="46.174" transform="translate(6265.146 1490.459)" fill="none" stroke="#0073ff" stroke-linecap="round" stroke-linejoin="round" stroke-width="7"/>
      <path id="Rectangle_865" data-name="Rectangle 865" d="M0,0H30.408a3,3,0,0,1,3,3v9.218a0,0,0,0,1,0,0H0a0,0,0,0,1,0,0V0A0,0,0,0,1,0,0Z" transform="translate(6281.381 1476.697)" fill="#0073ff"/>
      <circle id="Ellipse_209" data-name="Ellipse 209" cx="4.391" cy="4.391" r="4.391" transform="translate(6270.225 1476.99)" fill="#0073ff"/>
      <path id="Path_1568" data-name="Path 1568" d="M6287.14,1443.519l3.666,6.541,7.354,1.48a.7.7,0,0,1,.392,1.143l-4.941,5.724.733,7.235a.7.7,0,0,1-.953.722l-7.124-2.8-6.583,2.791a.7.7,0,0,1-.973-.664l.212-7.286-4.442-5.754a.7.7,0,0,1,.405-1.112l6.842-1.481,4.212-6.576A.7.7,0,0,1,6287.14,1443.519Z" fill="#0073ff"/>
    </g>
    <path id="Path_1569" data-name="Path 1569" d="M6400.571,1448.876a10.691,10.691,0,0,0-9.744,3.042,10.4,10.4,0,0,0-9.743-3.042" transform="translate(-4829.585 -52.464)" fill="none" stroke="#0073ff" stroke-linecap="round" stroke-linejoin="round" stroke-width="3"/>
  </g>
</svg>
