<svg xmlns="http://www.w3.org/2000/svg" width="260.957" height="221.418"><g transform="translate(-761 -1668)"><path data-name="Path 1570" d="M963.188 1680.813h0a5.138 5.138 0 0 1 4.465-3.747 7.667 7.667 0 0 1 14.295 3.747h1.207a5.791 5.791 0 0 1 5.823 4.9 5.633 5.633 0 0 1-5.573 6.336h-20.26a5.619 5.619 0 1 1 .043-11.237z" fill="none" stroke="#0073ff" stroke-linecap="round" stroke-linejoin="round" stroke-width="2"/><path data-name="Path 1571" d="M833.52 1682.614a6.326 6.326 0 0 0-6.362-5.354h-1.318a8.377 8.377 0 0 0-15.618-4.094h-2.121a5.883 5.883 0 0 0-5.735 4.594h-3.319a5.888 5.888 0 0 0 0 11.776h28.384a6.154 6.154 0 0 0 6.089-6.922z" fill="none" stroke="#0073ff" stroke-linecap="round" stroke-linejoin="round" stroke-width="2"/><path data-name="Path 1572" d="M776.495 1695.959h0a2.658 2.658 0 0 1 2.309-1.938 3.965 3.965 0 0 1 7.392 1.938h.625a3 3 0 0 1 3.011 2.534 2.914 2.914 0 0 1-2.882 3.277h-10.477a2.906 2.906 0 1 1 .022-5.811z" fill="none" stroke="#0073ff" stroke-linecap="round" stroke-linejoin="round" stroke-width="2"/><circle data-name="Ellipse 210" cx="53" cy="53" r="53" transform="translate(838.479 1689.885)" fill="#fff"/><path data-name="Path 1573" d="M929.549 1727.194h-11.017v-13.7a1.957 1.957 0 0 0-1.957-1.957h-50.191a1.957 1.957 0 0 0-1.956 1.957v13.7H853.41a.489.489 0 0 0-.489.489v10.127a.978.978 0 0 0 .978.978h6.262a.489.489 0 0 0 .489-.489v-7.24h3.778v34.79a.978.978 0 0 0 .978.978h4.91v8.921a.489.489 0 0 0 .49.489h8.211a.49.49 0 0 0 .49-.489v-8.921h24.13v8.921a.489.489 0 0 0 .489.489h8.212a.488.488 0 0 0 .489-.489v-8.921h4.727a.978.978 0 0 0 .978-.978v-34.79h3.777v7.24a.489.489 0 0 0 .489.489h6.262a.978.978 0 0 0 .978-.978v-10.127a.488.488 0 0 0-.489-.489zm-56.639-10.675a.49.49 0 0 1 .49-.489h36.746a.489.489 0 0 1 .489.489v5.642a.489.489 0 0 1-.489.489H873.4a.49.49 0 0 1-.49-.489zm8.66 44.226l-11.254-.957v-6.352l11.254 1.568zm1.153-11.459l-10.694-1.224a1.933 1.933 0 0 1-1.713-1.92v-17.015a1.934 1.934 0 0 1 1.933-1.933h38.646a1.933 1.933 0 0 1 1.932 1.933v17.009a1.932 1.932 0 0 1-1.714 1.92l-10.876 1.235a77.243 77.243 0 0 1-17.514-.005zm17.976 5.713l11.253-1.568v6.357l-11.253.957z" fill="#0073ff"/><g data-name="Group 2405" fill="none" stroke="#0073ff" stroke-linecap="round" stroke-linejoin="round" stroke-width="2"><g data-name="Group 2385"><path data-name="Path 1574" d="M879.333 1855.672v5.273m11.065-29.17v-13.428h-5.672v13.564m-9.3 34.309v14.867h3.9v-9.351m6.793 0v16.686m-6.793-16.686v16.686m6.793-49.245v20.915m-6.793-20.915v8.394m12.142 13.378h-27.035v10.787h29.683m-4.093-39.821h-22.208v7.262h29.665v-7.262h-7.457zm-14.6 34.309h26.1v-10.226h-15.4m4.294-33.794h5.825v-8.076h-10.458v-11.763h-6.106v29.55m6.171 15.656h-14.068v8.1h14.342"/><path data-name="Line 1716" d="M762 1888.368h257.969"/></g><g data-name="Group 2390"><g data-name="Group 2388"><g data-name="Group 2386"><path data-name="Rectangle 866" d="M973.585 1861.108h13.453v8.076h-13.453z"/><path data-name="Rectangle 867" d="M932.04 1861.108h13.453v8.076H932.04z"/><path data-name="Rectangle 868" d="M915.216 1861.108h9.062v8.076h-9.062z"/><path data-name="Path 1575" d="M1006.619 1869.184H995.57v-8.076h8.988z"/></g><path data-name="Line 1717" d="M1009.37 1877.807h-2.751"/><g data-name="Group 2387"><path data-name="Path 1576" d="M930.659 1881.848H911.75v-5.165h3.5v-18.075a2.516 2.516 0 0 1 2.516-2.516h82.5a3.852 3.852 0 0 1 3.732 2.893l3.258 12.669a5.815 5.815 0 0 1 .181 1.437v7.361a1.4 1.4 0 0 1-1.4 1.4h-13.475"/><path data-name="Line 1718" d="M982.8 1881.848h-41.89"/></g><path data-name="Path 1577" d="M987.682 1876.962a4.885 4.885 0 1 0 4.882 4.885 4.882 4.882 0 0 0-4.882-4.885z"/></g><path data-name="Path 1578" d="M935.541 1876.962a4.885 4.885 0 1 0 4.882 4.885 4.882 4.882 0 0 0-4.882-4.885z"/><g data-name="Group 2389"><path data-name="Rectangle 869" d="M964.879 1881.847h-10.543v-20.739h10.543z"/><path data-name="Line 1719" d="M959.607 1881.848v-17.425"/></g></g><g data-name="Group 2391"><path data-name="Path 1579" d="M807.728 1878.247a4.242 4.242 0 1 1-4.243 4.243 4.242 4.242 0 0 1 4.243-4.243z"/><path data-name="Path 1580" d="M842.421 1878.247a4.242 4.242 0 1 1-4.243 4.243 4.242 4.242 0 0 1 4.243-4.243z"/><path data-name="Line 1720" d="M858.122 1870.536h-14.787"/><path data-name="Path 1582" d="M845.45 1870.536l-5.921-8.843h-18.323l-5.185 8.843"/><path data-name="Path 1583" d="M846.517 1880.901h8.225v-10.365"/><path data-name="Line 1721" d="M812.197 1880.88h25.194"/><path data-name="Path 1584" d="M802.895 1880.88h-6.9a1.054 1.054 0 0 1-1.054-1.053v-5.6a1.743 1.743 0 0 1 1.549-1.732l19.536-1.962"/><path data-name="Path 1585" d="M816.021 1870.536c.319-.162 27.314 0 27.314 0"/></g><g data-name="Group 2392"><path data-name="Line 1722" d="M787.481 1885.556v2.811"/><path data-name="Line 1723" d="M783.197 1882.745v5.623"/><path data-name="Line 1724" d="M778.912 1885.556v2.811"/></g><path data-name="Path 1586" d="M858.121 1835.878h-21.226a19.3 19.3 0 0 0-13.646 5.653h0a19.3 19.3 0 0 1-13.646 5.652H769.88"/><path data-name="Path 1587" d="M911.75 1827.509h18.118a19.687 19.687 0 0 1 13.921 5.766h0a19.691 19.691 0 0 0 13.922 5.767h63.248"/><g data-name="Group 2393"><path data-name="Line 1725" d="M1010.894 1826.202h-43.688"/><path data-name="Line 1726" d="M994.09 1817.436v16.292"/><path data-name="Line 1727" d="M986.427 1817.436v16.292"/><path data-name="Path 1588" d="M1004.624 1817.436h-37.78v16.292h4.792a3.22 3.22 0 0 1 6.41 0h21.819a3.22 3.22 0 0 1 6.41 0h4.62v-8.146z"/><path data-name="Path 1589" d="M977.129 1831.774a3.237 3.237 0 1 1-4.577 0 3.238 3.238 0 0 1 4.577 0zm28.23 0a3.237 3.237 0 1 0 0 4.578 3.238 3.238 0 0 0 0-4.578z"/></g><g data-name="Group 2395"><path data-name="Path 1590" d="M850.105 1818.702h-12.529l-1.157 5.766v6.954h14.843v-6.954z"/><path data-name="Line 1728" d="M836.419 1824.468h14.843"/><g data-name="Group 2394"><path data-name="Line 1729" d="M839.603 1827.671v.567"/><path data-name="Line 1730" d="M848.078 1827.671v.567"/></g><path data-name="Line 1731" d="M842.47 1828.238h2.741"/></g><g data-name="Group 2396"><path data-name="Line 1732" d="M838.641 1831.422v2.91"/><path data-name="Line 1733" d="M849.04 1831.422v2.91"/></g><g data-name="Group 2397"><path data-name="Line 1734" d="M927.963 1823.251v4.258"/><path data-name="Line 1735" d="M921.474 1818.993v8.516"/><path data-name="Line 1736" d="M914.985 1827.509v-4.258"/></g><g data-name="Group 2400"><g data-name="Group 2399"><path data-name="Rectangle 870" d="M818.786 1774.245h20.793v26.573h-20.793z"/><g data-name="Group 2398"><path data-name="Line 1737" d="M825.695 1784.357v-3.79"/><path data-name="Line 1738" d="M832.256 1784.357v-3.79"/><path data-name="Line 1739" d="M825.695 1793.769v-3.79"/><path data-name="Line 1740" d="M832.256 1793.769v-3.79"/></g><path data-name="Path 1591" d="M808.63 1764.204v-10.708m3.068 30.077v3.793m-7.422 0v-3.793m7.422-9.9v3.793m-7.422 0v-3.793m0 24.537v-3.793m-7.238 15.779v-45.488h21.748v36.017h0a9.5 9.5 0 0 0-6.581 2.648l-4.348 4.175a9.5 9.5 0 0 1-6.581 2.648z"/><path data-name="Line 1741" d="M780.656 1810.29h16.035"/></g><path data-name="Line 1742" d="M835.895 1800.818h9.958"/></g><g data-name="Group 2401"><path data-name="Line 1743" d="M789.087 1838.705h7.96"/><path data-name="Path 1592" d="M807.195 1832.699h-27.547l13.331-14.353z"/><path data-name="Rectangle 871" d="M781.425 1832.699h23.113v14.484h-23.113z"/></g><g data-name="Group 2403"><g data-name="Group 2402"><path data-name="Path 1593" d="M975.153 1806.226h-3.835l4.129-5.679h-3.369l5.139-7.072 5.139 7.072h-3.369l4.129 5.679h-7.964z"/><path data-name="Line 1744" d="M977.218 1806.226v4.494"/></g><path data-name="Path 1594" d="M931.725 1806.045h16.47a11.771 11.771 0 0 1 7.039 2.337h0a11.762 11.762 0 0 0 7.038 2.337h23.18"/></g><g data-name="Group 2404"><path data-name="Line 1745" d="M936.443 1802.405v3.64"/><path data-name="Line 1746" d="M941.721 1800.124v5.922"/><path data-name="Line 1747" d="M946.999 1801.949v4.096"/></g></g></g></svg>