<svg xmlns="http://www.w3.org/2000/svg" width="107" height="107"><g transform="translate(.5 .5)" fill="#d0d6dd" stroke="#4c607b" stroke-width=".5"><circle cx="53" cy="53" r="53" stroke="none"/><circle cx="53" cy="53" r="53.25" fill="none"/></g><path d="M106.499 53.589a53.09 53.09 0 0 1-53.5 52.91A53.047 53.047 0 0 1 .504 53.659 53.01 53.01 0 0 1 53.789.501a53.045 53.045 0 0 1 52.71 53.088zM70.954 43.013a4.214 4.214 0 0 1 .8.913 3.96 3.96 0 0 1 .308 1.409 11.371 11.371 0 0 1-1.431 5.768 5.3 5.3 0 0 1-2.737 2.715.7.7 0 0 0-.308.4c-1.018 2.771-2.021 5.548-3.045 8.316a.528.528 0 0 0 .163.668c1.814 1.73 3.634 3.453 5.41 5.221a8.241 8.241 0 0 0 2.85 1.8c2.363.939 4.737 1.854 7.084 2.832 2.249.937 4.486 1.907 6.7 2.927a24.08 24.08 0 0 1 5.57 3.437 46.58 46.58 0 0 0-9.152-61.994 46.562 46.562 0 0 0-63.7 4.091C2.718 39.339 4.047 64.229 14.657 79.334c.944-.631 1.864-1.3 2.836-1.882a30.62 30.62 0 0 1 3-1.609c4.308-1.974 8.674-3.812 13.12-5.46a7.258 7.258 0 0 0 2.639-1.4c2.019-1.938 4.032-3.883 6.063-5.809.265-.251.2-.47.1-.731-.988-2.73-1.971-5.462-2.973-8.187a1.222 1.222 0 0 0-.421-.455 12.421 12.421 0 0 1-1.638-1.269 9.281 9.281 0 0 1-1.854-3.437 10.2 10.2 0 0 1-.6-3.77c.054-.878.114-1.81 1.138-2.169-.1-.636-.184-1.244-.288-1.849a50.456 50.456 0 0 1-.773-7.883 20.439 20.439 0 0 1 .767-6.495c1.088-3.437 3.527-5.732 6.565-7.458a21.727 21.727 0 0 1 9.66-2.723 23.43 23.43 0 0 1 11.075 1.942 16.747 16.747 0 0 1 5.937 4.332 12.649 12.649 0 0 1 2.856 7.172 36.294 36.294 0 0 1-.213 8.135c-.194 1.602-.475 3.196-.699 4.684z" fill="#b8bfc9"/></svg>