<svg xmlns="http://www.w3.org/2000/svg" width="1466.865" height="86.261"><path d="M106.847 64.615a1.371 1.371 0 11-1.37 1.37 1.37 1.37 0 011.37-1.37zm-11.826 0a1.371 1.371 0 11-1.371 1.37 1.369 1.369 0 011.371-1.37zm2.13.79l15.522-3.228h-5.325m-9.589 0h13.7v2.739m-3.346-2.739l-2.133-2.44h-6.847l-1.371 2.44m5.448 3.228l6.281.011h1.968m-13.431-.011h6.183m-12.251 0h-.666a.379.379 0 01-.379-.379v-1.519a.628.628 0 01.557-.624l6.291-.706m-5.478 4.108l5.478-4.108c.115-.058 9.589 0 9.589 0m1106.8-21.308c13.3 17.447 0 19.191 0 19.191-13.375-2.655 0-19.191 0-19.191zm0 13.94h-1.48a2.74 2.74 0 01-2.741-2.735m4.221 4.4h1.867a2.116 2.116 0 002.118-2.115m-3.985-2.792a2.3 2.3 0 002.3-2.3m-2.3-3.319v17.6m10.688-6.349a2.149 2.149 0 002.15 2.146h9.833a2.141 2.141 0 00.743-4.152 6.167 6.167 0 10-11.321 0 2.136 2.136 0 00-1.405 2.01zm7.067-2.394h1.479a2.738 2.738 0 002.74-2.735m-4.219 4.4h-1.869a2.117 2.117 0 01-2.117-2.115m3.986-2.792a2.3 2.3 0 01-2.3-2.3m2.3.184v14.1m20.02-8.743h-1.479a2.737 2.737 0 01-2.739-2.735m4.218 4.4h1.869a2.117 2.117 0 002.117-2.115m-3.986-2.792a2.3 2.3 0 002.3-2.3m-2.3.184v14.1m-6.862-9.871a4.429 4.429 0 004.433 4.424h6.152a2.943 2.943 0 00.033-5.886 3.387 3.387 0 00.879-2.267 3.432 3.432 0 00-6.8-.668c-.09-.006-.175-.029-.267-.029a4.43 4.43 0 00-4.43 4.432zM79.176 65.694s-13.3-1.744 0-19.191c0 0 13.375 16.54 0 19.191zm4.221-7.986a2.74 2.74 0 01-2.741 2.736h-1.48m-3.985-.449a2.116 2.116 0 002.12 2.114h1.867m-2.3-7.2a2.3 2.3 0 002.3 2.3m0 11.983v-17.6m-12.093 9.246a6.169 6.169 0 10-11.321 0 2.141 2.141 0 00.743 4.152h9.833a2.141 2.141 0 00.745-4.152zm-9.881-3.123a2.739 2.739 0 002.74 2.736h1.479m3.986-.449a2.117 2.117 0 01-2.117 2.114h-1.871m2.3-7.2a2.3 2.3 0 01-2.3 2.3m0 11.983v-14.1m-15.8 2.62a2.738 2.738 0 01-2.739 2.736h-1.481m-3.986-.449a2.117 2.117 0 002.117 2.114h1.869m-2.3-7.2a2.3 2.3 0 002.3 2.3m0 11.983v-14.1m2.429-.2c-.092 0-.177.022-.267.028a3.432 3.432 0 00-6.8.668 3.388 3.388 0 00.879 2.268 2.943 2.943 0 00.033 5.885h6.152a4.425 4.425 0 100-8.849zm332.248 11.7h11.933c1.837-1.659 1.118-3.629-.308-4.152a6.122 6.122 0 00.507-2.442c0-4.546-4.937-7.941-9.746-5.137a4.333 4.333 0 00-1.55 1.546 6.524 6.524 0 00-.532 6.033c-1.42.509-2.139 2.48-.304 4.138zm5.969-4.539h1.48a2.739 2.739 0 002.739-2.736m-4.219 4.4h-1.868a2.116 2.116 0 01-2.117-2.114m3.985-2.792a2.3 2.3 0 01-2.3-2.3m2.3.183v14.1m20.021-8.742h-1.479a2.739 2.739 0 01-2.74-2.736m4.219 4.4h1.868a2.117 2.117 0 002.118-2.114m-3.986-2.792a2.3 2.3 0 002.3-2.3m-2.3.183v14.1m-5.355-6.237a2.365 2.365 0 001.775.79h8.381a.857.857 0 00.6-.239c2.574-2.551.831-5.617-1.647-5.646a3.551 3.551 0 00.088-4.584 1.513 1.513 0 00-.384-.377 3.518 3.518 0 00-5.621 2.025c-.09-.006-.175-.028-.268-.028-3.61-.012-6.214 4.3-2.926 8.047zm691.579-21.028c12.326 16.17 0 17.787 0 17.787-12.396-2.473 0-17.799 0-17.799zm0 12.92h-.372a2.539 2.539 0 01-2.54-2.535m2.912 4.079h1.231a1.962 1.962 0 001.963-1.96m-3.194-2.587a2.131 2.131 0 002.132-2.13m-2.132-3.077v16.313m-16.981-21.035c12.326 16.17 0 17.787 0 17.787-12.394-2.461 0-17.787 0-17.787zm0 12.92h-.371a2.539 2.539 0 01-2.54-2.535m2.911 4.079h1.231a1.962 1.962 0 001.963-1.96m-3.194-2.588a2.131 2.131 0 002.132-2.13m-2.132-3.076V64.55M872.826 40.072c12.326 16.171 0 17.787 0 17.787-12.394-2.461.002-17.787.002-17.787zm0 12.921h-.371a2.539 2.539 0 01-2.54-2.536m2.911 4.079h1.231a1.961 1.961 0 001.963-1.959m-3.194-2.588a2.131 2.131 0 002.132-2.13m-2.132-3.076v16.313m-15.407-21.024c12.326 16.171 0 17.787 0 17.787-12.394-2.461.002-17.787.002-17.787zm0 12.921h-.372a2.54 2.54 0 01-2.54-2.536m2.912 4.079h1.231a1.961 1.961 0 001.963-1.959m-3.194-2.588a2.131 2.131 0 002.132-2.13m-2.132-3.076v16.313M735.887 1.856A8.9 8.9 0 01744 4.389a8.659 8.659 0 018.114-2.533m3.615 8.614a5.249 5.249 0 014.787 1.494 5.108 5.108 0 014.788-1.494m251.434-4.481a8.659 8.659 0 018.114 2.533 8.9 8.9 0 018.113-2.533m-29.416 8.613a5.109 5.109 0 014.787 1.495 5.251 5.251 0 014.787-1.495M701.076 60.143v-5.106m-6.987 5.106v-5.106m-6.987 5.106v-5.106m-6.988 0v5.106m-6.987 0v-5.106m-6.987 0v5.106m-6.987-5.106v5.106m-6.988 0v-5.106m-6.987 5.106v-5.106m55.9-12.848v3.606m-6.987-3.606v3.606m-6.987 0v-3.606m-6.988 3.606v-3.606m-6.987 3.606v-3.606m-6.987 0v3.606m-13.975 0v-3.606m6.988 0v3.606m-13.975 0v-3.606m55.9-4.193V34.39m-6.987 0v3.606m-6.987 0V34.39m-6.995 3.603v-3.606m-6.987 3.606v-3.606m-6.987 3.606v-3.606m-6.987 3.606v-3.606m-6.988 3.606v-3.606m-6.987 3.606v-3.606m62.32-5.763h-68.061v36.619h68.064zm-.667 21.644h-66.472m71.444-19.19l-4.92-8.741h-68.392l-4.922 6.243m526.084 22.49v-3.778m-6.624 0v3.778m-6.625 0v-3.778m-6.625 3.778v-3.778m-6.624 0v3.778m-6.625 0v-3.778m-6.625 0v3.778m-6.625 0v-3.778m-6.624 3.778v-3.778m59.086-4.284h-64.528v15.724h64.532zm3.131-.575l-4.665-5.918h-62l-4.666 5.919M217.191 64.313v-3.777m-6.624 3.777v-3.777m-6.625 3.777v-3.777m-6.625 3.777v-3.777m-6.624 3.777v-3.777m-6.625 3.777v-3.777m-6.625 3.777v-3.777m-6.625 3.777v-3.777m-6.624 3.777v-3.777m59.086-4.285h-64.532v15.724h64.532zm3.131-.575l-4.665-5.918h-62l-4.667 5.919m892.08-12.15v3.192m3.264-27.859v-7.893h-2.362v18.654m3.373 0v-8.488h-1.775m-4.863 31.179V57.8h2.363v-4.712m4.112-1.294v12.577m-4.112-12.577v12.577m4.112-30.354V46.2m2.363-12.183v11.16l-6.475-11.16v4.6m7.35 8.1h-15.521v5.075h14.448m.2-22.173h-12.975v4.4h16.861v-4.4m-11.311 20.071h13.6v-4.513h-8.541m.5-21.921h3.494v-4.4h-4.727m-1.3 19.983h-6.406v3.795h5.225m128.378 21.77h96.277a11.066 11.066 0 017.79 3.2l2.658 2.633a11.07 11.07 0 007.79 3.2h6.981m-129.055-9.08h-140.64m-769.654-3.219h4.083m-7.926-4.469h11.856l-5.928-6.989zm11.856 0h-11.856v9.735h11.856zm-26.583 4.469h4.082m-7.925-4.469h11.855l-5.928-6.989zm11.855 0h-11.859v9.735h11.855zm34.048-24.536V21.16m8.524 37.978h4.084m-7.926-4.469h11.856l-5.928-6.989zm22.451-9.563v3.186m-5.915-3.186v3.186m-5.917-3.186v3.186m-15.3 7.645v-3.194m0-7.642v3.186m5.917 0v-3.186m-11.834 10.828v-3.186m0-7.642v3.186m11.834-7.64v-3.188m-5.917 0v3.188m-5.917 0v-3.188m22.455 17.205h-11.86v9.735h11.855zm15.3-4.715v-8.794h-21.233m0 7.134V32.133h-21.225v32.271m79.2 3.781a2.168 2.168 0 102.168-2.17 2.171 2.171 0 00-2.173 2.17zm-29.525 0a2.169 2.169 0 102.17-2.17 2.171 2.171 0 00-2.175 2.17zm41.126-6.79v-5.691a1.351 1.351 0 00-1.351-1.351H316.59a2.069 2.069 0 00-2 1.554l-1.749 6.8a3.1 3.1 0 00-.1.772v3.953a.75.75 0 00.75.75h5.835m0 0a4.336 4.336 0 118.671 0h20.471a4.337 4.337 0 118.674 0h5.779v-2.17h-2.171m-41.28-8.968h5.413v4.337h-5.413zm7.533 0h6.075v4.337h-6.077zm26.716 0v4.337h6.074v-4.338zm-8.392 0v4.337h6.074v-4.338zm-32.147 4.337h4.122v-4.338h-3.015zm0 4.631h-2.169m57.04-2.33h-5.282m2.332-2.167h4.644m-36.734 3.475h-3.321m13.416 0h4.643m-6.627 3.2h-5.662V57.043h5.662zm-2.831-9.358v9.358m1028.884 1.7c0 2.2-1.781 3.571-3.976 3.571s-3.974-1.376-3.974-3.571c0 2.2-1.78 3.571-3.975 3.571s-3.975-1.376-3.975-3.571c0 2.2-1.78 3.571-3.975 3.571s-3.974-1.376-3.974-3.571c0 2.2-1.781 3.571-3.976 3.571s-3.974-1.376-3.974-3.571m54.257 0c0 2.2 1.779 3.571 3.974 3.571s3.975-1.376 3.975-3.571c0 2.2 1.78 3.571 3.975 3.571s3.975-1.376 3.975-3.571c0 2.2 1.78 3.571 3.974 3.571m-107.962 0c2.195 0 3.975-1.376 3.975-3.571 0 2.2 1.78 3.571 3.974 3.571s3.976-1.376 3.976-3.571c0 2.2 1.779 3.571 3.974 3.571s3.976-1.376 3.976-3.571c0 2.2 1.779 3.571 3.974 3.571s3.975-1.376 3.975-3.571m43.153 0c0 2.2 1.78 3.571 3.974 3.571s3.976-1.376 3.976-3.571c0 2.2 1.779 3.571 3.974 3.571m81.922-10.008h-54.841m54.84 0c0 4.512-13.479 10.634-32.075 10.634-3.333 0-14.1-.053-16.473-.053-3.634 0-6.292-1.77-6.292-10.581m33.143-.414l.014-9.2 4.735.022 7.5 9.583m-16.541 3.522h-20.449m-486.904 4.577h40.556m-44.925-10.447h78.013V28.105h-78.013zm70.7-8.612h-7.31m-48.768 0h-7.311m63.389-7.884h-7.31m-48.768 0h-7.311m63.389-7.884h-7.31m-6.71 0h-7.31m-6.709 0h-7.31m-6.71 0h-7.31m-6.709 0h-7.311m17.581 24.38h26V48.125h-26zm30.692-16.5h-33.156m20.711 7.884v8.612m-9.728-8.612v8.612m-18.789-32.991h45.9V15.993h-45.9zm13.287-12.112h18.438l-3.391-10.146h-11.657zM761.183 65.243H629.122m415.519 6.8h-6.73a17.833 17.833 0 01-12.611-5.224l-.5-.5a16.246 16.246 0 00-12.112-4.723l-165.023-.5m-200.85 9.657H376.176m121.213-51.989V.5m11.132 59.86h7.728m-3.781-21.183l11.218 12.725h-22.437zm31.268-1.872v5.029m-11.193-5.029v5.029m-11.2 0v-5.029m-23.957 14.963v5.534m0-18v5.029m-7.7 7.434v5.529m0-12.963v-5.029m15.4-12.459v5.534m-7.7-5.534v5.534m-7.7-5.534v5.534m33.994 37.877h-22.429V51.902h22.435zm-11.218-40.416h40.166v36.8m-69.833 3.5V19.254h29.667v20.051M822.448 4.643v16.509m-7.043 32.907h-17.84l8.92-10.514zm-33.781-9.594v-4.794m8.9 4.794v-4.794m8.9 4.794v-4.794m23.022 4.794v-4.794m-8.9 0v4.794m17.805-4.794v4.794M813.546 32.97v-4.8m8.9 4.8v-4.8m8.9 4.8v-4.8m-56.8 22.215V33.732h31.935m0 10.735V21.15h31.935v47.893m350.845-11.09h-4.342m2.126-12.167l-6.3 7.421h12.591zm-6.3 18.62h12.591v-11.2h-12.591zm-268.257-9.763h-4.342m2.126-12.167l-6.3 7.421h12.592zm-6.3 18.62h12.592v-11.2h-12.592zm-9.847-6.453h-4.342m2.126-12.167l-6.3 7.421H898.2zm-6.3 18.62H898.2v-11.2h-12.589zm-426.495 3.089h-4.342m2.126-12.168l-6.295 7.421h12.591zm-6.295 18.62h12.591v-11.2h-12.583zm-8.244-6.452h-4.338m2.126-12.168l-6.3 7.421h12.591zm-6.3 18.62h12.591v-11.2h-12.587zm-8.243-6.452h-4.343m2.126-12.168l-6.3 7.421h12.591zm-6.3 18.62h12.591v-11.2h-12.582zm313.931-5.394V54.057h58.542M611.321 70.753h8.043l-1.612-60.82h-4.818l-1.092 39.551zm.521-21.9h-27.231v11.512m-20.807 10.388h31.4v-9.886h-31.4zm24.192-7.084v3.622m-5.66-3.622v3.622m-5.66-3.622v3.622m-5.659-3.622v3.622m183-18.443V27.669h-30.383v37.574m24.255-31.514v2.969m-4.476-2.969v2.969m-4.476-2.969v2.969m-4.476-2.969v2.969m-4.476-2.969v2.969m17.9 4.793v2.969m-4.476-2.969v2.969m-4.476-2.969v2.969m-4.476-2.969v2.969m-4.476-2.969v2.969m101.23 29.151a6.993 6.993 0 00-9.4-6.581 83.1 83.1 0 01-17.108-1.285 8.564 8.564 0 00-8.564 8.564m-676.128 2.888a8.557 8.557 0 0015.5 5.015 8.523 8.523 0 007.412-.976 7.014 7.014 0 102.764-11.318 8.552 8.552 0 00-14.408-.844 8.553 8.553 0 00-11.264 8.123zm666.263-3.385a48.3 48.3 0 01-12.934-5.322 6.617 6.617 0 00-5.78 3.4 5.4 5.4 0 00-6.586 2.456m56.243-3.946a3.885 3.885 0 00-6.032.594m1.565 1.123c-4.381-3.242-9.257.077-9.923 2.505m-28.272-1.893c-1.813-1.428-3.794.563-3.794.563m127.447-2.852h12.113m-21.323-2.822h-4.6m-12.177 4.723h-2.6m-7.992 0h-2.6M543.736 53.768v-4.92m-11.193 0v4.92m73.453 0h-3.447m3.447 5.643h-3.447m3.447 5.644h-3.447m-3.256-11.287h-3.446m-3.256 0h-3.447M230.382 70.855h71.244M.5 71.877h21.611a10.977 10.977 0 005.264-1.345h0a10.974 10.974 0 015.265-1.346h77.85a6.252 6.252 0 004.42-1.83h0a6.245 6.245 0 014.419-1.831h4.763m706.928 8.817" fill="none" stroke="#4c607b" stroke-linecap="round" stroke-linejoin="round"/></svg>