<svg xmlns="http://www.w3.org/2000/svg" width="1466.865" height="86.261" viewBox="0 0 1466.865 86.261"><defs><style>.a{fill:none;stroke:#4c607b;stroke-linecap:round;stroke-linejoin:round;}</style></defs><g transform="translate(-252.689 -504.357)"><path class="a" d="M345.546,570.13m13.99-1.158a1.371,1.371,0,1,1-1.37,1.37A1.37,1.37,0,0,1,359.536,568.972Zm-11.826,0a1.371,1.371,0,1,1-1.371,1.37A1.369,1.369,0,0,1,347.71,568.972Zm2.13.79,15.522-3.228h-5.325m-9.589,0,13.7,0v2.739m-3.346-2.739-2.133-2.44h-6.847l-1.371,2.44m5.448,3.228,6.281.011h1.968m-13.431-.011H356.9m-12.251,0h-.666a.379.379,0,0,1-.379-.379v-1.519a.628.628,0,0,1,.557-.624l6.291-.706m-5.478,4.108,5.478-4.108c.115-.058,9.589,0,9.589,0m1106.8-21.308c13.3,17.447,0,19.191,0,19.191C1453.466,561.762,1466.841,545.226,1466.841,545.226Zm0,13.94h-1.48a2.74,2.74,0,0,1-2.741-2.735m4.221,4.4h1.867a2.116,2.116,0,0,0,2.118-2.115m-3.985-2.792a2.3,2.3,0,0,0,2.3-2.3m-2.3-3.319v17.6m10.688-6.349a2.149,2.149,0,0,0,2.15,2.146h9.833a2.141,2.141,0,0,0,.743-4.152,6.167,6.167,0,1,0-11.321,0A2.136,2.136,0,0,0,1477.529,561.56Zm7.067-2.394h1.479a2.738,2.738,0,0,0,2.74-2.735m-4.219,4.4h-1.869a2.117,2.117,0,0,1-2.117-2.115m3.986-2.792a2.3,2.3,0,0,1-2.3-2.3m2.3.184v14.1m20.02-8.743h-1.479a2.737,2.737,0,0,1-2.739-2.735m4.218,4.4h1.869a2.117,2.117,0,0,0,2.117-2.115m-3.986-2.792a2.3,2.3,0,0,0,2.3-2.3m-2.3.184v14.1m-6.862-9.871a4.429,4.429,0,0,0,4.433,4.424h6.152a2.943,2.943,0,0,0,.033-5.886,3.387,3.387,0,0,0,.879-2.267,3.432,3.432,0,0,0-6.8-.668c-.09-.006-.175-.029-.267-.029A4.43,4.43,0,0,0,1497.754,558.038ZM331.865,570.051s-13.3-1.744,0-19.191C331.865,550.86,345.24,567.4,331.865,570.051Zm4.221-7.986a2.74,2.74,0,0,1-2.741,2.736h-1.48m-3.985-.449A2.116,2.116,0,0,0,330,566.466h1.867m-2.3-7.2a2.3,2.3,0,0,0,2.3,2.3m0,11.983v-17.6m-12.093,9.246a6.169,6.169,0,1,0-11.321,0,2.141,2.141,0,0,0,.743,4.152h9.833a2.141,2.141,0,0,0,.745-4.152Zm-9.881-3.123a2.739,2.739,0,0,0,2.74,2.736h1.479m3.986-.449a2.117,2.117,0,0,1-2.117,2.114H314.11m2.3-7.2a2.3,2.3,0,0,1-2.3,2.3m0,11.983v-14.1m-15.8,2.62a2.738,2.738,0,0,1-2.739,2.736H294.09m-3.986-.449a2.117,2.117,0,0,0,2.117,2.114h1.869m-2.3-7.2a2.3,2.3,0,0,0,2.3,2.3m0,11.983v-14.1m2.429-.2c-.092,0-.177.022-.267.028a3.432,3.432,0,0,0-6.8.668,3.388,3.388,0,0,0,.879,2.268,2.943,2.943,0,0,0,.033,5.885h6.152a4.425,4.425,0,1,0,0-8.849Zm332.248,11.7H640.7c1.837-1.659,1.118-3.629-.308-4.152a6.122,6.122,0,0,0,.507-2.442c0-4.546-4.937-7.941-9.746-5.137a4.333,4.333,0,0,0-1.55,1.546,6.524,6.524,0,0,0-.532,6.033C627.651,567.317,626.932,569.288,628.767,570.946Zm5.969-4.539h1.48a2.739,2.739,0,0,0,2.739-2.736m-4.219,4.4h-1.868a2.116,2.116,0,0,1-2.117-2.114m3.985-2.792a2.3,2.3,0,0,1-2.3-2.3m2.3.183v14.1m20.021-8.742h-1.479a2.739,2.739,0,0,1-2.74-2.736m4.219,4.4h1.868a2.117,2.117,0,0,0,2.118-2.114m-3.986-2.792a2.3,2.3,0,0,0,2.3-2.3m-2.3.183v14.1m-5.355-6.237a2.365,2.365,0,0,0,1.775.79h8.381a.857.857,0,0,0,.6-.239c2.574-2.551.831-5.617-1.647-5.646a3.551,3.551,0,0,0,.088-4.584,1.513,1.513,0,0,0-.384-.377,3.518,3.518,0,0,0-5.621,2.025c-.09-.006-.175-.028-.268-.028C648.716,560.853,646.112,565.165,649.4,568.912Zm691.579-21.028c12.326,16.17,0,17.787,0,17.787C1328.585,563.21,1340.981,547.884,1340.981,547.884Zm0,12.92h-.372a2.539,2.539,0,0,1-2.54-2.535m2.912,4.079h1.231a1.962,1.962,0,0,0,1.963-1.96m-3.194-2.587a2.131,2.131,0,0,0,2.132-2.13m-2.132-3.077v16.313M1324,547.884c12.326,16.17,0,17.787,0,17.787C1311.606,563.21,1324,547.884,1324,547.884Zm0,12.92h-.371a2.539,2.539,0,0,1-2.54-2.535m2.911,4.079h1.231a1.962,1.962,0,0,0,1.963-1.96M1324,557.8a2.131,2.131,0,0,0,2.132-2.13M1324,552.594v16.313m-198.485-24.478c12.326,16.171,0,17.787,0,17.787C1113.121,559.755,1125.517,544.429,1125.517,544.429Zm0,12.921h-.371a2.539,2.539,0,0,1-2.54-2.536m2.911,4.079h1.231a1.961,1.961,0,0,0,1.963-1.959m-3.194-2.588a2.131,2.131,0,0,0,2.132-2.13m-2.132-3.076v16.313m-15.407-21.024c12.326,16.171,0,17.787,0,17.787C1097.714,559.755,1110.11,544.429,1110.11,544.429Zm0,12.921h-.372a2.54,2.54,0,0,1-2.54-2.536m2.912,4.079h1.231a1.961,1.961,0,0,0,1.963-1.959m-3.194-2.588a2.131,2.131,0,0,0,2.132-2.13m-2.132-3.076v16.313m-121.532-59.24a8.9,8.9,0,0,1,8.113,2.533,8.659,8.659,0,0,1,8.114-2.533m3.615,8.614a5.249,5.249,0,0,1,4.787,1.494,5.108,5.108,0,0,1,4.788-1.494m251.434-4.481a8.659,8.659,0,0,1,8.114,2.533,8.9,8.9,0,0,1,8.113-2.533m-29.416,8.613a5.109,5.109,0,0,1,4.787,1.495,5.251,5.251,0,0,1,4.787-1.495M953.765,564.5v-5.106m-6.987,5.106v-5.106m-6.987,5.106v-5.106m-6.988,0V564.5m-6.987,0v-5.106m-6.987,0V564.5m-6.987-5.106V564.5m-6.988,0v-5.106m-6.987,5.106v-5.106m55.9-12.848v3.606m-6.987-3.606v3.606m-6.987,0v-3.606m-6.988,3.606v-3.606m-6.987,3.606v-3.606m-6.987,0v3.606m-13.975,0v-3.606m6.988,0v3.606m-13.975,0v-3.606m55.9-4.193v-3.606m-6.987,0v3.606m-6.987,0v-3.606M932.8,542.35v-3.606m-6.987,3.606v-3.606m-6.987,3.606v-3.606m-6.987,3.606v-3.606m-6.988,3.606v-3.606m-6.987,3.606v-3.606m62.32-5.763H892.123V569.6h68.064Zm-.667,21.644H893.045m71.444-19.19-4.92-8.741H891.177l-4.922,6.243m526.084,22.49v-3.778m-6.624,0v3.778m-6.625,0v-3.778m-6.625,3.778v-3.778m-6.624,0v3.778m-6.625,0v-3.778m-6.625,0v3.778m-6.625,0v-3.778m-6.624,3.778v-3.778m59.086-4.284H1353.9v15.724h64.532Zm3.131-.575-4.665-5.918h-62l-4.666,5.919M469.88,568.67v-3.777m-6.624,3.777v-3.777m-6.625,3.777v-3.777m-6.625,3.777v-3.777m-6.624,3.777v-3.777m-6.625,3.777v-3.777m-6.625,3.777v-3.777m-6.625,3.777v-3.777m-6.624,3.777v-3.777m59.086-4.285H411.437v15.724h64.532Zm3.131-.575-4.665-5.918h-62l-4.667,5.919m892.08-12.15v3.192m3.264-27.859v-7.893h-2.362v18.654m3.373,0V525.49h-1.775m-4.863,31.179v5.488h2.363v-4.712m4.112-1.294v12.577m-4.112-12.577v12.577m4.112-30.354v12.183m2.363-12.183,0,11.16-6.475-11.16v4.6m7.35,8.1h-15.521v5.075h14.448m.2-22.173H1293.35v4.4h16.861v-4.4M1298.9,554.047h13.6v-4.513h-8.541m.5-21.921h3.494v-4.4h-4.727m-1.3,19.983h-6.406v3.795h5.225m128.378,21.77H1525.4a11.066,11.066,0,0,1,7.79,3.2l2.658,2.633a11.07,11.07,0,0,0,7.79,3.2h6.981m-129.055-9.08h-140.64M511.27,565.495h4.083m-7.926-4.469h11.856l-5.928-6.989Zm11.856,0H507.427v9.735h11.856ZM492.7,565.495h4.082m-7.925-4.469h11.855l-5.928-6.989Zm11.855,0H488.853v9.735h11.855Zm34.048-24.536V525.517m8.524,37.978h4.084m-7.926-4.469h11.856l-5.928-6.989Zm22.451-9.563v3.186m-5.915-3.186v3.186m-5.917-3.186v3.186m-15.3,7.645V557.1m0-7.642v3.186m5.917,0v-3.186m-11.834,10.828V557.1m0-7.642v3.186m11.834-7.64v-3.188m-5.917,0v3.188m-5.917,0v-3.188m22.455,17.205H539.439v9.735h11.855Zm15.3-4.715v-8.794H545.366m0,7.134V536.49H524.141v32.271m79.2,3.781a2.168,2.168,0,1,0,2.168-2.17A2.171,2.171,0,0,0,603.336,572.542Zm-29.525,0a2.169,2.169,0,1,0,2.17-2.17A2.171,2.171,0,0,0,573.811,572.542Zm41.126-6.79v-5.691a1.351,1.351,0,0,0-1.351-1.351H569.279a2.069,2.069,0,0,0-2,1.554l-1.749,6.8a3.1,3.1,0,0,0-.1.772v3.953a.75.75,0,0,0,.75.75h5.835m0,0a4.336,4.336,0,1,1,8.671,0h20.471a4.337,4.337,0,1,1,8.674,0h5.779v-2.17h-2.171m-41.28-8.968h5.413v4.337h-5.413Zm7.533,0h6.075v4.337H579.69Zm26.716,0v4.337h6.074V561.4Zm-8.392,0v4.337h6.074V561.4Zm-32.147,4.337h4.122V561.4h-3.015Zm0,4.631H563.7m57.04-2.33h-5.282m2.332-2.167h4.644M585.7,569.347h-3.321m13.416,0h4.643m-6.627,3.2h-5.662V561.4h5.662Zm-2.831-9.358v9.358m1028.884,1.7c0,2.2-1.781,3.571-3.976,3.571s-3.974-1.376-3.974-3.571c0,2.2-1.78,3.571-3.975,3.571s-3.975-1.376-3.975-3.571c0,2.2-1.78,3.571-3.975,3.571s-3.974-1.376-3.974-3.571c0,2.2-1.781,3.571-3.976,3.571s-3.974-1.376-3.974-3.571m54.257,0c0,2.2,1.779,3.571,3.974,3.571s3.975-1.376,3.975-3.571c0,2.2,1.78,3.571,3.975,3.571s3.975-1.376,3.975-3.571c0,2.2,1.78,3.571,3.974,3.571m-107.962,0c2.195,0,3.975-1.376,3.975-3.571,0,2.2,1.78,3.571,3.974,3.571s3.976-1.376,3.976-3.571c0,2.2,1.779,3.571,3.974,3.571s3.976-1.376,3.976-3.571c0,2.2,1.779,3.571,3.974,3.571s3.975-1.376,3.975-3.571m43.153,0c0,2.2,1.78,3.571,3.974,3.571s3.976-1.376,3.976-3.571c0,2.2,1.779,3.571,3.974,3.571m81.922-10.008h-54.841m54.84,0c0,4.512-13.479,10.634-32.075,10.634-3.333,0-14.1-.053-16.473-.053-3.634,0-6.292-1.77-6.292-10.581m33.143-.414.014-9.2,4.735.022,7.5,9.583m-16.541,3.522h-20.449M1185.713,575.9h40.556m-44.925-10.447h78.013V532.462h-78.013Zm70.7-8.612h-7.31m-48.768,0h-7.311m63.389-7.884h-7.31m-48.768,0h-7.311m63.389-7.884h-7.31m-6.71,0h-7.31m-6.709,0h-7.31m-6.71,0h-7.31m-6.709,0h-7.311m17.581,24.38h26V552.482h-26Zm30.692-16.5h-33.156m20.711,7.884v8.612m-9.728-8.612v8.612m-18.789-32.991h45.9V520.35h-45.9Zm13.287-12.112h18.438L1224.3,510.2h-11.657ZM1013.872,569.6H881.811m415.519,6.8H1290.6a17.833,17.833,0,0,1-12.611-5.224l-.5-.5a16.246,16.246,0,0,0-12.112-4.723l-165.023-.5m-200.85,9.657H628.865m121.213-51.989V504.857m11.132,59.86h7.728m-3.781-21.183,11.218,12.725H753.938Zm31.268-1.872v5.029m-11.193-5.029v5.029m-11.2,0v-5.029m-23.957,14.963v5.534m0-18v5.029m-7.7,7.434v5.529m0-12.963v-5.029M757.775,531.7v5.534m-7.7-5.534v5.534m-7.7-5.534v5.534m33.994,37.877H753.94V556.259h22.435Zm-11.218-40.416h40.166v36.8m-69.833,3.5V523.611h29.667v20.051M1075.137,509v16.509m-7.043,32.907h-17.84l8.92-10.514Zm-33.781-9.594v-4.794m8.9,4.794v-4.794m8.9,4.794v-4.794m23.022,4.794v-4.794m-8.9,0v4.794m17.805-4.794v4.794m-17.805-11.495v-4.8m8.9,4.8v-4.8m8.9,4.8v-4.8m-56.8,22.215V538.089h31.935m0,10.735V525.507h31.935V573.4m350.845-11.09h-4.342m2.126-12.167-6.3,7.421h12.591Zm-6.3,18.62h12.591v-11.2h-12.591ZM1165.177,559h-4.342m2.126-12.167-6.3,7.421h12.592Zm-6.3,18.62h12.592v-11.2h-12.592ZM1146.814,559h-4.342m2.126-12.167-6.3,7.421h12.591Zm-6.3,18.62h12.591v-11.2H1138.3Zm-426.495,3.089h-4.342m2.126-12.168-6.295,7.421h12.591Zm-6.295,18.62h12.591v-11.2H703.3Zm-8.244-6.452H690.71m2.126-12.168-6.3,7.421h12.591Zm-6.3,18.62h12.591v-11.2H686.54Zm-8.243-6.452h-4.343m2.126-12.168-6.3,7.421h12.591Zm-6.3,18.62h12.591v-11.2H669.785ZM983.707,569.6V558.414h58.542M864.01,575.11h8.043l-1.612-60.82h-4.818l-1.092,39.551Zm.521-21.9H837.3v11.512M816.493,575.11h31.4v-9.886h-31.4Zm24.192-7.084v3.622m-5.66-3.622v3.622m-5.66-3.622v3.622m-5.659-3.622v3.622m183-18.443V532.026H976.323V569.6m24.255-31.514v2.969m-4.476-2.969v2.969m-4.476-2.969v2.969m-4.476-2.969v2.969m-4.476-2.969v2.969m17.9,4.793v2.969m-4.476-2.969v2.969m-4.476-2.969v2.969m-4.476-2.969v2.969m-4.476-2.969v2.969m101.23,29.151a6.993,6.993,0,0,0-9.4-6.581,83.1,83.1,0,0,1-17.108-1.285,8.564,8.564,0,0,0-8.564,8.564M372.7,581.554a8.557,8.557,0,0,0,15.5,5.015,8.523,8.523,0,0,0,7.412-.976,7.014,7.014,0,1,0,2.764-11.318,8.552,8.552,0,0,0-14.408-.844,8.553,8.553,0,0,0-11.264,8.123Zm666.263-3.385a48.3,48.3,0,0,1-12.934-5.322,6.617,6.617,0,0,0-5.78,3.4,5.4,5.4,0,0,0-6.586,2.456m56.243-3.946a3.885,3.885,0,0,0-6.032.594m1.565,1.123c-4.381-3.242-9.257.077-9.923,2.505m-28.272-1.893c-1.813-1.428-3.794.563-3.794.563m127.447-2.852h12.113m-21.323-2.822h-4.6m-12.177,4.723h-2.6m-7.992,0h-2.6M796.425,558.125v-4.92m-11.193,0v4.92m73.453,0h-3.447m3.447,5.643h-3.447m3.447,5.644h-3.447m-3.256-11.287h-3.446m-3.256,0h-3.447M483.071,575.212h71.244m-301.126,1.022H274.8a10.977,10.977,0,0,0,5.264-1.345h0a10.974,10.974,0,0,1,5.265-1.346h77.85a6.252,6.252,0,0,0,4.42-1.83h0a6.245,6.245,0,0,1,4.419-1.831h4.763m706.928,8.817"/></g></svg>