<svg xmlns="http://www.w3.org/2000/svg" width="355.313" height="82.712" viewBox="0 0 355.313 82.712"><g transform="translate(0.5 7.5)"><path d="M687.476,24.4a8.529,8.529,0,1,0,11.144-4.617A8.528,8.528,0,0,0,687.476,24.4Zm7.88-12.571v3.74m0,24.19V43.5M707.45,27.666h3.74m-27.929,0h-3.74m24.387-8.552,2.645-2.644M686.8,36.218l-2.644,2.644m19.748-2.644,2.645,2.644M686.8,19.113l-2.644-2.644" transform="translate(-402.937 -18.831)" fill="none" stroke="#4c607b" stroke-linecap="round" stroke-linejoin="round" stroke-width="1"/><path d="M642.656,26.26a4.12,4.12,0,0,1,4.108-4.107h1.812a3.934,3.934,0,0,1,.883-1.99,3.672,3.672,0,0,0-2.153-.7h-.029a3.388,3.388,0,0,0-2.943-2.471,5.056,5.056,0,0,0-9.425,2.471h-.961a3.7,3.7,0,0,0,0,7.408h8.76A4,4,0,0,1,642.656,26.26Z" transform="translate(-594.274 -2.004)" fill="none" stroke="#4c607b" stroke-linecap="round" stroke-linejoin="round" stroke-width="1"/><path d="M670.725,26.152a4.119,4.119,0,0,1-4.107,4.107H645.655a4.107,4.107,0,1,1,0-8.214h1.812a3.912,3.912,0,0,1,4.5-3.358,5.6,5.6,0,0,1,10.325.7,3.2,3.2,0,0,1,3.056,2.663h1.271A4.119,4.119,0,0,1,670.725,26.152Z" transform="translate(-593.029 -2.035)" fill="none" stroke="#4c607b" stroke-linecap="round" stroke-linejoin="round" stroke-width="1"/><path d="M692.718,91.4H673.394m33.371-27.439,0-6.452m-6.754,33.509v2.61m-.029-10.4L696.2,87.689h7.576Zm-16.151.39V81.579m5.139,2.036V81.579m4.965,2.036V81.579m-10.1-2.847V76.7m5.139,2.035V76.7m4.965,2.035V76.7M704.4,82.432V80.4m4.965,2.036V80.4m0,7.874V86.234M704.4,76.367V74.33m4.965,2.037V74.33M704.4,70.3V68.265m4.965,2.037V68.265m-5.591,28.918V87.689H696.2v9.494m3.787-23.907H679.219V91.068m4.615-2.8V86.234m5.139,2.036V86.234m24.576,5.157V63.958H699.984V83.616" transform="translate(-448.659 -29.283)" fill="none" stroke="#4c607b" stroke-linecap="round" stroke-linejoin="round" stroke-width="1"/><g transform="translate(46.728 29.391)"><path d="M568.533,80.673H508.114a28.556,28.556,0,0,0-19.611,7.75h0a27.062,27.062,0,0,1-18.989,7.751h-9.807" transform="translate(-459.706 -54.43)" fill="none" stroke="#4c607b" stroke-linecap="round" stroke-linejoin="round" stroke-width="1"/><path d="M549.539,72.091H519.192V84.736h30.347Zm-27.5,9.345h2.844m18.97,0h2.845m-24.659-3.022h2.844m18.97,0h2.845m-24.659-3.022h2.844m2.609,0h2.844m2.61,0h2.843m2.61,0h2.843m2.61,0h2.845m-6.839,5.047H529.74v4.3h10.116Zm-11.94-2.026h12.9m-8.056,3.734v2.588m3.784-2.588v2.588M543.85,67.45H526v4.642H543.85Zm-6.487-3.893h-4.534L531.51,67.45h7.172Zm-15.327,8.534v-13.6m.606,7.983c.312,0,.565-.435.565-.973s-.253-.974-.565-.974h-1.7m1.7-2.332c.312,0,.565-.435.565-.973s-.253-.974-.565-.974h-1.7" transform="translate(-448.809 -58.493)" fill="none" stroke="#4c607b" stroke-linecap="round" stroke-linejoin="round" stroke-width="1"/></g><g transform="translate(201.963 66.008)"><path d="M594.786,94.174a1.435,1.435,0,1,1-1.435,1.435A1.435,1.435,0,0,1,594.786,94.174Z" transform="translate(-590.459 -88.574)" fill="none" stroke="#4c607b" stroke-linecap="round" stroke-linejoin="round" stroke-width="1"/><path d="M604.706,94.174a1.435,1.435,0,1,1-1.435,1.435A1.435,1.435,0,0,1,604.706,94.174Z" transform="translate(-588.642 -88.574)" fill="none" stroke="#4c607b" stroke-linecap="round" stroke-linejoin="round" stroke-width="1"/><line x1="5.002" transform="translate(16.373 2.991)" stroke-width="1" stroke="#4c607b" stroke-linecap="round" stroke-linejoin="round" fill="none"/><path d="M597.133,92.363" transform="translate(-589.766 -88.905)" fill="none" stroke="#4c607b" stroke-linecap="round" stroke-linejoin="round" stroke-width="1"/><line y2="3.04" transform="translate(20.231 2.991)" stroke-width="1" stroke="#4c607b" stroke-linecap="round" stroke-linejoin="round" fill="none"/><path d="M606.891,92.432l-2-2.991h-6.2l-1.754,2.991" transform="translate(-589.803 -89.441)" fill="none" stroke="#4c607b" stroke-linecap="round" stroke-linejoin="round" stroke-width="1"/><line x2="2.782" transform="translate(17.449 6.498)" stroke-width="1" stroke="#4c607b" stroke-linecap="round" stroke-linejoin="round" fill="none"/><line x2="8.523" transform="translate(5.839 6.491)" stroke-width="1" stroke="#4c607b" stroke-linecap="round" stroke-linejoin="round" fill="none"/><path d="M593.6,95.469h-2.338a.357.357,0,0,1-.356-.357V93.218a.589.589,0,0,1,.524-.586l6.609-.664" transform="translate(-590.907 -88.977)" fill="none" stroke="#4c607b" stroke-linecap="round" stroke-linejoin="round" stroke-width="1"/><path d="M596.936,91.973c.108-.054,9.24,0,9.24,0" transform="translate(-589.803 -88.981)" fill="none" stroke="#4c607b" stroke-linecap="round" stroke-linejoin="round" stroke-width="1"/></g><g transform="translate(147.481 62.149)"><path d="M547.627,95.379h-2.766l2.979-4.1h-2.43l3.708-5.1,3.708,5.1h-2.43l2.979,4.1h-5.748Z" transform="translate(-544.861 -86.179)" fill="none" stroke="#4c607b" stroke-linecap="round" stroke-linejoin="round" stroke-width="1"/><line y1="3.242" transform="translate(4.257 9.2)" stroke-width="1" stroke="#4c607b" stroke-linecap="round" stroke-linejoin="round" fill="none"/></g><g transform="translate(108.879 62.149)"><path d="M515,95.379h-2.767l2.979-4.1h-2.43l3.708-5.1,3.708,5.1h-2.43l2.98,4.1H515Z" transform="translate(-512.235 -86.179)" fill="none" stroke="#4c607b" stroke-linecap="round" stroke-linejoin="round" stroke-width="1"/><line y2="3.242" transform="translate(4.257 9.2)" stroke-width="1" stroke="#4c607b" stroke-linecap="round" stroke-linejoin="round" fill="none"/></g><g transform="translate(288.007 59.422)"><line x2="4.036" transform="translate(13.812 9.642)" stroke-width="1" stroke="#4c607b" stroke-linecap="round" stroke-linejoin="round" fill="none"/><path d="M806.595,85l-6.759,6.6H813.8Z" transform="translate(-790.807 -85.001)" fill="none" stroke="#4c607b" stroke-linecap="round" stroke-linejoin="round" stroke-width="1"/><path d="M812.242,97.387V90.043H800.523v7.344" transform="translate(-790.596 -83.447)" fill="none" stroke="#4c607b" stroke-linecap="round" stroke-linejoin="round" stroke-width="1"/><line x2="66.306" transform="translate(0 13.941)" stroke-width="1" stroke="#4c607b" stroke-linecap="round" stroke-linejoin="round" fill="none"/></g><path d="M550.05,49.307a6.3,6.3,0,0,1,5.9,1.843,6.476,6.476,0,0,1,5.9-1.843m-21.4,6.267a3.718,3.718,0,0,1,3.483,1.087,3.823,3.823,0,0,1,3.483-1.087" transform="translate(-398.187 -30.805)" fill="none" stroke="#4c607b" stroke-linecap="round" stroke-linejoin="round" stroke-width="1"/><g transform="translate(260.178 62.62)"><rect width="22.299" height="10.936" stroke-width="1" stroke="#4c607b" stroke-linecap="round" stroke-linejoin="round" fill="none"/><g transform="translate(3.578 2.749)"><line y2="1.579" fill="none" stroke="#4c607b" stroke-linecap="round" stroke-linejoin="round" stroke-width="1"/><line y2="1.579" transform="translate(4.998)" stroke-width="1" stroke="#4c607b" stroke-linecap="round" stroke-linejoin="round" fill="none"/><line y2="1.579" transform="translate(9.818)" stroke-width="1" stroke="#4c607b" stroke-linecap="round" stroke-linejoin="round" fill="none"/><line y2="1.579" transform="translate(14.727)" stroke-width="1" stroke="#4c607b" stroke-linecap="round" stroke-linejoin="round" fill="none"/><g transform="translate(0 3.858)"><line y2="1.579" fill="none" stroke="#4c607b" stroke-linecap="round" stroke-linejoin="round" stroke-width="1"/><line y2="1.579" transform="translate(4.998)" stroke-width="1" stroke="#4c607b" stroke-linecap="round" stroke-linejoin="round" fill="none"/><line y2="1.579" transform="translate(9.818)" stroke-width="1" stroke="#4c607b" stroke-linecap="round" stroke-linejoin="round" fill="none"/><line y2="1.579" transform="translate(14.727)" stroke-width="1" stroke="#4c607b" stroke-linecap="round" stroke-linejoin="round" fill="none"/></g></g></g><g transform="translate(123.915 55.635)"><line x1="3.744" y2="14.897" fill="none" stroke="#4c607b" stroke-linecap="round" stroke-linejoin="round" stroke-width="1"/><line x2="3.744" y2="14.897" transform="translate(13.373)" stroke-width="1" stroke="#4c607b" stroke-linecap="round" stroke-linejoin="round" fill="none"/></g><line x2="11.08" transform="translate(126.933 59.472)" stroke-width="1" stroke="#4c607b" stroke-linecap="round" stroke-linejoin="round" fill="none"/><line x2="13.373" transform="translate(125.787 63.083)" stroke-width="1" stroke="#4c607b" stroke-linecap="round" stroke-linejoin="round" fill="none"/><line x2="14.37" transform="translate(125.288 67.055)" stroke-width="1" stroke="#4c607b" stroke-linecap="round" stroke-linejoin="round" fill="none"/><path d="M706.563,91.2H682.049v5.394" transform="translate(-447.074 -23.111)" fill="none" stroke="#4c607b" stroke-linecap="round" stroke-linejoin="round" stroke-width="1"/><line y2="1.203" transform="translate(238.147 70.543)" stroke-width="1" stroke="#4c607b" stroke-linecap="round" stroke-linejoin="round" fill="none"/><line y2="1.203" transform="translate(241.827 70.543)" stroke-width="1" stroke="#4c607b" stroke-linecap="round" stroke-linejoin="round" fill="none"/><line y2="1.203" transform="translate(245.507 70.543)" stroke-width="1" stroke="#4c607b" stroke-linecap="round" stroke-linejoin="round" fill="none"/><line y2="1.203" transform="translate(249.188 70.543)" stroke-width="1" stroke="#4c607b" stroke-linecap="round" stroke-linejoin="round" fill="none"/><line y2="1.203" transform="translate(252.868 70.543)" stroke-width="1" stroke="#4c607b" stroke-linecap="round" stroke-linejoin="round" fill="none"/><line y2="1.203" transform="translate(256.181 70.543)" stroke-width="1" stroke="#4c607b" stroke-linecap="round" stroke-linejoin="round" fill="none"/><line y1="3.301" transform="translate(99.57 52.326)" stroke-width="1" stroke="#4c607b" stroke-linecap="round" stroke-linejoin="round" fill="none"/><line y1="2.075" transform="translate(102.149 53.534)" stroke-width="1" stroke="#4c607b" stroke-linecap="round" stroke-linejoin="round" fill="none"/><line y1="3.301" transform="translate(104.729 52.326)" stroke-width="1" stroke="#4c607b" stroke-linecap="round" stroke-linejoin="round" fill="none"/><line y1="2.075" transform="translate(107.308 53.534)" stroke-width="1" stroke="#4c607b" stroke-linecap="round" stroke-linejoin="round" fill="none"/><line y1="2.075" transform="translate(96.99 53.534)" stroke-width="1" stroke="#4c607b" stroke-linecap="round" stroke-linejoin="round" fill="none"/><path d="M551.17,77.538h4.605a13.785,13.785,0,0,0,9.747-4.038h0a13.786,13.786,0,0,1,9.748-4.037H597.2A15.635,15.635,0,0,1,607.681,73.5h0a15.636,15.636,0,0,0,10.485,4.038h3.481" transform="translate(-398.314 -25.234)" fill="none" stroke="#4c607b" stroke-linecap="round" stroke-linejoin="round" stroke-width="1"/><g transform="translate(177.832 32.779)"><line y1="1.41" transform="translate(8.846 9.588)" stroke-width="1" stroke="#4c607b" stroke-linecap="round" stroke-linejoin="round" fill="none"/><line y2="1.41" transform="translate(6.697 9.588)" stroke-width="1" stroke="#4c607b" stroke-linecap="round" stroke-linejoin="round" fill="none"/><line y2="2.821" transform="translate(4.547 8.178)" stroke-width="1" stroke="#4c607b" stroke-linecap="round" stroke-linejoin="round" fill="none"/><line y2="1.41" transform="translate(2.398 9.588)" stroke-width="1" stroke="#4c607b" stroke-linecap="round" stroke-linejoin="round" fill="none"/><line y1="1.41" transform="translate(0 9.588)" stroke-width="1" stroke="#4c607b" stroke-linecap="round" stroke-linejoin="round" fill="none"/><g transform="translate(10.51 0)"><path d="M585.562,60.715a4.306,4.306,0,1,0,4.305,4.306A4.307,4.307,0,0,0,585.562,60.715Z" transform="translate(-581.255 -60.715)" fill="none" stroke="#4c607b" stroke-linecap="round" stroke-linejoin="round" stroke-width="1"/><path d="M584.545,64.369h.785a1.455,1.455,0,0,0,1.454-1.457" transform="translate(-580.239 -60.036)" fill="none" stroke="#4c607b" stroke-linecap="round" stroke-linejoin="round" stroke-width="1"/><line y1="9.521" transform="translate(4.306 1.929)" stroke-width="1" stroke="#4c607b" stroke-linecap="round" stroke-linejoin="round" fill="none"/></g><path d="M584.559,65.533a1.227,1.227,0,0,1-1.228-1.228" transform="translate(-570.104 -58.839)" fill="none" stroke="#4c607b" stroke-linecap="round" stroke-linejoin="round" stroke-width="1"/></g><g transform="translate(84.289 63.553)"><path d="M497.958,87.387a4.2,4.2,0,1,0,4.2,4.2A4.2,4.2,0,0,0,497.958,87.387Z" transform="translate(-493.763 -87.387)" fill="none" stroke="#4c607b" stroke-linecap="round" stroke-linejoin="round" stroke-width="1"/><path d="M497.309,91.175h.767a1.418,1.418,0,0,0,1.417-1.419" transform="translate(-493.113 -86.953)" fill="none" stroke="#4c607b" stroke-linecap="round" stroke-linejoin="round" stroke-width="1"/><path d="M497.623,93.1h-.635a1.39,1.39,0,0,1-1.391-1.39" transform="translate(-493.427 -86.596)" fill="none" stroke="#4c607b" stroke-linecap="round" stroke-linejoin="round" stroke-width="1"/><line y1="9.28" transform="translate(4.196 1.88)" stroke-width="1" stroke="#4c607b" stroke-linecap="round" stroke-linejoin="round" fill="none"/><path d="M497.549,90.837H497.2a1.2,1.2,0,0,1-1.2-1.2" transform="translate(-493.353 -86.974)" fill="none" stroke="#4c607b" stroke-linecap="round" stroke-linejoin="round" stroke-width="1"/></g><path d="M834.758,95.671s-9.859-1.292,0-14.225C834.758,81.446,844.672,93.7,834.758,95.671Zm2.193-5.617a1.727,1.727,0,0,1-1.727,1.725h-.466m-1.988-.334a1.569,1.569,0,0,0,1.57,1.568h.418m-1.705-5.34a1.7,1.7,0,0,0,1.705,1.7m0,8.883V85.213" transform="translate(-512.397 -25.497)" fill="none" stroke="#4c607b" stroke-linecap="round" stroke-linejoin="round" stroke-width="1"/><g transform="translate(334.719 70.146)"><line y2="2.929" fill="none" stroke="#4c607b" stroke-linecap="round" stroke-linejoin="round" stroke-width="1"/><line y2="2.929" transform="translate(5.74)" stroke-width="1" stroke="#4c607b" stroke-linecap="round" stroke-linejoin="round" fill="none"/><line y2="1.746" transform="translate(2.87 1.183)" stroke-width="1" stroke="#4c607b" stroke-linecap="round" stroke-linejoin="round" fill="none"/><line y2="1.746" transform="translate(8.61 1.183)" stroke-width="1" stroke="#4c607b" stroke-linecap="round" stroke-linejoin="round" fill="none"/></g><g transform="translate(161.605 56.441)"><rect width="28.316" height="15.327" transform="translate(5.126 2.859)" stroke-width="1" stroke="#4c607b" stroke-linecap="round" stroke-linejoin="round" fill="none"/><line x2="27.594" transform="translate(5.545 10.615)" stroke-width="1" stroke="#4c607b" stroke-linecap="round" stroke-linejoin="round" fill="none"/><path d="M592.991,83.022l-2.437-2.838H560.786l-2.439,2.838" transform="translate(-556.514 -80.184)" fill="none" stroke="#4c607b" stroke-linecap="round" stroke-linejoin="round" stroke-width="1"/><line x2="35.474" transform="translate(0 18.185)" stroke-width="1" stroke="#4c607b" stroke-linecap="round" stroke-linejoin="round" fill="none"/><g transform="translate(8.211 13.077)"><line y1="2.322" transform="translate(21.618)" stroke-width="1" stroke="#4c607b" stroke-linecap="round" stroke-linejoin="round" fill="none"/><line y1="2.322" transform="translate(18.015)" stroke-width="1" stroke="#4c607b" stroke-linecap="round" stroke-linejoin="round" fill="none"/><path d="M572.933,95.891v-4.74h3.049v5.012" transform="translate(-562.124 -91.151)" fill="none" stroke="#4c607b" stroke-linecap="round" stroke-linejoin="round" stroke-width="1"/><line y1="2.322" transform="translate(7.206)" stroke-width="1" stroke="#4c607b" stroke-linecap="round" stroke-linejoin="round" fill="none"/><line y1="2.322" transform="translate(3.603)" stroke-width="1" stroke="#4c607b" stroke-linecap="round" stroke-linejoin="round" fill="none"/><line y1="2.322" fill="none" stroke="#4c607b" stroke-linecap="round" stroke-linejoin="round" stroke-width="1"/></g><g transform="translate(8.211 6.441)"><line y1="2.322" transform="translate(21.618)" stroke-width="1" stroke="#4c607b" stroke-linecap="round" stroke-linejoin="round" fill="none"/><line y1="2.322" transform="translate(18.015)" stroke-width="1" stroke="#4c607b" stroke-linecap="round" stroke-linejoin="round" fill="none"/><line y2="2.322" transform="translate(14.412)" stroke-width="1" stroke="#4c607b" stroke-linecap="round" stroke-linejoin="round" fill="none"/><line y1="2.322" transform="translate(10.809)" stroke-width="1" stroke="#4c607b" stroke-linecap="round" stroke-linejoin="round" fill="none"/><line y1="2.322" transform="translate(7.206)" stroke-width="1" stroke="#4c607b" stroke-linecap="round" stroke-linejoin="round" fill="none"/><line y1="2.322" transform="translate(3.603)" stroke-width="1" stroke="#4c607b" stroke-linecap="round" stroke-linejoin="round" fill="none"/><line y1="2.322" fill="none" stroke="#4c607b" stroke-linecap="round" stroke-linejoin="round" stroke-width="1"/></g></g><path d="M442.77,93.727a3.363,3.363,0,0,0,6.687,0,3.362,3.362,0,0,0,6.686,0,3.071,3.071,0,0,0,3.345,3" transform="translate(-419.199 -22.625)" fill="none" stroke="#4c607b" stroke-linecap="round" stroke-linejoin="round" stroke-width="1"/><path d="M447.654,93.727a3.363,3.363,0,0,1-6.687,0,3.363,3.363,0,0,1-6.687,0,3.362,3.362,0,0,1-6.686,0,3.071,3.071,0,0,1-3.345,3" transform="translate(-424.248 -22.625)" fill="none" stroke="#4c607b" stroke-linecap="round" stroke-linejoin="round" stroke-width="1"/><path d="M666.4,38.179h0a3.4,3.4,0,0,0-2.957-2.482,5.078,5.078,0,0,0-9.466,2.482h-.8a3.835,3.835,0,0,0-3.856,3.246,3.73,3.73,0,0,0,3.69,4.2h13.417a3.721,3.721,0,1,0-.028-7.441Z" transform="translate(-441.462 -22.832)" fill="none" stroke="#4c607b" stroke-linecap="round" stroke-linejoin="round" stroke-width="1"/></g></svg>