<svg xmlns="http://www.w3.org/2000/svg" width="355.313" height="82.712"><g fill="none" stroke="#4c607b" stroke-linecap="round" stroke-linejoin="round"><path d="M285.039 13.069a8.529 8.529 0 1011.144-4.617 8.528 8.528 0 00-11.144 4.617zm7.88-12.571v3.74m0 24.19v3.741m12.094-15.834h3.74m-27.929 0h-3.74m24.387-8.552l2.645-2.644m-19.753 19.748l-2.644 2.644m19.748-2.644l2.645 2.644M284.363 7.782l-2.644-2.644M48.882 31.756a4.12 4.12 0 014.108-4.107h1.812a3.934 3.934 0 01.883-1.99 3.672 3.672 0 00-2.153-.7h-.029a3.388 3.388 0 00-2.943-2.471 5.056 5.056 0 00-9.425 2.471h-.961a3.704 3.704 0 000 7.408h8.76a4 4 0 01-.052-.611z"/><path d="M78.196 31.617a4.119 4.119 0 01-4.107 4.107H53.126a4.107 4.107 0 110-8.214h1.812a3.912 3.912 0 014.5-3.358 5.6 5.6 0 0110.325.7 3.2 3.2 0 013.056 2.663h1.271a4.119 4.119 0 014.106 4.102zm166.363 38h-19.324m33.371-27.439v-6.452m-6.754 33.509v2.61m-.029-10.4l-3.782 4.461h7.576zm-16.151.39v-2.039m5.139 2.036v-2.036m4.965 2.036v-2.036m-10.1-2.847v-2.032m5.139 2.035v-2.035m4.965 2.035v-2.035m10.461 5.732v-2.032m4.965 2.036v-2.036m0 7.874v-2.04m-4.965-9.867v-2.037m4.965 2.037v-2.037m-4.965-4.03v-2.035m4.965 2.037v-2.037M255.615 75.4v-9.494h-7.574V75.4m3.787-23.907H231.06v17.792m4.615-2.8v-2.034m5.139 2.036v-2.036m24.576 5.157V42.175h-13.565v19.658m-95.77 1.301H95.636a28.556 28.556 0 00-19.611 7.75h0a27.062 27.062 0 01-18.989 7.751h-9.807"/><path d="M147.958 50.489h-30.347v12.645h30.347zm-27.5 9.345h2.844m18.97 0h2.845m-24.659-3.022h2.844m18.97 0h2.845m-24.659-3.022h2.844m2.609 0h2.844m2.61 0h2.843m2.61 0h2.843m2.61 0h2.845m-6.839 5.047h-10.118v4.3h10.116zm-11.94-2.026h12.9m-8.056 3.734v2.588m3.784-2.588v2.588m7.304-17.285h-17.85v4.642h17.85zm-6.487-3.893h-4.534l-1.319 3.893h7.172zm-15.327 8.534v-13.6m.606 7.983c.312 0 .565-.435.565-.973s-.253-.974-.565-.974h-1.7m1.7-2.332c.312 0 .565-.435.565-.973s-.253-.974-.565-.974h-1.7m87.429 40.462a1.435 1.435 0 11-1.435 1.435 1.435 1.435 0 011.435-1.435zm11.737 0a1.435 1.435 0 11-1.435 1.435 1.435 1.435 0 011.435-1.435zm5.311-2.609h-5.002m3.858 0v3.04m-3.143-3.04l-2-2.991h-6.2l-1.754 2.991m10.315 3.507h2.782m-14.392-.007h8.523"/><path d="M205.156 80h-2.338a.357.357 0 01-.356-.357v-1.894a.589.589 0 01.524-.586l6.609-.664m.001.001c.108-.054 9.24 0 9.24 0m-68.089 2.349h-2.766l2.979-4.1h-2.43l3.708-5.1 3.708 5.1h-2.43l2.979 4.1h-5.748zm1.491 3.242v-3.242m-40.094 0h-2.767l2.979-4.1h-2.43l3.708-5.1 3.708 5.1h-2.43l2.98 4.1h-5.748zm1.492 0v3.242m188.683-5.527h4.036m-2.06-9.643l-6.759 6.6H311.5z"/><path d="M310.153 80.862v-7.344h-11.719v7.344m-9.927.001h66.306m-202.45-54.861a6.3 6.3 0 015.9 1.843 6.476 6.476 0 015.9-1.843m-21.4 6.267a3.718 3.718 0 013.483 1.087 3.823 3.823 0 013.483-1.087M260.678 70.12h22.299v10.936h-22.299zm3.578 2.749v1.579m4.998-1.579v1.579m4.82-1.579v1.579m4.909-1.579v1.579m-14.727 2.279v1.579m4.998-1.579v1.579m4.82-1.579v1.579m4.909-1.579v1.579M128.159 63.135l-3.744 14.897m13.373-14.897l3.744 14.897m-14.099-11.06h11.08m-12.226 3.611h13.373m-13.872 3.972h14.37m119.831 1.034h-24.514v5.394m3.172-2.94v1.203m3.68-1.203v1.203m3.68-1.203v1.203m3.681-1.203v1.203m3.68-1.203v1.203m3.313-1.203v1.203M100.07 63.127v-3.301m2.579 3.283v-2.075m2.58 2.093v-3.301m2.579 3.283v-2.075M97.49 63.109v-2.075m55.866-1.23h4.605a13.785 13.785 0 009.747-4.038h0a13.786 13.786 0 019.748-4.037h21.93a15.635 15.635 0 0110.481 4.037h0a15.636 15.636 0 0010.485 4.038h3.481m-36.655-8.527v-1.41m-2.149 0v1.41m-2.15-2.82v2.821m-2.149-1.411v1.41m-2.398 0v-1.41m14.817-9.588a4.306 4.306 0 104.305 4.306 4.307 4.307 0 00-4.305-4.306z"/><path d="M193.148 44.612h.785a1.455 1.455 0 001.454-1.457m-2.239 8.574v-9.521m-.361 4.765a1.227 1.227 0 01-1.228-1.228M88.984 71.053a4.2 4.2 0 104.2 4.2 4.2 4.2 0 00-4.2-4.2z"/><path d="M88.985 75.275h.767a1.418 1.418 0 001.417-1.419m-2.184 3.701h-.635a1.39 1.39 0 01-1.391-1.39m2.026 6.046v-9.28m0 1.983h-.349a1.2 1.2 0 01-1.2-1.2m235.425 3.958s-9.859-1.292 0-14.225c0 0 9.914 12.254 0 14.225zm2.193-5.617a1.727 1.727 0 01-1.727 1.725h-.466m-1.988-.334a1.569 1.569 0 001.57 1.568h.418m-1.705-5.34a1.7 1.7 0 001.705 1.7m0 8.883V67.216m12.358 10.43v2.929m5.74-2.929v2.929m-2.87-1.746v1.746m5.74-1.746v1.746M167.231 66.8h28.316v15.327h-28.316zm.419 7.756h27.594m3.338-7.777l-2.437-2.838h-29.768l-2.439 2.838m-1.833 15.347h35.474m-5.645-2.786v-2.322m-3.603 2.322v-2.322"/><path d="M181.125 81.758v-4.74h3.049v5.012m-6.652-2.69v-2.322m-3.603 2.322v-2.322m-3.603 2.322v-2.322m21.618-4.314v-2.322m-3.603 2.322v-2.322m-3.603 0v2.322m-3.603 0v-2.322m-3.603 2.322v-2.322m-3.603 2.322v-2.322m-3.603 2.322v-2.322m-146.245 8.22a3.363 3.363 0 006.687 0 3.362 3.362 0 006.686 0 3.071 3.071 0 003.345 3m-16.883-3a3.363 3.363 0 01-6.687 0 3.363 3.363 0 01-6.687 0 3.362 3.362 0 01-6.686 0 3.071 3.071 0 01-3.345 3m224.937-58.755h0a3.4 3.4 0 00-2.957-2.482 5.078 5.078 0 00-9.466 2.482h-.8a3.835 3.835 0 00-3.856 3.246 3.73 3.73 0 003.69 4.2h13.417a3.721 3.721 0 10-.028-7.441z"/></g></svg>