<svg xmlns="http://www.w3.org/2000/svg" width="543.712" height="80.818"><defs><style>.a{fill:none;stroke:#0073ff;stroke-linecap:round;stroke-linejoin:round}</style></defs><path class="a" d="M468.457 11.125a7.209 7.209 0 1 0 9.419-3.9 7.207 7.207 0 0 0-9.419 3.9zM475.117.5v3.161m0 20.445v3.163m10.222-13.383h3.161m-23.6 0h-3.161m20.611-7.228l2.235-2.235m-16.696 16.688l-2.235 2.235m16.691-2.235l2.235 2.235M467.889 6.655l-2.235-2.235m-52.725 19.456a3.752 3.752 0 0 1 3.741-3.74h1.65a3.583 3.583 0 0 1 .8-1.812 3.345 3.345 0 0 0-1.961-.637h-.026a3.086 3.086 0 0 0-2.68-2.25 4.6 4.6 0 0 0-8.583 2.25h-.875a3.373 3.373 0 0 0 0 6.746h7.977a3.648 3.648 0 0 1-.043-.557z"/><path class="a" d="M439.5 23.876a3.751 3.751 0 0 1-3.74 3.74h-19.09a3.74 3.74 0 1 1 0-7.48h1.65a3.563 3.563 0 0 1 4.1-3.058 5.1 5.1 0 0 1 9.4.633 2.917 2.917 0 0 1 2.783 2.425h1.157a3.751 3.751 0 0 1 3.74 3.74zM380.226 69.65h-16.332m28.2-23.191v-5.453m-5.708 28.321v2.206m-.024-8.79l-3.2 3.773h6.4zm-13.651.33v-1.721m4.343 1.721v-1.721m4.2 1.721v-1.721m-8.539-2.406v-1.72m4.343 1.72v-1.72m4.2 1.72v-1.72m8.842 4.847v-1.721m4.2 1.721v-1.721m0 6.655v-1.721m-4.2-8.339v-1.722m4.2 1.722v-1.722m-4.2-3.4V50.1m4.2 1.722V50.1m-4.731 24.44v-8.024h-6.4v8.024m3.2-20.206h-17.552v15.038m3.9-2.365v-1.721m4.343 1.721v-1.721m20.771 4.359V46.459h-11.463v16.615m-144.184 1.099h-51.065a24.135 24.135 0 0 0-16.575 6.55 22.872 22.872 0 0 1-16.049 6.551h-8.289"/><path class="a" d="M235.341 53.486h-25.649v10.687h25.649zm-23.245 7.9h2.404m16.033 0h2.4M212.1 58.83h2.4m16.033 0h2.4M212.1 56.276h2.4m2.205 0h2.4m2.206 0h2.4m2.206 0h2.4m2.206 0h2.4m-5.78 4.266h-8.55v3.631h8.55zm-10.077-1.712h10.9m-6.809 3.156v2.187m3.2-2.187v2.187m6.177-14.61h-15.09v3.923h15.09zm-5.483-3.29h-3.832l-1.115 3.29h6.062zM212.1 53.486V41.993m.512 6.747c.264 0 .478-.368.478-.822s-.214-.823-.478-.823h-1.439m1.439-1.971c.264 0 .478-.368.478-.822s-.214-.823-.478-.823h-1.439m99.761 23.666v-2.31m-.152-11.282V37.725h-2.21v5.949m0 9.879v-6.816h-1.783v6.756m4.145 18.376v4.1h1.71v-6.514m-4.685 9.722v-7.308m2.975 7.308v-7.308m-2.975-5.1V56.734m2.975 4.552v-4.552m-6.477 15.135h13v-4.724h-11.84m-.8-13.592h-2.49v3.181h13.649v-3.181h-11.159zm3.142 11.424h-7.4v4.478h12.086m-4.156-25.73h-4.031v4.7h2.086m1.416 16.411h6.282v-3.55h-6.162m-4.761 17.871h15.826m-34.081-1.483a1.213 1.213 0 1 1-1.213 1.213 1.213 1.213 0 0 1 1.213-1.213zm9.92 0a1.213 1.213 0 1 1-1.213 1.213 1.212 1.212 0 0 1 1.213-1.213zm4.489-2.205h-4.228m3.261 0v2.569m-2.656-2.569l-1.693-2.528h-5.239l-1.482 2.528m8.719 2.964h2.351m-12.164-.006h7.203"/><path class="a" d="M283.684 78.427h-1.976a.3.3 0 0 1-.3-.3v-1.6a.5.5 0 0 1 .443-.5l5.586-.561m-.001.003c.091-.046 7.809 0 7.809 0M237.7 77.455h-2.338l2.518-3.463h-2.054l3.134-4.313 3.134 4.313h-2.054l2.518 3.463H237.7zm1.258 2.74v-2.74m-33.885 0h-2.339l2.518-3.463H203.2l3.134-4.313 3.134 4.313h-2.054l2.518 3.463h-4.857zm1.26 0v2.74m265.18-8.982h-8.2v7.943h22.259v-7.943h-8.2m1.297-4.932l-4.227-8.937-4.227 8.937m4.227-14.181v5.243m5.484 11.767l-5.484-2.516-5.484 2.516"/><path class="a" d="M486.718 69.11l-3.4-1.558-3.4 1.558m-10.96 0l-3.4-1.558-3.4 1.558m17.999 3.382l-5.716-2.622-5.716 2.622m5.541 1.408h.349a3.351 3.351 0 0 1 3.353 3.351v1.905h-7.053v-1.905a3.351 3.351 0 0 1 3.351-3.351zm8.215.964v2.193m-15.282-2.193v2.193m-119.991-7.513h5.542v3.327h-5.542zm-17.114 0h5.542v3.327h-5.542zm-6.932 0h3.733v3.327h-3.733zm37.654 3.327h-4.552v-3.327h3.7zm1.133 3.552h-1.133"/><path class="a" d="M329.524 78.088h-7.789V75.96h1.441v-7.446a1.037 1.037 0 0 1 1.037-1.037H358.2a1.589 1.589 0 0 1 1.538 1.192l1.342 5.219a2.412 2.412 0 0 1 .074.592v3.032a.575.575 0 0 1-.575.576h-5.551m-4.024 0h-17.257"/><path class="a" d="M353.015 76.075a2.013 2.013 0 1 0 2.011 2.012 2.011 2.011 0 0 0-2.011-2.012zm-21.48 0a2.013 2.013 0 1 0 2.012 2.012 2.011 2.011 0 0 0-2.012-2.012zm12.086 2.012h-4.343v-8.543h4.343zm-2.171 0v-7.178m152.542 4.962h3.085M495.5 68.5l-5.167 5.042h10.676zm4.481 10.657v-5.614h-8.958v5.613m17.171-3.285h3.085M509.7 68.5l-5.167 5.042h10.676zm4.482 10.657v-5.614h-8.958v5.613m-66.188.001h104.176M251.63 66.1h23.932v12.954H251.63zm.354 6.556h23.322m2.822-6.574l-2.06-2.4h-25.16l-2.061 2.4m-1.549 12.972h29.982M239.064 32.79a5.322 5.322 0 0 1 4.989 1.558 5.473 5.473 0 0 1 4.99-1.558m-18.09 5.3a3.142 3.142 0 0 1 2.944.919 3.231 3.231 0 0 1 2.944-.919M393.85 70.077h18.846v9.243H393.85zm3.025 2.324v1.335m4.224-1.335v1.335m4.073-1.335v1.335m4.149-1.335v1.335m-12.446 1.925v1.335m4.224-1.335v1.335m4.073-1.335v1.335m4.149-1.335v1.335M218.608 64.173l-3.165 12.591m11.302-12.591l3.165 12.591m-11.916-9.347h9.365m-10.334 3.052h11.302m-11.723 3.356h12.145m164.518.875h-20.718v4.559m2.681-2.485v1.017m3.11-1.017v1.017m3.111-1.017v1.017m3.11-1.017v1.017m3.11-1.017v1.017m2.801-1.017v1.017m60.058 1.034v-1.034m-1.576 0v1.034m-1.576-2.068v2.068m-1.575-1.034v1.034m-1.758 0v-1.034m9.176-7.029a3.157 3.157 0 1 0 3.156 3.158 3.158 3.158 0 0 0-3.156-3.158z"/><path class="a" d="M453.221 73.938h.576a1.067 1.067 0 0 0 1.067-1.067m-1.643 2.781h-.479a1.046 1.046 0 0 1-1.046-1.047m1.525 4.551v-6.98m0 1.492h-.264a.9.9 0 0 1-.9-.9m-254.948-8.594v-2.79m2.167 2.789V62.42m2.166 1.754v-2.79m2.166 2.789V62.42m-8.665 1.753V62.42m212.968 7.657v-16.12h28.02V79.32H412.7m4.165-8.708h18.69M405.4 53.938l2.176-2.569H436.5l2.177 2.57M241.67 59.788h3.892a11.65 11.65 0 0 0 8.238-3.413 11.652 11.652 0 0 1 8.239-3.412h18.531a13.214 13.214 0 0 1 8.862 3.412 13.215 13.215 0 0 0 8.862 3.413h2.942m17.364 0h16.2a9.8 9.8 0 0 1 5.488 1.68 9.807 9.807 0 0 0 5.489 1.68h17.442M272.24 52.617V51.54m-1.642 0v1.077m-1.642-2.154v2.155m-1.642-1.078v1.077m-1.832 0V51.54m9.563-7.325a3.289 3.289 0 1 0 3.289 3.285 3.291 3.291 0 0 0-3.289-3.285z"/><path class="a" d="M275.045 47.525h.6a1.112 1.112 0 0 0 1.111-1.113m-1.711 6.551v-7.274m-.276 3.054a.937.937 0 0 1-.938-.938m-86.022 23.082a3.547 3.547 0 1 0 3.547 3.547 3.547 3.547 0 0 0-3.547-3.547z"/><path class="a" d="M187.809 74.455h.648a1.2 1.2 0 0 0 1.2-1.2m-1.848 3.125h-.537a1.175 1.175 0 0 1-1.176-1.175m1.713 5.114v-7.843m0 1.676h-.3a1.012 1.012 0 0 1-1.009-1.012m224.47-15.151v2.102m3.162-2.102v2.102m3.162-2.102v2.102m3.162-2.102v2.102m3.163-2.102v2.102m3.162-2.102v2.102m3.162-2.102v2.102m3.162-2.102v2.102m-22.135 3.488v2.102m3.162-2.102v2.102m3.162-2.102v2.102m3.162-2.102v2.102m3.163-2.102v2.102m3.162-2.102v2.102m3.162-2.102v2.102m3.162-2.102v2.102m-15.811 7.387v2.102m3.162-2.102v2.102m3.163-2.102v2.102m3.162-2.102v2.102m3.162-2.102v2.102m3.162-2.102v2.102m-82.953-14.461l2.012-5.343 2.012 5.343zm2.011 0v1.883m-31.301-14.544h13.173v11.739h-13.173zM357.7 61.197v1.876m2.298-.876v.876M323.9 50.761v1.676m3.611-1.676v1.676m3.612-1.676v1.676m-7.223 2.621v1.676m3.611-1.676v1.676m3.612-1.676v1.676M524.58 76.969s-8.332-1.092 0-12.023c0 0 8.379 10.36 0 12.023zm1.854-4.747a1.459 1.459 0 0 1-1.46 1.458h-.394m-1.68-.28a1.326 1.326 0 0 0 1.327 1.325h.353m-1.441-4.513a1.44 1.44 0 0 0 1.441 1.439m0 7.508V68.13m8.536 8.22v2.475m4.851-2.475v2.475m-2.425-1.475v1.475m4.851-1.475v1.475m-267.824-2.212v-1.962m-3.045 1.962v-1.962m-6.091 4.006v-4.006h2.577v4.236m-5.622-2.274v-1.962m-3.045 1.962v-1.962m-3.045 1.962v-1.962m18.271-4.262v-1.962m-3.045 1.962v-1.962m-3.045 0v1.962m-3.046 0v-1.962m-3.045 1.962v-1.962m-3.045 1.962v-1.962m-3.045 1.962v-1.962m-239.668 8.8a2.842 2.842 0 0 1-5.652 0 2.842 2.842 0 0 1-5.651 0A2.6 2.6 0 0 1 .5 79.766m36.738-2.539a2.842 2.842 0 0 0 5.651 0 2.842 2.842 0 0 0 5.652 0 2.6 2.6 0 0 0 2.826 2.539m-14.129-2.539a2.842 2.842 0 0 1-5.652 0 2.843 2.843 0 0 1-5.653 0 2.842 2.842 0 0 1-5.651 0 2.842 2.842 0 0 1-5.652 0m53.67 0a2.842 2.842 0 0 1-5.652 0 2.842 2.842 0 0 1-5.651 0m33.909 0a2.842 2.842 0 0 0 5.652 0 2.842 2.842 0 0 0 5.651 0 2.6 2.6 0 0 0 2.827 2.539"/><path class="a" d="M90.906 77.227a2.842 2.842 0 0 1-5.652 0 2.842 2.842 0 0 1-5.652 0 2.842 2.842 0 0 1-5.652 0 2.842 2.842 0 0 1-5.652 0m64.972 0a2.842 2.842 0 0 0 5.652 0 2.842 2.842 0 0 0 5.651 0 2.6 2.6 0 0 0 2.827 2.539m-14.13-2.539a2.842 2.842 0 0 1-5.652 0 2.842 2.842 0 0 1-5.652 0 2.842 2.842 0 0 1-5.651 0 2.842 2.842 0 0 1-5.652 0m248.728-49.99a3.1 3.1 0 0 0-2.7-2.263 4.629 4.629 0 0 0-8.63 2.263h-.729a3.5 3.5 0 0 0-3.515 2.959 3.4 3.4 0 0 0 3.364 3.825h12.232a3.392 3.392 0 1 0-.026-6.784z"/></svg>