<svg xmlns="http://www.w3.org/2000/svg" width="103.245" height="77.278" viewBox="0 0 103.245 77.278">
  <g id="history_ilst" transform="translate(-2236 -1003.722)">
    <path id="history_ilst-2" data-name="history_ilst" d="M22.218,92.468l14.146.038c.506.06,5.02.6,7.83,1.247l-2.418,10.4c-1.748-.4-4.933-.833-6.354-1.007h-13.2Zm57.283.038c-.506.06-5.015.6-7.83,1.247l2.412,10.4c1.753-.4,4.939-.833,6.36-1.007h13.21V92.468H80.121Zm29.583-24.721v69.7l-5.206.125c-.1.005-10.667.256-22.5,0-8.892-.169-16.128,1.481-20.784,4.857l-3.131,2.271-3.131-2.271c-4.715-3.42-11.636-5.129-20.784-4.857-11.816.256-22.4,0-22.5,0l-5.206-.125v-69.7L11,67.61c.414-.005,10.248-.327,22.57,0a45.849,45.849,0,0,1,23.888,7.024A45.868,45.868,0,0,1,81.352,67.61c12.344-.327,22.156-.011,22.57,0ZM52.123,83.9a35.342,35.342,0,0,0-18.84-5.619c-6.7-.174-12.725-.152-16.766-.1v48.843c4.122.044,10.259.06,16.793-.087.561-.005,1.116-.011,1.666-.011a52.386,52.386,0,0,1,17.147,2.559ZM98.406,78.18c-4.029-.049-10.068-.071-16.766.1A35.284,35.284,0,0,0,62.8,83.9v45.581a53.1,53.1,0,0,1,18.807-2.543c6.534.142,12.671.125,16.8.082Z" transform="translate(2230.161 936.259)" fill="#0073ff" opacity="0.1"/>
  </g>
</svg>
