<svg xmlns="http://www.w3.org/2000/svg" width="180.735" height="147.902" viewBox="0 0 180.735 147.902"><defs><style>.a{opacity:0.1;}.b{fill:#22c8d2;}</style></defs><g class="a" transform="translate(0 0)"><path class="b" d="M2241.1,869.094c-11.941-1.717-24.113-3.241-36.15-2.932-15.3.386-27.45,9.144-39.814,20.409,0-4.051-.078-6.173.021-8.295.133-2.469.422-4.938.616-7.2,3.4-1.022,6.174-1.813,8.912-2.7,29.3-9.529,44.31-34.993,38.87-65.471-1.117-6.269-3.742-9.954-10.626-9.819-24.79.482-48.226,19.618-53.456,43.866-.849,3.935-1.5,7.928-2.392,12.674-1.871-1.948-3.183-3.26-4.417-4.63-17.554-19.406-39.738-24.634-64.775-21.239-6.059.83-9.144,4.051-9.1,10.262.229,32.118,23.841,60.765,55.3,66.455,7.468,1.331,15.2,1.1,22.994,1.6v38.909h18.193c.114-2.3.191-4.34.307-6.539,3.125.424,5.613.791,8.1,1.061,36.69,4.051,66.841-17.245,75.27-52.778C2250.742,875.17,2248.312,870.116,2241.1,869.094Zm-44.7-56.347c1.14,21.1-8.8,33.97-29.977,39.545C2162.914,833.966,2174.99,817.723,2196.4,812.747Zm-108.064,28.839c23.245-6.443,47.476,12.539,52.836,41.86C2113.128,886.088,2092.931,869.846,2088.338,841.586Zm80.845,74.326c7.793-25.579,30.693-37.751,60.09-31.463C2221.421,911.166,2193.373,925.614,2169.183,915.911Z" transform="translate(-2068.779 -793.086)"/></g></svg>