<svg xmlns="http://www.w3.org/2000/svg" xmlns:xlink="http://www.w3.org/1999/xlink" width="138" height="38.199" viewBox="0 0 138 38.199"><defs><style>.a{fill:url(#a);}.b{fill:url(#b);}.c{fill:url(#c);}.d{fill:#242434;}.e{fill:url(#d);}.f{fill:url(#e);}.g{fill:url(#f);}</style><linearGradient id="a" x1="1" y1="0.5" x2="0" y2="0.5" gradientUnits="objectBoundingBox"><stop offset="0" stop-color="#ff0038"/><stop offset="1" stop-color="#ff4006"/></linearGradient><linearGradient id="b" x1="1" y1="0.5" x2="0" y2="0.5" xlink:href="#a"/><linearGradient id="c" x1="1" y1="0.5" x2="0" y2="0.5" xlink:href="#a"/><linearGradient id="d" x1="0" y1="0.5" x2="3.508" y2="0.5" xlink:href="#a"/><linearGradient id="e" x1="-1.05" y1="0.5" x2="2.132" y2="0.5" xlink:href="#a"/><linearGradient id="f" x1="-2.062" y1="0.5" x2="1" y2="0.5" xlink:href="#a"/></defs><g transform="translate(-310 -5.801)"><g transform="translate(2969.148 -1199.305)"><path class="a" d="M-2571.794,1209.62a2.642,2.642,0,0,0-2.64,2.639v5.034a2.854,2.854,0,0,0,2.85,2.851h4.448l10.165,3.441v-17.408l-10.165,3.443Zm.195,2.834h3.278v4.855h-3.263Zm11.794,7.18-5.681-1.924v-5.657l5.681-1.924Z"/><path class="b" d="M-2552.645,1208.817l-2.229,1.749a7.05,7.05,0,0,1,1.424,4.349,7.072,7.072,0,0,1-1.384,4.295l2.25,1.723a9.914,9.914,0,0,0,1.968-6.018A9.889,9.889,0,0,0-2552.645,1208.817Z"/><path class="c" d="M-2548.976,1205.106l-2.232,1.745a13.146,13.146,0,0,1,2.658,8.088,13.189,13.189,0,0,1-2.581,7.985l2.253,1.72a16.047,16.047,0,0,0,3.163-9.705A15.987,15.987,0,0,0-2548.976,1205.106Z"/></g><g transform="translate(2969.148 -1199.305)"><path class="d" d="M-2597.881,1238.587h-4.079l-1.253-3.267h-7.052l-1.229,3.267h-4.005l6.758-16.486h4.054Zm-6.536-6.511-2.186-6.265h-.246l-2.211,6.265Z"/><path class="d" d="M-2588.649,1231.29l3.269-5.233h3.833v12.53h-3.342v-7.739h-.221l-2.777,4.348h-1.622l-2.726-4.348h-.2v7.739h-3.342v-12.53h3.932Z"/><path class="d" d="M-2571.823,1234.9h.222l2.776-8.845h3.881l-5.6,13.833a6.466,6.466,0,0,1-1.671,2.506,3.8,3.8,0,0,1-2.6.909,4.683,4.683,0,0,1-2.825-.787l.983-2.628a3.708,3.708,0,0,0,.761.245,3.575,3.575,0,0,0,.713.074,1.462,1.462,0,0,0,1.548-.958l.2-.492-6.093-12.7h4.127Z"/><path class="d" d="M-2559.838,1227.7a4.5,4.5,0,0,1,1.782-1.487,5.927,5.927,0,0,1,2.42-.455,6.176,6.176,0,0,1,2.408.455,5.227,5.227,0,0,1,1.855,1.3,5.988,5.988,0,0,1,1.2,2.039,7.731,7.731,0,0,1,.43,2.642,7.219,7.219,0,0,1-.54,2.874,6.11,6.11,0,0,1-1.462,2.1,6.226,6.226,0,0,1-2.113,1.277,7.286,7.286,0,0,1-2.494.43,7.328,7.328,0,0,1-1.622-.172,5.179,5.179,0,0,1-1.475-.589v5.037h-3.488v-17.1h2.825Zm1.733,7.814a5.163,5.163,0,0,0,1.511.22,3.134,3.134,0,0,0,2.383-.958,3.7,3.7,0,0,0,.909-2.653,3.523,3.523,0,0,0-.762-2.383,2.666,2.666,0,0,0-2.137-.885,3.447,3.447,0,0,0-2.015.564,3.569,3.569,0,0,0-1.229,1.5v4.005A6.065,6.065,0,0,0-2558.1,1235.517Z"/><path class="d" d="M-2541.169,1228.931a3.644,3.644,0,0,0-1.3.233,3.2,3.2,0,0,0-1.07.665,3.184,3.184,0,0,0-.724,1.043,3.383,3.383,0,0,0-.271,1.376,3.521,3.521,0,0,0,.9,2.507,3.189,3.189,0,0,0,2.445.957,4.736,4.736,0,0,0,1.868-.355,4.567,4.567,0,0,0,1.448-.971l2.04,2.334a6.8,6.8,0,0,1-2.481,1.659,8.627,8.627,0,0,1-3.023.5,7.478,7.478,0,0,1-2.887-.516,6.076,6.076,0,0,1-2.088-1.4,5.813,5.813,0,0,1-1.278-2.076,7.431,7.431,0,0,1-.43-2.543,6.6,6.6,0,0,1,.516-2.629,6.311,6.311,0,0,1,1.438-2.089,6.589,6.589,0,0,1,2.15-1.375,7.135,7.135,0,0,1,2.678-.493,8.248,8.248,0,0,1,2.948.48,7,7,0,0,1,2.285,1.437l-1.965,2.384A4.476,4.476,0,0,0-2541.169,1228.931Z"/><path class="d" d="M-2530.582,1230.528l1.3-.221,3.268-4.25h4.4l-4.766,5.7,5.233,6.83h-4.275l-3.759-5.11h-1.4v5.11h-3.514v-12.53h3.514Z"/></g><g transform="translate(2969.148 -1199.305)"><path class="e" d="M-2647.181,1238.587h-3.539v-9.459h-4.889v9.459h-3.539v-12.53h11.967Z"/><path class="f" d="M-2642.2,1227.7a4.509,4.509,0,0,1,1.781-1.487,5.924,5.924,0,0,1,2.42-.455,6.169,6.169,0,0,1,2.408.455,5.219,5.219,0,0,1,1.855,1.3,6,6,0,0,1,1.2,2.039,7.725,7.725,0,0,1,.43,2.642,7.185,7.185,0,0,1-.541,2.874,6.069,6.069,0,0,1-1.461,2.1,6.209,6.209,0,0,1-2.114,1.277,7.277,7.277,0,0,1-2.493.43,7.336,7.336,0,0,1-1.622-.172,5.172,5.172,0,0,1-1.474-.589v5.037h-3.489v-17.1h2.826Zm1.732,7.814a5.164,5.164,0,0,0,1.511.22,3.135,3.135,0,0,0,2.384-.958,3.7,3.7,0,0,0,.909-2.653,3.523,3.523,0,0,0-.762-2.383,2.669,2.669,0,0,0-2.138-.885,3.441,3.441,0,0,0-2.014.564,3.56,3.56,0,0,0-1.229,1.5v4.005A6.036,6.036,0,0,0-2640.466,1235.517Z"/><path class="g" d="M-2621.257,1226.229a6.181,6.181,0,0,1,2.175,1.339,6.089,6.089,0,0,1,1.413,2.076,6.868,6.868,0,0,1,.5,2.678,6.668,6.668,0,0,1-.516,2.654,6.16,6.16,0,0,1-1.437,2.076,6.52,6.52,0,0,1-2.174,1.352,7.584,7.584,0,0,1-2.727.478,7.876,7.876,0,0,1-2.776-.467,6.3,6.3,0,0,1-2.163-1.326,5.949,5.949,0,0,1-1.412-2.076,6.966,6.966,0,0,1-.5-2.691,6.84,6.84,0,0,1,.5-2.642,5.945,5.945,0,0,1,1.412-2.075,6.608,6.608,0,0,1,2.163-1.351,7.531,7.531,0,0,1,2.776-.493A7.924,7.924,0,0,1-2621.257,1226.229Zm-5.233,3.587a3.519,3.519,0,0,0-.9,2.506,3.515,3.515,0,0,0,.91,2.543,3.247,3.247,0,0,0,2.457.946,3.2,3.2,0,0,0,2.457-.946,3.576,3.576,0,0,0,.884-2.543,3.508,3.508,0,0,0-.9-2.518,3.205,3.205,0,0,0-2.444-.946A3.217,3.217,0,0,0-2626.49,1229.816Z"/></g></g></svg>