<svg xmlns="http://www.w3.org/2000/svg" xmlns:xlink="http://www.w3.org/1999/xlink" width="138" height="35.721" viewBox="0 0 138 35.721">
  <defs>
    <linearGradient id="linear-gradient" x1="-0.097" y1="0.798" x2="1.103" y2="0.101" gradientUnits="objectBoundingBox">
      <stop offset="0" stop-color="#4840ff"/>
      <stop offset="1" stop-color="#0094ff"/>
    </linearGradient>
    <linearGradient id="linear-gradient-2" x1="0" y1="0.671" x2="3.509" y2="0.671" xlink:href="#linear-gradient"/>
    <linearGradient id="linear-gradient-3" x1="-1.05" y1="0.5" x2="2.132" y2="0.5" xlink:href="#linear-gradient"/>
    <linearGradient id="linear-gradient-4" x1="-2.062" y1="0.663" x2="1" y2="0.663" xlink:href="#linear-gradient"/>
  </defs>
  <g id="logo_hstr" transform="translate(-453 6)">
    <path id="Path_370" data-name="Path 370" d="M-2538.06,1287.464c-.1,0-2.552-.079-5.627,0a11.8,11.8,0,0,0-5.953,1.675,11.8,11.8,0,0,0-5.953-1.675c-3.074-.079-5.523,0-5.626,0l-1.372.043v15.3l1.384.033c.025,0,2.661.062,5.608,0a8.961,8.961,0,0,1,5.149,1.152l.81.564.811-.564a8.942,8.942,0,0,1,5.149-1.152c2.947.062,5.583,0,5.608,0l1.384-.033v-15.3Zm-17.6,12.54c-1.583.033-3.071.03-4.1.021v-9.755c1-.011,2.466-.015,4.09.026a8.99,8.99,0,0,1,4.609,1.331v8.97a13.609,13.609,0,0,0-4.189-.6C-2555.382,1300-2555.52,1300-2555.658,1300Zm16.135.021c-1.025.009-2.514.012-4.1-.021a14.14,14.14,0,0,0-4.6.59v-8.966a8.979,8.979,0,0,1,4.609-1.332c1.623-.041,3.089-.037,4.091-.026Z" transform="translate(3112.494 -1293.428)" fill="url(#linear-gradient)"/>
    <g id="Group_664" data-name="Group 664" transform="translate(3112.494 -1293.428)">
      <g id="Group_663" data-name="Group 663">
        <path id="Path_371" data-name="Path 371" d="M-2598.228,1318.431h-4.079l-1.252-3.267h-7.052l-1.229,3.267h-4l6.757-16.487h4.054Zm-6.536-6.511-2.187-6.265h-.246l-2.211,6.265Z" fill="#fff"/>
        <path id="Path_372" data-name="Path 372" d="M-2589,1311.134l3.268-5.233h3.833v12.53h-3.342v-7.74h-.22l-2.777,4.349h-1.622l-2.728-4.349h-.2v7.74h-3.342V1305.9h3.931Z" fill="#fff"/>
        <path id="Path_373" data-name="Path 373" d="M-2572.17,1314.746h.222l2.776-8.845h3.882l-5.6,13.833a6.468,6.468,0,0,1-1.67,2.505,3.8,3.8,0,0,1-2.606.91,4.689,4.689,0,0,1-2.824-.786l.982-2.629a3.752,3.752,0,0,0,.762.245,3.643,3.643,0,0,0,.713.074,1.462,1.462,0,0,0,1.548-.959l.2-.491-6.094-12.7h4.128Z" fill="#fff"/>
        <path id="Path_374" data-name="Path 374" d="M-2560.184,1307.546a4.49,4.49,0,0,1,1.781-1.486,5.912,5.912,0,0,1,2.421-.455,6.148,6.148,0,0,1,2.407.455,5.22,5.22,0,0,1,1.856,1.3,6.021,6.021,0,0,1,1.2,2.039,7.733,7.733,0,0,1,.43,2.642,7.211,7.211,0,0,1-.54,2.875,6.083,6.083,0,0,1-1.462,2.1,6.217,6.217,0,0,1-2.113,1.277,7.311,7.311,0,0,1-2.494.43,7.391,7.391,0,0,1-1.622-.172,5.205,5.205,0,0,1-1.474-.589V1323h-3.488v-17.1h2.825Zm1.733,7.814a5.115,5.115,0,0,0,1.51.221,3.139,3.139,0,0,0,2.384-.958,3.7,3.7,0,0,0,.909-2.654,3.526,3.526,0,0,0-.762-2.383,2.668,2.668,0,0,0-2.138-.884,3.436,3.436,0,0,0-2.014.564,3.565,3.565,0,0,0-1.229,1.5v4.005A6,6,0,0,0-2558.451,1315.36Z" fill="#fff"/>
        <path id="Path_375" data-name="Path 375" d="M-2541.515,1308.775a3.646,3.646,0,0,0-1.3.233,3.2,3.2,0,0,0-1.069.664,3.206,3.206,0,0,0-.725,1.044,3.387,3.387,0,0,0-.27,1.376,3.522,3.522,0,0,0,.9,2.506,3.188,3.188,0,0,0,2.446.958,4.721,4.721,0,0,0,1.867-.356,4.556,4.556,0,0,0,1.45-.97l2.039,2.334a6.781,6.781,0,0,1-2.482,1.659,8.618,8.618,0,0,1-3.022.5,7.477,7.477,0,0,1-2.887-.516,6.072,6.072,0,0,1-2.088-1.4,5.823,5.823,0,0,1-1.278-2.075,7.431,7.431,0,0,1-.43-2.543,6.6,6.6,0,0,1,.516-2.629,6.3,6.3,0,0,1,1.437-2.089,6.614,6.614,0,0,1,2.15-1.376,7.14,7.14,0,0,1,2.678-.492,8.256,8.256,0,0,1,2.949.479,7.043,7.043,0,0,1,2.285,1.438l-1.966,2.383A4.475,4.475,0,0,0-2541.515,1308.775Z" fill="#fff"/>
        <path id="Path_376" data-name="Path 376" d="M-2530.929,1310.372l1.3-.221,3.267-4.25h4.4l-4.767,5.7,5.234,6.83h-4.275l-3.76-5.111h-1.4v5.111h-3.514V1305.9h3.514Z" fill="#fff"/>
      </g>
    </g>
    <g id="Group_666" data-name="Group 666" transform="translate(3112.494 -1293.428)">
      <g id="Group_665" data-name="Group 665">
        <path id="Path_377" data-name="Path 377" d="M-2647.529,1318.431h-3.538v-9.46h-4.89v9.46h-3.537V1305.9h11.965Z" fill="url(#linear-gradient-2)"/>
        <path id="Path_378" data-name="Path 378" d="M-2642.546,1307.546a4.489,4.489,0,0,1,1.782-1.486,5.909,5.909,0,0,1,2.42-.455,6.161,6.161,0,0,1,2.409.455,5.231,5.231,0,0,1,1.855,1.3,6.024,6.024,0,0,1,1.2,2.039,7.762,7.762,0,0,1,.43,2.642,7.207,7.207,0,0,1-.541,2.875,6.106,6.106,0,0,1-1.462,2.1,6.217,6.217,0,0,1-2.113,1.277,7.311,7.311,0,0,1-2.495.43,7.386,7.386,0,0,1-1.621-.172,5.194,5.194,0,0,1-1.474-.589V1323h-3.489v-17.1h2.826Zm1.733,7.814a5.127,5.127,0,0,0,1.511.221,3.136,3.136,0,0,0,2.383-.958,3.7,3.7,0,0,0,.909-2.654,3.525,3.525,0,0,0-.762-2.383,2.663,2.663,0,0,0-2.136-.884,3.441,3.441,0,0,0-2.016.564,3.57,3.57,0,0,0-1.228,1.5v4.005A6.017,6.017,0,0,0-2640.813,1315.36Z" fill="url(#linear-gradient-3)"/>
        <path id="Path_379" data-name="Path 379" d="M-2621.6,1306.073a6.185,6.185,0,0,1,2.174,1.339,6.1,6.1,0,0,1,1.413,2.075,6.869,6.869,0,0,1,.5,2.679,6.668,6.668,0,0,1-.516,2.654,6.171,6.171,0,0,1-1.437,2.075,6.506,6.506,0,0,1-2.175,1.352,7.563,7.563,0,0,1-2.728.479,7.88,7.88,0,0,1-2.776-.467,6.313,6.313,0,0,1-2.162-1.326,5.953,5.953,0,0,1-1.413-2.077,6.961,6.961,0,0,1-.5-2.69,6.836,6.836,0,0,1,.5-2.642,5.967,5.967,0,0,1,1.413-2.076,6.623,6.623,0,0,1,2.162-1.351,7.535,7.535,0,0,1,2.776-.492A7.913,7.913,0,0,1-2621.6,1306.073Zm-5.234,3.586a3.527,3.527,0,0,0-.9,2.507,3.518,3.518,0,0,0,.909,2.543,3.248,3.248,0,0,0,2.457.946,3.2,3.2,0,0,0,2.458-.946,3.575,3.575,0,0,0,.884-2.543,3.505,3.505,0,0,0-.9-2.518,3.209,3.209,0,0,0-2.446-.946A3.22,3.22,0,0,0-2626.837,1309.659Z" fill="url(#linear-gradient-4)"/>
      </g>
    </g>
  </g>
</svg>
