<svg xmlns="http://www.w3.org/2000/svg" width="156" height="31.642"><defs><style>.a{fill:#0073ff}</style></defs><path class="a" d="M124.568 8.085l-1.432-1.761a8.519 8.519 0 0 0-7.949-2.356L114.554.21a12.641 12.641 0 0 1 10.09 2.353 12.727 12.727 0 0 1 10.057-2.35l-.651 3.752a8.785 8.785 0 0 0-7.984 2.412z"/><path d="M69.257 26.309h-4.61l-1.417-3.693h-7.972l-1.388 3.693h-4.528l7.639-18.637h4.583zm-7.387-7.36l-2.474-7.083h-.277l-2.5 7.083zm17.823-.889l3.7-5.916h4.333v14.165h-3.777V17.56h-.252l-3.138 4.916h-1.832l-3.084-4.916h-.222v8.749h-3.777V12.144h4.444zm19.021 4.083h.25l3.138-10h4.39l-6.333 15.638a7.338 7.338 0 0 1-1.889 2.833 4.292 4.292 0 0 1-2.945 1.027 5.3 5.3 0 0 1-3.193-.889l1.111-2.971a4.265 4.265 0 0 0 .86.278 4.157 4.157 0 0 0 .807.082 1.65 1.65 0 0 0 1.748-1.082l.222-.556-6.888-14.36h4.666zm13.548-8.138a5.07 5.07 0 0 1 2.013-1.68 6.684 6.684 0 0 1 2.737-.515 6.958 6.958 0 0 1 2.723.515 5.871 5.871 0 0 1 2.095 1.472 6.75 6.75 0 0 1 1.363 2.306 8.739 8.739 0 0 1 .485 2.985 8.165 8.165 0 0 1-.61 3.25 6.909 6.909 0 0 1-1.653 2.375 7.039 7.039 0 0 1-2.389 1.444 8.262 8.262 0 0 1-2.819.485 8.35 8.35 0 0 1-1.834-.193 5.892 5.892 0 0 1-1.667-.667v5.693h-3.943V12.144h3.2zm1.959 8.833a5.84 5.84 0 0 0 1.707.249 3.547 3.547 0 0 0 2.7-1.083 4.183 4.183 0 0 0 1.027-3 3.994 3.994 0 0 0-.861-2.695 3.016 3.016 0 0 0-2.417-1 3.884 3.884 0 0 0-2.277.639 4.031 4.031 0 0 0-1.39 1.694v4.528a6.789 6.789 0 0 0 1.511.668zm19.146-7.444a4.082 4.082 0 0 0-1.472.264 3.569 3.569 0 0 0-1.208.749 3.612 3.612 0 0 0-.821 1.181 3.814 3.814 0 0 0-.3 1.555 3.977 3.977 0 0 0 1.014 2.833 3.6 3.6 0 0 0 2.764 1.084 5.337 5.337 0 0 0 2.11-.4 5.138 5.138 0 0 0 1.638-1.1l2.305 2.638a7.655 7.655 0 0 1-2.8 1.875 9.719 9.719 0 0 1-3.417.569 8.446 8.446 0 0 1-3.263-.582 6.889 6.889 0 0 1-2.363-1.584 6.6 6.6 0 0 1-1.444-2.347 8.4 8.4 0 0 1-.485-2.875 7.479 7.479 0 0 1 .583-2.971 7.148 7.148 0 0 1 1.625-2.362 7.492 7.492 0 0 1 2.431-1.555 8.078 8.078 0 0 1 3.027-.556 9.331 9.331 0 0 1 3.333.542 7.942 7.942 0 0 1 2.582 1.625l-2.222 2.695a5.052 5.052 0 0 0-3.617-1.278zm11.967 1.805l1.472-.25 3.693-4.8h4.972l-5.389 6.444L156 26.314h-4.834l-4.249-5.777h-1.583v5.777h-3.972V12.149h3.972z" fill="#242434"/><path class="a" d="M13.527 26.309h-4V15.616H3.999v10.693h-4V12.144h13.527zm5.634-12.304a5.067 5.067 0 0 1 2.014-1.68 6.668 6.668 0 0 1 2.736-.515 6.941 6.941 0 0 1 2.721.515 5.893 5.893 0 0 1 2.1 1.472 6.794 6.794 0 0 1 1.36 2.306 8.732 8.732 0 0 1 .488 2.985 8.127 8.127 0 0 1-.613 3.25 6.909 6.909 0 0 1-1.653 2.375 6.992 6.992 0 0 1-2.387 1.444 8.276 8.276 0 0 1-2.821.485 8.334 8.334 0 0 1-1.832-.193 5.889 5.889 0 0 1-1.666-.667v5.693h-3.946V12.144h3.2zm1.957 8.833a5.846 5.846 0 0 0 1.71.249 3.536 3.536 0 0 0 2.693-1.083 4.182 4.182 0 0 0 1.027-3 3.988 3.988 0 0 0-.859-2.695 3.021 3.021 0 0 0-2.417-1 3.9 3.9 0 0 0-2.279.639 4.034 4.034 0 0 0-1.387 1.694v4.528a6.746 6.746 0 0 0 1.512.668zm21.715-10.499a7.017 7.017 0 0 1 2.46 1.513 6.93 6.93 0 0 1 1.6 2.347 7.785 7.785 0 0 1 .569 3.028 7.559 7.559 0 0 1-.583 3 7 7 0 0 1-1.625 2.346 7.348 7.348 0 0 1-2.458 1.529 8.587 8.587 0 0 1-3.084.54 8.931 8.931 0 0 1-3.138-.527 7.147 7.147 0 0 1-2.444-1.5 6.705 6.705 0 0 1-1.6-2.346 7.855 7.855 0 0 1-.569-3.042 7.7 7.7 0 0 1 .569-2.986 6.7 6.7 0 0 1 1.6-2.347 7.519 7.519 0 0 1 2.444-1.528 8.542 8.542 0 0 1 3.138-.556 8.937 8.937 0 0 1 3.121.529zm-5.916 4.055a3.976 3.976 0 0 0-1.013 2.833 3.976 3.976 0 0 0 1.027 2.875 3.675 3.675 0 0 0 2.777 1.069 3.62 3.62 0 0 0 2.778-1.069 4.044 4.044 0 0 0 1-2.875 3.964 3.964 0 0 0-1.014-2.847 3.624 3.624 0 0 0-2.764-1.07 3.64 3.64 0 0 0-2.791 1.084z"/></svg>