<svg xmlns="http://www.w3.org/2000/svg" xmlns:xlink="http://www.w3.org/1999/xlink" width="138" height="39.271" viewBox="0 0 138 39.271"><defs><style>.a{fill:url(#a);}.b{fill:#fff;}.c{fill:url(#c);}.d{fill:url(#d);}.e{fill:url(#e);}</style><linearGradient id="a" y1="0.5" x2="1" y2="0.5" gradientUnits="objectBoundingBox"><stop offset="0" stop-color="#22c9d1"/><stop offset="1" stop-color="#00d8ff"/></linearGradient><linearGradient id="c" x1="0" y1="0.671" x2="3.509" y2="0.671" xlink:href="#a"/><linearGradient id="d" x1="-1.05" y1="0.5" x2="2.132" y2="0.5" xlink:href="#a"/><linearGradient id="e" x1="-2.062" y1="0.663" x2="1" y2="0.663" xlink:href="#a"/></defs><g transform="translate(2661.286 -1339.192)"><path class="a" d="M-2551.286,1361.077l-.93-.829c-.827-.738-8.081-7.337-8.081-12.044a9.023,9.023,0,0,1,9.013-9.012,9.039,9.039,0,0,1,9.044,9.012c0,4.708-7.284,11.308-8.115,12.046Zm0-19.084a6.218,6.218,0,0,0-6.212,6.211c0,2.335,3.5,6.479,6.214,9.091,2.726-2.614,6.241-6.761,6.241-9.091A6.234,6.234,0,0,0-2551.284,1341.993Z"/><path class="a" d="M-2551.269,1352.293a4.069,4.069,0,0,1-4.063-4.064,4.068,4.068,0,0,1,4.063-4.063,4.068,4.068,0,0,1,4.064,4.063A4.069,4.069,0,0,1-2551.269,1352.293Zm0-5.326a1.263,1.263,0,0,0-1.262,1.262,1.263,1.263,0,0,0,1.262,1.263,1.264,1.264,0,0,0,1.263-1.263A1.263,1.263,0,0,0-2551.269,1346.967Z"/><path class="b" d="M-2600.02,1373.746h-4.079l-1.252-3.268h-7.052l-1.229,3.268h-4l6.757-16.487h4.054Zm-6.536-6.512-2.187-6.265h-.246l-2.211,6.265Z"/><path class="b" d="M-2590.787,1366.449l3.268-5.234h3.833v12.531h-3.342v-7.74h-.22l-2.777,4.349h-1.622l-2.728-4.349h-.2v7.74h-3.342v-12.531h3.931Z"/><path class="b" d="M-2573.962,1370.06h.222l2.776-8.845h3.882l-5.6,13.833a6.463,6.463,0,0,1-1.67,2.506,3.8,3.8,0,0,1-2.606.909,4.688,4.688,0,0,1-2.824-.786l.982-2.629a3.758,3.758,0,0,0,.762.246,3.634,3.634,0,0,0,.713.074,1.463,1.463,0,0,0,1.548-.959l.2-.491-6.094-12.7h4.128Z"/><path class="b" d="M-2561.976,1362.861a4.5,4.5,0,0,1,1.781-1.487,5.931,5.931,0,0,1,2.421-.454,6.168,6.168,0,0,1,2.407.454,5.236,5.236,0,0,1,1.856,1.3,6,6,0,0,1,1.2,2.039,7.729,7.729,0,0,1,.43,2.642,7.207,7.207,0,0,1-.54,2.874,6.075,6.075,0,0,1-1.462,2.1,6.186,6.186,0,0,1-2.113,1.277,7.288,7.288,0,0,1-2.494.43,7.333,7.333,0,0,1-1.622-.172,5.131,5.131,0,0,1-1.473-.589v5.037h-3.489v-17.1h2.825Zm1.733,7.814a5.15,5.15,0,0,0,1.51.22,3.137,3.137,0,0,0,2.384-.957,3.7,3.7,0,0,0,.909-2.654,3.527,3.527,0,0,0-.762-2.383,2.669,2.669,0,0,0-2.138-.885,3.436,3.436,0,0,0-2.014.565,3.544,3.544,0,0,0-1.228,1.5v4.005A5.969,5.969,0,0,0-2560.243,1370.675Z"/><path class="b" d="M-2543.307,1364.089a3.626,3.626,0,0,0-1.3.234,3.185,3.185,0,0,0-1.069.664,3.182,3.182,0,0,0-.725,1.044,3.382,3.382,0,0,0-.27,1.375,3.525,3.525,0,0,0,.9,2.507,3.192,3.192,0,0,0,2.446.958,4.723,4.723,0,0,0,1.867-.356,4.56,4.56,0,0,0,1.45-.971l2.039,2.335a6.777,6.777,0,0,1-2.482,1.658,8.618,8.618,0,0,1-3.022.5,7.477,7.477,0,0,1-2.887-.516,6.069,6.069,0,0,1-2.088-1.4,5.818,5.818,0,0,1-1.278-2.076,7.422,7.422,0,0,1-.43-2.543,6.6,6.6,0,0,1,.516-2.629,6.3,6.3,0,0,1,1.437-2.088,6.616,6.616,0,0,1,2.15-1.376,7.14,7.14,0,0,1,2.678-.492,8.253,8.253,0,0,1,2.949.479,7.036,7.036,0,0,1,2.285,1.437l-1.966,2.384A4.475,4.475,0,0,0-2543.307,1364.089Z"/><path class="b" d="M-2532.721,1365.687l1.3-.222,3.267-4.25h4.4l-4.767,5.7,5.234,6.831h-4.275l-3.76-5.111h-1.4v5.111h-3.514v-12.531h3.514Z"/><path class="c" d="M-2649.321,1373.746h-3.538v-9.46h-4.89v9.46h-3.537v-12.531h11.965Z"/><path class="d" d="M-2644.338,1362.861a4.5,4.5,0,0,1,1.782-1.487,5.927,5.927,0,0,1,2.42-.454,6.181,6.181,0,0,1,2.409.454,5.247,5.247,0,0,1,1.855,1.3,6,6,0,0,1,1.2,2.039,7.759,7.759,0,0,1,.43,2.642,7.2,7.2,0,0,1-.541,2.874,6.1,6.1,0,0,1-1.462,2.1,6.186,6.186,0,0,1-2.113,1.277,7.288,7.288,0,0,1-2.5.43,7.325,7.325,0,0,1-1.621-.172,5.137,5.137,0,0,1-1.474-.589v5.037h-3.489v-17.1h2.826Zm1.733,7.814a5.163,5.163,0,0,0,1.511.22,3.135,3.135,0,0,0,2.383-.957,3.7,3.7,0,0,0,.909-2.654,3.525,3.525,0,0,0-.762-2.383,2.665,2.665,0,0,0-2.136-.885,3.441,3.441,0,0,0-2.016.565,3.558,3.558,0,0,0-1.228,1.5v4.005A6.018,6.018,0,0,0-2642.6,1370.675Z"/><path class="e" d="M-2623.4,1361.387a6.2,6.2,0,0,1,2.174,1.339,6.1,6.1,0,0,1,1.413,2.076,6.867,6.867,0,0,1,.5,2.678,6.665,6.665,0,0,1-.516,2.654,6.164,6.164,0,0,1-1.437,2.076,6.508,6.508,0,0,1-2.175,1.352,7.587,7.587,0,0,1-2.728.478,7.9,7.9,0,0,1-2.776-.466,6.313,6.313,0,0,1-2.162-1.327,5.958,5.958,0,0,1-1.413-2.076,6.967,6.967,0,0,1-.5-2.691,6.836,6.836,0,0,1,.5-2.641,5.95,5.95,0,0,1,1.413-2.076,6.625,6.625,0,0,1,2.162-1.351,7.535,7.535,0,0,1,2.776-.492A7.938,7.938,0,0,1-2623.4,1361.387Zm-5.233,3.587a3.521,3.521,0,0,0-.9,2.506,3.519,3.519,0,0,0,.909,2.544,3.251,3.251,0,0,0,2.457.945,3.2,3.2,0,0,0,2.458-.945,3.576,3.576,0,0,0,.884-2.544,3.508,3.508,0,0,0-.9-2.518,3.213,3.213,0,0,0-2.446-.946A3.218,3.218,0,0,0-2628.628,1364.974Z"/></g></svg>