<svg xmlns="http://www.w3.org/2000/svg" width="156" height="46.663"><path d="M69.258 41.334h-4.611L63.23 37.64h-7.972l-1.389 3.694h-4.527l7.639-18.637h4.583zm-7.389-7.361l-2.471-7.082h-.279l-2.5 7.082zm17.825-.892l3.7-5.916h4.333v14.169h-3.778v-8.75h-.25l-3.139 4.917h-1.833l-3.083-4.917h-.222v8.75h-3.777V27.169h4.444zm19.021 4.083h.25l3.138-10h4.388l-6.332 15.637a7.3 7.3 0 01-1.889 2.833 4.292 4.292 0 01-2.944 1.028 5.293 5.293 0 01-3.194-.89l1.111-2.971a4.236 4.236 0 00.861.278 4.148 4.148 0 00.8.083 1.653 1.653 0 001.75-1.083l.222-.556-6.888-14.359h4.666zm13.548-8.139a5.091 5.091 0 012.014-1.68 6.691 6.691 0 012.735-.514 6.975 6.975 0 012.723.514 5.905 5.905 0 012.1 1.472 6.8 6.8 0 011.361 2.305 8.755 8.755 0 01.486 2.987 8.143 8.143 0 01-.611 3.249 6.9 6.9 0 01-1.653 2.375 7 7 0 01-2.388 1.444 8.245 8.245 0 01-2.819.486 8.29 8.29 0 01-1.834-.2 5.857 5.857 0 01-1.667-.665v5.693h-3.944V27.16h3.2zm1.958 8.834a5.849 5.849 0 001.709.249 3.541 3.541 0 002.693-1.083 4.186 4.186 0 001.028-3 3.988 3.988 0 00-.861-2.694 3.014 3.014 0 00-2.416-1 3.9 3.9 0 00-2.278.638 4.032 4.032 0 00-1.389 1.695v4.528a6.84 6.84 0 001.514.667zm19.146-7.445a4.1 4.1 0 00-1.471.264 3.6 3.6 0 00-1.209.751 3.6 3.6 0 00-.819 1.179 3.826 3.826 0 00-.306 1.556 3.979 3.979 0 001.014 2.833 3.6 3.6 0 002.763 1.083 5.345 5.345 0 002.112-.4 5.159 5.159 0 001.638-1.1l2.306 2.639a7.682 7.682 0 01-2.806 1.875 9.738 9.738 0 01-3.416.569 8.469 8.469 0 01-3.264-.583 6.88 6.88 0 01-2.361-1.584 6.562 6.562 0 01-1.444-2.346 8.41 8.41 0 01-.486-2.875 7.466 7.466 0 01.583-2.972 7.128 7.128 0 011.625-2.36 7.459 7.459 0 012.431-1.556 8.066 8.066 0 013.027-.556 9.32 9.32 0 013.333.542 7.954 7.954 0 012.583 1.624l-2.222 2.695a5.059 5.059 0 00-3.611-1.278zm11.967 1.806l1.472-.251 3.693-4.8h4.972l-5.387 6.443L156 41.334h-4.834l-4.249-5.778h-1.583v5.778h-3.972V27.169h3.972z" fill="#242434"/><path d="M13.527 41.334h-4v-10.7H4v10.7H0V27.169h13.527zm5.633-12.309a5.1 5.1 0 012.013-1.68 6.693 6.693 0 012.736-.514 6.964 6.964 0 012.722.514 5.9 5.9 0 012.1 1.472 6.788 6.788 0 011.361 2.305 8.755 8.755 0 01.486 2.987 8.122 8.122 0 01-.611 3.249 6.883 6.883 0 01-1.652 2.375 7.009 7.009 0 01-2.389 1.444 8.241 8.241 0 01-2.819.486 8.3 8.3 0 01-1.834-.2 5.834 5.834 0 01-1.665-.665v5.693h-3.944V27.16h3.194zm1.959 8.834a5.831 5.831 0 001.707.249 3.545 3.545 0 002.7-1.083 4.19 4.19 0 001.027-3 3.988 3.988 0 00-.861-2.694 3.017 3.017 0 00-2.417-1 3.894 3.894 0 00-2.277.638 4.022 4.022 0 00-1.388 1.695v4.528a6.781 6.781 0 001.509.667zm21.714-10.5a6.993 6.993 0 012.458 1.514 6.887 6.887 0 011.6 2.347 7.776 7.776 0 01.568 3.027 7.534 7.534 0 01-.583 3 6.966 6.966 0 01-1.625 2.347 7.338 7.338 0 01-2.458 1.528 8.563 8.563 0 01-3.082.541 8.925 8.925 0 01-3.139-.528 7.113 7.113 0 01-2.444-1.5 6.726 6.726 0 01-1.6-2.347 7.867 7.867 0 01-.57-3.042 7.723 7.723 0 01.57-2.986 6.722 6.722 0 011.6-2.346 7.482 7.482 0 012.444-1.528 8.516 8.516 0 013.139-.556 8.979 8.979 0 013.122.529zm-5.916 4.055a3.98 3.98 0 00-1.014 2.833 3.975 3.975 0 001.028 2.875 3.672 3.672 0 002.778 1.069 3.616 3.616 0 002.777-1.069 4.043 4.043 0 001-2.875 3.963 3.963 0 00-1.014-2.846 3.626 3.626 0 00-2.763-1.07 3.637 3.637 0 00-2.792 1.083zm93.297-16.73h-.3l-3.218 1.268a6.224 6.224 0 01-4.653 0l-3.217-1.268h-.3c-4.327 0-7.016 2.483-7.016 6.477v3.045h6.952c1.8 0 4.235 1.36 5.024 1.884l.932.619.9-.659a10.413 10.413 0 015.1-1.844h6.821v-3.045c-.01-3.994-2.698-6.477-7.025-6.477zm.194 6.318a12.666 12.666 0 00-6.063 1.868 13.076 13.076 0 00-5.891-1.868h-3.746c.06-1.983 1.242-3.029 3.519-3.109l2.637 1.04a9.531 9.531 0 007 0l2.638-1.04c2.276.08 3.458 1.126 3.517 3.109zM118.229 8.495c.4 3.569 3.038 6.16 6.284 6.16 3.337 0 5.921-2.54 6.29-6.219l.157-2.145v-.117A6.232 6.232 0 00124.685 0h-.355a6.232 6.232 0 00-6.275 6.174l.163 2.263zm6.106-5.291h.355a3.029 3.029 0 013.071 2.917l-.149 2.038c-.164 1.639-1.187 3.292-3.1 3.292-1.867 0-2.912-1.695-3.1-3.282l-.152-2.048a3.027 3.027 0 013.075-2.917z" fill="#0073ff"/></svg>