<svg xmlns="http://www.w3.org/2000/svg" width="156" height="44.708" viewBox="0 0 156 44.708"><defs><style>.a{fill:#0073ff;}.b{fill:#242434;}</style></defs><g transform="translate(-338 -27)"><g transform="translate(2943.075 -1075.515)"><path class="a" d="M-2475.156,1112.64v-10.125h-21.852v16.629c0,2.191,1.451,3.906,3.3,3.906h21.117c1.853,0,3.3-1.71,3.3-3.891v-6.519Zm-18.29,6.927a1.049,1.049,0,0,1-.08-.423V1106h14.887v13.177c0,.132.006.264.017.392Zm20.681-.408a1.023,1.023,0,0,1-.077.408h-2.228a.471.471,0,0,1-.024-.046l-.005-.017a1.1,1.1,0,0,1-.057-.36v-3.021h2.391Zm-18.3-10.359h10.15v6.874h-10.15Z"/><path class="b" d="M-2535.817,1141.89h-4.61l-1.417-3.694h-7.972l-1.388,3.694h-4.528l7.639-18.637h4.582Zm-7.387-7.36-2.472-7.084h-.279l-2.5,7.084Z"/><path class="b" d="M-2525.378,1133.641l3.693-5.917h4.334v14.166h-3.778v-8.749h-.249l-3.141,4.916h-1.832l-3.084-4.916h-.222v8.749h-3.777v-14.166h4.444Z"/><path class="b" d="M-2506.359,1137.723h.249l3.141-10h4.387l-6.333,15.639a7.311,7.311,0,0,1-1.889,2.833,4.294,4.294,0,0,1-2.943,1.027,5.3,5.3,0,0,1-3.194-.889l1.111-2.971a4.218,4.218,0,0,0,.861.277,4.066,4.066,0,0,0,.8.083,1.655,1.655,0,0,0,1.751-1.083l.222-.555-6.889-14.361h4.667Z"/><path class="b" d="M-2492.811,1129.586a5.08,5.08,0,0,1,2.013-1.682,6.691,6.691,0,0,1,2.737-.513,6.958,6.958,0,0,1,2.721.513,5.9,5.9,0,0,1,2.1,1.473,6.764,6.764,0,0,1,1.363,2.305,8.754,8.754,0,0,1,.485,2.986,8.128,8.128,0,0,1-.612,3.25,6.844,6.844,0,0,1-1.651,2.374,6.99,6.99,0,0,1-2.39,1.445,8.234,8.234,0,0,1-2.818.486,8.28,8.28,0,0,1-1.834-.194,5.852,5.852,0,0,1-1.667-.666v5.693h-3.943v-19.332h3.193Zm1.959,8.832a5.8,5.8,0,0,0,1.707.25,3.543,3.543,0,0,0,2.694-1.083,4.175,4.175,0,0,0,1.029-3,3.991,3.991,0,0,0-.861-2.694,3.017,3.017,0,0,0-2.418-1,3.882,3.882,0,0,0-2.276.639,4.017,4.017,0,0,0-1.39,1.694v4.528A6.717,6.717,0,0,0-2490.852,1138.418Z"/><path class="b" d="M-2471.706,1130.975a4.117,4.117,0,0,0-1.474.263,3.578,3.578,0,0,0-1.206.75,3.607,3.607,0,0,0-.821,1.18,3.826,3.826,0,0,0-.306,1.556,3.98,3.98,0,0,0,1.016,2.833,3.6,3.6,0,0,0,2.761,1.084,5.316,5.316,0,0,0,2.111-.4,5.122,5.122,0,0,0,1.64-1.1l2.305,2.638a7.668,7.668,0,0,1-2.8,1.875,9.72,9.72,0,0,1-3.417.569,8.441,8.441,0,0,1-3.263-.583,6.877,6.877,0,0,1-2.363-1.583,6.6,6.6,0,0,1-1.444-2.347,8.4,8.4,0,0,1-.485-2.875,7.5,7.5,0,0,1,.582-2.972,7.143,7.143,0,0,1,1.626-2.361,7.465,7.465,0,0,1,2.431-1.556,8.1,8.1,0,0,1,3.027-.555,9.31,9.31,0,0,1,3.333.542,7.927,7.927,0,0,1,2.582,1.624l-2.222,2.695A5.059,5.059,0,0,0-2471.706,1130.975Z"/><path class="b" d="M-2459.741,1132.779l1.474-.249,3.693-4.806h4.973l-5.39,6.444,5.916,7.722h-4.832l-4.249-5.778h-1.585v5.778h-3.97v-14.166h3.97Z"/><path class="a" d="M-2591.548,1141.89h-4V1131.2h-5.528v10.693h-4v-14.166h13.527Z"/><path class="a" d="M-2585.913,1129.586a5.079,5.079,0,0,1,2.013-1.682,6.686,6.686,0,0,1,2.735-.513,6.974,6.974,0,0,1,2.723.513,5.921,5.921,0,0,1,2.1,1.473,6.807,6.807,0,0,1,1.361,2.305,8.754,8.754,0,0,1,.485,2.986,8.128,8.128,0,0,1-.61,3.25,6.878,6.878,0,0,1-1.653,2.374,6.965,6.965,0,0,1-2.388,1.445,8.251,8.251,0,0,1-2.82.486,8.262,8.262,0,0,1-1.832-.194,5.855,5.855,0,0,1-1.667-.666v5.693h-3.945v-19.332h3.194Zm1.956,8.832a5.819,5.819,0,0,0,1.71.25,3.543,3.543,0,0,0,2.694-1.083,4.187,4.187,0,0,0,1.027-3,3.977,3.977,0,0,0-.862-2.694,3.012,3.012,0,0,0-2.415-1,3.891,3.891,0,0,0-2.278.639,4.029,4.029,0,0,0-1.388,1.694v4.528A6.714,6.714,0,0,0-2583.957,1138.418Z"/><path class="a" d="M-2562.242,1127.919a6.985,6.985,0,0,1,2.458,1.514,6.906,6.906,0,0,1,1.6,2.346,7.811,7.811,0,0,1,.569,3.029,7.557,7.557,0,0,1-.583,3,7.006,7.006,0,0,1-1.626,2.347,7.318,7.318,0,0,1-2.457,1.527,8.555,8.555,0,0,1-3.084.542,8.944,8.944,0,0,1-3.138-.527,7.157,7.157,0,0,1-2.445-1.5,6.732,6.732,0,0,1-1.6-2.348,7.839,7.839,0,0,1-.571-3.04,7.7,7.7,0,0,1,.571-2.987,6.714,6.714,0,0,1,1.6-2.346,7.478,7.478,0,0,1,2.445-1.529,8.551,8.551,0,0,1,3.138-.555A8.952,8.952,0,0,1-2562.242,1127.919Zm-5.915,4.055a3.981,3.981,0,0,0-1.014,2.834,3.979,3.979,0,0,0,1.027,2.874,3.674,3.674,0,0,0,2.778,1.07,3.612,3.612,0,0,0,2.777-1.07,4.038,4.038,0,0,0,1-2.874,3.968,3.968,0,0,0-1.013-2.848,3.628,3.628,0,0,0-2.764-1.069A3.637,3.637,0,0,0-2568.157,1131.974Z"/></g></g></svg>