<svg xmlns="http://www.w3.org/2000/svg" width="154.137" height="43.453" viewBox="0 0 154.137 43.453"><defs><style>.a{fill:#0073ff;}.b{fill:#242434;}</style></defs><g transform="translate(-319 12)"><g transform="translate(2924.075 -1467.05)"><path class="a" d="M-2474.651,1463.655l-7.677-1.734-4.18-6.871-4.179,6.871-7.677,1.734,5.092,6.211-.563,7.711,7.327-2.8,7.327,2.8-.563-7.711Zm-8.049,9.189-3.808-1.456-3.807,1.456.293-4.006-2.643-3.225,3.985-.9,2.172-3.572,2.173,3.572,3.985.9-2.644,3.225Z"/><path class="b" d="M-2536.644,1493.234h-4.556l-1.4-3.65h-7.877l-1.372,3.65h-4.473l7.548-18.415h4.528Zm-7.3-7.273-2.442-7h-.274l-2.47,7Z"/><path class="b" d="M-2526.332,1485.083l3.65-5.845h4.281v14h-3.732v-8.645h-.247l-3.1,4.857h-1.812l-3.046-4.857h-.219v8.645h-3.733v-14h4.392Z"/><path class="b" d="M-2507.539,1489.117h.247l3.1-9.879h4.336l-6.256,15.451a7.236,7.236,0,0,1-1.867,2.8,4.241,4.241,0,0,1-2.909,1.016,5.244,5.244,0,0,1-3.156-.878l1.1-2.936a4.181,4.181,0,0,0,.85.273,3.988,3.988,0,0,0,.8.083,1.631,1.631,0,0,0,1.729-1.071l.22-.548-6.806-14.188h4.61Z"/><path class="b" d="M-2494.152,1481.076a5.012,5.012,0,0,1,1.99-1.66,6.6,6.6,0,0,1,2.7-.508,6.893,6.893,0,0,1,2.691.508,5.837,5.837,0,0,1,2.072,1.455,6.7,6.7,0,0,1,1.344,2.277,8.625,8.625,0,0,1,.481,2.951,8.048,8.048,0,0,1-.6,3.21,6.8,6.8,0,0,1-1.633,2.347,6.944,6.944,0,0,1-2.36,1.426,8.152,8.152,0,0,1-2.785.481,8.2,8.2,0,0,1-1.812-.193,5.756,5.756,0,0,1-1.647-.658v5.626h-3.9v-19.1h3.156Zm1.935,8.728a5.776,5.776,0,0,0,1.688.246,3.5,3.5,0,0,0,2.661-1.07,4.133,4.133,0,0,0,1.016-2.964,3.941,3.941,0,0,0-.851-2.662,2.98,2.98,0,0,0-2.387-.988,3.844,3.844,0,0,0-2.251.631,3.974,3.974,0,0,0-1.372,1.674v4.474A6.779,6.779,0,0,0-2492.217,1489.8Z"/><path class="b" d="M-2473.3,1482.448a4.052,4.052,0,0,0-1.454.261,3.549,3.549,0,0,0-1.194.741,3.575,3.575,0,0,0-.81,1.166,3.786,3.786,0,0,0-.3,1.537,3.93,3.93,0,0,0,1,2.8,3.557,3.557,0,0,0,2.73,1.07,5.279,5.279,0,0,0,2.087-.4,5.089,5.089,0,0,0,1.618-1.084l2.279,2.607a7.611,7.611,0,0,1-2.772,1.853,9.636,9.636,0,0,1-3.376.562,8.356,8.356,0,0,1-3.225-.577,6.779,6.779,0,0,1-2.332-1.564,6.489,6.489,0,0,1-1.428-2.318,8.315,8.315,0,0,1-.48-2.841,7.376,7.376,0,0,1,.576-2.936,7.045,7.045,0,0,1,1.606-2.333,7.381,7.381,0,0,1,2.4-1.537,7.988,7.988,0,0,1,2.992-.549,9.223,9.223,0,0,1,3.293.535,7.872,7.872,0,0,1,2.553,1.6l-2.2,2.663A5,5,0,0,0-2473.3,1482.448Z"/><path class="b" d="M-2461.476,1484.232l1.454-.247,3.65-4.747h4.912l-5.323,6.366,5.845,7.63h-4.775l-4.2-5.709h-1.564v5.709h-3.924v-14h3.924Z"/><path class="a" d="M-2591.71,1493.234h-3.952v-10.566h-5.461v10.566h-3.952v-14h13.365Z"/><path class="a" d="M-2586.144,1481.076a5.029,5.029,0,0,1,1.989-1.66,6.614,6.614,0,0,1,2.7-.508,6.88,6.88,0,0,1,2.689.508,5.813,5.813,0,0,1,2.072,1.455,6.688,6.688,0,0,1,1.345,2.277,8.649,8.649,0,0,1,.48,2.951,8.031,8.031,0,0,1-.6,3.21,6.79,6.79,0,0,1-1.632,2.347,6.928,6.928,0,0,1-2.361,1.426,8.15,8.15,0,0,1-2.785.481,8.208,8.208,0,0,1-1.811-.193,5.731,5.731,0,0,1-1.646-.658v5.626h-3.9v-19.1h3.156Zm1.935,8.728a5.765,5.765,0,0,0,1.687.246,3.5,3.5,0,0,0,2.663-1.07,4.133,4.133,0,0,0,1.016-2.964,3.935,3.935,0,0,0-.852-2.662,2.979,2.979,0,0,0-2.387-.988,3.838,3.838,0,0,0-2.25.631,3.969,3.969,0,0,0-1.372,1.674v4.474A6.773,6.773,0,0,0-2584.209,1489.8Z"/><path class="a" d="M-2562.754,1479.43a6.9,6.9,0,0,1,2.429,1.5,6.818,6.818,0,0,1,1.579,2.318,7.677,7.677,0,0,1,.562,2.992,7.437,7.437,0,0,1-.577,2.964,6.871,6.871,0,0,1-1.6,2.318,7.255,7.255,0,0,1-2.428,1.51,8.456,8.456,0,0,1-3.046.535,8.809,8.809,0,0,1-3.1-.522,7.04,7.04,0,0,1-2.416-1.481,6.649,6.649,0,0,1-1.577-2.319,7.786,7.786,0,0,1-.563-3.005,7.642,7.642,0,0,1,.563-2.951,6.644,6.644,0,0,1,1.577-2.318,7.39,7.39,0,0,1,2.416-1.51,8.419,8.419,0,0,1,3.1-.549A8.835,8.835,0,0,1-2562.754,1479.43Zm-5.845,4.006a3.932,3.932,0,0,0-1,2.8,3.93,3.93,0,0,0,1.015,2.84,3.631,3.631,0,0,0,2.745,1.057,3.576,3.576,0,0,0,2.744-1.057,3.994,3.994,0,0,0,.988-2.84,3.916,3.916,0,0,0-1-2.813,3.584,3.584,0,0,0-2.73-1.057A3.6,3.6,0,0,0-2568.6,1483.436Z"/></g></g></svg>