<svg xmlns="http://www.w3.org/2000/svg" width="156" height="40.38"><defs><style>.a{fill:#0073ff}</style></defs><path class="a" d="M137.275.041c-.117-.005-2.885-.09-6.361 0a13.339 13.339 0 00-6.729 1.894 13.345 13.345 0 00-6.73-1.894c-3.474-.09-6.243 0-6.359 0l-1.551.049v17.292l1.564.037c.028 0 3.008.07 6.34 0a10.124 10.124 0 015.82 1.3l.916.638.916-.638a10.105 10.105 0 015.821-1.3c3.332.07 6.312 0 6.339 0l1.565-.037V.091zm-19.893 14.176c-1.789.037-3.472.033-4.633.023V3.213c1.132-.012 2.788-.017 4.624.03a10.157 10.157 0 015.21 1.505v10.14a15.383 15.383 0 00-4.735-.677c-.157 0-.312.003-.473.006zm18.239.023c-1.158.01-2.842.014-4.632-.023a15.975 15.975 0 00-5.2.667V4.748a10.154 10.154 0 015.21-1.505c1.834-.047 3.491-.042 4.624-.03z"/><path d="M69.257 35.048h-4.611l-1.416-3.694h-7.972l-1.388 3.694h-4.528L56.98 16.41h4.583zm-7.389-7.361l-2.471-7.083h-.278l-2.5 7.083zm17.827-.888l3.693-5.916h4.333v14.165h-3.777v-8.75h-.249l-3.139 4.916h-1.833l-3.084-4.916h-.221v8.75H71.64V20.883h4.444zm19.019 4.082h.25l3.139-10h4.389l-6.333 15.637a7.321 7.321 0 01-1.888 2.833 4.3 4.3 0 01-2.946 1.027 5.309 5.309 0 01-3.193-.888l1.111-2.972a4.211 4.211 0 00.861.277 4.07 4.07 0 00.806.084 1.653 1.653 0 001.75-1.084l.222-.555-6.889-14.359h4.667zm13.55-8.138a5.074 5.074 0 012.013-1.68 6.69 6.69 0 012.736-.514 6.967 6.967 0 012.722.514 5.905 5.905 0 012.1 1.472 6.8 6.8 0 011.361 2.305 8.751 8.751 0 01.486 2.987 8.126 8.126 0 01-.611 3.249 6.871 6.871 0 01-1.653 2.375 7 7 0 01-2.389 1.444 8.238 8.238 0 01-2.818.486 8.291 8.291 0 01-1.834-.2 5.826 5.826 0 01-1.666-.666v5.694h-3.944V20.878h3.2zm1.958 8.833a5.8 5.8 0 001.707.249 3.543 3.543 0 002.7-1.082 4.185 4.185 0 001.028-3 3.986 3.986 0 00-.861-2.694 3.019 3.019 0 00-2.417-1 3.885 3.885 0 00-2.277.638 4.024 4.024 0 00-1.389 1.695v4.527a6.775 6.775 0 001.509.667zm19.146-7.444a4.133 4.133 0 00-1.473.263 3.6 3.6 0 00-1.207.751 3.6 3.6 0 00-.82 1.18 3.822 3.822 0 00-.306 1.555 3.979 3.979 0 001.014 2.834 3.6 3.6 0 002.764 1.082 5.337 5.337 0 002.111-.4 5.131 5.131 0 001.639-1.1l2.305 2.639a7.678 7.678 0 01-2.806 1.875 9.728 9.728 0 01-3.415.569 8.448 8.448 0 01-3.264-.584 6.852 6.852 0 01-2.361-1.583 6.569 6.569 0 01-1.445-2.346 8.41 8.41 0 01-.486-2.875 7.46 7.46 0 01.584-2.972 7.131 7.131 0 011.624-2.361 7.487 7.487 0 012.43-1.555 8.071 8.071 0 013.028-.556 9.317 9.317 0 013.333.542 7.921 7.921 0 012.583 1.624l-2.222 2.695a5.056 5.056 0 00-3.61-1.277zm11.966 1.805l1.473-.25 3.693-4.8h4.972l-5.388 6.443L156 35.052h-4.833l-4.25-5.778h-1.583v5.778h-3.972V20.887h3.972z" fill="#242434"/><path class="a" d="M13.526 35.048h-4V24.354H3.998v10.694h-4V20.883h13.526zm5.633-12.305a5.083 5.083 0 012.014-1.68 6.693 6.693 0 012.736-.514 6.967 6.967 0 012.722.514 5.917 5.917 0 012.1 1.472 6.794 6.794 0 011.36 2.305 8.751 8.751 0 01.486 2.987 8.143 8.143 0 01-.611 3.249 6.9 6.9 0 01-1.652 2.375 7.02 7.02 0 01-2.389 1.444 8.245 8.245 0 01-2.82.486 8.272 8.272 0 01-1.832-.2 5.809 5.809 0 01-1.667-.666v5.694h-3.944V20.878h3.194zm1.959 8.833a5.81 5.81 0 001.708.249 3.544 3.544 0 002.694-1.082 4.185 4.185 0 001.028-3 3.987 3.987 0 00-.862-2.694 3.013 3.013 0 00-2.415-1 3.891 3.891 0 00-2.279.638 4.029 4.029 0 00-1.388 1.695v4.527a6.756 6.756 0 001.514.667zm21.715-10.499a7 7 0 012.458 1.514 6.894 6.894 0 011.6 2.346 7.763 7.763 0 01.57 3.028 7.535 7.535 0 01-.584 3 6.967 6.967 0 01-1.624 2.346 7.366 7.366 0 01-2.458 1.529 8.569 8.569 0 01-3.084.541 8.926 8.926 0 01-3.138-.528 7.153 7.153 0 01-2.445-1.5 6.738 6.738 0 01-1.6-2.348 7.884 7.884 0 01-.569-3.041 7.741 7.741 0 01.569-2.986 6.733 6.733 0 011.6-2.347 7.5 7.5 0 012.445-1.527 8.515 8.515 0 013.138-.556 8.959 8.959 0 013.122.529zm-5.916 4.055a3.98 3.98 0 00-1.014 2.833 3.977 3.977 0 001.028 2.875 3.67 3.67 0 002.777 1.069 3.616 3.616 0 002.778-1.069 4.04 4.04 0 001-2.875 3.967 3.967 0 00-1.014-2.847 3.626 3.626 0 00-2.764-1.069 3.638 3.638 0 00-2.791 1.083z"/></svg>