<svg xmlns="http://www.w3.org/2000/svg" xmlns:xlink="http://www.w3.org/1999/xlink" width="138" height="27.992" viewBox="0 0 138 27.992"><defs><style>.a{fill:url(#a);}.b{fill:#fff;}.c{fill:url(#b);}.d{fill:url(#c);}.e{fill:url(#d);}</style><linearGradient id="a" y1="0.5" x2="1" y2="0.5" gradientUnits="objectBoundingBox"><stop offset="0" stop-color="#05f"/><stop offset="1" stop-color="#00b6ff"/></linearGradient><linearGradient id="b" x1="0" y1="0.671" x2="3.508" y2="0.671" xlink:href="#a"/><linearGradient id="c" x1="-1.05" y1="0.5" x2="2.132" y2="0.5" xlink:href="#a"/><linearGradient id="d" x1="-2.062" y1="0.663" x2="1" y2="0.663" xlink:href="#a"/></defs><g transform="translate(-1756 -97)"><g transform="translate(-637.831 -490.22)"><path class="a" d="M2504.026,594.373l-1.267-1.557a7.535,7.535,0,0,0-7.032-2.085l-.559-3.324a20.128,20.128,0,0,0,17.822,0l-.576,3.32a7.766,7.766,0,0,0-7.063,2.133Z"/><path class="b" d="M2455.1,610.494h-4.078l-1.254-3.267h-7.052l-1.227,3.267h-4.006l6.758-16.486h4.053Zm-6.535-6.51-2.188-6.266h-.245l-2.212,6.266Z"/><path class="b" d="M2464.329,603.2l3.27-5.234h3.833v12.531h-3.342v-7.739h-.223l-2.776,4.349h-1.62l-2.728-4.349h-.2v7.739h-3.341V597.963h3.931Z"/><path class="b" d="M2481.155,606.809h.221l2.776-8.846h3.883l-5.6,13.834a6.484,6.484,0,0,1-1.671,2.506,3.8,3.8,0,0,1-2.6.909,4.686,4.686,0,0,1-2.824-.786l.983-2.629a3.727,3.727,0,0,0,.76.246,3.65,3.65,0,0,0,.714.073,1.459,1.459,0,0,0,1.546-.958l.2-.491-6.094-12.7h4.128Z"/><path class="b" d="M2493.14,599.61a4.484,4.484,0,0,1,1.781-1.486,5.9,5.9,0,0,1,2.421-.455,6.148,6.148,0,0,1,2.409.455,5.207,5.207,0,0,1,1.853,1.3,5.977,5.977,0,0,1,1.206,2.039,7.756,7.756,0,0,1,.429,2.641,7.221,7.221,0,0,1-.54,2.875,6.09,6.09,0,0,1-1.462,2.1,6.226,6.226,0,0,1-2.114,1.278,7.3,7.3,0,0,1-2.493.429,7.4,7.4,0,0,1-1.623-.171,5.206,5.206,0,0,1-1.474-.59v5.036h-3.488v-17.1h2.826Zm1.733,7.814a5.161,5.161,0,0,0,1.51.22,3.14,3.14,0,0,0,2.385-.958,3.7,3.7,0,0,0,.909-2.653,3.529,3.529,0,0,0-.763-2.384,2.666,2.666,0,0,0-2.138-.885,3.43,3.43,0,0,0-2.013.566,3.558,3.558,0,0,0-1.23,1.5v4.006A5.976,5.976,0,0,0,2494.873,607.424Z"/><path class="b" d="M2511.809,600.839a3.616,3.616,0,0,0-1.3.233,3.155,3.155,0,0,0-1.069.663,3.193,3.193,0,0,0-.726,1.044,3.374,3.374,0,0,0-.269,1.376,3.52,3.52,0,0,0,.9,2.506,3.185,3.185,0,0,0,2.445.959,4.732,4.732,0,0,0,1.868-.356,4.58,4.58,0,0,0,1.448-.971l2.04,2.334a6.8,6.8,0,0,1-2.481,1.659,8.6,8.6,0,0,1-3.023.5,7.469,7.469,0,0,1-2.886-.515,6.086,6.086,0,0,1-2.09-1.4,5.84,5.84,0,0,1-1.278-2.076,7.427,7.427,0,0,1-.429-2.544,6.617,6.617,0,0,1,.515-2.628,6.34,6.34,0,0,1,1.438-2.089,6.6,6.6,0,0,1,2.151-1.376,7.146,7.146,0,0,1,2.677-.491,8.25,8.25,0,0,1,2.949.479,7.022,7.022,0,0,1,2.284,1.437L2515,601.969A4.476,4.476,0,0,0,2511.809,600.839Z"/><path class="b" d="M2522.4,602.435l1.3-.22,3.267-4.252h4.4l-4.768,5.7,5.235,6.83h-4.276l-3.759-5.11h-1.4v5.11h-3.514V597.963h3.514Z"/><path class="c" d="M2405.8,610.494h-3.538v-9.459h-4.89v9.459h-3.538V597.963H2405.8Z"/><path class="d" d="M2410.782,599.61a4.484,4.484,0,0,1,1.781-1.486,5.893,5.893,0,0,1,2.421-.455,6.127,6.127,0,0,1,2.406.455,5.219,5.219,0,0,1,1.856,1.3,6.018,6.018,0,0,1,1.2,2.039,7.727,7.727,0,0,1,.431,2.641,7.191,7.191,0,0,1-.541,2.875,6.091,6.091,0,0,1-1.462,2.1,6.2,6.2,0,0,1-2.112,1.278,7.583,7.583,0,0,1-4.116.258,5.193,5.193,0,0,1-1.474-.59v5.036h-3.49v-17.1h2.826Zm1.73,7.814a5.172,5.172,0,0,0,1.513.22,3.132,3.132,0,0,0,2.383-.958,3.7,3.7,0,0,0,.908-2.653,3.527,3.527,0,0,0-.76-2.384,2.671,2.671,0,0,0-2.138-.885,3.445,3.445,0,0,0-2.016.566,3.564,3.564,0,0,0-1.227,1.5v4.006A5.976,5.976,0,0,0,2412.512,607.424Z"/><path class="e" d="M2431.722,598.136a6.2,6.2,0,0,1,2.176,1.339,6.118,6.118,0,0,1,1.412,2.076,6.893,6.893,0,0,1,.5,2.678,6.689,6.689,0,0,1-.515,2.654,6.222,6.222,0,0,1-1.438,2.076,6.488,6.488,0,0,1-2.175,1.352,7.579,7.579,0,0,1-2.727.478,7.909,7.909,0,0,1-2.776-.466,6.334,6.334,0,0,1-2.163-1.327,5.968,5.968,0,0,1-1.412-2.076,6.948,6.948,0,0,1-.5-2.691,6.813,6.813,0,0,1,.5-2.641,5.94,5.94,0,0,1,1.412-2.076,6.631,6.631,0,0,1,2.163-1.352,7.562,7.562,0,0,1,2.776-.491A7.907,7.907,0,0,1,2431.722,598.136Zm-5.233,3.587a3.982,3.982,0,0,0,.012,5.05,3.254,3.254,0,0,0,2.457.945,3.2,3.2,0,0,0,2.457-.945,3.581,3.581,0,0,0,.884-2.544,3.51,3.51,0,0,0-.9-2.518,3.644,3.644,0,0,0-4.914.012Z"/></g></g></svg>