<svg xmlns="http://www.w3.org/2000/svg" width="156" height="44.393" viewBox="0 0 156 44.393"><defs><style>.a{fill:#0073ff;}.b{fill:#242434;}</style></defs><g transform="translate(-1725 -515)"><g transform="translate(4330.075 -813.026)"><path class="a" d="M-2480.727,1352.765l-1.051-.937c-.935-.834-9.136-8.294-9.136-13.615a10.2,10.2,0,0,1,10.189-10.187,10.217,10.217,0,0,1,10.223,10.187c0,5.322-8.234,12.783-9.172,13.617Zm0-21.573a7.028,7.028,0,0,0-7.022,7.021c0,2.639,3.954,7.324,7.024,10.276,3.082-2.954,7.055-7.642,7.055-10.276A7.047,7.047,0,0,0-2480.725,1331.192Z"/><path class="a" d="M-2480.708,1342.835a4.6,4.6,0,0,1-4.593-4.594,4.6,4.6,0,0,1,4.593-4.593,4.6,4.6,0,0,1,4.594,4.593A4.6,4.6,0,0,1-2480.708,1342.835Zm0-6.021a1.428,1.428,0,0,0-1.427,1.427,1.428,1.428,0,0,0,1.427,1.428,1.429,1.429,0,0,0,1.428-1.428A1.429,1.429,0,0,0-2480.708,1336.814Z"/></g><g transform="translate(4330.075 -813.026)"><path class="b" d="M-2535.818,1367.086h-4.611l-1.416-3.694h-7.972l-1.388,3.694h-4.528l7.638-18.637h4.583Zm-7.389-7.36-2.471-7.083h-.278l-2.5,7.083Z"/><path class="b" d="M-2525.38,1358.837l3.693-5.916h4.333v14.165h-3.777v-8.749h-.249l-3.139,4.916h-1.833l-3.084-4.916h-.221v8.749h-3.778v-14.165h4.444Z"/><path class="b" d="M-2506.361,1362.92h.25l3.139-10h4.389l-6.333,15.638a7.324,7.324,0,0,1-1.888,2.832,4.3,4.3,0,0,1-2.946,1.028,5.309,5.309,0,0,1-3.193-.888l1.111-2.972a4.272,4.272,0,0,0,.861.277,4.079,4.079,0,0,0,.806.084,1.653,1.653,0,0,0,1.75-1.084l.222-.555-6.889-14.36h4.667Z"/><path class="b" d="M-2492.811,1354.782a5.077,5.077,0,0,1,2.013-1.681,6.692,6.692,0,0,1,2.736-.514,6.969,6.969,0,0,1,2.722.514,5.908,5.908,0,0,1,2.1,1.473,6.785,6.785,0,0,1,1.361,2.305,8.744,8.744,0,0,1,.486,2.986,8.127,8.127,0,0,1-.611,3.249,6.877,6.877,0,0,1-1.653,2.376,7,7,0,0,1-2.389,1.443,8.238,8.238,0,0,1-2.818.486,8.351,8.351,0,0,1-1.834-.194,5.854,5.854,0,0,1-1.666-.666v5.694h-3.944v-19.332h3.2Zm1.958,8.833a5.83,5.83,0,0,0,1.707.249,3.544,3.544,0,0,0,2.7-1.083,4.184,4.184,0,0,0,1.028-3,3.985,3.985,0,0,0-.861-2.693,3.019,3.019,0,0,0-2.417-1,3.886,3.886,0,0,0-2.277.638,4.019,4.019,0,0,0-1.389,1.7v4.527A6.826,6.826,0,0,0-2490.853,1363.615Z"/><path class="b" d="M-2471.707,1356.17a4.136,4.136,0,0,0-1.473.264,3.6,3.6,0,0,0-1.207.751,3.593,3.593,0,0,0-.82,1.18,3.818,3.818,0,0,0-.306,1.555,3.977,3.977,0,0,0,1.014,2.833,3.6,3.6,0,0,0,2.764,1.083,5.335,5.335,0,0,0,2.111-.4,5.147,5.147,0,0,0,1.639-1.1l2.305,2.639a7.663,7.663,0,0,1-2.806,1.874,9.725,9.725,0,0,1-3.415.569,8.448,8.448,0,0,1-3.264-.583,6.866,6.866,0,0,1-2.361-1.583,6.566,6.566,0,0,1-1.445-2.347,8.409,8.409,0,0,1-.486-2.874,7.46,7.46,0,0,1,.584-2.972,7.12,7.12,0,0,1,1.624-2.361,7.469,7.469,0,0,1,2.43-1.555,8.069,8.069,0,0,1,3.028-.557,9.314,9.314,0,0,1,3.333.542,7.94,7.94,0,0,1,2.583,1.625l-2.222,2.694A5.06,5.06,0,0,0-2471.707,1356.17Z"/><path class="b" d="M-2459.741,1357.976l1.473-.25,3.693-4.8h4.972l-5.388,6.444,5.916,7.721h-4.833l-4.25-5.777h-1.583v5.777h-3.972v-14.165h3.972Z"/></g><g transform="translate(4330.075 -813.026)"><path class="a" d="M-2591.549,1367.086h-4v-10.693h-5.528v10.693h-4v-14.165h13.526Z"/><path class="a" d="M-2585.916,1354.782a5.086,5.086,0,0,1,2.014-1.681,6.7,6.7,0,0,1,2.736-.514,6.969,6.969,0,0,1,2.722.514,5.92,5.92,0,0,1,2.1,1.473,6.783,6.783,0,0,1,1.36,2.305,8.744,8.744,0,0,1,.486,2.986,8.143,8.143,0,0,1-.611,3.249,6.9,6.9,0,0,1-1.652,2.376,7.016,7.016,0,0,1-2.389,1.443,8.245,8.245,0,0,1-2.82.486,8.331,8.331,0,0,1-1.832-.194,5.837,5.837,0,0,1-1.667-.666v5.694h-3.944v-19.332h3.194Zm1.959,8.833a5.843,5.843,0,0,0,1.708.249,3.544,3.544,0,0,0,2.694-1.083,4.184,4.184,0,0,0,1.028-3,3.986,3.986,0,0,0-.862-2.693,3.013,3.013,0,0,0-2.415-1,3.892,3.892,0,0,0-2.279.638,4.024,4.024,0,0,0-1.388,1.7v4.527A6.806,6.806,0,0,0-2583.957,1363.615Z"/><path class="a" d="M-2562.242,1353.116a6.986,6.986,0,0,1,2.458,1.514,6.894,6.894,0,0,1,1.6,2.346,7.761,7.761,0,0,1,.57,3.028,7.542,7.542,0,0,1-.584,3,6.967,6.967,0,0,1-1.624,2.346,7.366,7.366,0,0,1-2.458,1.528,8.569,8.569,0,0,1-3.084.541,8.923,8.923,0,0,1-3.138-.527,7.151,7.151,0,0,1-2.445-1.5,6.742,6.742,0,0,1-1.6-2.347,7.888,7.888,0,0,1-.569-3.041,7.751,7.751,0,0,1,.569-2.987,6.738,6.738,0,0,1,1.6-2.346,7.484,7.484,0,0,1,2.445-1.527,8.512,8.512,0,0,1,3.138-.557A8.962,8.962,0,0,1-2562.242,1353.116Zm-5.916,4.054a3.981,3.981,0,0,0-1.014,2.834,3.973,3.973,0,0,0,1.028,2.874,3.671,3.671,0,0,0,2.777,1.07,3.617,3.617,0,0,0,2.778-1.07,4.036,4.036,0,0,0,1-2.874,3.966,3.966,0,0,0-1.014-2.847,3.626,3.626,0,0,0-2.764-1.069A3.641,3.641,0,0,0-2568.158,1357.17Z"/></g></g></svg>