<svg xmlns="http://www.w3.org/2000/svg" width="811.042" height="646.068" viewBox="0 0 811.042 646.068"><defs><style>.a,.h{fill:none;}.a,.b,.d,.e,.h{stroke:#0073ff;}.a,.b,.d,.e,.g,.h{stroke-linecap:round;stroke-linejoin:round;}.a,.b,.g{stroke-width:3px;}.b,.d,.f{fill:#fff;}.c,.g{fill:#0073ff;}.d,.e{stroke-width:9px;}.e{fill:#e5f1ff;}.g{stroke:#fff;}.h{stroke-width:2.4px;}</style></defs><g transform="translate(-800.457 -196.377)"><path class="a" d="M2350.852,1195.332v-4.049m-6.17,0v4.049m-6.17-8.1v8.1m-6.171,0v-4.049m-6.884,4.049v-4.049" transform="translate(-863.139 -432.051)"/><g transform="translate(1417.976 723.69)"><path class="a" d="M2313.16,1171.345h-37.82l18.3-19.705Z" transform="translate(-2275.34 -1151.64)"/><rect class="a" width="31.733" height="19.885" transform="translate(2.435 19.706)"/><line class="a" x2="10.928" transform="translate(12.954 27.951)"/></g><path class="a" d="M2308.108,965.392v19.766m-19.16,58.534h-4.91m2.376-23.111-10.734,12.588h21.467Zm-22.464-2.606,11.943-10.836v5.74m21.255-12.374v-5.744m10.714,0v5.744m-10.714,17.472v-5.744m10.714,0v5.744m0,11.728v5.744m-32.181,18.921h21.465v-21.2h-21.465Zm10.733-56.658h-22.282v27.43m55.744,29.227V985.158h-33.461v36.529m-3.89,3.456H2241.81v29.227m12.092-17.844v5.255m11.034-5.255v5.255" transform="translate(-853.5 -406.487)"/><line class="a" x1="136.692" transform="translate(1337.003 648.399)"/><g transform="translate(863.178 609.6)"><path class="a" d="M1660.872,1042.785h6.061l-6.526-8.975,5.239-.058-8.037-11.061-8.037,11.061,5.24.058-6.527,8.975h12.588Z" transform="translate(-1648.284 -1022.69)"/><line class="a" y2="7.102" transform="translate(9.324 20.095)"/></g><g transform="translate(1081.8 788.857)"><path class="a" d="M1906.781,1243.494h5.49l-5.911-8.129,4.745-.053-7.28-10.018-7.28,10.018,4.745.053-5.911,8.129h11.4Z" transform="translate(-1895.38 -1225.294)"/><line class="a" y2="4.625" transform="translate(8.445 18.2)"/></g><path class="a" d="M1870.823,1247.78s51.092-.076,57.207-.065a40.388,40.388,0,0,0,28.634-11.826l1.718-1.718a40.375,40.375,0,0,1,28.552-11.827h103.585" transform="translate(-810.75 -436.097)"/><g transform="translate(1180.516 753.998)"><rect class="b" width="82.437" height="32.155"/><g transform="translate(10.639 8.801)"><line class="a" y2="4.525" transform="translate(26.211)"/><line class="a" y2="4.525" transform="translate(17.474)"/><line class="a" y2="4.525" transform="translate(8.737)"/><line class="a" y2="4.525"/><line class="a" y2="4.525" transform="translate(34.949)"/><line class="a" y2="4.525" transform="translate(43.686)"/><line class="a" y2="4.525" transform="translate(52.423)"/><line class="a" y2="4.525" transform="translate(61.16)"/><g transform="translate(0 12.138)"><line class="a" y2="4.525" transform="translate(26.211)"/><line class="a" y2="4.525" transform="translate(17.474)"/><line class="a" y2="4.525" transform="translate(8.737)"/><line class="a" y2="4.525"/><line class="a" y2="4.525" transform="translate(34.949)"/><line class="a" y2="4.525" transform="translate(43.686)"/><line class="a" y2="4.525" transform="translate(52.423)"/><line class="a" y2="4.525" transform="translate(61.16)"/></g></g></g><g transform="translate(1241.813 197.877)"><g transform="translate(49.664)"><line class="a" y2="12.622"/><line class="a" y2="12.622" transform="translate(0 86.705)"/></g><g transform="translate(33.46 10.545)"><line class="a" x1="2.028" y2="4.897" transform="translate(30.379)"/><line class="a" y1="4.897" x2="2.028" transform="translate(0 73.341)"/></g><g transform="translate(0 49.664)"><line class="a" x2="12.622" transform="translate(86.705)"/><line class="a" x1="12.622"/></g><g transform="translate(14.546 14.546)"><line class="a" y1="8.925" x2="8.925" transform="translate(61.31)"/><line class="a" x1="8.925" y2="8.925" transform="translate(0 61.31)"/></g><g transform="translate(14.546 14.546)"><line class="a" x2="8.925" y2="8.925" transform="translate(61.31 61.31)"/><line class="a" x1="8.925" y1="8.925"/></g><g transform="translate(10.545 33.46)"><line class="a" x1="4.897" y1="2.028" transform="translate(73.341 30.379)"/><line class="a" x2="4.897" y2="2.028"/></g><g transform="translate(10.545 33.46)"><line class="a" y1="2.028" x2="4.897" transform="translate(73.341)"/><line class="a" y1="2.028" x2="4.897" transform="translate(0 30.379)"/></g><g transform="translate(33.46 10.545)"><line class="a" x2="2.028" y2="4.897" transform="translate(30.379 73.341)"/><line class="a" x2="2.028" y2="4.897"/></g><g transform="translate(25.717 25.68)"><circle class="a" cx="23.751" cy="23.751" r="23.751"/><path class="a" d="M2144.376,608.115a6.879,6.879,0,1,1-13.757,0Z" transform="translate(-2108.216 -588.874)"/><path class="a" d="M2124.13,608.115a6.879,6.879,0,1,1-13.757,0Z" transform="translate(-2105.883 -588.874)"/><line class="a" x2="4.156" transform="translate(18.247 19.241)"/><path class="a" d="M2146.168,608.115h11.681a4.154,4.154,0,0,1,4.153,4.153h0" transform="translate(-2110.008 -588.874)"/><path class="a" d="M2133.4,626.457a8.334,8.334,0,0,1-11.787,0" transform="translate(-2107.178 -590.988)"/></g></g><path class="a" d="M1635.19,803.269a11.628,11.628,0,0,0,11.594,11.594h41.811a11.594,11.594,0,0,0,0-23.189h-3.006a15.824,15.824,0,0,0-29.5-7.734,10.6,10.6,0,0,0-9.214,7.734h-.089A11.629,11.629,0,0,0,1635.19,803.269Z" transform="translate(-783.597 -384.671)"/><path class="a" d="M1759.447,730.093c9.368-1.577,14.18,4.426,14.18,4.426a15.557,15.557,0,0,1,14.18-4.426" transform="translate(-797.916 -379.343)"/><path class="a" d="M1755.988,752.71a9.181,9.181,0,0,0-8.367,2.612,8.929,8.929,0,0,0-8.367-2.612" transform="translate(-795.589 -381.961)"/><g transform="translate(1041.706 324.749)"><path class="a" d="M1885.955,734.806a11.912,11.912,0,0,1,11.877-11.876h5.24a11.377,11.377,0,0,1,2.553-5.754,10.624,10.624,0,0,0-6.226-2.023h-.081a9.794,9.794,0,0,0-8.512-7.144,14.617,14.617,0,0,0-27.253,7.144h-2.778a10.711,10.711,0,0,0,0,21.422H1886.1A11.781,11.781,0,0,1,1885.955,734.806Z" transform="translate(-1850.064 -700.74)"/><path class="a" d="M1975,735.261a11.912,11.912,0,0,1-11.877,11.876h-60.619a11.876,11.876,0,1,1,0-23.753h5.24a11.31,11.31,0,0,1,13.012-9.709,16.206,16.206,0,0,1,29.855,2.01,9.259,9.259,0,0,1,8.837,7.7h3.675A11.911,11.911,0,0,1,1975,735.261Z" transform="translate(-1854.739 -701.195)"/></g><g transform="translate(951.884 412.574)"><path class="c" d="M36.227,0H364.015a36.227,36.227,0,0,1,36.227,36.227V265.205a0,0,0,0,1,0,0H0a0,0,0,0,1,0,0V36.227A36.227,36.227,0,0,1,36.227,0Z" transform="translate(26.332)"/><rect class="d" width="338.801" height="200.234" transform="translate(57.673 38.977)"/><g transform="translate(99.673 63.267)"><g transform="translate(0 116.349)"><path class="c" d="M1877.345,1027.472l-16.147-7.365v-2.8l16.147-7.728v4.114l-11.514,4.927v.1l11.514,4.634Z" transform="translate(-1861.198 -1003.769)"/><path class="c" d="M1900.453,1003.012l-12.084,28.907h-4.876l12.033-28.907Z" transform="translate(-1863.767 -1003.012)"/><path class="c" d="M1923.382,1019.859l-16.147,7.365v-4.1l11.549-4.616v-.07l-11.549-4.944v-4.115l16.147,7.676Z" transform="translate(-1866.503 -1003.746)"/></g><path class="c" d="M1877.345,889.6l-16.147-7.365v-2.8l16.147-7.728v4.114l-11.514,4.927v.1l11.514,4.633Z" transform="translate(-1861.198 -871.533)"/><path class="c" d="M1907.517,881.987l-16.148,7.365v-4.1l11.549-4.616v-.069l-11.549-4.945V871.51l16.148,7.676Z" transform="translate(-1864.675 -871.51)"/><line class="e" x2="198.366" transform="translate(1.888 41.221)"/><line class="e" x2="212.409" transform="translate(1.888 59.664)"/><line class="e" x2="202.315" transform="translate(1.888 80.18)"/><line class="e" x2="169.479" transform="translate(1.888 98.273)"/></g><circle class="f" cx="6.176" cy="6.176" r="6.176" transform="translate(220.277 15.62)"/><path class="c" d="M428.948,47.7H23.958A23.958,23.958,0,0,1,0,23.739v-9.9A13.837,13.837,0,0,1,13.837,0h180.03V1.724a10.161,10.161,0,0,0,10.149,10.149H248.89A10.161,10.161,0,0,0,259.039,1.724V0h180.03a13.837,13.837,0,0,1,13.837,13.837v9.9A23.958,23.958,0,0,1,428.948,47.7Z" transform="translate(0 276.037)"/></g><g transform="translate(1246.891 309.805)"><rect class="g" width="5.026" height="209.551" transform="translate(50.303 278.348) rotate(180)"/><g transform="translate(236.221 302.841)"><g transform="translate(0 1.83)"><line class="a" y1="19.827" x2="22.366"/></g><line class="a" x2="22.366"/></g><g transform="translate(236.221 326.246)"><g transform="translate(0 1.83)"><line class="a" x1="22.366" y1="19.827"/></g><line class="a" x2="22.366"/></g><g transform="translate(236.221 349.669)"><g transform="translate(0 1.83)"><line class="a" y1="19.827" x2="22.366"/></g><line class="a" x1="22.366"/></g><g transform="translate(236.221 256.032)"><g transform="translate(0 1.83)"><line class="a" y1="19.827" x2="22.366"/></g><line class="a" x2="22.366"/></g><g transform="translate(236.221 279.437)"><g transform="translate(0 1.83)"><line class="a" x1="22.366" y1="19.827"/></g><line class="a" x2="22.366"/></g><g transform="translate(236.221 209.223)"><g transform="translate(0 1.83)"><line class="a" y1="19.827" x2="22.366"/></g><line class="a" x2="22.366"/></g><g transform="translate(236.221 232.628)"><g transform="translate(0 1.83)"><line class="a" x1="22.366" y1="19.827"/></g><line class="a" x2="22.366"/></g><g transform="translate(236.221 162.414)"><g transform="translate(0 1.83)"><line class="a" y1="19.827" x2="22.366"/></g><line class="a" x2="22.366"/></g><g transform="translate(236.221 185.819)"><g transform="translate(0 1.83)"><line class="a" x1="22.366" y1="19.827"/></g><line class="a" x2="22.366"/></g><g transform="translate(236.221 115.605)"><g transform="translate(0 1.83)"><line class="a" y1="19.827" x2="22.366"/></g><line class="a" x2="22.366"/></g><g transform="translate(236.221 139.01)"><g transform="translate(0 1.83)"><line class="a" x1="22.366" y1="19.827"/></g><line class="a" x2="22.366"/></g><g transform="translate(236.221 68.796)"><g transform="translate(0 1.83)"><line class="a" y1="19.827" x2="22.366"/></g><line class="a" x2="22.366"/></g><g transform="translate(236.221 92.201)"><g transform="translate(0 1.83)"><line class="a" x1="22.366" y1="19.827"/></g><line class="a" x2="22.366"/></g><g transform="translate(236.221 24.774)"><g transform="translate(0 1.83)"><line class="a" y1="19.827" x2="22.366"/></g><line class="a" x2="22.366"/></g><path class="a" d="M2371.325,1056.73V708.624l-11.183-24.774-11.183,24.774V1056.73" transform="translate(-2112.738 -683.85)"/><path class="b" d="M2344.392,1108.851l-35.066,8.363v7.169h92.5v-7.169l-35.066-8.363v-2.645h-22.366Z" transform="translate(-2108.171 -732.519)"/><g transform="translate(0 46.431)"><g transform="translate(330.302)"><g transform="translate(1.83 8.739)"><line class="a" x1="12.08" y2="13.627"/></g><line class="a" y1="22.366"/></g><g transform="translate(214.564)"><line class="a" y1="22.366" x2="19.827"/><line class="a" y1="22.366" transform="translate(21.657)"/></g><g transform="translate(191.207)"><line class="a" x2="19.827" y2="22.366"/><line class="a" y2="22.366" transform="translate(21.657)"/></g><g transform="translate(167.85)"><line class="a" y1="22.366" x2="19.827"/><line class="a" y1="22.366" transform="translate(21.657)"/></g><g transform="translate(144.493)"><line class="a" x2="19.827" y2="22.366"/><line class="a" y2="22.366" transform="translate(21.657)"/></g><g transform="translate(121.136)"><line class="a" y1="22.366" x2="19.827"/><line class="a" y1="22.366" transform="translate(21.657)"/></g><g transform="translate(97.779)"><line class="a" x2="19.827" y2="22.366"/><line class="a" y2="22.366" transform="translate(21.657)"/></g><g transform="translate(74.422)"><line class="a" y1="22.366" x2="19.827"/><line class="a" y1="22.366" transform="translate(21.657)"/></g><g transform="translate(51.065)"><line class="a" x2="19.827" y2="22.366"/><line class="a" y2="22.366" transform="translate(21.657)"/></g><g transform="translate(27.708)"><line class="a" y1="22.366" x2="19.827"/><line class="a" y1="22.366" transform="translate(21.657)"/></g><g transform="translate(258.587)"><g transform="translate(1.83)"><line class="a" x1="19.827" y2="22.366"/></g><line class="a" y2="22.366"/></g><g transform="translate(282.449)"><g transform="translate(1.83)"><line class="a" x1="19.827" y1="22.366"/></g><line class="a" y1="22.366"/></g><g transform="translate(305.848)"><g transform="translate(1.83)"><line class="a" x1="19.827" y2="22.366"/></g><line class="a" y2="22.366"/></g><path class="a" d="M2150.352,758.693h-68.379l28.321-22.365h304.569l30.219,22.365Z" transform="translate(-2081.972 -736.328)"/><path class="a" d="M2111.706,760.007l-12.161-12.278v12.278" transform="translate(-2083.997 -737.641)"/><line class="a" y2="13.627" transform="translate(344.212 8.739)"/></g><g transform="translate(236.341 10.573)"><line class="a" y1="14.028" x2="15.49" transform="translate(0 0.174)"/><line class="a" x1="15.321" y1="13.875" transform="translate(6.72)"/></g><rect class="a" width="57.722" height="8.576" transform="translate(18.928 307.549)"/><circle class="b" cx="4.649" cy="4.649" r="4.649" transform="translate(43.14 276.697)"/><g transform="translate(22.815 293.051)"><path class="a" d="M2157.708,1029.566l-23.287-13.5a1.811,1.811,0,0,0-2.772-.516l-23.89,14.015" transform="translate(-2107.759 -1015.068)"/></g><path class="a" d="M2135.688,1007.71a2.8,2.8,0,0,1-.7,3.034c-2.217,2.218.058,5.733,3.51,3.091" transform="translate(-2087.98 -721.169)"/><line class="a" x1="22.366" y1="22.366" transform="translate(232.24 46.431)"/></g><g transform="translate(860.08 529.239)"><path class="b" d="M1834.462,1019.15h-99.456V977.092h99.456Zm-90.133-10.978h9.319m62.172,0h9.319m-80.81-10.051h9.319m62.172,0h9.319m-80.81-10.051h9.319m8.553,0h9.319m8.554,0h9.319m8.553,0h9.32m8.553,0h9.319m-22.412,31.08h-33.151v-14.292h33.151ZM1763.6,998.121h42.269m-26.4,12.419v8.61m12.4-8.61v8.61m23.953-42.057H1757.3V961.651h58.515Zm-16.939-15.442h-23.506L1779.7,948.7h14.86Zm-54.552,15.442V931.863m-3.6,20.078h5.58c1.024,0,1.854,1.448,1.854,3.236s-.83,3.237-1.854,3.237m-5.58-20.7h5.58c1.024,0,1.854,1.448,1.854,3.236s-.83,3.236-1.854,3.236" transform="translate(-1655.18 -931.863)"/><g transform="translate(0 87.287)"><path class="a" d="M1815.981,1030.518H1715.87a29.04,29.04,0,0,0-17.594,5.937l-11.029,8.4a29.044,29.044,0,0,1-17.594,5.936h-24.87" transform="translate(-1644.783 -1030.518)"/></g><g transform="translate(96.739 87.287)"><path class="b" d="M1754.122,1063.056l13.213-32.538h42.134l13.213,32.538" transform="translate(-1754.122 -1030.518)"/><line class="b" x2="47.996" transform="translate(10.282 7.187)"/><line class="b" x2="54.736" transform="translate(6.912 15.451)"/><line class="b" x2="61.476" transform="translate(3.542 23.714)"/><line class="b" x2="68.561" transform="translate(0 32.538)"/></g></g><g transform="translate(1126.765 639.289)"><line class="a" y2="4.253" transform="translate(12.963 4.253)"/><line class="a" y2="8.506" transform="translate(6.481)"/><line class="a" y1="4.253" transform="translate(0 4.253)"/></g><g transform="translate(1146.692 623.24)"><path class="a" d="M1978.189,1038.107a9.466,9.466,0,1,1-9.465,9.467A9.467,9.467,0,0,1,1978.189,1038.107Z" transform="translate(-1968.724 -1038.107)"/><path class="a" d="M1978.171,1050.572h-1.154c-1.747,0-3.165-1.817-3.165-4.062" transform="translate(-1969.315 -1039.075)"/><path class="a" d="M1979.422,1053.461h1.308a3.137,3.137,0,0,0,3.138-3.136" transform="translate(-1969.957 -1039.515)"/><line class="a" y1="20.932" transform="translate(9.465 4.24)"/></g><g transform="translate(1203.503 496.24)"><path class="h" d="M2040.568,899.965a3.272,3.272,0,1,1-3.272-3.272A3.264,3.264,0,0,1,2040.568,899.965Z" transform="translate(-2033.059 -894.811)"/><path class="h" d="M2040.984,897.621l1.172-3.056-2.709,2.269" transform="translate(-2033.684 -894.566)"/><path class="h" d="M2034.106,897.621l-1.172-3.056,2.709,2.269" transform="translate(-2032.934 -894.566)"/><path class="h" d="M2047.972,910.878s3.233,1.628,4.922-.68c1.959-2.677-2.077-4.74.03-7.338" transform="translate(-2034.667 -895.521)"/><path class="h" d="M2035.716,904.5v5.817a1.4,1.4,0,0,0-1.542,1.336c0,1.105.4,1.351,1.621,1.351h4.421" transform="translate(-2033.077 -895.711)"/><path class="h" d="M2040.49,902.844c2.1,0,6.819,4.54,6.626,7.951" transform="translate(-2033.805 -895.52)"/><path class="h" d="M2041.958,908.961a2.166,2.166,0,0,0-1.969,2.1v.689a2,2,0,0,0,2.216,2.09h2.691c1.737,0,2.154-.33,2.154-1.977" transform="translate(-2033.747 -896.225)"/></g><g transform="translate(1251.8 631.091)"><path class="a" d="M2087.521,1064.865l1.666-3.455,1.014-4.179,2.364,3.273.8,4.855" transform="translate(-2087.521 -1048.161)"/><line class="a" y2="4.687" transform="translate(2.711 3.761)"/><path class="a" d="M2095.222,1049.738l-4.4,2.5,2.461,1.6,3.711-.448" transform="translate(-2087.902 -1047.298)"/><circle class="a" cx="1.384" cy="1.384" r="1.384" transform="translate(0.435)"/></g><g transform="translate(1326.418 630.563)"><path class="a" d="M2183.207,1065.368l-2.27-3.579-1.932-5.431-.51,3.894v4.855" transform="translate(-2172.622 -1047.532)"/><line class="a" y2="4.687" transform="translate(6.383 4.139)"/><path class="a" d="M2178.03,1051.486l-2.461,1.6-3.711-.448" transform="translate(-2171.857 -1046.971)"/><circle class="a" cx="1.384" cy="1.384" r="1.384" transform="translate(5.216)"/></g><path class="a" d="M2255.032,1194.222h96.4a28.383,28.383,0,0,0,20.069-8.313h0a28.383,28.383,0,0,1,20.069-8.313h29.67" transform="translate(-855.024 -430.94)"/><g transform="translate(801.957 714.195)"><g transform="translate(4.66 7.034)"><line class="a" y1="3.1" transform="translate(0 3.101)"/><line class="a" y2="3.1" transform="translate(4.725 3.101)"/><line class="a" y2="6.201" transform="translate(9.45)"/><line class="a" y2="3.1" transform="translate(14.175 3.101)"/><line class="a" y1="3.1" transform="translate(19.447 3.101)"/></g><path class="a" d="M1720.18,1140.908h-85.171a23.944,23.944,0,0,0-16.929,7.012h0a23.94,23.94,0,0,1-16.929,7.013H1579.09" transform="translate(-1579.09 -1140.908)"/></g><g transform="translate(856.51 661.302)"><rect class="b" width="66.474" height="39.921" transform="translate(2.888 12.781)"/><path class="a" d="M1659.523,1106.2v5.871m13.431-5.871v5.871m13.431-5.871v5.871m13.431-5.871v5.871m-40.292,9.36v5.871m13.431-5.871v5.871m13.431-5.871v5.871m13.431-5.871v5.871" transform="translate(-1642.911 -1084.015)"/><path class="b" d="M1645.715,1081.126h62.316l4.966,12.781h-72.249Z" transform="translate(-1640.748 -1081.126)"/></g><g transform="translate(1282.136 681.669)"><path class="b" d="M2169.223,1193.008l-42.16-.167v-51.8h42.16Z" transform="translate(-2122.413 -1108.396)"/><g transform="translate(14.074 42.45)"><line class="b" y1="5.387" transform="translate(22.916 13.378)"/><line class="b" y1="5.387" transform="translate(11.458 13.378)"/><line class="b" y1="5.387" transform="translate(0 13.378)"/><line class="b" y1="5.387" transform="translate(22.916)"/><line class="b" y1="5.387" transform="translate(11.458)"/><line class="b" y1="5.387"/><line class="b" y1="5.387" transform="translate(22.916 26.756)"/><line class="b" y1="5.387" transform="translate(11.458 26.756)"/><line class="b" y1="5.387" transform="translate(0 26.756)"/></g><path class="b" d="M2189.151,1104.145v20.5m-4.362,15.749V1135m10.55,0v5.392m-10.55,29.242v-5.392m10.55,0v5.392m-10.55-14.073v-5.391m10.55,0v5.391m0,24.094v5.392m4.266,17.037a13.507,13.507,0,0,1-9.355-3.764l-6.181-5.935a13.506,13.506,0,0,0-9.355-3.764h0v-63.263h30.914v76.725Z" transform="translate(-2127.904 -1104.145)"/><line class="b" x1="23.546" transform="translate(78.218 98.075)"/><line class="b" x2="10.463" transform="translate(0 84.612)"/></g><g transform="translate(1102.922 748.178)"><path class="b" d="M1929.365,1179.317a10.113,10.113,0,1,1-10.112,10.115A10.116,10.116,0,0,1,1929.365,1179.317Z" transform="translate(-1919.253 -1179.317)"/><path class="b" d="M1929.345,1192.635h-1.233c-1.866,0-3.382-1.941-3.382-4.34" transform="translate(-1919.884 -1180.352)"/><path class="b" d="M1930.682,1195.721h1.4a3.351,3.351,0,0,0,3.353-3.351" transform="translate(-1920.57 -1180.821)"/><line class="b" y1="22.364" transform="translate(10.112 4.53)"/></g><g transform="translate(1036.596 767.385)"><line class="a" y2="3.313" transform="translate(0 3.313)"/><line class="a" y2="6.625" transform="translate(5.048)"/><line class="a" y2="3.313" transform="translate(10.097 3.313)"/></g><g transform="translate(1105.47 803.745)"><line class="a" y2="3.313" transform="translate(0 3.313)"/><line class="a" y2="6.625" transform="translate(5.048)"/><line class="a" y2="3.313" transform="translate(10.097 3.313)"/></g><g transform="translate(882.6 762.115)"><path class="a" d="M1930.977,1208.026H1745.871a18.893,18.893,0,0,1-11.837-4.166l-5.754-4.624a18.894,18.894,0,0,0-11.836-4.166h-46.209" transform="translate(-1670.236 -1195.069)"/></g><g transform="translate(1056.914 713.857)"><rect class="b" width="34.577" height="61.215"/><g transform="translate(7.029 8.995)"><line class="a" y2="4.429" transform="translate(19.756)"/><line class="a" y2="4.429" transform="translate(9.878)"/><line class="a" y2="4.429"/><line class="a" y2="4.429" transform="translate(19.756 12.592)"/><line class="a" y2="4.429" transform="translate(9.878 12.592)"/><line class="a" y2="4.429" transform="translate(0 12.592)"/><line class="a" y2="4.429" transform="translate(19.756 25.183)"/><line class="a" y2="4.429" transform="translate(9.878 25.183)"/><line class="a" y2="4.429" transform="translate(0 25.183)"/><rect class="a" width="9.004" height="12.892" transform="translate(14.51 52.221) rotate(-180)"/></g></g><g transform="translate(985.179 743.909)"><path class="b" d="M1797.892,1174.492a11.719,11.719,0,1,1-11.717,11.72A11.721,11.721,0,0,1,1797.892,1174.492Z" transform="translate(-1786.175 -1174.492)"/><path class="b" d="M1797.869,1189.924h-1.428c-2.162,0-3.919-2.25-3.919-5.029" transform="translate(-1786.906 -1175.691)"/><path class="b" d="M1799.418,1193.5h1.62a3.884,3.884,0,0,0,3.885-3.883" transform="translate(-1787.701 -1176.235)"/><line class="b" y1="25.913" transform="translate(11.717 5.249)"/></g><line class="a" y2="3.313" transform="translate(1073.247 807.058)"/><path class="a" d="M1981.34,1258.948c3.043,0,5.511-1.908,5.511-4.951,0,3.044,2.467,4.951,5.51,4.951s5.511-1.908,5.511-4.951c0,3.044,2.467,4.951,5.509,4.951s5.511-1.908,5.511-4.951" transform="translate(-823.485 -439.744)"/><path class="a" d="M2012.481,1254c0,3.044,2.467,4.951,5.509,4.951s5.511-1.908,5.511-4.951c0,3.044,2.467,4.951,5.509,4.951s5.511-1.908,5.511-4.951c0,3.044,2.467,4.951,5.51,4.951s5.511-1.908,5.511-4.951c0,3.044,2.467,4.951,5.508,4.951s5.511-1.908,5.511-4.951" transform="translate(-827.074 -439.744)"/><path class="a" d="M2062.3,1254c0,3.044,2.467,4.951,5.51,4.951s5.511-1.908,5.511-4.951c0,3.044,2.467,4.951,5.51,4.951s5.511-1.908,5.511-4.951" transform="translate(-832.815 -439.744)"/><path class="a" d="M2087.215,1254c0,3.044,2.467,4.951,5.508,4.951s5.511-1.908,5.511-4.951c0,3.044,2.467,4.951,5.51,4.951s5.511-1.908,5.511-4.951c0,3.044,2.467,4.951,5.51,4.951s5.511-1.908,5.511-4.951c0,3.044,2.467,4.951,5.509,4.951" transform="translate(-835.686 -439.744)"/><path class="a" d="M1738.808,1258.948c3.043,0,5.511-1.908,5.511-4.951,0,3.044,2.467,4.951,5.51,4.951s5.51-1.908,5.51-4.951c0,3.044,2.467,4.951,5.51,4.951s5.511-1.908,5.511-4.951c0,3.044,2.467,4.951,5.509,4.951s5.511-1.908,5.511-4.951" transform="translate(-795.538 -439.744)"/><path class="a" d="M1782.4,1254c0,3.044,2.467,4.951,5.509,4.951s5.51-1.908,5.51-4.951c0,3.044,2.467,4.951,5.51,4.951s5.511-1.908,5.511-4.951" transform="translate(-800.561 -439.744)"/><path class="a" d="M1807.315,1254c0,3.044,2.467,4.951,5.51,4.951s5.511-1.908,5.511-4.951c0,3.044,2.467,4.951,5.51,4.951s5.51-1.908,5.51-4.951c0,3.044,2.467,4.951,5.51,4.951s5.511-1.908,5.511-4.951c0,3.044,2.467,4.951,5.509,4.951" transform="translate(-803.432 -439.744)"/><path class="a" d="M1893.078,1283.521c3.043,0,5.511-1.907,5.511-4.95,0,3.044,2.467,4.95,5.509,4.95s5.511-1.907,5.511-4.95c0,3.044,2.467,4.95,5.51,4.95s5.511-1.907,5.511-4.95c0,3.044,2.467,4.95,5.509,4.95s5.51-1.907,5.51-4.95" transform="translate(-813.315 -442.576)"/><path class="a" d="M1936.673,1278.571c0,3.044,2.468,4.95,5.51,4.95s5.511-1.907,5.511-4.95c0,3.044,2.467,4.95,5.509,4.95s5.511-1.907,5.511-4.95" transform="translate(-818.338 -442.576)"/><path class="a" d="M1961.585,1278.571c0,3.044,2.467,4.95,5.51,4.95s5.51-1.907,5.51-4.95c0,3.044,2.468,4.95,5.51,4.95s5.511-1.907,5.511-4.95c0,3.044,2.467,4.95,5.51,4.95s5.511-1.907,5.511-4.95c0,3.044,2.467,4.95,5.509,4.95" transform="translate(-821.209 -442.576)"/><path class="a" d="M1697.489,1185.924s-18.866-2.474,0-27.224C1697.489,1158.7,1716.463,1182.158,1697.489,1185.924Zm4.2-10.748a3.3,3.3,0,0,1-3.306,3.3h-.893m-3.8-.637a3,3,0,0,0,3.006,3h.8m-3.262-10.22a3.261,3.261,0,0,0,3.262,3.26m0,17V1165.91" transform="translate(-789.81 -428.763)"/></g></svg>