<svg xmlns="http://www.w3.org/2000/svg" width="811.042" height="646.068"><defs><style>.a,.h{fill:none}.a,.b,.h{stroke:#0073ff;stroke-linecap:round;stroke-linejoin:round}.a,.b{stroke-width:3px}.b{fill:#fff}.c{fill:#0073ff}.h{stroke-width:2.4px}</style></defs><path class="a" d="M687.256 566.904v-4.049m-6.17 0v4.049m-6.17-8.1v8.1m-6.171 0v-4.049m-6.884 4.049v-4.049m-6.522-15.837h-37.82l18.3-19.705zm-35.385.001h31.733v19.885h-31.733zm10.519 8.245h10.928m12.75-192.736v19.766m-19.16 58.534h-4.91m2.376-23.111l-10.734 12.588h21.467zm-22.464-2.606l11.943-10.836v5.74m21.255-12.374v-5.744m10.714 0v5.744m-10.714 17.472v-5.744m10.714 0v5.744m0 11.728v5.744m-32.181 18.921h21.465v-21.2h-21.465zm10.733-56.658h-22.282v27.43m55.744 29.227v-69.211h-33.461v36.529m-3.89 3.456h-40.715v29.227m12.092-17.844v5.255m11.034-5.255v5.255m62.259 13.105H536.546M75.309 433.318h6.061l-6.526-8.975 5.239-.058-8.037-11.061-8.037 11.061 5.24.058-6.527 8.975H75.31zm-3.264 0v7.102m220.699 170.26h5.49l-5.911-8.129 4.745-.053-7.28-10.018-7.28 10.018 4.745.053-5.911 8.129h11.4zm-2.956 0v4.625"/><path class="a" d="M259.616 615.306s51.092-.076 57.207-.065a40.388 40.388 0 0028.634-11.826l1.718-1.718a40.375 40.375 0 0128.552-11.827h103.585"/><path class="b" d="M380.059 557.621h82.437v32.155h-82.437z"/><path class="a" d="M416.909 566.422v4.525m-8.737-4.525v4.525m-8.737-4.525v4.525m-8.737-4.525v4.525m34.949-4.525v4.525m8.737-4.525v4.525m8.737-4.525v4.525m8.737-4.525v4.525m-34.949 7.613v4.525m-8.737-4.525v4.525m-8.737-4.525v4.525m-8.737-4.525v4.525m34.949-4.525v4.525m8.737-4.525v4.525m8.737-4.525v4.525m8.737-4.525v4.525M491.02 1.5v12.622m0 74.083v12.622m16.203-88.782l-2.028 4.897m-30.379 73.341l2.028-4.897m51.217-34.222h12.622m-86.705 0h-12.622m75.856-26.193l8.925-8.925m-61.31 61.31l-8.925 8.925m61.31-8.925l8.925 8.925m-61.31-61.31l-8.925-8.925m74.237 51.321l-4.897-2.028M451.901 34.96l4.897 2.028m68.444 0l4.897-2.028m-78.238 32.407l4.897-2.028m48.397 20.047l2.028 4.897m-32.407-78.238l2.028 4.897"/><g transform="translate(467.073 27.18)"><circle class="a" cx="23.751" cy="23.751" r="23.751"/><path class="a" d="M36.16 19.241a6.879 6.879 0 11-13.757 0zm-17.913 0a6.879 6.879 0 11-13.757 0zm0 0h4.156m13.757 0h11.681a4.154 4.154 0 014.153 4.153M26.222 35.469a8.334 8.334 0 01-11.787 0"/></g><path class="a" d="M51.136 222.221a11.628 11.628 0 0011.594 11.594h41.811a11.595 11.595 0 000-23.189h-3.006a15.824 15.824 0 00-29.5-7.734 10.6 10.6 0 00-9.214 7.734h-.089a11.629 11.629 0 00-11.596 11.595zm109.938-67.848c9.368-1.577 14.18 4.426 14.18 4.426a15.557 15.557 0 0114.18-4.426m-29.492 19.999a9.181 9.181 0 00-8.367 2.612 8.929 8.929 0 00-8.367-2.612m133.932-11.934a11.912 11.912 0 0111.877-11.876h5.24a11.377 11.377 0 012.553-5.754 10.624 10.624 0 00-6.226-2.023h-.081a9.794 9.794 0 00-8.512-7.144 14.617 14.617 0 00-27.253 7.144h-2.778a10.711 10.711 0 000 21.422h25.325a11.781 11.781 0 01-.145-1.769z"/><path class="a" d="M361.51 162.438a11.912 11.912 0 01-11.877 11.876h-60.619a11.877 11.877 0 110-23.753h5.24a11.31 11.31 0 0113.012-9.709 16.206 16.206 0 0129.855 2.01 9.259 9.259 0 018.837 7.7h3.675a11.911 11.911 0 0111.877 11.876z"/><g transform="translate(151.427 216.197)"><path class="c" d="M62.559 0h327.788a36.227 36.227 0 0136.227 36.227v228.978H26.332V36.227A36.227 36.227 0 0162.559 0z"/><path stroke-width="9" fill="#fff" stroke-linecap="round" stroke-linejoin="round" stroke="#0073ff" d="M57.673 38.977h338.801v200.234H57.673z"/><path class="c" d="M115.82 203.319l-16.147-7.365v-2.8l16.147-7.728v4.114l-11.514 4.927v.1l11.514 4.634zm20.539-23.703l-12.084 28.907h-4.876l12.033-28.907zm20.193 16.113l-16.147 7.365v-4.1l11.549-4.616v-.07l-11.549-4.944v-4.115l16.147 7.676zM115.82 81.334l-16.147-7.365v-2.8l16.147-7.728v4.114l-11.514 4.927v.1l11.514 4.633zm26.695-7.59l-16.148 7.365v-4.1l11.549-4.616v-.069l-11.549-4.945v-4.112l16.148 7.676z"/><path d="M101.561 104.488h198.366m-198.366 18.443H313.97m-212.409 20.516h202.315M101.561 161.54H271.04" stroke-width="9" fill="#e5f1ff" stroke="#0073ff" stroke-linecap="round" stroke-linejoin="round"/><circle cx="6.176" cy="6.176" r="6.176" transform="translate(220.277 15.62)" fill="#fff"/><path class="c" d="M428.948 323.737H23.958A23.958 23.958 0 010 299.776v-9.9a13.837 13.837 0 0113.837-13.839h180.03v1.724a10.161 10.161 0 0010.149 10.149h44.874a10.161 10.161 0 0010.149-10.149v-1.724h180.03a13.837 13.837 0 0113.837 13.837v9.9a23.958 23.958 0 01-23.958 23.963z"/></g><g transform="translate(446.434 113.428)"><path stroke="#fff" fill="#0073ff" stroke-width="3" stroke-linecap="round" stroke-linejoin="round" d="M50.303 278.348h-5.026V68.797h5.026z"/><path class="a" d="M236.221 324.498l22.366-19.827m-22.366-1.83h22.366m0 45.062l-22.366-19.827m0-1.83h22.366m-22.366 45.08l22.366-19.827m0-1.83h-22.366m0-71.98l22.366-19.827m-22.366-1.83h22.366m0 45.062l-22.366-19.827m0-1.83h22.366m-22.366-48.557l22.366-19.827m-22.366-1.83h22.366m0 45.062l-22.366-19.827m0-1.83h22.366m-22.366-48.557l22.366-19.827m-22.366-1.83h22.366m0 45.062l-22.366-19.827m0-1.83h22.366m-22.366-48.557l22.366-19.827m-22.366-1.83h22.366m0 45.062l-22.366-19.827m0-1.83h22.366m-22.366-48.557l22.366-19.827m-22.366-1.83h22.366m0 45.062l-22.366-19.827m0-1.83h22.366m-22.366-45.77l22.366-19.827m-22.366-1.83h22.366m0 348.106V24.774L247.404 0l-11.183 24.774V372.88"/><path class="b" d="M236.221 376.332l-35.066 8.363v7.169h92.5v-7.169l-35.066-8.363v-2.645h-22.366z"/><path class="a" d="M344.212 55.17l-12.08 13.627m-1.83 0V46.431M214.564 68.797l19.827-22.366m1.83 22.366V46.431m-45.014 0l19.827 22.366m1.83-22.366v22.366m-45.014 0l19.827-22.366m1.83 22.366V46.431m-45.014 0l19.827 22.366m1.83-22.366v22.366m-45.014 0l19.827-22.366m1.83 22.366V46.431m-45.014 0l19.827 22.366m1.83-22.366v22.366m-45.014 0l19.827-22.366m1.83 22.366V46.431m-45.014 0l19.827 22.366m1.83-22.366v22.366m-45.014 0l19.827-22.366m1.83 22.366V46.431m230.879 0l-19.827 22.366m-1.83-22.366v22.366m45.519 0l-19.827-22.366m-1.83 22.366V46.431m45.056 0l-19.827 22.366m-1.83-22.366v22.366M68.38 68.796H.001l28.321-22.365h304.569l30.219 22.365z"/><path class="a" d="M27.709 68.797L15.548 56.519v12.278M344.212 55.17v13.627M236.341 24.775l15.49-14.028m6.551 13.701l-15.321-13.875M18.928 307.549H76.65v8.576H18.928z"/><circle class="b" cx="4.649" cy="4.649" r="4.649" transform="translate(43.14 276.697)"/><path class="a" d="M72.764 307.549l-23.287-13.5a1.811 1.811 0 00-2.772-.516l-23.89 14.015"/><path class="a" d="M47.708 286.541a2.8 2.8 0 01-.7 3.034c-2.217 2.218.058 5.733 3.51 3.091M254.606 68.797L232.24 46.431"/></g><path class="b" d="M238.905 420.149h-99.456v-42.058h99.456zm-90.133-10.978h9.319m62.172 0h9.319m-80.81-10.051h9.319m62.172 0h9.319m-80.81-10.051h9.319m8.553 0h9.319m8.554 0h9.319m8.553 0h9.32m8.553 0h9.319m-22.412 31.08h-33.151v-14.292h33.151zm-39.126-21.029h42.269m-26.4 12.419v8.61m12.4-8.61v8.61m23.953-42.057h-58.522V362.65h58.515zm-16.939-15.442H179.82l4.323-12.951h14.86zm-54.552 15.442v-45.23m-3.6 20.078h5.58c1.024 0 1.854 1.448 1.854 3.236s-.83 3.237-1.854 3.237m-5.58-20.7h5.58c1.024 0 1.854 1.448 1.854 3.236s-.83 3.236-1.854 3.236"/><path class="a" d="M230.821 420.149H130.71a29.04 29.04 0 00-17.594 5.937l-11.029 8.4a29.044 29.044 0 01-17.594 5.936h-24.87"/><path class="b" d="M156.362 452.687l13.213-32.538h42.134l13.213 32.538m-58.278-25.351h47.996m-51.366 8.264h54.736m-58.106 8.263h61.476m-65.018 8.824h68.561"/><path class="a" d="M339.271 447.165v4.253m-6.482-8.506v8.506m-6.481 0v-4.253m29.392-20.302a9.466 9.466 0 11-9.465 9.467 9.467 9.467 0 019.465-9.467z"/><path class="a" d="M355.091 438.36h-1.154c-1.747 0-3.165-1.817-3.165-4.062m4.928 6.511h1.308a3.137 3.137 0 003.138-3.136m-4.446 14.362v-20.932"/><path class="h" d="M410.555 305.017a3.272 3.272 0 11-3.272-3.272 3.264 3.264 0 013.272 3.272z"/><path class="h" d="M410.346 302.918l1.172-3.056-2.709 2.269m-4.591.787l-1.172-3.056 2.709 2.269m10.596 13.089s3.233 1.628 4.922-.68c1.959-2.677-2.077-4.74.03-7.338m-15.618 1.45v5.817a1.4 1.4 0 00-1.542 1.336c0 1.105.4 1.351 1.621 1.351h4.421m-.454-9.969c2.1 0 6.819 4.54 6.626 7.951"/><path class="h" d="M411.257 312.599a2.166 2.166 0 00-1.969 2.1v.689a2 2 0 002.216 2.09h2.691c1.737 0 2.154-.33 2.154-1.977"/><g transform="translate(451.343 434.714)"><path class="a" d="M0 16.704l1.666-3.455L2.68 9.07l2.364 3.273.8 4.855M2.711 3.761v4.687M7.32 2.44l-4.4 2.5 2.461 1.6 3.711-.448"/><circle class="a" cx="1.384" cy="1.384" r="1.384" transform="translate(.435)"/></g><g transform="translate(525.961 434.186)"><path class="a" d="M10.585 17.836l-2.27-3.579-1.932-5.431-.51 3.894v4.855m.51-13.436v4.687m-.21-4.311l-2.461 1.6-3.711-.448"/><circle class="a" cx="1.384" cy="1.384" r="1.384" transform="translate(5.216)"/></g><path class="a" d="M599.551 566.905h96.4a28.383 28.383 0 0020.069-8.313 28.383 28.383 0 0120.069-8.313h29.67M6.16 531.053v-3.1m4.725 0v3.1m4.725-6.201v6.201m4.725-3.1v3.1m5.272 0v-3.1m116.983-10.135H57.419a23.944 23.944 0 00-16.929 7.012 23.94 23.94 0 01-16.929 7.013H1.5"/><path class="b" d="M58.941 477.706h66.474v39.921H58.941z"/><path class="a" d="M72.665 487.11v5.871m13.431-5.871v5.871m13.431-5.871v5.871m13.431-5.871v5.871m-40.292 9.36v5.871m13.431-5.871v5.871m13.431-5.871v5.871m13.431-5.871v5.871"/><path class="b" d="M61.02 464.925h62.316l4.966 12.781H56.053zm467.469 104.979l-42.16-.167v-51.8h42.16zm-9.82-23.397v-5.387m-11.458 5.387v-5.387m-11.458 5.387v-5.387m22.916-7.991v-5.387m-11.458 5.387v-5.387m-11.458 5.387v-5.387m22.916 32.143v-5.387m-11.458 5.387v-5.387m-11.458 5.387v-5.387"/><path class="b" d="M542.926 485.292v20.5m-4.362 15.749v-5.394m10.55 0v5.392m-10.55 29.242v-5.392m10.55 0v5.392m-10.55-14.073v-5.391m10.55 0v5.391m0 24.094v5.392m4.266 17.037a13.507 13.507 0 01-9.355-3.764l-6.181-5.935a13.506 13.506 0 00-9.355-3.764v-63.263h30.914v76.725zm30.063.136h-23.546m-78.218-13.463h10.463m-179.565-18.103a10.113 10.113 0 11-10.112 10.115 10.116 10.116 0 0110.112-10.115z"/><path class="b" d="M311.926 564.084h-1.233c-1.866 0-3.382-1.941-3.382-4.34m5.266 6.957h1.4a3.351 3.351 0 003.353-3.351m-4.753 15.345v-22.364"/><path class="a" d="M236.139 574.321v3.313m5.048-6.626v6.625m5.049-3.312v3.313m58.777 33.047v3.313m5.048-6.626v6.625m5.049-3.312v3.313m27.774-35.299H157.778a18.893 18.893 0 01-11.837-4.166l-5.754-4.624a18.894 18.894 0 00-11.836-4.166H82.142"/><path class="b" d="M256.457 517.48h34.577v61.215h-34.577z"/><path class="a" d="M283.242 526.475v4.429m-9.878-4.429v4.429m-9.878-4.429v4.429m19.756 8.163v4.429m-9.878-4.429v4.429m-9.878-4.429v4.429m19.756 8.162v4.429m-9.878-4.429v4.429m-9.878-4.429v4.429m14.51 22.609h-9.004v-12.892h9.004z"/><path class="b" d="M196.439 547.532a11.719 11.719 0 11-11.717 11.72 11.721 11.721 0 0111.717-11.72z"/><path class="b" d="M195.685 561.765h-1.428c-2.162 0-3.919-2.25-3.919-5.029m6.101 8.061h1.62a3.884 3.884 0 003.885-3.883m-5.505 17.78v-25.913"/><path class="a" d="M272.79 610.681v3.313m84.608 8.833c3.043 0 5.511-1.908 5.511-4.951 0 3.044 2.467 4.951 5.51 4.951s5.511-1.908 5.511-4.951c0 3.044 2.467 4.951 5.509 4.951s5.511-1.908 5.511-4.951"/><path class="a" d="M384.95 617.879c0 3.044 2.467 4.951 5.509 4.951s5.511-1.908 5.511-4.951c0 3.044 2.467 4.951 5.509 4.951s5.511-1.908 5.511-4.951c0 3.044 2.467 4.951 5.51 4.951s5.511-1.908 5.511-4.951c0 3.044 2.467 4.951 5.508 4.951s5.511-1.908 5.511-4.951"/><path class="a" d="M429.028 617.879c0 3.044 2.467 4.951 5.51 4.951s5.511-1.908 5.511-4.951c0 3.044 2.467 4.951 5.51 4.951s5.511-1.908 5.511-4.951m.002 0c0 3.044 2.467 4.951 5.508 4.951s5.511-1.908 5.511-4.951c0 3.044 2.467 4.951 5.51 4.951s5.511-1.908 5.511-4.951c0 3.044 2.467 4.951 5.51 4.951s5.511-1.908 5.511-4.951c0 3.044 2.467 4.951 5.509 4.951m-346.829-.003c3.043 0 5.511-1.908 5.511-4.951 0 3.044 2.467 4.951 5.51 4.951s5.51-1.908 5.51-4.951c0 3.044 2.467 4.951 5.51 4.951s5.511-1.908 5.511-4.951c0 3.044 2.467 4.951 5.509 4.951s5.511-1.908 5.511-4.951"/><path class="a" d="M181.382 617.879c0 3.044 2.467 4.951 5.509 4.951s5.51-1.908 5.51-4.951c0 3.044 2.467 4.951 5.51 4.951s5.511-1.908 5.511-4.951m.004 0c0 3.044 2.467 4.951 5.51 4.951s5.511-1.908 5.511-4.951c0 3.044 2.467 4.951 5.51 4.951s5.51-1.908 5.51-4.951c0 3.044 2.467 4.951 5.51 4.951s5.511-1.908 5.511-4.951c0 3.044 2.467 4.951 5.509 4.951m37.309 21.738c3.043 0 5.511-1.907 5.511-4.95 0 3.044 2.467 4.95 5.509 4.95s5.511-1.907 5.511-4.95c0 3.044 2.467 4.95 5.51 4.95s5.511-1.907 5.511-4.95c0 3.044 2.467 4.95 5.509 4.95s5.51-1.907 5.51-4.95m.001 0c0 3.044 2.468 4.95 5.51 4.95s5.511-1.907 5.511-4.95c0 3.044 2.467 4.95 5.509 4.95s5.511-1.907 5.511-4.95"/><path class="a" d="M339.919 639.618c0 3.044 2.467 4.95 5.51 4.95s5.51-1.907 5.51-4.95c0 3.044 2.468 4.95 5.51 4.95s5.511-1.907 5.511-4.95c0 3.044 2.467 4.95 5.51 4.95s5.511-1.907 5.511-4.95c0 3.044 2.467 4.95 5.509 4.95m-271.268-83.784s-18.866-2.474 0-27.224c0 0 18.974 23.458 0 27.224zm4.2-10.748a3.3 3.3 0 01-3.306 3.3h-.893m-3.8-.637a3 3 0 003.006 3h.8m-3.262-10.22a3.261 3.261 0 003.262 3.26m0 17V540.77"/></svg>