<svg xmlns="http://www.w3.org/2000/svg" viewBox="0 0 16 16.27"><defs><style>.cls-1{fill:#fff;}</style></defs><title>Asset 1</title><g id="Layer_2" data-name="Layer 2"><g id="Layer_1-2" data-name="Layer 1"><path class="cls-1" d="M6.12,16.27a2.38,2.38,0,0,1-1.51-.49,2.11,2.11,0,0,1-.77-1.7A30,30,0,0,0,3.34,9L3.12,7.82h3.5l.3.38c.06.08,1.61,2.09,1.61,6.16A2.2,2.2,0,0,1,6.12,16.27ZM5.5,9.82a31.89,31.89,0,0,1,.34,4.25.29.29,0,0,0,0,.14c.09.1.48.07.67,0a9.78,9.78,0,0,0-1-4.36Z"/><path class="cls-1" d="M16,11.4,6.09,9V2.38L16,0Zm-7.91-4L14,8.86V2.54L8.09,4Z"/><path class="cls-1" d="M8.33,9.23H3.73A3.74,3.74,0,0,1,0,5.5,3.33,3.33,0,0,1,3.33,2.17h5Zm-5-5.06A1.33,1.33,0,0,0,2,5.5,1.74,1.74,0,0,0,3.73,7.23h2.6V4.17Z"/></g></g></svg>