<svg xmlns="http://www.w3.org/2000/svg" width="15.999" height="16.269" viewBox="0 0 15.999 16.269"><defs><style>.a{fill:none;stroke:#fff;stroke-miterlimit:10;stroke-width:2px;}</style></defs><g transform="translate(430.62 -355.094)"><path class="a" d="M-419.59,375.877c0-3.772-1.4-5.542-1.4-5.542H-422.8a30.18,30.18,0,0,1,.513,5.26C-422.287,377.366-419.59,376.892-419.59,375.877Z" transform="translate(-3.496 -6.42)"/><path class="a" d="M-416.917,363.325l7.912,1.9v-8.861l-7.912,1.9Z" transform="translate(-6.615 0)"/><path class="a" d="M0,0H3.6A2.733,2.733,0,0,1,6.33,2.733v0A2.331,2.331,0,0,1,4,5.064H0a0,0,0,0,1,0,0V0A0,0,0,0,1,0,0Z" transform="translate(-423.29 363.325) rotate(-180)"/></g></svg>