<svg xmlns="http://www.w3.org/2000/svg" width="1282.377" height="151.133"><g data-name="Сгруппировать 4383"><g data-name="Сгруппировать 4370"><g data-name="Сгруппировать 4369" transform="translate(596.779 66.963)"><circle data-name="Эллипс 246" cx="29.967" cy="29.967" r="29.967" transform="translate(11.678 17.322)" fill="#0073ff"/><path data-name="Прямоугольник 921" d="M40.465 10.135h2.36a2.7 2.7 0 012.7 2.7v5.06h-7.76v-5.06a2.7 2.7 0 012.7-2.7z" fill="#0073ff"/><path data-name="Контур 1651" d="M37.765 14.551c.775 0 .775.806 1.55.806s.776-.806 1.551-.806.776.806 1.551.806.777-.806 1.554-.806.777.806 1.553.806" fill="#0073ff" stroke="#fff" stroke-linecap="round" stroke-linejoin="round" stroke-width="1.209"/><path data-name="Контур 1652" d="M25.157 39.795a1.853 1.853 0 001.843.013l2.521 1.474-3.641 1.589a.931.931 0 00.746 1.706l4.88-2.135 2.875 1.681-5.181 2.248a.93.93 0 00-.01 1.7l5.159 2.308-1.46.832-1.437.82-4.852-2.187a.931.931 0 00-.765 1.7l3.625 1.63-2.526 1.441a1.859 1.859 0 10.91 1.621l2.537-1.446-.444 3.948a.931.931 0 001.85.207l.591-5.294 2.471-1.409.518-.295-.667 5.79a.93.93 0 001.469.859l4.377-3.168-.017 3.056-4.272 3.116a.921.921 0 00-.156 1.3.886.886 0 001.26.213l3.16-2.325-.016 2.979a1.866 1.866 0 101.938-.075l.015-2.893 3.222 2.359a.929.929 0 101.1-1.5l-4.307-3.159.018-3.4 4.809 3.557a.93.93 0 001.478-.843L48.2 52.2l2.648 1.548.535 5.3a.931.931 0 001.853-.188l-.4-3.949 2.516 1.47a1.859 1.859 0 10.94-1.6L53.767 53.3l3.644-1.593a.931.931 0 00-.747-1.7l-4.882 2.138-2.747-1.606 5.355-2.327a.93.93 0 00.009-1.7l-5.322-2.381 2.761-1.574 4.856 2.186a.931.931 0 00.763-1.7l-3.622-1.626 2.531-1.443a1.859 1.859 0 10-.919-1.616L52.914 39.8l.442-3.952a.931.931 0 00-1.85-.206l-.589 5.3-2.669 1.521.641-5.614a.93.93 0 00-1.469-.859l-4.847 3.508.018-3.4 4.34-3.112a.93.93 0 10-1.083-1.511L42.6 33.794l.015-2.886a1.853 1.853 0 10-1.936-.114l-.016 2.99-3.138-2.358a.887.887 0 00-1.264.2.922.922 0 00.145 1.3l4.244 3.159-.016 3.056-4.334-3.216a.929.929 0 00-1.478.842l.6 5.808-2.975-1.739-.533-5.3a.931.931 0 00-1.852.187l.4 3.954-2.511-1.468a1.856 1.856 0 10-2.79 1.587zm6.722 7.442l4.49-1.951 3.417 2-3.431 1.956zm5.489 3.563l3.217-1.834-.018 3.234-.005.919-3.771 2.729zm5.132 1.991v-.577l.018-3.331 2.9 1.695.784.458.5 4.87zm4.544-3.418l-3.54-2.07 2.877-1.64.693-.395 4.64 2.076zm-.8-5.773l-.785.447-2.919 1.666.018-3.339v-.576l4.241-3.07zm-5.621-2.156l-.005.919-.018 3.244-2.738-1.6-.458-.268-.523-5.064z" fill="#fff"/></g></g><path data-name="Контур 1645" d="M487.19 67.107a1.526 1.526 0 001.466-.382l2.322.635-2.559 2.041a.766.766 0 00.955 1.194l3.429-2.74 2.647.723-3.637 2.897a.766.766 0 00.355 1.355l4.597.735-.982.973-.969.959-4.33-.703a.767.767 0 00-.245 1.516l3.231.523-1.707 1.685a1.531 1.531 0 101.07 1.096l1.71-1.693.49 3.236a.767.767 0 001.516-.23l-.658-4.338 1.664-1.648.351-.344.708 4.75a.766.766 0 001.354.37l2.806-3.455.64 2.441-2.74 3.384a.76.76 0 00.154 1.067.73.73 0 001.047-.104l2.016-2.522.622 2.374a1.536 1.536 0 101.53-.475l-.603-2.3 3.067 1.19a.766.766 0 10.556-1.427l-4.102-1.592-.712-2.709 4.587 1.806a.766.766 0 00.996-.985l-1.66-4.344 2.439.667 1.555 4.103a.767.767 0 001.434-.546l-1.163-3.057 2.315.634a1.532 1.532 0 10.406-1.48l-2.316-.632 2.558-2.045a.766.766 0 00-.957-1.193l-3.43 2.741-2.528-.692 3.765-2.994a.766.766 0 00-.355-1.355l-4.747-.768 1.86-1.845 4.331.703a.767.767 0 00.245-1.515l-3.228-.516 1.707-1.689a1.531 1.531 0 10-1.075-1.09l-1.71 1.688-.493-3.24a.766.766 0 00-1.515.231l.66 4.34-1.8 1.782-.68-4.606a.767.767 0 00-1.353-.37l-3.113 3.829-.71-2.709 2.788-3.402a.765.765 0 10-1.183-.971l-2.087 2.54-.602-2.3a1.528 1.528 0 10-1.57.323l.625 2.383-2.997-1.213a.731.731 0 00-.959.431.761.761 0 00.392 1.004l4.054 1.605.636 2.44-4.143-1.632a.765.765 0 00-1.002.982l1.723 4.497-2.74-.75-1.556-4.103a.767.767 0 00-1.434.544l1.162 3.062-2.309-.634a1.53 1.53 0 10-1.883 1.86zm6.936 4.488l3.159-2.51 3.147.858-2.314 2.289zm5.125 1.667l2.168-2.147.677 2.579.196.731-2.42 2.976zm4.51.486l-.123-.46-.696-2.655 2.67.734.722.198 1.443 3.763zm2.885-3.69l-3.254-.892 1.94-1.919.466-.462 4.135.662zm-1.866-4.423l-.529.523-1.97 1.949-.699-2.662-.122-.456 2.726-3.35zm-4.934-.516l.196.731.677 2.585-2.521-.69-.42-.116-1.497-3.918z" fill="#0073ff"/><path data-name="Контур 1662" d="M1204.367 42.62a1.391 1.391 0 001.227.636l1.185 1.846-2.976-.181a.7.7 0 00-.083 1.394l3.992.238 1.356 2.104-4.233-.26a.7.7 0 00-.588 1.133l2.663 3.301-1.264.058-1.241.058-2.497-3.116a.7.7 0 00-1.09.876l1.87 2.324-2.185.102a1.4 1.4 0 10.056 1.395l2.191-.103-1.643 2.49a.7.7 0 001.167.769l2.203-3.336 2.132-.103.448-.02-2.42 3.647a.7.7 0 00.688 1.074l4.008-.627-1.056 2.043-3.918.622a.692.692 0 00-.546.816.665.665 0 00.77.571l2.907-.477-1.027 1.987a1.4 1.4 0 101.322.61l.996-1.93 1.35 2.676a.7.7 0 101.248-.627l-1.805-3.583 1.17-2.267 2.013 4.024a.7.7 0 001.276-.06l1.525-3.953 1.244 1.94-1.45 3.726a.7.7 0 001.304.505l1.079-2.778 1.183 1.837a1.4 1.4 0 101.177-.753l-1.185-1.838 2.983.173a.7.7 0 00.08-1.395l-3.992-.238-1.298-2.008 4.377.269a.7.7 0 00.586-1.135l-2.752-3.409 2.382-.113 2.504 3.117a.7.7 0 001.09-.876l-1.87-2.322 2.184-.103a1.4 1.4 0 10-.064-1.396l-2.183.108 1.642-2.494a.7.7 0 00-1.166-.768l-2.2 3.342-2.301.11 2.34-3.54a.7.7 0 00-.687-1.074l-4.442.694 1.171-2.268 3.963-.604a.7.7 0 10-.21-1.38l-2.96.449.994-1.924a1.393 1.393 0 10-1.257-.737l-1.029 1.995-1.295-2.648a.666.666 0 00-.913-.298.694.694 0 00-.347.919l1.763 3.56-1.054 2.044-1.808-3.635a.7.7 0 00-1.276.059l-1.579 4.09-1.398-2.177 1.449-3.727a.7.7 0 00-1.303-.505l-1.081 2.781-1.174-1.844a1.394 1.394 0 10-2.412.118zm1.961 7.27l3.67.223 1.605 2.501-2.961.138zm2.455 4.256l2.779-.13-1.115 2.159-.314.614-3.454.535zm2.758 3.08l.196-.386 1.148-2.221 1.36 2.122.37.574-1.325 3.429zm4.202-.742l-1.663-2.592 2.49-.116.599-.032 2.397 2.97zm1.433-4.134l-.677.03-2.523.118 1.15-2.228.197-.385 3.883-.608zm-3.026-3.36l-.313.616-1.119 2.164-1.287-2.003-.215-.334 1.375-3.564z" fill="#0073ff"/><path data-name="Контур 1666" d="M1154.258 140.519a.774.774 0 00.705-.308l1.213.135-1.12 1.224a.39.39 0 00.573.524l1.5-1.645 1.382.152-1.593 1.737a.388.388 0 00.29.65l2.36.005-.416.57-.41.556-2.226-.01a.39.39 0 00-.003.779l1.66.005-.72.978a.776.776 0 10.623.464l.725-.98.501 1.583a.39.39 0 00.742-.236l-.674-2.122.702-.957.149-.201.73 2.323a.39.39 0 00.708.079l1.132-1.954.512 1.17-1.103 1.914a.385.385 0 00.162.522.37.37 0 00.517-.133l.811-1.425.5 1.14a.78.78 0 10.727-.358l-.487-1.107 1.632.353a.388.388 0 10.165-.759l-2.183-.473-.57-1.3 2.44.54a.388.388 0 00.42-.573l-1.175-2.044 1.276.143 1.105 1.932a.39.39 0 00.675-.387l-.824-1.439 1.21.134a.777.777 0 10.085-.773l-1.21-.134 1.12-1.228a.388.388 0 00-.575-.523l-1.5 1.645-1.324-.147 1.649-1.8a.388.388 0 00-.29-.649l-2.436-.004.786-1.07 2.225.009a.39.39 0 00.003-.778l-1.66-.005.723-.979a.776.776 0 10-.626-.46l-.722.978-.504-1.584a.389.389 0 00-.74.236l.675 2.122-.76 1.035-.71-2.252a.39.39 0 00-.706-.079l-1.252 2.164-.57-1.3 1.127-1.927a.388.388 0 10-.67-.392l-.844 1.439-.482-1.1a.775.775 0 10-.759.285l.502 1.138-1.595-.368a.371.371 0 00-.449.29.386.386 0 00.276.472l2.153.486.515 1.173-2.204-.493a.388.388 0 00-.421.573l1.216 2.116-1.431-.16-1.106-1.93a.39.39 0 00-.675.386l.825 1.442-1.207-.135a.775.775 0 10-.796 1.08zm3.83 1.697l1.382-1.507 1.646.183-.977 1.33zm2.701.43l.916-1.25.544 1.239.156.35-.975 1.684zm2.298-.115l-.098-.22-.56-1.276 1.395.154.378.042 1.02 1.773zm1.155-2.078l-1.705-.187.818-1.115.197-.268 2.124.003zm-1.288-2.066l-.224.304-.83 1.136-.559-1.284-.097-.22 1.095-1.891zm-2.512.133l.156.35.544 1.244-1.318-.148-.22-.025-1.061-1.846z" fill="#0073ff"/><path data-name="Контур 1663" d="M1037.13 113.853a.865.865 0 00.776-.372l1.361.103-1.203 1.412a.436.436 0 00.664.567l1.61-1.899 1.549.113-1.71 2.008a.434.434 0 00.348.714l2.638-.087-.441.648-.436.64-2.491.077a.435.435 0 00.03.867l1.855-.058-.766 1.122a.868.868 0 10.714.494l.769-1.127.619 1.75a.435.435 0 00.82-.288l-.835-2.343.748-1.097.159-.23.908 2.567a.435.435 0 00.793.058l1.188-2.226.619 1.287-1.16 2.183a.431.431 0 00.201.577.414.414 0 00.573-.168l.851-1.622.603 1.254a.871.871 0 10.797-.43l-.585-1.217 1.83.331a.434.434 0 10.155-.854l-2.452-.449-.689-1.43 2.749.509a.434.434 0 00.448-.656l-1.393-2.237 1.429.107 1.31 2.115a.435.435 0 00.738-.458l-.978-1.576 1.358.102a.869.869 0 10.066-.867l-1.358-.102 1.201-1.415a.436.436 0 00-.664-.566l-1.612 1.9-1.482-.113 1.77-2.072a.434.434 0 00-.348-.715l-2.714.09.837-1.227 2.486-.077a.435.435 0 00-.027-.87l-1.853.06.768-1.124a.868.868 0 10-.718-.49l-.767 1.126-.624-1.75a.434.434 0 00-.82.288l.837 2.345-.81 1.186-.88-2.49a.435.435 0 00-.792-.058l-1.316 2.466-.688-1.432 1.184-2.194a.434.434 0 10-.764-.413l-.886 1.64-.584-1.214a.866.866 0 10-.837.348l.608 1.261-1.8-.346a.415.415 0 00-.489.342.432.432 0 00.327.516l2.425.454.62 1.286-2.48-.459a.434.434 0 00-.449.656l1.441 2.316-1.605-.122-1.31-2.116a.435.435 0 00-.74.458l.978 1.578-1.354-.103a.867.867 0 10-.844 1.236zm4.348 1.747l1.488-1.74 1.847.138-1.038 1.522zm3.033.374l.973-1.428.658 1.361.188.386-1.026 1.92zm2.564-.218l-.118-.242-.674-1.402 1.565.118.423.031 1.208 1.941zm1.206-2.368l-1.91-.14.873-1.278.21-.308 2.373-.079zm-1.519-2.264l-.238.35-.883 1.303-.676-1.406-.118-.24 1.153-2.158zm-2.803.256l.188.386.66 1.366-1.479-.113-.248-.019-1.254-2.02z" fill="#0073ff"/><path data-name="Контур 1650" d="M264.635 73.072a1.056 1.056 0 00.985.367l1.064 1.282-2.258.142a.531.531 0 00.067 1.06l3.024-.196 1.214 1.462-3.209.198a.53.53 0 00-.336.91l2.313 2.247-.94.159-.93.158-2.18-2.121a.531.531 0 00-.741.76l1.625 1.58-1.635.281a1.06 1.06 0 10.172 1.046l1.642-.28-1.009 2.03a.531.531 0 00.952.471l1.347-2.723 1.597-.27.34-.056-1.484 2.973a.531.531 0 00.62.747l2.967-.843-.605 1.635-2.904.832a.526.526 0 00-.336.666.505.505 0 00.635.36l2.145-.63-.591 1.594a1.063 1.063 0 101.054.336l.572-1.547 1.267 1.893a.53.53 0 10.882-.59l-1.693-2.531.672-1.819 1.884 2.847a.53.53 0 00.957-.163l.783-3.121 1.117 1.346-.75 2.942a.531.531 0 001.029.26l.554-2.195 1.061 1.278a1.061 1.061 0 10.818-.678l-1.056-1.279 2.264-.144a.53.53 0 00-.069-1.058l-3.033.192-1.16-1.397 3.325-.203a.53.53 0 00.336-.91l-2.388-2.314 1.787-.308 2.177 2.118a.531.531 0 00.737-.759l-1.624-1.577 1.639-.28a1.06 1.06 0 10-.179-1.046l-1.639.28 1.008-2.032a.53.53 0 00-.95-.471l-1.35 2.723-1.727.296 1.439-2.883a.531.531 0 00-.62-.747l-3.282.935.674-1.819 2.932-.822a.53.53 0 10-.285-1.02l-2.192.612.572-1.543a1.058 1.058 0 10-1.017-.439l-.59 1.599L272.898 71a.506.506 0 00-.715-.141.527.527 0 00-.179.724l1.66 2.52-.603 1.637-1.7-2.57a.53.53 0 00-.958.163l-.81 3.23-1.26-1.513.752-2.945a.531.531 0 00-1.029-.26l-.556 2.198-1.06-1.277a1.06 1.06 0 10-1.804.302zm2.154 5.297l2.787-.17 1.44 1.74-2.22.38zm2.246 2.982l2.082-.353-.64 1.731-.18.493-2.553.727zm2.365 2.067l.112-.31.66-1.782 1.223 1.475.331.398-.68 2.707zm3.1-.947l-1.493-1.8 1.862-.317.453-.075 2.082 2.018zm.698-3.246l-.508.087-1.89.322.659-1.782.112-.309 2.872-.819zm-2.593-2.252l-.18.492-.643 1.735-1.157-1.392-.192-.232.705-2.817z" fill="#0073ff"/><path data-name="Контур 1648" d="M389.32 102.578a1.32 1.32 0 001.252.393l1.414 1.532-2.817.323a.663.663 0 00.152 1.318l3.772-.438 1.61 1.747-3.996.451a.663.663 0 00-.361 1.158l3.035 2.65-1.169.263-1.15.259-2.856-2.504a.664.664 0 00-.874.998l2.135 1.867-2.021.456a1.325 1.325 0 10.282 1.296l2.032-.458-1.126 2.599a.664.664 0 001.218.526l1.506-3.488 1.975-.442.415-.092-1.658 3.81a.663.663 0 00.823.893l3.644-1.247-.649 2.08-3.565 1.227a.657.657 0 00-.375.854.632.632 0 00.816.407l2.64-.926-.633 2.028a1.329 1.329 0 101.337.353l.613-1.97 1.708 2.282a.663.663 0 101.062-.793l-2.278-3.053.72-2.313 2.538 3.428a.663.663 0 001.183-.265l.774-3.946 1.483 1.603-.74 3.724a.664.664 0 001.302.257l.544-2.776 1.408 1.527a1.326 1.326 0 10.976-.9l-1.409-1.526 2.819-.327a.663.663 0 00-.154-1.317l-3.774.44-1.539-1.669 4.136-.47a.663.663 0 00.362-1.158l-3.137-2.736 2.21-.498 2.855 2.501a.664.664 0 00.874-.998l-2.13-1.858 2.023-.458a1.325 1.325 0 10-.286-1.292l-2.027.457 1.124-2.603a.663.663 0 00-1.217-.526l-1.502 3.49-2.134.481 1.606-3.691a.663.663 0 00-.83-.899l-4.036 1.38.722-2.313 3.606-1.218a.663.663 0 10-.423-1.256l-2.694.912.613-1.964a1.322 1.322 0 10-1.297-.482l-.634 2.035-1.648-2.261a.633.633 0 00-.902-.128.659.659 0 00-.175.916l2.236 3.038-.647 2.08-2.295-3.098a.662.662 0 00-1.183.266l-.802 4.085-1.66-1.804.74-3.726a.664.664 0 00-1.301-.258l-.552 2.78-1.405-1.52a1.324 1.324 0 10-2.233.495zm3.035 6.47l3.466-.394 1.914 2.074-2.748.623zm2.997 3.575l2.576-.58-.686 2.203-.191.626-3.145 1.078zm3.086 2.426l.119-.389.707-2.267 1.623 1.76.439.477-.673 3.424zm3.809-1.384l-1.982-2.15 2.303-.518.555-.125 2.73 2.382zm.659-4.102l-.628.142-2.339.526.708-2.273.12-.393 3.53-1.209zm-3.383-2.638l-.191.626-.69 2.208-1.535-1.661-.255-.278.699-3.561z" fill="#0073ff"/><path data-name="Контур 1664" d="M2.758 34.243a.7.7 0 00.603-.356l1.11-.014-.877 1.227a.354.354 0 00.576.41l1.171-1.647 1.272-.019-1.245 1.746a.353.353 0 00.333.555l2.132-.258-.312.556-.308.548-2.018.243a.354.354 0 00.083.702l1.5-.178-.541.964a.706.706 0 10.614.35l.543-.968.627 1.373a.354.354 0 00.64-.294l-.843-1.84.528-.943.114-.199.917 2.016a.354.354 0 00.648-.008l.807-1.885.592 1-.782 1.849a.35.35 0 00.203.452.337.337 0 00.453-.177l.574-1.375.577.974a.709.709 0 10.616-.404l-.561-.946 1.513.14a.353.353 0 10.064-.703l-2.02-.186-.66-1.11 2.263.218a.353.353 0 00.317-.564l-1.289-1.719 1.167-.013 1.208 1.623a.354.354 0 00.563-.422l-.903-1.207 1.107-.013a.707.707 0 10-.007-.708l-1.109.014.876-1.233a.353.353 0 00-.577-.408l-1.167 1.648-1.209.015 1.285-1.81a.353.353 0 00-.333-.555l-2.198.27.59-1.054 2.01-.24a.354.354 0 00-.083-.702l-1.494.178.542-.966a.706.706 0 10-.617-.347l-.542.966-.628-1.372a.353.353 0 00-.64.294l.841 1.841-.572 1.018-.89-1.954a.354.354 0 00-.647.007l-.893 2.092-.658-1.11.803-1.864a.353.353 0 10-.648-.28l-.602 1.392-.56-.947a.7.7 0 10-.655.342l.582.98-1.485-.157a.337.337 0 00-.373.311.351.351 0 00.3.396l2.001.198.596 1.003-2.043-.198a.353.353 0 00-.317.564l1.332 1.774-1.31.016-1.21-1.625a.354.354 0 00-.563.422l.903 1.207-1.11.018a.706.706 0 10-.6 1.06zm3.647 1.108l1.08-1.514 1.506-.019-.732 1.307zm2.486.087l.687-1.23.628 1.058.18.3-.695 1.63zm2.06-.357l-.112-.187-.645-1.09 1.274-.015.347-.005 1.117 1.488zm.812-2.004l-1.559.02.617-1.097.149-.264 1.918-.233zm-1.388-1.726l-.17.3-.623 1.115-.654-1.088-.112-.187.785-1.833zm-2.255.401l.18.3.627 1.061-1.205.014-.2.003-1.162-1.547z" fill="#0073ff"/><path data-name="Контур 1661" d="M117.13 53.153a1.32 1.32 0 001.153-.627l2.085.046-1.726 2.253a.664.664 0 001.055.806l2.306-3.019 2.375.056-2.451 3.189a.663.663 0 00.582 1.065l4.015-.343-.622 1.024-.613 1.008-3.787.314a.664.664 0 00.111 1.323l2.828-.24-1.077 1.773a1.326 1.326 0 101.129.697l1.082-1.78 1.088 2.616a.664.664 0 001.225-.51l-1.464-3.508 1.055-1.729.222-.363 1.59 3.842a.663.663 0 001.214.028l1.635-3.49 1.046 1.913-1.594 3.419a.657.657 0 00.353.863.632.632 0 00.861-.304l1.168-2.543 1.02 1.864a1.33 1.33 0 101.182-.717l-.99-1.81 2.828.357a.663.663 0 10.168-1.316l-3.78-.482-1.165-2.126 4.231.557a.663.663 0 00.631-1.036l-2.302-3.3 2.186.047 2.165 3.12a.664.664 0 001.09-.758l-1.62-2.32 2.077.048a1.327 1.327 0 10.032-1.328l-2.078-.046 1.723-2.256a.663.663 0 00-1.054-.805l-2.307 3.021-2.27-.051 2.536-3.304a.663.663 0 00-.582-1.065l-4.15.356 1.178-1.936 3.785-.317a.664.664 0 00-.111-1.323l-2.817.242 1.076-1.773a1.326 1.326 0 10-1.129-.693l-1.08 1.776-1.092-2.618a.663.663 0 00-1.224.51l1.467 3.506-1.136 1.871-1.54-3.721a.663.663 0 00-1.224-.027l-1.812 3.864-1.163-2.128 1.63-3.441a.663.663 0 10-1.198-.568l-1.216 2.572-.987-1.806a1.323 1.323 0 10-1.249.598l1.025 1.87-2.773-.385a.633.633 0 00-.719.56.66.66 0 00.538.763l3.74.502 1.047 1.912-3.824-.502a.662.662 0 00-.631 1.036l2.382 3.416-2.452-.06-2.166-3.121a.664.664 0 00-1.091.757l1.617 2.329-2.07-.045a1.325 1.325 0 10-1.196 1.951zm6.765 2.313l2.125-2.768 2.823.064-1.461 2.41zm4.656.328l1.373-2.257 1.108 2.024.318.573-1.41 3.012zm3.89-.535l-.197-.356-1.14-2.084 2.394.055.648.015 1.997 2.864zm1.651-3.703l-2.924-.067 1.227-2.018.296-.486 3.612-.31zm-2.494-3.325l-.334.55-1.247 2.05-1.144-2.09-.2-.359 1.584-3.381zm-4.249.6l.318.574 1.11 2.03-2.263-.05-.377-.009-2.078-2.977z" fill="#0073ff"/><path data-name="Контур 1665" d="M51.67 101.45a.469.469 0 00.416.21l.4.623-1.003-.062a.236.236 0 00-.028.47l1.347.08.455.71-1.428-.084a.235.235 0 00-.196.384l.898 1.114-.424.02-.419.02-.847-1.052a.236.236 0 00-.367.295l.63.785-.736.034a.471.471 0 10.018.471l.74-.035-.555.84a.236.236 0 00.395.259l.742-1.127.719-.034.151-.006-.816 1.23a.236.236 0 00.232.366l1.35-.21-.35.69-1.324.21a.233.233 0 00-.184.275.224.224 0 00.26.193l.98-.161-.342.672a.472.472 0 10.446.205l.333-.653.454.905a.236.236 0 10.422-.211l-.61-1.209.392-.767.676 1.355a.235.235 0 00.432-.023l.52-1.333.42.654-.495 1.254a.236.236 0 00.44.17l.365-.936.398.62a.471.471 0 10.397-.254l-.399-.62 1.004.062a.236.236 0 00.028-.47l-1.35-.084-.44-.68 1.477.09a.235.235 0 00.196-.384l-.93-1.147.806-.038.845 1.05a.236.236 0 00.367-.295l-.63-.783.737-.035a.471.471 0 10-.021-.471l-.737.035.553-.84a.236.236 0 00-.393-.26l-.734 1.132-.777.036.79-1.194a.236.236 0 00-.231-.362l-1.498.235.39-.768 1.339-.202a.235.235 0 10-.069-.465l-1 .152.332-.652a.47.47 0 10-.42-.246l-.343.674-.436-.895a.225.225 0 00-.308-.1.234.234 0 00-.124.314l.595 1.201-.351.69-.61-1.225a.235.235 0 00-.43.02l-.535 1.374-.472-.734.49-1.258a.236.236 0 00-.439-.175l-.365.937-.398-.614a.47.47 0 10-.811.035zm.66 2.45l1.24.078.542.844-1.001.05zm.83 1.434l.937-.045-.372.73-.106.208-1.168.18zm.931 1.035l.064-.125.383-.752.46.716.125.194-.447 1.156zm1.415-.244l-.564-.875.838-.04.202-.008.808 1.002zm.485-1.393l-.23.01-.85.04.384-.753.066-.13 1.31-.206zm-1.019-1.132l-.106.208-.373.732-.438-.682-.072-.113.463-1.2z" fill="#0073ff"/><path data-name="Контур 1667" d="M167.873 134.607a.7.7 0 00.646-.243l1.082.177-1.061 1.049a.349.349 0 00.49.497l1.421-1.403 1.232.202-1.512 1.48a.349.349 0 00.23.596l2.115.115-.399.487-.393.48-1.996-.113a.35.35 0 00-.039.697l1.49.082-.69.844a.7.7 0 10.536.445l.694-.848.375 1.443a.35.35 0 00.676-.177l-.504-1.933.675-.825.143-.172.542 2.117a.349.349 0 00.63.103l1.105-1.7.405 1.071-1.076 1.663a.346.346 0 00.12.475.332.332 0 00.47-.095l.795-1.238.392 1.051a.7.7 0 10.668-.287l-.383-1.015 1.445.393a.349.349 0 10.183-.672l-1.932-.527-.451-1.192 2.158.6a.349.349 0 00.404-.493l-.954-1.888 1.136.186.898 1.784a.35.35 0 00.624-.316l-.672-1.328 1.078.176a.7.7 0 10.114-.686l-1.078-.176 1.06-1.05a.349.349 0 00-.49-.496l-1.423 1.403-1.177-.191 1.564-1.533a.349.349 0 00-.229-.596l-2.187-.117.755-.922 1.993.112a.35.35 0 00.039-.697l-1.48-.087.693-.845a.7.7 0 10-.54-.442l-.691.846-.377-1.442a.349.349 0 00-.675.176l.505 1.933-.728.892-.53-2.053a.349.349 0 00-.63-.103l-1.227 1.88-.45-1.193 1.1-1.674a.348.348 0 10-.582-.383l-.824 1.25-.382-1.013a.7.7 0 10-.694.22l.396 1.05-1.415-.408a.333.333 0 00-.416.239.346.346 0 00.225.436l1.915.538.403 1.076-1.953-.545a.348.348 0 00-.404.494l.99 1.952-1.275-.208-.9-1.785a.35.35 0 00-.623.315l.672 1.332-1.076-.177a.7.7 0 10-.762.936zm3.354 1.7l1.308-1.287 1.466.24-.94 1.146zm2.4.512l.88-1.075.43 1.14.124.32-.958 1.46zm2.065.006l-.078-.201-.437-1.171 1.242.204.336.055.83 1.637zm1.127-1.806l-1.514-.25.787-.96.19-.232 1.903.103zm-1.056-1.914l-.21.26-.803.978-.439-1.173-.077-.2 1.072-1.646zm-2.253 0l.123.321.429 1.14-1.174-.193-.196-.032-.867-1.702z" fill="#0073ff"/><path data-name="Контур 1646" d="M735.899 64.58a1.248 1.248 0 001.17.413l1.283 1.492-2.667.213a.627.627 0 00.098 1.25l3.577-.29 1.46 1.7-3.785.299a.626.626 0 00-.379 1.082l2.779 2.6-1.112.211-1.096.207-2.614-2.46a.627.627 0 00-.86.915l1.95 1.835-1.923.364a1.252 1.252 0 10.224 1.23l1.934-.366-1.15 2.417a.627.627 0 001.133.537l1.54-3.241 1.88-.356.397-.075-1.691 3.542a.627.627 0 00.747.87l3.482-1.058-.681 1.943-3.408 1.048a.621.621 0 00-.38.794.6.6 0 00.757.412l2.522-.787-.665 1.894a1.256 1.256 0 101.252.377l.644-1.84 1.534 2.21a.626.626 0 101.03-.713l-2.05-2.957.757-2.162 2.282 3.324a.626.626 0 001.13-.21l.853-3.707 1.352 1.566-.822 3.492a.627.627 0 001.221.287l.61-2.604 1.28 1.488a1.253 1.253 0 10.951-.817l-1.285-1.49 2.67-.216a.626.626 0 00-.1-1.247l-3.578.29-1.398-1.626 3.922-.308a.626.626 0 00.38-1.081l-2.87-2.68 2.103-.397 2.614 2.456a.627.627 0 00.86-.914l-1.951-1.83 1.93-.363a1.252 1.252 0 10-.232-1.233l-1.93.366 1.15-2.42a.626.626 0 00-1.132-.537l-1.54 3.243-2.035.383 1.64-3.436a.627.627 0 00-.747-.87l-3.857 1.169.758-2.162 3.448-1.034a.626.626 0 10-.359-1.2l-2.578.774.644-1.834a1.249 1.249 0 10-1.21-.498l-.665 1.901-1.48-2.194a.6.6 0 00-.849-.15.622.622 0 00-.19.86l2.01 2.943-.684 1.945-2.056-3a.626.626 0 00-1.13.21l-.896 3.83-1.51-1.758.822-3.493a.627.627 0 00-1.222-.284l-.612 2.606-1.276-1.485a1.251 1.251 0 10-2.125.396zm2.65 6.215l3.288-.258 1.736 2.022-2.61.49zm2.717 3.474l2.451-.463-.72 2.057-.202.585-3.007.912zm2.83 2.398l.126-.367.743-2.119 1.479 1.708.4.464-.749 3.211zm3.642-1.179l-1.799-2.1 2.192-.409.528-.099 2.5 2.341zm.763-3.862l-.598.112-2.23.423.743-2.123.126-.366 3.375-1.025zm-3.11-2.602l-.202.585-.723 2.062-1.396-1.622-.234-.267.78-3.343z" fill="#0073ff"/><path data-name="Контур 1647" d="M841.932 116.198a1.567 1.567 0 001.366-.745l2.47.056-2.04 2.669a.787.787 0 001.25.955l2.737-3.576 2.816.063-2.906 3.784a.786.786 0 00.69 1.262l4.762-.406-.739 1.21-.728 1.195-4.49.373a.79.79 0 00.131 1.575l3.344-.282-1.274 2.1a1.572 1.572 0 101.339.825l1.283-2.111 1.29 3.103a.787.787 0 001.453-.606l-1.733-4.158 1.248-2.055.264-.43 1.886 4.559a.787.787 0 001.44.032l1.939-4.138 1.24 2.268-1.887 4.057a.78.78 0 00.419 1.026.75.75 0 001.019-.36l1.384-3.014 1.208 2.21a1.578 1.578 0 101.402-.85l-1.175-2.147 3.353.429a.786.786 0 10.2-1.56l-4.49-.578-1.38-2.52 5.016.66a.786.786 0 00.748-1.229l-2.732-3.914 2.594.059 2.568 3.7a.787.787 0 001.293-.9l-1.918-2.755 2.464.057a1.573 1.573 0 10.041-1.577l-2.464-.056 2.041-2.673a.786.786 0 00-1.251-.949l-2.735 3.575-2.692-.061 3.008-3.919a.786.786 0 00-.69-1.262l-4.914.421 1.397-2.295 4.483-.373a.787.787 0 00-.13-1.569l-3.346.283 1.28-2.105a1.572 1.572 0 10-1.343-.819l-1.28 2.107-1.294-3.104a.787.787 0 00-1.452.606l1.734 4.16-1.35 2.221-1.829-4.416a.787.787 0 00-1.438-.034l-2.148 4.585-1.38-2.523 1.932-4.081a.786.786 0 10-1.42-.674l-1.44 3.047-1.17-2.141a1.569 1.569 0 10-1.48.707l1.214 2.218-3.287-.455a.75.75 0 00-.854.665.781.781 0 00.64.904l4.434.596 1.242 2.267-4.53-.6a.785.785 0 00-.747 1.23l2.825 4.05-2.915-.066-2.568-3.702a.787.787 0 00-1.294.898l1.918 2.76-2.458-.057a1.57 1.57 0 10-1.414 2.318zm8.024 2.748l2.522-3.282 3.348.078-1.736 2.853zm5.522.388l1.627-2.676 1.319 2.399.376.679-1.681 3.57zm4.613-.635l-.236-.426-1.353-2.473 2.842.065.768.017 2.368 3.396zm1.959-4.39l-3.468-.08 1.456-2.394.351-.576 4.283-.367zm-2.958-3.943l-.397.652-1.478 2.43-1.356-2.477-.236-.425 1.876-4.014zm-5.041.71l.376.68 1.316 2.407-2.685-.06-.447-.01-2.463-3.532z" fill="#0073ff"/><path data-name="Контур 1649" d="M947.783 54.039a.913.913 0 00.876.242l1.013 1.024-1.941.29a.459.459 0 00.137.908l2.601-.393 1.155 1.167-2.754.41a.458.458 0 00-.217.81l2.162 1.758-.801.211-.788.203-2.04-1.663a.46.46 0 00-.58.716l1.52 1.235-1.388.364a.916.916 0 10.227.89l1.393-.363-.716 1.824a.459.459 0 00.856.332l.957-2.445 1.356-.356.285-.074-1.055 2.674a.459.459 0 00.59.597l2.492-.95-.398 1.455-2.437.935a.455.455 0 00-.239.599.437.437 0 00.574.257l1.802-.704-.388 1.417a.92.92 0 10.933.211l.377-1.376 1.234 1.535a.458.458 0 10.715-.573l-1.651-2.05.441-1.617 1.837 2.31a.459.459 0 00.812-.213l.44-2.748 1.064 1.076-.421 2.592a.459.459 0 00.905.147l.311-1.932 1.01 1.02a.917.917 0 10.654-.644l-1.012-1.022 1.943-.293a.459.459 0 00-.139-.907l-2.598.395-1.105-1.12 2.848-.425a.458.458 0 00.217-.81l-2.229-1.811 1.516-.397 2.035 1.66a.459.459 0 00.58-.711l-1.517-1.235 1.394-.365a.917.917 0 10-.232-.89l-1.39.365.714-1.826a.459.459 0 00-.854-.332l-.96 2.448-1.465.384 1.021-2.593a.459.459 0 00-.59-.597l-2.757 1.053.44-1.619 2.463-.929a.458.458 0 10-.32-.856l-1.84.693.375-1.373a.915.915 0 10-.909-.301l-.388 1.422-1.193-1.524a.438.438 0 00-.628-.065.456.456 0 00-.097.638l1.618 2.044-.397 1.455-1.658-2.083a.458.458 0 00-.812.212l-.452 2.844-1.198-1.211.423-2.598a.459.459 0 00-.906-.148l-.311 1.935-1.012-1.015a.916.916 0 10-1.532.399zm2.253 4.403l2.387-.355 1.373 1.387-1.883.494zm2.158 2.4l1.766-.46-.422 1.544-.117.438-2.145.818zm2.192 1.601l.074-.275.434-1.585 1.164 1.178.315.318-.381 2.382zm2.6-1.049l-1.421-1.437 1.58-.414.38-.1 1.943 1.58zm.357-2.852l-.431.113-1.605.42.434-1.589.074-.273 2.415-.92zm-2.402-1.744l-.117.438-.423 1.543-1.1-1.112-.186-.187.398-2.481z" fill="#0073ff"/><path data-name="Линия 1822" fill="none" stroke="#0073ff" d="M638.57.5v77"/><g data-name="Сгруппировать 4372"><g data-name="Сгруппировать 4371"><path data-name="Контур 1653" d="M464.601 16.134l-4.03 3.816a.986.986 0 00-.3.869l.859 5.483a.986.986 0 01-1.446 1.018l-4.875-2.654a.984.984 0 00-.917-.013l-4.95 2.511a.986.986 0 01-1.415-1.06l1.018-5.456a.986.986 0 00-.271-.877l-3.913-3.931a.986.986 0 01.571-1.673l5.5-.719a.985.985 0 00.75-.528l2.528-4.941a.986.986 0 011.768.026l2.383 5.012a.986.986 0 00.734.55l5.481.878a.986.986 0 01.525 1.689z" fill="#0073ff"/><path data-name="Линия 1817" fill="#0073ff" stroke="#0073ff" stroke-miterlimit="10" d="M454.49.999v7.005"/><path data-name="Контур 1654" d="M455.738 14.055l.4.846a.694.694 0 00.517.387l2.887.462" fill="none" stroke="#fff" stroke-linecap="round" stroke-linejoin="round"/></g></g><g data-name="Сгруппировать 4378"><g data-name="Сгруппировать 4371"><path data-name="Контур 1653" d="M1038.68 19.878l-5.027 4.76a1.23 1.23 0 00-.37 1.083l1.072 6.84a1.23 1.23 0 01-1.8 1.27l-6.081-3.31a1.228 1.228 0 00-1.144-.017l-6.175 3.132a1.23 1.23 0 01-1.765-1.322l1.27-6.806a1.231 1.231 0 00-.338-1.093l-4.888-4.9a1.23 1.23 0 01.712-2.087l6.865-.9a1.229 1.229 0 00.936-.659l3.154-6.163a1.23 1.23 0 012.205.032l2.974 6.252a1.23 1.23 0 00.916.686l6.836 1.1a1.23 1.23 0 01.648 2.102z" fill="#0073ff"/><path data-name="Линия 1817" fill="#0073ff" stroke="#0073ff" stroke-miterlimit="10" d="M1026.068.999v8.738"/><path data-name="Контур 1654" d="M1027.625 17.285l.5 1.055a.866.866 0 00.645.483l3.6.577" fill="none" stroke="#fff" stroke-linecap="round" stroke-linejoin="round"/></g></g><g data-name="Сгруппировать 4373" transform="translate(346.543 -40.078)" fill="none" stroke="#0073ff" stroke-linecap="round" stroke-linejoin="round"><path data-name="Линия 1818" d="M217.399 41.078v7.735"/><circle data-name="Эллипс 247" cx="12.872" cy="12.872" r="12.872" transform="translate(204.527 52.131)"/><path data-name="Контур 1655" d="M225.784 66.505a8.525 8.525 0 01-6.929 6.891"/><path data-name="Контур 1656" d="M209.012 63.711a8.493 8.493 0 016.677-7.021"/><path data-name="Прямоугольник 922" d="M216.784 48.813h1.231a1.051 1.051 0 011.051 1.051v2.282h0-3.333 0v-2.282a1.051 1.051 0 011.051-1.051z"/></g><g data-name="Сгруппировать 4381" transform="translate(896.543 -40.078)" fill="none" stroke="#0073ff" stroke-linecap="round" stroke-linejoin="round"><path data-name="Линия 1818" d="M222.027 41.078v10.515"/><circle data-name="Эллипс 247" cx="17.5" cy="17.5" r="17.5" transform="translate(204.527 56.104)"/><path data-name="Контур 1655" d="M233.426 75.646a11.59 11.59 0 01-9.42 9.369"/><path data-name="Контур 1656" d="M210.624 71.849a11.547 11.547 0 019.078-9.546"/><path data-name="Прямоугольник 922" d="M220.812 51.594h2.429a1.051 1.051 0 011.051 1.051v3.48h0-4.531 0v-3.48a1.051 1.051 0 011.051-1.051z"/></g><g data-name="Сгруппировать 4374" fill="none" stroke="#0073ff" stroke-miterlimit="10"><path data-name="Контур 1657" d="M884.866 10.99l2.793 5.662a1.644 1.644 0 001.236.9l6.249.907a1.327 1.327 0 01.734 2.263l-4.52 4.407a1.642 1.642 0 00-.473 1.453l1.068 6.223a1.327 1.327 0 01-1.925 1.4l-5.587-2.945a1.642 1.642 0 00-1.529 0l-5.589 2.938a1.327 1.327 0 01-1.925-1.4l1.068-6.223a1.642 1.642 0 00-.473-1.453l-4.522-4.407a1.327 1.327 0 01.735-2.263l6.248-.907a1.646 1.646 0 001.237-.9l2.794-5.662a1.326 1.326 0 012.381.007z"/><path data-name="Линия 1819" d="M883.676 0v10.251"/></g><g data-name="Сгруппировать 4377" fill="none" stroke="#0073ff" stroke-miterlimit="10"><path data-name="Контур 1657" d="M321.138 11.208l2.85 5.774a1.676 1.676 0 001.26.917l6.373.925a1.353 1.353 0 01.748 2.308l-4.61 4.494a1.674 1.674 0 00-.482 1.482l1.089 6.346a1.353 1.353 0 01-1.963 1.426l-5.7-3a1.675 1.675 0 00-1.559 0l-5.7 3a1.353 1.353 0 01-1.963-1.426l1.089-6.346a1.675 1.675 0 00-.482-1.482l-4.611-4.494a1.353 1.353 0 01.75-2.308l6.371-.925a1.679 1.679 0 001.262-.917l2.85-5.774a1.353 1.353 0 012.428 0z"/><path data-name="Линия 1819" d="M319.925 0v10.454"/></g><g data-name="Сгруппировать 4375" transform="translate(634.434 -69.326)"><path data-name="Линия 1820" fill="none" stroke="#0073ff" stroke-linecap="round" stroke-linejoin="round" d="M169.594 70.326v5.766"/><circle data-name="Эллипс 248" cx="9.958" cy="9.958" r="9.958" transform="translate(159.636 78.452)" fill="#0073ff"/><circle data-name="Эллипс 249" cx="9.958" cy="9.958" r="9.958" transform="translate(159.636 78.452)" fill="#0073ff"/><path data-name="Контур 1658" d="M175.844 89.53a6.354 6.354 0 01-5.166 5.136" fill="none" stroke="#fff" stroke-linecap="round" stroke-linejoin="round"/><path data-name="Контур 1659" d="M163.342 87.447a6.333 6.333 0 014.978-5.234" fill="none" stroke="#fff" stroke-linecap="round" stroke-linejoin="round"/><path data-name="Контур 1660" d="M171.274 76.507v1.1a10.2 10.2 0 00-1.686-.133 11.539 11.539 0 00-1.673.119v-1.086a.847.847 0 01.85-.85h1.66a.847.847 0 01.849.85z" fill="#0073ff"/></g><g data-name="Сгруппировать 4380" transform="translate(47.434 -69.326)"><path data-name="Линия 1820" fill="none" stroke="#0073ff" stroke-linecap="round" stroke-linejoin="round" d="M170.174 70.326v6.102"/><circle data-name="Эллипс 248" cx="10.538" cy="10.538" r="10.538" transform="translate(159.636 78.925)" fill="#0073ff"/><circle data-name="Эллипс 249" cx="10.538" cy="10.538" r="10.538" transform="translate(159.636 78.925)" fill="#0073ff"/><path data-name="Контур 1658" d="M176.788 90.648a6.725 6.725 0 01-5.467 5.435" fill="none" stroke="#fff" stroke-linecap="round" stroke-linejoin="round"/><path data-name="Контур 1659" d="M163.557 88.444a6.7 6.7 0 015.267-5.539" fill="none" stroke="#fff" stroke-linecap="round" stroke-linejoin="round"/><path data-name="Контур 1660" d="M171.953 76.866v1.166a10.788 10.788 0 00-1.784-.141 12.209 12.209 0 00-1.77.126v-1.151a.9.9 0 01.9-.9h1.756a.9.9 0 01.898.9z" fill="#0073ff"/></g><g data-name="Сгруппировать 4376" transform="translate(521.188 -43.271)"><path data-name="Линия 1821" fill="none" stroke="#0073ff" stroke-linecap="round" stroke-linejoin="round" d="M184.072 44.271v3.006"/><circle data-name="Эллипс 250" cx="5.191" cy="5.191" r="5.191" transform="translate(178.881 47.11)" fill="#0073ff"/></g><g data-name="Сгруппировать 4382" transform="translate(1096.188 -43.271)"><path data-name="Линия 1821" fill="none" stroke="#0073ff" stroke-linecap="round" stroke-linejoin="round" d="M182.534 44.271v2.116"/><circle data-name="Эллипс 250" cx="3.654" cy="3.654" r="3.654" transform="translate(178.881 46.269)" fill="#0073ff"/></g></g></svg>