<svg xmlns="http://www.w3.org/2000/svg" viewBox="0 0 15.32 15.33"><defs><style>.cls-1{fill:#fff;}.cls-2{fill:none;}</style></defs><title>Asset 1</title><g id="Layer_2" data-name="Layer 2"><g id="Layer_1-2" data-name="Layer 1"><path class="cls-1" d="M12.91,15.33a2.06,2.06,0,0,1-1.8-2.27v-3h4.21v2.94a2,2,0,0,1-1.78,2.27Zm-.2-3.62v1.35a.87.87,0,0,0,.24.68l.55,0a.88.88,0,0,0,.22-.67V11.71Z"/><path class="cls-1" d="M1.79,15.32h0A2.06,2.06,0,0,1,0,13.05V0H12.77V13a.89.89,0,0,0,.24.69l0,1.59ZM1.6,1.6V13.05a.94.94,0,0,0,.22.67h9.43a3,3,0,0,1-.08-.68V1.6Z"/><rect class="cls-1" x="2.73" y="10.69" width="7.27" height="1.6"/><rect class="cls-1" x="2.73" y="8.19" width="7.27" height="1.6"/><rect class="cls-2" x="2.73" y="3.07" width="7.27" height="4.41"/><path class="cls-1" d="M10,7.48H2.73V3.07H10ZM4.33,5.88H8.4V4.67H4.33Z"/></g></g></svg>