<svg xmlns="http://www.w3.org/2000/svg" width="30" height="30" viewBox="0 0 30 30"><defs><style>.a{fill:#fff;}.b{fill:#283348;}</style></defs><circle class="a" cx="15" cy="15" r="15" transform="translate(0 0)"/><g transform="translate(9.503 5.587)"><path class="b" d="M32.925,26.822a4.877,4.877,0,1,0-4.875-4.865A4.865,4.865,0,0,0,32.925,26.822ZM32.932,20a1.966,1.966,0,0,1,1.989,1.93,1.979,1.979,0,1,1-3.958.023A1.969,1.969,0,0,1,32.932,20Z" transform="translate(-27.448 -17.068)"/><path class="b" d="M36.989,42.227a1.28,1.28,0,0,0,.663-1.383,1.4,1.4,0,0,0-1.073-1.225,1.472,1.472,0,0,0-1.223.207,6.031,6.031,0,0,1-3.367.89,6.385,6.385,0,0,1-3.143-.962A1.452,1.452,0,0,0,27.3,42.21a3.956,3.956,0,0,0,.692.393c.673.293,1.355.566,2.062.858-.072.078-.151.171-.237.257-.771.766-1.549,1.525-2.315,2.3a1.453,1.453,0,1,0,2,2.112c.661-.613,1.287-1.263,1.925-1.9.243-.243.477-.495.782-.812a3.04,3.04,0,0,0,.257.357c.785.785,1.568,1.572,2.365,2.344a1.448,1.448,0,0,0,2.057-.01,1.424,1.424,0,0,0,.011-2.027c-.568-.592-1.161-1.161-1.747-1.735-.3-.289-.6-.567-.97-.91.181-.054.236-.065.287-.087C35.31,42.978,36.172,42.647,36.989,42.227Z" transform="translate(-26.673 -29.715)"/></g></svg>