<svg xmlns="http://www.w3.org/2000/svg" width="36.001" height="36"><g transform="translate(-988 -11049)"><circle cx="18" cy="18" r="18" transform="translate(988 11049)" fill="#fff"/><g fill="#f58220"><path d="M1005.994 11062.83a1.623 1.623 0 001.6-1.609 1.6 1.6 0 00-3.194.019 1.631 1.631 0 001.594 1.59z"/><path d="M1006.001 11049a18 18 0 1018 18 18 18 0 00-18-18zm.044 6.586a5.914 5.914 0 11-5.979 5.928 5.925 5.925 0 015.977-5.928zm5.8 15.172c-.99.509-2.036.91-3.059 1.355-.062.027-.129.041-.349.105.446.418.817.754 1.176 1.1.712.7 1.43 1.387 2.118 2.1a1.725 1.725 0 01-.014 2.458 1.755 1.755 0 01-2.494.012c-.968-.936-1.917-1.89-2.868-2.842a3.655 3.655 0 01-.312-.433c-.368.385-.652.69-.948.984-.774.774-1.532 1.562-2.334 2.3a1.762 1.762 0 11-2.42-2.562c.93-.934 1.872-1.855 2.808-2.784.1-.105.2-.218.287-.311-.856-.356-1.682-.687-2.5-1.041a4.76 4.76 0 01-.838-.476 1.76 1.76 0 011.872-2.978 7.727 7.727 0 003.811 1.166 7.317 7.317 0 004.083-1.077 1.784 1.784 0 011.483-.252 1.687 1.687 0 011.3 1.484 1.551 1.551 0 01-.804 1.692z"/></g></g></svg>