<svg xmlns="http://www.w3.org/2000/svg" width="24.966" height="24.962"><path d="M.5 12.481a11.983 11.983 0 1 1 11.981 11.981A11.982 11.982 0 0 1 .5 12.481zm7.729.9a1.165 1.165 0 0 0 .324 1.586 3.149 3.149 0 0 0 .56.315c.543.237 1.093.456 1.661.693-.057.063-.122.137-.19.206-.622.618-1.249 1.233-1.867 1.855a1.173 1.173 0 1 0 1.61 1.7c.534-.493 1.037-1.021 1.553-1.536.2-.194.387-.4.63-.653a2.47 2.47 0 0 0 .21.287c.634.634 1.265 1.268 1.907 1.892a1.168 1.168 0 0 0 1.661-.009 1.149 1.149 0 0 0 .01-1.636c-.459-.478-.937-.937-1.411-1.4-.237-.234-.484-.459-.781-.737a2.141 2.141 0 0 0 .231-.069c.681-.3 1.377-.562 2.036-.9a1.028 1.028 0 0 0 .533-1.118 1.12 1.12 0 0 0-.864-.987 1.178 1.178 0 0 0-.987.169 4.876 4.876 0 0 1-2.72.715A5.135 5.135 0 0 1 9.8 12.98a1.119 1.119 0 0 0-.578-.161 1.175 1.175 0 0 0-.993.564zm.3-4.553a3.95 3.95 0 1 0 3.981-3.947h-.01a3.943 3.943 0 0 0-3.969 3.95zm3.946 1.589a1.632 1.632 0 0 1-1.595-1.589 1.6 1.6 0 0 1 3.194-.019 1.622 1.622 0 0 1-1.589 1.608z" fill="#f58220" stroke="rgba(0,0,0,0)"/></svg>