<svg xmlns="http://www.w3.org/2000/svg" width="15.467" height="15.239" viewBox="0 0 15.467 15.239"><defs><style>.a{fill:none;stroke:#fff;stroke-miterlimit:10;stroke-width:2px;}</style></defs><g transform="translate(-912.015 -620.241)"><path class="a" d="M923.245,663.841l-1.755.691a4.712,4.712,0,0,1-3.485,0l-1.754-.691c-1.787,0-3.237.85-3.237,2.914v1.131h13.466v-1.131C926.481,664.691,925.032,663.841,923.245,663.841Z" transform="translate(0 -33.406)"/><path class="a" d="M931.161,625.5a2.94,2.94,0,0,0,2.805,2.831,2.9,2.9,0,0,0,2.805-2.831l.127-1.521a2.792,2.792,0,0,0-2.826-2.734h-.213a2.792,2.792,0,0,0-2.826,2.734Z" transform="translate(-14.13)"/></g></svg>