<svg xmlns="http://www.w3.org/2000/svg" viewBox="0 0 15.47 15.24"><defs><style>.cls-1{fill:#fff;}</style></defs><title>Asset 1</title><g id="Layer_2" data-name="Layer 2"><g id="Layer_1-2" data-name="Layer 1"><path class="cls-1" d="M15.47,15.24H0V13.1c0-2.41,1.62-3.91,4.24-3.91h.19L6.36,10a3.68,3.68,0,0,0,2.75,0L11,9.19h.19a4.62,4.62,0,0,1,2.92.9,3.69,3.69,0,0,1,1.32,3ZM2,13.24H13.47V13.1a1.73,1.73,0,0,0-.58-1.45,2.57,2.57,0,0,0-1.48-.46l-1.57.62a5.7,5.7,0,0,1-4.22,0l-1.56-.62C2,11.27,2,12.65,2,13.1Z"/><path class="cls-1" d="M7.85,9.09A4,4,0,0,1,4,5.32L3.89,3.77V3.71A3.8,3.8,0,0,1,7.68,0H8a3.79,3.79,0,0,1,3.77,3.71v.06l-.13,1.57A3.88,3.88,0,0,1,7.85,9.09Zm-2-5.38L6,5.22A2,2,0,0,0,7.87,7.09,1.9,1.9,0,0,0,9.63,5.23l.12-1.52A1.78,1.78,0,0,0,7.94,2H7.71A1.85,1.85,0,0,0,5.89,3.71Z"/></g></g></svg>