<svg xmlns="http://www.w3.org/2000/svg" width="36" height="36" viewBox="0 0 36 36">
  <g id="n_hotel" transform="translate(-960 -1694)">
    <g id="Group_1125" data-name="Group 1125" transform="translate(-1057 163)">
      <circle id="Ellipse_109" data-name="Ellipse 109" cx="18" cy="18" r="18" transform="translate(2017 1531)" fill="#05f"/>
      <g id="Group_1104" data-name="Group 1104" transform="translate(1862.749 1410.965)">
        <path id="Path_637" data-name="Path 637" d="M181.008,139.894a3.326,3.326,0,0,0-3.307-3.037h-7.212v3.233h-4.013v-5.125a1.113,1.113,0,1,0-2.225,0v10.682a1.113,1.113,0,1,0,2.225,0v-3.332H178.83v3.332a1.113,1.113,0,1,0,2.225,0v-5.515A1.063,1.063,0,0,0,181.008,139.894Z" transform="translate(0 0.768)" fill="#fff"/>
        <path id="Path_638" data-name="Path 638" d="M168.078,139.41a1.387,1.387,0,1,0-1.386-1.386A1.387,1.387,0,0,0,168.078,139.41Z" transform="translate(0.275 1.081)" fill="#fff"/>
        <path id="Path_639" data-name="Path 639" d="M169.307,131.849l-.067,2.3a.22.22,0,0,0,.307.209l2.079-.881,2.25.883a.221.221,0,0,0,.3-.228l-.231-2.284,1.56-1.807a.221.221,0,0,0-.124-.362l-2.322-.467-1.157-2.065a.221.221,0,0,0-.379-.011l-1.33,2.076-2.161.468a.22.22,0,0,0-.128.35Z" transform="translate(0.406 0)" fill="#fff"/>
      </g>
    </g>
  </g>
</svg>
