<svg xmlns="http://www.w3.org/2000/svg" width="36" height="36" viewBox="0 0 36 36">
  <g id="n_trasnport" transform="translate(-1068 -1694)">
    <g id="Group_1129" data-name="Group 1129" transform="translate(-949 -16)">
      <circle id="Ellipse_112" data-name="Ellipse 112" cx="18" cy="18" r="18" transform="translate(2017 1710)" fill="#05f"/>
      <path id="Path_653" data-name="Path 653" d="M311.552,196.819h-2.477v-2.052a2,2,0,0,0-2-2h-10a2,2,0,0,0-2,2v2.052H292.6a.5.5,0,0,0-.5.5v1.5a1,1,0,0,0,1,1h.5a.5.5,0,0,0,.5-.5v-1.5h.978v8.256a1,1,0,0,0,1,1h.524v1.935a.5.5,0,0,0,.5.5h1.378a.5.5,0,0,0,.5-.5v-1.935h6.244v1.935a.5.5,0,0,0,.5.5H307.1a.5.5,0,0,0,.5-.5v-1.935h.476a1,1,0,0,0,1-1v-8.256h.977v1.5a.5.5,0,0,0,.5.5h.5a1,1,0,0,0,1-1v-1.5A.5.5,0,0,0,311.552,196.819ZM297.27,194.43a.5.5,0,0,1,.5-.5h8.762a.5.5,0,0,1,.5.5v.713a.5.5,0,0,1-.5.5H297.77a.5.5,0,0,1-.5-.5Zm2.241,11.071-2.912-.248v-1.645l2.912.406Zm7.862-.248-2.912.248v-1.487l2.912-.406Zm.226-3.531a.5.5,0,0,1-.444.5l-2.814.32a20.024,20.024,0,0,1-4.532,0l-2.767-.317a.5.5,0,0,1-.443-.5v-4.4a.5.5,0,0,1,.5-.5h10a.5.5,0,0,1,.5.5Z" transform="translate(1732.903 1527.234)" fill="#fff"/>
    </g>
  </g>
</svg>
