<svg xmlns="http://www.w3.org/2000/svg" width="36" height="36" viewBox="0 0 36 36">
  <g id="n_hplphone" transform="translate(-1176 -1694)">
    <g id="Group_1128" data-name="Group 1128" transform="translate(-841 -73)">
      <circle id="Ellipse_113" data-name="Ellipse 113" cx="18" cy="18" r="18" transform="translate(2017 1767)" fill="#05f"/>
      <g id="Group_1105" data-name="Group 1105" transform="translate(1705.06 1607.299)">
        <path id="Path_631" data-name="Path 631" d="M321.01,173.842c-.347,1.591.678,3.564,1.47,4.879a20.735,20.735,0,0,0,7.114,7.114c1.315.792,3.288,1.817,4.879,1.47,1.039-.219,2.842-1.756,2.863-2.894.012-.588-.605-1.223-1.2-1.783-.763-.719-1.732-1.449-2.464-1.369-.863.1-1.117.976-1.838,1.258-.778.312-1.64-.437-2.2-.868-.418-.323-.887-.706-1.35-1.129-.171-.155-.336-.32-.491-.491-.423-.463-.806-.932-1.129-1.35-.431-.559-1.18-1.421-.868-2.2.282-.721,1.159-.975,1.258-1.838.08-.732-.65-1.7-1.369-2.464-.56-.594-1.2-1.211-1.783-1.2C322.766,171,321.229,172.8,321.01,173.842Z" fill="#fff"/>
        <path id="Path_632" data-name="Path 632" d="M333.6,169.7a4.566,4.566,0,1,0,4.566,4.566A4.566,4.566,0,0,0,333.6,169.7Zm3.02,4.771a.752.752,0,0,1-.752.751H334.56v1.312a.752.752,0,0,1-.751.752h-.41a.752.752,0,0,1-.751-.752v-1.312h-1.312a.752.752,0,0,1-.752-.751v-.41a.752.752,0,0,1,.752-.751h1.312V172a.752.752,0,0,1,.751-.752h.41a.752.752,0,0,1,.751.752v1.312h1.312a.752.752,0,0,1,.752.751Z" fill="#fff"/>
      </g>
    </g>
  </g>
</svg>
