<svg xmlns="http://www.w3.org/2000/svg" width="303.558" height="155.233" viewBox="0 0 303.558 155.233"><g transform="translate(-632.108 -339.546)"><path d="M736.449,446.378l14.442-.057V428.575H736.449Z" fill="none" stroke="#0073ff" stroke-linecap="round" stroke-linejoin="round" stroke-width="1"/><path d="M709.55,399.23l-13.28,29.03-13.18-29.03H658.87l8.21,16.39h4.06l1.36-4.06h4.66l1.36,4.06h5.32v4.85h5.85v13.2h-8.54l.92,2.26,1.05,2.59,1.06,2.6,1.12,2.77h-4.05l2.8,5.59c-1.5,2.25-3.43,3.43-7.18,3.43a16.72,16.72,0,0,1-9.21-3.21l-8.79,16.5c5.57,4.28,12.96,5.78,19.93,5.78,13.82,0,21.86-6.75,26.36-15.64l28.61-57.11Zm101.26,25.98V399.23h-68.9v29.34h8.98v17.75l-8.98.04V470.7h21.65V450.22l-2.42,2.69a.266.266,0,0,1-.06.05,1.833,1.833,0,0,1-2.6-.15.121.121,0,0,1-.05-.05,1.838,1.838,0,0,1-.05-2.61l5.18-4.66v-27.4h25.61v32.9h15.61l1.9,4.89h-1.11V470.7h5.24V437.5h-9.35V425.21Zm83.8,25.87-11.95-5.48-6.7-3.08c-1.82,5.57-7.39,10.39-13.82,10.39-10.39,0-17.36-7.93-17.36-17.89s6.97-17.9,17.36-17.9a14.4,14.4,0,0,1,10.26,4.58v-8.39h-1.37l2.74-5.06H887.7c-5.46-5.77-13.62-10.2-25.56-10.2-18.89,0-33.89,10.59-38.12,27.16h8.97V437.5h-10.1c1.2,20.35,17.29,34.14,38.45,34.47v-8.96h7.18v-8.82h7.16v-4.04h10.76v12.73A36.4,36.4,0,0,0,894.61,451.08Z" fill="#0073ff"/><rect width="30.356" height="21.914" transform="translate(872.405 413.309)" stroke-width="1" stroke="#0073ff" stroke-linecap="round" stroke-linejoin="round" fill="none"/><path d="M904.114,413.31h-33.08l2.737-5.057h27.606Z" fill="none" stroke="#0073ff" stroke-linecap="round" stroke-linejoin="round" stroke-width="1"/><rect width="31.526" height="12.297" transform="translate(801.465 425.208)" stroke-width="1" stroke="#0073ff" stroke-linecap="round" stroke-linejoin="round" fill="none"/><rect width="25.421" height="15.267" transform="translate(780.152 455.878)" stroke-width="1" stroke="#0073ff" stroke-linecap="round" stroke-linejoin="round" fill="none"/><path d="M804.779,450.989H780.948l-1.9,4.888h27.63Z" fill="none" stroke="#0073ff" stroke-linecap="round" stroke-linejoin="round" stroke-width="1"/><path d="M723.565,378.786a4.59,4.59,0,0,1,4.576-4.576h2.019a4.385,4.385,0,0,1,.984-2.217,4.089,4.089,0,0,0-2.4-.779h-.031a3.774,3.774,0,0,0-3.28-2.752,5.632,5.632,0,0,0-10.5,2.752h-1.07a4.127,4.127,0,0,0,0,8.254h9.759A4.592,4.592,0,0,1,723.565,378.786Zm32.509,0a4.589,4.589,0,0,1-4.576,4.576H728.141a4.576,4.576,0,0,1,0-9.152h2.019a4.358,4.358,0,0,1,4.883-3.76l.131.019a6.244,6.244,0,0,1,11.5.775,3.567,3.567,0,0,1,3.4,2.966h1.416A4.589,4.589,0,0,1,756.074,378.786Z" fill="none" stroke="#0073ff" stroke-linecap="round" stroke-linejoin="round" stroke-width="1"/><path d="M863.536,376.023h0a3.1,3.1,0,0,0-2.7-2.265,4.635,4.635,0,0,0-8.642,2.265h-.73a3.5,3.5,0,0,0-3.52,2.963,3.4,3.4,0,0,0,2.943,3.8,3.359,3.359,0,0,0,.426.027h12.248a3.4,3.4,0,1,0,.281-6.794c-.1,0-.2,0-.307,0Z" fill="none" stroke="#0073ff" stroke-linecap="round" stroke-linejoin="round" stroke-width="1"/><circle cx="11.444" cy="11.444" r="11.444" transform="translate(792.694 349.806)" fill="none" stroke="#0073ff" stroke-linecap="round" stroke-linejoin="round" stroke-width="1"/><line y2="4.976" transform="translate(804.138 340.046)" stroke-width="1" stroke="#0073ff" stroke-linecap="round" stroke-linejoin="round" fill="none"/><line y2="4.976" transform="translate(804.138 377.478)" stroke-width="1" stroke="#0073ff" stroke-linecap="round" stroke-linejoin="round" fill="none"/><line x1="0.684" y2="1.65" transform="translate(810.348 344.607)" stroke-width="1" stroke="#0073ff" stroke-linecap="round" stroke-linejoin="round" fill="none"/><line y1="1.65" x2="0.684" transform="translate(797.244 376.243)" stroke-width="1" stroke="#0073ff" stroke-linecap="round" stroke-linejoin="round" fill="none"/><line x2="4.976" transform="translate(820.366 361.25)" stroke-width="1" stroke="#0073ff" stroke-linecap="round" stroke-linejoin="round" fill="none"/><line x1="4.976" transform="translate(782.934 361.25)" stroke-width="1" stroke="#0073ff" stroke-linecap="round" stroke-linejoin="round" fill="none"/><line y1="3.518" x2="3.518" transform="translate(815.612 346.256)" stroke-width="1" stroke="#0073ff" stroke-linecap="round" stroke-linejoin="round" fill="none"/><line x1="3.518" y2="3.518" transform="translate(789.144 372.724)" stroke-width="1" stroke="#0073ff" stroke-linecap="round" stroke-linejoin="round" fill="none"/><line x2="3.518" y2="3.518" transform="translate(815.612 372.724)" stroke-width="1" stroke="#0073ff" stroke-linecap="round" stroke-linejoin="round" fill="none"/><line x1="3.518" y1="3.518" transform="translate(789.144 346.256)" stroke-width="1" stroke="#0073ff" stroke-linecap="round" stroke-linejoin="round" fill="none"/><line x1="1.65" y1="0.684" transform="translate(819.131 367.46)" stroke-width="1" stroke="#0073ff" stroke-linecap="round" stroke-linejoin="round" fill="none"/><line x2="1.65" y2="0.684" transform="translate(787.495 354.356)" stroke-width="1" stroke="#0073ff" stroke-linecap="round" stroke-linejoin="round" fill="none"/><line y1="0.684" x2="1.65" transform="translate(819.131 354.356)" stroke-width="1" stroke="#0073ff" stroke-linecap="round" stroke-linejoin="round" fill="none"/><line y1="0.684" x2="1.65" transform="translate(787.495 367.46)" stroke-width="1" stroke="#0073ff" stroke-linecap="round" stroke-linejoin="round" fill="none"/><line x2="0.684" y2="1.65" transform="translate(810.348 376.243)" stroke-width="1" stroke="#0073ff" stroke-linecap="round" stroke-linejoin="round" fill="none"/><line x2="0.684" y2="1.65" transform="translate(797.244 344.607)" stroke-width="1" stroke="#0073ff" stroke-linecap="round" stroke-linejoin="round" fill="none"/><circle cx="1.654" cy="1.654" r="1.654" transform="translate(806.145 357.169)" fill="none" stroke="#0073ff" stroke-linecap="round" stroke-linejoin="round" stroke-width="1"/><path d="M807.133,355.217a2.1,2.1,0,0,1,2.956.289,2.145,2.145,0,0,1,.312.517" fill="none" stroke="#0073ff" stroke-linecap="round" stroke-linejoin="round" stroke-width="1"/><circle cx="1.654" cy="1.654" r="1.654" transform="translate(798.822 357.169)" fill="none" stroke="#0073ff" stroke-linecap="round" stroke-linejoin="round" stroke-width="1"/><path d="M801.143,355.217a2.1,2.1,0,0,0-2.956.289,2.145,2.145,0,0,0-.312.517" fill="none" stroke="#0073ff" stroke-linecap="round" stroke-linejoin="round" stroke-width="1"/><path d="M807.7,358.6a.519.519,0,1,1-.519.519.519.519,0,0,1,.519-.519Z" fill="#0073ff"/><circle cx="0.519" cy="0.519" r="0.519" transform="translate(799.958 358.599)" fill="#0073ff"/><path d="M806.515,366.736c.3,1.2.066,2.453-2.159,2.453s-2.461-1.252-2.159-2.453a2.274,2.274,0,0,1,4.317,0Z" fill="none" stroke="#0073ff" stroke-linecap="round" stroke-linejoin="round" stroke-width="1"/><path d="M857.946,490.408V488.86m-2.472-1.548v3.1m-3.383-1.548v1.548m-2.472,0v-3.1m37.5,3.1v-1.548m-2.36,0v1.548m-2.359-3.1v3.1m-2.36,0v-1.548m-2.633,1.548v-1.548m-30.662,1.548v-1.548" fill="none" stroke="#0073ff" stroke-linecap="round" stroke-linejoin="round" stroke-width="1"/><path d="M873.737,484.453H862.3l5.537-5.961Z" fill="none" stroke="#0073ff" stroke-linecap="round" stroke-linejoin="round" stroke-width="1"/><rect width="9.599" height="6.015" transform="translate(863.033 484.453)" stroke-width="1" stroke="#0073ff" stroke-linecap="round" stroke-linejoin="round" fill="none"/><line x2="3.306" transform="translate(866.215 486.947)" stroke-width="1" stroke="#0073ff" stroke-linecap="round" stroke-linejoin="round" fill="none"/><path d="M895.245,462.779a3.62,3.62,0,1,0,3.619,3.621h0A3.621,3.621,0,0,0,895.245,462.779Z" fill="none" stroke="#0073ff" stroke-linecap="round" stroke-linejoin="round" stroke-width="1"/><path d="M895.478,467.175h.441a1.414,1.414,0,0,0,1.21-1.553" fill="none" stroke="#0073ff" stroke-linecap="round" stroke-linejoin="round" stroke-width="1"/><path d="M895.245,468.112h-.5a1.2,1.2,0,0,1-1.2-1.2" fill="none" stroke="#0073ff" stroke-linecap="round" stroke-linejoin="round" stroke-width="1"/><line y1="8.005" transform="translate(895.245 464.4)" stroke-width="1" stroke="#0073ff" stroke-linecap="round" stroke-linejoin="round" fill="none"/><path d="M734.912,484.454a3.62,3.62,0,1,0,3.62,3.621A3.62,3.62,0,0,0,734.912,484.454Z" fill="none" stroke="#0073ff" stroke-linecap="round" stroke-linejoin="round" stroke-width="1"/><path d="M735.145,488.851h.441a1.414,1.414,0,0,0,1.21-1.554" fill="none" stroke="#0073ff" stroke-linecap="round" stroke-linejoin="round" stroke-width="1"/><path d="M734.911,489.789h-.5a1.2,1.2,0,0,1-1.2-1.2" fill="none" stroke="#0073ff" stroke-linecap="round" stroke-linejoin="round" stroke-width="1"/><line y1="8.005" transform="translate(734.912 486.076)" stroke-width="1" stroke="#0073ff" stroke-linecap="round" stroke-linejoin="round" fill="none"/><line y1="1.186" transform="translate(825.758 475.093)" stroke-width="1" stroke="#0073ff" stroke-linecap="round" stroke-linejoin="round" fill="none"/><line y2="1.186" transform="translate(823.951 475.093)" stroke-width="1" stroke="#0073ff" stroke-linecap="round" stroke-linejoin="round" fill="none"/><line y2="2.371" transform="translate(822.144 473.907)" stroke-width="1" stroke="#0073ff" stroke-linecap="round" stroke-linejoin="round" fill="none"/><line y2="1.186" transform="translate(820.337 475.093)" stroke-width="1" stroke="#0073ff" stroke-linecap="round" stroke-linejoin="round" fill="none"/><line y1="1.186" transform="translate(818.321 475.093)" stroke-width="1" stroke="#0073ff" stroke-linecap="round" stroke-linejoin="round" fill="none"/><line y2="1.186" transform="translate(762.271 492.515)" stroke-width="1" stroke="#0073ff" stroke-linecap="round" stroke-linejoin="round" fill="none"/><line y2="2.371" transform="translate(760.464 491.329)" stroke-width="1" stroke="#0073ff" stroke-linecap="round" stroke-linejoin="round" fill="none"/><line y2="1.186" transform="translate(758.657 492.515)" stroke-width="1" stroke="#0073ff" stroke-linecap="round" stroke-linejoin="round" fill="none"/><path d="M721.071,494.08H831.93c2.058,0,4.1-1.2,6.019-1.942h0c1.92-.742,3.96-1.669,6.019-1.669h54.661" fill="none" stroke="#0073ff" stroke-linecap="round" stroke-linejoin="round" stroke-width="1"/><line y2="1.626" transform="translate(902.5 470.779)" stroke-width="1" stroke="#0073ff" stroke-linecap="round" stroke-linejoin="round" fill="none"/><line y2="3.253" transform="translate(904.979 469.153)" stroke-width="1" stroke="#0073ff" stroke-linecap="round" stroke-linejoin="round" fill="none"/><line y1="1.626" transform="translate(907.457 470.779)" stroke-width="1" stroke="#0073ff" stroke-linecap="round" stroke-linejoin="round" fill="none"/><path d="M672.617,471.435a3.077,3.077,0,1,1-3.081-3.073h0a3.074,3.074,0,0,1,3.078,3.07Zm-.379,3.494c0,.755-.342,1.51-1.752,1.51h-.947m-2.319,0a1.264,1.264,0,0,0,1.266,1.264h1.053m-1.3-6.4a.836.836,0,0,0,.837.836m.462,7.27v-8.924" fill="none" stroke="#0073ff" stroke-linecap="round" stroke-linejoin="round" stroke-width="1"/><line x1="3.137" transform="translate(726.414 475.328)" stroke-width="1" stroke="#0073ff" stroke-linecap="round" stroke-linejoin="round" fill="none"/><path d="M722.413,472.708h10.856l-5.254-6.261Z" fill="none" stroke="#0073ff" stroke-linecap="round" stroke-linejoin="round" stroke-width="1"/><rect width="9.109" height="6.318" transform="translate(723.461 472.708)" stroke-width="1" stroke="#0073ff" stroke-linecap="round" stroke-linejoin="round" fill="none"/><line y2="1.626" transform="translate(713.849 477.336)" stroke-width="1" stroke="#0073ff" stroke-linecap="round" stroke-linejoin="round" fill="none"/><line y2="3.253" transform="translate(716.328 475.71)" stroke-width="1" stroke="#0073ff" stroke-linecap="round" stroke-linejoin="round" fill="none"/><line y1="1.626" transform="translate(718.806 477.336)" stroke-width="1" stroke="#0073ff" stroke-linecap="round" stroke-linejoin="round" fill="none"/><line y2="1.626" transform="translate(680.654 477.336)" stroke-width="1" stroke="#0073ff" stroke-linecap="round" stroke-linejoin="round" fill="none"/><line y2="3.253" transform="translate(683.133 475.71)" stroke-width="1" stroke="#0073ff" stroke-linecap="round" stroke-linejoin="round" fill="none"/><line y1="1.626" transform="translate(685.611 477.336)" stroke-width="1" stroke="#0073ff" stroke-linecap="round" stroke-linejoin="round" fill="none"/><path d="M644.353,472.469c.175.013,6.393.014,8.146.011a6.1,6.1,0,0,1,5.513,3.464h0a6.1,6.1,0,0,0,5.5,3.464h75.573" fill="none" stroke="#0073ff" stroke-linecap="round" stroke-linejoin="round" stroke-width="1"/><path d="M668.582,376.469a7.142,7.142,0,0,1,6.694,2.09,7.345,7.345,0,0,1,6.694-2.09" fill="none" stroke="#0073ff" stroke-linecap="round" stroke-linejoin="round" stroke-width="1"/><path d="M665.6,383.576a4.332,4.332,0,0,0-3.95,1.233,4.213,4.213,0,0,0-3.95-1.233" fill="none" stroke="#0073ff" stroke-linecap="round" stroke-linejoin="round" stroke-width="1"/><path d="M875.269,430.4v2.277m3.116-2.277v2.277M881.5,430.4v2.277m3.116-2.277v2.277m3.116-2.277v2.277m3.116-2.277v2.277m3.116-2.277v2.277m3.116-2.277v2.277M900.2,430.4v2.277m-24.93-10.637v2.277m3.116-2.277v2.277m3.116-2.277v2.277m3.116-2.277v2.277m3.116-2.277v2.277m3.116-2.277v2.277m3.115-2.277v2.277m3.116-2.277v2.277m3.116-2.277v2.277m-24.93-8.114v2.277m3.116-2.277v2.277M881.5,416.2v2.277m3.116-2.277v2.277m3.116-2.277v2.277m3.116-2.277v2.277m3.116-2.277v2.277m3.116-2.277v2.277m3.116-2.277v2.277m-27.5,8.467h29.655" fill="none" stroke="#0073ff" stroke-linecap="round" stroke-linejoin="round" stroke-width="1"/><path d="M854.052,435.223h50.767a11.837,11.837,0,0,1,8.37,3.467h0a11.837,11.837,0,0,0,8.37,3.467h13.607" fill="none" stroke="#0073ff" stroke-linecap="round" stroke-linejoin="round" stroke-width="1"/><line x2="52.274" transform="translate(858.461 472.406)" stroke-width="1" stroke="#0073ff" stroke-linecap="round" stroke-linejoin="round" fill="none"/><path d="M805.1,490.963a1.558,1.558,0,1,0,1.558,1.558h0A1.558,1.558,0,0,0,805.1,490.963Z" fill="none" stroke="#0073ff" stroke-linecap="round" stroke-linejoin="round" stroke-width="1"/><path d="M792.357,490.963a1.558,1.558,0,1,0,1.558,1.558h0A1.558,1.558,0,0,0,792.357,490.963Z" fill="none" stroke="#0073ff" stroke-linecap="round" stroke-linejoin="round" stroke-width="1"/><line x2="5.43" transform="translate(786.592 488.132)" stroke-width="1" stroke="#0073ff" stroke-linecap="round" stroke-linejoin="round" fill="none"/><path d="M801.8,488.638" fill="none" stroke="#0073ff" stroke-linecap="round" stroke-linejoin="round" stroke-width="1"/><path d="M791.245,488.13l2.175-3.248h6.729l1.9,3.248" fill="none" stroke="#0073ff" stroke-linecap="round" stroke-linejoin="round" stroke-width="1"/><path d="M790.853,491.938h-3.02v-3.807" fill="none" stroke="#0073ff" stroke-linecap="round" stroke-linejoin="round" stroke-width="1"/><line x1="9.253" transform="translate(794.205 491.931)" stroke-width="1" stroke="#0073ff" stroke-linecap="round" stroke-linejoin="round" fill="none"/><path d="M806.872,491.931h2.537a.387.387,0,0,0,.387-.387v-2.055a.64.64,0,0,0-.568-.636l-7.175-.72" fill="none" stroke="#0073ff" stroke-linecap="round" stroke-linejoin="round" stroke-width="1"/><path d="M802.053,488.131c-.117-.059-10.031,0-10.031,0" fill="none" stroke="#0073ff" stroke-linecap="round" stroke-linejoin="round" stroke-width="1"/><path d="M854.378,444.9h1.771l-1.906-2.622,1.53-.017-2.348-3.231-2.348,3.231,1.53.017L850.7,444.9Z" fill="none" stroke="#0073ff" stroke-linecap="round" stroke-linejoin="round" stroke-width="1"/><line y2="2.074" transform="translate(853.426 444.9)" stroke-width="1" stroke="#0073ff" stroke-linecap="round" stroke-linejoin="round" fill="none"/><path d="M856.661,447.268s-1.413-.029-3.752-.025a15.451,15.451,0,0,1-10.95-4.523l-.657-.657a15.441,15.441,0,0,0-10.919-4.523H790.77" fill="none" stroke="#0073ff" stroke-linecap="round" stroke-linejoin="round" stroke-width="1"/><line y2="1.73" transform="translate(818.898 428.574)" stroke-width="1" stroke="#0073ff" stroke-linecap="round" stroke-linejoin="round" fill="none"/><line y2="1.73" transform="translate(822.239 428.574)" stroke-width="1" stroke="#0073ff" stroke-linecap="round" stroke-linejoin="round" fill="none"/><line y2="1.73" transform="translate(825.581 428.574)" stroke-width="1" stroke="#0073ff" stroke-linecap="round" stroke-linejoin="round" fill="none"/><line y2="1.73" transform="translate(828.922 428.574)" stroke-width="1" stroke="#0073ff" stroke-linecap="round" stroke-linejoin="round" fill="none"/><line y2="1.73" transform="translate(815.557 428.574)" stroke-width="1" stroke="#0073ff" stroke-linecap="round" stroke-linejoin="round" fill="none"/><line y2="1.73" transform="translate(812.216 428.574)" stroke-width="1" stroke="#0073ff" stroke-linecap="round" stroke-linejoin="round" fill="none"/><line y2="1.73" transform="translate(808.874 428.574)" stroke-width="1" stroke="#0073ff" stroke-linecap="round" stroke-linejoin="round" fill="none"/><line y2="1.73" transform="translate(805.533 428.574)" stroke-width="1" stroke="#0073ff" stroke-linecap="round" stroke-linejoin="round" fill="none"/><line y2="1.73" transform="translate(818.898 433.216)" stroke-width="1" stroke="#0073ff" stroke-linecap="round" stroke-linejoin="round" fill="none"/><line y2="1.73" transform="translate(822.239 433.216)" stroke-width="1" stroke="#0073ff" stroke-linecap="round" stroke-linejoin="round" fill="none"/><line y2="1.73" transform="translate(825.581 433.216)" stroke-width="1" stroke="#0073ff" stroke-linecap="round" stroke-linejoin="round" fill="none"/><line y2="1.73" transform="translate(828.922 433.216)" stroke-width="1" stroke="#0073ff" stroke-linecap="round" stroke-linejoin="round" fill="none"/><line y2="1.73" transform="translate(815.557 433.216)" stroke-width="1" stroke="#0073ff" stroke-linecap="round" stroke-linejoin="round" fill="none"/><line y2="1.73" transform="translate(812.216 433.216)" stroke-width="1" stroke="#0073ff" stroke-linecap="round" stroke-linejoin="round" fill="none"/><line y2="1.73" transform="translate(808.874 433.216)" stroke-width="1" stroke="#0073ff" stroke-linecap="round" stroke-linejoin="round" fill="none"/><line y2="1.73" transform="translate(805.533 433.216)" stroke-width="1" stroke="#0073ff" stroke-linecap="round" stroke-linejoin="round" fill="none"/><path d="M773.584,471.217h32.571a9.155,9.155,0,0,1,6.474,2.681h0a9.156,9.156,0,0,0,6.474,2.682h8.437" fill="none" stroke="#0073ff" stroke-linecap="round" stroke-linejoin="round" stroke-width="1"/><path d="M800.326,461.718v-2.245m-5.136,2.245v-2.245m-5.136,2.245v-2.245m-5.137,2.245v-2.245m15.409,8.07V465.3m-5.136,2.245V465.3m-5.136,2.245V465.3m-5.137,2.245V465.3" fill="none" stroke="#0073ff" stroke-linecap="round" stroke-linejoin="round" stroke-width="1"/><path d="M742.622,494.081v-20.1H755v20.1" fill="none" stroke="#0073ff" stroke-linecap="round" stroke-linejoin="round" stroke-width="1"/><line y2="1.585" transform="translate(745.411 476.581)" stroke-width="1" stroke="#0073ff" stroke-linecap="round" stroke-linejoin="round" fill="none"/><line y2="1.585" transform="translate(748.947 476.581)" stroke-width="1" stroke="#0073ff" stroke-linecap="round" stroke-linejoin="round" fill="none"/><line y2="1.585" transform="translate(752.482 476.581)" stroke-width="1" stroke="#0073ff" stroke-linecap="round" stroke-linejoin="round" fill="none"/><line y2="1.585" transform="translate(745.411 481.088)" stroke-width="1" stroke="#0073ff" stroke-linecap="round" stroke-linejoin="round" fill="none"/><line y2="1.585" transform="translate(748.947 481.088)" stroke-width="1" stroke="#0073ff" stroke-linecap="round" stroke-linejoin="round" fill="none"/><line y2="1.585" transform="translate(752.482 481.088)" stroke-width="1" stroke="#0073ff" stroke-linecap="round" stroke-linejoin="round" fill="none"/><line y2="1.585" transform="translate(745.411 485.595)" stroke-width="1" stroke="#0073ff" stroke-linecap="round" stroke-linejoin="round" fill="none"/><line y2="1.585" transform="translate(748.947 485.595)" stroke-width="1" stroke="#0073ff" stroke-linecap="round" stroke-linejoin="round" fill="none"/><line y2="1.585" transform="translate(752.482 485.595)" stroke-width="1" stroke="#0073ff" stroke-linecap="round" stroke-linejoin="round" fill="none"/><rect width="3.223" height="4.615" transform="translate(747.289 489.467)" stroke-width="1" stroke="#0073ff" stroke-linecap="round" stroke-linejoin="round" fill="none"/><line y1="1.845" transform="translate(739.812 436.518)" stroke-width="1" stroke="#0073ff" stroke-linecap="round" stroke-linejoin="round" fill="none"/><line y1="1.845" transform="translate(743.737 436.518)" stroke-width="1" stroke="#0073ff" stroke-linecap="round" stroke-linejoin="round" fill="none"/><line y1="1.845" transform="translate(747.662 436.518)" stroke-width="1" stroke="#0073ff" stroke-linecap="round" stroke-linejoin="round" fill="none"/><line y1="1.845" transform="translate(739.812 431.936)" stroke-width="1" stroke="#0073ff" stroke-linecap="round" stroke-linejoin="round" fill="none"/><line y1="1.845" transform="translate(743.737 431.936)" stroke-width="1" stroke="#0073ff" stroke-linecap="round" stroke-linejoin="round" fill="none"/><line y1="1.845" transform="translate(747.662 431.936)" stroke-width="1" stroke="#0073ff" stroke-linecap="round" stroke-linejoin="round" fill="none"/><line y1="1.845" transform="translate(739.812 441.101)" stroke-width="1" stroke="#0073ff" stroke-linecap="round" stroke-linejoin="round" fill="none"/><line y1="1.845" transform="translate(743.737 441.101)" stroke-width="1" stroke="#0073ff" stroke-linecap="round" stroke-linejoin="round" fill="none"/><line y1="1.845" transform="translate(747.662 441.101)" stroke-width="1" stroke="#0073ff" stroke-linecap="round" stroke-linejoin="round" fill="none"/><path d="M731.5,424.416V420.68M733,427.964v1.847m-3.614,0v-1.847M733,437.981v1.847m-3.614,0v-1.847M733,433.16V435m-3.614,0v-1.847m0,11.947v-1.847m-3.524,7.683V424.661h10.59v21.671h0a4.628,4.628,0,0,0-3.2,1.289l-2.117,2.033a4.623,4.623,0,0,1-3.2,1.29Z" fill="none" stroke="#0073ff" stroke-linecap="round" stroke-linejoin="round" stroke-width="1"/><line x2="8.065" transform="translate(717.625 450.989)" stroke-width="1" stroke="#0073ff" stroke-linecap="round" stroke-linejoin="round" fill="none"/><line x1="3.584" transform="translate(748.899 446.378)" stroke-width="1" stroke="#0073ff" stroke-linecap="round" stroke-linejoin="round" fill="none"/><path d="M817.228,420.356v4.852" fill="none" stroke="#0073ff" stroke-linecap="round" stroke-width="1"/><path d="M821.039,483.125a4.194,4.194,0,1,0,4.194,4.2A4.194,4.194,0,0,0,821.039,483.125Z" fill="none" stroke="#0073ff" stroke-linecap="round" stroke-linejoin="round" stroke-width="1"/><path d="M821.309,488.219h.511a1.639,1.639,0,0,0,1.4-1.8" fill="none" stroke="#0073ff" stroke-linecap="round" stroke-linejoin="round" stroke-width="1"/><path d="M821.039,489.3h-.58a1.389,1.389,0,0,1-1.391-1.389h0" fill="none" stroke="#0073ff" stroke-linecap="round" stroke-linejoin="round" stroke-width="1"/><line y1="9.275" transform="translate(821.039 485.004)" stroke-width="1" stroke="#0073ff" stroke-linecap="round" stroke-linejoin="round" fill="none"/><path d="M772.041,489.438a1.247,1.247,0,1,1,0-.009Z" fill="none" stroke="#0073ff" stroke-linecap="round" stroke-linejoin="round" stroke-width="1"/><path d="M771.962,488.636l.448-1.169-1.036.868" fill="none" stroke="#0073ff" stroke-linecap="round" stroke-linejoin="round" stroke-width="1"/><path d="M769.62,488.636l-.448-1.169,1.036.868" fill="none" stroke="#0073ff" stroke-linecap="round" stroke-linejoin="round" stroke-width="1"/><path d="M774.259,493.339s1.236.623,1.882-.26c.749-1.024-.795-1.812.011-2.806" fill="none" stroke="#0073ff" stroke-linecap="round" stroke-linejoin="round" stroke-width="1"/><path d="M770.18,490.828v2.225a.534.534,0,0,0-.587.475l0,.036c0,.423.152.517.62.517" fill="none" stroke="#0073ff" stroke-linecap="round" stroke-linejoin="round" stroke-width="1"/><path d="M771.727,490.268a3.724,3.724,0,0,1,2.534,3.041" fill="none" stroke="#0073ff" stroke-linecap="round" stroke-linejoin="round" stroke-width="1"/><path d="M772.48,492.168a.829.829,0,0,0-.753.8v.877" fill="none" stroke="#0073ff" stroke-linecap="round" stroke-linejoin="round" stroke-width="1"/><line y1="5.166" transform="translate(885.295 403.087)" stroke-width="1" stroke="#0073ff" stroke-linecap="round" stroke-linejoin="round" fill="none"/><path d="M689.69,433.672H657.445a15.832,15.832,0,0,0-11.2,4.637h0c-2.969,2.969-6.15,4.637-10.349,4.637h-3.293" fill="none" stroke="#0073ff" stroke-linecap="round" stroke-linejoin="round" stroke-width="1"/><path d="M769.132,430.543a8.4,8.4,0,1,1,0,11.882,8.4,8.4,0,0,1,0-11.882Zm1.447,10.435a6.356,6.356,0,1,0,0-8.989" fill="none" stroke="#0073ff" stroke-linecap="round" stroke-linejoin="round" stroke-width="1"/><path d="M772.978,432.689a3.974,3.974,0,0,1,6.1,2.25" fill="none" stroke="#0073ff" stroke-linecap="round" stroke-linejoin="round" stroke-width="1"/><path d="M768.454,443.8a.68.68,0,0,0-.158-.254l-.548-.548a.676.676,0,0,0-.255-.158" fill="none" stroke="#0073ff" stroke-linecap="round" stroke-linejoin="round" stroke-width="1"/><path d="M860.245,425.779a3.513,3.513,0,1,0,3.619,3.512A3.568,3.568,0,0,0,860.245,425.779Z" fill="none" stroke="#0073ff" stroke-linecap="round" stroke-linejoin="round" stroke-width="1"/><path d="M860.478,430.044h.441a1.382,1.382,0,0,0,1.21-1.507" fill="none" stroke="#0073ff" stroke-linecap="round" stroke-linejoin="round" stroke-width="1"/><path d="M860.245,430.95h-.5a1.182,1.182,0,0,1-1.2-1.164h0" fill="none" stroke="#0073ff" stroke-linecap="round" stroke-linejoin="round" stroke-width="1"/><line y1="7.765" transform="translate(860.245 427.352)" stroke-width="1" stroke="#0073ff" stroke-linecap="round" stroke-linejoin="round" fill="none"/><rect width="1.452" height="1.885" transform="matrix(0.707, -0.707, 0.707, 0.707, 767.308, 442.653)" stroke-width="1" stroke="#0073ff" stroke-linecap="round" stroke-linejoin="round" fill="none"/><path d="M767.434,442.78a1.044,1.044,0,0,0-.919.065l-8.137,7.309a1.845,1.845,0,0,0,.047,2.61l.053.049h0a1.846,1.846,0,0,0,2.606.149c.018-.016.036-.032.053-.049l7.309-8.137a1.047,1.047,0,0,0,.066-.919Z" fill="none" stroke="#0073ff" stroke-linecap="round" stroke-linejoin="round" stroke-width="1"/><path d="M689.692,433.667H658.467v-13.2h31.225Zm-28.3-3.446h2.926m19.52,0h2.926m-25.37-3.154h2.926m19.52,0h2.926m-25.372-3.156h2.926m2.685,0h2.926m2.686,0h2.926m2.685,0h2.926m2.685,0h2.926m-7.036,9.758H669.321v-4.487h10.408Zm-12.285-6.6h13.271m-8.289,3.9v2.7m3.893-2.7v2.7m7.521-13.2H665.468v-4.848H683.84Zm-5.318-4.848h-7.38l1.357-4.065h4.666Zm-17.128,4.846v-14.2m-1.129,6.3h1.752c.322,0,.582.455.582,1.016s-.261,1.016-.582,1.016m-1.752-6.5h1.752c.322,0,.582.455.582,1.016s-.261,1.016-.582,1.016" fill="none" stroke="#0073ff" stroke-linecap="round" stroke-linejoin="round" stroke-width="1"/><path d="M663.777,443.888l4.148-10.216h13.229l4.148,10.216" fill="none" stroke="#0073ff" stroke-linecap="round" stroke-linejoin="round" stroke-width="1"/><line x2="15.069" transform="translate(667.005 435.928)" stroke-width="1" stroke="#0073ff" stroke-linecap="round" stroke-linejoin="round" fill="none"/><line x2="17.185" transform="translate(665.947 438.523)" stroke-width="1" stroke="#0073ff" stroke-linecap="round" stroke-linejoin="round" fill="none"/><line x2="19.301" transform="translate(664.889 441.117)" stroke-width="1" stroke="#0073ff" stroke-linecap="round" stroke-linejoin="round" fill="none"/><line x2="21.525" transform="translate(663.777 443.888)" stroke-width="1" stroke="#0073ff" stroke-linecap="round" stroke-linejoin="round" fill="none"/><path d="M882.659,443.8v6.355m-6.16,18.82H874.92m.764-7.431-3.451,4.047h6.9Zm-3.383-4.322v1.845m6.834-3.979v-1.847m3.445,0v1.847m-3.445,5.618v-1.845m3.445,0V460.7m0,3.771v1.847m-10.347,6.083h6.9V465.59h-6.9Zm-3.713-11.7v2.3m7.164-8.819H868.52V460.7m17.923,11.7V450.152H875.684V461.9m-1.251,1.111H861.342v9.4" fill="none" stroke="#0073ff" stroke-linecap="round" stroke-linejoin="round" stroke-width="1"/></g></svg>