<svg xmlns="http://www.w3.org/2000/svg" width="74.088" height="69.563" viewBox="0 0 74.088 69.563"><defs><style>.a{fill:none;stroke:#fff;stroke-miterlimit:10;stroke-width:3px;}.b{fill:#fff;font-size:20px;font-family:Circe-Bold, Circe;font-weight:700;}</style></defs><g transform="translate(1.5 1.653)"><path class="a" d="M-3904.993,330.439l10.3,7.507v36.531a5.2,5.2,0,0,1-5.2,5.2h-60.679a5.2,5.2,0,0,1-5.2-5.2V337.946l10.3-7.507" transform="translate(3965.783 -313.271)"/><path class="a" d="M-3825.613,330.439" transform="translate(3886.403 -313.271)"/><path class="a" d="M-3849.386,313.109" transform="translate(3899.866 -303.457)"/><path class="a" d="M-3918.266,300.505l11.871-8.653a5.2,5.2,0,0,1,6.131,0l11.871,8.653" transform="translate(3938.874 -290.853)"/><path class="a" d="M-3918.266,313.109" transform="translate(3938.874 -303.457)"/><path class="a" d="M-3942.039,330.439" transform="translate(3952.336 -313.271)"/><g transform="translate(1.432 43.285)"><line class="a" x2="26.912" y2="21.611" transform="translate(41.311)"/><line class="a" x1="26.912" y2="21.611" transform="translate(0)"/></g><text class="b" transform="translate(25.288 29.315)"><tspan x="0" y="0">@</tspan></text><path class="a" d="M-3894.7,347.748l-32.7,21.389a5.2,5.2,0,0,1-5.7,0l-32.695-21.389" transform="translate(3965.783 -323.073)"/><path class="a" d="M-3891.547,334.868l-22.4,14.652a5.2,5.2,0,0,1-5.7,0l-22.4-14.652V319.321a6.212,6.212,0,0,1,6.212-6.212h38.067a6.213,6.213,0,0,1,6.213,6.212Z" transform="translate(3952.336 -303.457)"/></g></svg>