<svg xmlns="http://www.w3.org/2000/svg" width="74.088" height="69.563"><defs><style>.a{fill:none;stroke:#fff;stroke-miterlimit:10;stroke-width:3px}</style></defs><path class="a" d="M62.29 18.821l10.3 7.507v36.531a5.2 5.2 0 0 1-5.2 5.2H6.711a5.2 5.2 0 0 1-5.2-5.2V26.328l10.3-7.507m10.297-7.516l11.871-8.653a5.2 5.2 0 0 1 6.131 0l11.871 8.653m-7.738 33.633l26.912 21.611M29.844 44.938L2.932 66.549"/><text transform="translate(26.788 30.968)" fill="#fff" font-size="20" font-family="Circe-Bold,Circe" font-weight="700"><tspan x="0" y="0">@</tspan></text><path class="a" d="M72.583 26.328l-32.7 21.389a5.2 5.2 0 0 1-5.7 0L1.488 26.328"/><path class="a" d="M62.289 33.064l-22.4 14.652a5.2 5.2 0 0 1-5.7 0l-22.4-14.652V17.517a6.212 6.212 0 0 1 6.212-6.212h38.067a6.213 6.213 0 0 1 6.213 6.212z"/></svg>