<svg xmlns="http://www.w3.org/2000/svg" width="23.964" height="23.963"><path d="M11.982 0a11.981 11.981 0 1 0 11.982 11.981A11.982 11.982 0 0 0 11.982 0zm5.711 8.952l.009.4a8.483 8.483 0 0 1-8.385 8.67 8.143 8.143 0 0 1-4.52-1.369 6.029 6.029 0 0 0 .7.041 5.8 5.8 0 0 0 3.662-1.3 2.971 2.971 0 0 1-2.754-2.117 2.894 2.894 0 0 0 .557.053 2.965 2.965 0 0 0 .776-.1 3.033 3.033 0 0 1-2.363-2.993V10.2a2.827 2.827 0 0 0 1.332.381 3.117 3.117 0 0 1-.911-4.068 8.278 8.278 0 0 0 6.078 3.184 3.27 3.27 0 0 1-.076-.694 3 3 0 0 1 2.947-3.047 2.9 2.9 0 0 1 2.149.961 5.768 5.768 0 0 0 1.877-.739 3.054 3.054 0 0 1-1.3 1.687 5.748 5.748 0 0 0 1.692-.481 6.024 6.024 0 0 1-1.47 1.568z" fill="#4aa1f2"/></svg>