<svg xmlns="http://www.w3.org/2000/svg" width="36.001" height="36"><g transform="translate(-850 -11049)"><circle cx="18" cy="18" r="18" transform="translate(850 11049)" fill="#fff"/><path d="M868.001 11049a18 18 0 1018 18 18 18 0 00-18-18zm8.58 13.449l.013.593c0 6.048-4.454 13.025-12.6 13.025a12.233 12.233 0 01-6.79-2.057 9.063 9.063 0 001.054.062 8.707 8.707 0 005.5-1.956 4.464 4.464 0 01-4.137-3.18 4.351 4.351 0 00.837.08 4.455 4.455 0 001.166-.155 4.556 4.556 0 01-3.55-4.5v-.056a4.248 4.248 0 002 .572 4.682 4.682 0 01-1.369-6.111 12.436 12.436 0 009.131 4.783 4.913 4.913 0 01-.114-1.043 4.507 4.507 0 014.427-4.578 4.351 4.351 0 013.228 1.444 8.667 8.667 0 002.82-1.11 4.587 4.587 0 01-1.949 2.534 8.634 8.634 0 002.542-.723 9.05 9.05 0 01-2.209 2.376z" fill="#4aa1f2"/></g></svg>