<svg xmlns="http://www.w3.org/2000/svg" width="36.001" height="36" viewBox="0 0 36.001 36"><g transform="translate(-1055.999 -11049)"><circle cx="18" cy="18" r="18" transform="translate(1056 11049)" fill="#fff"/><g transform="translate(969.118 10491.599)"><path d="M740.056,509.329a18,18,0,1,0,18,18A18,18,0,0,0,740.056,509.329Zm7.235,24.636H744.7c-1.677,0-1.961-.535-3.355-1.971-1.243-1.313-1.563-.62-1.534,1.241a.757.757,0,0,1-.789.889c-1.765,0-3.763.566-6.324-2.313a37.513,37.513,0,0,1-5.309-9.133c-.206-.562.078-.838.664-.838h2.679c.8,0,.871.429,1.09.953.932,2.214,3.427,7.255,4.016,4.781.347-1.423.333-4.6-1.129-4.883-1.027-.2,1.2-1.591,4.121-.884,1.074.263,1.08.76,1.064,1.486-.054,2.769-.373,4.4.325,4.883.667.451,2.386-3,3.32-5.271.248-.631.309-1.066,1.027-1.066h2.971c1.936,0-.029,2.917-1.7,5.174-1.353,1.832-1.273,1.859.29,3.377C747.773,531.978,749.635,533.965,747.292,533.965Z" transform="translate(-635.176 48.072)" fill="#577298"/></g></g></svg>