<svg xmlns="http://www.w3.org/2000/svg" width="22.599" height="22.599"><path d="M11.299 0a11.3 11.3 0 1 0 11.3 11.3A11.3 11.3 0 0 0 11.299 0zm5.542 15.465h-1.626c-1.053 0-1.231-.336-2.106-1.237-.78-.824-.981-.389-.963.779a.475.475 0 0 1-.495.558c-1.108 0-2.362.355-3.97-1.452A23.549 23.549 0 0 1 4.348 8.38c-.129-.353.049-.526.417-.526h1.678c.5 0 .547.269.684.6.585 1.39 2.151 4.554 2.521 3 .218-.893.209-2.886-.709-3.065-.645-.123.751-1 2.587-.555.674.165.678.477.668.933-.034 1.738-.234 2.765.2 3.065.419.283 1.5-1.886 2.084-3.309.156-.4.194-.669.645-.669h1.865c1.215 0-.018 1.831-1.07 3.248-.849 1.15-.8 1.167.182 2.12 1.043.996 2.212 2.243.743 2.243z" fill="#577298"/></svg>