<svg xmlns="http://www.w3.org/2000/svg" width="108" height="26" viewBox="0 0 108 26"><defs><style>.a{fill:#0073ff;}.b,.e{fill:none;}.b{stroke:#fff;stroke-miterlimit:10;stroke-width:1.6px;}.c{fill:#fff;font-size:12px;font-family:ProximaNova-Bold, Proxima Nova;font-weight:700;letter-spacing:0.04em;}.d{stroke:none;}</style></defs><g transform="translate(-48 -280)"><rect class="a" width="108" height="26" rx="13" transform="translate(48 280)"/><g transform="translate(4458 1883.371)"><g transform="translate(-4398 -1597)"><path class="b" d="M-137.847,691.563c.547,0,.991-.657.991-1.468v-2.148h-2.61V690.1c0,.81.444,1.468.991,1.468Z" transform="translate(150.579 -677.84)"/><path class="b" d="M-153.052,688.413c-.547,0-.991-.661-.991-1.477V674.69h11.172v12.245c0,.816.444,1.477.991,1.477Z" transform="translate(154.043 -674.69)"/><line class="b" x2="7.273" transform="translate(1.931 10.693)"/><line class="b" x2="7.273" transform="translate(1.931 8.188)"/><g class="b" transform="translate(1.931 2.267)"><rect class="d" width="7.273" height="4.413"/><rect class="e" x="0.8" y="0.8" width="5.673" height="2.813"/></g></g></g><text class="c" transform="translate(82 298)"><tspan x="0" y="0">НОВОСТИ</tspan></text></g></svg>