<svg xmlns="http://www.w3.org/2000/svg" width="94.893" height="26" viewBox="0 0 94.893 26"><defs><style>.a{fill:#0073ff;}.b{fill:#fff;font-size:12px;font-family:ProximaNova-Bold, Proxima Nova;font-weight:700;letter-spacing:0.04em;}.c{fill:none;stroke:#fff;stroke-miterlimit:10;stroke-width:2px;}</style></defs><g transform="translate(-1639 -1264)"><g transform="translate(1639 1264)"><rect class="a" width="94.893" height="26" rx="13"/><text class="b" transform="translate(36 17)"><tspan x="0" y="0">АНОНС</tspan></text><g transform="translate(10 6)"><path class="c" d="M-419.59,375.877c0-3.772-1.4-5.542-1.4-5.542H-422.8a30.18,30.18,0,0,1,.513,5.26C-422.287,377.366-419.59,376.892-419.59,375.877Z" transform="translate(426.124 -362.782)"/><path class="c" d="M-416.917,363.325l7.912,1.9v-8.861l-7.912,1.9Z" transform="translate(423.005 -356.362)"/><path class="c" d="M0,0H3.6A2.733,2.733,0,0,1,6.33,2.733v0A2.331,2.331,0,0,1,4,5.064H0a0,0,0,0,1,0,0V0A0,0,0,0,1,0,0Z" transform="translate(6.33 6.962) rotate(-180)"/></g></g></g></svg>