<svg xmlns="http://www.w3.org/2000/svg" xmlns:xlink="http://www.w3.org/1999/xlink" width="115" height="26" viewBox="0 0 115 26"><defs><style>.a{fill:url(#a);}.b{fill:#fff;font-size:12px;font-family:ProximaNova-Bold, Proxima Nova;font-weight:700;letter-spacing:0.04em;}.c{fill:none;stroke:#fff;stroke-miterlimit:10;stroke-width:2px;}</style><linearGradient id="a" x1="1.014" y1="0.609" x2="0.016" y2="0.588" gradientUnits="objectBoundingBox"><stop offset="0" stop-color="#ff4006"/><stop offset="1" stop-color="#ff0038"/></linearGradient></defs><g transform="translate(-96 -1102)"><rect class="a" width="115" height="26" rx="13" transform="translate(96 1102)"/><text class="b" transform="translate(130 1119)"><tspan x="0" y="0">РЕПОРТАЖ</tspan></text><g transform="translate(535.62 752.638)"><path class="c" d="M-419.59,375.877c0-3.772-1.4-5.542-1.4-5.542H-422.8a30.18,30.18,0,0,1,.513,5.26C-422.287,377.366-419.59,376.892-419.59,375.877Z" transform="translate(-3.496 -6.42)"/><path class="c" d="M-416.917,363.325l7.912,1.9v-8.861l-7.912,1.9Z" transform="translate(-6.615 0)"/><path class="c" d="M0,0H3.6A2.733,2.733,0,0,1,6.33,2.733v0A2.331,2.331,0,0,1,4,5.064H0a0,0,0,0,1,0,0V0A0,0,0,0,1,0,0Z" transform="translate(-423.29 363.325) rotate(-180)"/></g></g></svg>