<svg xmlns="http://www.w3.org/2000/svg" xmlns:xlink="http://www.w3.org/1999/xlink" width="85.711" height="26" viewBox="0 0 85.711 26"><defs><style>.a{fill:url(#a);}.b{fill:#fff;font-size:12px;font-family:ProximaNova-Bold, Proxima Nova;font-weight:700;letter-spacing:0.04em;}.c{fill:none;stroke:#fff;stroke-miterlimit:10;stroke-width:2px;}</style><linearGradient id="a" y1="0.5" x2="1.02" y2="0.449" gradientUnits="objectBoundingBox"><stop offset="0" stop-color="#18ce7e"/><stop offset="1" stop-color="#80c44c"/></linearGradient></defs><g transform="translate(-96 -1182)"><rect class="a" width="85.71" height="26" rx="13" transform="translate(96 1182)"/><text class="b" transform="translate(130 1199)"><tspan x="0" y="0">ЛЮДИ</tspan></text><g transform="translate(-807.015 566.759)"><path class="c" d="M923.245,663.841l-1.755.691a4.712,4.712,0,0,1-3.485,0l-1.754-.691c-1.787,0-3.237.85-3.237,2.914v1.131h13.466v-1.131C926.481,664.691,925.032,663.841,923.245,663.841Z" transform="translate(0 -33.406)"/><path class="c" d="M931.161,625.5a2.94,2.94,0,0,0,2.805,2.831,2.9,2.9,0,0,0,2.805-2.831l.127-1.521a2.792,2.792,0,0,0-2.826-2.734h-.213a2.792,2.792,0,0,0-2.826,2.734Z" transform="translate(-14.13)"/></g></g></svg>