<svg width="151" height="82" fill="none" xmlns="http://www.w3.org/2000/svg"><path d="M10.2 37.452l3.263-17.76 38.304-7.008L39.96 81.42H19.991l8.256-47.808-18.048 3.84zm56.483 35.71c-.112.704.016 1.288.384 1.752.384.464.936.712 1.656.744a3.755 3.755 0 001.8-.408 5.496 5.496 0 001.512-1.104l-.504 3.888a6.802 6.802 0 01-1.512.624c-.544.16-1.176.24-1.896.24-1.184 0-2.232-.24-3.144-.72-.912-.496-1.6-1.176-2.064-2.04-.464-.864-.616-1.864-.456-3 .16-1.168.584-2.184 1.272-3.048a6.843 6.843 0 012.568-1.992c1.04-.48 2.168-.72 3.384-.72.72 0 1.352.08 1.896.24.544.16 1.04.36 1.488.6l-.528 3.888a2.89 2.89 0 00-1.152-1.128 3.033 3.033 0 00-1.488-.384c-.496 0-.976.12-1.44.36a3.42 3.42 0 00-1.152.936c-.32.384-.528.808-.624 1.272zm20.148-5.544l-1.896 11.04H80.95l1.296-7.488h-3.384l-1.296 7.488h-3.984l1.92-11.04H86.83zm.918 5.52c.16-1.152.576-2.16 1.248-3.024a7.068 7.068 0 012.568-2.016c1.024-.48 2.136-.72 3.336-.72 1.168 0 2.192.248 3.072.744.896.48 1.568 1.152 2.016 2.016.464.864.616 1.864.456 3-.16 1.152-.576 2.16-1.248 3.024a6.856 6.856 0 01-2.544 2.016c-1.024.48-2.136.72-3.336.72-1.168 0-2.2-.24-3.096-.72-.896-.496-1.576-1.176-2.04-2.04-.448-.864-.592-1.864-.432-3zm4.224.024c-.096.608-.008 1.152.264 1.632.272.464.712.712 1.32.744.64.016 1.216-.216 1.728-.696.528-.48.848-1.056.96-1.728.096-.608.008-1.152-.264-1.632s-.712-.728-1.32-.744c-.64-.032-1.216.2-1.728.696a3.117 3.117 0 00-.96 1.728zm13.992 0c-.112.704.016 1.288.384 1.752.384.464.936.712 1.656.744a3.755 3.755 0 001.8-.408 5.496 5.496 0 001.512-1.104l-.504 3.888a6.802 6.802 0 01-1.512.624c-.544.16-1.176.24-1.896.24-1.184 0-2.232-.24-3.144-.72-.912-.496-1.6-1.176-2.064-2.04-.464-.864-.616-1.864-.456-3 .16-1.168.584-2.184 1.272-3.048a6.843 6.843 0 012.568-1.992c1.04-.48 2.168-.72 3.384-.72.72 0 1.352.08 1.896.24.544.16 1.04.36 1.488.6l-.528 3.888a2.89 2.89 0 00-1.152-1.128 3.033 3.033 0 00-1.488-.384c-.496 0-.976.12-1.44.36a3.42 3.42 0 00-1.152.936c-.32.384-.528.808-.624 1.272zm7.331-.024c.16-1.152.576-2.16 1.248-3.024a7.068 7.068 0 012.568-2.016c1.024-.48 2.136-.72 3.336-.72 1.168 0 2.192.248 3.072.744.896.48 1.568 1.152 2.016 2.016.464.864.616 1.864.456 3-.16 1.152-.576 2.16-1.248 3.024a6.856 6.856 0 01-2.544 2.016c-1.024.48-2.136.72-3.336.72-1.168 0-2.2-.24-3.096-.72-.896-.496-1.576-1.176-2.04-2.04-.448-.864-.592-1.864-.432-3zm4.224.024c-.096.608-.008 1.152.264 1.632.272.464.712.712 1.32.744.64.016 1.216-.216 1.728-.696.528-.48.848-1.056.96-1.728.096-.608.008-1.152-.264-1.632s-.712-.728-1.32-.744c-.64-.032-1.216.2-1.728.696a3.117 3.117 0 00-.96 1.728zm10.176-.432c0-1.536.224-2.952.672-4.248.464-1.312 1.128-2.456 1.992-3.432a9.3 9.3 0 013.192-2.328c.96-.416 1.768-.824 2.424-1.224.656-.4 1.16-.92 1.512-1.56l4.008.024c-.336 1.168-.984 2.176-1.944 3.024-.96.848-2.08 1.544-3.36 2.088a9.845 9.845 0 00-2.76 1.728 5.701 5.701 0 00-1.632 2.448 4.87 4.87 0 011.584-1.344c.624-.336 1.344-.504 2.16-.504 1.136 0 2.104.256 2.904.768a4.455 4.455 0 011.8 2.04c.4.864.528 1.84.384 2.928-.144 1.12-.536 2.112-1.176 2.976a6.706 6.706 0 01-2.472 2.04c-1.008.496-2.136.744-3.384.744-1.36 0-2.48-.288-3.36-.864a5.245 5.245 0 01-1.92-2.256 7.474 7.474 0 01-.624-3.048zm4.344.864c0 .544.144 1.008.432 1.392.304.368.736.552 1.296.552.64 0 1.208-.232 1.704-.696.496-.48.8-1.056.912-1.728.128-.72.016-1.304-.336-1.752-.336-.448-.808-.672-1.416-.672-.416 0-.824.112-1.224.336-.4.208-.728.528-.984.96-.256.416-.384.952-.384 1.608l-.12-.048v.024l.12.024z" fill="#0073FF"/></svg>