<svg width="48" height="74" fill="none" xmlns="http://www.w3.org/2000/svg"><path d="M3.176 28.032l-1.967-.361-.54 2.94 2.923-.623-.416-1.956zm3.264-17.76l-.36-1.967-1.358.248-.25 1.357 1.968.362zm38.304-7.008l1.971.339L47.2.782l-2.816.515.36 1.967zM32.936 72v2h1.686l.285-1.661L32.936 72zm-19.968 0l-1.97-.34-.405 2.34h2.375v-2zm8.256-47.808l1.97.34.504-2.911-2.89.615.416 1.956zm-16.08 4.201l3.263-17.76-3.934-.723-3.264 17.76 3.934.723zM6.8 12.24l38.304-7.008-.72-3.934L6.08 8.305l.72 3.934zm35.973-9.314L30.965 71.661l3.942.678L46.715 3.603l-3.942-.678zM32.936 70H12.968v4h19.968v-4zm-17.997 2.34l8.256-47.808-3.942-.68-8.256 47.808 3.942.68zm5.869-50.104L2.76 26.076l.832 3.912 18.048-3.84-.832-3.912z" fill="#0073FF"/></svg>