<svg width="166" height="82" fill="none" xmlns="http://www.w3.org/2000/svg"><path d="M.417 81.42l32.448-29.28c1.856-1.728 3.648-3.392 5.376-4.992 1.792-1.6 3.296-3.232 4.512-4.896 1.28-1.728 2.048-3.584 2.304-5.568.192-1.664-.128-3.072-.96-4.224-.768-1.216-2.208-1.856-4.32-1.92-1.664-.064-3.168.384-4.512 1.344-1.28.96-2.336 2.176-3.168 3.648a15.494 15.494 0 00-1.728 4.608H10.017a35.002 35.002 0 015.376-13.632c2.816-4.16 6.464-7.488 10.944-9.984 4.544-2.56 9.856-3.84 15.936-3.84 5.056 0 9.536 1.024 13.44 3.072s6.848 4.8 8.832 8.256c2.048 3.392 2.752 7.168 2.112 11.328-.448 3.712-1.856 7.008-4.224 9.888a41.808 41.808 0 01-8.064 7.68L41.313 62.22H64.93l-3.072 19.2H.417zm82.767-8.937c-.112.703.016 1.287.384 1.751.384.465.936.713 1.656.745a3.755 3.755 0 001.8-.409 5.496 5.496 0 001.512-1.103l-.504 3.888a6.802 6.802 0 01-1.512.623c-.544.16-1.176.24-1.896.24-1.184 0-2.232-.24-3.144-.72-.912-.496-1.6-1.175-2.064-2.04-.464-.864-.616-1.864-.456-3 .16-1.168.584-2.183 1.272-3.047a6.843 6.843 0 012.568-1.993c1.04-.48 2.168-.72 3.384-.72.72 0 1.352.08 1.896.24.544.16 1.04.36 1.488.6l-.528 3.889a2.89 2.89 0 00-1.152-1.129 3.033 3.033 0 00-1.488-.383c-.496 0-.976.12-1.44.36a3.42 3.42 0 00-1.152.935c-.32.385-.528.809-.624 1.273zm20.148-5.544l-1.896 11.04h-3.984l1.296-7.489h-3.384l-1.296 7.489h-3.984l1.92-11.04h11.328zm.918 5.52c.16-1.153.576-2.16 1.248-3.025a7.068 7.068 0 012.568-2.016c1.024-.48 2.136-.72 3.336-.72 1.168 0 2.192.249 3.072.745.896.48 1.568 1.151 2.016 2.016.464.864.616 1.864.456 3-.16 1.151-.576 2.16-1.248 3.023a6.856 6.856 0 01-2.544 2.017c-1.024.48-2.136.72-3.336.72-1.168 0-2.2-.24-3.096-.72-.896-.496-1.576-1.176-2.04-2.04-.448-.865-.592-1.865-.432-3zm4.224.023c-.096.609-.008 1.153.264 1.633.272.464.712.712 1.32.744.64.016 1.216-.216 1.728-.697.528-.48.848-1.056.96-1.728.096-.608.008-1.151-.264-1.632-.272-.48-.712-.728-1.32-.744-.64-.032-1.216.2-1.728.696a3.117 3.117 0 00-.96 1.728zm13.992 0c-.112.704.016 1.288.384 1.752.384.465.936.713 1.656.745a3.755 3.755 0 001.8-.409 5.496 5.496 0 001.512-1.103l-.504 3.888a6.802 6.802 0 01-1.512.623c-.544.16-1.176.24-1.896.24-1.184 0-2.232-.24-3.144-.72-.912-.496-1.6-1.175-2.064-2.04-.464-.864-.616-1.864-.456-3 .16-1.168.584-2.183 1.272-3.047a6.843 6.843 0 012.568-1.993c1.04-.48 2.168-.72 3.384-.72.72 0 1.352.08 1.896.24.544.16 1.04.36 1.488.6l-.528 3.889a2.89 2.89 0 00-1.152-1.129 3.033 3.033 0 00-1.488-.383c-.496 0-.976.12-1.44.36a3.42 3.42 0 00-1.152.935c-.32.385-.528.809-.624 1.273zm7.331-.023c.16-1.153.576-2.16 1.248-3.025a7.068 7.068 0 012.568-2.016c1.024-.48 2.136-.72 3.336-.72 1.168 0 2.192.249 3.072.745.896.48 1.568 1.151 2.016 2.016.464.864.616 1.864.456 3-.16 1.151-.576 2.16-1.248 3.023a6.856 6.856 0 01-2.544 2.017c-1.024.48-2.136.72-3.336.72-1.168 0-2.2-.24-3.096-.72-.896-.496-1.576-1.176-2.04-2.04-.448-.865-.592-1.865-.432-3zm4.224.023c-.096.609-.008 1.153.264 1.633.272.464.712.712 1.32.744.64.016 1.216-.216 1.728-.697.528-.48.848-1.056.96-1.728.096-.608.008-1.151-.264-1.632-.272-.48-.712-.728-1.32-.744-.64-.032-1.216.2-1.728.696a3.117 3.117 0 00-.96 1.728zm10.176-.431c0-1.537.224-2.953.672-4.249.464-1.312 1.128-2.456 1.992-3.431a9.3 9.3 0 013.192-2.328c.96-.416 1.768-.825 2.424-1.224.656-.4 1.16-.92 1.512-1.56l4.008.023c-.336 1.169-.984 2.177-1.944 3.025-.96.847-2.08 1.543-3.36 2.087a9.845 9.845 0 00-2.76 1.728 5.701 5.701 0 00-1.632 2.448 4.87 4.87 0 011.584-1.343c.624-.337 1.344-.505 2.16-.505 1.136 0 2.104.257 2.904.769a4.455 4.455 0 011.8 2.04c.4.863.528 1.84.384 2.927-.144 1.12-.536 2.112-1.176 2.977a6.706 6.706 0 01-2.472 2.04c-1.008.496-2.136.744-3.384.744-1.36 0-2.48-.288-3.36-.864a5.245 5.245 0 01-1.92-2.257 7.474 7.474 0 01-.624-3.047zm4.344.864c0 .543.144 1.007.432 1.391.304.368.736.553 1.296.553.64 0 1.208-.233 1.704-.697.496-.48.8-1.056.912-1.728.128-.72.016-1.303-.336-1.751-.336-.449-.808-.673-1.416-.673-.416 0-.824.112-1.224.337-.4.208-.728.528-.984.96-.256.415-.384.951-.384 1.608l-.12-.049v.025l.12.023z" fill="#0073FF"/></svg>