<svg width="75" height="73" fill="none" xmlns="http://www.w3.org/2000/svg"><path d="M5.808 71l-1.34-1.485L.606 73h5.202v-2zm32.448-29.28l1.34 1.485.011-.01.012-.011-1.363-1.464zm5.376-4.992L42.3 35.236l-.014.012-.013.013 1.359 1.467zm4.512-4.896l-1.607-1.19-.008.01 1.615 1.18zm2.304-5.568l1.984.256.001-.013.002-.014-1.987-.229zm-.96-4.224l-1.691 1.068.033.053.037.05 1.621-1.171zm-4.32-1.92l-.077 1.998h.008l.008.001.061-1.999zm-4.512 1.344l-1.163-1.627-.018.013-.019.014 1.2 1.6zm-3.168 3.648l-1.741-.984 1.741.984zM35.76 29.72v2h1.64l.321-1.608-1.961-.392zm-20.352 0l-1.972-.333-.394 2.333h2.366v-2zm5.376-13.632l-1.656-1.121-.006.009-.006.008 1.668 1.104zm10.944-9.984l.973 1.747.009-.005-.982-1.742zm29.376-.768l-.93 1.771.93-1.771zm8.832 8.256l-1.735.996.012.019.01.019 1.713-1.034zm2.112 11.328l-1.977-.304-.005.032-.004.032 1.986.24zm-4.224 9.888l-1.545-1.27-.008.01-.009.01 1.562 1.25zm-8.064 7.68l1.161 1.628.009-.006.008-.006-1.178-1.616zM46.704 51.8l-1.161-1.628-5.087 3.628h6.248v-2zm23.616 0l1.975.316.37-2.316H70.32v2zM67.248 71v2h1.705l.27-1.684L67.248 71zm-60.1 1.485l32.448-29.28-2.68-2.97-32.448 29.28 2.68 2.97zm32.47-29.301c1.856-1.727 3.646-3.39 5.373-4.988l-2.718-2.935c-1.73 1.6-3.523 3.266-5.38 4.995l2.726 2.928zm5.346-4.964c1.88-1.679 3.483-3.413 4.795-5.208l-3.23-2.36c-1.12 1.533-2.525 3.063-4.229 4.584l2.664 2.984zm4.787-5.197c1.468-1.982 2.378-4.155 2.68-6.503l-3.967-.512c-.209 1.62-.835 3.159-1.927 4.634l3.214 2.38zm2.684-6.53c.238-2.066-.15-3.996-1.326-5.624l-3.242 2.342c.488.676.74 1.562.594 2.824l3.974.458zm-1.256-5.521c-1.27-2.01-3.506-2.777-5.95-2.851l-.122 3.998c1.78.054 2.424.567 2.69.989l3.382-2.136zm-5.934-2.85c-2.103-.081-4.044.495-5.752 1.715l2.325 3.255c.98-.7 2.048-1.02 3.273-.973l.154-3.997zm-5.789 1.742c-1.513 1.135-2.75 2.565-3.71 4.264l3.483 1.968c.704-1.245 1.58-2.247 2.627-3.032l-2.4-3.2zm-3.71 4.264a17.495 17.495 0 00-1.947 5.2l3.922.784a13.493 13.493 0 011.508-4.016l-3.482-1.968zm.014 3.592H15.408v4H35.76v-4zm-18.38 2.333a33.002 33.002 0 015.072-12.861l-3.336-2.207a37.001 37.001 0 00-5.68 14.402l3.944.666zm5.06-12.844c2.637-3.895 6.049-7.01 10.261-9.358l-1.946-3.494c-4.748 2.645-8.632 6.185-11.627 10.61l3.312 2.242zm10.27-9.363c4.198-2.365 9.16-3.582 14.954-3.582v-4c-6.367 0-12.028 1.343-16.918 4.098l1.964 3.484zm14.954-3.582c4.78 0 8.933.966 12.51 2.843l1.86-3.542C57.802 1.345 52.995.264 47.663.264v4zm12.51 2.843c3.605 1.89 6.253 4.389 8.027 7.48l3.47-1.99c-2.194-3.821-5.434-6.827-9.638-9.032l-1.858 3.542zm8.05 7.519c1.79 2.964 2.42 6.262 1.847 9.99l3.954.608c.706-4.592-.07-8.846-2.377-12.666l-3.424 2.068zm1.838 10.054c-.402 3.335-1.658 6.273-3.783 8.858l3.09 2.54c2.61-3.175 4.171-6.829 4.665-10.918l-3.972-.48zm-3.8 8.879a39.81 39.81 0 01-7.68 7.313l2.356 3.232a43.806 43.806 0 008.448-8.047l-3.124-2.498zm-7.663 7.3l-13.056 9.313 2.322 3.256 13.056-9.312L58.6 40.86zM46.704 53.8H70.32v-4H46.704v4zm21.641-2.316l-3.072 19.2 3.95.632 3.072-19.2-3.95-.632zM67.248 69H5.808v4h61.44v-4z" fill="#0073FF"/></svg>