<svg width="60" height="71" viewBox="0 0 60 71" fill="none" xmlns="http://www.w3.org/2000/svg">
<path d="M25.144 70.92C19.576 70.856 14.872 69.672 11.032 67.368C7.256 65 4.44 61.896 2.584 58.056C0.792 54.216 0.0880003 50.024 0.472 45.48L20.536 45.576C20.472 48.328 21.016 50.504 22.168 52.104C23.384 53.64 25.176 54.472 27.544 54.6C29.656 54.664 31.576 54.184 33.304 53.16C35.096 52.072 36.152 50.44 36.472 48.264C37.048 45.64 36.152 43.752 33.784 42.6C31.416 41.384 28.344 40.744 24.568 40.68L25.912 30.792L26.296 28.296C28.152 28.168 30.008 27.816 31.864 27.24C33.784 26.6 35.416 25.768 36.76 24.744C38.104 23.656 38.84 22.344 38.968 20.808C39.16 18.12 37.56 16.776 34.168 16.776C32.056 16.648 30.296 17.256 28.888 18.6C27.48 19.944 26.52 21.512 26.008 23.304L6.904 23.208C7.672 18.792 9.368 14.888 11.992 11.496C14.616 8.04 17.944 5.32 21.976 3.336C26.072 1.352 30.68 0.359997 35.8 0.359997C40.536 0.359997 44.792 1.128 48.568 2.664C52.408 4.136 55.32 6.312 57.304 9.192C59.352 12.008 60.088 15.432 59.512 19.464C59 23.24 57.464 26.28 54.904 28.584C52.408 30.888 49.368 32.68 45.784 33.96C49.432 35.368 52.28 37.384 54.328 40.008C56.376 42.632 57.112 46.088 56.536 50.376C55.96 54.728 54.2 58.44 51.256 61.512C48.312 64.584 44.568 66.92 40.024 68.52C35.544 70.12 30.584 70.92 25.144 70.92Z" fill="#0073FF"/>
</svg>
