<svg width="64" height="75" fill="none" xmlns="http://www.w3.org/2000/svg"><path d="M27.144 72.92l-.023 2h.023v-2zm-14.112-3.552l-1.063 1.694.017.01.017.011 1.029-1.715zm-8.448-9.312l-1.812.846.005.012.006.012 1.801-.87zM2.472 47.48l.01-2-1.847-.009-.156 1.84 1.993.169zm20.064.096l2 .047.047-2.037-2.037-.01-.01 2zm1.632 6.528l-1.623 1.169.027.037.028.035 1.568-1.241zm5.376 2.496l-.108 1.997.024.001.023.001.061-1.999zm5.76-1.44l1.02 1.72.009-.005.009-.005-1.038-1.71zm3.168-4.896l-1.953-.429-.015.069-.01.069 1.978.291zM35.784 44.6l-.914 1.78.02.009.02.01.874-1.799zm-9.216-1.92l-1.982-.27-.303 2.232 2.251.038.034-2zm1.344-9.888l-1.977-.304-.002.017-.003.018 1.982.269zm.384-2.496l-.138-1.995-1.596.11-.243 1.58 1.977.305zm5.568-1.056l.593 1.91.02-.006.02-.007-.633-1.897zm4.896-2.496l1.212 1.59.023-.017.023-.018-1.258-1.555zm2.208-3.936l1.993.166.001-.012v-.011l-1.994-.143zm-4.8-4.032l-.121 1.996.06.004h.061v-2zm-5.28 1.824l-1.38-1.447h-.001l1.381 1.447zm-2.88 4.704l-.01 2 1.516.008.417-1.459-1.923-.549zm-19.104-.096l-1.97-.343-.406 2.331 2.366.012.01-2zm5.088-11.712l1.582 1.224.005-.007.006-.008-1.593-1.209zm9.984-8.16l-.872-1.8-.011.005.883 1.795zm26.592-.672l-.754 1.853.02.007.018.007.716-1.867zm8.736 6.528l-1.647 1.135.015.02.015.021 1.617-1.176zm2.208 10.272l-1.98-.283v.007l-.002.007 1.982.269zm-4.608 9.12l-1.338-1.487-.01.009-.009.008 1.357 1.47zm-9.12 5.376l-.673-1.883-5.07 1.81 5.023 1.939.72-1.866zm10.752 16.416l-1.982-.266v.004l1.982.262zM42.024 70.52l-.664-1.886-.009.002.673 1.884zm-14.857.4c-5.299-.06-9.636-1.185-13.106-3.267l-2.058 3.43c4.21 2.526 9.28 3.77 15.118 3.837l.046-4zm-13.072-3.246c-3.473-2.178-6.026-5.003-7.71-8.488l-3.602 1.74c2.028 4.195 5.107 7.578 9.186 10.136l2.126-3.388zM6.396 59.21c-1.633-3.5-2.288-7.338-1.931-11.562l-3.986-.336c-.411 4.864.342 9.41 2.293 13.59l3.624-1.692zm-3.934-9.73l20.064.096.02-4-20.064-.096-.02 4zm18.075-1.95c-.07 3.018.518 5.673 2.008 7.743l3.246-2.338c-.814-1.13-1.313-2.827-1.256-5.313l-3.998-.093zm2.063 7.815c1.646 2.08 4.027 3.1 6.836 3.252l.216-3.994c-1.927-.104-3.13-.748-3.916-1.74L22.6 55.345zm6.883 3.254c2.47.075 4.769-.49 6.84-1.718l-2.039-3.442c-1.384.82-2.926 1.215-4.68 1.162l-.12 3.998zm6.859-1.73c2.33-1.414 3.707-3.582 4.109-6.314l-3.958-.582c-.238 1.62-.972 2.716-2.227 3.477l2.076 3.42zm4.084-6.176c.355-1.62.3-3.224-.387-4.67-.689-1.452-1.896-2.5-3.38-3.222l-1.75 3.597c.884.43 1.309.903 1.516 1.34.21.44.314 1.093.094 2.097l3.907.858zm-3.728-7.872c-2.73-1.402-6.134-2.074-10.096-2.14l-.068 3.999c3.59.06 6.33.67 8.336 1.7l1.828-3.56zm-8.148.128l1.344-9.888-3.964-.538-1.344 9.888 3.964.538zm1.339-9.853l.384-2.496-3.954-.608-.384 2.496 3.954.608zm-1.455-.805a26.404 26.404 0 006.023-1.14L33.27 27.33a22.4 22.4 0 01-5.113.97l.276 3.991zm6.062-1.154c2.09-.696 3.926-1.621 5.476-2.802l-2.424-3.182c-1.138.867-2.565 1.606-4.317 2.19l1.265 3.794zm5.522-2.838c1.712-1.386 2.764-3.177 2.943-5.325l-3.986-.332c-.077.924-.497 1.757-1.473 2.547l2.516 3.11zm2.945-5.348c.127-1.78-.336-3.498-1.765-4.698-1.325-1.114-3.137-1.477-5.03-1.477v4c1.5 0 2.183.309 2.458.54.17.143.412.44.347 1.35l3.99.285zm-6.674-6.171c-2.613-.159-4.934.61-6.782 2.373l2.762 2.894c.968-.924 2.167-1.372 3.778-1.275l.242-3.992zm-6.782 2.373c-1.653 1.579-2.808 3.452-3.422 5.602l3.846 1.098c.41-1.434 1.175-2.697 2.338-3.806l-2.762-2.894zm-1.489 4.151l-19.104-.096-.02 4 19.104.096.02-4zm-17.144 2.247c.715-4.11 2.284-7.709 4.7-10.831l-3.164-2.448c-2.832 3.662-4.655 7.871-5.476 12.593l3.94.686zm4.71-10.846c2.43-3.2 5.512-5.723 9.275-7.574l-1.766-3.59c-4.3 2.117-7.875 5.033-10.694 8.746l3.186 2.418zm9.264-7.569C28.64 5.299 32.944 4.36 37.8 4.36v-4c-5.384 0-10.296 1.045-14.696 3.176l1.744 3.6zM37.8 4.36c4.519 0 8.513.732 12.014 2.157l1.508-3.706C47.27 1.164 42.753.36 37.8.36v4zm12.052 2.171c3.53 1.354 6.088 3.304 7.805 5.796l3.294-2.27c-2.251-3.268-5.518-5.67-9.667-7.26L49.852 6.53zm7.835 5.837c1.69 2.325 2.36 5.202 1.845 8.813l3.96.566c.636-4.453-.165-8.424-2.57-11.731l-3.235 2.352zm1.843 8.827c-.456 3.36-1.794 5.95-3.964 7.902l2.676 2.974c2.95-2.656 4.684-6.146 5.252-10.338l-3.964-.538zm-3.983 7.92c-2.275 2.1-5.075 3.761-8.436 4.962l1.346 3.767c3.807-1.36 7.087-3.283 9.804-5.79l-2.714-2.94zm-8.483 8.71c3.37 1.301 5.898 3.121 7.687 5.413l3.154-2.46c-2.307-2.956-5.475-5.169-9.4-6.684l-1.441 3.732zm7.687 5.413c1.626 2.084 2.33 4.95 1.803 8.872l3.964.532c.625-4.654-.143-8.7-2.613-11.864l-3.154 2.46zm1.802 8.876c-.522 3.944-2.101 7.26-4.741 10.014l2.888 2.768c3.248-3.39 5.189-7.498 5.819-12.258l-3.966-.524zm-4.741 10.014c-2.7 2.817-6.165 4.996-10.452 6.505l1.328 3.773c4.8-1.69 8.824-4.184 12.012-7.51l-2.888-2.768zm-10.46 6.508c-4.236 1.513-8.965 2.284-14.208 2.284v4c5.637 0 10.828-.83 15.553-2.517l-1.346-3.767z" fill="#0073FF"/></svg>