<svg width="77" height="72" fill="none" xmlns="http://www.w3.org/2000/svg"><path d="M4.808 58.864l-1.513-1.308-2.85 3.296 4.357.012.006-2zM53.288 2.8v-2h-.915l-.598.692L53.288 2.8zm17.376 0l1.97.34.404-2.34h-2.374v2zM64.04 41.2l-1.97-.34-.404 2.34h2.374v-2zm10.368 0l1.969.351.42-2.351h-2.389v2zM71.24 58.96v2h1.675l.294-1.649-1.969-.351zm-10.176 0v-2h-1.682l-.288 1.657 1.97.343zM59.144 70v2h1.682l.288-1.657-1.97-.343zm-21.696 0l-1.973-.326L35.09 72h2.358v-2zm1.824-11.04l1.973.326.384-2.32-2.351-.006-.006 2zM33.8 44.464l-1.463-1.363-3.133 3.363H33.8v-2zm10.656 0v2h1.687l.284-1.662-1.971-.338zm2.4-14.016l1.971.337 1.13-6.601-4.564 4.9 1.463 1.364zM6.321 60.172L54.8 4.108l-3.026-2.616-48.48 56.064 3.026 2.616zM53.288 4.8h17.376v-4H53.288v4zm15.405-2.34l-6.624 38.4 3.942.68 6.624-38.4-3.942-.68zM64.04 43.2h10.368v-4H64.04v4zm8.4-2.351l-3.169 17.76 3.938.702 3.168-17.76-3.938-.702zm-1.2 16.111H61.064v4H71.24v-4zm-12.146 1.657l-1.92 11.04 3.94.686 1.92-11.04-3.94-.686zm.05 9.383H37.448v4h21.696v-4zm-19.723 2.326l1.824-11.04-3.946-.652-1.824 11.04 3.946.652zm-.143-13.366l-34.464-.096-.012 4 34.464.096.012-4zM33.8 46.464h10.656v-4H33.8v4zm12.627-1.662l2.4-14.017-3.942-.675-2.4 14.016 3.942.676zm-1.034-15.717L32.337 43.1l2.926 2.726L48.32 31.811l-2.926-2.726z" fill="#0073FF"/></svg>