<svg width="71" height="74" fill="none" xmlns="http://www.w3.org/2000/svg"><path d="M62.688 48.88l-1.985-.244-.002.012 1.987.232zm-3.744 9.984l1.617 1.176-1.617-1.176zm-7.584 7.008l1.05 1.702-1.05-1.702zM41.568 70l-.493-1.938-.017.004-.016.004.526 1.93zm-25.248-.096l-.472 1.944.016.003.016.004.44-1.951zM3.648 65.872l-1.827-.814-.844 1.894 1.923.775.748-1.855zm8.256-18.528l.988-1.739-1.917-1.09-.898 2.015 1.827.814zm8.256 3.648l-.591 1.91.012.004.579-1.914zm13.152.768l-.34-1.97.34 1.97zm4.704-1.824l1.147 1.639-1.147-1.639zM40.32 46l-1.977-.304-.001.01L40.32 46zm-1.248-3.744l-1.261 1.552.023.019.023.018 1.215-1.589zm-4.032-1.632l.304-1.977-.304 1.977zm-4.704-.384l-.044 2h.044v-2zm-9.792.672l-.278-1.98h-.005l.283 1.98zm-10.464 2.4l-1.872-.705-1.46 3.874 3.943-1.265-.611-1.904zM25.344 2.8v-2H23.96l-.488 1.295 1.872.705zm42.432 0l1.975.312L70.117.8h-2.341v2zm-2.88 18.24v2h1.709l.266-1.688-1.975-.312zm-26.88 0v-2H36.89l-.584.963 1.71 1.037zm-5.184 8.544l-1.71-1.037-3.258 5.37 5.763-2.498-.795-1.835zm6.048-1.728l.3 1.977-.3-1.977zm6.432-.48l.035-2h-.035v2zm9.6 2.88l-1.118 1.658.009.006.008.006 1.101-1.67zm6.336 7.584l-1.83.805.006.016.007.015 1.817-.836zm-.546 10.808c-.413 3.537-1.551 6.531-3.375 9.04l3.235 2.352c2.271-3.123 3.63-6.785 4.112-10.928l-3.973-.464zm-3.375 9.04a24.454 24.454 0 01-7.017 6.482l2.1 3.404a28.454 28.454 0 008.152-7.534l-3.235-2.352zM50.31 64.17c-2.83 1.746-5.906 3.044-9.235 3.892l.986 3.876c3.711-.944 7.164-2.398 10.35-4.364L50.31 64.17zm-9.268 3.9c-3.362.917-6.64 1.37-9.842 1.37v4c3.583 0 7.216-.507 10.894-1.51l-1.052-3.86zM31.2 69.44c-5.25 0-10.06-.5-14.44-1.487l-.88 3.902c4.709 1.061 9.818 1.585 15.32 1.585v-4zm-14.408-1.48c-4.393-1.066-8.524-2.382-12.396-3.943L2.9 67.727c4.064 1.639 8.381 3.011 12.948 4.12l.944-3.886zM5.475 66.686l8.256-18.528-3.654-1.628-8.256 18.528 3.654 1.628zm5.441-17.603c2.923 1.66 5.808 2.939 8.653 3.82l1.182-3.822c-2.53-.783-5.15-1.937-7.859-3.476l-1.976 3.478zm8.665 3.823c2.884.872 5.548 1.334 7.971 1.334v-4c-1.929 0-4.192-.37-6.813-1.162l-1.158 3.828zm7.971 1.334c2.092 0 4.126-.169 6.1-.51l-.68-3.94c-1.738.299-3.544.45-5.42.45v4zm6.1-.51c2.087-.359 3.945-1.06 5.51-2.155l-2.293-3.278c-.994.697-2.272 1.212-3.897 1.492l.68 3.942zm5.51-2.155c1.787-1.25 2.81-3.081 3.136-5.282l-3.956-.586c-.186 1.255-.699 2.048-1.473 2.59l2.294 3.278zm3.135-5.27c.337-2.192-.199-4.253-2.01-5.638l-2.43 3.178c.365.279.661.714.486 1.85l3.954.61zm-1.964-5.601c-1.366-1.11-3.069-1.761-4.989-2.057l-.608 3.954c1.408.216 2.393.653 3.075 1.207l2.522-3.104zm-4.989-2.057a32.992 32.992 0 00-5.008-.407v4c1.357 0 2.822.118 4.4.36l.608-3.953zm-4.964-.407c-3.012-.067-6.387.168-10.114.691l.556 3.962c3.57-.501 6.722-.715 9.47-.654l.088-3.998zm-10.119.692A65.676 65.676 0 009.47 41.408l1.222 3.808a61.687 61.687 0 0110.136-2.324l-.566-3.96zm-8.31 5.085L27.217 3.505l-3.744-1.41L8.208 42.607l3.744 1.41zM25.345 4.8h42.432v-4H25.344v4zM65.8 2.488l-2.88 18.24 3.951.624 2.88-18.24-3.95-.624zm-.904 16.552h-26.88v4h26.88v-4zm-28.59.963l-5.184 8.544 3.42 2.075 5.184-8.544-3.42-2.075zm-2.679 11.416a22.302 22.302 0 015.553-1.586l-.6-3.954a26.274 26.274 0 00-6.543 1.87l1.59 3.67zm5.553-1.586a40.875 40.875 0 016.132-.457v-4c-2.274 0-4.519.167-6.732.503l.6 3.954zm6.097-.457c3.301.058 6.117.92 8.517 2.538l2.236-3.316c-3.104-2.093-6.688-3.152-10.683-3.222l-.07 4zm8.534 2.55c2.483 1.636 4.347 3.858 5.606 6.72l3.662-1.611c-1.557-3.54-3.917-6.373-7.066-8.449l-2.202 3.34zm5.62 6.75c1.29 2.803 1.747 6.098 1.272 9.96l3.97.488c.549-4.458.046-8.523-1.608-12.12l-3.634 1.672z" fill="#0073FF"/></svg>