<svg width="68" height="73" fill="none" xmlns="http://www.w3.org/2000/svg"><path d="M35.36 2.376v-2h-.845l-.59.606 1.435 1.394zm26.976 0l1.315 1.507L67.67.376h-5.335v2zM38.24 23.4l-1.315-1.507L38.8 25.32l-.56-1.92zm14.688 2.208l1.11-1.664-1.11 1.664zm6.624 7.776l-1.81.852.007.014.007.014 1.796-.88zM61.28 44.52l1.987.226.002-.012-1.989-.214zm-5.76 14.4l1.547 1.268.005-.006.005-.007-1.557-1.255zm-11.904 8.928l-.794-1.836.794 1.836zm-29.28 0l-.905 1.783.01.006.012.005.883-1.794zm-9.504-9.024l-1.754.962.007.012 1.747-.974zM2.624 44.52l-1.982-.266-.001.007-.001.008 1.984.251zm4.608-11.616l1.621 1.171.005-.007.005-.007-1.631-1.157zm8.16-9.984l-1.434-1.394-.012.012-.012.013 1.458 1.369zm7.872 21.696l1.974.32.002-.008v-.008l-1.976-.304zm1.344 5.952l-1.562 1.25 1.562-1.25zm5.568 2.496l-.053 2h.002l.051-2zm6.816-2.4l-1.238-1.571-.011.01-.012.009 1.261 1.552zm3.744-6.24l-1.974-.32-.002.008v.008l1.976.304zm-1.44-6.048l1.556-1.257-1.556 1.257zm-5.664-2.592l.053-2h-.002l-.051 2zm-6.816 2.496l-1.29-1.529-.012.01-.012.01 1.314 1.509zM35.36 4.376h26.976v-4H35.36v4zM61.021.869L36.925 21.893l2.63 3.014L63.65 3.883 61.02.869zM38.8 25.32c1.334-.389 2.807-.592 4.432-.592v-4c-1.96 0-3.814.245-5.552.752l1.12 3.84zm4.432-.592c3.204 0 6.047.851 8.587 2.544l2.218-3.328c-3.22-2.147-6.841-3.216-10.805-3.216v4zm8.587 2.544c2.563 1.71 4.536 4.015 5.923 6.964l3.62-1.704c-1.685-3.579-4.129-6.457-7.325-8.588l-2.218 3.328zm5.937 6.992c1.41 2.876 1.95 6.2 1.535 10.042l3.978.428c.482-4.478-.13-8.578-1.921-12.23l-3.592 1.76zm1.537 10.03c-.602 5.299-2.394 9.73-5.33 13.37l3.114 2.511c3.464-4.295 5.512-9.464 6.19-15.43l-3.974-.45zm-5.32 13.358c-2.993 3.652-6.7 6.436-11.15 8.36l1.587 3.672c5.022-2.172 9.25-5.34 12.657-9.496l-3.094-2.536zm-11.15 8.36c-4.476 1.935-9.26 2.908-14.375 2.908v4c5.637 0 10.965-1.075 15.962-3.236l-1.588-3.672zM28.447 68.92c-4.982 0-9.378-.97-13.229-2.866l-1.766 3.588c4.469 2.2 9.481 3.278 14.995 3.278v-4zM15.24 66.065c-3.821-1.94-6.689-4.674-8.662-8.215l-3.494 1.948c2.379 4.267 5.847 7.55 10.346 9.833l1.81-3.566zm-8.655-8.203c-1.93-3.517-2.642-7.84-1.978-13.091L.64 44.269c-.744 5.885.015 11.098 2.438 15.517l3.508-1.924zm-1.98-13.076c.533-3.966 1.947-7.526 4.247-10.711L5.61 31.733C2.919 35.46 1.26 39.644.64 44.253l3.965.533zm4.257-10.725a92.066 92.066 0 017.987-9.772l-2.916-2.738A96.066 96.066 0 005.6 31.747l3.262 2.314zm7.963-9.747L36.794 3.77 33.926.982 13.958 21.526l2.868 2.788zm4.464 19.982c-.458 2.821.062 5.404 1.756 7.521l3.124-2.498c-.866-1.083-1.242-2.468-.932-4.383l-3.948-.64zm1.756 7.521c1.718 2.148 4.178 3.17 7.077 3.246l.106-3.998c-1.965-.052-3.217-.694-4.06-1.746l-3.123 2.498zm7.079 3.246c3.001.077 5.733-.9 8.128-2.847l-2.522-3.104c-1.7 1.382-3.513 2.004-5.504 1.953l-.102 3.998zm8.105-2.828c2.481-1.955 4.016-4.476 4.483-7.507l-3.954-.608c-.301 1.96-1.262 3.6-3.005 4.973l2.476 3.142zm4.48-7.49c.463-2.854-.111-5.463-1.858-7.626l-3.112 2.514c.941 1.165 1.327 2.588 1.022 4.47l3.948.641zm-1.858-7.626c-1.765-2.185-4.24-3.257-7.167-3.334l-.106 3.998c1.937.051 3.238.707 4.161 1.85l3.112-2.514zm-7.169-3.334c-3.023-.078-5.764.948-8.157 2.966l2.58 3.058c1.703-1.438 3.506-2.076 5.475-2.026l.102-3.998zm-8.18 2.987c-2.325 2.024-3.757 4.556-4.216 7.54l3.954.608c.309-2.008 1.245-3.7 2.889-5.132l-2.628-3.016z" fill="#0073FF"/></svg>