<svg width="109" height="109" fill="none" xmlns="http://www.w3.org/2000/svg"><path d="M54.996 107.994c29.271 0 53-23.729 53-53s-23.729-53-53-53-53 23.729-53 53 23.729 53 53 53zm50.752-68.332H3.471" stroke="#0073FF" stroke-width="2" stroke-miterlimit="10"/><path d="M83.318 39.662l-13.69 11.635a9.346 9.346 0 00-1.706 12.41v0a9.32 9.32 0 010 10.341L46.62 106.586m8.376-66.924c.077 0-14.491 5.714-22.997 9.049a10.342 10.342 0 00-6.463 8.713l-.233 2.585a10.342 10.342 0 01-5.65 8.325L5.99 75.224m21.019 8.442c3.27 0 3.27 2.585 6.541 2.585 3.27 0 3.27-2.585 6.528-2.585 3.258 0 3.27 2.585 6.541 2.585M32.904 69.394c3.258 0 3.258 2.586 6.528 2.586 3.27 0 3.27-2.586 6.541-2.586 3.27 0 3.27 2.586 6.541 2.586m-9.579-16.7c3.258 0 3.258 2.583 6.464 2.583 3.206 0 3.27-2.584 6.54-2.584 3.271 0 3.271 2.584 6.464 2.584" stroke="#0073FF" stroke-width="2" stroke-miterlimit="10"/></svg>