<svg width="109" height="109" fill="none" xmlns="http://www.w3.org/2000/svg"><path d="M54.997 69.09c15.157 0 27.444-12.287 27.444-27.443 0-15.157-12.287-27.444-27.444-27.444-15.156 0-27.443 12.287-27.443 27.444 0 15.157 12.287 27.443 27.443 27.443z" stroke="#0073FF" stroke-width="2" stroke-miterlimit="10"/><path d="M55 61.087c10.737 0 19.441-8.704 19.441-19.442 0-10.737-8.704-19.442-19.442-19.442-10.737 0-19.442 8.705-19.442 19.442 0 10.738 8.705 19.442 19.442 19.442z" stroke="#0073FF" stroke-width="2" stroke-miterlimit="10"/><path d="M74.388 76.716L62.38 50.72a7.834 7.834 0 00-11.272-3.339 7.86 7.86 0 00-2.895 3.222L35.608 77.607" fill="#fff"/><path d="M74.388 76.716L62.38 50.72a7.834 7.834 0 00-7.11-4.537v0a7.86 7.86 0 00-7.057 4.42L35.608 77.607" stroke="#0073FF" stroke-width="2" stroke-miterlimit="10"/><path d="M54.998 107.107c29.271 0 53-23.728 53-53 0-29.27-23.729-53-53-53s-53 23.73-53 53c0 29.272 23.729 53 53 53z" stroke="#0073FF" stroke-width="2" stroke-miterlimit="10"/><path d="M44.553 76.316c3.206 0 3.206 2.584 6.463 2.584 3.258 0 3.206-2.584 6.464-2.584 3.257 0 3.219 2.584 6.463 2.584m-.116-2.584c3.219 0 3.219 2.584 6.464 2.584 3.244 0 3.218-2.584 6.463-2.584s3.219 2.584 6.463 2.584m-.116-2.584c3.22 0 3.22 2.584 6.464 2.584s3.219-2.584 6.463-2.584c3.245 0 3.206 2.584 6.464 2.584M6.95 76.316c3.205 0 3.205 2.584 6.463 2.584 3.257 0 3.206-2.584 6.463-2.584 3.258 0 3.206 2.584 6.463 2.584m-.272-2.584c3.27 0 3.27 2.584 6.54 2.584 3.271 0 3.258-2.584 6.529-2.584 3.27 0 3.27 2.584 6.54 2.584m-7.806 6.97c3.219 0 3.219 2.583 6.464 2.583 3.244 0 3.218-2.584 6.463-2.584s3.206 2.584 6.463 2.584m-.103-2.583c3.206 0 3.206 2.583 6.463 2.583 3.258 0 3.206-2.584 6.464-2.584 3.257 0 3.205 2.584 6.463 2.584m-.117-2.583c3.207 0 3.207 2.583 6.464 2.583 3.258 0 3.22-2.584 6.464-2.584s3.218 2.584 6.463 2.584M13.115 85.87c3.219 0 3.219 2.583 6.463 2.583m-.179-2.583c3.257 0 3.257 2.583 6.528 2.583 3.27 0 3.27-2.584 6.54-2.584 3.271 0 3.271 2.584 6.542 2.584m-13.871 8.584c3.218 0 3.218 2.585 6.463 2.585s3.219-2.585 6.464-2.585c3.244 0 3.218 2.585 6.463 2.585m-.116-2.585c3.218 0 3.218 2.585 6.463 2.585s3.219-2.585 6.463-2.585c3.245 0 3.206 2.585 6.464 2.585m-.103-2.585c3.205 0 3.205 2.585 6.463 2.585 3.257 0 3.206-2.585 6.463-2.585 3.258 0 3.22 2.585 6.464 2.585M56.755 53.707L58.76 58.8m-1.023 6.993l2.004 5.093m-8.854-12.009l-1.474 5.326" stroke="#0073FF" stroke-width="2" stroke-miterlimit="10"/></svg>