<svg version="1.1" id="Layer_1" xmlns="http://www.w3.org/2000/svg" x="0" y="0" viewBox="0 0 108 108" xml:space="preserve"><style>.st2{fill:#0073ff}</style><linearGradient id="SVGID_1_" gradientUnits="userSpaceOnUse" x1="54" y1="38.638" x2="54" y2="-1.456"><stop offset="0" stop-color="#f0f7ff"/><stop offset="1" stop-color="#cce3ff"/></linearGradient><circle cx="54" cy="54" r="53" fill="url(#SVGID_1_)" stroke="#0073ff" stroke-width="2" stroke-miterlimit="10"/><linearGradient id="SVGID_2_" gradientUnits="userSpaceOnUse" x1="54" y1="39.878" x2="54" y2="260.992"><stop offset="0" stop-color="#cce3ff"/><stop offset="1" stop-color="#0073ff"/></linearGradient><path d="M107 54c0 29.3-23.7 53-53 53S1 83.3 1 54c0-5.3.8-10.5 2.3-15.3h101.5c1.4 4.9 2.2 10 2.2 15.3z" fill="url(#SVGID_2_)" stroke="#0073ff" stroke-width="2" stroke-linecap="round" stroke-linejoin="round" stroke-miterlimit="10"/><circle class="st2" cx="90.9" cy="59.1" r="1.9"/><circle class="st2" cx="16.5" cy="60.6" r="1.9"/><circle class="st2" cx="95.9" cy="47.4" r="1.9"/><circle class="st2" cx="10.4" cy="49.2" r="1.9"/><linearGradient id="SVGID_3_" gradientUnits="userSpaceOnUse" x1="39.94" y1="35.448" x2="114.903" y2="105.469"><stop offset="0" stop-color="#f0f7ff"/><stop offset="1" stop-color="#cce3ff"/></linearGradient><path fill="url(#SVGID_3_)" stroke="#0073ff" stroke-width="2" stroke-miterlimit="10" d="M25.3 39h56.5v18.1H25.3z"/><path d="M25.3 49.2L38.4 39m43.3 11.9l-8.1 6.3m8.1-15.4L61.9 57.2m11.6-18.1L50.2 57.2m11.6-18.1L38.5 57.2m11.6-18.1L26.8 57.2" fill="none" stroke="#0073ff" stroke-width="2" stroke-miterlimit="10"/><linearGradient id="SVGID_4_" gradientUnits="userSpaceOnUse" x1="40.627" y1="49.836" x2="40.627" y2="13.548"><stop offset="0" stop-color="#cce3ff"/><stop offset="1" stop-color="#0073ff"/></linearGradient><path fill="url(#SVGID_4_)" stroke="#0073ff" stroke-width="2" stroke-linecap="round" stroke-linejoin="round" stroke-miterlimit="10" d="M24.6 38.6l16.3-12.5 15.8 12.7z"/><linearGradient id="SVGID_5_" gradientUnits="userSpaceOnUse" x1="64.304" y1="45.495" x2="64.304" y2="7.449"><stop offset="0" stop-color="#cce3ff"/><stop offset="1" stop-color="#0073ff"/></linearGradient><path fill="url(#SVGID_5_)" stroke="#0073ff" stroke-width="2" stroke-linecap="round" stroke-linejoin="round" stroke-miterlimit="10" d="M47.5 31.3l12.6-9.8 21 17.3H56.6z"/><path d="M17.4 71.7c2.6 0 4.7-1.6 4.7-4.3 0 2.6 2.1 4.3 4.7 4.3s4.7-1.6 4.7-4.3c0 2.6 2.1 4.3 4.7 4.3s4.7-1.6 4.7-4.3c0 2.6 2.1 4.3 4.7 4.3s4.7-1.6 4.7-4.3c0 2.6 2.1 4.3 4.7 4.3s4.7-1.6 4.7-4.3c0 2.6 2.1 4.3 4.7 4.3s4.7-1.6 4.7-4.3c0 2.6 2.1 4.3 4.7 4.3s4.7-1.6 4.7-4.3c0 2.6 2.1 4.3 4.7 4.3s4.7-1.6 4.7-4.3c0 2.6 2.1 4.3 4.7 4.3M27.1 84.9c2.6 0 4.7-1.6 4.7-4.3 0 2.6 2.1 4.3 4.7 4.3s4.7-1.6 4.7-4.3c0 2.6 2.1 4.3 4.7 4.3s4.7-1.6 4.7-4.3c0 2.6 2.1 4.3 4.7 4.3s4.7-1.6 4.7-4.3c0 2.6 2.1 4.3 4.7 4.3m.3 0c2.6 0 4.7-1.6 4.7-4.3 0 2.6 2.1 4.3 4.7 4.3s4.7-1.6 4.7-4.3c0 2.6 2.1 4.3 4.7 4.3" fill="none" stroke="#0073ff" stroke-width="2" stroke-linecap="round" stroke-linejoin="round" stroke-miterlimit="10"/></svg>