<svg version="1.2" baseProfile="tiny" xmlns="http://www.w3.org/2000/svg" viewBox="0 0 66 66" overflow="visible"><linearGradient id="a" gradientUnits="userSpaceOnUse" x1="33" y1="69.099" x2="33" y2="1.664"><stop offset="0" stop-color="#fff"/><stop offset="1" stop-color="#cce3ff"/></linearGradient><path fill="url(#a)" stroke="#0073FF" stroke-width="2" stroke-miterlimit="10" d="M65 33c0 7.34-2.47 14.09-6.61 19.49C52.53 60.1 43.34 65 33 65c-10.33 0-19.52-4.9-25.38-12.5A31.888 31.888 0 011 33C1 15.33 15.33 1 33 1s32 14.33 32 32z"/><linearGradient id="b" gradientUnits="userSpaceOnUse" x1="12.47" y1="34.42" x2="12.47" y2="19.608"><stop offset="0" stop-color="#f0f7ff"/><stop offset="1" stop-color="#cce3ff"/></linearGradient><path fill="url(#b)" stroke="#0073FF" stroke-width="2" stroke-miterlimit="10" d="M23.94 18.16v18.17h-4.4c-.6 0-1.1-.49-1.1-1.1v-1.1H1.02a31.882 31.882 0 012.57-13.77h14.85v-1.1c0-.61.5-1.1 1.1-1.1h4.4z"/><linearGradient id="c" gradientUnits="userSpaceOnUse" x1="37.387" y1="59.184" x2="37.387" y2="8.834"><stop offset="0" stop-color="#cce3ff"/><stop offset="1" stop-color="#0073ff"/></linearGradient><path fill="url(#c)" stroke="#0073FF" stroke-width="2" stroke-linecap="round" stroke-linejoin="round" stroke-miterlimit="10" d="M27.504 33.319c1.601.764 3.294 3.7 3.294 6.303v4.673a5.965 5.965 0 00-7.313 7.799s2.955 2.335 3.47 2.59c.514.255 3.57.766 8.039.638 4.468-.127 9.223.192 12.826-.16s2.557-1.755 2.557-1.755l.911-1.313a5.965 5.965 0 00-7.313-7.799v-4.673c0-9.549-7.217-17.415-16.487-17.415h-3.553v10.456s1.967-.109 3.569.656z"/><path fill="none" stroke="#0073FF" stroke-width="2" stroke-miterlimit="10" d="M30.504 28.243c3.532 2.256 5.878 6.21 5.878 10.702v3.185"/><linearGradient id="d" gradientUnits="userSpaceOnUse" x1="33.005" y1="47.695" x2="33.005" y2="68.377"><stop offset="0" stop-color="#cce3ff"/><stop offset="1" stop-color="#0073ff"/></linearGradient><path fill="url(#d)" stroke="#0073FF" stroke-width="2" stroke-linecap="round" stroke-linejoin="round" stroke-miterlimit="10" d="M58.39 52.49C52.53 60.1 43.34 65 33 65c-10.33 0-19.52-4.9-25.38-12.5 2.25-.1 4.04-1.55 4.04-3.84 0 2.37 1.92 3.85 4.29 3.85s4.29-1.48 4.29-3.85c0 2.37 1.92 3.85 4.29 3.85s4.29-1.48 4.29-3.85c0 2.37 1.93 3.85 4.29 3.85 2.37 0 4.29-1.48 4.29-3.85 0 2.37 1.93 3.85 4.3 3.85 2.36 0 4.29-1.48 4.29-3.85 0 2.37 1.92 3.85 4.29 3.85s4.29-1.48 4.29-3.85c0 2.21 1.67 3.65 3.82 3.83z"/></svg>