<svg width="109" height="109" viewBox="0 0 109 109" fill="none" xmlns="http://www.w3.org/2000/svg">
<path d="M54.9961 107.107C84.2672 107.107 107.996 83.3785 107.996 54.1074C107.996 24.8363 84.2672 1.10742 54.9961 1.10742C25.725 1.10742 1.99609 24.8363 1.99609 54.1074C1.99609 83.3785 25.725 107.107 54.9961 107.107Z" stroke="#0073FF" stroke-width="2" stroke-miterlimit="10"/>
<path d="M3.37964 38.7754H106.613" stroke="#0073FF" stroke-width="2" stroke-miterlimit="10"/>
<path d="M88.749 38.7754H21.2451V63.9453H88.749V38.7754Z" stroke="#0073FF" stroke-width="2" stroke-miterlimit="10"/>
<path d="M22.0327 38.5686L41.1256 26.0566L59.4946 38.7754" stroke="#0073FF" stroke-width="2" stroke-miterlimit="10"/>
<path d="M21.2451 50.1516L38.8773 38.7754M88.749 51.8839L70.199 63.9453L88.749 51.8839ZM88.749 42.7829L56.1993 63.9453L88.749 42.7829ZM66.8768 38.7754L28.1739 63.9453L66.8768 38.7754ZM80.8507 38.7754L42.1866 63.9453L80.8507 38.7754ZM21.2451 59.356L52.89 38.7754L21.2451 59.356Z" stroke="#0073FF" stroke-width="2" stroke-miterlimit="10"/>
<path d="M48.6616 31.278L63.6955 21.4277L88.7477 38.7755" stroke="#0073FF" stroke-width="2" stroke-miterlimit="10"/>
<path d="M10.8126 57.2355C11.8835 57.2355 12.7516 56.3673 12.7516 55.2964C12.7516 54.2256 11.8835 53.3574 10.8126 53.3574C9.74167 53.3574 8.87354 54.2256 8.87354 55.2964C8.87354 56.3673 9.74167 57.2355 10.8126 57.2355Z" fill="#0073FF"/>
<path d="M23.9717 76.4445C25.0426 76.4445 25.9108 75.5763 25.9108 74.5054C25.9108 73.4345 25.0426 72.5664 23.9717 72.5664C22.9008 72.5664 22.0327 73.4345 22.0327 74.5054C22.0327 75.5763 22.9008 76.4445 23.9717 76.4445Z" fill="#0073FF"/>
<path d="M38.8755 79.5469C39.9464 79.5469 40.8146 78.679 40.8146 77.6084C40.8146 76.5378 39.9464 75.6699 38.8755 75.6699C37.8047 75.6699 36.9365 76.5378 36.9365 77.6084C36.9365 78.679 37.8047 79.5469 38.8755 79.5469Z" fill="#0073FF"/>
<path d="M32.0005 90.923C33.0714 90.923 33.9396 90.0548 33.9396 88.9839C33.9396 87.9131 33.0714 87.0449 32.0005 87.0449C30.9297 87.0449 30.0615 87.9131 30.0615 88.9839C30.0615 90.0548 30.9297 90.923 32.0005 90.923Z" fill="#0073FF"/>
<path d="M50.9488 74.5059C52.0197 74.5059 52.8878 73.638 52.8878 72.5674C52.8878 71.4968 52.0197 70.6289 50.9488 70.6289C49.8779 70.6289 49.0098 71.4968 49.0098 72.5674C49.0098 73.638 49.8779 74.5059 50.9488 74.5059Z" fill="#0073FF"/>
<path d="M59.4952 85.7773C60.5661 85.7773 61.4342 84.9095 61.4342 83.8389C61.4342 82.7683 60.5661 81.9004 59.4952 81.9004C58.4243 81.9004 57.5562 82.7683 57.5562 83.8389C57.5562 84.9095 58.4243 85.7773 59.4952 85.7773Z" fill="#0073FF"/>
<path d="M48.6614 95.796C49.7323 95.796 50.6005 94.9279 50.6005 93.857C50.6005 92.7861 49.7323 91.918 48.6614 91.918C47.5905 91.918 46.7224 92.7861 46.7224 93.857C46.7224 94.9279 47.5905 95.796 48.6614 95.796Z" fill="#0073FF"/>
<path d="M66.3196 96.7394C67.3905 96.7394 68.2587 95.8712 68.2587 94.8004C68.2587 93.7295 67.3905 92.8613 66.3196 92.8613C65.2487 92.8613 64.3806 93.7295 64.3806 94.8004C64.3806 95.8712 65.2487 96.7394 66.3196 96.7394Z" fill="#0073FF"/>
<path d="M96.0386 53.8223C97.1095 53.8223 97.9777 52.9544 97.9777 51.8838C97.9777 50.8132 97.1095 49.9453 96.0386 49.9453C94.9677 49.9453 94.0996 50.8132 94.0996 51.8838C94.0996 52.9544 94.9677 53.8223 96.0386 53.8223Z" fill="#0073FF"/>
<path d="M96.0386 70.2784C97.1095 70.2784 97.9777 69.4103 97.9777 68.3394C97.9777 67.2685 97.1095 66.4004 96.0386 66.4004C94.9677 66.4004 94.0996 67.2685 94.0996 68.3394C94.0996 69.4103 94.9677 70.2784 96.0386 70.2784Z" fill="#0073FF"/>
<path d="M83.3443 78.3839C84.4152 78.3839 85.2833 77.5158 85.2833 76.4449C85.2833 75.374 84.4152 74.5059 83.3443 74.5059C82.2734 74.5059 81.4053 75.374 81.4053 76.4449C81.4053 77.5158 82.2734 78.3839 83.3443 78.3839Z" fill="#0073FF"/>
<path d="M81.4053 87.7168C82.4762 87.7168 83.3444 86.8489 83.3444 85.7783C83.3444 84.7077 82.4762 83.8398 81.4053 83.8398C80.3344 83.8398 79.4663 84.7077 79.4663 85.7783C79.4663 86.8489 80.3344 87.7168 81.4053 87.7168Z" fill="#0073FF"/>
<path d="M66.8751 76.4445C67.946 76.4445 68.8141 75.5763 68.8141 74.5054C68.8141 73.4345 67.946 72.5664 66.8751 72.5664C65.8042 72.5664 64.936 73.4345 64.936 74.5054C64.936 75.5763 65.8042 76.4445 66.8751 76.4445Z" fill="#0073FF"/>
</svg>
