<svg width="108" height="109" fill="none" xmlns="http://www.w3.org/2000/svg"><path d="M54 107.994c29.271 0 53-23.729 53-53s-23.729-53-53-53-53 23.729-53 53 23.729 53 53 53zM18.944 41.111h29.692m-8.482-8.481a8.48 8.48 0 118.48 8.48m-3.514 9.98h33.197M67.586 40.36a10.742 10.742 0 1110.73 10.73M18.944 68.697H54.26m-8.572 8.571a8.57 8.57 0 108.571-8.57" stroke="#0073FF" stroke-width="2" stroke-miterlimit="10"/><path d="M31.714 59.518h39.09a4.589 4.589 0 010 9.18M18.944 51.09h21.768m-21.768 8.428h9.953" stroke="#0073FF" stroke-width="2" stroke-miterlimit="10"/></svg>