<svg version="1.2" baseProfile="tiny" xmlns="http://www.w3.org/2000/svg" viewBox="0 0 66 66" overflow="visible"><linearGradient id="a" gradientUnits="userSpaceOnUse" x1="33" y1="67.455" x2="33" y2="1.023"><stop offset="0" stop-color="#fff"/><stop offset="1" stop-color="#cce3ff"/></linearGradient><circle fill="url(#a)" stroke="#0073FF" stroke-width="2" stroke-miterlimit="10" cx="33" cy="33" r="32"/><linearGradient id="b" gradientUnits="userSpaceOnUse" x1="38.506" y1="57.039" x2="38.506" y2="26.625"><stop offset="0" stop-color="#cce3ff"/><stop offset="1" stop-color="#0073ff"/></linearGradient><path fill="url(#b)" stroke="#0073FF" stroke-width="2" stroke-linecap="round" stroke-linejoin="round" stroke-miterlimit="10" d="M56.796 38.893l-10.18-11.526-10.18 11.526h5.003c.515 1.555-.025 3.015-.025 3.015a9.19 9.19 0 01-8.46 5.602 9.166 9.166 0 01-6.629-2.839l-6.11 6.918c3.31 3.177 7.794 5.141 12.74 5.141 9.335 0 17.046-6.95 18.256-15.963 0 0-.028-1.027-.228-1.874h5.813z"/><linearGradient id="c" gradientUnits="userSpaceOnUse" x1="27.637" y1="46.315" x2="27.637" y2="6.592"><stop offset="0" stop-color="#cce3ff"/><stop offset="1" stop-color="#0073ff"/></linearGradient><path fill="url(#c)" stroke="#0073FF" stroke-width="2" stroke-linecap="round" stroke-linejoin="round" stroke-miterlimit="10" d="M24.582 34.385c1.486-4.114 4.82-9.05 8.373-13.338 2.27 2.75 4.463 5.762 6.133 8.661l6.398-7.244C40.092 14.162 32.955 7.562 32.955 7.562s-15.12 13.991-17.953 26.823H9.787l10.18 11.526 10.18-11.526h-5.565z"/></svg>