<svg width="108" height="109" fill="none" xmlns="http://www.w3.org/2000/svg"><path d="M73.118 72.348c3.27 0 3.27 2.584 6.54 2.584 3.271 0 3.271-2.584 6.541-2.584 3.271 0 3.258 2.584 6.464 2.584m-39.14-2.584c3.257 0 3.257 2.584 6.463 2.584s3.27-2.584 6.541-2.584c3.27 0 3.27 2.584 6.464 2.584M34.39 72.348c3.27 0 3.27 2.584 6.541 2.584 3.27 0 3.258-2.584 6.464-2.584 3.205 0 3.27 2.584 6.54 2.584M15.22 72.348c3.257 0 3.257 2.584 6.527 2.584 3.271 0 3.271-2.584 6.541-2.584 3.271 0 3.271 2.584 6.542 2.584m28.492 7.951c3.27 0 3.27 2.585 6.463 2.585s3.27-2.585 6.54-2.585c3.271 0 3.271 2.585 6.542 2.585m-38.666-2.585c3.258 0 3.258 2.585 6.464 2.585 3.206 0 3.27-2.585 6.54-2.585 3.271 0 3.271 2.585 6.464 2.585m-38.6-2.585c3.27 0 3.27 2.585 6.54 2.585 3.271 0 3.258-2.585 6.529-2.585 3.27 0 3.27 2.585 6.54 2.585" stroke="#0073FF" stroke-width="2" stroke-miterlimit="10"/><path d="M54 107.107c29.271 0 53-23.728 53-53 0-29.27-23.729-53-53-53s-53 23.73-53 53c0 29.272 23.729 53 53 53zM2.384 38.775h103.233" stroke="#0073FF" stroke-width="2" stroke-miterlimit="10"/><path d="M87.753 38.775H20.249v25.17h67.504v-25.17zm-66.716-.206L40.13 26.057l18.369 12.718" stroke="#0073FF" stroke-width="2" stroke-miterlimit="10"/><path d="M20.249 50.152L37.88 38.775m49.872 13.109l-18.55 12.061 18.55-12.061zm0-9.101l-32.55 21.162 32.55-21.162zM65.88 38.775l-38.702 25.17 38.703-25.17zm13.974 0L41.19 63.945l38.664-25.17zM20.25 59.356l31.645-20.58-31.645 20.58zm27.415-28.078l15.034-9.85 25.052 17.348" stroke="#0073FF" stroke-width="2" stroke-miterlimit="10"/></svg>