<svg xmlns="http://www.w3.org/2000/svg" viewBox="0 0 108 108"><linearGradient id="a" gradientUnits="userSpaceOnUse" x1="54" y1="3.618" x2="54" y2="124.758"><stop offset="0" stop-color="#f0f7ff"/><stop offset="1" stop-color="#cce3ff"/></linearGradient><circle cx="54" cy="54" r="53" fill="url(#a)" stroke="#0073ff" stroke-width="2" stroke-miterlimit="10"/><path d="M15.3 38.7h30.3m-8.4-8.4c0-4.6 3.8-8.4 8.4-8.4s8.4 3.8 8.4 8.4-3.8 8.4-8.4 8.4m4.3 11H77M63.7 36.4c0-7.3 5.9-13.2 13.2-13.2 7.3 0 13.2 5.9 13.2 13.2S84.3 49.7 77 49.7M15.3 69.1h39m-9.5 9.5c0 5.2 4.2 9.5 9.5 9.5s9.5-4.2 9.5-9.5c0-5.2-4.2-9.5-9.5-9.5M29.4 59h43.2m-57.3-9.3h14.9M15.3 59h11" fill="none" stroke="#0073ff" stroke-width="2" stroke-miterlimit="10"/><radialGradient id="b" cx="76.449" cy="33.676" r="12.171" gradientUnits="userSpaceOnUse"><stop offset="0" stop-color="#e5f1ff"/><stop offset=".263" stop-color="#b2d5ff"/><stop offset="1" stop-color="#0073ff"/></radialGradient><circle cx="77.3" cy="36.4" r="6.8" fill="url(#b)" stroke="#0073ff" stroke-width="2" stroke-miterlimit="10"/><radialGradient id="c" cx="38.76" cy="46.809" r="8.315" gradientUnits="userSpaceOnUse"><stop offset="0" stop-color="#e5f1ff"/><stop offset=".263" stop-color="#b2d5ff"/><stop offset="1" stop-color="#0073ff"/></radialGradient><circle cx="39.3" cy="48.7" r="4.6" fill="url(#c)" stroke="#0073ff" stroke-width="2" stroke-miterlimit="10"/><radialGradient id="d" cx="71.693" cy="61.934" r="8.957" gradientUnits="userSpaceOnUse"><stop offset="0" stop-color="#e5f1ff"/><stop offset=".263" stop-color="#b2d5ff"/><stop offset="1" stop-color="#0073ff"/></radialGradient><circle cx="72.3" cy="64" r="5" fill="url(#d)" stroke="#0073ff" stroke-width="2" stroke-miterlimit="10"/></svg>