<svg width="109" height="109" fill="none" xmlns="http://www.w3.org/2000/svg"><path d="M54.996 107.107c29.271 0 53-23.728 53-53 0-29.27-23.729-53-53-53s-53 23.73-53 53c0 29.272 23.729 53 53 53zM3.38 38.775h103.233" stroke="#0073FF" stroke-width="2" stroke-miterlimit="10"/><path d="M88.749 38.775H21.245v25.17H88.75v-25.17z" stroke="#0073FF" stroke-width="2" stroke-miterlimit="10"/><path d="M22.033 38.569l19.093-12.512 18.369 12.718m-38.25 11.377l17.632-11.377M88.75 51.884L70.2 63.945l18.55-12.061zm0-9.101L56.2 63.945l32.55-21.162zm-21.872-4.008l-38.703 25.17 38.703-25.17zm13.974 0l-38.664 25.17 38.664-25.17zM21.245 59.356l31.645-20.58-31.645 20.58z" stroke="#0073FF" stroke-width="2" stroke-miterlimit="10"/><path d="M48.662 31.278l15.034-9.85 25.052 17.348" stroke="#0073FF" stroke-width="2" stroke-miterlimit="10"/><path d="M10.813 57.236a1.94 1.94 0 100-3.879 1.94 1.94 0 000 3.879zm13.159 19.209a1.94 1.94 0 100-3.879 1.94 1.94 0 000 3.879zm14.904 3.102a1.939 1.939 0 100-3.878 1.939 1.939 0 000 3.878zM32 90.923a1.94 1.94 0 100-3.878 1.94 1.94 0 000 3.878zm18.949-16.417a1.939 1.939 0 100-3.878 1.939 1.939 0 000 3.878zm8.546 11.271a1.939 1.939 0 100-3.877 1.939 1.939 0 000 3.877zM48.661 95.796a1.94 1.94 0 100-3.878 1.94 1.94 0 000 3.878zm17.659.944a1.94 1.94 0 100-3.879 1.94 1.94 0 000 3.878zm29.719-42.918a1.939 1.939 0 100-3.877 1.939 1.939 0 000 3.877zm0 16.456a1.94 1.94 0 100-3.878 1.94 1.94 0 000 3.878zm-12.695 8.106a1.939 1.939 0 100-3.878 1.939 1.939 0 000 3.878zm-1.939 9.333a1.939 1.939 0 100-3.878 1.939 1.939 0 000 3.878zm-14.53-11.272a1.94 1.94 0 100-3.879 1.94 1.94 0 000 3.879z" fill="#0073FF"/></svg>