<svg version="1.2" baseProfile="tiny" xmlns="http://www.w3.org/2000/svg" viewBox="0 0 66 66" overflow="visible"><linearGradient id="a" gradientUnits="userSpaceOnUse" x1="33" y1="67.455" x2="33" y2="1.023"><stop offset="0" stop-color="#fff"/><stop offset="1" stop-color="#cce3ff"/></linearGradient><circle fill="url(#a)" stroke="#0073FF" stroke-width="2" stroke-miterlimit="10" cx="33" cy="33" r="32"/><linearGradient id="b" gradientUnits="userSpaceOnUse" x1="19.944" y1="44.868" x2="22.619" y2="44.868"><stop offset="0" stop-color="#cce3ff"/><stop offset="1" stop-color="#0073ff"/></linearGradient><path fill="url(#b)" stroke="#0073FF" stroke-width="2" stroke-linecap="round" stroke-linejoin="round" stroke-miterlimit="10" d="M22.619 42.552l-2.675 4.633"/><linearGradient id="c" gradientUnits="userSpaceOnUse" x1="32.477" y1="44.868" x2="35.152" y2="44.868"><stop offset="0" stop-color="#cce3ff"/><stop offset="1" stop-color="#0073ff"/></linearGradient><path fill="url(#c)" stroke="#0073FF" stroke-width="2" stroke-linecap="round" stroke-linejoin="round" stroke-miterlimit="10" d="M35.152 42.552l-2.675 4.633"/><linearGradient id="d" gradientUnits="userSpaceOnUse" x1="23.809" y1="50.58" x2="26.4" y2="50.58"><stop offset="0" stop-color="#cce3ff"/><stop offset="1" stop-color="#0073ff"/></linearGradient><path fill="url(#d)" stroke="#0073FF" stroke-width="2" stroke-linecap="round" stroke-linejoin="round" stroke-miterlimit="10" d="M26.4 48.336l-2.591 4.488"/><linearGradient id="e" gradientUnits="userSpaceOnUse" x1="35.63" y1="50.58" x2="38.222" y2="50.58"><stop offset="0" stop-color="#cce3ff"/><stop offset="1" stop-color="#0073ff"/></linearGradient><path fill="url(#e)" stroke="#0073FF" stroke-width="2" stroke-linecap="round" stroke-linejoin="round" stroke-miterlimit="10" d="M38.222 48.336l-2.592 4.488"/><linearGradient id="f" gradientUnits="userSpaceOnUse" x1="43.673" y1="44.868" x2="46.347" y2="44.868"><stop offset="0" stop-color="#cce3ff"/><stop offset="1" stop-color="#0073ff"/></linearGradient><path fill="url(#f)" stroke="#0073FF" stroke-width="2" stroke-linecap="round" stroke-linejoin="round" stroke-miterlimit="10" d="M46.347 42.552l-2.674 4.633"/><linearGradient id="g" gradientUnits="userSpaceOnUse" x1="33.393" y1="41.081" x2="33.393" y2="12.662"><stop offset="0" stop-color="#cce3ff"/><stop offset="1" stop-color="#0073ff"/></linearGradient><path fill="url(#g)" stroke="#0073FF" stroke-width="2" stroke-linecap="round" stroke-linejoin="round" stroke-miterlimit="10" d="M44.677 20.167c-.312 0-.618.023-.92.054-1.049-4.486-5.064-7.83-9.868-7.83-5.602 0-10.143 4.54-10.143 10.143 0 .155.016.306.023.46-.769-.259-1.686-.444-2.85-.444a7.743 7.743 0 000 15.486h23.758c4.934 0 8.934-4 8.934-8.935s-4-8.934-8.934-8.934z"/><path fill="none" stroke="#0073FF" stroke-width="2" stroke-linecap="round" stroke-linejoin="round" stroke-miterlimit="10" d="M26.255 24.27c-1.148-.673-2.576-1.69-5.34-1.69a7.743 7.743 0 00-.682 15.456m16.647-.006h8.06-.306c4.934 0 8.934-4 8.934-8.935 0-4.935-4-8.934-8.934-8.934-1.44 0-2.8.34-4.004.945"/></svg>