<svg width="65" height="65" fill="none" xmlns="http://www.w3.org/2000/svg"><g clip-path="url(#clip0)" stroke="#0073FF" stroke-width="2" stroke-miterlimit="10"><path d="M32.078 63.462c16.983 0 30.75-13.768 30.75-30.75 0-16.984-13.767-30.751-30.75-30.751S1.328 15.728 1.328 32.71s13.767 30.75 30.75 30.75z"/><path d="M22.035 28.953l6.843-11.855c1.398-2.422 4.895-2.422 6.293 0l3.208 5.557m-5.446 22.037h-13.69c-2.797 0-4.545-3.028-3.147-5.45l3.215-5.568m21.793-6.299l6.85 11.866c1.398 2.422-.35 5.45-3.147 5.45h-6.424"/><path d="M27.483 39.242l5.45 5.45-5.45 5.45"/><path d="M27.483 39.242l5.45 5.45-5.45 5.45m11.63-15.319l1.995-7.444 7.445 1.994m-19.075-2.415l-7.445 1.995-1.995-7.445"/></g><defs><clipPath id="clip0"><path fill="#fff" transform="translate(.078 .71)" d="M0 0h64v64H0z"/></clipPath></defs></svg>