<svg xmlns="http://www.w3.org/2000/svg" viewBox="0 0 108 108"><linearGradient id="a" gradientUnits="userSpaceOnUse" x1="54" y1="83.112" x2="54" y2="12.268"><stop offset="0" stop-color="#fff"/><stop offset="1" stop-color="#cce3ff"/></linearGradient><path d="M107 54c0 29.3-23.7 53-53 53-27.1 0-49.4-20.3-52.6-46.5-.3-2.1-.4-4.3-.4-6.5 0-11.8 3.8-22.6 10.3-31.4C21 9.5 36.5 1 54 1c29.3 0 53 23.7 53 53z" fill="url(#a)" stroke="#0073ff" stroke-width="2" stroke-miterlimit="10"/><linearGradient id="b" gradientUnits="userSpaceOnUse" x1="54" y1="-9.569" x2="54" y2="45.645"><stop offset="0" stop-color="#fff"/><stop offset="1" stop-color="#cce3ff"/></linearGradient><path d="M54 14.1c-15.2 0-27.4 12.3-27.4 27.4C26.6 56.7 38.8 69 54 69s27.4-12.3 27.4-27.4c0-15.2-12.2-27.5-27.4-27.5z" fill="url(#b)" stroke="#0073ff" stroke-width="2" stroke-miterlimit="10"/><linearGradient id="c" gradientUnits="userSpaceOnUse" x1="54" y1="55.111" x2="54" y2="27.387"><stop offset="0" stop-color="#cce3ff"/><stop offset="1" stop-color="#0073ff"/></linearGradient><path d="M54 55.6c-7.7 0-14-6.3-14-14s6.3-14 14-14 14 6.3 14 14-6.3 14-14 14z" fill="url(#c)" stroke="#0073ff" stroke-width="2" stroke-linecap="round" stroke-linejoin="round" stroke-miterlimit="10"/><linearGradient id="d" gradientUnits="userSpaceOnUse" x1="54.001" y1="48.771" x2="54.001" y2="103.448"><stop offset="0" stop-color="#cce3ff"/><stop offset="1" stop-color="#0073ff"/></linearGradient><path d="M74.5 76.6l-12.7-26c-1.4-2.8-4.3-4.5-7.5-4.5h0c-3.2 0-6 1.7-7.4 4.4l-13.3 27" fill="url(#d)" stroke="#0073ff" stroke-width="2" stroke-linecap="round" stroke-linejoin="round" stroke-miterlimit="10"/><linearGradient id="e" gradientUnits="userSpaceOnUse" x1="53.996" y1="74.303" x2="53.996" y2="122.304"><stop offset="0" stop-color="#cce3ff"/><stop offset="1" stop-color="#0073ff"/></linearGradient><path d="M101.4 77v.8c-8.7 17.3-26.6 29.1-47.3 29.1-20.8 0-38.8-12-47.5-29.5.1-.3.2-.4.2-.4 2.6 0 4.7-1.6 4.7-4.3 0 2.6 2.1 4.3 4.7 4.3s4.7-1.6 4.7-4.3c0 2.6 2.1 4.3 4.7 4.3s4.7-1.6 4.7-4.3c0 2.6 2.1 4.3 4.7 4.3s4.7-1.6 4.7-4.3c0 2.6 2.1 4.3 4.7 4.3s4.7-1.6 4.7-4.3c0 2.6 2.1 4.3 4.7 4.3s4.7-1.6 4.7-4.3c0 2.6 2.1 4.3 4.7 4.3s4.7-1.6 4.7-4.3c0 2.6 2.1 4.3 4.7 4.3s4.7-1.6 4.7-4.3c0 2.6 2.1 4.3 4.7 4.3s4.7-1.6 4.7-4.3c0 2.6 2.1 4.3 4.7 4.3s4.7-1.6 4.7-4.3c.6 2.7 2.7 4.3 5.3 4.3z" fill="url(#e)" stroke="#0073ff" stroke-width="2" stroke-linecap="round" stroke-linejoin="round" stroke-miterlimit="10"/><path d="M28 90c2.6 0 4.7-1.6 4.7-4.3 0 2.6 2.1 4.3 4.7 4.3s4.7-1.6 4.7-4.3c0 2.6 2.1 4.3 4.7 4.3s4.7-1.6 4.7-4.3c0 2.6 2.1 4.3 4.7 4.3m8.6 0c2.6 0 4.7-1.6 4.7-4.3 0 2.6 2.1 4.3 4.7 4.3s4.7-1.6 4.7-4.3c0 2.6 2.1 4.3 4.7 4.3" fill="none" stroke="#0073ff" stroke-width="2" stroke-linecap="round" stroke-linejoin="round" stroke-miterlimit="10"/></svg>