<?xml version="1.0" encoding="utf-8"?>
<!-- Generator: Adobe Illustrator 25.2.0, SVG Export Plug-In . SVG Version: 6.00 Build 0)  -->
<svg version="1.2" baseProfile="tiny" id="Layer_1" xmlns="http://www.w3.org/2000/svg" xmlns:xlink="http://www.w3.org/1999/xlink"
	 x="0px" y="0px" viewBox="0 0 66 66" overflow="visible" xml:space="preserve">
<g>
	<linearGradient id="SVGID_1_" gradientUnits="userSpaceOnUse" x1="33" y1="67.45461" x2="33" y2="1.02255">
		<stop  offset="9.949999e-15" style="stop-color:#FFFFFF"/>
		<stop  offset="1" style="stop-color:#CCE3FF"/>
	</linearGradient>
	<circle fill="url(#SVGID_1_)" stroke="#0073FF" stroke-width="2" stroke-miterlimit="10" cx="33" cy="33" r="32"/>
	<g>
		<linearGradient id="SVGID_2_" gradientUnits="userSpaceOnUse" x1="38.5057" y1="57.03944" x2="38.5057" y2="26.62492">
			<stop  offset="0" style="stop-color:#CCE3FF"/>
			<stop  offset="1" style="stop-color:#0073FF"/>
		</linearGradient>
		
			<path fill="url(#SVGID_2_)" stroke="#0073FF" stroke-width="2" stroke-linecap="round" stroke-linejoin="round" stroke-miterlimit="10" d="
			M56.79609,38.8933L46.61666,27.36744L36.43694,38.8933h5.00192c0.51494,1.55494-0.02448,3.01506-0.02448,3.01506
			c-1.39455,3.29616-4.66792,5.60127-8.45988,5.60127c-2.60423,0-4.95409-1.09319-6.62918-2.83834l-6.11002,6.91816
			c3.31023,3.17685,7.79328,5.14064,12.7392,5.14064c9.33583,0,17.04638-6.94996,18.25663-15.96276
			c0,0-0.02786-1.02706-0.22849-1.87403H56.79609z"/>
		<linearGradient id="SVGID_3_" gradientUnits="userSpaceOnUse" x1="27.63659" y1="46.31482" x2="27.63659" y2="6.59231">
			<stop  offset="0" style="stop-color:#CCE3FF"/>
			<stop  offset="1" style="stop-color:#0073FF"/>
		</linearGradient>
		
			<path fill="url(#SVGID_3_)" stroke="#0073FF" stroke-width="2" stroke-linecap="round" stroke-linejoin="round" stroke-miterlimit="10" d="
			M24.58186,34.38493c1.48628-4.11387,4.82071-9.04995,8.37265-13.33799c2.27135,2.75027,4.46307,5.76223,6.13366,8.66107
			l6.39788-7.24429C40.09215,14.16226,32.95451,7.56206,32.95451,7.56206S17.83562,21.55315,15.0015,34.38493H9.78713
			l10.17971,11.52586l10.17943-11.52586H24.58186z"/>
	</g>
</g>
</svg>
