<svg width="65" height="65" fill="none" xmlns="http://www.w3.org/2000/svg"><g clip-path="url(#clip0)" stroke="#0073FF" stroke-width="2" stroke-miterlimit="10"><path d="M32.914 63.462c16.983 0 30.75-13.768 30.75-30.75 0-16.984-13.767-30.751-30.75-30.751S2.164 15.728 2.164 32.71s13.767 30.75 30.75 30.75z"/><path d="M26.052 24.6c-1.105-.648-2.477-1.627-5.136-1.627a7.447 7.447 0 000 14.894H44.06h-.294a8.593 8.593 0 100-17.185 8.548 8.548 0 00-3.85.909M24.33 20.049a9.802 9.802 0 019.243-6.54 9.8 9.8 0 019.434 7.138M22.736 41.121l-2.478 4.292m12.654-4.292l-2.479 4.292m-5.218 2.208l-2.479 4.293m13.162-4.293l-2.479 4.293m9.668-10.793l-2.478 4.292"/></g><defs><clipPath id="clip0"><path fill="#fff" transform="translate(.914 .71)" d="M0 0h64v64H0z"/></clipPath></defs></svg>