<?xml version="1.0" encoding="utf-8"?>
<!-- Generator: Adobe Illustrator 25.2.0, SVG Export Plug-In . SVG Version: 6.00 Build 0)  -->
<svg version="1.2" baseProfile="tiny" id="Layer_1" xmlns="http://www.w3.org/2000/svg" xmlns:xlink="http://www.w3.org/1999/xlink"
	 x="0px" y="0px" viewBox="0 0 66 66" overflow="visible" xml:space="preserve">
<g>
	<g>
		<linearGradient id="SVGID_1_" gradientUnits="userSpaceOnUse" x1="33" y1="69.09886" x2="33" y2="1.66366">
			<stop  offset="9.949999e-15" style="stop-color:#FFFFFF"/>
			<stop  offset="1" style="stop-color:#CCE3FF"/>
		</linearGradient>
		<path fill="url(#SVGID_1_)" stroke="#0073FF" stroke-width="2" stroke-miterlimit="10" d="M65,33
			c0,7.34009-2.47009,14.09009-6.60999,19.49023C52.52991,60.1001,43.33997,65,33,65c-10.32996,0-19.52002-4.8999-25.38-12.5
			C3.46997,47.1001,1,40.34009,1,33C1,15.33008,15.32996,1,33,1S65,15.33008,65,33z"/>
	</g>
	<g>
		<linearGradient id="SVGID_2_" gradientUnits="userSpaceOnUse" x1="12.47003" y1="34.42038" x2="12.47003" y2="19.60824">
			<stop  offset="9.949999e-15" style="stop-color:#F0F7FF"/>
			<stop  offset="1" style="stop-color:#CCE3FF"/>
		</linearGradient>
		<path fill="url(#SVGID_2_)" stroke="#0073FF" stroke-width="2" stroke-miterlimit="10" d="M23.94006,18.16016v18.16992h-4.40015
			c-0.59985,0-1.09985-0.48999-1.09985-1.1001v-1.09985H1.0199C1.00989,33.76025,1,33.38013,1,33
			c0-4.48975,0.92004-8.75977,2.58997-12.63989h14.8501v-1.09985c0-0.61011,0.5-1.1001,1.09985-1.1001H23.94006z"/>
		<linearGradient id="SVGID_3_" gradientUnits="userSpaceOnUse" x1="37.38712" y1="59.18395" x2="37.38712" y2="8.83361">
			<stop  offset="0" style="stop-color:#CCE3FF"/>
			<stop  offset="1" style="stop-color:#0073FF"/>
		</linearGradient>
		
			<path fill="url(#SVGID_3_)" stroke="#0073FF" stroke-width="2" stroke-linecap="round" stroke-linejoin="round" stroke-miterlimit="10" d="
			M27.50353,33.31857c1.60177,0.76432,3.29446,3.70078,3.29446,6.3034l0.00042,4.67292
			c-0.54527-0.16415-1.12344-0.25237-1.72222-0.25237c-3.29453,0-5.96528,2.67075-5.96528,5.96528
			c0,0.7338,0.1325,1.43666,0.37487,2.08595c0,0,2.95462,2.33488,3.46888,2.59021c0.51426,0.25532,3.57084,0.76596,8.03893,0.6383
			c4.46809-0.12766,9.2234,0.19149,12.82599-0.15958s2.55699-1.75532,2.55699-1.75532l0.91189-1.31361
			c0.24237-0.64929,0.37487-1.35214,0.37487-2.08595c0-3.29453-2.67075-5.96528-5.96528-5.96528
			c-0.59877,0-1.17694,0.08822-1.72221,0.25237v-4.67292c0-9.54856-7.21785-17.41502-16.4878-17.41502h-3.55295v10.45572
			C23.93508,32.66267,25.90176,32.55425,27.50353,33.31857z"/>
		<path fill="none" stroke="#0073FF" stroke-width="2" stroke-miterlimit="10" d="M30.50385,28.24342
			c3.53167,2.25521,5.87804,6.20959,5.87804,10.70187v3.18433"/>
	</g>
	<linearGradient id="SVGID_4_" gradientUnits="userSpaceOnUse" x1="33.005" y1="47.69458" x2="33.005" y2="68.37701">
		<stop  offset="0" style="stop-color:#CCE3FF"/>
		<stop  offset="1" style="stop-color:#0073FF"/>
	</linearGradient>
	
		<path fill="url(#SVGID_4_)" stroke="#0073FF" stroke-width="2" stroke-linecap="round" stroke-linejoin="round" stroke-miterlimit="10" d="
		M58.39001,52.49023C52.52991,60.1001,43.33997,65,33,65c-10.32996,0-19.52002-4.8999-25.38-12.5
		c2.25-0.09985,4.04004-1.5498,4.04004-3.83984c0,2.36987,1.91992,3.8501,4.28992,3.8501s4.29004-1.48022,4.29004-3.8501
		c0,2.36987,1.92004,3.8501,4.28992,3.8501c2.37012,0,4.29004-1.48022,4.29004-3.8501c0,2.36987,1.93005,3.8501,4.29004,3.8501
		c2.37,0,4.29004-1.48022,4.29004-3.8501c0,2.36987,1.92993,3.8501,4.29993,3.8501c2.35999,0,4.29004-1.48022,4.29004-3.8501
		c0,2.36987,1.92004,3.8501,4.28992,3.8501c2.37012,0,4.29004-1.48022,4.29004-3.8501
		C54.56995,50.87012,56.23999,52.31006,58.39001,52.49023z"/>
</g>
</svg>
