<svg xmlns="http://www.w3.org/2000/svg" viewBox="0 0 108 108"><linearGradient id="a" gradientUnits="userSpaceOnUse" x1="1" y1="54" x2="107" y2="54"><stop offset="0" stop-color="#f0f7ff"/><stop offset="1" stop-color="#cce3ff"/></linearGradient><circle cx="54" cy="54" r="53" fill="url(#a)" stroke="#0073ff" stroke-width="2" stroke-miterlimit="10"/><path d="M19.8 58.8c0-4.3 3.2-4.3 3.2-8.6s-3.2-4.3-3.2-8.6S23 37.3 23 33m13 12.9c0-4.3 3.2-4.3 3.2-8.6S36 33 36 28.7s3.2-4.3 3.2-8.6m13 14.7c0-4.3 3.2-4.3 3.2-8.6s-3.2-4.3-3.2-8.6 3.2-4.3 3.2-8.6m13 33.6c0-4.3 3.2-4.3 3.2-8.6s-3.2-4.3-3.2-8.6 3.2-4.3 3.2-8.6m13 34.8c0-4.3 3.2-4.3 3.2-8.6s-3.2-4.3-3.2-8.6 3.2-4.3 3.2-8.6" fill="none" stroke="#0073ff" stroke-width="2" stroke-miterlimit="10"/><linearGradient id="b" gradientUnits="userSpaceOnUse" x1="51.276" y1="42.299" x2="51.276" y2="91.798"><stop offset="0" stop-color="#cce3ff"/><stop offset="1" stop-color="#0073ff"/></linearGradient><path fill="url(#b)" stroke="#0073ff" stroke-width="2" stroke-linecap="round" stroke-linejoin="round" stroke-miterlimit="10" d="M56.5 83.8V59.3h7.3L51.3 41.9 38.8 59.3h7.3v24.5z"/><linearGradient id="c" gradientUnits="userSpaceOnUse" x1="75.722" y1="54.937" x2="75.722" y2="86.724"><stop offset="0" stop-color="#cce3ff"/><stop offset="1" stop-color="#0073ff"/></linearGradient><path fill="url(#c)" stroke="#0073ff" stroke-width="2" stroke-linecap="round" stroke-linejoin="round" stroke-miterlimit="10" d="M79.7 83.8V67.4h5.5l-9.5-13.2-9.4 13.2h5.5v16.4z"/><linearGradient id="d" gradientUnits="userSpaceOnUse" x1="29.775" y1="59.916" x2="29.775" y2="90.576"><stop offset="0" stop-color="#cce3ff"/><stop offset="1" stop-color="#0073ff"/></linearGradient><path fill="url(#d)" stroke="#0073ff" stroke-width="2" stroke-linecap="round" stroke-linejoin="round" stroke-miterlimit="10" d="M33.5 83.8V73.2h5.3l-9-12.6-9 12.6H26v10.6z"/></svg>