<?xml version="1.0" encoding="utf-8"?>
<!-- Generator: Adobe Illustrator 25.2.0, SVG Export Plug-In . SVG Version: 6.00 Build 0)  -->
<svg version="1.1" id="Layer_1" xmlns="http://www.w3.org/2000/svg" xmlns:xlink="http://www.w3.org/1999/xlink" x="0px" y="0px"
	 viewBox="0 0 108 108" style="enable-background:new 0 0 108 108;" xml:space="preserve">
<style type="text/css">
	.st0{fill:url(#SVGID_1_);stroke:#0073FF;stroke-width:2;stroke-miterlimit:10;}
	.st1{fill:none;stroke:#0073FF;stroke-width:2;stroke-miterlimit:10;}
	.st2{fill:url(#SVGID_2_);stroke:#0073FF;stroke-width:2;stroke-linecap:round;stroke-linejoin:round;stroke-miterlimit:10;}
	.st3{fill:url(#SVGID_3_);stroke:#0073FF;stroke-width:2;stroke-linecap:round;stroke-linejoin:round;stroke-miterlimit:10;}
	.st4{fill:url(#SVGID_4_);stroke:#0073FF;stroke-width:2;stroke-linecap:round;stroke-linejoin:round;stroke-miterlimit:10;}
</style>
<g>
	<linearGradient id="SVGID_1_" gradientUnits="userSpaceOnUse" x1="1" y1="54" x2="107" y2="54">
		<stop  offset="9.949999e-15" style="stop-color:#F0F7FF"/>
		<stop  offset="1" style="stop-color:#CCE3FF"/>
	</linearGradient>
	<circle class="st0" cx="54" cy="54" r="53"/>
	<g>
		<path class="st1" d="M19.8,58.8c0-4.3,3.2-4.3,3.2-8.6c0-4.3-3.2-4.3-3.2-8.6c0-4.3,3.2-4.3,3.2-8.6"/>
	</g>
	<g>
		<path class="st1" d="M36,45.9c0-4.3,3.2-4.3,3.2-8.6c0-4.3-3.2-4.3-3.2-8.6s3.2-4.3,3.2-8.6"/>
	</g>
	<g>
		<path class="st1" d="M52.2,34.8c0-4.3,3.2-4.3,3.2-8.6c0-4.3-3.2-4.3-3.2-8.6s3.2-4.3,3.2-8.6"/>
	</g>
	<g>
		<path class="st1" d="M68.4,42.6c0-4.3,3.2-4.3,3.2-8.6c0-4.3-3.2-4.3-3.2-8.6s3.2-4.3,3.2-8.6"/>
	</g>
	<g>
		<path class="st1" d="M84.6,51.6c0-4.3,3.2-4.3,3.2-8.6c0-4.3-3.2-4.3-3.2-8.6s3.2-4.3,3.2-8.6"/>
	</g>
	<g>
		<linearGradient id="SVGID_2_" gradientUnits="userSpaceOnUse" x1="51.2764" y1="42.2988" x2="51.2764" y2="91.7979">
			<stop  offset="0" style="stop-color:#CCE3FF"/>
			<stop  offset="1" style="stop-color:#0073FF"/>
		</linearGradient>
		<polygon class="st2" points="56.5,83.8 56.5,59.3 63.8,59.3 51.3,41.9 38.8,59.3 46.1,59.3 46.1,83.8 		"/>
	</g>
	<g>
		<linearGradient id="SVGID_3_" gradientUnits="userSpaceOnUse" x1="75.7225" y1="54.9371" x2="75.7225" y2="86.7243">
			<stop  offset="0" style="stop-color:#CCE3FF"/>
			<stop  offset="1" style="stop-color:#0073FF"/>
		</linearGradient>
		<polygon class="st3" points="79.7,83.8 79.7,67.4 85.2,67.4 75.7,54.2 66.3,67.4 71.8,67.4 71.8,83.8 		"/>
	</g>
	<g>
		<linearGradient id="SVGID_4_" gradientUnits="userSpaceOnUse" x1="29.7747" y1="59.9158" x2="29.7747" y2="90.5756">
			<stop  offset="0" style="stop-color:#CCE3FF"/>
			<stop  offset="1" style="stop-color:#0073FF"/>
		</linearGradient>
		<polygon class="st4" points="33.5,83.8 33.5,73.2 38.8,73.2 29.8,60.6 20.8,73.2 26,73.2 26,83.8 		"/>
	</g>
</g>
</svg>
