<svg width="109" height="109" fill="none" xmlns="http://www.w3.org/2000/svg"><path d="M20.34 59.803c0-4.305 4.137-4.305 4.137-8.622 0-4.318-4.136-4.305-4.136-8.61 0-4.304 4.136-4.317 4.136-8.622m12.075 12.928c0-4.305 4.137-4.305 4.137-8.623s-4.137-4.305-4.137-8.61 4.137-4.318 4.137-8.622m12.072 14.75c0-4.305 4.137-4.305 4.137-8.623 0-4.317-4.137-4.304-4.137-8.609 0-4.304 4.137-4.317 4.137-8.622M68.96 43.606c0-4.305 4.137-4.305 4.137-8.61 0-4.304-4.137-4.317-4.137-8.622 0-4.304 4.137-4.304 4.137-8.622M85.169 52.59c0-4.305 4.136-4.305 4.136-8.61 0-4.304-4.136-4.317-4.136-8.621 0-4.305 4.136-4.318 4.136-8.623" stroke="#0073FF" stroke-width="2" stroke-miterlimit="10"/><path d="M54.998 107.994c29.271 0 53-23.729 53-53s-23.729-53-53-53-53 23.729-53 53 23.729 53 53 53z" stroke="#0073FF" stroke-width="2" stroke-miterlimit="10"/><path d="M57.48 84.803V60.32h7.291l-12.5-17.45-12.487 17.45h7.278v24.483m33.596 0V68.347h5.507l-9.45-13.199-9.45 13.199h5.508v16.456m-38.239-.001V74.177h5.248l-9.01-12.591-9.01 12.59h5.248v10.626" stroke="#0073FF" stroke-width="2" stroke-miterlimit="10"/></svg>