<svg xmlns="http://www.w3.org/2000/svg" viewBox="0 0 108 108"><linearGradient id="a" gradientUnits="userSpaceOnUse" x1="53.998" y1="38.595" x2="53.998" y2="-1.499"><stop offset="0" stop-color="#f0f7ff"/><stop offset="1" stop-color="#cce3ff"/></linearGradient><circle cx="54" cy="54" r="53" fill="url(#a)" stroke="#0073ff" stroke-width="2" stroke-miterlimit="10"/><linearGradient id="b" gradientUnits="userSpaceOnUse" x1="54.002" y1="33.19" x2="54.002" y2="170.75"><stop offset="0" stop-color="#cce3ff"/><stop offset="1" stop-color="#0073ff"/></linearGradient><path d="M107 54c0 29.3-23.7 53-53 53-3.7 0-7.3-.4-10.8-1.1-.5-.1-1.1-.2-1.6-.4-.5-.1-1.1-.3-1.6-.4-.5-.2-1.1-.3-1.6-.5-1-.3-2-.6-2.9-1-.1 0-.3-.1-.4-.1-.4-.2-.8-.3-1.3-.5l-1.5-.6h-.1c-.5-.2-.9-.4-1.4-.7-1-.5-1.9-1-2.9-1.5-.9-.5-1.8-1.1-2.7-1.6-.4-.3-.9-.6-1.3-.9-.9-.6-1.8-1.3-2.6-1.9-.4-.3-.8-.7-1.2-1-.4-.3-.8-.7-1.2-1-.8-.7-1.6-1.4-2.3-2.2s-1.5-1.5-2.2-2.3c-.3-.4-.7-.8-1-1.2-.3-.4-.7-.8-1-1.2-.3-.3-.5-.7-.8-1.1-.2-.2-.4-.5-.5-.7-.2-.3-.5-.6-.7-1-.3-.4-.5-.8-.8-1.2-.3-.4-.5-.9-.8-1.3-.2-.4-.5-.8-.7-1.1-.2-.4-.4-.7-.6-1.1-.2-.3-.4-.6-.5-1 0-.1-.1-.1-.1-.2-.4-.8-.8-1.5-1.1-2.3 0 0 0-.1-.1-.1l-.6-1.5v0C2.4 68 1 61.2 1 54c0-5.3.8-10.5 2.3-15.3 0 0 9.7-3 28.5-3 11.1 0 19.6 2.2 28.3 3.8 6 1.1 12 1.5 19-.3.6-.2 1.1-.3 1.7-.4 12.1-2.5 24.1 0 24.1 0 1.3 4.7 2.1 9.9 2.1 15.2z" fill="url(#b)" stroke="#0073ff" stroke-width="2" stroke-linecap="round" stroke-linejoin="round" stroke-miterlimit="10"/><linearGradient id="c" gradientUnits="userSpaceOnUse" x1="43.379" y1="101.174" x2="42.617" y2="38.925"><stop offset="0" stop-color="#f0f7ff"/><stop offset="1" stop-color="#cce3ff"/></linearGradient><path d="M77.7 78.7c-5.7 16.2-32 26.9-32 26.9l-2.5.3c-.5-.1-1.1-.2-1.6-.4-.5-.1-1.1-.3-1.6-.4-.5-.2-1.1-.3-1.6-.5-1-.3-2-.6-2.9-1-.1 0-.3-.1-.4-.1-.4-.2-.8-.3-1.3-.5l-1.5-.6h-.1c-.5-.2-.9-.4-1.4-.7-1-.5-1.9-1-2.9-1.5-.9-.5-1.8-1.1-2.7-1.6-.4-.3-.9-.6-1.3-.9-.9-.6-1.8-1.3-2.6-1.9-.4-.3-.8-.7-1.2-1-.4-.3-.8-.7-1.2-1-.8-.7-1.6-1.4-2.3-2.2s-1.5-1.5-2.2-2.3c-.3-.4-.7-.8-1-1.2-.3-.4-.7-.8-1-1.2-.3-.3-.5-.7-.8-1.1-.2-.2-.4-.5-.5-.7-.2-.3-.5-.6-.7-1-.3-.4-.5-.8-.8-1.2-.3-.4-.5-.9-.8-1.3-.2-.4-.5-.8-.7-1.1-.2-.4-.4-.7-.6-1.1-.2-.3-.4-.6-.5-1 0-.1-.1-.1-.1-.2-.4-.8-.8-1.5-1.1-2.3 0 0 0-.1-.1-.1l-.6-1.5v0s17.4-2.6 24.3-9.8c4.3-4.5-3-11.9 4.3-18.3 4.3-3.7 18.2-5.7 26.4-6.7 6 1.1 12 1.5 19-.3.6-.2 1.1-.3 1.7-.4h.1s-19.4 7.7-17.6 15.9c1.7 8.2 19.6 9.2 14.4 24z" fill="url(#c)" stroke="#0073ff" stroke-width="2" stroke-miterlimit="10"/><path d="M46.7 52c-11.3 6.1 8.5 13.3-12.9 25.4m6.4 14.8s18.1-8.4 18.1-20.9" fill="none" stroke="#0073ff" stroke-width="2" stroke-linecap="round" stroke-miterlimit="10"/></svg>