<svg width="108" height="109" viewBox="0 0 108 109" fill="none" xmlns="http://www.w3.org/2000/svg">
<path d="M54 107.994C83.2711 107.994 107 84.2652 107 54.9941C107 25.723 83.2711 1.99414 54 1.99414C24.7289 1.99414 1 25.723 1 54.9941C1 84.2652 24.7289 107.994 54 107.994Z" stroke="#0073FF" stroke-width="2" stroke-miterlimit="10"/>
<path d="M18.9436 41.1113H48.6365" stroke="#0073FF" stroke-width="2" stroke-miterlimit="10"/>
<path d="M40.1542 32.6304C40.1542 30.9532 40.6515 29.3137 41.5833 27.9192C42.5151 26.5246 43.8395 25.4377 45.389 24.7959C46.9385 24.1541 48.6436 23.9861 50.2885 24.3133C51.9335 24.6405 53.4445 25.4482 54.6304 26.6341C55.8164 27.8201 56.624 29.3311 56.9512 30.976C57.2784 32.621 57.1105 34.326 56.4687 35.8755C55.8268 37.4251 54.7399 38.7495 53.3454 39.6813C51.9509 40.613 50.3114 41.1104 48.6342 41.1104" stroke="#0073FF" stroke-width="2" stroke-miterlimit="10"/>
<path d="M45.1204 51.0898H78.3165" stroke="#0073FF" stroke-width="2" stroke-miterlimit="10"/>
<path d="M67.5858 40.3606C67.5833 38.2349 68.2114 36.1562 69.3908 34.3877C70.5702 32.6192 72.2478 31.2403 74.2112 30.4256C76.1746 29.611 78.3356 29.3972 80.4205 29.8113C82.5055 30.2253 84.4208 31.2487 85.9239 32.7518C87.427 34.2549 88.4504 36.1702 88.8644 38.2551C89.2785 40.3401 89.0647 42.5011 88.25 44.4645C87.4354 46.4279 86.0565 48.1055 84.288 49.2849C82.5195 50.4642 80.4408 51.0924 78.3151 51.0899" stroke="#0073FF" stroke-width="2" stroke-miterlimit="10"/>
<path d="M18.9436 68.6973H54.2597" stroke="#0073FF" stroke-width="2" stroke-miterlimit="10"/>
<path d="M45.6885 77.2678C45.6885 78.9628 46.1911 80.6199 47.1329 82.0293C48.0746 83.4387 49.4131 84.5372 50.9792 85.1859C52.5452 85.8345 54.2685 86.0043 55.931 85.6736C57.5935 85.3429 59.1206 84.5266 60.3192 83.328C61.5178 82.1294 62.3341 80.6023 62.6648 78.9398C62.9955 77.2773 62.8257 75.554 62.1771 73.988C61.5284 72.4219 60.4299 71.0834 59.0205 70.1417C57.6111 69.1999 55.954 68.6973 54.259 68.6973" stroke="#0073FF" stroke-width="2" stroke-miterlimit="10"/>
<path d="M31.7139 59.5176H70.8046C72.0217 59.5176 73.1889 60.0012 74.0495 60.8619C74.9101 61.7227 75.3936 62.8901 75.3936 64.1074C75.3936 65.3247 74.9101 66.4922 74.0495 67.3529C73.1889 68.2137 72.0217 68.6973 70.8046 68.6973" stroke="#0073FF" stroke-width="2" stroke-miterlimit="10"/>
<path d="M18.9436 51.0898H40.7124" stroke="#0073FF" stroke-width="2" stroke-miterlimit="10"/>
<path d="M18.9436 59.5176H28.8973" stroke="#0073FF" stroke-width="2" stroke-miterlimit="10"/>
</svg>
