<svg width="65" height="65" fill="none" xmlns="http://www.w3.org/2000/svg"><g clip-path="url(#clip0)" stroke="#0073FF" stroke-width="2" stroke-miterlimit="10"><path d="M32.078 63.462c16.983 0 30.75-13.768 30.75-30.75 0-16.984-13.767-30.751-30.75-30.751S1.328 15.728 1.328 32.71s13.767 30.75 30.75 30.75z"/><path d="M14.71 17.82h8.216v-.856c0-.473.383-.857.856-.857h3.425v12.606h-3.425a.856.856 0 01-.856-.856V27H14.71m18.47-5.107c3.099 1.978 5.157 5.447 5.157 9.387v2.794"/><path d="M47.602 39.212c.085-.227.137-.47.15-.723a2.566 2.566 0 00-3.671-2.451l-.607-.385v-4.372c0-7.445-5.627-13.578-12.854-13.578m.012 8.664a6.002 6.002 0 012.568 4.915v4.369l-.59.395a2.564 2.564 0 00-3.646 1.825c-.087.475-.043.932.1 1.341m-9.199 9.194h28.55m-32.83-4.281h36.451"/></g><defs><clipPath id="clip0"><path fill="#fff" transform="translate(.078 .71)" d="M0 0h64v64H0z"/></clipPath></defs></svg>