<?xml version="1.0" encoding="utf-8"?>
<!-- Generator: Adobe Illustrator 25.2.0, SVG Export Plug-In . SVG Version: 6.00 Build 0)  -->
<svg version="1.2" baseProfile="tiny" id="Layer_1" xmlns="http://www.w3.org/2000/svg" xmlns:xlink="http://www.w3.org/1999/xlink"
	 x="0px" y="0px" viewBox="0 0 1920 1200" overflow="visible" xml:space="preserve">
<rect y="0" fill="#FAFCFF" width="1920" height="1200"/>
<polyline fill="#FAFCFF" points="-0.4,0.5 0,0.3 0,640.4 -0.3,640.2 "/>
<polygon fill="#FAFCFF" points="-0.3,680.2 0,680 0,680.4 "/>
<polygon fill="#FAFCFF" points="-0.3,720.2 0,720 0,720.4 -0.3,720.2 -0.4,720.2 "/>
<polygon fill="#FAFCFF" points="-0.3,760.2 0,760 0,760.4 "/>
<polygon fill="#FAFCFF" points="-0.3,800.2 0,800 0,800.4 "/>
<polygon fill="#FAFCFF" points="-0.3,840.1 0,840 0,840.3 "/>
<line fill="#FAFCFF" x1="69.8" y1="0" x2="0.6" y2="0"/>
<line fill="#FAFCFF" x1="141" y1="0" x2="71.7" y2="0"/>
<line fill="#FAFCFF" x1="212.1" y1="0" x2="142.8" y2="0"/>
<line fill="#FAFCFF" x1="283.2" y1="0" x2="213.9" y2="0"/>
<line fill="#FAFCFF" x1="354.3" y1="0" x2="285.1" y2="0"/>
<line fill="#FAFCFF" x1="425.4" y1="0" x2="356.2" y2="0"/>
<line fill="#FAFCFF" x1="496.6" y1="0" x2="427.3" y2="0"/>
<line fill="#FAFCFF" x1="567.7" y1="0" x2="498.4" y2="0"/>
<line fill="#FAFCFF" x1="638.8" y1="0" x2="569.6" y2="0"/>
<line fill="#FAFCFF" x1="709.9" y1="0" x2="640.7" y2="0"/>
<line fill="#FAFCFF" x1="781.1" y1="0" x2="711.8" y2="0"/>
<line fill="#FAFCFF" x1="852.2" y1="0" x2="782.9" y2="0"/>
<line fill="#FAFCFF" x1="923.3" y1="0" x2="854.1" y2="0"/>
<line fill="#FAFCFF" x1="994.4" y1="0" x2="925.2" y2="0"/>
<line fill="#FAFCFF" x1="1065.5" y1="0" x2="996.3" y2="0"/>
<line fill="#FAFCFF" x1="1136.7" y1="0" x2="1067.4" y2="0"/>
<line fill="#FAFCFF" x1="1207.8" y1="0" x2="1138.6" y2="0"/>
<line fill="#FAFCFF" x1="1278.9" y1="0" x2="1209.7" y2="0"/>
<line fill="#FAFCFF" x1="1350" y1="0" x2="1280.8" y2="0"/>
<line fill="#FAFCFF" x1="1421.2" y1="0" x2="1351.9" y2="0"/>
<line fill="#FAFCFF" x1="1492.3" y1="0" x2="1423" y2="0"/>
<line fill="#FAFCFF" x1="1563.4" y1="0" x2="1494.2" y2="0"/>
<line fill="#FAFCFF" x1="1634.5" y1="0" x2="1565.3" y2="0"/>
<line fill="#FAFCFF" x1="1705.7" y1="0" x2="1636.4" y2="0"/>
<line fill="#FAFCFF" x1="1776.8" y1="0" x2="1707.5" y2="0"/>
<line fill="#FAFCFF" x1="1847.9" y1="0" x2="1778.7" y2="0"/>
<line fill="#FAFCFF" x1="1919" y1="0" x2="1849.8" y2="0"/>
<g>
	<path fill="none" stroke="#E5F1FF" stroke-miterlimit="10" d="M1.4,0C1.2,0.1,0.7,0.4,0.5,0.5 M72.5,0
		c-18.3,10.3-53.8,30.2-72,40.5 M143.7,0C98.7,25.3,45.4,55.2,0.5,80.5 M214.8,0C145.2,39.1,70.1,81.3,0.5,120.5 M285.9,0
		C192.2,52.7,94.3,107.7,0.5,160.4 M357,0C239.3,66.2,118.2,134.2,0.5,200.4 M428.2,0C286.5,79.6,142.1,160.8,0.5,240.4 M499.3,0
		C333.9,93,166.1,187.3,0.7,280.3 M570.4,0C381.1,106.4,189.8,214,0.5,320.4 M641.5,0c-213.1,119.8-428,240.6-641,360.4 M712.7,0
		C475.8,133.1,237.3,267.2,0.5,400.3 M783.8,0C523.2,146.5,261.1,293.8,0.5,440.3 M854.9,0C570.6,159.8,284.8,320.5,0.5,480.3
		 M926,0C617.9,173.2,308.6,347.1,0.5,520.3 M997.2,0C665.3,186.5,332.3,373.7,0.5,560.3 M1068.3,0C712.7,199.9,356,400.4,0.5,600.3
		 M1139.4,0C760.1,213.2,379.8,427,0.5,640.2 M1210.5,0c-403,226.6-807,453.7-1210,680.2 M1281.7,0
		C854.9,239.9,427.2,480.3,0.5,720.2 M1352.8,0C902.3,253.2,450.9,507,0.5,760.2 M1423.9,0C949.7,266.6,474.7,533.6,0.5,800.2
		 M1495,0C997.1,279.9,498.4,560.2,0.5,840.1 M1566.2,0C1044.5,293.2,522.1,586.9,0.5,880.1 M1637.3,0
		C1091.9,306.6,545.8,613.6,0.5,920.1 M1708.4,0C1139.3,319.9,569.6,640.2,0.5,960.1 M1779.5,0C1186.7,333.2,593.3,666.8,0.5,1000.1
		 M1850.6,0C1234.1,346.6,617,693.5,0.5,1040.1 M1920.8,0.5C1280.9,360.3,640.4,720.3,0.5,1080 M-0.9,1120.8
		c640.4-360,1281.3-720.3,1921.7-1080.3 M0.5,1160C640.4,800.3,1280.9,440.2,1920.8,80.5 M0.5,1200
		C640.4,840.3,1280.9,480.2,1920.8,120.5 M1920.8,160.5C1304.6,506.9,687.8,853.6,71.7,1200 M1920.8,200.4
		C1328.4,533.5,735.2,866.9,142.8,1200 M1920.8,240.4C1352.1,560.2,782.6,880.3,213.9,1200 M1920.8,280.4
		C1375.8,586.8,830.1,893.6,285,1200 M1920.8,320.4C1399.5,613.4,877.5,906.9,356.1,1200 M1920.8,360.4
		c-497.6,279.7-996,559.9-1493.6,839.6 M1920.8,400.4C1447,666.7,972.3,933.6,498.4,1200 M1920.8,440.3
		C1470.7,693.4,1019.7,946.9,569.5,1200 M1920.8,480.3C1494.4,720,1067.1,960.3,640.6,1200 M711.8,1200
		c402.7-226.4,806.4-453.3,1209.1-679.7 M1920.8,560.3c-379,213-759,426.7-1137.9,639.7 M1920.8,600.3
		C1565.6,800,1209.3,1000.3,854,1200 M1920.8,640.2c-331.5,186.4-664.2,373.4-995.7,559.7 M1920.8,680.2
		C1613.1,853.3,1304,1027,996.3,1200 M1920.8,720.2c-284,159.7-569.4,320.1-853.5,479.8 M1920.8,760.2
		c-260.3,146.3-522,293.5-782.3,439.8 M1920.8,800.2c-236.5,133-474.7,266.8-711.2,399.8 M1920.8,840.2
		c-212.8,119.6-427.3,240.2-640.1,359.8 M1920.8,880.1c-189,106.2-380,213.6-569,319.9 M1423,1200c165.2-92.9,332.7-187,497.9-279.9
		 M1494.1,1200c141.4-79.5,285.4-160.4,426.7-239.9 M1920.8,1000.1c-117.5,66.1-238.1,133.8-355.6,199.9 M1636.5,1199.9
		c93.5-52.6,190.8-107.3,284.3-159.8 M1707.5,1200c69.5-39.1,143.9-80.9,213.4-119.9 M1778.6,1200c45-25.3,97.3-54.7,142.2-80
		 M1849.7,1200c19.8-11.1,51.5-29,71.1-40 M0.5,1160c17.8,10,53.3,30,71.1,40 M0.5,1120c44.6,25.1,97.6,54.9,142.3,80 M0.5,1080
		c69.3,38.9,144.1,81,213.4,119.9 M0.5,1040.1C94,1092.6,191.6,1147.4,285,1200 M0.5,1000.1c117.4,66,238.2,133.9,355.6,199.9
		 M0.5,960.1c141.3,79.5,285.4,160.4,426.8,239.9 M0.5,920.1c165.2,92.9,332.7,187,497.9,279.9 M0.5,880.1
		c189,106.2,380,213.6,569,319.9 M640.6,1200C427.9,1080.4,213.3,959.8,0.5,840.1 M0.5,800.2C237,933.1,475.2,1067,711.8,1200
		 M0.5,760.2c260.3,146.3,522.1,293.5,782.4,439.8 M854,1200C570,1040.3,284.5,879.9,0.5,720.2 M925.1,1200
		C617.3,1027,308.3,853.2,0.5,680.2 M996.3,1200C664.7,1013.6,332,826.6,0.5,640.2 M1067.4,1200C712.1,1000.3,355.8,800,0.5,600.3
		 M1138.5,1200c-379-213-759-426.7-1138-639.7 M1209.6,1200C806.9,973.6,403.2,746.7,0.5,520.3 M1280.8,1200
		C854.3,960.3,426.9,720,0.5,480.3 M1351.9,1200C901.7,946.9,450.7,693.4,0.5,440.3 M1423,1200C949.1,933.6,474.4,666.7,0.5,400.3
		 M0.5,360.4c497.6,279.8,996,559.9,1493.6,839.7 M0.5,320.4C521.8,613.4,1043.9,906.9,1565.3,1200 M0.7,280.3
		c545,306.4,1090.8,613.2,1635.8,919.6 M0.5,240.4c568.8,319.7,1138.2,639.9,1707,959.6 M0.5,200.4
		C593,533.5,1186.1,866.9,1778.6,1200 M0.5,160.4c616.2,346.4,1233,693.1,1849.2,1039.6 M1920.8,1200
		C1281,840.3,640.4,480.2,0.5,120.5 M1920.8,1160C1280.9,800.3,640.4,440.2,0.5,80.5 M1920.8,1120C1281,760.3,640.4,400.2,0.5,40.5
		 M1920.8,1080.1C1281,720.3,640.4,360.3,0.5,0.5 M1920.8,1040.1C1304.3,693.5,687.2,346.6,70.7,0 M1920.8,1000.1
		C1328,666.8,734.6,333.2,141.8,0 M212.9,0C782,319.9,1351.8,640.2,1920.8,960.1 M284.1,0c545.4,306.6,1091.5,613.6,1636.8,920.1
		 M355.2,0c521.6,293.2,1044,586.9,1565.6,880.1 M426.3,0c497.9,279.9,996.6,560.3,1494.5,840.2 M497.4,0
		c474.2,266.6,949.2,533.6,1423.4,800.2 M568.5,0c450.5,253.3,901.8,507,1352.3,760.2 M639.7,0
		c426.8,239.9,854.4,480.3,1281.2,720.2 M710.8,0c403,226.6,807,453.7,1210.1,680.2 M781.9,0c379.3,213.2,759.6,427,1138.9,640.3
		 M853,0c355.6,199.9,712.3,400.4,1067.8,600.3 M924.1,0C1256,186.5,1589,373.8,1920.8,560.3 M995.3,0
		c308.1,173.2,617.4,347.1,925.5,520.3 M1066.4,0c284.4,159.9,570.1,320.5,854.4,480.3 M1137.5,0
		c260.6,146.5,522.7,293.8,783.3,440.3 M1208.7,0c236.9,133.2,475.3,267.2,712.2,400.4 M1279.8,0c213.1,119.8,428,240.6,641.1,360.4
		 M1350.9,0c189.3,106.4,380.6,214,569.9,320.4 M1422,0c165.5,93,333.3,187.4,498.8,280.4 M1493.1,0
		c141.7,79.7,286,160.8,427.7,240.4 M1564.3,0c117.8,66.2,238.8,134.2,356.6,200.4 M1635.4,0c93.9,52.8,191.6,107.7,285.4,160.5
		 M1706.5,0c69.8,39.2,144.6,81.3,214.3,120.5 M1777.6,0c45.4,25.5,97.8,55,143.2,80.5 M1848.8,0c20.3,11.4,51.9,29.2,72.1,40.5"/>
</g>
<g>
</g>
<g>
</g>
<g>
</g>
<g>
</g>
<g>
</g>
<g>
</g>
</svg>
