<svg width="76" height="42" fill="none" xmlns="http://www.w3.org/2000/svg"><g clip-path="url(#clip0)"><path d="M375 0H0v1251.84h375V0z" fill="#FAFCFF"/><path d="M38.492 21.38l37.032 20.86-37.032-20.86zM1.459.522L38.47 21.37 1.46.522zm74.089 41.73l36.994 20.836-36.994-20.836zm37.015-20.846h-.007L75.524 42.245l.02.011 37.019-20.85zm-.007-.006L75.496.528 76.43 0l-.937.528L74.557 0l.937.528-4.666 2.63 4.667-2.63L112.556 21.4z" stroke="#F0F8FF" stroke-width="2" stroke-miterlimit="10"/><path d="M70.828 3.158c-9.123 5.138-20.763 11.683-32.356 18.211l.02.011L70.828 3.158zM38.47 21.37A17055.702 17055.702 0 001.46 42.25l37.032-20.868-.02-.012zm36.998 104.289L38.5 104.839l37.042-20.866 36.977 20.825-36.975-20.826 37.032-20.861-.035-.02-37.032 20.86-37.004-20.837 37.04-20.86-.02-.011c-12.437 7-24.867 14-37.043 20.858L1.46 42.25l37.022 20.856A45450.984 45450.984 0 001.457 83.983l37.047-20.864 37.004 20.84a92425.842 92425.842 0 00-37.03 20.867L1.458 83.978l37.02 20.848c-12.466 7.029-24.806 13.989-37.02 20.88L38.5 104.839l36.967 20.82z" stroke="#F0F8FF" stroke-width="2" stroke-miterlimit="10"/></g><defs><clipPath id="clip0"><path fill="#fff" d="M0 0h76v42H0z"/></clipPath></defs></svg>