<svg version="1.2" baseProfile="tiny" xmlns="http://www.w3.org/2000/svg" viewBox="0 0 1920 1200" overflow="visible"><path fill="#FAFCFF" d="M0 0h1920v1200H0zm-.4.5L0 .3v640.1l-.3-.2m0 40l.3-.2v.4zm0 40l.3-.2v.4l-.3-.2h-.1zm0 40l.3-.2v.4zm0 40l.3-.2v.4zm0 39.9l.3-.1v.3zM69.8 0H.6M141 0H71.7m140.4 0h-69.3m140.4 0h-69.3m140.4 0h-69.2m140.3 0h-69.2m140.4 0h-69.3m140.4 0h-69.3m140.4 0h-69.2m140.3 0h-69.2m140.4 0h-69.3m140.4 0h-69.3m140.4 0h-69.2m140.3 0h-69.2m140.3 0h-69.2m140.4 0h-69.3m140.4 0h-69.2m140.3 0h-69.2M1350 0h-69.2m140.4 0h-69.3m140.4 0H1423m140.4 0h-69.2m140.3 0h-69.2m140.4 0h-69.3m140.4 0h-69.3m140.4 0h-69.2M1919 0h-69.2"/><path fill="none" stroke="#E5F1FF" stroke-miterlimit="10" d="M1.4 0C1.2.1.7.4.5.5m72-.5C54.2 10.3 18.7 30.2.5 40.5M143.7 0C98.7 25.3 45.4 55.2.5 80.5M214.8 0C145.2 39.1 70.1 81.3.5 120.5M285.9 0C192.2 52.7 94.3 107.7.5 160.4M357 0C239.3 66.2 118.2 134.2.5 200.4M428.2 0C286.5 79.6 142.1 160.8.5 240.4M499.3 0C333.9 93 166.1 187.3.7 280.3M570.4 0C381.1 106.4 189.8 214 .5 320.4M641.5 0C428.4 119.8 213.5 240.6.5 360.4M712.7 0C475.8 133.1 237.3 267.2.5 400.3M783.8 0C523.2 146.5 261.1 293.8.5 440.3M854.9 0C570.6 159.8 284.8 320.5.5 480.3M926 0C617.9 173.2 308.6 347.1.5 520.3M997.2 0C665.3 186.5 332.3 373.7.5 560.3M1068.3 0C712.7 199.9 356 400.4.5 600.3M1139.4 0C760.1 213.2 379.8 427 .5 640.2M1210.5 0c-403 226.6-807 453.7-1210 680.2M1281.7 0C854.9 239.9 427.2 480.3.5 720.2M1352.8 0C902.3 253.2 450.9 507 .5 760.2M1423.9 0C949.7 266.6 474.7 533.6.5 800.2M1495 0C997.1 279.9 498.4 560.2.5 840.1M1566.2 0C1044.5 293.2 522.1 586.9.5 880.1M1637.3 0C1091.9 306.6 545.8 613.6.5 920.1M1708.4 0C1139.3 319.9 569.6 640.2.5 960.1M1779.5 0C1186.7 333.2 593.3 666.8.5 1000.1M1850.6 0C1234.1 346.6 617 693.5.5 1040.1M1920.8.5C1280.9 360.3 640.4 720.3.5 1080m-1.4 40.8c640.4-360 1281.3-720.3 1921.7-1080.3M.5 1160C640.4 800.3 1280.9 440.2 1920.8 80.5M.5 1200C640.4 840.3 1280.9 480.2 1920.8 120.5m0 40C1304.6 506.9 687.8 853.6 71.7 1200m1849.1-999.6C1328.4 533.5 735.2 866.9 142.8 1200m1778-959.6C1352.1 560.2 782.6 880.3 213.9 1200m1706.9-919.6C1375.8 586.8 830.1 893.6 285 1200m1635.8-879.6C1399.5 613.4 877.5 906.9 356.1 1200m1564.7-839.6c-497.6 279.7-996 559.9-1493.6 839.6m1493.6-799.6C1447 666.7 972.3 933.6 498.4 1200m1422.4-759.7C1470.7 693.4 1019.7 946.9 569.5 1200m1351.3-719.7C1494.4 720 1067.1 960.3 640.6 1200m71.2 0c402.7-226.4 806.4-453.3 1209.1-679.7m-.1 40c-379 213-759 426.7-1137.9 639.7m1137.9-599.7C1565.6 800 1209.3 1000.3 854 1200m1066.8-559.8c-331.5 186.4-664.2 373.4-995.7 559.7m995.7-519.7C1613.1 853.3 1304 1027 996.3 1200m924.5-479.8c-284 159.7-569.4 320.1-853.5 479.8m853.5-439.8c-260.3 146.3-522 293.5-782.3 439.8m782.3-399.8c-236.5 133-474.7 266.8-711.2 399.8m711.2-359.8c-212.8 119.6-427.3 240.2-640.1 359.8m640.1-319.9c-189 106.2-380 213.6-569 319.9m71.2 0c165.2-92.9 332.7-187 497.9-279.9M1494.1 1200c141.4-79.5 285.4-160.4 426.7-239.9m0 40c-117.5 66.1-238.1 133.8-355.6 199.9m71.3-.1c93.5-52.6 190.8-107.3 284.3-159.8M1707.5 1200c69.5-39.1 143.9-80.9 213.4-119.9M1778.6 1200c45-25.3 97.3-54.7 142.2-80m-71.1 80c19.8-11.1 51.5-29 71.1-40M.5 1160c17.8 10 53.3 30 71.1 40M.5 1120c44.6 25.1 97.6 54.9 142.3 80M.5 1080c69.3 38.9 144.1 81 213.4 119.9M.5 1040.1C94 1092.6 191.6 1147.4 285 1200M.5 1000.1c117.4 66 238.2 133.9 355.6 199.9M.5 960.1c141.3 79.5 285.4 160.4 426.8 239.9M.5 920.1c165.2 92.9 332.7 187 497.9 279.9M.5 880.1c189 106.2 380 213.6 569 319.9m71.1 0C427.9 1080.4 213.3 959.8.5 840.1m0-39.9C237 933.1 475.2 1067 711.8 1200M.5 760.2c260.3 146.3 522.1 293.5 782.4 439.8m71.1 0C570 1040.3 284.5 879.9.5 720.2M925.1 1200C617.3 1027 308.3 853.2.5 680.2M996.3 1200C664.7 1013.6 332 826.6.5 640.2M1067.4 1200C712.1 1000.3 355.8 800 .5 600.3m1138 599.7c-379-213-759-426.7-1138-639.7M1209.6 1200C806.9 973.6 403.2 746.7.5 520.3M1280.8 1200C854.3 960.3 426.9 720 .5 480.3M1351.9 1200C901.7 946.9 450.7 693.4.5 440.3M1423 1200C949.1 933.6 474.4 666.7.5 400.3m0-39.9c497.6 279.8 996 559.9 1493.6 839.7M.5 320.4c521.3 293 1043.4 586.5 1564.8 879.6M.7 280.3c545 306.4 1090.8 613.2 1635.8 919.6M.5 240.4c568.8 319.7 1138.2 639.9 1707 959.6M.5 200.4C593 533.5 1186.1 866.9 1778.6 1200M.5 160.4c616.2 346.4 1233 693.1 1849.2 1039.6m71.1 0C1281 840.3 640.4 480.2.5 120.5M1920.8 1160C1280.9 800.3 640.4 440.2.5 80.5M1920.8 1120C1281 760.3 640.4 400.2.5 40.5m1920.3 1039.6C1281 720.3 640.4 360.3.5.5m1920.3 1039.6C1304.3 693.5 687.2 346.6 70.7 0m1850.1 1000.1C1328 666.8 734.6 333.2 141.8 0m71.1 0C782 319.9 1351.8 640.2 1920.8 960.1M284.1 0c545.4 306.6 1091.5 613.6 1636.8 920.1M355.2 0c521.6 293.2 1044 586.9 1565.6 880.1M426.3 0c497.9 279.9 996.6 560.3 1494.5 840.2M497.4 0c474.2 266.6 949.2 533.6 1423.4 800.2M568.5 0c450.5 253.3 901.8 507 1352.3 760.2M639.7 0c426.8 239.9 854.4 480.3 1281.2 720.2M710.8 0c403 226.6 807 453.7 1210.1 680.2M781.9 0c379.3 213.2 759.6 427 1138.9 640.3M853 0c355.6 199.9 712.3 400.4 1067.8 600.3M924.1 0C1256 186.5 1589 373.8 1920.8 560.3M995.3 0c308.1 173.2 617.4 347.1 925.5 520.3M1066.4 0c284.4 159.9 570.1 320.5 854.4 480.3M1137.5 0c260.6 146.5 522.7 293.8 783.3 440.3M1208.7 0c236.9 133.2 475.3 267.2 712.2 400.4M1279.8 0c213.1 119.8 428 240.6 641.1 360.4M1350.9 0c189.3 106.4 380.6 214 569.9 320.4M1422 0c165.5 93 333.3 187.4 498.8 280.4M1493.1 0c141.7 79.7 286 160.8 427.7 240.4M1564.3 0l356.6 200.4M1635.4 0c93.9 52.8 191.6 107.7 285.4 160.5M1706.5 0c69.8 39.2 144.6 81.3 214.3 120.5M1777.6 0c45.4 25.5 97.8 55 143.2 80.5m-72-80.5c20.3 11.4 51.9 29.2 72.1 40.5"/></svg>