<svg xmlns="http://www.w3.org/2000/svg" width="1924.596" height="180.86" viewBox="0 0 1924.596 180.86"><defs><style>.a,.b{fill:none;stroke:#0073ff;stroke-linecap:round;stroke-linejoin:round;stroke-width:2px;}.b{stroke-dasharray:8;}</style></defs><g transform="translate(3.422 -7638.499)"><path class="a" d="M49.118,32.037,40.865,21.583a2.367,2.367,0,0,1-.4-2.165L44.394,6.693a2.366,2.366,0,0,0-3.081-2.917L28.82,8.395a2.363,2.363,0,0,1-2.183-.286L15.75.437a2.366,2.366,0,0,0-3.726,2.028l.532,13.309a2.366,2.366,0,0,1-.946,1.989L.949,25.746a2.366,2.366,0,0,0,.777,4.171l12.822,3.606a2.367,2.367,0,0,1,1.6,1.514l4.3,12.607a2.366,2.366,0,0,0,4.207.55l7.392-11.08a2.363,2.363,0,0,1,1.933-1.052L47.3,35.868A2.365,2.365,0,0,0,49.118,32.037Z" transform="matrix(-0.891, 0.454, -0.454, -0.891, 1206.579, 7738.296)"/><path class="b" d="M1133.468,586.419c307.225-66.638,462.206,36.766,708.076-11.476" transform="translate(78.456 7138.729)"/><path class="b" d="M267.574,858.684c1.51-3.775,269.15-15.425,386.165-31.691,265.98-36.973,410.378,93.117,751.227,93.117" transform="matrix(0.998, -0.07, 0.07, 0.998, -326.213, 6919.067)"/></g></svg>