<svg xmlns="http://www.w3.org/2000/svg" width="1396.033" height="127.279" viewBox="0 0 1396.033 127.279"><defs><style>.a{fill:#fff;stroke:#0073ff;stroke-miterlimit:10;stroke-width:2px;}</style></defs><g transform="translate(-307.757 -10858)"><g transform="translate(1456 10859)"><path class="a" d="M1445.623,5489.43H1651.3c.071-.97.111-1.95.111-2.94a39.444,39.444,0,0,0-66.23-28.95,60.35,60.35,0,0,0-99.671,1.53,33.83,33.83,0,0,0-39.889,30.36Z" transform="translate(-1404.623 -5383.643)"/><path class="a" d="M1414.745,5416.923h120.81a25.607,25.607,0,0,0-35.731-20.96,28.339,28.339,0,0,0-53.6,7.25,19.948,19.948,0,0,0-31.48,13.71Z" transform="translate(-1494.887 -5379.643)"/></g><g transform="translate(416 10927)"><path class="a" d="M1445.623,5476.818h160.526c.055-.757.087-1.522.087-2.294a30.785,30.785,0,0,0-51.691-22.595,47.1,47.1,0,0,0-77.79,1.194,26.406,26.406,0,0,0-31.132,23.7Z" transform="translate(-1359.446 -5452.643)"/><path class="a" d="M1555.5,5423.078H1414.745a29.835,29.835,0,0,1,41.63-24.421,33.018,33.018,0,0,1,62.449,8.447,23.242,23.242,0,0,1,36.678,15.974Z" transform="translate(-1521.887 -5365.798)"/></g></g></svg>