<svg xmlns="http://www.w3.org/2000/svg" width="55.674" height="53.259" viewBox="0 0 55.674 53.259"><path d="M2817.387,181.024l6.962,14.107a1.31,1.31,0,0,0,.985.716l15.567,2.262a1.308,1.308,0,0,1,.725,2.231l-11.265,10.981a1.306,1.306,0,0,0-.376,1.158l2.659,15.5a1.308,1.308,0,0,1-1.9,1.379l-13.924-7.32a1.308,1.308,0,0,0-1.217,0l-13.924,7.32a1.308,1.308,0,0,1-1.9-1.379l2.659-15.5a1.309,1.309,0,0,0-.376-1.158L2790.8,200.339a1.308,1.308,0,0,1,.724-2.231l15.568-2.262a1.309,1.309,0,0,0,.985-.716l6.962-14.107A1.308,1.308,0,0,1,2817.387,181.024Z" transform="translate(-2788.377 -178.295)" fill="none" stroke="#0073ff" stroke-linecap="round" stroke-linejoin="round" stroke-width="4"/></svg>