<svg xmlns="http://www.w3.org/2000/svg" width="505.011" height="366.463" viewBox="0 0 505.011 366.463"><defs><style>.a,.b,.c,.f{fill:none;}.a,.b,.c,.d,.e,.f{stroke:#fff;}.a,.f{stroke-miterlimit:10;}.a,.b,.d,.e,.f{stroke-width:2px;}.b,.d,.e,.f{stroke-linecap:round;}.b,.d,.e{stroke-linejoin:round;}.d{fill:#fff;}.e{fill:#fafbfc;}</style></defs><g transform="translate(-1390.293 -679.5)"><g transform="translate(1008.57 -2009.258)"><g transform="translate(595.378 2981.362)"><path class="a" d="M670.348,3025.862H597.4V2987.2a5.841,5.841,0,0,1,5.842-5.842h61.268a5.839,5.839,0,0,1,5.842,5.842Z" transform="translate(-592.596 -2981.362)"/><rect class="b" width="53.977" height="34.485" transform="translate(14.401 10.014)"/><g transform="translate(0 44.5)"><path class="c" d="M675.7,3000.07h-78.09a2.231,2.231,0,0,0-2.231,2.232v3.946a3.867,3.867,0,0,0,3.865,3.865h74.824a3.865,3.865,0,0,0,3.863-3.865V3002.3A2.231,2.231,0,0,0,675.7,3000.07Z" transform="translate(-595.378 -3000.07)"/><path class="a" d="M675.7,3000.07h-78.09a2.231,2.231,0,0,0-2.231,2.232v3.946a3.867,3.867,0,0,0,3.865,3.865h74.824a3.865,3.865,0,0,0,3.863-3.865V3002.3A2.231,2.231,0,0,0,675.7,3000.07Z" transform="translate(-595.378 -3000.07)"/></g></g><path class="b" d="M614.334,2998.561v-7.935h8.023" transform="translate(26.134 12.771)"/><line class="d" x1="9.446" y1="9.446" transform="translate(640.468 3003.397)"/></g><g transform="translate(1744.02 873.301)"><rect class="a" width="70.516" height="46.281" rx="4.951" transform="translate(0 0)"/><path class="a" d="M0,0,28.79,21.71a9.914,9.914,0,0,0,11.791,0L69.371,0" transform="translate(0.572 1.427)"/><line class="e" x2="26.794" y2="19.813" transform="translate(40.746 23.254)"/><line class="e" x1="26.794" y2="19.813" transform="translate(2.976 23.254)"/></g><g transform="translate(-16.5 227.789)"><g transform="translate(1606 571.949)"><circle class="a" cx="27.618" cy="27.618" r="27.618"/><circle class="a" cx="22.786" cy="22.786" r="22.786" transform="translate(4.832 4.832)"/><g transform="translate(17.482 14.118)"><path class="b" d="M987.443,3242.943v-28.991h8.938a5.763,5.763,0,0,1,5.763,5.764v2.053a5.763,5.763,0,0,1-5.763,5.764H981.769" transform="translate(-981.769 -3213.951)"/><line class="d" x2="17.021" transform="translate(0 18.923)"/></g><path class="a" d="M1016.244,3251.689h0" transform="translate(-964.106 -3199.636)"/></g></g><g transform="translate(1726.353 761.508)"><g transform="translate(0 0)"><path class="b" d="M1307.428,1190.344l1.323-4.936,7.886,7.886,5.173-1.386,1.386-5.173-7.886-7.886,4.937-1.323a5.043,5.043,0,0,1,4.871,1.305l5.342,5.342a5.045,5.045,0,0,1,1.306,4.872l-1.322,4.936,24.793,22.766c1.811,1.812,3.279,5.366-.125,8.771a5.846,5.846,0,0,1-8.77.125l-22.458-25.1-4.936,1.322a5.042,5.042,0,0,1-4.871-1.3l-5.342-5.342A5.043,5.043,0,0,1,1307.428,1190.344Z" transform="translate(-1307.256 -1177.354)"/></g></g><g transform="translate(609.979 -1911.253)"><g transform="translate(1239.732 2659.613)"><line class="b" y1="63.236"/><rect class="b" width="23.108" height="21.421" transform="translate(0 7.96)"/><path class="b" d="M1257.656,2671.752h21.486l-5.318,10.71,5.318,10.71h-21.486v-8.33" transform="translate(-1234.548 -2657.076)"/></g><line class="b" x1="13.48" transform="translate(1232.853 2722.849)"/></g><g transform="translate(668.756 -2276.554)"><rect class="a" width="71.267" height="35.16" rx="2" transform="translate(796.244 3173.053)"/><circle class="a" cx="12.547" cy="12.547" r="12.547" transform="translate(819.331 3178.087)"/><g transform="translate(857.258 3173.054)"><path class="a" d="M860.444,3195.777a9.261,9.261,0,0,0-9.261,9.262c0,.223.018.442.032.662h8a2.22,2.22,0,0,0,2.221-2.221v-7.648A9.494,9.494,0,0,0,860.444,3195.777Z" transform="translate(-851.183 -3170.541)"/><path class="a" d="M860.444,3182.978a9.261,9.261,0,0,1-9.261-9.262c0-.224.018-.443.032-.662h8a2.22,2.22,0,0,1,2.221,2.221v7.647A9.109,9.109,0,0,1,860.444,3182.978Z" transform="translate(-851.183 -3173.054)"/></g><g transform="translate(796.244 3173.054)"><path class="a" d="M797.237,3195.777a9.262,9.262,0,0,1,9.262,9.262c0,.223-.018.442-.033.662h-8a2.22,2.22,0,0,1-2.221-2.221v-7.648A9.528,9.528,0,0,1,797.237,3195.777Z" transform="translate(-796.244 -3170.541)"/><path class="a" d="M797.237,3182.978a9.262,9.262,0,0,0,9.262-9.262c0-.224-.018-.443-.033-.662h-8a2.22,2.22,0,0,0-2.221,2.221v7.647A9.141,9.141,0,0,0,797.237,3182.978Z" transform="translate(-796.244 -3173.054)"/></g></g><g transform="translate(1111.92 -550.1)"><path class="f" d="M703.08,1543.719V1559.1a11.094,11.094,0,0,0,11.094,11.094H724.1"/><line class="f" y2="12.002" transform="translate(715.938 1570.194)"/><line class="f" x1="16.319" transform="translate(707.778 1582.196)"/><path class="f" d="M724.464,1523.391a6.29,6.29,0,1,1-6.29-6.291A6.29,6.29,0,0,1,724.464,1523.391Z"/><path class="f" d="M738.993,1581.813l-9.192-18.7H715.393a5.379,5.379,0,0,1-5.379-5.379v-16.559a4,4,0,0,1,4-4h6.578a2,2,0,0,1,1.555.742l6.926,8.559a2,2,0,0,0,1.555.741h7.854"/><path class="f" d="M719.127,1546.516a19.446,19.446,0,0,0,1.262,1.571,1.99,1.99,0,0,1,.482,1.3v2.391a2,2,0,0,0,2,2h11.076a2,2,0,0,1,1.819,1.169l12.03,26.865"/><line class="f" x2="13.404" transform="translate(725.589 1553.779)"/><line class="f" x2="24.511" transform="translate(746.142 1553.779)"/><path class="f" d="M746.043,1547.09h17.192a2.677,2.677,0,0,0,2.466-2l3.408-14.614a1.537,1.537,0,0,0-1.534-2H744.208a2.678,2.678,0,0,0-2.467,2L739.5,1540.1"/><line class="a" x1="4.19" y2="18.614" transform="translate(751.669 1528.476)"/></g><g transform="translate(-7.899 -2208.609)"><line class="d" y2="8.129" transform="translate(1490.949 3195.595)"/><line class="d" x2="8.129" transform="translate(1486.884 3199.66)"/></g><g transform="translate(34.115 -2367.596)"><line class="d" y2="6.823" transform="translate(1490.296 3195.595)"/><line class="d" x2="6.823" transform="translate(1486.884 3199.007)"/></g><g transform="translate(191.115 -2257.987)"><line class="d" y2="11.214" transform="translate(1492.491 3195.595)"/><line class="d" x2="11.214" transform="translate(1486.884 3201.202)"/></g><path class="d" d="M1460.375,3166.3a1.469,1.469,0,1,1,1.469-1.469,1.469,1.469,0,0,1-1.469,1.469" transform="translate(225.094 -2335.365)"/><path class="b" d="M0,2.41l3.311.647L3.908,0" transform="matrix(0.087, 0.996, -0.996, 0.087, 1789.212, 680.583)"/><g transform="translate(852.232 -2050.516)"><g transform="translate(538.768 3061.124)"><path class="a" d="M538.768,3095.771l17.294-17.294,12.03,12.03,29.384-29.383,33.083,33.083" transform="translate(-538.768 -3061.124)"/><path class="a" d="M570.128,3078.447l8.427,7.464,8.585-8.585,4.889,4.889,8.258-8.257-12.834-12.834Z" transform="translate(-528.744 -3061.124)"/></g></g><g transform="translate(465.202 -2332.135)"><g transform="translate(1402.761 3179.479)"><line class="d" x2="1.424" y2="1.931"/><line class="d" x2="1.424" y2="1.931" transform="translate(3.989 5.408)"/></g><g transform="translate(1401.798 3180.443)"><line class="d" y1="1.424" x2="1.931" transform="translate(0 3.989)"/><line class="d" y1="1.424" x2="1.931" transform="translate(5.408)"/></g></g></g></svg>