<svg xmlns="http://www.w3.org/2000/svg" width="319.153" height="318.86"><g fill="none" stroke="#0073ff" stroke-miterlimit="10" stroke-width="2"><g transform="rotate(14.98 -799.26 1197.458)"><path d="M26.892 6.331l.257 10.112c.072 3.392-5.859 6.269-13.248 6.426S.463 20.405.391 17.013l-.129-9.5" stroke-linecap="round"/><ellipse cx="13.382" cy="6.142" rx="13.382" ry="6.142" transform="translate(0 .57)"/><path d="M26.893 6.331l.129 5.056c.072 3.392-5.859 6.268-13.248 6.426S.336 15.348.264 11.957L.135 6.901" stroke-linecap="round"/></g><path d="M287.108 261.533l-1.206 4.498m13.024-1.737l-1.308 4.878m-6.716-.347l-1.155 4.308m-7.294-8.593l-1.155 4.307m19.063.494l-1.206 4.498" stroke-linecap="round"/></g><path d="M167.918 44.853l-7.367 1.636a2.376 2.376 0 01-2.562-3.557l4.03-6.346a2.514 2.514 0 00.036-2.495l-3.892-6.517a2.364 2.364 0 012.62-3.506l7.35 1.859a2.44 2.44 0 002.393-.714l4.966-5.672a2.401 2.401 0 014.183 1.415l.504 7.522a2.332 2.332 0 001.468 2.02l6.97 2.987a2.301 2.301 0 01-.018 4.296l-7.05 2.814a2.51 2.51 0 00-1.486 2.008l-.678 7.57a2.376 2.376 0 01-4.195 1.27l-4.862-5.768a2.708 2.708 0 00-2.41-.822z" fill="none" stroke="#0073ff" stroke-miterlimit="10" stroke-width="2.001"/><path d="M89.7 79.41l-2.446 6.37m-1.963-4.408l6.37 2.445m121.193-9.699a1.469 1.469 0 111.469-1.469 1.469 1.469 0 01-1.469 1.469" stroke-width="2" stroke="#0073ff" stroke-linecap="round" stroke-linejoin="round" fill="#fff"/><path d="M116.14 2.655l1.205 3.15 2.909-1.113" fill="none" stroke="#0073ff" stroke-linecap="round" stroke-linejoin="round" stroke-width="2"/><g transform="rotate(11 -1184.603 538.186)" stroke="#0073ff" stroke-width="2"><circle cx="34.87" cy="34.87" r="34.87" fill="none" stroke-miterlimit="10"/><circle cx="28.77" cy="28.77" r="28.77" transform="translate(6.101 6.101)" fill="none" stroke-miterlimit="10"/><g stroke-linecap="round" stroke-linejoin="round"><path d="M29.236 54.429v-36.6H40.52a7.276 7.276 0 017.276 7.277v2.593a7.277 7.277 0 01-7.276 7.277H22.073" fill="none"/><path fill="#fff" d="M22.073 41.717h21.491"/></g><path d="M65.828 65.721h0" fill="none" stroke-miterlimit="10"/></g><path d="M72.996 217.093v-6.36l-12.02 6.938-5.771-3.333v-6.666l12.023-6.938-5.508-3.18a6.276 6.276 0 00-6.277-.002l-8.142 4.7a6.278 6.278 0 00-3.14 5.435l-.001 6.36-37.14 19.376c-2.76 1.594-5.671 5.393-2.677 10.583s7.741 4.57 10.502 2.976l35.086-22.936 5.508 3.18a6.275 6.275 0 006.277.002l8.143-4.7a6.277 6.277 0 003.137-5.435z" fill="none" stroke="#0073ff" stroke-linecap="round" stroke-linejoin="round" stroke-width="2"/><g fill="none" stroke="#0073ff" stroke-linecap="round" stroke-linejoin="round" stroke-width="2"><path d="M189.632 282.292l5.502-62.983m-.693 7.928l23.016 2.01-1.864 21.336-23.015-2.01z"/><path d="M216.872 235.937l21.4 1.87-6.228 10.204 4.365 11.13-21.4-1.87.725-8.296m-19.527 33.892l-13.426-1.173"/></g><g transform="rotate(-16 -10414.44 4343.345)" fill="none" stroke="#0073ff" stroke-miterlimit="10" stroke-width="2"><rect width="64.26" height="31.703" rx="2" transform="translate(796.244 3173.053)"/><circle cx="11.313" cy="11.313" r="11.313" transform="translate(817.061 3177.592)"/><path d="M859.608 3195.808a8.351 8.351 0 00-8.351 8.352c0 .2.016.4.029.6h7.214a2 2 0 002-2v-6.9a8.577 8.577 0 00-.892-.052zm0-13.808a8.351 8.351 0 01-8.351-8.352c0-.2.016-.4.029-.6h7.214a2 2 0 012 2v6.9a8.192 8.192 0 01-.892.052zm-62.469 13.808a8.352 8.352 0 018.351 8.352c0 .2-.016.4-.03.6h-7.214a2 2 0 01-2-2v-6.9a8.607 8.607 0 01.893-.052zm0-13.808a8.351 8.351 0 008.351-8.352c0-.2-.016-.4-.03-.6h-7.214a2 2 0 00-2 2v6.9a8.221 8.221 0 00.893.052z"/></g><path d="M131.63 210.672a2.244 2.244 0 112.245-2.245 2.245 2.245 0 01-2.245 2.245" fill="#fff" stroke="#0073ff" stroke-linecap="round" stroke-linejoin="round" stroke-width="2"/><path d="M313.989 228.448l.813 3.274 3.023-.751" fill="none" stroke="#0073ff" stroke-linecap="round" stroke-linejoin="round" stroke-width="2"/><path d="M260.348 83.527l1.424 1.931m2.565 3.477l1.424 1.931m-6.376-.962l1.931-1.424m3.477-2.565l1.931-1.424" fill="#fff" stroke="#0073ff" stroke-linecap="round" stroke-linejoin="round" stroke-width="2"/><g fill="#fafbfc" stroke="#0073ff" stroke-width="2"><path d="M74.286 41.426a10.016 10.016 0 01-6.238 12.541 1.077 1.077 0 01-.107.035L26.73 67.392a1.051 1.051 0 01-.107.035 10 10 0 01-7.992-18.176 10.258 10.258 0 01-.983-5.244 12.147 12.147 0 012.764-6.8 11.9 11.9 0 018.615-4.482 11.976 11.976 0 016.76-5.389c4.76-1.547 9.785-.102 12.42 3.371a11.42 11.42 0 017.545-2.36 11.031 11.031 0 019.654 6.2 10.092 10.092 0 015.06 1.754 9.891 9.891 0 013.826 5.13" stroke-miterlimit="10"/><path d="M65.604 34.52a8.263 8.263 0 00-7.09 8.136m7.572 12.206a4.424 4.424 0 01-3.105-6.772m-20.34-1.018a11.633 11.633 0 014.533 13.791m6.537-15.351a10.026 10.026 0 00-6.671 6.794M29.02 32.72c-1.85 3.769-1.598 7.18 1.517 11.388m17.876-13.9a13.9 13.9 0 00-3.943 12.119m-5.586-8.457a9.268 9.268 0 015.805 2.93M17.837 49.944a10.25 10.25 0 0113.372 1.428m-6.428-2.364a10.111 10.111 0 00.735 9.284" stroke-linecap="round" stroke-linejoin="round"/></g><g transform="rotate(-17 594.842 -702.262)" stroke-width="2" stroke="#0073ff" stroke-linecap="round" stroke-linejoin="round" fill="none"><rect width="12.699" height="31.798" rx="4.01" transform="matrix(.9 -.435 .435 .9 19.633 37.201)"/><path d="M12.178 14.765l5.95-2.876 10.2 21.102-5.95 2.876z" stroke-width="1.999"/><path d="M4.569 18.44L0 8.98 18.6 0l12.418.458a1.349 1.349 0 01.731 2.39l-7.431 6.057z"/></g><g transform="rotate(-14 493.518 -532.094)" fill="none" stroke="#0073ff" stroke-linecap="round" stroke-linejoin="round" stroke-width="2"><path d="M13.81 2.019L.397 28.949a2.936 2.936 0 002.542 4.4h28.733a2.936 2.936 0 002.542-4.4L20.802 2.019a4.037 4.037 0 00-6.992 0zm1.394 31.592h4.204v9.687h-4.204z"/><rect width="7.672" height="29.806" rx="3" transform="translate(13.47 43.298)"/></g></svg>