<svg xmlns="http://www.w3.org/2000/svg" width="431.041" height="357.987" viewBox="0 0 431.041 357.987"><g transform="translate(-1107 -9041)"><g transform="translate(674.114 5802.434) rotate(14)"><g transform="translate(1453.464 3022.191)"><path d="M1496.2,3040.35c0-7.992,1.737-14.772,4.157-17.283a.124.124,0,0,0-.135-.2,106.141,106.141,0,0,1-25.162,6.781,86.813,86.813,0,0,1-11.845.842c-13.032,0-12.97,19.727,0,19.727,17.056,0,32.048,5.564,37.007,7.622a.123.123,0,0,0,.134-.2C1497.936,3055.121,1496.2,3048.34,1496.2,3040.35Z" transform="translate(-1453.464 -3022.007)" fill="none" stroke="#0073ff" stroke-miterlimit="10" stroke-width="2"/><path d="M1474.441,3065.283a2.631,2.631,0,0,1-2.656,2.7h-5.542c-2.165,0-5.7-14.191-5.7-23.737,3.113.074,3.845.1,7.74.341C1468.281,3051.656,1474.23,3060.8,1474.441,3065.283Z" transform="translate(-1451.504 -3016.083)" fill="none" stroke="#0073ff" stroke-miterlimit="10" stroke-width="2"/><ellipse cx="6.225" cy="18.342" rx="6.225" ry="18.342" transform="translate(42.736)" fill="none" stroke="#0073ff" stroke-miterlimit="10" stroke-width="2"/><path d="M1487.9,3032.873l3.418,1.25a2.441,2.441,0,0,1,1.926,2.467v1.971a2.441,2.441,0,0,1-1.926,2.466l-3.418,1.25" transform="translate(-1443.928 -3019.233)" fill="none" stroke="#0073ff" stroke-miterlimit="10" stroke-width="2"/><path d="M1497.064,3033.2" transform="translate(-1441.392 -3019.143)" fill="none" stroke="#0073ff" stroke-miterlimit="10" stroke-width="2"/><path d="M1497.064,3039.76" transform="translate(-1441.392 -3017.326)" fill="none" stroke="#0073ff" stroke-miterlimit="10" stroke-width="2"/></g><path d="M1470.642,3049.556a34.093,34.093,0,0,1-1.792-10.848,31.01,31.01,0,0,1,1.825-10.521" transform="translate(4.26 1.66)" fill="none" stroke="#0073ff" stroke-linecap="round" stroke-linejoin="round" stroke-width="2"/></g><path d="M1348.721,2716.258l-7.274,6.435a3.059,3.059,0,0,1-5.1-2.405l.577-9.66a3.236,3.236,0,0,0-1.516-2.835l-8.449-4.907a3.044,3.044,0,0,1,.762-5.583l9.435-2.494a3.141,3.141,0,0,0,2.249-2.3l2.052-9.485a3.085,3.085,0,0,1,5.593-1.018l5.261,8.154a3,3,0,0,0,2.914,1.358l9.709-.988a2.959,2.959,0,0,1,2.66,4.849l-6.179,7.568a3.231,3.231,0,0,0-.42,3.188l3.961,8.946a3.059,3.059,0,0,1-3.931,4.049l-9.074-3.461A3.486,3.486,0,0,0,1348.721,2716.258Z" transform="matrix(0.875, 0.485, -0.485, 0.875, 1639.47, 6130.93)" fill="none" stroke="#0073ff" stroke-miterlimit="10" stroke-width="2"/><g transform="translate(-34.885 5992.404)"><line y2="11.261" transform="translate(1492.515 3195.595)" stroke-width="2" stroke="#0073ff" stroke-linecap="round" stroke-linejoin="round" fill="#fff"/><line x2="11.261" transform="translate(1486.884 3201.226)" stroke-width="2" stroke="#0073ff" stroke-linecap="round" stroke-linejoin="round" fill="#fff"/></g><path d="M1460.375,3166.3a1.469,1.469,0,1,1,1.469-1.469,1.469,1.469,0,0,1-1.469,1.469" transform="translate(-158.906 5878.635)" fill="#fff" stroke="#0073ff" stroke-linecap="round" stroke-linejoin="round" stroke-width="2"/><path d="M0,2.41l3.311.647L3.908,0" transform="translate(1460.627 9305.304) rotate(70)" fill="none" stroke="#0073ff" stroke-linecap="round" stroke-linejoin="round" stroke-width="2"/><g transform="translate(-193.798 6008.865)"><g transform="translate(1402.761 3179.479)"><line x2="1.424" y2="1.931" fill="#fff" stroke="#0073ff" stroke-linecap="round" stroke-linejoin="round" stroke-width="2"/><line x2="1.424" y2="1.931" transform="translate(3.989 5.408)" stroke-width="2" stroke="#0073ff" stroke-linecap="round" stroke-linejoin="round" fill="#fff"/></g><g transform="translate(1401.798 3180.443)"><line y1="1.424" x2="1.931" transform="translate(0 3.989)" stroke-width="2" stroke="#0073ff" stroke-linecap="round" stroke-linejoin="round" fill="#fff"/><line y1="1.424" x2="1.931" transform="translate(5.408)" stroke-width="2" stroke="#0073ff" stroke-linecap="round" stroke-linejoin="round" fill="#fff"/></g></g><g transform="matrix(0.996, 0.087, -0.087, 0.996, 950.693, 6324.703)"><g transform="translate(595.378 2981.362)"><path d="M658.209,3018.458H597.4v-32.226a4.869,4.869,0,0,1,4.87-4.87h51.073a4.868,4.868,0,0,1,4.87,4.87Z" transform="translate(-593.394 -2981.362)" fill="none" stroke="#0073ff" stroke-miterlimit="10" stroke-width="2"/><rect width="44.996" height="28.747" transform="translate(12.005 8.348)" stroke-width="2" stroke="#0073ff" stroke-linecap="round" stroke-linejoin="round" fill="none"/><g transform="translate(0 37.096)"><path d="M662.334,3000.07h-65.1a1.86,1.86,0,0,0-1.86,1.86v3.29a3.223,3.223,0,0,0,3.222,3.222h62.373a3.222,3.222,0,0,0,3.22-3.222v-3.29A1.86,1.86,0,0,0,662.334,3000.07Z" transform="translate(-595.378 -3000.07)" fill="none" stroke="#0073ff" stroke-width="1"/><path d="M662.334,3000.07h-65.1a1.86,1.86,0,0,0-1.86,1.86v3.29a3.223,3.223,0,0,0,3.222,3.222h62.373a3.222,3.222,0,0,0,3.22-3.222v-3.29A1.86,1.86,0,0,0,662.334,3000.07Z" transform="translate(-595.378 -3000.07)" fill="none" stroke="#0073ff" stroke-miterlimit="10" stroke-width="2"/></g></g><path d="M614.334,2997.24v-6.615h6.688" transform="translate(18.631 9.105)" fill="none" stroke="#0073ff" stroke-linecap="round" stroke-linejoin="round" stroke-width="2"/><line x1="7.874" y1="7.874" transform="translate(632.965 2999.73)" stroke-width="2" stroke="#0073ff" stroke-linecap="round" stroke-linejoin="round" fill="#fff"/></g><g transform="translate(-238.813 8191.858) rotate(11)"><g transform="translate(1606 571.949)"><circle cx="34.87" cy="34.87" r="34.87" fill="none" stroke="#0073ff" stroke-miterlimit="10" stroke-width="2"/><circle cx="28.77" cy="28.77" r="28.77" transform="translate(6.101 6.101)" fill="none" stroke="#0073ff" stroke-miterlimit="10" stroke-width="2"/><g transform="translate(22.073 17.825)"><path d="M988.932,3250.555v-36.6h11.284a7.276,7.276,0,0,1,7.276,7.277v2.593a7.277,7.277,0,0,1-7.276,7.277H981.769" transform="translate(-981.769 -3213.951)" fill="none" stroke="#0073ff" stroke-linecap="round" stroke-linejoin="round" stroke-width="2"/><line x2="21.491" transform="translate(0 23.892)" stroke-width="2" stroke="#0073ff" stroke-linecap="round" stroke-linejoin="round" fill="#fff"/></g><path d="M1016.244,3251.689h0" transform="translate(-950.416 -3185.968)" fill="none" stroke="#0073ff" stroke-miterlimit="10" stroke-width="2"/></g></g><g transform="matrix(0.966, 0.259, -0.259, 0.966, 1431.898, 5915.859)"><rect width="64.26" height="31.703" rx="2" transform="translate(796.244 3173.053)" fill="none" stroke="#0073ff" stroke-miterlimit="10" stroke-width="2"/><circle cx="11.313" cy="11.313" r="11.313" transform="translate(817.061 3177.592)" fill="none" stroke="#0073ff" stroke-miterlimit="10" stroke-width="2"/><g transform="translate(851.258 3173.054)"><path d="M859.533,3195.777a8.351,8.351,0,0,0-8.351,8.352c0,.2.016.4.029.6h7.214a2,2,0,0,0,2-2v-6.9A8.577,8.577,0,0,0,859.533,3195.777Z" transform="translate(-851.183 -3173.023)" fill="none" stroke="#0073ff" stroke-miterlimit="10" stroke-width="2"/><path d="M859.533,3182a8.351,8.351,0,0,1-8.351-8.352c0-.2.016-.4.029-.6h7.214a2,2,0,0,1,2,2v6.9A8.192,8.192,0,0,1,859.533,3182Z" transform="translate(-851.183 -3173.054)" fill="none" stroke="#0073ff" stroke-miterlimit="10" stroke-width="2"/></g><g transform="translate(796.244 3173.054)"><path d="M797.139,3195.777a8.352,8.352,0,0,1,8.351,8.352c0,.2-.016.4-.03.6h-7.214a2,2,0,0,1-2-2v-6.9A8.607,8.607,0,0,1,797.139,3195.777Z" transform="translate(-796.244 -3173.023)" fill="none" stroke="#0073ff" stroke-miterlimit="10" stroke-width="2"/><path d="M797.139,3182a8.351,8.351,0,0,0,8.351-8.352c0-.2-.016-.4-.03-.6h-7.214a2,2,0,0,0-2,2v6.9A8.221,8.221,0,0,0,797.139,3182Z" transform="translate(-796.244 -3173.054)" fill="none" stroke="#0073ff" stroke-miterlimit="10" stroke-width="2"/></g></g><g transform="translate(984.25 5785.419) rotate(20)"><line y2="8.129" transform="translate(1490.949 3195.595)" stroke-width="2" stroke="#0073ff" stroke-linecap="round" stroke-linejoin="round" fill="#fff"/><line x2="8.129" transform="translate(1486.884 3199.66)" stroke-width="2" stroke="#0073ff" stroke-linecap="round" stroke-linejoin="round" fill="#fff"/></g><g transform="translate(-96.885 6093.404)"><line y2="6.823" transform="translate(1490.296 3195.595)" stroke-width="2" stroke="#0073ff" stroke-linecap="round" stroke-linejoin="round" fill="#fff"/><line x2="6.823" transform="translate(1486.884 3199.007)" stroke-width="2" stroke="#0073ff" stroke-linecap="round" stroke-linejoin="round" fill="#fff"/></g><g transform="matrix(0.899, -0.438, 0.438, 0.899, -1256.268, 6876.933)"><line y2="3.326" transform="translate(1488.547 3195.595)" stroke-width="2" stroke="#0073ff" stroke-linecap="round" stroke-linejoin="round" fill="#fff"/><line x2="3.326" transform="translate(1486.884 3197.258)" stroke-width="2" stroke="#0073ff" stroke-linecap="round" stroke-linejoin="round" fill="#fff"/></g><g transform="translate(-157.136 7265.676) rotate(-13)"><rect width="39.994" height="54.717" rx="1.884" transform="translate(941.18 2209.703)" stroke-width="2" stroke="#0073ff" stroke-linecap="round" stroke-linejoin="round" fill="none"/><path d="M948.28,2205.6h39.675a1.418,1.418,0,0,1,1.419,1.419V2258.9a1.419,1.419,0,0,1-1.419,1.42H985.87" transform="translate(-1.297)" fill="none" stroke="#0073ff" stroke-linecap="round" stroke-linejoin="round" stroke-width="2"/><line x2="25.951" transform="translate(947.755 2233.079)" stroke-width="2" stroke="#0073ff" stroke-linecap="round" stroke-linejoin="round" fill="none"/><line x2="11.202" transform="translate(962.504 2217.2)" stroke-width="2" stroke="#0073ff" stroke-linecap="round" stroke-linejoin="round" fill="none"/><line x2="11.202" transform="translate(962.504 2223.582)" stroke-width="2" stroke="#0073ff" stroke-linecap="round" stroke-linejoin="round" fill="none"/><line x2="25.951" transform="translate(947.755 2239.97)" stroke-width="2" stroke="#0073ff" stroke-linecap="round" stroke-linejoin="round" fill="none"/><line x2="20.35" transform="translate(947.755 2246.86)" stroke-width="2" stroke="#0073ff" stroke-linecap="round" stroke-linejoin="round" fill="none"/><rect width="10.31" height="9.608" rx="1.154" transform="translate(947.238 2217.2)" stroke-width="2" stroke="#0073ff" stroke-linecap="round" stroke-linejoin="round" fill="none"/></g><g transform="translate(110.189 7280.785)"><rect width="45.648" height="65.001" transform="translate(1043.486 2013.762)" stroke-width="2" stroke="#0073ff" stroke-linecap="round" stroke-linejoin="round" fill="none"/><rect width="17.297" height="12.781" transform="translate(1016.877 2035.481)" stroke-width="2" stroke="#0073ff" stroke-linecap="round" stroke-linejoin="round" fill="none"/><rect width="17.297" height="12.781" transform="translate(1016.877 2056.875)" stroke-width="2" stroke="#0073ff" stroke-linecap="round" stroke-linejoin="round" fill="none"/><rect width="17.297" height="12.781" transform="translate(1098.447 2035.481)" stroke-width="2" stroke="#0073ff" stroke-linecap="round" stroke-linejoin="round" fill="none"/><rect width="17.297" height="12.781" transform="translate(1098.447 2056.875)" stroke-width="2" stroke="#0073ff" stroke-linecap="round" stroke-linejoin="round" fill="none"/><path d="M1090.477,2003.973h-25.8l3.328,5.337h-7.251V2020.8h45.676Z" transform="translate(28.384 4.452)" fill="none" stroke="#0073ff" stroke-linecap="round" stroke-linejoin="round" stroke-width="2"/><path d="M1013.76,2003.973h25.8l-3.328,5.337h7.251V2020.8H997.811Z" transform="translate(0 4.452)" fill="none" stroke="#0073ff" stroke-linecap="round" stroke-linejoin="round" stroke-width="2"/><path d="M1071.955,1994.1h-34.895l-12.258,19.661h59.41Z" transform="translate(12.173 0)" fill="none" stroke="#0073ff" stroke-linecap="round" stroke-linejoin="round" stroke-width="2"/><line x1="45.648" transform="translate(1043.486 2056.875)" stroke-width="2" stroke="#0073ff" stroke-linecap="round" stroke-linejoin="round" fill="none"/><path d="M8.633,0H17.1a8.633,8.633,0,0,1,8.633,8.633v10.6a0,0,0,0,1,0,0H0a0,0,0,0,1,0,0V8.633A8.633,8.633,0,0,1,8.633,0Z" transform="translate(1053.446 2025.394)" fill="none" stroke="#0073ff" stroke-linecap="round" stroke-linejoin="round" stroke-width="2"/><path d="M1060.75,2015.572v53.508l9.708,12.226h26.214v-65.733Z" transform="translate(28.384 9.683)" fill="none" stroke="#0073ff" stroke-linecap="round" stroke-linejoin="round" stroke-width="2"/><line x1="55.73" transform="translate(1038.259 2084.876)" stroke-width="2" stroke="#0073ff" stroke-linecap="round" stroke-linejoin="round" fill="none"/><path d="M1040.455,2015.572h-35.922v65.733h26.214l9.708-12.226Z" transform="translate(3.031 9.683)" fill="none" stroke="#0073ff" stroke-linecap="round" stroke-linejoin="round" stroke-width="2"/><path d="M1022.6,2064.675l9.709-12.226h45.648l9.708,12.226Z" transform="translate(11.179 26.313)" fill="none" stroke="#0073ff" stroke-linecap="round" stroke-linejoin="round" stroke-width="2"/><rect width="25.728" height="13.38" transform="translate(1053.446 2065.383)" stroke-width="2" stroke="#0073ff" stroke-linecap="round" stroke-linejoin="round" fill="none"/></g><g transform="matrix(0.966, 0.259, -0.259, 0.966, 1498.331, 7149.823)"><g transform="translate(472.025 2107.31)"><path d="M535.2,2132.614a10.016,10.016,0,0,1-9.809,10,1.077,1.077,0,0,1-.112,0H481.947a1.051,1.051,0,0,1-.112,0,10,10,0,0,1-1.985-19.756,10.258,10.258,0,0,1,.686-5.291,12.147,12.147,0,0,1,4.73-5.614,11.9,11.9,0,0,1,9.578-1.6,11.976,11.976,0,0,1,8.094-3.036c5.006,0,9.338,2.927,10.771,7.044a11.42,11.42,0,0,1,7.905.088,11.031,11.031,0,0,1,7.266,8.879,10.092,10.092,0,0,1,4.271,3.232,9.891,9.891,0,0,1,2.053,6.061" transform="translate(-472.025 -2107.31)" fill="#fafbfc" stroke="#0073ff" stroke-miterlimit="10" stroke-width="2"/><path d="M515.769,2118.934a8.263,8.263,0,0,0-9.258,5.547" transform="translate(-458.717 -2102.881)" fill="#fafbfc" stroke="#0073ff" stroke-linecap="round" stroke-linejoin="round" stroke-width="2"/><path d="M509.676,2135.02a4.424,4.424,0,0,1-.861-7.4" transform="translate(-458.452 -2099.471)" fill="#fafbfc" stroke="#0073ff" stroke-linecap="round" stroke-linejoin="round" stroke-width="2"/><path d="M494.634,2122.387a11.633,11.633,0,0,1,.049,14.517" transform="translate(-463.3 -2101.492)" fill="#fafbfc" stroke="#0073ff" stroke-linecap="round" stroke-linejoin="round" stroke-width="2"/><path d="M504.93,2123.785a10.026,10.026,0,0,0-8.444,4.4" transform="translate(-462.586 -2100.953)" fill="#fafbfc" stroke="#0073ff" stroke-linecap="round" stroke-linejoin="round" stroke-width="2"/><path d="M489.3,2109.5c-2.924,3.013-3.738,6.335-2.076,11.3" transform="translate(-466.486 -2106.464)" fill="#fafbfc" stroke="#0073ff" stroke-linecap="round" stroke-linejoin="round" stroke-width="2"/><path d="M504.442,2112.1a13.9,13.9,0,0,0-7.495,10.307" transform="translate(-462.408 -2105.46)" fill="#fafbfc" stroke="#0073ff" stroke-linecap="round" stroke-linejoin="round" stroke-width="2"/><path d="M495,2112.489a9.268,9.268,0,0,1,4.616,4.58" transform="translate(-463.16 -2105.311)" fill="#fafbfc" stroke="#0073ff" stroke-linecap="round" stroke-linejoin="round" stroke-width="2"/><path d="M476.972,2118.949a10.25,10.25,0,0,1,12.276,5.49" transform="translate(-470.116 -2102.987)" fill="#fafbfc" stroke="#0073ff" stroke-linecap="round" stroke-linejoin="round" stroke-width="2"/><path d="M482.635,2119.733a10.111,10.111,0,0,0-2.17,9.057" transform="translate(-468.885 -2102.516)" fill="#fafbfc" stroke="#0073ff" stroke-linecap="round" stroke-linejoin="round" stroke-width="2"/></g></g></g></svg>