<svg xmlns="http://www.w3.org/2000/svg" width="383.229" height="318.001"><g fill="none" stroke="#0073ff" stroke-linecap="round" stroke-linejoin="round" stroke-width="2"><path d="M30.079 146.223v-8.969l-10.336-10.216v8.969h-8.969l10.152 10.217h8.968"/><g transform="translate(19.742 136.005)"><circle cx="22.914" cy="22.914" transform="translate(13.796 13.11)" r="22.914"/><circle cx="13.609" cy="13.609" transform="translate(23.101 22.415)" r="13.609"/><circle cx="2.061" cy="2.061" transform="translate(34.649 33.963)" r="2.061"/><path d="M0 0l37.31 36.501"/></g></g><g fill="none" stroke="#0073ff" stroke-linecap="round" stroke-linejoin="round" stroke-width="2"><path d="M98.645 283.81l-27.99-3.437a4.852 4.852 0 00-5.407 4.224l-1.84 14.988a4.851 4.851 0 004.225 5.407l1.498.184-.965 7.866 8.233-6.974 19.224 2.36a4.851 4.851 0 005.406-4.224l1.84-14.988a4.852 4.852 0 00-4.224-5.407zm-26.601 4.675l22.38 2.748m-22.947 1.876l22.379 2.747m-23.031 2.561l22.379 2.748"/><path d="M88.9 279.061l.556-4.528a4.851 4.851 0 015.407-4.224l27.99 3.436a4.852 4.852 0 014.224 5.408l-1.84 14.987a4.852 4.852 0 01-5.408 4.225l-1.497-.184-.966 7.867-6.302-8.76-4.802-.59m13.279-15.415l-22.379-2.748m21.813 7.371l-11.645-1.43m10.994 6.739l-11.646-1.43"/></g><g fill="none" stroke="#0073ff" stroke-miterlimit="10" stroke-width="2"><g transform="rotate(12.04 -55.542 921.846)"><path d="M38.752 9.122l.37 14.571c.1 4.887-8.443 9.033-19.09 9.259S.669 29.401.565 24.514L.38 10.819" stroke-linecap="round"/><ellipse cx="19.283" cy="8.851" rx="19.283" ry="8.851" transform="translate(0 .821)"/><path d="M38.752 9.122l.185 7.286c.1 4.887-8.443 9.032-19.09 9.259S.484 22.115.38 17.228L.195 9.942" stroke-linecap="round"/></g><path d="M197.523 51.39l-1.396 6.562m18.605-3.482l-1.514 7.117m-9.688.007l-1.337 6.285M191.05 56.067l-1.336 6.284m27.463-.728l-1.396 6.562" stroke-linecap="round"/></g><path d="M25.175 259.386l-2.423 5.846a1.993 1.993 0 01-3.676.05l-2.422-5.823a2.109 2.109 0 00-1.698-1.227l-6.35-.463a1.983 1.983 0 01-1.146-3.49l4.814-4.155a2.047 2.047 0 00.659-1.99l-1.508-6.141a2.01 2.01 0 012.986-2.194l5.41 3.273a1.956 1.956 0 002.096-.038l5.404-3.352a1.928 1.928 0 012.943 2.08l-1.457 6.198a2.105 2.105 0 00.665 1.987l4.875 4.108a1.993 1.993 0 01-1.146 3.493l-6.303.566a2.271 2.271 0 00-1.723 1.272z" fill="none" stroke="#0073ff" stroke-miterlimit="10" stroke-width="2"/><path d="M104.098 192.112l1.535 6.649m-4.092-2.556l6.648-1.535" stroke-width="2" stroke="#0073ff" stroke-linecap="round" stroke-linejoin="round" fill="#fff"/><path d="M130.274 3.438l2.505 2.26 2.086-2.313" fill="none" stroke="#0073ff" stroke-linecap="round" stroke-linejoin="round" stroke-width="2"/><g stroke-width="2" fill="none" stroke="#0073ff" stroke-linejoin="round"><path d="M145.524 198.176l41.459-8.059 10.174 52.342-41.459 8.059z"/><path d="M175.732 212.73a5.758 5.758 0 11-6.752-4.555 5.759 5.759 0 016.752 4.555z"/><path d="M162.069 232.986a11.52 11.52 0 0122.616-4.396zm-16.545-34.809l30.204-15.65 1.831 9.423"/></g><g transform="rotate(-16 -10662.155 4269.063)" fill="none" stroke="#0073ff" stroke-miterlimit="10" stroke-width="2"><rect width="64.26" height="31.703" rx="2" transform="translate(796.244 3173.053)"/><circle cx="11.313" cy="11.313" r="11.313" transform="translate(817.061 3177.592)"/><path d="M859.608 3195.808a8.351 8.351 0 00-8.351 8.352c0 .2.016.4.029.6h7.214a2 2 0 002-2v-6.9a8.577 8.577 0 00-.892-.052zm0-13.808a8.351 8.351 0 01-8.351-8.352c0-.2.016-.4.029-.6h7.214a2 2 0 012 2v6.9a8.192 8.192 0 01-.892.052zm-62.469 13.808a8.352 8.352 0 018.351 8.352c0 .2-.016.4-.03.6h-7.214a2 2 0 01-2-2v-6.9a8.607 8.607 0 01.893-.052zm0-13.808a8.351 8.351 0 008.351-8.352c0-.2-.016-.4-.03-.6h-7.214a2 2 0 00-2 2v6.9a8.221 8.221 0 00.893.052z"/></g><path d="M261.156 50.705l-1.311 3.417m-1.053-2.364l3.417 1.312m-76.19 107.445a2.244 2.244 0 112.245-2.245 2.245 2.245 0 01-2.245 2.245" stroke-width="2" stroke="#0073ff" stroke-linecap="round" stroke-linejoin="round" fill="#fff"/><path d="M11.444 54.16l3.343-.467-.432-3.087" fill="none" stroke="#0073ff" stroke-linecap="round" stroke-linejoin="round" stroke-width="2.001"/><g fill="none" stroke="#0073ff" stroke-linecap="round" stroke-linejoin="round" stroke-miterlimit="10" stroke-width="2"><path d="M101.594 141.83l18.044-23.097 16.067 12.552 30.659-39.24 44.182 34.518"/><path d="M148.289 115.18l11.114 7.647 8.958-11.465 6.53 5.101 8.619-11.032-17.14-13.391z"/></g><path d="M276.605 89.033l7.372 2.539-22.859 66.388-7.372-2.538zm-22.859 66.389l7.372 2.538-2.528 7.341-7.372-2.538zm7.591 39.57l-30.563-10.524 20.444-21.704 7.375 2.54zm-9.006-3.101l-.014-14.051m-11.549 10.069l4.965-6.63" stroke-width="2" stroke="#0073ff" stroke-linecap="round" stroke-linejoin="round" fill="none"/><g stroke="#0073ff" stroke-linecap="round" stroke-linejoin="round" fill="none"><path stroke-width="2" d="M216.747 280.486l37.814-8.73 7.62 33.003-37.815 8.73z"/><path d="M215.753 280.72a20.432 20.432 0 0139.804-9.19" stroke-width="1.975"/><path d="M218.614 280.06s3.838 6.9 6.034 6.2 4.551-4.154 6.364-3.265 7.675 5.273 9.31 2.145 3.954.084 7.744-.511.691-10.313 3.212-12.107m12.394 31.892l-40.799 9.42m33.18-42.423l-40.799 9.42" stroke-width="2"/><path stroke-width="1.925" d="M261.312 300.996l-37.815 8.73"/></g><g fill="none" stroke="#0073ff" stroke-linecap="round" stroke-linejoin="round"><path d="M317.68 264.355l-21.919-81.391c-1.795-5.525.554-11.24 5.25-12.765l34.166-11.101c4.694-1.525 9.954 1.717 11.749 7.241l30.11 78.73 4.87-1.582-31.032-81.144c-2.128-6.549-8.364-10.393-13.929-8.585l-40.504 13.161c-5.564 1.808-8.35 8.583-6.222 15.132l22.59 83.886z" stroke-width="1.975"/><path d="M353.328 183.648l-1.534-4.097-52.204 16.962 1.167 4.216zm3.75 9.72l-53.642 17.43 1.167 4.216 54.008-17.549zm5.284 13.816l-55.08 17.897 1.167 4.217 55.444-18.015zm5.283 13.817l-56.472 18.35 1.35 4.156 56.613-18.394-.324-.998z" stroke-width="2.211"/></g></svg>