<svg xmlns="http://www.w3.org/2000/svg" width="383.229" height="318.001" viewBox="0 0 383.229 318.001"><g transform="translate(-409.226 -9797.974)"><g transform="translate(420 9925.011)"><path d="M714.45,2884.024v-8.969l-10.336-10.216v8.969h-8.969l10.152,10.217h8.968" transform="translate(-695.145 -2864.838)" fill="none" stroke="#0073ff" stroke-linecap="round" stroke-linejoin="round" stroke-width="2"/><g transform="translate(8.968 8.968)"><ellipse cx="22.914" cy="22.914" rx="22.914" ry="22.914" transform="translate(13.796 13.11)" stroke-width="2" stroke="#0073ff" stroke-linecap="round" stroke-linejoin="round" fill="none"/><ellipse cx="13.609" cy="13.609" rx="13.609" ry="13.609" transform="translate(23.101 22.415)" stroke-width="2" stroke="#0073ff" stroke-linecap="round" stroke-linejoin="round" fill="none"/><ellipse cx="2.061" cy="2.061" rx="2.061" ry="2.061" transform="translate(34.649 33.963)" stroke-width="2" stroke="#0073ff" stroke-linecap="round" stroke-linejoin="round" fill="none"/><line x2="37.31" y2="36.501" transform="translate(0)" stroke-width="2" stroke="#0073ff" stroke-linecap="round" stroke-linejoin="round" fill="none"/></g></g><g transform="translate(-360.217 6731.694) rotate(7)"><path d="M1269.891,3224.616h-28.2a4.852,4.852,0,0,0-4.852,4.852v15.1a4.851,4.851,0,0,0,4.852,4.852h1.51v7.925l7.322-7.925h19.368a4.851,4.851,0,0,0,4.851-4.852v-15.1A4.852,4.852,0,0,0,1269.891,3224.616Z" transform="translate(0 -5.291)" fill="none" stroke="#0073ff" stroke-linecap="round" stroke-linejoin="round" stroke-width="2"/><line x2="22.547" transform="translate(1244.058 3227.208)" stroke-width="2" stroke="#0073ff" stroke-linecap="round" stroke-linejoin="round" fill="none"/><line x2="22.547" transform="translate(1244.058 3231.866)" stroke-width="2" stroke="#0073ff" stroke-linecap="round" stroke-linejoin="round" fill="none"/><line x2="22.547" transform="translate(1244.058 3237.214)" stroke-width="2" stroke="#0073ff" stroke-linecap="round" stroke-linejoin="round" fill="none"/><path d="M1268.965,3215.8v-4.562a4.851,4.851,0,0,1,4.851-4.852h28.2a4.852,4.852,0,0,1,4.852,4.852v15.1a4.852,4.852,0,0,1-4.852,4.852h-1.509v7.926l-7.322-7.926h-4.838" transform="translate(-9.325 0)" fill="none" stroke="#0073ff" stroke-linecap="round" stroke-linejoin="round" stroke-width="2"/><line x1="22.547" transform="translate(1267.776 3214.271)" stroke-width="2" stroke="#0073ff" stroke-linecap="round" stroke-linejoin="round" fill="none"/><line x1="11.733" transform="translate(1278.592 3218.928)" stroke-width="2" stroke="#0073ff" stroke-linecap="round" stroke-linejoin="round" fill="none"/><line x1="11.733" transform="translate(1278.592 3224.277)" stroke-width="2" stroke="#0073ff" stroke-linecap="round" stroke-linejoin="round" fill="none"/></g><g transform="matrix(0.978, 0.208, -0.208, 0.978, 566.802, 6623.795)"><g transform="translate(699.248 3129.416)"><path d="M738,3138.529l.37,14.571c.1,4.887-8.443,9.033-19.09,9.259s-19.363-3.551-19.467-8.438l-.185-13.695" transform="translate(-699.248 -3129.407)" fill="none" stroke="#0073ff" stroke-linecap="round" stroke-miterlimit="10" stroke-width="2"/><ellipse cx="19.283" cy="8.851" rx="19.283" ry="8.851" transform="matrix(1, -0.021, 0.021, 1, 0, 0.821)" fill="none" stroke="#0073ff" stroke-miterlimit="10" stroke-width="2"/><path d="M738,3138.529l.185,7.286c.1,4.887-8.443,9.032-19.09,9.259s-19.363-3.552-19.467-8.439l-.185-7.286" transform="translate(-699.248 -3129.407)" fill="none" stroke="#0073ff" stroke-linecap="round" stroke-miterlimit="10" stroke-width="2"/></g><g transform="translate(710.165 3146.523)"><line y2="6.71" transform="translate(0 0.567)" fill="none" stroke="#0073ff" stroke-linecap="round" stroke-miterlimit="10" stroke-width="2"/><line y2="7.277" transform="translate(17.476)" fill="none" stroke="#0073ff" stroke-linecap="round" stroke-miterlimit="10" stroke-width="2"/></g><g transform="translate(704.807 3153.012)"><line y2="6.426" transform="translate(13.357 2.811)" fill="none" stroke="#0073ff" stroke-linecap="round" stroke-miterlimit="10" stroke-width="2"/><line y2="6.426" fill="none" stroke="#0073ff" stroke-linecap="round" stroke-miterlimit="10" stroke-width="2"/><line y2="6.71" transform="translate(26.714)" fill="none" stroke="#0073ff" stroke-linecap="round" stroke-miterlimit="10" stroke-width="2"/></g></g><path d="M1340.607,2703.839l-4.74,4.193a1.993,1.993,0,0,1-3.326-1.567l.376-6.295a2.109,2.109,0,0,0-.988-1.848l-5.505-3.2a1.983,1.983,0,0,1,.5-3.638l6.148-1.625a2.047,2.047,0,0,0,1.465-1.5l1.337-6.18a2.01,2.01,0,0,1,3.645-.663l3.428,5.313a1.956,1.956,0,0,0,1.9.885l6.327-.644a1.928,1.928,0,0,1,1.733,3.16l-4.026,4.932a2.105,2.105,0,0,0-.274,2.077l2.581,5.829a1.993,1.993,0,0,1-2.561,2.638l-5.913-2.255A2.271,2.271,0,0,0,1340.607,2703.839Z" transform="translate(-1955.814 8214.849) rotate(-26)" fill="none" stroke="#0073ff" stroke-miterlimit="10" stroke-width="2"/><g transform="translate(-1657.628 7211.638) rotate(-13)"><line y2="6.823" transform="translate(1490.296 3195.595)" stroke-width="2" stroke="#0073ff" stroke-linecap="round" stroke-linejoin="round" fill="#fff"/><line x2="6.823" transform="translate(1486.884 3199.007)" stroke-width="2" stroke="#0073ff" stroke-linecap="round" stroke-linejoin="round" fill="#fff"/></g><path d="M0,2.41l3.311.647L3.908,0" transform="translate(540.741 9799.346) rotate(31)" fill="none" stroke="#0073ff" stroke-linecap="round" stroke-linejoin="round" stroke-width="2"/><g transform="translate(221.745 9684.626) rotate(-11)"><rect width="42.235" height="53.321" stroke-width="2" fill="none" stroke="#0073ff" stroke-linejoin="round" transform="translate(267.445 369.341)"/><path d="M286.154,376.689a5.758,5.758,0,1,1-5.759-5.759A5.759,5.759,0,0,1,286.154,376.689Z" transform="translate(8.167 12.702)" fill="none" stroke="#0073ff" stroke-linejoin="round" stroke-width="2"/><path d="M271.94,387.842a11.52,11.52,0,0,1,23.039,0Z" transform="translate(5.104 18.826)" fill="none" stroke="#0073ff" stroke-linejoin="round" stroke-width="2"/><path d="M267.445,369.342l32.635-9.6v9.6" transform="translate(0)" fill="none" stroke="#0073ff" stroke-linejoin="round" stroke-width="2"/></g><g transform="translate(-1180.521 7024.462) rotate(-16)"><rect width="64.26" height="31.703" rx="2" transform="translate(796.244 3173.053)" fill="none" stroke="#0073ff" stroke-miterlimit="10" stroke-width="2"/><circle cx="11.313" cy="11.313" r="11.313" transform="translate(817.061 3177.592)" fill="none" stroke="#0073ff" stroke-miterlimit="10" stroke-width="2"/><g transform="translate(851.258 3173.054)"><path d="M859.533,3195.777a8.351,8.351,0,0,0-8.351,8.352c0,.2.016.4.029.6h7.214a2,2,0,0,0,2-2v-6.9A8.577,8.577,0,0,0,859.533,3195.777Z" transform="translate(-851.183 -3173.023)" fill="none" stroke="#0073ff" stroke-miterlimit="10" stroke-width="2"/><path d="M859.533,3182a8.351,8.351,0,0,1-8.351-8.352c0-.2.016-.4.029-.6h7.214a2,2,0,0,1,2,2v6.9A8.192,8.192,0,0,1,859.533,3182Z" transform="translate(-851.183 -3173.054)" fill="none" stroke="#0073ff" stroke-miterlimit="10" stroke-width="2"/></g><g transform="translate(796.244 3173.054)"><path d="M797.139,3195.777a8.352,8.352,0,0,1,8.351,8.352c0,.2-.016.4-.03.6h-7.214a2,2,0,0,1-2-2v-6.9A8.607,8.607,0,0,1,797.139,3195.777Z" transform="translate(-796.244 -3173.023)" fill="none" stroke="#0073ff" stroke-miterlimit="10" stroke-width="2"/><path d="M797.139,3182a8.351,8.351,0,0,0,8.351-8.352c0-.2-.016-.4-.03-.6h-7.214a2,2,0,0,0-2,2v6.9A8.221,8.221,0,0,0,797.139,3182Z" transform="translate(-796.244 -3173.054)" fill="none" stroke="#0073ff" stroke-miterlimit="10" stroke-width="2"/></g></g><g transform="translate(425.747 6331.827) rotate(21)"><line y2="3.66" transform="translate(1488.714 3195.595)" stroke-width="2" stroke="#0073ff" stroke-linecap="round" stroke-linejoin="round" fill="#fff"/><line x2="3.66" transform="translate(1486.884 3197.425)" stroke-width="2" stroke="#0073ff" stroke-linecap="round" stroke-linejoin="round" fill="#fff"/></g><path d="M1461.151,3167.854a2.244,2.244,0,1,1,2.245-2.245,2.245,2.245,0,0,1-2.245,2.245" transform="translate(-865.906 6790.635)" fill="#fff" stroke="#0073ff" stroke-linecap="round" stroke-linejoin="round" stroke-width="2"/><path d="M0,2.41l3.311.647L3.908,0" transform="matrix(0.946, -0.326, 0.326, 0.946, 419.884, 9849.854)" fill="none" stroke="#0073ff" stroke-linecap="round" stroke-linejoin="round" stroke-width="2"/><g transform="translate(-402.049 6925.945) rotate(-7)"><g transform="translate(538.768 3061.124)"><path d="M538.768,3102.644l20.724-20.725,14.417,14.417,35.213-35.212,39.646,39.646" transform="translate(-538.768 -3061.124)" fill="none" stroke="#0073ff" stroke-linecap="round" stroke-linejoin="round" stroke-miterlimit="10" stroke-width="2"/><path d="M570.128,3081.884l10.1,8.945,10.288-10.288,5.859,5.859,9.9-9.9-15.38-15.38Z" transform="translate(-520.534 -3061.124)" fill="none" stroke="#0073ff" stroke-linecap="round" stroke-linejoin="round" stroke-miterlimit="10" stroke-width="2"/></g></g><g transform="translate(671.597 7575.69) rotate(19)"><rect width="7.797" height="70.214" transform="translate(765.95 2180.759)" stroke-width="2" stroke="#0073ff" stroke-linecap="round" stroke-linejoin="round" fill="none"/><rect width="7.797" height="7.764" transform="translate(765.95 2250.973)" stroke-width="2" stroke="#0073ff" stroke-linecap="round" stroke-linejoin="round" fill="none"/><path d="M786.01,2256.019H753.686l12.264-27.178h7.8Z" transform="translate(0 29.897)" fill="none" stroke="#0073ff" stroke-linecap="round" stroke-linejoin="round" stroke-width="2"/><line x1="4.588" y1="13.281" transform="translate(771.898 2272.635)" stroke-width="2" stroke="#0073ff" stroke-linecap="round" stroke-linejoin="round" fill="none"/><line y1="7.884" x2="2.536" transform="translate(764.256 2278.031)" stroke-width="2" stroke="#0073ff" stroke-linecap="round" stroke-linejoin="round" fill="none"/></g><g transform="translate(-674.165 8144.771) rotate(-13)"><rect width="38.809" height="33.871" transform="translate(831.83 2176.596)" stroke-width="2" stroke="#0073ff" stroke-linecap="round" stroke-linejoin="round" fill="none"/><path d="M830.809,2176.6a20.432,20.432,0,0,1,40.851,0" fill="none" stroke="#0073ff" stroke-linecap="round" stroke-linejoin="round" stroke-width="1.975"/><path d="M833.745,2176.6s2.187,7.588,4.485,7.4,5.369-3.024,6.935-1.75,6.292,6.864,8.59,4.184,3.833.971,7.66,1.244,2.993-9.893,5.853-11.074" fill="none" stroke="#0073ff" stroke-linecap="round" stroke-linejoin="round" stroke-width="2"/><line x1="41.872" transform="translate(830.298 2210.467)" stroke-width="2" stroke="#0073ff" stroke-linecap="round" stroke-linejoin="round" fill="none"/><line x1="41.872" transform="translate(830.298 2176.596)" stroke-width="2" stroke="#0073ff" stroke-linecap="round" stroke-linejoin="round" fill="none"/><line x1="38.809" transform="translate(831.83 2206.605)" stroke-width="1.925" stroke="#0073ff" stroke-linecap="round" stroke-linejoin="round" fill="none"/></g><g transform="matrix(0.951, -0.309, 0.309, 0.951, -600.327, 8017.191)"><path d="M630.325,2355.319l4.306-84.186c0-5.809,4-10.518,8.937-10.518h35.927c4.936,0,8.937,4.709,8.937,10.518l4.307,84.186h5.121l-4.438-86.767c0-6.886-4.743-12.469-10.595-12.469H640.236c-5.851,0-10.594,5.583-10.594,12.469l-4.438,86.767Z" fill="none" stroke="#0073ff" stroke-linecap="round" stroke-linejoin="round" stroke-width="1.975"/><path d="M689.172,2289.574l-.193-4.371H634.085l-.193,4.371Z" fill="none" stroke="#0073ff" stroke-linecap="round" stroke-linejoin="round" stroke-width="2.211"/><path d="M689.735,2299.978H633.329l-.193,4.371h56.791Z" fill="none" stroke="#0073ff" stroke-linecap="round" stroke-linejoin="round" stroke-width="2.211"/><path d="M690.491,2314.752H632.573l-.193,4.371h58.3Z" fill="none" stroke="#0073ff" stroke-linecap="round" stroke-linejoin="round" stroke-width="2.211"/><path d="M691.246,2329.526H631.864v4.371h59.529v-1.049Z" fill="none" stroke="#0073ff" stroke-linecap="round" stroke-linejoin="round" stroke-width="2.211"/></g></g></svg>