<svg xmlns="http://www.w3.org/2000/svg" width="431.041" height="357.987"><g fill="none" stroke="#0073ff" stroke-width="2"><g transform="rotate(14 -62.059 1025.592)" stroke-miterlimit="10"><path d="M42.736 18.343c0-7.992 1.737-14.772 4.157-17.283a.124.124 0 00-.135-.2 106.141 106.141 0 01-25.162 6.781 86.813 86.813 0 01-11.845.842c-13.032 0-12.97 19.727 0 19.727 17.056 0 32.048 5.564 37.007 7.622a.123.123 0 00.134-.2c-2.42-2.518-4.156-9.299-4.156-17.289z"/><path d="M22.937 49.2a2.631 2.631 0 01-2.656 2.7h-5.542c-2.165 0-5.7-14.191-5.7-23.737 3.113.074 3.845.1 7.74.341-.002 7.069 5.947 16.213 6.158 20.696z"/><ellipse cx="6.225" cy="18.342" rx="6.225" ry="18.342" transform="translate(42.736)"/><path d="M43.972 13.64l3.418 1.25a2.441 2.441 0 011.926 2.467v1.971a2.441 2.441 0 01-1.926 2.466l-3.418 1.25"/></g><path d="M260.05 78.827a34.093 34.093 0 01.885-10.96 31.01 31.01 0 014.316-9.766" stroke-linecap="round" stroke-linejoin="round"/></g><path d="M395.216 120.785l-9.486 2.103a3.06 3.06 0 01-3.296-4.578l5.19-8.172a3.237 3.237 0 00.048-3.216l-5.013-8.392a3.045 3.045 0 013.375-4.515l9.465 2.394a3.142 3.142 0 003.084-.922l6.395-7.304a3.086 3.086 0 015.388 1.821l.649 9.687a3.001 3.001 0 001.89 2.601l8.975 3.845a2.96 2.96 0 01-.024 5.533l-9.077 3.625a3.232 3.232 0 00-1.914 2.586l-.873 9.749a3.06 3.06 0 01-5.403 1.636l-6.261-7.43a3.487 3.487 0 00-3.112-1.05z" fill="none" stroke="#0073ff" stroke-miterlimit="10" stroke-width="2.001"/><path d="M350.63 146.999v11.261m-5.631-5.63h11.261M194.469 3.935a1.469 1.469 0 111.469-1.469 1.469 1.469 0 01-1.469 1.469" stroke-width="2" stroke="#0073ff" stroke-linecap="round" stroke-linejoin="round" fill="#fff"/><path d="M351.362 265.128l.525 3.333 3.077-.485" fill="none" stroke="#0073ff" stroke-linecap="round" stroke-linejoin="round" stroke-width="2"/><path d="M101.963 147.344l1.424 1.931m2.565 3.477l1.424 1.931m-6.376-.962l1.931-1.424m3.477-2.565l1.931-1.424" fill="#fff" stroke="#0073ff" stroke-linecap="round" stroke-linejoin="round" stroke-width="2"/><g stroke="#0073ff"><g fill="none"><path d="M238.64 347.524l-60.566-5.29 2.803-32.098a4.868 4.868 0 015.274-4.426l50.87 4.443a4.867 4.867 0 014.426 5.274z" stroke-miterlimit="10" stroke-width="2"/><path stroke-width="2" stroke-linecap="round" stroke-linejoin="round" d="M188.542 314.296l44.816 3.915-2.501 28.632-44.816-3.915z"/><path d="M240.772 347.71l-64.84-5.663a1.86 1.86 0 00-2.014 1.69l-.286 3.277a3.222 3.222 0 002.928 3.49l62.124 5.426a3.221 3.221 0 003.487-2.929l.287-3.277a1.86 1.86 0 00-1.686-2.014z"/><path d="M240.772 347.71l-64.84-5.663a1.86 1.86 0 00-2.014 1.69l-.286 3.277a3.222 3.222 0 002.928 3.49l62.124 5.426a3.221 3.221 0 003.487-2.929l.287-3.277a1.86 1.86 0 00-1.686-2.014z" stroke-miterlimit="10" stroke-width="2"/></g><path d="M212.574 333.09l.576-6.588 6.66.582" fill="none" stroke-linecap="round" stroke-linejoin="round" stroke-width="2"/><path stroke-width="2" stroke-linecap="round" stroke-linejoin="round" fill="#fff" d="M220.307 335.03l-7.157-8.528"/></g><g transform="rotate(11 -36.527 640.527)" stroke="#0073ff" stroke-width="2"><circle cx="34.87" cy="34.87" r="34.87" fill="none" stroke-miterlimit="10"/><circle cx="28.77" cy="28.77" r="28.77" transform="translate(6.101 6.101)" fill="none" stroke-miterlimit="10"/><g stroke-linecap="round" stroke-linejoin="round"><path d="M29.236 54.429v-36.6H40.52a7.276 7.276 0 017.276 7.277v2.593a7.277 7.277 0 01-7.276 7.277H22.073" fill="none"/><path fill="#fff" d="M22.073 41.717h21.491"/></g><path d="M65.828 65.721h0" fill="none" stroke-miterlimit="10"/></g><g transform="rotate(14.98 12023.654 -323.962)" fill="none" stroke="#0073ff" stroke-miterlimit="10" stroke-width="2"><rect width="64.26" height="31.703" rx="2" transform="translate(796.244 3173.053)"/><circle cx="11.313" cy="11.313" r="11.313" transform="translate(817.061 3177.592)"/><path d="M859.608 3195.808a8.351 8.351 0 00-8.351 8.352c0 .2.016.4.029.6h7.214a2 2 0 002-2v-6.9a8.577 8.577 0 00-.892-.052zm0-13.808a8.351 8.351 0 01-8.351-8.352c0-.2.016-.4.029-.6h7.214a2 2 0 012 2v6.9a8.192 8.192 0 01-.892.052zm-62.469 13.808a8.352 8.352 0 018.351 8.352c0 .2-.016.4-.03.6h-7.214a2 2 0 01-2-2v-6.9a8.607 8.607 0 01.893-.052zm0-13.808a8.351 8.351 0 008.351-8.352c0-.2-.016-.4-.03-.6h-7.214a2 2 0 00-2 2v6.9a8.221 8.221 0 00.893.052z"/></g><path d="M185.326 257.23l-2.78 7.64m-2.43-5.21l7.639 2.78m98.656-14.441v6.823m-3.412-3.411h6.823M374.606 56.79l1.457 2.99m-2.223-.767l2.99-1.457" stroke-width="2" stroke="#0073ff" stroke-linecap="round" stroke-linejoin="round" fill="#fff"/><g transform="rotate(-13 -8422.977 4659.928)" stroke-width="2" stroke="#0073ff" stroke-linecap="round" stroke-linejoin="round" fill="none"><rect width="39.994" height="54.717" rx="1.884" transform="translate(941.18 2209.703)"/><path d="M946.983 2205.6h39.675a1.418 1.418 0 011.419 1.419v51.881a1.419 1.419 0 01-1.419 1.42h-2.085m-36.818-27.241h25.951m-11.202-15.879h11.202m-11.202 6.382h11.202m-25.951 16.388h25.951m-25.951 6.89h20.35"/><rect width="10.31" height="9.608" rx="1.154" transform="translate(947.238 2217.2)"/></g><g stroke-width="2" stroke="#0073ff" stroke-linecap="round" stroke-linejoin="round" fill="none"><path d="M46.675 253.547h45.648v65.001H46.675zm-26.609 21.719h17.297v12.781H20.066zm0 21.394h17.297v12.781H20.066zm81.57-21.394h17.297v12.781h-17.297zm0 21.394h17.297v12.781h-17.297zm20.414-48.45h-25.8l3.328 5.337h-7.251v11.49h45.676zm-105.101 0h25.8l-3.328 5.337h7.251v11.49H1z"/><path d="M87.317 233.885H52.422l-12.258 19.661h59.41zm5.006 62.775H46.675m18.593-31.481h8.467a8.633 8.633 0 018.633 8.633v10.6h0-25.733 0v-10.6a8.633 8.633 0 018.633-8.633zm27.055-.139v53.508l9.708 12.226h26.214v-65.733zm4.855 59.621h-55.73m5.227-59.621H10.753v65.733h26.214l9.708-12.226z"/><path d="M36.968 330.773l9.709-12.226h45.648l9.708 12.226z"/><path d="M56.635 305.168h25.728v13.38H56.635z"/></g><g fill="#fafbfc" stroke="#0073ff" stroke-width="2"><path d="M355.987 307.545a10.017 10.017 0 01-12.065 7.12 1.077 1.077 0 01-.109-.03l-41.858-11.223a1.051 1.051 0 01-.108-.029 10.001 10.001 0 013.199-19.598 10.26 10.26 0 012.033-4.933 12.148 12.148 0 016.023-4.199 11.901 11.901 0 019.667.936 11.977 11.977 0 018.605-.837c4.836 1.297 8.262 5.246 8.58 9.594a11.421 11.421 0 017.614 2.133 11.032 11.032 0 014.72 10.459 10.093 10.093 0 013.288 4.228 9.892 9.892 0 01.413 6.387" stroke-miterlimit="10"/><path d="M352.468 297.023a8.264 8.264 0 00-10.38 2.96m-.298 14.363a4.425 4.425 0 011.084-7.371m-16.504-11.936a11.634 11.634 0 01-3.712 14.036m13.847-9.313a10.027 10.027 0 00-9.297 2.063m-4.442-26.245c-3.605 2.154-5.252 5.152-4.932 10.379m22.565-1.919a13.902 13.902 0 00-9.91 8.015m-.077-10.135a9.27 9.27 0 013.273 5.62m-29.682-3.606a10.251 10.251 0 0110.436 8.483m-4.102-5.485a10.112 10.112 0 00-4.442 8.187" stroke-linecap="round" stroke-linejoin="round"/></g></svg>