<svg xmlns="http://www.w3.org/2000/svg" width="160.714" height="104.982" viewBox="0 0 160.714 104.982"><defs><style>.a,.b,.c{fill:#fafbfc;}.a,.b,.d{stroke:#0073ff;stroke-width:4px;}.a,.d{stroke-miterlimit:10;}.b{stroke-linecap:round;stroke-linejoin:round;}.d{fill:none;}</style></defs><g transform="translate(-978.453 -1949.379)"><path class="a" d="M1128.056,2035.857H989.564v-73.388a11.091,11.091,0,0,1,11.091-11.09h116.31a11.091,11.091,0,0,1,11.091,11.09Z"/><rect class="b" width="117.232" height="70.992" transform="translate(1000.409 1964.865)"/><path class="c" d="M1132.931,2035.857H984.689a4.236,4.236,0,0,0-4.236,4.236v4.934a7.335,7.335,0,0,0,7.334,7.334h142.046a7.335,7.335,0,0,0,7.334-7.334v-4.934A4.236,4.236,0,0,0,1132.931,2035.857Z"/><path class="d" d="M1132.931,2035.857H984.689a4.236,4.236,0,0,0-4.236,4.236v4.934a7.335,7.335,0,0,0,7.334,7.334h142.046a7.335,7.335,0,0,0,7.334-7.334v-4.934A4.236,4.236,0,0,0,1132.931,2035.857Z"/><rect class="a" width="36.383" height="22.745" rx="4.951" transform="translate(1015.06 1977.89)"/><path class="a" d="M1016.595,1979.263l13.825,8.3a5.5,5.5,0,0,0,5.663,0l13.824-8.3"/><line class="b" x2="10.955" y2="6.577" transform="translate(1038.952 1992.399)"/><line class="b" x1="10.955" y2="6.577" transform="translate(1016.595 1992.399)"/><line class="b" x2="15.631" transform="translate(1086.919 2007.179)"/><line class="b" x2="17.048" transform="translate(1086.919 2013.852)"/><line class="b" x2="12.396" transform="translate(1086.919 2020.525)"/><circle class="b" cx="9.383" cy="9.383" r="9.383" transform="translate(1059.767 2004.046)"/></g></svg>