<svg xmlns="http://www.w3.org/2000/svg" width="50" height="64"><defs><style>.a,.b{fill:none;stroke:#0073ff;stroke-miterlimit:10;stroke-width:4px}.a{stroke-linecap:round}</style></defs><g transform="translate(-798 -1870.802)"><path class="a" d="M808.598 1904.905h28.805m-28.805-8.426h28.805m-20.245-8.426h11.684m5.796-15.253v9.5a2 2 0 0 0 2 2H846"/><path class="b" d="M833.665 1872.8h-31.2a2.47 2.47 0 0 0-2.469 2.47v55.061a2.469 2.469 0 0 0 2.469 2.469h41.062a2.469 2.469 0 0 0 2.469-2.469v-45.2a2 2 0 0 0-.586-1.414l-10.334-10.335a2 2 0 0 0-1.411-.582z"/><circle class="b" cx="3.944" cy="3.944" r="3.944" transform="translate(808.598 1911.753)"/><path class="a" d="M812.774 1919.641l2.677 3.105m-3.124-3.105l-2.677 3.105"/></g></svg>