<svg xmlns="http://www.w3.org/2000/svg" width="76.012" height="48.05"><defs><style>.a,.b{fill:none;stroke:#fff;stroke-miterlimit:10;stroke-width:4px}.b{stroke-linecap:round}</style></defs><g transform="translate(-863.672 -2158.415)"><ellipse class="a" cx="19.264" cy="8.842" rx="19.264" ry="8.842" transform="translate(899.156 2169.113)"/><path class="b" d="M899.156 2178.228v8.7c0 4.883 8.625 8.842 19.264 8.842s19.264-3.959 19.264-8.842v-8.7"/><path class="b" d="M899.156 2186.926v8.7c0 4.884 8.625 8.842 19.264 8.842s19.264-3.958 19.264-8.842v-8.7"/><ellipse class="a" cx="19.264" cy="8.842" rx="19.264" ry="8.842" transform="translate(865.672 2160.415)"/><path class="b" d="M865.672 2169.531v8.7c0 4.883 8.625 8.842 19.264 8.842a32.78 32.78 0 0014.221-2.877"/><path class="b" d="M865.672 2178.228v8.7c0 4.883 8.625 8.842 19.264 8.842a32.772 32.772 0 0014.22-2.877"/><path class="b" d="M865.672 2186.926v8.7c0 4.884 8.625 8.842 19.264 8.842 7.17 0 13.425-1.8 16.742-4.465"/></g></svg>