<svg xmlns="http://www.w3.org/2000/svg" width="87.14" height="91.783"><defs><style>.a,.b{fill:none;stroke:#0073ff;stroke-width:3px}.a{stroke-miterlimit:10}.b{stroke-linecap:round;stroke-linejoin:round}</style></defs><g transform="translate(9802.035 12183.551)"><path class="a" d="M-9768.73-12144.767v-27.39h8.443a5.446 5.446 0 015.445 5.445v1.941a5.446 5.446 0 01-5.445 5.445h-13.8m-.003 5.047h16.081"/><circle class="a" cx="23.588" cy="23.588" r="23.588" transform="translate(-9788.053 -12182.051)"/><path class="a" d="M-9723.981-12125.363l-1.6-1.838a4.558 4.558 0 00-6.5-.389l-16.654 13.1"/><path class="b" d="M-9800.535-12107.542l18.711-11.872a20.267 20.267 0 0119.245-1.336l13.944 6.341a4.9 4.9 0 012.217 6.917 4.9 4.9 0 01-5.835 2.188l-19.066-6.121"/><path class="b" d="M-9787.305-12093.269l9.438-5.347a9.044 9.044 0 017.956-.471l8.981 3.768a18.571 18.571 0 0019.685-3.392l23.438-20.547a4.557 4.557 0 00.291-6.286 4.557 4.557 0 00-6.5-.39l-21.822 17.245"/><path class="a" d="M-9732.473-12126.216l-1.56-1.794a4.451 4.451 0 00-6.344-.38l-14.68 10.866m12.705-10.156a4.124 4.124 0 00-5.878-.353l-11.381 8.564m16.087-18.124"/></g></svg>