<svg xmlns="http://www.w3.org/2000/svg" width="108.214" height="73.933"><defs><style>.a{fill:none;stroke:#0073ff;stroke-width:3px;stroke-miterlimit:10}</style></defs><path class="a" d="M23.364 4.359l-6.878-2.666a1.437 1.437 0 00-1.856.819L1.607 36.104a1.434 1.434 0 00.819 1.856l6.877 2.665a4.875 4.875 0 006.311-2.784L26.148 10.67a4.884 4.884 0 00-2.784-6.311zm83.198 31.867L90.838 3.811a1.436 1.436 0 00-1.917-.664l-6.637 3.219a4.884 4.884 0 00-2.26 6.517l12.719 26.219a4.871 4.871 0 006.517 2.26l6.637-3.219a1.434 1.434 0 00.664-1.916z"/><g transform="translate(21.239 36.097)"><rect class="a" width="17.742" height="9.915" rx="4.957" transform="rotate(-57.92 13.76 7.614)"/><rect class="a" width="24.183" height="9.915" rx="4.957" transform="rotate(-57.92 22.722 2.656)"/><rect class="a" width="21.254" height="9.915" rx="4.957" transform="rotate(-57.92 31.683 -2.304)"/><rect class="a" width="17.237" height="8.931" rx="4.465" transform="rotate(-57.916 40.632 -7.26)"/></g><path d="M70.376 64.3l-4.05-4.518m11.73-1.877l-5.871-6.549" stroke-linecap="round" stroke-linejoin="round" fill="none" stroke="#0073ff" stroke-width="3"/><path class="a" d="M84.791 50.37c7.455-5.375 7.455-12.259 7.455-12.259s-6.13-12.673-12.269-24.137a.827.827 0 00-1.133-.329c-1.583.882-1.886 1.375-8.943-3.325-8.037-5.353-18.446-1.08-23.141 2.2-3.139 2.19-9.382 7.228-13.178 10.329a4.816 4.816 0 00-1.121 6.14 4.821 4.821 0 006.042 2.035l19.167-7.779 27.7 27.813a5.015 5.015 0 01-7.311 6.846 5.016 5.016 0 01-.94 6.643c-2.123 1.78-4.96 1.874-6.74-.248l-3.612-4.305a4.518 4.518 0 01-6.925 5.8l-1.175-1.362"/><path class="a" d="M54.117 8.942L48.37 7.036a16.461 16.461 0 00-9.8 1.261c-4.293 1.984-6.762 4.26-11.088 2.351l-1.31-.579-10.554 27.772a1.923 1.923 0 00.408 2.011l7.567 7.788"/></svg>