<svg xmlns="http://www.w3.org/2000/svg" width="160.714" height="104.982"><defs><style>.a,.b{fill:#fafbfc;stroke:#0073ff;stroke-width:4px}.a{stroke-miterlimit:10}.b{stroke-linecap:round;stroke-linejoin:round}</style></defs><g transform="translate(-978.453 -1949.379)"><path class="a" d="M1128.056 2035.857H989.564v-73.388a11.091 11.091 0 0 1 11.091-11.09h116.31a11.091 11.091 0 0 1 11.091 11.09z"/><path class="b" d="M1000.409 1964.865h117.232v70.992h-117.232z"/><path d="M1132.931 2035.857H984.689a4.236 4.236 0 0 0-4.236 4.236v4.934a7.335 7.335 0 0 0 7.334 7.334h142.046a7.335 7.335 0 0 0 7.334-7.334v-4.934a4.236 4.236 0 0 0-4.236-4.236z" fill="#fafbfc"/><path d="M1132.931 2035.857H984.689a4.236 4.236 0 0 0-4.236 4.236v4.934a7.335 7.335 0 0 0 7.334 7.334h142.046a7.335 7.335 0 0 0 7.334-7.334v-4.934a4.236 4.236 0 0 0-4.236-4.236z" fill="none" stroke-miterlimit="10" stroke="#0073ff" stroke-width="4"/><rect class="a" width="36.383" height="22.745" rx="4.951" transform="translate(1015.06 1977.89)"/><path class="a" d="M1016.595 1979.263l13.825 8.3a5.5 5.5 0 0 0 5.663 0l13.824-8.3"/><path class="b" d="M1038.952 1992.399l10.955 6.577m-22.357-6.577l-10.955 6.577m70.324 8.203h15.631m-15.631 6.673h17.048m-17.048 6.673h12.396"/><circle class="b" cx="9.383" cy="9.383" r="9.383" transform="translate(1059.767 2004.046)"/></g></svg>