<svg xmlns="http://www.w3.org/2000/svg" width="71.572" height="69.097" viewBox="0 0 71.572 69.097"><defs><style>.a,.b{fill:none;stroke:#fff;stroke-miterlimit:10;stroke-width:4px;}.a{stroke-linecap:round;}</style></defs><g transform="translate(-701.08 -1515.1)"><path class="a" d="M703.08,1543.719V1559.1a11.094,11.094,0,0,0,11.094,11.094H724.1"/><line class="a" y2="12.002" transform="translate(715.938 1570.194)"/><line class="a" x1="16.319" transform="translate(707.778 1582.196)"/><path class="a" d="M724.464,1523.391a6.29,6.29,0,1,1-6.29-6.291A6.29,6.29,0,0,1,724.464,1523.391Z"/><path class="a" d="M738.993,1581.813l-9.192-18.7H715.393a5.379,5.379,0,0,1-5.379-5.379v-16.559a4,4,0,0,1,4-4h6.578a2,2,0,0,1,1.555.742l6.926,8.559a2,2,0,0,0,1.555.741h7.854"/><path class="a" d="M719.127,1546.516a19.446,19.446,0,0,0,1.262,1.571,1.99,1.99,0,0,1,.482,1.3v2.391a2,2,0,0,0,2,2h11.076a2,2,0,0,1,1.819,1.169l12.03,26.865"/><line class="a" x2="13.404" transform="translate(725.589 1553.779)"/><line class="a" x2="24.511" transform="translate(746.142 1553.779)"/><path class="a" d="M746.043,1547.09h17.192a2.677,2.677,0,0,0,2.466-2l3.408-14.614a1.537,1.537,0,0,0-1.534-2H744.208a2.678,2.678,0,0,0-2.467,2L739.5,1540.1"/><line class="b" x1="4.19" y2="18.614" transform="translate(751.669 1528.476)"/></g></svg>