<svg xmlns="http://www.w3.org/2000/svg" width="138.285" height="111.874" viewBox="0 0 138.285 111.874"><defs><style>.a{fill:none;}.a,.b{stroke:#0073ff;stroke-linecap:round;stroke-linejoin:round;stroke-width:4px;}.b{fill:#fafbfc;}</style></defs><g transform="translate(-549.755 -1946.298)"><path class="a" d="M570.107,2048.82h-8.158a10.224,10.224,0,0,1-10.194-10.194v-81.514c0-5.607,4.588-8.814,10.194-8.814h113.9c5.606,0,10.194,3.207,10.194,8.814v81.514a10.224,10.224,0,0,1-10.194,10.194h-66.97"/><path class="b" d="M686.04,2038.626"/><path class="b" d="M551.755,2038.626"/><circle class="a" cx="14.949" cy="14.949" r="14.949" transform="translate(575.451 1965.862)"/><path class="b" d="M634.269,2017.64l24.282-34.816a2.914,2.914,0,0,0-.929-4.188h0a2.914,2.914,0,0,0-3.85.855l-24,34.414"/><path class="a" d="M633.225,2016.4l-1.138-1.138a5.382,5.382,0,0,0-7.589,0l-6.678,6.678-10.768-10.767a12.2,12.2,0,0,0-3.954-3.941,6.135,6.135,0,0,0-4.77-1.693,11.924,11.924,0,0,0-1.534-.11h-14.6a12.118,12.118,0,0,0-12.082,12.083v38.658h38.769v-25.719l4.609,4.609c.055.055.121.093.179.146l.377.377a5.382,5.382,0,0,0,7.589,0l.27-.27c.1-.089.215-.157.312-.253s.165-.21.253-.311l10.76-10.76A5.382,5.382,0,0,0,633.225,2016.4Z"/><line class="a" x2="50.73" transform="translate(622.068 1972.617)"/><line class="a" x2="27.043" transform="translate(622.068 1983.994)"/><line class="a" x2="15.063" transform="translate(657.735 1983.994)"/><line class="a" x2="22.567" transform="translate(650.231 1995.371)"/><line class="a" x1="10.817" transform="translate(630.834 1995.371)"/></g></svg>