<svg xmlns="http://www.w3.org/2000/svg" width="50" height="64" viewBox="0 0 50 64"><defs><style>.a,.b{fill:none;stroke:#0073ff;stroke-miterlimit:10;stroke-width:4px;}.a{stroke-linecap:round;}</style></defs><g transform="translate(-719 -11140)"><g transform="translate(-79 9269.198)"><line class="a" x2="28.805" transform="translate(808.598 1904.905)"/><line class="a" x2="28.805" transform="translate(808.598 1896.479)"/><line class="a" x2="11.684" transform="translate(817.158 1888.053)"/><path class="a" d="M834.638,1872.8v9.5a2,2,0,0,0,2,2H846"/><path class="b" d="M833.665,1872.8h-31.2a2.47,2.47,0,0,0-2.469,2.47v55.061a2.469,2.469,0,0,0,2.469,2.469h41.062a2.469,2.469,0,0,0,2.469-2.469v-45.2a2,2,0,0,0-.586-1.414l-10.334-10.335A2,2,0,0,0,833.665,1872.8Z"/><circle class="b" cx="3.944" cy="3.944" r="3.944" transform="translate(808.598 1911.753)"/><line class="a" x2="2.677" y2="3.105" transform="translate(812.774 1919.641)"/><line class="a" x1="2.677" y2="3.105" transform="translate(809.65 1919.641)"/></g></g></svg>