<svg xmlns="http://www.w3.org/2000/svg" width="71.572" height="69.097"><defs><style>.a{fill:none;stroke:#fff;stroke-miterlimit:10;stroke-width:4px;stroke-linecap:round}</style></defs><path class="a" d="M2 28.619V44a11.094 11.094 0 0011.094 11.094h9.926m-8.162 0v12.002m8.159 0H6.698M23.384 8.291A6.29 6.29 0 1117.094 2a6.29 6.29 0 016.29 6.291z"/><path class="a" d="M37.913 66.713l-9.192-18.7H14.313a5.379 5.379 0 01-5.379-5.379V26.075a4 4 0 014-4h6.578a2 2 0 011.555.742l6.926 8.559a2 2 0 001.555.741h7.854"/><path class="a" d="M18.047 31.416a19.446 19.446 0 001.262 1.571 1.99 1.99 0 01.482 1.3v2.391a2 2 0 002 2h11.076a2 2 0 011.819 1.169l12.03 26.865M24.509 38.679h13.404m7.149 0h24.511m-24.61-6.689h17.192a2.677 2.677 0 002.466-2l3.408-14.614a1.537 1.537 0 00-1.534-2H43.128a2.678 2.678 0 00-2.467 2L38.42 25"/><path fill="none" stroke="#fff" stroke-miterlimit="10" stroke-width="4" d="M54.779 13.376l-4.19 18.614"/></svg>