<svg xmlns="http://www.w3.org/2000/svg" width="50" height="64" viewBox="0 0 50 64"><defs><style>.a,.b{fill:none;stroke:#0073ff;stroke-miterlimit:10;stroke-width:4px;}.a{stroke-linecap:round;}</style></defs><g transform="translate(-962 -11115)"><g transform="translate(144.979 9244.198)"><line class="a" x2="28.805" transform="translate(827.62 1904.905)"/><line class="a" x2="28.805" transform="translate(827.62 1896.479)"/><line class="a" x2="11.241" transform="translate(845.183 1915.652)"/><line class="a" x2="11.684" transform="translate(836.18 1888.053)"/><path class="a" d="M853.66,1872.8v9.5a2,2,0,0,0,2,2h9.362"/><path class="b" d="M852.687,1872.8h-31.2a2.469,2.469,0,0,0-2.469,2.47v55.061a2.469,2.469,0,0,0,2.469,2.469h41.061a2.469,2.469,0,0,0,2.47-2.469v-45.2a2,2,0,0,0-.586-1.414L854.1,1873.388A2,2,0,0,0,852.687,1872.8Z"/></g></g></svg>