<svg xmlns="http://www.w3.org/2000/svg" width="138.285" height="111.874"><defs><style>.a{fill:none;stroke:#0073ff;stroke-linecap:round;stroke-linejoin:round;stroke-width:4px}</style></defs><g transform="translate(-549.755 -1946.298)"><path class="a" d="M570.107 2048.82h-8.158a10.224 10.224 0 01-10.194-10.194v-81.514c0-5.607 4.588-8.814 10.194-8.814h113.9c5.606 0 10.194 3.207 10.194 8.814v81.514a10.224 10.224 0 01-10.194 10.194h-66.97"/><circle class="a" cx="14.949" cy="14.949" r="14.949" transform="translate(575.451 1965.862)"/><path d="M634.269 2017.64l24.282-34.816a2.914 2.914 0 00-.929-4.188 2.914 2.914 0 00-3.85.855l-24 34.414" fill="#fafbfc" stroke="#0073ff" stroke-linecap="round" stroke-linejoin="round" stroke-width="4"/><path class="a" d="M633.225 2016.4l-1.138-1.138a5.382 5.382 0 00-7.589 0l-6.678 6.678-10.768-10.767a12.2 12.2 0 00-3.954-3.941 6.135 6.135 0 00-4.77-1.693 11.924 11.924 0 00-1.534-.11h-14.6a12.118 12.118 0 00-12.082 12.083v38.658h38.769v-25.719l4.609 4.609c.055.055.121.093.179.146l.377.377a5.382 5.382 0 007.589 0l.27-.27c.1-.089.215-.157.312-.253s.165-.21.253-.311l10.76-10.76a5.382 5.382 0 00-.005-7.589zm-11.157-43.783h50.73m-50.73 11.377h27.043m8.624 0h15.063m-22.567 11.377h22.567m-31.147 0h-10.817"/></g></svg>