<svg xmlns="http://www.w3.org/2000/svg" width="108.214" height="73.933" viewBox="0 0 108.214 73.933"><defs><style>.a,.b{fill:none;stroke:#0073ff;stroke-width:3px;}.a{stroke-miterlimit:10;}.b{stroke-linecap:round;stroke-linejoin:round;}</style></defs><g transform="translate(9821.104 11947.939)"><g transform="translate(-10988.067 -13539.018)"><g transform="translate(1168.473 1592.675)"><path class="a" d="M1190.327,1595.438h0l-6.878-2.666a1.437,1.437,0,0,0-1.856.819l-13.023,33.592a1.434,1.434,0,0,0,.819,1.856l6.877,2.665a4.875,4.875,0,0,0,6.311-2.784l10.534-27.171A4.884,4.884,0,0,0,1190.327,1595.438Z" transform="translate(-1168.473 -1592.675)"/><path class="a" d="M1304.978,1627.872l-15.724-32.415a1.436,1.436,0,0,0-1.917-.664l-6.637,3.219a4.884,4.884,0,0,0-2.26,6.517l12.719,26.219a4.871,4.871,0,0,0,6.517,2.26l6.637-3.219a1.434,1.434,0,0,0,.664-1.916Z" transform="translate(-1199.926 -1593.242)"/><g transform="translate(19.729 34.501)"><rect class="a" width="17.742" height="9.915" rx="4.957" transform="matrix(0.531, -0.847, 0.847, 0.531, 0, 15.224)"/><rect class="a" width="24.183" height="9.915" rx="4.957" transform="matrix(0.531, -0.847, 0.847, 0.531, 8.4, 20.49)"/><rect class="a" width="21.254" height="9.915" rx="4.957" transform="matrix(0.531, -0.847, 0.847, 0.531, 16.801, 25.756)"/><rect class="a" width="17.237" height="8.931" rx="4.465" transform="translate(25.201 31.022) rotate(-57.916)"/></g><g transform="translate(30.304 6.184)"><g transform="translate(34.512 43.576)"><line class="b" x1="4.05" y1="4.518" transform="translate(0 8.426)"/><line class="b" x1="5.871" y1="6.549" transform="translate(5.859)"/></g><path class="a" d="M1263.97,1643.942c7.455-5.375,7.455-12.259,7.455-12.259s-6.13-12.673-12.269-24.137a.827.827,0,0,0-1.133-.329c-1.583.882-1.886,1.375-8.943-3.325-8.037-5.353-18.446-1.08-23.141,2.2-3.139,2.19-9.382,7.228-13.178,10.329a4.816,4.816,0,0,0-1.121,6.14h0a4.821,4.821,0,0,0,6.042,2.035l19.167-7.779,27.7,27.813a5.015,5.015,0,0,1-7.311,6.846s0,0,0,0a5.016,5.016,0,0,1-.94,6.643h0c-2.123,1.78-4.96,1.874-6.74-.248l-3.612-4.305a4.518,4.518,0,0,1-6.925,5.8l-1.175-1.362" transform="translate(-1210.993 -1601.352)"/></g><path class="a" d="M1226.715,1602.11l-5.747-1.906a16.461,16.461,0,0,0-9.8,1.261h0c-4.293,1.984-6.762,4.26-11.088,2.351l-1.31-.579-10.554,27.772a1.923,1.923,0,0,0,.408,2.011l7.567,7.788" transform="translate(-1174.108 -1594.764)"/></g></g></g></svg>