<svg xmlns="http://www.w3.org/2000/svg" width="50" height="64"><path d="M10.599 34.103h28.805m-28.805-8.426h28.805M28.162 44.85h11.241M19.159 17.251h11.684m5.796-15.253v9.5a2 2 0 0 0 2 2h9.362" fill="none" stroke="#0073ff" stroke-miterlimit="10" stroke-width="4" stroke-linecap="round"/><path d="M35.666 1.998h-31.2a2.469 2.469 0 0 0-2.469 2.47v55.061a2.469 2.469 0 0 0 2.469 2.469h41.061a2.469 2.469 0 0 0 2.47-2.469v-45.2a2 2 0 0 0-.586-1.414L37.079 2.586a2 2 0 0 0-1.413-.588z" fill="none" stroke="#0073ff" stroke-miterlimit="10" stroke-width="4"/></svg>