<svg xmlns="http://www.w3.org/2000/svg" width="120.58" height="112.813"><defs><style>.a{fill:#fafbfc;stroke:#0073ff;stroke-linecap:round;stroke-linejoin:round;stroke-width:4px}</style></defs><g transform="translate(-1221.212 -1941.157)"><path class="a" d="M1339.429 1971.187l-2.3-8.581-13.709 13.709-8.994-2.41-2.41-8.993 13.709-13.709-8.581-2.3a8.765 8.765 0 00-8.468 2.269l-9.286 9.286a8.767 8.767 0 00-2.269 8.469l2.3 8.58-54.023 49.963c-3.149 3.149-5.7 9.328.217 15.246s12.1 3.367 15.246.218l49.963-54.023 8.581 2.3a8.768 8.768 0 008.469-2.269l9.286-9.286a8.771 8.771 0 002.269-8.469z"/><circle class="a" cx="3.303" cy="3.303" r="3.303" transform="translate(1251.168 2030.558)"/><rect class="a" width="22.486" height="56.303" rx="6.385" transform="rotate(-45 3064.133 -530.366)"/><path class="a" d="M1246.945 1978.165l8.278-8.278 29.357 29.357-8.278 8.278z"/><path class="a" d="M1236.365 1988.745l-13.153-13.153 25.855-25.855 21.029-6.473a2.389 2.389 0 012.617 3.57l-8.894 14.457z"/></g></svg>