<svg xmlns="http://www.w3.org/2000/svg" width="87.14" height="91.783" viewBox="0 0 87.14 91.783"><defs><style>.a,.b{fill:none;stroke:#0073ff;stroke-width:3px;}.a{stroke-miterlimit:10;}.b{stroke-linecap:round;stroke-linejoin:round;}</style></defs><g transform="translate(9802.035 12183.551)"><g transform="translate(-9774.09 -12172.157)"><path class="a" d="M1004.275,1621.627v-27.39h8.443a5.446,5.446,0,0,1,5.445,5.445v1.941a5.446,5.446,0,0,1-5.445,5.445h-13.8" transform="translate(-998.915 -1594.237)"/><line class="a" x2="16.081" transform="translate(0 17.878)"/></g><circle class="a" cx="23.588" cy="23.588" r="23.588" transform="translate(-9788.053 -12182.051)"/><path class="a" d="M1042.282,1650.538" transform="translate(-10783.481 -13779.996)"/><g transform="translate(-9800.535 -12129.54)"><path class="a" d="M1049.191,1654.854l-1.6-1.838h0a4.558,4.558,0,0,0-6.5-.389l-16.654,13.1" transform="translate(-972.637 -1650.677)"/><path class="b" d="M956.134,1674.65l18.711-11.872a20.267,20.267,0,0,1,19.245-1.336l13.944,6.341a4.9,4.9,0,0,1,2.217,6.917h0a4.9,4.9,0,0,1-5.835,2.188l-19.066-6.121" transform="translate(-956.134 -1652.652)"/><path class="b" d="M973.579,1687.476l9.438-5.347a9.044,9.044,0,0,1,7.956-.471l8.981,3.768a18.571,18.571,0,0,0,19.685-3.392l23.438-20.547a4.557,4.557,0,0,0,.291-6.286h0a4.557,4.557,0,0,0-6.5-.39l-21.822,17.245" transform="translate(-960.349 -1651.205)"/><path class="a" d="M1038.683,1653.755l-1.56-1.794h0a4.451,4.451,0,0,0-6.344-.38l-14.68,10.866" transform="translate(-970.621 -1650.431)"/><path class="a" d="M1027.353,1652.432a4.124,4.124,0,0,0-5.878-.353l-11.381,8.564" transform="translate(-969.17 -1650.572)"/></g><path class="a" d="M1039.217,1639.812h0" transform="translate(-10782.741 -13777.405)"/></g></svg>