<svg xmlns="http://www.w3.org/2000/svg" width="119.129" height="113.203" viewBox="0 0 119.129 113.203"><defs><style>.a,.c{fill:#fafbfc;}.a,.b,.c{stroke:#0073ff;}.a,.b{stroke-miterlimit:10;}.a,.b,.c,.d{stroke-width:4px;}.b,.d{fill:none;}.c,.d{stroke-linecap:round;stroke-linejoin:round;}.d{stroke:#bee0fc;}</style></defs><g transform="translate(-1217 -4225)"><g transform="translate(449.178 2280.951)"><path class="a" d="M871.866,2023.021s-37.511-17.63-81.528-17.63c-27.29,0-27.418-41.5,0-41.5,44.017,0,81.528-17.63,81.528-17.63a.8.8,0,0,1,.965.779v75.206A.8.8,0,0,1,871.866,2023.021Z"/><path class="a" d="M809.388,2010.742l-21.179-1.97a2.434,2.434,0,0,1-2.478-2.387v-42.3a2.434,2.434,0,0,1,2.478-2.388l21.179-1.97a2.535,2.535,0,0,1,2.478,2.588v45.838A2.534,2.534,0,0,1,809.388,2010.742Z"/><path class="a" d="M818.08,2049.564a5.535,5.535,0,0,1-5.589,5.688H800.832c-4.556,0-12-26.361-12-46.444,8.1.722,6.522.761,16.285,1.669C805.12,2025.338,817.636,2040.122,818.08,2049.564Z"/><ellipse class="a" cx="10.869" cy="38.59" rx="10.869" ry="38.59" transform="translate(861.961 1946.049)"/><path class="b" d="M862.344,1974.747l10.643,2.628a5.14,5.14,0,0,1,4.05,5.19v4.148a5.14,5.14,0,0,1-4.05,5.19l-10.643,2.628"/><path class="a" d="M886.951,1975.622"/><path class="a" d="M886.951,1993.247"/><circle class="a" cx="3.319" cy="3.319" r="3.319" transform="translate(796.822 1992.572)"/><line class="c" x2="11.105" transform="translate(794.015 1983.064)"/><path class="c" d="M857.284,2017.055c-2.727-7.492-4.483-19.226-4.483-32.416,0-13.361,1.8-25.229,4.59-32.705"/><path class="d" d="M777.328,1947.175"/><path class="d" d="M773.064,1946.531"/></g></g></svg>