<svg xmlns="http://www.w3.org/2000/svg" width="50" height="70.153" viewBox="0 0 50 70.153"><defs><style>.a,.b{fill:none;stroke:#0073ff;stroke-miterlimit:10;stroke-width:4px;}.b{stroke-linecap:round;}</style></defs><g transform="translate(-892 -10996.99)"><g transform="translate(272.797 8732.326)"><path class="a" d="M621.2,2277.245a3,3,0,0,1,2.222-2.879l37.662-7.65a1.845,1.845,0,0,1,2.222,1.976v7.351"/><rect class="a" width="46" height="58" rx="2.428" transform="translate(621.203 2274.817)"/><circle class="a" cx="4.873" cy="4.873" r="4.873" transform="translate(639.33 2286.06)"/><path class="a" d="M650.8,2305.024v-5.179a3.591,3.591,0,0,0-2.607-3.453l-.185-.053a13.853,13.853,0,0,0-7.614,0l-.186.053a3.591,3.591,0,0,0-2.606,3.453v5.179"/><line class="b" x2="21.255" transform="translate(633.575 2311.407)"/><line class="b" x2="21.255" transform="translate(633.575 2317.662)"/></g></g></svg>