<svg xmlns="http://www.w3.org/2000/svg" width="91.726" height="86.174" viewBox="0 0 91.726 86.174"><defs><style>.a{fill:none;}.a,.b{stroke:#0073ff;stroke-miterlimit:10;stroke-width:3px;}.b{fill:#fff;}</style></defs><g transform="translate(9804.412 12069.716)"><g transform="translate(-9766.718 -12042.876)"><circle class="a" cx="8.082" cy="8.082" r="8.082" transform="translate(2.862 0)"/><path class="a" d="M1042.16,2845.917l-.308-.088a23.021,23.021,0,0,0-12.628,0l-.308.088a5.957,5.957,0,0,0-4.322,5.728v9.631h21.888v-9.631A5.958,5.958,0,0,0,1042.16,2845.917Z" transform="translate(-1024.595 -2828.782)"/></g><circle class="a" cx="27.824" cy="27.824" r="27.824" transform="translate(-9783.599 -12054.549)"/><circle class="a" cx="41.587" cy="41.587" r="41.587" transform="translate(-9797.36 -12068.216)"/><circle class="b" cx="5.551" cy="5.551" r="5.551" transform="translate(-9729.771 -12006.22)"/><circle class="b" cx="5.551" cy="5.551" r="5.551" transform="translate(-9753.242 -12058.313)"/><circle class="b" cx="5.551" cy="5.551" r="5.551" transform="translate(-9802.912 -12033.573)"/></g></svg>