<svg xmlns="http://www.w3.org/2000/svg" width="119.129" height="113.203"><defs><style>.a{fill:#fafbfc;stroke:#0073ff;stroke-miterlimit:10;stroke-width:4px}</style></defs><g transform="translate(-767.822 -1944.049)"><path class="a" d="M871.866 2023.021s-37.511-17.63-81.528-17.63c-27.29 0-27.418-41.5 0-41.5 44.017 0 81.528-17.63 81.528-17.63a.8.8 0 01.965.779v75.206a.8.8 0 01-.965.775z"/><path class="a" d="M809.388 2010.742l-21.179-1.97a2.434 2.434 0 01-2.478-2.387v-42.3a2.434 2.434 0 012.478-2.388l21.179-1.97a2.535 2.535 0 012.478 2.588v45.838a2.534 2.534 0 01-2.478 2.589z"/><path class="a" d="M818.08 2049.564a5.535 5.535 0 01-5.589 5.688h-11.659c-4.556 0-12-26.361-12-46.444 8.1.722 6.522.761 16.285 1.669.003 14.861 12.519 29.645 12.963 39.087z"/><ellipse class="a" cx="10.869" cy="38.59" rx="10.869" ry="38.59" transform="translate(861.961 1946.049)"/><path d="M862.344 1974.747l10.643 2.628a5.14 5.14 0 014.05 5.19v4.148a5.14 5.14 0 01-4.05 5.19l-10.643 2.628" fill="none" stroke-width="4" stroke-miterlimit="10" stroke="#0073ff"/><circle class="a" cx="3.319" cy="3.319" r="3.319" transform="translate(796.822 1992.572)"/><path d="M794.015 1983.064h11.105m52.164 33.991c-2.727-7.492-4.483-19.226-4.483-32.416 0-13.361 1.8-25.229 4.59-32.705" stroke-linecap="round" stroke-linejoin="round" stroke-width="4" fill="#fafbfc" stroke="#0073ff"/></g></svg>