<svg xmlns="http://www.w3.org/2000/svg" width="224.182" height="387.979" viewBox="0 0 224.182 387.979"><g transform="translate(-573.572 -251.946)"><g transform="translate(573.573 251.946)"><path d="M823.379,377.4s7.849-1.943,11.488,3.961c3.1,5.031.794,8.948-3.792,14.684-1.487,6.72-16.409,19.38-16.409,19.38l-10.706-23.948L817.606,378.6Z" transform="translate(-612.104 -272.876)" fill="#3f79fe"/><path d="M772.461,691.351c.659,1.657,9.3,6.985,15.736,7.36,6.451.374,5.524-6.255,2.762-7.913-2.067-1.247-3.261-5.773-2.923-10.229l.018-.018a15.428,15.428,0,0,1,.321-2.246,13.087,13.087,0,0,1,.552-2.067c1.158-3.261-12.581-3.422-12.581-3.422s.018.767,0,1.907c-.018,2.94-.3,8.376-1.746,9.819a8.26,8.26,0,0,0-1.782,2.691A5.9,5.9,0,0,0,772.461,691.351Z" transform="translate(-606.797 -322.335)" fill="#f7c8b2"/><path d="M772.935,687.617c.588,2.727,9.214,3.8,6.273,2.62-2.994-1.212-3.314-3.083-3.314-3.083a36.935,36.935,0,0,0,2.8-6.255,15.527,15.527,0,0,0,9.463.053l.018-.018a15.42,15.42,0,0,1,.321-2.246l-2.958-1.764-9.071-1.818c-.017,2.94-.3,8.376-1.746,9.819A8.259,8.259,0,0,0,772.935,687.617Z" transform="translate(-606.915 -322.718)" fill="#edb7a2"/><path d="M727.065,667.435c-.184.239-4.334,6.564-4.236,8.216.2,3.445-1.463,3.792-1.452,6.027,0,.735.355,3.835.355,3.835s-4.414,5.518-13.242,4.414.551-7.541,1.839-9.012,3.176-8.092,3.727-8.644,1.422-4.781,2.894-10.3S727.065,667.435,727.065,667.435Z" transform="translate(-595.511 -320.262)" fill="#f7c8b2"/><path d="M792.073,343.236l2.715-10.87L782.8,328.312l-14.6,1.412-3.5,5.7Z" transform="translate(-605.537 -264.718)" fill="#406fc4"/><path d="M714.415,637.438a5.256,5.256,0,0,0,1.444,2.495,17.153,17.153,0,0,0,2.816,2.4,32.284,32.284,0,0,0,13.383,0,12.855,12.855,0,0,1,0-5.239c.66-2.281,20.618-48.336,25.821-61.078s12.477-45.14,13.722-55.218c1.621.66,0,15.361.321,24.824.321,9.481-2.62,57.168-4.241,67.308-1.64,10.121-2.62,27.1-2.62,27.1-1.639,1.318,0,4.58,0,4.58a11.365,11.365,0,0,0,2.851,1.3c5.4,1.764,13.152,1.318,13.152,1.318v-3.921c2.62-4.579,13.4-38.563,18.961-67.307,5.542-28.744,5.114-91.864,5.114-91.864l-11.315-.25-46.8-1s-7.449,27.782-8.108,32.343c-.642,4.58-13.063,60.108-15.023,67.629s-8.037,50.966-8.037,50.966Z" transform="translate(-597.128 -290.572)" fill="#242c45"/><path d="M714.415,637.438a5.256,5.256,0,0,0,1.444,2.495L718,635.228s6.4-33.7,9.088-51.554c2.531-16.716,21.848-77.432,24.343-85.719,1.621.41,5.292-2.671,12.9-1.833,20.208,2.263,37.013-6.486,37.013-6.486l-7.52-5.739-46.8-1s-7.449,27.782-8.108,32.343c-.642,4.58-13.063,60.108-15.023,67.629s-8.037,50.966-8.037,50.966Z" transform="translate(-597.128 -290.572)" fill="#242c45"/><path d="M786.8,333.189s4.342,3.7,8.8,4.978-9.667,10.967-9.667,10.967-16.853-5.537-18.752-10.967,5.341-4.978,5.341-4.978Z" transform="translate(-605.9 -265.532)" fill="#325cff"/><path d="M770.31,333.925c2.726,4.705,18,7.039,17.607,1.96-.178-2.209.463-5.9,1.247-9.373.909-4.027,2-7.751,2.228-8.5.018-.072.036-.125.036-.125,2.317-8.839-19.175-10.568-18.391-7.039a8.228,8.228,0,0,1,.09,2.014,115.757,115.757,0,0,1-1.372,12.331C771.023,329.916,770.31,333.925,770.31,333.925Z" transform="translate(-606.476 -261.511)" fill="#f7c8b2"/><path d="M772.044,325.941c5.132,2.6,17.41,1.318,17.41,1.318.909-4.027,2-7.751,2.228-8.5a8.09,8.09,0,0,0-2.228-1.283l-16.038-3.866A115.742,115.742,0,0,1,772.044,325.941Z" transform="translate(-606.766 -262.259)" fill="#edb7a2"/><path d="M803.972,281.23s1.956,26.6-5.477,34.036-26.994,3.129-31.688-8.215-3.13-28.168-3.13-28.168S801.234,262.843,803.972,281.23Z" transform="translate(-605.325 -255.367)" fill="#f7c8b2"/><path d="M758.68,283.676s.784,13.793,5.667,15.9a67.484,67.484,0,0,0-.57-10.817c-.784-4.687,1.943-11.156,4.3-9.588s-.855,11.245,2.281,10.853a2.195,2.195,0,0,0,1.5-1.283c1.854-3.154,2.513-10.942,5.061-10.728a30.8,30.8,0,0,0,12.456-1.3s12.421,6.736,20.689,2.87c5.757-2.673,6.042-12.225,2.62-16.359a.14.14,0,0,1-.018-.053,4.916,4.916,0,0,0-6.095-1.39s-9.32-12.742-19.228-7.984c0,0-3.475-3.475-4.6-.855,0,0-8.411-4.58-14.666,5.969C768.072,258.9,751.73,260.954,758.68,283.676Z" transform="translate(-604.243 -251.946)" fill="#223d72"/><path d="M770.272,286.605a3.894,3.894,0,0,0-5.51-3.021c-4.706,1.636-.424,16.778,2.756,15.96S770.272,286.605,770.272,286.605Z" transform="translate(-605.199 -257.179)" fill="#f7c8b2"/><path d="M753.59,367.475v87.587l1.479,4.883,4.241,2.6s.66.428,1.907,1.069a52.3,52.3,0,0,0,22.507,5.453c14.06.3,28.708-5.168,30.437-5.827.125-.054.178-.072.178-.072l-.909-12.742c8.464-37.441-10.871-97.6-10.871-97.6l-4.812-13.918-6.38,7.574-7.645,3.386-12.706-6.362-12.047-5.952Z" transform="translate(-603.68 -266.263)" fill="#d9e8fb"/><path d="M752.777,466.818l2.156,14.221,6.095,3.6v.018l.053.053c.142.072.285.142.445.231l.124.072a52.9,52.9,0,0,0,21.937,5.15c13.668.3,27.906-4.865,30.259-5.773-2.548.749-18.64,5.364-32.166,3.421-11.993-1.728-18.159-4.045-20.03-4.847V481.68h10.408v-9.124l-4.687-6.256-8.019-2.619Z" transform="translate(-603.544 -287.358)" fill="#a6caf4"/><path d="M818.251,453.63s-12.868,4.573-17.445,3.791c0,0,5.67-61.568,3.024-82.031s-3.024-24.7-3.024-24.7l-8.037,1.6,12.8-10.3,5.522,15.279Z" transform="translate(-610.232 -267.006)" fill="#a6caf4"/><path d="M807.852,403.143c-1,17.268-.937,50.772-.937,50.772s12.385.66,16.93-3.261c0,0,1.3-7.805,0-11.708,0,0,.944-8.144,1.621-17.5a180.107,180.107,0,0,0,.552-19.621c-.089-1.924-3.428-6.688-3.642-9.521-1.145-15.254,1.874-29.893,0-40.586-1.124-6.42-4.787-8.434-5.88-9.2a32.9,32.9,0,0,0-15.665-5.955S809.848,368.287,807.852,403.143Z" transform="translate(-611.581 -266.098)" fill="#3f79fe"/><path d="M808.094,338.56l2.423,2.388,2.548,8.75,1.033,5.81s-.819,12.724,4.419,17.25c1.158,7.591,0,30.723,0,30.723a44.225,44.225,0,0,0,5.382,16.091,16.447,16.447,0,0,0,2.78,2.21,180.121,180.121,0,0,0,.553-19.621c-.089-1.924-.25-4.384-.464-7.217l-5.791-26-6.594-26.891-3.582-1.96A10.9,10.9,0,0,0,808.094,338.56Z" transform="translate(-612.795 -266.432)" fill="#325cff"/><path d="M808.153,467.856s11.654,1.746,16.929-3.261h-13.4l1.568-8.233h7.574s-9.106-.57-9.142-3.1l.3-1.64-3.054-31.738Z" transform="translate(-612.805 -280.033)" fill="#325cff"/><path d="M745.791,441.263c1.96,4.883,1.96,12.742,1.96,12.742,10.888,2.94,26.036,0,26.036,0-1.016-7.288-1.8-14.9-2.388-22.543-3.172-40.506-1.105-81.956-1.105-81.956-8.393-5.47-16.021-15.824-18.818-11.708-1.925,2.816-4.633,20.671-6.986,37.3-1.087,7.645-2.1,15.04-2.922,20.582C738.966,413.232,745.791,441.263,745.791,441.263Z" transform="translate(-601.57 -266.147)" fill="#3f79fe"/><path d="M745.791,447.007c1.96,4.883,1.96,12.742,1.96,12.742,10.888,2.94,26.036,0,26.036,0-1.016-7.288-1.8-14.9-2.388-22.543l-1.3,15.717S758.337,452,754.292,449.7c0,0-6.112-45.371,0-69.428,4.152-16.377-4.116-7.057-9.8.57-1.087,7.645-2.1,15.04-2.922,20.582C738.966,418.976,745.791,447.007,745.791,447.007Z" transform="translate(-601.57 -271.89)" fill="#325cff"/><path d="M824.87,367.612s7.02,6.736,9.105,9.628-8.67-3.39-8.67-3.39l-1.466-3.964Z" transform="translate(-615.429 -271.291)" fill="#edb7a2"/><path d="M756.373,482.839l3.721,6.516s-3.393,9.723-12.852,13.675V488.393S755.3,480.961,756.373,482.839Z" transform="translate(-602.618 -290.511)" fill="#f7c8b2"/><path d="M736.816,464.746c-2.673,5.667,0,8.518,0,8.518a21.405,21.405,0,0,0,9.712-5.132,37.843,37.843,0,0,0,6.7-7.663,5.257,5.257,0,0,0-3.1-4.9s-17.589-37.244-8.091-64.581c19.214-33.944,12.849-46.048,12.849-46.048s-.719-10.359-7.562-7.08c-14.736,5.778-23.8,27.787-28.756,55v.072c-.071.338-.142.695-.2,1.051-.8,4.509-1.443,9.142-1.907,13.846C713.151,441.436,736.816,464.746,736.816,464.746Z" transform="translate(-597.418 -266.207)" fill="#3f79fe"/><path d="M806.061,337.256s.374.178.927.428v.017c1.354.66,3.76,1.943,4.33,2.834a.054.054,0,0,1,.018.035c.713,1.247,14.185,56.883,15,81.422,1.5,1.764,3.867-4.687,3.475-10.55-1.568-23.023-10.5-71.034-16.029-73.875-.943-.484-3.951-1.531-3.951-1.531-.73-.232-2.083-.544-2.883.241C806.716,336.508,806.061,337.256,806.061,337.256Z" transform="translate(-612.455 -265.966)" fill="#2041a1"/><path d="M766.608,699.957c0,2.263.446,4.135,1.569,4.847,3.385,2.138,19.424,6.237,25.305,7.128,5.9.891,11.583.713,14.1-1.6a5.126,5.126,0,0,0,1.658-3.03c.267-1.729-.413-4.783-1.736-6.024-5.281-4.956-11.671-3.325-15.975-9.324,0,0,.2-4.1-6.774-3.505-7.33.62-6.594,3.528-6.594,3.528s-5.292-1.408-5.417-4.277a12.8,12.8,0,0,0,1.238-1.364,6.447,6.447,0,0,0,.331-.864,4.033,4.033,0,0,0-.929.114,7.013,7.013,0,0,0-3.545,2.114C768.373,689.248,766.608,695.4,766.608,699.957Z" transform="translate(-605.857 -324.45)" fill="#2041a1"/><path d="M792.419,330.009s6.124-.062,8.384,2.448,4.268,7.531,4.268,7.531-.787,4.463-12.8,10.3a2.12,2.12,0,0,1-2.5-1.683c6.243-3.526,8.178-15.451,8.178-15.451a9.24,9.24,0,0,0-5.758-2.079Z" transform="translate(-609.73 -265.002)" fill="#c1d8fa"/><path d="M783.714,348.32s-15.34-6.391-17.116-15.148c0,0,.555-2.617,2.172-3.616v-1.244s-7.26.245-8.917,2.848c0,0-3.432-1.183-6.272,5.207,0,0,6.746,9.283,25.68,13.661,1.148.266,2.1.776,4.953-.644S783.714,348.32,783.714,348.32Z" transform="translate(-603.678 -264.718)" fill="#c1d8fa"/><path d="M834.119,378.764s6,3.694,4.788,7.692-3.1,4.33-6.842,3.3-6.092-4.816-5.156-7.072S827.866,377.289,834.119,378.764Z" transform="translate(-615.908 -273.092)" fill="#325cff"/><path d="M835.893,380.788c-3.39-4.719-15.641-13.118-18.315-10.556a1.8,1.8,0,0,0-.2,2.521c.546.961-.935.573-.919,2.232a7.14,7.14,0,0,0,1.427,3.855c1.06,1.356.014,2.522,2.427,4.946,2.279,3.095,7.157,2.459,11.043,3.09a4.3,4.3,0,0,0,4.735-2.622A3.269,3.269,0,0,0,835.893,380.788Z" transform="translate(-614.194 -271.649)" fill="#f7c8b2"/><path d="M766.608,702.867c0,2.263.446,4.135,1.569,4.847,3.385,2.138,19.424,6.237,25.305,7.128,5.9.891,11.583.713,14.1-1.6a5.126,5.126,0,0,0,1.658-3.03c0-1.56-1.415-1.491-2.742-1.106-1.944.565-4.949,3.388-8.2,3.44C786.817,712.758,766.608,702.867,766.608,702.867Z" transform="translate(-605.857 -327.36)" fill="#fff"/><path d="M680.854,699.932a1.614,1.614,0,0,1,0,.411,8.524,8.524,0,0,0,6.772,7.805c3.9.926,7.84,1.033,13.116,1.212s15.058-4.758,17.589-6.9c1.087-.927,1.407-2.958,1.407-5.221,0-2.976-.552-6.344-.552-7.965,0-2.851-1.8-3.528-1.8-3.528-.8,2.495-1.052,4.063-3.012,5.31s-3.974-1.6-3.974-1.6c-1.14-2.495-5.72-7.075-8.393-3.333s-15.094,10.443-18.195,10.443a2.678,2.678,0,0,0-2.495,1.515,1.534,1.534,0,0,0-.107.25A4.59,4.59,0,0,0,680.854,699.932Z" transform="translate(-591.515 -324.323)" fill="#2041a1"/><path d="M680.854,702.45a1.614,1.614,0,0,1,0,.411,8.524,8.524,0,0,0,6.772,7.805c3.9.926,7.84,1.033,13.116,1.212s15.058-4.758,17.589-6.9c1.087-.927,1.407-2.958,1.407-5.221,0,0-6.647,7.253-16.733,8.59-10.068,1.337-15.414-3.6-17-5.186-1.461-1.48-4.1-3.173-4.687-2.567a1.534,1.534,0,0,0-.107.25A4.59,4.59,0,0,0,680.854,702.45Z" transform="translate(-591.515 -326.841)" fill="#fff"/><path d="M736.816,476.071c-2.673,5.667,0,8.518,0,8.518a21.405,21.405,0,0,0,9.712-5.132l.107-.107s-5.287,1.048-7-.717c-2.309-2.379.533-5.823.533-5.823s-5.524-7.627-14.417-21.189c-7.306-11.156-7.449-36.068-7.271-44.551.018-.909.036-1.64.054-2.139l-.018.3-.142.072c-.8,4.509-1.443,9.142-1.907,13.846C713.151,452.761,736.816,476.071,736.816,476.071Z" transform="translate(-597.418 -277.532)" fill="#325cff"/><path d="M791.086,674.878s1.342,2.378,0,3.921-12.38.052-16-2.619c0,0-1.674-2.9,0-4.58C775.083,671.6,788.156,676.249,791.086,674.878Z" transform="translate(-607.15 -322.131)" fill="#2041a1"/><path d="M732.053,667.413s2.038,2.922,0,5.239c0,0-6.784,2.432-13.383,0,0,0-4.031-2.3-4.26-4.9a3.716,3.716,0,0,1,1.444-3.6S721.636,670.94,732.053,667.413Z" transform="translate(-597.124 -320.885)" fill="#2041a1"/><path d="M807.618,338.208c1.354.659,3.39,1.76,3.961,2.651-.125-.356-1.047-2.831-2.7-3.129A1.3,1.3,0,0,0,807.618,338.208Z" transform="translate(-612.716 -266.289)" fill="#242c45"/><path d="M652.5,429.266s1.164,6.161-4.268,12.029-43.912,7.926-57,4.648c-6.079-1.523-14.268-9.3-14.268-9.3s-4.584-13.919-1.481-23.231,18.435-44.815,18.435-44.815l5-29.682,19.369-1.552,18.887,21.485,9.119,26.239,4.268,28.713Z" transform="translate(-573.712 -266.231)" fill="#223d72"/><path d="M606.928,409.517l2.12.289-6.381,4.277S604.885,410.126,606.928,409.517Z" transform="translate(-578.439 -278.299)" fill="#2041a1"/><path d="M606.652,412.2l1.292-2.3,8.216-1.584s11.262-.773,14.064.2,7.3,1.959,7.3,1.959l-3.786,4.423Z" transform="translate(-579.105 -278.049)" fill="#93a4e0"/><path d="M614.442,396.922c.385,5.524,1.262,11.37,1.262,11.37,7.262,6.846,18.74-.754,15.956-4.693-1.185-1.677-2.093-4.785-2.724-7.8-.861-4.031-1.246-7.893-1.246-7.893s-11.232-3.431-12.879,0C614.134,389.321,614.165,393.045,614.442,396.922Z" transform="translate(-580.377 -274.43)" fill="#f7d0cb"/><path d="M614.442,396.922s5.17,5.093,10,2.739a12.49,12.49,0,0,0,4.493-3.862c-.861-4.031-1.246-7.893-1.246-7.893s-11.232-3.431-12.879,0C614.134,389.321,614.165,393.045,614.442,396.922Z" transform="translate(-580.377 -274.43)" fill="#eabbbb"/><path d="M600.088,368.967c5.062,14.693,12.978,16.886,19.706,16.556a12.607,12.607,0,0,0,6.068-1.929c7.4-4.519,11.791-16.128,14-25.758a74.628,74.628,0,0,0,1.765-11.164c1.022-15.517-5.062-10.141-13.671-15.715s-27.868,6.6-27.868,6.6S595.026,354.275,600.088,368.967Z" transform="translate(-577.631 -264.916)" fill="#f7d0cb"/><path d="M604.778,345.747s7.4-.907,11.1-3.809a22.346,22.346,0,0,0,11.675,6.4s4.419,8.146,4.518,16.111c.1,7.949-1.221,14.083-5.047,19.607,7.4-4.519,11.791-16.128,14-25.758l.363-11.906L618.58,332.241l-9.054,5.376Z" transform="translate(-578.792 -265.375)" fill="#eabbbb"/><g transform="translate(6.957 211.814)"><g transform="translate(6.993 125.055)"><path d="M612.985,656.47c-.371.651,5.714,17.9,7.529,21.368s3.334,6.259,3.334,6.259-11.934,8.716-16.681,8.591c2.614-3.776,3.687-8.313,3.464-10.974-.213-2.542-2.652-14.494-2.652-14.494Z" transform="translate(-593.14 -656.47)" fill="#f7d0cb"/><path d="M590.331,701.973a6.308,6.308,0,0,0,.05,1.186,7.25,7.25,0,0,0,.3,1.34c2.638,2.1,21.716-.045,25.5-2.494s10.181-6.733,10.666-8.886a2.792,2.792,0,0,0-.381-1.844,8.081,8.081,0,0,0-.521-.892,17.937,17.937,0,0,0-4.331-4.509c-1.428-.87-2.263-.136-2.263-.136l.461.939s-.187,4.74-5.519,3.283c-5.435-1.486-7.852-.451-8.88,1.54-1.444,2.789-1.894,3.717-7.2,4.361C592.447,696.58,590.47,699.376,590.331,701.973Z" transform="translate(-590.323 -661.317)" fill="#2041a1"/><path d="M590.393,704.329a7.25,7.25,0,0,0,.3,1.34c2.638,2.1,21.716-.045,25.5-2.494s10.181-6.733,10.666-8.886a2.792,2.792,0,0,0-.381-1.844c-.055.272-.7,2.689-8.639,7.805-8.487,5.463-21.2,5.343-23.51,4.931C592.651,704.883,591.184,704.547,590.393,704.329Z" transform="translate(-590.335 -662.487)" fill="#fff"/></g><path d="M583.528,610.778a3.419,3.419,0,0,0,.281.695l.133.236c1.951,3.12,9.995,24.694,13.854,36.094,1.656,4.953,5.412,18.719,5.929,21.912.118.74.355,1.538,1.02,1.094,1.124-.769,2.706-1.272,4.821-2.5a10.04,10.04,0,0,1,4.036-1.286,7.59,7.59,0,0,1,2.084-.03c3.031.547,2.1-2.6,1.671-3.652-.429-1.02-6.284-26.024-9.478-35.073-5.263-14.89-9.492-17.447-12.494-23.3a26.229,26.229,0,0,1-1.7-4.17v-.015c-.428-1.316-.916-1.922-1.434-2.07-1.035-.281-2.174,1.4-2.957,2.913a22.094,22.094,0,0,0-1.005,2.173C586.456,604.922,582.76,607.924,583.528,610.778Z" transform="translate(-582.177 -521.75)" fill="#243b5a"/><path d="M581.933,590.241v.059a7.393,7.393,0,0,0,1.345,5.027,2.884,2.884,0,0,0,2.4,1.2c1.449-.1,2.868.3,4.317-.163,1.2-.369,2.41-1.345,3.7-3.667a25.6,25.6,0,0,0,1.449-3.179c.326-.858.665-1.8,1.006-2.869.073-.237.147-.5.236-.754v-.015c3.045-9.433,10.5-35.442,15.983-49.311.237-.606.473-1.183.7-1.745,1.478-3.563,2.78-6.077,3.77-6.935a1.392,1.392,0,0,1,.3-.237c2.853-1.774-2.411-11.43-9.715-17.121-4.3-3.372-9.315-5.353-13.81-3.549,0,0-3.061,12.539-5.973,28.463-1.3,7.172-2.588,15.038-3.549,22.756C582.553,570.442,582.051,585.879,581.933,590.241Z" transform="translate(-581.927 -506.3)" fill="#243b5a"/><path d="M592.676,593.231s1.123,1.464,2.809,3.992c3.918,5.87,10.853,17.462,13.544,29.395,3.845,17.048,5.973,28.8,5.973,28.8l.148.68a7.59,7.59,0,0,1,2.084-.03c3.031.547,2.1-2.6,1.671-3.652-.429-1.02-6.284-26.024-9.478-35.073-5.263-14.89-9.492-17.447-12.494-23.3.326-.858.665-1.8,1.006-2.869.073-.237.147-.5.237-.754v-.015c3.045-9.433,10.5-35.442,15.983-49.311.237-.606.473-1.183.7-1.745l-3.031-5.974S598.235,569.663,593.8,587.79C593.3,589.875,592.913,591.708,592.676,593.231Z" transform="translate(-583.724 -510.828)" fill="#242c45"/></g><path d="M598.443,479.561l4.668,1.35,25.746,7.47s10.516.724,16.2-4.235a10.065,10.065,0,0,0,2.317-2.871c4.321-8.061-2-41.6-2-41.6-3.5-3.59-38.482-4.861-38.482-4.861L600.6,468.14l-.7,3.665Z" transform="translate(-577.732 -282.53)" fill="#2041a1"/><path d="M599.142,472.908l.879,2.5,3.208,9.105,25.746,7.47s10.516.724,16.2-4.235l-5.349,1.093-1.29-12.136,5.957-12.29,1.912-5.31-24.869-2.753-20.818,15.391Z" transform="translate(-577.849 -286.132)" fill="#223d72"/><g transform="translate(12.656 206.87)"><g transform="translate(26.293 135.357)"><path d="M625.577,662.9c.541.531.765,16.577-.636,20.765a6.387,6.387,0,0,0-.4,2.809,9.161,9.161,0,0,1-1.258,6.054s3.132,4.836,13.763,3.443c4.752-.622-1-5.3-1.257-8.016s-2.016-15.612-2.016-15.612Z" transform="translate(-620.836 -662.903)" fill="#f7d0cb"/><path d="M620.861,704.056c1.442,1.854,7.834,5.224,12.4,5.865,4.564.657,14.123,1.154,16.977-.714a7.149,7.149,0,0,0,.571-2.612c.083-2.752-1.512-5.458-5.314-7.211-5-2.305-5.562-3.742-8.168-5.775-1.857-1.452-4.283-1.216-9.229,1.454-4.93,2.672-4.245-.537-4.245-.537l-.022-1.109s-.734-.15-1.618,1.327a18.967,18.967,0,0,0-1.811,6.278A4.382,4.382,0,0,0,620.861,704.056Z" transform="translate(-620.344 -667.891)" fill="#2041a1"/><path d="M620.861,705.723c1.442,1.854,7.834,5.224,12.4,5.865,4.564.657,14.123,1.154,16.977-.714a7.149,7.149,0,0,0,.571-2.612s-6.275,2.329-16.551.868c-11.17-1.588-13.486-6.012-13.855-6.44A4.382,4.382,0,0,0,620.861,705.723Z" transform="translate(-620.344 -669.557)" fill="#fff"/></g><path d="M623.865,669.61c1.3.015,1.375-.37,4.539-1.079a9.443,9.443,0,0,1,3.83.206c.488.1.961.222,1.4.341,1.553.429,2.854.458,3.445-.8-1.39-13.914,5.427-37.765,3.919-60.505a153.249,153.249,0,0,1-.163-18.1v-.237c.1-1.435.222-2.751.341-3.919.014-.029,0-.059,0-.088a1.477,1.477,0,0,0,.044-.266.014.014,0,0,0-.015-.014c-.71-1.8-2.159-.562-3.8.99-.148.133-.311.281-.458.429-1.479,1.375-3.061,2.78-4.392,2.455-3.134-.754-7.422-7.689-7.422-1.39v.029c.044,16.663-1.257,20.966-1.493,31.76s1.227,32.885.547,41.609S623.348,668.6,623.865,669.61Z" transform="translate(-594.589 -514.394)" fill="#243b5a"/><path d="M613.25,523.554q.732,2.017,1.685,4.3a53.993,53.993,0,0,1,2.336,7.719c2.587,10.705,4.85,27.088,5.811,38.029v.029c.488,5.544.9,9.641,1.331,10.793,1.4,3.8,5.294,5.4,9.847,3.889a7.29,7.29,0,0,0,.74-.266c.118-.044.221-.1.34-.147,1.76-.74,2.766-5.515,3.445-12.257v-.237c.133-1.242.237-2.558.341-3.919.014-.029,0-.059,0-.088a.876.876,0,0,0,.029-.281c.917-12.258,2.854-28.788,4.125-40.292,1.3-11.71-.932-18.526-1.567-22.267a14.725,14.725,0,0,0-.991-3.712c-2.366-6.047-16.294-5.766-23.805-.458a13.4,13.4,0,0,0-4.6,5.146C610.574,513.2,611.136,517.654,613.25,523.554Z" transform="translate(-592.535 -500.362)" fill="#243b5a"/><path d="M588.77,534.451l1.8,11.43,8.339-26.067,10.572,3.741,8.783,3.1,7.274,36.432,6.875,2.6s-.4,2.425-.828,6.417c-.444,4.081-.931,9.788-1.094,16.205-.088,3.756-.074,7.763.133,11.828.9,17.744-1.981,51.072-1.981,51.072l-2.5,3.283.266.206c.488.1.961.222,1.4.341,1.553.429,2.854.458,3.445-.8-1.39-13.914,5.427-37.765,3.919-60.506a153.249,153.249,0,0,1-.163-18.1v-.237c.133-1.242.237-2.558.341-3.919.014-.029,0-.059,0-.088a1.479,1.479,0,0,0,.044-.266.014.014,0,0,0-.015-.014c.917-12.258,2.854-28.788,4.125-40.292,1.3-11.71-.932-18.526-1.567-22.267a14.725,14.725,0,0,0-.991-3.712c-2.366-6.047-16.294-5.766-23.805-.458a13.4,13.4,0,0,0-4.6,5.146c-4.3-3.372-9.315-5.353-13.81-3.549C594.743,505.988,591.682,518.527,588.77,534.451Z" transform="translate(-588.77 -500.362)" fill="#242c45"/></g><path d="M629.795,407.058s8.523,4.9,11.3,6.005c0,0-8.749,19.821-21.359,19.821s-16.622-20.238-16.622-20.238l12.06-5.589Z" transform="translate(-578.513 -277.888)" fill="#f7d0cb"/><path d="M595.693,470.8c-1.287,8.206-3.12,17.654-2.869,27.5.473.251.947.5,1.435.769,4.568,2.455,9.788,5.146,22.666,5.368q3.039.066,6.7-.089a29.006,29.006,0,0,1,3.474.162c3.992.356,8.4.843,9.611-2.765a97.092,97.092,0,0,1-6.358-34.613c.3-19.74,3.46-26.821,6.24-33.712,3.43-8.5,4.406-19.429,4.406-19.429l-5.811-3.15c-.724-.561-.99-.177-1.242.044-1.775,1.523-8.871,7.068-18.615,6.949-11.222-.147-9.8-7.555-9.8-7.555s-5.027,2.706-8.4,5.056a2.969,2.969,0,0,0-1.242,2.972,28.9,28.9,0,0,1,.665,6.4c-.266,2.144-7.157,14.5-1.893,24.781.1.236.237.488.37.724C597.793,455.052,597.038,462.238,595.693,470.8Z" transform="translate(-576.769 -278.427)" fill="#d9e8fb"/><path d="M594.611,515.252c.059-.843.192-2.957.355-5.826C594.744,512.251,594.641,514.394,594.611,515.252Z" transform="translate(-577.091 -295.008)" fill="#cce0ff"/><path d="M584.73,438.315c.576,9.255,6.683,22.534,6.683,22.534l1.553-11.311S591,441.2,591.679,437.013a3.325,3.325,0,0,0,.029-.37c.192-3.726-7.082-2.321-7.082-2.321A22.218,22.218,0,0,0,584.73,438.315Z" transform="translate(-575.416 -282.404)" fill="#3f79ff"/><path d="M626.5,451.018c.118,24.441,8.339,95.281,8.339,95.281a35.345,35.345,0,0,0,9,.62,28.794,28.794,0,0,0,10.172-2.321s-9.078-48.128-11.651-62.219c-1.833-10.01,3.652-33.194,6.461-48.142,1.153-6.122,1.863-10.853,1.435-12.76-1.464-6.55-1.819-7.275-10.705-11.355C639.556,410.121,626.337,419.111,626.5,451.018Z" transform="translate(-582.424 -278.4)" fill="#3f79ff"/><path d="M634.838,455.4l5.2,16.4a201.14,201.14,0,0,0,1.523,31.065c2.144,15.658,5.973,45.142,5.973,45.142l-2.38,3.755a28.793,28.793,0,0,0,10.172-2.321s-9.078-48.128-11.651-62.219c-1.833-10.01,3.652-33.194,6.461-48.142H645.47l-11.1,11.474,1.079,2.913Z" transform="translate(-583.74 -283.243)" fill="#325cff"/><path d="M646.194,412.9s.052-.381-.152-.475a17.747,17.747,0,0,1-2.9-1.519.273.273,0,0,0-.336.015c-1.365,1.138-10.582,9.434-8.953,24.744,1.758,16.524,10.832,30.089,10.832,30.089l1.167-5s-6.472-16.308-7.218-27.921C638.277,427.3,639.625,416.96,646.194,412.9Z" transform="translate(-583.622 -278.523)" fill="#2041a1"/><path d="M607.584,409.535a2.554,2.554,0,0,0-.828.5C607.214,409.757,607.48,409.594,607.584,409.535Z" transform="translate(-579.122 -278.302)" fill="#74394a"/><path d="M574.725,532.27a29.417,29.417,0,0,0,9.714,2.972,18.1,18.1,0,0,0,3.416.133c1.123-16.205,9.876-73.117,5.707-93.433.71-23.524,5.619-30.015,7.733-31.715a87.183,87.183,0,0,0-7.171,5.1c-5.146,3.992-3.224,15.525-4.45,24.234s1.064,19.473-.177,27.472C588.239,475.049,574.725,532.27,574.725,532.27Z" transform="translate(-573.765 -278.418)" fill="#3f79ff"/><path d="M592.154,430.9a1.984,1.984,0,0,1,.813,1.8,3.338,3.338,0,0,1-.029.37,18.457,18.457,0,0,0-.03,4.45c.947-4.361,3.18-14.608,3.889-17.226a14.966,14.966,0,0,1,5.767-9.019s.369-.843-.4-.754-2.218.976-2.868,1.094-4.821,2.558-6.24,9.552A39.622,39.622,0,0,0,592.154,430.9Z" transform="translate(-576.675 -278.467)" fill="#2041a1"/><path d="M573.6,415.456c.577,12.236,3.216,18.486,3.216,18.486s-2.639-15.418,1.006-25.032c3.281-8.674,9.284-18.783,12.665-26.005.379-.774.709-1.517,1.005-2.226a53.541,53.541,0,0,0,2.193-6.844c1.864-6.992,3.413-16.127,3.463-21.849a17.209,17.209,0,0,0-.247-3.463c-.4-1.945.825-3.4,2.656-4.617a31.086,31.086,0,0,1,3.841-2.094,32.972,32.972,0,0,0,4.848-2.606h.017c1.2-.89,2-1.863,2-3.034a28.679,28.679,0,0,0,4.139,3.743,21.231,21.231,0,0,0,3.1,1.9,11.715,11.715,0,0,0,4.832,1.336c1.583.049,2.8,1.319,3.776,3.3a41.394,41.394,0,0,1,2.573,8.245c1.138,5.013,2.094,10.373,3.644,13.044.313.527.66,1.072,1.022,1.583,1.534,2.275,3.43,4.452,5.178,6.662,2.227,2.836,4.255,5.739,5.062,9.07,1.6,6.546-2.622,18.634,0,23.861,2.622,5.244,12.2,19.491,4.518,29.665.545-.495,10.653-10.059,6.679-22.377-4.073-12.665,0-24.9-2.622-35.519a46.543,46.543,0,0,0-4.485-11,69.371,69.371,0,0,1-3.974-8.146,15.588,15.588,0,0,1-1.038-5.392,41.484,41.484,0,0,0-2.622-14.907c-.544-1.435-1.187-2.919-1.946-4.452a60.632,60.632,0,0,0-5.111-8.443c-.2-.281-.4-.56-.61-.858a14.431,14.431,0,0,0-4.3-3.957c-7.207-4.337-16.26-1.187-16.26-1.187a18.129,18.129,0,0,0-8.805-.2,11.75,11.75,0,0,0-5.788,3.331,10.208,10.208,0,0,0-.94,1.088,27.009,27.009,0,0,0-4.337,8.921,40.392,40.392,0,0,0-1.237,5.838c-1.369,9.465-.3,19.739-1.946,27.836a24.2,24.2,0,0,1-1.632,5.194c-.841,1.847-1.748,3.777-2.671,5.772C579.144,391.578,573.092,405.05,573.6,415.456Z" transform="translate(-573.573 -263.534)" fill="#223d72"/><path d="M647.3,436.8c4.229,4.835,13.514,33.134,19.517,32.884a9.086,9.086,0,0,0,2.233-.37c4.6-1.42,6.845-6.743,2.2-15.807-5.072-9.876-12.686-28.108-19.651-36.905l-.014-.015q-.577-.732-1.153-1.375C646.326,410.629,643.074,431.979,647.3,436.8Z" transform="translate(-585.572 -279.144)" fill="#3f79ff"/><path d="M652.866,417.01c.074.162.177.355.281.547a100.708,100.708,0,0,1,10.572,33.313l2.528,11.385,4.066,7.467c4.6-1.42,6.845-6.743,2.2-15.807C667.445,444.039,659.83,425.807,652.866,417.01Z" transform="translate(-586.834 -279.552)" fill="#325cff"/><path d="M629.971,440.652c.266,3.563,3.652,8.088,3.652,8.088l5.309,5.308,6.165-7.216a30.673,30.673,0,0,1-4.14-3.755c-.074-.68-.162-1.317-.266-1.864-.547-2.839.873-6.475,0-7.5s-.917-3.459-1.2-4.391a.939.939,0,0,0-1.064-.769,37.754,37.754,0,0,0-.459,4.791c-.8-.089-4.347-4.318-4.347-4.318s-.606-1.242-1.537-.621c-.947.621-.547,4.244-.547,4.244C630.665,433.614,629.7,437.089,629.971,440.652Z" transform="translate(-582.997 -281.43)" fill="#f7d0cb"/><path d="M636.034,455.87c.606.71,1.464,1.641,2.514,2.736,6.017,6.3,18.142,17.7,23.923,17.7,6.787,0,7.9-3.415,7.9-3.415a10.018,10.018,0,0,0,.71-6.314c-.932-4.347-4.762-8.177-10.173-10.793-7.91-3.83-17.137-9.4-17.137-9.4a6.245,6.245,0,0,1-.488,1.079,29.04,29.04,0,0,1-5.825,7.142C636.611,455.4,636.034,455.87,636.034,455.87Z" transform="translate(-584.019 -284.464)" fill="#3f79ff"/><path d="M639.053,461.061c6.017,6.3,18.142,17.7,23.923,17.7,6.787,0,7.9-3.415,7.9-3.415a10.017,10.017,0,0,0,.71-6.314c-.621,3.712-2.884,9.182-11.031,5.944C648.708,470.272,639.053,461.061,639.053,461.061Z" transform="translate(-584.524 -286.919)" fill="#325cff"/><path d="M644.806,463.095a1.052,1.052,0,1,0,1.2-.881A1.053,1.053,0,0,0,644.806,463.095Z" transform="translate(-585.484 -287.11)" fill="#4f394a"/><path d="M640.147,458.317a1.052,1.052,0,1,0,1.2-.881A1.052,1.052,0,0,0,640.147,458.317Z" transform="translate(-584.705 -286.311)" fill="#4f394a"/><path d="M584.633,434.322a7.93,7.93,0,0,0,1.463,1.33,7.237,7.237,0,0,0,2.81,1.213,5.552,5.552,0,0,0,2.011.06,2.631,2.631,0,0,0,.8-.281,1.915,1.915,0,0,0-.62-1.626c-1.065-.991-3.239-1.02-4.776-.917A14.5,14.5,0,0,0,584.633,434.322Z" transform="translate(-575.422 -282.404)" fill="#325cff"/><path d="M597.416,419.838s-.5-2.088-2.153-2.174-5.131,5.218-5.654,6.871-1.479,6,0,6.172,5.332-3.7,5.332-3.7l-.594,2.652a3.325,3.325,0,0,0,1.959-3.189,1.868,1.868,0,0,0,1.109-1.845s1.674-1.237.891-2.14S598.612,420.621,597.416,419.838Z" transform="translate(-576.123 -279.661)" fill="#f3c3c8"/><path d="M586.39,434.291a7.237,7.237,0,0,0,2.81,1.213,5.552,5.552,0,0,0,2.011.06l.177-1.908.591-6.077-2.78-1.656a43.584,43.584,0,0,0-2.587,6.816A7.78,7.78,0,0,0,586.39,434.291Z" transform="translate(-575.716 -281.043)" fill="#f7d0cb"/><path d="M586.39,541.611a18.1,18.1,0,0,0,3.416.133c1.123-16.205,9.876-73.117,5.707-93.433,0,0-.769,26.659-2.277,42.362S586.39,541.611,586.39,541.611Z" transform="translate(-575.716 -284.787)" fill="#325cff"/></g><g transform="translate(748.395 282.012)"><ellipse cx="1.242" cy="2.297" rx="1.242" ry="2.297" transform="translate(15.548 6.804)" fill="#223d72"/><path d="M785.48,297.475c0,1.268.556,2.3,1.243,2.3s1.242-1.028,1.242-2.3-.556-2.3-1.242-2.3S785.48,296.205,785.48,297.475Z" transform="translate(-783.836 -289.242)" fill="#223d72"/><path d="M798.552,308.261a7.6,7.6,0,0,1-5.318-.933,3.478,3.478,0,0,0,2.706,1.984C797.986,309.61,798.552,308.261,798.552,308.261Z" transform="translate(-785.132 -291.274)" fill="#d18268"/><g transform="translate(0 0)"><path d="M784.106,290.983a.6.6,0,0,0,.408-.16,4.825,4.825,0,0,1,3.509-1.564,3.6,3.6,0,0,1,2.343,1.157.6.6,0,0,0,.925-.766,4.828,4.828,0,0,0-3.189-1.588,5.89,5.89,0,0,0-4.405,1.881.6.6,0,0,0,.408,1.04Z" transform="translate(-783.505 -288.05)" fill="#223d72"/></g><g transform="translate(14.892 1.435)"><path d="M807.217,293a.588.588,0,0,0,.176-.027.6.6,0,0,0,.4-.745,3.643,3.643,0,0,0-2.2-2.363c-1.179-.326-2.528.211-4.008,1.581a.6.6,0,1,0,.816.88c1.136-1.052,2.128-1.5,2.872-1.3.964.258,1.371,1.541,1.374,1.554A.6.6,0,0,0,807.217,293Z" transform="translate(-801.388 -289.773)" fill="#223d72"/></g><path d="M799.67,314.646a8.127,8.127,0,0,1-2.566,3.209,5.267,5.267,0,0,1-2.941,1c-3.15.093-4.926-1.38-5.293-3.13a2.241,2.241,0,0,1-.042-.277,3.4,3.4,0,0,1-.005-.888,25.57,25.57,0,0,0,9.807.315C798.974,314.817,799.328,314.737,799.67,314.646Z" transform="translate(-784.39 -292.483)" fill="#7c3147"/><path d="M797.111,318.034a5.267,5.267,0,0,1-2.941,1c-3.15.093-4.926-1.38-5.293-3.13a2.241,2.241,0,0,1-.042-.277c.506.01,1.1.025,1.8.089A15.425,15.425,0,0,1,797.111,318.034Z" transform="translate(-784.397 -292.662)" fill="#a62733"/><path d="M798.624,314.879l-.317.943s-6.293,1.444-9.443-.092a3.408,3.408,0,0,1-.047-1.165A25.57,25.57,0,0,0,798.624,314.879Z" transform="translate(-784.389 -292.484)" fill="#fff"/></g><g transform="translate(595.979 339.411)"><g transform="translate(18.954 0.138)"><path d="M631.429,361.527a.735.735,0,0,0,.579-1.187c-.132-.169-3.29-4.122-8.2-3a.735.735,0,0,0,.331,1.433c3.994-.924,6.6,2.331,6.709,2.47A.74.74,0,0,0,631.429,361.527Z" transform="translate(-623.24 -357.143)" fill="#223d72"/></g><g transform="translate(0 0)"><path d="M601.214,360.723a.735.735,0,0,0,.541-.238c2.762-3.007,6.764-1.815,6.929-1.763a.735.735,0,0,0,.441-1.4c-.2-.063-5.047-1.538-8.453,2.172a.735.735,0,0,0,.541,1.232Z" transform="translate(-600.479 -356.977)" fill="#223d72"/></g><ellipse cx="1.265" cy="2.319" rx="1.265" ry="2.319" transform="translate(21.685 6.099)" fill="#223d72"/><ellipse cx="1.265" cy="2.319" rx="1.265" ry="2.319" transform="translate(4.822 6.099)" fill="#223d72"/><g transform="translate(13.042 24.251)"><path d="M617.7,388.565a12.465,12.465,0,0,0,7.033-1.78.368.368,0,1,0-.366-.638,10.946,10.946,0,0,1-7.755,1.516.368.368,0,0,0-.2.708A6.747,6.747,0,0,0,617.7,388.565Z" transform="translate(-616.14 -386.098)" fill="#863136"/></g><path d="M619.1,377.662a3.256,3.256,0,0,1-2.206.588,2.631,2.631,0,0,1-2.206-.89s.822,1.691,2.206,1.777S619.1,377.662,619.1,377.662Z" transform="translate(-602.856 -360.386)" fill="#eabbbb"/></g></g></svg>