<svg xmlns="http://www.w3.org/2000/svg" xmlns:xlink="http://www.w3.org/1999/xlink" width="416.356" height="401.986" viewBox="0 0 416.356 401.986"><defs><linearGradient id="a" x1="0.5" y1="-0.673" x2="0.5" y2="1.058" gradientUnits="objectBoundingBox"><stop offset="0" stop-color="#fff"/><stop offset="1" stop-color="#d8edff"/></linearGradient></defs><g transform="translate(-139.265 -622.324)"><path d="M483.065,829.173c-2.96,22.683-11.876,44.713-22.115,65.2C443,930.28,423.024,971.136,388.084,993.452c-39.328,25.118-89.244,17.394-129.158-1.817-42.013-20.22-81.382-54.219-102.494-96.326-22.783-45.44-21.286-102.564-4.908-149.79,8.4-24.224,22.86-48.553,46.491-60.54,15.73-7.939,34.744-11.3,52.064-13.014a279.012,279.012,0,0,1,142.294,23.72c40.379,18.394,79.32,49.891,89.3,95.169A110.368,110.368,0,0,1,483.065,829.173Z" transform="translate(0 14.748)" fill="url(#a)"/><g transform="translate(219.683 622.324)"><g transform="translate(125.656 106.96)"><g transform="translate(0 11.943)"><path d="M311.75,745.567s-24.478-17.179-10.038-24.082c7.847-6.425,7.541-10.063,14.439-6.9s40.967,30.489,65.158,47.463c0,0,9.751-6.277,14.12-1.882,6.232-3.782,23.389-6.15,27.69,14.168,3.542,16.73-9.487,31.472-42.7,18.36C370.554,788.8,324.587,767.734,311.75,745.567Z" transform="translate(-297.153 -713.424)" fill="#325cff"/></g><g transform="translate(88.828)"><path d="M434.059,745.964S448.6,740.1,453.2,735.057c10.667-11.71,12.831-20.566,12.407-23.453s-5.569-7.33-5.569-7.33a1.186,1.186,0,0,0-1.052.58L450.815,715.9l-13.925,9.979Z" transform="translate(-344.199 -704.274)" fill="#f7c8b2"/><path d="M433.881,732.673l-1.458-5.775s9.51-19.663,12.814-20.5,2.651,2.668,1.6,5.051c-1.278,2.905-3.408,10.469-3.408,10.469l-8.06,8.912Z" transform="translate(-344.698 -703.663)" fill="#f7c8b2"/><path d="M371.013,749.848c-6.2,5.812-8.841,19.3-.709,26.741,10.312,9.431,17.794,7.87,23.658,5.109s8.471-11.941,3.709-21.6C390.409,745.377,378.563,742.771,371.013,749.848Z" transform="translate(-365.211 -691.515)" fill="#6ca4ff"/><path d="M379.488,758.5s62.913-28.328,71.378-35.736,22.064-.867,3.114,20.076c-8.48,9.371-61.37,46.82-66.981,44.922C379.761,785.313,361.928,766.048,379.488,758.5Z" transform="translate(-363.142 -699.529)" fill="#f7c8b2"/></g></g><path d="M353.6,878.875c0,3.67-.02,8.6-.073,14.471-.108,11.42-.356,26.395-.9,42.574a108.154,108.154,0,0,1-38.844,12.07,125.174,125.174,0,0,1-15.882.881c.269-8.247.254-14.626-1.1-15.183-.444,3.583-1.338,8.845-2.554,15.117a136.311,136.311,0,0,1-19.283-2.063q-3.105-.556-6.171-1.25c-2.883-.638-5.753-1.365-8.589-2.178-.241-.06-.476-.128-.713-.2-.57-.162-1.149-.33-1.72-.5q-2.2-.656-4.375-1.385c-1.519-.5-3.038-1.022-4.545-1.566q-4.9-1.776-9.691-3.824c.376-1.8.711-3.435,1.014-4.88.572-2.8.982-4.88,1.183-6.063.04-.241.074-.444.1-.612.632-4.4,4.994-21.515,8.63-35.461,2.755-10.573,5.1-19.318,5.1-19.318l1.848.04,40.1.854,29.217.625,8.086.175.794.021,14.1.308,4.268.094S353.619,874.245,353.6,878.875Z" transform="translate(-189.195 -546.889)" fill="#325cff"/><path d="M301.8,908.853s-.484,10.633-1.487,27.127a125.162,125.162,0,0,1-15.882.881c.269-8.247.254-14.626-1.1-15.183C283.325,921.678,299.046,912.295,301.8,908.853Z" transform="translate(-175.717 -534.878)" fill="#1f4cdb"/><path d="M347.166,880.912l-.04.021a95.732,95.732,0,0,1-11.782,4.819,123.76,123.76,0,0,1-37.687,6.762,103.851,103.851,0,0,1-13.167-.619c-12.885-1.419-19.1,3.771-21.851,3.079-.141.476-.322,1.061-.523,1.74-1.607,5.223-5.034,16.173-9.263,29.9-.557,1.815-1.129,3.683-1.72,5.586q-1.108,3.639-2.279,7.461-4.9-1.776-9.691-3.824c.376-1.8.711-3.435,1.014-4.88.572-2.8.982-4.88,1.183-6.063.04-.241.074-.444.1-.612.632-4.4,4.994-21.515,8.63-35.461,2.755-10.573,5.1-19.318,5.1-19.318l1.848.04,40.1.854,29.217.625,8.086.175.794.6,10.714,8.181Z" transform="translate(-189.195 -546.889)" fill="#1f4cdb"/><g transform="translate(77.443 111.474)"><path d="M301.269,707.732s7.353,6.266,14.909,8.43-16.372,18.572-16.372,18.572-36.022-5.559-39.238-14.754S277.1,707.732,277.1,707.732Z" transform="translate(-260.214 -707.732)" fill="#f7c8b2"/></g><g transform="translate(89.599 78.63)"><path d="M269.527,724.548c4.618,7.967,30.48,11.92,29.817,3.319-.3-3.742.784-9.989,2.112-15.874,1.539-6.821,3.38-13.128,3.772-14.395.031-.121.061-.211.061-.211,3.922-14.969-32.473-17.9-31.144-11.92a13.864,13.864,0,0,1,.15,3.41c-.09,4.979-1.206,13.429-2.323,20.883C270.734,717.757,269.527,724.548,269.527,724.548Z" transform="translate(-269.527 -682.568)" fill="#f7c8b2"/></g><path d="M271.4,708.285c8.691,4.406,29.484,2.233,29.484,2.233,1.539-6.821,3.38-13.128,3.772-14.395a13.7,13.7,0,0,0-3.772-2.173L273.723,687.4C273.633,692.381,272.517,700.831,271.4,708.285Z" transform="translate(-179.357 -602.463)" fill="#edb7a2"/><path d="M251.462,764.532V912.859l2.5,8.268,2.263,1.389,4.919,3.018s1.116.724,3.229,1.81c.483.241,1,.514,1.569.786.664.331,1.419.663,2.233,1.026a87.146,87.146,0,0,0,12.253,4.315c.724.181,1.479.363,2.263.574a95.543,95.543,0,0,0,11.075,1.93c2.777.333,5.674.544,8.723.6a115.154,115.154,0,0,0,20.28-1.539c3.892-.634,7.635-1.419,11.075-2.235,2.807-.663,5.4-1.357,7.757-2.022,6.64-1.9,11.286-3.621,12.433-4.073.211-.091.3-.121.3-.121L352.8,905.012a152.947,152.947,0,0,0,3.38-27.07c.361-7.182.3-14.576-.031-22v-.272c.241-14.3-2.293-44.091-5.069-72.006v-.03c-1.479-14.606-3.018-28.7-4.255-39.776-2.988-14.726-6.609-18.318-8.208-20.7-1.812-2.747-5.191-5.524-9.084-7.937-4.406-1.51-9.114-2.807-12.916-3.773v-.03l-.211-.03c-2.173-.573-4.013-1.026-5.312-1.357a4.135,4.135,0,0,0-1.146-.061,1.734,1.734,0,0,0-.393.03c-1.026.031-2.052.241-1.72.6,1.9,2.323,3.953,6.187,2.9,9.144-.724,2.143-3.109,3.8-8.268,4.1a28.74,28.74,0,0,1-18.47-5.462,43.663,43.663,0,0,1-10.05-10.23,1.051,1.051,0,0,0-.784-.3,8.252,8.252,0,0,0-2.475.513c-.694.211-1.3.423-1.629.543L261.9,711.3l-2.143.693h-.03a1.125,1.125,0,0,0-.271.121l-3.863,1.267s.061.09.151.242c.392.724,1.72,2.988,3.712,6.428l-.453,2.475-.393,2.263L255.657,741.2l-.393,2.173v.091l-1.75,9.566-1.66,9.326Z" transform="translate(-185.442 -596.221)" fill="#d9e8fb"/><g transform="translate(121.79 111.332)"><path d="M294.191,707.776a13.386,13.386,0,0,1,2.716,2.263c2.836,2.867,7.454,8.994,11.619,21.156v.03c1.086,3.108,2.142,6.64,3.108,10.593.181.724.363,1.479.513,2.233,1.087,4.586,2.053,9.717,2.867,15.481.03.3.09.6.12.906.121.724.211,1.479.3,2.263.663,5.342,1.206,11.257,1.629,17.654q.092,1.132.181,2.264c.332,5.4.573,11.1.814,17.05,0,.754.03,1.51.061,2.265.18,5.734.3,11.679.422,17.774,0,.754,0,1.509.03,2.263.091,7.092.121,14.4.151,21.759v2.264c.03,5.914,0,11.89-.03,17.805,0,.754,0,1.509-.03,2.233-.03,7.3-.061,14.575-.121,21.727,0,.754,0,1.509-.03,2.263-.03,6.067-.06,12.012-.06,17.805q-.045,1.132,0,2.263c-.03,8.21-.03,16.025.06,23.3.03,4.014.393,8.359.453,12.01a4.951,4.951,0,0,0,3.048.906,13.194,13.194,0,0,0,1.872-.03,44.33,44.33,0,0,0,9.869-2.445q1.177-.362,2.263-.814c5.462-2.023,10.019-4.226,10.019-4.226s.784-13.7.724-33.135c0-.755,0-1.54-.03-2.325,0-5.612-.12-11.679-.332-17.987-.03-.754-.06-1.509-.091-2.293-.06-2.2-.15-4.436-.272-6.67q-.362-7.152-.814-14.395c-.03-.754-.09-1.509-.151-2.263-.392-5.945-.814-11.89-1.237-17.745l-.18-2.263c-.544-7.242-1.117-14.365-1.69-21.184-.06-.754-.121-1.509-.181-2.233q-.769-9.28-1.419-17.715c-.06-.784-.12-1.539-.18-2.293-.271-3.622-.514-7.062-.724-10.351,0,0-.333-2.656-.846-6.67q-.135-1.087-.271-2.263c-.663-5.041-1.479-11.529-2.293-17.474-.09-.784-.181-1.539-.3-2.263-.816-6.187-1.57-11.467-1.962-13.339-.241-1.116-.453-2.173-.694-3.138-.181-.786-.362-1.51-.543-2.2-2.686-10.321-5.584-13.309-6.971-15.361a26.177,26.177,0,0,0-6.761-6.4c-.754-.543-1.509-1.057-2.323-1.539-.724-.453-1.419-.876-2.173-1.3h-.03c-.573-.331-1.177-.633-1.75-.966l-.03-.03a64.563,64.563,0,0,0-7.7-3.349h-.03a34.273,34.273,0,0,0-3.682-1.177h-.03C298.2,707.716,295.79,707.414,294.191,707.776Z" transform="translate(-294.191 -707.623)" fill="#3f79fe"/></g><g transform="translate(120.495 103.7)"><path d="M308.842,733s.878-5.683,6.155-3.7,6.262,4.952,6.262,4.952-2.323-19.511-18.491-27.583l-7.5-4.891-2.069,9.337S302.033,716.563,308.842,733Z" transform="translate(-293.199 -701.776)" fill="#325cff"/></g><path d="M330.752,657s.3,42.463-11.189,56.057c-13.849,16.38-43.8,6.882-51.749-12.331s-5.3-47.7-5.3-47.7S326.115,625.862,330.752,657Z" transform="translate(-182.198 -616.304)" fill="#f7c8b2"/><path d="M258.67,662.9a136.225,136.225,0,0,0,5.039,23.6.721.721,0,0,1,.06.242c1.237,4.013,2.293,7,2.807,8.36.12.362.21.6.24.694,0,.03.031.03.031.06,3.591,5.855.543-20.793-.363-28.307.03-.03.03-.03.06-.03,5.312-.724,5.825,3.953,6.519,5.432.724,1.477,2.142,10.8,5.009,8.66,2.838-2.142-.3-16.115,2.173-25.862,2.475-9.717,18.137-2.836,18.137-2.836,4.013,7.484,13.61,6.185,13.61,6.185,2.837,4.769,10.321,9.537,17.171,8.421s7.424-6.609,7.424-6.609c4.588-1.69,8.661-10.774,2.566-17.081-8.571-8.813-15.965-3.47-15.965-3.47-17.865-10.352-64.521,2.022-64.521,2.022S256.95,646.936,258.67,662.9Z" transform="translate(-183.475 -618.08)" fill="#223d72"/><path d="M262.4,674.93c.906,3.863,1.932,7.213,3.048,9.054-.03-.091-.12-.333-.24-.694C264.691,681.932,263.635,678.943,262.4,674.93Z" transform="translate(-182.104 -606.269)" fill="#974a5b"/><path d="M325.958,644.61c-13.3.3-28.748,1.779-46.129,16.182-9.69,8.028-10.207,22.846-13.3,30.193.693,2.2-1.712.762-2.565-.358-2.147-2.821-5.464-5.687-5.055-10.308,0,0-10.653-4.411-10.011-11.547,1.641-18.193,5.157-47.672,43.5-46.409,23.21.765,28.719,10.417,28.719,10.417s8.629,3.577,10.746,10.222A11.976,11.976,0,0,0,325.958,644.61Z" transform="translate(-186.233 -622.324)" fill="#5282ce"/><path d="M271.376,663.73s-2.174-8.314-8.836-3.136c-5.462,4.246,1.9,23.829,7.286,22.443S271.376,663.73,271.376,663.73Z" transform="translate(-182.648 -611.162)" fill="#f7c8b2"/><path d="M269.524,646.3" transform="translate(-179.929 -615.007)" fill="#6d8dd9"/><g transform="translate(57.449 109.462)"><path d="M244.9,933.828a27.348,27.348,0,0,0,10.653,10.622c.694.393,1.449.754,2.233,1.117a28.99,28.99,0,0,0,7.122,2.082c.874.151,1.78.273,2.686.363.693.09,1.387.151,2.082.212,3.229.3,6.488.422,9.6.422,1.086,0,2.142,0,3.169-.03.483,0,.935-.03,1.387-.03,7.092-.241,12.283-.936,12.283-.936-.09-1.146-.211-5.1-.333-11.166-.15-5.069-.3-11.619-.452-19.253,0-.634-.031-1.239-.031-1.9v-.03c-.12-5.524-.24-11.559-.362-17.957-.03-.694-.03-1.357-.06-2.052-.121-5.522-.211-11.347-.333-17.293-.03-.754-.03-1.509-.06-2.263-.12-6.458-.241-13.128-.362-19.827-.03-.754-.03-1.509-.06-2.263-.121-6.519-.241-13.068-.363-19.586,0-.754-.03-1.48-.03-2.234-.121-6.1-.241-12.13-.363-18.016,0-.754-.03-1.479-.03-2.233-.12-6.187-.241-12.223-.362-17.957,0-.754-.03-1.479-.03-2.2-.151-7.7-.3-14.848-.423-21.215-.03-.754-.03-1.51-.06-2.264-.151-8.268-.3-15.089-.423-19.8,0-.814-.03-1.569-.06-2.263q-.045-2.263-.09-3.531a58.444,58.444,0,0,0-2.536-14.606c-.241-.784-.483-1.539-.724-2.293-.814-2.355-1.659-4.528-2.565-6.549a77.543,77.543,0,0,0-6.941-12.7c-1.327.393-2.836.876-4.436,1.449-.724.241-1.479.513-2.263.784-2.837,1.026-5.825,2.173-8.51,3.229-.724.271-1.419.573-2.083.844h-.03a1.127,1.127,0,0,0-.271.121c-1.449.573-2.716,1.086-3.712,1.509-1.479.6-2.355.966-2.355.966s-.392,1.84-.9,5.039c-.151.816-.3,1.69-.423,2.656q-.18,1.042-.362,2.263c-.091.6-.181,1.207-.241,1.872-.544,3.832-1.117,8.45-1.54,13.581q-.135,1.087-.18,2.263c-.483,5.945-.786,12.523-.724,19.374-.03.784,0,1.539.03,2.353v.031c.03,3.138.181,6.337.392,9.536,0,.333.031.664.061,1,.21,2.535.331,5.765.361,9.567v.03c.03.814.03,1.6.03,2.475,0,4.436-.06,9.537-.181,15.089,0,1.026-.03,2.052-.06,3.108-.12,5.131-.3,10.593-.513,16.3-.06,1.117-.09,2.233-.12,3.38-.271,6.4-.574,13.008-.906,19.737v.03c-.03.966-.06,1.932-.12,2.928-.3,6.247-.634,12.553-.966,18.71q-.092,1.539-.181,3.079c-.271,5.159-.573,10.23-.846,15.119-.06,1.237-.15,2.445-.21,3.651-.271,4.708-.544,9.235-.816,13.46-.09,1.6-.21,3.169-.271,4.678C245.649,922.782,244.9,933.828,244.9,933.828Z" transform="translate(-244.895 -706.191)" fill="#3f79fe"/></g><g transform="translate(85.835 100.894)"><path d="M284.383,736.167s-4.863-7.2-8.164-6.544a73.437,73.437,0,0,0-9.574,3.251s.112-13.6,0-20.375a15.427,15.427,0,0,1,6.918-12.873l-1.146,7.7S280.993,715.972,284.383,736.167Z" transform="translate(-266.643 -699.626)" fill="#325cff"/></g><path d="M214.884,869.5s13.352,18.873,14.612,23.534.629,13.1-2.268,13.731S209.468,877.079,214.884,869.5Z" transform="translate(-196.964 -546.888)" fill="#f7c8b2"/><g transform="translate(0 354.385)"><path d="M273.091,919l-.968,12.556c-2.883-.638-5.753-1.365-8.589-2.178-.241-.06-.476-.128-.713-.2-.57-.162-1.149-.33-1.72-.5q-2.2-.656-4.375-1.385c-1.519-.5-3.038-1.022-4.545-1.566q-4.9-1.776-9.691-3.824c-4.827-2.057-9.566-4.323-14.229-6.749,5.484.693,10.666,1.331,15.243,1.869,4.261.51,7.992.934,10.956,1.244,1.485.154,2.776.282,3.845.376,2.258.182,3.5.241,3.468.094l11.312.269Z" transform="translate(-192.523 -887.341)" fill="#223d72"/><path d="M266.435,918.482l-.968,12.556c-2.883-.638-5.753-1.365-8.589-2.178l.685-5.243-1.4,5.042c-.57-.162-1.149-.33-1.72-.5q-2.2-.656-4.375-1.385l1.579-8.651.241-1.263,14.539,1.626Z" transform="translate(-185.867 -886.82)" fill="#223d72"/><path d="M276.108,920.7l-10.008.679s-.76,3.489-1.976,8.994q-2.2-.656-4.375-1.385c-1.519-.5-3.038-1.022-4.545-1.566q-4.9-1.776-9.691-3.824c-4.827-2.057-9.566-4.323-14.229-6.749-4.383-2.277-8.7-4.718-12.932-7.272,2.392.209,4.806.424,7.218.653,1.028.094,2.057.195,3.079.295,2.749.269,5.478.546,8.167.841l2.93.322c2.729.316,5.39.64,7.964.968,4.127.544,8.006,1.116,11.494,1.72C269.83,916.207,276.821,918.33,276.108,920.7Z" transform="translate(-195.546 -889.041)" fill="#223d72"/><path d="M231.277,901.438l1.651,13.336,2.13.32,1.19-.811-2.309-14.2Z" transform="translate(-191.602 -891.939)" fill="#223d72"/><path d="M244.964,912.7a1.17,1.17,0,0,1-.706.289l-2.473.162h-.014a1.227,1.227,0,0,1-1.216-.813l-1.761-10.633a4.322,4.322,0,0,0-3.771-2.883l-2.279-.162-.5-.034-2.48-.174-20.11-1.432-.235-.014a4.33,4.33,0,0,0-4.154,2.347l-.651,2.386c-1.25-.907-2.5-1.822-3.737-2.749.5-1.534.873-2.6.873-2.6a4.334,4.334,0,0,1,4.14-2.541l3.192.147,18.141.828,4.53.208,1.9.087,5.229.243a4.316,4.316,0,0,1,3.892,2.93l2.561,13.094A1.21,1.21,0,0,1,244.964,912.7Z" transform="translate(-200.879 -893.844)" fill="#223d72"/></g><g transform="translate(4.454 117.295)"><path d="M239.861,812.531s0,17.959-3.762,30.323c-2.539,8.347-15.042,24.407-15.878,52.671-.235,7.946-6.573,23.2-13.3,2.657-6.877-20.993,1.116-75.66,8.3-92.256S237.354,802.723,239.861,812.531Z" transform="translate(-204.291 -685.98)" fill="#f7c8b2"/><path d="M212.663,830.746c1.6.756,3.2,1.419,4.768,2.083.724.3,1.419.573,2.113.845,3.772,1.479,7.514,2.807,11.166,4.195.724.242,1.449.513,2.143.816,1.327.483,2.625,1.026,3.892,1.569.724.271,1.419.573,2.113.906.844.362,1.69.754,2.5,1.176.814-4.1,2.836-9.566,5.191-15.239.09-.241.211-.483.3-.724.271-.694.573-1.389.876-2.082.09-.243.211-.484.3-.724,1.569-3.682,3.2-7.334,4.618-10.653.09-.181.15-.333.21-.483.363-.816.694-1.6,1.027-2.325l.18-.453c.876-2.142,1.66-4.1,2.233-5.734,1.509-2.656,2.928-5.221,4.225-7.725.513-.966,1-1.932,1.479-2.867.03-.03.03-.09.061-.12v-.03c.12-.211.24-.453.362-.664,2.325-4.616,4.315-8.933,6.035-13.006.241-.513.453-1.027.664-1.54.181-.422.363-.875.543-1.3.03-.06.03-.09.061-.151,1.659-4.134,3.048-7.937,4.164-11.527l.724-2.445v-.03c.121-.3.211-.6.3-.906v-.03c.03-.06.03-.12.06-.181,1-3.531,1.72-6.76,2.263-9.717.12-.6.211-1.177.3-1.75.181-1.147.363-2.263.483-3.319.06-.544.121-1.057.181-1.57a47.887,47.887,0,0,0-.483-14.878,3.446,3.446,0,0,0-.121-.6c-.09-.393-.3-2.022-.784-4.165a35.027,35.027,0,0,0-2.263-6.941,13.9,13.9,0,0,0-1.267-2.293,8.575,8.575,0,0,0-4.406-3.712,6.735,6.735,0,0,0-2.836-.181,9.276,9.276,0,0,0-2.746.874,37.693,37.693,0,0,0-7.605,4.045h-.03c-.061.03-.091.06-.151.09h-.03a37.917,37.917,0,0,0-3.983,3.079h-.03c-.241.18-.483.392-.724.6l-.03.03a67.249,67.249,0,0,0-12.012,14.456c-.12.15-.211.331-.332.513q-1.042,1.674-2.083,3.44v.03c-1.327,2.263-2.595,4.647-3.8,7.182-1.146,2.323-2.233,4.768-3.289,7.3-.181.423-.332.815-.513,1.237-.423,1.026-.846,2.052-1.237,3.109v.03c-.393,1-.784,1.992-1.147,3.018q-1.9,5.251-3.621,10.864c-.031.12-.061.211-.091.332-.3.906-.573,1.812-.814,2.746-.091.333-.181.634-.271.966-1.449,4.979-2.746,10.17-3.953,15.512-.03.181-.091.362-.121.573-.18.754-.332,1.509-.513,2.295-.03.21-.09.391-.12.6-.784,3.622-1.509,7.334-2.2,11.076,0,0-.091,1.176-.211,3.018a6.59,6.59,0,0,0-.03.784c-.06.634-.121,1.359-.151,2.082-.03.273-.03.574-.06.876C213.659,819.732,212.964,829.269,212.663,830.746Z" transform="translate(-201.736 -712.192)" fill="#3f79ff"/><g transform="translate(3.876 112.507)"><path d="M240.474,809.626s6.792,1.4,6.393,5.594-4.332,11.05-4.363,14.1-1.63,4.572-13.218,0-17-5.583-22-8.787c0,0-.372-4.55,2.026-12.552s2.4-10.811,5.993-9.112S235.722,807.468,240.474,809.626Z" transform="translate(-207.261 -798.392)" fill="#6ca4ff"/></g><path d="M205.1,870.865s.928,34.206,5.581,42.048c0,0,4.228,3.049,5.657,1.258.713,1.383,2.678,4.124,5.495.9,1.1,1.949,2.417,2.843,3.743,1.25s2.03,1.458,4.418,1.458,2.845-2.331,1.518-10.028-11.458-27.59-12.5-36.882S207.078,864.764,205.1,870.865Z" transform="translate(-204.045 -665.547)" fill="#f7c8b2"/></g></g><g transform="translate(331.061 711.985)"><path d="M286.585,692.466a.772.772,0,0,1,.6-1.4c10.714,4.387,18.87.289,18.953.248a.6.6,0,0,1,.864.341.852.852,0,0,1-.4,1c-.351.183-8.743,4.43-20-.179Z" transform="translate(-286.214 -691.02)" fill="#863136"/></g><g transform="translate(351.084 666.95)"><path d="M315.013,664.327a1.316,1.316,0,0,1-1.074-.754c-1.121-2.383-2.58-3.819-4.338-4.264-2.927-.757-5.914,1.39-5.944,1.413a1.32,1.32,0,0,1-1.564-2.126c.163-.119,4.006-2.886,8.157-1.848,2.559.653,4.6,2.569,6.077,5.7a1.321,1.321,0,0,1-1.314,1.876Z" transform="translate(-301.555 -656.515)" fill="#223d72"/></g><path d="M289.014,669.226c-.059,2.489-1.344,4.478-2.87,4.442s-2.715-2.083-2.655-4.572,1.343-4.478,2.869-4.442S289.074,666.737,289.014,669.226Z" transform="translate(44.015 12.919)" fill="#223d72"/><path d="M309.108,670.733c-.437,2.321-1.946,3.986-3.37,3.717s-2.221-2.368-1.783-4.69,1.946-3.985,3.369-3.717S309.545,668.411,309.108,670.733Z" transform="translate(50.225 13.334)" fill="#223d72"/><g transform="translate(323.096 665.468)"><g transform="translate(0)"><path d="M281.308,661.61a1.319,1.319,0,0,1-.932-2.107c.123-.162,3-3.931,7.283-4.115,2.639-.12,5.149,1.137,7.459,3.713a1.319,1.319,0,1,1-1.964,1.761q-2.635-2.939-5.381-2.836c-3,.128-5.264,3.035-5.286,3.063A1.317,1.317,0,0,1,281.308,661.61Z" transform="translate(-280.112 -655.38)" fill="#223d72"/></g></g></g></svg>