<svg xmlns="http://www.w3.org/2000/svg" width="361.801" height="459.218"><defs><linearGradient id="a" x1=".5" y1="-.38" x2=".5" y2="1.018" gradientUnits="objectBoundingBox"><stop offset="0" stop-color="#fff"/><stop offset="1" stop-color="#d8edff"/></linearGradient></defs><path d="M488.344 1759.537c-9.4 31.371-26.893 62.351-54.512 81.042a149.714 149.714 0 01-34.872 17.827c-17.994 6.3-36.448 8.564-58.445 9.694-30.757 1.576-62.156 3.682-92.229-1.772a163.156 163.156 0 01-19.291-4.673c-24.745-7.644-42.53-20.5-54.93-36.741-32.738-42.878-27.619-104.225-17.687-153.952 9.848-49.295 24.006-110.5 70.678-138.023a102.444 102.444 0 0129.181-11.4c1.813-.419 3.655-.8 5.5-1.116a5.66 5.66 0 01.67-.126c2.134-.39 4.3-.711 6.458-.99a1.231 1.231 0 00.237-.028c.767-.1 1.534-.181 2.288-.251.432-.056.865-.1 1.283-.139.907-.1 1.813-.167 2.72-.237.432-.042.865-.07 1.3-.1a.207.207 0 01.1-.014c1.7-.125 3.4-.209 5.119-.265 1.8-.07 3.6-.112 5.4-.112 2.106-.014 4.213.028 6.3.1q6.277.209 12.512.739c6.068.5 12.121 1.228 18.105 2.162a3.575 3.575 0 01.377.07q8.767 1.36 17.366 3.362a.238.238 0 01.1.014c.586.139 1.172.265 1.758.418q5.273 1.255 10.448 2.734c.879.251 1.758.516 2.622.781 40.563 12.107 77.067 34.774 102.872 67.763a176.81 176.81 0 0123.936 40.87 182.711 182.711 0 017.839 22.806c8.834 32.449 6.453 67.335-3.203 99.557z" transform="translate(-148.858 -1410.634)" fill="url(#a)"/><path d="M320.317 171.84s2-18.707.909-26.076-8.386-28.323-8.386-28.323 8.683-6.424 11.413 8.557l5.924 7.74s15.922-35.373 19.711-33.131c5.73 3.391 15.811 13.024 10.335 31.446s-27.858 47.77-27.858 47.77z" fill="#f7d0cb"/><path d="M322.507 158.33l18.619 11.668s-11.218 181.667-60.538 147.954c-2.037-1.393-47.353-48.749-47.353-48.749l-30.464-110.371s63.811 81.624 81.883 118.469c0 .001 31.28-118.971 37.853-118.971z" fill="#3f79ff"/><path d="M138.309 160.573l-31.382 13.286s5.716 86.269 3.643 161.366c-1.576 57.1-12.918 111.314-11.5 112.024 3.286 1.643 151.969-11.5 151.969-11.5s-16.073-32.5-22.718-99.215c-1.007-10.12 7.319-70.109 5.227-78.98-15.881-67.359-30.2-99.885-30.2-99.885l-36.49-.31z" fill="#6ca4ff"/><path d="M250.101 447.772c-17.994 6.3-36.448 8.564-58.445 9.694-30.757 1.576-62.156 3.682-92.229-1.772l.516-8.327.028-.488s146.057-19.291 147.4-15.706a35.589 35.589 0 011.367 4.784 70.287 70.287 0 011.363 11.815z" fill="#1f4cdb"/><path d="M181.626 329.504s16.429-31.318 19.305-29.937-5.34 18.884-5.34 18.884 36.144-4.606 36.144 4.144 10.679 23.95-25.876 29.476-42.715 4.144-42.715 4.144l.412-20.263z" fill="#f7d0cb"/><path d="M106.369 173.35c11.626-8.823-.52 81.2 6.389 156.218l63.531-7.892 11.5 37.766s-66.862 21.852-101.165 1.486C68.04 349.892 25.046 235.065 106.369 173.35z" fill="#3f79ff"/><g transform="translate(85.496)"><path d="M68.412 181.944c-16.179.7-19.188-18.675-19.838-26.27l-.777-42.117 42.891-9.282-3.549 51c-1.059 15.175-9.124 26.669-18.727 26.669z" fill="#f7d0cb"/><path d="M42.327 103.936l48.522 34.456-3.6 14.794s-11.194 5.511-30.836-15.3c-15.525-16.452-14.081-24.64-14.081-24.64v-9.307z" fill="#eabbbb"/><path d="M111.881 34.712s8.638 23.583 5.8 34.468l-2.839 10.884s-7.256-32.495-7.256-32.968 4.295-12.384 4.295-12.384z" fill="#0f3872"/><circle cx="50.518" cy="50.518" r="50.518" transform="rotate(-22.5 97.191 19.333)" fill="#f7d0cb"/><path d="M116.523 66.959c0 20.343-10.791 70.995-28.962 72.712-27.775 2.623-73.578-42.807-63.728-65.863 7.993-18.707 37.511-7.8 55.761-7.8s36.929-19.39 36.929.951z" fill="#f7d0cb"/><path d="M56.405 16.409a50.54 50.54 0 00-40.669 44.548c2.275 14.055 13.448 30.4 27.349 30.478 4.666.025-4.536-27.1 20.544-40.523 12.768-6.831 6.964-31.684-7.224-34.503z" fill="#0f3872"/><path d="M46.655 71.878c-6.16-9.639-23.566-17.592-29.8-17.592 0 .049-3.006 18.422-1.271 28.711a39.925 39.925 0 003.932 12.257s6.642 14.035 10.873 16.662 8.823-7.256 8.823-7.256l.688-5.81c3.514-3.688 5.78-9.411 5.78-15.853.002-2.783.975-11.119.975-11.119z" fill="#0f3872"/><path d="M37.454 75.365c0 7.807-3.444 14.137-7.69 14.137s-7.69-6.33-7.69-14.137 3.443-14.138 7.69-14.138 7.69 6.331 7.69 14.138z" fill="#f7d0cb"/><path d="M34.613 96.957l-1.336-1.628-5-6.093 8-9.908s0 10.884 4.85 12.777a32.289 32.289 0 019.228 6.208l-8.924 9.309-6.98 7.1z" fill="#f7d0cb"/><g transform="translate(40.939 72.826)"><path d="M50.14 36.071c-3.251.707-9.072.283-11.179-1.837 0 0 1.272 4.381 5.589 4.381s5.59-2.544 5.59-2.544z" fill="#eabbbb"/><path d="M35.14.935a15.794 15.794 0 00-10.99.12 25.593 25.593 0 00-8.394 5.983c-4.427 5.264 1.317-.358 6.461-2.514 2.4-1 5.5-2.052 8.629-1.294A3.677 3.677 0 0035.14.935zm17.855.496a15.791 15.791 0 0110.99.12 25.612 25.612 0 018.394 5.983c4.427 5.265-1.315-.359-6.461-2.512-2.4-1-5.5-2.053-8.627-1.3a3.678 3.678 0 01-4.296-2.291z" fill="#223d72"/><path d="M12.906 20.217A13.773 13.773 0 1126.679 33.99a13.787 13.787 0 01-13.773-13.773zm2.537 0A11.236 11.236 0 1026.679 8.981a11.25 11.25 0 00-11.236 11.236z" fill="#4b6caf"/><path d="M.636 21.744l13.566-.26-.055-2.537L0 19.207zm44.676-1.269a13.774 13.774 0 1113.773 13.772 13.79 13.79 0 01-13.773-13.772zm2.537 0A11.236 11.236 0 1059.085 9.238a11.246 11.246 0 00-11.236 11.237z" fill="#4b6caf"/><path d="M70.631 21.615s8.231-.134 8.623-.134c.1-.773.146-1.053.326-2.538l-9 .134zm-25.054.479l2.013-1.542a6.729 6.729 0 00-4.3-2.448 6.387 6.387 0 00-4.967 1.861l1.677 1.9a4.085 4.085 0 013.02-1.241 4.181 4.181 0 012.557 1.47z" fill="#4b6caf"/><path d="M56.821 19.346c0 2.547 1.116 4.61 2.493 4.61s2.491-2.063 2.491-4.61-1.116-4.61-2.491-4.61-2.493 2.064-2.493 4.61z"/><ellipse cx="2.492" cy="4.61" rx="2.492" ry="4.61" transform="translate(24.187 14.736)"/><path d="M28.805 47.746s.9 8.835 12.2 8.991c7.33.124 10.35-3.088 11.53-5.369a7.1 7.1 0 00.813-2.191s-15.978.5-23.477-1.177h-.031a10.12 10.12 0 01-1.035-.254z" fill="#7c3147"/><path d="M29.834 48.005l.548 1.76a36.332 36.332 0 009.221 1.856 70.012 70.012 0 0011.71-.138 13.1 13.1 0 001.233-2.289c-3.339.081-16.178.254-22.669-1.19z" fill="#fff"/></g><path d="M90.868 59.473s24.067 10.046 17.856 92.356c0 0 28.722-71.562 12.088-98.178 0 0-2.642-35.876-37.334-39.02-63.521-5.756-89.99 58.692-53.086 97.286 0 0 8.909 28.236 15.563 39.881-.001-.001.832-77.354 44.913-92.325z" fill="#0f3872"/></g><path d="M135.007 118.359l-2.758 25.341s11.444 35.532 3.815 54.231c0 0 6.676 26.182-3.815 43.012 0 0 9.537 46.751-3.814 65.452 0 0-11.444-28.051-2.861-63.583 0 0-11.444-24.31-2.861-41.14 0 0-5.836-13.9-3.929-40.083 0 0-15.688-47.793-10.349-60.819 1.9-4.625 13.324-1.952 13.324-1.952zm50.472 32.079s-1.314 16.114 1.547 25.131c0 0-9.537 18.033 0 33.062 0 0-11.444 21.039 2.861 33.061 0 0-11.444 51.1 1.907 57.106 5.8 2.611 6.674-36.067 2.861-54.1 0 0 11.444-30.057 1.907-39.073 0 0 11.444-25.547 1.907-33.061 0 0 8.583-12.022 9.537-49.592s-12.752-15.119-12.752-15.119-2.028 7.972-8.856 21.248c-1.336 2.6-7.776 8.723-7.776 8.723z" fill="#0f3872"/></svg>