<svg xmlns="http://www.w3.org/2000/svg" width="415.324" height="400.99"><defs><style>.b{fill:#325cff}.c{fill:#f7c8b2}.d{fill:#6ca4ff}.h{fill:#3f79fe}.i{fill:#223d72}</style><linearGradient id="a" x1=".5" y1="-.673" x2=".5" y2="1.058" gradientUnits="objectBoundingBox"><stop offset="0" stop-color="#fff"/><stop offset="1" stop-color="#d8edff"/></linearGradient></defs><path d="M482.213 1325.488c-2.953 22.627-11.846 44.6-22.06 65.038-17.9 35.818-37.832 76.573-72.686 98.834-39.231 25.056-89.023 17.351-128.838-1.811-41.909-20.17-81.181-54.086-102.24-96.088-22.727-45.328-21.234-102.309-4.9-149.419 8.381-24.164 22.8-48.433 46.376-60.39 15.691-7.919 34.658-11.272 51.935-12.982a278.323 278.323 0 0 1 141.942 23.662c40.279 18.349 79.124 49.767 89.084 94.933a110.094 110.094 0 0 1 1.387 38.223z" transform="translate(-139.265 -1104.439)" fill="url(#a)"/><path class="b" d="M220.125 150.671s-24.417-17.135-10.013-24.021c7.827-6.411 7.523-10.038 14.4-6.886s40.866 30.414 65 47.347c0 0 9.727-6.262 14.085-1.877 6.217-3.773 23.331-6.136 27.621 14.131 3.534 16.688-9.464 31.394-42.591 18.315-9.844-3.887-55.697-24.897-68.502-47.009z"/><path class="c" d="M383.809 148.282s14.506-5.847 19.091-10.879c10.641-11.682 12.8-20.516 12.376-23.4s-5.555-7.312-5.555-7.312a1.187 1.187 0 0 0-1.049.578l-8.148 11.022-13.891 9.953z"/><path class="c" d="M383.133 135.632l-1.454-5.761s9.486-19.614 12.783-20.447 2.644 2.661 1.6 5.04c-1.275 2.9-3.4 10.442-3.4 10.442l-8.04 8.89z"/><path class="d" d="M299.961 164.883c-6.187 5.8-8.819 19.256-.707 26.676 10.287 9.408 17.75 7.85 23.6 5.1s8.45-11.913 3.7-21.543c-7.246-14.693-19.063-17.29-26.593-10.233z"/><path class="c" d="M310.478 165.519s62.757-28.258 71.2-35.648 22.01-.865 3.106 20.027c-8.459 9.349-61.218 46.7-66.815 44.811-7.218-2.442-25.007-21.659-7.491-29.19z"/><path class="b" d="M244.221 331.164a1775.79 1775.79 0 0 1-.973 56.903 107.911 107.911 0 0 1-38.748 12.038 124.848 124.848 0 0 1-15.842.878c.268-8.226.254-14.59-1.1-15.146-.443 3.574-1.335 8.823-2.548 15.079a135.794 135.794 0 0 1-19.235-2.058q-3.1-.554-6.156-1.247a143.014 143.014 0 0 1-8.568-2.173c-.241-.06-.475-.126-.711-.2-.569-.161-1.146-.328-1.716-.5q-2.193-.654-4.364-1.381c-1.515-.5-3.031-1.02-4.533-1.562q-4.886-1.769-9.667-3.815c.375-1.8.71-3.427 1.012-4.868.57-2.789.979-4.868 1.18-6.048.04-.241.074-.443.1-.609.63-4.385 4.981-21.463 8.609-35.374 2.748-10.547 5.088-19.269 5.088-19.269l1.844.039 40 .851 29.144.624 8.066.175.792.021 14.066.308 4.257.094s.018 2.621.003 7.24z"/><path d="M205.985 373.048s-.483 10.607-1.483 27.061a124.848 124.848 0 0 1-15.842.878c.268-8.226.254-14.59-1.1-15.146 0 0 15.682-9.36 18.425-12.793zm31.815-39.852l-.04.019a95.519 95.519 0 0 1-11.753 4.807 123.453 123.453 0 0 1-37.594 6.745 103.13 103.13 0 0 1-13.134-.617c-12.853-1.414-19.054 3.761-21.8 3.071-.141.476-.322 1.06-.522 1.737-1.6 5.209-5.022 16.131-9.24 29.821-.556 1.811-1.126 3.674-1.716 5.572q-1.105 3.631-2.273 7.442-4.886-1.769-9.667-3.815c.375-1.8.71-3.427 1.012-4.868.57-2.789.979-4.868 1.18-6.048.04-.241.074-.443.1-.609.63-4.385 4.981-21.463 8.609-35.374 2.748-10.547 5.088-19.269 5.088-19.269l1.844.039 40 .851 29.144.624 8.066.175.792.6 10.688 8.159z" fill="#1f4cdb"/><path class="c" d="M198.423 111.198s7.335 6.251 14.872 8.409-16.332 18.527-16.332 18.527-35.933-5.546-39.141-14.719 16.487-12.218 16.487-12.218z"/><path class="c" d="M169.596 120.311c4.606 7.947 30.4 11.891 29.743 3.311-.3-3.733.782-9.964 2.107-15.835 1.535-6.8 3.372-13.095 3.763-14.359.031-.12.061-.211.061-.211 3.912-14.931-32.393-17.851-31.067-11.891a13.829 13.829 0 0 1 .15 3.4c-.09 4.967-1.2 13.4-2.317 20.831a754.48 754.48 0 0 1-2.44 14.754z"/><path d="M172.034 105.56c8.67 4.4 29.411 2.228 29.411 2.228 1.535-6.8 3.372-13.095 3.763-14.359a13.67 13.67 0 0 0-3.763-2.168l-27.094-6.532c-.089 4.967-1.203 13.391-2.317 20.831z" fill="#edb7a2"/><path d="M146.076 167.896v147.96l2.5 8.249 2.258 1.384 4.907 3.01s1.113.723 3.221 1.807c.482.241.993.512 1.565.782.663.331 1.415.663 2.228 1.023a86.757 86.757 0 0 0 12.223 4.3c.723.181 1.475.362 2.258.573a95.3 95.3 0 0 0 11.047 1.927 87.17 87.17 0 0 0 8.7.6 114.725 114.725 0 0 0 20.23-1.535 159.314 159.314 0 0 0 11.047-2.228c2.8-.663 5.389-1.355 7.737-2.017 6.623-1.9 11.258-3.613 12.4-4.065.211-.09.3-.12.3-.12l-1.535-21.525a152.567 152.567 0 0 0 3.372-27c.361-7.165.3-14.541-.031-21.946v-.271c.241-14.269-2.288-43.981-5.057-71.828v-.03a3918.649 3918.649 0 0 0-4.244-39.677c-2.98-14.69-6.593-18.273-8.188-20.65-1.807-2.74-5.178-5.51-9.062-7.917-4.4-1.505-9.092-2.8-12.884-3.763v-.031l-.211-.03c-2.168-.572-4-1.023-5.3-1.354a4.138 4.138 0 0 0-1.143-.06 1.739 1.739 0 0 0-.392.03c-1.023.03-2.047.241-1.716.6 1.9 2.318 3.944 6.171 2.89 9.122-.723 2.138-3.1 3.793-8.248 4.095a28.687 28.687 0 0 1-18.424-5.449 43.581 43.581 0 0 1-10.025-10.206 1.049 1.049 0 0 0-.782-.3 8.241 8.241 0 0 0-2.469.512c-.693.211-1.294.422-1.625.542l-7.131 2.386-2.138.693h-.03a1.078 1.078 0 0 0-.271.12l-3.854 1.264s.061.091.151.241c.391.723 1.716 2.98 3.7 6.412l-.452 2.469-.392 2.258-2.949 16.377-.392 2.167v.09l-1.746 9.542-1.656 9.3z" fill="#d9e8fb"/><path class="h" d="M201.707 111.208a13.336 13.336 0 0 1 2.709 2.259c2.829 2.859 7.435 8.971 11.59 21.1v.03c1.083 3.1 2.137 6.623 3.1 10.567.181.722.362 1.475.512 2.228 1.085 4.575 2.048 9.693 2.86 15.442.03.3.09.6.12.9.121.723.211 1.475.3 2.258.661 5.329 1.2 11.229 1.625 17.611q.092 1.129.181 2.258c.331 5.389.572 11.078.813 17.009 0 .753.03 1.505.061 2.258.18 5.719.3 11.65.421 17.73 0 .754 0 1.506.03 2.259.091 7.073.121 14.359.151 21.7v2.257c.03 5.9 0 11.861-.03 17.761 0 .752 0 1.505-.03 2.228-.03 7.284-.061 14.539-.121 21.675 0 .753 0 1.505-.03 2.258-.03 6.05-.06 11.98-.06 17.761q-.045 1.129 0 2.258c-.03 8.188-.03 15.984.06 23.24.03 4 .392 8.339.452 11.981a4.931 4.931 0 0 0 3.04.9 13.2 13.2 0 0 0 1.867-.03 44.217 44.217 0 0 0 9.844-2.439q1.174-.361 2.258-.812c5.449-2.018 9.994-4.214 9.994-4.214s.783-13.668.723-33.054c0-.753 0-1.535-.03-2.319 0-5.6-.12-11.65-.331-17.941l-.091-2.288c-.06-2.2-.15-4.425-.271-6.653q-.361-7.136-.812-14.361c-.03-.753-.09-1.505-.151-2.258-.391-5.93-.812-11.861-1.234-17.7l-.18-2.258a2439.477 2439.477 0 0 0-1.686-21.132c-.06-.753-.121-1.505-.181-2.228q-.767-9.257-1.415-17.672c-.06-.782-.12-1.535-.18-2.287a947.785 947.785 0 0 1-.723-10.326s-.332-2.65-.844-6.653q-.135-1.084-.271-2.258c-.661-5.027-1.475-11.5-2.288-17.431a47.352 47.352 0 0 0-.3-2.258c-.814-6.171-1.566-11.439-1.957-13.306-.241-1.113-.452-2.166-.693-3.13a81.231 81.231 0 0 0-.542-2.2c-2.679-10.3-5.57-13.276-6.954-15.323a26.11 26.11 0 0 0-6.744-6.382 31 31 0 0 0-2.318-1.535 49.593 49.593 0 0 0-2.168-1.294h-.03c-.572-.332-1.174-.633-1.746-.964l-.03-.031a64.409 64.409 0 0 0-7.676-3.341h-.03a34.168 34.168 0 0 0-3.673-1.174h-.03c-2.857-.736-5.266-1.036-6.861-.676z"/><path class="b" d="M216.017 134.588s.876-5.667 6.14-3.692 6.247 4.94 6.247 4.94-2.317-19.463-18.445-27.513l-7.482-4.878-2.06 9.315s8.811 5.433 15.6 21.828z"/><path class="c" d="M228.405 40.595s.3 42.358-11.162 55.918c-13.815 16.339-43.69 6.865-51.621-12.3s-5.286-47.583-5.286-47.583 63.443-27.096 68.069 3.965z"/><path class="i" d="M155.227 44.71a135.887 135.887 0 0 0 5.027 23.541.719.719 0 0 1 .06.241c1.234 4 2.288 6.985 2.8 8.339.12.362.21.6.24.693 0 .03.031.03.031.06 3.582 5.841.542-20.741-.362-28.237.03-.03.03-.03.06-.03 5.3-.723 5.811 3.943 6.5 5.419.723 1.475 2.137 10.776 5 8.64 2.83-2.138-.3-16.075 2.168-25.8 2.469-9.693 18.092-2.829 18.092-2.829 4 7.465 13.577 6.171 13.577 6.171 2.83 4.756 10.3 9.512 17.129 8.4s7.406-6.593 7.406-6.593c4.576-1.686 8.64-10.746 2.56-17.039-8.55-8.791-15.926-3.462-15.926-3.462-17.821-10.326-64.361 2.017-64.361 2.017s-1.717 4.544-.001 20.469z"/><path d="M160.316 68.491c.9 3.854 1.927 7.2 3.04 9.032-.03-.09-.12-.331-.24-.693-.514-1.354-1.568-4.334-2.8-8.339z" fill="#974a5b"/><path d="M219.598 22.231c-13.266.3-28.677 1.774-46.015 16.142-9.666 8.008-10.181 22.79-13.268 30.118.691 2.2-1.708.762-2.558-.355-2.142-2.813-5.45-5.674-5.042-10.284 0 0-10.627-4.4-9.986-11.517C144.366 28.186 147.873-1.22 186.121.04c23.153.763 28.648 10.392 28.648 10.392s8.607 3.567 10.719 10.2a11.944 11.944 0 0 0-5.89 1.599z" fill="#5282ce"/><path class="c" d="M168.727 52.437s-2.169-8.293-8.814-3.127c-5.449 4.234 1.9 23.77 7.268 22.387s1.546-19.26 1.546-19.26z"/><path class="h" d="M137.526 336.264a27.281 27.281 0 0 0 10.627 10.6c.693.39 1.445.752 2.228 1.113a28.977 28.977 0 0 0 7.1 2.078c.872.15 1.776.271 2.679.361.691.09 1.384.151 2.077.211 3.221.3 6.472.422 9.573.422 1.083 0 2.137 0 3.161-.03.482 0 .932-.031 1.384-.031 7.075-.241 12.253-.932 12.253-.932-.09-1.144-.211-5.088-.332-11.138-.15-5.058-.3-11.59-.45-19.207 0-.633-.031-1.234-.031-1.9v-.03c-.12-5.509-.24-11.53-.361-17.912-.03-.691-.03-1.354-.06-2.047-.121-5.509-.211-11.319-.332-17.25-.03-.753-.03-1.505-.06-2.258-.12-6.442-.241-13.1-.361-19.778-.03-.753-.03-1.505-.06-2.258l-.362-19.537c0-.752-.03-1.475-.03-2.228-.121-6.081-.241-12.1-.362-17.972 0-.753-.03-1.475-.03-2.228-.12-6.171-.241-12.192-.361-17.912 0-.753-.03-1.475-.03-2.2-.151-7.678-.3-14.812-.422-21.163-.03-.752-.03-1.5-.06-2.257-.151-8.249-.3-15.052-.422-19.748 0-.814-.03-1.566-.06-2.258q-.045-2.26-.09-3.523a58.321 58.321 0 0 0-2.53-14.57c-.241-.782-.482-1.535-.723-2.287-.812-2.347-1.655-4.515-2.558-6.532a77.407 77.407 0 0 0-6.924-12.675 84.06 84.06 0 0 0-4.425 1.445c-.723.241-1.475.512-2.258.782a335.207 335.207 0 0 0-8.489 3.221c-.723.271-1.415.573-2.078.844h-.03a1.077 1.077 0 0 0-.271.12 174.346 174.346 0 0 0-3.7 1.505c-1.475.6-2.349.963-2.349.963s-.391 1.837-.9 5.028a45.67 45.67 0 0 0-.422 2.648q-.18 1.039-.361 2.259c-.091.6-.181 1.2-.241 1.866a231.731 231.731 0 0 0-1.536 13.547q-.135 1.084-.18 2.258c-.482 5.93-.784 12.493-.723 19.326-.03.782 0 1.535.03 2.349v.03c.03 3.131.181 6.322.391 9.512 0 .332.031.663.061.993.21 2.53.331 5.751.361 9.543v.03c.03.812.03 1.6.03 2.469 0 4.425-.06 9.513-.181 15.052 0 1.023-.03 2.048-.06 3.1-.12 5.117-.3 10.567-.512 16.256-.06 1.113-.09 2.228-.12 3.371-.271 6.382-.573 12.975-.9 19.688v.03c-.03.963-.06 1.927-.12 2.92-.3 6.231-.633 12.524-.963 18.664q-.092 1.537-.181 3.071c-.271 5.148-.572 10.2-.844 15.082-.06 1.234-.15 2.439-.21 3.643-.271 4.7-.543 9.211-.814 13.426-.09 1.595-.21 3.161-.271 4.666a7640.549 7640.549 0 0 1-1.805 27.369z"/><path class="b" d="M183.537 137.094s-4.851-7.187-8.144-6.528a73.241 73.241 0 0 0-9.55 3.243s.112-13.567 0-20.324a15.386 15.386 0 0 1 6.9-12.841l-1.143 7.678s8.556 8.627 11.937 28.772z"/><path class="c" d="M98.094 321.814s13.319 18.828 14.575 23.476.628 13.068-2.263 13.7-17.715-29.616-12.312-37.176z"/><path class="i" d="M160.588 385.091l-.966 12.525a143.779 143.779 0 0 1-8.568-2.173c-.241-.06-.475-.126-.711-.2-.569-.161-1.146-.328-1.716-.5q-2.193-.654-4.364-1.381c-1.515-.5-3.031-1.02-4.533-1.562q-4.886-1.77-9.667-3.815a204.521 204.521 0 0 1-14.194-6.731c5.471.69 10.64 1.327 15.206 1.863 4.251.51 7.972.932 10.929 1.241 1.482.154 2.769.281 3.836.375 2.252.181 3.487.242 3.459.094l11.284.268z"/><path class="i" d="M160.587 385.09l-.966 12.525a143.014 143.014 0 0 1-8.568-2.173l.684-5.229-1.394 5.028c-.569-.161-1.146-.328-1.716-.5q-2.193-.654-4.364-1.381l1.575-8.629.241-1.26 14.5 1.622z"/><path class="i" d="M160.581 385.09l-9.983.677s-.758 3.48-1.971 8.972q-2.193-.654-4.364-1.381c-1.515-.5-3.031-1.02-4.533-1.562q-4.886-1.769-9.667-3.815a204.521 204.521 0 0 1-14.194-6.731 234.554 234.554 0 0 1-12.9-7.255c2.386.207 4.794.422 7.2.65 1.026.094 2.052.194 3.071.3 2.742.268 5.464.543 8.146.837l2.923.323c2.722.315 5.377.636 7.945.965 4.117.543 7.986 1.113 11.465 1.716 10.597 1.822 17.573 3.937 16.862 6.304z"/><path class="i" d="M119.796 362.983l1.647 13.3 2.125.319 1.187-.809-2.3-14.164z"/><path class="i" d="M124.195 372.318a1.176 1.176 0 0 1-.7.289l-2.467.16h-.014a1.224 1.224 0 0 1-1.213-.811l-1.756-10.607a4.311 4.311 0 0 0-3.761-2.876l-2.273-.161-.5-.033-2.474-.174-20.061-1.428-.234-.013a4.316 4.316 0 0 0-4.144 2.34l-.65 2.38a258.39 258.39 0 0 1-3.728-2.742c.5-1.529.871-2.595.871-2.595a4.323 4.323 0 0 1 4.13-2.535l3.185.148 18.1.824 4.519.208 1.892.087 5.216.241a4.309 4.309 0 0 1 3.882 2.923l2.554 13.061a1.207 1.207 0 0 1-.374 1.314z"/><path class="c" d="M120.144 243.24s0 17.914-3.752 30.247c-2.532 8.327-15.005 24.347-15.838 52.542-.234 7.926-6.557 23.141-13.271 2.65-6.86-20.939 1.113-75.473 8.279-92.027s22.081-3.194 24.582 6.588z"/><path d="M95.562 235.267c1.595.753 3.191 1.415 4.756 2.077.723.3 1.415.572 2.108.844 3.763 1.475 7.5 2.8 11.138 4.184.723.24 1.445.512 2.138.813a74.801 74.801 0 0 1 3.882 1.565c.723.271 1.415.572 2.108.9.842.361 1.686.753 2.5 1.174.812-4.095 2.829-9.543 5.178-15.2.09-.241.211-.482.3-.723.271-.693.572-1.385.874-2.077.09-.241.211-.482.3-.723 1.565-3.673 3.191-7.316 4.606-10.627.09-.181.15-.332.21-.482.362-.812.693-1.6 1.025-2.319l.18-.45c.874-2.138 1.656-4.095 2.228-5.721a227.165 227.165 0 0 0 4.214-7.706c.512-.964.993-1.927 1.475-2.859.03-.031.03-.091.061-.121v-.03c.12-.211.24-.452.361-.663 2.319-4.6 4.3-8.911 6.02-12.974.241-.512.452-1.023.663-1.535.181-.422.362-.874.542-1.3.03-.06.03-.09.061-.15 1.655-4.125 3.04-7.917 4.153-11.5l.723-2.438v-.03c.121-.3.211-.6.3-.9v-.03c.03-.06.03-.12.06-.18a106.58 106.58 0 0 0 2.258-9.694c.12-.6.211-1.173.3-1.746.181-1.143.362-2.258.482-3.311.06-.542.121-1.053.181-1.565a47.78 47.78 0 0 0-.482-14.842 3.467 3.467 0 0 0-.121-.6c-.09-.392-.3-2.017-.782-4.154a34.94 34.94 0 0 0-2.258-6.924 13.923 13.923 0 0 0-1.264-2.288 8.555 8.555 0 0 0-4.4-3.7 6.717 6.717 0 0 0-2.829-.181 9.258 9.258 0 0 0-2.739.874 37.538 37.538 0 0 0-7.587 4.033h-.03c-.061.03-.091.06-.151.09h-.03a37.817 37.817 0 0 0-3.974 3.071h-.03c-.241.181-.482.391-.723.6l-.03.03a67.117 67.117 0 0 0-11.982 14.421c-.12.15-.211.331-.331.512q-1.039 1.67-2.078 3.432v.03a94.462 94.462 0 0 0-3.793 7.165 126.097 126.097 0 0 0-3.281 7.284c-.181.422-.331.814-.512 1.234-.422 1.025-.844 2.048-1.234 3.1v.03a89.313 89.313 0 0 0-1.144 3.01q-1.9 5.238-3.612 10.837c-.031.121-.061.211-.091.331-.3.9-.572 1.807-.812 2.741-.091.331-.181.631-.271.964-1.445 4.967-2.739 10.145-3.944 15.472-.03.181-.091.362-.121.572-.18.753-.331 1.506-.512 2.289-.03.211-.09.391-.12.6a389.626 389.626 0 0 0-2.2 11.048s-.091 1.174-.211 3.01a6.581 6.581 0 0 0-.03.782c-.06.633-.121 1.355-.151 2.078-.03.271-.03.572-.06.872-.472 6.685-1.164 16.199-1.465 17.674z" fill="#3f79ff"/><path class="d" d="M121.659 240.434s6.775 1.4 6.377 5.58-4.321 11.022-4.352 14.064-1.626 4.561-13.185 0-16.958-5.57-21.95-8.765c0 0-.371-4.539 2.021-12.521s2.39-10.783 5.979-9.089 20.369 8.584 25.11 10.731z"/><path class="c" d="M85.714 321.813s.926 34.123 5.567 41.944c0 0 4.217 3.042 5.643 1.255.711 1.38 2.672 4.114 5.481.893 1.1 1.944 2.411 2.836 3.734 1.247s2.025 1.454 4.407 1.454 2.838-2.325 1.514-10-11.43-27.523-12.465-36.792-11.908-6.086-13.881-.001z"/></svg>