<svg xmlns="http://www.w3.org/2000/svg" xmlns:xlink="http://www.w3.org/1999/xlink" width="385.693" height="458.726" viewBox="0 0 385.693 458.726"><defs><style>.a{fill:url(#a);}.b{fill:#223d72;}.c{fill:#93a4e0;}.d{fill:#f7d0cb;}.e{fill:#eabbbb;}.f{fill:#3f79ff;}.g{fill:#325cff;}.h{fill:#73a7e0;}.i{fill:#aed5ff;}</style><linearGradient id="a" x1="0.5" y1="-0.38" x2="0.5" y2="1.018" gradientUnits="objectBoundingBox"><stop offset="0" stop-color="#fff"/><stop offset="1" stop-color="#d8edff"/></linearGradient></defs><g transform="translate(-129.443 -1555.216)"><path class="a" d="M501.076,1812.7c-3.713,17.793-13.241,35.282-23,50.351a287.62,287.62,0,0,1-87.485,86.289q-11.285,7.127-23.192,13.176a230.173,230.173,0,0,1-24.173,10.613q-5.941,2.2-12.027,4.05-3.988,1.21-8.025,2.244c-16.172,4.136-32.83,6.076-49.193,4.806a120.083,120.083,0,0,1-13.824-1.885,108.544,108.544,0,0,1-26.945-9.047,113.774,113.774,0,0,1-31.784-23.535c-16.387-16.979-28.414-38.34-38.341-59.774-17.409-37.574-37.494-79.971-33.005-122.5,5.046-47.875,43.387-83.149,84.554-102.97a254.5,254.5,0,0,1,38.316-14.749,246.062,246.062,0,0,1,33.9-7.476c23.911-3.521,48.268-3.337,71.4,1.558,1.765.375,3.514.774,5.263,1.214a159.988,159.988,0,0,1,19.853,6.388c40.744,16.084,75.875,48.49,98.809,84.81a149.366,149.366,0,0,1,14.1,28.176c.382,1.046.758,2.1,1.109,3.154q1.127,3.354,2.029,6.772a95.768,95.768,0,0,1,2.435,12.13A77.973,77.973,0,0,1,501.076,1812.7Z" transform="translate(0 29.323)"/><g transform="translate(239.671 1555.216)"><path class="b" d="M235.95,1614.915l-5.754,14.911s-9.518,77.942-16.849,99.323,5.536,45.875,33.025,45.875,81.156-29.992,97.983-26.327,10.792-132.692,3.461-151.629-60.552-18.193-60.552-18.193Z" transform="translate(-211.316 -1547.024)"/><path class="c" d="M320.652,1690.634l-3.323-5.918-21.124-4.071s-28.957-1.989-36.162.5-18.773,5.036-18.773,5.036l9.737,11.371Z" transform="translate(-200.943 -1512.038)"/><path class="d" d="M299.454,1672.58c-.99,14.2-3.245,29.233-3.245,29.233-18.671,17.6-48.182-1.939-41.021-12.064,3.045-4.312,5.38-12.3,7-20.056,2.216-10.365,3.2-20.294,3.2-20.294s28.877-8.821,33.11,0C300.244,1653.038,300.165,1662.61,299.454,1672.58Z" transform="translate(-196.503 -1523.957)"/><path class="e" d="M297.371,1672.58s-13.292,13.093-25.713,7.041a32.124,32.124,0,0,1-11.551-9.929c2.216-10.365,3.2-20.294,3.2-20.294s28.877-8.821,33.11,0C298.161,1653.038,298.082,1662.61,297.371,1672.58Z" transform="translate(-194.42 -1523.957)"/><path class="d" d="M235.206,1608.329c1.523,23.309,15.184,87.839,50.354,89.575,15.508.766,33.737-4.316,45.417-38.186s0-72.412,0-72.412-44.381-28.031-64.236-15.183S232.871,1572.565,235.206,1608.329Z" transform="translate(-203.131 -1550.528)"/><path class="b" d="M331.02,1621.4a81.449,81.449,0,0,0,8.464,11.393,30.11,30.11,0,0,1-9.217-1.306h-.039c-3.441-2.808-6.843-6.131-8.031-9.376a54.231,54.231,0,0,0,2.808,7.28,34.075,34.075,0,0,1-10.838-9.019,139.672,139.672,0,0,1-13.529-20.135,102.074,102.074,0,0,1-5.42-11.433,88.193,88.193,0,0,1-5.656,17.564c-4.035,9.335-10.76,19.977-21.164,25.04-.672.316-1.345.633-2.017.91a156.016,156.016,0,0,0,10.64-21.638c3.008-7.358,4.867-13.054,5.143-13.925-3.164,5.459-6.092,10.245-8.782,14.4-8.5,13.253-14.676,20.57-18.869,24.646-14,2.77-29.964,11.616-29.964,11.616s-1.762-19.608,2.273-36.182a101.611,101.611,0,0,1,9.85-25.712c8.584-15.033,22.509-27.81,45.1-29.907,16.378-1.464,39.282.079,52.574,22.866a70.092,70.092,0,0,1,7.635,19.857c2.1,8.822,5.737,20.013,5.7,32.632C342.374,1628.95,334.739,1625.355,331.02,1621.4Z" transform="translate(-206.866 -1555.216)"/><path class="f" d="M341.914,1880.963q-11.285,7.127-23.192,13.176a230.173,230.173,0,0,1-24.173,10.613q-5.941,2.2-12.027,4.05c-1.134-2.843-2.228-5.471-3.29-7.827-2.539-5.661-4.847-9.766-6.764-11.683a6.286,6.286,0,0,0-.751-.671c-3.122-2.252-1.8-8.273,2.388-15.437.168-.279.335-.567.512-.855a77.57,77.57,0,0,1,7.171-9.774,91.7,91.7,0,0,1,17.281-15.708c11.78-8.13,25.26-12.587,36.648-7.068,0,0,1.134,6.62,2.811,17.665C339.51,1863.912,340.676,1871.9,341.914,1880.963Z" transform="translate(-190.994 -1457.513)"/><path class="f" d="M345.368,1825.34l-12.342,1.937-68.081,10.76s-27.057-1.543-39.953-16.02a25.884,25.884,0,0,1-4.984-8.07c-8.427-21.956,18.513-105.463,18.513-105.463,10.087-8.031,99.726,0,99.726,0l5.3,87.028.594,9.574Z" transform="translate(-208.872 -1503.372)"/><path class="g" d="M345.486,1787.767l-3.047,6.092-11.115,22.191-68.081,10.76s-27.057-1.543-39.953-16.02l13.291,4.509,7.2-30.539-11.235-33.269-3.164-14.162,64.322.99,48.142,45.966Z" transform="translate(-207.17 -1492.146)"/><path class="g" d="M293.913,1893.813q-5.941,2.2-12.027,4.05c-1.134-2.843-2.228-5.471-3.29-7.827-2.539-5.661-4.847-9.766-6.764-11.683l13.592-9.431s.847,2.427,2.308,6.677C289.233,1879.966,291.382,1886.259,293.913,1893.813Z" transform="translate(-190.359 -1446.573)"/><path class="f" d="M312.221,1875.6a135.641,135.641,0,0,1-8.8,15.429c-1.94,3.051-4.065,6.268-6.333,9.679q-1.377,2.084-2.8,4.759c-1.55,2.9-3.138,6.294-4.735,10.072-16.172,4.136-32.83,6.076-49.193,4.806a120.083,120.083,0,0,1-13.824-1.885c.615-7.914,1.19-15.429,1.725-22.256a151.36,151.36,0,0,1,5.4-30.658c3.362-11.651,7.276-19.43,9.28-24.8,2.45-6.532,4.272-8.9,4.272-8.9,8.9-14.159,43.947-6.725,60.366,10.284a33.746,33.746,0,0,1,6.547,9.217C317.6,1858.905,316.438,1866.547,312.221,1875.6Z" transform="translate(-206.047 -1462.001)"/><path class="g" d="M301.919,1872.6s-5.334.366-12.762.862C273.968,1874.47,250,1876,244.876,1876c0,0-1.836,17.147-4.52,40.13a120.083,120.083,0,0,1-13.824-1.885c.615-7.914,1.19-15.429,1.725-22.256a151.36,151.36,0,0,1,5.4-30.658c3.362-11.651,7.276-19.43,9.28-24.8l44.585,8.386,9.319,17.919,4.911,9.439Z" transform="translate(-206.047 -1457.792)"/><path class="d" d="M262.377,1678.36s-21.917,12.588-29.044,15.44c0,0,22.494,50.962,54.915,50.962s42.735-52.033,42.735-52.033l-31.006-14.369Z" transform="translate(-203.692 -1512.569)"/><path class="h" d="M330.836,1724.578s3.554,1.513,4.9,4.178-5.571,10.667-11.131,10.482-11.444-3.918-8.945-8.53S330.836,1724.578,330.836,1724.578Z" transform="translate(-175.383 -1496.562)"/><path class="d" d="M326.032,1794.111a47.007,47.007,0,0,1-5.182-11.077,193.684,193.684,0,0,1-4.431-20.214c-4.312-25.277-7-60.881,4.351-62.423,0,0,4.945,14,10.6,32.557.792,2.611,1.622,5.261,2.414,8.031,6.29,21.283,12.738,46.323,13.885,62.937C351.823,1822.829,335.367,1809.459,326.032,1794.111Z" transform="translate(-176.204 -1504.937)"/><path class="e" d="M338.328,1801.406c-7.061-5.889-13.252-15.114-13.252-15.114a47.031,47.031,0,0,1-5.182-11.076A193.757,193.757,0,0,1,315.463,1755l5.657-29.867h9.295c.792,2.611,1.622,5.261,2.414,8.031,0,0-3.269-3.031-7.473.883.113,18.135,1.431,25.173,3.448,35.267C330.908,1779.845,333.679,1788.487,338.328,1801.406Z" transform="translate(-175.248 -1496.369)"/><path class="i" d="M311.526,1692.579s5.369.228,6.589,1.387c9.152,8.7,18.041,29.463,21.355,45.872,0,0-13.811-4.971-26.959,6.407C305.062,1752.692,298.933,1697.836,311.526,1692.579Z" transform="translate(-179.122 -1507.645)"/><path class="i" d="M246.1,1684.945c1.866-1.47,2.566-.477,3.222.089,4.56,3.921,22.8,18.182,47.859,17.872,28.857-.355,25.174-19.431,25.174-19.431s12.944,6.982,21.626,13.016a7.607,7.607,0,0,1,3.158,7.621c-.913,5.012-2.137,12.8-1.694,16.471.681,5.645,19.24,38.816,3.9,65.6-13.938,24.34,6.971,71.926,5.688,123.631-14.645,7.759-28.989,17.576-79.216,15.531-11.4-.464-44.371-5.672-48.481-17.831,0,0,4.039-36.422,24.312-79.819,14.423-30.874-2-66.977-9.15-84.7-8.818-21.871-11.344-49.978-11.344-49.978Z" transform="translate(-205.769 -1510.797)"/><path class="b" d="M303.229,1686.911s-.447-2.327,1.427-1.659,4.987,3.781,6.544,4.448,10.561,9.238,10,27.582c-.572,18.614-3.854,55.3-3.854,55.3l-8.463,2.458s3.759-53.259,3.487-62.156S312.387,1695.465,303.229,1686.911Z" transform="translate(-179.501 -1510.224)"/><path class="d" d="M334.25,1772.313c-1.819,1.661.555,5.063-5.3,8.466a6.4,6.4,0,0,1-3.125.237c-5.341-.435-15.507-2.886-22.628-.237a6.13,6.13,0,0,1-2.135.4,5.149,5.149,0,0,1-4.273-2.808c-2.135-3.521-2.294-9.613.079-13.37a6.506,6.506,0,0,1,3.56-3.007s13.368-7.49,20.887-8.308c9.576-1.042,15.737-3.332,16.688-.128,1.226,4.233-1.575,2.977-2.881,7.8C334.093,1765.074,338.721,1768.16,334.25,1772.313Z" transform="translate(-182.287 -1487.096)"/><path class="d" d="M326.46,1771.346a16.389,16.389,0,0,1-8.386,6.33q-.416.178-.949.355c-3.719,1.384-11.59,4.312-20.729,7.278l-.039.041c-15.586,5.1-30.4,6.675-39.5,5.37a7.753,7.753,0,0,1-4.114-1.622,11.8,11.8,0,0,1-3.56-6.013,17.965,17.965,0,0,1,.158-8.347,26.676,26.676,0,0,1,2.453-6.487c0,.633,2.948-3.472,9.3-5.459s10.663-2.364,21.621-.98c12.025,1.5,22.469.555,30.222.041,6.25-.436,10.68-.594,12.7,1.029C328.16,1764.9,328.358,1768.221,326.46,1771.346Z" transform="translate(-198.35 -1483.953)"/><path class="d" d="M299.893,1769.325s-7.206-.913-7.5-2.361c12.106-3.56,15.755-12.387,21.3-14.264s6.386-3.126,8.765-5.055,4.114,4.156-.223,7.06-6.427,8.116-8.7,10.018S299.893,1769.325,299.893,1769.325Z" transform="translate(-183.239 -1488.703)"/><path class="b" d="M233.817,1689.654s-.133-.979.389-1.219a45.548,45.548,0,0,0,7.461-3.907.7.7,0,0,1,.863.041c3.509,2.924,27.205,24.255,23.018,63.616-4.521,42.486-7.118,46.728-7.118,46.728l-10.14-17.979s4.969-21.538,4.969-36.031C253.259,1726.657,250.707,1700.094,233.817,1689.654Z" transform="translate(-203.529 -1510.477)"/><path class="h" d="M227.406,1736.37s-2.409,7.739-.316,11.247,37.651-6.4,34.245-19.075S249.5,1717.4,249.5,1717.4Z" transform="translate(-206.15 -1499.069)"/><path class="d" d="M269.749,1804.97a.745.745,0,0,0-.079.277c-.831,2.492-1.978,4.351-3.56,5.023-2.888,1.345-7.16-1.226-13.172-10.958-.159-.237-.316-.474-.475-.751a.039.039,0,0,0-.039-.04c-1.463-2.452-3.047-5.3-4.747-8.662-12.976-25.713-17.88-47.51-19.621-62.107-1.5-12.342-.751-19.5-.751-19.5s14.913-2.73,21.044,2.69c.95.831,2.018,2.808,3.165,5.578a174.814,174.814,0,0,1,5.38,16.654v.039c5.024,17.722,10.166,40.349,12.738,46.719a13.591,13.591,0,0,1,.712,2.413C271.648,1788.157,271.767,1798.521,269.749,1804.97Z" transform="translate(-205.845 -1502.455)"/><path class="e" d="M256.651,1730.868v.039s-11.868-.118-16.456,7.278c0,0-5.419,4.629-5.657,17.8v.078a170.56,170.56,0,0,1-6.725-30.618l21.124-10.8a9.154,9.154,0,0,1,2.335-.435A174.814,174.814,0,0,1,256.651,1730.868Z" transform="translate(-205.603 -1500.152)"/><path class="i" d="M240.809,1690.559H233.1s-22.286,12.734-4.446,66.333c3.049-12.4,25.31-29.207,34.245-19.075C262.9,1737.818,258.244,1704.033,240.809,1690.559Z" transform="translate(-207.71 -1508.344)"/><path class="e" d="M342.443,1775.209c-4.925-.435-14.3-2.886-20.864-.237a5.265,5.265,0,0,1-1.97.4c-3.428,1.384-12.1,3.232-20.521,6.2,0,0-29.972,9.878-38.361,8.573-4.21-.331-7.464.456-13.008-9.275,1.349,1.978,3.173,2.69,5.069,3.323a19.336,19.336,0,0,1,4.05,1.7c1.385.91,3.391,1.186,6.309.91,3.83-.318,9.265-1.663,17-3.838,10.833-3.045,26.152-7.278,35.525-10.4,2.3-.792,11.164-2.919,13.716-3.315a74.394,74.394,0,0,1,15.333-.3C345.048,1771.517,343.208,1772.876,342.443,1775.209Z" transform="translate(-198.709 -1481.29)"/><path class="d" d="M444.607,1733.754s-3.267-1.105-9.852,5.612c-4.727,4.824-17.215,4.484-18.98,2.936s3.008-3.6,7.247-4.862,8.794-5.234,5.657-5.234-16.727,2.585-21.109,3.426c-2.328.448-7.215,7.157-20.478,15.617-6.672,2.717-17.144,8.551-28.123,13.172-11.033,4.645-15.191,6.943-21.307,12.029-5.115,4.254-6.958,22.841-1.21,25.131a7.744,7.744,0,0,0,4.421.044c8.964-2.032,25.122-13.932,37.856-24.269l.023-.051c8.188-6.606,14.95-12.624,17.518-14.877.424-.376.819-.754,1.19-1.134,2.409-1.969,4.516-3.609,6.282-4.783a7.414,7.414,0,0,1,2.888-1.411c4.382-.841,19.567.353,24.371-.491,3.272-.574,7.833-5.052,10.465-9.561C445.408,1738.3,444.607,1733.754,444.607,1733.754Z" transform="translate(-169.208 -1493.921)"/></g></g></svg>