<svg xmlns="http://www.w3.org/2000/svg" width="224.182" height="387.98"><defs><style>.a{fill:#3f79fe}.b{fill:#f7c8b2}.c{fill:#edb7a2}.e{fill:#242c45}.f{fill:#325cff}.g{fill:#223d72}.h{fill:#d9e8fb}.i{fill:#a6caf4}.j{fill:#2041a1}.k{fill:#c1d8fa}.l{fill:#fff}.o{fill:#f7d0cb}.p{fill:#eabbbb}.q{fill:#243b5a}.s{fill:#3f79ff}</style></defs><path class="a" d="M211.276 104.525s7.849-1.942 11.488 3.961c3.1 5.03.794 8.947-3.792 14.683-1.487 6.72-16.409 19.38-16.409 19.38l-10.706-23.948 13.645-12.873z"/><path class="b" d="M165.664 369.017c.66 1.657 9.3 6.986 15.736 7.36 6.451.374 5.524-6.255 2.762-7.912-2.067-1.248-3.261-5.774-2.923-10.229l.018-.018a15.419 15.419 0 0 1 .321-2.245 13.09 13.09 0 0 1 .552-2.068c1.158-3.261-12.581-3.421-12.581-3.421s.018.766 0 1.906c-.018 2.94-.3 8.376-1.746 9.819a8.254 8.254 0 0 0-1.782 2.691 5.9 5.9 0 0 0-.357 4.117z"/><path class="c" d="M166.021 364.9c.588 2.726 9.214 3.8 6.273 2.619-2.994-1.212-3.314-3.083-3.314-3.083a36.934 36.934 0 0 0 2.8-6.255 15.528 15.528 0 0 0 9.463.053l.018-.018a15.419 15.419 0 0 1 .321-2.245l-2.958-1.765-9.071-1.818c-.018 2.94-.3 8.376-1.746 9.819a8.254 8.254 0 0 0-1.786 2.693z"/><path class="b" d="M131.555 347.174c-.184.24-4.334 6.564-4.236 8.217.2 3.444-1.463 3.792-1.452 6.027 0 .735.355 3.836.355 3.836s-4.414 5.517-13.242 4.414.551-7.541 1.839-9.012 3.176-8.092 3.727-8.643 1.422-4.782 2.894-10.3 10.115 5.461 10.115 5.461z"/><path d="M186.537 78.519l2.715-10.87-11.988-4.053-14.6 1.412-3.5 5.7z" fill="#406fc4"/><path class="e" d="M117.288 346.868a5.252 5.252 0 0 0 1.444 2.495 17.179 17.179 0 0 0 2.816 2.406 32.3 32.3 0 0 0 13.383 0 12.86 12.86 0 0 1 0-5.24c.66-2.281 20.618-48.336 25.821-61.078s12.477-45.14 13.722-55.218c1.621.66 0 15.362.321 24.824.321 9.48-2.62 57.167-4.241 67.307-1.64 10.122-2.62 27.1-2.62 27.1-1.639 1.319 0 4.58 0 4.58a11.363 11.363 0 0 0 2.851 1.3c5.4 1.764 13.152 1.318 13.152 1.318v-3.92c2.62-4.58 13.4-38.563 18.961-67.308 5.542-28.744 5.114-91.864 5.114-91.864l-11.315-.25-46.8-1s-7.449 27.782-8.108 32.344c-.642 4.579-13.063 60.108-15.023 67.628s-8.037 50.966-8.037 50.966z"/><path class="e" d="M117.288 346.868a5.252 5.252 0 0 0 1.444 2.495l2.139-4.705s6.4-33.7 9.088-51.554c2.531-16.716 21.848-77.432 24.343-85.718 1.621.41 5.292-2.671 12.9-1.834 20.208 2.263 37.013-6.486 37.013-6.486l-7.52-5.739-46.8-1s-7.449 27.782-8.108 32.344c-.642 4.579-13.063 60.108-15.023 67.628s-8.037 50.966-8.037 50.966z"/><path class="f" d="M180.901 67.662s4.342 3.7 8.8 4.977-9.667 10.967-9.667 10.967-16.853-5.536-18.752-10.967 5.341-4.977 5.341-4.977z"/><path class="b" d="M163.835 72.415c2.726 4.7 18 7.038 17.607 1.96-.178-2.21.463-5.9 1.247-9.374.909-4.028 2-7.752 2.228-8.5.018-.072.036-.125.036-.125 2.317-8.839-19.175-10.568-18.391-7.039a8.21 8.21 0 0 1 .09 2.014 115.7 115.7 0 0 1-1.372 12.331 445.708 445.708 0 0 1-1.445 8.733z"/><path class="c" d="M165.279 63.683c5.132 2.6 17.41 1.319 17.41 1.319.909-4.028 2-7.752 2.228-8.5a8.091 8.091 0 0 0-2.228-1.283l-16.038-3.866a115.718 115.718 0 0 1-1.372 12.33z"/><path class="b" d="M198.648 25.864s1.956 26.6-5.477 34.036-26.994 3.13-31.688-8.215-3.13-28.168-3.13-28.168 37.557-16.04 40.295 2.347z"/><path class="g" d="M154.438 31.731s.784 13.793 5.667 15.9a67.472 67.472 0 0 0-.57-10.817c-.784-4.687 1.943-11.156 4.3-9.588s-.855 11.245 2.281 10.852a2.193 2.193 0 0 0 1.5-1.283c1.854-3.154 2.513-10.942 5.061-10.727a30.816 30.816 0 0 0 12.456-1.3s12.421 6.736 20.689 2.869c5.757-2.673 6.042-12.225 2.62-16.359a.136.136 0 0 1-.018-.053 4.918 4.918 0 0 0-6.095-1.39s-9.32-12.742-19.228-7.984c0 0-3.475-3.475-4.6-.855 0 0-8.411-4.58-14.666 5.97-.005-.006-16.347 2.044-9.397 24.765z"/><path class="b" d="M165.074 29.427a3.894 3.894 0 0 0-5.51-3.021c-4.706 1.636-.424 16.778 2.756 15.961s2.754-12.94 2.754-12.94z"/><path class="h" d="M149.911 101.213v87.588l1.479 4.882 4.241 2.6s.66.428 1.907 1.069a52.291 52.291 0 0 0 22.507 5.453c14.06.3 28.708-5.167 30.437-5.827.125-.053.178-.072.178-.072l-.909-12.741c8.464-37.441-10.871-97.6-10.871-97.6l-4.812-13.917-6.38 7.573-7.645 3.386-12.706-6.361-12.047-5.953z"/><path class="i" d="M149.234 179.461l2.156 14.221 6.095 3.6v.017l.053.053c.142.072.285.142.445.232l.124.072a52.9 52.9 0 0 0 21.937 5.15c13.668.3 27.906-4.865 30.259-5.773-2.548.749-18.64 5.364-32.166 3.422-11.993-1.729-18.159-4.046-20.03-4.847v-1.283h10.408v-9.124l-4.687-6.255-8.019-2.62z"/><path class="i" d="M208.019 186.626s-12.868 4.573-17.445 3.79c0 0 5.67-61.568 3.024-82.031s-3.024-24.7-3.024-24.7l-8.036 1.603 12.8-10.3 5.522 15.278z"/><path class="a" d="M196.272 137.047c-1 17.268-.937 50.772-.937 50.772s12.386.66 16.93-3.26c0 0 1.3-7.805 0-11.708 0 0 .944-8.143 1.621-17.5a180.1 180.1 0 0 0 .552-19.62c-.089-1.925-3.428-6.688-3.642-9.521-1.145-15.254 1.874-29.893 0-40.586-1.124-6.419-4.787-8.434-5.88-9.2a32.894 32.894 0 0 0-15.665-5.954s9.017 31.72 7.021 66.577z"/><path class="f" d="M195.299 72.129l2.423 2.388 2.548 8.75 1.033 5.809s-.819 12.724 4.419 17.25c1.158 7.592 0 30.723 0 30.723a44.225 44.225 0 0 0 5.382 16.091 16.406 16.406 0 0 0 2.78 2.21 180.116 180.116 0 0 0 .553-19.621c-.089-1.924-.25-4.384-.464-7.217l-5.791-26-6.594-26.891-3.583-1.959a10.9 10.9 0 0 0-2.706-1.533zm.05 115.695s11.654 1.747 16.929-3.261h-13.4l1.568-8.233h7.574s-9.106-.57-9.142-3.1l.3-1.639-3.054-31.739z"/><path class="a" d="M144.221 175.118c1.96 4.882 1.96 12.741 1.96 12.741 10.888 2.94 26.036 0 26.036 0-1.016-7.288-1.8-14.9-2.388-22.543-3.172-40.506-1.1-81.956-1.1-81.956-8.393-5.471-16.021-15.825-18.818-11.709-1.925 2.816-4.633 20.672-6.986 37.3-1.087 7.645-2.1 15.04-2.922 20.582-2.607 17.554 4.218 45.585 4.218 45.585z"/><path class="f" d="M144.221 175.119c1.96 4.882 1.96 12.741 1.96 12.741 10.888 2.94 26.036 0 26.036 0-1.016-7.288-1.8-14.9-2.388-22.543l-1.3 15.717s-11.761-.927-15.807-3.225c0 0-6.112-45.371 0-69.428 4.152-16.377-4.116-7.057-9.8.57-1.087 7.645-2.1 15.04-2.922 20.582-2.604 17.554 4.221 45.586 4.221 45.586z"/><path class="c" d="M209.442 96.322s7.02 6.736 9.105 9.628-8.67-3.391-8.67-3.391l-1.466-3.964z"/><path class="b" d="M153.756 192.329l3.721 6.516s-3.393 9.723-12.852 13.676v-14.638s8.058-7.432 9.131-5.554z"/><path class="a" d="M139.399 198.54c-2.673 5.667 0 8.518 0 8.518a21.4 21.4 0 0 0 9.712-5.132 37.847 37.847 0 0 0 6.7-7.663 5.257 5.257 0 0 0-3.1-4.9s-17.589-37.244-8.091-64.581c19.214-33.944 12.849-46.048 12.849-46.048s-.719-10.359-7.562-7.08c-14.736 5.779-23.8 27.787-28.756 55v.072c-.071.338-.142.695-.2 1.051-.8 4.509-1.443 9.142-1.907 13.847-3.31 33.607 20.355 56.916 20.355 56.916z"/><path class="j" d="M193.607 71.291s.374.178.927.428v.018c1.354.66 3.76 1.943 4.33 2.834a.055.055 0 0 1 .018.036c.713 1.247 14.185 56.882 15 81.421 1.5 1.765 3.867-4.687 3.475-10.549-1.568-23.024-10.5-71.035-16.029-73.875-.943-.485-3.951-1.532-3.951-1.532-.73-.232-2.083-.544-2.883.241-.232.231-.887.978-.887.978zm-32.855 304.218c0 2.263.446 4.134 1.569 4.847 3.385 2.138 19.424 6.237 25.3 7.128 5.9.891 11.583.713 14.1-1.6a5.123 5.123 0 0 0 1.658-3.03c.267-1.729-.413-4.783-1.736-6.024-5.281-4.956-11.671-3.325-15.975-9.323 0 0 .2-4.1-6.774-3.506-7.33.62-6.594 3.528-6.594 3.528s-5.292-1.408-5.417-4.277a12.794 12.794 0 0 0 1.238-1.364 6.388 6.388 0 0 0 .331-.864 4.033 4.033 0 0 0-.929.114 7.014 7.014 0 0 0-3.545 2.114c-1.461 1.547-3.226 7.692-3.226 12.257z"/><path class="k" d="M182.69 65.008s6.124-.062 8.384 2.449 4.268 7.531 4.268 7.531-.787 4.462-12.8 10.3a2.12 2.12 0 0 1-2.5-1.683c6.243-3.526 8.178-15.451 8.178-15.451a9.24 9.24 0 0 0-5.759-2.079z"/><path class="k" d="M180.037 83.603s-15.34-6.39-17.116-15.147c0 0 .555-2.617 2.172-3.617v-1.243s-7.26.244-8.917 2.848c0 0-3.432-1.183-6.272 5.206 0 0 6.746 9.283 25.681 13.661 1.148.266 2.1.777 4.953-.644s-.501-1.064-.501-1.064z"/><path class="f" d="M218.212 105.673s6 3.695 4.788 7.692-3.1 4.331-6.842 3.3-6.092-4.816-5.156-7.072.957-5.391 7.21-3.92z"/><path class="b" d="M221.7 109.145c-3.39-4.719-15.641-13.118-18.315-10.556a1.8 1.8 0 0 0-.2 2.521c.546.961-.935.573-.919 2.233a7.143 7.143 0 0 0 1.427 3.855c1.06 1.356.014 2.522 2.427 4.945 2.279 3.094 7.157 2.459 11.043 3.09a4.3 4.3 0 0 0 4.735-2.622 3.268 3.268 0 0 0-.198-3.466z"/><path class="l" d="M160.752 375.509c0 2.263.446 4.134 1.569 4.847 3.385 2.139 19.424 6.237 25.3 7.128 5.9.891 11.583.713 14.1-1.6a5.123 5.123 0 0 0 1.658-3.03c0-1.56-1.415-1.492-2.742-1.106-1.944.565-4.949 3.388-8.2 3.441-11.477.21-31.685-9.68-31.685-9.68z"/><path class="j" d="M89.34 375.611a1.607 1.607 0 0 1 0 .41 8.524 8.524 0 0 0 6.772 7.805c3.9.927 7.84 1.033 13.116 1.212s15.058-4.758 17.589-6.9c1.087-.926 1.407-2.958 1.407-5.221 0-2.975-.552-6.344-.552-7.965 0-2.851-1.8-3.528-1.8-3.528-.8 2.5-1.052 4.063-3.012 5.311s-3.974-1.6-3.974-1.6c-1.14-2.495-5.72-7.075-8.393-3.333s-15.094 10.443-18.195 10.443a2.678 2.678 0 0 0-2.495 1.515 1.532 1.532 0 0 0-.107.25 4.6 4.6 0 0 0-.356 1.601z"/><path class="l" d="M89.34 375.611a1.607 1.607 0 0 1 0 .41 8.524 8.524 0 0 0 6.772 7.805c3.9.927 7.84 1.033 13.116 1.212s15.058-4.758 17.589-6.9c1.087-.926 1.407-2.958 1.407-5.221 0 0-6.647 7.253-16.733 8.59-10.068 1.336-15.414-3.6-17-5.186-1.461-1.479-4.1-3.172-4.687-2.567a1.532 1.532 0 0 0-.107.25 4.6 4.6 0 0 0-.357 1.607z"/><path class="f" d="M139.399 198.54c-2.673 5.667 0 8.518 0 8.518a21.4 21.4 0 0 0 9.712-5.132l.107-.107s-5.287 1.049-7-.718c-2.309-2.379.533-5.823.533-5.823s-5.524-7.627-14.417-21.189c-7.306-11.156-7.449-36.068-7.271-44.551.018-.908.036-1.64.054-2.138l-.018.3-.142.071c-.8 4.509-1.443 9.142-1.907 13.847-3.316 33.613 20.349 56.922 20.349 56.922z"/><path class="j" d="M183.937 352.748s1.342 2.377 0 3.92-12.38.053-16-2.619c0 0-1.674-2.9 0-4.58-.003 0 13.07 4.65 16 3.279zm-49.007-6.219s2.038 2.922 0 5.24c0 0-6.784 2.432-13.383 0 0 0-4.031-2.3-4.26-4.9a3.718 3.718 0 0 1 1.444-3.6s5.782 6.787 16.199 3.26z"/><path d="M194.903 71.92c1.354.66 3.39 1.76 3.961 2.651-.125-.356-1.047-2.831-2.7-3.129a1.3 1.3 0 0 0-1.261.478z" fill="#6d3839"/><path class="g" d="M78.789 163.036s1.164 6.161-4.268 12.029-43.912 7.927-57 4.648c-6.079-1.523-14.268-9.3-14.268-9.3s-4.584-13.919-1.481-23.231 18.436-44.819 18.436-44.819l5-29.683 19.369-1.551 18.887 21.484 9.119 26.239 4.268 28.713z"/><path class="j" d="M28.49 131.219l2.12.289-6.381 4.278s2.218-3.958 4.261-4.567z"/><path d="M27.548 134.152l1.292-2.3 8.216-1.583s11.262-.774 14.064.2 7.3 1.959 7.3 1.959l-3.784 4.417z" fill="#93a4e0"/><path class="o" d="M34.066 122.493c.385 5.524 1.262 11.37 1.262 11.37 7.262 6.847 18.74-.754 15.956-4.693-1.185-1.677-2.093-4.785-2.724-7.8-.861-4.031-1.246-7.893-1.246-7.893s-11.232-3.431-12.879 0c-.677 1.415-.646 5.139-.369 9.016z"/><path class="p" d="M34.066 122.493s5.17 5.093 10 2.739a12.491 12.491 0 0 0 4.493-3.862c-.861-4.031-1.246-7.893-1.246-7.893s-11.232-3.431-12.879 0c-.676 1.415-.645 5.139-.368 9.016z"/><path class="o" d="M22.458 104.053c5.062 14.692 12.978 16.886 19.705 16.556a12.617 12.617 0 0 0 6.068-1.929c7.4-4.519 11.791-16.127 14-25.758a74.6 74.6 0 0 0 1.765-11.164c1.022-15.517-5.062-10.141-13.67-15.715s-27.868 6.6-27.868 6.6-5.062 16.717 0 31.41z"/><path class="p" d="M25.987 80.373s7.4-.907 11.1-3.809a22.346 22.346 0 0 0 11.675 6.4s4.419 8.146 4.518 16.11c.1 7.949-1.221 14.083-5.047 19.607 7.4-4.519 11.791-16.127 14-25.758l.363-11.906-22.807-14.15-9.054 5.376z"/><path class="o" d="M33.795 336.871c-.371.651 5.714 17.9 7.529 21.367s3.334 6.259 3.334 6.259-11.934 8.716-16.681 8.591c2.614-3.776 3.687-8.313 3.464-10.973-.213-2.542-2.652-14.494-2.652-14.494z"/><path class="j" d="M13.958 377.527a6.308 6.308 0 0 0 .05 1.186 7.249 7.249 0 0 0 .3 1.34c2.638 2.1 21.716-.044 25.5-2.494s10.181-6.733 10.666-8.886a2.793 2.793 0 0 0-.381-1.844 8.013 8.013 0 0 0-.521-.891 17.929 17.929 0 0 0-4.331-4.509c-1.428-.87-2.263-.136-2.263-.136l.461.939s-.187 4.74-5.519 3.283c-5.435-1.486-7.852-.451-8.88 1.54-1.444 2.789-1.894 3.718-7.2 4.361-5.766.718-7.743 3.514-7.882 6.111z"/><path class="l" d="M14.008 378.713a7.256 7.256 0 0 0 .3 1.34c2.638 2.1 21.716-.044 25.5-2.494s10.181-6.733 10.666-8.886a2.793 2.793 0 0 0-.381-1.844c-.055.272-.7 2.689-8.639 7.806-8.487 5.463-21.2 5.343-23.509 4.93-1.679-.298-3.146-.634-3.937-.852z"/><path class="q" d="M8.308 300.843a3.424 3.424 0 0 0 .281.695l.133.236c1.951 3.12 9.995 24.694 13.854 36.094 1.656 4.953 5.412 18.719 5.929 21.912.118.74.355 1.538 1.02 1.094 1.124-.769 2.706-1.271 4.821-2.5a10.042 10.042 0 0 1 4.036-1.286 7.619 7.619 0 0 1 2.084-.03c3.031.547 2.1-2.6 1.671-3.652-.429-1.02-6.284-26.024-9.478-35.074-5.263-14.889-9.492-17.447-12.494-23.3a26.194 26.194 0 0 1-1.7-4.17v-.015c-.428-1.316-.916-1.922-1.434-2.07-1.035-.281-2.174 1.4-2.957 2.913a22.108 22.108 0 0 0-1.005 2.173c-1.833 1.125-5.529 4.126-4.761 6.98z"/><path class="q" d="M6.964 295.756v.059a7.392 7.392 0 0 0 1.345 5.027 2.883 2.883 0 0 0 2.4 1.2c1.449-.1 2.868.3 4.317-.162 1.2-.37 2.41-1.346 3.7-3.667a25.612 25.612 0 0 0 1.449-3.179c.326-.858.665-1.8 1.006-2.869.073-.236.147-.5.236-.754v-.015c3.045-9.433 10.5-35.442 15.983-49.311.236-.606.473-1.183.7-1.745 1.478-3.563 2.78-6.077 3.77-6.934a1.366 1.366 0 0 1 .3-.237c2.853-1.775-2.411-11.43-9.715-17.122-4.3-3.372-9.315-5.353-13.81-3.549 0 0-3.061 12.539-5.973 28.464-1.3 7.171-2.588 15.037-3.549 22.755-1.539 12.241-2.041 27.677-2.159 32.039z"/><path class="j" d="M20.712 197.032l4.668 1.35 25.746 7.47s10.516.724 16.2-4.235a10.07 10.07 0 0 0 2.317-2.87c4.321-8.062-2-41.6-2-41.6-3.5-3.59-38.483-4.86-38.483-4.86l-6.291 33.325-.7 3.665z"/><path class="g" d="M21.294 186.777l.879 2.5 3.208 9.105 25.746 7.47s10.516.724 16.2-4.235l-5.349 1.093-1.29-12.136 5.957-12.29 1.912-5.31-24.869-2.753-20.818 15.391z"/><path class="o" d="M43.69 342.228c.541.532.765 16.577-.636 20.765a6.389 6.389 0 0 0-.4 2.809 9.164 9.164 0 0 1-1.257 6.055s3.132 4.835 13.763 3.443c4.752-.622-1-5.3-1.257-8.016s-2.016-15.612-2.016-15.612z"/><path class="j" d="M39.466 378.393c1.442 1.854 7.834 5.224 12.4 5.865 4.564.657 14.123 1.155 16.977-.714a7.148 7.148 0 0 0 .571-2.612c.083-2.753-1.512-5.459-5.314-7.212-5-2.3-5.562-3.741-8.168-5.775-1.857-1.452-4.283-1.216-9.229 1.455-4.93 2.671-4.245-.538-4.245-.538l-.022-1.109s-.734-.15-1.618 1.328a18.967 18.967 0 0 0-1.811 6.278 4.382 4.382 0 0 0 .459 3.034z"/><path class="l" d="M39.466 378.394c1.442 1.854 7.834 5.224 12.4 5.865 4.564.657 14.123 1.155 16.977-.714a7.147 7.147 0 0 0 .571-2.611s-6.275 2.328-16.551.867c-11.17-1.588-13.486-6.012-13.855-6.441a4.382 4.382 0 0 0 .458 3.034z"/><path class="q" d="M41.932 362.087c1.3.015 1.375-.37 4.539-1.079a9.446 9.446 0 0 1 3.83.207c.488.1.961.222 1.4.341 1.553.429 2.854.458 3.445-.8-1.39-13.914 5.427-37.765 3.919-60.5a153.238 153.238 0 0 1-.163-18.1v-.236c.1-1.434.222-2.751.341-3.918.014-.03 0-.059 0-.089a1.47 1.47 0 0 0 .044-.266.015.015 0 0 0-.015-.015c-.709-1.8-2.159-.562-3.8.99-.148.133-.311.281-.458.429-1.479 1.376-3.061 2.78-4.392 2.455-3.134-.754-7.422-7.689-7.422-1.39v.029c.044 16.664-1.257 20.966-1.493 31.76s1.227 32.885.547 41.609c-.662 8.706-.839 7.568-.322 8.573z"/><path class="q" d="M33.371 230.063q.732 2.019 1.685 4.3a53.951 53.951 0 0 1 2.336 7.718c2.587 10.7 4.85 27.088 5.811 38.029v.029c.488 5.544.9 9.641 1.331 10.794 1.4 3.8 5.294 5.4 9.847 3.888a7.317 7.317 0 0 0 .74-.266c.118-.045.221-.1.34-.148 1.76-.739 2.766-5.515 3.445-12.257v-.236c.133-1.243.237-2.558.341-3.918.014-.03 0-.059 0-.089a.873.873 0 0 0 .029-.281c.917-12.257 2.854-28.788 4.125-40.292 1.3-11.71-.932-18.526-1.567-22.267a14.727 14.727 0 0 0-.991-3.712c-2.366-6.047-16.294-5.766-23.805-.458a13.4 13.4 0 0 0-4.6 5.146c-1.743 3.67-1.181 8.12.933 14.02z"/><path class="o" d="M51.283 129.171s8.523 4.9 11.3 6.005c0 0-8.749 19.822-21.359 19.822S24.602 134.76 24.602 134.76l12.06-5.589z"/><path class="h" d="M18.925 192.373c-1.287 8.207-3.12 17.654-2.869 27.5.473.251.947.5 1.435.77 4.569 2.454 9.788 5.145 22.666 5.367q3.039.066 6.7-.089a28.826 28.826 0 0 1 3.474.163c3.992.355 8.4.843 9.611-2.766a97.091 97.091 0 0 1-6.358-34.614c.3-19.739 3.46-26.821 6.24-33.712 3.43-8.5 4.406-19.429 4.406-19.429l-5.811-3.149c-.724-.561-.99-.177-1.242.045-1.775 1.523-8.871 7.068-18.615 6.949-11.222-.148-9.8-7.556-9.8-7.556s-5.027 2.706-8.4 5.056a2.969 2.969 0 0 0-1.242 2.972 28.9 28.9 0 0 1 .665 6.4c-.266 2.144-7.157 14.5-1.893 24.781.1.236.237.488.37.724 2.763 4.841 2.008 12.027.663 20.588z"/><path d="M17.52 220.245c.059-.843.192-2.957.355-5.825a147.32 147.32 0 0 0-.355 5.825z" fill="#cce0ff"/><path class="s" d="M9.315 155.912c.576 9.256 6.683 22.534 6.683 22.534l1.553-11.311s-1.967-8.339-1.287-12.524a3.339 3.339 0 0 0 .029-.37c.192-3.726-7.082-2.321-7.082-2.321a22.224 22.224 0 0 0 .104 3.992zm34.761 16.707c.118 24.441 8.339 95.28 8.339 95.28a35.367 35.367 0 0 0 9 .621 28.813 28.813 0 0 0 10.172-2.322s-9.078-48.128-11.651-62.219c-1.833-10.01 3.652-33.194 6.461-48.142 1.153-6.122 1.863-10.853 1.435-12.76-1.464-6.55-1.819-7.275-10.705-11.355.005 0-13.215 8.99-13.051 40.897z"/><path class="f" d="M51.099 172.162l5.2 16.4a201.142 201.142 0 0 0 1.523 31.066c2.144 15.658 5.973 45.141 5.973 45.141l-2.38 3.756a28.81 28.81 0 0 0 10.172-2.322s-9.078-48.128-11.651-62.219c-1.833-10.01 3.652-33.194 6.461-48.142h-4.666l-11.1 11.474 1.079 2.913z"/><path class="j" d="M62.573 134.377s.052-.381-.152-.474a17.754 17.754 0 0 1-2.9-1.52.272.272 0 0 0-.336.016c-1.365 1.138-10.582 9.433-8.953 24.743 1.758 16.524 10.832 30.089 10.832 30.089l1.167-5s-6.472-16.309-7.218-27.921c-.357-5.529.991-15.872 7.56-19.933z"/><path d="M28.462 131.234a2.564 2.564 0 0 0-.828.5c.458-.278.724-.442.828-.5z" fill="#74394a"/><path class="s" d="M.96 253.853a29.419 29.419 0 0 0 9.714 2.972 18.1 18.1 0 0 0 3.416.133c1.123-16.205 9.876-73.116 5.707-93.432.71-23.524 5.619-30.016 7.733-31.716a87.217 87.217 0 0 0-7.171 5.1c-5.146 3.992-3.224 15.525-4.45 24.234s1.064 19.473-.177 27.473C14.474 196.632.96 253.853.96 253.853z"/><path class="j" d="M15.48 152.437a1.985 1.985 0 0 1 .813 1.8 3.324 3.324 0 0 1-.029.37 18.466 18.466 0 0 0-.03 4.451c.947-4.362 3.179-14.609 3.889-17.226a14.965 14.965 0 0 1 5.767-9.02s.369-.843-.4-.754-2.218.976-2.868 1.094-4.821 2.558-6.24 9.552a39.623 39.623 0 0 0-.902 9.733z"/><path class="g" d="M.028 151.923c.577 12.236 3.216 18.485 3.216 18.485S.605 154.99 4.25 145.376c3.281-8.674 9.284-18.782 12.665-26.005.379-.774.709-1.516 1.005-2.226a53.524 53.524 0 0 0 2.194-6.844c1.864-6.992 3.413-16.127 3.463-21.849a17.2 17.2 0 0 0-.247-3.463c-.4-1.946.825-3.4 2.656-4.618a31.086 31.086 0 0 1 3.841-2.094 33.05 33.05 0 0 0 4.848-2.6h.017c1.2-.891 2-1.864 2-3.035a28.679 28.679 0 0 0 4.139 3.743 21.237 21.237 0 0 0 3.1 1.9 11.715 11.715 0 0 0 4.832 1.336c1.583.05 2.8 1.319 3.776 3.3a41.366 41.366 0 0 1 2.573 8.245c1.138 5.012 2.094 10.372 3.644 13.043.313.527.66 1.072 1.022 1.583 1.534 2.275 3.43 4.452 5.178 6.662 2.227 2.836 4.255 5.739 5.062 9.07 1.6 6.546-2.622 18.634 0 23.861 2.622 5.244 12.2 19.491 4.518 29.665.545-.495 10.653-10.059 6.679-22.377-4.073-12.664 0-24.9-2.622-35.52a46.542 46.542 0 0 0-4.485-11 69.3 69.3 0 0 1-3.974-8.146 15.58 15.58 0 0 1-1.039-5.392 41.483 41.483 0 0 0-2.622-14.907 50.002 50.002 0 0 0-1.946-4.452 60.684 60.684 0 0 0-5.111-8.443c-.2-.28-.4-.56-.61-.858a14.43 14.43 0 0 0-4.3-3.957c-7.207-4.337-16.26-1.187-16.26-1.187a18.123 18.123 0 0 0-8.806-.2 11.744 11.744 0 0 0-5.788 3.331 10.04 10.04 0 0 0-.94 1.088 27 27 0 0 0-4.337 8.92 40.415 40.415 0 0 0-1.237 5.838c-1.369 9.465-.3 19.739-1.946 27.836a24.186 24.186 0 0 1-1.632 5.194c-.841 1.847-1.748 3.777-2.672 5.772C5.572 128.045-.48 141.517.028 151.923z"/><path class="s" d="M61.728 157.657c4.229 4.835 13.514 33.135 19.517 32.884a9.085 9.085 0 0 0 2.233-.37c4.6-1.42 6.845-6.743 2.2-15.807-5.072-9.876-12.686-28.108-19.651-36.905l-.014-.015q-.577-.732-1.153-1.375c-4.106-4.583-7.358 16.768-3.132 21.588z"/><path class="f" d="M66.033 137.459c.074.162.177.355.281.547a100.709 100.709 0 0 1 10.572 33.313l2.528 11.385 4.066 7.467c4.6-1.42 6.845-6.743 2.2-15.807-5.068-9.876-12.683-28.108-19.647-36.905z"/><path class="o" d="M46.974 159.223c.266 3.563 3.652 8.088 3.652 8.088l5.309 5.308 6.165-7.215a30.644 30.644 0 0 1-4.14-3.756 24.288 24.288 0 0 0-.266-1.863c-.547-2.839.873-6.476 0-7.5s-.917-3.46-1.2-4.392a.94.94 0 0 0-1.064-.769 37.771 37.771 0 0 0-.459 4.791c-.8-.089-4.347-4.318-4.347-4.318s-.606-1.242-1.537-.621c-.947.621-.547 4.244-.547 4.244-.872.965-1.837 4.444-1.566 8.003z"/><path class="s" d="M52.016 171.407c.606.71 1.464 1.641 2.514 2.736 6.018 6.3 18.142 17.7 23.923 17.7 6.787 0 7.9-3.415 7.9-3.415a10.017 10.017 0 0 0 .71-6.314c-.932-4.347-4.762-8.176-10.173-10.793-7.91-3.83-17.137-9.4-17.137-9.4a6.229 6.229 0 0 1-.488 1.08 29.054 29.054 0 0 1-5.825 7.141c-.847.788-1.424 1.265-1.424 1.265z"/><path class="f" d="M54.53 174.143c6.018 6.3 18.142 17.7 23.923 17.7 6.787 0 7.9-3.415 7.9-3.415a10.017 10.017 0 0 0 .71-6.314c-.621 3.712-2.884 9.182-11.031 5.944-11.847-4.703-21.502-13.915-21.502-13.915z"/><path d="M59.323 175.984a1.052 1.052 0 1 0 1.2-.882 1.052 1.052 0 0 0-1.2.882zm-3.881-3.977a1.052 1.052 0 1 0 1.2-.882 1.051 1.051 0 0 0-1.2.882z" fill="#4f394a"/><path class="f" d="M9.211 151.919a7.948 7.948 0 0 0 1.463 1.331 7.249 7.249 0 0 0 2.81 1.212 5.567 5.567 0 0 0 2.011.059 2.589 2.589 0 0 0 .8-.281 1.915 1.915 0 0 0-.62-1.626c-1.065-.99-3.239-1.02-4.776-.917a14.489 14.489 0 0 0-1.688.222z"/><path d="M21.294 140.178s-.5-2.088-2.153-2.174-5.131 5.218-5.654 6.871-1.479 6 0 6.172 5.332-3.7 5.332-3.7l-.594 2.652a3.325 3.325 0 0 0 1.959-3.189 1.87 1.87 0 0 0 1.109-1.846s1.674-1.237.891-2.14.306-1.863-.89-2.646z" fill="#f3c3c8"/><path class="o" d="M10.674 153.251a7.25 7.25 0 0 0 2.81 1.212 5.566 5.566 0 0 0 2.011.059l.177-1.908.591-6.077-2.78-1.656a43.578 43.578 0 0 0-2.587 6.816 7.784 7.784 0 0 0-.222 1.554z"/><path class="f" d="M10.674 256.826a18.1 18.1 0 0 0 3.416.133c1.123-16.205 9.876-73.116 5.707-93.432 0 0-.769 26.659-2.277 42.361s-6.846 50.938-6.846 50.938z"/></svg>