<svg xmlns="http://www.w3.org/2000/svg" width="562.453" height="524.932"><defs><linearGradient id="a" x1=".708" y1="-.473" x2=".675" y2="1.017" gradientUnits="objectBoundingBox"><stop offset="0" stop-color="#fff"/><stop offset="1" stop-color="#d8edff"/></linearGradient></defs><path d="M37.561 536.694c9.7 51.978 50.8 99.741 103.227 106.654 13.9 1.838 24.808 3.194 34.652 3.763 19.82 1.152 35.265-.875 61.852-8.59 42.134-12.222 84.516-23.583 127.262-33.442.408-.088.8-.19 1.211-.277 57.462-13.2 99.493-48.07 125.016-101.069 12.572-26.12 19.237-54.37 18.522-82.095a146.266 146.266 0 00-6.8-40.923A138.927 138.927 0 00478 335.432c-47.6-58.862-118.891-97.16-189.8-100.266a202.546 202.546 0 00-49.936 3.865c-2.027.423-4.054.875-6.067 1.371-.744.16-1.5.35-2.261.54a188.1 188.1 0 00-43.3 16.889 194.217 194.217 0 00-32.464 22.11c-36.2 30.35-54.924 53.932-80.315 93.66-28.464 44.568-45.995 111.086-36.296 163.093z" transform="translate(-34.87 -122.479)" fill="url(#a)"/><path d="M153.101 98.933l-24.13-9.417c.662-14.36-1.563-38.338-1.563-38.338l-12.1-9.639c-.847 11.32-1.578 29.364 2.422 43.586.006.023.018.048.025.071a37.543 37.543 0 006.583 13.6c1.133 1.387 2.017 1.539 2.7.777 16.391 19.349 48.173 47.8 52.184 85.1 5.167 48.036 32.676-27.926 32.676-27.926z" fill="#10215f"/><path d="M140.518 524.633c19.82 1.152 35.265-.875 61.852-8.59 42.134-12.222 84.516-23.583 127.262-33.442-15.065-27.331-33.879-57.185-40.092-69.071-.773-.8-1.371-1.429-1.808-1.852l-.233-.233-.131-.117c-.16-.175-.292-.292-.35-.35a.182.182 0 00-.029-.044l-129 .627-1.152.015z" fill="#1f4cdb"/><path d="M304.406 442.289c-34.659-12.752-6.733-111.59-7.505-180.668-.716-64.093-18.453-75.275-57.185-97.635q-4.52-2.6-9.427-5.45c-14.6-8.5-21.962-21.5-25.659-37.441s-4.39-46.656-27.827-45.455c-34.254 1.754-51.411-10.212-56.39-14.473-1.054-.906-.261-.529-.261-.529 1.919-24.442 23.465-44.776 56.682-46.639 33.216-1.845 62.807-1.059 84.584 106.277 10.706 52.776 139.023 40.384 149.64 162.6 11.748 135.372-71.992 172.164-106.652 159.413z" fill="#10215f"/><path d="M240.63 167.037s-13.053 16.466-31.254 16.466-24.325-9.028-24.325-9.028l-1.05-3.077a92.177 92.177 0 00-1.444-12.309c-3.166-17.209-10.312-28.585-13.375-31.05 0 0-.35.073-1.021.2a63.091 63.091 0 01-17.122 4.827 16.09 16.09 0 01-9.042-2.946 34.153 34.153 0 01-4.754-4.186c-10.224-11.347-17.091-35.133-17.412-63.237a68.106 68.106 0 011.34-12.892c4.011-18.3 15.97-21.278 16.54-21.41 0 0 29.444-7.219 41.432-1.823 11.959 5.44 22.359 25.785 24.24 40.325 1.123 8.751-.483 21.016-3.473 30.714 2.217 8.182 3.223 17.034 4.711 23.481 3.7 15.941 11.071 28.935 25.67 37.438q4.9 2.844 9.42 5.455c.1.35.2.671.292.963l.627 2.089z" fill="#ffcbbb"/><path d="M182.557 159.088c-3.166-17.209-10.312-28.585-13.375-31.05 0 0-.35.073-1.021.2 9.15-3.849 27.345-19.659 27.345-19.659 2.567 32.352-5.09 44.267-12.949 50.509z" fill="#f4c0b3"/><path d="M388.39 329.211c-5.742 11.821-13.207 27.561-18.2 39.554-3.213 7.719-4.606 13.308-4.992 17.332-41.056-23.825-64.8-104.181-64.8-104.181s-23.182 86.07-16.129 118.221c.14.659.3 1.292.468 1.9a59.946 59.946 0 004.791 11.487c-1.632-1.7-2.552-2.59-2.552-2.59l-128.987.627c-.37-3.334-.856-6.814-1.438-10.393-3.382-20.8-16.867-45.682-24.114-68.849a102.147 102.147 0 01-4.323-19.5 57.2 57.2 0 01-.316-8.033c.4-11.543.82-18.806 1.2-23.313-3.233 9.974-8.943 32.286-15.394 56.127-14.809 21.037-34.809 41.079-48.253 46.322a20.9 20.9 0 01-3.456 1.041.05.05 0 01-.026.006 11.877 11.877 0 01-1.6.229 10.839 10.839 0 01-1.3.038 7.113 7.113 0 01-5.489-2.533c-3.273-3.9-3.9-10.633-2.876-18.687a892.725 892.725 0 0110.3-35.206c0-.01.006-.016.012-.026 15.376-48.759 41.219-115.3 72.733-136.494 14.9-10.021 30.881-16.657 50.343-20.885l1.772 4.054s7.495 7.62 23.816 7.62 30.692-17.215 30.692-17.215l-.561-1.878c38.326 1.381 70.557 16.253 84.424 39.742 11.823 20.017 48.368 119.006 64.255 125.483z" fill="#6ca4ff"/><path d="M365.202 386.093c8.244 4.788 13.442 6.578 23.033 5.694 40.076-3.694 103.917-121.717 118.821-150.309 8.977-1.654 28.146-5.395 39.631-9.241 21.09-7.065 14.928-22.763 14.928-22.763s-16.546 10.989-29.434 10.989 5.386-8.608 5.386-8.608-5.093-8.19-23.058 4.285a136.968 136.968 0 00-23.787 21.35l.032.016c-54.985 48.462-79.153 74.468-98.3 90.737-1.336 1.136-2.5 1.607-4.068.964-5.737 11.821-13.2 27.561-18.191 39.554-3.214 7.72-4.605 13.308-4.993 17.332zM199.995 219.112s-.018.487-.088 1.3c-.3 3.421-1.54 12.631-6.448 15.405-3.541 2-40.99 6.86-40.99 6.86s-5.135 19.77-14.275 44.772a482.487 482.487 0 01-9.418 23.867c-.21.5-.432 1-.659 1.508a153.641 153.641 0 01-14.513 24.781c-14.809 21.031-34.809 41.073-48.253 46.316a20.9 20.9 0 01-3.456 1.041.05.05 0 01-.026.006 11.877 11.877 0 01-1.6.229 10.839 10.839 0 01-1.3.038 7.113 7.113 0 01-5.489-2.533c-3.273-3.9-3.9-10.633-2.876-18.687 1.337-10.581 5.525-23.453 10.3-35.206 0-.01.006-.016.012-.026 3.162-7.786 6.579-15.082 9.6-20.895 11.049-21.283 68.177-86.683 72.667-87.86 23.562-6.159 56.812-.916 56.812-.916z" fill="#ffcbbb"/><path d="M200.847 220.463s-.922 16.975-6.993 20.408c-3.541 2-30.952 9.42-30.952 9.42s-4.988 19.738-14.126 44.74c-2.2 6.023-11.017 25.411-16.331 37.289a102.147 102.147 0 01-4.323-19.5c.228-.509.449-1.011.659-1.508a479.959 479.959 0 009.418-23.867c9.14-25 14.275-44.772 14.275-44.772s37.449-4.861 40.99-6.86c4.908-2.774 6.15-11.984 6.448-15.405.611.034.935.055.935.055z" fill="#5395f4"/><path d="M158.156 78.88c-.662-1-.843-3.464-.035-4.346 1.448-1.581 3.333.491 3.6 2.32.171 1.161-.268 2.837-1.661 2.975a1.987 1.987 0 01-1.904-.949zm-29.403-.174c-.588-.993-.646-3.362.169-4.17 1.461-1.447 3.172.627 3.346 2.395.109 1.119-.391 2.705-1.733 2.772a1.9 1.9 0 01-1.782-.997z" fill="#10215f"/><path d="M139.835 101.561c-.37-2.387-2.678-3.207-2.061-5.982.442-1.986 1.546-3.811 1.736-5.853a1.785 1.785 0 00-.945-1.56.7.7 0 00-.089-.042c-.795-.276-2.1-.2-2.733 2-.327 2.129-1.911 4.1-1.994 6.308a7.577 7.577 0 001.092 3.637c.16.3 1.7 1.953 1.3 1.594 1.91 1.692 4.058 2.251 3.694-.102z" fill="#f4c0b3"/><path d="M157.116 112.374a5.2 5.2 0 01-1.288 2.316c-.125.136-.289.267-.459.473a12.034 12.034 0 01-7.31 2.678c-5.91.337-8.386-3.643-8.759-5.021a1.993 1.993 0 01-.038-.338c.16-1.508 4.264-2 7.689-2.043s9.187-.732 10.019.509a1.683 1.683 0 01.146 1.426z" fill="#fff"/><path d="M157.116 112.374a5.2 5.2 0 01-1.288 2.316c-.125.136-.289.267-.459.473a12.034 12.034 0 01-7.31 2.678c-5.91.337-8.386-3.643-8.759-5.021a50.6 50.6 0 008.863.2c3.636-.283 7.305-.523 8.953-.646z" fill="#cf3030"/><path d="M134.693 65.704c-1.722-1.267-5.147-.211-8.395 1.085s-4.525 3.952-1.924 2.707c5.1-2.441 9.732-.728 10.388-1.428a1.7 1.7 0 00-.069-2.364zm15.487-1.013c2.436-1.865 7.034-1.9 11.749-1.2s7.254 3.885 3.217 3.063c-6.236-1.272-14.179.961-15.222.427-1.266-.644-.33-1.839.256-2.29z" fill="#10215f"/><path d="M411.054 282.879c-10.617-122.219-141.077-119.9-151.785-172.671C237.493 2.873 203.893-1.341 170.663.208c-39.851 1.861-66.479 30.068-50.857 60.379 2.933 4.644 18.978 2.613 49.7-4.228 17.043-4.136 20.206 22.54 20.066 58.754-.139 36.147 56.775 48.965 84.876 74.153 15.564 14.949 22.492 34.958 17.977 75.411-7.972 71.422-22.681 164.856 11.978 177.608s118.404-24.034 106.651-159.406z" fill="#10215f"/></svg>