<svg xmlns="http://www.w3.org/2000/svg" width="361.412" height="458.726"><defs><style>.b{fill:#f7d0cb}.c{fill:#3f79ff}.g{fill:#0f3872}</style><linearGradient id="a" x1=".5" y1="-.38" x2=".5" y2="1.018" gradientUnits="objectBoundingBox"><stop offset="0" stop-color="#fff"/><stop offset="1" stop-color="#d8edff"/></linearGradient></defs><path d="M487.979 1759.277c-9.391 31.337-26.864 62.284-54.453 80.955a149.544 149.544 0 0 1-34.834 17.807c-17.975 6.3-36.409 8.556-58.382 9.684-30.724 1.575-62.089 3.678-92.13-1.77a162.981 162.981 0 0 1-19.27-4.668c-24.719-7.636-42.484-20.483-54.871-36.7-32.7-42.832-27.589-104.113-17.668-153.787 9.837-49.242 23.98-110.383 70.6-137.875a102.348 102.348 0 0 1 29.149-11.384c1.811-.418 3.651-.794 5.49-1.115a5.646 5.646 0 0 1 .669-.125c2.132-.39 4.292-.711 6.451-.989a1.219 1.219 0 0 0 .237-.028c.766-.1 1.533-.181 2.285-.251.432-.056.864-.1 1.282-.139.906-.1 1.811-.167 2.717-.237.432-.042.864-.069 1.3-.1a.209.209 0 0 1 .1-.014c1.7-.125 3.4-.209 5.114-.265 1.8-.07 3.595-.111 5.392-.111 2.1-.014 4.208.028 6.3.1q6.27.209 12.5.739c6.061.5 12.108 1.226 18.086 2.16a3.63 3.63 0 0 1 .376.069q8.757 1.359 17.348 3.358a.235.235 0 0 1 .1.014c.585.139 1.17.265 1.756.418q5.267 1.254 10.436 2.731c.878.251 1.756.515 2.62.78 40.519 12.094 76.984 34.737 102.761 67.69a176.624 176.624 0 0 1 23.91 40.826 182.538 182.538 0 0 1 7.831 22.782c8.819 32.41 6.44 67.258-3.202 99.445z" transform="translate(-148.858 -1410.749)" fill="url(#a)"/><path class="b" d="M319.972 171.654s2-18.687.908-26.048-8.377-28.292-8.377-28.292 8.674-6.417 11.4 8.548l5.918 7.732s15.905-35.334 19.69-33.1c5.724 3.387 15.794 13.01 10.323 31.412s-27.828 47.719-27.828 47.719z"/><path class="c" d="M322.16 158.16l18.6 11.656s-11.206 181.472-60.472 147.8c-2.034-1.392-47.3-48.7-47.3-48.7l-30.431-110.252s63.743 81.536 81.8 118.342c-.009-.002 31.238-118.846 37.803-118.846z"/><path d="M138.161 160.404l-31.348 13.272s5.71 86.176 3.64 161.193c-1.575 57.041-12.9 111.194-11.487 111.9 3.283 1.642 151.805-11.487 151.805-11.487s-16.056-32.463-22.694-99.108c-1.006-10.109 7.311-70.034 5.221-78.9-15.864-67.286-30.165-99.778-30.165-99.778l-36.451-.309z" fill="#6ca4ff"/><path d="M249.833 447.291c-17.975 6.3-36.409 8.556-58.382 9.684-30.724 1.575-62.089 3.678-92.13-1.769l.516-8.318.028-.488s145.9-19.271 147.238-15.69a35.566 35.566 0 0 1 1.365 4.779 70.207 70.207 0 0 1 1.365 11.802z" fill="#1f4cdb"/><path class="b" d="M181.432 329.151s16.411-31.284 19.284-29.9-5.334 18.863-5.334 18.863 36.105-4.6 36.105 4.14 10.664 23.92-25.848 29.442-42.669 4.14-42.669 4.14l.411-20.241z"/><path class="c" d="M106.254 173.164c11.614-8.813-.52 81.113 6.382 156.05l63.463-7.884 11.488 37.725s-66.79 21.829-101.056 1.484c-18.564-11.022-61.512-125.726 19.723-187.375z"/><g transform="translate(85.404)"><path class="b" d="M68.338 181.744c-16.162.7-19.167-18.655-19.817-26.241l-.776-42.072 42.845-9.272-3.545 50.942c-1.056 15.166-9.117 26.643-18.707 26.643z"/><path d="M42.282 103.826l48.47 34.419-3.6 14.778s-11.182 5.505-30.8-15.287c-15.508-16.435-14.066-24.614-14.066-24.614v-9.3z" fill="#eabbbb"/><path class="g" d="M111.762 34.675s8.629 23.558 5.792 34.43l-2.836 10.873s-7.248-32.46-7.248-32.932 4.292-12.371 4.292-12.371z"/><circle class="b" cx="50.464" cy="50.464" r="50.464" transform="rotate(-22.5 97.085 19.312)"/><path class="b" d="M116.398 66.888c0 20.321-10.779 70.919-28.931 72.634-27.745 2.62-73.5-42.761-63.659-65.792 7.984-18.687 37.471-7.794 55.7-7.794s36.89-19.369 36.89.952z"/><path class="g" d="M112.522 38.433c0 11.2-8.33 15.8-27.89 15.8-1.251 0-2.542-.039-3.858-.116-19.282-1.127-44.6-10.275-44.6-20.763 0-11.2 15.857-20.286 35.418-20.286s40.93 14.16 40.93 25.365z"/><path class="g" d="M56.348 16.391a50.485 50.485 0 0 0-40.625 44.5c2.273 14.04 13.434 30.371 27.32 30.445 4.661.025-4.531-27.069 20.522-40.479 12.75-6.824 6.952-31.65-7.217-34.466z"/><path class="g" d="M46.605 71.801c-6.153-9.628-23.541-17.573-29.767-17.573 0 .049-3 18.4-1.269 28.68a39.885 39.885 0 0 0 3.928 12.244s6.635 14.02 10.861 16.644 8.813-7.248 8.813-7.248l.687-5.8c3.51-3.684 5.774-9.4 5.774-15.836.001-2.784.973-11.111.973-11.111z"/><path class="b" d="M37.413 75.285c0 7.8-3.44 14.122-7.682 14.122s-7.682-6.323-7.682-14.122 3.439-14.123 7.682-14.123 7.682 6.323 7.682 14.123z"/><path class="b" d="M34.577 96.852l-1.335-1.626-5-6.086 7.987-9.9s0 10.873 4.845 12.763a32.256 32.256 0 0 1 9.219 6.2l-8.915 9.3-6.972 7.091z"/><path class="g" d="M90.77 59.409s24.041 10.035 17.837 92.257c0 0 28.691-71.486 12.075-98.073 0 0 10.732-42.014-37.461-39.605-11.487.575-38.038-2.792-49.394 4.021-11.486 6.892-46.433 65.581-3.468 93.787 0 0 8.9 28.206 15.546 39.838-.001 0 .831-77.27 44.865-92.225z"/></g><path class="g" d="M134.861 118.232l-2.755 25.314s11.431 35.493 3.811 54.173c0 0 6.669 26.154-3.811 42.966 0 0 9.527 46.7-3.809 65.381 0 0-11.431-28.021-2.858-63.514 0 0-11.431-24.284-2.858-41.1 0 0-5.83-13.888-3.925-40.04 0 0-15.671-47.741-10.337-60.754 1.894-4.621 13.31-1.949 13.31-1.949zm50.418 32.045s-1.312 16.1 1.545 25.1c0 0-9.527 18.013 0 33.026 0 0-11.431 21.016 2.858 33.026 0 0-11.431 51.041 1.9 57.045 5.792 2.608 6.667-36.029 2.858-54.042 0 0 11.431-30.024 1.9-39.031 0 0 11.431-25.52 1.9-33.026 0 0 8.573-12.01 9.526-49.539s-12.738-15.1-12.738-15.1-2.026 7.963-8.847 21.225c-1.335 2.594-7.768 8.714-7.768 8.714z"/></svg>