<svg xmlns="http://www.w3.org/2000/svg" xmlns:xlink="http://www.w3.org/1999/xlink" width="361.801" height="459.218" viewBox="0 0 361.801 459.218"><defs><linearGradient id="a" x1="0.5" y1="-0.38" x2="0.5" y2="1.018" gradientUnits="objectBoundingBox"><stop offset="0" stop-color="#fff"/><stop offset="1" stop-color="#d8edff"/></linearGradient></defs><g transform="translate(-148.858 -1441.075)"><path d="M488.344,1759.537c-9.4,31.371-26.893,62.351-54.512,81.042a149.714,149.714,0,0,1-34.872,17.827c-17.994,6.3-36.448,8.564-58.445,9.694-30.757,1.576-62.156,3.682-92.229-1.772a163.156,163.156,0,0,1-19.291-4.673c-24.745-7.644-42.53-20.5-54.93-36.741-32.738-42.878-27.619-104.225-17.687-153.952,9.848-49.295,24.006-110.5,70.678-138.023a102.444,102.444,0,0,1,29.181-11.4c1.813-.419,3.655-.8,5.5-1.116a5.66,5.66,0,0,1,.67-.126c2.134-.39,4.3-.711,6.458-.99a1.231,1.231,0,0,0,.237-.028c.767-.1,1.534-.181,2.288-.251.432-.056.865-.1,1.283-.139.907-.1,1.813-.167,2.72-.237.432-.042.865-.07,1.3-.1a.207.207,0,0,1,.1-.014c1.7-.125,3.4-.209,5.119-.265,1.8-.07,3.6-.112,5.4-.112,2.106-.014,4.213.028,6.3.1q6.277.209,12.512.739c6.068.5,12.121,1.228,18.105,2.162a3.575,3.575,0,0,1,.377.07q8.767,1.36,17.366,3.362a.238.238,0,0,1,.1.014c.586.139,1.172.265,1.758.418q5.273,1.255,10.448,2.734c.879.251,1.758.516,2.622.781,40.563,12.107,77.067,34.774,102.872,67.763a176.81,176.81,0,0,1,23.936,40.87,182.711,182.711,0,0,1,7.839,22.806C500.381,1692.429,498,1727.315,488.344,1759.537Z" transform="translate(0 30.441)" fill="url(#a)"/><g transform="translate(207.408 1441.075)"><path d="M380.614,1584.462s2-18.707.909-26.076-8.386-28.323-8.386-28.323,8.683-6.424,11.413,8.557l5.924,7.74s15.922-35.373,19.711-33.131c5.73,3.391,15.811,13.024,10.335,31.446s-27.858,47.77-27.858,47.77Z" transform="translate(-118.847 -1412.622)" fill="#f7d0cb"/><path d="M413.963,1554.583l18.619,11.668s-11.218,181.667-60.538,147.954c-2.037-1.393-47.353-48.749-47.353-48.749l-30.464-110.371s63.811,81.624,81.883,118.469C376.11,1673.555,407.39,1554.583,413.963,1554.583Z" transform="translate(-150.006 -1396.253)" fill="#3f79ff"/><path d="M259.156,1557.1l-31.382,13.286s5.716,86.269,3.643,161.366c-1.576,57.1-12.918,111.314-11.5,112.024,3.286,1.643,151.969-11.5,151.969-11.5s-16.073-32.5-22.718-99.215c-1.007-10.12,7.319-70.109,5.227-78.98-15.881-67.359-30.2-99.885-30.2-99.885l-36.49-.31Z" transform="translate(-179.397 -1396.527)" fill="#6ca4ff"/><path d="M370.813,1766.912c-17.994,6.3-36.448,8.564-58.445,9.694-30.757,1.576-62.156,3.682-92.229-1.772l.516-8.327.028-.488s146.057-19.291,147.4-15.706a35.589,35.589,0,0,1,1.367,4.784A70.287,70.287,0,0,1,370.813,1766.912Z" transform="translate(-179.262 -1319.14)" fill="#1f4cdb"/><path d="M284.3,1685.787s16.429-31.318,19.305-29.937-5.34,18.884-5.34,18.884,36.144-4.606,36.144,4.144,10.679,23.95-25.876,29.476-42.715,4.144-42.715,4.144l.412-20.263Z" transform="translate(-161.224 -1356.283)" fill="#f7d0cb"/><path d="M238.652,1565.521c11.626-8.823-.52,81.2,6.389,156.218l63.531-7.892,11.5,37.766s-66.862,21.852-101.165,1.486C200.323,1742.063,157.329,1627.236,238.652,1565.521Z" transform="translate(-190.833 -1392.171)" fill="#3f79ff"/><g transform="translate(26.946)"><path d="M265.032,1593.5h0c-16.179.7-19.188-18.675-19.838-26.27l-.777-42.117,42.891-9.282-3.549,51C282.7,1582.006,274.635,1593.5,265.032,1593.5Z" transform="translate(-196.62 -1411.556)" fill="#f7d0cb"/><path d="M240.506,1515.811l48.522,34.456-3.6,14.794s-11.194,5.511-30.836-15.3c-15.525-16.452-14.081-24.64-14.081-24.64v-9.307Z" transform="translate(-198.179 -1411.875)" fill="#eabbbb"/><path d="M291.576,1465.96s8.638,23.583,5.8,34.468l-2.839,10.884s-7.256-32.495-7.256-32.968S291.576,1465.96,291.576,1465.96Z" transform="translate(-179.695 -1431.248)" fill="#0f3872"/><circle cx="50.518" cy="50.518" r="50.518" transform="translate(0 38.665) rotate(-22.5)" fill="#f7d0cb"/><path d="M320.313,1491.709c0,20.343-10.791,70.995-28.962,72.712-27.775,2.623-73.578-42.807-63.728-65.863,7.993-18.707,37.511-7.8,55.761-7.8S320.313,1471.368,320.313,1491.709Z" transform="translate(-203.79 -1424.75)" fill="#f7d0cb"/><path d="M262.1,1452.838a50.54,50.54,0,0,0-40.669,44.548c2.275,14.055,13.448,30.4,27.349,30.478,4.666.025-4.536-27.1,20.544-40.523C282.092,1480.51,276.288,1455.657,262.1,1452.838Z" transform="translate(-205.695 -1436.429)" fill="#0f3872"/><path d="M252.547,1497.585c-6.16-9.639-23.566-17.592-29.8-17.592,0,.049-3.006,18.422-1.271,28.711a39.925,39.925,0,0,0,3.932,12.257h0s6.642,14.035,10.873,16.662,8.823-7.256,8.823-7.256l.688-5.81c3.514-3.688,5.78-9.411,5.78-15.853C251.574,1505.921,252.547,1497.585,252.547,1497.585Z" transform="translate(-205.892 -1425.707)" fill="#0f3872"/><path d="M241.356,1499.107c0,7.807-3.444,14.137-7.69,14.137s-7.69-6.33-7.69-14.137,3.443-14.138,7.69-14.138S241.356,1491.3,241.356,1499.107Z" transform="translate(-203.902 -1423.742)" fill="#f7d0cb"/><path d="M236.76,1515.574l-1.336-1.628-5-6.093,8-9.908s0,10.884,4.85,12.777a32.289,32.289,0,0,1,9.228,6.208l-8.924,9.309-6.98,7.1Z" transform="translate(-202.147 -1418.617)" fill="#f7d0cb"/><g transform="translate(40.939 72.826)"><path d="M278.611,1519.664c-3.251.707-9.072.283-11.179-1.837,0,0,1.272,4.381,5.589,4.381S278.611,1519.664,278.611,1519.664Z" transform="translate(-228.471 -1483.593)" fill="#eabbbb"/><path d="M270.628,1494.22a15.794,15.794,0,0,0-10.99.12,25.593,25.593,0,0,0-8.394,5.983c-4.427,5.264,1.317-.358,6.461-2.514,2.4-1,5.5-2.052,8.629-1.294A3.677,3.677,0,0,0,270.628,1494.22Z" transform="translate(-235.488 -1493.285)" fill="#223d72"/><path d="M277.493,1494.575a15.791,15.791,0,0,1,10.99.12,25.612,25.612,0,0,1,8.394,5.983c4.427,5.265-1.315-.359-6.461-2.512-2.4-1-5.5-2.053-8.627-1.3A3.678,3.678,0,0,1,277.493,1494.575Z" transform="translate(-224.498 -1493.144)" fill="#223d72"/><g transform="translate(12.906 6.445)"><path d="M248.753,1511.677a13.773,13.773,0,1,1,13.773,13.773A13.787,13.787,0,0,1,248.753,1511.677Zm2.537,0a11.236,11.236,0,1,0,11.236-11.236A11.25,11.25,0,0,0,251.29,1511.677Z" transform="translate(-248.753 -1497.905)" fill="#4b6caf"/></g><g transform="translate(0 18.947)"><path d="M240.136,1509.665l13.566-.26-.055-2.537-14.147.26Z" transform="translate(-239.5 -1506.868)" fill="#4b6caf"/></g><g transform="translate(45.312 6.701)"><path d="M271.985,1511.863a13.774,13.774,0,1,1,13.773,13.772A13.79,13.79,0,0,1,271.985,1511.863Zm2.537,0a11.236,11.236,0,1,0,11.236-11.237A11.246,11.246,0,0,0,274.522,1511.863Z" transform="translate(-271.985 -1498.089)" fill="#4b6caf"/></g><g transform="translate(70.577 18.944)"><path d="M290.152,1509.537s8.231-.134,8.623-.134c.1-.773.146-1.053.326-2.538l-9,.134Z" transform="translate(-290.098 -1506.866)" fill="#4b6caf"/></g><g transform="translate(38.321 18.073)"><path d="M274.229,1510.262l2.013-1.542a6.729,6.729,0,0,0-4.3-2.448,6.387,6.387,0,0,0-4.967,1.861l1.677,1.9a4.085,4.085,0,0,1,3.02-1.241A4.181,4.181,0,0,1,274.229,1510.262Z" transform="translate(-266.973 -1506.241)" fill="#4b6caf"/></g><path d="M280.236,1508.459c0,2.547,1.116,4.61,2.493,4.61s2.491-2.063,2.491-4.61-1.116-4.61-2.491-4.61S280.236,1505.913,280.236,1508.459Z" transform="translate(-223.415 -1489.113)"/><ellipse cx="2.492" cy="4.61" rx="2.492" ry="4.61" transform="translate(24.187 14.736)"/><path d="M260.151,1527.514s.9,8.835,12.2,8.991c7.33.124,10.35-3.088,11.53-5.369a7.1,7.1,0,0,0,.813-2.191s-15.978.5-23.477-1.177h-.031A10.12,10.12,0,0,1,260.151,1527.514Z" transform="translate(-231.346 -1479.768)" fill="#7c3147"/><path d="M260.889,1527.7l.548,1.76a36.332,36.332,0,0,0,9.221,1.856,70.012,70.012,0,0,0,11.71-.138,13.1,13.1,0,0,0,1.233-2.289c-3.339.081-16.178.254-22.669-1.19Z" transform="translate(-231.055 -1479.695)" fill="#fff"/></g><path d="M297.181,1496.508s24.067,10.046,17.856,92.356c0,0,28.722-71.562,12.088-98.178,0,0-2.642-35.876-37.334-39.02-63.521-5.756-89.99,58.692-53.086,97.286,0,0,8.909,28.236,15.563,39.881C252.267,1588.832,253.1,1511.479,297.181,1496.508Z" transform="translate(-206.313 -1437.035)" fill="#0f3872"/></g><path d="M253.482,1531.677l-2.758,25.341s11.444,35.532,3.815,54.231c0,0,6.676,26.182-3.815,43.012,0,0,9.537,46.751-3.814,65.452,0,0-11.444-28.051-2.861-63.583,0,0-11.444-24.31-2.861-41.14,0,0-5.836-13.9-3.929-40.083,0,0-15.688-47.793-10.349-60.819,1.9-4.625,13.324-1.952,13.324-1.952Z" transform="translate(-177.025 -1413.318)" fill="#0f3872"/><path d="M283.772,1562.865s-1.314,16.114,1.547,25.131c0,0-9.537,18.033,0,33.062,0,0-11.444,21.039,2.861,33.061,0,0-11.444,51.1,1.907,57.106,5.8,2.611,6.674-36.067,2.861-54.1,0,0,11.444-30.057,1.907-39.073,0,0,11.444-25.547,1.907-33.061,0,0,8.583-12.022,9.537-49.592s-12.752-15.119-12.752-15.119-2.028,7.972-8.856,21.248c-1.336,2.6-7.776,8.723-7.776,8.723Z" transform="translate(-156.843 -1412.427)" fill="#0f3872"/></g></g></svg>