<svg xmlns="http://www.w3.org/2000/svg" width="385.693" height="458.726"><defs><style>.b{fill:#223d72}.d{fill:#f7d0cb}.e{fill:#eabbbb}.f{fill:#3f79ff}.g{fill:#325cff}.h{fill:#73a7e0}.i{fill:#aed5ff}</style><linearGradient id="a" x1=".5" y1="-.38" x2=".5" y2="1.018" gradientUnits="objectBoundingBox"><stop offset="0" stop-color="#fff"/><stop offset="1" stop-color="#d8edff"/></linearGradient></defs><path d="M501.076 1812.7c-3.713 17.793-13.241 35.282-23 50.351a287.62 287.62 0 0 1-87.485 86.289q-11.285 7.127-23.192 13.176a230.173 230.173 0 0 1-24.173 10.613q-5.941 2.2-12.027 4.05-3.988 1.21-8.025 2.244c-16.172 4.136-32.83 6.076-49.193 4.806a120.083 120.083 0 0 1-13.824-1.885 108.544 108.544 0 0 1-26.945-9.047 113.774 113.774 0 0 1-31.784-23.535c-16.387-16.979-28.414-38.34-38.341-59.774-17.409-37.574-37.494-79.971-33.005-122.5 5.046-47.875 43.387-83.149 84.554-102.97a254.5 254.5 0 0 1 38.316-14.749 246.062 246.062 0 0 1 33.9-7.476c23.911-3.521 48.268-3.337 71.4 1.558 1.765.375 3.514.774 5.263 1.214a159.988 159.988 0 0 1 19.853 6.388c40.744 16.084 75.875 48.49 98.809 84.81a149.366 149.366 0 0 1 14.1 28.176c.382 1.046.758 2.1 1.109 3.154q1.127 3.354 2.029 6.772a95.768 95.768 0 0 1 2.435 12.13 77.973 77.973 0 0 1-.774 26.205z" transform="translate(-129.443 -1525.893)" fill="url(#a)"/><path class="b" d="M134.862 67.891l-5.754 14.911s-9.518 77.942-16.849 99.323S117.795 228 145.284 228s81.156-29.992 97.983-26.327 10.792-132.692 3.461-151.629-60.552-18.193-60.552-18.193z"/><path d="M229.937 178.596l-3.323-5.918-21.124-4.071s-28.957-1.989-36.162.5-18.773 5.036-18.773 5.036l9.737 11.371z" fill="#93a4e0"/><path class="d" d="M213.179 148.623c-.99 14.2-3.245 29.233-3.245 29.233-18.671 17.6-48.182-1.939-41.021-12.064 3.045-4.312 5.38-12.3 7-20.056 2.216-10.365 3.2-20.294 3.2-20.294s28.877-8.821 33.11 0c1.746 3.639 1.667 13.211.956 23.181z"/><path class="e" d="M213.179 148.623s-13.292 13.093-25.713 7.041a32.124 32.124 0 0 1-11.551-9.929c2.216-10.365 3.2-20.294 3.2-20.294s28.877-8.821 33.11 0c1.744 3.64 1.665 13.212.954 23.182z"/><path class="d" d="M142.303 57.801c1.523 23.309 15.184 87.839 50.354 89.575 15.508.766 33.737-4.316 45.417-38.186s0-72.412 0-72.412-44.381-28.031-64.236-15.183-33.87.442-31.535 36.206z"/><path class="b" d="M234.382 66.184a81.449 81.449 0 0 0 8.464 11.393 30.11 30.11 0 0 1-9.217-1.306h-.039c-3.441-2.808-6.843-6.131-8.031-9.376a54.231 54.231 0 0 0 2.808 7.28 34.075 34.075 0 0 1-10.838-9.019A139.672 139.672 0 0 1 204 45.021a102.074 102.074 0 0 1-5.42-11.433 88.193 88.193 0 0 1-5.656 17.564c-4.035 9.335-10.76 19.977-21.164 25.04-.672.316-1.345.633-2.017.91a156.016 156.016 0 0 0 10.64-21.638c3.008-7.358 4.867-13.054 5.143-13.925-3.164 5.459-6.092 10.245-8.782 14.4-8.5 13.253-14.676 20.57-18.869 24.646-14 2.77-29.964 11.616-29.964 11.616s-1.762-19.608 2.273-36.182a101.611 101.611 0 0 1 9.85-25.712c8.584-15.033 22.509-27.81 45.1-29.907 16.378-1.464 39.282.079 52.574 22.866a70.092 70.092 0 0 1 7.635 19.857c2.1 8.822 5.737 20.013 5.7 32.632-5.307-2.021-12.942-5.616-16.661-9.571z"/><path class="f" d="M261.148 423.45q-11.285 7.127-23.192 13.176a230.173 230.173 0 0 1-24.173 10.613q-5.941 2.2-12.027 4.05c-1.134-2.843-2.228-5.471-3.29-7.827-2.539-5.661-4.847-9.766-6.764-11.683a6.286 6.286 0 0 0-.751-.671c-3.122-2.252-1.8-8.273 2.388-15.437.168-.279.335-.567.512-.855a77.57 77.57 0 0 1 7.171-9.774 91.7 91.7 0 0 1 17.281-15.708c11.78-8.13 25.26-12.587 36.648-7.068 0 0 1.134 6.62 2.811 17.665.982 6.468 2.148 14.456 3.386 23.519zm-14.424-101.482l-12.342 1.937-68.081 10.76s-27.057-1.543-39.953-16.02a25.884 25.884 0 0 1-4.984-8.07c-8.427-21.956 18.513-105.463 18.513-105.463 10.087-8.031 99.726 0 99.726 0l5.3 87.028.594 9.574z"/><path class="g" d="M248.544 295.621l-3.047 6.092-11.115 22.191-68.081 10.76s-27.057-1.543-39.953-16.02l13.291 4.509 7.2-30.539-11.235-33.269-3.164-14.162 64.322.99 48.142 45.966zM213.782 447.24q-5.941 2.2-12.027 4.05c-1.134-2.843-2.228-5.471-3.29-7.827-2.539-5.661-4.847-9.766-6.764-11.683l13.592-9.431s.847 2.427 2.308 6.677c1.501 4.367 3.65 10.66 6.181 18.214z"/><path class="f" d="M216.402 413.599a135.641 135.641 0 0 1-8.8 15.429c-1.94 3.051-4.065 6.268-6.333 9.679q-1.377 2.084-2.8 4.759c-1.55 2.9-3.138 6.294-4.735 10.072-16.172 4.136-32.83 6.076-49.193 4.806a120.083 120.083 0 0 1-13.824-1.885c.615-7.914 1.19-15.429 1.725-22.256a151.36 151.36 0 0 1 5.4-30.658c3.362-11.651 7.276-19.43 9.28-24.8 2.45-6.532 4.272-8.9 4.272-8.9 8.9-14.159 43.947-6.725 60.366 10.284a33.746 33.746 0 0 1 6.547 9.217c3.474 7.558 2.312 15.2-1.905 24.253z"/><path class="g" d="M206.1 414.808s-5.334.366-12.762.862c-15.189 1.008-39.157 2.538-44.281 2.538 0 0-1.836 17.147-4.52 40.13a120.083 120.083 0 0 1-13.824-1.885c.615-7.914 1.19-15.429 1.725-22.256a151.36 151.36 0 0 1 5.4-30.658c3.362-11.651 7.276-19.43 9.28-24.8l44.585 8.386 9.319 17.919 4.911 9.439z"/><path class="d" d="M168.913 165.791s-21.917 12.588-29.044 15.44c0 0 22.494 50.962 54.915 50.962s42.735-52.033 42.735-52.033l-31.006-14.369z"/><path class="h" d="M265.681 228.016s3.554 1.513 4.9 4.178-5.571 10.667-11.131 10.482-11.444-3.918-8.945-8.53 15.176-6.13 15.176-6.13z"/><path class="d" d="M260.056 289.174a47.007 47.007 0 0 1-5.182-11.077 193.684 193.684 0 0 1-4.431-20.214c-4.312-25.277-7-60.881 4.351-62.423 0 0 4.945 14 10.6 32.557.792 2.611 1.622 5.261 2.414 8.031 6.29 21.283 12.738 46.323 13.885 62.937 4.154 18.907-12.302 5.537-21.637-9.811z"/><path class="e" d="M273.308 305.037c-7.061-5.889-13.252-15.114-13.252-15.114a47.031 47.031 0 0 1-5.182-11.076 193.757 193.757 0 0 1-4.431-20.216l5.657-29.867h9.295c.792 2.611 1.622 5.261 2.414 8.031 0 0-3.269-3.031-7.473.883.113 18.135 1.431 25.173 3.448 35.267 2.104 10.531 4.875 19.173 9.524 32.092z"/><path class="i" d="M242.632 184.934s5.369.228 6.589 1.387c9.152 8.7 18.041 29.463 21.355 45.872 0 0-13.811-4.971-26.959 6.407-7.449 6.447-13.578-48.409-.985-53.666z"/><path class="i" d="M150.559 174.148c1.866-1.47 2.566-.477 3.222.089 4.56 3.921 22.8 18.182 47.859 17.872 28.857-.355 25.174-19.431 25.174-19.431s12.944 6.982 21.626 13.016a7.607 7.607 0 0 1 3.158 7.621c-.913 5.012-2.137 12.8-1.694 16.471.681 5.645 19.24 38.816 3.9 65.6-13.938 24.34 6.971 71.926 5.688 123.631-14.645 7.759-28.989 17.576-79.216 15.531-11.4-.464-44.371-5.672-48.481-17.831 0 0 4.039-36.422 24.312-79.819 14.423-30.874-2-66.977-9.15-84.7-8.818-21.871-11.344-49.978-11.344-49.978z"/><path class="b" d="M233.956 176.687s-.447-2.327 1.427-1.659 4.987 3.781 6.544 4.448 10.561 9.238 10 27.582c-.572 18.614-3.854 55.3-3.854 55.3l-8.463 2.458s3.759-53.259 3.487-62.156.017-17.419-9.141-25.973z"/><path class="d" d="M262.191 285.217c-1.819 1.661.555 5.063-5.3 8.466a6.4 6.4 0 0 1-3.125.237c-5.341-.435-15.507-2.886-22.628-.237a6.13 6.13 0 0 1-2.135.4 5.149 5.149 0 0 1-4.273-2.808c-2.135-3.521-2.294-9.613.079-13.37a6.506 6.506 0 0 1 3.56-3.007s13.368-7.49 20.887-8.308c9.576-1.042 15.737-3.332 16.688-.128 1.226 4.233-1.575 2.977-2.881 7.8-1.029 3.716 3.599 6.802-.872 10.955z"/><path class="d" d="M238.338 287.393a16.389 16.389 0 0 1-8.386 6.33q-.416.178-.949.355c-3.719 1.384-11.59 4.312-20.729 7.278l-.039.041c-15.586 5.1-30.4 6.675-39.5 5.37a7.753 7.753 0 0 1-4.114-1.622 11.8 11.8 0 0 1-3.56-6.013 17.965 17.965 0 0 1 .158-8.347 26.676 26.676 0 0 1 2.453-6.487c0 .633 2.948-3.472 9.3-5.459s10.663-2.364 21.621-.98c12.025 1.5 22.469.555 30.222.041 6.25-.436 10.68-.594 12.7 1.029 2.523 2.018 2.721 5.339.823 8.464z"/><path class="d" d="M226.882 280.622s-7.206-.913-7.5-2.361c12.106-3.56 15.755-12.387 21.3-14.264s6.386-3.126 8.765-5.055 4.114 4.156-.223 7.06-6.427 8.116-8.7 10.018-13.642 4.602-13.642 4.602z"/><path class="b" d="M140.516 179.177s-.133-.979.389-1.219a45.548 45.548 0 0 0 7.461-3.907.7.7 0 0 1 .863.041c3.509 2.924 27.205 24.255 23.018 63.616-4.521 42.486-7.118 46.728-7.118 46.728l-10.14-17.979s4.969-21.538 4.969-36.031c0-14.246-2.552-40.809-19.442-51.249z"/><path class="h" d="M131.484 237.301s-2.409 7.739-.316 11.247 37.651-6.4 34.245-19.075-11.835-11.142-11.835-11.142z"/><path class="d" d="M174.132 302.515a.745.745 0 0 0-.079.277c-.831 2.492-1.978 4.351-3.56 5.023-2.888 1.345-7.16-1.226-13.172-10.958a12.304 12.304 0 0 1-.475-.751.039.039 0 0 0-.039-.04 141.07 141.07 0 0 1-4.747-8.662c-12.976-25.713-17.88-47.51-19.621-62.107-1.5-12.342-.751-19.5-.751-19.5s14.913-2.73 21.044 2.69c.95.831 2.018 2.808 3.165 5.578a174.814 174.814 0 0 1 5.38 16.654v.039c5.024 17.722 10.166 40.349 12.738 46.719a13.591 13.591 0 0 1 .712 2.413c1.304 5.812 1.423 16.176-.595 22.625z"/><path class="e" d="M161.276 230.716v.039s-11.868-.118-16.456 7.278c0 0-5.419 4.629-5.657 17.8v.078a170.56 170.56 0 0 1-6.725-30.618l21.124-10.8a9.154 9.154 0 0 1 2.335-.435 174.814 174.814 0 0 1 5.379 16.658z"/><path class="i" d="M143.327 182.215h-7.709s-22.286 12.734-4.446 66.333c3.049-12.4 25.31-29.207 34.245-19.075.001.001-4.655-33.784-22.09-47.258z"/><path class="e" d="M253.962 293.919c-4.925-.435-14.3-2.886-20.864-.237a5.265 5.265 0 0 1-1.97.4c-3.428 1.384-12.1 3.232-20.521 6.2 0 0-29.972 9.878-38.361 8.573-4.21-.331-7.464.456-13.008-9.275 1.349 1.978 3.173 2.69 5.069 3.323a19.336 19.336 0 0 1 4.05 1.7c1.385.91 3.391 1.186 6.309.91 3.83-.318 9.265-1.663 17-3.838 10.833-3.045 26.152-7.278 35.525-10.4 2.3-.792 11.164-2.919 13.716-3.315a74.394 74.394 0 0 1 15.333-.3c.327 2.567-1.513 3.926-2.278 6.259z"/><path class="d" d="M385.627 239.833s-3.267-1.105-9.852 5.612c-4.727 4.824-17.215 4.484-18.98 2.936s3.008-3.6 7.247-4.862 8.794-5.234 5.657-5.234-16.727 2.585-21.109 3.426c-2.328.448-7.215 7.157-20.478 15.617-6.672 2.717-17.144 8.551-28.123 13.172-11.033 4.645-15.191 6.943-21.307 12.029-5.115 4.254-6.958 22.841-1.21 25.131a7.744 7.744 0 0 0 4.421.044c8.964-2.032 25.122-13.932 37.856-24.269l.023-.051c8.188-6.606 14.95-12.624 17.518-14.877.424-.376.819-.754 1.19-1.134 2.409-1.969 4.516-3.609 6.282-4.783a7.414 7.414 0 0 1 2.888-1.411c4.382-.841 19.567.353 24.371-.491 3.272-.574 7.833-5.052 10.465-9.561 3.942-6.748 3.141-11.294 3.141-11.294z"/></svg>