<svg xmlns="http://www.w3.org/2000/svg" xmlns:xlink="http://www.w3.org/1999/xlink" width="562.453" height="524.932" viewBox="0 0 562.453 524.932"><defs><linearGradient id="a" x1="0.708" y1="-0.473" x2="0.675" y2="1.017" gradientUnits="objectBoundingBox"><stop offset="0" stop-color="#fff"/><stop offset="1" stop-color="#d8edff"/></linearGradient></defs><g transform="translate(-34.87 -157.834)"><path d="M37.561,536.694c9.7,51.978,50.8,99.741,103.227,106.654,13.9,1.838,24.808,3.194,34.652,3.763,19.82,1.152,35.265-.875,61.852-8.59,42.134-12.222,84.516-23.583,127.262-33.442.408-.088.8-.19,1.211-.277,57.462-13.2,99.493-48.07,125.016-101.069,12.572-26.12,19.237-54.37,18.522-82.095a146.266,146.266,0,0,0-6.8-40.923A138.927,138.927,0,0,0,478,335.432c-47.6-58.862-118.891-97.16-189.8-100.266a202.546,202.546,0,0,0-49.936,3.865c-2.027.423-4.054.875-6.067,1.371-.744.16-1.5.35-2.261.54a188.1,188.1,0,0,0-43.3,16.889,194.217,194.217,0,0,0-32.464,22.11c-36.2,30.35-54.924,53.932-80.315,93.66C45.393,418.169,27.862,484.687,37.561,536.694Z" transform="translate(0 35.355)" fill="url(#a)"/><g transform="translate(85.024 157.833)"><path d="M151.937,243.71l-24.13-9.417c.662-14.36-1.563-38.338-1.563-38.338l-12.1-9.639c-.847,11.32-1.578,29.364,2.422,43.586h0c.006.023.018.048.025.071a37.543,37.543,0,0,0,6.583,13.6c1.133,1.387,2.017,1.539,2.7.777,16.391,19.349,48.173,47.8,52.184,85.1,5.167,48.036,32.676-27.926,32.676-27.926Z" transform="translate(-48.99 -144.776)" fill="#10215f"/><path d="M131.219,553.3c19.82,1.152,35.265-.875,61.852-8.59,42.134-12.222,84.516-23.583,127.262-33.442-15.065-27.331-33.879-57.185-40.092-69.071-.773-.8-1.371-1.429-1.808-1.852l-.233-.233-.131-.117c-.16-.175-.292-.292-.35-.35a.182.182,0,0,0-.029-.044l-129,.627-1.152.015Z" transform="translate(-40.855 -28.666)" fill="#1f4cdb"/><g transform="translate(69.676 13.625)"><path d="M301.6,595.841c-34.659-12.752-6.733-111.59-7.505-180.668-.716-64.093-18.453-75.275-57.185-97.635q-4.52-2.6-9.427-5.45c-14.6-8.5-21.962-21.5-25.659-37.441s-4.39-46.656-27.827-45.455c-34.254,1.754-51.411-10.212-56.39-14.473-1.054-.906-.261-.529-.261-.529,1.919-24.442,23.465-44.776,56.682-46.639,33.216-1.845,62.807-1.059,84.584,106.277,10.706,52.776,139.023,40.384,149.64,162.6C420,571.8,336.26,608.592,301.6,595.841Z" transform="translate(-117.024 -167.176)" fill="#10215f"/><path d="M237.834,317.147s-13.053,16.466-31.254,16.466-24.325-9.028-24.325-9.028l-1.05-3.077a92.177,92.177,0,0,0-1.444-12.309c-3.166-17.209-10.312-28.585-13.375-31.05,0,0-.35.073-1.021.2a63.091,63.091,0,0,1-17.122,4.827,16.09,16.09,0,0,1-9.042-2.946,34.153,34.153,0,0,1-4.754-4.186c-10.224-11.347-17.091-35.133-17.412-63.237a68.106,68.106,0,0,1,1.34-12.892c4.011-18.3,15.97-21.278,16.54-21.41,0,0,29.444-7.219,41.432-1.823,11.959,5.44,22.359,25.785,24.24,40.325,1.123,8.751-.483,21.016-3.473,30.714,2.217,8.182,3.223,17.034,4.711,23.481,3.7,15.941,11.071,28.935,25.67,37.438q4.9,2.844,9.42,5.455c.1.35.2.671.292.963C237.615,316.418,237.834,317.147,237.834,317.147Z" transform="translate(-117.034 -163.734)" fill="#ffcbbb"/><path d="M164.569,282.792c-3.166-17.209-10.312-28.585-13.375-31.05,0,0-.35.073-1.021.2,9.15-3.849,27.345-19.659,27.345-19.659C180.085,264.635,172.428,276.55,164.569,282.792Z" transform="translate(-101.842 -137.328)" fill="#f4c0b3"/></g><path d="M407.495,435.5c-5.742,11.821-13.207,27.561-18.2,39.554-3.213,7.719-4.606,13.308-4.992,17.332-41.056-23.825-64.8-104.181-64.8-104.181s-23.182,86.07-16.129,118.221c.14.659.3,1.292.468,1.9a59.946,59.946,0,0,0,4.791,11.487c-1.632-1.7-2.552-2.59-2.552-2.59l-128.987.627c-.37-3.334-.856-6.814-1.438-10.393-3.382-20.8-16.867-45.682-24.114-68.849a102.147,102.147,0,0,1-4.323-19.5,57.2,57.2,0,0,1-.316-8.033c.4-11.543.82-18.806,1.2-23.313-3.233,9.974-8.943,32.286-15.394,56.127C117.9,464.926,97.9,484.968,84.456,490.211A20.9,20.9,0,0,1,81,491.252a.05.05,0,0,1-.026.006,11.877,11.877,0,0,1-1.6.229,10.839,10.839,0,0,1-1.3.038,7.113,7.113,0,0,1-5.489-2.533c-3.273-3.9-3.9-10.633-2.876-18.687,2.554-9.451,6.022-21.637,10.3-35.206,0-.01.006-.016.012-.026,15.376-48.759,41.219-115.3,72.733-136.494,14.9-10.021,30.881-16.657,50.343-20.885l1.772,4.054s7.495,7.62,23.816,7.62,30.692-17.215,30.692-17.215l-.561-1.878c38.326,1.381,70.557,16.253,84.424,39.742C355.063,330.034,391.608,429.023,407.495,435.5Z" transform="translate(-69.259 -106.288)" fill="#6ca4ff"/><g transform="translate(0 209.217)"><path d="M285.279,478.165c8.244,4.788,13.442,6.578,23.033,5.694,40.076-3.694,103.917-121.717,118.821-150.309,8.977-1.654,28.146-5.395,39.631-9.241,21.09-7.065,14.928-22.763,14.928-22.763s-16.546,10.989-29.434,10.989,5.386-8.608,5.386-8.608-5.093-8.19-23.058,4.285a136.968,136.968,0,0,0-23.787,21.35l.032.016c-54.985,48.462-79.153,74.468-98.3,90.737-1.336,1.136-2.5,1.607-4.068.964-5.737,11.821-13.2,27.561-18.191,39.554C287.058,468.553,285.667,474.141,285.279,478.165Z" transform="translate(29.769 -301.288)" fill="#ffcbbb"/><path d="M219.1,308.728s-.018.487-.088,1.3c-.3,3.421-1.54,12.631-6.448,15.405-3.541,2-40.99,6.86-40.99,6.86s-5.135,19.77-14.275,44.772c-2.777,7.614-5.934,15.7-9.418,23.867-.21.5-.432,1-.659,1.508a153.641,153.641,0,0,1-14.513,24.781C117.9,448.252,97.9,468.294,84.456,473.537A20.9,20.9,0,0,1,81,474.578a.05.05,0,0,1-.026.006,11.877,11.877,0,0,1-1.6.229,10.839,10.839,0,0,1-1.3.038,7.113,7.113,0,0,1-5.489-2.533c-3.273-3.9-3.9-10.633-2.876-18.687,1.337-10.581,5.525-23.453,10.3-35.206,0-.01.006-.016.012-.026,3.162-7.786,6.579-15.082,9.6-20.895,11.049-21.283,68.177-86.683,72.667-87.86C185.85,303.485,219.1,308.728,219.1,308.728Z" transform="translate(-69.259 -298.832)" fill="#ffcbbb"/><path d="M195.445,309.016s-.922,16.975-6.993,20.408c-3.541,2-30.952,9.42-30.952,9.42s-4.988,19.738-14.126,44.74c-2.2,6.023-11.017,25.411-16.331,37.289a102.147,102.147,0,0,1-4.323-19.5c.228-.509.449-1.011.659-1.508,3.484-8.163,6.642-16.253,9.418-23.867,9.14-25,14.275-44.772,14.275-44.772s37.449-4.861,40.99-6.86c4.908-2.774,6.15-11.984,6.448-15.405C195.121,308.995,195.445,309.016,195.445,309.016Z" transform="translate(-44.752 -297.769)" fill="#5395f4"/></g><path d="M143.493,213.463c-.662-1-.843-3.464-.035-4.346,1.448-1.581,3.333.491,3.6,2.32.171,1.161-.268,2.837-1.661,2.975A1.987,1.987,0,0,1,143.493,213.463Z" transform="translate(-35.491 -134.582)" fill="#10215f"/><path d="M123.291,213.264c-.588-.993-.646-3.362.169-4.17,1.461-1.447,3.172.627,3.346,2.395.109,1.119-.391,2.705-1.733,2.772A1.9,1.9,0,0,1,123.291,213.264Z" transform="translate(-44.692 -134.557)" fill="#10215f"/><path d="M132.665,231.731c-.37-2.387-2.678-3.207-2.061-5.982.442-1.986,1.546-3.811,1.736-5.853a1.785,1.785,0,0,0-.945-1.56.7.7,0,0,0-.089-.042c-.795-.276-2.1-.2-2.733,2-.327,2.129-1.911,4.1-1.994,6.308a7.577,7.577,0,0,0,1.092,3.637c.16.3,1.7,1.953,1.3,1.594C130.881,233.525,133.029,234.084,132.665,231.731Z" transform="translate(-42.984 -130.169)" fill="#f4c0b3"/><g transform="translate(89.107 110.208)"><path d="M148.212,235.567a5.2,5.2,0,0,1-1.288,2.316c-.125.136-.289.267-.459.473a12.034,12.034,0,0,1-7.31,2.678c-5.91.337-8.386-3.643-8.759-5.021a1.993,1.993,0,0,1-.038-.338c.16-1.508,4.264-2,7.689-2.043s9.187-.732,10.019.509A1.683,1.683,0,0,1,148.212,235.567Z" transform="translate(-130.357 -233.4)" fill="#fff"/><path d="M148.2,234.886a5.2,5.2,0,0,1-1.288,2.316c-.125.136-.289.267-.459.473a12.034,12.034,0,0,1-7.31,2.678c-5.91.337-8.386-3.643-8.759-5.021a50.6,50.6,0,0,0,8.863.2C142.883,235.249,146.552,235.009,148.2,234.886Z" transform="translate(-130.345 -232.719)" fill="#cf3030"/></g><path d="M130.906,203.065c-1.722-1.267-5.147-.211-8.395,1.085s-4.525,3.952-1.924,2.707c5.1-2.441,9.732-.728,10.388-1.428A1.7,1.7,0,0,0,130.906,203.065Z" transform="translate(-46.367 -137.36)" fill="#10215f"/><path d="M138.122,202.7c2.436-1.865,7.034-1.9,11.749-1.2s7.254,3.885,3.217,3.063c-6.236-1.272-14.179.961-15.222.427C136.6,204.346,137.536,203.151,138.122,202.7Z" transform="translate(-38.096 -138.008)" fill="#10215f"/><path d="M409.691,440.713c-10.617-122.219-141.077-119.9-151.785-172.671-21.776-107.335-55.376-111.549-88.606-110-39.851,1.861-66.479,30.068-50.857,60.379,2.933,4.644,18.978,2.613,49.7-4.228h0c17.043-4.136,20.206,22.54,20.066,58.754-.139,36.147,56.775,48.965,84.876,74.153,15.564,14.949,22.492,34.958,17.977,75.411-7.972,71.422-22.681,164.856,11.978,177.608S421.444,576.085,409.691,440.713Z" transform="translate(-48.791 -157.833)" fill="#10215f"/></g></g></svg>