<svg xmlns="http://www.w3.org/2000/svg" xmlns:xlink="http://www.w3.org/1999/xlink" width="415.324" height="400.99" viewBox="0 0 415.324 400.99"><defs><style>.a{fill:url(#a);}.b{fill:#325cff;}.c{fill:#f7c8b2;}.d{fill:#6ca4ff;}.e{fill:#1f4cdb;}.f{fill:#edb7a2;}.g{fill:#d9e8fb;}.h{fill:#3f79fe;}.i{fill:#223d72;}.j{fill:#974a5b;}.k{fill:#5282ce;}.l{fill:#6d8dd9;}.m{fill:#3f79ff;}</style><linearGradient id="a" x1="0.5" y1="-0.673" x2="0.5" y2="1.058" gradientUnits="objectBoundingBox"><stop offset="0" stop-color="#fff"/><stop offset="1" stop-color="#d8edff"/></linearGradient></defs><g transform="translate(-139.265 -1119.031)"><path class="a" d="M482.213,1325.488c-2.953,22.627-11.846,44.6-22.06,65.038-17.9,35.818-37.832,76.573-72.686,98.834-39.231,25.056-89.023,17.351-128.838-1.811-41.909-20.17-81.181-54.086-102.24-96.088-22.727-45.328-21.234-102.309-4.9-149.419,8.381-24.164,22.8-48.433,46.376-60.39,15.691-7.919,34.658-11.272,51.935-12.982a278.323,278.323,0,0,1,141.942,23.662c40.279,18.349,79.124,49.767,89.084,94.933A110.094,110.094,0,0,1,482.213,1325.488Z" transform="translate(0 14.592)"/><g transform="translate(219.484 1119.031)"><g transform="translate(125.345 106.695)"><g transform="translate(0 11.914)"><path class="b" d="M311.714,1242.194s-24.417-17.135-10.013-24.021c7.827-6.411,7.523-10.038,14.4-6.886s40.866,30.414,65,47.347c0,0,9.727-6.262,14.085-1.877,6.217-3.773,23.331-6.136,27.621,14.131,3.534,16.688-9.464,31.394-42.591,18.315C370.372,1285.316,324.519,1264.306,311.714,1242.194Z" transform="translate(-297.153 -1210.132)"/></g><g transform="translate(88.608)"><path class="c" d="M434.059,1242.568s14.506-5.847,19.091-10.879c10.641-11.682,12.8-20.516,12.376-23.4s-5.555-7.312-5.555-7.312a1.187,1.187,0,0,0-1.049.578l-8.148,11.022-13.891,9.953Z" transform="translate(-344.422 -1200.981)"/><path class="c" d="M433.877,1229.314l-1.454-5.761s9.486-19.614,12.783-20.447,2.644,2.661,1.6,5.04c-1.275,2.9-3.4,10.442-3.4,10.442l-8.04,8.89Z" transform="translate(-344.916 -1200.377)"/><path class="d" d="M371,1246.545c-6.187,5.8-8.819,19.256-.707,26.676,10.287,9.408,17.75,7.85,23.6,5.1s8.45-11.913,3.7-21.543C390.347,1242.085,378.53,1239.488,371,1246.545Z" transform="translate(-365.211 -1188.357)"/><path class="c" d="M379.469,1255.11s62.757-28.258,71.2-35.648,22.01-.865,3.106,20.027c-8.459,9.349-61.218,46.7-66.815,44.811C379.742,1281.858,361.953,1262.641,379.469,1255.11Z" transform="translate(-363.163 -1196.286)"/></g></g><path class="b" d="M353.321,1375.559c0,3.661-.02,8.583-.073,14.436-.108,11.391-.355,26.328-.9,42.467A107.911,107.911,0,0,1,313.6,1444.5a124.848,124.848,0,0,1-15.842.878c.268-8.226.254-14.59-1.1-15.146-.443,3.574-1.335,8.823-2.548,15.079a135.794,135.794,0,0,1-19.235-2.058q-3.1-.554-6.156-1.247c-2.876-.637-5.739-1.36-8.568-2.173-.241-.06-.475-.126-.711-.2-.569-.161-1.146-.328-1.716-.5q-2.193-.654-4.364-1.381c-1.515-.5-3.031-1.02-4.533-1.562q-4.886-1.769-9.667-3.815c.375-1.8.71-3.427,1.012-4.868.57-2.789.979-4.868,1.18-6.048.04-.241.074-.443.1-.609.63-4.385,4.981-21.463,8.609-35.374,2.748-10.547,5.088-19.269,5.088-19.269l1.844.039,40,.851,29.144.624,8.066.175.792.021,14.066.308,4.257.094S353.336,1370.94,353.321,1375.559Z" transform="translate(-189.319 -1044.395)"/><path class="e" d="M301.75,1405.56s-.483,10.607-1.483,27.061a124.848,124.848,0,0,1-15.842.878c.268-8.226.254-14.59-1.1-15.146C283.325,1418.353,299.007,1408.993,301.75,1405.56Z" transform="translate(-175.984 -1032.512)"/><path class="e" d="M346.9,1377.591l-.04.019a95.519,95.519,0,0,1-11.753,4.807,123.453,123.453,0,0,1-37.594,6.745,103.13,103.13,0,0,1-13.134-.617c-12.853-1.414-19.054,3.761-21.8,3.071-.141.476-.322,1.06-.522,1.737-1.6,5.209-5.022,16.131-9.24,29.821-.556,1.811-1.126,3.674-1.716,5.572q-1.105,3.631-2.273,7.442-4.886-1.769-9.667-3.815c.375-1.8.71-3.427,1.012-4.868.57-2.789.979-4.868,1.18-6.048.04-.241.074-.443.1-.609.63-4.385,4.981-21.463,8.609-35.374,2.748-10.547,5.088-19.269,5.088-19.269l1.844.039,40,.851,29.144.624,8.066.175.792.6,10.688,8.159Z" transform="translate(-189.319 -1044.395)"/><g transform="translate(77.251 111.198)"><path class="c" d="M301.167,1204.439s7.335,6.251,14.872,8.409-16.332,18.527-16.332,18.527-35.933-5.546-39.141-14.719,16.487-12.218,16.487-12.218Z" transform="translate(-260.214 -1204.439)"/></g><g transform="translate(89.377 78.435)"><path class="c" d="M269.527,1221.151c4.606,7.947,30.4,11.891,29.743,3.311-.3-3.733.782-9.964,2.107-15.835,1.535-6.8,3.372-13.095,3.763-14.359.031-.12.061-.211.061-.211,3.912-14.931-32.393-17.851-31.067-11.891a13.829,13.829,0,0,1,.15,3.4c-.09,4.967-1.2,13.4-2.317,20.831C270.731,1214.377,269.527,1221.151,269.527,1221.151Z" transform="translate(-269.527 -1179.275)"/></g><path class="f" d="M271.4,1204.94c8.67,4.4,29.411,2.228,29.411,2.228,1.535-6.8,3.372-13.095,3.763-14.359a13.67,13.67,0,0,0-3.763-2.168l-27.094-6.532C273.628,1189.076,272.514,1197.5,271.4,1204.94Z" transform="translate(-179.585 -1099.38)"/><path class="g" d="M251.462,1261.1v147.96l2.5,8.249,2.258,1.384,4.907,3.01s1.113.723,3.221,1.807c.482.241.993.512,1.565.782.663.331,1.415.663,2.228,1.023a86.757,86.757,0,0,0,12.223,4.3c.723.181,1.475.362,2.258.573a95.3,95.3,0,0,0,11.047,1.927c2.771.331,5.66.542,8.7.6a114.725,114.725,0,0,0,20.23-1.535c3.882-.633,7.616-1.415,11.047-2.228,2.8-.663,5.389-1.355,7.737-2.017,6.623-1.9,11.258-3.613,12.4-4.065.211-.09.3-.12.3-.12l-1.535-21.525a152.567,152.567,0,0,0,3.372-27c.361-7.165.3-14.541-.031-21.946v-.271c.241-14.269-2.288-43.981-5.057-71.828v-.03c-1.475-14.57-3.01-28.628-4.244-39.677-2.98-14.69-6.593-18.273-8.188-20.65-1.807-2.74-5.178-5.51-9.062-7.917-4.4-1.505-9.092-2.8-12.884-3.763v-.031l-.211-.03c-2.168-.572-4-1.023-5.3-1.354a4.138,4.138,0,0,0-1.143-.06,1.739,1.739,0,0,0-.392.03c-1.023.03-2.047.241-1.716.6,1.9,2.318,3.944,6.171,2.89,9.122-.723,2.138-3.1,3.793-8.248,4.095a28.687,28.687,0,0,1-18.424-5.449,43.581,43.581,0,0,1-10.025-10.206,1.049,1.049,0,0,0-.782-.3,8.241,8.241,0,0,0-2.469.512c-.693.211-1.294.422-1.625.542L261.878,1208l-2.138.693h-.03a1.078,1.078,0,0,0-.271.12l-3.854,1.264s.061.091.151.241c.391.723,1.716,2.98,3.7,6.412l-.452,2.469-.392,2.258-2.949,16.377-.392,2.167v.09l-1.746,9.542-1.656,9.3Z" transform="translate(-185.605 -1093.204)"/><g transform="translate(121.488 111.056)"><path class="h" d="M294.191,1204.482a13.336,13.336,0,0,1,2.709,2.259c2.829,2.859,7.435,8.971,11.59,21.1v.03c1.083,3.1,2.137,6.623,3.1,10.567.181.722.362,1.475.512,2.228,1.085,4.575,2.048,9.693,2.86,15.442.03.3.09.6.12.9.121.723.211,1.475.3,2.258.661,5.329,1.2,11.229,1.625,17.611q.092,1.129.181,2.258c.331,5.389.572,11.078.813,17.009,0,.753.03,1.505.061,2.258.18,5.719.3,11.65.421,17.73,0,.754,0,1.506.03,2.259.091,7.073.121,14.359.151,21.7v2.257c.03,5.9,0,11.861-.03,17.761,0,.752,0,1.505-.03,2.228-.03,7.284-.061,14.539-.121,21.675,0,.753,0,1.505-.03,2.258-.03,6.05-.06,11.98-.06,17.761q-.045,1.129,0,2.258c-.03,8.188-.03,15.984.06,23.24.03,4,.392,8.339.452,11.981a4.931,4.931,0,0,0,3.04.9,13.2,13.2,0,0,0,1.867-.03,44.217,44.217,0,0,0,9.844-2.439q1.174-.361,2.258-.812c5.449-2.018,9.994-4.214,9.994-4.214s.783-13.668.723-33.054c0-.753,0-1.535-.03-2.319,0-5.6-.12-11.65-.331-17.941-.03-.753-.06-1.505-.091-2.288-.06-2.2-.15-4.425-.271-6.653q-.361-7.136-.812-14.361c-.03-.753-.09-1.505-.151-2.258-.391-5.93-.812-11.861-1.234-17.7l-.18-2.258c-.543-7.224-1.115-14.329-1.686-21.132-.06-.753-.121-1.505-.181-2.228q-.767-9.257-1.415-17.672c-.06-.782-.12-1.535-.18-2.287-.271-3.613-.513-7.045-.723-10.326,0,0-.332-2.65-.844-6.653q-.135-1.084-.271-2.258c-.661-5.027-1.475-11.5-2.288-17.431-.09-.782-.181-1.535-.3-2.258-.814-6.171-1.566-11.439-1.957-13.306-.241-1.113-.452-2.166-.693-3.13-.181-.783-.361-1.505-.542-2.2-2.679-10.3-5.57-13.276-6.954-15.323a26.11,26.11,0,0,0-6.744-6.382c-.753-.542-1.505-1.053-2.318-1.535-.723-.452-1.415-.874-2.168-1.294h-.03c-.572-.332-1.174-.633-1.746-.964l-.03-.031a64.409,64.409,0,0,0-7.676-3.341h-.03a34.168,34.168,0,0,0-3.673-1.174h-.03C298.195,1204.422,295.786,1204.122,294.191,1204.482Z" transform="translate(-294.191 -1204.33)"/></g><g transform="translate(120.197 103.444)"><path class="b" d="M308.8,1229.628s.876-5.667,6.14-3.692,6.247,4.94,6.247,4.94-2.317-19.463-18.445-27.513l-7.482-4.878L293.2,1207.8S302.011,1213.233,308.8,1229.628Z" transform="translate(-293.199 -1198.484)"/></g><path class="c" d="M330.582,1153.67s.3,42.358-11.162,55.918c-13.815,16.339-43.69,6.865-51.621-12.3s-5.286-47.583-5.286-47.583S325.956,1122.609,330.582,1153.67Z" transform="translate(-182.396 -1113.075)"/><path class="i" d="M258.668,1159.542a135.887,135.887,0,0,0,5.027,23.541.719.719,0,0,1,.06.241c1.234,4,2.288,6.985,2.8,8.339.12.362.21.6.24.693,0,.03.031.03.031.06,3.582,5.841.542-20.741-.362-28.237.03-.03.03-.03.06-.03,5.3-.723,5.811,3.943,6.5,5.419.723,1.475,2.137,10.776,5,8.64,2.83-2.138-.3-16.075,2.168-25.8,2.469-9.693,18.092-2.829,18.092-2.829,4,7.465,13.577,6.171,13.577,6.171,2.83,4.756,10.3,9.512,17.129,8.4s7.406-6.593,7.406-6.593c4.576-1.686,8.64-10.746,2.56-17.039-8.55-8.791-15.926-3.462-15.926-3.462-17.821-10.326-64.361,2.017-64.361,2.017S256.952,1143.617,258.668,1159.542Z" transform="translate(-183.66 -1114.832)"/><path class="j" d="M262.4,1171.637c.9,3.854,1.927,7.2,3.04,9.032-.03-.09-.12-.331-.24-.693C264.686,1178.622,263.632,1175.642,262.4,1171.637Z" transform="translate(-182.303 -1103.146)"/><path class="k" d="M325.767,1141.262c-13.266.3-28.677,1.774-46.015,16.142-9.666,8.008-10.181,22.79-13.268,30.118.691,2.2-1.708.762-2.558-.355-2.142-2.813-5.45-5.674-5.042-10.284,0,0-10.627-4.4-9.986-11.517,1.637-18.149,5.144-47.555,43.392-46.295,23.153.763,28.648,10.392,28.648,10.392s8.607,3.567,10.719,10.2A11.944,11.944,0,0,0,325.767,1141.262Z" transform="translate(-186.388 -1119.031)"/><path class="c" d="M271.349,1160.425s-2.169-8.293-8.814-3.127c-5.449,4.234,1.9,23.77,7.268,22.387S271.349,1160.425,271.349,1160.425Z" transform="translate(-182.841 -1107.988)"/><path class="l" d="M269.524,1143.005" transform="translate(-180.151 -1111.792)"/><g transform="translate(57.307 109.191)"><path class="h" d="M244.895,1429.971a27.281,27.281,0,0,0,10.627,10.6c.693.39,1.445.752,2.228,1.113a28.977,28.977,0,0,0,7.1,2.078c.872.15,1.776.271,2.679.361.691.09,1.384.151,2.077.211,3.221.3,6.472.422,9.573.422,1.083,0,2.137,0,3.161-.03.482,0,.932-.031,1.384-.031,7.075-.241,12.253-.932,12.253-.932-.09-1.144-.211-5.088-.332-11.138-.15-5.058-.3-11.59-.45-19.207,0-.633-.031-1.234-.031-1.9v-.03c-.12-5.509-.24-11.53-.361-17.912-.03-.691-.03-1.354-.06-2.047-.121-5.509-.211-11.319-.332-17.25-.03-.753-.03-1.505-.06-2.258-.12-6.442-.241-13.1-.361-19.778-.03-.753-.03-1.505-.06-2.258-.121-6.5-.241-13.035-.362-19.537,0-.752-.03-1.475-.03-2.228-.121-6.081-.241-12.1-.362-17.972,0-.753-.03-1.475-.03-2.228-.12-6.171-.241-12.192-.361-17.912,0-.753-.03-1.475-.03-2.2-.151-7.678-.3-14.812-.422-21.163-.03-.752-.03-1.5-.06-2.257-.151-8.249-.3-15.052-.422-19.748,0-.814-.03-1.566-.06-2.258q-.045-2.26-.09-3.523a58.321,58.321,0,0,0-2.53-14.57c-.241-.782-.482-1.535-.723-2.287-.812-2.347-1.655-4.515-2.558-6.532a77.407,77.407,0,0,0-6.924-12.675c-1.324.392-2.829.874-4.425,1.445-.723.241-1.475.512-2.258.782-2.83,1.023-5.811,2.168-8.489,3.221-.723.271-1.415.573-2.078.844h-.03a1.077,1.077,0,0,0-.271.12c-1.445.572-2.709,1.085-3.7,1.505-1.475.6-2.349.963-2.349.963s-.391,1.837-.9,5.028c-.151.812-.3,1.685-.422,2.648q-.18,1.039-.361,2.259c-.091.6-.181,1.2-.241,1.866-.543,3.823-1.114,8.429-1.536,13.547q-.135,1.084-.18,2.258c-.482,5.93-.784,12.493-.723,19.326-.03.782,0,1.535.03,2.349v.03c.03,3.131.181,6.322.391,9.512,0,.332.031.663.061.993.21,2.53.331,5.751.361,9.543v.03c.03.812.03,1.6.03,2.469,0,4.425-.06,9.513-.181,15.052,0,1.023-.03,2.048-.06,3.1-.12,5.117-.3,10.567-.512,16.256-.06,1.113-.09,2.228-.12,3.371-.271,6.382-.573,12.975-.9,19.688v.03c-.03.963-.06,1.927-.12,2.92-.3,6.231-.633,12.524-.963,18.664q-.092,1.537-.181,3.071c-.271,5.148-.572,10.2-.844,15.082-.06,1.234-.15,2.439-.21,3.643-.271,4.7-.543,9.211-.814,13.426-.09,1.595-.21,3.161-.271,4.666C245.648,1418.952,244.895,1429.971,244.895,1429.971Z" transform="translate(-244.895 -1202.898)"/></g><g transform="translate(85.622 100.645)"><path class="b" d="M284.339,1232.783s-4.851-7.187-8.144-6.528a73.241,73.241,0,0,0-9.55,3.243s.112-13.567,0-20.324a15.386,15.386,0,0,1,6.9-12.841l-1.143,7.678S280.958,1212.638,284.339,1232.783Z" transform="translate(-266.643 -1196.334)"/></g><path class="c" d="M214.881,1366.208s13.319,18.828,14.575,23.476.628,13.068-2.263,13.7S209.478,1373.768,214.881,1366.208Z" transform="translate(-197.006 -1044.394)"/><g transform="translate(0 353.507)"><path class="i" d="M272.98,1415.7l-.966,12.525c-2.876-.637-5.739-1.361-8.568-2.173-.241-.06-.475-.126-.711-.2-.569-.161-1.146-.328-1.716-.5q-2.193-.654-4.364-1.381c-1.515-.5-3.031-1.02-4.533-1.562q-4.886-1.77-9.667-3.815c-4.815-2.052-9.542-4.311-14.194-6.731,5.471.69,10.64,1.327,15.206,1.863,4.251.51,7.972.932,10.929,1.241,1.482.154,2.769.281,3.836.375,2.252.181,3.487.242,3.459.094l11.284.268Z" transform="translate(-192.611 -1384.116)"/><path class="i" d="M266.394,1415.185l-.966,12.525c-2.876-.637-5.739-1.36-8.568-2.173l.684-5.229-1.394,5.028c-.569-.161-1.146-.328-1.716-.5q-2.193-.654-4.364-1.381l1.575-8.629.241-1.26,14.5,1.622Z" transform="translate(-186.026 -1383.602)"/><path class="i" d="M275.965,1417.382l-9.983.677s-.758,3.48-1.971,8.972q-2.193-.654-4.364-1.381c-1.515-.5-3.031-1.02-4.533-1.562q-4.886-1.769-9.667-3.815c-4.815-2.052-9.542-4.311-14.194-6.731-4.372-2.273-8.676-4.708-12.9-7.255,2.386.207,4.794.422,7.2.65,1.026.094,2.052.194,3.071.3,2.742.268,5.464.543,8.146.837l2.923.323c2.722.315,5.377.636,7.945.965,4.117.543,7.986,1.113,11.465,1.716C269.7,1412.9,276.676,1415.015,275.965,1417.382Z" transform="translate(-195.603 -1385.799)"/><path class="i" d="M231.277,1398.142l1.647,13.3,2.125.319,1.187-.809-2.3-14.164Z" transform="translate(-191.7 -1388.666)"/><path class="i" d="M244.855,1409.362a1.176,1.176,0,0,1-.7.289l-2.467.16h-.014a1.224,1.224,0,0,1-1.213-.811l-1.756-10.607a4.311,4.311,0,0,0-3.761-2.876l-2.273-.161-.5-.033-2.474-.174-20.061-1.428-.234-.013a4.316,4.316,0,0,0-4.144,2.34l-.65,2.38c-1.247-.9-2.495-1.818-3.728-2.742.5-1.529.871-2.595.871-2.595a4.323,4.323,0,0,1,4.13-2.535l3.185.148,18.1.824,4.519.208,1.892.087,5.216.241a4.309,4.309,0,0,1,3.882,2.923l2.554,13.061A1.207,1.207,0,0,1,244.855,1409.362Z" transform="translate(-200.879 -1390.551)"/></g><g transform="translate(4.443 117.005)"><path class="c" d="M239.773,1309.2s0,17.914-3.752,30.247c-2.532,8.327-15.005,24.347-15.838,52.542-.234,7.926-6.557,23.141-13.271,2.65-6.86-20.939,1.113-75.473,8.279-92.027S237.272,1299.418,239.773,1309.2Z" transform="translate(-204.291 -1182.965)"/><path class="m" d="M212.663,1327.161c1.595.753,3.191,1.415,4.756,2.077.723.3,1.415.572,2.108.844,3.763,1.475,7.5,2.8,11.138,4.184.723.24,1.445.512,2.138.813,1.324.482,2.618,1.023,3.882,1.565.723.271,1.415.572,2.108.9.842.361,1.686.753,2.5,1.174.812-4.095,2.829-9.543,5.178-15.2.09-.241.211-.482.3-.723.271-.693.572-1.385.874-2.077.09-.241.211-.482.3-.723,1.565-3.673,3.191-7.316,4.606-10.627.09-.181.15-.332.21-.482.362-.812.693-1.6,1.025-2.319l.18-.45c.874-2.138,1.656-4.095,2.228-5.721,1.505-2.648,2.92-5.208,4.214-7.706.512-.964.993-1.927,1.475-2.859.03-.031.03-.091.061-.121v-.03c.12-.211.24-.452.361-.663,2.319-4.6,4.3-8.911,6.02-12.974.241-.512.452-1.023.663-1.535.181-.422.362-.874.542-1.3.03-.06.03-.09.061-.15,1.655-4.125,3.04-7.917,4.153-11.5l.723-2.438v-.03c.121-.3.211-.6.3-.9v-.03c.03-.06.03-.12.06-.18.993-3.523,1.716-6.744,2.258-9.694.12-.6.211-1.173.3-1.746.181-1.143.362-2.258.482-3.311.06-.542.121-1.053.181-1.565a47.78,47.78,0,0,0-.482-14.842,3.467,3.467,0,0,0-.121-.6c-.09-.392-.3-2.017-.782-4.154a34.94,34.94,0,0,0-2.258-6.924,13.923,13.923,0,0,0-1.264-2.288,8.555,8.555,0,0,0-4.4-3.7,6.717,6.717,0,0,0-2.829-.181,9.258,9.258,0,0,0-2.739.874,37.538,37.538,0,0,0-7.587,4.033h-.03c-.061.03-.091.06-.151.09h-.03a37.817,37.817,0,0,0-3.974,3.071h-.03c-.241.181-.482.391-.723.6l-.03.03a67.117,67.117,0,0,0-11.982,14.421c-.12.15-.211.331-.331.512q-1.039,1.67-2.078,3.432v.03c-1.324,2.258-2.588,4.636-3.793,7.165-1.143,2.317-2.228,4.756-3.281,7.284-.181.422-.331.814-.512,1.234-.422,1.025-.844,2.048-1.234,3.1v.03c-.392.993-.782,1.987-1.144,3.01q-1.9,5.238-3.612,10.837c-.031.121-.061.211-.091.331-.3.9-.572,1.807-.812,2.741-.091.331-.181.631-.271.964-1.445,4.967-2.739,10.145-3.944,15.472-.03.181-.091.362-.121.572-.18.753-.331,1.506-.512,2.289-.03.211-.09.391-.12.6-.782,3.613-1.505,7.316-2.2,11.048,0,0-.091,1.174-.211,3.01a6.581,6.581,0,0,0-.03.782c-.06.633-.121,1.355-.151,2.078-.03.271-.03.572-.06.872C213.656,1316.172,212.964,1325.686,212.663,1327.161Z" transform="translate(-201.763 -1208.899)"/><g transform="translate(3.866 112.229)"><path class="d" d="M240.392,1306.3s6.775,1.4,6.377,5.58-4.321,11.022-4.352,14.064-1.626,4.561-13.185,0-16.958-5.57-21.95-8.765c0,0-.371-4.539,2.021-12.521s2.39-10.783,5.979-9.089S235.651,1304.153,240.392,1306.3Z" transform="translate(-207.261 -1295.1)"/></g><path class="c" d="M205.1,1367.557s.926,34.123,5.567,41.944c0,0,4.217,3.042,5.643,1.255.711,1.38,2.672,4.114,5.481.893,1.1,1.944,2.411,2.836,3.734,1.247s2.025,1.454,4.407,1.454,2.838-2.325,1.514-10-11.43-27.523-12.465-36.792S207.073,1361.472,205.1,1367.557Z" transform="translate(-204.048 -1162.749)"/></g></g></g></svg>