<svg xmlns="http://www.w3.org/2000/svg" width="584.507" height="513.588"><defs><style>.d{fill:#ffcbbb}</style><linearGradient id="a" x1=".477" y1="-.473" x2=".51" y2="1.017" gradientUnits="objectBoundingBox"><stop offset="0" stop-color="#fff"/><stop offset="1" stop-color="#d8edff"/></linearGradient></defs><path d="M98.02 1045.2c10.078 54.011 52.784 103.643 107.265 110.826 14.442 1.91 25.778 3.319 36.007 3.91 20.6 1.2 36.644-.909 64.271-8.926 43.782-12.7 87.821-24.505 132.24-34.75.424-.091.834-.2 1.258-.288 59.709-13.715 103.385-49.95 129.906-105.022 13.063-27.142 19.989-56.5 19.246-85.305a151.99 151.99 0 0 0-7.062-42.524 144.361 144.361 0 0 0-25.46-47.055c-49.465-61.164-123.541-100.96-197.223-104.188a210.473 210.473 0 0 0-51.89 4.016c-2.107.44-4.213.909-6.3 1.424-.773.167-1.561.364-2.349.561a195.46 195.46 0 0 0-44.994 17.549 201.814 201.814 0 0 0-33.735 22.978c-37.614 31.537-57.072 56.042-83.457 97.323-29.585 46.312-47.801 115.433-37.723 169.471z" transform="translate(-95.223 -646.662)" fill="url(#a)"/><path d="M146.068 513.277c20.6 1.2 36.644-.909 64.271-8.926 43.782-12.7 87.821-24.505 132.24-34.75-15.655-28.4-35.2-59.421-41.66-71.772a85.501 85.501 0 0 0-1.879-1.925l-.242-.243-.136-.121c-.167-.182-.3-.3-.364-.364a.19.19 0 0 0-.03-.045l-134.043.652-1.2.015z" fill="#1f4cdb"/><path d="M306.416 399.599c-32.31-11.887-6.277-104.021-7-168.417-.667-59.748-17.2-70.17-53.307-91.016q-4.215-2.419-8.788-5.081c-13.609-7.926-20.472-20.042-23.919-34.9s-4.093-43.492-25.942-42.372c-31.931 1.635-47.925-9.519-52.565-13.492a18.153 18.153 0 0 1-1.461-1.368c1.79-22.785 23.091-40.866 54.057-42.6 30.962-1.72 58.547-.987 78.847 99.07 9.982 49.2 129.6 37.646 139.5 151.577 10.954 126.191-67.11 160.486-99.422 148.599z" fill="#10215f"/><path class="d" d="M246.964 143.012s-12.169 15.355-29.129 15.355-22.685-8.421-22.685-8.421l-1.44-4.211-2.942-8.628-10.4-30.455s-.981.2-2.816.536a.038.038 0 0 1-.03.011c-2.4.444-6.218 1.14-11.2 1.94-.358.039-.709.1-1.028.158-.009 0-.009 0-.02.011-1.158.179-2.363.367-3.631.565-11.666 1.784-22.827-43.391-26.572-63.9a11.219 11.219 0 0 1-.18-1.653c4.64 3.974 20.635 15.127 52.565 13.492 21.849-1.12 22.494 27.512 25.942 42.372s10.31 26.975 23.919 34.9q4.578 2.66 8.788 5.081c.1.327.185.624.265.894.389 1.268.594 1.953.594 1.953z"/><path d="M190.767 137.108l-10.4-30.455s-.977.2-2.814.536c18.458-5.716 27.347-18.663 27.347-18.663 2.624 32.979-6.149 43.173-14.133 48.582z" fill="#f4c0b3"/><path d="M403.634 310.205c-5.965 12.283-13.723 28.639-18.907 41.1-3.337 8.02-4.786 13.827-5.186 18.008-42.662-24.756-67.334-108.255-67.334-108.255s-24.087 89.447-16.758 122.847c.144.685.312 1.343.487 1.979a62.285 62.285 0 0 0 4.978 11.936 131.81 131.81 0 0 0-2.654-2.691l-134.031.652c-.385-3.464-.89-7.079-1.494-10.8-3.516-21.614-17.526-47.469-25.057-71.54a106.159 106.159 0 0 1-4.492-20.26 59.2 59.2 0 0 1-.329-8.347c.42-11.995.852-19.542 1.244-24.223-3.36 10.363-9.294 33.549-16 58.323-15.389 21.853-36.177 42.678-50.145 48.126a21.614 21.614 0 0 1-3.59 1.082.052.052 0 0 1-.027.006 12.623 12.623 0 0 1-1.667.239 11.565 11.565 0 0 1-1.346.038 7.389 7.389 0 0 1-5.706-2.632c-3.4-4.057-4.052-11.048-2.987-19.418a929.94 929.94 0 0 1 10.7-36.583c0-.011.006-.017.011-.027 15.978-50.666 42.832-119.8 75.579-141.832 15.48-10.413 34.553-17.808 54.778-22.2l1.441 4.214s5.721 8.417 22.682 8.417 29.13-15.355 29.13-15.355-.2-.686-.583-1.952c39.825 1.435 76.078 14.354 90.488 38.764 12.29 20.8 50.268 123.661 66.775 130.384z" fill="#6ca4ff"/><path class="d" d="M379.541 369.32c8.567 4.975 13.968 6.835 23.932 5.916 41.645-3.839 107.983-126.476 123.468-156.188 9.329-1.717 29.248-5.606 41.181-9.6 21.915-7.341 15.514-23.653 15.514-23.653s-17.194 11.419-30.585 11.419 5.6-8.944 5.6-8.944-5.292-8.511-23.961 4.452a142.275 142.275 0 0 0-24.719 22.183l.032.017c-57.132 50.357-82.248 77.381-102.146 94.287-1.387 1.179-2.594 1.669-4.225 1-5.962 12.283-13.718 28.639-18.9 41.1-3.343 8.021-4.788 13.83-5.191 18.011zM207.876 195.808s-.018.506-.091 1.349c-.309 3.557-1.6 13.127-6.7 16.008-3.68 2.078-42.6 7.129-42.6 7.129s-5.336 20.544-14.832 46.523a501.206 501.206 0 0 1-9.787 24.8 80.655 80.655 0 0 1-.685 1.567 159.73 159.73 0 0 1-15.08 25.752c-15.39 21.853-36.177 42.678-50.145 48.126a21.59 21.59 0 0 1-3.59 1.082.052.052 0 0 1-.027.006 12.584 12.584 0 0 1-1.667.24 11.538 11.538 0 0 1-1.346.038 7.389 7.389 0 0 1-5.706-2.632c-3.4-4.057-4.052-11.048-2.987-19.418 1.39-10.995 5.741-24.37 10.7-36.583 0-.011.006-.017.011-.027 3.286-8.091 6.836-15.671 9.973-21.712 11.483-22.114 70.845-90.072 75.511-91.3 24.491-6.396 59.048-.948 59.048-.948z"/><path d="M208.757 197.211s-.959 17.64-7.268 21.206c-3.678 2.078-32.161 9.788-32.161 9.788s-5.183 20.51-14.679 46.49c-2.285 6.259-11.448 26.406-16.97 38.749a106.159 106.159 0 0 1-4.492-20.26c.236-.527.467-1.05.685-1.567 3.62-8.482 6.9-16.888 9.787-24.8 9.5-25.98 14.832-46.523 14.832-46.523s38.916-5.051 42.6-7.129c5.1-2.881 6.391-12.451 6.7-16.008.63.029.966.054.966.054z" fill="#5395f4"/></svg>