<svg xmlns="http://www.w3.org/2000/svg" width="505.011" height="366.463"><defs><style>.a,.b,.f{fill:none}.a,.b,.d,.f{stroke:#fff}.a,.f{stroke-miterlimit:10}.a,.b,.d,.f{stroke-width:2px}.b,.d,.f{stroke-linecap:round}.b,.d{stroke-linejoin:round}.d{fill:#fff}</style></defs><path class="a" d="M291.407 337.104h-72.948v-38.662a5.841 5.841 0 015.842-5.842h61.268a5.839 5.839 0 015.842 5.842z"/><path class="b" d="M228.056 302.618h53.977v34.485h-53.977z"/><path d="M293.977 337.104h-78.09a2.231 2.231 0 00-2.231 2.232v3.946a3.867 3.867 0 003.865 3.865h74.824a3.865 3.865 0 003.863-3.865v-3.948a2.231 2.231 0 00-2.231-2.23z" stroke="#fff" fill="none"/><path class="a" d="M293.977 337.104h-78.09a2.231 2.231 0 00-2.231 2.232v3.946a3.867 3.867 0 003.865 3.865h74.824a3.865 3.865 0 003.863-3.865v-3.948a2.231 2.231 0 00-2.231-2.23z"/><path class="b" d="M258.745 322.574v-7.935h8.023"/><path class="d" d="M268.191 324.085l-9.446-9.446"/><g transform="translate(353.727 193.801)"><rect class="a" width="70.516" height="46.281" rx="4.951"/><path class="a" d="M.572 1.427l28.79 21.71a9.914 9.914 0 0011.791 0l28.79-21.71"/><path d="M40.746 23.254L67.54 43.067M29.77 23.254L2.976 43.067" fill="#fafbfc" stroke-linejoin="round" stroke-linecap="round" stroke-width="2" stroke="#fff"/></g><g transform="translate(199.207 120.238)"><circle class="a" cx="27.618" cy="27.618" r="27.618"/><circle class="a" cx="22.786" cy="22.786" r="22.786" transform="translate(4.832 4.832)"/><path class="b" d="M23.156 43.11V14.119h8.938a5.763 5.763 0 015.763 5.764v2.053a5.763 5.763 0 01-5.763 5.764H17.482"/><path class="d" d="M17.482 33.041h17.021"/></g><path class="b" d="M336.232 94.998l1.323-4.936 7.886 7.886 5.173-1.386L352 91.389l-7.886-7.886 4.937-1.323a5.043 5.043 0 014.871 1.305l5.342 5.342a5.045 5.045 0 011.306 4.872l-1.322 4.936 24.793 22.766c1.811 1.812 3.279 5.366-.125 8.771a5.846 5.846 0 01-8.77.125l-22.458-25.1-4.936 1.322a5.042 5.042 0 01-4.871-1.3l-5.342-5.342a5.043 5.043 0 01-1.307-4.879zm123.186 37.098V68.86m0 7.96h23.108v21.421h-23.108zm23.108 6.716h21.486l-5.318 10.71 5.318 10.71h-21.486v-8.33m-16.507 35.47h-13.48"/><g transform="translate(-721.537 -2956.054)"><rect class="a" width="71.267" height="35.16" rx="2" transform="translate(796.244 3173.053)"/><circle class="a" cx="12.547" cy="12.547" r="12.547" transform="translate(819.331 3178.087)"/><path class="a" d="M866.519 3198.29a9.261 9.261 0 00-9.261 9.262c0 .223.018.442.032.662h8a2.22 2.22 0 002.221-2.221v-7.648a9.494 9.494 0 00-.992-.055zm0-15.312a9.261 9.261 0 01-9.261-9.262c0-.224.018-.443.032-.662h8a2.22 2.22 0 012.221 2.221v7.647a9.109 9.109 0 01-.992.056zm-69.282 15.312a9.262 9.262 0 019.262 9.262c0 .223-.018.442-.033.662h-8a2.22 2.22 0 01-2.221-2.221v-7.648a9.528 9.528 0 01.992-.055zm0-15.312a9.262 9.262 0 009.262-9.262c0-.224-.018-.443-.033-.662h-8a2.22 2.22 0 00-2.221 2.221v7.647a9.141 9.141 0 00.992.056z"/></g><path class="f" d="M424.707 314.119V329.5a11.094 11.094 0 0011.094 11.094h9.926m-8.162 0v12.002m8.159 0h-16.319m16.686-58.805a6.29 6.29 0 11-6.29-6.291 6.29 6.29 0 016.29 6.291z"/><path class="f" d="M460.62 352.213l-9.192-18.7H437.02a5.379 5.379 0 01-5.379-5.379v-16.559a4 4 0 014-4h6.578a2 2 0 011.555.742l6.926 8.559a2 2 0 001.555.741h7.854"/><path class="f" d="M440.754 316.916a19.446 19.446 0 001.262 1.571 1.99 1.99 0 01.482 1.3v2.391a2 2 0 002 2h11.076a2 2 0 011.819 1.169l12.03 26.865m-22.207-28.033h13.404m7.149 0h24.511m-24.61-6.689h17.192a2.677 2.677 0 002.466-2l3.408-14.614a1.537 1.537 0 00-1.534-2h-23.367a2.678 2.678 0 00-2.467 2l-2.241 9.624"/><path class="a" d="M477.486 298.876l-4.19 18.614"/><path class="d" d="M92.757 307.486v8.129m-4.065-4.064h8.129m37.297-163.052v6.823m-3.412-3.411h6.823m155.784 106.197v11.214m-5.607-5.607h11.214m-3.744-112.28a1.469 1.469 0 111.469-1.469 1.469 1.469 0 01-1.469 1.469"/><path class="b" d="M396.519 1.293l-.357 3.354 3.097.328"/><path class="a" d="M.707 365.755l17.294-17.294 12.03 12.03 29.384-29.383 33.083 33.083"/><path class="a" d="M42.091 348.431l8.427 7.464 8.585-8.585 4.889 4.889 8.258-8.257-12.834-12.834z"/><path class="d" d="M477.67 167.844l1.424 1.931m2.565 3.477l1.424 1.931m-6.376-.962l1.931-1.424m3.477-2.565l1.931-1.424"/></svg>