<svg xmlns="http://www.w3.org/2000/svg" width="444.538" height="300.742" viewBox="0 0 444.538 300.742"><defs><style>.a,.c,.d,.e{fill:none;}.a,.b,.c,.d,.e{stroke:#fff;stroke-width:2px;}.a,.b,.d{stroke-linecap:round;}.a,.b,.e{stroke-linejoin:round;}.b{fill:#fff;}.c,.d{stroke-miterlimit:10;}</style></defs><g transform="translate(-53 -749.84)"><g transform="translate(-834 276.941)"><g transform="translate(888 674)"><circle class="a" cx="29.757" cy="29.757" r="29.757" transform="translate(0 0)"/><path class="a" d="M1456.413,3270.536c-8.218,0-14.88-13.323-14.88-29.757s6.662-29.757,14.88-29.757" transform="translate(-1426.656 -3211.021)"/><path class="a" d="M1447.709,3270.536c8.218,0,14.88-13.323,14.88-29.757s-6.662-29.757-14.88-29.757" transform="translate(-1417.953 -3211.021)"/><g transform="translate(0 12.693)"><path class="a" d="M1486.218,3234.133c-5.392-3.805-14.265-6.286-24.3-6.286s-18.9,2.481-24.295,6.284" transform="translate(-1432.164 -3200.004)"/><path class="a" d="M1486.218,3216.29c-5.392,3.8-14.265,6.286-24.3,6.286s-18.9-2.482-24.295-6.283" transform="translate(-1432.164 -3216.29)"/><line class="b" x1="59.514" transform="translate(0 16.957)"/></g></g></g><g transform="translate(360.782 888.011)"><path class="a" d="M695.145,2884.024v-8.969l10.336-10.216v8.969h8.969L704.3,2884.024h-8.968" transform="translate(-645.858 -2864.838)"/><g transform="translate(0 8.968)"><ellipse class="a" cx="22.914" cy="22.914" rx="22.914" ry="22.914" transform="translate(0 13.11)"/><ellipse class="a" cx="13.609" cy="13.609" rx="13.609" ry="13.609" transform="translate(9.305 22.415)"/><ellipse class="a" cx="2.061" cy="2.061" rx="2.061" ry="2.061" transform="translate(20.852 33.963)"/><line class="a" x1="37.31" y2="36.501" transform="translate(22.313)"/></g></g><g transform="translate(-1033.84 -2313.27)"><path class="a" d="M1278.474,3224.616h-35.523a6.112,6.112,0,0,0-6.112,6.112v19.023a6.111,6.111,0,0,0,6.112,6.112h1.9v9.983l9.223-9.983h24.4a6.111,6.111,0,0,0,6.111-6.112v-19.023A6.112,6.112,0,0,0,1278.474,3224.616Z" transform="translate(0 -1.931)"/><line class="a" x2="28.403" transform="translate(1245.933 3232.616)"/><line class="a" x2="28.403" transform="translate(1245.933 3238.483)"/><line class="a" x2="28.403" transform="translate(1245.933 3245.22)"/><path class="a" d="M1268.965,3218.244V3212.5a6.111,6.111,0,0,1,6.111-6.111H1310.6a6.111,6.111,0,0,1,6.112,6.111v19.023a6.112,6.112,0,0,1-6.112,6.112h-1.9v9.984l-9.223-9.984h-6.095" transform="translate(-3.403 0)"/><line class="a" x1="28.403" transform="translate(1275.811 3216.318)"/><line class="a" x1="14.78" transform="translate(1289.435 3222.185)"/><line class="a" x1="14.78" transform="translate(1289.435 3228.923)"/></g><g transform="translate(-1349.804 -2188.56)"><g transform="translate(1453.464 3022.191)"><path class="c" d="M1497.941,3041.063c0-8.317,1.807-15.374,4.327-17.988a.129.129,0,0,0-.141-.211,110.475,110.475,0,0,1-26.187,7.058,90.369,90.369,0,0,1-12.328.876c-13.562,0-13.5,20.531,0,20.531,17.751,0,33.354,5.791,38.515,7.932a.128.128,0,0,0,.14-.211C1499.748,3056.436,1497.941,3049.379,1497.941,3041.063Z" transform="translate(-1453.464 -3021.973)"/><path class="c" d="M1475.007,3066.14a2.738,2.738,0,0,1-2.764,2.815h-5.768c-2.254,0-5.935-14.77-5.935-24.7,3.24.077,4,.1,8.056.355C1468.6,3051.957,1474.788,3061.471,1475.007,3066.14Z" transform="translate(-1451.136 -3014.935)"/><ellipse class="c" cx="6.478" cy="19.089" rx="6.478" ry="19.089" transform="translate(44.477)"/><path class="c" d="M1487.9,3032.873l3.557,1.3a2.54,2.54,0,0,1,2,2.567v2.052a2.54,2.54,0,0,1-2,2.566l-3.557,1.3" transform="translate(-1442.136 -3018.677)"/><path class="c" d="M1497.064,3033.2" transform="translate(-1439.124 -3018.57)"/><path class="c" d="M1497.064,3039.76" transform="translate(-1439.124 -3016.412)"/></g><path class="a" d="M1470.715,3050.426a35.483,35.483,0,0,1-1.865-11.29,32.274,32.274,0,0,1,1.9-10.95" transform="translate(5.061 1.972)"/></g><g transform="translate(-275.742 -2129.416)"><g transform="translate(699.248 3129.416)"><path class="d" d="M749.235,3138.529l.479,18.838c.135,6.318-10.916,11.678-24.68,11.97s-25.033-4.591-25.168-10.909l-.239-17.7" transform="translate(-699.137 -3126.736)"/><ellipse class="c" cx="24.929" cy="11.442" rx="24.929" ry="11.442" transform="matrix(1, -0.021, 0.021, 1, 0, 1.061)"/><path class="d" d="M749.289,3138.529l.239,9.42c.135,6.318-10.916,11.677-24.68,11.97s-25.033-4.592-25.168-10.91l-.239-9.419" transform="translate(-699.191 -3126.736)"/></g><g transform="translate(713.362 3151.532)"><line class="d" y2="8.674" transform="translate(0 0.734)"/><line class="d" y2="9.408" transform="translate(22.593)"/></g><g transform="translate(706.435 3159.921)"><line class="d" y2="8.308" transform="translate(17.268 3.635)"/><line class="d" y2="8.308"/><line class="d" y2="8.674" transform="translate(34.537)"/></g></g><path class="c" d="M1348.721,2716.258l-7.274,6.435a3.059,3.059,0,0,1-5.1-2.405l.577-9.66a3.236,3.236,0,0,0-1.516-2.835l-8.449-4.907a3.044,3.044,0,0,1,.762-5.583l9.435-2.494a3.141,3.141,0,0,0,2.249-2.3l2.052-9.485a3.085,3.085,0,0,1,5.593-1.018l5.261,8.154a3,3,0,0,0,2.914,1.358l9.709-.988a2.959,2.959,0,0,1,2.66,4.849l-6.179,7.568a3.231,3.231,0,0,0-.42,3.188l3.961,8.946a3.059,3.059,0,0,1-3.931,4.049l-9.074-3.461A3.486,3.486,0,0,0,1348.721,2716.258Z" transform="translate(-572.058 -2108.231) rotate(11)"/><g transform="translate(-1414.885 -2392.596)"><line class="b" y2="11.261" transform="translate(1492.515 3195.595)"/><line class="b" x2="11.261" transform="translate(1486.884 3201.226)"/></g><g transform="translate(-1085.885 -2353.596)"><line class="b" y2="6.823" transform="translate(1490.296 3195.595)"/><line class="b" x2="6.823" transform="translate(1486.884 3199.007)"/></g><path class="b" d="M1460.375,3166.3a1.469,1.469,0,1,1,1.469-1.469,1.469,1.469,0,0,1-1.469,1.469" transform="translate(-1404.906 -2275.365)"/><path class="b" d="M1460.375,3166.3a1.469,1.469,0,1,1,1.469-1.469,1.469,1.469,0,0,1-1.469,1.469" transform="translate(-1181.906 -2314.365)"/><path class="a" d="M0,2.41l3.311.647L3.908,0" transform="translate(196.206 751.206) rotate(60)"/><path class="a" d="M0,2.41l3.311.647L3.908,0" transform="translate(496.487 907.791) rotate(93)"/><g transform="translate(9.215 625.257)"><rect class="e" width="43.351" height="54.73" transform="translate(267.445 369.595)"/><path class="e" d="M286.459,376.841a5.91,5.91,0,1,1-5.911-5.911A5.912,5.912,0,0,1,286.459,376.841Z" transform="translate(8.573 13.333)"/><path class="e" d="M271.94,388.147a11.824,11.824,0,0,1,23.648,0Z" transform="translate(5.357 19.762)"/><path class="e" d="M267.445,369.6l33.5-9.853V369.6" transform="translate(0)"/></g><g transform="translate(-1268.798 -2256.135)"><g transform="translate(1402.761 3179.479)"><line class="b" x2="1.424" y2="1.931"/><line class="b" x2="1.424" y2="1.931" transform="translate(3.989 5.408)"/></g><g transform="translate(1401.798 3180.443)"><line class="b" y1="1.424" x2="1.931" transform="translate(0 3.989)"/><line class="b" y1="1.424" x2="1.931" transform="translate(5.408)"/></g></g></g></svg>