<svg xmlns="http://www.w3.org/2000/svg" width="444.538" height="300.742"><defs><style>.a,.c,.d,.e{fill:none}.a,.b,.c,.d,.e{stroke:#fff;stroke-width:2px}.a,.b,.d{stroke-linecap:round}.a,.b,.e{stroke-linejoin:round}.b{fill:#fff}.c,.d{stroke-miterlimit:10}</style></defs><g transform="translate(1 201.101)"><circle class="a" cx="29.757" cy="29.757" r="29.757"/><path class="a" d="M29.757 59.515c-8.218 0-14.88-13.323-14.88-29.757S21.539.001 29.757.001"/><path class="a" d="M29.756 59.515c8.218 0 14.88-13.323 14.88-29.757S37.974.001 29.756.001"/><path class="a" d="M54.054 46.822c-5.392-3.805-14.265-6.286-24.3-6.286s-18.9 2.481-24.295 6.284m48.595-34.127c-5.392 3.8-14.265 6.286-24.3 6.286s-18.9-2.482-24.295-6.283"/><path class="b" d="M59.514 29.65H0"/></g><path class="a" d="M357.069 157.357v-8.969l10.336-10.216v8.969h8.969l-10.15 10.216h-8.968"/><g transform="translate(307.782 147.139)"><circle class="a" cx="22.914" cy="22.914" transform="translate(0 13.11)" r="22.914"/><circle class="a" cx="13.609" cy="13.609" transform="translate(9.305 22.415)" r="13.609"/><circle class="a" cx="2.061" cy="2.061" transform="translate(20.852 33.963)" r="2.061"/><path class="a" d="M59.623 0l-37.31 36.501"/></g><path class="a" d="M191.634 159.575h-35.523a6.112 6.112 0 00-6.112 6.112v19.023a6.111 6.111 0 006.112 6.112h1.9v9.983l9.223-9.983h24.4a6.111 6.111 0 006.111-6.112v-19.023a6.112 6.112 0 00-6.111-6.112zm-32.541 9.931h28.403m-28.403 5.867h28.403m-28.403 6.737h28.403"/><path class="a" d="M178.722 155.134v-5.744a6.111 6.111 0 016.111-6.111h35.524a6.111 6.111 0 016.112 6.111v19.023a6.112 6.112 0 01-6.112 6.112h-1.9v9.984l-9.223-9.984h-6.095m14.235-21.317h-28.403m28.404 5.867h-14.78m14.78 6.738h-14.78"/><g transform="translate(50.66 83.791)"><path class="c" d="M44.477 19.09c0-8.317 1.807-15.374 4.327-17.988a.129.129 0 00-.141-.211 110.475 110.475 0 01-26.187 7.058 90.369 90.369 0 01-12.328.876c-13.562 0-13.5 20.531 0 20.531 17.751 0 33.354 5.791 38.515 7.932a.128.128 0 00.14-.211c-2.519-2.614-4.326-9.671-4.326-17.987z"/><path class="c" d="M23.871 51.205a2.738 2.738 0 01-2.764 2.815h-5.768c-2.254 0-5.935-14.77-5.935-24.7 3.24.077 4 .1 8.056.355.004 7.347 6.192 16.861 6.411 21.53z"/><ellipse class="c" cx="6.478" cy="19.089" rx="6.478" ry="19.089" transform="translate(44.477)"/><path class="c" d="M45.764 14.196l3.557 1.3a2.54 2.54 0 012 2.567v2.052a2.54 2.54 0 01-2 2.566l-3.557 1.3"/></g><path class="a" d="M72.972 113.998a35.483 35.483 0 01-1.865-11.29 32.274 32.274 0 011.9-10.95"/><g transform="translate(370.506 250.16)"><path class="d" d="M50.098 11.793l.479 18.838c.135 6.318-10.916 11.678-24.68 11.97S.864 38.01.729 31.692l-.239-17.7"/><ellipse class="c" cx="24.929" cy="11.442" rx="24.929" ry="11.442" transform="translate(0 1.061)"/><path class="d" d="M50.098 11.793l.239 9.42c.135 6.318-10.916 11.677-24.68 11.97S.624 28.591.489 22.273L.25 12.854"/></g><path class="d" d="M384.62 273.01v8.674m22.593-9.408v9.408m-12.252 2.616v8.308m-17.268-11.943v8.308m34.537-8.308v8.674"/><path class="c" d="M180.597 65.63l-8.368 4.929a3.059 3.059 0 01-4.548-3.334l2.41-9.373a3.236 3.236 0 00-.947-3.072l-7.358-6.429a3.044 3.044 0 011.813-5.335l9.738-.648a3.141 3.141 0 002.646-1.828l3.825-8.92a3.085 3.085 0 015.684.068l3.609 9.008a3 3 0 002.6 1.89l9.72.882a2.959 2.959 0 011.686 5.268l-7.51 6.25a3.231 3.231 0 00-1.02 3.049l2.181 9.537a3.059 3.059 0 01-4.631 3.225l-8.247-5.13a3.486 3.486 0 00-3.283-.037z"/><path class="b" d="M24.63 53.159V64.42m-5.631-5.63H30.26m321.151 33.369v6.823m-3.412-3.411h6.823M2.469 141.095a1.469 1.469 0 111.469-1.469 1.469 1.469 0 01-1.469 1.469m223-39a1.469 1.469 0 111.469-1.469 1.469 1.469 0 01-1.469 1.469"/><path class="a" d="M141.119 2.571l1.095 3.19 2.946-1.01m295.92 153.074l-.82 3.272 3.022.757"/><path class="e" d="M223.66 245.012h43.351v54.73H223.66z"/><path class="e" d="M251.247 265.591a5.91 5.91 0 11-5.911-5.911 5.912 5.912 0 015.911 5.911z"/><path class="e" d="M233.512 283.326a11.824 11.824 0 0123.648 0zm-9.852-38.309l33.5-9.853v9.853"/><path class="b" d="M80.963 173.504l1.424 1.931m2.565 3.477l1.424 1.931M80 179.881l1.931-1.424m3.477-2.565l1.931-1.424"/></svg>