<svg xmlns="http://www.w3.org/2000/svg" width="80.764" height="51.425" viewBox="0 0 80.764 51.425"><defs><style>.a{fill:#cbe2ff;}</style></defs><g transform="translate(0)"><path class="a" d="M940.622,1892.244c0,5.112-2.52,33.417-34.376,33.417,7.1-5.3,11.37-10.6,13.951-15.651a17.891,17.891,0,0,1-15.591-17.766,18.008,18.008,0,1,1,36.016,0Zm44.747,0c0,5.112-2.52,33.417-34.376,33.417,7.1-5.3,11.37-10.6,13.951-15.651a17.892,17.892,0,0,1-15.59-17.766,18.008,18.008,0,1,1,36.016,0Z" transform="translate(-904.606 -1874.235)"/></g></svg>