<svg xmlns="http://www.w3.org/2000/svg" width="60.09" height="74.78" viewBox="0 0 60.09 74.78"><path d="M-266.226,2283.205l2.013-2.612c-2.331-3.359-4.83-6.583-7.314-9.782l-10.452-9.382-5.438-8.2-3.416-8.2q-3.428-3.192-6.715-6.507c-.914-1.3-1.868-2.575-2.75-3.892-.806-2.046-1.634-4.067-2.364-6.113l-1.164.72c-.693-1.1-1.4-2.189-2.043-3.309l-2.107-3.53a41.054,41.054,0,0,0-5.9-7.034c-1.2-.363-2.37-.688-3.529-1.011l-1.554,1.541c-1.356-.945-2.7-1.881-3.979-2.894l-1.369.727c.374,1.1.792,2.2,1.212,3.283l.9,4.045a59.465,59.465,0,0,1,3.6,5.018q.638.575,1.192,1.133c.169.181.37.372.522.548l.237.266.121.133.157.2,2.535,3.294c.819,2.7,1.653,5.428,2.58,8.114,1.668,1.348,3.368,2.638,5.056,3.919q2.484,4.111,5.092,8.134l3.91,9.045,3.083,2.515c1.84,2.29,3.678,4.562,5.54,6.808l4.972,7.638,5.082,2.152,3.207,3.923,3.241,3.882.467-4.122c.044-.392.459-.525.821-.261q2.729,1.956,5.335,4.04c.492.39.966.007.71-.578C-265.28,2285.686-265.7,2284.41-266.226,2283.205Z" transform="translate(324.303 -2213.001)" fill="#0073ff"/></svg>