<svg xmlns="http://www.w3.org/2000/svg" width="70" height="70" viewBox="0 0 70 70">
  <g id="taxi_b_icon" transform="translate(-310 -2813)">
    <g id="Ellipse_143" data-name="Ellipse 143" transform="translate(310 2813)" fill="none" stroke="#0073ff" stroke-width="4">
      <circle cx="35" cy="35" r="35" stroke="none"/>
      <circle cx="35" cy="35" r="33" fill="none"/>
    </g>
    <path id="Path_1030" data-name="Path 1030" d="M305.027,173.12l-.353-.8a.991.991,0,0,0-.907-.589h-3.1a1.671,1.671,0,0,0-.589.105l-.875.4-4.15-6.7a2.875,2.875,0,0,0-2.445-1.359h-2.055l-1.2-3.213a1.469,1.469,0,0,0-1.375-.956h-8.886a1.466,1.466,0,0,0-1.375.956l-1.2,3.213h-2.055a2.875,2.875,0,0,0-2.445,1.359l-4.15,6.7-.878-.4a1.662,1.662,0,0,0-.589-.105h-3.1a.99.99,0,0,0-.905.589l-.355.8a.993.993,0,0,0,.451,1.283l3.022,1.561a1.157,1.157,0,0,0,.328.1,11.572,11.572,0,0,0-1.267,5.513l.1,4.5a1.178,1.178,0,0,0,.607,1.1v5.369a1.134,1.134,0,0,0,1.134,1.134h3.854a1.136,1.136,0,0,0,1.137-1.134v-5.209h24.258v5.209a1.134,1.134,0,0,0,1.134,1.134h3.854a1.136,1.136,0,0,0,1.137-1.134v-5.369a1.182,1.182,0,0,0,.607-1.1l.1-4.5a11.518,11.518,0,0,0-1.267-5.513,1.136,1.136,0,0,0,.328-.1l3.022-1.561A.991.991,0,0,0,305.027,173.12Zm-25.4-11.778h1.563V162.9h1.565v-1.563h1.565V162.9h1.565v-1.563h1.565V162.9h-1.565v1.565h-1.565V162.9h-1.565v1.565h-1.565V162.9h-1.563Zm-9.34,11.439,3.181-6.189a1.493,1.493,0,0,1,1.212-.58h17.718a1.5,1.5,0,0,1,1.212.58l3.181,6.189a.836.836,0,0,1-.754,1.274h-25A.835.835,0,0,1,270.284,172.781Zm1.556,7.791h-4.966a1.307,1.307,0,0,1-1.217-1.787l.488-1.235a1.3,1.3,0,0,1,1.563-.781L272.185,178a1.308,1.308,0,0,1-.346,2.569Zm18.456,4.835a.614.614,0,0,1-.612.614h-12.3a.614.614,0,0,1-.614-.614v-1.691a.612.612,0,0,1,.614-.612h12.3a.612.612,0,0,1,.612.612Zm11.118-6.622a1.308,1.308,0,0,1-1.217,1.787h-4.966a1.308,1.308,0,0,1-.348-2.569l4.478-1.235a1.306,1.306,0,0,1,1.565.781Z" transform="translate(61.044 2670.988)" fill="#0073ff"/>
  </g>
</svg>
