<svg xmlns="http://www.w3.org/2000/svg" width="860.5" height="138" viewBox="0 0 860.5 138"><defs><style>.a,.c{fill:#0073ff;}.b{fill:#fff;}.c{font-size:12px;font-family:ProximaNova-Bold, Proxima Nova;font-weight:700;letter-spacing:0.04em;}.d,.e{fill:none;}.d{stroke:#0073ff;stroke-miterlimit:10;stroke-width:2px;}.e{stroke:#fff;stroke-linecap:round;stroke-linejoin:round;}</style></defs><g transform="translate(-311 -121)"><rect class="a" width="860" height="138" transform="translate(311 121)"/><g transform="translate(14 -30)"><rect class="b" width="159.71" height="26" rx="13" transform="translate(340 183)"/><text class="c" transform="translate(373 200)"><tspan x="0" y="0">ГИД ПО МЕСТАМ</tspan></text><g transform="translate(351 189)"><path class="d" d="M139.669,210.8a5.731,5.731,0,0,0-5.726,5.726c0,3.17,5.726,8.274,5.726,8.274s5.751-5.1,5.751-8.274A5.751,5.751,0,0,0,139.669,210.8Z" transform="translate(-133.943 -210.798)"/><ellipse class="d" cx="2.391" cy="2.391" rx="2.391" ry="2.391" transform="translate(3.347 3.29)"/></g></g><g transform="translate(2831.482 -788.32)"><path class="e" d="M-2015.986,1019.34a3.116,3.116,0,0,1-3.12,3.112,3.115,3.115,0,0,1-3.118-3.112,3.116,3.116,0,0,1,3.118-3.115A3.117,3.117,0,0,1-2015.986,1019.34Zm-.139,2.967a1.935,1.935,0,0,1-1.936,1.933h-1.045m-2.3-.318a1.5,1.5,0,0,0,1.5,1.494h.806m-1.2-6.42a.773.773,0,0,0,.772.771m.426,8.432v-9.958" transform="translate(15.518 1.809)"/><path class="e" d="M-1947.726,958.145V968.81m-10.287,31.584h-2.636m1.276-12.471-5.763,6.793h11.525Zm-12.06-1.405,5.5-3.1v3.1m12.323-9.427v-3.1m5.752,0v3.1m-5.752,9.428v-3.1m5.752,0v3.1m0,6.328v3.1m-17.277,10.453h11.524V994.717h-11.524Zm5.762-30.815h-11.962V989.01m29.927,17.389V968.81h-17.964v19.71m-5.763,8.459h-12.712v9.176" transform="translate(16.9 0)"/><path class="e" d="M-1988.586,995.769l-4.381,4.717v4.76h9.053v-4.76h0Z" transform="translate(16.429 1.172)"/><g transform="translate(-2053.457 1006.4)"><path class="e" d="M-1933.768,1004.942h-88.182a29.671,29.671,0,0,0-20.984,8.693h0a29.677,29.677,0,0,1-20.984,8.692h-3.646" transform="translate(2067.563 -1004.942)"/></g><g transform="translate(-1914.43 1011.827)"><path class="e" d="M-1925.9,1010.206a6.835,6.835,0,0,0-6.833,6.835,6.834,6.834,0,0,0,6.833,6.832,6.835,6.835,0,0,0,6.833-6.832A6.836,6.836,0,0,0-1925.9,1010.206Z" transform="translate(1932.735 -1010.206)"/><path class="e" d="M-1925.681,1018.345h.833c1.261,0,2.285-1.312,2.285-2.933" transform="translate(1932.955 -1010.044)"/><path class="e" d="M-1926.011,1020.039h-.945a2.264,2.264,0,0,1-2.265-2.264" transform="translate(1932.844 -1009.97)"/><line class="e" y1="15.112" transform="translate(6.834 3.061)"/></g><g transform="translate(-1935.192 1024.806)"><line class="e" y1="2.238" transform="translate(14.04 2.239)"/><line class="e" y2="2.238" transform="translate(10.629 2.239)"/><line class="e" y2="4.477" transform="translate(7.218)"/><line class="e" y2="2.238" transform="translate(3.806 2.239)"/><line class="e" y1="2.238" transform="translate(0 2.239)"/></g><g transform="translate(-2003.283 1001.679)"><line class="e" y1="2.238" transform="translate(14.04 2.238)"/><line class="e" y2="2.238" transform="translate(10.629 2.238)"/><line class="e" y2="4.477" transform="translate(7.218)"/><line class="e" y2="2.238" transform="translate(3.806 2.238)"/><line class="e" y1="2.238" transform="translate(0 2.238)"/></g><line class="e" x1="169.283" transform="translate(-2014.889 1030.001)"/><g transform="translate(-1783.211 972.46)"><rect class="e" width="57.308" height="51.911" transform="translate(29.181 5.809)"/><path class="e" d="M-1771.617,1020.634v4.3m5.884-4.3v4.3m5.883-4.3v4.3m5.884-4.3v4.3m5.883-4.3v4.3m5.883-4.3v4.3m5.884-4.3v4.3m5.883-4.3v4.3m5.884-4.3v4.3m-47.066-20.083v4.3m5.884-4.3v4.3m5.883-4.3v4.3m5.884-4.3v4.3m5.883-4.3v4.3m5.883-4.3v4.3m5.884-4.3v4.3m5.883-4.3v4.3m5.884-4.3v4.3m-47.066-15.319v4.3m5.884-4.3v4.3m5.883-4.3v4.3m5.884-4.3v4.3m5.883-4.3v4.3m5.883-4.3v4.3m5.884-4.3v4.3m5.883-4.3v4.3m5.884-4.3v4.3M-1772.01,983.9v4.3m5.884-4.3v4.3m5.883-4.3v4.3m5.884-4.3v4.3m5.883-4.3v4.3m5.884-4.3v4.3m5.883-4.3v4.3m5.883-4.3v4.3m5.884-4.3v4.3m-51.518,25.915h55.971m-61.674-36.833,4.451-5.255h59.164l4.453,5.256" transform="translate(1806.206 -972.028)"/><line class="e" x1="104.058" transform="translate(0 57.72)"/></g><line class="e" x2="29.497" transform="translate(-1900.443 1006.4)"/><g transform="translate(-1888.914 961.458)"><rect class="e" width="14.217" height="44.941"/><g transform="translate(5.101 4.936)"><line class="e" y2="2.764"/><line class="e" y2="2.764" transform="translate(4.015)"/></g><g transform="translate(5.101 11.518)"><line class="e" y2="2.764"/><line class="e" y2="2.764" transform="translate(4.015)"/></g><g transform="translate(5.101 18.1)"><line class="e" y2="2.764"/><line class="e" y2="2.764" transform="translate(4.015)"/></g><g transform="translate(5.101 24.682)"><line class="e" y2="2.764"/><line class="e" y2="2.764" transform="translate(4.015)"/></g><g transform="translate(5.101 31.263)"><line class="e" y2="2.764"/><line class="e" y2="2.764" transform="translate(4.015)"/></g><g transform="translate(5.101 37.845)"><line class="e" y2="2.764"/><line class="e" y2="2.764" transform="translate(4.015)"/></g></g><g transform="translate(-1778.055 1025.744)"><line class="e" y1="2.374" transform="translate(0 2.062)"/><line class="e" y1="4.437" transform="translate(3.565)"/><line class="e" y1="2.374" transform="translate(7.13 2.062)"/><line class="e" y1="2.374" transform="translate(14.26 2.062)"/><line class="e" y1="4.437" transform="translate(10.695)"/></g><g transform="translate(-1993.053 1013.822)"><path class="e" d="M-1993.522,1020.2h-15.461l7.483-8.056Z" transform="translate(2008.983 -1012.14)"/><rect class="e" width="12.973" height="8.129" transform="translate(0.995 8.056)"/><line class="e" x2="4.468" transform="translate(5.296 11.427)"/></g><g transform="translate(-1972.222 1013.822)"><path class="e" d="M-1973.32,1020.2h-15.461l7.482-8.056Z" transform="translate(1988.781 -1012.14)"/><rect class="e" width="12.973" height="8.129" transform="translate(0.995 8.056)"/><line class="e" x2="4.468" transform="translate(5.296 11.427)"/></g><path class="e" d="M-1709.149,1006.8l-2.6,3.1v3.132h5.364V1009.9h0Z" transform="translate(25.188 1.515)"/><path class="e" d="M-1716.288,1012.845h11.911a7.1,7.1,0,0,1,5.023,2.08h0a7.1,7.1,0,0,0,5.023,2.081h8.8" transform="translate(25.047 1.704)"/><g transform="translate(-1667.204 1012.666)"><line class="e" y2="1.763" transform="translate(2.071 4.28)"/><circle class="e" cx="2.071" cy="2.071" r="2.071"/></g><path class="e" d="M-1939.254,997.7h3.669a12.352,12.352,0,0,0,8.732-3.616l4.649-4.65a12.349,12.349,0,0,1,8.732-3.617h2.77" transform="translate(18.102 0.862)"/><g transform="translate(-1893.258 1021.067)"><path class="e" d="M-1912.2,1028.1v-8.934h40.149v8.934" transform="translate(1912.203 -1019.166)"/><g transform="translate(4.846 3.119)"><line class="e" y2="2.859"/><line class="e" y2="2.859" transform="translate(4.351)"/><line class="e" y2="2.859" transform="translate(8.702)"/><line class="e" y2="2.859" transform="translate(13.053)"/><line class="e" y2="2.859" transform="translate(17.403)"/><line class="e" y2="2.859" transform="translate(21.754)"/><line class="e" y2="2.859" transform="translate(26.105)"/><line class="e" y2="2.859" transform="translate(30.456)"/></g></g></g></g></svg>