<svg xmlns="http://www.w3.org/2000/svg" width="273.781" height="229.508" viewBox="0 0 273.781 229.508">
  <g id="cover_food" transform="translate(-658 -1341)">
    <g id="Group_2362" data-name="Group 2362" transform="translate(-5150.965 -52.374)">
      <g id="Group_2336" data-name="Group 2336">
        <g id="Group_2332" data-name="Group 2332">
          <rect id="Rectangle_846" data-name="Rectangle 846" width="69.778" height="30.121" transform="translate(5968.399 1564.827)" stroke-width="2" stroke="#0073ff" stroke-linecap="round" stroke-linejoin="round" fill="none"/>
          <line id="Line_1611" data-name="Line 1611" x2="69.778" transform="translate(5968.399 1580.229)" fill="none" stroke="#0073ff" stroke-linecap="round" stroke-linejoin="round" stroke-width="2"/>
          <path id="Path_1522" data-name="Path 1522" d="M6045.707,1564.214l-6.592-7.118h-71.764l-6.6,7.118" fill="none" stroke="#0073ff" stroke-linecap="round" stroke-linejoin="round" stroke-width="2"/>
        </g>
        <g id="Group_2333" data-name="Group 2333">
          <path id="Path_1523" data-name="Path 1523" d="M5978.146,1621.209v-11.583h8.247v12.248" fill="none" stroke="#0073ff" stroke-linecap="round" stroke-linejoin="round" stroke-width="2"/>
        </g>
        <g id="Group_2334" data-name="Group 2334">
          <line id="Line_1612" data-name="Line 1612" y1="4.048" transform="translate(6027.919 1570.602)" fill="none" stroke="#0073ff" stroke-linecap="round" stroke-linejoin="round" stroke-width="2"/>
          <line id="Line_1613" data-name="Line 1613" y1="4.048" transform="translate(6018.174 1570.602)" fill="none" stroke="#0073ff" stroke-linecap="round" stroke-linejoin="round" stroke-width="2"/>
          <line id="Line_1614" data-name="Line 1614" y2="4.048" transform="translate(6008.43 1570.602)" fill="none" stroke="#0073ff" stroke-linecap="round" stroke-linejoin="round" stroke-width="2"/>
          <line id="Line_1615" data-name="Line 1615" y1="4.048" transform="translate(5998.685 1570.602)" fill="none" stroke="#0073ff" stroke-linecap="round" stroke-linejoin="round" stroke-width="2"/>
          <line id="Line_1616" data-name="Line 1616" y1="4.048" transform="translate(5988.94 1570.602)" fill="none" stroke="#0073ff" stroke-linecap="round" stroke-linejoin="round" stroke-width="2"/>
          <line id="Line_1617" data-name="Line 1617" y1="4.048" transform="translate(5979.196 1570.602)" fill="none" stroke="#0073ff" stroke-linecap="round" stroke-linejoin="round" stroke-width="2"/>
        </g>
        <g id="Group_2335" data-name="Group 2335">
          <line id="Line_1618" data-name="Line 1618" y1="4.048" transform="translate(6027.919 1585.577)" fill="none" stroke="#0073ff" stroke-linecap="round" stroke-linejoin="round" stroke-width="2"/>
          <line id="Line_1619" data-name="Line 1619" y1="4.048" transform="translate(6018.174 1585.577)" fill="none" stroke="#0073ff" stroke-linecap="round" stroke-linejoin="round" stroke-width="2"/>
          <line id="Line_1620" data-name="Line 1620" y2="4.048" transform="translate(6008.43 1585.577)" fill="none" stroke="#0073ff" stroke-linecap="round" stroke-linejoin="round" stroke-width="2"/>
          <line id="Line_1621" data-name="Line 1621" y1="4.048" transform="translate(5998.685 1585.577)" fill="none" stroke="#0073ff" stroke-linecap="round" stroke-linejoin="round" stroke-width="2"/>
          <line id="Line_1622" data-name="Line 1622" y1="4.048" transform="translate(5988.94 1585.577)" fill="none" stroke="#0073ff" stroke-linecap="round" stroke-linejoin="round" stroke-width="2"/>
          <line id="Line_1623" data-name="Line 1623" y1="4.048" transform="translate(5979.196 1585.577)" fill="none" stroke="#0073ff" stroke-linecap="round" stroke-linejoin="round" stroke-width="2"/>
        </g>
        <rect id="Rectangle_847" data-name="Rectangle 847" width="69.778" height="26.924" transform="translate(5968.399 1594.948)" stroke-width="2" stroke="#0073ff" stroke-linecap="round" stroke-linejoin="round" fill="none"/>
        <line id="Line_1624" data-name="Line 1624" x2="57.647" transform="translate(5974.464 1602.554)" fill="none" stroke="#0073ff" stroke-linecap="round" stroke-linejoin="round" stroke-width="2"/>
        <rect id="Rectangle_848" data-name="Rectangle 848" width="7.541" height="5.101" transform="translate(5994.149 1609.626)" stroke-width="2" stroke="#0073ff" stroke-linecap="round" stroke-linejoin="round" fill="none"/>
        <rect id="Rectangle_849" data-name="Rectangle 849" width="7.541" height="5.101" transform="translate(6008.045 1609.626)" stroke-width="2" stroke="#0073ff" stroke-linecap="round" stroke-linejoin="round" fill="none"/>
        <rect id="Rectangle_850" data-name="Rectangle 850" width="7.541" height="5.101" transform="translate(6021.941 1609.626)" stroke-width="2" stroke="#0073ff" stroke-linecap="round" stroke-linejoin="round" fill="none"/>
      </g>
      <g id="Group_2337" data-name="Group 2337">
        <path id="Path_1524" data-name="Path 1524" d="M6081.745,1621.882h-271.78" fill="none" stroke="#0073ff" stroke-linecap="round" stroke-linejoin="round" stroke-width="2"/>
      </g>
      <path id="Path_1525" data-name="Path 1525" d="M5883.381,1621.872" fill="#283348"/>
      <path id="Path_1526" data-name="Path 1526" d="M5838.047,1416.611h0a4.454,4.454,0,0,0-3.872-3.251,6.651,6.651,0,0,0-12.4,3.251h-1.047a5.023,5.023,0,0,0-5.051,4.251,4.886,4.886,0,0,0,4.834,5.5h17.575a4.874,4.874,0,1,0-.038-9.747Z" fill="none" stroke="#0073ff" stroke-linecap="round" stroke-linejoin="round" stroke-width="2"/>
      <path id="Path_1527" data-name="Path 1527" d="M5855.469,1452.824h0a2.656,2.656,0,0,1,2.309-1.938,3.965,3.965,0,0,1,7.392,1.938h.624a3,3,0,0,1,3.011,2.535,2.913,2.913,0,0,1-2.882,3.276h-10.476a2.906,2.906,0,1,1,.022-5.811Z" fill="none" stroke="#0073ff" stroke-linecap="round" stroke-linejoin="round" stroke-width="2"/>
      <g id="Group_2340" data-name="Group 2340">
        <circle id="Ellipse_204" data-name="Ellipse 204" cx="53" cy="53" r="53" transform="translate(5895.347 1423.349)" fill="#fff"/>
        <g id="Group_2339" data-name="Group 2339">
          <g id="Group_2338" data-name="Group 2338">
            <circle id="Ellipse_205" data-name="Ellipse 205" cx="23.378" cy="23.378" r="23.378" transform="translate(5924.95 1456.748)" fill="#0073ff"/>
            <circle id="Ellipse_206" data-name="Ellipse 206" cx="15.973" cy="15.973" r="15.973" transform="translate(5932.355 1464.153)" fill="#0073ff" stroke="#f7f7f7" stroke-width="2"/>
          </g>
          <path id="Path_1528" data-name="Path 1528" d="M5985.963,1462.285c0-6.081-3.191-11.979-7.128-11.979s-7.128,5.9-7.128,11.979c0,4.469,1.731,7.777,4.208,9.226l-.865,27.378c0,.076,0,.163,0,.239a3.788,3.788,0,0,0,7.571-.239l-.866-27.378C5984.232,1470.062,5985.963,1466.754,5985.963,1462.285Z" fill="#0073ff"/>
          <path id="Path_1529" data-name="Path 1529" d="M5923.868,1450.306h-.785a1.14,1.14,0,0,0-1.136,1.136v10.417a1.139,1.139,0,0,1-1.136,1.135h-.28a1.165,1.165,0,0,1-1.136-1.135v-10.417a1.139,1.139,0,0,0-1.135-1.136h-.785a1.139,1.139,0,0,0-1.135,1.136v10.417a1.165,1.165,0,0,1-1.137,1.135h-.279a1.164,1.164,0,0,1-1.136-1.135v-2.534h0v-7.883a1.14,1.14,0,0,0-1.136-1.136h-.785a1.14,1.14,0,0,0-1.136,1.136v12.309a7.209,7.209,0,0,0,4.354,6.588,2.208,2.208,0,0,0-.113.53l-.909,28.014v.227a3.788,3.788,0,0,0,7.572-.227l-.871-28.014a2.986,2.986,0,0,0-.114-.568,7.116,7.116,0,0,0,4.354-6.55v-12.309A1.14,1.14,0,0,0,5923.868,1450.306Z" fill="#0073ff"/>
        </g>
      </g>
      <g id="Group_2345" data-name="Group 2345">
        <circle id="Ellipse_207" data-name="Ellipse 207" cx="10.736" cy="10.736" r="10.736" transform="translate(6039.083 1406.719)" stroke-width="2" stroke="#0073ff" stroke-linecap="round" stroke-linejoin="round" fill="none"/>
        <g id="Group_2341" data-name="Group 2341">
          <line id="Line_1625" data-name="Line 1625" y2="5.819" transform="translate(6049.819 1394.374)" fill="none" stroke="#0073ff" stroke-linecap="round" stroke-linejoin="round" stroke-width="2"/>
          <line id="Line_1626" data-name="Line 1626" y2="5.819" transform="translate(6049.819 1434.719)" fill="none" stroke="#0073ff" stroke-linecap="round" stroke-linejoin="round" stroke-width="2"/>
        </g>
        <g id="Group_2342" data-name="Group 2342">
          <line id="Line_1627" data-name="Line 1627" x2="5.819" transform="translate(6067.082 1417.456)" fill="none" stroke="#0073ff" stroke-linecap="round" stroke-linejoin="round" stroke-width="2"/>
          <line id="Line_1628" data-name="Line 1628" x1="5.819" transform="translate(6026.737 1417.456)" fill="none" stroke="#0073ff" stroke-linecap="round" stroke-linejoin="round" stroke-width="2"/>
        </g>
        <g id="Group_2343" data-name="Group 2343">
          <line id="Line_1629" data-name="Line 1629" y1="4.115" x2="4.115" transform="translate(6062.026 1401.134)" fill="none" stroke="#0073ff" stroke-linecap="round" stroke-linejoin="round" stroke-width="2"/>
          <line id="Line_1630" data-name="Line 1630" x1="4.115" y2="4.115" transform="translate(6033.498 1429.662)" fill="none" stroke="#0073ff" stroke-linecap="round" stroke-linejoin="round" stroke-width="2"/>
        </g>
        <g id="Group_2344" data-name="Group 2344">
          <line id="Line_1631" data-name="Line 1631" x2="4.115" y2="4.115" transform="translate(6062.026 1429.662)" fill="none" stroke="#0073ff" stroke-linecap="round" stroke-linejoin="round" stroke-width="2"/>
          <line id="Line_1632" data-name="Line 1632" x1="4.115" y1="4.115" transform="translate(6033.498 1401.134)" fill="none" stroke="#0073ff" stroke-linecap="round" stroke-linejoin="round" stroke-width="2"/>
        </g>
      </g>
      <g id="Group_2349" data-name="Group 2349">
        <path id="Path_1530" data-name="Path 1530" d="M5852.281,1603.2h-19.286v18.681h52.347V1603.2h-19.287" fill="none" stroke="#0073ff" stroke-linecap="round" stroke-linejoin="round" stroke-width="2"/>
        <g id="Group_2346" data-name="Group 2346">
          <path id="Path_1531" data-name="Path 1531" d="M5869.108,1591.6l-9.94-21.018-9.94,21.018" fill="none" stroke="#0073ff" stroke-linecap="round" stroke-linejoin="round" stroke-width="2"/>
          <line id="Line_1633" data-name="Line 1633" y2="12.331" transform="translate(5859.168 1558.253)" fill="none" stroke="#0073ff" stroke-linecap="round" stroke-linejoin="round" stroke-width="2"/>
          <path id="Path_1532" data-name="Path 1532" d="M5859.168,1590.287" fill="none" stroke="#0073ff" stroke-linecap="round" stroke-linejoin="round" stroke-width="2"/>
        </g>
        <g id="Group_2347" data-name="Group 2347">
          <path id="Path_1533" data-name="Path 1533" d="M5872.065,1598.256l-12.9-5.917-12.9,5.917" fill="none" stroke="#0073ff" stroke-linecap="round" stroke-linejoin="round" stroke-width="2"/>
          <path id="Path_1534" data-name="Path 1534" d="M5888.039,1598.256l-7.987-3.665-7.987,3.665" fill="none" stroke="#0073ff" stroke-linecap="round" stroke-linejoin="round" stroke-width="2"/>
          <path id="Path_1535" data-name="Path 1535" d="M5846.271,1598.256l-7.987-3.665-7.987,3.665" fill="none" stroke="#0073ff" stroke-linecap="round" stroke-linejoin="round" stroke-width="2"/>
        </g>
        <g id="Group_2348" data-name="Group 2348">
          <path id="Path_1536" data-name="Path 1536" d="M5872.61,1606.208l-13.442-6.167-13.441,6.167" fill="none" stroke="#0073ff" stroke-linecap="round" stroke-linejoin="round" stroke-width="2"/>
        </g>
        <path id="Path_1537" data-name="Path 1537" d="M5842.135,1610.349" fill="none" stroke="#0073ff" stroke-linecap="round" stroke-linejoin="round" stroke-width="2"/>
        <path id="Rectangle_851" data-name="Rectangle 851" d="M3.351,0h9.885a3.351,3.351,0,0,1,3.351,3.351v9.011a0,0,0,0,1,0,0H0a0,0,0,0,1,0,0V3.351A3.351,3.351,0,0,1,3.351,0Z" transform="translate(5850.875 1609.52)" fill="none" stroke="#0073ff" stroke-linecap="round" stroke-linejoin="round" stroke-width="2"/>
        <line id="Line_1634" data-name="Line 1634" y2="5.158" transform="translate(5878.075 1611.787)" fill="none" stroke="#0073ff" stroke-linecap="round" stroke-linejoin="round" stroke-width="2"/>
        <line id="Line_1635" data-name="Line 1635" y2="5.158" transform="translate(5842.135 1611.787)" fill="none" stroke="#0073ff" stroke-linecap="round" stroke-linejoin="round" stroke-width="2"/>
      </g>
      <path id="Path_1538" data-name="Path 1538" d="M6054.813,1616.727s-19.594-2.569,0-28.275C6054.813,1588.452,6074.518,1612.815,6054.813,1616.727Zm4.36-11.163a3.432,3.432,0,0,1-3.433,3.427h-.927m-3.951-.662a3.118,3.118,0,0,0,3.12,3.116h.831m-3.388-10.615a3.387,3.387,0,0,0,3.388,3.386m0,17.656V1595.94" fill="none" stroke="#0073ff" stroke-linecap="round" stroke-linejoin="round" stroke-width="2"/>
      <g id="Group_2350" data-name="Group 2350">
        <line id="Line_1636" data-name="Line 1636" y2="5.821" transform="translate(6067.897 1616.061)" fill="none" stroke="#0073ff" stroke-linecap="round" stroke-linejoin="round" stroke-width="2"/>
        <line id="Line_1637" data-name="Line 1637" y2="3.47" transform="translate(6062.193 1618.412)" fill="none" stroke="#0073ff" stroke-linecap="round" stroke-linejoin="round" stroke-width="2"/>
        <line id="Line_1638" data-name="Line 1638" y2="3.47" transform="translate(6073.602 1618.412)" fill="none" stroke="#0073ff" stroke-linecap="round" stroke-linejoin="round" stroke-width="2"/>
      </g>
      <g id="Group_2351" data-name="Group 2351">
        <rect id="Rectangle_852" data-name="Rectangle 852" width="15.05" height="13.338" transform="translate(5941.248 1608.534)" stroke-width="2" stroke="#0073ff" stroke-linecap="round" stroke-linejoin="round" fill="none"/>
        <rect id="Rectangle_853" data-name="Rectangle 853" width="19.95" height="5.64" transform="translate(5938.798 1602.894)" stroke-width="2" stroke="#0073ff" stroke-linecap="round" stroke-linejoin="round" fill="none"/>
        <line id="Line_1639" data-name="Line 1639" x2="15.05" transform="translate(5941.248 1614.635)" fill="none" stroke="#0073ff" stroke-linecap="round" stroke-linejoin="round" stroke-width="2"/>
        <line id="Line_1640" data-name="Line 1640" y2="6.101" transform="translate(5948.773 1608.534)" fill="none" stroke="#0073ff" stroke-linecap="round" stroke-linejoin="round" stroke-width="2"/>
      </g>
      <g id="Group_2353" data-name="Group 2353">
        <path id="Path_1539" data-name="Path 1539" d="M5822.088,1615.429a1.737,1.737,0,1,0,1.736-1.736A1.729,1.729,0,0,0,5822.088,1615.429Z" fill="none" stroke="#0073ff" stroke-linecap="round" stroke-linejoin="round" stroke-width="2"/>
        <g id="Group_2352" data-name="Group 2352">
          <path id="Path_1540" data-name="Path 1540" d="M5822.2,1614.316l-.622-1.621,1.438,1.2" fill="none" stroke="#0073ff" stroke-linecap="round" stroke-linejoin="round" stroke-width="2"/>
          <path id="Path_1541" data-name="Path 1541" d="M5825.45,1614.316l.623-1.621-1.438,1.2" fill="none" stroke="#0073ff" stroke-linecap="round" stroke-linejoin="round" stroke-width="2"/>
        </g>
        <path id="Path_1542" data-name="Path 1542" d="M5819.012,1620.843s-1.716.864-2.612-.361c-1.039-1.42,1.1-2.515-.015-3.894" fill="none" stroke="#0073ff" stroke-linecap="round" stroke-linejoin="round" stroke-width="2"/>
        <path id="Path_1543" data-name="Path 1543" d="M5824.672,1617.359v3.087a.742.742,0,0,1,.818.709c0,.586-.211.717-.86.717h-2.956" fill="none" stroke="#0073ff" stroke-linecap="round" stroke-linejoin="round" stroke-width="2"/>
        <path id="Path_1544" data-name="Path 1544" d="M5822.525,1616.581c-1.114,0-3.619,2.409-3.516,4.22" fill="none" stroke="#0073ff" stroke-linecap="round" stroke-linejoin="round" stroke-width="2"/>
        <path id="Path_1545" data-name="Path 1545" d="M5821.9,1620.567v.366s.064.939-1.176.939h-.574c-.922,0-1.143-.006-1.143-.879" fill="none" stroke="#0073ff" stroke-linecap="round" stroke-linejoin="round" stroke-width="2"/>
      </g>
      <g id="Group_2356" data-name="Group 2356">
        <path id="Path_1546" data-name="Path 1546" d="M5876.11,1583.1h47.05c8.544,0,11.169,6.19,20.223,6.19h17.249" fill="none" stroke="#0073ff" stroke-linecap="round" stroke-linejoin="round" stroke-width="2"/>
        <g id="Group_2354" data-name="Group 2354">
          <path id="Path_1547" data-name="Path 1547" d="M5939.895,1585.2l4.731-12.565,4.731,12.565Z" fill="none" stroke="#0073ff" stroke-linecap="round" stroke-linejoin="round" stroke-width="2"/>
          <line id="Line_1641" data-name="Line 1641" y2="4.095" transform="translate(5944.625 1585.197)" fill="none" stroke="#0073ff" stroke-linecap="round" stroke-linejoin="round" stroke-width="2"/>
        </g>
        <line id="Line_1642" data-name="Line 1642" y2="2.947" transform="translate(5954.827 1586.345)" fill="none" stroke="#0073ff" stroke-linecap="round" stroke-linejoin="round" stroke-width="2"/>
        <g id="Group_2355" data-name="Group 2355">
          <rect id="Rectangle_854" data-name="Rectangle 854" width="24.979" height="23.904" transform="translate(5883.232 1542.494)" stroke-width="2" stroke="#0073ff" stroke-linecap="round" stroke-linejoin="round" fill="none"/>
          <rect id="Rectangle_855" data-name="Rectangle 855" width="36.293" height="16.704" transform="translate(5883.232 1566.398)" stroke-width="2" stroke="#0073ff" stroke-linecap="round" stroke-linejoin="round" fill="none"/>
          <line id="Line_1643" data-name="Line 1643" y2="3.94" transform="translate(5896.437 1557.874)" fill="none" stroke="#0073ff" stroke-linecap="round" stroke-linejoin="round" stroke-width="2"/>
          <line id="Line_1644" data-name="Line 1644" y2="3.94" transform="translate(5903.362 1557.874)" fill="none" stroke="#0073ff" stroke-linecap="round" stroke-linejoin="round" stroke-width="2"/>
          <line id="Line_1645" data-name="Line 1645" y2="3.94" transform="translate(5889.512 1557.874)" fill="none" stroke="#0073ff" stroke-linecap="round" stroke-linejoin="round" stroke-width="2"/>
          <line id="Line_1646" data-name="Line 1646" y2="3.94" transform="translate(5896.437 1548.372)" fill="none" stroke="#0073ff" stroke-linecap="round" stroke-linejoin="round" stroke-width="2"/>
          <line id="Line_1647" data-name="Line 1647" y2="3.94" transform="translate(5903.362 1548.372)" fill="none" stroke="#0073ff" stroke-linecap="round" stroke-linejoin="round" stroke-width="2"/>
          <line id="Line_1648" data-name="Line 1648" y2="3.94" transform="translate(5889.512 1548.372)" fill="none" stroke="#0073ff" stroke-linecap="round" stroke-linejoin="round" stroke-width="2"/>
          <rect id="Rectangle_856" data-name="Rectangle 856" width="5.67" height="11.622" transform="translate(5894.161 1583.102) rotate(180)" stroke-width="2" stroke="#0073ff" stroke-linecap="round" stroke-linejoin="round" fill="none"/>
          <rect id="Rectangle_857" data-name="Rectangle 857" width="4.019" height="5.281" transform="translate(5899.758 1571.29)" stroke-width="2" stroke="#0073ff" stroke-linecap="round" stroke-linejoin="round" fill="none"/>
          <rect id="Rectangle_858" data-name="Rectangle 858" width="4.019" height="5.281" transform="translate(5908.518 1571.29)" stroke-width="2" stroke="#0073ff" stroke-linecap="round" stroke-linejoin="round" fill="none"/>
        </g>
      </g>
      <g id="Group_2361" data-name="Group 2361">
        <g id="Group_2357" data-name="Group 2357">
          <rect id="Rectangle_859" data-name="Rectangle 859" width="21.969" height="14.944" transform="translate(5902.846 1606.927)" stroke-width="2" stroke="#0073ff" stroke-linecap="round" stroke-linejoin="round" fill="none"/>
        </g>
        <g id="Group_2360" data-name="Group 2360">
          <g id="Group_2358" data-name="Group 2358">
            <path id="Path_1548" data-name="Path 1548" d="M5929.394,1605.428l-4.579-6.9h-21.969l-4.579,6.9" fill="none" stroke="#0073ff" stroke-linecap="round" stroke-linejoin="round" stroke-width="2"/>
          </g>
          <g id="Group_2359" data-name="Group 2359">
            <line id="Line_1649" data-name="Line 1649" x1="1.653" y2="4.396" transform="translate(5906.546 1598.532)" fill="none" stroke="#0073ff" stroke-linecap="round" stroke-linejoin="round" stroke-width="2"/>
            <line id="Line_1650" data-name="Line 1650" x2="1.653" y2="4.396" transform="translate(5919.46 1598.532)" fill="none" stroke="#0073ff" stroke-linecap="round" stroke-linejoin="round" stroke-width="2"/>
          </g>
          <line id="Line_1651" data-name="Line 1651" y2="4.028" transform="translate(5913.83 1598.9)" fill="none" stroke="#0073ff" stroke-linecap="round" stroke-linejoin="round" stroke-width="2"/>
        </g>
        <rect id="Rectangle_860" data-name="Rectangle 860" width="6.127" height="10.758" transform="translate(5907.373 1611.113)" stroke-width="2" stroke="#0073ff" stroke-linecap="round" stroke-linejoin="round" fill="none"/>
        <line id="Line_1652" data-name="Line 1652" y2="2.612" transform="translate(5918.871 1611.787)" fill="none" stroke="#0073ff" stroke-linecap="round" stroke-linejoin="round" stroke-width="2"/>
      </g>
    </g>
  </g>
</svg>
