<svg xmlns="http://www.w3.org/2000/svg" width="543.712" height="80.818" viewBox="0 0 543.712 80.818"><defs><style>.a{fill:none;stroke:#0073ff;stroke-linecap:round;stroke-linejoin:round;}</style></defs><g transform="translate(-1044.5 -528.5)"><path class="a" d="M686.244,22.456a7.209,7.209,0,1,0,9.419-3.9A7.207,7.207,0,0,0,686.244,22.456Zm6.66-10.625v3.161m0,20.445V38.6m10.222-13.383h3.161m-23.6,0h-3.161m20.611-7.228,2.235-2.235M685.676,32.442l-2.235,2.235m16.691-2.235,2.235,2.235M685.676,17.986l-2.235-2.235" transform="translate(826.713 517.169)"/><path class="a" d="M641.547,25.207a3.752,3.752,0,0,1,3.741-3.74h1.65a3.583,3.583,0,0,1,.8-1.812,3.345,3.345,0,0,0-1.961-.637h-.026a3.086,3.086,0,0,0-2.68-2.25,4.6,4.6,0,0,0-8.583,2.25h-.875a3.373,3.373,0,0,0,0,6.746h7.977A3.648,3.648,0,0,1,641.547,25.207Z" transform="translate(815.882 527.169)"/><path class="a" d="M668.118,25.207a3.751,3.751,0,0,1-3.74,3.74h-19.09a3.74,3.74,0,1,1,0-7.48h1.65a3.563,3.563,0,0,1,4.1-3.058,5.1,5.1,0,0,1,9.4.633,2.917,2.917,0,0,1,2.783,2.425h1.157A3.751,3.751,0,0,1,668.118,25.207Z" transform="translate(815.882 527.169)"/><g transform="translate(735 512)"><path class="a" d="M689.726,86.15H673.394m28.2-23.191,0-5.453m-5.708,28.321v2.206m-.024-8.79-3.2,3.773h6.4Zm-13.651.33V77.852m4.343,1.721V77.852m4.2,1.721V77.852m-8.539-2.406v-1.72m4.343,1.72v-1.72m4.2,1.72v-1.72m8.842,4.847V76.852m4.2,1.721V76.852m0,6.655V81.786m-4.2-8.339V71.725m4.2,1.722V71.725m-4.2-3.4V66.6m4.2,1.722V66.6M699.069,91.04V83.016h-6.4V91.04m3.2-20.206H678.317V85.872m3.9-2.365V81.786m4.343,1.721V81.786m20.771,4.359V62.959H695.868V79.574"/><path class="a" d="M551.684,80.673H500.619a24.135,24.135,0,0,0-16.575,6.55h0a22.872,22.872,0,0,1-16.049,6.551h-8.289"/><path class="a" d="M544.841,69.986H519.192V80.673h25.649Zm-23.245,7.9H524m16.033,0h2.4M521.6,75.33H524m16.033,0h2.4M521.6,72.776H524m2.205,0h2.4m2.206,0h2.4m2.206,0h2.4m2.206,0h2.4m-5.78,4.266h-8.55v3.631h8.55ZM526.566,75.33h10.9m-6.809,3.156v2.187m3.2-2.187v2.187m6.177-14.61h-15.09v3.923h15.09Zm-5.483-3.29h-3.832l-1.115,3.29h6.062ZM521.6,69.986V58.493m.512,6.747c.264,0,.478-.368.478-.822s-.214-.823-.478-.823h-1.439m1.439-1.971c.264,0,.478-.368.478-.822s-.214-.823-.478-.823h-1.439"/><path class="a" d="M620.434,83.645v-2.31m-.152-11.282V54.225h-2.21v5.949m0,9.879V63.237h-1.783v6.756m4.145,18.376v4.1h1.71V85.955m-4.685,9.722V88.369m2.975,7.308V88.369m-2.975-5.1V73.234m2.975,4.552V73.234m-6.477,15.135h13V83.645h-11.84m-.8-13.592h-2.49v3.181h13.649V70.053H614.317Zm3.142,11.424h-7.4v4.478h12.086m-4.156-25.73h-4.031v4.7h2.086m1.416,16.411h6.282V77.786h-6.162"/><line class="a" x2="15.826" transform="translate(612.819 95.657)"/><path class="a" d="M594.564,94.174a1.213,1.213,0,1,1-1.213,1.213A1.213,1.213,0,0,1,594.564,94.174Z"/><path class="a" d="M604.484,94.174a1.213,1.213,0,1,1-1.213,1.213A1.212,1.212,0,0,1,604.484,94.174Z"/><line class="a" x1="4.228" transform="translate(604.745 91.969)"/><path class="a" d="M597.133,92.363"/><line class="a" y2="2.569" transform="translate(608.006 91.969)"/><path class="a" d="M605.35,91.969l-1.693-2.528h-5.239l-1.482,2.528"/><line class="a" x2="2.351" transform="translate(605.655 94.933)"/><line class="a" x2="7.203" transform="translate(595.842 94.927)"/><path class="a" d="M593.184,94.927h-1.976a.3.3,0,0,1-.3-.3v-1.6a.5.5,0,0,1,.443-.5l5.586-.561"/><path class="a" d="M596.936,91.969c.091-.046,7.809,0,7.809,0"/><path class="a" d="M547.2,93.955h-2.338l2.518-3.463h-2.054l3.134-4.313,3.134,4.313h-2.054l2.518,3.463H547.2Z"/><line class="a" y1="2.74" transform="translate(548.458 93.955)"/><path class="a" d="M514.573,93.955h-2.339l2.518-3.463H512.7l3.134-4.313,3.134,4.313h-2.054l2.518,3.463h-4.857Z"/><line class="a" y2="2.74" transform="translate(515.833 93.955)"/><path class="a" d="M781.013,87.713h-8.2v7.943h22.259V87.713h-8.2"/><path class="a" d="M788.169,82.781l-4.227-8.937-4.227,8.937"/><line class="a" y2="5.243" transform="translate(783.942 68.6)"/><path class="a" d="M783.942,82.222"/><path class="a" d="M789.426,85.61l-5.484-2.516-5.484,2.516"/><path class="a" d="M796.218,85.61l-3.4-1.558-3.4,1.558"/><path class="a" d="M778.458,85.61l-3.4-1.558-3.4,1.558"/><path class="a" d="M789.657,88.992l-5.716-2.622-5.716,2.622"/><path class="a" d="M776.7,90.753"/><path class="a" d="M3.351,0H3.7A3.351,3.351,0,0,1,7.053,3.351V5.256a0,0,0,0,1,0,0H0a0,0,0,0,1,0,0V3.351A3.351,3.351,0,0,1,3.351,0Z" transform="translate(780.415 90.4)"/><line class="a" y2="2.193" transform="translate(791.981 91.364)"/><line class="a" y2="2.193" transform="translate(776.699 91.364)"/><rect class="a" width="5.542" height="3.327" transform="translate(656.708 86.044)"/><rect class="a" width="5.542" height="3.327" transform="translate(639.594 86.044)"/><rect class="a" width="3.733" height="3.327" transform="translate(632.662 86.044)"/><path class="a" d="M670.316,89.371h-4.552V86.044h3.7Z"/><line class="a" x1="1.133" transform="translate(670.316 92.923)"/><path class="a" d="M639.024,94.588h-7.789V92.46h1.441V85.014a1.037,1.037,0,0,1,1.037-1.037H667.7a1.589,1.589,0,0,1,1.538,1.192l1.342,5.219a2.412,2.412,0,0,1,.074.592v3.032a.575.575,0,0,1-.575.576h-5.551"/><line class="a" x1="17.257" transform="translate(643.247 94.588)"/><path class="a" d="M662.515,92.575a2.013,2.013,0,1,0,2.011,2.012A2.011,2.011,0,0,0,662.515,92.575Z"/><path class="a" d="M641.035,92.575a2.013,2.013,0,1,0,2.012,2.012A2.011,2.011,0,0,0,641.035,92.575Z"/><rect class="a" width="4.343" height="8.543" transform="translate(653.121 94.587) rotate(180)"/><line class="a" y1="7.178" transform="translate(650.95 87.409)"/><line class="a" x2="3.085" transform="translate(803.492 92.371)"/><path class="a" d="M805,85l-5.167,5.042h10.676Z"/><path class="a" d="M809.481,95.657V90.043h-8.958v5.613"/><line class="a" x2="3.085" transform="translate(817.694 92.371)"/><path class="a" d="M819.2,85l-5.167,5.042h10.676Z"/><path class="a" d="M823.682,95.657V90.043h-8.958v5.613"/><line class="a" x2="104.176" transform="translate(748.536 95.657)"/><rect class="a" width="23.932" height="12.954" transform="translate(561.13 82.6)"/><line class="a" x2="23.322" transform="translate(561.484 89.156)"/><path class="a" d="M587.628,82.582l-2.06-2.4H560.408l-2.061,2.4"/><line class="a" x2="29.982" transform="translate(556.798 95.554)"/><path class="a" d="M548.564,49.29a5.322,5.322,0,0,1,4.989,1.558,5.473,5.473,0,0,1,4.99-1.558m-18.09,5.3a3.142,3.142,0,0,1,2.944.919,3.231,3.231,0,0,1,2.944-.919"/><rect class="a" width="18.846" height="9.243" transform="translate(703.35 86.577)"/><line class="a" y2="1.335" transform="translate(706.375 88.901)"/><line class="a" y2="1.335" transform="translate(710.599 88.901)"/><line class="a" y2="1.335" transform="translate(714.672 88.901)"/><line class="a" y2="1.335" transform="translate(718.821 88.901)"/><line class="a" y2="1.335" transform="translate(706.375 92.161)"/><line class="a" y2="1.335" transform="translate(710.599 92.161)"/><line class="a" y2="1.335" transform="translate(714.672 92.161)"/><line class="a" y2="1.335" transform="translate(718.821 92.161)"/><line class="a" x1="3.165" y2="12.591" transform="translate(524.943 80.673)"/><line class="a" x2="3.165" y2="12.591" transform="translate(536.245 80.673)"/><line class="a" x2="9.365" transform="translate(527.494 83.917)"/><line class="a" x2="11.302" transform="translate(526.525 86.969)"/><line class="a" x2="12.145" transform="translate(526.104 90.325)"/><path class="a" d="M702.767,91.2H682.049v4.559"/><line class="a" y2="1.017" transform="translate(684.73 93.274)"/><line class="a" y2="1.017" transform="translate(687.84 93.274)"/><line class="a" y2="1.017" transform="translate(690.951 93.274)"/><line class="a" y2="1.017" transform="translate(694.061 93.274)"/><line class="a" y2="1.017" transform="translate(697.171 93.274)"/><line class="a" y2="1.017" transform="translate(699.972 93.274)"/><line class="a" y1="1.034" transform="translate(760.03 94.291)"/><line class="a" y2="1.034" transform="translate(758.454 94.291)"/><line class="a" y2="2.068" transform="translate(756.878 93.257)"/><line class="a" y2="1.034" transform="translate(755.303 94.291)"/><line class="a" y1="1.034" transform="translate(753.545 94.291)"/><path class="a" d="M762.721,87.262a3.157,3.157,0,1,0,3.156,3.158A3.158,3.158,0,0,0,762.721,87.262Z"/><path class="a" d="M762.721,90.438h.576a1.067,1.067,0,0,0,1.067-1.067"/><path class="a" d="M762.721,92.152h-.479a1.046,1.046,0,0,1-1.046-1.047"/><line class="a" y1="6.98" transform="translate(762.721 88.676)"/><path class="a" d="M762.721,90.168h-.264a.9.9,0,0,1-.9-.9"/><line class="a" y1="2.79" transform="translate(506.609 77.884)"/><line class="a" y1="1.753" transform="translate(508.776 78.92)"/><line class="a" y1="2.79" transform="translate(510.942 77.884)"/><line class="a" y1="1.753" transform="translate(513.108 78.92)"/><line class="a" y1="1.753" transform="translate(504.443 78.92)"/><path class="a" d="M729.248,94.54m-11.837-7.963V70.457h28.02V95.82H722.2m4.165-8.708h18.69M714.9,70.438l2.176-2.569H746l2.177,2.57"/><path class="a" d="M551.17,76.288h3.892a11.65,11.65,0,0,0,8.238-3.413h0a11.652,11.652,0,0,1,8.239-3.412H590.07a13.214,13.214,0,0,1,8.862,3.412h0a13.215,13.215,0,0,0,8.862,3.413h2.942"/><path class="a" d="M628.1,76.288H644.3a9.8,9.8,0,0,1,5.488,1.68h0a9.807,9.807,0,0,0,5.489,1.68h17.442"/><line class="a" y1="1.077" transform="translate(581.74 68.04)"/><line class="a" y2="1.077" transform="translate(580.098 68.04)"/><line class="a" y2="2.155" transform="translate(578.456 66.963)"/><line class="a" y2="1.077" transform="translate(576.814 68.04)"/><line class="a" y1="1.077" transform="translate(574.982 68.04)"/><path class="a" d="M584.545,60.715A3.289,3.289,0,1,0,587.834,64,3.291,3.291,0,0,0,584.545,60.715Z"/><path class="a" d="M584.545,64.025h.6a1.112,1.112,0,0,0,1.111-1.113"/><line class="a" y1="7.274" transform="translate(584.545 62.189)"/><path class="a" d="M584.269,65.243a.937.937,0,0,1-.938-.938"/><path class="a" d="M497.309,87.387a3.547,3.547,0,1,0,3.547,3.547A3.547,3.547,0,0,0,497.309,87.387Z"/><path class="a" d="M497.309,90.955h.648a1.2,1.2,0,0,0,1.2-1.2"/><path class="a" d="M497.309,92.88h-.537a1.175,1.175,0,0,1-1.176-1.175"/><line class="a" y1="7.843" transform="translate(497.309 88.976)"/><path class="a" d="M497.309,90.652h-.3A1.012,1.012,0,0,1,496,89.64"/><line class="a" y2="2.102" transform="translate(720.47 74.489)"/><line class="a" y2="2.102" transform="translate(723.632 74.489)"/><line class="a" y2="2.102" transform="translate(726.794 74.489)"/><line class="a" y2="2.102" transform="translate(729.956 74.489)"/><line class="a" y2="2.102" transform="translate(733.119 74.489)"/><line class="a" y2="2.102" transform="translate(736.281 74.489)"/><line class="a" y2="2.102" transform="translate(739.443 74.489)"/><line class="a" y2="2.102" transform="translate(742.605 74.489)"/><line class="a" y2="2.102" transform="translate(720.47 80.079)"/><line class="a" y2="2.102" transform="translate(723.632 80.079)"/><line class="a" y2="2.102" transform="translate(726.794 80.079)"/><line class="a" y2="2.102" transform="translate(729.956 80.079)"/><line class="a" y2="2.102" transform="translate(733.119 80.079)"/><line class="a" y2="2.102" transform="translate(736.281 80.079)"/><line class="a" y2="2.102" transform="translate(739.443 80.079)"/><line class="a" y2="2.102" transform="translate(742.605 80.079)"/><line class="a" y2="2.102" transform="translate(726.794 89.568)"/><line class="a" y2="2.102" transform="translate(729.956 89.568)"/><line class="a" y2="2.102" transform="translate(733.119 89.568)"/><line class="a" y2="2.102" transform="translate(736.281 89.568)"/><line class="a" y2="2.102" transform="translate(739.443 89.568)"/><line class="a" y2="2.102" transform="translate(742.605 89.568)"/><path class="a" d="M659.652,77.209l2.012-5.343,2.012,5.343Z"/><line class="a" y2="1.883" transform="translate(661.663 77.209)"/><rect class="a" width="13.173" height="11.739" transform="translate(630.362 64.548)"/><line class="a" y2="1.876" transform="translate(667.2 77.697)"/><line class="a" y2="0.876" transform="translate(669.498 78.697)"/><line class="a" y2="1.676" transform="translate(633.4 67.261)"/><line class="a" y2="1.676" transform="translate(637.011 67.261)"/><line class="a" y2="1.676" transform="translate(640.623 67.261)"/><line class="a" y2="1.676" transform="translate(633.4 71.558)"/><line class="a" y2="1.676" transform="translate(637.011 71.558)"/><line class="a" y2="1.676" transform="translate(640.623 71.558)"/><path class="a" d="M834.08,93.469s-8.332-1.092,0-12.023C834.08,81.446,842.459,91.806,834.08,93.469Zm1.854-4.747a1.459,1.459,0,0,1-1.46,1.458h-.394M832.4,89.9a1.326,1.326,0,0,0,1.327,1.325h.353m-1.441-4.513a1.44,1.44,0,0,0,1.441,1.439m0,7.508V84.63"/><line class="a" y2="2.475" transform="translate(842.616 92.85)"/><line class="a" y2="2.475" transform="translate(847.467 92.85)"/><line class="a" y2="1.475" transform="translate(845.042 93.85)"/><line class="a" y2="1.475" transform="translate(849.893 93.85)"/><line class="a" y1="1.962" transform="translate(582.069 91.151)"/><line class="a" y1="1.962" transform="translate(579.024 91.151)"/><path class="a" d="M572.933,95.157V91.151h2.577v4.236"/><line class="a" y1="1.962" transform="translate(569.888 91.151)"/><line class="a" y1="1.962" transform="translate(566.843 91.151)"/><line class="a" y1="1.962" transform="translate(563.798 91.151)"/><line class="a" y1="1.962" transform="translate(582.069 84.927)"/><line class="a" y1="1.962" transform="translate(579.024 84.927)"/><line class="a" y2="1.962" transform="translate(575.979 84.927)"/><line class="a" y1="1.962" transform="translate(572.933 84.927)"/><line class="a" y1="1.962" transform="translate(569.888 84.927)"/><line class="a" y1="1.962" transform="translate(566.843 84.927)"/><line class="a" y1="1.962" transform="translate(563.798 84.927)"/></g><g transform="translate(735 512)"><path class="a" d="M324.13,93.727a2.842,2.842,0,0,1-5.652,0,2.842,2.842,0,0,1-5.651,0A2.6,2.6,0,0,1,310,96.266"/><path class="a" d="M346.738,93.727a2.842,2.842,0,0,0,5.651,0,2.842,2.842,0,0,0,5.652,0,2.6,2.6,0,0,0,2.826,2.539"/><path class="a" d="M346.738,93.727a2.842,2.842,0,0,1-5.652,0,2.843,2.843,0,0,1-5.653,0,2.842,2.842,0,0,1-5.651,0,2.842,2.842,0,0,1-5.652,0"/></g><g transform="translate(735 512)"><path class="a" d="M377.8,93.727a2.842,2.842,0,0,1-5.652,0,2.842,2.842,0,0,1-5.651,0"/><path class="a" d="M400.406,93.727a2.842,2.842,0,0,0,5.652,0,2.842,2.842,0,0,0,5.651,0,2.6,2.6,0,0,0,2.827,2.539"/><path class="a" d="M400.406,93.727a2.842,2.842,0,0,1-5.652,0,2.842,2.842,0,0,1-5.652,0,2.842,2.842,0,0,1-5.652,0,2.842,2.842,0,0,1-5.652,0"/></g><g transform="translate(735 512)"><path class="a" d="M442.77,93.727a2.842,2.842,0,0,0,5.652,0,2.842,2.842,0,0,0,5.651,0,2.6,2.6,0,0,0,2.827,2.539"/><path class="a" d="M442.77,93.727a2.842,2.842,0,0,1-5.652,0,2.842,2.842,0,0,1-5.652,0,2.842,2.842,0,0,1-5.651,0,2.842,2.842,0,0,1-5.652,0"/></g><path class="a" d="M664.891,37.737h0a3.1,3.1,0,0,0-2.7-2.263,4.629,4.629,0,0,0-8.63,2.263h-.729a3.5,3.5,0,0,0-3.515,2.959,3.4,3.4,0,0,0,3.364,3.825h12.232a3.392,3.392,0,1,0-.026-6.784Z" transform="translate(739 518)"/></g></svg>