<svg xmlns="http://www.w3.org/2000/svg" width="30" height="30" viewBox="0 0 30 30"><defs><style>.a{fill:#fff;}.b{fill:#283348;}</style></defs><circle class="a" cx="15" cy="15" r="15" transform="translate(0 0)"/><g transform="translate(5.846 5.819)"><path class="b" d="M35.374,23.861v-.3a17.19,17.19,0,0,0-.164-2.822,4.943,4.943,0,0,0-2.056-3.359,5.807,5.807,0,0,0-3.293-.969c-.846-.027-1.7-.039-2.536-.05l-1.1-.017-.284,0v.028l-.477,0c-.569,0-1.157-.005-1.737.006l-.191,0a11.833,11.833,0,0,0-2.3.193,4.844,4.844,0,0,0-3.783,3.281,8.816,8.816,0,0,0-.375,2.868c-.019,1.6-.021,3.284-.006,5.312a12.07,12.07,0,0,0,.2,2.474,4.844,4.844,0,0,0,3.281,3.783,8.817,8.817,0,0,0,2.869.375c1.061.013,2.022.019,2.916.019.85,0,1.64-.005,2.4-.017a14.57,14.57,0,0,0,2.462-.2,4.723,4.723,0,0,0,3.792-3.269,8.843,8.843,0,0,0,.375-2.868C35.383,26.837,35.378,25.324,35.374,23.861Zm-2.152,1.892q-.007.4-.014.791c-.015.847-.031,1.723-.065,2.582a5.4,5.4,0,0,1-.182,1.216,2.6,2.6,0,0,1-2.273,2,16.225,16.225,0,0,1-2.261.154c-1.408.023-2.9.022-4.424,0l-.287,0a9.953,9.953,0,0,1-2.125-.174,2.707,2.707,0,0,1-2.229-2.565c-.095-.978-.107-1.987-.12-2.962l0-.292c-.014-1.082-.009-2.234.017-3.625l0-.157a7.37,7.37,0,0,1,.225-2.053A2.645,2.645,0,0,1,21.759,18.7,16.257,16.257,0,0,1,24,18.548c.72-.011,1.459-.017,2.212-.017.732,0,1.477,0,2.23.016l.253,0a10.408,10.408,0,0,1,2.143.173,2.7,2.7,0,0,1,2.2,2.341A21.833,21.833,0,0,1,33.2,23.3c.017.511.013,1.034.009,1.541,0,.228,0,.457,0,.685Z" transform="translate(-17.061 -16.343)"/><path class="b" d="M32.4,26.841h-.053a4.841,4.841,0,0,0-3.426,8.265,4.754,4.754,0,0,0,3.389,1.423h.011a4.811,4.811,0,0,0,4.869-4.843A4.86,4.86,0,0,0,32.4,26.841Zm-.048,2.176h.008a2.67,2.67,0,0,1-.011,5.34h0a2.685,2.685,0,0,1-2.668-2.686A2.676,2.676,0,0,1,32.352,29.017Z" transform="translate(-23.191 -22.506)"/><path class="b" d="M48.776,23.841h0a1.361,1.361,0,0,0-.97.4,1.331,1.331,0,0,0-.391.952,1.376,1.376,0,0,0,1.362,1.355h.009a1.367,1.367,0,0,0,.951-2.321A1.341,1.341,0,0,0,48.776,23.841Z" transform="translate(-34.881 -20.745)"/></g></svg>