<svg xmlns="http://www.w3.org/2000/svg" xmlns:xlink="http://www.w3.org/1999/xlink" width="136.352" height="38.438" viewBox="0 0 136.352 38.438">
  <defs>
    <linearGradient id="linear-gradient" x1="0.072" y1="0.851" x2="1.076" y2="0.246" gradientUnits="objectBoundingBox">
      <stop offset="0" stop-color="#f80"/>
      <stop offset="1" stop-color="#ffba00"/>
    </linearGradient>
    <linearGradient id="linear-gradient-2" x1="0" y1="0.671" x2="3.508" y2="0.671" xlink:href="#linear-gradient"/>
    <linearGradient id="linear-gradient-3" x1="-1.05" y1="0.5" x2="2.132" y2="0.5" xlink:href="#linear-gradient"/>
    <linearGradient id="linear-gradient-4" x1="-2.062" y1="0.663" x2="1" y2="0.663" xlink:href="#linear-gradient"/>
  </defs>
  <g id="logo_prjts" transform="translate(-310 -6)">
    <g id="Group_748" data-name="Group 748" transform="translate(691.091 -1441.044)">
      <path id="Path_421" data-name="Path 421" d="M-265.716,1454.655l-6.791-1.533-3.7-6.078-3.7,6.078-6.791,1.533,4.505,5.495-.5,6.822,6.481-2.478,6.482,2.478-.5-6.822Zm-7.12,8.129-3.369-1.288-3.368,1.288.26-3.544-2.339-2.852,3.526-.795,1.921-3.16,1.922,3.16,3.526.795-2.339,2.852Z" fill="url(#linear-gradient)"/>
      <g id="Group_745" data-name="Group 745">
        <g id="Group_744" data-name="Group 744">
          <path id="Path_422" data-name="Path 422" d="M-320.556,1480.821h-4.03l-1.239-3.228h-6.968l-1.213,3.228h-3.957l6.676-16.29h4.006Zm-6.458-6.433-2.16-6.191h-.244l-2.184,6.191Z" fill="#242434"/>
          <path id="Path_423" data-name="Path 423" d="M-311.434,1473.611l3.229-5.171h3.787v12.381h-3.3v-7.647h-.219l-2.743,4.3h-1.6l-2.694-4.3h-.194v7.647h-3.3V1468.44h3.885Z" fill="#242434"/>
          <path id="Path_424" data-name="Path 424" d="M-294.809,1477.18h.219l2.743-8.74h3.835l-5.534,13.668a6.392,6.392,0,0,1-1.652,2.476,3.747,3.747,0,0,1-2.573.9,4.636,4.636,0,0,1-2.792-.776l.972-2.6a3.64,3.64,0,0,0,.752.243,3.622,3.622,0,0,0,.7.073,1.445,1.445,0,0,0,1.529-.947l.194-.486-6.02-12.551h4.078Z" fill="#242434"/>
          <path id="Path_425" data-name="Path 425" d="M-282.967,1470.066a4.453,4.453,0,0,1,1.76-1.468,5.845,5.845,0,0,1,2.391-.45,6.1,6.1,0,0,1,2.38.45,5.167,5.167,0,0,1,1.833,1.287,5.919,5.919,0,0,1,1.189,2.014,7.636,7.636,0,0,1,.425,2.611,7.135,7.135,0,0,1-.534,2.84,6.033,6.033,0,0,1-1.444,2.076,6.161,6.161,0,0,1-2.088,1.262,7.213,7.213,0,0,1-2.464.424,7.222,7.222,0,0,1-1.6-.17,5.085,5.085,0,0,1-1.457-.582v4.977h-3.447v-16.9h2.792Zm1.712,7.721a5.074,5.074,0,0,0,1.493.218,3.1,3.1,0,0,0,2.354-.946,3.657,3.657,0,0,0,.9-2.622,3.483,3.483,0,0,0-.753-2.355,2.634,2.634,0,0,0-2.112-.874,3.4,3.4,0,0,0-1.991.558,3.53,3.53,0,0,0-1.214,1.481v3.957A5.942,5.942,0,0,0-281.255,1477.787Z" fill="#242434"/>
          <path id="Path_426" data-name="Path 426" d="M-264.521,1471.28a3.582,3.582,0,0,0-1.286.231,3.159,3.159,0,0,0-1.057.656,3.148,3.148,0,0,0-.716,1.031,3.364,3.364,0,0,0-.267,1.36,3.477,3.477,0,0,0,.887,2.476,3.146,3.146,0,0,0,2.415.947,4.675,4.675,0,0,0,1.845-.352,4.492,4.492,0,0,0,1.432-.959l2.016,2.307a6.729,6.729,0,0,1-2.453,1.638,8.512,8.512,0,0,1-2.986.5,7.4,7.4,0,0,1-2.852-.509,6.011,6.011,0,0,1-2.064-1.384,5.75,5.75,0,0,1-1.263-2.051,7.354,7.354,0,0,1-.424-2.513,6.518,6.518,0,0,1,.509-2.6,6.243,6.243,0,0,1,1.421-2.064,6.525,6.525,0,0,1,2.124-1.359,7.062,7.062,0,0,1,2.647-.487,8.158,8.158,0,0,1,2.913.474,6.962,6.962,0,0,1,2.258,1.42l-1.943,2.356A4.418,4.418,0,0,0-264.521,1471.28Z" fill="#242434"/>
          <path id="Path_427" data-name="Path 427" d="M-254.061,1472.858l1.286-.218,3.229-4.2h4.345l-4.709,5.632,5.171,6.749h-4.224l-3.714-5.049h-1.384v5.049h-3.472V1468.44h3.472Z" fill="#242434"/>
        </g>
      </g>
      <g id="Group_747" data-name="Group 747">
        <g id="Group_746" data-name="Group 746">
          <path id="Path_428" data-name="Path 428" d="M-369.268,1480.821h-3.5v-9.346H-377.6v9.346h-3.5V1468.44h11.823Z" fill="url(#linear-gradient-2)"/>
          <path id="Path_429" data-name="Path 429" d="M-364.344,1470.066a4.457,4.457,0,0,1,1.759-1.468,5.847,5.847,0,0,1,2.392-.45,6.086,6.086,0,0,1,2.379.45,5.158,5.158,0,0,1,1.833,1.287,5.92,5.92,0,0,1,1.189,2.014,7.636,7.636,0,0,1,.425,2.611,7.1,7.1,0,0,1-.534,2.84,6.007,6.007,0,0,1-1.444,2.076,6.151,6.151,0,0,1-2.088,1.262,7.213,7.213,0,0,1-2.464.424,7.229,7.229,0,0,1-1.6-.17,5.079,5.079,0,0,1-1.456-.582v4.977H-367.4v-16.9h2.792Zm1.712,7.721a5.062,5.062,0,0,0,1.492.218,3.1,3.1,0,0,0,2.355-.946,3.657,3.657,0,0,0,.9-2.622,3.483,3.483,0,0,0-.753-2.355,2.637,2.637,0,0,0-2.112-.874,3.4,3.4,0,0,0-1.991.558,3.522,3.522,0,0,0-1.214,1.481v3.957A5.921,5.921,0,0,0-362.632,1477.787Z" fill="url(#linear-gradient-3)"/>
          <path id="Path_430" data-name="Path 430" d="M-343.653,1468.61a6.108,6.108,0,0,1,2.149,1.324,6.027,6.027,0,0,1,1.4,2.05,6.789,6.789,0,0,1,.5,2.647,6.586,6.586,0,0,1-.51,2.622,6.063,6.063,0,0,1-1.42,2.051,6.433,6.433,0,0,1-2.148,1.336,7.5,7.5,0,0,1-2.694.472,7.789,7.789,0,0,1-2.743-.461,6.212,6.212,0,0,1-2.137-1.31,5.877,5.877,0,0,1-1.4-2.052,6.877,6.877,0,0,1-.5-2.658,6.749,6.749,0,0,1,.5-2.61,5.865,5.865,0,0,1,1.4-2.051,6.506,6.506,0,0,1,2.137-1.335,7.444,7.444,0,0,1,2.743-.487A7.837,7.837,0,0,1-343.653,1468.61Zm-5.171,3.544a3.479,3.479,0,0,0-.886,2.477,3.474,3.474,0,0,0,.9,2.513,3.21,3.21,0,0,0,2.428.934,3.162,3.162,0,0,0,2.427-.934,3.535,3.535,0,0,0,.874-2.513,3.465,3.465,0,0,0-.886-2.488,3.171,3.171,0,0,0-2.415-.935A3.182,3.182,0,0,0-348.824,1472.154Z" fill="url(#linear-gradient-4)"/>
        </g>
      </g>
    </g>
  </g>
</svg>
