<svg xmlns="http://www.w3.org/2000/svg" width="156" height="43.182" viewBox="0 0 156 43.182"><defs><style>.a{fill:#0073ff;}.b{fill:#242434;}</style></defs><g transform="translate(-344 -115.801)"><g transform="translate(2949.075 -1082.073)"><path class="a" d="M-2506.328,1202.977a2.986,2.986,0,0,0-2.984,2.984v5.69a3.226,3.226,0,0,0,3.222,3.222h5.028l11.491,3.891v-19.679l-11.491,3.892Zm.22,3.2h3.706v5.488h-3.688Zm13.333,8.116-6.423-2.174v-6.4l6.423-2.175Z"/><path class="a" d="M-2484.681,1202.069l-2.52,1.978a7.967,7.967,0,0,1,1.61,4.916,8,8,0,0,1-1.564,4.855l2.542,1.948a11.207,11.207,0,0,0,2.226-6.8A11.18,11.18,0,0,0-2484.681,1202.069Z"/><path class="a" d="M-2480.533,1197.874l-2.523,1.973a14.862,14.862,0,0,1,3,9.143,14.911,14.911,0,0,1-2.918,9.026l2.547,1.944a18.135,18.135,0,0,0,3.576-10.97A18.074,18.074,0,0,0-2480.533,1197.874Z"/><path class="b" d="M-2535.817,1235.723h-4.611l-1.417-3.694h-7.972l-1.389,3.694h-4.527l7.639-18.637h4.583Zm-7.389-7.361-2.471-7.082h-.279l-2.5,7.082Z"/><path class="b" d="M-2525.381,1227.474l3.7-5.916h4.333v14.165h-3.778v-8.749h-.25l-3.139,4.916h-1.833l-3.083-4.916h-.222v8.749h-3.777v-14.165h4.444Z"/><path class="b" d="M-2506.36,1231.557h.25l3.138-10h4.388l-6.332,15.638a7.3,7.3,0,0,1-1.889,2.832,4.292,4.292,0,0,1-2.944,1.028,5.293,5.293,0,0,1-3.194-.89l1.111-2.97a4.3,4.3,0,0,0,.861.277,4.148,4.148,0,0,0,.8.083,1.652,1.652,0,0,0,1.75-1.083l.222-.556-6.888-14.359h4.666Z"/><path class="b" d="M-2492.812,1223.418a5.091,5.091,0,0,1,2.014-1.68,6.691,6.691,0,0,1,2.735-.514,6.975,6.975,0,0,1,2.723.514,5.894,5.894,0,0,1,2.1,1.473,6.788,6.788,0,0,1,1.361,2.3,8.755,8.755,0,0,1,.486,2.987,8.143,8.143,0,0,1-.611,3.249,6.9,6.9,0,0,1-1.653,2.375,7,7,0,0,1-2.388,1.444,8.245,8.245,0,0,1-2.819.486,8.29,8.29,0,0,1-1.834-.2,5.828,5.828,0,0,1-1.667-.665v5.693h-3.944v-19.331h3.2Zm1.958,8.834a5.849,5.849,0,0,0,1.709.249,3.541,3.541,0,0,0,2.693-1.083,4.186,4.186,0,0,0,1.028-3,3.988,3.988,0,0,0-.861-2.694,3.014,3.014,0,0,0-2.416-1,3.9,3.9,0,0,0-2.278.638,4.031,4.031,0,0,0-1.389,1.695v4.528A6.84,6.84,0,0,0-2490.854,1232.252Z"/><path class="b" d="M-2471.708,1224.807a4.1,4.1,0,0,0-1.471.264,3.6,3.6,0,0,0-1.209.751,3.6,3.6,0,0,0-.819,1.179,3.826,3.826,0,0,0-.306,1.556,3.979,3.979,0,0,0,1.014,2.833,3.6,3.6,0,0,0,2.763,1.083,5.345,5.345,0,0,0,2.112-.4,5.159,5.159,0,0,0,1.638-1.1l2.306,2.639a7.682,7.682,0,0,1-2.806,1.875,9.738,9.738,0,0,1-3.416.569,8.469,8.469,0,0,1-3.264-.583,6.88,6.88,0,0,1-2.361-1.584,6.562,6.562,0,0,1-1.444-2.346,8.41,8.41,0,0,1-.486-2.875,7.466,7.466,0,0,1,.583-2.972,7.127,7.127,0,0,1,1.625-2.36,7.459,7.459,0,0,1,2.431-1.556,8.066,8.066,0,0,1,3.027-.556,9.32,9.32,0,0,1,3.333.542,7.954,7.954,0,0,1,2.583,1.624l-2.222,2.695A5.059,5.059,0,0,0-2471.708,1224.807Z"/><path class="b" d="M-2459.741,1226.613l1.472-.251,3.693-4.8h4.972l-5.387,6.443,5.916,7.722h-4.834l-4.249-5.778h-1.583v5.778h-3.972v-14.165h3.972Z"/><path class="a" d="M-2591.548,1235.723h-4v-10.694h-5.527v10.694h-4v-14.165h13.527Z"/><path class="a" d="M-2585.915,1223.418a5.1,5.1,0,0,1,2.013-1.68,6.693,6.693,0,0,1,2.736-.514,6.964,6.964,0,0,1,2.722.514,5.886,5.886,0,0,1,2.1,1.473,6.773,6.773,0,0,1,1.361,2.3,8.755,8.755,0,0,1,.486,2.987,8.122,8.122,0,0,1-.611,3.249,6.883,6.883,0,0,1-1.652,2.375,7.009,7.009,0,0,1-2.389,1.444,8.241,8.241,0,0,1-2.819.486,8.3,8.3,0,0,1-1.834-.2,5.806,5.806,0,0,1-1.665-.665v5.693h-3.944v-19.331h3.194Zm1.959,8.834a5.831,5.831,0,0,0,1.707.249,3.545,3.545,0,0,0,2.7-1.083,4.19,4.19,0,0,0,1.027-3,3.988,3.988,0,0,0-.861-2.694,3.017,3.017,0,0,0-2.417-1,3.894,3.894,0,0,0-2.277.638,4.021,4.021,0,0,0-1.388,1.695v4.528A6.781,6.781,0,0,0-2583.956,1232.252Z"/><path class="a" d="M-2562.242,1221.752a6.993,6.993,0,0,1,2.458,1.514,6.887,6.887,0,0,1,1.6,2.347,7.777,7.777,0,0,1,.568,3.028,7.533,7.533,0,0,1-.583,3,6.966,6.966,0,0,1-1.625,2.347,7.338,7.338,0,0,1-2.458,1.528,8.563,8.563,0,0,1-3.082.541,8.95,8.95,0,0,1-3.139-.527,7.132,7.132,0,0,1-2.444-1.5,6.726,6.726,0,0,1-1.6-2.347,7.865,7.865,0,0,1-.57-3.041,7.724,7.724,0,0,1,.57-2.987,6.722,6.722,0,0,1,1.6-2.346,7.482,7.482,0,0,1,2.444-1.528,8.516,8.516,0,0,1,3.139-.556A8.979,8.979,0,0,1-2562.242,1221.752Zm-5.916,4.055a3.981,3.981,0,0,0-1.014,2.834,3.974,3.974,0,0,0,1.028,2.874,3.672,3.672,0,0,0,2.778,1.069,3.616,3.616,0,0,0,2.777-1.069,4.042,4.042,0,0,0,1-2.874,3.966,3.966,0,0,0-1.014-2.847,3.626,3.626,0,0,0-2.763-1.07A3.637,3.637,0,0,0-2568.158,1225.807Z"/></g></g></svg>