<svg xmlns="http://www.w3.org/2000/svg" xmlns:xlink="http://www.w3.org/1999/xlink" width="130.422" height="29.659" viewBox="0 0 130.422 29.659"><defs><style>.a{fill:url(#a);}.b{fill:#fff;font-size:24.97px;font-family:Helvetica-Bold, Helvetica;font-weight:700;letter-spacing:-0.06em;}.c{fill:url(#b);}.d{fill:url(#c);}.e{fill:url(#d);}</style><linearGradient id="a" y1="0.5" x2="1" y2="0.5" gradientUnits="objectBoundingBox"><stop offset="0" stop-color="#05f"/><stop offset="1" stop-color="#00b6ff"/></linearGradient><linearGradient id="b" x1="0" y1="0.5" x2="3.51" y2="0.5" xlink:href="#a"/><linearGradient id="c" x1="-1.051" y1="0.5" x2="2.132" y2="0.5" xlink:href="#a"/><linearGradient id="d" x1="-2.063" y1="0.5" x2="1" y2="0.5" xlink:href="#a"/></defs><g transform="translate(-714 -267.341)"><g transform="translate(164.579 -219.647)"><path class="a" d="M661.452,494.3l-1.3-1.621a7.692,7.692,0,0,0-7.15-2.12l-.569-3.377a11.346,11.346,0,0,1,9.074,2.114,11.452,11.452,0,0,1,9.044-2.113l-.585,3.374a7.886,7.886,0,0,0-7.172,2.158Z"/><text class="b" transform="translate(592.843 510.647)"><tspan x="0" y="0">Амурск</tspan></text><path class="c" d="M561.578,510.647h-3.594v-9.612h-4.969v9.612h-3.594V497.914h12.157Z"/><path class="d" d="M566.649,499.587a4.563,4.563,0,0,1,1.81-1.51,6,6,0,0,1,2.459-.462,6.255,6.255,0,0,1,2.447.462,5.3,5.3,0,0,1,1.884,1.323,6.087,6.087,0,0,1,1.223,2.072,7.847,7.847,0,0,1,.438,2.684,7.311,7.311,0,0,1-.55,2.92,6.178,6.178,0,0,1-1.485,2.135,6.3,6.3,0,0,1-2.147,1.3,7.419,7.419,0,0,1-2.534.436,7.5,7.5,0,0,1-1.648-.174,5.242,5.242,0,0,1-1.5-.6v5.118H563.5V497.914h2.87Zm1.76,7.939a5.226,5.226,0,0,0,1.535.225,3.186,3.186,0,0,0,2.422-.974,3.757,3.757,0,0,0,.924-2.7,3.584,3.584,0,0,0-.774-2.422,2.712,2.712,0,0,0-2.172-.9,3.493,3.493,0,0,0-2.047.574,3.619,3.619,0,0,0-1.248,1.522v4.07A6.093,6.093,0,0,0,568.409,507.526Z"/><path class="e" d="M587.935,498.09a6.3,6.3,0,0,1,2.209,1.36,6.2,6.2,0,0,1,1.435,2.109,6.993,6.993,0,0,1,.512,2.722,6.784,6.784,0,0,1-.524,2.7,6.275,6.275,0,0,1-1.461,2.11,6.6,6.6,0,0,1-2.209,1.372,7.685,7.685,0,0,1-2.771.487,8.031,8.031,0,0,1-2.821-.474,6.432,6.432,0,0,1-2.2-1.348,6.035,6.035,0,0,1-1.435-2.11,7.06,7.06,0,0,1-.512-2.733,6.93,6.93,0,0,1,.512-2.684,6.035,6.035,0,0,1,1.435-2.11,6.744,6.744,0,0,1,2.2-1.372,7.664,7.664,0,0,1,2.821-.5A8.045,8.045,0,0,1,587.935,498.09Zm-5.318,3.645a4.043,4.043,0,0,0,.013,5.129,3.3,3.3,0,0,0,2.5.962,3.249,3.249,0,0,0,2.5-.962,3.63,3.63,0,0,0,.9-2.583,3.567,3.567,0,0,0-.911-2.559,3.7,3.7,0,0,0-4.993.013Z"/></g></g></svg>