<svg xmlns="http://www.w3.org/2000/svg" xmlns:xlink="http://www.w3.org/1999/xlink" width="138" height="39.549" viewBox="0 0 138 39.549"><defs><style>.a{fill:url(#a);}.b{fill:#fff;}.c{fill:url(#b);}.d{fill:url(#c);}.e{fill:url(#d);}</style><linearGradient id="a" x1="-0.287" y1="0.896" x2="1.244" y2="0.074" gradientUnits="objectBoundingBox"><stop offset="0" stop-color="#9c00ce"/><stop offset="1" stop-color="#a830ec"/></linearGradient><linearGradient id="b" x1="0" y1="0.671" x2="3.509" y2="0.671" xlink:href="#a"/><linearGradient id="c" x1="-1.05" y1="0.5" x2="2.132" y2="0.5" xlink:href="#a"/><linearGradient id="d" x1="-2.062" y1="0.663" x2="1" y2="0.663" xlink:href="#a"/></defs><g transform="translate(-327 -5)"><path class="a" d="M-2542.971,1148.659V1139.7H-2562.3v14.711a3.188,3.188,0,0,0,2.924,3.455h18.68a3.181,3.181,0,0,0,2.923-3.442v-5.767Zm-16.18,6.128a.943.943,0,0,1-.07-.374v-11.63h13.169v11.657c0,.117.005.233.015.347Zm18.295-.361a.908.908,0,0,1-.068.361h-1.97a.269.269,0,0,1-.022-.042l0-.014a.949.949,0,0,1-.051-.318v-2.673h2.115Zm-16.186-9.164h8.979v6.081h-8.979Z" transform="translate(2984.899 -1134.702)"/><g transform="translate(2984.899 -1134.702)"><path class="b" d="M-2596.633,1174.534h-4.078l-1.253-3.268h-7.052l-1.228,3.268h-4.006l6.758-16.487h4.054Zm-6.535-6.511-2.186-6.266h-.247l-2.21,6.266Z"/><path class="b" d="M-2587.4,1167.237l3.267-5.235h3.833v12.532h-3.341v-7.74h-.221l-2.778,4.349h-1.621l-2.727-4.349h-.2v7.74h-3.342V1162h3.932Z"/><path class="b" d="M-2570.574,1170.848h.221l2.778-8.846h3.881l-5.6,13.834a6.475,6.475,0,0,1-1.671,2.507,3.8,3.8,0,0,1-2.6.908,4.691,4.691,0,0,1-2.826-.786l.982-2.629a3.715,3.715,0,0,0,.763.246,3.626,3.626,0,0,0,.712.073,1.464,1.464,0,0,0,1.548-.957l.2-.492-6.094-12.7h4.128Z"/><path class="b" d="M-2558.589,1163.649a4.5,4.5,0,0,1,1.781-1.487,5.911,5.911,0,0,1,2.421-.454,6.147,6.147,0,0,1,2.407.454,5.2,5.2,0,0,1,1.855,1.3,5.969,5.969,0,0,1,1.206,2.039,7.732,7.732,0,0,1,.429,2.641,7.187,7.187,0,0,1-.541,2.875,6.075,6.075,0,0,1-1.461,2.1,6.187,6.187,0,0,1-2.114,1.277,7.27,7.27,0,0,1-2.493.43,7.4,7.4,0,0,1-1.623-.171,5.179,5.179,0,0,1-1.474-.59v5.037h-3.488V1162h2.824Zm1.733,7.814a5.161,5.161,0,0,0,1.51.22,3.136,3.136,0,0,0,2.383-.957,3.694,3.694,0,0,0,.911-2.654,3.533,3.533,0,0,0-.762-2.384,2.669,2.669,0,0,0-2.139-.884,3.429,3.429,0,0,0-2.013.565,3.555,3.555,0,0,0-1.23,1.5v4.005A6,6,0,0,0-2556.856,1171.463Z"/><path class="b" d="M-2539.919,1164.878a3.656,3.656,0,0,0-1.3.232,3.209,3.209,0,0,0-1.067.664,3.193,3.193,0,0,0-.726,1.044,3.378,3.378,0,0,0-.271,1.376,3.522,3.522,0,0,0,.9,2.507,3.185,3.185,0,0,0,2.443.958,4.7,4.7,0,0,0,1.867-.357,4.506,4.506,0,0,0,1.45-.97l2.04,2.334a6.787,6.787,0,0,1-2.481,1.659,8.6,8.6,0,0,1-3.023.5,7.469,7.469,0,0,1-2.886-.515,6.091,6.091,0,0,1-2.09-1.4,5.84,5.84,0,0,1-1.278-2.076,7.423,7.423,0,0,1-.429-2.543,6.619,6.619,0,0,1,.516-2.629,6.327,6.327,0,0,1,1.438-2.089,6.6,6.6,0,0,1,2.15-1.376,7.15,7.15,0,0,1,2.678-.491,8.233,8.233,0,0,1,2.948.479,7.019,7.019,0,0,1,2.285,1.437l-1.966,2.384A4.472,4.472,0,0,0-2539.919,1164.878Z"/><path class="b" d="M-2529.335,1166.474l1.3-.22,3.268-4.252h4.4l-4.768,5.7,5.234,6.831h-4.275l-3.759-5.111h-1.4v5.111h-3.512V1162h3.512Z"/></g><g transform="translate(2984.899 -1134.702)"><path class="c" d="M-2645.933,1174.534h-3.538v-9.46h-4.89v9.46h-3.538V1162h11.966Z"/><path class="d" d="M-2640.949,1163.649a4.5,4.5,0,0,1,1.782-1.487,5.907,5.907,0,0,1,2.419-.454,6.155,6.155,0,0,1,2.408.454,5.222,5.222,0,0,1,1.856,1.3,6.013,6.013,0,0,1,1.2,2.039,7.726,7.726,0,0,1,.43,2.641,7.187,7.187,0,0,1-.54,2.875,6.087,6.087,0,0,1-1.462,2.1,6.176,6.176,0,0,1-2.112,1.277,7.29,7.29,0,0,1-2.5.43,7.372,7.372,0,0,1-1.62-.171,5.164,5.164,0,0,1-1.474-.59v5.037h-3.491V1162h2.827Zm1.731,7.814a5.172,5.172,0,0,0,1.513.22,3.135,3.135,0,0,0,2.383-.957,3.706,3.706,0,0,0,.908-2.654,3.518,3.518,0,0,0-.762-2.384,2.664,2.664,0,0,0-2.136-.884,3.444,3.444,0,0,0-2.016.565,3.561,3.561,0,0,0-1.227,1.5v4.005A5.981,5.981,0,0,0-2639.218,1171.463Z"/><path class="e" d="M-2620.008,1162.175a6.175,6.175,0,0,1,2.174,1.339,6.114,6.114,0,0,1,1.414,2.076,6.9,6.9,0,0,1,.5,2.679,6.692,6.692,0,0,1-.516,2.653,6.186,6.186,0,0,1-1.438,2.076,6.493,6.493,0,0,1-2.174,1.351,7.573,7.573,0,0,1-2.728.479,7.9,7.9,0,0,1-2.776-.466,6.3,6.3,0,0,1-2.162-1.327,5.932,5.932,0,0,1-1.412-2.077,6.939,6.939,0,0,1-.506-2.689,6.813,6.813,0,0,1,.506-2.642,5.937,5.937,0,0,1,1.412-2.076,6.6,6.6,0,0,1,2.162-1.352,7.551,7.551,0,0,1,2.776-.491A7.907,7.907,0,0,1-2620.008,1162.175Zm-5.233,3.587a3.521,3.521,0,0,0-.9,2.507,3.514,3.514,0,0,0,.909,2.542,3.249,3.249,0,0,0,2.457.947,3.2,3.2,0,0,0,2.457-.947,3.57,3.57,0,0,0,.884-2.542,3.512,3.512,0,0,0-.9-2.52,3.209,3.209,0,0,0-2.445-.945A3.216,3.216,0,0,0-2625.241,1165.762Z"/></g></g></svg>