<svg xmlns="http://www.w3.org/2000/svg" xmlns:xlink="http://www.w3.org/1999/xlink" width="138" height="41.279" viewBox="0 0 138 41.279">
  <defs>
    <linearGradient id="linear-gradient" y1="0.671" x2="3.508" y2="0.671" gradientUnits="objectBoundingBox">
      <stop offset="0" stop-color="#80c44c"/>
      <stop offset="1" stop-color="#18ce6a"/>
    </linearGradient>
    <linearGradient id="linear-gradient-2" x1="-1.05" y1="0.5" x2="2.132" y2="0.5" xlink:href="#linear-gradient"/>
    <linearGradient id="linear-gradient-3" x1="-2.062" y1="0.663" x2="1" y2="0.663" xlink:href="#linear-gradient"/>
    <linearGradient id="linear-gradient-4" x1="0.114" y1="0.913" x2="0.965" y2="0.252" xlink:href="#linear-gradient"/>
  </defs>
  <g id="logo_ppl" transform="translate(-310 -3)">
    <g id="Group_740" data-name="Group 740" transform="translate(2977.083 -1393.197)">
      <g id="Group_739" data-name="Group 739">
        <path id="Path_409" data-name="Path 409" d="M-2605.816,1432.758h-4.079l-1.253-3.267h-7.052l-1.229,3.267h-4.005l6.758-16.487h4.054Zm-6.536-6.511-2.186-6.265h-.246l-2.211,6.265Z" fill="#242434"/>
        <path id="Path_410" data-name="Path 410" d="M-2596.584,1425.461l3.269-5.233h3.833v12.53h-3.342v-7.74h-.221l-2.777,4.349h-1.622l-2.726-4.349h-.2v7.74h-3.342v-12.53h3.932Z" fill="#242434"/>
        <path id="Path_411" data-name="Path 411" d="M-2579.758,1429.073h.222l2.776-8.845h3.881l-5.6,13.833a6.47,6.47,0,0,1-1.671,2.505,3.8,3.8,0,0,1-2.605.91,4.683,4.683,0,0,1-2.825-.787l.983-2.628a3.767,3.767,0,0,0,.761.245,3.646,3.646,0,0,0,.713.074,1.462,1.462,0,0,0,1.548-.959l.2-.491-6.093-12.7h4.127Z" fill="#242434"/>
        <path id="Path_412" data-name="Path 412" d="M-2567.773,1421.873a4.493,4.493,0,0,1,1.782-1.486,5.911,5.911,0,0,1,2.42-.455,6.159,6.159,0,0,1,2.408.455,5.212,5.212,0,0,1,1.855,1.3,5.986,5.986,0,0,1,1.2,2.039,7.723,7.723,0,0,1,.43,2.641,7.207,7.207,0,0,1-.541,2.875,6.1,6.1,0,0,1-1.461,2.1,6.225,6.225,0,0,1-2.113,1.277,7.31,7.31,0,0,1-2.494.43,7.389,7.389,0,0,1-1.622-.172,5.207,5.207,0,0,1-1.475-.589v5.036h-3.489v-17.1h2.826Zm1.733,7.814a5.132,5.132,0,0,0,1.511.221,3.134,3.134,0,0,0,2.383-.958,3.7,3.7,0,0,0,.909-2.654,3.525,3.525,0,0,0-.762-2.383,2.666,2.666,0,0,0-2.137-.884,3.446,3.446,0,0,0-2.015.564,3.57,3.57,0,0,0-1.229,1.5v4.005A6.024,6.024,0,0,0-2566.04,1429.687Z" fill="#242434"/>
        <path id="Path_413" data-name="Path 413" d="M-2549.1,1423.1a3.644,3.644,0,0,0-1.3.233,3.2,3.2,0,0,0-1.07.664,3.2,3.2,0,0,0-.724,1.044,3.387,3.387,0,0,0-.271,1.376,3.518,3.518,0,0,0,.9,2.506,3.186,3.186,0,0,0,2.444.958,4.726,4.726,0,0,0,1.868-.356,4.541,4.541,0,0,0,1.449-.97l2.04,2.334a6.8,6.8,0,0,1-2.481,1.659,8.629,8.629,0,0,1-3.023.5,7.478,7.478,0,0,1-2.887-.516,6.08,6.08,0,0,1-2.088-1.4,5.8,5.8,0,0,1-1.278-2.075,7.437,7.437,0,0,1-.43-2.543,6.6,6.6,0,0,1,.516-2.629A6.3,6.3,0,0,1-2554,1421.8a6.6,6.6,0,0,1,2.15-1.376,7.136,7.136,0,0,1,2.678-.492,8.227,8.227,0,0,1,2.948.48,7,7,0,0,1,2.285,1.437l-1.965,2.384A4.472,4.472,0,0,0-2549.1,1423.1Z" fill="#242434"/>
        <path id="Path_414" data-name="Path 414" d="M-2538.517,1424.7l1.3-.221,3.268-4.25h4.4l-4.766,5.7,5.233,6.83h-4.275l-3.759-5.111h-1.4v5.111h-3.514v-12.53h3.514Z" fill="#242434"/>
      </g>
    </g>
    <g id="Group_742" data-name="Group 742" transform="translate(2977.083 -1393.197)">
      <g id="Group_741" data-name="Group 741">
        <path id="Path_415" data-name="Path 415" d="M-2655.116,1432.758h-3.539V1423.3h-4.889v9.459h-3.539v-12.53h11.967Z" fill="url(#linear-gradient)"/>
        <path id="Path_416" data-name="Path 416" d="M-2650.133,1421.873a4.5,4.5,0,0,1,1.781-1.486,5.909,5.909,0,0,1,2.42-.455,6.153,6.153,0,0,1,2.408.455,5.208,5.208,0,0,1,1.855,1.3,6,6,0,0,1,1.2,2.039,7.723,7.723,0,0,1,.43,2.641,7.194,7.194,0,0,1-.541,2.875,6.081,6.081,0,0,1-1.461,2.1,6.207,6.207,0,0,1-2.114,1.277,7.3,7.3,0,0,1-2.493.43,7.4,7.4,0,0,1-1.622-.172,5.207,5.207,0,0,1-1.474-.589v5.036h-3.489v-17.1h2.826Zm1.732,7.814a5.13,5.13,0,0,0,1.511.221,3.134,3.134,0,0,0,2.384-.958,3.7,3.7,0,0,0,.909-2.654,3.527,3.527,0,0,0-.762-2.383,2.67,2.67,0,0,0-2.138-.884,3.439,3.439,0,0,0-2.014.564,3.564,3.564,0,0,0-1.229,1.5v4.005A5.993,5.993,0,0,0-2648.4,1429.687Z" fill="url(#linear-gradient-2)"/>
        <path id="Path_417" data-name="Path 417" d="M-2629.192,1420.4a6.18,6.18,0,0,1,2.175,1.339,6.085,6.085,0,0,1,1.413,2.076,6.869,6.869,0,0,1,.5,2.678,6.668,6.668,0,0,1-.516,2.654,6.157,6.157,0,0,1-1.437,2.075,6.5,6.5,0,0,1-2.174,1.352,7.56,7.56,0,0,1-2.727.479,7.888,7.888,0,0,1-2.777-.467,6.3,6.3,0,0,1-2.162-1.326,5.94,5.94,0,0,1-1.412-2.077,6.957,6.957,0,0,1-.5-2.69,6.836,6.836,0,0,1,.5-2.642,5.942,5.942,0,0,1,1.412-2.075,6.616,6.616,0,0,1,2.162-1.352,7.54,7.54,0,0,1,2.777-.492A7.9,7.9,0,0,1-2629.192,1420.4Zm-5.233,3.586a3.524,3.524,0,0,0-.9,2.507,3.518,3.518,0,0,0,.91,2.543,3.247,3.247,0,0,0,2.457.946,3.2,3.2,0,0,0,2.457-.946,3.578,3.578,0,0,0,.884-2.543,3.507,3.507,0,0,0-.9-2.518,3.205,3.205,0,0,0-2.444-.946A3.221,3.221,0,0,0-2634.425,1423.986Z" fill="url(#linear-gradient-3)"/>
      </g>
    </g>
    <path id="Path_418" data-name="Path 418" d="M-2551.893,1409.187h-.269l-2.846,1.122a5.514,5.514,0,0,1-4.117,0l-2.845-1.122h-.269c-3.828,0-6.207,2.2-6.207,5.729v2.695h6.15a10.078,10.078,0,0,1,4.444,1.666l.825.547.8-.583a9.221,9.221,0,0,1,4.509-1.63h6.034v-2.695C-2545.687,1411.383-2548.065,1409.187-2551.893,1409.187Zm.172,5.589a11.2,11.2,0,0,0-5.364,1.652,11.577,11.577,0,0,0-5.211-1.652h-3.313c.052-1.754,1.1-2.68,3.112-2.751l2.332.92a8.425,8.425,0,0,0,6.2,0l2.334-.92c2.013.071,3.059,1,3.111,2.751Zm-10.774-11.064a5.772,5.772,0,0,0,5.558,5.449c2.953,0,5.239-2.246,5.565-5.5l.139-1.9,0-.1a5.513,5.513,0,0,0-5.55-5.461h-.315a5.513,5.513,0,0,0-5.55,5.461l.144,2Zm5.4-4.681h.315a2.679,2.679,0,0,1,2.716,2.581l-.132,1.8a2.911,2.911,0,0,1-2.742,2.911,2.978,2.978,0,0,1-2.738-2.9l-.135-1.812A2.679,2.679,0,0,1-2557.094,1399.031Z" transform="translate(2977.083 -1393.197)" fill="url(#linear-gradient-4)"/>
  </g>
</svg>
