<svg xmlns="http://www.w3.org/2000/svg" viewBox="0 0 13.48 16.34"><defs><style>.cls-1{fill:#fff;}</style></defs><title>Asset 1</title><g id="Layer_2" data-name="Layer 2"><g id="Layer_1-2" data-name="Layer 1"><path class="cls-1" d="M6.72,16.34l-.66-.59C5.44,15.19,0,10.24,0,6.73A6.74,6.74,0,0,1,6.73,0h0a6.77,6.77,0,0,1,6.75,6.72c0,3.53-5.47,8.48-6.09,9ZM6.73,2A4.73,4.73,0,0,0,2,6.73c0,1.78,2.67,4.94,4.73,6.91,2.06-2,4.75-5.13,4.75-6.91A4.77,4.77,0,0,0,6.73,2Z"/><path class="cls-1" d="M6.74,10.07a3.39,3.39,0,1,1,3.39-3.39A3.39,3.39,0,0,1,6.74,10.07Zm0-4.78A1.39,1.39,0,1,0,8.13,6.68,1.39,1.39,0,0,0,6.74,5.29Z"/></g></g></svg>