<svg xmlns="http://www.w3.org/2000/svg" width="1282.377" height="151.133" viewBox="0 0 1282.377 151.133">
  <g id="Сгруппировать_4383" data-name="Сгруппировать 4383" transform="translate(-323.93 -99)">
    <g id="Сгруппировать_4370" data-name="Сгруппировать 4370" transform="translate(0 -16)">
      <g id="Сгруппировать_4369" data-name="Сгруппировать 4369" transform="translate(920.709 181.963)">
        <circle id="Эллипс_246" data-name="Эллипс 246" cx="29.967" cy="29.967" r="29.967" transform="translate(11.678 17.322)" fill="#0073ff"/>
        <path id="Прямоугольник_921" data-name="Прямоугольник 921" d="M2.7,0H5.06a2.7,2.7,0,0,1,2.7,2.7V7.76a0,0,0,0,1,0,0H0a0,0,0,0,1,0,0V2.7A2.7,2.7,0,0,1,2.7,0Z" transform="translate(37.765 10.135)" fill="#0073ff"/>
        <path id="Контур_1651" data-name="Контур 1651" d="M37.765,14.551c.775,0,.775.806,1.55.806s.776-.806,1.551-.806.776.806,1.551.806.777-.806,1.554-.806.777.806,1.553.806" fill="#0073ff" stroke="#fff" stroke-linecap="round" stroke-linejoin="round" stroke-width="1.209"/>
        <path id="Контур_1652" data-name="Контур 1652" d="M25.157,39.795A1.853,1.853,0,0,0,27,39.808l2.521,1.474-3.641,1.589a.931.931,0,0,0,.746,1.706l4.88-2.135,2.875,1.681L29.2,46.371a.93.93,0,0,0-.01,1.7l5.159,2.308-1.46.832-1.437.82L26.6,49.844a.931.931,0,0,0-.765,1.7l3.625,1.63-2.526,1.441a1.859,1.859,0,1,0,.91,1.621l2.537-1.446-.444,3.948a.931.931,0,0,0,1.85.207l.591-5.294,2.471-1.409.518-.295L34.7,57.737a.93.93,0,0,0,1.469.859l4.377-3.168-.017,3.056L36.257,61.6a.921.921,0,0,0-.156,1.3.886.886,0,0,0,1.26.213l3.16-2.325-.016,2.979a1.866,1.866,0,1,0,1.938-.075l.015-2.893,3.222,2.359a.929.929,0,1,0,1.1-1.5l-4.307-3.159.018-3.4L47.3,58.656a.93.93,0,0,0,1.478-.843L48.2,52.2l2.648,1.548.535,5.3a.931.931,0,0,0,1.853-.188l-.4-3.949,2.516,1.47a1.859,1.859,0,1,0,.94-1.6L53.767,53.3l3.644-1.593a.931.931,0,0,0-.747-1.7l-4.882,2.138-2.747-1.606,5.355-2.327a.93.93,0,0,0,.009-1.7l-5.322-2.381,2.761-1.574,4.856,2.186a.931.931,0,0,0,.763-1.7l-3.622-1.626,2.531-1.443a1.859,1.859,0,1,0-.919-1.616L52.914,39.8l.442-3.952a.931.931,0,0,0-1.85-.206l-.589,5.3-2.669,1.521.641-5.614a.93.93,0,0,0-1.469-.859l-4.847,3.508.018-3.4,4.34-3.112a.93.93,0,1,0-1.083-1.511L42.6,33.794l.015-2.886a1.853,1.853,0,1,0-1.936-.114l-.016,2.99-3.138-2.358a.887.887,0,0,0-1.264.2.922.922,0,0,0,.145,1.3l4.244,3.159-.016,3.056L36.3,35.925a.929.929,0,0,0-1.478.842l.6,5.808-2.975-1.739-.533-5.3a.931.931,0,0,0-1.852.187l.4,3.954-2.511-1.468a1.856,1.856,0,1,0-2.79,1.587Zm6.722,7.442,4.49-1.951,3.417,2-3.431,1.956ZM37.368,50.8l3.217-1.834L40.567,52.2l-.005.919-3.771,2.729ZM42.5,52.791l0-.577.018-3.331,2.9,1.695.784.458.5,4.87Zm4.544-3.418-3.54-2.07,2.877-1.64.693-.395,4.64,2.076Zm-.8-5.773-.785.447L42.54,45.713l.018-3.339,0-.576,4.241-3.07Zm-5.621-2.156-.005.919L40.6,45.607l-2.738-1.6-.458-.268-.523-5.064Z" fill="#fff"/>
      </g>
    </g>
    <path id="Контур_1645" data-name="Контур 1645" d="M.845,10.2a1.526,1.526,0,0,0,1.516.011l2.078,1.214-3,1.309a.766.766,0,0,0,.613,1.4l4.021-1.759,2.369,1.384L4.18,15.616a.766.766,0,0,0-.008,1.4l4.249,1.9-1.2.686-1.184.675-4-1.8a.767.767,0,0,0-.629,1.4l2.985,1.342L2.308,22.405a1.531,1.531,0,1,0,.75,1.335l2.09-1.192L4.782,25.8a.767.767,0,0,0,1.524.17l.488-4.36L8.828,20.45l.428-.242L8.71,24.979a.766.766,0,0,0,1.211.708l3.605-2.61L13.512,25.6,9.989,28.159a.759.759,0,0,0-.127,1.07A.73.73,0,0,0,10.9,29.4l2.6-1.914-.014,2.454a1.536,1.536,0,1,0,1.6-.063L15.1,27.5l2.654,1.944a.766.766,0,1,0,.906-1.235l-3.549-2.6.014-2.8,3.962,2.932a.766.766,0,0,0,1.217-.694l-.478-4.625,2.182,1.276.44,4.365a.767.767,0,0,0,1.526-.156l-.332-3.253,2.072,1.211a1.532,1.532,0,1,0,.775-1.323l-2.073-1.211,3-1.313a.766.766,0,0,0-.615-1.4l-4.022,1.76-2.263-1.323,4.412-1.917a.766.766,0,0,0,.008-1.4L20.55,13.767l2.275-1.3,4,1.8a.767.767,0,0,0,.629-1.4L24.47,11.533l2.086-1.189A1.531,1.531,0,1,0,25.8,9.012L23.711,10.2l.363-3.256a.766.766,0,0,0-1.523-.17l-.486,4.363-2.2,1.254L20.4,7.767a.767.767,0,0,0-1.21-.708L15.192,9.951l.016-2.8,3.574-2.564a.765.765,0,1,0-.892-1.244L15.217,5.255l.014-2.377a1.528,1.528,0,1,0-1.6-.094l-.013,2.463L11.038,3.3A.731.731,0,0,0,10,3.468a.761.761,0,0,0,.118,1.071l3.5,2.6L13.6,9.66,10.022,7.011A.765.765,0,0,0,8.8,7.7L9.3,12.489,6.848,11.056,6.407,6.69a.767.767,0,0,0-1.526.154l.33,3.258L3.145,8.892A1.529,1.529,0,1,0,.845,10.2Zm5.538,6.13,3.7-1.606L12.9,16.368l-2.827,1.611ZM10.9,19.267l2.65-1.512-.014,2.666,0,.757-3.107,2.248Zm4.23,1.637,0-.475.016-2.745,2.388,1.4.646.378L18.6,23.47Zm3.742-2.816L15.96,16.384l2.37-1.351.571-.326,3.822,1.71Zm-.657-4.755-.646.368-2.407,1.372.014-2.751,0-.473L18.676,9.32Zm-4.631-1.776,0,.757-.016,2.672-2.256-1.32-.376-.22-.431-4.172Z" transform="matrix(0.966, -0.259, 0.259, 0.966, 807.661, 156.473)" fill="#0073ff"/>
    <path id="Контур_1662" data-name="Контур 1662" d="M.77,9.3a1.391,1.391,0,0,0,1.382.01l1.894,1.107L1.312,11.606a.7.7,0,0,0,.559,1.28l3.665-1.6L7.7,12.545,3.81,14.234A.7.7,0,0,0,3.8,15.511l3.872,1.733-1.1.625-1.08.615L1.853,16.842a.7.7,0,0,0-.573,1.275L4,19.339,2.1,20.422a1.4,1.4,0,1,0,.684,1.217l1.905-1.087-.334,2.965a.7.7,0,0,0,1.389.155L6.193,19.7,8.046,18.64l.39-.221-.5,4.348a.7.7,0,0,0,1.1.645l3.286-2.379-.013,2.3L9.1,25.666a.692.692,0,0,0-.116.975.665.665,0,0,0,.946.159l2.373-1.745-.013,2.237a1.4,1.4,0,1,0,1.455-.057l.011-2.172,2.419,1.772a.7.7,0,1,0,.826-1.125l-3.234-2.373.013-2.552L17.4,23.457a.7.7,0,0,0,1.11-.632l-.436-4.215,1.989,1.163.4,3.979a.7.7,0,0,0,1.391-.142l-.3-2.965,1.888,1.1a1.4,1.4,0,1,0,.707-1.206l-1.89-1.1,2.736-1.2a.7.7,0,0,0-.561-1.279l-3.666,1.6L18.7,17.361l4.022-1.748a.7.7,0,0,0,.007-1.277l-4-1.788L20.8,11.366l3.646,1.64a.7.7,0,0,0,.573-1.275l-2.72-1.22,1.9-1.084a1.4,1.4,0,1,0-.691-1.214L21.612,9.3l.331-2.968a.7.7,0,0,0-1.388-.155l-.443,3.977-2,1.143L18.59,7.08a.7.7,0,0,0-1.1-.645L13.847,9.07l.014-2.553,3.257-2.337a.7.7,0,1,0-.813-1.134L13.87,4.79l.013-2.166a1.393,1.393,0,1,0-1.455-.086l-.011,2.245L10.061,3.012a.666.666,0,0,0-.949.149.694.694,0,0,0,.108.976l3.187,2.371-.011,2.3L9.135,6.39a.7.7,0,0,0-1.11.632l.45,4.361L6.241,10.078,5.84,6.1a.7.7,0,0,0-1.391.141l.3,2.969L2.866,8.1A1.394,1.394,0,1,0,.77,9.3Zm5.048,5.587L9.189,13.42l2.566,1.5L9.179,16.387Zm4.12,2.678,2.416-1.378-.013,2.43,0,.69L9.506,21.352Zm3.855,1.492v-.433l.014-2.5,2.176,1.273.589.344.377,3.656ZM17.2,16.488l-2.658-1.554L16.707,13.7l.52-.3,3.484,1.558Zm-.6-4.334-.589.335-2.194,1.25.013-2.508,0-.432,3.184-2.305Zm-4.221-1.619,0,.69-.014,2.436-2.056-1.2-.343-.2-.393-3.8Z" transform="matrix(0.891, 0.454, -0.454, 0.891, 1531.833, 132.984)" fill="#0073ff"/>
    <path id="Контур_1666" data-name="Контур 1666" d="M.429,5.171a.774.774,0,0,0,.769.006l1.053.616L.73,6.455a.389.389,0,0,0,.311.712l2.038-.892,1.2.7-2.161.939a.388.388,0,0,0,0,.711l2.154.964L3.66,9.94l-.6.342L1.031,9.368a.389.389,0,0,0-.319.709l1.514.68-1.055.6a.776.776,0,1,0,.38.677l1.06-.6-.186,1.649a.389.389,0,0,0,.773.086l.247-2.211,1.031-.589.217-.123-.277,2.419a.389.389,0,0,0,.614.359L6.858,11.7,6.85,12.976l-1.786,1.3A.385.385,0,0,0,5,14.818a.37.37,0,0,0,.526.089l1.32-.971-.007,1.244a.779.779,0,1,0,.809-.032l.006-1.208L9,14.926a.388.388,0,1,0,.459-.626l-1.8-1.32.007-1.419,2.009,1.486a.388.388,0,0,0,.617-.352l-.242-2.345L11.157,11l.223,2.213a.389.389,0,0,0,.774-.079l-.168-1.649,1.05.614a.777.777,0,1,0,.393-.671l-1.051-.614,1.522-.666a.388.388,0,0,0-.312-.711l-2.039.892L10.4,9.656l2.237-.972a.388.388,0,0,0,0-.711l-2.223-.994,1.153-.657,2.028.912a.389.389,0,0,0,.319-.709l-1.513-.679,1.057-.6a.776.776,0,1,0-.384-.675l-1.057.6.184-1.651a.388.388,0,0,0-.772-.086l-.246,2.212-1.115.636.268-2.345a.389.389,0,0,0-.613-.359L7.7,5.045l.008-1.42,1.812-1.3a.388.388,0,1,0-.452-.631l-1.355.971.007-1.2a.775.775,0,1,0-.809-.048L6.906,2.66,5.6,1.675a.371.371,0,0,0-.528.083.386.386,0,0,0,.06.543L6.9,3.62,6.894,4.9,5.081,3.554a.388.388,0,0,0-.617.352l.25,2.426L3.472,5.605,3.248,3.392a.389.389,0,0,0-.774.078l.167,1.652L1.594,4.508a.775.775,0,1,0-1.166.663ZM3.236,8.278l1.875-.814L6.539,8.3l-1.433.817Zm2.292,1.49L6.872,9l-.007,1.352,0,.384-1.575,1.14Zm2.144.83v-.241l.008-1.392,1.211.708.328.191.21,2.034Zm1.9-1.427L8.091,8.306l1.2-.685.289-.165,1.938.867ZM9.236,6.76l-.328.187-1.22.7L7.7,6.247l0-.24L9.469,4.725Zm-2.348-.9,0,.384L6.879,7.6,5.736,6.929l-.191-.112L5.327,4.7Z" transform="matrix(0.914, -0.407, 0.407, 0.914, 1475.691, 234.967)" fill="#0073ff"/>
    <path id="Контур_1663" data-name="Контур 1663" d="M.479,5.783a.865.865,0,0,0,.86.006l1.178.689-1.7.742a.435.435,0,0,0,.348.8l2.28-1L4.787,7.8,2.37,8.855a.434.434,0,0,0,0,.795l2.409,1.078-.681.389-.672.383L1.153,10.478A.435.435,0,0,0,.8,11.27l1.693.761-1.18.673a.868.868,0,1,0,.425.757l1.185-.676L2.712,14.63a.435.435,0,0,0,.864.1l.276-2.472L5.006,11.6l.243-.137-.309,2.705a.435.435,0,0,0,.687.4l2.044-1.48-.008,1.428-2,1.454a.431.431,0,0,0-.072.607.414.414,0,0,0,.589.1l1.476-1.085-.008,1.391a.871.871,0,1,0,.905-.036l.007-1.351,1.5,1.1a.434.434,0,1,0,.514-.7L8.567,14.518l.008-1.588,2.247,1.663a.434.434,0,0,0,.69-.393l-.271-2.622,1.237.723.25,2.475a.435.435,0,0,0,.865-.088l-.188-1.845,1.175.687a.869.869,0,1,0,.44-.75l-1.176-.687,1.7-.745a.434.434,0,0,0-.349-.8l-2.281,1-1.283-.75,2.5-1.087a.434.434,0,0,0,0-.795L11.652,7.806l1.29-.735,2.268,1.02a.435.435,0,0,0,.357-.793L13.875,6.54l1.183-.674a.868.868,0,1,0-.43-.755l-1.183.675.206-1.846a.434.434,0,0,0-.863-.1l-.276,2.474-1.247.711.3-2.623a.435.435,0,0,0-.686-.4L8.615,5.642l.009-1.589L10.65,2.6a.434.434,0,1,0-.506-.706L8.629,2.98l.008-1.348a.866.866,0,1,0-.905-.054l-.007,1.4-1.465-1.1a.415.415,0,0,0-.59.093.432.432,0,0,0,.067.607L7.718,4.049,7.711,5.477l-2.028-1.5a.434.434,0,0,0-.69.393l.28,2.713-1.39-.813-.25-2.476a.435.435,0,0,0-.865.087l.187,1.847L1.783,5.042a.867.867,0,1,0-1.3.741ZM3.62,9.259l2.1-.911,1.6.933-1.6.913Zm2.563,1.666,1.5-.857L7.678,11.58l0,.429L5.914,13.284Zm2.4.928v-.269l.009-1.556,1.354.792.367.214.235,2.274Zm2.122-1.6L9.05,9.29l1.344-.766.324-.185,2.167.97Zm-.373-2.7-.367.209L8.6,8.547l.008-1.56,0-.268L10.59,5.285ZM7.7,6.554l0,.429L7.694,8.5,6.415,7.75,6.2,7.625,5.958,5.26Z" transform="translate(1358.095 207.865) rotate(-26)" fill="#0073ff"/>
    <path id="Контур_1650" data-name="Контур 1650" d="M.585,7.06a1.056,1.056,0,0,0,1.05.008l1.438.841L1,8.814a.531.531,0,0,0,.425.972L4.2,8.569l1.64.958L2.893,10.81a.53.53,0,0,0-.005.97L5.829,13.1,5,13.571l-.82.467L1.407,12.79a.531.531,0,0,0-.436.968l2.067.929-1.44.822a1.06,1.06,0,1,0,.519.924l1.447-.825L3.31,17.86a.531.531,0,0,0,1.055.118L4.7,14.959l1.408-.8.3-.168-.378,3.3a.531.531,0,0,0,.838.49l2.5-1.806-.01,1.743L6.914,19.492a.526.526,0,0,0-.088.74.505.505,0,0,0,.719.121l1.8-1.325-.01,1.7a1.063,1.063,0,1,0,1.105-.044l.009-1.65,1.837,1.346a.53.53,0,1,0,.627-.855l-2.456-1.8.01-1.938,2.743,2.03a.53.53,0,0,0,.843-.48l-.331-3.2,1.51.883.3,3.021a.531.531,0,0,0,1.056-.108l-.23-2.252,1.434.838a1.061,1.061,0,1,0,.537-.916L16.9,14.762l2.077-.909a.53.53,0,0,0-.426-.971L15.767,14.1,14.2,13.184l3.054-1.327a.53.53,0,0,0,.005-.97L14.224,9.529l1.574-.9,2.769,1.246A.531.531,0,0,0,19,8.91l-2.065-.927,1.444-.823a1.06,1.06,0,1,0-.525-.922l-1.444.824.252-2.254a.53.53,0,0,0-1.054-.118l-.336,3.02-1.522.868.366-3.2a.531.531,0,0,0-.837-.49l-2.764,2,.011-1.939L13,3.174a.53.53,0,1,0-.617-.861l-1.85,1.325.01-1.645a1.058,1.058,0,1,0-1.105-.065L9.429,3.632,7.64,2.288A.506.506,0,0,0,6.92,2.4.527.527,0,0,0,7,3.142l2.42,1.8L9.413,6.686,6.937,4.853a.53.53,0,0,0-.843.48l.342,3.312-1.7-.992-.3-3.023a.531.531,0,0,0-1.056.107l.229,2.255L2.177,6.155a1.059,1.059,0,1,0-1.592.9ZM4.419,11.3l2.56-1.112L8.927,11.33,6.971,12.445Zm3.129,2.034L9.383,12.29l-.01,1.846,0,.524-2.15,1.556Zm2.928,1.133v-.329l.011-1.9,1.653.967.447.261.286,2.776Zm2.59-1.949-2.019-1.18,1.641-.935.4-.225,2.646,1.184ZM12.611,9.23l-.447.255-1.666.949.01-1.9,0-.328,2.418-1.751ZM9.405,8l0,.524-.011,1.85L7.831,9.461l-.26-.152-.3-2.887Z" transform="matrix(0.94, 0.342, -0.342, 0.94, 590.43, 165.236)" fill="#0073ff"/>
    <path id="Контур_1648" data-name="Контур 1648" d="M.731,8.826a1.32,1.32,0,0,0,1.312.01l1.8,1.051-2.6,1.133a.663.663,0,0,0,.531,1.216l3.479-1.522,2.05,1.2-3.689,1.6a.663.663,0,0,0-.007,1.213l3.677,1.646-1.04.594-1.025.584-3.463-1.56a.664.664,0,0,0-.544,1.21L3.8,18.362,2,19.39a1.325,1.325,0,1,0,.649,1.156l1.809-1.032-.317,2.815a.664.664,0,0,0,1.319.147L5.88,18.7l1.76-1,.37-.21-.472,4.129a.663.663,0,0,0,1.048.613l3.12-2.258-.012,2.179L8.644,24.369a.657.657,0,0,0-.11.926.632.632,0,0,0,.9.151l2.253-1.657-.012,2.124a1.329,1.329,0,1,0,1.382-.054l.011-2.062,2.3,1.682a.663.663,0,1,0,.784-1.069l-3.071-2.253.012-2.423,3.429,2.537a.663.663,0,0,0,1.054-.6l-.414-4,1.888,1.1.381,3.777a.664.664,0,0,0,1.32-.135L20.459,19.6l1.793,1.048a1.326,1.326,0,1,0,.671-1.145l-1.794-1.048,2.6-1.137a.663.663,0,0,0-.532-1.214l-3.481,1.523-1.959-1.145,3.818-1.659a.663.663,0,0,0,.007-1.213l-3.8-1.7,1.968-1.122,3.462,1.557a.664.664,0,0,0,.544-1.21L21.176,9.981l1.8-1.029A1.325,1.325,0,1,0,22.325,7.8L20.52,8.829l.314-2.818a.663.663,0,0,0-1.318-.147L19.1,9.64l-1.9,1.085.457-4A.663.663,0,0,0,16.6,6.109l-3.456,2.5.014-2.424,3.093-2.219a.662.662,0,1,0-.772-1.077L13.169,4.548l.012-2.057A1.322,1.322,0,1,0,11.8,2.409l-.011,2.132L9.552,2.86a.633.633,0,0,0-.9.142.659.659,0,0,0,.1.927L11.779,6.18l-.011,2.179-3.1-2.292a.662.662,0,0,0-1.054.6l.427,4.141L5.926,9.568,5.545,5.789a.664.664,0,0,0-1.32.133L4.51,8.742,2.722,7.7A1.324,1.324,0,1,0,.731,8.826Zm4.793,5.3,3.2-1.39,2.437,1.424L8.715,15.559Zm3.912,2.543,2.294-1.308-.012,2.307,0,.655L9.026,20.273Zm3.66,1.417V17.68l.014-2.375,2.066,1.209.559.327.358,3.471Zm3.238-2.437-2.524-1.476,2.051-1.169.494-.282,3.308,1.48Zm-.569-4.115-.559.319-2.083,1.187.012-2.381,0-.41,3.023-2.189ZM11.759,10l0,.655-.014,2.313L9.791,11.828l-.325-.191-.373-3.61Z" transform="translate(715.132 192.924) rotate(17)" fill="#0073ff"/>
    <path id="Контур_1664" data-name="Контур 1664" d="M.39,4.706a.7.7,0,0,0,.7.005l.959.56-1.384.6a.354.354,0,0,0,.283.648L2.8,5.711,3.9,6.35l-1.967.855a.353.353,0,0,0,0,.647l1.96.877-.554.316-.546.311L.938,8.525a.354.354,0,0,0-.29.645l1.377.619-.96.548a.706.706,0,1,0,.346.616l.964-.55-.169,1.5a.354.354,0,0,0,.7.078l.225-2.012.938-.536.2-.112-.252,2.2a.354.354,0,0,0,.559.327l1.663-1.2-.007,1.162L4.609,12.992a.35.35,0,0,0-.059.493.337.337,0,0,0,.479.081l1.2-.883-.007,1.132a.709.709,0,1,0,.737-.029l.006-1.1,1.224.9a.353.353,0,1,0,.418-.57l-1.637-1.2.007-1.292,1.828,1.353a.353.353,0,0,0,.562-.32L9.147,9.42l1.007.589.2,2.014a.354.354,0,0,0,.7-.072l-.153-1.5.956.559a.707.707,0,1,0,.358-.61l-.957-.559,1.385-.606a.353.353,0,0,0-.284-.647L10.51,9.4l-1.044-.61L11.5,7.9a.353.353,0,0,0,0-.647l-2.023-.9,1.049-.6,1.846.83a.354.354,0,0,0,.29-.645L11.29,5.321l.962-.549a.706.706,0,1,0-.35-.615l-.962.549.168-1.5a.353.353,0,0,0-.7-.078L10.181,5.14l-1.015.578L9.41,3.584a.354.354,0,0,0-.558-.327L7.009,4.591,7.017,3.3,8.665,2.116a.353.353,0,1,0-.411-.574l-1.233.883.007-1.1a.7.7,0,1,0-.737-.044L6.285,2.421l-1.192-.9a.337.337,0,0,0-.48.075.351.351,0,0,0,.054.494l1.613,1.2L6.274,4.457,4.624,3.235a.353.353,0,0,0-.562.32L4.29,5.762,3.159,5.1l-.2-2.015a.354.354,0,0,0-.7.071l.152,1.5L1.451,4.1a.706.706,0,1,0-1.061.6ZM2.945,7.534l1.706-.741,1.3.759-1.3.743ZM5.031,8.889l1.223-.7-.007,1.23,0,.349L4.812,10.808Zm1.951.755V9.426L6.99,8.159l1.1.644.3.174.191,1.851Zm1.727-1.3L7.363,7.559l1.094-.623.263-.15,1.764.789Zm-.3-2.194-.3.17L7,6.955,7,5.685V5.467L8.617,4.3ZM6.269,5.333v.349L6.26,6.915,5.22,6.306l-.173-.1-.2-1.925Z" transform="translate(323.93 129.41) rotate(-31)" fill="#0073ff"/>
    <path id="Контур_1661" data-name="Контур 1661" d="M.731,8.826a1.32,1.32,0,0,0,1.312.01l1.8,1.051-2.6,1.133a.663.663,0,0,0,.531,1.216l3.479-1.522,2.05,1.2-3.689,1.6a.663.663,0,0,0-.007,1.213l3.677,1.646-1.04.594-1.025.584-3.463-1.56a.664.664,0,0,0-.544,1.21L3.8,18.362,2,19.39a1.325,1.325,0,1,0,.649,1.156l1.809-1.032-.317,2.815a.664.664,0,0,0,1.319.147L5.88,18.7l1.76-1,.37-.21-.472,4.129a.663.663,0,0,0,1.048.613l3.12-2.258-.012,2.179L8.644,24.369a.657.657,0,0,0-.11.926.632.632,0,0,0,.9.151l2.253-1.657-.012,2.124a1.329,1.329,0,1,0,1.382-.054l.011-2.062,2.3,1.682a.663.663,0,1,0,.784-1.069l-3.071-2.253.012-2.423,3.429,2.537a.663.663,0,0,0,1.054-.6l-.414-4,1.888,1.1.381,3.777a.664.664,0,0,0,1.32-.135L20.459,19.6l1.793,1.048a1.326,1.326,0,1,0,.671-1.145l-1.794-1.048,2.6-1.137a.663.663,0,0,0-.532-1.214l-3.481,1.523-1.959-1.145,3.818-1.659a.663.663,0,0,0,.007-1.213l-3.8-1.7,1.968-1.122,3.462,1.557a.664.664,0,0,0,.544-1.21L21.176,9.981l1.8-1.029A1.325,1.325,0,1,0,22.325,7.8L20.52,8.829l.314-2.818a.663.663,0,0,0-1.318-.147L19.1,9.64l-1.9,1.085.457-4A.663.663,0,0,0,16.6,6.109l-3.456,2.5.014-2.424,3.093-2.219a.662.662,0,1,0-.772-1.077L13.169,4.548l.012-2.057A1.322,1.322,0,1,0,11.8,2.409l-.011,2.132L9.552,2.86a.633.633,0,0,0-.9.142.659.659,0,0,0,.1.927L11.779,6.18l-.011,2.179-3.1-2.292a.662.662,0,0,0-1.054.6l.427,4.141L5.926,9.568,5.545,5.789a.664.664,0,0,0-1.32.133L4.51,8.742,2.722,7.7A1.324,1.324,0,1,0,.731,8.826Zm4.793,5.3,3.2-1.39,2.437,1.424L8.715,15.559Zm3.912,2.543,2.294-1.308-.012,2.307,0,.655L9.026,20.273Zm3.66,1.417V17.68l.014-2.375,2.066,1.209.559.327.358,3.471Zm3.238-2.437-2.524-1.476,2.051-1.169.494-.282,3.308,1.48Zm-.569-4.115-.559.319-2.083,1.187.012-2.381,0-.41,3.023-2.189ZM11.759,10l0,.655-.014,2.313L9.791,11.828l-.325-.191-.373-3.61Z" transform="matrix(0.875, -0.485, 0.485, 0.875, 436.14, 144.785)" fill="#0073ff"/>
    <path id="Контур_1665" data-name="Контур 1665" d="M.26,3.136a.469.469,0,0,0,.466,0l.639.373-.922.4a.236.236,0,0,0,.189.432l1.236-.541.728.426L1.285,4.8a.235.235,0,0,0,0,.431l1.306.585-.369.211-.364.207L.625,5.681a.236.236,0,0,0-.193.43l.918.413-.64.365A.471.471,0,1,0,.94,7.3l.643-.367-.113,1a.236.236,0,0,0,.469.052l.15-1.341.625-.357.132-.074L2.678,7.68A.236.236,0,0,0,3.05,7.9l1.108-.8,0,.774-1.083.788a.233.233,0,0,0-.039.329.224.224,0,0,0,.319.054l.8-.589,0,.754a.472.472,0,1,0,.491-.019l0-.733.816.6a.235.235,0,1,0,.279-.38l-1.091-.8,0-.861,1.218.9A.235.235,0,0,0,6.242,7.7L6.1,6.277l.671.392L6.9,8.011a.236.236,0,0,0,.469-.048l-.1-1,.637.372a.471.471,0,1,0,.238-.407l-.637-.372.923-.4a.236.236,0,0,0-.189-.431L7,6.263l-.7-.407,1.356-.59a.235.235,0,0,0,0-.431l-1.348-.6.7-.4,1.23.553a.236.236,0,0,0,.193-.43l-.917-.412.641-.366a.471.471,0,1,0-.233-.41l-.641.366.112-1a.236.236,0,0,0-.468-.052L6.784,3.425l-.676.385.162-1.422A.236.236,0,0,0,5.9,2.17l-1.228.889,0-.861,1.1-.788A.235.235,0,1,0,5.5,1.027l-.822.589,0-.731A.47.47,0,1,0,4.192.856l0,.757-.795-.6a.225.225,0,0,0-.32.05A.234.234,0,0,0,3.11,1.4l1.075.8,0,.774-1.1-.814a.235.235,0,0,0-.374.213L2.859,3.84,2.105,3.4,1.97,2.057A.236.236,0,0,0,1.5,2.1l.1,1L.967,2.734a.47.47,0,1,0-.707.4Zm1.7,1.885L3.1,4.527l.866.506-.869.5Zm1.39.9.815-.465,0,.82v.233L3.206,7.2Zm1.3.5V6.281l0-.844.734.429.2.116.127,1.233ZM5.8,5.561l-.9-.524.729-.415.176-.1,1.175.526ZM5.6,4.1l-.2.113-.74.422,0-.846V3.643l1.074-.778ZM4.178,3.554v.233l0,.822L3.478,4.2l-.116-.068L3.23,2.852Z" transform="translate(376.793 197.537) rotate(27)" fill="#0073ff"/>
    <path id="Контур_1667" data-name="Контур 1667" d="M.385,4.643a.7.7,0,0,0,.69.005l.946.553L.655,5.8a.349.349,0,0,0,.279.639l1.83-.8,1.078.63L1.9,7.109a.349.349,0,0,0,0,.638l1.934.866-.547.312-.539.307L.925,8.411a.349.349,0,0,0-.286.637L2,9.658l-.947.541a.7.7,0,1,0,.342.608l.952-.543-.167,1.481a.349.349,0,0,0,.694.077l.222-1.985.926-.528.195-.11L3.965,11.37a.349.349,0,0,0,.551.322L6.157,10.5l-.006,1.146-1.6,1.167a.346.346,0,0,0-.058.487.332.332,0,0,0,.473.079l1.185-.871L6.14,13.63a.7.7,0,1,0,.727-.029l.006-1.085,1.208.885a.349.349,0,1,0,.412-.562L6.878,11.655l.006-1.275,1.8,1.335a.349.349,0,0,0,.554-.316L9.024,9.294l.993.581.2,1.987a.349.349,0,0,0,.695-.071l-.151-1.481.943.551a.7.7,0,1,0,.353-.6l-.944-.551,1.366-.6a.349.349,0,0,0-.28-.639l-1.831.8-1.03-.6L11.347,7.8a.349.349,0,0,0,0-.638l-2-.893,1.035-.59,1.821.819a.349.349,0,0,0,.286-.637L11.139,5.25l.949-.541a.7.7,0,1,0-.345-.606l-.949.542.165-1.482a.349.349,0,0,0-.693-.077l-.221,1.986-1,.571.241-2.106a.349.349,0,0,0-.551-.322L6.916,4.53l.007-1.275L8.55,2.087a.348.348,0,1,0-.406-.566l-1.217.871L6.933,1.31a.7.7,0,1,0-.727-.043L6.2,2.389,5.025,1.5a.333.333,0,0,0-.474.074.346.346,0,0,0,.054.488L6.2,3.251,6.19,4.4,4.562,3.191a.348.348,0,0,0-.554.316l.225,2.178L3.117,5.033l-.2-1.988a.349.349,0,0,0-.695.07L2.372,4.6l-.941-.551a.7.7,0,1,0-1.047.6Zm2.521,2.79L4.589,6.7l1.282.749-1.287.733ZM4.964,8.771,6.17,8.082,6.164,9.3l0,.344L4.747,10.664Zm1.925.745V9.3L6.9,8.05l1.087.636.294.172.188,1.826Zm1.7-1.282L7.265,7.458l1.079-.615.26-.148,1.74.778Zm-.3-2.165L8,6.237l-1.1.624L6.91,5.609V5.394L8.5,4.242ZM6.185,5.261v.344L6.177,6.822l-1.027-.6-.171-.1-.2-1.9Z" transform="translate(489.78 229.41) rotate(-21)" fill="#0073ff"/>
    <path id="Контур_1646" data-name="Контур 1646" d="M.691,8.341a1.248,1.248,0,0,0,1.24.009l1.7.993-2.453,1.07a.627.627,0,0,0,.5,1.149l3.288-1.438L6.9,11.256,3.418,12.771a.626.626,0,0,0-.006,1.146l3.474,1.555-.983.561-.969.552L1.662,15.111a.627.627,0,0,0-.515,1.144l2.441,1.1-1.7.971A1.252,1.252,0,1,0,2.5,19.415l1.71-.975-.3,2.66a.627.627,0,0,0,1.246.139l.4-3.566,1.663-.949.35-.2-.446,3.9a.627.627,0,0,0,.99.579l2.948-2.134-.012,2.059-2.881,2.1a.621.621,0,0,0-.1.875.6.6,0,0,0,.849.143l2.129-1.565-.012,2.007a1.256,1.256,0,1,0,1.306-.051l.01-1.949,2.17,1.59a.626.626,0,1,0,.741-1.01l-2.9-2.129.012-2.29,3.24,2.4a.626.626,0,0,0,1-.567L16.212,16.7,18,17.74l.36,3.57a.627.627,0,0,0,1.248-.127l-.271-2.66,1.694.99a1.253,1.253,0,1,0,.634-1.082l-1.7-.99,2.454-1.074a.626.626,0,0,0-.5-1.147l-3.289,1.439-1.851-1.082,3.608-1.568a.626.626,0,0,0,.006-1.146l-3.586-1.6,1.86-1.06,3.271,1.472a.627.627,0,0,0,.515-1.144l-2.44-1.095,1.706-.972a1.252,1.252,0,1,0-.62-1.09l-1.706.974.3-2.663a.626.626,0,0,0-1.245-.139l-.4,3.568-1.8,1.025.432-3.783a.627.627,0,0,0-.989-.579L12.424,8.137l.013-2.291,2.923-2.1a.626.626,0,1,0-.729-1.017L12.445,4.3l.012-1.944a1.249,1.249,0,1,0-1.306-.077l-.01,2.014L9.027,2.7a.6.6,0,0,0-.852.134.622.622,0,0,0,.1.876l2.86,2.128L11.121,7.9,8.2,5.733a.626.626,0,0,0-1,.567l.4,3.913-2-1.172L5.24,5.471A.627.627,0,0,0,3.992,5.6l.27,2.664-1.69-.989A1.251,1.251,0,1,0,.691,8.341ZM5.22,13.354,8.245,12.04l2.3,1.346L8.236,14.7Zm3.7,2.4,2.167-1.236-.012,2.18,0,.619L8.529,19.158ZM12.376,17.1v-.388l.013-2.245L14.343,15.6l.529.309.338,3.28Zm3.06-2.3L13.052,13.4l1.939-1.1.467-.266,3.126,1.4ZM14.9,10.9l-.529.3L12.4,12.327l.012-2.25,0-.387,2.857-2.068ZM11.112,9.452l0,.619L11.1,12.256,9.252,11.177,8.944,11,8.592,7.586Z" transform="translate(1061.891 155.469) rotate(19)" fill="#0073ff"/>
    <path id="Контур_1647" data-name="Контур 1647" d="M.867,10.466a1.566,1.566,0,0,0,1.556.011l2.132,1.246L1.478,13.067a.786.786,0,0,0,.63,1.441l4.126-1.8,2.431,1.42-4.374,1.9a.786.786,0,0,0-.008,1.438l4.36,1.952-1.233.7-1.215.692-4.106-1.85A.787.787,0,0,0,1.44,20.4L4.5,21.774,2.369,22.993a1.571,1.571,0,1,0,.77,1.37l2.145-1.224-.376,3.338a.787.787,0,0,0,1.564.174l.5-4.475,2.087-1.191.439-.249-.56,4.9a.787.787,0,0,0,1.243.726l3.7-2.678-.015,2.584L10.251,28.9a.779.779,0,0,0-.131,1.1.749.749,0,0,0,1.065.179l2.671-1.964-.015,2.518a1.577,1.577,0,1,0,1.638-.065l.013-2.446,2.723,2a.786.786,0,1,0,.93-1.267L15.5,26.274l.015-2.873,4.066,3.009a.786.786,0,0,0,1.249-.712l-.491-4.746,2.239,1.309.452,4.479a.787.787,0,0,0,1.566-.16l-.341-3.338,2.126,1.243a1.572,1.572,0,1,0,.8-1.358l-2.127-1.243,3.08-1.348A.786.786,0,0,0,27.5,19.1L23.376,20.9l-2.323-1.358,4.528-1.968a.786.786,0,0,0,.008-1.438l-4.5-2.013,2.334-1.33,4.1,1.847a.787.787,0,0,0,.646-1.435l-3.062-1.374,2.14-1.22a1.571,1.571,0,1,0-.778-1.367l-2.14,1.222.373-3.341a.786.786,0,0,0-1.563-.174l-.5,4.478-2.257,1.287.542-4.747a.787.787,0,0,0-1.241-.726l-4.1,2.967.016-2.875,3.667-2.631a.785.785,0,1,0-.915-1.277L15.616,5.393l.015-2.439a1.568,1.568,0,1,0-1.638-.1l-.013,2.528L11.327,3.391a.75.75,0,0,0-1.069.168.781.781,0,0,0,.121,1.1l3.588,2.67-.013,2.584L10.285,7.194a.785.785,0,0,0-1.249.712l.507,4.91L7.027,11.346,6.575,6.865a.787.787,0,0,0-1.566.158l.339,3.343L3.227,9.125a1.57,1.57,0,1,0-2.36,1.341Zm5.684,6.291,3.795-1.648L13.235,16.8l-2.9,1.653Zm4.639,3.015,2.72-1.551L13.9,20.957l0,.776L10.7,24.04Zm4.341,1.68,0-.487.016-2.817L18,19.582l.663.387.425,4.116Zm3.84-2.889-2.993-1.75,2.433-1.387.586-.334,3.922,1.755Zm-.675-4.88-.663.378-2.47,1.408.015-2.823,0-.486,3.585-2.6Zm-4.752-1.822,0,.776-.016,2.743L11.61,14.026l-.386-.226-.442-4.281Z" transform="matrix(0.875, -0.485, 0.485, 0.875, 1160.027, 206.461)" fill="#0073ff"/>
    <path id="Контур_1649" data-name="Контур 1649" d="M.506,6.106a.913.913,0,0,0,.908.007l1.244.727-1.8.783a.459.459,0,0,0,.367.841L3.636,7.411l1.418.829L2.5,9.349a.458.458,0,0,0,0,.839l2.543,1.138-.719.411-.709.4-2.4-1.079A.459.459,0,0,0,.84,11.9l1.787.8-1.246.711a.916.916,0,1,0,.449.8L3.082,13.5l-.219,1.947a.459.459,0,0,0,.912.1l.292-2.61,1.218-.695.256-.145-.327,2.856a.459.459,0,0,0,.725.424L8.1,13.815l-.008,1.508L5.98,16.857a.455.455,0,0,0-.076.64.437.437,0,0,0,.621.1l1.558-1.146-.008,1.469a.92.92,0,1,0,.956-.038l.008-1.427,1.589,1.164a.458.458,0,1,0,.542-.739L9.045,15.327l.008-1.676,2.372,1.755a.459.459,0,0,0,.729-.415l-.286-2.768,1.306.764.264,2.613a.459.459,0,0,0,.913-.093l-.2-1.947,1.24.725a.917.917,0,1,0,.464-.792l-1.241-.725,1.8-.786a.459.459,0,0,0-.368-.84l-2.408,1.054L12.281,11.4l2.641-1.148a.458.458,0,0,0,0-.839L12.3,8.241l1.362-.776,2.395,1.077a.459.459,0,0,0,.377-.837l-1.786-.8L15.9,6.192a.917.917,0,1,0-.454-.8l-1.249.713.218-1.949a.459.459,0,0,0-.911-.1L13.21,6.669l-1.316.75L12.21,4.65a.459.459,0,0,0-.724-.424L9.095,5.957,9.1,4.28l2.139-1.535A.458.458,0,1,0,10.709,2L9.11,3.146l.008-1.423a.915.915,0,1,0-.956-.056L8.155,3.141,6.608,1.978a.438.438,0,0,0-.623.1.456.456,0,0,0,.071.641L8.148,4.275,8.141,5.783,6,4.2a.458.458,0,0,0-.729.415l.3,2.864L4.1,6.619,3.836,4a.459.459,0,0,0-.913.092l.2,1.95L1.883,5.323a.916.916,0,1,0-1.377.782Zm3.315,3.67,2.214-.961L7.721,9.8l-1.692.964Zm2.706,1.759,1.587-.9-.008,1.6,0,.453-1.86,1.346Zm2.532.98V12.23l.009-1.643,1.429.836.387.226.248,2.4Zm2.24-1.686L9.554,9.808,10.973,9l.342-.195L13.6,9.828Zm-.394-2.847-.387.22-1.441.821.008-1.647,0-.283L11.18,5.579ZM8.134,6.919l0,.453-.009,1.6-1.35-.79L6.547,8.05l-.258-2.5Z" transform="translate(1272.805 147.01) rotate(15)" fill="#0073ff"/>
    <line id="Линия_1822" data-name="Линия 1822" y2="77" transform="translate(962.5 99.5)" fill="none" stroke="#0073ff" stroke-width="1"/>
    <g id="Сгруппировать_4372" data-name="Сгруппировать 4372" transform="translate(-535 -164)">
      <g id="Сгруппировать_4371" data-name="Сгруппировать 4371" transform="translate(1303 263.999)">
        <path id="Контур_1653" data-name="Контур 1653" d="M122.74,41.662l-4.03,3.816a.986.986,0,0,0-.3.869l.859,5.483a.986.986,0,0,1-1.446,1.018l-4.875-2.654a.984.984,0,0,0-.917-.013l-4.95,2.511a.986.986,0,0,1-1.415-1.06l1.018-5.456a.986.986,0,0,0-.271-.877L102.5,41.368a.986.986,0,0,1,.571-1.673l5.5-.719a.985.985,0,0,0,.75-.528l2.528-4.941a.986.986,0,0,1,1.768.026L116,38.545a.986.986,0,0,0,.734.55l5.481.878A.986.986,0,0,1,122.74,41.662Z" transform="translate(-102.209 -26.527)" fill="#0073ff"/>
        <line id="Линия_1817" data-name="Линия 1817" y2="7.005" transform="translate(10.42 0)" fill="#0073ff" stroke="#0073ff" stroke-miterlimit="10" stroke-width="1"/>
        <path id="Контур_1654" data-name="Контур 1654" d="M126.82,46.918l.4.846a.694.694,0,0,0,.517.387l2.887.462" transform="translate(-115.152 -33.862)" fill="none" stroke="#fff" stroke-linecap="round" stroke-linejoin="round" stroke-width="1"/>
      </g>
    </g>
    <g id="Сгруппировать_4378" data-name="Сгруппировать 4378" transform="translate(34 -164)">
      <g id="Сгруппировать_4371-2" data-name="Сгруппировать 4371" transform="translate(1303 263.999)">
        <path id="Контур_1653-2" data-name="Контур 1653" d="M127.819,43.812l-5.027,4.76a1.23,1.23,0,0,0-.37,1.083l1.072,6.84a1.23,1.23,0,0,1-1.8,1.27l-6.081-3.31a1.228,1.228,0,0,0-1.144-.017l-6.175,3.132a1.23,1.23,0,0,1-1.765-1.322l1.27-6.806a1.231,1.231,0,0,0-.338-1.093l-4.888-4.9a1.23,1.23,0,0,1,.712-2.087l6.865-.9a1.229,1.229,0,0,0,.936-.659l3.154-6.163a1.23,1.23,0,0,1,2.205.032l2.974,6.252a1.23,1.23,0,0,0,.916.686l6.836,1.1A1.23,1.23,0,0,1,127.819,43.812Z" transform="translate(-102.209 -24.933)" fill="#0073ff"/>
        <line id="Линия_1817-2" data-name="Линия 1817" y2="8.738" transform="translate(12.998 0)" fill="#0073ff" stroke="#0073ff" stroke-miterlimit="10" stroke-width="1"/>
        <path id="Контур_1654-2" data-name="Контур 1654" d="M126.82,46.918l.5,1.055a.866.866,0,0,0,.645.483l3.6.577" transform="translate(-112.265 -30.632)" fill="none" stroke="#fff" stroke-linecap="round" stroke-linejoin="round" stroke-width="1"/>
      </g>
    </g>
    <g id="Сгруппировать_4373" data-name="Сгруппировать 4373" transform="translate(670.473 58.922)">
      <line id="Линия_1818" data-name="Линия 1818" y2="7.735" transform="translate(217.399 41.078)" fill="none" stroke="#0073ff" stroke-linecap="round" stroke-linejoin="round" stroke-width="1"/>
      <circle id="Эллипс_247" data-name="Эллипс 247" cx="12.872" cy="12.872" r="12.872" transform="translate(204.527 52.131)" fill="none" stroke="#0073ff" stroke-linecap="round" stroke-linejoin="round" stroke-width="1"/>
      <path id="Контур_1655" data-name="Контур 1655" d="M229.285,72.718a8.525,8.525,0,0,1-6.929,6.891" transform="translate(-3.501 -6.213)" fill="none" stroke="#0073ff" stroke-linecap="round" stroke-linejoin="round" stroke-width="1"/>
      <path id="Контур_1656" data-name="Контур 1656" d="M210.108,67.526a8.493,8.493,0,0,1,6.677-7.021" transform="translate(-1.096 -3.815)" fill="none" stroke="#0073ff" stroke-linecap="round" stroke-linejoin="round" stroke-width="1"/>
      <path id="Прямоугольник_922" data-name="Прямоугольник 922" d="M1.051,0H2.282A1.051,1.051,0,0,1,3.333,1.051V3.333a0,0,0,0,1,0,0H0a0,0,0,0,1,0,0V1.051A1.051,1.051,0,0,1,1.051,0Z" transform="translate(215.733 48.813)" fill="none" stroke="#0073ff" stroke-linecap="round" stroke-linejoin="round" stroke-width="1"/>
    </g>
    <g id="Сгруппировать_4381" data-name="Сгруппировать 4381" transform="translate(1220.473 58.922)">
      <line id="Линия_1818-2" data-name="Линия 1818" y2="10.515" transform="translate(222.027 41.078)" fill="none" stroke="#0073ff" stroke-linecap="round" stroke-linejoin="round" stroke-width="1"/>
      <circle id="Эллипс_247-2" data-name="Эллипс 247" cx="17.5" cy="17.5" r="17.5" transform="translate(204.527 56.104)" fill="none" stroke="#0073ff" stroke-linecap="round" stroke-linejoin="round" stroke-width="1"/>
      <path id="Контур_1655-2" data-name="Контур 1655" d="M231.776,72.718a11.59,11.59,0,0,1-9.42,9.369" transform="translate(1.65 2.928)" fill="none" stroke="#0073ff" stroke-linecap="round" stroke-linejoin="round" stroke-width="1"/>
      <path id="Контур_1656-2" data-name="Контур 1656" d="M210.108,70.051a11.547,11.547,0,0,1,9.078-9.546" transform="translate(0.516 1.798)" fill="none" stroke="#0073ff" stroke-linecap="round" stroke-linejoin="round" stroke-width="1"/>
      <path id="Прямоугольник_922-2" data-name="Прямоугольник 922" d="M1.051,0H3.48A1.051,1.051,0,0,1,4.531,1.051v3.48a0,0,0,0,1,0,0H0a0,0,0,0,1,0,0V1.051A1.051,1.051,0,0,1,1.051,0Z" transform="translate(219.761 51.594)" fill="none" stroke="#0073ff" stroke-linecap="round" stroke-linejoin="round" stroke-width="1"/>
    </g>
    <g id="Сгруппировать_4374" data-name="Сгруппировать 4374" transform="translate(930.589 48.506)">
      <path id="Контур_1657" data-name="Контур 1657" d="M278.207,58.93,281,64.592a1.644,1.644,0,0,0,1.236.9l6.249.907a1.327,1.327,0,0,1,.734,2.263l-4.52,4.407a1.642,1.642,0,0,0-.473,1.453l1.068,6.223a1.327,1.327,0,0,1-1.925,1.4L277.782,79.2a1.642,1.642,0,0,0-1.529,0l-5.589,2.938a1.327,1.327,0,0,1-1.925-1.4l1.068-6.223a1.642,1.642,0,0,0-.473-1.453l-4.522-4.407a1.327,1.327,0,0,1,.735-2.263l6.248-.907a1.646,1.646,0,0,0,1.237-.9l2.794-5.662A1.326,1.326,0,0,1,278.207,58.93Z" transform="translate(0 2.554)" fill="none" stroke="#0073ff" stroke-miterlimit="10" stroke-width="1"/>
      <line id="Линия_1819" data-name="Линия 1819" y2="10.251" transform="translate(277.017 50.494)" fill="none" stroke="#0073ff" stroke-miterlimit="10" stroke-width="1"/>
    </g>
    <g id="Сгруппировать_4377" data-name="Сгруппировать 4377" transform="translate(366.589 48.506)">
      <path id="Контур_1657-2" data-name="Контур 1657" d="M278.479,58.945l2.85,5.774a1.676,1.676,0,0,0,1.26.917l6.373.925a1.353,1.353,0,0,1,.748,2.308l-4.61,4.494a1.674,1.674,0,0,0-.482,1.482l1.089,6.346a1.353,1.353,0,0,1-1.963,1.426l-5.7-3a1.675,1.675,0,0,0-1.559,0l-5.7,3a1.353,1.353,0,0,1-1.963-1.426l1.089-6.346a1.675,1.675,0,0,0-.482-1.482l-4.611-4.494a1.353,1.353,0,0,1,.75-2.308l6.371-.925a1.679,1.679,0,0,0,1.262-.917l2.85-5.774A1.353,1.353,0,0,1,278.479,58.945Z" transform="translate(0 2.757)" fill="none" stroke="#0073ff" stroke-miterlimit="10" stroke-width="1"/>
      <line id="Линия_1819-2" data-name="Линия 1819" y2="10.454" transform="translate(277.266 50.494)" fill="none" stroke="#0073ff" stroke-miterlimit="10" stroke-width="1"/>
    </g>
    <g id="Сгруппировать_4375" data-name="Сгруппировать 4375" transform="translate(958.364 29.674)">
      <line id="Линия_1820" data-name="Линия 1820" y2="5.766" transform="translate(169.594 70.326)" fill="none" stroke="#0073ff" stroke-linecap="round" stroke-linejoin="round" stroke-width="1"/>
      <circle id="Эллипс_248" data-name="Эллипс 248" cx="9.958" cy="9.958" r="9.958" transform="translate(159.636 78.452)" fill="#0073ff"/>
      <circle id="Эллипс_249" data-name="Эллипс 249" cx="9.958" cy="9.958" r="9.958" transform="translate(159.636 78.452)" fill="#0073ff"/>
      <path id="Контур_1658" data-name="Контур 1658" d="M173.119,84.79a6.354,6.354,0,0,1-5.166,5.136" transform="translate(2.725 4.74)" fill="none" stroke="#fff" stroke-linecap="round" stroke-linejoin="round" stroke-width="1"/>
      <path id="Контур_1659" data-name="Контур 1659" d="M162.427,84.513a6.333,6.333,0,0,1,4.978-5.234" transform="translate(0.915 2.934)" fill="none" stroke="#fff" stroke-linecap="round" stroke-linejoin="round" stroke-width="1"/>
      <path id="Контур_1660" data-name="Контур 1660" d="M169.231,75.191v1.1a10.2,10.2,0,0,0-1.686-.133,11.539,11.539,0,0,0-1.673.119V75.191a.847.847,0,0,1,.85-.85h1.66A.847.847,0,0,1,169.231,75.191Z" transform="translate(2.043 1.316)" fill="#0073ff"/>
    </g>
    <g id="Сгруппировать_4380" data-name="Сгруппировать 4380" transform="translate(371.364 29.674)">
      <line id="Линия_1820-2" data-name="Линия 1820" y2="6.102" transform="translate(170.174 70.326)" fill="none" stroke="#0073ff" stroke-linecap="round" stroke-linejoin="round" stroke-width="1"/>
      <circle id="Эллипс_248-2" data-name="Эллипс 248" cx="10.538" cy="10.538" r="10.538" transform="translate(159.636 78.925)" fill="#0073ff"/>
      <circle id="Эллипс_249-2" data-name="Эллипс 249" cx="10.538" cy="10.538" r="10.538" transform="translate(159.636 78.925)" fill="#0073ff"/>
      <path id="Контур_1658-2" data-name="Контур 1658" d="M173.42,84.79a6.725,6.725,0,0,1-5.467,5.435" transform="translate(3.368 5.858)" fill="none" stroke="#fff" stroke-linecap="round" stroke-linejoin="round" stroke-width="1"/>
      <path id="Контур_1659-2" data-name="Контур 1659" d="M162.427,84.818a6.7,6.7,0,0,1,5.267-5.539" transform="translate(1.13 3.626)" fill="none" stroke="#fff" stroke-linecap="round" stroke-linejoin="round" stroke-width="1"/>
      <path id="Контур_1660-2" data-name="Контур 1660" d="M169.427,75.24v1.166a10.788,10.788,0,0,0-1.784-.141,12.209,12.209,0,0,0-1.77.126V75.24a.9.9,0,0,1,.9-.9h1.756A.9.9,0,0,1,169.427,75.24Z" transform="translate(2.526 1.626)" fill="#0073ff"/>
    </g>
    <g id="Сгруппировать_4376" data-name="Сгруппировать 4376" transform="translate(845.118 55.729)">
      <line id="Линия_1821" data-name="Линия 1821" y2="3.006" transform="translate(184.072 44.271)" fill="none" stroke="#0073ff" stroke-linecap="round" stroke-linejoin="round" stroke-width="1"/>
      <circle id="Эллипс_250" data-name="Эллипс 250" cx="5.191" cy="5.191" r="5.191" transform="translate(178.881 47.11)" fill="#0073ff"/>
    </g>
    <g id="Сгруппировать_4382" data-name="Сгруппировать 4382" transform="translate(1420.118 55.729)">
      <line id="Линия_1821-2" data-name="Линия 1821" y2="2.116" transform="translate(182.534 44.271)" fill="none" stroke="#0073ff" stroke-linecap="round" stroke-linejoin="round" stroke-width="1"/>
      <circle id="Эллипс_250-2" data-name="Эллипс 250" cx="3.654" cy="3.654" r="3.654" transform="translate(178.881 46.269)" fill="#0073ff"/>
    </g>
  </g>
</svg>
