<svg xmlns="http://www.w3.org/2000/svg" width="36.001" height="36" viewBox="0 0 36.001 36"><g transform="translate(-988 -11049)"><circle cx="18" cy="18" r="18" transform="translate(988 11049)" fill="#fff"/><g transform="translate(844.119 10493)"><path d="M791.033,517.849a1.623,1.623,0,0,0,1.6-1.609,1.6,1.6,0,0,0-3.194.019A1.631,1.631,0,0,0,791.033,517.849Z" transform="translate(-629.158 51.981)" fill="#f58220"/><path d="M797.058,507.928a18,18,0,1,0,18,18A18,18,0,0,0,797.058,507.928Zm.044,6.586a5.914,5.914,0,1,1-5.979,5.928A5.925,5.925,0,0,1,797.1,514.514Zm5.8,15.172c-.99.509-2.036.91-3.059,1.355-.062.027-.129.041-.349.105.446.418.817.754,1.176,1.1.712.7,1.43,1.387,2.118,2.1a1.725,1.725,0,0,1-.014,2.458,1.755,1.755,0,0,1-2.494.012c-.968-.936-1.917-1.89-2.868-2.842a3.655,3.655,0,0,1-.312-.433c-.368.385-.652.69-.948.984-.774.774-1.532,1.562-2.334,2.3a1.762,1.762,0,1,1-2.42-2.562c.93-.934,1.872-1.855,2.808-2.784.1-.105.2-.218.287-.311-.856-.356-1.682-.687-2.5-1.041a4.76,4.76,0,0,1-.838-.476,1.76,1.76,0,0,1,1.872-2.978,7.727,7.727,0,0,0,3.811,1.166,7.317,7.317,0,0,0,4.083-1.077,1.784,1.784,0,0,1,1.483-.252,1.687,1.687,0,0,1,1.3,1.484A1.551,1.551,0,0,1,802.9,529.686Z" transform="translate(-635.176 48.072)" fill="#f58220"/></g></g></svg>