<svg xmlns="http://www.w3.org/2000/svg" width="36" height="36" viewBox="0 0 36 36">
  <g id="n_place" transform="translate(-1122 -1694)">
    <g id="Group_1127" data-name="Group 1127" transform="translate(-895 43)">
      <circle id="Ellipse_111" data-name="Ellipse 111" cx="18" cy="18" r="18" transform="translate(2017 1651)" fill="#05f"/>
      <path id="Path_652" data-name="Path 652" d="M252.909,160.734c-.013-.018-.021-.04-.034-.058s-.02-.041-.032-.059-2.226-3.977-2.238-4a3.126,3.126,0,0,0-2.383-1.415l-.008-.014-.011-.02c-.194-.278-.309-.61-.5-.89a1.827,1.827,0,0,0-3.313,1.393c.1.529.338,1.033.455,1.559a1.941,1.941,0,0,0,.093.3,3.1,3.1,0,0,0-.112.788c0,.067.016.129.022.194l.058.41a5.765,5.765,0,0,0-2.63,0v0l-.018,0,.093-.653h0a3.116,3.116,0,0,0-.107-.739,2.054,2.054,0,0,0,.092-.3c.12-.527.338-1.031.455-1.559a1.827,1.827,0,0,0-3.313-1.393c-.2.29-.318.635-.519.924a3.123,3.123,0,0,0-2.382,1.415c-.013.018-.021.04-.034.059s-2.225,3.976-2.237,3.995-.021.04-.033.058a3.848,3.848,0,1,0,6.961,2.9c.005-.022.01-.044.014-.066s.011-.044.016-.067.01-.043.015-.066.01-.044.014-.066.011-.044.016-.066l.008-.039a7.5,7.5,0,0,1,1.4-.172,1.392,1.392,0,0,0,2.05,0,9.522,9.522,0,0,1,1.079.106l.009.038c0,.023.01.044.015.067s.01.044.015.066l.015.066c0,.023.01.044.015.067s.01.044.015.066.01.044.015.066a3.847,3.847,0,1,0,6.961-2.9Zm-15.447,4.9a2.746,2.746,0,1,1,2.746-2.746A2.746,2.746,0,0,1,237.462,165.636Zm6.278-2.74a.74.74,0,1,1,.75-.74A.739.739,0,0,1,243.74,162.9Zm5.98,2.74a2.746,2.746,0,1,1,2.747-2.746A2.747,2.747,0,0,1,249.72,165.636Z" transform="translate(1791.386 1509.542)" fill="#fff"/>
    </g>
  </g>
</svg>
