<svg xmlns="http://www.w3.org/2000/svg" width="36" height="36" viewBox="0 0 36 36">
  <g id="n_food" transform="translate(-1014 -1694)">
    <g id="Group_1126" data-name="Group 1126" transform="translate(-1003 103)">
      <circle id="Ellipse_110" data-name="Ellipse 110" cx="18" cy="18" r="18" transform="translate(2017 1591)" fill="#05f"/>
      <g id="Group_1103" data-name="Group 1103" transform="translate(1694.766 1396.659)">
        <g id="Group_1082" data-name="Group 1082" transform="translate(333.496 206.325)">
          <circle id="Ellipse_78" data-name="Ellipse 78" cx="4.01" cy="4.01" r="4.01" transform="translate(2.998 2.998)" fill="#fff"/>
          <path id="Path_634" data-name="Path 634" d="M340,206.1A7.008,7.008,0,1,0,347,213.1,7.008,7.008,0,0,0,340,206.1Zm0,12.362a5.355,5.355,0,1,1,5.356-5.355A5.361,5.361,0,0,1,340,218.458Z" transform="translate(-332.99 -206.096)" fill="#fff"/>
        </g>
        <path id="Path_635" data-name="Path 635" d="M349.614,207.984c0-1.822-.957-3.59-2.137-3.59s-2.137,1.768-2.137,3.59a3.085,3.085,0,0,0,1.262,2.765l-.26,8.207v.073a1.135,1.135,0,0,0,2.27-.073l-.259-8.207A3.084,3.084,0,0,0,349.614,207.984Z" transform="translate(2.171)" fill="#fff"/>
        <path id="Path_636" data-name="Path 636" d="M333.172,204.394h-.236a.341.341,0,0,0-.34.34v3.123a.341.341,0,0,1-.34.34h-.084a.349.349,0,0,1-.34-.34v-3.123a.34.34,0,0,0-.339-.34h-.236a.341.341,0,0,0-.34.34v3.123a.349.349,0,0,1-.34.34h-.084a.349.349,0,0,1-.34-.34V207.1h0v-2.363a.341.341,0,0,0-.34-.34h-.235a.341.341,0,0,0-.34.34v3.69a2.161,2.161,0,0,0,1.3,1.975.654.654,0,0,0-.034.159l-.272,8.4v.068a1.135,1.135,0,1,0,2.27-.068l-.261-8.4a.9.9,0,0,0-.034-.17,2.133,2.133,0,0,0,1.3-1.963v-3.69A.341.341,0,0,0,333.172,204.394Z" fill="#fff"/>
      </g>
    </g>
  </g>
</svg>
