<svg xmlns="http://www.w3.org/2000/svg" width="36" height="36" viewBox="0 0 36 36">
  <g id="n_anounce" transform="translate(-1014 -1640)">
    <g id="Group_1130" data-name="Group 1130" transform="translate(-30 -4)">
      <circle id="Ellipse_114" data-name="Ellipse 114" cx="18" cy="18" r="18" transform="translate(1044 1644)" fill="#0073FF"/>
      <g id="Group_1107" data-name="Group 1107" transform="translate(918.134 1511.916)">
        <path id="Path_656" data-name="Path 656" d="M146,142.458l-5.877,2.209H136.37a2.5,2.5,0,0,0-2.5,2.5v1.349a2.936,2.936,0,0,0,2.936,2.936h.691a43.459,43.459,0,0,1,.215,5.131c0,1.614,3.753,1.386,3.753.226a8.4,8.4,0,0,0-1.4-5.357h.064L146,153.666a.66.66,0,0,0,.893-.618v-9.972A.66.66,0,0,0,146,142.458Z" transform="translate(0 0.247)" fill="#fff"/>
        <path id="Path_657" data-name="Path 657" d="M148.294,143.662a1.186,1.186,0,1,0-1.866,1.463,4.763,4.763,0,0,1,.026,5.589,1.186,1.186,0,0,0,1.883,1.443,7.132,7.132,0,0,0-.043-8.495Z" transform="translate(2.287 0.395)" fill="#fff"/>
        <path id="Path_658" data-name="Path 658" d="M150.8,141.541a1.186,1.186,0,1,0-1.869,1.46,9.027,9.027,0,0,1,.05,10.628,1.186,1.186,0,1,0,1.884,1.44,11.393,11.393,0,0,0-.065-13.527Z" transform="translate(2.752)" fill="#fff"/>
      </g>
    </g>
  </g>
</svg>
