<svg xmlns="http://www.w3.org/2000/svg" width="36" height="36" viewBox="0 0 36 36">
  <g id="n_report" transform="translate(-1068 -1640)">
    <g id="Group_1111" data-name="Group 1111" transform="translate(-603 1409)">
      <circle id="Ellipse_117" data-name="Ellipse 117" cx="18" cy="18" r="18" transform="translate(1671 231)" fill="#05f"/>
      <g id="Group_1108" data-name="Group 1108" transform="translate(1607.856 99.572)">
        <path id="Path_660" data-name="Path 660" d="M89.818,142.53a1.1,1.1,0,0,0-1.1-1.1H74.492a2.351,2.351,0,0,0-2.348,2.348v10.47a1.1,1.1,0,0,0,2.2,0v-10.47a.144.144,0,0,1,.143-.143H88.715A1.1,1.1,0,0,0,89.818,142.53Z" fill="#fff"/>
        <path id="Path_661" data-name="Path 661" d="M89.294,145.128H76.807a1.1,1.1,0,0,0-1.1,1.1v9.052a1.1,1.1,0,0,0,1.1,1.1h3.885l3.25-3.689a1.1,1.1,0,0,1,1.655,0l3.249,3.689h.449a1.1,1.1,0,0,0,1.1-1.1V146.23A1.1,1.1,0,0,0,89.294,145.128Zm-9.443,5.629a1.455,1.455,0,1,1,1.455-1.455A1.455,1.455,0,0,1,79.851,150.757Z" transform="translate(0.365 0.379)" fill="#fff"/>
      </g>
    </g>
  </g>
</svg>
