<svg xmlns="http://www.w3.org/2000/svg" width="36" height="36" viewBox="0 0 36 36">
  <g id="n_pstevnt" transform="translate(-960 -1640)">
    <g id="Group_1112" data-name="Group 1112" transform="translate(-711 1469)">
      <circle id="Ellipse_115" data-name="Ellipse 115" cx="18" cy="18" r="18" transform="translate(1671 171)" fill="#0073FF"/>
      <path id="Path_659" data-name="Path 659" d="M120.848,143.065h-2.069v-.8a1.151,1.151,0,0,0-2.3,0v.8h-5.754v-.8a1.151,1.151,0,0,0-2.3,0v.8h-2.069a1.151,1.151,0,0,0-1.151,1.151v10.531a1.151,1.151,0,0,0,1.151,1.151h14.495A1.151,1.151,0,0,0,122,154.747V144.216A1.151,1.151,0,0,0,120.848,143.065Zm-3.571,6-3.7,3.7a1.15,1.15,0,0,1-1.627,0l-2.023-2.024a1.151,1.151,0,0,1,1.627-1.627l1.209,1.211,2.89-2.89a1.151,1.151,0,0,1,1.627,1.627Z" transform="translate(1575.798 40.884)" fill="#fff"/>
    </g>
  </g>
</svg>
