<svg xmlns="http://www.w3.org/2000/svg" width="23.602" height="23.598" viewBox="0 0 23.602 23.598">
  <path id="tlgr" d="M12418,1747.3a11.3,11.3,0,1,1,11.3,11.3A11.3,11.3,0,0,1,12418,1747.3Zm13.953,4.949c.513.284.884.137,1.012-.474l1.83-8.627c.187-.752-.288-1.093-.777-.871l-10.75,4.146c-.733.3-.728.706-.135.887l2.683.837,1.027,3.147c.124.343.063.478.424.478a.7.7,0,0,0,.556-.278c.1-.1.688-.668,1.343-1.3Zm-5.717-4.293,6.042-3.812c.3-.184.58-.087.353.115l-5.174,4.668-.2,2.148Z" transform="translate(-12417.499 -1735.501)" fill="#2ea5df" stroke="rgba(0,0,0,0)" stroke-width="1"/>
</svg>
