<svg xmlns="http://www.w3.org/2000/svg" width="36.001" height="36" viewBox="0 0 36.001 36"><g transform="translate(-850 -11049)"><circle cx="18" cy="18" r="18" transform="translate(850 11049)" fill="#fff"/><g transform="translate(675.234 10493)"><path d="M827.943,507.928a18,18,0,1,0,18,18A18,18,0,0,0,827.943,507.928Zm8.58,13.449.013.593c0,6.048-4.454,13.025-12.6,13.025a12.233,12.233,0,0,1-6.79-2.057A9.063,9.063,0,0,0,818.2,533a8.707,8.707,0,0,0,5.5-1.956,4.464,4.464,0,0,1-4.137-3.18,4.351,4.351,0,0,0,.837.08,4.455,4.455,0,0,0,1.166-.155,4.556,4.556,0,0,1-3.55-4.5v-.056a4.248,4.248,0,0,0,2,.572,4.682,4.682,0,0,1-1.369-6.111,12.436,12.436,0,0,0,9.131,4.783,4.913,4.913,0,0,1-.114-1.043,4.507,4.507,0,0,1,4.427-4.578,4.351,4.351,0,0,1,3.228,1.444,8.667,8.667,0,0,0,2.82-1.11,4.587,4.587,0,0,1-1.949,2.534,8.634,8.634,0,0,0,2.542-.723A9.05,9.05,0,0,1,836.523,521.377Z" transform="translate(-635.176 48.072)" fill="#4aa1f2"/></g></g></svg>