<svg xmlns="http://www.w3.org/2000/svg" width="106.711" height="26" viewBox="0 0 106.711 26"><defs><style>.a{fill:#0073ff;}.b{fill:#fff;font-size:12px;font-family:ProximaNova-Bold, Proxima Nova;font-weight:700;letter-spacing:0.04em;}.c{fill:none;stroke:#fff;stroke-miterlimit:10;stroke-width:2px;}</style></defs><g transform="translate(-48 -160)"><rect class="a" width="106.71" height="26" rx="13" transform="translate(48 160)"/><text class="b" transform="translate(81 177)"><tspan x="0" y="0">ИСТОРИЯ</tspan></text><path class="c" d="M14.676,33.483a6.761,6.761,0,0,0-4.079-1c-2.01.044-3.778,0-3.778,0V21.492s1.687-.056,3.777,0a6.81,6.81,0,0,1,4.08,1.395,6.812,6.812,0,0,1,4.08-1.395c2.09-.056,3.777,0,3.777,0V32.487s-1.767.044-3.777,0A6.762,6.762,0,0,0,14.676,33.483Zm6.144-7.772h-2.3s-.788.092-1.229.2m-5.074,0c-.442-.1-1.23-.2-1.23-.2h-2.3m5.983,7.772v-10.6" transform="translate(51.681 146.033)"/></g></svg>